<?xml version="1.0" encoding="UTF-8"?><svg id="Layer_1" xmlns="http://www.w3.org/2000/svg" viewBox="0 0 253.08 184.8"><defs><style>.cls-1{fill:#dd8b6b;stroke:#dd8b6b;}.cls-1,.cls-2,.cls-3{stroke-miterlimit:10;}.cls-2{fill:#92a1c9;stroke:#92a1c9;}.cls-3{fill:#8f3f2a;stroke:#8f3f2a;}.cls-4{fill:#ffe9da;stroke-width:0px;}</style></defs><rect class="cls-4" width="253.08" height="184.8" rx="56.76" ry="56.76"/><path class="cls-1" d="m43.86,92.53v-31.33h2.41v-2.41h2.41v-2.41h2.41v-2.41h31.33v31.33h-2.41v2.41h-2.41v2.41h-2.41v2.41h-31.33Zm28.92-2.41v-26.51h-26.51v26.51h26.51Zm2.41-31.33h2.41v-2.41h-26.51v2.41h-2.41v2.41h26.51v-2.41Zm-21.69,26.51v-16.87h9.64v2.41h2.41v4.82h-2.41v2.41h2.41v4.82h-2.41v2.41h-9.64Zm9.64-9.64v-4.82h-7.23v4.82h7.23Zm0,7.23v-4.82h-7.23v4.82h7.23Zm14.46,2.41h2.41v-26.51h-2.41v2.41h-2.41v26.51h2.41v-2.41Z"/><path class="cls-3" d="m86.23,96.14v-31.33h2.41v-2.41h2.41v-2.41h2.41v-2.41h31.33v31.33h-2.41v2.41h-2.41v2.41h-2.41v2.41h-31.33Zm28.92-2.41v-26.51h-26.51v26.51h26.51Zm2.41-31.33h2.41v-2.41h-26.51v2.41h-2.41v2.41h26.51v-2.41Zm-19.28,26.51v-2.41h-2.41v-12.05h2.41v-2.41h7.23v2.41h2.41v12.05h-2.41v2.41h-7.23Zm7.23-14.46h-7.23v12.05h7.23v-12.05Zm14.46,14.46h2.41v-26.51h-2.41v2.41h-2.41v26.51h2.41v-2.41Z"/><path class="cls-2" d="m128.6,84.09v-31.33h2.41v-2.41h2.41v-2.41h2.41v-2.41h31.33v31.33h-2.41v2.41h-2.41v2.41h-2.41v2.41h-31.33Zm28.92-2.41v-26.51h-26.51v26.51h26.51Zm2.41-31.33h2.41v-2.41h-26.51v2.41h-2.41v2.41h26.51v-2.41Zm-16.87,26.51v-7.23h-2.41v-2.41h-2.41v-7.23h2.41v7.23h7.23v-7.23h2.41v7.23h-2.41v2.41h-2.41v7.23h-2.41Zm19.28,0h2.41v-26.51h-2.41v2.41h-2.41v26.51h2.41v-2.41Z"/><path class="cls-2" d="m44.94,132.51v-31.33h2.41v-2.41h2.41v-2.41h2.41v-2.41h31.33v31.33h-2.41v2.41h-2.41v2.41h-2.41v2.41h-31.33Zm28.92-2.41v-26.51h-26.51v26.51h26.51Zm2.41-31.33h2.41v-2.41h-26.51v2.41h-2.41v2.41h26.51v-2.41Zm-19.28,26.51v-2.41h-2.41v-12.05h2.41v-2.41h7.23v2.41h2.41v2.41h-2.41v-2.41h-7.23v12.05h7.23v-2.41h2.41v2.41h-2.41v2.41h-7.23Zm21.69,0h2.41v-26.51h-2.41v2.41h-2.41v26.51h2.41v-2.41Z"/><path class="cls-1" d="m86.23,136.12v-31.33h2.41v-2.41h2.41v-2.41h2.41v-2.41h31.33v31.33h-2.41v2.41h-2.41v2.41h-2.41v2.41h-31.33Zm28.92-2.41v-26.51h-26.51v26.51h26.51Zm2.41-31.33h2.41v-2.41h-26.51v2.41h-2.41v2.41h26.51v-2.41Zm-21.69,26.51v-16.87h2.41v14.46h9.64v2.41h-12.05Zm24.1,0h2.41v-26.51h-2.41v2.41h-2.41v26.51h2.41v-2.41Z"/><path class="cls-3" d="m128.6,124.34v-31.33h2.41v-2.41h2.41v-2.41h2.41v-2.41h31.33v31.33h-2.41v2.41h-2.41v2.41h-2.41v2.41h-31.33Zm28.92-2.41v-26.51h-26.51v26.51h26.51Zm2.41-31.33h2.41v-2.41h-26.51v2.41h-2.41v2.41h26.51v-2.41Zm-19.28,26.51v-2.41h-2.41v-14.46h2.41v14.46h7.23v-14.46h2.41v14.46h-2.41v2.41h-7.23Zm21.69,0h2.41v-26.51h-2.41v2.41h-2.41v26.51h2.41v-2.41Z"/><path class="cls-2" d="m167.37,139.27v-31.33h2.41v-2.41h2.41v-2.41h2.41v-2.41h31.33v31.33h-2.41v2.41h-2.41v2.41h-2.41v2.41h-31.33Zm28.92-2.41v-26.51h-26.51v26.51h26.51Zm2.41-31.33h2.41v-2.41h-26.51v2.41h-2.41v2.41h26.51v-2.41Zm-21.69,26.51v-16.87h9.64v2.41h2.41v4.82h-2.41v2.41h2.41v4.82h-2.41v2.41h-9.64Zm9.64-9.64v-4.82h-7.23v4.82h7.23Zm0,7.23v-4.82h-7.23v4.82h7.23Zm14.46,2.41h2.41v-26.51h-2.41v2.41h-2.41v26.51h2.41v-2.41Z"/><path class="cls-1" d="m167.37,100.84l2.8-31.21,2.4.22.22-2.4,2.4.22.22-2.4,2.4.22.22-2.4,31.21,2.8-2.8,31.21-2.4-.22-.22,2.4-2.4-.22-.22,2.4-2.4-.22-.22,2.4-31.21-2.8Zm29.02.18l2.37-26.41-26.41-2.37-2.37,26.41,26.41,2.37Zm5.2-30.99l2.4.22.22-2.4-26.41-2.37-.22,2.4-2.4-.22-.22,2.4,26.41,2.37.22-2.4Zm-23.11,14.87l.43-4.8,2.4.22.22-2.4,7.2.65-.22,2.4,2.4.22-.22,2.4-2.4-.22.22-2.4-7.2-.65-.43,4.8-2.4-.22Zm1.54,9.82l.22-2.4-2.4-.22.22-2.4,2.4.22-.22,2.4,7.2.65.43-4.8,2.4.22-.43,4.8-2.4-.22-.22,2.4-7.2-.65Zm.65-7.2l.22-2.4,7.2.65-.22,2.4-7.2-.65Zm20.96,9.14l2.4.22,2.37-26.41-2.4-.22-.22,2.4-2.4-.22-2.37,26.41,2.4.22.22-2.4Z"/></svg>