<?xml version="1.0" encoding="UTF-8"?><svg id="Layer_1" xmlns="http://www.w3.org/2000/svg" viewBox="0 0 253.08 184.8"><defs><style>.cls-1{fill:#122b44;stroke:#122b44;stroke-miterlimit:10;stroke-width:.5px;}.cls-2{fill:#f9ddcd;}.cls-2,.cls-3,.cls-4,.cls-5,.cls-6{stroke-width:0px;}.cls-3{fill:#92a1c9;}.cls-4{fill:#8498c3;}.cls-5{fill:#ef7a58;}.cls-6{fill:#f4f4f4;}</style></defs><rect class="cls-3" width="253.08" height="184.8" rx="56.76" ry="56.76"/><path class="cls-4" d="m183.18,71.78c1-.73,1.48-1.63,1.18-2.93-.26-1.13.22-2.05,1.06-2.85,1.7-1.61,3.44-3.09,5.51-4.25,2.16-1.21,3.7-3.25,5.32-5.09,3.36-3.82,7.27-7.05,11.03-10.44,1.11-1,2.49-1.63,3.74-.39,1.25,1.24.64,2.6-.33,3.75-3.89,4.57-7.79,9.12-11.71,13.65-.91,1.05-1.56,1.85-.7,3.44,1.29,2.39.21,4.79-.76,7.08-.36.86-.74,1.71-1.15,2.55-.94,1.96-.78,3.83.43,5.63.15.22.35.48.34.71-.07,3.4,2.52,5.01,4.61,7.01,2.64,2.53,4.86,5.47,7.7,7.83,1.34,1.11,2.54,2.27,4.24,2.89,1.84.68,2.5,2.29,1.75,3.63-.68,1.23-2.16,1.39-3.85.54-4.27-2.14-7.36-5.66-10.57-9.03-1.64-1.72-3.01-3.59-5.42-4.54-1.62-.64-2.8-2.32-3.7-3.82-1.53-2.56-3.74-4.3-6.12-5.91-1.14-.77-2.2-1.55-2.17-3.11.02-.98-.57-.64-1.06-.5-3.2.93-6.39,1.87-9.58,2.8-.25.07-.59.1-.74.28-2.81,3.25-7.11,4.09-10.43,6.51-5.14,3.74-10.57,6.92-16.65,8.9-1.41.33-2.75.84-4.05,1.49-7.98,2.35-15.92,4.87-23.33,8.72-2,1.04-3.22,3.13-5.11,4.41-2.31,1.57-4.49,3.23-7.33,3.92-1.74.42-3.33,1.32-4.25,3.26-1.02,2.13-3.42,3.05-5.49,3.22-5.4.46-9.69,3.5-14.36,5.6-2.6,1.17-4.5,3.5-6.53,5.51-.66.66-1.31,1.33-1.97,1.99-.77.76-1.68,1.25-2.66.51-1.06-.81-.78-1.87-.18-2.86,1.48-2.45,2.98-4.88,4.44-7.34.43-.72,1.06-1.37,1.08-2.46-2.84.35-5.42,1.37-8.06,2.19-1.39.43-3.09,1.57-4.05-.37-.88-1.78,1.06-2.27,2.05-3.11.86-.73,1.86-1.29,2.51-2.26,1.2-.08,2.01-.71,2.7-1.68.75-1.05,1.64-2,2.47-2.99,3.13-2.74,6.86-4.78,9.27-8.36,1.33-1.98,2.98-3.72,4.91-5.19,9.97-7.62,20.28-14.66,32.3-18.74.97-.23,1.99-.34,2.75-1.09,5.74-1.32,11.51-2.42,17.38-2.91,3.77-.14,7.56-.11,11.3-.5,1.88-.2,3.83.09,5.67-.59,6.57-.73,13.24.15,19.77-1.24,2.59-.55,5.2-1.04,6.79-3.5Z"/><path class="cls-5" d="m139.65,77.61c-5.87.49-11.65,1.59-17.38,2.91-.97-.14-1.91-.05-2.78.45-9.72,2.67-18.72,6.77-26.58,13.18-3.7,3.02-7.39,6-10.63,9.59-2.51,2.78-4.79,5.86-8.02,7.97-.65.43-1.2,1.25-1.23,2.19-.83.99-1.72,1.94-2.47,2.99-.69.97-1.5,1.6-2.7,1.68-2.21-1.17-2.49-2.21-.97-4.44,4-5.86,7.62-11.97,11.93-17.62,1.02-1.13,2.04-2.26,3.06-3.39.42-.34.84-.68,1.27-1.01.49-.2.88-.52,1.14-.98.3-.13.62-.24.91-.4,8.15-4.22,16.4-8.2,24.97-11.51,4.36-1.68,8.85-2.77,13.35-3.91,9.59-1.35,19.11-3.32,28.85-3.39,3.32.16,6.64.11,9.94-.33,1.63.06,3.27.12,4.89-.16,4.23-.03,8.47.15,12.28-2.28,2.07-1.32,3.65-.15,3.7,2.63-1.6,2.47-4.2,2.95-6.79,3.5-6.53,1.39-13.2.5-19.77,1.23-5.69-.09-11.38-.35-16.97,1.09Z"/><path class="cls-2" d="m152.38,71.91c-9.74.08-19.26,2.05-28.85,3.39-.14-.98-.87-.9-1.52-.76-2.92.63-5.9,1.12-8.62,2.36-2.51,1.15-5.94.28-7.58,3.37-.05.09-.23.11-.36.16-2.94,1.23-5.89,2.44-8.81,3.71-3.7,1.62-7.68,2.68-10.93,5.22-.59.46-1.52.7-1.42,1.74-.26.47-.65.78-1.14.98-.74-.06-1.32.08-1.27,1.01-1.02,1.13-2.04,2.26-3.06,3.39-4.43.48-4.39.47-5.48-4.15-.37-1.56-.68-3.08-.73-4.7-.04-1.38-.34-2.76-1.26-3.91-.62-.78-.88-1.61-.26-2.56.58-.88,1.32-.91,2.33-1.02,2.36-.26,4.08.84,5.81,2.03.77.53,1.52.73,2.42.7.59-.02,1.32-.09,1.75.2,2.26,1.52,3.94.04,5.77-.93,6.75-3.59,13.28-7.64,20.67-9.86,4.96-1.49,9.98-2.53,15.22-2.71,4.48-.15,8.95-.88,13.42-1.38,4.03-.45,8.07-.29,12.09-.06,2.41.14,1.65,2.27,1.82,3.75Z"/><path class="cls-2" d="m141.1,97.64c1.29-.65,2.64-1.15,4.05-1.49,1.68,1.2,2.72,2.39,1.04,4.52-.65.83-.51,2.24.28,3.37,1.42,2.02.54,3.82-1.9,4.05-2.11.19-4.31-1.08-5-3.08-.26-.74-.61-.94-1.28-.92-.47.01-.93-.02-1.4,0-1.31.05-2.44-.13-2.57-1.78-.14-1.74.96-2.39,2.39-2.59.98-.14,2,.03,2.94-.43.72-.35,1.7-.48,1.45-1.67Z"/><path class="cls-2" d="m167.21,71.42c-1.62.27-3.26.22-4.89.16.04-.68-.52-1.05-.8-1.56-.79-1.39-.16-2.38,1.01-2.95,1.68-.82,2.79.83,4.15,1.33.85.31,1.05,1.45.55,2.43-.08.16-.02.39-.02.59Z"/><path class="cls-6" d="m73.03,113.9c.02-.95.57-1.77,1.23-2.19,3.23-2.11,5.51-5.19,8.02-7.97,3.23-3.58,6.92-6.57,10.63-9.59,7.86-6.41,16.87-10.51,26.58-13.18,0,.21.02.43.03.64-12.02,4.08-22.33,11.12-32.3,18.74-1.93,1.48-3.58,3.21-4.91,5.19-2.41,3.58-6.14,5.62-9.27,8.36Z"/><path class="cls-2" d="m139.65,77.61c5.59-1.44,11.28-1.19,16.97-1.09-1.83.68-3.78.4-5.67.59-3.74.39-7.53.36-11.3.5Z"/><path class="cls-2" d="m119.51,81.61c0-.21-.02-.43-.03-.64.87-.5,1.81-.59,2.78-.45-.76.76-1.78.86-2.75,1.09Z"/><path class="cls-6" d="m84.29,91.12c-.1-1.04.83-1.28,1.42-1.74,3.26-2.54,7.23-3.61,10.93-5.22,2.92-1.28,5.87-2.48,8.81-3.71.12-.05.31-.07.36-.16,1.64-3.09,5.06-2.22,7.58-3.37,2.72-1.25,5.7-1.73,8.62-2.36.65-.14,1.38-.22,1.52.76-4.5,1.14-9,2.23-13.35,3.91-8.57,3.31-16.82,7.29-24.97,11.51-.29.15-.61.27-.91.4Z"/><path class="cls-6" d="m81.88,93.12c-.05-.93.52-1.08,1.27-1.01-.42.34-.84.68-1.27,1.01Z"/><path class="cls-1" d="m111.27,113.29c4.84,0,9.35,0,13.86,0,1.27,0,2.53.03,3.77.4,2.57.77,3.52,2.48,2.81,5.07-.24.86-.67,1.47-1.64,1.43-1.12-.05-1.32-.9-1.15-1.71.38-1.74-.67-2.12-1.98-2.22-3.73-.3-7.45-.17-11.2.08,3.7.06,7.18.91,10.41,2.68,2.7,1.48,3.71,3.68,3.06,6.5-.23,1.01-.6,2.06-1.94,1.78-1.21-.26-1.25-1.28-.99-2.24.49-1.84-.37-2.89-1.9-3.69-3.15-1.65-6.56-2.21-10.04-2.31-3.99-.11-8-.25-11.98.29-.33.04-.68.01-.98.11-14.2,4.74-26.37,12.6-36.46,23.66-.31.34-.63.7-.97,1.01-.69.63-1.46.96-2.36.43-.92-.54-.93-1.46-.7-2.3.53-1.9,1.73-3.43,2.89-4.98,2.92-3.88,5.83-7.76,8.73-11.65.38-.51,1.1-1.08.61-1.71-.43-.55-1.11.07-1.65.23-10.46,3.11-19.37,9.08-28.11,15.34-2.45,1.75-5.06,3.2-7.65,4.71-.9.53-2.05.81-2.67-.25-.77-1.31.44-1.83,1.36-2.39,11.02-6.64,21.18-14.34,29.73-24.01,1.86-2.11,3.18-4.59,4.41-7.12,1.88-3.83,3.63-7.73,6.18-11.18.39-.53.54-.97.14-1.6-.96-1.48-1.28-3.2-1.64-4.89-.71-3.33-1.65-6.58-3.11-9.68-.94-2-1.46-4.14-1.9-6.3-.17-.83-.12-1.66.7-2.11.78-.43,1.56-.19,2.2.41.87.82,1.71,1.68,2.61,2.49,5.18,4.65,11.96,5.4,17.93,1.81,3.78-2.27,7.74-4.24,11.97-5.23,2.54-.59,4.07-2.28,6.12-3.35,4.33-2.28,8.93-3.83,13.93-3.48,2.09.14,4.12-.44,6.15-.45,6.37-.04,12.66-1.97,19.09-.74,2.29.43,4.41.88,5.56,3.29.52,1.1,3.74.86,4.81-.26,1.25-1.3,2.39-2.7,3.68-3.95,1.6-1.56,2.3-1.52,3.74.13,1.47,1.69,3.56,2.53,5.28,3.87,1.05.82,2.6.26,3.9.02,3.02-.57,5.63-2.06,8.04-3.88,5.91-4.47,11.7-9.09,16.86-14.43,3.41-3.52,7.27-6.47,11.48-8.96,1.44-.85,2.95-1.58,4.62-1.82.96-.14,2.09-.4,2.63.81.52,1.16-.3,1.87-1.07,2.53-1.36,1.17-2.8,2.27-4.11,3.5-4.38,4.13-8.16,8.8-11.94,13.47-1.7,2.1-2.93,4.41-2.33,7.35.28,1.38-.32,2.76-.84,4.06-1.45,3.65-1.63,7,.12,10.89,3.94,8.75,10.91,14.09,18.88,18.55,1.01.57,2.15.91,2.01,2.37-.14,1.46-1.36,1.72-2.44,1.98-3.66.87-7.04.04-10.03-2.13-5.08-3.7-9.81-7.81-13.95-12.56-2.37-2.73-5.14-5.03-7.82-7.44-4.33-3.9-10.95-1.89-14.33.39-.47.32-.53.66-.4,1.18.25.94-.07,1.84-.34,2.74-.84,2.78-1.93,3.38-4.31,1.82-1.55-1.02-2.55-.85-3.97.16-3.7,2.63-7.66,4.78-11.95,6.39-2,.75-2.35,2.89-2.51,4.8-.19,2.27.93,4.08,2.29,5.8.83,1.04,2.29,2.08,1.24,3.63-.97,1.44-2.5.84-3.86.51-3.36-.82-6.31-2.58-9.1-4.47-2.81-1.9-5.87-2.67-9.09-3.12-.42-.06-.89.2-1.34.33-6.31,1.87-11.79,5.21-17.12,9.64Zm-39.67,18.93c.09.07.19.14.28.22.46-.35.93-.67,1.37-1.04,6.44-5.42,13.48-9.72,21.65-12.09,3.45-1,6.62-2.74,9.54-4.89,7.23-5.34,14.21-11.07,23.08-13.68,3.89-1.14,7.72-2.52,11.58-3.8,7.64-2.54,15.37-4.84,22.07-9.61,5.62-4,11.14-8.23,18.3-9.4,2.86-.47,5.6-1.68,8.42-2.49.79-.23,1.67-.24,1.95.8.26.96-.3,1.49-1.14,1.82-1.06.42-2.28.45-3.4,1.26,4.64,3.18,8.45,6.98,12.05,11,3.44,3.84,7.39,7.12,11.46,10.26,1.55,1.19,3.21,2.1,5.68,2.32-1.9-1.4-3.43-2.56-4.98-3.68-4.21-3.02-7.89-6.48-10.61-10.99-3.56-5.9-5.47-11.83-2.09-18.46.26-.51.37-1.19.28-1.75-.71-4.33,1.4-7.59,3.99-10.67,2.55-3.03,5.12-6.05,7.68-9.07-1.17.55-2.2,1.26-3.08,2.12-4.99,4.91-10.12,9.67-15.62,14.03-1.23.97-2.43,2.1-2.98,3.69-.17.5-.54,1.02.36,1.19.77.15,1.18.63,1.07,1.42-.12.81-.82,1.01-1.47,1.15-1.65.36-3.15,1.03-4.58,1.9-3.37,2.04-6.99,3.13-10.98,2.82-1.33-.1-2.67-.02-4-.01-.62,0-1.23,0-1.26.88-.02.71-.22,1.35-1.09,1.41-.94.06-1.3-.6-1.46-1.35-.2-.92-.74-1.14-1.59-1.05-.8.08-1.6.07-2.4.11-.45.02-.81-.02-.97.67-.44,1.92-1.44,2.22-2.71.71-.79-.93-1.54-1.05-2.6-.88-1.25.2-2.51.33-3.78.4-1.38.08-2.33.35-1.63,2.09.25.63.06,1.37-.68,1.69-.61.26-1.22.16-1.57-.45-.26-.45-.48-.97-.54-1.48-.14-1.29-.78-1.69-2.03-1.46-1.11.21-2.44-.06-3.33.47-1.35.79,0,2.15-.14,3.27-.08.65-.19,1.19-.89,1.39-.78.22-1.32-.15-1.59-.84-.24-.61-.45-1.27-.48-1.92-.07-1.32-.66-1.48-1.82-1.14-1.59.47-3.24.75-4.86,1.14-2.44.59-2.44.6-1.46,2.99.35.84.7,1.76-.26,2.3-1.1.62-1.62-.29-2.19-1.09-.64-.9-.33-2.56-1.58-2.75-1.03-.16-2.18.47-3.27.75-.77.2-1.54.41-2.31.62-.79.21-1.1.6-.73,1.45.46,1.03.81,2.11,1.2,3.17.28.77.22,1.51-.58,1.89-.83.39-1.45-.11-1.79-.81-.49-1.01-.95-2.06-1.27-3.14-.3-1.03-.73-1.27-1.72-.78-1.19.6-2.44,1.07-3.66,1.6-2.45,1.05-2.46,1.06-1.47,3.49.33.8.55,1.62-.38,2.08-.86.43-1.49-.08-2.01-.81-1.6-2.25-1.61-2.24-4.01-.85-.58.33-1.15.68-1.73,1-2.04,1.14-3.97,2.33-2.47,5.17.11.21.05.53.06.79.04.76-.28,1.34-1.03,1.5-.8.17-1.19-.4-1.52-1.03-.35-.67-.06-1.6-.76-2.09-.88.69-1.63,1.57-2.58,1.94-1.54.6-.69,2.15-1.45,2.98-.9.97-2.29-.66-3.27.66-.78,1.05-1.91,1.85-2.85,2.79-2.3,2.31-4.09,5.11-6.69,7.15-3.85,3.01-7.2,6.55-10.73,9.9-.39.37-.89.71-1,1.52,1.97-.66,3.8-1.24,5.61-1.88,4.5-1.57,9.13-2.45,13.89-2.61.97-.03,1.99.06,1.96,1.39-.02,1.11-.86,1.37-1.79,1.48-2.12.24-4.23.53-6.35.76-1.52.17-2.71.5-3.17,2.33-.29,1.17-1.23,2.19-1.91,3.25-1.05,1.64-2.14,3.26-3.21,4.9Zm109.09-61.15c-1.58.35-3.08.89-4.66,1.09-5.97.78-11.97.6-17.97.69-9.87.15-19.74.31-29.45,2.4-14.48,3.12-28.42,7.5-40.96,15.75-8.73,5.74-13.65,14.09-17.7,23.65.48-.32.7-.42.87-.58,3.79-3.83,8.2-7.04,11.45-11.42.98-1.32,2.25-2.48,3.54-3.52,1.08-.86,1.88-1.56,1.15-3.09-.34-.72-.21-1.65.82-1.94.88-.25,1.35.25,1.64,1.04.1.26.17.67.7.64,1.07-.8,2.46-1.43,3.26-2.5,1.16-1.57,2.17-2.8,4.32-3.29,1.78-.4,3.29-1.94,4.95-2.94.65-.39,1.17-.67,1.11-1.63-.09-1.44.91-1.88,1.92-1.1.93.72,1.55.36,2.33.02,3.48-1.51,6.9-3.16,10.56-4.24,10.39-3.06,20.91-5.39,31.79-5.63,2.52-.05,4.91-.91,7.46-.84,4.4.12,8.81-.04,13.21.05,1.07.02,1.66-1.25,2.77-.79,2.76,1.14,4.79-.56,6.89-1.83Zm-30.22-1.41c-2.83-.83-5.65-1.28-8.63-.95-5.55.61-11.12,1.19-16.69,1.46-4.07.2-8.03.34-11.79,2.31-1.6.84-3.16,1.6-4.5,2.82-.64.58-1.34,1.13-2.22,1.29-4.68.86-8.95,2.74-13.04,5.11-6.89,4-13.66,3.85-20.29-.65-.22-.15-.45-.51-1.02-.06,2.57,4.61,3.06,9.94,4.63,14.78,21.24-18.58,46.69-24.25,73.55-26.11Zm-14.48,31.43c2.05,1.25,3.86,2.48,5.62,3.76,1.4,1.02,2.55.26,3.69-.28,1.11-.53.32-1.54.24-2.3-.11-1.09.03-2.12.21-3.17.14-.75-.03-1.2-.92-.91-2.95.97-5.89,1.93-8.84,2.9Zm31.26-31.4q-2.92-2.58-4.43,0h4.43Z"/><path class="cls-1" d="m118.97,94.79c.51.02,1.25.04,1.98.1.9.06,1.78.21,1.97,1.31.2,1.16-.57,1.68-1.5,2.04-.74.29-1.49.57-2.24.83-7.85,2.77-14.55,7.16-19.59,13.89-1.41,1.89-3.02,3.56-5.22,4.54-.8.36-1.69.75-2.37-.09-.72-.88-.15-1.61.51-2.25.41-.39.63-.89.66-1.42.04-.64.32-1.39-.32-1.87-.6-.45-1.2.03-1.65.34-.72.48-1.83.46-2.05,1.66-.17.99-.98,1.18-1.86,1-.95-.2-1.29-.83-1.21-1.76.28-3.37,1.91-5.94,4.8-7.62,1.66-.97,3.38-2,5.22-2.46,4.15-1.04,7.73-3.2,11.38-5.23,3.52-1.96,7.3-2.81,11.5-3.01Z"/><path class="cls-1" d="m76.58,114.81c.98.11,1.91.25,1.9,1.53,0,1.46-.83,2.18-2.21,2.22-1.08.03-1.73-.58-1.79-1.68-.07-1.46.89-1.91,2.09-2.07Z"/></svg>