<?xml version="1.0" encoding="UTF-8"?><svg id="Layer_1" xmlns="http://www.w3.org/2000/svg" viewBox="0 0 253.08 184.8"><defs><style>.cls-1{fill:#122b44;}.cls-1,.cls-2,.cls-3,.cls-4,.cls-5{stroke-width:0px;}.cls-2{fill:#dc8b6b;}.cls-3{fill:#92a1c9;}.cls-4{fill:#fadece;}.cls-5{fill:#f5f5f5;}</style></defs><rect class="cls-2" width="253.08" height="184.8" rx="56.76" ry="56.76"/><path class="cls-4" d="m132.18,79.77c.65-.75-.16-.92-.52-1.21-1.8-1.51-4.05-1.91-6.23-2.43-.85-.2-1.53-.45-1.84-1.32-.3-.84.12-1.47.65-2.03,1.49-1.56,3.17-2.83,5.08-3.92,2.65-1.5,5.06-3.42,7.58-5.15,1.24-.85,2.45-1.73,3.74-2.49,3.53-2.08,6.4-4.98,9.56-7.51,1.05-.84,2.31-1.41,3.18-2.49.63-.38,1.26-.75,1.9-1.13.23-.03.43-.11.46-.38l-.06.03c.46.06.69-.13.66-.61l-.02.03c1.04.13,1.83-.52,2.62-.98,2.69-1.58,5.46-2.99,8.31-4.21,5.38-2.31,10.13-5.63,14.94-8.88.27-.18.45-.38.46-.71,1.63-1.13,3.51-1.81,5.23-2.77,1.06-.02,1.77.59,2.41,1.33-.26,1.11-.51,2.21-.77,3.32-1.46,1.1-1.69,2.9-2.38,4.4-2.39,5.21-5.29,10.15-8,15.18-.34.63-.76,1.12-.47,1.92.22.62-.19,1.21-.54,1.67-3.75,4.81-6.7,10.27-11.4,14.3-5.32,4.56-10.51,9.28-16.33,13.23-3.14,2.13-5.7,4.9-8.35,7.58-.82.83-1.71,1.56-2.9,1.14-1.19-.42-1.4-1.58-1.52-2.72-.21-1.91-.89-3.69-1.49-5.5-.09-.28-.27-.4-.53-.44-.52-2.71-1.19-5.35-3.44-7.23Z"/><path class="cls-3" d="m132.18,79.77c2.25,1.89,2.92,4.53,3.44,7.23-.33,4.02-2.17,6.93-6.03,8.47-1.94.78-3.78,1.82-5.54,2.97-1.11.42-2.11,1.04-3.01,1.8-1.58.8-2.99,1.89-4.44,2.9-.24.17-.67.33-.37.79h.04c-.37-.36-.67-.07-.92.13-2.51,1.93-5.06,3.83-7.04,6.35-.5.64-.96,1.3-1.15,2.1-.23.97-.67,1.66-1.79,1.71-.68.03-.82.68-1.1,1.13-3.2,5.24-6.5,10.42-9.52,15.76-2.48,4.39-5.82,8.08-10.26,10.4-2.42,1.26-3.16,3.15-3.72,5.37-.32,1.27-.93,2.29-1.69,3.3-.48.64-.99,1.02-1.77.78-.79-.24-1-.89-1.04-1.66-.21-4.46.9-8.7,4.15-11.67,7.61-6.94,12.23-16.06,18.28-24.13,3.83-5.12,7.41-10.42,11.71-15.17.13-.14.22-.32.57-.82-1.62.54-2.95.86-4.18,1.41-4.86,2.15-9.95,3.79-14.55,6.52-3.59,2.13-7.19,4.26-10.95,6.07-.92.45-1.63,1.17-2.33,1.89-3.29,3.4-6.62,6.75-9.12,10.83-2.05,3.33-4.79,6.07-7.76,8.59-.73.62-1.52.91-2.28.18-.7-.66-.48-1.46-.03-2.2.89-1.46,1.91-2.86,2.61-4.4.67-1.48.87-3.14,1.51-4.67,1.47-3.53,3.65-6.47,6.68-8.78.88-.67,1.75-1.39,2.99-1.18.21.04.49-.1.69-.23,6.59-4.47,13.76-7.92,20.69-11.8,1.66-.93,3.3-1.93,4.72-3.24.77-.22,1.45-.56,1.77-1.36l-.02.02c.27.03.51,0,.62-.3,3.86-2.53,7.73-5.06,11.59-7.59.36-.23.55-.58.7-.96.86-2.05,2.14-3.86,3.29-5.75,2.63-4.3,4.61-4.89,10.41-2.87,1.45.51,2.78,1.39,4.16,2.1Z"/><path class="cls-3" d="m124.08,98.99c.67,0,1.33.03,1.76.65.23.33.49.44.89.35,1.04-.24,1.84.15,2.34,1.29.47-1.01.82-2.02,1.95-1.81,1.14.21,2.02.9,2.35,2.1.9,3.3,1.89,6.63,2.08,10.03.21,3.75-.8,7.37-2.47,10.77-.31.63-.9.93-1.49,1.36.92.64,1.41,1.53,1.77,2.55,1.13,3.17,2.3,6.33,3.51,9.47,1.39,3.6,1.49,7.37,1.55,11.15.01.85.06,1.71.06,2.56,0,.83-.33,1.48-1.21,1.67-.85.19-1.47-.19-1.89-.91-.45-.78-.4-1.63-.39-2.5.02-3.22.05-6.46-.94-9.57-.54-1.71-1.33-3.22-2.73-4.52-1.21-1.13-1.96-2.78-2.83-4.25-.48-.81-.79-.8-1.41-.12-1.34,1.5-2.73,2.97-4.19,4.35-.68.65-.59,1.33-.49,2.07.5,3.65.78,7.29.35,10.98-.48,4.06-2.74,6.78-6.16,8.68-1.19.66-5.53-.36-6.38-1.41-.44-.54-.61-1.15-.28-1.82.38-.79,1.13-1.17,1.86-.98,2.26.56,3.89-.2,5.25-1.99.61-.81,2.05-.69,2.23-2.16.29-2.36.1-4.6-.77-6.81-.25-.63-.51-.62-.99-.31-2.84,1.85-5.96,2.6-9.34,2.36-.33-.02-.7.09-1.01.23-1.03.47-1.78.19-2.22-.81-.4-.93.21-2.1,1.29-2.34.82-.18,1.7-.19,2.55-.18,1.95.03,3.8-.33,5.55-1.18,2.19-1.06,2.83-2.27,2.16-4.57-.52-1.79-.98-3.56-2.01-5.26-1.1-1.8-.99-4.17-1.04-6.33-.04-1.56-.1-3.19.44-4.64.99-2.64-.17-5.44.82-8.09.62-1.67,1.05-3.43,1.68-5.12,0,0-.04.01-.04.01,2.18-.07,3.41-1.69,4.85-2.98,1-.65,1.99-1.31,2.99-1.96Zm-3.77,17.73c-.81,4.61-1.32,9.17-.43,13.77.06.33-.09.77.35.9.33.1.55-.21.75-.42,1-1.06,1.98-2.14,2.99-3.19.44-.46.55-.85.14-1.43-2.01-2.89-3.18-6.13-3.8-9.62Zm10.01,3.63c-.79-5.34-1.81-10.7-1.5-16.17-1.78,5.53-2.52,10.98,1.5,16.17Z"/><path class="cls-3" d="m82.15,92.92c-.29-1.53.61-2.18,1.86-2.64,4.61-1.71,9.29-3.23,14.06-4.45.94-.24,1.8-.03.77-1.64-.77-1.2-1.48-1.52-2.63-1.69-.23-.03-.61-.17-.65-.32-.39-1.59-2.14-1.87-2.91-3.06-.18-.27-.33-.62-.64-.31-1.77,1.79-4.33,1.24-6.41,2.17-2.42,1.09-5,1.81-7.5,2.72-1.15.42-2.26.51-2.82-.79-.54-1.25.33-1.91,1.32-2.48,2.67-1.53,5.1-3.41,7.53-5.27,4.19-3.2,8.76-4.47,14.02-3.3,1.94.43,2.97,1.82,3.22,3.76.07.58.16.73.7.83,1.4.25,1.83,1.03,1.88,2.55.03,1.1-.1,2.77,1.67,3.32.76.23,1.17,1.1,1.86,1.6.93.67,1.4.3,2.06-.1.73-.44,1.43-.96,2.2-1.31.79-.36,1.63-.27,2.14.53.54.84.39,1.75-.4,2.28-1.55,1.05-2.94,2.24-4.03,3.77-.41.57-.99.87-1.7.49-.29-.16-.56-.2-.85-.02-1.72,1.08-3.79,1.28-5.72,2.31.99.67,1.08,1.6.8,2.62-.2.22-.39.44-.59.66,0,0,.02-.02.02-.02-.91.21-1.68.69-2.43,1.21-.85.11-1.68.34-2.4.79-4.63,2.87-9.76,3.87-15.1,4.11-.35.02-.7.02-1.05.05-3.13.26-3.25.34-2.8,1.06.69,1.07-.47,2.38.65,3.41.64.59.84,1.56.11,2.31-.75.77-1.52.4-2.3-.09-1.9-1.19-2.24-2.08-1.48-4.21.2-.56.45-1.1.79-1.92-2.64.46-5.08.95-7.53,1.3-3.91.57-7.51,1.76-10.5,4.49-.85.77-1.94,1.06-2.81.05-.85-.98-.43-1.98.37-2.82,3.61-3.77,7.63-6.99,12.24-9.46,3.96-2.12,8.23-2,12.52-1.69.8.06,1.6.09,2.4.13.31.1.62.18.95-.02-.3-.31-.59-.62-.88-.92Zm1.98,1.1c4.72.35,9.41.28,13.89-1.5-4.59.79-9.38-.19-13.89,1.5Z"/><path class="cls-3" d="m155.29,50.1c-.63.38-1.26.75-1.9,1.13-1.04-.18-1.77-.73-1.96-1.8-.75-4.31-1.45-8.64-.87-13.03.3-2.28,1.1-2.72,3.24-1.96.43.15.79.07,1.17-.02,9.69-2.19,19.6-3.31,29.22-5.86.53-.14,1.08-.24,1.62-.34.99-.17,1.94-.1,2.56.81.67.98.18,1.81-.48,2.58-1.72.97-3.6,1.64-5.23,2.77-5.78,2.93-11.6,5.78-17.32,8.81-3.19,1.69-6.35,3.47-9.01,5.98,0,0,.02-.03.02-.03-.31.11-.54.29-.66.61,0,0,.06-.03.06-.03-.24.02-.38.17-.46.38Z"/><path class="cls-3" d="m189.54,36.26c.26-1.11.51-2.21.77-3.32.6-.62,1.28-.99,2.15-.66.88.34,1.13,1.08,1.17,1.93.43,9.24,2.75,18.17,4.65,27.16.52,2.44-.91,4.15-3.33,3.55-4.22-1.05-8.29-.11-12.39.52-1.53.24-2.93-.26-4.42-.26-1.05,0-1.34-1.53-.57-2.55.45-.6.94-1.18,1.44-1.74,6.29-7.03,8.46-15.81,10.51-24.65Z"/><path class="cls-3" d="m137.4,97.51c0,2.27-.91,3.67-2.27,3.6-1.44-.08-2.35-1.72-2.09-3.77.16-1.21.45-2.38,1.34-3.29.48-.49,1.06-.75,1.77-.49.73.26,1,.8.93,1.53-.08.87.48,1.65.32,2.43Z"/><path class="cls-4" d="m124.08,98.99c-1,.65-1.99,1.31-2.99,1.96-.01-.24-.03-.47-.04-.71.91-.77,1.9-1.38,3.01-1.8,0,.18.02.36.02.55Z"/><path class="cls-4" d="m98.99,96.35c.75-.52,1.52-1.01,2.43-1.21-.33.8-1.01,1.14-1.77,1.36-.22-.05-.44-.09-.66-.14Z"/><path class="cls-4" d="m82.15,92.92c.29.3.58.61.88.92-.33.2-.64.12-.95.02.02-.31.05-.63.07-.94Z"/><path class="cls-4" d="m101.4,95.15c.2-.22.39-.44.59-.66.01.12.02.24.03.36-.11.3-.35.33-.62.3Z"/><path class="cls-5" d="m156.34,49.18c2.66-2.51,5.82-4.29,9.01-5.98,5.72-3.03,11.54-5.89,17.32-8.81-.01.33-.19.53-.46.71-4.81,3.25-9.55,6.57-14.94,8.88-2.85,1.22-5.63,2.64-8.31,4.21-.8.47-1.58,1.11-2.62.98Z"/><path class="cls-5" d="m155.7,49.76c.12-.31.36-.5.66-.61.03.47-.2.67-.66.61Z"/><path class="cls-5" d="m155.29,50.1c.08-.21.23-.36.46-.38-.04.27-.23.35-.46.38Z"/><path class="cls-5" d="m121.04,100.25c.01.24.03.47.04.71-1.44,1.28-2.66,2.91-4.85,2.98-.31-.46.13-.62.37-.79,1.45-1.01,2.85-2.09,4.44-2.9Z"/><path class="cls-5" d="m120.31,116.72c.63,3.49,1.8,6.73,3.8,9.62.41.59.3.98-.14,1.43-1.01,1.05-1.99,2.13-2.99,3.19-.2.21-.42.52-.75.42-.44-.13-.29-.58-.35-.9-.89-4.6-.39-9.16.43-13.77Z"/><path class="cls-4" d="m130.32,120.35c-4.02-5.19-3.29-10.64-1.5-16.17-.31,5.46.71,10.82,1.5,16.17Z"/><path class="cls-4" d="m84.13,94.03c4.51-1.69,9.3-.71,13.89-1.5-4.48,1.78-9.17,1.85-13.89,1.5Z"/><path class="cls-1" d="m112.23,109.77c-4.84,5.08-10.08,9.74-12.66,16.43-.63,1.64-1.39,3.23-2.17,4.82-1.37,2.81-3.18,5.33-5.97,6.83-6.1,3.27-9.37,8.79-12.09,14.79-.5,1.11-.7,2.61-2.41,2.45-1.68-.15-1.71-1.67-1.99-2.84-.59-2.46-.89-4.96-.65-7.49.37-3.98,2.3-7.17,5.61-9.23,3.83-2.39,6.27-5.74,8.47-9.57,4.11-7.15,8.05-14.42,12.89-21.13.05-.07.04-.18.06-.3-.51-.17-.85.22-1.22.4-4.41,2.09-8.82,4.18-13.21,6.3-1.27.61-2.52,1.26-3.74,1.96-1.55.89-1.71,1.96-.48,3.34.57.64,1.25,1.17,1.88,1.75.58.54.77,1.21.45,1.92-.34.75-1.04.93-1.79.77-1.73-.37-3.47-.83-4.7-2.2-.71-.79-1.07-.53-1.62.12-1.74,2.04-3.21,4.25-4.57,6.55-1.83,3.08-4.27,5.55-7.28,7.52-3.22,2.11-6.69,2.63-10.4,2.09-.59-.09-1.2-.23-1.72-.51-1.37-.73-1.37-2.36-.02-3.12.3-.17.64-.29.98-.37,3.8-.93,6.23-3.31,7.43-7,.15-.48.41-.93.52-1.41,1.42-5.85,5.16-9.9,10.1-13.01.88-.55,1.34-1.06.78-2.15-.45-.87-.41-1.88-.15-2.82.3-1.08-.11-1.18-1.05-1.05-5.54.75-10.33,2.91-13.96,7.31-.67.82-1.38,1.61-2.07,2.4-.71.81-1.55,1.37-2.65.85-1.06-.5-1.04-1.53-.92-2.5.68-5.66,3.27-10.31,7.53-14.03,4.43-3.87,9.53-5.94,15.5-5.48,1.62.13,3.1,0,4.58-.96,4.47-2.92,9.57-4.38,14.64-5.87,1.28-.37,1.2-.77.54-1.68-1.56-2.12-3.54-2.73-5.95-1.64-1.42.64-2.79,1.4-4.18,2.1-3.27,1.66-6.75,1.86-10.3,1.43-1.17-.14-2.24-.6-3.19-1.28-.65-.46-1.09-1.08-.96-1.92.14-.91.79-1.48,1.63-1.56,3.79-.34,6.46-2.58,8.93-5.17,1.99-2.08,4.15-3.94,6.66-5.41,5.76-3.38,14.54-1.87,17.24,6.09.55,1.61,1.25,3.18,2.1,4.68.39.69.84,1.04,1.68.94,1.4-.17,2.8-.28,4.2-.38,1.09-.08,1.83-.56,2.36-1.57.44-.84,1.05-1.61,1.69-2.3.73-.79,1.38-1.53,1.33-2.73-.03-.75.58-1.23,1.14-1.69,9.7-7.97,20.04-15.05,30.56-21.86.75-.48,1.39-.77.3-1.63-.83-.66-.88-1.79-1.01-2.78-.36-2.9-.7-5.79-.95-8.7-.32-3.84.78-5.3,4.56-6.22,3.82-.93,7.7-1.46,11.57-2.11,8.98-1.5,18-2.7,27.07-3.56,1.57-.15,2.34.35,2.73,1.83,1.12,4.24,1.67,8.59,2.48,12.89,1.33,7.07,3.03,14.06,4.55,21.09.9,4.18-.14,5.2-4.42,5.19-4.48-.01-8.96.18-13.42.44-1.78.1-3.52.12-5.26-.19-1.65-.29-2.96.03-4.14,1.4-4.27,4.92-9.37,8.98-14.22,13.3-5.56,4.96-11.09,9.96-16.69,14.87-1.96,1.71-3.92,3.48-6.33,4.58-.61.28-.68.61-.48,1.18.48,1.33.86,2.69,1.38,3.99,2.35,5.96,1.05,11.26-2.91,16.04-.64.77-.61,1.28-.24,2.1,1.82,4.03,4.03,7.88,5.37,12.13,1.38,4.37,1.52,8.82.78,13.29-.42,2.56-1.68,4.74-3.85,6.27-.88.62-1.9,1.1-2.94.37-1.1-.78-.76-1.84-.4-2.87,1.94-5.66.54-10.93-1.97-16.02-.93-1.88-2.27-3.56-3.35-5.38-.54-.89-1.04-.77-1.31.04-.39,1.19-.81,2.22-2.01,2.86-.47.25-.11.93.02,1.4,1.39,5.19,1.12,10.27-1.12,15.19-1.55,3.42-4.18,5.6-7.92,5.98-4.44.45-8.61-3.35-9.49-8.4-.22-1.24-.84-2.75.7-3.53,1.52-.76,2.19.67,3.04,1.56,2.05,2.16,3.67,2.09,5.47-.24.97-1.26,1.62-2.66,1.63-4.29.01-1.58-.02-1.59-1.4-.91-2.41,1.19-4.91,2.05-7.67,1.95-3.06-.11-7.09-3.22-7.94-6.16-.21-.71-.06-1.32.49-1.76.61-.5,1.37-.48,1.99-.08,2.33,1.5,4.86,1.44,7.44,1.04.59-.09,1.19-.24,1.74-.47,2.45-.99,2.72-1.54,1.71-3.92-2.95-7.01-2.89-14.21-1.38-21.5.13-.63.26-1.26.39-1.9Zm76.84-76.97c-23.58,11.38-45.14,25.49-66.04,41.4,1.04.24,1.57.36,2.11.49,4.45,1.04,8.4,2.81,10.62,7.17,1.01,1.97,1.91,3.98,2.55,6.11.73,2.42.97,4.9,1.13,7.46.89-.23,1.36-.85,1.9-1.34,6.35-5.73,12.55-11.64,19.2-17.03,10.36-8.41,18.23-18.66,23.78-30.76,1.97-4.3,3.55-8.73,4.74-13.5Zm-127.94,98.29c.99-.67,2.71-.44,2.8-2.17.08-1.42.75-1.93,2.06-1.54.69.21,1.14-.18,1.07-.64-.19-1.37.26-2.01,1.64-2.33,1.36-.31.25-2.32,1.62-2.79.05-.02.1-.03.14-.06.94-.83,1.84-1.64,1.59-3.14-.16-.99.4-1.7,1.48-1.62.98.07,1.25-.38,1.26-1.22,0-.94.41-1.51,1.41-1.61,1.11-.1,1.7-.66,1.64-1.87-.07-1.27.64-1.71,1.83-1.49,1.5.27,2.67-.49,3.01-1.95.29-1.26,1.3-1.75,2.36-1,1.03.72,1.57.26,1.96-.62.43-.96,1.03-1.16,2.05-.97,1.05.2,2.06.1,2.21-1.42.15-1.57,1.21-1.98,2.55-1.06.3.2.51.46.91.23.42-.25.31-.55.2-.9-.23-.71-.03-1.32.59-1.71.64-.4,1.29-.27,1.79.25.5.52.92.77,1.66.37.71-.39,1.08-.75.9-1.63-.13-.61.13-1.22.76-1.5.6-.27,1.14-.14,1.66.31.94.81,2.55.1,2.79-1.2.26-1.39.99-1.87,2.21-1.24.69.36,1.08.18,1.61-.17,1.37-.89,2.35-2.19,3.55-3.26.66-.6,1.41-.88,2.15-.17.71.68.55,1.5,0,2.17-.67.81-1.43,1.55-2.18,2.3-4.11,4.09-8.2,8.18-11.16,13.24-3.82,6.51-7.73,12.97-11.5,19.5-1.57,2.72-3.42,5.07-6.13,6.72-1.37.84-2.66,1.82-3.76,3.02-2.06,2.27-2.59,4.94-2.05,7.91.6-1.46,2.42-2.4,1.58-4.48-.34-.85.34-1.53,1.35-1.54,1.46,0,2.05-.76,1.93-2.16-.09-1.14.43-1.8,1.57-1.67,1.54.18,2.3-.57,2.68-1.93.31-1.12,1-1.6,2.15-1.21.88.3,1.39-.01,1.43-.91.04-1.08.58-1.47,1.6-1.59,1.03-.12,1.45-.66.99-1.77-.43-1.05-.14-1.89,1.12-2.14,1.29-.26,1.53-1.09,1.24-2.23-.23-.89.03-1.45.87-1.98,1.01-.64,1.81-1.49,1.01-2.95-.62-1.13.03-2.09,1.37-2.1,1.18-.01,1.55-.77,1.52-1.63-.04-1.22.52-1.6,1.56-2,1.07-.41,2.16-1.06,1.61-2.69-.37-1.1.51-1.96,1.69-1.84,1.34.13,1.93-.43,1.83-1.81-.08-1.24.49-1.74,1.7-1.69,1.25.05,1.9-.78,1.67-2.03-.23-1.25.5-2.11,1.67-1.72.91.3,1.35-.03,1.95-.54,3.3-2.76,6.89-5.03,11.01-6.43,2.9-.98,5.85-1.93,8.24-3.97,2.35-2,2.49-2.59,1.5-5.46-2.32-6.67-6.02-9.65-12.47-10.03-.52-.03-1.05-.16-1.52.36-1.4,1.58-2.92,3.07-3.83,5.02-2.07,4.43-5.47,7.57-9.46,10.28-6.64,4.51-13.76,8.15-20.8,11.94-5.1,2.74-10.22,5.43-14.88,8.9-2.98,2.22-5.23,4.93-6.31,8.6-.91,3.09-2.08,6.11-4.25,8.67ZM192.01,34.27c-.24.61-.39.88-.45,1.17-2.31,9.45-6.8,17.9-11.92,26.06-.55.87-1.89,2-1.45,2.57.65.83,2.19.64,3.4.59.1,0,.2-.02.3-.02,4.82-.2,9.64-.45,14.46-.55,1.36-.03,1.6-.35,1.3-1.64-1.58-6.65-3.13-13.3-4.23-20.04-.42-2.61-.89-5.21-1.39-8.14Zm-5.06-3.93c-.02-.1-.04-.2-.07-.3-.34,0-.69-.03-1.03,0-7.34.86-14.63,2.12-21.92,3.3-3.67.6-7.35,1.14-10.97,2.03-1.29.32-1.87.96-1.71,2.33.3,2.55.51,5.1.79,7.65.08.75.19,1.5.42,2.22.53,1.68.58,1.7,2.08.72,8.78-5.71,17.79-10.99,27.34-15.33,1.73-.78,3.38-1.74,5.06-2.61Zm-89.39,51.51c.11,0,.23.05.3.02,1.93-.97,2.2-.88,2.75,1.13.08.31.18.42.46.42.97,0,1.56.49,1.52,1.46-.03.96-.17,2.06-1.27,2.35-1.05.27-.82.78-.33,1.17.45.36.34,1.98,1.59.85.75-.68,1.81-.86,2.2.02.64,1.42,1.2.67,1.87.23.46-.3.89-.65,1.35-.96.51-.34.49-.64.04-1.06-3.19-2.86-5.16-6.5-6.66-10.45-1.24-3.27-3.73-4.86-7.14-5.15-3.39-.29-6.01,1.4-8.41,3.45-1.91,1.63-3.67,3.44-5.48,5.18-.61.59-1.49.89-2.03,1.74,1.44.15,2.63-.21,3.81-.65.76-.28,1.34-.6,1.1-1.63-.14-.6.14-1.19.8-1.47.65-.27,1.21-.08,1.63.42.81.97,1.23.45,1.58-.37.48-1.1,1.25-1.47,2.25-.73.59.43.85.36,1.33-.18.98-1.1,1.81-.92,2.55.38.52.93,1.13,1.54,2.2.61.46-.4,1.02-.39,1.55-.07.53.32.65.82.68,1.42.03.64-.63,1.19-.25,1.87Zm-17.19,18.27c1.2-1.78,1.94-1.76,3.01.05.38.65.64.58.86-.08.24-.75.7-1.23,1.52-1.2.7.02,1.1.46,1.26,1.1.23.92.74.57,1.23.3,3.57-1.95,7.15-3.9,10.71-5.88.34-.19.88-.26.9-.92-.28.03-.53.03-.77.07-8.28,1.65-16.62,2.31-25.06,1.87-4.9-.26-9.01,1.7-12.6,4.89-.26.23-.71.4-.56,1,.78-.19,1.45-.05,2.08.52.86.77,1.53.41,1.94-.57.58-1.41,1.22-1.66,2.49-.8.55.37.67.35.94-.24.46-1.01,1.32-1.32,2.2-.58,1.26,1.05,2.16.79,3.11-.42.75-.95,1.87-.74,2.4.36.14.29.06.73.54.79,1.31-2.27,1.69-2.31,3.79-.25Zm41,38.35c-.66-2.88-1.33-5.7-1.96-8.54-2.24-10.13-.84-19.67,4.61-28.56.11-.17.35-.37.07-.72-1.76.63-3.27,1.7-4.83,2.67-1.27.79-2.76,1.39-2.28,3.47.13.55-.19,1.04.62,1.31.99.33,1.72,1.07,1.25,2.19-.45,1.06-1.43.97-2.33.57-.72-.31-1.01-.22-1.25.62-.34,1.19.25,1.23,1.12,1.25.8.02,1.34.43,1.37,1.29.04.83-.41,1.32-1.22,1.46-.39.07-.8.11-1.2.14-.33.03-.79-.16-.83.37-.05.62.47.36.77.37,1.03.04,1.47.68,1.42,1.58-.05.88-.52,1.5-1.54,1.5-.34,0-.85-.37-.98.28-.14.7.45.65.86.76.29.08.6.11.88.19.73.22,1.27.62,1.24,1.48-.04.94-.69,1.25-1.48,1.44-.44.11-.99-.23-1.34.26.16.58.69.42,1,.63.83.57,1.11,1.87.59,2.67-.25.39-1.14.47-.78,1.1.34.6.89-.02,1.35-.08.74-.08,1.46-.07,1.78.74.32.81.02,1.45-.68,1.96-.38.28-.99.24-1.21.94.4,0,.73,0,1.07,0,.89.02,1.79.09,2.04,1.15.23.98-.38,1.5-1.22,1.78-.42.14-.58.32-.37.76.68,1.47,1.02,3.29,3.45,2.93Zm9.86-11.82c-3.4-7.91-6.52-15.72-3.66-24.74-2.82,3.12-5.83,11.63-5.39,14.73,1.27-1.02,2.43-1.12,2.98-.15.97,1.71-.59,2.03-1.82,2.6,3.05.47,3.56,1.09,2.85,3.19.35.06.71.06,1.03.19,1.25.52,2.02,2.34,1.15,2.91-1.49.98-.44,1.56.11,2.45.62-1.05,1.56-1.26,2.75-1.19Zm1.06-6.3c1.87-2.47,3.02-4.86,3-7.7-.01-2.68-1.13-5.08-1.87-7.57-.51-1.71-1.14-3.38-1.82-5.38-1.04,2.48-1.57,4.71-1.97,6.99-.11.62.09.82.7,1.04,1.32.46,1.36,1.19.99,2.46-.39,1.39.14,3.01-1.04,4.23-.02.02.02.09.04.14.48,1.89,1.08,3.73,1.96,5.79Zm-21.35,32.51c3,3.79,6.8,2.19,8.52-.31,2.27-3.3,2.95-7.11,2.52-11.1-.07-.65-.24-.72-.85-.43-1.09.52-1.41,1.82-.57,3.1.7,1.08.8,1.88-.52,2.57-.94.49-1.23,1.38-1.01,2.44.44,2.18.09,2.59-2.01,2.21-.51-.09-.77.12-1.04.4-.31.32.06.51.22.74.59.87.5,1.72-.45,2.15-.93.42-1.7,0-1.91-1.05-.1-.53-.36-.63-.82-.63-.65,0-1.29-.06-2.07-.1Zm20.95-24.85c-.33.59-.47,1.28-.86,1.47-1.6.77-.54,1.93-.01,2.1,1.82.58,2.59,1.57,2.16,3.44,2.16,3.27,3.21,6.97,4.1,10.74.57-6.62-2.68-12.04-5.39-17.74Zm-46.7-36.23c-.05.32.09.42.23.39,3.83-.65,8.01.45,11.41-2.34.3-.25,1.03-.13.6-.82-.3-.48-.3-1.41-1.29-1.12-3.74,1.11-7.45,2.3-10.96,3.89Zm50.9,3.06c-2.28.88-2.63,1.67-1.71,3.61.15.31.23.74.7.62.37-.1.8-.21.83-.74.06-1.15.12-2.3.19-3.48Zm-78.96,11.46c1.2-1.39,4.25-1.54,2.98-4.64-1.35,1.34-2.37,2.85-2.98,4.64Zm66.18,25.31c1.39-1.05,1.78-1.59,1.87-2.55-1.43,1.19-1.91,1.85-1.87,2.55Z"/><path class="cls-1" d="m167.37,66.79c-.02.88-.54,1.48-1.12,2.06-6.38,6.4-13.43,11.99-20.66,17.38-.76.56-1.56.86-2.28.04-.7-.81-.4-1.65.32-2.26,1.45-1.24,2.9-2.5,4.46-3.6,5.96-4.2,11.02-9.4,16.25-14.41.64-.61,1.27-.99,2.15-.66.65.25.85.8.88,1.45Z"/><path class="cls-1" d="m182.61,46.43c-.14.41-.25.96-.49,1.45-1.02,2.06-2.06,4.12-3.13,6.16-.5.96-1.24,1.77-2.38,1.18-1.21-.63-.75-1.64-.27-2.59,1.12-2.24,2.2-4.5,3.29-6.75.39-.81.99-1.28,1.92-1.06.75.18.94.82,1.07,1.62Z"/><path class="cls-1" d="m170.31,63.34c-.07.87-.52,1.39-1.43,1.36-.83-.02-1.28-.51-1.28-1.34,0-.9.5-1.39,1.41-1.37.83.02,1.24.52,1.3,1.35Z"/><path class="cls-1" d="m172.71,60.31c-.81-.1-1.3-.55-1.31-1.37,0-.83.47-1.35,1.3-1.35.89,0,1.41.55,1.39,1.43-.02.82-.55,1.25-1.38,1.28Z"/><path class="cls-1" d="m120.81,83.9c.02-1.24,1.44-2.83,2.54-2.76,1.18.08,1.79.84,1.84,1.98.06,1.35-1.23,2.7-2.5,2.7-1.05,0-1.9-.87-1.88-1.93Z"/><path class="cls-1" d="m131.06,88.38c.03,1.32-.99,2.29-2.42,2.28-1.14,0-2.11-.93-2.16-2.07-.04-1.23.88-2.04,2.4-2.11,1.36-.06,2.14.62,2.17,1.89Z"/><path class="cls-1" d="m189.42,49.06c.02-.5.14-1.46,1.32-1.56,1.14-.1,1.57.7,1.64,1.72.11,1.86.33,3.69.85,5.49.06.19.06.4.08.6.09.92-.03,1.78-1.11,1.98-1.05.19-1.55-.54-1.84-1.4-.69-2.07-.81-4.22-.94-6.83Z"/><path class="cls-1" d="m191.22,59.33c.84.12,1.39.57,1.37,1.46-.01.83-.53,1.3-1.33,1.31-.88,0-1.38-.51-1.35-1.42.02-.83.5-1.25,1.31-1.35Z"/><path class="cls-1" d="m155.88,40.83c-1.13,0-1.65-.33-1.82-1.07-.17-.72.12-1.37.76-1.63,1.99-.82,4.09-1.31,6.23-1.5.69-.06,1.26.34,1.39,1.11.13.74-.18,1.36-.87,1.56-2.01.59-4.04,1.09-5.7,1.52Z"/><path class="cls-1" d="m167.63,37.28c-.05.83-.54,1.38-1.51,1.39-.86,0-1.28-.53-1.29-1.35,0-.97.56-1.52,1.5-1.51.8,0,1.28.5,1.3,1.47Z"/><path class="cls-1" d="m170.92,34.79c.71.09,1.18.48,1.18,1.25,0,.86-.52,1.28-1.34,1.25-.77-.04-1.17-.53-1.13-1.3.04-.76.5-1.16,1.29-1.2Z"/></svg>