<?xml version="1.0" encoding="UTF-8"?><svg id="Layer_1" xmlns="http://www.w3.org/2000/svg" viewBox="0 0 344.57 361.52"><defs><style>.cls-1{fill:#ffe9da;}.cls-1,.cls-2,.cls-3,.cls-4{stroke:#122b44;stroke-miterlimit:10;}.cls-2{fill:#fff;}.cls-3{fill:#92a1c9;}.cls-4{fill:#182a42;stroke-width:1.5px;}.cls-5{fill:#f7f7f7;}.cls-5,.cls-6,.cls-7,.cls-8,.cls-9,.cls-10,.cls-11{stroke-width:0px;}.cls-6{fill:#953b25;}.cls-7{fill:#122b44;}.cls-8{fill:#943a24;}.cls-9{fill:#ffe3d3;}.cls-10{fill:#fbdfd0;}.cls-11{fill:#f27956;}</style></defs><path class="cls-1" d="m156.39,85.67c-1.27.89-1.72,2.11-1.94,3.59-1.08,7.36-3.72,14.31-7.12,21.04-2.81,5.56-5.5,11.16-8.36,16.69-.8,1.56-1,2.65.24,4.02,3.05,3.35,6.45,6.41,8.61,10.53.81,1.54,2.81,1.95,4.03,3.25,2.79,2.98,4.64,6.82,8.2,9.12.63.4,1.28,1.1.95,2.06-.42,1.2-1.49,1.18-2.46,1.18-1.11,0-2.35.18-3.28-.22-1.98-.86-4.04-.67-6.09-.46-6.42.65-12.68.09-18.92-.82-2.04-.3-3.57.25-4.98,2.26-4.28,6.11-9.86,11.07-15.61,15.76-3.25,2.65-7.39,3.63-11.39,4.26-5.09.8-10.36,1.67-15.32,1.44-11.63-.54-23.6-.19-34.07-5.88-6.03-3.28-11.76-6.84-16.56-11.83-7.49-7.8-13.02-16.85-17.37-26.74-.32-.74-.71-1.48-.83-2.27-1.18-7.83-4.45-15.03-5.47-22.93-1.08-8.41-1.7-16.78.03-25.41,1.04-5.17,1.97-10.37,3.03-15.55,1.3-6.39,3.63-12.39,7.21-17.93,2.43-3.77,3.28-8.06,5.29-11.97,2.9-5.66,7.38-9.65,12.44-13.21,4.3-3.03,8.5-6.3,13.63-7.7,3.58-.98,6.81-2.35,9.57-5.13,1.48-1.49,3.82-1.93,5.92-1.93,7.53-.02,14.92-1.15,22.29-3.33,3.94-1.16,8.06-.69,11.96,0,3.89.69,7.7,1.71,11.24,3.47,5.64,2.81,11.64,4.95,16.73,8.75,4.95,3.7,9.5,7.64,12.84,12.98,1.99,3.17,3.76,6.4,5.54,9.68,1.55,2.84,3.24,5.86,5.78,8.1,0,0-.08-.05-.08-.05,0,.53-.17,1.14,0,1.59,2.14,5.69,3.32,11.62,3.43,17.83.02,1.22.79,1.95,1.55,2.69.18.2.16.4-.04.61-2.21,3.34-2.28,6.45-.22,9.32.08,1.07.01,2.12-.4,3.16Z"/><path class="cls-3" d="m156.39,85.67c.42-1.04.48-2.09.4-3.16.41-3.12.89-6.24.22-9.31.2-.2.21-.4.04-.61,1.57-8.29-.19-15.63-4.98-22.11,0,0,.08.05.08.05-.06-2.76-2.12-4.55-3.04-6.9-.29-.74-.85-1.37-1.13-2.11-.3-.78-.23-1.65.45-2.31.74-.71,1.53-.44,2.3-.11,2.8,1.21,4.14,3.86,5.41,6.24,11.03,20.72,14.4,43.04,9.15,67-.74,3.39-2.03,6.7-3.19,10.01-1,2.86-2.4,5.36-5.9,5.96-.99.17-2.23.47-2.97,1.49h.06c-.38-.42-.79-.4-1.23-.02h.06c-.38-.38-.8-.34-1.24-.02h.06c-1.09-.45-2.15-.64-3.04.55h.05c-.72-1.05-1.52-1.07-2.4-.03h.05c-4.35-2.74-4.38-2.76-1.04-7.34,4.37-6,6.49-12.87,8.72-19.66,1.89-5.75,3.31-11.6,3.12-17.6Z"/><path class="cls-3" d="m153.23,129.79c.43.39.99.47,1.53.34,2.81-.66,4.65-.31,5.42,2.98.46,1.96,2.37,3.46,3.34,5.4,1.63,3.28,2.62,6.77,3.36,10.36.19.91.16,1.91.09,2.86-.09,1.17-.6,2.17-1.82,2.62-1.21.45-2.16.02-2.96-.8-.47-.48-.92-.97-1.37-1.46-5.13-5.62-10.27-11.24-15.4-16.86q-2.11-2.31.18-4.97s-.05,0-.05,0c.76.52,1.56.61,2.4.03,0,0-.05,0-.05,0,1.2,1.35,2.15.65,3.04-.55,0,0-.06,0-.06,0,.37.5.79.48,1.24.02,0,0-.06,0-.06,0,.37.44.79.41,1.23.02h-.06Z"/><path class="cls-2" d="m152.07,50.48c4.79,6.48,6.55,13.82,4.98,22.11-.76-.75-1.53-1.47-1.55-2.69-.1-6.2-1.29-12.13-3.43-17.83-.17-.46,0-1.06,0-1.59Z"/><path class="cls-2" d="m157.01,73.2c.67,3.07.2,6.19-.22,9.31-2.06-2.86-1.99-5.97.22-9.31Z"/><path class="cls-2" d="m150.94,129.75c-.89,1.21-1.84,1.91-3.04.55.89-1.19,1.95-1,3.04-.55Z"/><path class="cls-2" d="m147.94,130.31c-.85.58-1.64.49-2.4-.03.89-1.04,1.69-1.02,2.4.03Z"/><path class="cls-2" d="m152.11,129.77c-.45.46-.86.48-1.24-.02.44-.32.85-.36,1.24.02Z"/><path class="cls-2" d="m153.29,129.79c-.44.39-.86.43-1.23-.02.44-.38.85-.4,1.23.02Z"/><path class="cls-4" d="m148.21,31.8c16.29,17.47,22.89,39.34,22.89,63.88,0,8.08-1.9,15.94-4.76,23.7-4.47,12.13-4.7,8.57.4,21.05.56,1.37,1.07,2.78,1.76,4.08,2.6,4.93,1.43,9.8-1.05,14.7-.79,1.56-1.82,2.44-3.68,2.12-1.48-.25-3.05-.12-4.53-.37-9.79-1.67-19.81-1.48-29.77-1.82-1.78-.06-2.56.5-3.57,2.09-6.41,10.16-15.05,17.58-26.85,20.36-12.78,3-25.53,3.17-38.07.7-14.29-2.81-25.41-10.39-34.14-21.5-4.32-5.5-7.82-11.51-11.22-17.63-8.49-15.27-11.37-31.96-10.12-49.76.73-10.42,2.77-20.66,5.76-30.81,6.19-21,19.36-36.28,39.08-46.21,13.98-7.04,28.57-10.91,43.88-10.69,11.31.17,21.76,2.95,31.26,8.49,8.27,4.82,16.59,9.59,22.73,17.6Zm10.14,124.39c-1.81-3.37-4.43-5.81-6.91-8.36-5.07-5.19-9.46-10.93-13.93-16.62-1.29-1.64-1.34-2.86.4-4.56,2.14-2.09,3.68-4.71,5.19-7.29,6.81-11.66,10.03-24.21,11.58-37.16,1.25-10.43-.13-20.35-4.44-29.62-1.7-3.66-3.31-7.38-5.21-10.92-12.68-23.64-33.17-33.71-60.66-31.18-12.84,1.18-24.96,5.41-36.38,11.99-15.27,8.79-25.99,21.25-31.54,37.86-3.09,9.25-5.17,18.66-6.24,28.22-2.18,19.42.5,37.65,10.11,54.15,2.23,3.83,4.37,7.73,6.91,11.34,8.95,12.68,20.48,21.83,36.62,24.45,10.55,1.71,21.19,1.56,31.92-.45,12.23-2.29,21.03-9.48,27.15-20.17,1.27-2.21,2.5-2.97,4.95-2.78,10.04.75,20.3-.48,30.45,1.13Zm-15.7-28.18c5.22.93,10.4.2,15.59-.93.8-.17,1.1-.89,1.31-1.55,1.93-5.87,4.65-11.52,5.83-17.58,3.01-15.46.87-30.21-3.51-44.6-2.13-6.99-5.51-13.38-10.07-19.18,13.99,28.48,7.53,56-9.14,83.84Zm1.75,4.47c6.09,8.73,13.06,15.5,20.44,22.3,1.57-2.85,1.29-5.07.37-7.25-2.04-4.83-4.12-9.65-6.11-14.5-.48-1.18-1.18-1.73-2.49-1.48-3.72.73-7.45.84-12.21.92Z"/><path class="cls-9" d="m281.23,311.98c1.49,2.57,3.42,4.75,5.69,6.66,4.19,3.52,8.15,7.22,11.12,11.94,2.77,4.39,6.62,7.89,10.34,11.47,3.4,3.27,3.77,7.64,1.18,11.54-1.29,1.95-2.32,4.21-4.75,5-4,1.3-7.89,2.92-12.27,2.92-4.42,0-8.83.17-13.13-1.12-.84-.25-1.69-.52-2.5-.86-6.91-2.96-14.08-5.3-20.82-8.65-2.28-1.13-4.2-2.83-5.93-4.68-5.61-5.98-12.52-10.04-19.76-13.65-3.16-1.57-5.64-4-7.63-6.9-.8-1.17-1.51-2.4-2.22-3.62-4.4-7.54-9.27-14.79-14.04-22.09-4.87-7.46-9.17-15.27-14.17-22.63-3.15-4.63-5.74-9.58-8.61-14.36-3.65-6.09-6.76-12.5-8.13-19.58-.26-1.33-.65-2.73-.46-4.02.58-3.77-.68-7.03-2.23-10.3-1.52-3.22-2.24-6.58-1-10.09.62-1.73.09-3.38-.26-5.04-.96-4.42-2.27-8.81-1.89-13.4.28-3.39.73-6.77,1.18-10.15.66-5.01.71-10.11,2.23-14.99.95-3.07,2.31-5.87,4.58-8.24,1.86-1.94,4.2-2.56,6.59-2.28,2.02.23,3.23-.59,4.5-1.77,1.41-1.32,2.74-2.75,4.25-3.95,4.59-3.62,9.24-2.51,13.84.04,3.09,1.71,5.53,4.52,8.93,5.66,11.64,3.9,21.77,10.85,32.74,16.08,1.37.66,2.8,1.4,4.27,1.61,7.76,1.1,14.01,5.02,19.51,10.28,2.82,2.69,6,4.59,9.59,6.07,7.55,3.11,14.39,7.49,20.78,12.58,7.32,5.84,14,12.37,20.75,18.83,4.16,3.98,8.25,8.04,12.75,11.65,2.07,1.66,3.99,3.49,5.61,5.58,2.49,3.22,3.15,6.94,2.41,10.86-.78,4.19-2.42,7.94-5.76,10.85-2.97,2.59-6.48,3.08-10.17,3.23-2.81.12-5.62-.34-8.43.4-2.43.64-4.38,2.24-6.73,3.02-.89.29-1.7.81-2.6,1.08-2.33.68-4.08,2.06-5.22,4.19-2.78,5.17-6.24,9.76-10.6,13.76-3.22,2.95-6.52,5.72-10.24,7.99-1.42.86-2.68,1.91-3.77,3.15-1.61,1.83-1.63,2.47-.37,4.55.28.45.55.91.83,1.36Z"/><path class="cls-6" d="m323.95,261.02c-.33-.24-.65-.5-.99-.71-.65-.38-1.13-.84-.99-1.68.14-.81.72-1.18,1.44-1.37,2.21-.59,4.38-1.28,6.3-2.57.65-.44,1.35-.42,1.94.12.64.59.7,1.32.32,2.09-.71,1.44-1.93,2.32-3.33,3-.52.26-1.06.49-1.59.73-1.03.12-2.07.25-3.1.37Z"/><path class="cls-6" d="m292.04,350.09c.17.05.35.11.52.16-.17-.05-.35-.11-.52-.16Z"/><path class="cls-11" d="m261.97,306.78c-.21.11-.43.23-.64.34,0,0,.05,0,.05,0-.22-.22-.45-.08-.68-.03-2.77-.05-4.51-1.73-6.01-3.8-1.94-2.68-4.06-5.19-6.86-7.04-.95-.63-2.01-.91-2.99-.25-.97.65-1.48,1.69-1.46,2.88.02,1.02.2,2.12.95,2.79,1.75,1.56,2.14,3.67,2.72,5.75.42,1.51,1.27,3.05-.95,3.9-.08.03-.05.32-.07.5,2.12-.65,2.71-.21,3.08,1.98.28,1.62.75,3.21,1.14,4.81-.15.14-.25.3-.07.49v-.04c-1.04.71-.94,1.95-1.28,2.96-1.33,3.92-3.95,5.97-7.51,5.72-.74-.05-1.56-.01-2.09-.72,1.71-.5,3.24-1.18,3.06-3.39-.04-.51.1-1.25-.48-1.37-.41-.08-1.26.31-1.33.63-.29,1.32-.74,2.54-1.47,3.68-.05.07.15.3.23.45-3.23-.93-5.64-3.05-7.79-5.49-6.07-6.9-9.87-15.36-15.56-22.58-2.82-3.57-6.47-6.62-8.63-10.6-3.48-6.42-6.68-12.99-9.97-19.51-.52-1.04-1.13-2.07-1.35-3.24.23.33.52.64.69,1.01,1.24,2.74,2.98,5.13,4.83,7.49,1.65,2.1,3.81,3.57,5.73,5.35-2.2.97-2.94,1.87-2.21,3.07,2.15,3.51,4.23,7.1,7.8,9.45.84.56,1.57.64,2.43.07.84-.55,1.12-1.24,1.03-2.24-.17-1.84-1.21-3.17-2.39-4.41-1.86-1.95-3.8-3.83-5.7-5.74.86.36,1.71.75,2.59,1.07,1.15.42,2.08-.09,2.85-.88.68-.7.52-1.49.02-2.25-2.8-4.29-4.63-9.04-6.51-13.76v.02c1.53-.68,1.84-2.2,2.38-3.54,1.3-3.23,2.59-6.48,5.25-8.89,1.09-.98,2.35-1.77,3.48-2.7.67-.55,1.01-1.29.72-2.21-.28-.88-1.01-1.18-1.79-1.2-4.16-.09-8.35-.36-12.38,1.05-.79.28-.98.13-1.26-.57-.57-1.42-.76-3.18-2.77-3.52-.22-.04-.44-.53-.54-.85-2.16-6.96-4.47-13.89-6.4-20.91-1.9-6.92-3.06-14.04-5.4-20.84-1.84-5.33-2.46-10.98-4.53-16.25-.22-.56-.36-1.26.02-1.89,2.17-.29,3.32,1.37,4.75,2.48-.52,1.36-2.14,2.2-2.03,3.79.14,2.03.17,4.09.86,6.06.8,2.29,1.67,2.59,3.73,1.2.14.35-.04.82.39,1.07,0,0-.02-.06-.02-.06-.43.34-.2.76-.14,1.16-.37,1.05-.67,2.13-1.12,3.14-.42.96-.94,1.89.22,2.63,1.16.74,1.88-.21,2.55-.9,1.08-1.11,1.65-2.57,2.35-3.93,1.51-2.93,3.58-5.73,4.38-8.84,1.3-5.1,3.99-9.73,4.74-14.97,1.82-.68,3.68-.41,5.01.77,3.84,3.39,8.25,4.36,13.27,4.5,4.33.12,8.54,1.91,11.68,4.95,1.97,1.9,4.17,3.18,6.41,4.55.4.24.78.6,1.29.52,3.75-.62,6.7,1.33,9.78,2.94,1.79.94,3.3,2.43,5.51,2.61.96.08,1.1,1.29,1.58,2-.78.42-1.56.87-2.03,1.64-.54.89-.93,1.91.07,2.69.79.62,1.86.58,2.68.09.93-.55,2.11-1.04,1.95-2.5,3.28,2.67,7.08,4.53,10.68,6.7-.39.13-.76.29-1.16.37-2.13.43-2.29.98-1.68,3.12.54,1.92,1.27,3.9.57,5.97-.6-.84-.57-1.88-.92-2.8-.16-.42-.15-1.01-.81-.93-1.16.13-2.33.28-3.28,1.05-.6.48-.55.81.2,1.07,1.69.58,3.52.94,4.47,2.75.04.07.42-.04.64-.07,1.5.73,2.24,1.72,1.19,3.36-.36.55-.03,1,.23,1.47,1.6,2.82,4.41,3.89,7.75,2.88.86-.26,1.61-.53,2.45.16.6.48,1.36.28,1.94-.25.47-.43.83-1.06.5-1.57-1.11-1.71.06-2.94.86-4.15.6-.91.59-1.64.33-2.62-.43-1.58-1.84-2.43-2.54-3.78,11.68,3.76,20.77,11.28,29.16,19.88,2.35,2.4,5.15,4.28,8.2,5.74,3.68,1.76,6.74,4.4,10,6.8,3.54,2.61,5.02,5.29,4.47,9.73-.52,4.16-3.76,7.3-8.01,6.64.53-.24,1.06-.48,1.59-.73,1.39-.68,2.61-1.57,3.33-3,.38-.77.32-1.5-.32-2.09-.59-.55-1.29-.56-1.94-.12-1.93,1.29-4.09,1.97-6.3,2.57-.71.19-1.29.56-1.44,1.37-.15.84.34,1.3.99,1.68.35.21.66.47.99.71-1.54.57-3.03.18-4.43-.42-.87-.37-1.37-.31-2.15.31-3.19,2.56-6.17,5.44-9.96,7.16-.25.12-.55.13-.83.2.15-1.73,1.38-2.45,2.8-3.04,2.36-.97,2.87-2.87,1.24-4.43.74-.2,1.44-.43,2.11-.85,3.36-2.11,6.11-9.93,4.81-13.75-.48-1.42-1.82-2.39-2.93-1.82-1.17.59-2.36.62-3.57.76-1.83.21-3.01,1.2-3.59,2.93-.9,2.69-1.24,5.48-1.49,8.3-.16,1.88.09,3.37,2.28,3.82.56.11,1.06.48,1.59.73-1.78.52-3.26,1.42-4.5,2.87-.67.78-1.07,1.82-2.03,2.35-.38-1.88-1.65-2.27-3.31-1.97-2.89.53-5.78,1.08-8.67,1.61-1.25.23-2.29.83-2.65,2.05-.87,2.89-.9,5.92-1.16,8.89-.11,1.3,1.12,2.1,1.9,1.36,1-.94,1.94-.92,3.09-.63.79.2,1.45-.22,2.15-.58,1.83-.94,2.93-2.69,4.51-3.89-2.09,4.68-4.31,9.3-7.18,13.57-1.47,2.18-3.32,4-5.9,4.85-1.61.53-3.24.59-4.78-.28,1.59-.54,2.66-1.54,3.48-3.09.57-1.06.89-1.76.16-2.82-.64-.94-1.26-1.94-.81-3.25.31-.91-.21-1.77-1.05-1.97-1.67-.41-3.36-1.03-5.14-.42-4.55,1.55-7.01,6.16-5.76,10.82.24.9.82,1.32,1.69,1.58,2.05.61,4.09.28,6.14.08-2.48,6.42-6.93,11.05-12.96,14.19-1,.52-2.11,1.05-3.34.6.59-.58,1.42-.53,2.13-.77,1.31-.43,2.17-1.29,2.27-2.65.15-2.17.18-4.34.44-6.51.13-1.13-.43-2.31-1.7-2.58-1.34-.29-2.03.66-2.42,1.81-.67,1.96-.99,4-1.24,6.05-.07.55-.01,1.09-.72,1.46-1.84.96-1.9,1.59-.49,3.14Zm-32.77-44.25s-.1-.01-.15-.02c.05,0,.1,0,.15,0,.28.16.54.12.78-.09.16.06.31.13.47.19.41.52,1.04.48,1.59.62,3.33.84,6.71.77,10.11.7,2.31-.05,4.42-.33,5.91-2.32.29.19.54.11.78-.09.87.79,1.91,1.52,1.5,2.93-.39,1.33-1.51,1.91-2.71,2.31-1.29.43-2.63.69-3.99.75-.98.04-1.69.38-2.01,1.38-.5,1.52-1.78,2.34-3.16,2.52-4.24.56-8.5.46-12.61-.82-2.28-.71-3.51-2.84-2.79-4.61.41-1.02.27-1.53-.54-2.24-1.59-1.38-1.56-2.7-.15-4.27.25-.28.78-.37.67-.91-2-1.16-4-2.27-5.96-3.47-2.21-1.36-2.19-1.39-3.81.73-.14.19-.31.36-.44.55-2.27,3.54-4.33,7.23-2.74,11.59,1.41,3.88,3.49,7.48,6.36,10.49,1.48,1.55,3.45,2.95,5.63,2.5,2.9-.61,6.05.07,8.7-1.17,3.52-1.65,7.19-.78,10.71-1.04,4.95-.37,9.05-2.36,12.8-4.93,4.25-2.91,7.2-7.28,9.18-12.09,2.49-6.05,5.16-12.01,7.55-18.11,1.4-3.58,1.61-6.52-.79-9.54-.89-1.12-1.8-2.27.14-3.32.26-.14.43-.59.48-.92.47-3.03.32-6.05-.07-9.14-.37.13-.57.15-.69.25-2.23,1.95-6.29.61-8.13-1.06-1.76-1.61-2.2-4.29-1.18-7.03.95-2.56,2.73-4.03,5.38-4.55.65-.13,1.68-.12,1.14-1.21-.8-1.62-1.35-3.41-2.84-4.84-1.27,2.54-3.53,3.38-6.12,3.42-2.84.04-4.53-1.59-5.38-4.22-2.85,2.51-3.97,2.66-6.42.86.31,1.91,1.15,3.54,1.99,5.13,1.95,3.67,3.47,7.45,3.94,11.63.17,1.52.28,2.88-1.03,4.01-.53.46-.77,1.21-.8,1.93-.08,2.52-1.48,4.23-3.29,5.77-.98.83-1.82,1.84-2.65,2.82-.86,1.01-1.64,1.87-3.21,1.73-1.18-.11-2.26.59-3.19,1.35-4.39,3.58-9.07,6.75-13.81,9.82-1.47.95-3.17,1.5-4.44,2.84-.6.64-.61,1.01-.13,1.61.68.85,1.59,1.35,2.51,1.9,3.55,2.09,7.67,1.58,11.45,2.61,3.17.86,6.42.81,9.67.62,3.24-.19,6.48-.4,9.71-.11,1.21.11,2.42.41,2.59,1.91.17,1.48-.82,2.2-2.02,2.75-1.6.74-3.54,1.23-5.19,1.59-.28-.17-1.07.2-1.31.36-1.1-.35-1.59-1.32-2.56-.89-2.25,1-4.57,1-6.93,1-2.47,0-4.92-.49-7.39-.18-.17-.02-.33-.03-.5-.05-.29-.17-.54-.08-.78.1Zm5.56,5.23c.18.05.42.29.45-.14-.15.06-.3.11-.46.17-.4-.53-.83-.37-1.27-.07-1.58-1.05-3.48-.9-5.22-1.36-.41-.11-.89.17-.96.6-.08.46.43.47.75.53,1.79.35,3.59.6,5.42.29.43.24.86.23,1.28-.02Zm37.31-1.24c-.75.49-1.28,1.08-1.15,2.04.38,2.95-.36,5.69-1.54,8.35-.46,1.03-.33,1.89.86,2.24,1.11.32,2.27.58,2.66-1.05.5-2.06,1-4.12,1.52-6.17.1-.39.15-.9.42-1.13,2.03-1.75,3.41-3.99,4.81-6.21.54-.86.95-1.14,1.64-.15.46.65,1.21.65,1.94.58,2.38-.2,5.06-2.39,5.69-4.68.54-1.95.82-3.94.41-5.94-.15-.75-.06-1.19.6-1.62,2.74-1.81,4.78-4.57,8.07-5.68,1.51-.51,2.73-1.62,4.59-.97,1.36.48,2.49-.39,3.12-1.71.23-.47.32-1.04.63-1.44,1.83-2.38,1.82-5.03,1.17-7.74-.51-2.1-2.45-2.96-4.4-2.03-.69.33-1.32.79-1.94,1.22-.51.35-.86.56-1.53.08-1.26-.92-2.44-.62-3.18.79-1.18,2.24-2.42,4.53-2.78,7.04-.38,2.7-1.6,4.75-3.66,6.38-1.75,1.38-3.57,2.68-5.36,4.01-.27.2-.56.13-.83-.01-1.61-.84-2.51.16-2.73,1.44-.65,3.82-2.86,6.79-4.93,9.87-.73,1.08-1.16,2.52-2.99,2.04-.31-.08-.74.31-1.11.48Zm-60-74.99c1.39-.91,2.79-1.76,4.35-2.34,9.42-3.45,19.5,1.26,19.97,12.69.16,3.92-.38,7.62-1.88,11.22-.48,1.15-.35,2.36.89,2.87,1.34.54,1.93-.46,2.46-1.59,2.21-4.69,2.58-9.62,2.14-14.68-.64-7.46-6.09-13.65-13.43-15.15-5.38-1.1-10.4-.14-15.1,2.69-.46.28-1.33,1.67-1.65-.21-.31-1.78-1.37-2.84-3.19-3.01-1.51-.14-3.37,1.11-3.91,2.54-.6,1.59-.2,3.85,1.14,4.66,1.23.74,1.21,1.29.33,2.23-.48.51-.84,1.13-1.21,1.74-2.45,4.1-2.56,8.49-1.53,13,.28,1.2,1.13,1.81,2.36,1.59,1.36-.24,1.53-1.28,1.39-2.43-.03-.23-.06-.47-.11-.7-1.27-6.7,1.41-11.57,6.96-15.11Zm15.23,20.54c2.68-1.82,4.81-4.88,4.77-9.07-.03-3.14-1.25-5.79-4.23-7.22-3.26-1.56-6.55-2.28-9.9-.05-5.09,3.38-8.39,9.47-3.21,15.14,2.94,3.21,8.08,4.15,12.56,1.2Zm64.37,23.87c.99-.79,2.73-1.05,2.94-2.36.37-2.32,1.34-4.51,1.37-6.89.04-3.31-1.67-4.39-4.61-2.84-.26.14-.52.3-.8.35-5.85,1.18-7.06,6.85-5.13,11.54.81,1.96,2.42,2.5,4.3,1.44.67-.37,1.28-.83,1.92-1.25Zm-47.32,70.97c-.75-1.08-1.62-2.18-3.02-1.48-1.45.73-2.69.69-4.08-.04-1.04-.55-2.52.55-2.11,1.68.55,1.51.06,2.3-.95,3.38-1.21,1.28-.96,3.29-1.72,4.89-.35.74.28,1.69,1.38,1.5,1.8-.3,3.48-.07,5.21.51.89.3,1.94.13,2.92.37.8.2,1.61-.55,1.37-1.2-.77-2.07,1.02-3.37,1.38-5.09.36-1.71.36-3.06-.37-4.51Zm33.84-56.13c.86-.61,2.17-2.2,3.46-3.8.61-.76.77-1.8-.03-2.39-1.07-.78-1.02-1.67-.99-2.77.05-1.86-1.56-3.06-3.22-2.34-2.29.99-4.08,2.53-4.72,5.13-.39,1.61-.13,3.17.08,4.74.39,2.9,2.11,3.65,5.42,1.44Zm-75.39-17.59c-.87.61-.84,1.78-.56,2.96.77,3.26,4.05,5.65,8.22,6.15,3.81.46,7.49-.46,11.2-.96.84-.11,1.24-.75,1.28-1.47.05-.89-.45-1.56-1.32-1.88-.75-.27-1.51-.13-2.27-.01-2.32.36-4.62.82-7,.71-3.95-.18-5.22-1.05-6.6-4.72-.49-1.3-1.54-1.69-2.96-.79Zm38.09,52.95c-.84-1.23-2.26-1.36-3.28-.22-.36.4-.62.85-1.21.93-2.63.37-5.27.5-7.92.43-.77-.02-1.43-.33-1.99-.97-.66-.74-1.51-.88-2.35-.19-.9.74-1.09,1.66-.58,2.67.58,1.15,1.69,1.69,2.85,1.89,4.54.78,9.02.35,13.39-1.05,1.46-.47,1.92-2.27,1.09-3.49Zm-16.45,17.62c1.43,1.06,3.49.94,5.43,1.27,1.21.21,1.55-.64,2.13-1.43,1.31-1.8,1.35-2.32-.39-3.67-1.36-1.05-2.95-1.72-4.54-2.35-.59-.23-1.19-.15-1.71.15-1.02.6-1.8,4.73-.91,6.03Zm28.8-105.78c.44-.55.77-1.23,1.32-1.6,1.3-.87.78-1.3-.29-1.66-2.88-.99-5.82-1.81-8.47-3.39-1.02-.61-2.22-.81-3.05.22-.83,1.03-.58,2.24.17,3.27.78,1.06,1.77,1.96,2.28,3.27,2.54-3.17,4.96-3.18,8.03-.11Zm-43.35,22.12c1.57,2.14,3.38,3.98,6.24,4.16,1.07.07,2.08-.26,2.23-1.51.13-1.08-.48-1.87-1.53-2.06-2.32-.43-3.7-1.82-4.58-3.93-.36-.87-1.13-1.42-2.15-1.02-.92.36-1.41,1.07-1.2,2.1.17.82.46,1.59.99,2.25Zm53.94,53.84c-.43-.6-.98-.97-1.78-.89-.9.1-1.37.64-1.47,1.49-.15,1.3-1.03,1.83-2.15,1.93-1.39.13-2.14.83-1.94,2.16.22,1.49,1.44,1.78,2.71,1.55,1.86-.34,3.4-1.32,4.42-2.91.65-1.01.97-2.16.21-3.33Zm-57.21-60.03c.88,1.3,2.49,1.68,3.68.87,1.27-.87,1.89-2.74,1.22-3.68-.98-1.39-3.03-1.98-4.19-1.2-1.36.91-1.67,2.61-.72,4.01Zm32.03,4.3c.92,1.38,2.56,1.77,3.8.9,1.13-.79,1.61-2.44.98-3.39-.87-1.32-3.17-2.05-4.21-1.33-1.37.94-1.57,2.3-.56,3.82Zm3.25,5.01c-1.5.98-1.86,2.24-1.02,3.55.91,1.39,2.5,1.78,3.82.92,1.2-.78,1.75-2.78,1.06-3.89-.77-1.25-2.45-1.5-3.86-.58Zm8.55-6.55c-.85-1.35-2.46-1.55-4.17-.52-1.25.76-1.39,1.77-.66,2.98.94,1.55,2.65,2.01,4.06,1.1,1.12-.72,1.48-2.42.76-3.56Zm-25.69,18.72c-1.29.83-1.69,2.3-.95,3.47.84,1.33,2.14,1.62,3.48.77,1.25-.79,1.86-2.84,1.15-3.87-.69-.99-2.46-1.16-3.68-.37Zm20.19,47.24c-1.52.98-2.02,2.51-1.23,3.73.69,1.06,2.62,1.31,3.81.5,1.15-.78,1.49-2.43.75-3.6-.77-1.21-2.06-1.46-3.33-.64Zm-18.74-62.21c-.75-.99-1.81-.54-2.87.14-1.62,1.04-1.94,2.43-.93,3.87.77,1.1,2.13,1.35,3.25.59,1.21-.82,1.6-3.05.55-4.61Zm6.13.23c1.18-.78,1.75-3.07.97-4.11-.91-1.2-2.08-.95-3.15-.31-1.35.81-1.88,2.75-1.15,3.84.64.95,2.33,1.24,3.34.58Zm18.84,59.21c-1.18.78-1.56,2.21-.85,3.2.67.94,2.37,1.25,3.35.61,1.03-.67,1.59-2.57,1.01-3.42-.66-.98-2.34-1.17-3.51-.39Zm7.48,1.83c-1.44.89-1.92,2.09-1.27,3.16.58.95,2.25,1.26,3.3.62,1.49-.91,2.01-2.23,1.32-3.33-.73-1.17-1.93-1.33-3.36-.45Zm-26.36,37.2c.24,2.94,2.86,4.09,4.54,5.95-1.82-1.76-2.89-4.07-4.54-5.95Zm14.06-2.66c-.79-.47-.89-1.41-1.43-2.14-.62,1.86-.47,2.09,1.43,2.14Z"/><path class="cls-6" d="m183.96,181.53c-.38.62-.24,1.33-.02,1.89,2.06,5.26,2.69,10.91,4.53,16.25,2.34,6.79,3.5,13.92,5.4,20.84,1.93,7.03,4.24,13.95,6.4,20.91.1.32.31.81.54.85,2.01.34,2.2,2.09,2.77,3.52.28.7.47.85,1.26.57,4.02-1.41,8.22-1.13,12.38-1.05.78.02,1.51.32,1.79,1.2.29.91-.04,1.65-.72,2.21-1.13.93-2.4,1.72-3.48,2.7-2.66,2.41-3.94,5.66-5.25,8.89-.54,1.34-.85,2.86-2.38,3.54-.48-.78-.19-1.59-.12-2.4.18-2.28.8-4.52.66-6.83-.11-1.74-.94-3.09-2.62-3.61-1.76-.55-2.71.7-3.52,1.99-1.06,1.68-1.48,3.55-1.64,5.52-.26,3.17-.5,6.35.41,9.45.43,1.46,1.41,2.48,3.03,2.52,1.63.04,2.4-1.09,2.79-2.48.25-.9.39-1.84.53-2.77.08-.51-.07-1.08.5-1.41,1.88,4.73,3.7,9.48,6.51,13.76.5.77.66,1.55-.02,2.25-.77.8-1.7,1.3-2.85.88-.88-.32-1.73-.71-2.59-1.07h.02c-.17-.03-.34-.07-.52-.1h.02c-.17-.03-.34-.07-.51-.1h.02c-1.91-1.78-4.08-3.25-5.73-5.35-1.85-2.36-3.59-4.75-4.83-7.49-.17-.37-.46-.67-.69-1.01-1.8-2.96-3.55-5.96-5.42-8.88-3.58-5.57-4.94-11.77-5.33-18.25-.12-1.97-.59-3.76-1.63-5.48-2.13-3.52-2.97-7.4-2.68-11.51.2-2.85-.28-5.61-.92-8.38-1.19-5.21-2.51-10.41-2.5-15.81,0-.19,0-.38,0-.57-.03-.06-.03-.12-.02-.19,1.36-4.55,1.64-9.24,1.89-13.93.2-.74.41-1.48.61-2.21.27-.98.75-1.8,1.9-1.75,1.05.05,1.48.8,1.64,1.77.06.39.27.76.42,1.13Zm10.98,60.16c.27-.46.59-.88.77-1.35.78-2.03-.58-4.71-2.2-4.19-1.66.53-1.79-.35-2.04-1.42-.22-.92-.49-1.83-.63-2.75-1.42-9.15-3.62-18.09-7.27-26.64-.42-.98-.89-1.94-2.15-1.62-1.26.32-1.55,1.38-1.32,2.53.18.92.52,1.81.83,2.69,1.5,4.26,3.47,8.36,4.15,12.91.77,5.12,1.44,10.27,3.02,15.23.93,2.93,2.3,5.42,6.07,5.15-1.42,2.15-1.64,3.66-.82,5.06.81,1.39,2.08,1.6,3.56,1.34-.14,1.39-.47,2.77.92,3.7,1.16.78,2.33.77,3.43-.09,1.38-1.09,1.99-2.89,1.43-4.23-.55-1.31-1.61-1.87-2.99-1.63-.66.11-.89.14-.96-.67-.25-2.66-1.14-3.56-3.79-4.01Z"/><path class="cls-6" d="m250.24,318.62c-.39-1.6-.86-3.19-1.14-4.81-.37-2.19-.96-2.63-3.08-1.98.02-.18,0-.47.07-.5,2.21-.85,1.37-2.38.95-3.9-.58-2.08-.98-4.19-2.72-5.75-.75-.67-.93-1.77-.95-2.79-.03-1.2.49-2.24,1.46-2.88.98-.65,2.04-.37,2.99.25,2.8,1.85,4.92,4.36,6.86,7.04,1.5,2.07,3.24,3.75,6.01,3.8.23.05.44.35.68.03,0,0-.05,0-.05,0,.02.11,0,.27.06.33,7.72,6.2,13.98,14.03,22.14,19.73.8.56,1.51,1.2,1.36,2.3-.09.63.42.79.75,1.08,4.32,3.85,8.4,7.95,12.11,12.37,1.16,1.38,2.37,2.7,3.57,4.04.8.9,1.09,1.99.64,3.13-.47,1.19-1.57,1.08-2.57,1.03-1.23-.07-2.48,0-3.68-.4.79-1.19.47-2.3-.46-3.17-4.47-4.23-9.38-7.99-13.46-12.64-.92-1.05-1.92-.47-2.49.44-.65,1.02-.2,2.06.59,2.86,1.94,1.96,3.96,3.84,5.87,5.83,2.03,2.11,4.58,3.67,6.32,6.07-2.53-.2-4.93-.97-7.37-1.61-.07-.95-.33-1.82-.87-2.64-2.41-3.63-4.79-7.28-7.16-10.93-.55-.85-1.21-1.62-2.06-2.15-1.32-.82-2.75-.62-4.02.03-1.35.69-1.55,2.03-1.2,3.38.38,1.48,1.06,2.84,2.02,4.05,1.34,1.7,2.67,3.41,4,5.12-1.66-.18-3.13-.99-4.69-1.49-.29-.87-.21-1.89-1.02-2.56-1.07-.88-1.74-2.08-2.37-3.25-.74-1.39-1.86-2.75-1.12-4.57.24-.58-.03-1.18-.61-1.51-.63-.36-1.3-.48-2.01-.13-1.19.59-1.76,2.19-1.22,3.84.64,1.95,1.42,3.84,2.65,5.51-3-1.27-5.6-3.21-8.22-5.08-1.35-.96-2.04-2.55-2.66-4.11-1.43-3.63-2.32-7.41-3.3-11.16-.16-.62-.22-1.29-.68-1.8,0,0,0,.04,0,.04.02-.16.04-.33.07-.49Zm11.76,1.39c1.4.69,2.48,1.58,4,1.12,1.18-.35,1.7-1.15,1.62-2.2-.08-1.07-.75-1.96-1.98-1.8-1.36.17-2.06-.76-2.84-1.49-1.36-1.29-2.64-2.68-3.93-4.05-.48-.51-.9-1.06-1.05-1.81-.2-.99-.72-1.78-1.84-1.84-.78-.05-1.52.1-2,.86-.63.99-.43,1.9.14,2.81.76,1.21,1.83,2.14,2.83,3.14.29.29.65.62.51,1.06-.12.39-.56.31-.91.38-2.08.38-2.96,1.86-2.37,3.86.56,1.89,1.73,3.33,3.28,4.47.95.7,2.01,1.09,3.12.46,1.16-.66,1.74-1.74,1.7-3.08-.02-.58-.17-1.16-.29-1.88Zm12.33,3.23c-.77-1.23-2.78-1.61-4.11-.79-1.29.8-1.58,2.15-.75,3.52.9,1.5,2.62,2.02,3.93,1.19,1.23-.78,1.69-2.71.93-3.92Zm4.45,4.54c-1-1.6-2.4-2.07-3.67-1.24-1.26.83-1.68,2.85-.86,4.1.81,1.22,2.74,1.64,3.93.86,1.22-.8,1.47-2.32.6-3.72Z"/><path class="cls-8" d="m270.73,216.57c.69-2.07-.03-4.05-.57-5.97-.6-2.14-.44-2.69,1.68-3.12.39-.08.77-.25,1.16-.37,0,0,.16.07.16.07.17.07.35.13.52.2,3.38,1.87,7.34,2.71,10.05,5.75.7,1.35,2.11,2.2,2.54,3.78.27.98.28,1.71-.33,2.62-.8,1.2-1.97,2.44-.86,4.15.33.51-.03,1.15-.5,1.57-.59.54-1.35.73-1.94.25-.85-.68-1.59-.41-2.45-.16-3.34,1-6.14-.07-7.75-2.88-.27-.47-.59-.92-.23-1.47,1.06-1.63.31-2.63-1.19-3.36v.02c.14-.43-.02-.79-.29-1.11v.02Z"/><path class="cls-6" d="m204.62,174.39c-.75,5.24-3.43,9.87-4.74,14.97-.8,3.12-2.87,5.91-4.38,8.84-.7,1.36-1.27,2.82-2.35,3.93-.67.69-1.39,1.63-2.55.9-1.16-.74-.65-1.67-.22-2.63.45-1.01.75-2.09,1.12-3.14.09-.38.85-.69.14-1.16,0,0,.02.06.02.06.88-.05.81-.88,1.05-1.39,2.99-6.14,4.43-12.8,6.32-19.31.56-1.92,1.15-3.79,2.94-5.03.65-.45,1.23-.72,1.93-.4.73.33.93,1,.93,1.77,0,.88-.54,1.71-.22,2.61Z"/><path class="cls-8" d="m299.17,272.99c-1.59,1.2-2.68,2.95-4.51,3.89-.7.36-1.37.78-2.15.58-1.15-.29-2.09-.31-3.09.63-.78.74-2.01-.06-1.9-1.36.25-2.98.28-6.01,1.16-8.89.37-1.22,1.41-1.82,2.65-2.05,2.89-.53,5.78-1.08,8.67-1.61,1.66-.3,2.94.09,3.32,1.96-.03.06-.04.13-.03.2-.24.74-.47,1.47-.71,2.21-1.28,1.37-2.42,2.85-3.4,4.45Z"/><path class="cls-8" d="m280.01,292.05c-2.05.21-4.09.53-6.14-.08-.87-.26-1.45-.68-1.69-1.58-1.25-4.66,1.21-9.27,5.76-10.82,1.79-.61,3.47.01,5.14.42.84.21,1.36,1.06,1.05,1.97-.45,1.31.17,2.31.81,3.25.73,1.06.41,1.76-.16,2.82-.82,1.54-1.89,2.54-3.48,3.09-.43.31-.86.62-1.29.93Z"/><path class="cls-11" d="m275.41,345.37c-1.33-1.71-2.66-3.42-4-5.12-.95-1.21-1.64-2.57-2.02-4.05-.34-1.35-.15-2.68,1.2-3.38,1.28-.66,2.7-.85,4.02-.03.85.53,1.51,1.29,2.06,2.15,2.37,3.65,4.75,7.3,7.16,10.93.54.82.8,1.69.87,2.64-1.36,1.98-2.61,1.98-3.79-.06-.48-.82-.87-1.35-2.01-1.11-1.46.3-2.18-1.14-3.27-1.76,0-.06.03-.16.01-.16-.09-.04-.18-.05-.27-.07l.03.02Z"/><path class="cls-10" d="m191.82,195.65c-2.06,1.39-2.93,1.09-3.73-1.2-.69-1.97-.72-4.03-.86-6.06-.11-1.6,1.51-2.44,2.03-3.79,1.47-.89,2.25-2.53,3.79-3.37.84-.46,1.55-.7,2.45-.2.93.51,1.27,1.33,1.06,2.21-.77,3.23-1.58,6.46-4,8.95-.37.38-.44.76-.48,1.25-.06.74.23,1.53-.25,2.23Z"/><path class="cls-11" d="m292.07,350.11c-1.74-2.4-4.29-3.97-6.32-6.07-1.91-1.98-3.93-3.87-5.87-5.83-.8-.8-1.24-1.84-.59-2.86.58-.91,1.57-1.48,2.49-.44,4.08,4.65,8.99,8.41,13.46,12.64.92.87,1.24,1.98.46,3.17-1.21.95-2.24.66-3.13-.48-.17-.05-.35-.11-.52-.16l.04.03Z"/><path class="cls-6" d="m261.97,306.78c-1.41-1.55-1.36-2.18.49-3.14.71-.37.65-.9.72-1.46.26-2.05.57-4.09,1.24-6.05.4-1.15,1.08-2.1,2.42-1.81,1.27.27,1.83,1.45,1.7,2.58-.25,2.17-.29,4.34-.44,6.51-.09,1.36-.96,2.22-2.27,2.65-.72.23-1.54.19-2.13.77,0,0,.02,0,.02,0-.29-.25-.55-.12-.81.06-.32-.04-.63-.08-.95-.12Z"/><path class="cls-11" d="m265.03,341.22c-1.23-1.67-2.01-3.57-2.65-5.51-.54-1.65.03-3.25,1.22-3.84.71-.35,1.38-.23,2.01.13.57.33.84.93.61,1.51-.74,1.82.38,3.18,1.12,4.57.63,1.17,1.3,2.37,2.37,3.25.81.67.73,1.68,1.02,2.56-1.59,1.52-2.45,1.52-3.87-.12-.68-.78-1.22-1.69-1.82-2.54Z"/><path class="cls-6" d="m303.27,266.34c0-.07,0-.14.03-.2.96-.53,1.36-1.57,2.03-2.35,1.24-1.45,2.72-2.35,4.5-2.87.24-.14.49-.26.78-.12,1.63,1.56,1.12,3.46-1.24,4.43-1.42.59-2.65,1.3-2.8,3.04-.47.15-.83.63-1.4.45-.13-.19-.3-.23-.5-.12,0,0,.02,0,.02,0-.47-.76-.94-1.51-1.41-2.27Z"/><path class="cls-6" d="m261.83,199.15c.16,1.46-1.02,1.96-1.95,2.5-.83.49-1.89.53-2.68-.09-1-.78-.61-1.81-.07-2.69.47-.77,1.25-1.22,2.03-1.64.89.64,1.78,1.28,2.68,1.93Z"/><path class="cls-11" d="m303.27,266.34c.47.76.94,1.51,1.41,2.27-.72.34-1.42.25-2.12-.06.23-.74.47-1.47.71-2.21Z"/><path class="cls-11" d="m262.91,306.9c.26-.18.52-.31.81-.06-.25.23-.53.24-.81.06Z"/><path class="cls-11" d="m304.67,268.6c.2-.11.37-.07.5.12-.17-.04-.34-.08-.5-.12Z"/><path class="cls-11" d="m177.52,196.7c0,.19,0,.38,0,.57,0-.19,0-.38,0-.57Z"/><path class="cls-11" d="m273.18,206.11c-.17-.07-.35-.13-.52-.2.17.07.35.13.52.2Z"/><path class="cls-6" d="m275.38,345.34c.09.02.19.03.27.07.02,0,0,.11-.01.16-.09-.08-.17-.15-.26-.23Z"/><path class="cls-8" d="m248.85,261.49c1.66-.36,3.41-.15,5.01-.89,1.2-.55,2.19-1.27,2.02-2.75-.17-1.5-1.38-1.8-2.59-1.91-3.24-.29-6.48-.08-9.71.11-3.25.19-6.5.24-9.67-.62-3.78-1.02-7.9-.51-11.45-2.61-.92-.54-1.83-1.05-2.51-1.9-.48-.6-.47-.97.13-1.61,1.26-1.34,2.97-1.89,4.44-2.84,4.75-3.07,9.42-6.24,13.81-9.82.93-.76,2.01-1.46,3.19-1.35,1.57.14,2.35-.73,3.21-1.73.84-.98,1.68-1.99,2.65-2.82,1.82-1.54,3.21-3.25,3.29-5.77.02-.72.27-1.47.8-1.93,1.31-1.13,1.2-2.49,1.03-4.01-.47-4.18-1.98-7.96-3.94-11.63-.85-1.59-1.68-3.22-1.99-5.13,2.45,1.81,3.57,1.66,6.42-.86.85,2.63,2.54,4.26,5.38,4.22,2.6-.04,4.85-.88,6.12-3.42,1.49,1.44,2.04,3.22,2.84,4.84.54,1.1-.5,1.09-1.14,1.21-2.65.52-4.43,1.99-5.38,4.55-1.02,2.75-.58,5.42,1.18,7.03,1.84,1.68,5.9,3.01,8.13,1.06.12-.11.32-.12.69-.25.38,3.1,1.2,7.24.73,10.27-.05.33-.89-.35-1.14-.21-1.94,1.05-1.03,2.2-.14,3.32,2.4,3.02,2.19,5.96.79,9.54-2.39,6.1-2.5,10.97-4.99,17.01-1.98,4.82-7.49,10.28-11.75,13.19-3.75,2.57-7.86,4.56-12.8,4.93-3.52.26-6.7.86-10.22,2.51-2.65,1.24-6.29-.91-9.19-.3-2.18.46-4.15-.95-5.63-2.5-2.87-3.01-4.95-6.6-6.36-10.49-1.59-4.36.47-8.04,2.74-11.59.13-.2.3-.37.44-.55,1.62-2.13,1.6-2.09,3.81-.73,1.95,1.2,3.96,2.31,5.96,3.47.11.55-.43.64-.67.91-1.4,1.56-1.43,2.89.15,4.27.81.71.95,1.22.54,2.24-.72,1.78.5,3.9,2.79,4.61,4.11,1.28,8.37,1.38,12.61.82,1.38-.18,2.67-1,3.16-2.52.33-1,1.03-1.34,2.01-1.38,1.36-.06,2.7-.32,3.99-.75,1.21-.4,2.32-.98,2.71-2.31.42-1.41-.62-2.14-1.5-2.93,0,0,0-.03,0-.03Zm7.5-19.27c2.11-1.35,2.81-4.24,1.54-6.35-1.04-1.71-4.28-2.31-6.19-1.15-2.06,1.26-2.48,3.85-1.01,6.2,1.25,2,3.69,2.56,5.67,1.29Zm5.14-10.22c-1.79,1.18-2.31,3.3-1.2,4.9.97,1.4,3.44,1.76,4.95.71,1.52-1.06,2.21-3.67,1.33-5.04-.95-1.47-3.31-1.73-5.07-.58Zm-3.11-18.19c1.73-1.1,2.23-2.8,1.3-4.34-1.03-1.69-3.63-2.27-5.26-1.17-1.33.9-1.67,2.91-.74,4.39,1.05,1.67,3.07,2.15,4.7,1.11Zm-1.9,13.02c-1.56.99-2.04,2.96-1.1,4.47.94,1.5,3,1.94,4.51.98,1.47-.94,2.03-3.5,1.1-5.08-.68-1.15-2.98-1.34-4.51-.37Zm8.56,22.01c1.61-1.03,2.28-3.04,1.45-4.37-.87-1.39-3.42-2.05-4.67-1.22-1.56,1.05-2.08,3.13-1.16,4.64,1,1.63,2.72,2,4.38.94Z"/><path class="cls-8" d="m272.06,266.52c.37-.17.8-.56,1.11-.48,1.84.48,2.27-.96,2.99-2.04,2.07-3.07,4.28-6.05,4.93-9.87.22-1.28,1.12-2.28,2.73-1.44.27.14.56.21.83.01,1.79-1.33,3.61-2.63,5.36-4.01,2.06-1.62,3.28-3.67,3.66-6.38.35-2.51,1.6-4.8,2.78-7.04.74-1.4,1.92-1.71,3.18-.79.66.49,1.02.27,1.53-.08.63-.44,1.26-.89,1.94-1.22,1.95-.93,3.89-.07,4.4,2.03.65,2.71.66,5.37-1.17,7.74-.31.4-.4.97-.63,1.44-.63,1.32-1.77,2.18-3.12,1.71-1.86-.65-3.08.46-4.59.97-3.29,1.11-5.32,3.88-8.07,5.68-.65.43-.75.87-.6,1.62.41,2,.12,3.99-.41,5.94-.63,2.29-3.31,4.48-5.69,4.68-.73.06-1.48.06-1.94-.58-.69-.98-1.1-.7-1.64.15-1.4,2.22-2.78,4.47-4.81,6.21-.27.23-.32.74-.42,1.13-.52,2.05-1.03,4.11-1.52,6.17-.39,1.62-1.55,1.37-2.66,1.05-1.2-.34-1.32-1.2-.86-2.24,1.18-2.66,1.92-5.4,1.54-8.35-.12-.96.41-1.55,1.15-2.04Z"/><path class="cls-8" d="m212.06,191.53c-5.55,3.55-8.23,8.42-6.96,15.11.04.23.08.46.11.7.13,1.15-.03,2.19-1.39,2.43-1.23.22-2.08-.39-2.36-1.59-1.04-4.51-.93-8.9,1.53-13,.36-.61.73-1.23,1.21-1.74.89-.94.9-1.48-.33-2.23-1.34-.81-1.75-3.07-1.14-4.66.54-1.43,2.4-2.68,3.91-2.54,1.82.17,2.89,1.23,3.19,3.01.33,1.89,1.19.49,1.65.21,4.7-2.83,9.72-3.79,15.1-2.69,7.34,1.5,12.79,7.69,13.43,15.15.44,5.07.07,10-2.14,14.68-.53,1.13-1.13,2.13-2.46,1.59-1.24-.51-1.37-1.72-.89-2.87,1.5-3.6,2.04-7.3,1.88-11.22-.47-11.43-10.55-16.15-19.97-12.69-1.56.57-2.97,1.43-4.35,2.34Z"/><path class="cls-6" d="m227.3,212.07c-4.48,2.95-9.63,2-12.56-1.2-5.18-5.66-1.88-11.76,3.21-15.14,3.35-2.23,6.64-1.51,9.9.05,2.98,1.43,4.2,4.08,4.23,7.22.04,4.19-2.1,7.24-4.77,9.07Zm.36-8.76c.07-3.41-2.78-5.43-6.4-4.53-1.79-.05-2.58,1.46-3.6,2.48-1.82,1.81-1.99,3.85-.76,5.75,1.16,1.78,4.49,3.17,6.29,2.61,2.66-.83,4.42-3.31,4.47-6.3Z"/><path class="cls-8" d="m310.61,260.8c-.29-.14-.53-.03-.78.12-.53-.25-1.04-.61-1.6-.73-2.19-.45-2.45-1.93-2.28-3.82.24-2.82.58-5.61,1.49-8.3.58-1.73,1.75-2.72,3.59-2.93,1.21-.14,2.4-.16,3.57-.76,1.12-.57,2.45.4,2.93,1.82,1.3,3.82-1.45,11.63-4.81,13.75-.66.42-1.37.65-2.11.85Z"/><path class="cls-8" d="m291.66,235.95c-.64.42-1.26.88-1.92,1.25-1.88,1.06-3.5.52-4.3-1.44-1.93-4.69-.71-10.35,5.13-11.54.28-.06.54-.22.8-.35,2.94-1.55,4.65-.47,4.61,2.84-.03,2.38-1.01,4.57-1.37,6.89-.21,1.31-1.95,1.56-2.94,2.36Z"/><path class="cls-8" d="m244.35,306.92c.73,1.45.74,2.8.37,4.51-.36,1.72-2.15,3.03-1.38,5.09.24.65-.57,1.4-1.37,1.2-.98-.24-2.02-.07-2.92-.37-1.73-.58-3.41-.81-5.21-.51-1.1.19-1.73-.76-1.38-1.5.76-1.6.51-3.61,1.72-4.89,1.02-1.07,1.5-1.86.95-3.38-.4-1.12,1.07-2.22,2.11-1.68,1.39.73,2.62.77,4.08.04,1.4-.7,2.27.39,3.02,1.48Z"/><path class="cls-8" d="m278.19,250.79c-3.31,2.21-5.02,1.46-5.42-1.44-.21-1.57-.47-3.13-.08-4.74.63-2.6,2.43-4.14,4.72-5.13,1.66-.72,3.27.48,3.22,2.34-.03,1.1-.08,2,.99,2.77.8.59.64,1.63.03,2.39-1.29,1.6-2.6,3.2-3.46,3.8Z"/><path class="cls-6" d="m202.79,233.21c1.41-.9,2.46-.51,2.96.79,1.39,3.67,2.66,4.54,6.6,4.72,2.38.11,4.68-.36,7-.71.76-.12,1.52-.26,2.27.01.87.31,1.36.99,1.32,1.88-.04.73-.45,1.36-1.28,1.47-3.72.49-7.39,1.41-11.2.96-4.17-.5-7.46-2.89-8.22-6.15-.28-1.19-.31-2.35.56-2.96Z"/><path class="cls-8" d="m208.22,279.64c1.9,1.91,3.84,3.79,5.7,5.74,1.18,1.24,2.23,2.58,2.39,4.41.09,1-.19,1.69-1.03,2.24-.86.57-1.59.48-2.43-.07-3.57-2.35-5.66-5.94-7.8-9.45-.73-1.19.02-2.1,2.21-3.07,0,0-.02,0-.02,0,.17.04.34.07.51.11,0,0-.02,0-.02,0,.17.04.34.07.52.11h-.02Z"/><path class="cls-6" d="m240.88,286.15c.84,1.22.38,3.03-1.09,3.49-4.37,1.4-8.85,1.83-13.39,1.05-1.16-.2-2.27-.74-2.85-1.89-.51-1.01-.33-1.93.58-2.67.85-.69,1.7-.56,2.35.19.56.64,1.23.95,1.99.97,2.65.07,5.29-.06,7.92-.43.59-.08.85-.53,1.21-.93,1.02-1.13,2.43-1.01,3.28.22Z"/><path class="cls-6" d="m224.43,303.77c-.89-1.29-.11-5.43.91-6.03.52-.3,1.12-.38,1.71-.15,1.59.63,3.18,1.29,4.54,2.35,1.74,1.35,1.69,1.87.39,3.67-.57.79-.92,1.64-2.13,1.43-1.93-.33-3.99-.21-5.43-1.27Z"/><path class="cls-6" d="m253.23,197.99c-3.08-3.07-5.49-3.06-8.03.11-.51-1.31-1.51-2.21-2.28-3.27-.76-1.03-1.01-2.24-.17-3.27.83-1.03,2.03-.83,3.05-.22,2.65,1.57,5.59,2.4,8.47,3.39,1.07.37,1.59.79.29,1.66-.55.37-.88,1.05-1.32,1.6Z"/><path class="cls-6" d="m209.88,220.12c-.53-.67-.82-1.44-.99-2.25-.21-1.04.28-1.74,1.2-2.1,1.02-.4,1.79.15,2.15,1.02.88,2.11,2.26,3.5,4.58,3.93,1.04.19,1.66.98,1.53,2.06-.15,1.26-1.16,1.59-2.23,1.51-2.86-.19-4.66-2.02-6.24-4.16Z"/><path class="cls-6" d="m263.83,273.95c.76,1.18.44,2.32-.21,3.33-1.03,1.6-2.56,2.57-4.42,2.91-1.26.23-2.48-.06-2.71-1.55-.2-1.33.55-2.03,1.94-2.16,1.13-.1,2.01-.63,2.15-1.93.1-.86.56-1.4,1.47-1.49.8-.08,1.35.29,1.78.89Z"/><path class="cls-6" d="m206.62,213.92c-.95-1.4-.65-3.1.72-4.01,1.16-.77,3.21-.19,4.19,1.2.67.95.05,2.81-1.22,3.68-1.19.81-2.8.43-3.68-.87Z"/><path class="cls-6" d="m238.65,218.23c-1.01-1.52-.81-2.88.56-3.82,1.05-.71,3.34.01,4.21,1.33.63.95.15,2.6-.98,3.39-1.24.86-2.87.47-3.8-.9Z"/><path class="cls-6" d="m241.9,223.24c1.41-.92,3.09-.67,3.86.58.69,1.11.15,3.1-1.06,3.89-1.32.86-2.91.47-3.82-.92-.85-1.3-.48-2.57,1.02-3.55Z"/><path class="cls-6" d="m250.45,216.69c.72,1.14.36,2.83-.76,3.56-1.42.92-3.12.45-4.06-1.1-.73-1.21-.6-2.22.66-2.98,1.71-1.04,3.31-.83,4.17.52Z"/><path class="cls-6" d="m224.76,235.41c1.23-.79,3-.62,3.68.37.71,1.02.1,3.07-1.15,3.87-1.34.85-2.65.56-3.48-.77-.74-1.17-.34-2.64.95-3.47Z"/><path class="cls-6" d="m244.95,282.65c1.27-.82,2.57-.57,3.33.64.74,1.17.4,2.81-.75,3.6-1.19.81-3.12.56-3.81-.5-.8-1.22-.29-2.75,1.23-3.73Z"/><path class="cls-6" d="m226.21,220.43c1.05,1.56.66,3.78-.55,4.61-1.11.76-2.47.51-3.25-.59-1.01-1.44-.69-2.83.93-3.87,1.06-.68,2.12-1.12,2.87-.14Z"/><path class="cls-6" d="m232.34,220.66c-1.01.67-2.7.38-3.34-.58-.73-1.09-.2-3.03,1.15-3.84,1.08-.64,2.25-.89,3.15.31.79,1.04.21,3.33-.97,4.11Z"/><path class="cls-6" d="m251.18,279.87c1.18-.78,2.85-.59,3.51.39.58.86.02,2.75-1.01,3.42-.98.64-2.69.33-3.35-.61-.71-1-.33-2.42.85-3.2Z"/><path class="cls-6" d="m258.66,281.7c1.42-.88,2.63-.72,3.36.45.69,1.1.17,2.42-1.32,3.33-1.05.64-2.72.33-3.3-.62-.66-1.07-.17-2.27,1.27-3.16Z"/><path class="cls-6" d="m270.53,216.38c-.22.03-.6.14-.64.07-.95-1.81-2.78-2.17-4.47-2.75-.75-.26-.8-.58-.2-1.07.96-.78,2.12-.92,3.28-1.05.66-.07.65.51.81.93.35.92.32,1.97.92,2.8,0,0,0-.02,0-.02-.26.46.06.77.29,1.11,0,0,0-.02,0-.02Z"/><path class="cls-6" d="m239.3,327.02c-.08-.15-.28-.38-.23-.45.72-1.14,1.17-2.36,1.47-3.68.07-.31.93-.71,1.33-.63.59.12.44.86.48,1.37.18,2.21-1.35,2.88-3.06,3.39,0,0,0,0,0,0Z"/><path class="cls-6" d="m233.47,267.78c-1.83.32-3.63.07-5.42-.29-.32-.06-.83-.07-.75-.53.07-.43.55-.71.96-.6,1.74.46,3.64.32,5.22,1.36,0,0,0,.05,0,.05Z"/><path class="cls-6" d="m232.29,318.9c1.65,1.89,2.72,4.19,4.54,5.95-1.68-1.87-4.3-3.01-4.54-5.95Z"/><path class="cls-6" d="m246.35,316.24c-1.9-.05-2.05-.28-1.43-2.14.55.73.64,1.67,1.43,2.14Z"/><path class="cls-6" d="m234.75,267.76c-.42.25-.85.26-1.28.02,0,0,0-.05,0-.05.44-.3.87-.46,1.27.07v-.03Z"/><path class="cls-5" d="m191.63,196.09c.71.48-.05.78-.14,1.16-.06-.4-.3-.82.14-1.16Z"/><path class="cls-6" d="m234.75,267.79c.15-.06.3-.11.46-.17-.04.43-.27.19-.45.14,0,0,0,.03,0,.03Z"/><path class="cls-8" d="m229.98,262.42c-.24.21-.5.25-.78.09v.02c.24-.18.49-.27.78-.1v-.02Z"/><path class="cls-8" d="m229.98,262.44c.17.02.33.03.5.05,0,0-.03.12-.03.13-.16-.06-.31-.13-.47-.19,0,0,0,.02,0,.02Z"/><path class="cls-5" d="m261.37,307.11c-.24.32-.46.03-.68-.03.23-.06.46-.2.68.03Z"/><path class="cls-5" d="m250.24,318.62c-.02.16-.04.33-.07.49-.18-.19-.08-.34.07-.49Z"/><path class="cls-8" d="m229.2,262.51c-.05,0-.1,0-.15,0,.05,0,.1.01.15.02v-.02Z"/><path class="cls-11" d="m194.94,241.69c2.65.45,3.55,1.34,3.79,4.01.08.82.3.79.96.67,1.38-.24,2.44.32,2.99,1.63.57,1.35-.04,3.14-1.43,4.23-1.1.86-2.27.87-3.43.09-1.38-.92-1.05-2.31-.92-3.7-1.48.26-2.75.04-3.56-1.34-.82-1.41-.61-2.91.82-5.06-3.77.28-5.14-2.22-6.07-5.15-1.58-4.96-2.25-10.11-3.02-15.23-.68-4.55-2.65-8.64-4.15-12.91-.31-.89-.64-1.78-.83-2.69-.23-1.15.06-2.21,1.32-2.53,1.25-.32,1.73.64,2.15,1.62,3.64,8.55,5.85,17.48,7.27,26.64.14.93.41,1.84.63,2.75.25,1.07.38,1.95,2.04,1.42,1.62-.52,2.98,2.17,2.2,4.19-.18.47-.5.89-.77,1.35Z"/><path class="cls-11" d="m207.61,263.77c-.17.82-.85.94-.93,1.45-.14.93-.27,1.87-.53,2.77-.39,1.39-1.16,2.52-2.79,2.48-1.61-.04-2.6-1.06-3.03-2.52-.91-3.11-.67-6.28-.41-9.45.16-1.96.58-3.83,1.64-5.52.81-1.29,1.77-2.54,3.52-1.99,1.68.52,2.51,1.87,2.62,3.61.15,2.31-.48,4.55-.66,6.83-.06.81,1.84.08,1.25,1.86-.41,1.23-.7.47-.7.47Z"/><path class="cls-11" d="m207.75,279.55c-.17-.04-.34-.07-.51-.11.17.04.34.07.51.11Z"/><path class="cls-11" d="m208.24,279.65c-.17-.04-.34-.07-.52-.11.17.04.34.07.52.11Z"/><path class="cls-11" d="m262,320.01c.12.72.27,1.3.29,1.88.04,1.34-.55,2.42-1.7,3.08-1.11.63-2.18.24-3.12-.46-1.56-1.14-2.72-2.58-3.28-4.47-.59-2,.29-3.48,2.37-3.86.35-.06.79.01.91-.38.14-.44-.22-.78-.51-1.06-1-1-2.07-1.92-2.83-3.14-.58-.91-.78-1.82-.14-2.81.48-.76,1.22-.9,2-.86,1.12.07,1.65.86,1.84,1.84.15.74.57,1.29,1.05,1.81,1.29,1.37,2.56,2.76,3.93,4.05.78.74,1.48,1.67,2.84,1.49,1.24-.16,1.9.72,1.98,1.8.08,1.05-.44,1.86-1.62,2.2-1.52.45-2.6-.44-4-1.12Z"/><path class="cls-11" d="m274.33,323.24c.76,1.21.3,3.14-.93,3.92-1.31.83-3.02.31-3.93-1.19-.83-1.37-.54-2.72.75-3.52,1.33-.82,3.34-.44,4.11.79Z"/><path class="cls-11" d="m278.78,327.78c.87,1.39.62,2.92-.6,3.72-1.19.78-3.12.36-3.93-.86-.83-1.24-.4-3.27.86-4.1,1.28-.84,2.67-.37,3.67,1.24Z"/><path class="cls-11" d="m270.53,216.4c-.23-.34-.55-.65-.29-1.11.27.33.43.68.29,1.11Z"/><path class="cls-11" d="m256.35,242.22c-1.98,1.27-4.42.71-5.67-1.29-1.47-2.35-1.05-4.94,1.01-6.2,1.91-1.17,5.16-.57,6.19,1.15,1.28,2.1.58,4.99-1.54,6.35Z"/><path class="cls-11" d="m261.5,232c1.76-1.16,4.12-.89,5.07.58.88,1.37.19,3.98-1.33,5.04-1.51,1.05-3.98.7-4.95-.71-1.1-1.61-.58-3.73,1.2-4.9Z"/><path class="cls-11" d="m258.39,213.81c-1.63,1.04-3.65.56-4.7-1.11-.93-1.48-.59-3.5.74-4.39,1.63-1.1,4.24-.52,5.26,1.17.93,1.54.43,3.23-1.3,4.34Z"/><path class="cls-11" d="m256.48,226.83c1.53-.97,3.83-.78,4.51.37.93,1.58.38,4.14-1.1,5.08-1.51.97-3.57.52-4.51-.98-.95-1.51-.47-3.48,1.1-4.47Z"/><path class="cls-11" d="m265.04,248.83c-1.66,1.06-3.38.69-4.38-.94-.92-1.51-.4-3.59,1.16-4.64,1.25-.84,3.8-.17,4.67,1.22.83,1.33.16,3.34-1.45,4.37Z"/><path class="cls-11" d="m227.65,203.31c-.05,2.99-1.81,5.47-4.47,6.3-1.79.56-5.13-.82-6.29-2.61-1.23-1.9-1.06-3.94.76-5.75,1.02-1.02,1.81-2.52,3.6-2.48-2.36,2.2-2.17,3.93.62,5.44,2.14,1.16,4.04.6,5.78-.91Z"/><path class="cls-10" d="m227.65,203.31c-1.74,1.5-3.63,2.07-5.78.91-2.8-1.51-2.98-3.24-.62-5.44,3.61-.9,6.47,1.12,6.4,4.53Z"/><path class="cls-7" d="m250,323.14c-1.1,1.81-1.83,3.54-3.25,4.83-3.28,2.97-7.52,2.84-10.46-.45-12.24-13.73-23.27-28.38-32.93-44.03-3.4-5.52-6.28-11.36-9.46-17.01-2.78-4.94-5.62-9.84-8.48-14.73-1.19-2.03-1.93-4.16-1.9-6.53.08-5.76-.94-11.25-3.93-16.28-1.04-1.74-1.34-3.65-.85-5.64.6-2.44.39-4.84-.49-7.13-2.88-7.51-3.07-15.16-1.71-23,.93-5.35,1.43-10.77,3.18-15.95,1.12-3.33,2.56-3.74,5.22-1.38,1.72,1.52,3.44,3.06,5.03,4.71.75.78,1.18.71,1.83,0,.39-.43.86-.89,1.38-1.09,2.65-.98,3.51-3.15,4.14-5.65.47-1.87,1.01-3.77,2.18-5.39,1.17-1.61,2.14-1.6,3.64-.32,5.24,4.47,11.17,7.76,17.69,9.98.48.17,1.07.21,1.57.13,3.5-.57,6.5.71,9.39,2.44,3.74,2.23,7.25,4.83,11.09,6.93,2.57,1.4,5.25,2.39,8.08,2.98,3.31.69,6.24,2.11,8.87,4.21,1.15.92,2.36,1.77,3.46,2.75,3.66,3.24,7.74,5.44,12.5,6.95,6.78,2.15,12.57,6.45,18.05,10.95,4.59,3.77,9.36,7.31,14.01,11,2.34,1.86,4.56,3.86,6.78,5.86,2.28,2.06,4.91,3.66,7.53,5.23,4.83,2.9,8.92,6.72,13.13,10.4,1.72,1.5,2.22,3.56,1.58,5.83-.52,1.82-1.18,3.59-2.08,5.26-1.23,2.29-3.31,3.45-5.75,4.05-2.09.52-4.22.4-6.34.3-3.12-.14-5.96.61-8.5,2.44-2.98,2.15-6.22,3.83-9.57,5.33-3.54,1.59-6.12,4.3-6.9,8.05-1.29,6.27-4.65,10.53-10.08,13.96-5.25,3.32-10.19,7.24-14.81,11.48-1.61,1.48-3.49,2.63-5.53,3.47-.97.4-1.34.72-.29,1.62,13.56,11.58,26.25,24.05,38.01,37.46.93,1.06,2,2.18,1.29,3.77-.69,1.54-2.16,2.12-3.66,1.99-4.06-.37-8.1-.06-12.15.03-1.79.04-3.51-.56-5.1-1.36-2.84-1.42-5.8-2.32-8.96-2.55-.06,0-.12,0-.17-.03-7.73-2.34-15.32-4.95-21.23-10.87-1.41-1.41-2.42-2.94-2.79-4.98-.6-3.28-1.45-6.52-2.25-10.01Zm-.14-106.77c-.23-1.57-.8-2.94-1.46-4.24-3.36-6.65-6.46-13.39-7.41-20.89-.06-.51-.34-.86-.79-1.1-3.94-2.03-7.43-4.8-11.28-6.97-1.94-1.09-3.95-1.8-6.25-1.45-1.5.23-2.93-.23-4.31-.78-3.74-1.48-7.31-3.29-10.73-5.41-.68-.42-1.1-.8-1.4.4-1.05,4.25-2.75,8.28-4.18,12.4-2.24,6.49-5.45,12.55-8.27,18.77-.84,1.86-.86,3.09-.33,4.74,1.37,4.34,3.61,8.32,5.06,12.64,1.69,5.03,2.33,10.35,4.32,15.3.77,1.9,2.05,3.06,3.84,3.86,2.94,1.32,6,1.21,9.03.62,3.23-.63,6.44-1.44,9.62-2.33,8.5-2.38,16.61-5.45,21.93-13.18,2.17-3.15,3.06-6.59,3.1-10.58-1.06.7-1.87,1.32-2.78.42-.45-.44-.68-1.01-.36-1.61.6-1.11,1.56-1,2.63-.61Zm-35.68,57.43c.6.83,1.2,1.86,2,2.72,1.49,1.61,2.8,3.34,5.46,3.39,6.66.15,13.17-.86,19.62-2.29,6.45-1.43,12.48-3.97,16.92-8.98,7.72-8.71,11.65-19.14,12.82-30.66.03-.34.06-.77-.11-1.03-1.81-2.74-3.11-5.82-5.57-8.14-2.94-2.78-5.9-5.43-10.03-6.33-1.12-.24-1.7-.12-1.97,1.15-.47,2.19-1.13,4.35-2.43,6.23-3.45,5-7.8,8.9-13.39,11.45-4.79,2.19-10.04,3.42-14.23,6.91-1.46,1.22-1.58,1.31,0,2.48,2.59,1.94,5.63,2.66,8.75,3.1,5.26.75,10.55,1.21,15.86,1.31,1.82.04,3.65.23,5.46.44,1.14.13,2.19.65,2.02,1.98-.18,1.39-1.32,1.61-2.56,1.52-2.23-.16-4.47-.29-6.71-.39-5.72-.27-11.42-.79-17.04-1.97-3.46-.73-6.69-1.97-9.17-4.64-.68-.74-1.19-.46-1.77.09-1.75,1.67-3.44,3.39-4.88,5.35-3.05,4.17-3.52,8.52-.94,13.08.58,1.03,1.2,2.03,1.88,3.19Zm3.67-26.09c-2.81.51-5.61.56-8.43.39-4.68-.27-8.01-2.28-9.79-6.8-.94-2.37-1.69-4.77-2.27-7.24-1.07-4.6-2.22-9.18-4.24-13.47-2.84-6.02-4.74-12.31-5.59-18.92-.84-6.51-2.61-12.82-4.45-19.1-.18-.6-.26-1.26-.99-1.8-.94,3.64-1.25,7.27-1.85,10.86-1.37,8.21-1.5,16.3,1.64,24.22,1,2.51,1.06,5.19.42,7.84-.32,1.33-.14,2.59.56,3.75,3.22,5.38,4.33,11.28,4.27,17.46-.02,1.82.49,3.46,1.4,5.04,3.61,6.23,7.52,12.3,10.63,18.79,2.13,4.45,5.57,7.35,9.88,9.4,1.35.64,2.75,1.11,4.51.99-1.34-2.04-2.55-3.79-3.65-5.6-4.23-6.93-3.81-12.73,1.3-19.08,1.97-2.45,4.34-4.48,6.66-6.74Zm23.19,54.33c-.13-.64-.21-1.03-.28-1.42-.82-4.43,2.65-7.67,7.02-6.57,2.92.74,5.21,2.44,6.38,5.16.92,2.14,2.48,3.33,4.33,4.42.83.49,1.17.53,1.56-.56,4.97-14.15,8.43-28.62,9.72-43.59.06-.66.08-1.32.15-2.48-1.55,2.82-2.83,5.14-4.1,7.46-4.02,7.34-10.23,12.18-17.96,14.93-8.56,3.05-17.48,4.33-26.59,4.04-2.32-.07-4.64-.23-7.42-.36,8.18,8.03,16.17,15.45,27.19,18.97Zm37.98,43.62c-2.46-3.17-4.68-5.99-6.85-8.85-.66-.87-1.22-1.92-.13-2.82,1.12-.93,1.97-.14,2.67.74,3.05,3.83,6.09,7.66,9.12,11.5,1.89,2.4,7.12,3.86,10.23,2.75-.3-.32-.56-.63-.84-.91-2.98-2.87-6.23-5.4-9.41-8.03-1.09-.9-2.25-1.73-3.07-2.91-.43-.61-.66-1.29-.07-1.94.59-.65,1.31-.78,2.07-.32.5.3.99.64,1.45,1.01,4.83,3.87,9.54,7.89,13.9,12.28,1.07,1.08,2.25,1.32,3.86,1.04-.51-.64-.88-1.16-1.3-1.64-6.07-6.92-12.51-13.47-19.17-19.82-8.49-8.09-16.71-16.48-26.99-22.42-1.46-.84-2.44-2.15-3.08-3.76-.76-1.93-2.07-3.42-4.15-4.07-1-.31-1.99-.49-2.74.5-.73.96-.64,1.96-.07,2.98.9,1.63,2.23,2.89,3.63,4.07.57.48.86,1.04,1.1,1.74,2.93,8.55,4.64,17.41,6.77,26.17.24.96.73,1.71,1.39,2.41,2.63,2.78,6.09,4.41,9.16,6.58.25.18.6.42,1-.09-1.19-2.17-2.42-4.38-3.6-6.61-.51-.96-1.01-2.05.2-2.82,1.26-.8,1.97.15,2.52,1.11,1.46,2.56,3.04,5.07,4.27,7.74,1.59,3.45,4.47,4.15,8.14,4.38Zm-7.85-115.25c.05-3.56-.35-6.63-.78-9.7-.16-1.12-.36-1.73-1.79-1.63-2.19.16-4.36-2.04-4.64-4.32-.23-1.88.74-3.01,3.24-3.61.57-.14.9-.27.69-.89-.88-2.62-1.51-5.35-3.66-7.35-.78-.72-1.27-1.13-2.21-.02-1.35,1.6-3.56,1.57-5.27.24-1.6-1.25-2.17-3.39-.98-5.04.93-1.3.27-1.68-.66-2.22-3.22-1.88-6.98-1.97-10.63-3.52,1.05,4.41,2.22,8.4,4.08,12.17,2.19,4.42,4.89,8.66,5.38,13.75.09.99.87.81,1.45.92,3.56.68,6.72,2.17,9.44,4.57,2.19,1.93,4.36,3.89,6.32,6.65Zm3.33-8.13c.71.97,1.3,1.74,2.49,1.75,6.07.06,7.41-1.1,8.12-7.08.17-1.39-.21-2.5-1.21-3.51-2.7-2.76-5.99-4.53-9.58-5.8-.77-.27-1.63-.96-2.45-.09-.76.82-.76,1.78-.43,2.81,1.1,3.37,1.87,6.81,2.48,10.29.11.65.25,1.27.57,1.64Zm27.46,38.67c.88-.78,1.64-1.61,1.84-2.64.51-2.54.92-5.11,1.22-7.69.16-1.39-.77-2.03-2.15-1.63-2.32.67-4.61,1.45-6.95,2.06-1.02.26-1.56.83-2.09,1.68-1.8,2.88-1.69,6.21-2.35,9.36-.17.82.26.89.89.79,1.81-.27,3.62-.52,5.43-.78,1.46-.21,2.87-.6,4.16-1.14Zm28.7-12.58c-1.97-1.78-3.82-3.59-5.83-5.21-.97-.78-4.24.35-4.39,1.4-.44,3.21-.87,6.42-1.17,9.65-.15,1.57.86,2.3,2.33,1.8,2.56-.87,5.11-1.79,7.63-2.77,1.87-.73,2.54-3.26,1.42-4.87Zm-31.4-11.37c-2.81,1.46-3.93,3.24-4.36,5.5-.25,1.33-.48,2.67-.82,3.98-.32,1.24.09,1.45,1.2,1.09,3.19-1.04,6.38-2.06,9.58-3.05.63-.19,1.06-.42,1.08-1.16.07-2.47.16-4.94.25-7.41.02-.46-.03-.91-.63-.74-2.38.65-4.75,1.35-6.3,1.79Zm11.93,9.77c-1.28.69-2.1,1.73-2.34,3.16-.45,2.73-.85,5.47-1.28,8.21-.15.93.5,1.29,1.18,1.48,1.84.52,5.94-1.39,6.43-3.17.83-3.01,1.24-6.12,1.51-9.24.09-.99-.41-1.97-1.68-1.72-1.32.26-2.66.54-3.81,1.28Zm-19.47,20.22c-.91.28-1.24.95-1.37,1.85-.29,1.98-.68,3.96-1.02,5.93-.07.4-.25.82-.02,1.21.58,1.01,5.18,1.1,5.7,0,1.36-2.85,3.42-5.05,5.88-6.96.85-.66,1.04-1.64.62-2.7-.44-1.12-1.29-.99-2.21-.85-1.69.26-3.38.51-5.08.72-.88.11-1.76.19-2.48.78Zm-14.7,15.03c-1.17.58-1.74,1.51-1.98,2.77-.24,1.27-.57,2.55-1.05,3.74-.68,1.66.16,2.63,1.39,3.36,1.71,1.01,6.07-.53,6.73-2.43.68-1.94,1.2-3.95,1.65-5.96.22-.99-.01-2.35-1.12-2.42-1.89-.13-3.88-.07-5.62.95Zm3.12-13.92c-.7.32-1.11.91-1.3,1.71-.36,1.49-.77,2.96-1.16,4.44-.56,2.15.66,3.6,2.89,3.44q4.6-.33,5.47-4.89c.19-.98.41-1.96.52-2.96.14-1.4-.69-2.4-1.91-2.54-1.48-.17-3.07-.07-4.5.79Zm12.38-34.32c.2-.23.5-.45.66-.75,1.11-2.12,1.57-4.45,1.91-6.77.14-.94-.68-1.71-1.91-1.44-1.21.27-2.43.45-3.63.77-1.62.43-2.63,1.49-2.94,3.17-.26,1.39-.48,2.79-.8,4.17-.23.97-.09,1.74.77,2.31.89.58,1.85.92,2.8.27.98-.66,1.93-1.35,3.13-1.72Zm-58.89,82.43c1.71-.06,3.18-.1,4.64-.17,4.89-.24,4.86-.25,5.81-5.1.22-1.13-.1-1.96-.82-2.72-.92-.96-4.93-1.58-6.06-.94-.19.11-.38.3-.46.5-1.03,2.74-2.04,5.49-3.12,8.42Zm46.25-79.06c.71-.46,1.38-1.03,1.69-1.78.92-2.25,1.23-4.66,1.52-7.05.11-.9-.77-1.5-1.83-1.48-5.35.08-6.3,1.05-6.33,6.45,0,.47-.02.94.02,1.41.22,2.47,2.87,3.77,4.94,2.44Zm5.16,26.17c1.85-1.14,3.2-3.55,3.62-6.18.55-3.47-.26-4.29-3.67-3.74-.29.05-.58.15-.87.13-1.6-.08-2.08.82-2.24,2.25-.2,1.75-.57,3.48-.9,5.22-.58,3.01.04,3.59,3.05,2.79.44-.12.85-.39,1.03-.48Zm1.82-23.68c-2.07,1.26-3.83,7.21-2.94,9.11.34.73.95,1.01,1.71,1.01,2.47,0,4.23-1.27,4.89-3.7.45-1.65.75-3.33,1.12-5,.27-1.22-.38-1.91-1.46-1.91-1.21,0-2.43.35-3.32.49Zm-8.62,10.05c.78-.45,1.29-.81,1.42-1.53.3-1.67.65-3.34.96-5.01.2-1.06-.49-1.7-1.29-2.07-1.78-.82-4.89.99-5.01,2.94-.13,2.16-.08,4.34-.13,6.51-.02.77.34.98.98.69,1.11-.51,2.19-1.08,3.07-1.51Zm-86.65-46.94c.44-.12.49-.5.63-.8,3.78-7.81,7.15-15.78,9.94-24,.38-1.11.65-2.27.95-3.4.21-.8.08-1.53-.52-2.12-.27-.26-.39-.87-.89-.67-.25.1-.42.54-.52.86-.82,2.52-1.6,5.05-2.04,7.69-1.11,6.61-2.7,13.05-7.06,18.44-.94,1.16-1.51,2.52-.49,4Zm125.76,36.09c-2.35-1.58-4.42-3.41-6.6-5.09-.8-.61-1.17.29-1.18,1.09-.02,1.88-.02,3.76-.09,5.64-.04,1.12.54,1.57,1.54,1.74,2.07.35,3.94-.45,5.81-1.09,1.1-.38.59-1.45.52-2.28Zm-18.78-6.37c.27.6.83.79,1.64.54,1.68-.53,3.38-.97,5.04-1.53,1.34-.44,1.46-1.31.34-2.26-1.03-.87-2.1-1.69-3.16-2.52-2.1-1.65-2.02-1.59-3.6.57-1.22,1.67-1.33,3.28-.27,5.21Zm-108.53-37.45c.76-.28.91-.9,1.2-1.38,1.88-3.11,2.9-6.55,3.79-10.04.11-.43.48-1.03-.02-1.28-.42-.21-1.05-.03-1.47.37-1.62,1.53-3.25,3.06-4.46,4.95-.34.54-.72,1.14-.54,1.81.47,1.85.99,3.69,1.5,5.56Zm85.04,68.97c.59-.86,1.84-1.34,2.11-2.56.44-2.01.77-4.04,1.13-6.06.06-.36.28-.8-.37-.97-1.4-.37-4.21,1.46-4.37,2.94-.2,1.87-.37,3.74-.5,5.62-.04.55-.46,1.28.13,1.64.65.4,1.17-.34,1.87-.6Zm13.81,23.87c2.24-1.47,3.47-3.08,4.08-5.31.4-1.47-.21-2.28-1.69-2.22-.76.03-1.52.14-2.28.18-.53.03-.85.2-.99.77-.51,2.05-1.06,4.09-1.6,6.13-.11.43-.11.81.31,1.08.37.24.75.31,1.14.03.34-.24.69-.45,1.03-.68Zm-58.51,27.18c.96-1.68,1.32-3.41,1.97-5.03.21-.53-.13-.86-.45-1.23-1.46-1.72-4.17-2.14-7.26-1.03,1.81,2.47,3.6,4.93,5.74,7.3Zm-24.36-34.17c2.09,3.95,4.45,7.29,6.83,10.62.54.76,1.89.82,2.31.36.62-.67,1.14-1.78.06-2.81-1.87-1.78-3.94-3.44-5.28-5.65-.9-1.49-2.21-1.84-3.91-2.52Zm56.25,25.06c3.57-.3,4.62-1.23,5.2-4.4.25-1.39.4-2.81.83-4.14.52-1.61-.28-1.67-1.5-1.7-.97-.03-.99.66-1.18,1.23-.96,3.01-1.92,6.01-3.36,9.01Zm-44.55-10.31c0,.84-1.42.96-.64,2.01,1.19,1.61,2.37,3.22,3.56,4.83.45.6.83.61,1.07-.16.53-1.68,1.06-3.36,1.59-5.04.25-.8-.21-1.34-.82-1.54-1.53-.51-3.09-.09-4.75-.09Zm57.81-27.47q-3.02-.4-3.47,2.33c-.36,2.14-.75,4.28-1.06,6.43-.1.71-.76,1.79-.08,2.08,1.04.44,1.43-.91,2.09-1.51.12-.11.16-.31.21-.48.77-2.94,1.54-5.89,2.32-8.85Zm-50.69,35.71c1.96,0,3.93-.04,5.9,0,.78.01,1.3-.44,1.5-1,.3-.8-.64-.79-1.05-1.12-.27-.22-.59-.39-.91-.52-1.41-.56-2.64-2.69-3.88-1.95-1.02.61-1.09,2.82-1.58,4.32-.02.05,0,.12.03.28Zm14.55,21.81c.16-.02.32-.04.47-.06-.1-1.75,2.14-3.26.37-5.16-1.71-1.84-3.83-.81-6.2-.95,2,2.3,3.68,4.23,5.36,6.17Zm28.71-33.45c.12-1.09,1.48-1.44,1.8-2.54.57-1.97,1.16-3.94,1.69-5.92.11-.41.65-1.14-.24-1.25-.61-.08-1.5-.2-1.77.73-.81,2.82-1.59,5.65-2.37,8.47-.06.21-.13.46.11.64.22.16.44.09.77-.12Zm10.05,3.37c-5.25-.43-7.17,1.14-6.62,5.35,2.18-1.76,4.32-3.49,6.62-5.35Zm15.01-74.49c.45-.37.31-.99-.03-1.57-.57-.99-2.91-2.35-3.37-2.03-.96.67-1.5,2.86-.92,3.71.53.77,2.94.78,4.32-.11Zm30.46,38.11c.03.19.06.37.09.56,2.45.1,4.91.25,7.09-1.39.27-.21.5-.49.7-.78.21-.3.29-.67.1-.99-.26-.43-.62-.14-.92-.03-2.35.87-4.7,1.75-7.05,2.63Zm-80.66,67.21c2.16-.96,3.05-2.6,3.55-4.41.38-1.38.78-2.57,2.48-2.78-3.13-.52-3.9.39-6.03,7.2Zm68.62-63.33c-6.31,1.19-5.39.63-5.68,3.36,2.23-.62,3.9-2.11,5.68-3.36Zm-64.26,49.46c-.35,1.17-.96,1.99-.66,2.89.1.3,1.1.23,1.24-.08.4-.9-.22-1.69-.58-2.82Z"/><path class="cls-7" d="m235.74,193.98c4.18,6.47,3.9,13.25,1.27,20.16-.41,1.08-1.24,1.87-2.48,1.41-1.26-.46-1.28-1.55-.87-2.67,1.13-3.01,1.82-6.09,1.62-9.35-.23-3.76-1.65-6.97-4.12-9.74-4.5-5.04-10.13-5.01-15.79-2.12-5.64,2.87-8.47,7.51-7.91,13.98.09,1.07-.02,2.15-1.35,2.27-1.39.13-1.75-.93-1.91-2.07-.99-6.94,3.11-14.16,9.67-17.42,3.05-1.51,6.2-2.22,9.54-2.23,4.87-.01,8.25,2.74,11.24,6.16.42.48.72,1.08,1.08,1.62Z"/><path class="cls-7" d="m218.88,196.28c3.81-2.79,7.66-2.14,10.57,1.79,2.72,3.68,1.94,9.46-1.64,12.06-4.05,2.96-8.72,2.29-11.62-1.67-2.49-3.4-3.28-8.33,2.69-12.19Zm5.19,4.09c-.53-.73-1.34-.48-1.96-.06-.64.44-.89,1.2-.47,1.84.43.65,1.2.36,1.75.06.7-.38,1.34-.97.68-1.84Z"/><path class="cls-7" d="m204.09,236.29c-.35-.56-.71-1.09-.69-1.79.02-.73.37-1.23,1.03-1.5.61-.25,1.24-.2,1.58.37,2.51,4.24,6.64,4.1,10.75,3.99,1.29-.03,2.57-.24,3.86-.29,1.18-.05,2.19.39,2.24,1.7.05,1.26-.93,1.64-2.02,1.74-3.52.32-7.04.59-10.53-.23-2.55-.59-4.69-1.81-6.21-4Z"/><path class="cls-7" d="m211.27,218.1c-.52-.76-.66-1.54.08-2.22.71-.66,1.56-.62,2.23.02,1.47,1.38,3.14,2.45,4.92,3.36.83.43,1.18,1.17.78,2.07-.37.83-1.11.97-1.93.83-1.47-.26-5.25-2.78-6.07-4.06Z"/><path class="cls-7" d="m240.24,217.75c-.55-.97-.73-2.02.41-2.87.98-.72,2.58-.4,3.12.63.58,1.12.48,2.27-.58,3.02-1.09.77-2.13.45-2.95-.78Z"/><path class="cls-7" d="m208.8,185.65c.76,1.16.5,2.72-.53,3.39-1.08.7-2.04.44-2.78-.54-.75-1.01-.37-2.42.78-3.23,1.03-.72,1.86-.49,2.53.37Z"/><path class="cls-7" d="m245.06,224.02c.39.77.38,1.51-.35,2.03-.77.55-1.56.47-2.15-.32-.59-.79-.5-1.56.32-2.11.81-.54,1.55-.28,2.18.4Z"/><path class="cls-7" d="m227.16,238.55c-.87.52-1.67.45-2.27-.42-.52-.76-.28-1.51.43-1.98.83-.55,1.68-.49,2.28.41.51.77.27,1.43-.44,1.99Z"/><path class="cls-7" d="m210.37,213.94c-.89.49-1.56.36-2.08-.38-.53-.75-.43-1.47.29-1.99.79-.56,1.55-.44,2.09.42.49.78.26,1.43-.3,1.94Z"/><path class="cls-7" d="m232.9,217.46c.48.81.33,1.5-.41,1.99-.74.49-1.45.39-1.96-.39-.53-.82-.42-1.57.43-2.09.78-.48,1.44-.21,1.94.49Z"/><path class="cls-7" d="m226.03,221.24c.49.85.44,1.55-.32,2.08-.76.53-1.47.37-1.98-.39-.46-.69-.38-1.35.31-1.86.74-.54,1.42-.42,2,.17Z"/><path class="cls-7" d="m249.37,264.66c-.57.4-1.23.4-1.87.36-7.41-.45-14.8-1.06-22.01-3.01-.68-.18-1.37-.38-2.01-.66-.84-.36-1.35-1.04-1.06-1.97.29-.93,1.08-1.23,1.98-1.04,1.09.22,2.16.57,3.25.83,6.22,1.48,12.56,1.9,18.92,2.26.88.05,1.77.07,2.6.44.57.25.93.69,1.01,1.35.08.69-.27,1.11-.8,1.44Z"/><path class="cls-7" d="m225.91,265.62c.46-.34.99-.38,1.52-.27,3.31.65,6.67.78,10.01,1.1.29.03.59.07.87.14.91.24,1.73.62,1.62,1.75-.11,1.1-.93,1.49-1.89,1.44-2-.1-4-.28-5.99-.47-1.82-.18-3.64-.36-5.41-.86-.74-.21-1.25-.7-1.36-1.47-.08-.55.12-1.05.63-1.36Z"/><path class="cls-7" d="m253.84,235.22c.91-.59,2.43-.32,3.23.99.74,1.21.53,2.26-.66,3.04-1.17.77-3.15.33-3.97-.84-.96-1.37-.09-2.16,1.4-3.2Z"/><path class="cls-7" d="m265.14,233.01c.47.8.41,1.56-.39,2.12-.82.58-1.57.34-2.08-.46-.5-.79-.43-1.61.36-2.15.8-.55,1.54-.34,2.11.5Z"/><path class="cls-7" d="m257.8,227.77c.84-.55,1.56-.43,2.1.26.54.69.53,1.45-.22,2.01-.77.58-1.57.51-2.15-.3-.52-.73-.36-1.44.26-1.96Z"/><path class="cls-7" d="m265.24,244.73c.44.73.35,1.4-.34,1.86-.68.46-1.37.33-1.84-.37-.47-.69-.38-1.35.34-1.83.71-.48,1.33-.32,1.84.34Z"/><path class="cls-7" d="m184.97,205.08c2.37,4.74,4.47,9.86,5.62,15.31,1.2,5.65,2.52,11.26,4.41,16.72.21.6.34,1.26.36,1.89.02.71-.41,1.23-1.08,1.46-.68.24-1.31.08-1.73-.51-.37-.52-.73-1.09-.93-1.69-1.56-4.69-3.01-9.41-3.84-14.31-1.04-6.14-3.04-11.98-5.81-17.55-.5-1.01-.78-1.99.3-2.63,1.19-.71,1.98.09,2.7,1.32Z"/><path class="cls-7" d="m203.51,268.91c-.47-.79-.6-1.68-.6-2.55.03-4.24-.11-8.48.39-12.71.14-1.18.54-2.21,1.88-2.05,1.22.15,1.44,1.24,1.36,2.32-.33,4.64-.46,9.29,0,13.93.09.94-.35,1.61-1.26,1.88-.79.23-1.36-.15-1.78-.82Z"/><path class="cls-7" d="m201.85,248.2c.51.81.49,1.58-.34,2.14-.91.62-1.72.26-2.24-.56-.48-.75-.51-1.57.36-2.15.94-.62,1.65-.26,2.22.57Z"/><path class="cls-7" d="m197.84,244.17c.36.73.17,1.38-.51,1.79-.67.41-1.39.31-1.83-.4-.48-.78-.26-1.48.52-1.92.72-.4,1.35-.19,1.81.52Z"/><path class="cls-7" d="m240.04,288.27c-4.56.8-9.42,1.63-14.38.97-.76-.1-1.19-.8-1.14-1.58.05-.89.64-1.43,1.51-1.42,4.43.07,8.79-.52,13.16-1.19.87-.13,1.64.18,1.98,1.1.34.9-.2,1.44-1.13,2.12Z"/><path class="cls-7" d="m260.78,277.97c-.49.32-.96.69-1.47.95-.65.33-1.28.19-1.74-.39-.5-.63-.54-1.29.01-1.93.98-1.13,2.15-2.01,3.43-2.76.68-.4,1.38-.36,1.9.32.49.63.49,1.29,0,1.95-.58.77-1.36,1.3-2.12,1.86Z"/><path class="cls-7" d="m261.21,282.62c.55.79.45,1.48-.27,2.02-.82.61-1.67.6-2.3-.24-.59-.79-.36-1.58.45-2.1.78-.51,1.54-.43,2.12.32Z"/><path class="cls-7" d="m253.81,280.49c.46.95.22,1.67-.51,2.09-.79.46-1.62.37-2.15-.47-.54-.86-.29-1.59.57-2.06.87-.48,1.56-.14,2.09.45Z"/><path class="cls-7" d="m245.67,283.53c.76-.43,1.46-.36,1.96.41.5.76.34,1.46-.42,1.95-.76.49-1.46.34-1.97-.4-.52-.76-.33-1.43.43-1.96Z"/><path class="cls-7" d="m267.51,317.58c.43.75.6,1.42.05,2.06-.59.68-1.32.72-2.08.3-.36-.2-.71-.43-1.01-.71-2.81-2.51-5.62-5.02-8.41-7.55-.82-.75-1.57-1.65-.6-2.71.97-1.05,1.94-.41,2.78.33,2.83,2.48,5.65,4.98,8.47,7.48.31.27.58.58.8.8Z"/><path class="cls-7" d="m260.32,319.76c.57.82,1.19,1.6,1.52,2.57.26.77.16,1.39-.54,1.84-.62.4-1.24.36-1.77-.15-1.5-1.44-2.53-3.23-3.59-4.99-.38-.64-.19-1.39.5-1.86.74-.51,1.48-.44,2.06.22.66.75,1.22,1.58,1.83,2.37Z"/><path class="cls-7" d="m273.59,323.34c.49.86.45,1.65-.38,2.17-.81.5-1.56.26-2.09-.55-.54-.83-.42-1.56.4-2.1.85-.55,1.54-.23,2.07.48Z"/><path class="cls-7" d="m278.65,328.03c.41.73.18,1.42-.56,1.85-.74.43-1.46.29-1.94-.5-.5-.81-.23-1.49.5-1.92.75-.44,1.45-.29,2,.56Z"/><path class="cls-7" d="m251.21,200.32c-1.16.62-2.08.21-2.71-.77-.55-.85-.37-1.74.56-2.24.98-.54,2-.41,2.63.56.57.88.43,1.78-.47,2.45Z"/><path class="cls-7" d="m257.7,212.23c-.94.5-1.76.31-2.29-.57-.58-.97-.26-1.82.69-2.38.84-.49,1.66-.31,2.14.5.55.91.38,1.8-.54,2.45Z"/><path class="cls-7" d="m33.13,73.17l-.12.49v.37l.08.53.03.02-.03.41v.53l.05.41-.31.42-.42.07-.42-.1-.25-.29v-.32l-.1-.42v-.73l.07-.34v-.19l-.05-.12.05-.8-.07-.41v-.61l.07-.36.05-.56-.12-.27.1-.36-.07-.63v-.99l.03-.44-.08-.12.08-.37v-.88l.68-.27.12.07h.39l.15.12.05.46-.07.41.07.32v.34l-.05.19.1.46-.07.48.03.05-.08.73-.08.36.02.12.12.14.39-.14h1.65l.14.05.42-.03.53.12.15-.05.08-.19-.05-.54-.07-.85-.03-.39v-.77l.22-.71v-.58l.19-.15h.31l.1.08.44.05.25.53-.07.53.05.49-.05.53-.02.1v.32l.07.25.03.51-.05.51v.41l-.07.41.03.41-.07.34.08.42.08.1-.07.58-.08.15.05.49-.03.36.08.66-.05.29-.03.08v.7l-.2.22-.6.05-.25-.14-.36-.25v-.31l.05-.39.08-.08-.07-.63v-.49l-.14-.31.15-.46-.07-.27v-.32l.07-.25.03-.34-.17-.17-.61.15h-1.28l-.76.05-.27-.14-.24.07-.05.15v.19l.14.29-.03.41Z"/><path class="cls-7" d="m45.23,68.87h.46l.48.14.31.12.42.27.34.12v.05l.41.39.2.37.25.27.27.48.05.41v.39l.1.42-.03.46-.14,1.39-.1.22-.29.71-.32.39-.53.49-.34.17-.53.24-.65.07-.27.1h-.51l-.58.07-.61-.19-.17-.15-.37-.08-.15-.12-.34-.19-.05-.14-.54-.44-.15-.27-.17-.17-.15-.49-.14-.7-.17-.31.03-.53.1-.61-.08-.41.41-.93.07-.22.2-.44.17-.2.34-.46.34-.14.17-.12.31-.07.36-.22.08-.12h.46l-.03.02.59-.08h.2l.29.03Zm-.68,1.09l-.39.08-.22.1-.42.15-.29.31-.39.7-.12.36.03.54-.1.49.08.39.03.56.07.32-.02.1.29.49.05.15.34.29.51.32.22.08.44.03v.03l.66-.12h.37l.12-.1.34-.14.17-.02.34-.44.19-.37.19-.48-.08-.19.08-.17.17-.87-.25-1.12-.1-.17-.07-.42-.39-.46-.36-.2-.48-.08-.42-.14-.24-.03h-.36Z"/><path class="cls-7" d="m58.66,69.84l-.07.42-.19.37-.32.39v.49l-.22.27-.24.63-.08.1-.32.76-.37.59-.19.75-.02.19-.27.46-.24.46-.15.37-.29.22-.54.08h-.49l-.41-.31-.1-.36-.15-.25-.22-.24-.15-.49.02-.19-.19-.37-.37-.61-.1-.41-.24-.27-.07-.46-.19-.37-.1-.03-.08-.43-.2-.66-.31-.46-.05-.2-.19-.34-.07-.34-.12-.32.31-.25.25-.03.58.14.41.53.12.41.17.26v.2l.25.49-.03.1.17.32.42.92.07.27.2.31.1.46.14.48.31.65-.03.08.22.56.05.25h.2l-.02-.15.12-.54.15-.41.05-.27.29-.39.22-.87.29-.49-.03-.2.42-.66.1-.41v-.14l.22-.39.19-.6.08-.1.31-.56.15-.14.54-.1.39.14.17.15-.08.34-.17.2Z"/><path class="cls-7" d="m63.2,73.78l.03.27.15.32.12.03.22.48.36.24.1.1,1.22.27h.46l.56-.19.07-.15.51-.14.51-.66.1-.03.31-.29h.36l.12.05.27.05.1.31-.07.27-.27.63-.37.24-.25.27-.56.37-.32.12h-.15l-.29.14-.7.15h-.34l-.75-.14h-.34l-.27-.05-.39-.19-.41-.19-.44-.22-.22-.41-.32-.27-.07-.22-.22-.42-.15-.07-.05-.58.03-.34-.17-.88.08-.37v-.7l.14-.32.02-.19.27-.41.2-.44.15-.22.08-.02.24-.39.41-.22.73-.34.34-.08.17-.1.48-.1.44.07.17.08.24-.08.36.1.15.12.44.08.32.15.22.07.24.17.7.68.24.39.1.39.1.22.12.51-.03.12.1.58-.12.24-.36.22h-.31l-.2.07-.39-.05-.25.05-.51-.03-.19.07-.41-.12-.73.1-.37-.07-.31.14-.48-.07-.15.08-.68-.08-.22-.1-.31-.07-.1.15.34.7.05.15Zm4.27-2.36l-.27-.51-.31-.41-.56-.43-.85-.14h-.29l-.2-.05-.39.12-.85.42-.19.29-.2.24-.05.2-.19.41-.15.2-.05.27.17.07.39-.15.49.03.46-.03.61-.07.56.05.58.07.44-.05.31-.08.73.24.12-.15-.08-.2-.22-.34Z"/><path class="cls-7" d="m78.83,75.89l-.12.43-.8.12h-.76l-.53-.1-.42.08h-.65l-.68-.02h-.73l-.44-.07-.37.08h-.65l-.27-.08-.14-.24.02-.24v-.43l.29-.15h.34l.22-.05h.56l.34.08.17.12.31-.14-.22-.15-.08-.53v-.37l-.07-.61v-.63l.08-.68-.1-.53.07-.42-.07-.07.14-.44.03-.44.17-.34-.25-.05-.29.1-.61.08-.41-.07-.54-.17-.12-.41.15-.31.42-.24h.41l.14-.07.87.08h.54l.51.14.08.31-.02.1v.66l-.08.42.27-.27.1-.32.15-.1.24-.39.29-.24.24-.14.14-.19.82-.15.19.03.63-.05.65.19.2.17v.88l-.2.2h-.73l-.36-.03-.54.05h-.34l-.24.12-.29.03-.29.32-.53.44-.25.02-.1.19.22.17.03.31.08.29-.15.85.1.53-.08.37.1.88-.1.32.15.24.49-.17.37.1.49-.07.37.03.46-.08.44.03.41.17.07.41.07.07Z"/><path class="cls-7" d="m96.23,68.87h.46l.48.14.31.12.42.27.34.12v.05l.41.39.2.37.25.27.27.48.05.41v.39l.1.42-.03.46-.14,1.39-.1.22-.29.71-.32.39-.53.49-.34.17-.53.24-.65.07-.27.1h-.51l-.58.07-.61-.19-.17-.15-.37-.08-.15-.12-.34-.19-.05-.14-.54-.44-.15-.27-.17-.17-.15-.49-.14-.7-.17-.31.03-.53.1-.61-.08-.41.41-.93.07-.22.2-.44.17-.2.34-.46.34-.14.17-.12.31-.07.36-.22.08-.12h.46l-.03.02.59-.08h.2l.29.03Zm-.68,1.09l-.39.08-.22.1-.42.15-.29.31-.39.7-.12.36.03.54-.1.49.08.39.03.56.07.32-.02.1.29.49.05.15.34.29.51.32.22.08.44.03v.03l.66-.12h.37l.12-.1.34-.14.17-.02.34-.44.19-.37.19-.48-.08-.19.08-.17.17-.87-.25-1.12-.1-.17-.07-.42-.39-.46-.36-.2-.48-.08-.42-.14-.24-.03h-.36Z"/><path class="cls-7" d="m109.66,69.84l-.07.42-.19.37-.32.39v.49l-.22.27-.24.63-.08.1-.32.76-.37.59-.19.75-.02.19-.27.46-.24.46-.15.37-.29.22-.54.08h-.49l-.41-.31-.1-.36-.15-.25-.22-.24-.15-.49.02-.19-.19-.37-.37-.61-.1-.41-.24-.27-.07-.46-.19-.37-.1-.03-.08-.43-.2-.66-.31-.46-.05-.2-.19-.34-.07-.34-.12-.32.31-.25.26-.03.58.14.41.53.12.41.17.26v.2l.25.49-.03.1.17.32.42.92.07.27.2.31.1.46.14.48.31.65-.03.08.22.56.05.25h.2l-.02-.15.12-.54.15-.41.05-.27.29-.39.22-.87.29-.49-.03-.2.42-.66.1-.41v-.14l.22-.39.19-.6.09-.1.31-.56.15-.14.54-.1.39.14.17.15-.08.34-.17.2Z"/><path class="cls-7" d="m114.2,73.78l.03.27.15.32.12.03.22.48.36.24.1.1,1.22.27h.46l.56-.19.07-.15.51-.14.51-.66.1-.03.31-.29h.36l.12.05.27.05.1.31-.07.27-.27.63-.37.24-.25.27-.56.37-.32.12h-.15l-.29.14-.7.15h-.34l-.75-.14h-.34l-.27-.05-.39-.19-.41-.19-.44-.22-.22-.41-.32-.27-.07-.22-.22-.42-.15-.07-.05-.58.03-.34-.17-.88.08-.37v-.7l.14-.32.02-.19.27-.41.2-.44.15-.22.08-.02.24-.39.41-.22.73-.34.34-.08.17-.1.48-.1.44.07.17.08.24-.08.36.1.15.12.44.08.32.15.22.07.24.17.7.68.24.39.1.39.1.22.12.51-.03.12.1.58-.12.24-.36.22h-.31l-.2.07-.39-.05-.25.05-.51-.03-.19.07-.41-.12-.73.1-.37-.07-.31.14-.48-.07-.15.08-.68-.08-.22-.1-.31-.07-.1.15.34.7.05.15Zm4.27-2.36l-.27-.51-.31-.41-.56-.43-.85-.14h-.29l-.2-.05-.39.12-.85.42-.19.29-.2.24-.05.2-.19.41-.15.2-.05.27.17.07.39-.15.49.03.46-.03.61-.07.56.05.58.07.44-.05.31-.08.73.24.12-.15-.08-.2-.22-.34Z"/><path class="cls-7" d="m129.83,75.89l-.12.43-.8.12h-.76l-.53-.1-.42.08h-.65l-.68-.02h-.73l-.44-.07-.37.08h-.65l-.27-.08-.14-.24.02-.24v-.43l.29-.15h.34l.22-.05h.56l.34.08.17.12.31-.14-.22-.15-.08-.53v-.37l-.07-.61v-.63l.08-.68-.1-.53.07-.42-.07-.07.14-.44.03-.44.17-.34-.25-.05-.29.1-.61.08-.41-.07-.54-.17-.12-.41.15-.31.42-.24h.41l.14-.07.87.08h.54l.51.14.08.31-.02.1v.66l-.08.42.27-.27.1-.32.15-.1.24-.39.29-.24.24-.14.14-.19.82-.15.19.03.63-.05.65.19.2.17v.88l-.2.2h-.73l-.36-.03-.54.05h-.34l-.24.12-.29.03-.29.32-.53.44-.25.02-.1.19.22.17.03.31.08.29-.15.85.1.53-.09.37.1.88-.1.32.15.24.49-.17.37.1.49-.07.37.03.46-.08.44.03.41.17.07.41.07.07Z"/><path class="cls-7" d="m37.09,92.57l-.32-.08-.53.14-.76-.07-.68-.12-.59-.22-.24-.2-.19-.31-.29-.27-.27-.8v-2.38l.05-.2-.1-.43.08-.17-.12-.34.14-.27-.03-.51.19-.19-.15-.2-.34.15-.44.05-.42-.05-.27.05-.17-.02-.8-.05-.1-.24-.05-.37.05-.34.2-.1.36.03h.78l.22-.03h.66l.31.17.19-.17-.2-.29-.05-.54v-.49l.07-.39-.08-.48.12-.39-.07-.37v-.43l.54-.07h.54l.2.17.03.42-.08.44.05.41v1.5l-.2.41.15.2.27-.08.95-.08.32.05.19-.05.58.12.36-.12.49.07h.2l.24.24.05.14.03.42-.2.17-.85.12-.17.08-.41-.14-.75.15-.42-.05-.27.03-.54-.31-.15.22.19.63v.44l-.05.24v.76l-.05.14.12.48-.1.73v.22l.2.94.07.12.19.17.24.32.25.02.25.12.68-.05.34.05.36-.07.34-.15.39.05.17.51-.12.31-.03.17-.39.17-.32.15Z"/><path class="cls-7" d="m43.23,87.64l-.05.15.05.44.1.07-.17.8.07.29-.02.25.1.24-.12.53.07.25-.08.2.03.34v.66l-.03.19-.15.29-.44.08-.58-.1-.1-.32-.02-.25-.07-.25.07-.93.05-.24-.05-.32.03-.36v-.73l-.1-.27.14-.49-.12-.32.1-.25-.08-.49.08-.27.03-.48-.12-.41-.05-.37.15-.41v-.59l-.08-.76v-1.73l.19-.48.37-.03h.34l.42.31.03.39-.03.22.03.46v1l-.05.08.1.54-.12.65-.07.6.15.07.14-.27.58-.44.22-.12.37.05.6-.22h.82l.31.03.65.34.34.24.42.61.17.49.07.99-.02.27.05.68-.03.42.05.27-.07.31.08.48-.08.37v.59l.12.49-.1.34.05.22-.07.41h-.82l-.29-.05-.15-.24-.1-.42.05-.2.05-.78-.05-.2v-.51l-.08-.46.08-.54v-.65l-.07-.08.08-.68-.14-.39v-.44l-.51-.59-.49-.14-.37-.17-.53.17-.22.02-.34.2-.42.14-.1.07h-.2l-.19.15.05.27.15.32-.07.44Z"/><path class="cls-7" d="m53,89.78l.03.27.15.32.12.03.22.48.36.24.1.1,1.22.27h.46l.56-.19.07-.15.51-.14.51-.66.1-.03.31-.29h.36l.12.05.27.05.1.31-.07.27-.27.63-.37.24-.25.27-.56.37-.32.12h-.15l-.29.14-.7.15h-.34l-.75-.14h-.34l-.27-.05-.39-.19-.41-.19-.44-.22-.22-.41-.32-.27-.07-.22-.22-.42-.15-.07-.05-.58.03-.34-.17-.88.08-.37v-.7l.14-.32.02-.19.27-.41.2-.44.15-.22.08-.02.24-.39.41-.22.73-.34.34-.08.17-.1.48-.1.44.07.17.08.24-.08.36.1.15.12.44.08.32.15.22.07.24.17.7.68.24.39.1.39.1.22.12.51-.03.12.1.58-.12.24-.36.22h-.31l-.2.07-.39-.05-.25.05-.51-.03-.19.07-.41-.12-.73.1-.37-.07-.31.14-.48-.07-.15.08-.68-.08-.22-.1-.31-.07-.1.15.34.7.05.15Zm4.27-2.36l-.27-.51-.31-.41-.56-.43-.85-.14h-.29l-.2-.05-.39.12-.85.42-.19.29-.2.24-.05.2-.19.41-.15.2-.05.27.17.07.39-.15.49.03.46-.03.61-.07.56.05.58.07.44-.05.31-.08.73.24.12-.15-.08-.2-.22-.34Z"/><path class="cls-7" d="m78.74,92.02l.03.12-.19.22-.39.05-.25-.08-.34.03h-.82l-.27.08-.27-.05-.78.07-.73-.08h-.36l-.34.08-.22-.03-.65-.05-.32.08-.34-.03-.24-.27.03-.48.17-.24.75-.19h.41l.29.03h.37l.53.07.15-.03.14-.12-.14-.31-.03-.2.03-.42-.07-.32.1-.32-.07-.31v-.76l.07-.51-.07-.63.05-.32-.03-.41.12-.32v-.25l-.1-.12-.31.05-.34.1-.32.05-.37-.08-.24.05h-.78l-.25-.07-.03-.51-.07-.31.31-.29.25-.03.51.1.2-.05h.78l.02.02h.54l.12-.12.58.08.1-.05.59.12.12.85-.07.49-.05.73.05.37v.88l-.05.07.05.65-.05.15.12.7-.08.49v.46l-.08.25.2.15.24.05.39-.08h.51l.73-.05.32.05.12.14.07.41-.05.2Zm-2.24-9.71l-.12.37-.1.46-.31.1-.31.05-.54-.12-.2-.14-.1-.25-.03-.36.03-.05v-.32l.2-.34.27-.17h.7l.51.34v.42Z"/><path class="cls-7" d="m82.96,87.65l.08.46v1.38l-.03.32.12.58-.08.41-.03.51.12.27-.19.59-.1.14-.48.17-.24-.07-.37-.32.05-.31-.03-.25v-.88l.08-.03-.08-1.09.07-.07-.08-.61.03-.22-.03-.32.08-.25-.07-.27v-1.22l-.07-.17.1-.59v-.44l-.08-.07.51-.37.66.2-.1.46.12.31.2-.34.25-.19.17-.17.24-.07.51-.24.37-.1.61.2.48.32.19.19.12.24.07.34.2-.02.15-.44.14-.19.15-.07.2-.27.46-.17.53-.08h.31l.19.12.65.25.14.29.31.59.17.68-.07.66v.95l.07.6-.05.54.05.53-.14.59.05.54.12.24-.08.56-.12.2-.19.2-.44.1-.25-.1-.25-.39.08-.29-.08-.32-.07-.63.15-.34v-.32l-.14-.63.05-.59-.12-.15.14-.48-.12-.85.07-.51-.07-.43-.19-.24-.14-.12-.42-.1-.51.2-.75.27-.19.22.17.27.12.53-.05.63.05.2-.07.25.05.61-.05.15v.53l.09.51-.14.15.1.71-.1.2.03.46-.08.44-.49.14-.42-.07-.17-.49-.05-.51v-.39l-.05-.1v-.48l.1-.36-.02-.19-.07-.87.08-.27-.05-.71.08-.66-.12-.42-.05-.37-.08-.2-.17-.2-.24-.15-.19.03-.14-.03-.51.22-.08.07-.49.15-.19.17.19.65-.14.37Z"/><path class="cls-7" d="m99.51,92.52l-.39.03-.22-.02-.48.03-.31-.05-.32-.19-.15-.29-.08-.34-.12-.12-.31.31h-.15l-.29.27-.49.14-.27.17-.2-.02-.37.15h-.48l-.87-.08-.63-.24-.19-.14-.1-.15-.36-.19-.31-.49-.19-.65v-.73l.58-.82.05-.12.2-.22.37-.1.78-.24.17-.08h.68l.24.03h.31l.2.05.2-.02h.48l.37.1.48.2.08-.1-.07-.15-.07-.36.05-.76-.12-.25v-.29l-.22-.36-.36-.24-.31-.25-.78-.05-.66.07-.56.17-.32.36-.17.58-.15.2-.34.22h-.29l-.17-.03-.29-.12-.07-.24v-.37l.12-.24.03-.19.34-.58.48-.42.25-.14.44-.1.07-.12.76-.07h.76l.56-.08.44.12.36.15.32.08.36.31.32.34.2.36.07.19.19.49-.07.46.14.42.07.37-.07.46.08.56-.12.44v1l.03.44.12.36.36.12.48-.1.22.07.08.34-.03.41-.17.19-.22.08-.02.05Zm-5.9-1.73l.27.32v.03l.42.19.32.12h.46l.49-.03.61-.08.22-.12.29-.07.25-.12.39-.07.15-.17v-.1l-.12-.43.1-.59-.17-.24h-.41l-.42.05-.24-.12-.41.07-.03-.12-.73.17h-.34l-.76.2-.24.24-.12.54v.32Z"/><path class="cls-7" d="m108.07,85.65l-.03-.56.14-.1h.56l.39.1.07.41-.1.95.05.61v.7l.05.34-.07.51v.61l-.08.15.08.8.07.25v.7l-.08.17.03.44-.07.19.14.32-.07.46-.03.05.05.25-.03.41-.12.41-.07-.03-.19.63-.54.63-.19.07-.19.12-.29.07-.32.14-.66.17-.17.12-.68-.08-.1-.12-.56.08-.31-.03-.48-.14-.6-.27-.36-.36-.32-.39-.12-.39-.24-.43.08-.54.39-.19.34.05.51.19.05.58.22.32.12.1.27.15.32.08.46.24.37-.07h.87l.49-.25.22-.17h.05l.32-.56.05-.41-.08-.15.08-.37.1-.14.05-.46.08-.36-.17-.12-.53.56-.49.14-.65.24-.53.03-.36-.08-.42.05-.78-.32-.17-.17-.2-.1-.12-.1-.36-.43-.27-.2-.12-.56.03-.24-.25-.58-.08-.29.05-.19-.14-.71.14-.34-.03-.48.19-.58.08-.37.09-.22.1-.14.22-.48.12-.08.37-.39.22-.17.37-.22.31-.1.63-.25.49.07.24.12.29-.12.59.26.08.1.27.12.22.22.42.29.19-.15Zm-4.3,3.3l.17.63.1-.02.17.76.19.36.34.31.48.25.48.1.15-.05.41.05.54-.1.22-.1.54-.26h.29l.12-.2-.1-.19-.08-.37v-.41l.05-.22v-.46l-.07-.44v-.32l.1-.49-.1-.42.05-.32.12-.17-.03-.31-.37-.17-.7-.29-.44-.08-.53-.03-.24.07h-.42l-.46.29-.2.25-.22.1-.27.71-.17.71v.54l-.1.29Z"/><path class="cls-7" d="m114.2,89.78l.03.27.15.32.12.03.22.48.36.24.1.1,1.22.27h.46l.56-.19.07-.15.51-.14.51-.66.1-.03.31-.29h.36l.12.05.27.05.1.31-.07.27-.27.63-.37.24-.25.27-.56.37-.32.12h-.15l-.29.14-.7.15h-.34l-.75-.14h-.34l-.27-.05-.39-.19-.41-.19-.44-.22-.22-.41-.32-.27-.07-.22-.22-.42-.15-.07-.05-.58.03-.34-.17-.88.08-.37v-.7l.14-.32.02-.19.27-.41.2-.44.15-.22.08-.02.24-.39.41-.22.73-.34.34-.08.17-.1.48-.1.44.07.17.08.24-.08.36.1.15.12.44.08.32.15.22.07.24.17.7.68.24.39.1.39.1.22.12.51-.03.12.1.58-.12.24-.36.22h-.31l-.2.07-.39-.05-.25.05-.51-.03-.19.07-.41-.12-.73.1-.37-.07-.31.14-.48-.07-.15.08-.68-.08-.22-.1-.31-.07-.1.15.34.7.05.15Zm4.27-2.36l-.27-.51-.31-.41-.56-.43-.85-.14h-.29l-.2-.05-.39.12-.85.42-.19.29-.2.24-.05.2-.19.41-.15.2-.05.27.17.07.39-.15.49.03.46-.03.61-.07.56.05.58.07.44-.05.31-.08.73.24.12-.15-.08-.2-.22-.34Z"/><path class="cls-7" d="m129.95,90.32l-.07.34-.03.41-.36.48-.39.39-.88.48h-.31l-.93.15h-.92l-.24-.05-.46-.03-.25-.1h-.22l-.65-.22-.39-.39-.05-.1-.34-.37-.1-.15-.14-.46-.12-.29.02-.25.19-.12.24.02.66.05.17.15.15.34.25.39.29.2.41.1.37.15.51-.08h.44l.49.14.82-.25.27-.24.07-.24.12-.22-.03-.36-.07-.19-.51-.41-.19-.05-.1-.07-.31-.05-.68-.22-.25-.03h-.46l-.58-.17-.17-.02-.7-.34-.61-.25-.25-.27-.41-.68-.03-.51.08-.49.15-.17.2-.48.17-.22.27-.24.34-.12.1-.12.31-.09.48-.05.43-.08.27-.02.29-.1.58.12.29-.07.66.27.31.03.65.39.12.14.27.15.17.37.22.27.07.48-.05.07-.27.2-.51-.05-.53-.22-.15-.34-.49-.41-.54-.17-.22.02-.54-.1-.58.15-.7.15-.31.2-.15.25.03.19-.02.22.1.25.15.12.29.22.61.19.49.07.29.1.2-.03,1.09.31.31.03.17.14.46.07.32.25.31.15.31.41.27.65-.03.32v.02Z"/><path class="cls-7" d="m37.09,108.57l-.32-.08-.53.14-.76-.07-.68-.12-.59-.22-.24-.2-.19-.31-.29-.27-.27-.8v-2.38l.05-.2-.1-.43.08-.17-.12-.34.14-.27-.03-.51.19-.19-.15-.2-.34.15-.44.05-.42-.05-.27.05-.17-.02-.8-.05-.1-.24-.05-.37.05-.34.2-.1.36.03h.78l.22-.03h.66l.31.17.19-.17-.2-.29-.05-.54v-.49l.07-.39-.08-.48.12-.39-.07-.37v-.43l.54-.07h.54l.2.17.03.42-.08.44.05.41v1.5l-.2.41.15.2.27-.08.95-.08.32.05.19-.05.58.12.36-.12.49.07h.2l.24.24.05.14.03.42-.2.17-.85.12-.17.08-.41-.14-.75.15-.42-.05-.27.03-.54-.31-.15.22.19.63v.44l-.05.24v.76l-.05.14.12.48-.1.73v.22l.2.94.07.12.19.17.24.32.25.02.25.12.68-.05.34.05.36-.07.34-.15.39.05.17.51-.12.31-.03.17-.39.17-.32.15Z"/><path class="cls-7" d="m45.23,100.87h.46l.48.14.31.12.42.27.34.12v.05l.41.39.2.37.25.27.27.48.05.41v.39l.1.42-.03.46-.14,1.39-.1.22-.29.71-.32.39-.53.49-.34.17-.53.24-.65.07-.27.1h-.51l-.58.07-.61-.19-.17-.15-.37-.08-.15-.12-.34-.19-.05-.14-.54-.44-.15-.27-.17-.17-.15-.49-.14-.7-.17-.31.03-.53.1-.61-.08-.41.41-.93.07-.22.2-.44.17-.2.34-.46.34-.14.17-.12.31-.07.36-.22.08-.12h.46l-.03.02.59-.08h.2l.29.03Zm-.68,1.09l-.39.08-.22.1-.42.15-.29.31-.39.7-.12.36.03.54-.1.49.08.39.03.56.07.32-.02.1.29.49.05.15.34.29.51.32.22.08.44.03v.03l.66-.12h.37l.12-.1.34-.14.17-.02.34-.44.19-.37.19-.48-.08-.19.08-.17.17-.87-.25-1.12-.1-.17-.07-.42-.39-.46-.36-.2-.48-.08-.42-.14-.24-.03h-.36Z"/><path class="cls-7" d="m68.52,108.13l-.17.22-.65.07h-.82l-.08-.05-.49.03h-1.07l-.1-.08-.53.1h-.32l-.66-.02-.65-.05-.48.08-.37-.14-.1-.63.31-.37.36-.08.37.1.27-.03.15.03.7-.05.42.24.14-.22-.08-.34v-.25l-.12-.41.07-.53-.07-.12.14-.56-.03-.22v-.39l.03-.15-.03-.2v-.63l.08-.19-.08-.59.05-.22-.07-.14-.05-.6v-.41l.12-.48-.08-.34.05-.78-.07-.37.1-.31.15-.25-.14-.15-.2-.05-.44.08-.42-.05-.66.07-.59-.07-.25-.24-.03-.24.1-.43.37-.2.46.05h.37l.44.03.31-.05h1.28l.24.1.34.39-.05.32.07.39-.15.34.08.49v.56l.03.32v.61l.07.83-.08.32v.7l-.03.17.1.32-.08,1,.05.65-.1.24.08.41.07.15-.07.44-.08.71-.2.24.17.2.82-.2.29.07.46-.07.12-.07.49.03.51.24v.34l-.03.31Z"/><path class="cls-7" d="m73.4,105.78l.03.27.15.32.12.03.22.48.36.24.1.1,1.22.27h.46l.56-.19.07-.15.51-.14.51-.66.1-.03.31-.29h.36l.12.05.27.05.1.31-.07.27-.27.63-.37.24-.25.27-.56.37-.32.12h-.15l-.29.14-.7.15h-.34l-.75-.14h-.34l-.27-.05-.39-.19-.41-.19-.44-.22-.22-.41-.32-.27-.07-.22-.22-.42-.15-.07-.05-.58.03-.34-.17-.88.08-.37v-.7l.14-.32.02-.19.27-.41.2-.44.15-.22.08-.02.24-.39.41-.22.73-.34.34-.08.17-.1.48-.1.44.07.17.08.24-.08.36.1.15.12.44.08.32.15.22.07.24.17.7.68.24.39.1.39.1.22.12.51-.03.12.1.58-.12.24-.36.22h-.31l-.2.07-.39-.05-.25.05-.51-.03-.19.07-.41-.12-.73.1-.37-.07-.31.14-.48-.07-.15.08-.68-.08-.22-.1-.31-.07-.1.15.34.7.05.15Zm4.27-2.36l-.27-.51-.31-.41-.56-.43-.85-.14h-.29l-.2-.05-.39.12-.85.42-.19.29-.2.24-.05.2-.19.41-.15.2-.05.27.17.07.39-.15.49.03.46-.03.61-.07.56.05.58.07.44-.05.31-.08.73.24.12-.15-.08-.2-.22-.34Z"/><path class="cls-7" d="m89.31,108.52l-.39.03-.22-.02-.48.03-.31-.05-.32-.19-.15-.29-.08-.34-.12-.12-.31.31h-.15l-.29.27-.49.14-.27.17-.2-.02-.37.15h-.48l-.87-.08-.63-.24-.19-.14-.1-.15-.36-.19-.31-.49-.19-.65v-.73l.58-.82.05-.12.2-.22.37-.1.78-.24.17-.08h.68l.24.03h.31l.2.05.2-.02h.48l.37.1.48.2.08-.1-.07-.15-.07-.36.05-.76-.12-.25v-.29l-.22-.36-.36-.24-.31-.25-.78-.05-.66.07-.56.17-.32.36-.17.58-.15.2-.34.22h-.29l-.17-.03-.29-.12-.07-.24v-.37l.12-.24.03-.19.34-.58.48-.42.25-.14.44-.1.07-.12.76-.07h.76l.56-.08.44.12.36.15.32.08.36.31.32.34.2.36.07.19.19.49-.07.46.14.42.07.37-.07.46.09.56-.12.44v1l.03.44.12.36.36.12.48-.1.22.07.08.34-.03.41-.17.19-.22.08-.02.05Zm-5.9-1.73l.27.32v.03l.42.19.32.12h.46l.49-.03.61-.08.22-.12.29-.07.25-.12.39-.07.15-.17v-.1l-.12-.43.1-.59-.17-.24h-.41l-.42.05-.24-.12-.41.07-.03-.12-.73.17h-.34l-.76.2-.24.24-.12.54v.32Z"/><path class="cls-7" d="m99.23,107.89l-.12.43-.8.12h-.76l-.53-.1-.42.08h-.65l-.68-.02h-.73l-.44-.07-.37.08h-.65l-.27-.08-.14-.24.02-.24v-.43l.29-.15h.34l.22-.05h.56l.34.08.17.12.31-.14-.22-.15-.08-.53v-.37l-.07-.61v-.63l.08-.68-.1-.53.07-.42-.07-.07.14-.44.03-.44.17-.34-.25-.05-.29.1-.61.08-.41-.07-.54-.17-.12-.41.15-.31.42-.24h.41l.14-.07.87.08h.54l.51.14.08.31-.02.1v.66l-.08.42.27-.27.1-.32.15-.1.24-.39.29-.24.24-.14.14-.19.82-.15.19.03.63-.05.65.19.2.17v.88l-.2.2h-.73l-.36-.03-.54.05h-.34l-.24.12-.29.03-.29.32-.53.44-.25.02-.1.19.22.17.03.31.08.29-.15.85.1.53-.08.37.1.88-.1.32.15.24.49-.17.37.1.49-.07.37.03.46-.08.44.03.41.17.07.41.07.07Z"/><path class="cls-7" d="m104.41,103.4l.07.51v2.46l-.1.17.08.53-.07.36.07.44-.07.46-.59.1-.49-.12-.2-.22.03-.31v-.9l-.08-.66v-1.43l.05-.63-.12-.49.07-.82.07-.24-.05-.63.07-.27v-.42l.27-.22.31.03.36-.1.14.14-.1.66.08.08.24-.03.08-.27.32-.19.31-.25.24-.14h.44l.37-.14.37-.03h.66l.31.1.42.19.48.31.14.14.34.63.12.37.07.85v.41l.03.34v.49l-.03.36.08.39-.07.36.03.37-.05.19v.65l.08.54-.08.2.05.31-.32.32-.36.08-.24.02-.37-.08-.02-.19-.14-.51.08-.39.05-.44-.05-.29v-.32l-.05-.27.03-.53.07-.22-.07-.78v-.88l-.08-.48-.2-.51-.2-.32-.29-.12-.88-.24-.39.15-.12.02-.53.22-.68.15-.14.2.14.26.03.31-.02.22Z"/><path class="cls-7" d="m31.96,119.65l.08.46v1.38l-.03.32.12.58-.08.41-.03.51.12.27-.19.59-.1.14-.48.17-.24-.07-.37-.32.05-.31-.03-.25v-.88l.08-.03-.08-1.09.07-.07-.08-.61.03-.22-.03-.32.08-.25-.07-.27v-1.22l-.07-.17.1-.59v-.44l-.08-.07.51-.37.66.2-.1.46.12.31.2-.34.25-.19.17-.17.24-.07.51-.24.37-.1.61.2.48.32.19.19.12.24.07.34.2-.02.15-.44.14-.19.15-.07.2-.27.46-.17.53-.08h.31l.19.12.65.25.14.29.31.59.17.68-.07.66v.95l.07.6-.05.54.05.53-.14.59.05.54.12.24-.08.56-.12.2-.19.2-.44.1-.25-.1-.25-.39.08-.29-.08-.32-.07-.63.15-.34v-.32l-.14-.63.05-.59-.12-.15.14-.48-.12-.85.07-.51-.07-.43-.19-.24-.14-.12-.42-.1-.51.2-.75.27-.19.22.17.27.12.53-.05.63.05.2-.07.25.05.61-.05.15v.53l.08.51-.14.15.1.71-.1.2.03.46-.08.44-.49.14-.42-.07-.17-.49-.05-.51v-.39l-.05-.1v-.48l.1-.36-.02-.19-.07-.87.08-.27-.05-.71.08-.66-.12-.42-.05-.37-.08-.2-.17-.2-.24-.15-.19.03-.14-.03-.51.22-.08.07-.49.15-.19.17.19.65-.14.37Z"/><path class="cls-7" d="m45.23,116.87h.46l.48.14.31.12.42.27.34.12v.05l.41.39.2.37.25.27.27.48.05.41v.39l.1.42-.03.46-.14,1.39-.1.22-.29.71-.32.39-.53.49-.34.17-.53.24-.65.07-.27.1h-.51l-.58.07-.61-.19-.17-.15-.37-.08-.15-.12-.34-.19-.05-.14-.54-.44-.15-.27-.17-.17-.15-.49-.14-.7-.17-.31.03-.53.1-.61-.08-.41.41-.93.07-.22.2-.44.17-.2.34-.46.34-.14.17-.12.31-.07.36-.22.08-.12h.46l-.03.02.59-.08h.2l.29.03Zm-.68,1.09l-.39.08-.22.1-.42.15-.29.31-.39.7-.12.36.03.54-.1.49.08.39.03.56.07.32-.02.1.29.49.05.15.34.29.51.32.22.08.44.03v.03l.66-.12h.37l.12-.1.34-.14.17-.02.34-.44.19-.37.19-.48-.08-.19.08-.17.17-.87-.25-1.12-.1-.17-.07-.42-.39-.46-.36-.2-.48-.08-.42-.14-.24-.03h-.36Z"/><path class="cls-7" d="m58.42,123.89l-.12.43-.8.12h-.76l-.53-.1-.42.08h-.65l-.68-.02h-.73l-.44-.07-.37.08h-.65l-.27-.08-.14-.24.02-.24v-.43l.29-.15h.34l.22-.05h.56l.34.08.17.12.31-.14-.22-.15-.08-.53v-.37l-.07-.61v-.63l.08-.68-.1-.53.07-.42-.07-.07.14-.44.03-.44.17-.34-.25-.05-.29.1-.61.08-.41-.07-.54-.17-.12-.41.15-.31.42-.24h.41l.14-.07.87.08h.54l.51.14.08.31-.02.1v.66l-.08.42.27-.27.1-.32.15-.1.24-.39.29-.24.24-.14.14-.19.82-.15.19.03.63-.05.65.19.2.17v.88l-.2.2h-.73l-.36-.03-.54.05h-.34l-.24.12-.29.03-.29.32-.53.44-.25.02-.1.19.22.17.03.31.08.29-.15.85.1.53-.08.37.1.88-.1.32.15.24.49-.17.37.1.49-.07.37.03.46-.08.44.03.41.17.07.41.07.07Z"/><path class="cls-7" d="m63.2,121.78l.03.27.15.32.12.03.22.48.36.24.1.1,1.22.27h.46l.56-.19.07-.15.51-.14.51-.66.1-.03.31-.29h.36l.12.05.27.05.1.31-.07.27-.27.63-.37.24-.25.27-.56.37-.32.12h-.15l-.29.14-.7.15h-.34l-.75-.14h-.34l-.27-.05-.39-.19-.41-.19-.44-.22-.22-.41-.32-.27-.07-.22-.22-.42-.15-.07-.05-.58.03-.34-.17-.88.08-.37v-.7l.14-.32.02-.19.27-.41.2-.44.15-.22.08-.02.24-.39.41-.22.73-.34.34-.08.17-.1.48-.1.44.07.17.08.24-.08.36.1.15.12.44.08.32.15.22.07.24.17.7.68.24.39.1.39.1.22.12.51-.03.12.1.58-.12.24-.36.22h-.31l-.2.07-.39-.05-.25.05-.51-.03-.19.07-.41-.12-.73.1-.37-.07-.31.14-.48-.07-.15.08-.68-.08-.22-.1-.31-.07-.1.15.34.7.05.15Zm4.27-2.36l-.27-.51-.31-.41-.56-.43-.85-.14h-.29l-.2-.05-.39.12-.85.42-.19.29-.2.24-.05.2-.19.41-.15.2-.05.27.17.07.39-.15.49.03.46-.03.61-.07.56.05.58.07.44-.05.31-.08.73.24.12-.15-.08-.2-.22-.34Z"/></svg>