<?xml version="1.0" encoding="UTF-8"?><svg id="Layer_1" xmlns="http://www.w3.org/2000/svg" viewBox="0 0 473.52 112.2"><defs><style>.cls-1{fill:#122b44;}.cls-1,.cls-2{stroke-width:0px;}.cls-2{fill:#dd8b6b;}</style></defs><rect class="cls-1" x="97.48" y=".78" width="24.54" height="45.63"/><rect class="cls-1" x="216.95" y=".22" width="24.54" height="45.63"/><rect class="cls-2" x="88.52" y="54.64" width="30.64" height="56.77"/><rect class="cls-2" x="236.55" y="54.64" width="30.82" height="56.77"/><path class="cls-1" d="m.82,41.27l-.24-1.24.2-2.24.24-.36.12-1.28-.4-1.6.2-1.44-.36-1.44.44-2.36-.24-1.12v-2.36l.32-.76-.2-1.16.24-1.2-.28-2.04.16-.92-.28-2.36.12-.72v-.92l-.12-.56.2-2.12v-1.96l.16-.96-.28-1.4v-1.04l.2-1.56-.16-1.28V1.6l.88-1.08.56.08,1.56-.2,1.36.32,1.52-.12.84.24.88-.08h-.04l.92-.12h1.16l.36-.12.68-.08,2.36.2h11.8l.76.36v2.04l.16.2-.36,3.88.28,2.08-.24.68.08,1.2-.16,1.28.44,1.32-.2,1.32-.12.36.16,1-.24,1.56.32,1.36-.28,1.32.36,2.08-.12,1.2-.32,1.36.24,2.68-.24,2.2.44,1.24-.24,1.32v1.84l-.2,1.64.28,1-.12.96.32,1.4-.36,1.4.08,1.24v3.52l-.12.16h-.84l-1.32.24h-4.24l-1.56.28-1.72-.4-2.92.28-1.4-.16-1.16.08h-1.64l-1.84-.16-.8.28-1.88-.24h-2.2l-.92.08-1.04-.68v-4.16Zm8.8-18l-.32-1.28.2-1.52-.16-.36.12-.92-.12-.72.44.08.2.68.44.48.28,1.84.52.76.28,1.84.36-.04.6.96v.84l.32,1.16.4.6.12.48.48.92.28.72.32,1.32.24.48.32,1.12.36.8.56,1.88.16.48.56.28h2.96l.8-.2.2-.64.08-1.04.16-.68-.2-1.2.12-.92v-3.12l.16-1.76-.16-.96-.16-1.28.16-.36-.08-1.08.36-2.08-.32-.68v-1.32l.16-.84-.12-.4v-.68l-.12-.8.12-1.8-.4-.48-.76-.28-.84.08-.64.36-.44,1.04.24,1.16-.16.2v1.28l.08.56-.16.88.16,1.56-.32,1.52.24,1.4v2.16l-.16.48.16,1.84.2,1.56.16,1.6.12.8h-.36l-.04-.2-.68-1.08-.32-1.36-.04-.64h-.2l-.12-.96-.52-.68-.04-.64-.8-1.92-.32-.76-.08-.88-.6-.92-.08-.32-.6-1.04.04-.36-.4-.88-.16-.76-.68-1.64-.24-.56-.28-1.08-.36-.72-.36-.52-.96-.44-1.44-.12-.68-.08-1.12.8-.44,1.24.48.88-.32,1.68.08,1.28v1.4l.32,1.28-.32.44.08,1.32-.16.88.16.8-.08.12v5l-.16.72.24,1.04-.12.76.12.36-.08,1.16.12.88.28.28,1.16.32,1.16-.36.4-1.32-.2-.36.08-1.2v-2.84l-.16-.68.24-1.04.08-.84-.08-1.32-.08-.16.12-.96-.36-1.4.32-.36Z"/><path class="cls-1" d="m24.86,38.83l-.28-.24-.04-.16.48-2.16-.44-1.32.16-1.4.24-1.24-.12-1.68.4-.44-.44-2v-2.12l.28-.52-.24-3.08.4-.36-.36-2v-1.12l-.2-.88.16-2v-3.4l.16-.4v-2.48l-.2-1.16v-1.48l.24-.56-.24-1.8.16-.96-.08.04v-1.68l-.12-.8.96-.92.6.04,1.4-.12,1.2.28,1.6-.24,1.24.28h2.52l1.08-.24.6-.04,1.88.16h4.6l1.12.24,1.6-.24h4.72l.52.44v1.88l.08.4-.36.8.28,1.48-.16,1.24.32,2-.28,1,.16,1.16-.36.6.44,1.76-.44.88.44,2.64-.12,1.68.12.56-.2.68.32,2.68v1.12l-.2,1.84v2.32l-.2,2.44.4,1.04-.2,1.12v2.24l-.32.92.36,1.36-.08,1.08.28.8-.36,1.36.08.92v4.6l-.12.16-1.88.16h-.92l-1.24-.2-1.68.36h-2.96l-.84-.2-2.76.24-1.48-.12h-4.32l-.16-.2-1.88.32-1.04-.08h-1.6l-.36-.16-1.52.2-.8-.72v-6.6Zm7.68-9.28l-.8-1.64.24-.36.72.16.52.24,1.6.2.36-.2,1.12.16.72-.32.88.16,1.72-.24.96.28.44-.16,1.2.08.6-.12.92.12.48-.16h.72l.84-.52.28-.56-.24-1.36.08-.28-.28-1.2-.24-.52-.24-.92-.56-.92-1.64-1.6-.56-.4-.52-.16-.76-.36-1.04-.2-.36-.28-.84-.24-.56.2-.4-.2-1.04-.16-1.12.24-.4.24-.8.2-1.72.8-.96.52-.56.92-.2.04-.36.52-.48,1.04-.64.96-.04.44-.32.76v1.64l-.2.88.4,2.08-.08.8.12,1.36.36.16.52,1,.16.52.76.64.52.96,1.04.52.96.44.92.44.64.12h.8l1.76.32h.8l1.64-.36.68-.32h.36l.76-.28,1.32-.88.6-.64.88-.56.64-1.48.16-.64-.24-.72-.64-.12-.28-.12h-.84l-.72.68-.24.08-1.2,1.56-1.2.32-.16.36-1.32.44h-1.08l-2.88-.64-.24-.24-.84-.56-.52-1.12-.28-.08-.36-.76-.08-.64-.12-.36Zm10.68-4.4l.2.48-.28.36-1.72-.56-.72.2-1.04.12-1.36-.16-1.32-.12-1.44.16-1.08.08-1.16-.08-.92.36-.4-.16.12-.64.36-.48.44-.96.12-.48.48-.56.44-.68,2-1,.92-.28.48.12h.68l2,.32,1.32,1,.72.96.64,1.2.52.8Z"/><path class="cls-1" d="m49.3,44.15l-.32-4.52v-1.52l.36-.76-.2-1.64-.24-.8.24-1.92-.2-1.4.28-1.12-.32-1.48v-1.12l-.24-1.24.36-1.52-.12-.72.32-1.28-.32-1.36v-2.04l-.24-1.76v-6.04l.36-1.92-.48-1.64V2l.96-1.28,1.32.16,1.08-.32,1.6.32.8-.24,1.6.2h1.84l.6-.24.84.12h8l.64-.2h4.8l1.4.44-.12,1.64.2,1.2-.28.36.28,1.24-.12,1.32.4,2.2-.28,1.24.12.88-.32.52.6,1.6-.32,2.08.16,1.56v1.36l.2.2.04.16-.28,1.84.16.96.36,1.2-.32,1.84v3.48l-.24,1.68.56,1.72-.28,1.28.08.96v2.56l.16.32-.16,1.72.16,1.72-.04.48v5.36l-.12.16h-1.56l-1.64.16-.92-.16-1.24.28-.84.08h-2.44l-.72-.16-1.88.24h-7.6l-.36.12h.04l-.32.12-1.96-.2h-2.12l-1,.2-.76-.76v-1.56Zm7.32-12.2l-.08-.56v-1.6l-.2.08v-1.16l-.28-.6-.36-1.68.04-.44-.2-.84v-1.12l-.28-1.24-.28-.88v-1.12l-.16-.76-.04-.48-1.24-.92-.44.04-.72.08-.48.72-.08.36v1.24l.4.24.12,1.08v.68l.4,1.72.24,1.16v.32l.36.8v1.12l.12.96.36,1.16.16.8-.04.48.36,1.28-.08.4.16.96.48,1.24.24.52,1.28.12,1.32-.08.28-.16.72-.84.56-.8v-.84l.44-1.44.56-.84-.16-.4.96-3.2.28-.6.2-1-.12-.44.24-.16.48,1.2-.2.12.6,1.24-.12.6.44,1.68.2.36.4,1.52.28.44.28,1.8.68,1.32.76.48.68.12,1.72-.28.56-.52.48-1,.28-1,.12-1.68v-.52l.24-.76v-.88l.4-1.56v-.6l.44-1.08-.12-.44.6-1.12-.2-1.04.12-1.44.44-.92-.04-.44.28-.84-.16-.56-.56-.76-.68-.08-.68.2-.72.4-.08,1.12-.24.24-.16.8.08,1.2-.28.28v1.08l-.4.96.12,1.52-.36.68-.32,1.12.12.72v1.08l-.32.32-.16,1.64-.12.48-.28.44-.24-.96v-.6l-.48-1v-.84l-.44-.88-.24-1.16-.52-1.36-.16-1.04-.68-1.08-.4-1.2-1.2-.44-1.24-.16-.48.4-.32.4-.24.48-.28,1-.4,1.92-.28.6-.12.64-.64,1v1.88l-.32.2-.52,1.32-.44-.12Z"/><path class="cls-1" d="m72.94,43.91l-.2-2.48v-4.16l.28-.76.16-1.08-.36-1.64.16-1.24-.2-.36-.16-.56.48-2.32-.2-1.2-.4-1.48.48-2.08.16-2.12-.16-1.88v-1.2l-.32-1.8.24-1.32v-1.24l-.12-.16.16-2.08v-1.2l.16-.64.04.04v-1.84l-.28-1.32v-.84l.16-.84-.2-1.04.16-1.8v-.76l-.2-1.52,1.04-.76.64.04,1.92-.2,1.32.2v-.12l.2-.16,2.4.44.92-.08.96.24,1.52-.4,2.12.24,1.32-.08h10.76l.56.44-.12,1.64.24.92-.4,1.36.32,1.28-.12,1.44.2,1.36-.24.68v2.72l.36,1.04-.2,1.52-.16.24.16,1.8-.16.88.2,1.68-.08.16-.24.2.32,2.24.24.88-.52,2.28.16.64v4.12l.32.68-.44,1.36.2,1.88v1.04l-.36.6.4,1.44-.08,1.12.2,1.28-.36.92.08.88v-.04l.12.92v2.48l.08.88-.08.12-3.72.36-.72-.2-1.4.2h-1.36l-.72.28-1.16-.24-.76-.08-2.6.24-2.16-.16h-3.36l-.52-.2-1.68.28-1.08-.08h-1.52l-1.24-.12-1.12.12-.44-.72v-1.2Zm20.76-12.76l.08-.76-.64-1.52-.72-.96-.72-.36-.76-.6-1.08-.16-.4-.32-.72-.08-2.56-.72-.48.08-.68-.24-1.16-.16-1.44-.44-.68-.52-.36-.28-.24-.6.04-.52-.08-.44.36-.6.72-.48,1.64-.36,1.36-.36,1.28.24.52-.04,1.28.4,1.16.96.36.8,1.24.52,1.2.12.64-.48.12-.16-.16-1.12-.52-.64-.4-.88-.64-.36-.28-.32-1.52-.92-.72-.08-1.56-.64-.68.16-1.36-.28-.68.24-.64.04-1,.2-1.12.12-.72.2-.24.28-.8.28-.64.56-.4.52-.48,1.12-.36.4-.2,1.16.08,1.2.96,1.6.6.64,1.44.6,1.64.8.4.04,1.36.4h1.08l.6.08,1.6.52.72.12.24.16.44.12,1.2.96.16.44.08.84-.28.52-.16.56-.64.56-1.92.6-1.16-.32h-1.04l-1.2.2-.88-.36-.96-.24-.68-.48-.6-.92-.36-.8-.4-.36-1.56-.12-.56-.04-.44.28-.04.6.28.68.32,1.08.24.36.8.88.12.24.92.92,1.52.52h.52l.6.24,1.08.08.56.12h2.16l2.2-.36h.72l2.08-1.12.92-.92.84-1.12.08-.96.16-.8v-.04Z"/><path class="cls-1" d="m121.34,46.19l-.12-.32.08-1.2-.12-1.12v-2.48l-.4-.32.28-2.48.24-.4v-1.2l-.48-1.28.24-1.36.16-.08-.24-2.76.32-.56-.4-1.76v-.92l-.24-.28.48-1.88-.16-1.36v-1.56l-.12-1.28v-2.04l-.32-1.2.2-1.48v-1l-.08-.72.16-.72v-3.92l-.24-2.24V3.56l-.24-1.72,1-.72h.64l1.28-.32,1.96.4.96-.24,1.4.2h2.6l1.04-.32,1.36.16.56.16,2.4-.24h2.68l.8.12.84-.2h5.76l.16.08.16.24v1.88l.2.84-.28.6.24,1.16-.12,1.8.32,1.68-.32.8.28,1.52-.12.64.28.84-.6,1.32.52,2.56v1.88l.2.2-.24,2,.24.92v2.16l-.28,1.12.28,2.56-.24,2.28.44,1.56-.24.8.16,1.32v1.4l-.44,1,.52,1.56v1.44l.16.64-.28,1.08.16.92v3.52l-.84.92-.92.08-1.16-.16-2.36.4h-2l-.44.2-2-.32-1.96.16-.68.16-1.44-.12h-1.88l-1.08.12h-2.4l-.04.12-.16.08-4.28-.32-1.48.12-.16-.08-.16-.32Zm16.4-25.52l-.28-1.84-.48-.12h-2.2l-1.08.08-.32-.12-.92.12-1.08-.28-.56.2h-1.2l-.56-.08-.8.32-.28.24-.32.84.16.56.64.72.76.2h1.04l.52-.2h.88l.28.04h1.64l.76-.44.52.2v.56l-.64,1.08.32.96-.12.88.08.36v2.52l-.08.56.24,1.24-.28.88.08.4-.08.72.24.96-.16.92.24,1-.24.8v.88l-.24,1.32-.24.4-.16.56-.72.92-.6.6-.96.28-.68.52-.64.08-.48.16-1.76.12-.4.48-.32.64.24,1.2.48.36.68-.12h.68l1-.16.84-.08.84-.32.76-.12.96-.68h.4l1.08-.68.72-.88.68-.56.64-1.6.2-1.52.32-1.56-.36-1,.24-.36-.2-.96.24-.76-.2-1.52v-1.44l.16-.96v-1.56l.12-.84v-1.76l.16-1.12-.28-.32-.2-1.44.28-.48Zm.4-8.12v-.88l-1.08-1-.72-.16-.28.08h-.6l-.92.32-.16.52-.28.48v.68l.2,1.08.56.6.72.32.48.08.64-.08,1-.68.4-.96.04-.4Z"/><path class="cls-1" d="m144.86,44.23l-.16-2.44v-2.8l-.2-1,.44-1.44v-1.12l-.28-1.12.16-2.36-.24-.44.4-1.6-.36-1.84v-1.92l.44-1.08-.2-1.6.24-1.24-.12-.6-.12-1.36v-1.28l-.16-1.56v-3.28l.12-1.24v-1.04l.24-.84-.28-2.76v-1.6l.12-.44-.08-1.12v-3.12l-.16-1.24.96-.52h2.84l.8.16.76-.28,1.72.28.6-.04,1.76.28,1.64-.44.88.28h2.2l1.64-.12h1.96l1.04.12,1.84-.24,3.32.2,1.2-.08.44.48v1.52l.16.64-.36,1.28.28,1.44-.12,1.16.24,1.52-.28.84.2,1.28-.32,1.12.4,1.6-.44,1.08.4,1.68-.16,2.04.24.8-.24,1.24.16,1.12v-.04l.28,1.44-.32,1.4v3.68l-.36,1.8.56,1.84-.32,1.08v3.56l.12.6v1.48l.36.56-.52,1.68.16,1.44v3.08l-.88.92h-2.4l-1.12-.12-.8.2h-1.48l-1.92.2-1.56-.24-1.16.08h-6.2l-.64-.2-1.32.4-2.28-.2h-.72l-1.64-.16h-1.24l-.24-.52.08-.92Zm17.28-10.4l.16.16v1.92l.24.2.84.12h1.04l.36-1.6v-3.08l-.2-.96.2-.52-.2-1.36.28-2-.24-.72.12-1.36v-.92l.16-1.08-.16-1.8-.12-.76v-.8l-.4-.4-1.12-.2-.72.16-.52.52-.4.88.24,1.12-.12.08-.16,1.04v.84l.24.92-.12.68.2.92-.2.72.12,1.44-.16.88v2.08l.4,1.24-.04.6-.52-.04-1.4.32-.32.4-1.2.2-.68.16-1.32-.2h-1.4v-.36l-.28-.2-.56-.64-.16-.72-.28-.6-.24-1.52.4-.88-.12-.88-.2-.76v-1.72l.12-.44-.08-.68.16-.64-.12-.92.08-1.32-.24-2-.64-.6-.8-.08-.6.04-.72.8-.36,1.28.08.16-.16.8.2.56-.12,1.2.12.6.12,1.84-.08.16.04.6-.24,1.32.08.56v2.36l.32.76v1.32l.36.2.6.8.2.72,1.08.64.36.4.24.16,1.44.36.56.08h1.28l.84-.16.32.12,1.28-.32,1.24-.72.6-.56,1-.92Z"/><path class="cls-1" d="m168.94,43.91l-.2-2.48v-4.16l.28-.76.16-1.08-.36-1.64.16-1.24-.2-.36-.16-.56.48-2.32-.2-1.2-.4-1.48.48-2.08.16-2.12-.16-1.88v-1.2l-.32-1.8.24-1.32v-1.24l-.12-.16.16-2.08v-1.2l.16-.64.04.04v-1.84l-.28-1.32v-.84l.16-.84-.2-1.04.16-1.8v-.76l-.2-1.52,1.04-.76.64.04,1.92-.2,1.32.2v-.12l.2-.16,2.4.44.92-.08.96.24,1.52-.4,2.12.24,1.32-.08h10.76l.56.44-.12,1.64.24.92-.4,1.36.32,1.28-.12,1.44.2,1.36-.24.68v2.72l.36,1.04-.2,1.52-.16.24.16,1.8-.16.88.2,1.68-.08.16-.24.2.32,2.24.24.88-.52,2.28.16.64v4.12l.32.68-.44,1.36.2,1.88v1.04l-.36.6.4,1.44-.08,1.12.2,1.28-.36.92.08.88v-.04l.12.92v2.48l.08.88-.08.12-3.72.36-.72-.2-1.4.2h-1.36l-.72.28-1.16-.24-.76-.08-2.6.24-2.16-.16h-3.36l-.52-.2-1.68.28-1.08-.08h-1.52l-1.24-.12-1.12.12-.44-.72v-1.2Zm20.76-12.76l.08-.76-.64-1.52-.72-.96-.72-.36-.76-.6-1.08-.16-.4-.32-.72-.08-2.56-.72-.48.08-.68-.24-1.16-.16-1.44-.44-.68-.52-.36-.28-.24-.6.04-.52-.08-.44.36-.6.72-.48,1.64-.36,1.36-.36,1.28.24.52-.04,1.28.4,1.16.96.36.8,1.24.52,1.2.12.64-.48.12-.16-.16-1.12-.52-.64-.4-.88-.64-.36-.28-.32-1.52-.92-.72-.08-1.56-.64-.68.16-1.36-.28-.68.24-.64.04-1,.2-1.12.12-.72.2-.24.28-.8.28-.64.56-.4.52-.48,1.12-.36.4-.2,1.16.08,1.2.96,1.6.6.64,1.44.6,1.64.8.4.04,1.36.4h1.08l.6.08,1.6.52.72.12.24.16.44.12,1.2.96.16.44.08.84-.28.52-.16.56-.64.56-1.92.6-1.16-.32h-1.04l-1.2.2-.88-.36-.96-.24-.68-.48-.6-.92-.36-.8-.4-.36-1.56-.12-.56-.04-.44.28-.04.6.28.68.32,1.08.24.36.8.88.12.24.92.92,1.52.52h.52l.6.24,1.08.08.56.12h2.16l2.2-.36h.72l2.08-1.12.92-.92.84-1.12.08-.96.16-.8v-.04Z"/><path class="cls-1" d="m193.1,44.39v-2.4l-.24-2v-1.44l.36-1.2-.16-1.12-.36-.72.24-1.52v.04l.12-1.08-.24-.68.32-1.52-.28-1v-3.32l.24-.48-.16-1.36v-1.64l.16-.72-.32-1.56.08-.96-.32-1.76.12-1.08v-3.8l.2-1.44-.32-1.92V3.48l-.24-1.76,1.16-.72,1.44.2.44-.2,1.24.28,1.72-.32,1.24.28,1.16-.16h1.28l.6-.28,2.68.32,2.56-.16h3.56l.48-.08h5.16l.96.32v1.96l.16.48-.44.96.4,1.68v1.64l.08.52-.36.84.4,2v1.6l.08.12-.52.96.52,3.44-.2.28.36,1.32-.24,1.24.28,1.36v1.48l.12.48-.24,1.96v4.88l.24.88-.28.44.28,2.28-.24,1.88.24,1v1.44l.32,1.08-.32,1.32.16.88v3.4l.08.76-.04.12-.88.28-.68-.08h-3.2l-.68.16-1.2.08-1.6.44-2.12-.48-1.84.24-1.2-.08h-1.6l-1.36.12h-1.08l-.92-.24-1.88.36-1.08-.08h-2.68l-.88.12-.72-.76-.12-1.56Zm18.88-8.28l.92-.4.08-.4.28-.72-.4-1.2-.92-.12-.8.36-.84.16-.8-.12-1.6.12-.6-.28-.6-.04-.56-.76-.44-.4-.16-.28-.48-2.2v-.52l.24-1.72-.28-1.12.12-.32v-1.8l.12-.56v-1.04l-.44-1.48.36-.52,1.28.72.64-.08,1,.12,1.76-.36.96.32.4-.2,2-.28.48-.4-.08-1-.12-.32-.56-.56h-.48l-1.16-.16-.84.28-1.36-.28-.44.12-.76-.12-2.24.2-.64.2-.36-.48.48-.96v-3.52l-.12-.96.2-1.04-.08-1-.48-.4h-1.28l-1.28.16v1l.16.88-.28.92.2,1.12-.16.92v1.16l.12,1.28.48.68-.44.4-.72-.4h-1.56l-.52.08h-1.84l-.84-.08-.48.24-.12.8.12.88.24.56,1.88.12.4.04.64-.12,1,.12,1.04-.12.8-.36.36.48-.44.44.08,1.2-.32.64.28.8-.2.4.24,1-.12.48v5.6l.64,1.88.68.64.44.72.56.48,1.4.52,1.6.28,1.8.16,1.24-.32.76.2.76-.36Z"/><path class="cls-1" d="m240.9,45.11v-5.2l-.12-.12v-1.72l.4-.72-.16-2.12-.44-1.12.32-2.24-.2-.16-.04-.16.52-2.08-.36-1.56-.2-1.68.36-1.6v-.48l.32-1.68-.32-1.76v-1.44l-.28-1.64.2-1.16v-1.28l-.08-.72.24-2.76-.12-1.44.32-.56-.36-1.92-.08-.96.2-1.12-.16-1.08.12-1.92-.2-1.68,1.12-.84,1,.12,1.52-.2,1.32.32,1.12-.24,1.32.24,1.08-.08.68.2,1.28-.4,3.4.28h5.48l.48-.2,2.24.16h3.24l.32.32.04.12-.12,1.68.24,1.12-.12,1.28v2.44l.16.8-.08.96v3.2l.2.28-.44,1.8.2,1.2.12.36-.2,2.04.24,1.08-.24,1.28.16,1.32v1.44h.08l.08.12-.32,1.96.12,1.04v1.76l-.24,2.2.4,1.2-.28,1.44v3.2l.12.48v2.04l.12.48-.32.8.08.88v-.04l.16,1.64v2.6l-.88.8-.72-.2-2.32.16h-1l-1.16.12h-.92l-.84.52-2.08-.44h-6.88l-1.96-.24-1.32.36-1.84-.16h-1.16l-1.2-.12-.92.12-.4-.48-.04-.24Zm20.44-10.4l-.16-.96-.28-.32-.76-.12-1.72.12h-1.2l-.92.2-.56-.12-.48-.36.2-.6v-1.08l.2-1.16-.28-1.64.12-.36-.12-1.52.12-.16v-2.08l-.12-.88.12-1.72.16-1.16-.28-2-1.4-.28-.24.12-1.36-.2-.28.28h-1.28l-.04-.04h-1.84l-.48.12-1.2-.24-.6.08-.72.68.16.72.08,1.2.6.16h1.84l.56-.12.88.2.76-.12.8-.24.72-.12.24.28v.6l-.28.76.08.96-.12.76.16,1.48-.16,1.2v1.8l.16.72-.24.76.16.76-.08,1,.08.48.32.72-.32.28-.36.08-1.24-.16h-.88l-.68-.08h-.96l-1.76.44-.4.56-.08,1.12.56.64.8.08.76-.2,1.52.12.52.08.8-.2h.84l1.72.2,1.84-.16.64.12.64-.2h1.92l.8-.08.6.2.92-.12.44-.52-.08-.28.12-.48Zm-5.4-23.36l-1.2-.8h-1.64l-.64.4-.48.8v.76l-.08.12.08.84.24.6.48.32,1.28.28.72-.12.72-.24.24-1.08.28-.88v-1Z"/><path class="cls-1" d="m264.98,43.91l-.24-2.04v-2.8l-.08-1.2.32-1.16v-1.2l-.4-1,.36-2.12-.28-1.44.36-1.76-.2-.92v-2.6l.24-.52-.08-.8.24-2-.36-2.28.16-.44-.32-2.4.08-.96v-1.44l.16-2.2v-2.56l.16-.92-.32-2.16.2-1.28-.16-1.2.08-1.08v-1.6l-.08-1.12.96-.44h.72l1.36-.16,1.36.32,1.76-.16,1.28.2h2.36l1.04-.28.68.16h6.44l1.28.12.64-.12h2.92l.68.08h1.8l.28.24.04.16-.24,1.48.24,1.44-.16.2h-.2l.32,1.72v1.72l.24.84-.28,1.48.12,1.12-.4.72.56,2-.28,1.72.12,1.28-.12,1,.28.8-.28,1.64.36,2.96-.32,2.6.08,1.08v1.52l-.28,1.12.52,1.4-.28,1.24v2.92l-.2,1.32.24.92v1.52l.16.52-.32,1.12.16,1.44v2.44l.08,1.04-1.04.56h-3.48l-.92.12-1-.08-2.2.32-1.04-.24-.12-.12-2.88.24-1.6-.16h-1.16l-.44.08h-1l-2.12-.16-1.36.12h-2.4l-1.08-.12-1.08.16-.76-.72.12-1.24Zm8.68-20.12l-.08-.72-.32-.6.32-.48,1.6-.36,1.24-.52.28-.04.92-.36,2.08.56.68.28.48.76.48,1.2.2,1.12v2.08l.16,1.84-.16.52-.08,1.24.12.64v.76l.12.68-.12,1.04-.2.92.32,1.2.04.44.88.2.56-.04.84-.2.76-.76-.12-.72.2-.48-.2-1.28v-1.52l.12-.44-.08-.88.16-.84-.2-.92.08-.84v-1.16l-.08-.8v-.96l-.16-2-.28-.88-.8-1.48-.32-.32-1.12-.72-1-.44-.72-.24h-1.56l-.88.08-.88.32h-1.04l-.56.32-.72.6-.76.44-.2.64-.56.08-.2-.2.24-1.56-.32-.32-.84.24-.72-.08-.64.52v1l-.16.64.12,1.48-.16.56-.16,1.92.28,1.16-.12,1.48v3.36l.2,1.56v2.12l-.08.72.48.52,1.16.28,1.4-.24.16-1.08-.16-1.04.16-.84-.2-1.24.24-.4v-5.8l-.16-1.2.04-.52Z"/><path class="cls-1" d="m288.66,44.35l-.2-2.6v-2.76l-.08-.88.44-.92-.16-1.76-.36-1.12.12-1.24v-1.36l.4-1.48-.44-1.68v-2.36l.4-1.04-.2-1.24.32-1.16-.32-2.56v-1.48l-.24-.96.28-1.16v-4.96l.16-1.52-.24-1.36-.08-.96.28-1.32-.24-1.72.12-1.92-.2-1.56,1.12-.8,1.12.12.84-.4,2,.44.48-.16,1.32.24,1.08-.08,1.72.12.96-.36,1.52.24.56.2,1.88-.2h3.44l.68.2,1.24-.24h2.28l1.68.16h1.56l.16.32-.16,1.76.28,1.2-.32,1.2.28,1.24-.2.48.2,1.96-.32.32.32,2.04-.32.88.48,1.56-.44,1.08.24,1.4v2.32l.16.56-.28,1.24.48,2.72-.32,1.88v3.6l-.16,1.16.32.96-.28,1.08.12,1.36v2.16l-.24.88.28,1.08-.08,1.32.12,1.4-.2.56.12.96v4.04l-.2.4v-.04l-.64.16h-4.16l-.96.12-.64-.04-1.12.48-1.84-.44-.68-.08-1.28.16h-1.36l-2.12-.16-1.24.08h-1.8l-1.04-.08-.6.24-4.08-.32-1.4.16-.36-.48-.08-.24.12-1.04Zm15.52-23.56l-.56-1.68-.48-.32h-.8l-.88-.12-1.24.24-.68.64-.64,2.16.64.88-.08.24.72.76h1.96l1.4-.28.32-.6v-1l.32-.92Zm.04,12.52l-.36-.76-.56-1-.36-.24-1.88-.16-1.16.32-.56.56-.2.96.2,1.2-.08.4.28.88.56.56.52-.08,1.36.2h.68l.92-.68.4-.6.24-.8v-.76Z"/><path class="cls-2" d="m.93,109.21l-.2-2.4v-1.86l-.15-1.67.15-1.18.25-.24.29.1-.39-3.14v.05l-.34-1.32.25-1.76-.34-1.67.39-1.96-.34-1.47v-1.08l-.39-1.18.64-2.35-.1-.88v-2.25l-.2-1.91v-2.11l-.34-1.91.2-1.18v-.98l-.15-.98.25-.98v-2.89l-.15-1.52.15-1.08-.25-1.57v-3.38l-.1-1.18.15-.64-.2-3.04,1.08-1.42.74.1,1.91-.2,1.42.29,1.27-.39,2.21.39,1.52-.2,1.27.1.98-.39,2.94.29h1.76l1.71-.2h2.6l1.76.25,1.86-.34h5.19l1.03.69-.29,1.22.44,2.25-.25.69.2,1.37-.1,1.52.39,1.62-.29,2.06v3.33l.34.98-.34.88.15,1.42v-.05l.25.93-.2,2.79.15,1.42-.25.34.39,2.4.34,1.42-.49,2.74.2,2.65v2.06l-.44.83.59,2.25-.25.44.2,2.35-.15,2.4.25.78v2.11l.54.34.1.25-.54,2.89v2.3l.2,2.94-.05-.1-1.08.98-.59-.1-2.16.15-1.42-.25-1.86.39h-1.22l-1.71.2-2.21-.25-2.35.2h-3.48l-2.45.2h-2.89l-.34.25-5.05-.34-1.71.25-.88-.83v-2.06Zm8.87-26.26l-.15-.69v-1.81l.2-1.81-.39-.29v-1.08l.44-.29.54,1.23v.34l.34,1.42.83,2.11.54,1.03-.1.49.44.88.25.78.54,1.03.2.98.49.88-.1.78.2,1.03.49.69.64.59,1.18.15h.83l.88-.98.78-1.42v-.88l.69-1.67.15-1.08.69-1.47.73-1.32v-.98l.64-1.67.49-1.18.59-2.01.49-.1-.2,2.99-.05-.05-.29,1.42v2.16l.05.34v1.86l.29.78v2.11l-.24.29v2.35l.1,1.27v1.22l.25,1.37-.29,1.81-.1.74.1,1.62,1.18.2h1.42l.59-.39.44-2.45v-3.28l-.15-1.32.25-1.81-.15-.44.25-1.22-.2-.54v-1.81l-.29-1.67.34-.64.29-2.16-.39-1.27.25-.93-.2-1.03.2-1.42-.25-1.67.25-1.18-.25-.83-.54-1.18-1.37-.44-.64.15-1.18-.15-1.03.54-.54.64-.64,1.47-.69,1.18v.39l-.69,1.27.1.59-.49,1.03-.49,2.06-.15.74-.59.93v.88l-.59,1.08.05.73-.2.59-.05.78-.44-.25-.74-1.96-.34-.88-.29-1.71-.39-1.03-.49-.74-.29-.78-.25-1.18-.1-1.03-.54-.64-.15-1.67-.59-.69-.54-.98-.93-1.13-.83-.15h-1.18l-.25-.05-1.81.64-.39.74v2.4l-.25.34.15,1.03-.15,1.32v2.89l.2.93-.2.88.15,1.27-.2.59.15.54v2.06h-.1l-.34,1.47.29,1.03.2,1.86-.15,1.42.2.98v1.71l-.2.39v1.08l.29,1.67.34.39h1.27l1.52-.29.39-1.67-.29-2.11.29-.78v-3.04l-.15-.29v-2.16l.1-.64-.39-1.91.49-.64-.29-1.71.2-.93Z"/><path class="cls-2" d="m30.09,102.45l-.34-.29-.05-.2.59-2.65-.54-1.62.2-1.71.29-1.52-.15-2.06.49-.54-.54-2.45v-2.6l.34-.64-.29-3.77.49-.44-.44-2.45v-1.37l-.25-1.08.2-2.45v-4.17l.2-.49v-3.04l-.24-1.42v-1.81l.29-.69-.29-2.2.2-1.18-.1.05v-2.06l-.15-.98,1.18-1.13.73.05,1.71-.15,1.47.34,1.96-.29,1.52.34h3.09l1.32-.29.74-.05,2.3.2h5.63l1.37.29,1.96-.29h5.78l.64.54v2.3l.1.49-.44.98.34,1.81-.2,1.52.39,2.45-.34,1.22.2,1.42-.44.74.54,2.16-.54,1.08.54,3.23-.15,2.06.15.69-.25.83.39,3.28v1.37l-.25,2.25v2.84l-.25,2.99.49,1.27-.25,1.37v2.74l-.39,1.13.44,1.67-.1,1.32.34.98-.44,1.67.1,1.13v5.63l-.15.2-2.3.2h-1.13l-1.52-.24-2.06.44h-3.62l-1.03-.25-3.38.29-1.81-.15h-5.29l-.2-.25-2.3.39-1.27-.1h-1.96l-.44-.2-1.86.25-.98-.88v-8.08Zm9.41-11.37l-.98-2.01.29-.44.88.2.64.29,1.96.25.44-.25,1.37.2.88-.39,1.08.2,2.11-.29,1.18.34.54-.2,1.47.1.74-.15,1.13.15.59-.2h.88l1.03-.64.34-.69-.29-1.67.1-.34-.34-1.47-.29-.64-.29-1.13-.69-1.13-2.01-1.96-.69-.49-.64-.2-.93-.44-1.27-.25-.44-.34-1.03-.29-.69.25-.49-.25-1.27-.2-1.37.29-.49.29-.98.24-2.11.98-1.18.64-.69,1.13-.24.05-.44.64-.59,1.27-.78,1.18-.05.54-.39.93v2.01l-.25,1.08.49,2.55-.1.98.15,1.67.44.2.64,1.22.2.64.93.78.64,1.18,1.27.64,1.18.54,1.13.54.78.15h.98l2.16.39h.98l2.01-.44.83-.39h.44l.93-.34,1.62-1.08.73-.78,1.08-.69.78-1.81.2-.78-.29-.88-.78-.15-.34-.15h-1.03l-.88.83-.29.1-1.47,1.91-1.47.39-.2.44-1.62.54h-1.32l-3.53-.78-.29-.29-1.03-.69-.64-1.37-.34-.1-.44-.93-.1-.78-.15-.44Zm13.08-5.39l.24.59-.34.44-2.11-.69-.88.25-1.27.15-1.67-.2-1.62-.15-1.76.2-1.32.1-1.42-.1-1.13.44-.49-.2.15-.78.44-.59.54-1.18.15-.59.59-.69.54-.83,2.45-1.22,1.13-.34.59.15h.83l2.45.39,1.62,1.22.88,1.18.78,1.47.64.98Z"/><path class="cls-2" d="m59.63,108.67l-.29-2.5v-3.43l-.1-1.47.39-1.42v-1.47l-.49-1.22.44-2.6-.34-1.76.44-2.16-.24-1.13v-3.18l.29-.64-.1-.98.29-2.45-.44-2.79.2-.54-.39-2.94.1-1.18v-1.76l.2-2.7v-3.14l.2-1.13-.39-2.65.25-1.57-.2-1.47.1-1.32v-1.96l-.1-1.37,1.18-.54h.88l1.67-.2,1.67.39,2.16-.2,1.57.25h2.89l1.27-.34.83.2h7.89l1.57.15.78-.15h3.58l.83.1h2.21l.34.29.05.2-.29,1.81.29,1.76-.2.25h-.25l.39,2.11v2.11l.29,1.03-.34,1.81.15,1.37-.49.88.69,2.45-.34,2.11.15,1.57-.15,1.22.34.98-.34,2.01.44,3.62-.39,3.19.1,1.32v1.86l-.34,1.37.64,1.71-.34,1.52v3.58l-.25,1.62.29,1.13v1.86l.2.64-.39,1.37.2,1.76v2.99l.1,1.27-1.27.69h-4.26l-1.13.15-1.23-.1-2.69.39-1.27-.29-.15-.15-3.53.29-1.96-.2h-1.42l-.54.1h-1.22l-2.6-.2-1.67.15h-2.94l-1.32-.15-1.32.2-.93-.88.15-1.52Zm10.63-24.65l-.1-.88-.39-.74.39-.59,1.96-.44,1.52-.64.34-.05,1.13-.44,2.55.69.83.34.59.93.59,1.47.24,1.37v2.55l.2,2.25-.2.64-.1,1.52.15.78v.93l.15.83-.15,1.27-.25,1.13.39,1.47.05.54,1.08.25.69-.05,1.03-.25.93-.93-.15-.88.25-.59-.25-1.57v-1.86l.15-.54-.1-1.08.2-1.03-.25-1.13.1-1.03v-1.42l-.1-.98v-1.18l-.2-2.45-.34-1.08-.98-1.81-.39-.39-1.37-.88-1.22-.54-.88-.29h-1.91l-1.08.1-1.08.39h-1.27l-.69.39-.88.74-.93.54-.24.78-.69.1-.25-.25.29-1.91-.39-.39-1.03.29-.88-.1-.78.64v1.22l-.2.78.15,1.81-.2.69-.2,2.35.34,1.42-.15,1.81v4.12l.24,1.91v2.6l-.1.88.59.64,1.42.34,1.71-.29.2-1.32-.2-1.27.2-1.03-.25-1.52.29-.49v-7.1l-.2-1.47.05-.64Z"/><path class="cls-2" d="m118.24,103.13l-.2-.93.59-1.52-.2-2.25-.29-1.03.25-2.35-.44-1.08.59-2.94-.29-1.67v-2.84l.29-.49-.1-.93.29-2.6-.39-1.86v.05l-.05-.49.2-1.08-.2-1.22v.05l-.2-1.32.2-1.18-.1-1.03v-1.37l.2-1.08v-4.26l.25-1.13-.39-2.3.34-1.13-.29-2.6v-3.72l1.08-1.23,2.25-.39,2.35.44.44-.34,2.6.44h3.14l.93-.2.29-.2,4.21.44,1.81-.15h3.04l1.08.15.78-.25h2.55l3.33.29,1.47.54-.39,1.13.39,2.35-.29.34.25,1.62-.2,1.62.29,2.16-.25.64.1,1.27-.34,2.11.54,1.96-.05.2-.64.54.59,2.89-.15,1.27.34,1.27-.44,1.76.39,1.96v1.96l-.29,2.16v5.63l.39,1.18-.54,1.37.29,2.6v1.37l-.39,1.27.49,1.47-.15,1.96.34.88-.39,1.62.2.93v4.61l-1.27.59-1.32.2-1.18-.1h-1.76l-1.62.25-1.62-.1-1.47.49-2.3-.59-1.76.15h-8.08l-1.67.15-1.86-.2h-3.82l-.83.1-.93-.83v-7.45Zm25.04-5.73v-.98l-1.47-.69-1.42-.1-.34.2-1.32.2-.83-.2-2.35.59-.49-.59.59-.69.24-2.06.2-1.27-.2-.44-.24-1.18.29-.69-.15-1.86.25-2.89-.29-.93.1-.49v-2.01l.25-.93-.2-2.4v-1.76l-.1-.93v-1.62l-.25-1.42.44-.98-.2-1.13.15-.93-.98-1.13-.69-.29h-3.67l-.88.15-1.27-.1h-1.08l-1.32-.15-1.08.59-.29,1.22.1.69.74.69,1.71.2,1.91-.2,1.22.15,1.27-.25.59.15.39.44-.44.73-.29.88.2,1.08-.15,2.25.24.98-.34,1.37v1.18l.15,1.71.2.39-.15.64.25,1.71-.25.54v1.81l.1.59-.1.44v1.13l.1.64-.39,1.62.2.34-.2,1.52.34,1.18v.74l.25.98-.39.64-1.23-.69-2.01.15-.44-.1-.78.1-1.08-.29-1.03.25-.88,1.08.29,1.81,1.08.39,1.37-.25,1.86.15,1.91.05h.93l1.52-.29.29.25h3.09l1.42-.1.25.15h2.35l1.86-.2.49-.64.1-.88Z"/><path class="cls-2" d="m147.73,110.14v-6.37l-.15-.15v-2.11l.49-.88-.2-2.6-.54-1.37.39-2.74-.25-.2-.05-.2.64-2.55-.44-1.91-.25-2.06.44-1.96v-.59l.39-2.06-.39-2.16v-1.76l-.34-2.01.25-1.42v-1.57l-.1-.88.29-3.38-.15-1.76.39-.69-.44-2.35-.1-1.18.24-1.37-.2-1.32.15-2.35-.25-2.06,1.37-1.03,1.23.15,1.86-.25,1.62.39,1.37-.29,1.62.29,1.32-.1.83.25,1.57-.49,4.17.34h6.71l.59-.25,2.74.2h3.97l.39.39.05.15-.15,2.06.29,1.37-.15,1.57v2.99l.2.98-.1,1.18v3.92l.25.34-.54,2.21.25,1.47.15.44-.25,2.5.29,1.32-.29,1.57.2,1.62v1.76h.1l.1.15-.39,2.4.15,1.27v2.16l-.29,2.7.49,1.47-.34,1.76v3.92l.15.59v2.5l.15.59-.39.98.1,1.08v-.05l.2,2.01v3.18l-1.08.98-.88-.25-2.84.2h-1.22l-1.42.15h-1.13l-1.03.64-2.55-.54h-8.43l-2.4-.29-1.62.44-2.25-.2h-1.42l-1.47-.15-1.13.15-.49-.59-.05-.29Zm25.04-12.74l-.2-1.18-.34-.39-.93-.15-2.11.15h-1.47l-1.13.25-.69-.15-.59-.44.24-.73v-1.32l.25-1.42-.34-2.01.15-.44-.15-1.86.15-.2v-2.55l-.15-1.08.15-2.11.2-1.42-.34-2.45-1.71-.34-.29.15-1.67-.25-.34.34h-1.57l-.05-.05h-2.25l-.59.15-1.47-.29-.73.1-.88.83.2.88.1,1.47.73.2h2.25l.69-.15,1.08.25.93-.15.98-.29.88-.15.29.34v.74l-.34.93.1,1.18-.15.93.2,1.81-.2,1.47v2.21l.2.88-.29.93.2.93-.1,1.23.1.59.39.88-.39.34-.44.1-1.52-.2h-1.08l-.83-.1h-1.18l-2.16.54-.49.69-.1,1.37.69.78.98.1.93-.25,1.86.15.64.1.98-.25h1.03l2.11.25,2.25-.2.78.15.78-.25h2.35l.98-.1.74.25,1.13-.15.54-.64-.1-.34.15-.59Zm-6.61-28.61l-1.47-.98h-2.01l-.78.49-.59.98v.93l-.1.15.1,1.03.29.73.59.39,1.57.34.88-.15.88-.29.29-1.32.34-1.08v-1.22Z"/><path class="cls-2" d="m177.18,110.82l-.1-.34v-7.94l-.39-.64.54-2.25v.05l.15-1.13-.44-1.91.2-.98.15-.1-.34-2.99.39-1.47-.44-1.42v-2.21l.49-1.37v-4.02l-.25-1.91.15-1.42-.44-2.45.2-1.32v-3.04l.29-2.11v-3.48l-.34-2.45.25-2.25-.15-1.32v-3.53l1.08-1.32,3.23-.2,1.86.39.88-.25,1.76.29,1.22-.1,1.27.24,1.52-.44,2.99.34,1.91-.15h4.61l1.22.24,2.79-.2h4.02l.98.69-.39,1.08.44,2.21-.25,1.47.2,1.03-.2,1.03.25,1.96-.49.93.44,2.6-.25.93.34,1.27-.69,1.08.59,3.09-.2,1.37.39,1.47-.54,1.71.34,2.45.34.49-.25,1.52-.39,1.47.29,3.67-.44,2.4.49,1.91-.2.25-.15.05.29,2.65v.83l-.44,1.57.54,1.62-.15,1.91.34,1.08-.44,1.62.15,1.37v2.45l.1,1.57-1.27.59h-2.84l-1.81.25h-2.01l-2.21.39-2.25-.54-3.82.34-1.86-.15h-4.12l-.44-.15-.93.44-3.72-.25-1.71-.29-2.06.2-.29-.49Zm10.88-17.98l-.25-.98-.59-.93.44-.64.73-.05,1.23-.54.69-.49.74-1.18.59-.44.44.2.1.88.98,1.23.49.98,1.18,1.13v.44l.49.98.88.93.64,1.08.83,1.03.78.59.34.88,1.08.98.83.1,1.22.29.1-.2.69-.1.69-.88-.88-1.37-.29-.64-.54-.69-.59-.49-.25-.54-1.22-1.03-.1-.93-.78-.93-1.96-2.6-.29-.29-.39-.78-1.37-1.52-.88-.34.1-.64.54-.2,1.96-.98.69-.78,1.27-1.13.74-.39.93-.98.74-.44.34-.59.93-.54.34-.64v-.83l-1.27-.2h-1.91l-1.57.98-.78.54-.93,1.03-1.08.69-.64.98-1.13.54-1.32,1.27-2.25,1.76-.15.44-1.47,1.47-.49-.49.25-1.13.15-.1.2-1.27-.44-1.18.2-.73-.15-1.13.29-.49-.2-1.37v-2.74l.1-.59v-.88l.05-.39v-1.67l.1-.64-.05-.78.15-1.57-.15-2.06-.78-.44h-1.76l-1.08.64-.34,1.47-.1,1.23.2.54-.15.74.24.88.1,1.42-.2.69v1.03l.25,1.47-.29,1.08v2.3l-.15,1.52.15.39v2.69l-.2.93.2.2-.25,1.57.25.64-.2,1.42.29.69-.29,1.47.39.59-.2,1.67-.2,1.18.39.83.15,1.52.44.54.93.15,1.52-.25.44-.59.54-1.71-.39-.64.15-1.18-.15-.74.25-1.22Z"/><path class="cls-2" d="m206.48,102.45l-.34-.29-.05-.2.59-2.65-.54-1.62.2-1.71.29-1.52-.15-2.06.49-.54-.54-2.45v-2.6l.34-.64-.29-3.77.49-.44-.44-2.45v-1.37l-.25-1.08.2-2.45v-4.17l.2-.49v-3.04l-.24-1.42v-1.81l.29-.69-.29-2.2.2-1.18-.1.05v-2.06l-.15-.98,1.18-1.13.73.05,1.71-.15,1.47.34,1.96-.29,1.52.34h3.09l1.32-.29.74-.05,2.3.2h5.63l1.37.29,1.96-.29h5.78l.64.54v2.3l.1.49-.44.98.34,1.81-.2,1.52.39,2.45-.34,1.22.2,1.42-.44.74.54,2.16-.54,1.08.54,3.23-.15,2.06.15.69-.25.83.39,3.28v1.37l-.25,2.25v2.84l-.25,2.99.49,1.27-.25,1.37v2.74l-.39,1.13.44,1.67-.1,1.32.34.98-.44,1.67.1,1.13v5.63l-.15.2-2.3.2h-1.13l-1.52-.24-2.06.44h-3.62l-1.03-.25-3.38.29-1.81-.15h-5.29l-.2-.25-2.3.39-1.27-.1h-1.96l-.44-.2-1.86.25-.98-.88v-8.08Zm9.41-11.37l-.98-2.01.29-.44.88.2.64.29,1.96.25.44-.25,1.37.2.88-.39,1.08.2,2.11-.29,1.18.34.54-.2,1.47.1.74-.15,1.13.15.59-.2h.88l1.03-.64.34-.69-.29-1.67.1-.34-.34-1.47-.29-.64-.29-1.13-.69-1.13-2.01-1.96-.69-.49-.64-.2-.93-.44-1.27-.25-.44-.34-1.03-.29-.69.25-.49-.25-1.27-.2-1.37.29-.49.29-.98.24-2.11.98-1.18.64-.69,1.13-.24.05-.44.64-.59,1.27-.78,1.18-.05.54-.39.93v2.01l-.25,1.08.49,2.55-.1.98.15,1.67.44.2.64,1.22.2.64.93.78.64,1.18,1.27.64,1.18.54,1.13.54.78.15h.98l2.16.39h.98l2.01-.44.83-.39h.44l.93-.34,1.62-1.08.73-.78,1.08-.69.78-1.81.2-.78-.29-.88-.78-.15-.34-.15h-1.03l-.88.83-.29.1-1.47,1.91-1.47.39-.2.44-1.62.54h-1.32l-3.53-.78-.29-.29-1.03-.69-.64-1.37-.34-.1-.44-.93-.1-.78-.15-.44Zm13.08-5.39l.24.59-.34.44-2.11-.69-.88.25-1.27.15-1.67-.2-1.62-.15-1.76.2-1.32.1-1.42-.1-1.13.44-.49-.2.15-.78.44-.59.54-1.18.15-.59.59-.69.54-.83,2.45-1.22,1.13-.34.59.15h.83l2.45.39,1.62,1.22.88,1.18.78,1.47.64.98Z"/><path class="cls-2" d="m265.33,108.18l-.25-1.47v-5.98l.29-.83.2-.98-.64-2.16.39-3.18-.2-1.47.29-.93-.25-1.27-.29-2.94.44-1.96-.05-.69.44-1.71-.39-2.06v-2.65l-.2-1.71v-3.28l.15-2.16v-2.2l.15-.59v-1.42l-.2-1.18-.1-1.32.25-2.21-.25-1.22.2-1.96v-.83l-.25-1.86,1.18-.74h2.89l.93.15,1.18-.34,2.5.49,1.96-.2,1.13.2,1.37-.34,2.5.29h1.57l2.35-.15h11.07l.83.59-.2,1.57.29,1.27-.39,1.71.34,1.52-.15,1.18.29,1.86-.39,1.47.2,1.57v2.01l.25.59-.34,1.32v1.18l.2,1.42-.29,1.91.39,1.62-.29,1.86.2,1.47.29,1.22-.49,3.43v5.98l.25.93-.34.49.25,2.45-.2,2.84.2.78v2.6l.2.44-.39,1.08.2,1.52v3.58l.1,1.42-1.32.49-1.57.2h-1.23l-1.71-.25-1.81.34h-1.08l-1.08.54-1.96-.49-1.13-.1-2.84.29-2.4-.2h-4.02l-1.47-.1-.78.29-3.09-.2-1.32-.25-2.21.2-.49-.78.15-2.01Zm12.79-26.8v1.76l-.34.54v2.06l.2,1.18-.25.88v3.04l-.15,1.47.15.39v1.27l.1.83.25.88-.39.39h-.59l-.69-.29h-3.72l-.88.78-.2.44v.54l.34.98.25.34.59.2,1.62.15.69-.2,1.52.2.39-.1h2.11l1.03.15.54-.15h1.62l1.13-.2.29.25h1.32l.29-.05h3.48l1.23-.34.24-1.37-.15-1.03-1.08-.44-1.08-.25-2.35.34-1.27-.25-2.3.15-.69.44-.25-.49.2-.93.29-.64.25-1.62-.25-.64-.2-1.03.29-1.08-.44-2.06.39-1.13v-.69l-.2-.98.15-2.21-.54-2.06.59-.54.49.39,2.89.2.25.15,1.22.15,1.71-.15,1.67.15.44-1.08-.2-1.27-.49-.88-2.55-.25-.88.1h-3.92l-.69.49-.54-.39.39-.64.39-1.03.44-2.21.69-.59.69-.88,1.03-.64,1.47-.54,2.35-.39h.83l.74-.49.1-.93v-1.57l-.39-.25h-2.5l-1.81.39-.78.15-2.06.83-1.86,1.42-.88.69-1.76,2.74-.34,1.76.2,1.91-.49.49-1.13-.54-2.7.2-.44-.05-1.13.34-.39,1.32v.93l.44.39,2.25.34,3.18-.54.54.83Z"/><path class="cls-2" d="m294.73,110.14v-6.37l-.15-.15v-2.11l.49-.88-.2-2.6-.54-1.37.39-2.74-.25-.2-.05-.2.64-2.55-.44-1.91-.25-2.06.44-1.96v-.59l.39-2.06-.39-2.16v-1.76l-.34-2.01.25-1.42v-1.57l-.1-.88.29-3.38-.15-1.76.39-.69-.44-2.35-.1-1.18.24-1.37-.2-1.32.15-2.35-.25-2.06,1.37-1.03,1.22.15,1.86-.25,1.62.39,1.37-.29,1.62.29,1.32-.1.83.25,1.57-.49,4.17.34h6.71l.59-.25,2.74.2h3.97l.39.39.05.15-.15,2.06.29,1.37-.15,1.57v2.99l.2.98-.1,1.18v3.92l.25.34-.54,2.21.25,1.47.15.44-.25,2.5.29,1.32-.29,1.57.2,1.62v1.76h.1l.1.15-.39,2.4.15,1.27v2.16l-.29,2.7.49,1.47-.34,1.76v3.92l.15.59v2.5l.15.59-.39.98.1,1.08v-.05l.2,2.01v3.18l-1.08.98-.88-.25-2.84.2h-1.22l-1.42.15h-1.13l-1.03.64-2.55-.54h-8.43l-2.4-.29-1.62.44-2.25-.2h-1.42l-1.47-.15-1.13.15-.49-.59-.05-.29Zm25.04-12.74l-.2-1.18-.34-.39-.93-.15-2.11.15h-1.47l-1.13.25-.69-.15-.59-.44.24-.73v-1.32l.25-1.42-.34-2.01.15-.44-.15-1.86.15-.2v-2.55l-.15-1.08.15-2.11.2-1.42-.34-2.45-1.71-.34-.29.15-1.67-.25-.34.34h-1.57l-.05-.05h-2.25l-.59.15-1.47-.29-.73.1-.88.83.2.88.1,1.47.73.2h2.25l.69-.15,1.08.25.93-.15.98-.29.88-.15.29.34v.74l-.34.93.1,1.18-.15.93.2,1.81-.2,1.47v2.21l.2.88-.29.93.2.93-.1,1.23.1.59.39.88-.39.34-.44.1-1.52-.2h-1.08l-.83-.1h-1.18l-2.16.54-.49.69-.1,1.37.69.78.98.1.93-.25,1.86.15.64.1.98-.25h1.03l2.11.25,2.25-.2.78.15.78-.25h2.35l.98-.1.74.25,1.13-.15.54-.64-.1-.34.15-.59Zm-6.61-28.61l-1.47-.98h-2.01l-.78.49-.59.98v.93l-.1.15.1,1.03.29.73.59.39,1.57.34.88-.15.88-.29.29-1.32.34-1.08v-1.22Z"/><path class="cls-2" d="m324.18,108.67l-.25-3.04v-5.1l.34-.93.2-1.32-.44-2.01.2-1.52-.25-.44-.2-.69.59-2.84-.25-1.47-.49-1.81.59-2.55.2-2.6-.2-2.3v-1.47l-.39-2.21.29-1.62v-1.52l-.15-.2.2-2.55v-1.47l.2-.78.05.05v-2.25l-.34-1.62v-1.03l.2-1.03-.24-1.27.2-2.21v-.93l-.25-1.86,1.27-.93.78.05,2.35-.25,1.62.25v-.15l.24-.2,2.94.54,1.13-.1,1.18.29,1.86-.49,2.6.29,1.62-.1h13.18l.69.54-.15,2.01.29,1.13-.49,1.67.39,1.57-.15,1.76.25,1.67-.29.83v3.33l.44,1.27-.25,1.86-.2.29.2,2.21-.2,1.08.25,2.06-.1.2-.29.25.39,2.74.29,1.08-.64,2.79.2.78v5.05l.39.83-.54,1.67.25,2.3v1.27l-.44.73.49,1.76-.1,1.37.25,1.57-.44,1.13.1,1.08v-.05l.15,1.13v3.04l.1,1.08-.1.15-4.56.44-.88-.25-1.71.25h-1.67l-.88.34-1.42-.29-.93-.1-3.19.29-2.65-.2h-4.12l-.64-.25-2.06.34-1.32-.1h-1.86l-1.52-.15-1.37.15-.54-.88v-1.47Zm25.43-15.63l.1-.93-.78-1.86-.88-1.18-.88-.44-.93-.73-1.32-.2-.49-.39-.88-.1-3.14-.88-.59.1-.83-.29-1.42-.2-1.76-.54-.83-.64-.44-.34-.29-.73.05-.64-.1-.54.44-.74.88-.59,2.01-.44,1.67-.44,1.57.29.64-.05,1.57.49,1.42,1.18.44.98,1.52.64,1.47.15.78-.59.15-.2-.2-1.37-.64-.78-.49-1.08-.78-.44-.34-.39-1.86-1.13-.88-.1-1.91-.78-.83.2-1.67-.34-.83.29-.78.05-1.22.24-1.37.15-.88.25-.29.34-.98.34-.78.69-.49.64-.59,1.37-.44.49-.25,1.42.1,1.47,1.18,1.96.73.78,1.76.74,2.01.98.49.05,1.67.49h1.32l.73.1,1.96.64.88.15.29.2.54.15,1.47,1.18.2.54.1,1.03-.34.64-.2.69-.78.69-2.35.74-1.42-.39h-1.27l-1.47.25-1.08-.44-1.18-.29-.83-.59-.74-1.13-.44-.98-.49-.44-1.91-.15-.69-.05-.54.34-.05.74.34.83.39,1.32.29.44.98,1.08.15.29,1.13,1.13,1.86.64h.64l.74.29,1.32.1.69.15h2.65l2.7-.44h.88l2.55-1.37,1.13-1.13,1.03-1.37.1-1.18.2-.98v-.05Z"/><path class="cls-2" d="m353.53,110.48v-6.37l-.34-.34v-2.11l.49-1.76v-1.71l-.34-1.03v-.98l.25-2.3-.25-.29-.05-.2.54-2.3-.49-1.71v-2.55l.49-1.37-.25-1.62.25-1.37-.2-2.06v-1.81l-.39-1.42.29-1.76v-4.9l.15-.83v-1.71l.15-1.47-.25-1.71v-7.3l-.2-1.13,1.37-.93,1.03.2h2.21l.93.15,1.96-.15.83.25,1.96-.2.74.15,1.27-.39h1.13l2.99.34,1.18-.15h9.11l3.14.2h1.37l.2.39-.15,2.25.29,1.52-.44.78.39,1.76v2.01l.2.64-.2,2.16-.2.29v2.7l.34,1.18-.29,1.08.1,1.13v3.87l.1.39-.39,1.18.54,2.25v2.3l-.44,2.01.25,2.84v2.01l-.29,1.52.49,1.42-.29,1.81v3.72l.24.44-.2,2.7.25,1.03-.39,1.18.2,2.74v3.04l-.98,1.08-.59-.2-2.5.25-.98-.15-1.71.2h-1.91l-1.81.29-1.32-.2h-9.26l-1.96-.29-1.81.39-1.71-.15h-1.37l-.93-.1h-2.11l-.29-.39-.1-.39Zm10.93-26.41l-.44-.93-.15-.78.54-.44h.59l.29-.2,1.22-.39.98-.59.64-.05,1.52-.49,1.08.49,1.42.39,1.47,1.71v1.27l.39,1.13-.25,1.96.2.25v1.86l-.25,1.57.25,1.32v1.47l.15.59-.15,2.25-.15.59.29,1.22.44.69.83.15h2.35l.2-1.18-.15-.64.29-.98-.34-1.42v-1.71l.25-1.08-.25-1.37.2-.88-.15-.78.1-1.23-.15-1.96.05-.78-.2-2.84-.49-1.42-1.23-1.76-.98-.69-1.86-.98-.88-.1h-2.35l-1.71.64-1.08-.15-.64.34-1.67,1.27-.39.78-.44-.2.2-1.71.34-1.86-.29-1.57.15-.25v-2.89l-.1-1.32.1-.64-.1-1.13-1.22-.88h-.98l-1.08.1-.54,1.37v5l.25,2.2v1.71l-.44,1.18.15,1.08.34,1.18-.1,1.37-.24.78.24,1.42-.29.74.34.93-.39,1.42.29.78v2.11l-.1,1.03.15.93-.15.69-.2,2.7.2.73.05.74.29.93,1.67.29,1.27-.25.44-.83.1-.54v-1.91l-.1-.98.25-.59-.2-.73.34-1.52-.29-.69.05-.74-.2-.83.49-2.3-.29-.2-.15-1.27.15-.44.2-1.27Z"/><path class="cls-2" d="m382.93,110.14v-6.37l-.15-.15v-2.11l.49-.88-.2-2.6-.54-1.37.39-2.74-.25-.2-.05-.2.64-2.55-.44-1.91-.25-2.06.44-1.96v-.59l.39-2.06-.39-2.16v-1.76l-.34-2.01.25-1.42v-1.57l-.1-.88.29-3.38-.15-1.76.39-.69-.44-2.35-.1-1.18.24-1.37-.2-1.32.15-2.35-.25-2.06,1.37-1.03,1.23.15,1.86-.25,1.62.39,1.37-.29,1.62.29,1.32-.1.83.25,1.57-.49,4.17.34h6.71l.59-.25,2.74.2h3.97l.39.39.05.15-.15,2.06.29,1.37-.15,1.57v2.99l.2.98-.1,1.18v3.92l.25.34-.54,2.21.25,1.47.15.44-.25,2.5.29,1.32-.29,1.57.2,1.62v1.76h.1l.1.15-.39,2.4.15,1.27v2.16l-.29,2.7.49,1.47-.34,1.76v3.92l.15.59v2.5l.15.59-.39.98.1,1.08v-.05l.2,2.01v3.18l-1.08.98-.88-.25-2.84.2h-1.22l-1.42.15h-1.13l-1.03.64-2.55-.54h-8.43l-2.4-.29-1.62.44-2.25-.2h-1.42l-1.47-.15-1.13.15-.49-.59-.05-.29Zm25.04-12.74l-.2-1.18-.34-.39-.93-.15-2.11.15h-1.47l-1.13.25-.69-.15-.59-.44.24-.73v-1.32l.25-1.42-.34-2.01.15-.44-.15-1.86.15-.2v-2.55l-.15-1.08.15-2.11.2-1.42-.34-2.45-1.71-.34-.29.15-1.67-.25-.34.34h-1.57l-.05-.05h-2.25l-.59.15-1.47-.29-.73.1-.88.83.2.88.1,1.47.73.2h2.25l.69-.15,1.08.25.93-.15.98-.29.88-.15.29.34v.74l-.34.93.1,1.18-.15.93.2,1.81-.2,1.47v2.21l.2.88-.29.93.2.93-.1,1.23.1.59.39.88-.39.34-.44.1-1.52-.2h-1.08l-.83-.1h-1.18l-2.16.54-.49.69-.1,1.37.69.78.98.1.93-.25,1.86.15.64.1.98-.25h1.03l2.11.25,2.25-.2.78.15.78-.25h2.35l.98-.1.74.25,1.13-.15.54-.64-.1-.34.15-.59Zm-6.61-28.61l-1.47-.98h-2.01l-.78.49-.59.98v.93l-.1.15.1,1.03.29.73.59.39,1.57.34.88-.15.88-.29.29-1.32.34-1.08v-1.22Z"/><path class="cls-2" d="m412.42,108.67l-.29-2.5v-3.43l-.1-1.47.39-1.42v-1.47l-.49-1.22.44-2.6-.34-1.76.44-2.16-.24-1.13v-3.18l.29-.64-.1-.98.29-2.45-.44-2.79.2-.54-.39-2.94.1-1.18v-1.76l.2-2.7v-3.14l.2-1.13-.39-2.65.25-1.57-.2-1.47.1-1.32v-1.96l-.1-1.37,1.18-.54h.88l1.67-.2,1.67.39,2.16-.2,1.57.25h2.89l1.27-.34.83.2h7.89l1.57.15.78-.15h3.58l.83.1h2.21l.34.29.05.2-.29,1.81.29,1.76-.2.25h-.25l.39,2.11v2.11l.29,1.03-.34,1.81.15,1.37-.49.88.69,2.45-.34,2.11.15,1.57-.15,1.22.34.98-.34,2.01.44,3.62-.39,3.19.1,1.32v1.86l-.34,1.37.64,1.71-.34,1.52v3.58l-.25,1.62.29,1.13v1.86l.2.64-.39,1.37.2,1.76v2.99l.1,1.27-1.27.69h-4.26l-1.13.15-1.23-.1-2.69.39-1.27-.29-.15-.15-3.53.29-1.96-.2h-1.42l-.54.1h-1.22l-2.6-.2-1.67.15h-2.94l-1.32-.15-1.32.2-.93-.88.15-1.52Zm10.63-24.65l-.1-.88-.39-.74.39-.59,1.96-.44,1.52-.64.34-.05,1.13-.44,2.55.69.83.34.59.93.59,1.47.24,1.37v2.55l.2,2.25-.2.64-.1,1.52.15.78v.93l.15.83-.15,1.27-.25,1.13.39,1.47.05.54,1.08.25.69-.05,1.03-.25.93-.93-.15-.88.25-.59-.25-1.57v-1.86l.15-.54-.1-1.08.2-1.03-.25-1.13.1-1.03v-1.42l-.1-.98v-1.18l-.2-2.45-.34-1.08-.98-1.81-.39-.39-1.37-.88-1.22-.54-.88-.29h-1.91l-1.08.1-1.08.39h-1.27l-.69.39-.88.74-.93.54-.24.78-.69.1-.25-.25.29-1.91-.39-.39-1.03.29-.88-.1-.78.64v1.22l-.2.78.15,1.81-.2.69-.2,2.35.34,1.42-.15,1.81v4.12l.24,1.91v2.6l-.1.88.59.64,1.42.34,1.71-.29.2-1.32-.2-1.27.2-1.03-.25-1.52.29-.49v-7.1l-.2-1.47.05-.64Z"/><path class="cls-2" d="m442.12,108.96l-.39-3.48v-3.67l.34-1.03.2-1.22-.54-1.96v-1.23l.2-.98-.39-1.71.39-2.01-.25-.78v-1.76l-.29-1.32.44-1.76-.15-.73.34-1.47-.15-1.71-.29-1.47v-1.47l-.44-1.27.39-2.11v-8.48l-.2-1.32v-3.43l-.15-.98v-4.02l1.03-1.37,3.28-.24,1.67.34.83-.29,2.01.29h3.04l1.13-.25,2.01.15h1.81l1.47-.2,2.01.15h3.14l2.35-.34.88.15h2.35l1.27-.1,1.03.69-.34,1.13.39,2.4-.49.59.59,2.5-.15,1.03.34,1.71-.29,1.27.2,1.32-.2,1.08.44,1.13-.78,1.57.59,2.5v2.94l.2.69-.25,1.32.39,1.91v2.74l-.34,1.91.29,3.09v1.08l-.29,1.27.54,1.81-.29,1.13.15,1.47v3.14l.2.39-.15,2.3.29,1.42-.29,1.22.29.88v5.05l-1.32.69-1.62.1-1.67.29-.54-.39-2.06.49h-5.98l-.73.2h-1.96l-1.18-.15-2.21.15h-2.84l-.39-.15-1.32.39-2.21-.15h-3.67l-.54.1-1.18-.88v-2.25Zm20.28-28.91l-1.22-.83-.64-.64-.78-.34-.25-.29-1.71-.74-.83.34-.69-.34-1.42-.2-1.81.74-.88.29-1.08.64-.64.49-1.08,1.13-.34.25-.64,1.37-.29.39-.25.64-.24,1.08-.54,1.67.1,1.37-.39.98.39,2.06-.15.54.25.83.74,1.67-.1.69.34,1.62.78.59,1.03,1.22.34.29.59.29.49.49,2.25.93,1.22-.15,1.03.25,1.52-.1,1.86-.69,1.42-.39,1.52-1.62.49.34-.25,1.03-.15,1.32-.29.39-.24,1.08.24.44-.15,1.18-.93,1.62h-.15l-.64.49-1.42.73h-2.5l-1.08.2-1.32-.69-.93-.25-.78-.44-.34-.29-.64-.93-.15-1.67-1.47-.54-.98-.15-1.13.54-.25,1.57.69,1.22.34,1.13.93,1.13,1.03,1.03,1.71.78,1.37.39.88.1,1.62-.25.29.34,1.96.25.49-.34,1.91-.49.93-.39.83-.2.54-.34.54-.2,1.57-1.81.54-1.81.2.1.34-1.18.1-1.18-.15-.74.1-.15.2-1.32-.39-.93.2-.54-.1-1.27.25-.49v-2.01l-.2-.74-.25-2.3.25-.44v-1.76l.2-1.47-.15-.98v-2.01l-.15-1.76.29-2.74-.2-1.18-1.13-.29h-1.62l-.39.29.1,1.62-.54.44Zm-11.56,8.23v-1.57l.49-2.06.78-2.06.64-.29.59-.74,1.32-.83h1.23l.69-.2,1.52.1,1.27.25,2.01.83,1.08.49.1.88-.34.49-.15.93.29,1.22-.29,1.42v.93l.2,1.27v1.32l-.15.64v1.18l.25,1.08.29.54-.34.59h-.83l-1.57.73-.64.29-1.57.29-1.18-.15-.44.15-1.37-.29-1.37-.73-.98-.88-.54-1.03-.49-2.21-.29.05-.49-1.81.29-.83Z"/></svg>