<?xml version="1.0" encoding="UTF-8"?><svg id="Layer_1" xmlns="http://www.w3.org/2000/svg" viewBox="0 0 253.08 184.8"><defs><style>.cls-1{fill:#f9ddcd;}.cls-1,.cls-2,.cls-3,.cls-4,.cls-5{stroke-width:0px;}.cls-2{fill:#dd8b6b;}.cls-3{fill:#8f3c27;}.cls-4{fill:#854430;}.cls-5{fill:#f4f4f4;}.cls-6{fill:#122b44;stroke:#122b44;stroke-miterlimit:10;stroke-width:.75px;}</style></defs><rect class="cls-2" width="253.08" height="184.8" rx="56.76" ry="56.76"/><path class="cls-1" d="m72.09,113.31c-.81-1.91-.3-3.59.42-5.5,1.93-5.12,4.02-10.12,7.02-14.72,6.85-10.48,16.45-17.94,26.96-24.33,8.54-5.19,17.84-8.46,27.67-10.21,5.46-.97,10.99-1.27,16.52-1.57,1.21,0,2.43,0,3.64-.02,3.1-.03,6.14,1.06,8.3,2.82,5.18,4.23,11.48,5.63,17.4,8.04.22.09.57-.15.86-.23.22.45.33,1.14.68,1.3,4.94,2.33,8.85,6.25,14.02,8.34,6.26,2.53,12.18,5.94,17.72,9.89,2.41,1.71,2.72,4.2.98,6.96-2.61,4.13-6.35,7.32-9.28,11.18-1.28,1.69-2.72,3.26-3.91,5.01-1.33,1.97-1.13,1.17-3.23.5-1.84-.59-1.17-2.04-2.95-3.2.15-6.09-4.41-9.84-8.06-14.04-2.66-3.05-5.7-5.77-8.56-8.65-.96-.96-1.9-1.6-3.08-.34-3.55,3.81-8.15,3.1-12.53,2.63-2.77-.3-5.52-1.19-8.18-2.13-1.84-.65-3.04-.28-4.18,1.18-1.59,2.04-3.28,4.01-5.4,6.58,3.94.13,7.17-.33,10.37-.29,2.49.03,4.35.75,4.65,2.78.81,5.39,3.06,10.77.61,16.33-3.3,7.48-8.57,12.91-16.29,15.73-3.42,1.25-6.61-.11-9.17-3.62-1.55-2.13-3.12-4.21-4.98-6.09-1.19-1.2-2.4-.98-3.12.02-3.2,4.42-8.07,6.34-12.68,8.56-4.75,2.29-9.25,4.95-13.7,7.74-3.25,2.05-5.53,1.2-6.64-2.33.38-1.61,1.56-2.73,2.44-4.03,1.78-.33,2.84-1.8,4.23-2.75.69-.48,1.64-1.18,1.07-2.22-.48-.88-1.41-.49-2.17-.24-1.14.37-2.19-.21-3.22-.46-2.52-.61-4.98-1.46-7.47-2.21-5.62-2.08-11.52-3.43-16.79-6.42Z"/><path class="cls-4" d="m180.88,67.59c-.29.09-.64.32-.86.23-5.91-2.4-12.22-3.81-17.4-8.04-2.16-1.76-5.2-2.85-8.3-2.82-1.21.01-2.43.01-3.64.02-.31-2.47,1.04-3.66,3.27-3.81,8.88-.58,17.75-2,26.68-.57,1.19.19,2.42.06,3.63.1,2.89.09,4.5,2.24,3.12,4.68-1.98,3.5-3.73,7.19-6.5,10.2Z"/><path class="cls-4" d="m96.45,127.61c-.88,1.3-2.06,2.42-2.44,4.03-6.16,3.75-12.83,5.01-20.01,4.68-4.06-.18-7.19-1.87-9.97-4.42-2.26-2.07-1.42-9.42,1.19-11.12,1.92-1.25,4.45-1.72,5.35.73,1.18,6.54-.5,8.56,6.6,8.51,4.94-.04,9.21-1.98,13.34-4.41,2.54-1.01,4.72-.91,5.94,2Z"/><path class="cls-3" d="m72.09,113.31c5.27,3,11.17,4.34,16.79,6.42.57,1.26-.05,2.4-.38,3.56-1.96.97-3.86.7-5.88.04-3.26-1.07-6.59-1.92-9.9-2.87-1.46-.08-2.63-.95-3.9-1.51-1.79-.78-3.17-1.98-2.43-4.18.7-2.06,2.43-2.13,4.24-1.78.49.09.98.21,1.47.32Z"/><path class="cls-4" d="m72.72,120.46c3.3.95,6.63,1.8,9.9,2.87,2.02.66,3.92.94,5.88-.03,1.09.41,1.61,1.31,2.02,2.31-4.13,2.44-8.4,4.38-13.34,4.41-7.1.05-5.82-.89-6.9-7.29,1.68.62,2.04-.72,2.45-2.26Z"/><path class="cls-5" d="m90.51,125.6c-.41-1-.93-1.9-2.02-2.31.33-1.17.95-2.3.38-3.56,2.49.75,4.95,1.6,7.47,2.21,1.03.25,2.08.83,3.22.46.76-.24,1.69-.64,2.17.24.57,1.04-.37,1.74-1.07,2.22-1.38.95-2.44,2.41-4.23,2.75-1.22-2.91-3.39-3.01-5.94-2Z"/><path class="cls-6" d="m86.87,81.35c5.14-4.39,9.84-8.55,15.21-11.83.43-.26.74-.61.83-1.18.83-5.08,3.47-9.46,5.58-14.04.34-.73.77-1.42,1.22-2.1.6-.92,1.43-1.59,2.55-1.14,1.34.54,1.23,1.8.93,2.88-.33,1.16-.92,2.24-1.44,3.34-1.25,2.64-2.52,5.28-3.95,8.27,2.01-.21,2.69-.94,3.21-2.54.99-3.07,2.38-6.02,3.71-8.97.56-1.24,1.47-2.42,3.07-1.59,1.38.71,1.13,2.04.66,3.22-.8,2-1.67,3.97-1.9,6.26,1.15-1.71,2.25-3.46,3.46-5.12.94-1.28,1.95-3.11,3.84-2.06,2.12,1.18.41,2.8-.25,4.48,2.7-.06,4.96-1.2,7.36-1.63,2.39-.43,4.77-.95,7.16-1.41,3.19-.61,6.16-1.07,9.17-3.06,4.82-3.19,10.86-3.75,16.57-4.56,7.05-.99,14.13-1.33,21.22-.17,6.01.99,7.37,3.11,5.15,8.71-1.15,2.91-2.5,5.76-3.92,8.56-.75,1.49-.45,2.2.9,3.18,4.08,2.96,8.53,5.06,13.33,6.48,6.52,1.94,12.38,4.92,17.16,9.92,2.49,2.6,3.41,5.01,1.38,7.81-5.17,7.14-10.4,14.27-16.66,20.52-2.23,2.23-4.28,1.52-6.07-1.44-4.14-6.83-7.46-14.19-12.77-20.29-.6-.69-1.18-1.4-1.81-2.05-3.88-3.97-3.91-3.99-8.13-.4-1.79,1.52-3.81,1.43-5.75.86-3.2-.94-6.54-1.42-9.58-2.89-2.84-1.37-5.06-.71-6.67,1.92,0,.51.38.58.63.53,7.81-1.65,11.37,3.82,12.16,11.65,1.43,14.08-5.37,23.76-18.9,28.07-4.03,1.28-6.23.53-8.6-2.95-5.31-7.77-5.36-7.78-13.46-2.95-6.79,4.06-13.77,7.74-21.09,10.78-2.92,1.22-5.82,1.75-8.82.48-.71-.3-1.33-.39-2.03-.05-5.84,2.83-12.03,2.34-18.21,1.93-10.06-.66-13.88-7.81-8.37-16.19,1.61-2.45.51-3.66-1.1-4.43-5.98-2.88-10.97-6.89-15.07-12.06-.67-.84-1.3-1.06-2.31-.46-.81.48-1.78.48-2.5-.32-.74-.82-.43-1.65-.02-2.53,1.14-2.45.48-3.51-2.25-3.68-2.48-.16-3.14-1.27-1.67-3.24,1.34-1.79.51-2.59-1.11-2.91-2.37-.46-2.93-1.42-1.6-3.53,1.22-1.94.25-3.42-1.39-4.55-1.89-1.3-2.96-3.06-3.03-5.33-.06-1.66.6-3.02,2.33-3.49,1.64-.45,2.96.09,3.94,1.54,1.21,1.77.99,3.9,1.6,5.81.44,1.36.37,2.94,2.57,3.16,1.63.16,1.99,1.55,1.1,3.01-1.36,2.24-.26,3.33,1.82,4,.47.15,1.34.48,1.34.5-1.19,3.64,3.43,4.52,3.56,7.5.01.29.07.64.24.86,3.83,4.82,8.21,9.03,14.05,11.31,2.2.86,2.36-1.69,3.41-2.72,1.04-1.02.43-1.77-.53-2.42-6.6-4.48-10.61-10.99-14.34-17.82-1.23-2.26-3.33-3.99-3.06-6.94.05-.56-.32-1.4-1.14-1.66-1.85-.58-1.75-1.72-1.27-3.34.66-2.24.06-4.39-1.75-5.98-.76-.67-1.45-1.37-1.04-2.29,1.42-3.17.48-6.27,0-9.4-.25-1.64-.28-3.32,1.47-4.27,1.08-.59,2.22-.49,3.1.37,1.36,1.32,1.86,3.01,1.04,4.72-1.23,2.56-2.15,4.82,1.43,6.3.93.39.88,1.45.35,2.39-1.67,2.95-1.32,4.27,1.59,6.28.85.59,1.36,1.43.82,2.33-1.24,2.07-1.26,3.54,1.39,4.33.9.27,1.3,1.25.94,1.99-.93,1.91.19,3.27.98,4.74,2.8,5.22,5.97,10.11,10.9,13.67,1.68,1.21,2.48,1.53,3.48-.7,2.29-5.1,5.17-9.88,8.64-14.27.75-.95,1.12-1.83.95-3.03-.54-3.75.82-7.64-.89-11.34-.36-.78.61-1.38,1.03-2.05,1.2-1.94,2.55-3.91.37-6.16-.79-.81-.81-2.24.26-2.63,3.69-1.34,3.35-4.78,4.24-7.56.25-.79.34-1.86,1.15-1.96,2.03-.24,3.1-1.79,4.52-2.86,1.19-.89,2.51-1.72,3.77-.35,1.31,1.42.31,2.59-.8,3.62-1.45,1.34-3.27,2.41-2.49,5,.26.86-.71,1.46-1.76,1.69-2.23.48-2.79,1.59-1.12,3.48,1.26,1.43.83,2.43-.94,3.22-2.21.98-2.4,2.48-.61,4.24,1.08,1.06,1.3,2.11.15,3.11-2.95,2.58-3.25,3.22-2.84,7.87Zm38.7,36.15c-.08-.25-.16-.5-.24-.75-.78-.09-1.57-.19-2.35-.27-1.47-.15-3.03-.37-2.98-2.29.06-2.08,1.75-2.27,3.31-2.27,1.84,0,3.66.37,5.27,1.28,4.45,2.52,8.56,5.45,11.42,9.83.44.68.87,1.39,1.42,1.97.97,1.02,2.2.59,3.08.02,1.27-.83-.04-1.54-.45-2.21-.69-1.12-1.54-2.14-2.22-3.26-.65-1.08-.59-2.18.54-2.93,1.21-.81,2.12-.16,2.86.79,1.19,1.52,2.15,3.27,3.55,4.54,1.91,1.74,2.99-.54,4.18-1.42,1.45-1.08.01-1.66-.74-2.2-1.65-1.18-3.36-2.28-4.99-3.47-1.01-.74-1.45-1.77-.65-2.9.7-.99,1.76-1.01,2.72-.46,1.41.8,2.76,1.7,4.1,2.61,3.89,2.63,4.12,2.56,5.62-1.86.07-.19.09-.4.17-.58.61-1.25.35-1.82-1.16-1.84-1.3-.02-2.6-.34-3.9-.51-1.6-.21-2.84-.89-2.5-2.71.34-1.85,1.82-1.5,3.16-1.3,1.2.18,2.41.34,3.61.42,2.97.2,1.78-2.01,1.84-3.37.06-1.49-.39-2.62-2.34-2.08-1.56.43-3.15.75-4.75,1.01-1.15.19-2.33.07-2.66-1.36-.35-1.54.67-2.22,1.93-2.61.87-.27,1.79-.36,2.66-.63.94-.3,2.67.06,2.48-1.41-.19-1.42-1.83-1.34-3.05-1.29-4.26.15-8.48.77-12.66,1.55-1.4.26-2.81.54-3.28-1.12-.51-1.81.81-2.63,2.35-2.81,2.49-.29,4.31-1.39,5.63-3.56.61-1.01,1.73-1.7,2.53-2.62,2.86-3.28,6.28-3.68,10.2-2.26,2.66.97,5.47,1.54,8.07,2.65,3.05,1.3,4.61-.09,6.03-2.52-3.58-2.15-7.22-2.42-11.03-1.65-1.47.3-2.99.2-3.34-1.68-.35-1.91,1.13-2.54,2.55-2.74,4.36-.59,8.67-.63,12.81,1.35,6.92,3.32,11.7,8.9,16.16,14.88,3.16,4.25,5.17,9.19,8.18,13.51.47.67.43,2.91,2.37,1.59,1.91-1.3.54-2.3-.34-3.39-1.53-1.89-3.2-3.68-4.23-5.92-.52-1.15-.44-2.24.72-2.92,1.24-.73,2.09-.02,2.81.97,1.13,1.56,2.24,3.13,3.44,4.63.47.58.81,1.77,1.64,1.46.74-.28,1.34-1.22,1.76-1.99.66-1.21-.64-1.49-1.23-2.06-.96-.91-1.99-1.73-2.95-2.63-1.07-1-2.23-2.15-.84-3.59,1.37-1.42,2.58-.25,3.68.66.94.78,1.81,1.64,2.79,2.36.73.54,1.45,1.66,2.53.4,1.05-1.22.05-1.83-.73-2.44-1.11-.88-2.3-1.67-3.45-2.49-.99-.7-1.74-1.56-1.04-2.79.68-1.22,1.96-1.17,2.95-.65,1.51.79,2.87,1.88,4.3,2.83.61.41,1.19,1.43,1.98.34.51-.7,1.14-1.54.11-2.39-2.96-2.44-5.39-5.72-9.24-6.79-10.9-3.01-20.2-9.22-30.01-14.44-10.55-5.61-21.62-9.46-33.83-7.59-30.62,4.68-54.38,19.06-67.73,48.11-.62,1.35-.55,1.88.81,2.51,3.68,1.7,7.38,3.39,10.92,5.34,5.97,3.3,12.22,4.68,19.03,3.8,1.99-.26,4.7-.71,5.29,2.13.59,2.85-1.98,3.62-4,4.55-.27.13-.57.23-.86.28-2.74.52-4.75,2.23-6.7,4.05,9.55-3.35,18.37-8.11,26.92-13.41Zm28.31-62.23c6.92.92,13.2,3.73,19.61,6.2,2.75,1.06,5.53,4.72,8,2.98,2.3-1.61,3.04-5.53,4.3-8.51.36-.86,1.77-2.39-.45-2.82-1.65-.32-3.72-1.9-4.71,1.18-.52,1.62-1.39,3.14-2.24,4.63-.56.99-1.56,1.32-2.62.81-.99-.47-1.15-1.44-.89-2.35.3-1.06.89-2.03,1.24-3.08.24-.72,1.34-1.66-.05-2.2-.96-.37-2.01-.17-2.52,1.04-.39.93-.84,1.84-1.3,2.74-.63,1.23-1.42,2.4-3.04,1.72-1.49-.62-1.2-1.92-.84-3.13.19-.64.81-1.2.23-2.13-4.92.45-9.88,1.08-14.72,2.93Zm-83.89,66.23c-1.38,1.11-1.81,2.38-2.25,3.58-1.55,4.18-.33,6.35,4.09,7.13,2.28.4,4.61.69,6.93.71,4.95.05,9.83-.35,13.77-3.99-4.52.97-9.06,1.83-13.66,2.25-7.01.64-10.06-2.6-8.88-9.68Zm17.29,3.95c-3.75-1.04-6.8-1.91-9.87-2.73-1.71-.46-3.43-.38-3.65,1.78-.23,2.22,1.63,2.52,3.29,2.54,3.23.03,6.37-.66,10.23-1.58Zm-6.88-6.35l.21-.58c-2.69-1.29-5.38-2.6-8.09-3.85-1.01-.47-2.35-1-2.84.43-.47,1.37.99,1.93,1.96,2.17,2.89.73,5.84,1.23,8.76,1.83Z"/><path class="cls-6" d="m132.61,65.11c1.21.06,2.45.25,2.61,1.85.2,1.99-1.4,2.39-2.77,2.54-6.48.69-12.3,3.31-18.07,6.04-3.02,1.42-5.86,3.21-8.81,4.78-1.03.55-2.25.84-3.01-.31-.82-1.24-.25-2.39.91-3.12,8.81-5.52,17.97-10.21,28.46-11.68.2-.03.4-.06.68-.1Z"/><path class="cls-6" d="m114.72,99c-.05,1.07-.07,2.26-1.59,2.43-1.36.15-2.05-.63-2.37-1.85-.36-1.37-.59-2.79-1.09-4.1-.67-1.71-1.45-3.41-3.83-3.22-1.16.09-1.99-.55-2.05-1.76-.06-1.2.83-1.79,1.84-2.13,2.09-.71,3.79.17,5.26,1.52,2.63,2.42,3.41,5.65,3.83,9.11Z"/><path class="cls-6" d="m78.41,106.74c.86-2.38,2.02-4.6,3.64-6.56.65-.78,1.54-.98,2.46-.5,1,.52,1.1,1.6.72,2.38-1.09,2.26-2.32,4.45-3.62,6.59-.46.76-1.38.83-2.18.47-1.01-.46-.94-1.44-1.02-2.38Z"/><path class="cls-6" d="m96.48,108.71c-2.16-.25-3.33-1.33-3.32-3.34.02-2.13,1.18-3.4,3.37-3.4,2.18,0,3.39,1.21,3.3,3.39-.09,2.15-1.44,3.16-3.35,3.35Z"/><path class="cls-6" d="m99.39,117.79c-1.15.07-1.95-.04-2.33-.93-.34-.8-.31-1.68.41-2.22,1.8-1.33,3.78-2.31,6.09-2.34.74-.01,1.44.25,1.69,1.02.26.82.15,1.67-.61,2.18-1.69,1.12-3.59,1.78-5.25,2.28Z"/><path class="cls-6" d="m119.46,95.22c-.06,1.2.16,2.67-1.46,2.92-1.75.27-2.18-1.08-2.38-2.48-.01-.1-.05-.2-.07-.3-.3-1.34-1.16-2.75.17-3.97.55-.51,1.36-.49,2.01-.12,1.55.87,1.69,2.4,1.74,3.95Z"/><path class="cls-6" d="m88.61,94.79c-1.64.04-2.31-.68-2.27-1.82.07-1.77.98-3.12,2.79-3.39,1.14-.17,1.99.67,1.9,1.82-.14,1.69-.99,3-2.42,3.39Z"/><path class="cls-6" d="m112.1,110.82c-1.16-.05-1.91-.6-1.91-1.84,0-1.49.99-2.21,2.29-2.36,1.1-.13,2.02.35,2.09,1.65.1,1.69-1.07,2.23-2.48,2.55Z"/><path class="cls-6" d="m95.65,86.6c-.07,1.32-.8,2.11-2.07,2.2-1.15.08-2.04-.52-2.03-1.75,0-1.41.89-2.3,2.27-2.37,1.19-.07,1.84.69,1.83,1.93Z"/><path class="cls-6" d="m147.42,64.96c-.05,1.3-.73,2.11-2.01,2.09-1.2-.02-1.7-.91-1.65-2.05.05-1.15.63-1.89,1.83-1.91,1.23-.02,1.77.71,1.83,1.87Z"/><path class="cls-6" d="m140.18,65.85c-.05,1.07-.62,1.67-1.68,1.62-.91-.04-1.46-.59-1.47-1.53,0-1.08.59-1.67,1.66-1.63.93.03,1.41.61,1.48,1.54Z"/></svg>