<?xml version="1.0" encoding="UTF-8"?><svg id="Layer_1" xmlns="http://www.w3.org/2000/svg" viewBox="0 0 253.08 184.8"><defs><style>.cls-1{fill:#122b44;}.cls-1,.cls-2,.cls-3,.cls-4,.cls-5,.cls-6,.cls-7{stroke-width:0px;}.cls-2{fill:#923c27;}.cls-3{fill:#92a1c9;}.cls-4{fill:#ef7a58;}.cls-5{fill:#fadece;}.cls-6{fill:#f07a59;}.cls-7{fill:#f5f5f5;}</style></defs><rect class="cls-3" x="0" width="253.08" height="184.8" rx="56.76" ry="56.76"/><path class="cls-4" d="m174.57,124.31c.62.93,1.18,1.91,1.87,2.79,1.21,1.53,1.85,3.02.25,4.68-.06.06.08.31.12.47,0,0-.07-.01-.07-.01-.46-.25-.73-.03-.92.38l.03-.02c-.23.02-.36.14-.38.38l.02-.02c-1.53.55-3.32.86-2.88,3.19-.62,1.59-1.46,2.96-3.26,3.44-.49.13-.71.61-.94,1.02-.27.48-.61.74-1.18.93-3.86,1.34-6.19,2.52-6.56,7.62-.21-.28-.57-.54-.62-.84-.6-3.84-3.85-5.68-6.23-8.13-2.11-2.17-4.51-4.04-6.78-6.05.06-.07.12-.14.18-.21,3.84.08,5.84-2.69,7.95-5.22.76-.92.74-2.07-.35-2.81-1.09-.73-1.95-.22-2.74.72-1.29,1.54-2.63,3.04-4.57,3.86-1.23.52-1.56,1.54-1.04,2.79-.07.07-.14.13-.21.2-2.84-2.29-5.12-5.16-7.79-7.62-2.74-2.52-6.34-3.77-9.1-6.25-.22-.2-.52-.36-.81-.16-1.9,1.33-3.14-.04-4.37-1.12-6.2-5.48-10.55-12.23-13.59-19.88-.33-.82-.71-1.62-1.07-2.43-.12-.41-.25-.82-.37-1.24-.1-.21-.07-.51-.4-.56l.03.03c.29-.74-.08-1.39-.27-2.07-1.16-4.08-2.7-8.01-4.61-11.81-.85-1.69-1.48-3.5-2.09-5.29-.45-1.32-.03-2.46,1.4-2.79,1.36-.31,1.64-1.13,1.62-2.32-.02-.95,0-1.92.1-2.86.12-1,.58-1.84,1.68-2.07,1-.21,1.78.25,2.26,1.07.65,1.12,1.64,1.64,2.72,2.31,6.51,3.99,13.12,7.79,19.83,11.42.13.07.19.28.29.42-2.9-.08-3,0-3.54,2.94-.22,1.17-.47,2.33-.66,3.5-.21,1.26.13,2.34,1.46,2.68,1.37.35,2.06-.72,2.21-1.78.35-2.43,1.45-4.82.53-7.34,2.94,1.37,5.42,3.42,7.92,5.41,3.9,3.1,7.32,6.67,10.02,10.88,1.02,1.59,1.64,3.26,2.02,5.21.43,2.22,1.77,4.39,3.91,5.78,3.45,2.25,6.71,4.76,9.6,7.72-.92.12-1.95-.03-2.49,1.02-.77,1.49-1.96,2.67-2.97,3.97-.78,1.01-1.25,2.13-.05,3.14,1.18.99,2.23.44,3.07-.56,1.03-1.22,1.98-2.51,2.99-3.75.63-.78.92-1.64.8-2.63,1.8,1.75,3.6,3.5,5.4,5.25-1.99,1.87-3.74,3.99-5.97,5.6-1.08.78-1.84,1.7-.88,2.96.92,1.2,2.09.9,3.14.07,2.29-1.81,4.38-3.85,6.34-6.01Zm-44.64-12.9l.05.05c.06.76-.13,1.53.24,2.28.52,1.03,1.35,1.56,2.43,1.44.97-.11,1.66-.81,1.76-1.78.11-1.07-.47-2.51-1.34-2.44-2.48.22-2.8-1.54-3.49-3.08-.09-.21-.26-.4-.42-.57-2.5-2.74-5.62-4.57-8.96-6.07-.89-.4-1.7-.09-2.22.64-.5.71-.27,1.5.22,2.17.48.63,1.19.96,1.89,1.3,2.55,1.22,4.89,2.71,6.56,5.07.82,1.16,1.89,1.57,3.25,1Zm4.11-23.6c-1.26,0-2.03,1.19-1.7,2.6.61,2.65,1.84,5.02,3.45,7.18.68.91,1.48,1.71,2.49,2.27,1.05.58,2.08.72,2.83-.41.73-1.1.34-2.09-.7-2.75-1.47-.94-2.38-2.32-3.1-3.83-.59-1.23-1.11-2.5-1.6-3.77-.32-.84-.96-1.15-1.67-1.28Zm-17.77,9.38c1.11-.17,2.23-.28,3.32-.52.97-.22,1.54-.84,1.43-1.92-.11-1.08-.76-1.63-1.77-1.59-1.53.06-3.07.15-4.58.41-1.23.21-1.71,1.93-.88,2.85.66.73,1.56.77,2.48.78Zm-7.76-21.28c-1.38.14-1.55,1.36-1.54,2.68.01,1.65,1.42,3.38,2.64,3.31,1.07-.06,2.44-1.73,2.42-2.96-.01-1.44-1.72-3.06-3.52-3.03Zm41.48,41.18c-.02,1.68.4,2.81,1.98,2.94,1.45.12,3.09-1.66,3.05-3.16-.04-1.62-1.03-2.63-2.55-2.59-1.5.05-2.49,1.29-2.48,2.81Zm-36.6-44.41c-1.22,0-2.07.9-2.08,2.2,0,1.54,1.41,3.2,2.77,3.24,1.31.04,2.24-.97,2.26-2.45.02-1.61-1.34-2.99-2.95-2.98Zm33.85,47.37c-1.31.04-2.28,1.11-2.26,2.47.02,1.22,1.23,2.47,2.37,2.45,1.13-.01,2.32-1.36,2.26-2.56-.06-1.4-1.08-2.41-2.37-2.37Zm12.71,16.16c1.12-.11,1.88-.84,1.93-2.26.04-1.37-1.06-2.75-2.28-2.69-1.4.07-2.12,1-2.26,2.32-.14,1.36,1.04,2.61,2.61,2.63Zm-15.15-31.93c1.13-.14,2.04-.51,2.04-1.92,0-1.29-.56-1.99-1.89-2.07-1.38-.09-2.25.62-2.35,1.88-.1,1.35.92,1.93,2.19,2.12Z"/><path class="cls-2" d="m114.24,44.43c2.4-.65,4.93-.93,7.27-.43,2.57.55,5.4,1.1,7.14,3.51.38.52.68.57,1.28.53,1.58-.11,2.33.81,1.87,2.36-.25.84-.1,1.21.6,1.74,1.76,1.34,2.58,3.24,2.73,5.42.11,1.63-.57,2.9-2.18,3.79,1.88.82,2.6,2.29,3.09,3.9.86,2.82,1.38,5.68.74,8.64-.44,2.04-1.52,3.61-3.31,4.67-1.2.71-2.29.48-2.81-.81-1.73-4.33-2.83-8.78-1.35-13.43.56-1.74-.6-3.01-1.25-4.21-1.36-2.54-2.23-4.96-.87-8.05-2.29.62-4.32.98-6.37,1.19-2.14.22-4.28.38-6.42-.04-1.76-.34-3.22-1.2-4.44-2.5-.68-1.8.13-3.28,1.03-4.75,1.23-.21,2.15-1.06,3.25-1.54Zm13.02,7.55c-.06.03-.12.07-.19.11.03.04.08.11.1.1.07-.02.14-.07.21-.1-.04-.03-.07-.07-.12-.11Z"/><path class="cls-6" d="m110.99,45.97c-.9,1.46-1.71,2.94-1.03,4.75-.83.41-1.69.68-2.18,1.66-.39.79-1.34.84-2.23.75-4.03-.42-7.77-1.76-11.36-3.54-.98-.49-1.68-1.25-1.31-2.43.36-1.15,1.29-1.51,2.42-1.3.63.12,1.16-.07,1.74-.24.87-.26.9-1.03,1.11-1.69.26-.84-.47-1-.95-1.26-1.33-.73-2.68-1.42-2.64-3.25,0-.37-.3-.54-.58-.57-1.54-.21-2.65-1.19-3.88-2-.75-.5-1.34-1.06-1.25-1.99.1-1.09.84-1.69,1.84-1.94,2.31-.57,4.64-.33,6.92.11,5.97,1.17,10.8,4.58,15.53,8.13.92.69,1,1.7.61,2.75-.62.28-1.18.82-1.92.7-1.49-.25-1.22.5-.82,1.36Z"/><path class="cls-2" d="m160.68,149.16c.37-5.1,2.7-6.28,6.56-7.62.57-.2.91-.45,1.18-.93.23-.41.45-.89.94-1.02,1.8-.48,2.64-1.85,3.26-3.44,1.51-.56,2.71-1.41,2.88-3.19,0,0-.02.02-.02.02.31.06.48-.03.38-.38,0,0-.03.02-.03.02.45.23.63-.22.92-.38,0,0,.07.01.07.01,2.35-.86,4.82-.56,7.24-.73,1.35-.1,2.44.91,2.09,2.39-.51,2.13-.75,4.38-3.74,5.01-1.54.32-3.1,1.45-3.42,3.66-.38,2.63-2.27,3.9-4.89,4.05-1.73.1-3.08,1.09-3.99,2.48-1.45,2.22-3.48,3.25-6.02,3.17-1.89-.06-3.01-1.27-3.4-3.12Z"/><path class="cls-6" d="m67.9,54.7c0-.42,0-.84,0-1.25.03-1.09.56-1.84,1.62-2.08,1.09-.25,1.88.33,2.31,1.26.65,1.41,1.33,2.82,1.73,4.31.44,1.62,1.65.78,2.47.9.82.12.33-.79.49-1.22.14-.39.11-.92.36-1.16.79-.75,1.13-1.5.8-2.63-.2-.7.26-1.38.98-1.74.78-.39,1.51-.26,2.16.29.76.65,1.12,1.54,1.43,2.44,1.22,3.53,1.76,7.2,1.7,10.9-.03,2.01-1.06,3.73-3.07,4.59-1.1.48-2.02,1.16-3.42,1.21-1.78.07-2.8-.57-3.71-1.87-2.95-4.23-5.72-8.54-5.85-13.95Z"/><path class="cls-2" d="m109.17,94.77c.12.41.25.82.37,1.24-.45,1.84-1.7,2.41-3.46,2.2-.46-.06-1.01-.26-1.39.08-1.57,1.36-3.26.92-4.89.31-3.51-1.32-7.27-1.9-10.63-3.64-2.15-1.12-3.74-2.74-4.58-5.04-.46-1.25-.46-2.48.57-3.49,1.05-1.02,2.27-.95,3.49-.38,1.79.84,3.58,1.73,4.67,3.48.47.76.95.8,1.75.63,2.95-.63,5.86-1.39,8.93-.41,2.02.64,3.68,1.4,4.01,3.74.07.48.28.77.8.77,0,0-.03-.03-.03-.03.13.19.26.37.4.56Z"/><path class="cls-2" d="m84.86,80.07c-.08,1.21-.34,2.34.18,3.54.35.81-.22,1.61-1.01,2.08-.79.48-1.63.5-2.35-.07-3.67-2.92-5.32-6.79-5.1-11.42.07-1.48.75-2.76,2.48-3.08,1.64-.3,2.73.43,3.58,1.74,1.43,2.21,2.16,4.62,2.22,7.21Z"/><path class="cls-2" d="m174.57,124.31c-1.96,2.16-4.05,4.2-6.34,6.01-1.04.82-2.22,1.12-3.14-.07-.97-1.26-.2-2.19.88-2.96,2.23-1.61,3.99-3.73,5.97-5.6,2.27-.16,2.66.24,2.63,2.62Z"/><path class="cls-2" d="m166.54,116.44c.12,1-.17,1.86-.8,2.63-1.01,1.24-1.96,2.53-2.99,3.75-.84,1-1.89,1.55-3.07.56-1.2-1.01-.73-2.13.05-3.14,1.01-1.31,2.2-2.48,2.97-3.97.54-1.05,1.56-.91,2.49-1.02.61.21,1.04.63,1.35,1.19Z"/><path class="cls-5" d="m110.99,45.97c-.4-.86-.67-1.61.82-1.36.74.13,1.29-.42,1.92-.7.17.17.34.34.51.51-1.1.48-2.02,1.34-3.25,1.54Z"/><path class="cls-4" d="m146.66,133.81c-.13-.11-.26-.22-.39-.33.07-.07.14-.14.21-.2.12.12.24.24.35.36-.06.06-.12.12-.17.17Z"/><path class="cls-4" d="m147.05,134.14c-.13-.11-.26-.22-.39-.33.06-.06.12-.12.17-.17.13.1.27.2.4.3-.06.07-.12.14-.18.21Z"/><path class="cls-2" d="m129.93,111.42c-1.36.57-2.43.16-3.25-1-1.67-2.36-4.02-3.85-6.56-5.07-.7-.34-1.41-.67-1.89-1.3-.5-.66-.72-1.46-.22-2.17.52-.73,1.33-1.04,2.22-.64,3.34,1.5,6.46,3.33,8.96,6.07.16.18.33.36.42.57.69,1.55,1.01,3.3,3.49,3.08.87-.08,1.45,1.36,1.34,2.44-.1.97-.79,1.67-1.76,1.78-1.09.12-1.92-.4-2.43-1.44-.38-.75-.18-1.52-.24-2.28.05-.07.11-.14.16-.2-.07.05-.14.1-.21.15Z"/><path class="cls-2" d="m134.04,87.81c.71.13,1.35.44,1.67,1.28.49,1.27,1.01,2.54,1.6,3.77.72,1.52,1.63,2.89,3.1,3.83,1.04.66,1.43,1.65.7,2.75-.74,1.12-1.77.99-2.83.41-1.01-.56-1.81-1.36-2.49-2.27-1.62-2.17-2.84-4.53-3.45-7.18-.33-1.41.44-2.61,1.7-2.6Z"/><path class="cls-2" d="m147.23,133.93c-.13-.1-.27-.2-.4-.3-.12-.12-.24-.24-.35-.36-.52-1.25-.19-2.27,1.04-2.79,1.94-.82,3.28-2.32,4.57-3.86.79-.94,1.65-1.45,2.74-.72,1.09.73,1.11,1.89.35,2.81-2.1,2.54-4.11,5.3-7.95,5.22Z"/><path class="cls-2" d="m131.72,80.26c.92,2.52-.18,4.92-.53,7.34-.15,1.06-.84,2.12-2.21,1.78-1.32-.34-1.67-1.42-1.46-2.68.2-1.17.45-2.33.66-3.5.54-2.93.64-3.01,3.54-2.94,0,0,0,0,0,0Z"/><path class="cls-2" d="m116.27,97.19c-.92,0-1.82-.05-2.48-.78-.83-.92-.35-2.64.88-2.85,1.51-.26,3.05-.35,4.58-.41,1.01-.04,1.66.51,1.77,1.59.11,1.09-.47,1.71-1.43,1.92-1.09.24-2.21.35-3.32.52Z"/><path class="cls-2" d="m108.51,75.91c1.8-.03,3.51,1.59,3.52,3.03.01,1.23-1.36,2.9-2.42,2.96-1.22.07-2.62-1.66-2.64-3.31-.01-1.31.16-2.54,1.54-2.68Z"/><path class="cls-2" d="m149.99,117.09c0-1.52.99-2.76,2.48-2.81,1.51-.05,2.51.97,2.55,2.59.03,1.5-1.61,3.28-3.05,3.16-1.58-.13-2-1.26-1.98-2.94Z"/><path class="cls-2" d="m113.38,72.68c1.61,0,2.98,1.38,2.95,2.98-.02,1.48-.96,2.49-2.26,2.45-1.35-.04-2.77-1.7-2.77-3.24,0-1.29.86-2.19,2.08-2.2Z"/><path class="cls-2" d="m147.24,120.05c1.29-.04,2.31.97,2.37,2.37.06,1.2-1.13,2.55-2.26,2.56-1.14.01-2.35-1.24-2.37-2.45-.02-1.37.96-2.43,2.26-2.47Z"/><path class="cls-2" d="m159.95,136.21c-1.57-.02-2.74-1.27-2.61-2.63.13-1.32.86-2.25,2.26-2.32,1.22-.06,2.32,1.32,2.28,2.69-.05,1.42-.8,2.16-1.93,2.26Z"/><path class="cls-2" d="m144.8,104.29c-1.28-.18-2.3-.77-2.19-2.12.09-1.26.97-1.96,2.35-1.88,1.32.08,1.89.78,1.89,2.07,0,1.41-.91,1.79-2.04,1.92Z"/><path class="cls-5" d="m175.5,132.96c-.17,1.78-1.37,2.62-2.88,3.19-.44-2.33,1.35-2.64,2.88-3.19Z"/><path class="cls-5" d="m176.74,132.24c-.29.16-.46.61-.92.38.19-.41.45-.63.92-.38Z"/><path class="cls-5" d="m175.86,132.6c.1.35-.07.44-.38.38.02-.24.15-.36.38-.38Z"/><path class="cls-7" d="m109.17,94.77c-.13-.19-.26-.37-.4-.56.33.04.3.35.4.56Z"/><path class="cls-7" d="m127.26,51.98s.08.08.12.11c-.07.04-.13.09-.21.1-.02,0-.07-.07-.1-.1.07-.04.13-.08.19-.11Z"/><path class="cls-4" d="m129.93,111.42c.07-.05.14-.1.21-.15-.05.07-.11.14-.16.2,0,0-.05-.05-.05-.05Z"/><path class="cls-1" d="m75.37,54.41c.62-1.27.65-2.52.85-3.74.22-1.38.15-3,1.97-3.45,1.66-.41,2.45.84,3.36,1.87,5.38,6.1,6.47,12.96,3.62,20.51-.21.56-.21.95.19,1.45,2.23,2.76,2.57,5.99,2,9.33-.26,1.52.02,2.39,1.67,2.5.17.01.34.11.51.17,2.8.94,2.77.94,3.7-2,.95-3.02,1.93-6.03,2.99-9.01.32-.91.32-1.51-.47-2.16-.87-.72-1.65-1.56-2.38-2.43-.68-.8-.9-1.79-.04-2.57.84-.76,1.8-.51,2.58.2.89.8,1.71,1.67,2.57,2.5,1.46,1.41,3.21,2.21,5.2,2.53.49-1.74-.26-3.37-.5-5.04-.19-1.35-1.19-2.32-1.71-3.52-.31-.71-.68-1.4-.86-2.15-.18-.76.18-1.4.91-1.77.68-.34,1.33-.18,1.82.31.45.46.81,1.03,1.13,1.6,1.42,2.52,1.42,2.58,4.16,2.02,4.68-.96,9.32-2.06,14.01-2.94,1.68-.31,1.14-1.3,1.08-2.23-.08-1.26-.9-.76-1.56-.65-3.66.63-7.12-.2-10.5-1.5-.71-.27-1.28-.28-2.03-.17-8.76,1.36-16.39-1.13-22.96-6.98-.86-.76-1.28-1.77-.77-2.91.55-1.21,1.66-1.3,2.76-1.09,2.15.41,4.21.1,6.46-.45-2.08-2.69-4.67-4.2-7.51-5.38-.94-.39-1.88-.76-2.78-1.24-.78-.41-1.24-1.1-1.2-2.04.05-.95.6-1.52,1.4-1.91,7.97-3.91,20.27-1.57,26.24,4.98.24.26.57.51.68.82,1.1,3.2,3.34,3.44,6.36,3.05,4.97-.64,8.73,1.8,11.6,5.71.33.45.67.8,1.23.95,3.1.84,4.87,2.91,5.34,6.04.19,1.25.53,1.67,1.95,1.36,8.13-1.75,16.3-3.17,24.67-2.65,2.86.18,5.71.44,8.56.73.64.06,1.29.29,1.86.58,1.03.52,1.53,1.4,1.09,2.52-.41,1.06-1.34,1.26-2.38,1.08-9.22-1.57-18.42-1.47-27.6.25-2.29.43-4.57.88-6.87,1.23-1.39.22-1.62,1.06-.97,2,3.8,5.51,2.87,11.33,1.19,17.19-.41,1.44.84,3.47,2.34,3.41.8-.04,1.48-.36,1.17-1.5-.41-1.55-.5-3.2-1-4.72-.58-1.75-.04-2.83,1.58-3.36,1.5-.49,1.71-1.29,1.2-2.7-.44-1.22-.83-2.49-.84-3.83-.01-.97.18-1.85,1.28-2.05,1.07-.19,1.73.47,2,1.4.65,2.17,1.25,4.36,1.79,6.56.37,1.52-.55,2.42-1.83,2.87-1.41.49-1.6,1.36-1.24,2.63.29,1.03.49,2.09.76,3.13.39,1.49.4,2.87-1.14,3.76-.76.44-.62.81-.06,1.34.9.87,1.76,1.79,2.56,2.75,1.52,1.84,2.95,2.01,5.06.69.78-.49.61-1.07.47-1.7-.37-1.69-.79-3.37-1.15-5.06-.45-2.08.08-3.17,2.08-3.91,1.17-.43,1.54-.93,1.19-2.23-.82-2.99-1.46-6.03-2.15-9.06-.27-1.17-.29-2.42,1.12-2.8,1.45-.39,2.05.72,2.34,1.88.95,3.88,1.83,7.78,2.75,11.68.42,1.8-.8,2.53-2.11,3.02-1.32.49-1.73,1.15-1.26,2.54.44,1.29.57,2.68.89,4.02.57,2.33.33,3.08-1.67,4.33-.75.47-1.57.94-2.42,1.12-1.6.33-1.45,1.02-.79,2.18,1.26,2.23,2.5,4.49,3.56,6.82.7,1.54,1.73.96,2.83.85,1.27-.13,1.37-.88,1.3-1.86-.13-1.97-.33-3.93-.33-5.9,0-3.13.7-4.99,3.66-5.41,1.09-.15,1.06-.91.91-1.74-.36-2-.75-3.99-1.03-5.99-.14-1.03-.05-2.17,1.27-2.39,1.38-.23,1.93.81,2.15,1.91.5,2.58.98,5.16,1.32,7.76.28,2.18-.33,3.13-2.54,3.55-1.89.36-2.4,1.21-2.16,3.03.26,1.95.28,3.93.33,5.9.07,3.22-.58,3.99-3.72,4.57-.45.08-.98-.01-1.36.55,3.05,1.67,5.58,3.86,6.94,7.15.19.46.62.49,1.04.54,3.18.41,5.37,2.17,6.67,5.04.39.87.92,1.42,1.79,1.84,2.72,1.3,4.47,3.38,4.61,6.51.04.96.33,1.33,1.31,1.46,1.77.22,3.54.55,5.27.98,2.37.59,3.3,1.94,2.94,4.35-.5,3.35-2.12,6.2-4.49,8.57-.72.72-1.37,1.42-1.9,2.3-1.85,3.05-4.07,5.64-7.97,5.97-.7.06-.93.7-1.31,1.14-2.65,3.06-8.14,3.82-11.45,1.53-1.96-1.36-2.41-3.48-2.64-5.65-.08-.73-.19-1.22-1.05-1.37-2.95-.52-4.47-2.6-5.33-5.23-.38-1.16-.75-1.84-2.14-2.15-2.49-.55-4.09-2.34-4.98-4.73-.18-.48-.11-1.07-.81-1.27-2.52-.71-4.12-2.61-5.53-4.62-.92-1.31-2.18-1.85-3.51-2.56-2.81-1.51-5.43-1.21-8.17,0-.87.38-1.83.53-2.73.85-2.5.87-4.7.67-6.28-1.73-.68-1.03-1.33-1.16-2.48-.49-2,1.17-4.17,2.06-6.25,3.11-1.03.52-1.98.36-2.87-.25-1.92-1.32-3.82-2.66-5.7-4.04-.94-.69-1.58-1.65-.83-2.76.78-1.16,1.87-.73,2.86-.16.36.21.75.42,1.02.72,2.8,3.17,5.84,3.23,9.11.78.14-.11.33-.15.48-.24,4.77-2.82,4.84-2.1,7.53,1.21.48.58.98.8,1.71.56,1.23-.4,2.48-.77,4.02-1.24-2.85-1.99-5.44-3.87-7.69-6.16-.54-.55-.97.03-1.4.28-1.48.88-2.78,2.07-4.49,2.55-1.29.36-2.24.13-3.07-1.07-1.68-2.44-1.75-2.39-4.56-1.22q-4.22,1.77-7.37-1.51c-.82-.86-1.62-1.76-2.36-2.69-.75-.94-1.3-2.09-.16-3.01,1.03-.84,2.03-.2,2.82.65.94,1.01,1.86,2.03,2.76,3.06.63.72,1.27.93,2.2.47,1.17-.59,2.47-.9,3.56-1.66,1.05-.73,1.99-.66,2.88.27.62.65,1.32,1.23,1.86,1.94.67.86,1.24,1.01,2.23.37,2.28-1.46,2.3-1.39.82-3.73-.86-1.36-1.31-3.31-2.53-4.03-1.32-.79-2.61,1.16-4.05,1.61-2.74.85-2.72.88-4.6-1.44-.44-.54-.84-1.29-1.73-.8-3.09,1.69-5.48.48-7.63-1.8-.3-.32-.61-.75-1.32-.75-.52,3.34-.83,6.71-.92,10.09-.22,8.36-.37,16.73.34,25.09.3,3.51.58,7.02,1.6,10.43.35,1.17.43,2.38-.92,2.9-1.43.55-2.26-.41-2.75-1.61-.98-2.41-1.2-5-1.45-7.54-1.39-14.38-1.37-28.75.94-43.06.22-1.35-.01-1.96-1.51-2.33-3.59-.9-6.25-4.44-6.59-8.52-.08-.99-.46-1.56-1.16-2.22-3.68-3.47-6.8-7.27-6.52-12.78.03-.51-.09-.89-.5-1.25-7.46-6.59-8.63-14.87-6.4-24.03.34-1.39.79-2.75,1.28-4.1.42-1.14,1.16-1.98,2.54-1.84,1.4.14,1.85,1.19,2.05,2.36.38,2.24.62,4.5,1.49,6.62.4.98.82,1.96,1.68,2.82Zm76.4,50.45c-.9-2.78-2.58-5.13-3.78-7.71-3.55-7.64-9.48-12.89-16.75-16.81-7.66-4.13-15.7-7.56-22.96-12.41-.18-.12-.42-.15-.79-.29.16,1.74.46,3.36-.2,4.89-.84,1.96-2.54,1.74-4.38,1.41.6,1.35,1.12,2.48,1.6,3.62,3.25,7.63,6.02,15.44,8.94,23.19,3.44,9.15,9.52,15.88,18.6,19.74,2.56,1.09,2.57,1.05,3.52-1.6.2-.56.42-1.13.72-1.64,3.56-6.08,7.81-11.31,15.49-12.41Zm22.58,24.05c.4-2.03.05-3.62-1.57-4.78-.76-.54-1.3-.59-1.89.3-1.24,1.84-2.82,3.4-4.5,4.84-.9.78-1.98,1.38-2.99.24-.94-1.05-.25-2.02.52-2.84,1.1-1.18,2.31-2.25,3.37-3.47,1.95-2.25,1.11-4.89-1.77-5.85-.9-.3-1.47-.18-1.76.81-.34,1.19-1.14,2.07-2.05,2.88-.92.82-1.93,1.43-2.97.36-.97-.99-.38-1.98.4-2.83.24-.26.55-.48.74-.78.71-1.15,1.2-2.38.59-3.72-2.17-4.83-9.11-6.71-13.06-3.71-1.96,1.49-3.87,3.06-5.3,5.05-4.23,5.88-4.26,6.68.91,12.57.78.89,1.58,1.02,2.69.5,2.23-1.04,4.2-2.5,6.33-3.71,1.08-.61,2.22-.83,3,.38.78,1.22.11,2.19-.92,2.88-1.59,1.06-3.21,2.07-4.85,3.05-1.72,1.03-1.85,2.04-.4,3.43.73.7,1.6.96,2.6.99,2.68.08,2.86.27,3.16,2.96.34,3.07,1.77,4.28,4.81,4.27,1.54,0,2.74-.78,3.94-1.53,3.41-2.15,6.21-5.02,9-7.9,1.25-1.28,2.77-2.45,1.97-4.43ZM91.35,34.6c3.37,1.72,5.63,3.99,7.77,6.41,2.23,2.52,1.61,4.44-1.7,5.24-1.23.3-2.49.52-4.2.88,4.71,2.5,9.21,3.73,14.09,3.39.98-.07.69-.74.61-1.32-.29-1.94.04-3.84,1.5-5.11,1.49-1.3.96-2.31.1-3.49-2.35-3.2-5.77-4.72-9.39-5.83-2.7-.83-5.46-1.1-8.78-.17Zm74.56,116.32c2.36-.04,3.46-1.3,3.02-3.5-.18-.91.04-1.67.84-2.16.83-.51,1.59-.28,2.32.28.46.35.7,1.13,1.37,1.05,2.07-.26,3.04-1.92,4.15-3.4.78-1.04-.19-1.47-.64-2.09-.71-.98-.9-2.01.02-2.91.86-.85,1.98-.73,2.75.04,1.14,1.16,1.66.54,2.2-.49.28-.53.58-1.04.85-1.58,1.44-2.86,1.36-2.9-1.78-3.52-1.81-.36-2.93.04-4.25,1.49-4.14,4.55-8.44,8.98-14.17,11.62-.9.41-1.17,1.1-1.05,2.04.29,2.29,1.49,3.16,4.36,3.12ZM79.94,53.47c-.55,1.79-.95,3.42-1.55,4.96-.82,2.13-2.59,2.49-4.22.88-1.58-1.56-2.82-3.38-3.78-5.4-.17-.36-.17-.96-.89-.99-.25,1.7-.29,3.35-.18,5.01.29,4.17,2.03,7.68,4.87,10.67.46.49.89,1.16,1.8.65,1.45-.82,3.06-.98,4.68-.79.78.09,1.28-.16,1.48-.91,1.34-4.91,1.47-9.65-2.22-14.08Zm30.94,11.43c.05.55.44.65.72.84,4.42,2.98,9.39,4.91,14.07,7.38,1.04.55,1.04-.05,1.05-.81.05-2.97-.28-5.94.69-8.87.4-1.2-.82-1.75-1.72-1.58-4.96.94-9.89,2.02-14.82,3.04Zm8.97-12.54c2.3-.19,4.44-.56,5.83-2.95.63-1.09.43-1.47-.3-2.17-3.5-3.32-8.17-2.88-11.91-1.48-1.14.43-1.82,1.31-1.79,2.62.03,1.38.78,2.23,2.01,2.66,1.97.69,4,1.18,6.16,1.31Zm-20.01,38.38c-.64,0-1,0-1.36,0-1.12-.03-2.14.05-2.55,1.39-.42,1.4-.64,2.8.8,3.67,3.11,1.87,6.47,2.62,10.08,1.89.81-.16,1.02-.55.8-1.39-1.2-4.79-1.28-4.88-6.12-5.42-.65-.07-1.3-.1-1.67-.13Zm30.83-20.64c0,1.01,0,2.02,0,3.03,0,1.95.74,3.34,2.73,3.96.72.22,1.07.24,1.31-.54,1.15-3.71,1.45-7.44.36-11.22-.21-.72-.39-1.61-1.48-1.39-1.05.21-2.3-.01-2.67,1.54-.36,1.54-.2,3.08-.25,4.61Zm-31.52,4.78c-1.44,4.09-2.55,7.76-3.48,11.5-.14.55.06.81.6.78,2.38-.14,4.75,0,7.12.29.62.08.94-.19.68-.83-1.53-3.79-2.73-7.72-4.92-11.74Zm-15.13,3.39c-.03-3.34-1.23-5.4-3.49-6.01-2.23-.6-3.74.65-3.43,2.9.47,3.38,2.56,5.84,4.83,8.17.63.65,1.2.46,1.37-.47.29-1.52.73-3.02.72-4.59Zm6.51,15.7c.45,0,.95.2,1.28-.33,1.74-2.72,1.07-5.14-1.86-6.5-.75-.35-1.55-.62-2.35-.81-2.05-.5-3.06.44-2.83,2.57.31,2.85,2.68,4.93,5.76,5.07Zm42.62-36.53c.09-1.73,0-3.16-.63-4.48-.78-1.61-2.8-2.26-3.83-1.28-1.86,1.78-1.48,6.13.72,7.48.94.58,2,1.51,3.1.94,1.1-.57.51-1.94.64-2.66Zm-29.33,44.63c.37,1,1.19,1.47,1.68,2.19.31.45.69.59,1.21.29.87-.51,1.77-.98,2.66-1.45.58-.31.46-.73.24-1.2-.18-.4-.33-.81-.89-.6-1.56.57-3.24.48-4.91.78Zm-5.5.92c.69-.14,1.51-.21,1.67-1.06.18-.93-.73-.76-1.2-.92-1.74-.61-3.46-1.23-4.86-2.5-.4-.36-.79-.63-1.01.15-.13.46-.58,1.22.2,1.28,1.76.13,2.61,1.51,3.81,2.42.42.32.77.77,1.39.64Z"/><path class="cls-1" d="m131.02,108.62c.02.71-.28,1.2-.84,1.51-.71.4-1.43.28-1.99-.23-.71-.63-1.31-1.38-1.98-2.06-1.72-1.76-3.51-3.37-6.11-3.74-1.18-.16-1.8-.98-1.54-2.18.26-1.2,1.22-1.59,2.33-1.42,1.86.29,3.5,1.15,5.02,2.22,1.67,1.17,3.12,2.57,4.38,4.17.41.52.79,1.06.73,1.72Z"/><path class="cls-1" d="m132.55,88.54c1.12,0,1.68.61,1.82,1.51.53,3.33,2.45,5.75,4.95,7.83.93.78,1.57,1.82.62,2.94-.96,1.13-2.07.63-3-.16-3.02-2.57-5.47-5.52-5.92-9.67-.13-1.23.09-2.3,1.53-2.45Z"/><path class="cls-1" d="m126.25,86.9c.22-.99.48-2.4.86-3.77.3-1.09,1.03-1.81,2.25-1.52,1.27.3,1.42,1.29,1.17,2.41-.29,1.28-.56,2.56-.86,3.84-.26,1.09-.84,1.93-2.1,1.71-1.23-.21-1.28-1.24-1.31-2.66Z"/><path class="cls-1" d="m118.39,94.59c1.42-.04,2.25.14,2.51,1.12.27,1.02-.24,1.74-1.16,2.13-1.37.58-2.83.9-4.3,1.08-.93.12-1.65-.3-1.89-1.25-.23-.94.21-1.7,1.07-2,1.39-.49,2.84-.82,3.76-1.08Z"/><path class="cls-1" d="m112.85,76.79c-1.42-.17-2.17-1-2.2-2.37-.02-1.15.69-1.77,1.84-1.69,1.35.09,2.31.76,2.32,2.21.01,1.22-.77,1.8-1.96,1.85Z"/><path class="cls-1" d="m108.43,77.24c.99.14,2.07.36,2.15,1.76.07,1.21-.62,1.92-1.79,1.97-1.31.05-2.18-.64-2.26-1.97-.07-1.16.69-1.68,1.9-1.75Z"/><path class="cls-1" d="m133.83,112.01c-.12,1.11-.73,1.77-1.83,1.78-.92,0-1.62-.47-1.65-1.48-.03-1.12.6-1.78,1.7-1.86,1.07-.08,1.61.56,1.78,1.55Z"/><path class="cls-1" d="m144.09,104.4c-1.12-.02-1.76-.6-1.81-1.61-.05-1.02.52-1.71,1.61-1.69,1.13.01,1.76.69,1.76,1.79,0,.99-.66,1.45-1.56,1.51Z"/><path class="cls-1" d="m153.57,117.32c-.11,1.18-.57,2.13-1.85,2.23-1.1.08-1.83-.55-1.77-1.71.06-1.18.45-2.28,1.88-2.35,1.19-.06,1.58.82,1.74,1.83Z"/><path class="cls-1" d="m147.81,120.04c1.12.05,1.7.59,1.72,1.55.02.99-.6,1.57-1.56,1.57-.94,0-1.56-.53-1.57-1.55-.01-1.02.56-1.49,1.41-1.57Z"/><path class="cls-1" d="m161.18,133.07c-.1,1.02-.61,1.51-1.52,1.49-.91-.01-1.45-.52-1.44-1.45.01-1,.58-1.55,1.58-1.49.92.05,1.32.66,1.38,1.45Z"/></svg>