<?xml version="1.0" encoding="UTF-8"?><svg id="Layer_1" xmlns="http://www.w3.org/2000/svg" viewBox="0 0 137.8 164.25"><defs><style>.cls-1{fill:#f7e1d3;}.cls-1,.cls-2,.cls-3,.cls-4{stroke-width:0px;}.cls-2{fill:#f8f8f8;}.cls-3{fill:#182a42;}.cls-4{fill:#8d9bc2;}</style></defs><path class="cls-4" d="m1.73,130.51c.59,3.18,2.81,4.94,5.86,4.71,3.37-.26,6.37.95,8.77,3.11,3.51,3.16,7.23,5.9,11.53,7.86,2.96,1.34,5.76,1.29,8.44-.63.4-.28.83-.52,1.18-.85,2.25-2.11,4.76-3.01,7.95-2.63,7.47.87,14.98,1.45,22.29,3.36.85.22,1.33.4,1.34,1.49,0,2.62,1.58,4.27,3.87,5.23,4.6,1.93,9.56,2.16,14.4,2.99,1.26.21,2.51.46,3.76.67.61.1.89.49,1.17,1.01,1.98,3.67,6,5.66,10.08,4.96,2.28-.39,4.54-.7,6.86-.77,3.3-.09,5.13-1.63,5.61-4.86,1.17-7.81,3.97-15.06,6.89-22.35,1.93-4.81,3.24-9.91,4.28-15.04,1.08-5.32,2.98-10.34,5.52-15.14,1.74-3.28,2.71-6.75,2.17-10.51-.08-.56-.02-1.04.24-1.57,1.73-3.5.6-7.05-3.04-8.37-2.43-.89-3.73-2.79-4.81-4.68-1.46-2.56-2.47-5.41-2.94-8.38,0,0,.04,0,.04,0-.4-.32-.52-.76-.48-1.25v.02c-.09-.28-.19-.55-.29-.83-.21-.5-.42-1-.63-1.5-1.33-3.18-2.06-6.64-4.36-9.37-2.42-.6-2.95-.36-3.85,1.76-.43,3.36,1.18,6.52.97,9.85.52,1.36,1.07,2.7,1.53,4.07.18.53.11,1.34-.71.89-1.72-.95-3.42-1.75-5.46-1.71-.35,0-.74-.57-1.05-.93-6.62-7.82-13.2-15.67-19.85-23.46-2.63-3.08-4.96-6.4-7.88-9.24.12,1.24.81,2.26,1.34,3.33,4.03,8.15,3.71,15.94-2,23.22-1.86,2.37-4.21,4.22-7.13,5.19-1.18.39-2.32.24-3.03-.95-.73-1.22-.21-2.2.72-3.05.36-.33.71-.67,1.12-.93,1.45-.9,2.42-2.19,3.19-3.66,1.17-2.23,1.93-4.59,2.28-7.07.73-5.12-.28-9.66-4.65-12.97-.77-.58-1.45-1.25-1.02-2.29.53-1.29-.23-1.8-1.18-2.2-2.18-.92-4.36-1.84-6.58-2.65-1.2-.44-2.35-1.05-3.81-.39-.93.42-1.69-.39-1.91-1.42-.31-1.4.49-2.61,2.15-3.07,1.79-.5,3.61-.32,5.42-.02,3.96.66,7.46,2.47,10.94,4.33-1.49-2.09-3.33-3.84-5.28-5.47-1.37-1.16-2.3-2.43-2.07-4.34.08-.64-.14-1.32-.22-1.98-.04-.06-.04-.13-.02-.2-2.59-4.11-6.85-4.67-9.07-.97-4.75,7.91-11.3,14.23-18.04,20.3-5.78,5.2-9.87,11.5-13.53,18.16-2.64,4.81-5.95,9.15-8.82,13.8-.25.41-.52.78-1.14.75-1.68-.1-2.52,1.01-3.11,2.36-2.09,4.78-4.64,9.35-6.4,14.28-.61,1.7-1.35,3.29-.04,5.15,1.11,1.57-.1,3.25-.56,4.83-1.2,4.13-2.71,8.16-3.11,12.51-.21,2.35-.93,4.65-1.42,6.97,1.28-.22,2.66-.82,3.67.53.76,1.02,1.01,2.21.55,3.44-.52,1.37-1.59,2.26-2.82,2.97.04.07.07.14.11.2,1.89.04,3.34-.77,4.09-2.48.74-1.71-.07-3.2-1.11-4.54-.69-.88-1.68-1.39-2.64-1.92-.79-.44-.91-1.07-.7-1.86.24-.88.81-1.38,1.71-1.32.6.04,1.25.15,1.75.44,2.64,1.55,4.54,3.73,4.95,6.84.36,2.74-.31,5.31-2.73,6.91-2.83,1.87-5.86,3.35-9.31,1.35Zm91.91,1.17c.24-.88.36-1.78.35-2.7-.02-1.87.57-3.61,1.5-5.2.6-1.03,1.49-1.94,2.81-1.55,1.26.37,1.65-.11,1.79-1.23.06-.54.2-1.08.38-1.6.65-1.81,2.39-3.08,3.98-2.94,1.65.14,3.02,1.57,3.36,3.57.12.72.23,1.45.22,2.17-.06,3.82-.1,7.64-.26,11.45-.17,3.98-1.71,6.81-5.98,8.03-2.2.63-4.42.37-6.57,1.09-8.8,2.93-17.69,4.88-26.91,1.72-3.16-1.08-6.63-1.5-8.73-4.6-.23-.34-.83-.48-1.28-.63-2.46-.8-4.86-1.73-6.94-3.33-1.5-1.16-3.39-2-3.02-4.5.14-.96-.73-.84-1.44-.79-1.14.09-2.04-.25-2.24-1.58-.36-2.46-.94-2.86-3.42-3.71-1.48-.51-3.1-1.53-3.33-3.15-.18-1.23-.61-2.17-1.21-3.13-.78-1.24-1.6-2.44-2.13-3.82-.39-1.03-.08-1.82.84-2.31.95-.51,1.77-.21,2.37.66.38.55.75,1.12,1.05,1.71.62,1.24,1.07,1.65,2.48.55,1.09-.84,1.51-1.7,1.85-2.87.5-1.71,2.29-2.8,3.78-2.44,1.41.34,2.43,1.9,2.22,3.55-.14,1.12-.75,2.04-1.62,2.77-.31.27-.85.39-.82.9.08,1.51-.78,2.65-1.48,3.84-.8,1.38.59,1.44,1.16,1.96.8.73,1.06.12,1.39-.56,1.26-2.63,2.62-5.21,4.52-7.46.93-1.11,2.11-1.6,3.36-.68,1.17.86,1.09,2.09.37,3.27-.88,1.46-1.79,2.89-2.68,4.34-.27.45-.75.87-.17,1.44,1.01.98,1.14,2.22,1.02,3.54-.09.96.25,1.03,1.05.54,2.86-1.76,4.23-1.06,4.66,2.39.08.66.32,1,.93,1.15.42.11.73.16,1.12-.25,1.86-2,2.81-1.87,4.28.59.38.64.69.86,1.2.24.69-.85,1.31-1.77,2.56-1.87,1.16-.08,2.01.61,2.99,1.28.51-1.85.92-3.56,1.59-5.19.54-1.31,1.14-2.56.66-4.16-.32-1.05.5-1.86,1.76-2.09,1.39-.26,2.43.56,3.64.86,1.72.42,3.16,1.03,3.45,2.97.29,1.9-.84,3.01-2.4,3.82.54.65,1.45,1.35,1.26,1.99-.98,3.4,1.17,3.42,3.44,3.42.11,0,.21.13.32.17.26.1.51.04.57-.25.35-1.59,2.34-2.88.83-4.82-.26-.33-.24-.94-.23-1.42.05-1.7.69-3.09,2.37-3.72,1.27-.48,2.46-.14,3.23.99,1.01,1.46.96,3.16-.13,4.41-1.18,1.36-.88,2.2.3,3.14l-.03.02Zm-56.47-59.22c2.37-1.5,4.64-2.23,7.21-1.17,3.24,1.33,6.13,5.33,4.58,10.28-.79,2.51-2.46,4.03-4.91,4.66-2.42.62-4.49-.07-6.25-1.93-2.4-2.55-4.12-5.26-2.82-9.02-4.09,1.32-6.48.74-8.24-1.88-1.36-2.02-1.36-5.4,0-7.06,1.42-1.74,4.31-2.3,6.79-1.32,2.81,1.12,3.98,3.41,3.65,7.44Zm-2.09,17.72c-.65,3.16-2.12,5-4.01,6.49-3.37,2.66-9.03,2.35-11.53-.55-3.9-4.53-2.79-12.47,2.2-15.82,1.14-.76,2.34-1.28,3.72-1.35,5.54-.29,10.73,6.25,9.63,11.23Zm50.18,4.99c2.68.62,3.61,2.17,3.03,4.83-.46,2.13-1.99,3.45-3.6,4.65-3.19,2.36-5.06,2.39-8.37.19-.5-.33-.89-.21-1.35-.04-1.03.38-2.07.71-3.09,1.11-.92.36-1.88.53-2.86.49-1.27-.05-2.25-.69-2.68-1.87-.48-1.28-.11-2.59.66-3.62.74-.99,1.83-1.05,2.91-.27.53.38,1.03-.04,1.53-.27,3.18-1.46,6.04-3.46,8.54-5.85,4.83-4.62,9.67-9.28,11.57-16.05.29-1.01.93-1.73,2.17-1.41,1.27.33,1.54,1.2,1.35,2.38-.35,2.13-1.13,4.08-2.26,5.92-2.16,3.52-4.88,6.62-7.55,9.81Zm8.24-26.02c-.09.42-.16.84-.28,1.25-.08.29-.22.56-.34.84-3.78,8.69-9.34,16.04-16.9,21.78-2.54,1.93-5.1,3.98-8.31,4.83-1.61.43-3.13.37-4.43-.84-1.03-.96-1.15-2.69-.17-3.61,1.06-.99,2.12-.85,2.91.35.45.68.96.43,1.42.21.93-.44,1.88-.89,2.73-1.46,5.82-3.91,10.65-8.8,14.52-14.66,1.78-2.7,3.35-5.5,4.59-8.46.49-1.18,1.04-2.44-.81-3.34-1.31-.64-.92-2.63.5-3.41,1.81-.99,3.94-.14,4.55,1.84.48,1.55.38,3.12.01,4.68ZM29.49,119.19c-.5,4.28-6.14,6.62-10.51,5.74-3.62-.73-5.5-4.38-4.45-8.85,1.14-4.86,4.3-7.36,8.74-6.41,4.02.86,7.57,4.7,6.22,9.52Zm21.46-46.94c-2.46-.75-4.56-1.99-5.7-4.43-.96-2.05-2.22-3.91-3.43-5.8-.84-1.32-1.28-2.76-1.14-4.32.11-1.16.67-2.08,1.8-2.54,1.14-.47,2.13-.13,3.03.64.8.69,1.39,1.53,1.76,2.52.97,2.59,2.74,4.54,4.85,6.24.99.8,1.96,1.63,2.86,2.53,1.84,1.84,1.29,4.09-1.16,5.01-.95.36-1.88.45-2.87.16Zm65.18,7.93c.34-1.66,1.55-2.79,3.08-2.84,1.51-.06,3.22,1.15,3.66,2.76.75,2.74,2.74,4.71,4.25,6.96,1.3,1.92,2.71,3.76,3.09,6.1.25,1.54.12,3.09-1.5,3.94-1.68.87-2.89-.01-3.97-1.21-.28-.31-.63-.64-.75-1.02-1.04-3.22-2.33-6.25-4.65-8.83-.72-.8-1.07-1.92-2.07-2.63-1.03-.74-1.5-1.89-1.14-3.23Zm-57.62-35.92c3.09.57,4.1,2.95,5.44,4.87.55.79.07,2.15-.92,2.16-1.98.03-3.62,1.27-5.59,1.24-2.46-.04-4.61-1.93-4.75-4.35-.12-1.89,1.64-3.61,4.02-3.93.73-.1,1.45-.09,1.81.02Zm-21.34,59.27c-2.38-.42-4.23-2.75-3.92-4.94.32-2.22,2.79-3.83,5.21-3.38,3,.56,4.79,3.41,4.11,6.58-.31,1.47-2.67,2.22-5.41,1.74Zm19.19-33.94c.45-1.91,1.45-2.58,3.49-2.19,1.24.24,2.5.27,3.48-.46,1.02-.76,1.89-1.31,3.09-.48,1.35.93,1.84,2.28,1.63,3.81-.26,1.84-2.59,2.93-4.06,1.87-1.04-.75-1.61-.78-2.54.19-1.05,1.1-2.49,1.26-3.84.39-1.11-.72-1.68-1.75-1.24-3.12Zm-39.59,39.24c-2.21-.53-4.18-3.57-3.63-5.6.49-1.82,3.18-3.07,5.45-2.52,2.24.54,4.02,3,3.61,4.99-.44,2.14-3.13,3.69-5.44,3.13Zm4.58,26.85c-2.43-.52-3.65-2.22-3.17-4.42.47-2.19,2.71-3.55,5.01-3.03,2.05.46,3.61,2.56,3.26,4.4-.37,1.95-2.98,3.51-5.09,3.06Zm37.61-9.38c-1.82-.39-2.96-1.75-2.61-3.12.55-2.17,2.53-3.63,4.39-3.25,1.62.33,2.5,1.83,2.12,3.62-.39,1.83-2.21,3.11-3.9,2.75Z"/><path class="cls-1" d="m69.45,21.82c-.02.07-.02.14.02.2.83.18.86.95,1.1,1.54.4.96.86,1.83,1.6,2.62,1.75,1.85,3.35,3.84,5.08,5.7,10.99,11.81,21.88,23.7,31.02,37.05,1.78,2.61,4.55,2.48,6.32-.13.2-3.34-1.4-6.49-.97-9.85-.41-2.61-.85-5.22-1.23-7.84-.59-4.06-1.59-8.03-2.55-12-.11-.16-.42-.3-.03-.49,0,.17.02.33.02.5.88.39.93,1.34,1.35,2.04,2.18,3.58,2.86,7.75,4.59,11.51.67,1.46,1.49,2.88,1.69,4.53,2.3,2.73,3.03,6.19,4.36,9.37.21.5.42,1,.63,1.5.35.19.36.49.3.83,0,0-.01-.02-.01-.02.74.19.63.71.48,1.25,0,0-.04,0-.04,0,1.25.24,1.15,1.48,1.58,2.27,1.17,2.18,2.12,4.49,3.22,6.71.49.99,1.26,1.76,2.23,2.34.84.5,1.89.53,2.33-.12,1.15-1.74,2.77-3.13,2.71-5.69-.17-6.63-1.2-13.16-1.92-19.72-.5-4.58-.76-9.18-1.33-13.76-.8-6.43-2.47-12.62-4.57-18.71-.16-.45-.41-.89-.69-1.28-.69-.92-1.36-1.76-.58-3.02.4-.64.06-1.44-.19-2.12-1.39-3.75-2.74-7.53-4.25-11.23-1.28-3.11-4.74-3.25-7.04-.88-2.79,2.86-3.2,6.75-5.13,9.91-2.5,4.08-4.15,8.27-3.03,13.42-1.1-.5-1.25-1.21-1.49-1.75-1.57-3.52-2.93-7.07-5.51-10.13-2.42-2.86-4.06-6.33-6.37-9.33-1.72-2.23-4.81-2.41-6.62-.24-.18.22-.48.46-.74.48-2.58.15-4.21,1.92-6.05,3.4-1.94,1.56-3.99,2.97-5.96,4.48-2.24,1.71-4.37,3.51-4.33,6.7Z"/><path class="cls-1" d="m1.73,130.51c3.46,1.99,6.48.52,9.31-1.35,2.42-1.6,3.09-4.17,2.73-6.91-.41-3.11-2.31-5.29-4.95-6.84-.5-.29-1.16-.4-1.75-.44-.9-.06-1.47.44-1.71,1.32-.21.79-.09,1.42.7,1.86.96.53,1.95,1.04,2.64,1.92,1.04,1.34,1.85,2.83,1.11,4.54-.75,1.71-2.2,2.52-4.09,2.48-.71.36-1.29.04-2.24-.43.97.1,1.55.17,2.14.23,1.24-.71,2.3-1.59,2.82-2.97.47-1.23.21-2.42-.55-3.44-1.01-1.35-2.38-.75-3.67-.53-.6.74-1.23,1.46-1.79,2.23-.82,1.15-1.59,2.33-.4,3.72.38.44.13.85-.06,1.32-.41,1.06-.82,2.15-.25,3.3Z"/><path class="cls-1" d="m93.67,131.66c-1.18-.94-1.48-1.79-.3-3.14,1.1-1.26,1.14-2.95.13-4.41-.77-1.12-1.96-1.47-3.23-.99-1.68.63-2.32,2.03-2.37,3.72-.02.48-.03,1.08.23,1.42,1.51,1.95-.6,2.85-.81,4.46-.03.21-.16.46-.48.5-.12.01-.32-.06-.43-.06-2.28,0-4.42-.02-3.44-3.42.18-.64-.73-1.34-1.26-1.99,1.56-.81,2.69-1.92,2.4-3.82-.29-1.95-1.74-2.55-3.45-2.97-1.21-.3-2.25-1.12-3.64-.86-1.26.24-2.07,1.04-1.76,2.09.48,1.6-.12,2.85-.66,4.16-.67,1.63-1.07,3.34-1.59,5.19-.98-.68-1.83-1.37-2.99-1.28-1.25.09-1.87,1.01-2.56,1.87-.51.63-.81.4-1.2-.24-1.47-2.46-2.43-2.59-4.28-.59-.38.41-.7.36-1.12.25-.6-.15-.85-.49-.93-1.15-.43-3.45-1.8-4.15-4.66-2.39-.79.49-1.13.42-1.05-.54.12-1.32-.01-2.56-1.02-3.54-.58-.56-.1-.99.17-1.44.89-1.45,1.8-2.89,2.68-4.34.71-1.18.79-2.41-.37-3.27-1.25-.92-2.43-.43-3.36.68-1.9,2.25-3.25,4.83-4.52,7.46-.33.68-.59,1.29-1.39.56-.58-.52-1.96-.58-1.16-1.96.69-1.2,1.55-2.33,1.48-3.84-.03-.51.51-.63.82-.9.86-.73,1.47-1.64,1.62-2.77.21-1.65-.81-3.21-2.22-3.55-1.49-.36-3.28.73-3.78,2.44-.34,1.17-.76,2.03-1.85,2.87-1.42,1.1-1.86.69-2.48-.55-.3-.6-.67-1.16-1.05-1.71-.6-.87-1.42-1.17-2.37-.66-.92.5-1.23,1.29-.84,2.31.52,1.38,1.35,2.58,2.13,3.82.6.96,1.03,1.9,1.21,3.13.24,1.62,1.85,2.64,3.33,3.15,2.48.85,3.06,1.25,3.42,3.71.2,1.33,1.1,1.67,2.24,1.58.71-.05,1.58-.17,1.44.79-.37,2.5,1.52,3.34,3.02,4.5,2.08,1.6,4.47,2.53,6.94,3.33.45.15,1.05.29,1.28.63,2.11,3.1,5.57,3.52,8.73,4.6,9.22,3.16,18.11,1.21,26.91-1.72,2.15-.72,4.37-.46,6.57-1.09,4.27-1.22,5.81-4.05,5.98-8.03.17-3.81.2-7.64.26-11.45.01-.72-.1-1.46-.22-2.17-.34-2-1.71-3.43-3.36-3.57-1.59-.13-3.34,1.14-3.98,2.94-.18.51-.32,1.06-.38,1.6-.13,1.12-.53,1.59-1.79,1.23-1.32-.38-2.21.52-2.81,1.55-.93,1.59-1.52,3.33-1.5,5.2.01.93-.1,1.82-.35,2.7.02.05.05.1.07.16-.02-.06-.03-.12-.05-.17Zm8.64,5.15c1.06-2.24.65-4.55.83-6.8.18-2.27.41-4.54.62-6.81.09,4.06-.05,8.09-.23,12.13-.03.66-.19,1.33-1.22,1.48Z"/><path class="cls-1" d="m77.03,33.82c-3.48-1.86-6.98-3.67-10.94-4.33-1.81-.3-3.63-.48-5.42.02-1.66.46-2.46,1.67-2.15,3.07.23,1.03.99,1.84,1.91,1.42,1.45-.66,2.61-.05,3.81.39,2.22.81,4.4,1.74,6.58,2.65.95.4,1.71.92,1.18,2.2-.43,1.04.25,1.7,1.02,2.29,4.37,3.31,5.38,7.85,4.65,12.97-.35,2.48-1.12,4.84-2.28,7.07-.77,1.48-1.75,2.77-3.19,3.66-.41.25-.76.6-1.12.93-.93.85-1.45,1.82-.72,3.05.71,1.19,1.85,1.34,3.03.95,2.91-.97,5.26-2.82,7.13-5.19,5.71-7.28,6.03-15.07,2-23.22-.53-1.07-1.22-2.09-1.34-3.33,0,0,.02.02.02.02-.09-.2-.18-.4-.27-.59-1.08-1.55-2.24-3.03-3.88-4.03Z"/><path class="cls-1" d="m37.17,72.46c.34-4.03-.84-6.32-3.65-7.44-2.48-.99-5.37-.42-6.79,1.32-1.35,1.66-1.35,5.05,0,7.06,1.76,2.62,4.15,3.19,8.24,1.88-1.31,3.76.41,6.47,2.82,9.02,1.76,1.87,3.83,2.55,6.25,1.93,2.45-.63,4.12-2.15,4.91-4.66,1.56-4.95-1.33-8.95-4.58-10.28-2.58-1.06-4.85-.33-7.21,1.17Zm3.43,2.71c1.26-.91,2.26-.4,3.57.76l-3.58-.79c-.05.02-.1.03-.15.05.06,0,.11-.02.17-.02Zm-10.76-5.29c.52-.83,1.1-1.74,2.24-1.34,1,.35,1.51,1.22,1.21,2.32-.29,1.07-1.1,1.39-2.11,1.1-.99-.29-1.46-.99-1.34-2.07Zm8.68,7.35c.45,2.12,1.64,3.53,3.79,3.9,1.48.26,2.33-.69,2.99-2.52-.49,3.65-1.62,4.24-4.26,2.77-.37-.21-.77-.36-1.13-.59-1.28-.84-1.79-2.01-1.39-3.56Z"/><path class="cls-1" d="m35.08,90.19c1.11-4.98-4.09-11.52-9.63-11.23-1.38.07-2.58.59-3.72,1.35-4.99,3.34-6.1,11.29-2.2,15.82,2.5,2.9,8.16,3.21,11.53.55,1.89-1.49,3.37-3.33,4.01-6.49Zm-13.38-.47c-.05-.06-.09-.12-.14-.18.03.02.08.02.09.05.02.04.02.1.02.15,1.14,1.92,2.71,3.11,5.06,2.79,2.27-.31,3-2.39,4.16-4.27.34,1.12.09,1.76-.12,2.37-.9,2.62-3.92,4.32-6.55,3.74-1.7-.38-2.69-2.19-2.53-4.65Z"/><path class="cls-1" d="m85.26,95.17c2.67-3.19,5.39-6.29,7.55-9.81,1.13-1.84,1.91-3.79,2.26-5.92.19-1.18-.08-2.05-1.35-2.38-1.24-.32-1.88.4-2.17,1.41-1.9,6.76-6.74,11.42-11.57,16.05-2.51,2.4-5.36,4.39-8.54,5.85-.5.23-1,.64-1.53.27-1.08-.77-2.16-.71-2.91.27-.77,1.02-1.14,2.33-.66,3.62.44,1.18,1.42,1.82,2.68,1.87.97.04,1.93-.13,2.86-.49,1.02-.4,2.06-.73,3.09-1.11.47-.17.85-.3,1.35.04,3.3,2.19,5.17,2.17,8.37-.19,1.62-1.2,3.14-2.52,3.6-4.65.58-2.66-.35-4.2-3.03-4.83Zm-1.24,1.2c0,.88-.26,1.58.3,2.14.35.35.38.73.1,1.15-.95,1.42-2.29,2.32-3.9,2.82-.9.28-1.09-.51-1.46-1.04-.46-.65-.03-.94.43-1.31,1.46-1.17,2.88-2.38,4.53-3.75Z"/><path class="cls-1" d="m93.5,69.15c.37-1.56.47-3.13-.01-4.68-.62-1.98-2.75-2.83-4.55-1.84-1.42.78-1.81,2.77-.5,3.41,1.84.9,1.3,2.16.81,3.34-1.24,2.97-2.81,5.77-4.59,8.46-3.87,5.86-8.7,10.75-14.52,14.66-.85.57-1.79,1.02-2.73,1.46-.47.22-.97.46-1.42-.21-.8-1.2-1.85-1.35-2.91-.35-.98.92-.86,2.65.17,3.61,1.3,1.2,2.82,1.26,4.43.84,3.21-.85,5.76-2.9,8.31-4.83,7.56-5.74,13.12-13.08,16.9-21.78.12-.28.26-.55.34-.84.12-.41.19-.83.28-1.25Z"/><path class="cls-1" d="m29.49,119.19c1.35-4.81-2.2-8.66-6.22-9.52-4.44-.95-7.61,1.54-8.74,6.41-1.05,4.48.83,8.12,4.45,8.85,4.37.88,10.01-1.46,10.51-5.74Zm-4.31-1.1c-.06.61-.5,1.27-1.05,1.85-.89.94-2.04.72-3.06.46-1.08-.28-.94-1.21-.77-2.11.16-.87-.05-1.7-.71-2.35-.35-.34-.61-.71-.09-1.03,1.38-.86,2.88-1.01,4.34-.28,1.32.66,1.67,1.84,1.35,3.46Z"/><path class="cls-1" d="m50.95,72.25c.99.29,1.92.19,2.87-.16,2.44-.92,3-3.16,1.16-5.01-.9-.9-1.87-1.74-2.86-2.53-2.12-1.7-3.88-3.65-4.85-6.24-.37-.98-.95-1.82-1.76-2.52-.9-.78-1.89-1.11-3.03-.64-1.13.46-1.69,1.38-1.8,2.54-.14,1.56.3,3.01,1.14,4.32,1.21,1.9,2.47,3.76,3.43,5.8,1.14,2.44,3.24,3.68,5.7,4.43Z"/><path class="cls-1" d="m116.13,80.18c-.36,1.34.11,2.49,1.14,3.23.99.72,1.34,1.83,2.07,2.63,2.32,2.58,3.62,5.61,4.65,8.83.12.38.47.7.75,1.02,1.08,1.2,2.29,2.08,3.97,1.21,1.63-.85,1.76-2.4,1.5-3.94-.38-2.34-1.79-4.18-3.09-6.1-1.52-2.25-3.51-4.22-4.25-6.96-.44-1.61-2.14-2.82-3.66-2.76-1.53.06-2.74,1.18-3.08,2.84Z"/><path class="cls-2" d="m77.03,33.82c1.65,1,2.81,2.48,3.88,4.03.09.2.18.4.27.59,0,0-.02-.02-.02-.02,2.91,2.83,5.25,6.16,7.88,9.24,6.65,7.79,13.23,15.64,19.85,23.46.31.36.71.94,1.05.93,2.03-.04,3.74.76,5.46,1.71.82.45.89-.36.71-.89-.46-1.37-1.02-2.72-1.53-4.07-1.77,2.61-4.54,2.74-6.32.13-9.14-13.36-20.03-25.25-31.02-37.05-1.73-1.86-3.33-3.85-5.08-5.7-.74-.78-1.2-1.66-1.6-2.62-.24-.59-.27-1.36-1.1-1.54.08.66.29,1.34.22,1.98-.22,1.92.7,3.19,2.07,4.34,1.94,1.64,3.79,3.39,5.28,5.47Z"/><path class="cls-1" d="m58.51,44.26c-.36-.11-1.08-.12-1.81-.02-2.38.33-4.14,2.04-4.02,3.93.15,2.42,2.3,4.31,4.75,4.35,1.97.03,3.6-1.21,5.59-1.24.99-.02,1.47-1.38.92-2.16-1.34-1.92-2.35-4.3-5.44-4.87Z"/><path class="cls-1" d="m37.17,103.54c2.73.48,5.09-.28,5.41-1.74.68-3.17-1.11-6.02-4.11-6.58-2.42-.45-4.89,1.16-5.21,3.38-.31,2.19,1.54,4.52,3.92,4.94Z"/><path class="cls-1" d="m56.36,69.6c-.44,1.38.13,2.4,1.24,3.13,1.35.88,2.79.71,3.84-.39.93-.97,1.51-.94,2.54-.19,1.47,1.06,3.8-.04,4.06-1.87.21-1.53-.28-2.88-1.63-3.81-1.2-.82-2.07-.27-3.09.48-.98.73-2.25.69-3.48.46-2.03-.39-3.03.28-3.48,2.19Z"/><path class="cls-1" d="m16.77,108.84c2.31.55,4.99-1,5.44-3.13.41-1.99-1.38-4.45-3.61-4.99-2.27-.54-4.96.7-5.45,2.52-.55,2.03,1.42,5.07,3.63,5.6Z"/><path class="cls-1" d="m21.34,135.69c2.12.46,4.72-1.11,5.09-3.06.35-1.84-1.21-3.94-3.26-4.4-2.3-.51-4.54.84-5.01,3.03-.47,2.2.74,3.89,3.17,4.42Z"/><path class="cls-2" d="m109.84,39.1c.96,3.98,1.96,7.95,2.55,12,.38,2.62.82,5.23,1.23,7.84.9-2.12,1.42-2.36,3.85-1.76-.2-1.65-1.02-3.07-1.69-4.53-1.73-3.76-2.41-7.94-4.59-11.51-.42-.69-.47-1.65-1.35-2.04h0Z"/><path class="cls-1" d="m58.95,126.3c1.7.37,3.51-.91,3.9-2.75.38-1.79-.5-3.29-2.12-3.62-1.86-.38-3.84,1.08-4.39,3.25-.35,1.36.79,2.72,2.61,3.12Z"/><path class="cls-2" d="m123.22,70.11c.15-.54.27-1.06-.48-1.25-.04.49.08.92.48,1.25Z"/><path class="cls-2" d="m122.75,68.89c.07-.34.06-.64-.3-.83.1.28.2.55.3.83Z"/><path class="cls-2" d="m109.83,39.11c0-.17-.02-.33-.02-.5-.39.19-.08.33.03.49,0,0,0,0,0,0Z"/><path class="cls-4" d="m5.62,126.88c-.58-.06-1.17-.13-2.14-.23.95.47,1.53.8,2.24.43-.03-.07-.07-.14-.11-.2Z"/><path class="cls-4" d="m102.31,136.82c1.03-.16,1.19-.82,1.22-1.48.18-4.03.32-8.07.23-12.13-.21,2.27-.43,4.54-.62,6.81-.18,2.25.23,4.56-.83,6.8Z"/><path class="cls-4" d="m93.67,131.66c.02.06.03.12.05.17-.02-.05-.05-.1-.07-.16,0,0,.03-.02.03-.02Z"/><path class="cls-4" d="m81.19,38.45c-.09-.2-.18-.39-.27-.59.09.2.18.4.27.59Z"/><path class="cls-4" d="m29.84,69.88c-.12,1.08.36,1.78,1.34,2.07,1.01.3,1.82-.02,2.11-1.1.3-1.1-.22-1.97-1.21-2.32-1.14-.4-1.72.51-2.24,1.34Z"/><path class="cls-4" d="m38.51,77.24c-.39,1.55.12,2.72,1.39,3.56.35.23.75.39,1.13.59,2.64,1.47,3.77.88,4.26-2.77-.66,1.83-1.51,2.78-2.99,2.52-2.14-.37-3.34-1.78-3.79-3.9Z"/><path class="cls-4" d="m40.59,75.15l3.58.79c-1.31-1.17-2.31-1.67-3.57-.76v-.02Z"/><path class="cls-4" d="m40.6,75.18c-.06,0-.11.02-.17.02.05-.02.1-.03.15-.05,0,0,.01.02.01.02Z"/><path class="cls-4" d="m21.7,89.71c-.16,2.46.83,4.27,2.53,4.65,2.63.58,5.65-1.12,6.55-3.74.21-.61.46-1.26.12-2.37-1.16,1.89-1.89,3.96-4.16,4.27-2.35.32-3.92-.87-5.06-2.79l.02-.02Z"/><path class="cls-4" d="m21.68,89.73c0-.05,0-.11-.02-.15-.01-.02-.06-.03-.09-.05.05.06.09.12.14.18,0,0-.02.02-.02.02Z"/><path class="cls-4" d="m84.01,96.37c-1.64,1.37-3.07,2.58-4.53,3.75-.46.37-.89.66-.43,1.31.37.53.56,1.32,1.46,1.04,1.61-.5,2.95-1.4,3.9-2.82.28-.41.25-.8-.1-1.15-.57-.56-.3-1.25-.3-2.14Z"/><path class="cls-4" d="m25.18,118.1c.32-1.62-.03-2.8-1.35-3.46-1.46-.73-2.96-.58-4.34.28-.51.32-.26.69.09,1.03.66.64.87,1.48.71,2.35-.16.89-.31,1.83.77,2.11,1.03.26,2.17.48,3.06-.46.55-.58.99-1.24,1.05-1.85Z"/><path class="cls-3" d="m104.94,22.44c-1.27-1.59-1.96-3.21-2.64-4.83-2.41-5.74-6.06-10.67-10.08-15.34-.85-.99-1.71-.92-2.73-.28-5.61,3.53-11.26,7.01-16.4,11.22-1.27,1.04-2.51,2.12-3.74,3.21-.47.41-.7.63-1.25-.04-1.51-1.81-2.58-1.82-4.44-.22-5.87,5.06-11.01,10.83-16.14,16.61-2.66,3-5.51,5.84-7.64,9.29-.42.68-1.13,1.1-1.86,1.43-2.29,1.04-3.95,2.75-5.39,4.78-5.52,7.81-10.16,16.15-14.94,24.41-1.92,3.31-3.84,6.63-6.2,9.67-.79,1.01-1.24,2.21-1.68,3.42-3.01,8.18-4.1,16.76-5.32,25.32-.18,1.27-.51,2.5-.85,3.73-1.45,5.2-3.26,10.32-3.64,15.77-.23,3.29,1.95,5.49,5.25,5.21,3.09-.26,5.83.7,7.63,3.07,2.93,3.86,6.87,6.42,10.89,8.7,2.92,1.66,6.48,2.29,9.82,3.07,1.99.46,3.47-.94,4.95-2.21,2.95-2.53,6.35-3.84,10.34-3.14,4.96.87,9.91,1.76,14.89,2.54,2.27.36,4.38,1.03,6.21,2.44,4.39,3.37,9.21,5.55,14.83,6,2.68.22,4.99,1.64,6.54,3.93,2.24,3.32,5.2,4.41,9.14,3.7,3.44-.63,6.89-1,10.44.12,2.87.91,5.37-.89,5.63-3.85.63-7.19,3.28-13.78,5.47-20.53,1.74-5.38,3.09-10.88,4.54-16.35,1.57-5.94,3.35-11.79,5.81-17.45,2.24-5.13,3-10.63,3.33-16.19,0-.12.01-.25-.01-.36-1.42-6.38.97-12.43,1.73-18.61.62-5.06.63-10.03-1.65-14.64-2.22-4.48-2.41-9.12-1.85-13.88.46-3.95-.08-7.72-1.24-11.51-1.89-6.17-4.94-11.93-6.37-18.25-.46-2.02-.87-4.04-1.41-6.04-.5-1.86-1.46-3.47-2.93-4.74-2.86-2.46-6.27-2.07-7.95,1.29-3.06,6.13-6.82,11.95-8.67,18.65-.06.22-.2.43-.43.91Zm-47.2,120.28c-2.56-.52-5.19-.28-7.75-.92-5.45-1.35-10.13.44-14.16,4.11-1.14,1.04-2.23,1.41-3.61.66-1.52-.83-3.15-1.28-4.84-1.55-.66-.1-1.33-.2-1.89-.62-3.4-2.61-7.2-4.63-9.97-8.13-2.39-3.03-5.94-4.36-9.9-4.12-.96.06-1.9.25-2.06-1.09-.16-1.37.97-.95,1.63-1.09,2.51-.53,5.47-3.33,5.78-5.78.35-2.8-.49-5.2-3.11-6.66-.83-.46-.89-1-.63-1.8.54-1.62.79-3.31,1.04-5,1.18-8.01,2.18-16.05,5.04-23.7.34-.92.69-1.82,1.29-2.6,2.39-3.09,4.35-6.45,6.3-9.82,4.71-8.16,9.3-16.39,14.73-24.12,1.14-1.62,2.44-3,4.32-3.81,1.13-.48,2.17-1.2,2.82-2.25,2.18-3.48,5.06-6.38,7.72-9.46,4.45-5.15,8.94-10.29,13.94-14.93.53-.49,1.07-1.42,1.64.03,1.63,4.16,4.37,7.59,7.34,10.82,11.67,12.69,23.31,25.39,32.62,40,1.06,1.66,2.61,2.13,4.38,2.08,1.66-.05,2.82.54,3.46,2.1.14.33.34.65.56.94.97,1.27,2.27,1.42,3.58.74,1.32-.69,1.13-1.91.6-3.03-.88-1.87-1.77-3.75-2.78-5.55-.54-.96-.86-1.93-.67-2.95.37-1.99.99-3.93,1.21-6.43,2.07,2.49,3.07,4.93,3.67,7.53.68,2.99,1.77,5.81,3.27,8.48,1.83,3.26,4.18,6.13,6.67,8.89,1.38,1.53,2.06,3.26,2.01,5.31-.11,5.09-.87,10.09-2.78,14.81-.7,1.74-1.57,3.42-2.09,5.23-2.19,7.66-4.72,15.23-6.67,22.96-1.14,4.54-2.54,9.02-4.28,13.38-1.6,4.02-2.8,8.14-3.24,12.47-.22,2.21-1.2,2.82-3.26,2.12-1.41-.48-2.84-.64-4.31-.45-1.99.25-4,.38-5.97.75-2.04.39-3.53-.18-4.72-1.88-2.7-3.85-6.51-5.67-11.15-6.04-3.13-.25-5.98-1.39-8.84-3.44,1.76-.07,3.13-.11,4.5-.19,8.71-.46,16.59-3.58,24.21-7.53,1.16-.6,1.62-1.57,1.65-2.83.08-3.71.14-7.42.28-11.13.08-2.06.35-4.11.49-6.17.07-.98-.4-1.66-1.39-1.83-1-.17-1.65.31-1.93,1.25-.2.64-.37,1.29-.47,1.95-.74,4.59-.49,9.23-.57,13.84-.03,1.9-.93,2.39-2.61,2.75.18-4.29.36-8.47.54-12.65.06-1.31.56-2.98-1.38-3.18-1.86-.19-1.78,1.58-1.9,2.75-.28,2.78-.36,5.58-.53,8.37-.12,1.94-.23,3.88-.38,5.82-.11,1.39-1.38,1.63-2.28,1.66-1.19.05-.52-1.16-.52-1.7,0-1.88.23-3.76.34-5.64.06-1.08-.29-2.02-1.48-2.14-1.24-.13-1.74.77-1.81,1.84-.17,2.72-.76,5.43-.41,8.18.22,1.77-1.33,1.23-2.11,1.44-1.07.28-.69-.73-.65-1.22.16-1.94.44-3.87.58-5.81.08-1.07-.11-2.2-1.48-2.32-1.38-.12-1.67.93-1.81,2.04-.25,1.99-.68,3.98-.71,5.97-.03,1.94-.94,2.47-2.67,2.51-1.06.03-1.37-.12-1.08-1.27.54-2.12.9-4.29,1.32-6.44.13-.66.16-1.35-.21-1.95-.36-.59-.95-.74-1.59-.65-.89.12-1.14.83-1.31,1.56-.6,2.61-.92,5.28-1.95,7.78-.18.44-.28,1.05-.92.92-.78-.16-.37-.75-.27-1.18,1.13-5.05,2.3-10.09,3.39-15.15.36-1.66.76-3.33.76-5.05,0-.92-.42-1.51-1.35-1.66-.87-.14-1.38.34-1.67,1.09-.15.39-.23.82-.31,1.23-1.2,6.22-2.52,12.41-4.29,18.5-.18.63-.22,1.4-1.25,1.08-1.06-.33-.58-1.05-.39-1.62.67-2.02,1.4-4.02,2.09-6.04.37-1.1.6-2.28-.8-2.77-1.42-.49-1.93.68-2.33,1.71-.75,1.93-1.46,3.87-2.12,5.83-.31.94-.71,1.42-1.67.76-.75-.52-2.38-.3-1.5-2.12.95-1.97,1.72-4.03,2.24-6.17.25-1.05.5-2.19-.82-2.62-1.38-.45-1.95.61-2.36,1.68-.65,1.7-1.23,3.43-1.92,5.12-.2.5-.27,1.61-1.23,1.01-.75-.46-2.2-.61-1.63-2.15.21-.57.43-1.14.59-1.73.27-1.02.58-2.13-.77-2.62-1.32-.49-1.99.43-2.29,1.46-.47,1.6-1.14,1.43-2.08.44-.25-.26-.52-.52-.81-.73-.91-.63-1.11-1.2-.26-2.16.84-.94,1.52-2.06,1.7-3.38.11-.83-.19-1.46-.93-1.8-.77-.35-1.46-.06-1.92.6-.45.65-.72,1.42-1.2,2.04-.32.41-.41,1.47-1.2,1.02-.89-.5-.14-1.14.21-1.67,1.97-3,3.95-5.99,5.91-9,.64-.99,1.03-2.1-.2-2.88-1.24-.79-1.98.09-2.64,1.08-1.82,2.73-3.66,5.45-5.55,8.14-.3.43-.61,1.61-1.36.81-.81-.87-2.79-1.31-1.81-3.19.51-.96,1.28-1.79,1.78-2.75.5-.97.34-1.95-.66-2.54-1.04-.62-1.87-.19-2.47.75-.43.66-.82,1.35-1.23,2.03-.15.25-.23.53-.67.38-1.46-.53-2.88-4.2-2.1-5.57,2.03-3.53,4.07-7.06,6.16-10.56.74-1.25,1.52-2.52,2.83-3.29,1.05-.62,1.63-1.44.89-2.53-.77-1.14-1.88-.94-2.89-.25-1.64,1.12-2.79,2.71-3.81,4.37-1.79,2.9-3.51,5.83-5.28,8.74-3.01,4.95-2.94,6.16.7,10.73.15.19.31.38.47.56,6.58,7.28,13.47,14.2,21.66,19.82Zm54.42-73.29c-1.65.46-2.69-.03-3.61-1.37-3.17-4.61-6.21-9.32-9.69-13.73-6.87-8.7-14.37-16.85-21.98-24.91-2.21-2.34-4.32-4.79-6.07-7.52-.52-.81-.52-1.32.22-1.98,1.99-1.79,3.9-3.65,6.1-5.21.98-.7,1.48-.64,2.17.32,2.52,3.51,5.09,6.98,7.69,10.44,1.57,2.09,3.21,4.13,4.86,6.16.73.9,1.72,1.29,2.71.48,1-.82.72-1.83.07-2.77-.14-.2-.3-.38-.46-.57-4.39-5.14-8.15-10.78-12.43-16-.76-.93-.59-1.44.33-1.99.36-.22.72-.46,1.03-.75,1.18-1.11,1.79-.73,2.53.61,4.95,8.94,10.62,17.48,14.91,26.79.44.96,1.23,1.6,2.36,1.17,1.12-.43,1.22-1.45,1-2.46-.15-.7-.42-1.41-.77-2.04-1.46-2.74-2.91-5.48-4.48-8.16-3.41-5.83-6.86-11.64-10.38-17.41-.74-1.21-.06-1.56.76-2.06.81-.49,1.47-1.3,2.39-.01,2.65,3.72,5.45,7.34,7.18,11.62,1.28,3.18,2.9,6.17,4.82,8.99.79,1.16,1.54,2.35,2.01,3.67,2.53,7.11,4.99,14.24,6.58,21.63.67,3.12,1,6.3.12,9.4-.73,2.59-1.1,5.09.02,7.66Zm19.86,10.55c-.28-.14-.47-.18-.57-.3-3.42-3.87-6.33-8.04-7.6-13.13-.91-3.65-2.39-7-4.69-9.99-2.18-2.83-3.61-6.01-4.57-9.46-1.68-6.03-3.43-12.06-5.8-17.86-.76-1.87-.91-3.61-.49-5.48.4-1.78.88-3.55,1.71-5.19,2.26-4.44,4.54-8.87,6.86-13.29.96-1.84,1.96-1.9,3.29-.28.34.41.6.92.79,1.42,1.58,4.2,1.87,8.52,1.11,12.92-1.29,7.49-3.56,14.79-4.23,22.4-.08.97-.4,1.91-.49,2.87-.09.92.29,1.7,1.26,1.97.99.28,1.7-.22,2.05-1.08.35-.9.64-1.85.75-2.8.75-6.6,2.24-13.06,3.71-19.53.08-.36-.06-.89.65-1.03,1.13,2.47,1.89,5.09,2.8,7.65,1.49,4.18,2.21,8.39,1.67,12.88-.5,4.16-.82,8.49,1.24,12.35,4.4,8.25,2.2,16.53.58,24.96ZM4.38,124.92c.36-1.19.72-2.34,1.07-3.5.11-.35.2-.75.61-.83.49-.09.75.32.99.66,1.02,1.44.55,3.22-1.2,4.54-.42.32-.91.81-1.44.46-.49-.32-.06-.89-.03-1.32Z"/><path class="cls-3" d="m61.31,41.49c-5.68-1.18-10.41,1.69-11.52,6.98-1.18,5.63,3.43,12.16,9.47,13.42,4.62.97,9.38-2.49,10.39-7.54,1.05-5.3-3.15-11.79-8.34-12.86Zm-2.6,4.35c2.04.44,3.11,2.08,2.66,4.04-.31,1.34-2.48,2.6-3.92,2.29-2-.44-3.73-2.85-3.3-4.62.31-1.27,2.61-2.14,4.56-1.71Z"/><path class="cls-3" d="m80.48,54.64c.83-5.87-1.4-11.79-6.3-16.78-3.21-3.27-7.26-5.04-11.59-6.23-1.02-.28-2.16-.28-2.59,1.01-.46,1.36.45,1.81,1.56,2.14,4.75,1.43,8.97,3.64,12.02,7.77,4.21,5.71,4.38,12.35.27,18.12-.98,1.38-1.95,2.79-3.24,3.93-.75.67-1.04,1.56-.41,2.44.62.87,1.54.9,2.45.47.38-.18.78-.4,1.05-.71,2.85-3.27,5.55-6.63,6.77-12.16Z"/><path class="cls-3" d="m91.23,66.13c-.02.15.07-.21.07-.57-.01-1.01-.37-1.82-1.5-1.93-1.04-.1-1.48.57-1.75,1.48-1.27,4.33-3.08,8.43-5.32,12.34-3.68,6.44-9.02,11.06-15.7,14.17-.88.41-1.79.79-2.34,1.66-.5.79-.58,1.62.07,2.35.61.69,1.38.65,2.17.3,10.76-4.82,18.2-12.72,22.23-23.82.58-1.6,1.21-3.18,1.8-4.77.08-.23.11-.47.27-1.22Z"/><path class="cls-3" d="m93.68,78.71c.2-.86.06-1.5-.6-1.88-.69-.4-1.46-.44-2,.2-.58.69-1.08,1.47-1.52,2.26-4.51,8.1-10.51,14.73-18.72,19.22-.96.53-1.94,1.07-2.61,1.96-.65.87-1.1,1.91-.21,2.8.88.88,1.82.52,2.78-.17,2.22-1.59,4.53-3.06,6.79-4.61,7.13-4.9,11.81-11.82,15.87-19.24.12-.21.18-.45.22-.55Z"/><path class="cls-3" d="m24.33,95.8c3.74.8,8.03-1.98,8.75-5.66.76-3.86-1.96-8.48-5.44-9.21-3.69-.78-7.63,1.98-8.51,5.96-.92,4.17,1.37,8.1,5.2,8.91Zm.8-3.53c-1.76-.35-2.81-2.46-2.34-4.67.47-2.2,2.28-3.7,4.02-3.33,1.71.36,3.24,3.16,2.81,5.14-.37,1.72-2.72,3.22-4.48,2.87Z"/><path class="cls-3" d="m20.15,122.13c2.68.56,6.15-1.57,6.66-4.08.5-2.49-1.69-6.06-4.05-6.58-2.54-.56-5.75,1.68-6.25,4.37-.53,2.83,1.17,5.78,3.64,6.3Z"/><path class="cls-3" d="m42.44,73.11c-2.01-.58-3.63.03-4.91,1.4-1.23,1.31-1.34,2.95-.78,4.61.6,1.79,1.67,3.27,3.3,4.23,2.5,1.48,5.44.71,6.81-1.69,1.35-2.37.35-6.18-2-7.58-.79-.47-1.63-.81-2.43-.97Zm-.47,3.69c1.33.33,2.37,1.49,2.03,2.68-.22.8-.77,1.22-1.63,1.05-1.08-.21-2.51-2.25-2.25-3.2.21-.76.77-.83,1.85-.54Z"/><path class="cls-3" d="m31.18,73.69c1.97.45,3.77-.65,4.15-2.54.46-2.24-1.05-3.97-4.02-4.61-1.91-.41-3.29.32-3.7,1.97-.51,2.07,1.27,4.67,3.56,5.19Z"/><path class="cls-3" d="m87.21,98.03c.21-.86.07-1.57-.63-2.01-.67-.43-1.46-.45-1.99.2-1.48,1.81-3.51,2.99-5.17,4.58-.88.84-1.75,1.84-.77,2.96,1,1.15,2.11.37,3.03-.39,1.36-1.12,2.7-2.26,4.03-3.41.64-.56,1.24-1.17,1.49-1.93Z"/><path class="cls-3" d="m52.04,71.03c.95.14,1.88.08,2.31-.93.44-1.04-.1-1.66-1.05-2.15-.9-.47-1.72-1.11-2.56-1.69-.75-.51-1.52-.52-2.14.13-.61.65-.59,1.45-.07,2.17.88,1.22,2.11,1.97,3.51,2.48Z"/><path class="cls-3" d="m124.74,92c.21,1.33.62,2.78,1.66,3.93.41.46,1.08.54,1.69.28.63-.27.96-.8.9-1.44-.14-1.41-.69-2.69-1.52-3.82-.38-.52-1.03-.64-1.65-.49-.67.17-.91.73-1.09,1.54Z"/><path class="cls-3" d="m121.1,84.95c-.14,1.46,1.1,3.47,2.16,3.59,1.01.11,1.63-.41,1.79-1.39.21-1.24-1.24-3.43-2.31-3.54-1.08-.11-1.54.51-1.65,1.33Z"/><path class="cls-3" d="m38.06,101.38c1.38.13,2.26-.53,2.53-1.95.22-1.15-.09-2.08-1.36-2.38-1.06-.25-2.66.92-2.84,2.06-.19,1.24.41,1.96,1.67,2.26Z"/><path class="cls-3" d="m18.81,104.79c.1-1.25-.12-2.32-1.39-2.68-1.44-.4-2.14.61-2.49,1.76-.36,1.17.25,2.06,1.38,2.36,1.25.33,2.05-.36,2.51-1.44Z"/><path class="cls-3" d="m45.98,65.44c1.03.1,1.73-.31,1.84-1.31.12-1.15-.38-2.03-1.59-2.25-.91-.16-1.57.34-1.7,1.22-.17,1.14.31,1.99,1.45,2.34Z"/><path class="cls-3" d="m61.19,70.39c.12-1.11-.37-1.86-1.45-2.14-.98-.25-1.67.14-1.83,1.18-.17,1.12.35,1.87,1.42,2.17,1.02.28,1.59-.24,1.86-1.21Z"/><path class="cls-3" d="m47.56,114.25c.06-.97-.22-1.79-1.28-2.06-1.02-.26-1.67.3-1.86,1.22-.22,1.05.18,1.96,1.32,2.2,1,.21,1.55-.43,1.82-1.36Z"/><path class="cls-3" d="m65.89,66.63c-1.22-.23-1.99.11-2.17,1.1-.22,1.15.48,1.88,1.56,2.05.92.14,1.69-.27,1.85-1.3.18-1.13-.47-1.67-1.23-1.85Z"/><path class="cls-3" d="m23.83,132.11c.06-1.01-.3-1.74-1.3-1.87-1.01-.14-1.81.33-2,1.37-.18.97.33,1.62,1.32,1.81,1.09.21,1.69-.36,1.99-1.3Z"/><path class="cls-3" d="m44.35,60.86c1.01.15,1.68-.29,1.86-1.26.18-.94-.24-1.7-1.21-1.92-1-.23-1.67.29-1.86,1.25-.18.94.25,1.64,1.22,1.94Z"/><path class="cls-3" d="m79.37,124.5c-.05.95.21,1.7,1.24,1.92,1.03.22,1.62-.29,1.81-1.27.18-.98-.24-1.68-1.2-1.91-1.02-.24-1.56.37-1.85,1.26Z"/><path class="cls-3" d="m118.73,80.4c-.14.91.18,1.62,1.2,1.84.93.2,1.53-.27,1.75-1.15.25-.99-.18-1.71-1.16-1.9-.87-.18-1.52.24-1.79,1.22Z"/><path class="cls-3" d="m80.09,132.24c.84.09,1.51-.24,1.7-1.15.21-1.02-.34-1.63-1.32-1.79-.93-.16-1.57.3-1.7,1.21-.13.89.33,1.5,1.31,1.74Z"/><path class="cls-3" d="m57.12,131.38c1.01.22,1.68-.14,1.92-1.01.24-.86-.1-1.56-1.03-1.81-.98-.26-1.7.11-1.94,1.09-.22.91.25,1.5,1.05,1.73Z"/><path class="cls-3" d="m90.84,127.98c.97.13,1.55-.28,1.72-1.19.17-.9-.17-1.55-1.1-1.75-1.01-.22-1.63.27-1.8,1.26-.16.93.34,1.46,1.17,1.69Z"/><path class="cls-3" d="m59.78,124.74c.83.07,1.45-.23,1.64-1.07.2-.92-.19-1.54-1.13-1.7-.86-.14-1.42.33-1.56,1.13-.15.81.27,1.38,1.06,1.64Z"/><path class="cls-3" d="m96.85,37.85c1,.08,1.71-.33,1.86-1.3.15-1-.31-1.81-1.33-2.05-.97-.22-1.63.25-1.81,1.26-.18,1.06.36,1.7,1.28,2.09Z"/><path class="cls-3" d="m130.74,66.82c.24-3.1-.09-6.52-1.26-9.83-.38-1.08-1.13-2.07-2.46-1.54-1.36.54-1.03,1.65-.67,2.78.9,2.81,1.12,5.7.91,8.63-.08,1.12,0,2.11,1.35,2.38,1.07.21,1.76-.49,2.13-2.42Z"/></svg>