<?xml version="1.0" encoding="UTF-8"?><svg id="Layer_1" xmlns="http://www.w3.org/2000/svg" viewBox="0 0 129.51 138"><defs><style>.cls-1{fill:#854430;stroke-width:0px;}</style></defs><path class="cls-1" d="m64.69,20.6c-.21-.83-.71-1.65-1.71-1.43-1.21.25-1.11,1.24-.8,2.08.24.66.68,1.49,1.52,1.27.86-.22,1.21-1.06.99-1.92Z"/><path class="cls-1" d="m1.06,63.59c1.3-1.03,2.77-1.68,4.34-2.2,2.62-.87,5.33-1.61,7.46-3.49,4.97-4.4,9.53-9.21,14.31-13.8.43-.42.6-.85.53-1.45-.29-2.28-.16-4.58.4-6.76,1.01-3.91,2.8-7.37,7.12-8.51,1.21-.33,1.41-.8,1.19-1.91-.33-1.65-.3-3.28.98-4.6.87-.88,1.82-1.65,3.07-1.93,1.32-.3,2.28.49,3.27,1.27.92-1.88,1.8-3.63,3.01-5.16,1.24-1.57,2.46-2.97,2.66-5.23.15-1.8,1.44-3.47,3.43-4.03,1.8-.51,2.71.81,3.56,2.08.03.04.06.07.09.11.27.36.63.3.99.2.4-.11.35-.44.37-.77.29-4.23,3.11-7.26,7.29-7.39,2.38-.07,4.79.11,7.19.11,1.61-.01,2.79,1.43,2.87,3.06.04.99-.29,1.88-.67,2.75-.25.57-.4,1.1-.12,1.7.93,1.97,2.16,3.69,4.52,3.85,2.26.16,3.36,1.49,4.14,3.36.14.32.18.79.65.75,2.49-.22,4.93,1.48,7.51-.19,1.37-.89,3.12-.53,4.42.66,1.24,1.15,1.58,2.66,1.14,4.25-.22.78-.02,1.14.57,1.57,1.53,1.11,3.32,1.38,5.1,1.7,3.15.55,4.89,2.54,4.85,5.71-.01.77.26,1.15.9,1.47,1.42.72,2.73,1.61,3.95,2.64,2.68,2.27,2.74,4.93,0,7.07-1.15.9-1.2,1.77-.74,2.94.74,1.85,1.55,3.67,2.04,5.62.44,1.76.41,3.43-.63,4.97-.91,1.36-.95,2.71-.46,4.26.9,2.85,1.93,5.67,2.42,8.63.32,1.94.31,3.89-1.21,5.36-1.79,1.71-2.72,3.79-3.01,6.19-.13,1.12-.18,2.26-.21,3.39-.05,2.07-.75,3.93-2.31,5.21-2.25,1.86-1.31,5.08.84,6.29,1.38.77,2.73,1.62,4.02,2.55,2.43,1.75,5.13,2.55,8.08,2.92,3.59.44,6.91,1.81,7.91,5.64,1.32,5.04.6,10.06-2.57,14.26-3.65,4.87-8.58,8.16-14.49,9.83-1.04.3-1.52.85-1.92,1.84-1,2.47-1.46,5.04-1.8,7.62H28.31c-.88-2.3-1.29-4.7-1.12-7.18.57-8.32,2.39-16.33,5.92-23.9.19-.4.34-.76.39-1.11-.03-.19-.04-.38-.03-.57-.07-.28-.23-.55-.53-.83-.45-.43-.56-1.12-.57-1.78-.03-1.55.71-2.8,1.62-3.95,2.02-2.59,4.38-4.84,7.06-6.75,1.78-1.27,3.48-2.63,4.97-4.23,2.68-2.9,5.5-5.67,8.5-8.25.65-.56,1.06-1.15.97-2.09-.1-1.17.36-2.22,1.08-3.14.88-1.12,2-1.98,3.13-2.82,3.77-2.83,7.79-5.33,11.33-8.48.32-.28.87-.4.81-.98-.21-1.76.73-3.14,1.47-4.59,1.21-2.34,2.08-4.82,2.96-7.3.22-.61.27-1.32-.21-1.8-.41-.4-.8.22-1.22.3-.31.05-.63.23-.92.19-.97-.12-1.27.43-1.62,1.21-1.01,2.23-2.04,4.46-3.6,6.39-2.28,2.82-6.14,3.92-9.58,2.78-2.55-.84-4.76-2.19-6.5-4.28-.42-.5-.84-1.19-1.61-1.13-3.55.28-7.17.5-9.76,3.37-1.68,1.85-3.71,2.96-6,3.77-6.42,2.25-12.03,6.06-17.9,9.35-2.08,1.17-3.33,2.58-2.97,5.3.28,2.19-1.43,3.15-3.54,2.26-1.21-.5-2.32-1.23-3.5-1.81-3.99-1.96-6.35-5.13-7.25-9.47-.25-1.21.02-2.14.97-2.89ZM58.88,21.88c.82,3.77,3.85,5.76,7.54,4.96,3.17-.68,6.14-3.12,4.66-8.39-.77-3.55-3.32-5.13-7-4.35-3.44.73-5.93,4.45-5.2,7.78Z"/></svg>