<?xml version="1.0" encoding="UTF-8"?><svg id="Layer_1" xmlns="http://www.w3.org/2000/svg" viewBox="0 0 253.08 184.8"><defs><style>.cls-1{fill:#f7eeeb;}.cls-1,.cls-2,.cls-3,.cls-4,.cls-5,.cls-6,.cls-7{stroke-width:0px;}.cls-2{fill:#869ac4;}.cls-3{fill:#182a42;}.cls-4{fill:#923b25;}.cls-5{fill:#ffe9da;}.cls-6{fill:#fbdfcf;}.cls-7{fill:#f27959;}</style></defs><rect class="cls-5" width="253.08" height="184.8" rx="56.76" ry="56.76"/><path class="cls-4" d="m94.22,70.35c-.56-2.47-2.63-4.36-2.65-7.02-.02-2.55-1.14-4.62-2.37-6.82-2.16-3.84-3.69-8.13-3.94-12.5-.18-3.12,1.97-5.79,4.52-7.76,2.29-1.77,4.93-2.59,7.79-2.85,2.22-.2,4.46-.41,6.66-.77,5.98-.98,12.14,1.87,14.62,6.94.7,1.43,1.34,2.98-.58,4.14-.65.39-.63,1.21-.81,1.85-1.29,4.5-1.9,9.14-2.63,13.76-.4,2.5-1.09,4.96-1.76,7.42-.58,2.13-1.28,2.42-3.43,1.67-.26-.09-.55-.25-.78-.19-2.22.53-3.24-.43-3.34-2.63-.02-.33-.27-.62-.86-.73.33,1.29.03,2.37-.57,3.53-.67,1.29-1.59,1.8-2.86,2.02-2.33,0-4.67-.02-7-.03Zm21.44-29.67c-.28-.37,0,.44-.64.91-.65.47-1.62-.85-2.36-.5-.73.35-.41,1.49.03,1.73.64.34,1.28-.49,1.96-.72.64-.21.94-.73,1.01-1.42Z"/><path class="cls-7" d="m94.65,70.35c2.3,0,4.59.02,6.88.03,1.73.68,3.54.47,5.33.42.47-.01.94-.18,1.4-.15,3.49.2,4.82.45,4.38,4.44-.79,7.11-.76,14.32-1.08,21.48-.09,2.13-.17,4.26-.33,6.38-.15,2.01-1.12,3.41-3.17,3.91-.78.15-1.57.23-2.33.45-2.42.71-4.8,1.07-7.04-.52-3.85.12-4.43-2.6-4.67-5.5-.33-3.81-.59-7.63-.81-11.45-.07-1.27.02-2.57.83-3.66.41-.56.27-1.16.22-1.75-.33-3.81-.64-7.63-1.01-11.43-.12-1.24.44-2.03,1.41-2.64Z"/><path class="cls-6" d="m97.46,106.79c2.39,1.59,4.91,1.24,7.49.52.8-.22,1.65-.3,2.48-.45,2,.39,2.61,1.48,2.59,3.44-.06,6.19-.68,12.37-.56,18.57.03,1.78-.39,3.59-.37,5.41.01,1.55.17,3.04.64,4.57,1.34,4.38.82,8.73-.74,12.99-.2.53-.65.97-1.23,1.04-4.25.48-8.18-.32-11.69-2.68-.32-.22-.68-.65-.68-.98.01-2.02-1.06-4.07-.42-6,1.2-3.6-.17-6.99-.38-10.48-.17-2.94-1.02-5.8.09-8.92.75-2.11-.13-4.76-.41-7.16-.28-2.39-.73-4.77-1.1-7.15-.23-1.48.7-2.07,2.06-2.31.75-.13,1.6.26,2.24-.41Z"/><path class="cls-6" d="m115.73,41.36c-.07.68-.37,1.18-1,1.38-.67.22-1.3,1.04-1.93.71-.43-.23-.75-1.35-.03-1.69.73-.34,1.32-.76,1.96-1.23.63-.46.72.46,1,.82Z"/><path class="cls-3" d="m92.73,126.18c1-12.02-.89-24.49-1.3-37.02-.21-6.27-.17-12.55-.16-18.82,0-.9-.07-1.73-.37-2.56-2.69-7.62-5.17-15.31-7.47-23.06-.87-2.93-.31-5.01,1.89-7.02,7.26-6.66,15.56-8.98,25-5.81,3.58,1.2,6.71,3.37,9.15,6.44,1.11,1.4,1.13,2.79.77,4.36-1.3,5.57-3.27,10.96-4.47,16.57-1.29,6.01-1.82,12.08-2.17,18.2-.58,9.96-1.34,19.91-1.94,29.87-.52,8.63-.14,17.27.02,25.9.11,5.73.2,11.47,1.16,17.14.15.92-.15,1.46-1.02,1.93-4.8,2.58-9.85,2.3-14.93,1.37-1.74-.32-2.63-1.66-2.87-3.49-1.02-7.78-.94-15.61-1.28-23.99Zm6.99-30.96s.05,0,.07,0c0,3.24.05,6.48-.03,9.72-.03,1.1.38,1.41,1.37,1.47,2.11.13,4.17-.22,6.24-.53,1.04-.16,1.4-.76,1.46-1.81.25-4.24.59-8.48.9-12.71.44-6.05.87-12.11,1.34-18.16.1-1.23-.21-1.58-1.56-1.81-4.71-.8-9.42-.41-14.13-.45-1.17,0-1.32.41-1.32,1.39-.01,10.53.47,21.04,1.32,31.54.06.77.14,1.71,1.08,1.63.97-.08.53-1.09.52-1.66-.06-6.01.26-12.02-.27-18.02-.1-1.08-.11-2.4,1.34-2.53,1.65-.15,1.68,1.21,1.68,2.4.01,3.17,0,6.35,0,9.52Zm8.7,22.33c0-2.43.02-4.86-.01-7.29,0-.52.5-1.33-.52-1.43-.85-.09-1.19.45-1.16,1.27.18,6.53-1,13.05-.19,19.6.39,3.14.43,6.32.6,9.49.05.9.02,1.89-1.18,1.98-1.19.1-1.64-.74-1.77-1.78-.11-.87-.21-1.74-.29-2.62-.73-8.62-.52-17.25.06-25.87.08-1.26-.17-1.72-1.46-1.65-1.76.1-3.51-.05-5.23-.47-1.14-.28-1.59,0-1.43,1.28.49,4.17.31,8.36.16,12.54-.31,8.78.16,17.52.93,26.26.11,1.29.71,1.86,1.95,2.16,2.72.66,5.38-.12,8.06-.2,2.22-.07,2.78-.74,2.47-2.96-1.41-10.07-.28-20.24-.99-30.32Zm-5.88-74.76c4.4.28,8.26-1.21,12.16-2.5.48-.16,1.2-.17,1.34-.75.17-.72-.58-.97-1.02-1.35-9.32-8.08-21.92-4.51-28.21,2.44-.64.71-.89,1.36-.62,2.35,2.18,8.06,4.68,16.02,7.41,23.91.23.65.4,1.47,1.28,1.21.83-.24.37-1.04.29-1.56-1.01-6.47-1.62-12.98-2.23-19.49-.12-1.3.28-2.72-1.39-3.66-1.01-.57-.22-2.37,1.08-2.48.58-.05,1.22.1,1.76.32,2.67,1.08,5.46,1.46,8.13,1.54Zm-3.55,25.69c.58,0,.17-4.92.22-7.09.12-4.86.18-9.71-.11-14.57-.12-1.99-1.59-1.57-2.62-1.65-1.56-.12-.71,1.22-.66,1.75.52,5.09,1.12,10.18,1.78,15.26.25,1.94.61,6.31,1.38,6.31Zm7.74-5c0,1.28,0,2.56,0,3.84,0,.44.19.83.69.83.61,0,.49-.52.51-.89.38-6.94,1.62-13.79,2.35-20.69.06-.55.73-1.73-.56-1.62-.85.07-2.35-.2-2.3,1.56.17,5.67-.58,11.3-.69,16.96Zm-4.48-5.28c0,2.83,0,5.66,0,8.49,0,.51-.1,1.16.71,1.2.81.03.79-.61.77-1.14-.24-6.41.99-12.77.82-19.18-.02-.92.22-1.92-1.31-1.94-1.67-.03-1.45,1.09-1.38,2.06.25,3.5.33,7,.39,10.51Zm9.03,7.67c.84.21,7.09-22.8,6.08-23.26s-3.93.79-4.24,4.37c-.15,1.74-.44,3.48-.62,5.22-.47,4.54-2.85,13.28-1.22,13.68Z"/><path class="cls-3" d="m98.18,80.87c-.73-.07-1.19-.49-1.16-1.28.04-.78.53-1.21,1.3-1.2.81,0,1.23.49,1.19,1.27-.04.77-.48,1.21-1.34,1.21Z"/><path class="cls-3" d="m106.88,145.69c-.2.75-.63,1.22-1.42,1.09-.85-.15-1.27-.74-1.1-1.58.15-.75.72-1.12,1.48-.96.74.16,1.07.71,1.04,1.45Z"/><path class="cls-2" d="m162.71,97.03c.73-.1,1.47-.19,2.19-.3,2.52-.4,4,.7,3.97,3.22-.03,3.23-.06,6.48-.45,9.68-.62,5.19-.09,10.36-.18,15.54,0,.46.15.96.03,1.38-1.73,5.72-1.27,11.51-.65,17.31.26,2.46-.5,3.77-2.8,4.69-.44.17-1.02.26-1.27.59-2.02,2.73-5.25,2.79-8.08,3.72-1.4.46-2.66.17-4.06-.44-1.86-.81-3.53-1.93-5.31-2.85-2.32-1.2-2.88-3.74-3.12-6.24-.59-6.36-.7-12.75-1.29-19.1-.4-4.39-.66-8.81-.13-13.11.45-3.59-.12-7.08.11-10.6.22-3.33,1.31-4.39,4.7-4.33,2.68,1.39,5.52,1.9,8.52,1.6,2.05,0,4.11.3,6.13-.31.56-.15,1.11-.3,1.67-.45Z"/><path class="cls-7" d="m154.91,97.79c-2.99.29-5.84-.21-8.52-1.6-2.05-2.23-1.92-2.83.51-4.6,1.33-.97,1.47-2.69,1.08-4.04-1.63-5.61-1.1-11.37-1.51-17.06-.08-1.08.47-2.13,1.44-2.76,1.07-.7,1.73.22,2.48.75.57.4,1.17.68,1.89.42,1.89.3,3.82.06,5.7.52.88.21,1.55-.19,1.76-1.15.96.05,1.65-.39,2.14-1.19,1.57,1.96,1.54,4.31,1.6,6.63.07,3.29.05,6.59.15,9.88.07,2.15-.65,4.08-1.5,5.98-.39.88-1.13,1.29-2.03,1.48-1.24.27-2.47.55-3.71,1.19,1.38,0,2.79.18,4.13-.05,1.59-.27,3.04.14,4.55.34.67.09,1.16.4,1.33,1.05.19.74-.13,1.34-.74,1.73-.96.61-1.95,1.16-2.94,1.73-.56.15-1.11.3-1.67.45-2.03.42-4.15-1.04-6.13.31Z"/><path class="cls-4" d="m161.86,67.07c-.49.8-1.18,1.24-2.14,1.19-2.47.27-4.95-.83-7.42.06-.94-.52-1.16-1.39-1.21-2.39-.27-5.38-.47-10.77-.88-16.13-.18-2.32,1.23-4.34.93-6.64-.03-.25.31-.58.53-.82,1.78-1.85,1.6-4.74,5.74-5.1,1.9-1.39,3.02-.73,4.12,1.22,1.75,3.12-.01,6.23.46,9.3-2.53,4.14-.23,8.49-.48,12.73-.13,2.18.22,4.39.35,6.58Z"/><path class="cls-6" d="m152.3,68.32c2.46-.89,4.95.21,7.42-.06-.21.96-.88,1.36-1.76,1.15-1.88-.45-3.81-.22-5.7-.52.01-.19.03-.38.04-.57Z"/><path class="cls-1" d="m154.91,97.79c1.98-1.35,4.11.11,6.13-.31-2.02.6-4.08.3-6.13.31Z"/><path class="cls-3" d="m162.77,50.38c0,4.32.01,8.63-.01,12.95,0,.78-.05,1.4.99,1.61,1.28.27,1.04,1.45,1.03,2.34-.08,6.55-.18,13.09-.34,19.64-.04,1.4,0,2.58,1.66,2.95.12.03.3.14.32.23.6,3.27,4.06,5.16,3.57,9.21-1.64,13.36-1.03,26.81-.69,40.22.05,2.07.48,4.14.71,6.21.17,1.55-.24,2.7-1.86,3.36-1.87.76-3.66,1.71-5.45,2.64-6.51,3.36-15.33,2.24-20.41-2.6-.92-.88-1.36-1.84-1.54-3.15-1.38-9.82-.62-19.67-.67-29.52-.03-6.34-.08-12.67-.11-19.01,0-1.75-.25-3.61,2.2-4.1.72-.15.34-.92.36-1.4.06-1.08.28-2.18,1.46-2.37,1.41-.24,1.45-1.06,1.42-2.15-.12-6.07-.23-12.15-.28-18.22-.02-1.86-.25-3.96,2.52-4.24.76-.08.44-.7.43-1.11-.1-5.26.09-10.52-.3-15.78-.46-6.2,2.68-11.21,8.34-13.71,1.28-.56,2.59-.75,3.95-.57,1.87.25,2.99,1.53,2.99,3.41m-20.26,82.55c.28,7.33-.4,16.17.84,24.97.23,1.65.78,2.8,2.16,3.6,1.76,1.02,3.6,1.79,5.62,2.2,5,1.01,9.21-1.11,13.45-3.26,1.48-.75,1.93-1.76,1.77-3.41-.94-9.55-.85-19.13-.61-28.69.14-5.52.7-11.03,1.08-16.54.08-1.16-.09-1.57-1.52-1.34-7.03,1.17-14.08,2.76-21.17.34-1.5-.51-1.63.18-1.63,1.42.04,6.41.02,12.81.02,20.7Zm18.66-50.88c-1.95.83-4.26.7-6.54.62-1.26-.05-1.65.35-1.59,1.59.11,2.36.1,4.72.11,7.08,0,1,.15,2.23-1.31,2.29-1.59.06-1.49-1.2-1.5-2.3-.04-2.7-.09-5.4-.15-8.09-.03-1.4-1.25-1.26-2.07-1.42-.89-.17-.64.7-.6,1.15.57,6.25.42,12.53.63,18.8.04,1.28.58,1.47,1.7,1.63,3.33.47,6.57,0,9.84-.49,1.13-.17,1.5-.59,1.5-1.65-.01-6.33,0-12.66,0-19.2Zm-1.2-27.18c-2.83,2.49-5.74,3.8-8.85,4.72-.71.21-.91.64-.85,1.36.48,5.72.32,11.46.48,17.19.02.7.07,1.46.98,1.5,2.42.12,4.85.46,7.26-.07.49-.11.82-.23.63-.94-.52-1.99-.06-4.02-.03-6.03.11-5.73.62-11.44.38-17.74Zm-7.9,54.52c3.45-.47,6.98-.96,10.52-1.44.79-.11,1.43-.3,1.37-1.34-.07-1.23-.95-.91-1.62-.92-4.09-.06-8.09,1.58-12.24.54-.87-.22-1.1.38-1.12,1.21-.08,2.4,1.54,1.96,3.09,1.96Zm-.54-53.21c3.07-.82,5.69-2.21,7.36-4.97.22-.35.5-.72.3-1.11-.23-.46-.71-.29-1.07-.16-3.08,1.13-5.49,2.98-6.59,6.24Z"/><path class="cls-3" d="m164.39,118.55c0,3.91,0,7.82,0,11.74,0,.67,0,1.36-.14,2.01-.16.72-.7,1.15-1.48,1.12-.82-.02-1.21-.53-1.27-1.29-.12-1.34-.27-2.69-.3-4.04-.16-8.29.27-16.6-.38-24.89-.07-.95.19-1.89,1.28-1.96,1.25-.08,1.4.92,1.52,1.94.58,5.11.32,10.24.78,15.37Z"/><path class="cls-3" d="m164.33,138.94c-.14,1.02-.63,1.47-1.5,1.41-1.04-.08-1.54-.77-1.57-1.72-.02-.82.45-1.45,1.34-1.39,1.08.08,1.57.84,1.73,1.71Z"/><path class="cls-3" d="m163.45,145.48c-.67-.04-1.1-.38-1.14-1.08-.04-.7.32-1.14,1.03-1.17.7-.03,1.15.37,1.19,1.04.04.68-.39,1.08-1.08,1.21Z"/><path class="cls-3" d="m153.39,83.92c-.06.77-.49,1.24-1.27,1.18-.76-.06-1.2-.54-1.15-1.34.04-.71.48-1.11,1.16-1.1.76,0,1.22.44,1.27,1.26Z"/></svg>