<?xml version="1.0" encoding="UTF-8"?><svg id="Layer_1" xmlns="http://www.w3.org/2000/svg" viewBox="0 0 253.08 184.8"><defs><style>.cls-1{fill:#122b44;}.cls-1,.cls-2,.cls-3,.cls-4,.cls-5,.cls-6,.cls-7{stroke-width:0px;}.cls-2{fill:#dd8b6b;}.cls-3{fill:#983b25;}.cls-4{fill:#8b9fca;}.cls-5{fill:#ffe4d4;}.cls-6{fill:#fbfbfb;}.cls-7{fill:#f77d58;}</style></defs><rect class="cls-2" width="253.08" height="184.8" rx="56.76" ry="56.76"/><path class="cls-7" d="m107.87,61.09c-.06-4.58-.64-9.14-.04-13.76.31-2.36,1-4.01,3.09-5.06,6.02.38,11.98-1.16,18-.63,1.04,1.07,2.19,2.06,2.39,3.68.07,1.29.14,2.58.22,3.87-.41,12.2-.57,24.4,0,36.59-.25,4.29-.79,8.58.4,12.82.03,1.74.05,3.49.08,5.23-2.4,12.97-1.89,26.04-1.36,39.11-.27,1.59-1.65,2.1-2.78,2.82-4.76,3.04-16,5.28-18.92.9-1.92-2.87-1.59-10.43-1.34-13.53.52-6.37.29-12.7-.18-19.02-.93-12.45,1.79-24.74,1.25-37.15-.11-2.61-.33-5.21-.51-7.82-.1-2.68-.2-5.37-.31-8.06Z"/><path class="cls-5" d="m131.93,98.6c-1.2-4.24-.66-8.53-.41-12.82,1.38-.32,1.15-1.43,1.15-2.4.01-10.6.01-21.2,0-31.8,0-.97.23-2.08-1.16-2.4-.07-1.29-.14-2.58-.22-3.87,1.63-.32,1.73-2.6,3.58-2.76.49-.04.82-.89.62-1.56-.28-.94-1.17-1.06-1.78-.76-1.54.74-3.47.09-4.81,1.4-6.03-.54-11.98,1.01-18,.63-1.57-3.39,1.13-1.55,4.08-3.28,5.4-3.17,8.63-5.43,14.48-6.98,4.44-1.17,10.62,1.97,9.19,6.58.55-.15,1.06-.18,1.45-.4,4.61-2.61,6.12-1.77,6.03,3.66-.07,4.35.61,8.74-.47,13.06-.1.42.01,1.21.28,1.36,3.49,1.87,2.25,5.18,2.55,8.02-1.43,5.53-.63,11.18-.79,16.77-.27,9.11.42,18.24-.35,27.34.05,3.18.22,3.06.22,6.66.23,2.77.46,5.55.7,8.32-1.29,4.7-1.35,9.51-1.34,14.34,0,7.25-6.02,12.1-12.52,9.08-1.62-.75-2.31-2.62-3.77-3.84-.53-13.07-1.04-26.14,1.36-39.11,1.06-1.76,1.12-3.5-.08-5.23Z"/><path class="cls-3" d="m98.95,144.39c-.39,5.86-1.56,6.62-6.89,4.46-2.91-1.18-5.97-1.81-9.05-2.2-4.82-.6-5.3-.84-5.04-5.72.75-14.23.07-28.46-.1-42.69-.08-6.53-2.45-12.88-2.31-19.51.06-2.99-.06-5.99-.22-8.98-.19-3.55.82-5.89,4.95-5.76.95.03,1.92-.48,2.89-.75,3.01-.21,6.13.92,9.03-.71,2.52.17,3.43,1.51,3.06,3.98-.17,1.08-.47,2.73.09,3.24,3.19,2.9,1.7,6.67,2.22,10.04-.39,9.06-1.12,18.11-.6,27.19.55,9.55.92,19.1,1.37,28.66.06,1.36.39,2.9-.55,3.97-2,2.28-.6,3.52,1.16,4.77Z"/><path class="cls-4" d="m147.36,108.39c.77-9.11.08-18.23.35-27.34.17-5.59-.63-11.24.79-16.77,4.16-.93,8.37.27,12.59-.37,2.47-.38,3.32,1.69,3.42,3.93-.05,2.53-.1,5.06-.15,7.59-.76,20.95-.8,41.88,1.41,62.76.59,5.62-2.66,9.7-8.75,8.34-1.09-.24-1.19-1.09-2.41-.46-3.17,1.65-6.38-1.24-5.83-4.83.93-6.04-.42-11.91-.52-17.86-.23-2.77-.47-5.55-.7-8.32-.07-2.22-.15-4.44-.22-6.66Z"/><path class="cls-5" d="m164.38,75.42c.05-2.53.1-5.06.15-7.59,2.35-4.53,7.19-5.83,11.04-8.4,1.72-1.15,3.57-1.06,4.47,1.43.56,1.56.71,3.14.71,4.77-.02,11.62,0,23.25-.02,34.87,0,6.1.63,12.15,1.34,18.2.11.9.19,1.76-.39,2.51-1.38,1.79-1.08,3.77-.63,5.73,1.09,4.75.39,9.46-.65,14.05-.93,4.13-5.64,5.69-9.57,4.51-4.63-1.39-3.47-5.14-3.73-9.02-.81-12.06-1.01-24.13-1.58-36.19-.35-7.36-.28-14.7-.54-22.04-.03-.98.23-2.02-.6-2.83Z"/><path class="cls-5" d="m98.95,144.39c-1.76-1.25-3.16-2.49-1.16-4.77.94-1.07.61-2.61.55-3.97-.45-9.55-.82-19.11-1.37-28.66-.52-9.09.21-18.13.6-27.19.45-4.23,1.13-8.45,1.3-12.69.22-5.78-.92-6.44-6.66-4.57-2.9,1.63-6.02.5-9.03.71.2-6.67,1.53-7.95,10.5-8.76,2.86-.26,5.66-.68,8.55,2.04,1.56,1.47,3.93,2.78,5.65,4.56.1,2.69.2,5.37.31,8.06-1.35.97-1.72,2.36-1.73,3.93-.06,7.83-.95,15.62-.83,23.48.23,15.02.04,30.05.11,45.07.01,2.31-.91,3.89-2.86,4.79-1.99.92-2.82-.91-3.91-2.02Z"/><path class="cls-5" d="m159.04,64.81c-2.02-.17-4.23.63-5.91-1.33-.87-1.01-1.54-1.99-1.01-3.33.5-1.26,1.65-1.28,2.8-1.35,3.81-.22,7.64.38,11.47-.51,1.47-.34,3.25.57,3.46,2.6.2,1.94-1.32,2.78-2.75,2.93-2.7.27-5.29,1.35-8.06,1Z"/><path class="cls-6" d="m131.53,49.19c1.39.31,1.16,1.43,1.16,2.4,0,10.6,0,21.2,0,31.8,0,.97.23,2.08-1.15,2.4-.57-12.2-.41-24.4,0-36.59Z"/><path class="cls-6" d="m128.92,41.64c1.35-1.32,3.27-.67,4.81-1.4.61-.29,1.5-.18,1.78.76.2.67-.14,1.51-.62,1.56-1.85.16-1.95,2.44-3.58,2.76-.2-1.62-1.35-2.61-2.39-3.68Z"/><path class="cls-6" d="m131.93,98.6c1.2,1.73,1.13,3.47.08,5.23-.03-1.74-.05-3.49-.08-5.23Z"/><path class="cls-6" d="m147.36,108.39c.07,2.22.15,4.44.22,6.66-2.93-2.71-3.02-5.22-.22-6.66Z"/><path class="cls-6" d="m92.21,62.54c5.74-1.87,6.88-1.2,6.66,4.57-.16,4.24-.85,8.46-1.3,12.69-.52-3.38.97-7.14-2.22-10.04-.56-.51-.25-2.16-.09-3.24.38-2.47-.53-3.81-3.06-3.98Z"/><path class="cls-1" d="m51.79,44.48c-1.24,1.4-2.47,2.8-3.72,4.19-1.01,1.12-2.18,1.86-3.55.66-1.33-1.16-.88-2.52.06-3.67,2.52-3.1,5.05-6.2,7.69-9.2,1.92-2.18,4.27-2.34,6.13-.12,2.32,2.76,4.3,5.82,6.35,8.79.72,1.04.65,2.22-.38,3.03-1.14.89-2.43.72-3.37-.33-1.15-1.28-2.12-2.73-3.09-4-.69-.02-.79.34-.8.71-.26,11.99-.65,23.98-.74,35.97-.16,21-.12,42-.2,62.99,0,1.9.22,3.04,2.62,2.91,4.49-.25,9-.26,13.49-.23,1.96.01,2.65-.78,2.61-2.68-.34-15.87-.53-31.74-.98-47.6-.28-9.86-.93-19.71-1.42-29.57-.15-2.96,1.88-4.37,3.94-5.88,7.44-5.45,16-6.74,24.87-6.55,3.08.07,4.37-1.09,3.55-3.83-2.34-7.85,2.03-11.5,8.35-14.17,2.75-1.17,5.47-2.45,8.08-3.91,4.87-2.72,9.88-2.05,14.96-.99,2.81.59,5.63,1.22,8.53,1.05,2.94-.17,4.24,1.07,4.6,4.05.81,6.73.55,13.48.73,20.23.07,2.59.37,4.09,3.12,2.08,5.18-3.81,11.17-3.53,17.12-3.63,2.87-.05,5.73-.38,8.61-.48,1.8-.07,3.92.06,3.79,2.5-.5,9.13.93,18.17,1.05,27.27.23,17.87.29,35.74-.45,53.61-.24,5.88.04,6.22,6.05,6.22,2.88,0,5.75-.02,8.63-.05.22,0,.43-.17.67-.26.31-1.06-.79-1.46-1.06-2.24-.34-1.01-.39-2.01.49-2.76.98-.83,2.22-.93,3.06-.02,1.99,2.14,4.55,3.5,6.73,5.35,2.12,1.78,1.96,3.68-.35,5.2-2.5,1.64-5.08,3.16-7.66,4.69-1.58.94-3.45,1.54-4.77-.05-1.69-2.04.56-2.93,1.84-4.16-1.03-.87-2.17-.46-3.19-.44-30.29.56-60.59,1.21-90.88,1.7-11.72.19-23.44.03-35.16.03-3.99,0-8.01-.24-11.95.61-3.16.68-4.42-.89-4.61-3.75-.1-1.49-.07-3-.06-4.5.24-27.12.45-54.24.76-81.36.06-5.7.49-11.39.74-17.08-.28-.09-.56-.18-.84-.28Zm57.87,54.02c0,15.37-.01,27.37.01,39.38,0,1.75.26,3.49.3,5.24.03,1.76.84,2.34,2.57,2.31,4.5-.09,9-.07,13.5-.01,1.69.02,2.43-.53,2.5-2.36.31-8.61.96-17.22,1.09-25.83.26-16.99.27-33.99.35-50.99.02-5.62-.13-11.25-.12-16.88,0-2.4-.82-3.66-3.44-3.73-4.99-.12-9.98-.41-14.96-.75-1.86-.13-2.27.41-2.14,2.29.4,5.85.67,11.76.53,17.57-.3,12.38.04,24.75-.18,33.76Zm-14.56-5.67c.49-7.95-.66-16.17-.45-24.42.05-1.95-.56-2.69-2.55-2.56-3.99.27-7.98.54-11.97.53-2.61-.01-3.01,1.08-2.85,3.4,1.21,17.68,1.75,35.4,2.25,53.11.19,6.62.41,13.24.32,19.85-.04,2.97,1.15,3.66,3.79,3.44,2.98-.25,6.02-.57,8.97-.28,3.41.33,4.28-.8,4.06-4.11-1.07-16.2-1.45-32.43-1.57-48.96Zm49.88,20.83c-.87-14.69.31-29.91-1.45-44.57-.23-1.89-.2-3.81,1.12-5.34.72-.84.87-1.67.85-2.71-.08-4.25.05-8.5-.13-12.74-.37-8.82-.37-8.71-8.17-4.48-2.35,1.27-3.15,2.68-2.88,5.28.4,3.84.68,7.73.57,11.58-.48,17.48-.26,34.95-.03,52.42.11,8.09-1.07,16.19-1.14,24.29-.08,8.89-2.13,8.4,8.37,7.6,1.84-.14,2.64-.59,2.62-2.6m19.56-10.88c.09-5.5-.37-10.98-.54-16.47-.46-14.6-.75-29.21-.98-43.81-.05-2.9-.66-4.16-3.9-3.35-2.14.54-4.52.67-6.7.33-3.68-.57-3.94,1.04-3.72,4.09,1.29,17.55,2.42,35.1,1.74,52.72-.22,5.74-.14,11.49-.23,17.23-.02,1.54.13,2.68,2.17,2.57,3.37-.17,6.74-.18,10.11-.19,1.59,0,2.14-.62,2.08-2.27-.13-3.62-.04-7.24-.04-10.87Zm13.63-69.96c-2.32.29-3.66,1.79-5.38,2.42-4.59,1.69-5.58,4.87-5.36,9.6.98,21.46,1.54,42.94,2.27,64.41.25,7.16-1.41,5.95,6.48,6.13,1.8.04,2.58-.3,2.6-2.43.15-18.37.61-36.73.62-55.09,0-8.31-.79-16.62-1.23-25.03Zm-73.06-.36c-4,1.75-6.54,3.95-5.78,8.57.44,2.7.57,5.47.57,8.21.06,19.62.99,39.22,1.71,58.82.09,2.37.03,4.75.06,7.13.01.96.27,1.72,1.46,1.74,1.15.02,1.97-.31,2-1.63.02-1,.06-2,.03-3-.43-17.37-.71-34.73-.11-52.11.31-9.1.06-18.22.06-27.74Zm33.98-24.22c-8.93-3.32-17.18-2.05-21.98,3.56,3.38,0,6.47-.54,9.27.12,4.96,1.17,8.61-.96,12.71-3.68Zm30.23,23.22c-6.27-.97-10.74.12-14.8,4.06,5.23-2.34,10.77.4,14.8-4.06Zm-81.55.95c3.4-.57,7.28,1.63,11.01-1.96-4.34.19-7.89-.27-11.01,1.96Z"/></svg>