<?xml version="1.0" encoding="UTF-8"?><svg id="Layer_1" xmlns="http://www.w3.org/2000/svg" viewBox="0 0 627.85 255.44"><defs><style>.cls-1{fill:#92a1c9;stroke-width:0px;}</style></defs><path class="cls-1" d="m1.96,25.21c0-2.71.41-5.16,1.22-7.35.81-2.19,1.96-4.05,3.44-5.59,1.48-1.54,3.25-2.72,5.3-3.55,2.05-.83,4.3-1.25,6.74-1.25s4.46.37,6.35,1.1c1.89.73,3.51,1.8,4.86,3.21,1.35,1.41,2.38,3.12,3.1,5.15.72,2.03,1.07,4.33,1.07,6.91,0,2.71-.41,5.15-1.22,7.33-.81,2.17-1.96,4.03-3.44,5.56-1.48,1.54-3.25,2.72-5.3,3.55s-4.3,1.25-6.74,1.25-4.46-.37-6.35-1.1-3.51-1.8-4.86-3.18c-1.35-1.39-2.39-3.09-3.1-5.12-.72-2.03-1.07-4.33-1.07-6.91Zm7.15-.78c0,2.06.24,3.85.71,5.37.47,1.52,1.12,2.79,1.94,3.8.82,1.01,1.77,1.77,2.87,2.28,1.09.51,2.26.76,3.5.76s2.35-.25,3.43-.73c1.08-.49,2.01-1.23,2.79-2.23.78-1,1.4-2.25,1.86-3.75.46-1.5.69-3.27.69-5.29s-.24-3.85-.71-5.39c-.47-1.54-1.12-2.81-1.94-3.82-.82-1.01-1.77-1.77-2.87-2.28-1.09-.51-2.26-.76-3.5-.76s-2.39.25-3.45.74c-1.06.49-1.98,1.23-2.77,2.23-.78,1-1.41,2.25-1.86,3.75-.46,1.5-.69,3.28-.69,5.34Z"/><path class="cls-1" d="m40.28,21.49l-1.96-.44c-.65-.16-1.12-.4-1.4-.71-.28-.31-.42-.74-.42-1.3,0-.59.14-1.04.42-1.35.28-.31.74-.56,1.4-.76.59-.16,1.33-.32,2.23-.47.9-.15,1.76-.22,2.57-.22,1.47,0,2.47.27,3.01.81s.81,1.54.81,3.01v10.68c0,2.12.38,3.61,1.13,4.46.75.85,1.86,1.27,3.33,1.27.75,0,1.42-.11,2.01-.34s1.08-.49,1.47-.78c.46-.36.85-.75,1.18-1.18v-12.69l-2.25-.49c-.65-.16-1.12-.39-1.4-.69-.28-.29-.42-.72-.42-1.27,0-.59.14-1.04.42-1.35.28-.31.74-.56,1.4-.76.69-.2,1.47-.36,2.35-.49.88-.13,1.8-.2,2.74-.2,1.47,0,2.47.27,3.01.81s.81,1.54.81,3.01v16.12l2.01.34c.65.13,1.11.34,1.37.64.26.29.39.72.39,1.27s-.15.99-.44,1.3c-.29.31-.75.58-1.37.81-.65.23-1.37.42-2.16.56-.78.15-1.62.22-2.5.22-1.14,0-1.98-.27-2.5-.81-.52-.54-.78-1.33-.78-2.38v-.64l-.1-.05c-.39.75-.93,1.42-1.62,2.01-.59.52-1.37.99-2.35,1.4-.98.41-2.2.61-3.67.61-2.81,0-4.97-.77-6.47-2.3-1.5-1.53-2.25-3.82-2.25-6.86v-10.83Z"/><path class="cls-1" d="m72.08,21.49l-2.25-.49c-.65-.16-1.12-.39-1.4-.69-.28-.29-.42-.72-.42-1.27,0-.59.14-1.04.42-1.35.28-.31.74-.56,1.4-.76.69-.2,1.47-.36,2.35-.49.88-.13,1.73-.2,2.55-.2,1.24,0,2.11.25,2.6.74s.74,1.31.74,2.45v1.37l.1.05c.33-.75.72-1.43,1.18-2.03.46-.6.97-1.12,1.54-1.54.57-.42,1.18-.75,1.81-.98.64-.23,1.31-.34,2.03-.34.85,0,1.5.23,1.96.69s.69,1.11.69,1.96c0,.72-.07,1.35-.22,1.89-.15.54-.34.99-.59,1.35-.25.36-.51.63-.81.81-.29.18-.59.27-.88.27-.23,0-.43-.03-.61-.1-.18-.07-.35-.13-.51-.2-.16-.07-.33-.13-.51-.2-.18-.06-.4-.1-.66-.1-.69,0-1.36.15-2.01.44-.65.29-1.26.8-1.81,1.52v12l2.35.64c.72.2,1.21.44,1.47.74.26.29.39.72.39,1.27,0,.59-.21,1.08-.64,1.47-.42.39-1.01.59-1.76.59h-10.05c-.75,0-1.34-.2-1.76-.59-.42-.39-.64-.88-.64-1.47,0-.56.13-.97.39-1.25.26-.28.75-.53,1.47-.76l2.11-.64v-14.8Z"/><path class="cls-1" d="m104.57,21.14h-1.67c-1.5,0-2.25-.65-2.25-1.96,0-.78.24-1.41.71-1.89s1.15-.71,2.03-.71h1.32l.88-3.48c.26-1.08.64-1.86,1.15-2.35.51-.49,1.23-.73,2.18-.73.75,0,1.32.19,1.71.56.39.38.59.92.59,1.64v4.36h4.21c1.47,0,2.21.65,2.21,1.96,0,.82-.23,1.45-.69,1.91-.46.46-1.14.69-2.06.69h-3.67v11.12c0,1.57.23,2.66.69,3.28.46.62,1.11.93,1.96.93.62,0,1.11-.05,1.47-.15.36-.1.72-.15,1.08-.15.46,0,.82.14,1.08.42.26.28.39.68.39,1.2,0,.36-.07.69-.22,1-.15.31-.35.6-.61.86-.29.29-.89.64-1.79,1.03s-2.16.59-3.8.59c-2.52,0-4.3-.68-5.34-2.03-1.05-1.36-1.57-3.21-1.57-5.56v-12.54Z"/><path class="cls-1" d="m135.04,26.14c0-1.96-.34-3.32-1.03-4.07-.69-.75-1.88-1.13-3.58-1.13-.95,0-1.77.06-2.47.17s-1.32.24-1.84.37c-.52.13-.97.25-1.35.37-.38.12-.71.17-1,.17-.56,0-1.01-.18-1.37-.54s-.54-.83-.54-1.42c0-.52.21-1,.64-1.42.29-.29.73-.59,1.32-.88.59-.29,1.3-.56,2.13-.81s1.76-.45,2.79-.61c1.03-.16,2.13-.24,3.31-.24,3.5,0,5.98.68,7.45,2.03s2.21,3.49,2.21,6.39c0,1.93-.02,3.8-.05,5.61-.03,1.81.03,3.85.2,6.1l1.86.29c.65.1,1.11.3,1.37.61.26.31.39.74.39,1.3s-.15.99-.44,1.3-.75.58-1.37.81c-.65.23-1.37.42-2.16.56-.78.15-1.65.22-2.6.22-1.14,0-1.98-.27-2.5-.81-.52-.54-.78-1.33-.78-2.38v-.25l-.1-.05c-.39.69-.92,1.29-1.57,1.81-.56.46-1.29.88-2.21,1.25-.92.38-2.04.56-3.38.56-1.18,0-2.25-.19-3.23-.56-.98-.38-1.82-.88-2.52-1.52-.7-.64-1.24-1.4-1.62-2.28s-.56-1.81-.56-2.79.22-1.89.66-2.74c.44-.85,1.11-1.58,2.01-2.18.9-.6,2.04-1.08,3.43-1.42,1.39-.34,3.03-.51,4.92-.51.52,0,1,.02,1.42.05.42.03.8.07,1.13.1.36.03.7.07,1.03.1v-1.57Zm-.05,5.34c-.23-.03-.49-.08-.79-.15-.26-.03-.58-.06-.96-.1-.38-.03-.8-.05-1.26-.05-1.68,0-2.88.23-3.6.69-.72.46-1.08,1.08-1.08,1.86s.3,1.45.91,2.01c.61.56,1.44.83,2.49.83.69,0,1.3-.09,1.82-.27.53-.18.97-.38,1.33-.61.43-.26.8-.55,1.13-.88v-3.33Z"/><path class="cls-1" d="m162.04,20.99c-.13-.03-.26-.06-.39-.1-.13-.03-.29-.06-.49-.1-.19-.03-.42-.05-.68-.05-1.62,0-2.99.66-4.11,1.98-1.12,1.32-1.68,3.4-1.68,6.23,0,2.64.58,4.58,1.73,5.84,1.15,1.25,2.76,1.88,4.81,1.88.58,0,1.09-.04,1.51-.12.42-.08.8-.16,1.15-.25.34-.08.65-.16.93-.25.28-.08.53-.12.76-.12.52,0,.93.16,1.22.47.29.31.44.74.44,1.3,0,.62-.25,1.18-.74,1.67-.26.26-.61.52-1.05.78-.44.26-.96.49-1.57.69-.61.2-1.28.36-2.03.49-.75.13-1.57.2-2.45.2-3.59,0-6.42-1.04-8.48-3.11-2.06-2.07-3.09-4.96-3.09-8.65,0-2.06.33-3.94.98-5.64.65-1.7,1.56-3.14,2.72-4.34s2.55-2.12,4.17-2.77,3.41-.98,5.37-.98c1.5,0,2.66.14,3.48.42.82.28,1.44.63,1.86,1.05.26.26.45.6.56,1.03.11.43.17,1.19.17,2.3v1.62c0,.33-.02.85-.05,1.57-.03.69-.22,1.18-.56,1.49-.34.31-.79.47-1.35.47s-1-.16-1.32-.49c-.33-.32-.61-.81-.83-1.46l-.98-3.06Z"/><path class="cls-1" d="m173.51,10.66l-1.96-.44c-.65-.16-1.12-.4-1.4-.71s-.42-.74-.42-1.3c0-.59.14-1.04.42-1.35.28-.31.74-.56,1.4-.76.59-.16,1.33-.32,2.23-.47s1.76-.22,2.57-.22c1.47,0,2.47.27,3.01.81.54.54.81,1.54.81,3.01v18.11l6.76-6.35-.88-.48c-.52-.29-.88-.61-1.08-.97-.2-.35-.29-.76-.29-1.21,0-.52.18-.94.54-1.26.36-.32.86-.49,1.52-.49h8.48c.69,0,1.21.16,1.57.49.36.32.54.74.54,1.26,0,.58-.16,1.06-.49,1.43-.33.37-.87.72-1.62,1.04l-1.27.53-6.81,5.95,2.7,3.49c.59.79,1.17,1.49,1.74,2.11s1.13,1.19,1.69,1.7,1.12.97,1.69,1.38,1.15.78,1.74,1.11c.46.26.76.51.91.76s.22.53.22.86c0,.69-.34,1.29-1.03,1.81-.69.52-1.7.78-3.04.78-.78,0-1.54-.1-2.25-.29-.72-.2-1.41-.5-2.08-.91-.67-.41-1.33-.95-1.99-1.62s-1.31-1.48-1.96-2.43l-5.29-7.56v7.81l.83.39c.75.36,1.23.69,1.45.98.21.29.32.72.32,1.27,0,.59-.23,1.08-.69,1.47-.46.39-1.06.59-1.81.59h-8.04c-.75,0-1.34-.2-1.76-.59-.43-.39-.64-.88-.64-1.47,0-.56.12-.98.37-1.27.24-.29.68-.54,1.3-.74l2.01-.64V10.66Z"/><path class="cls-1" d="m202.52,10.66l-1.96-.44c-.65-.16-1.12-.4-1.4-.71s-.42-.74-.42-1.3c0-.59.14-1.04.42-1.35.28-.31.74-.56,1.4-.76.59-.16,1.33-.32,2.23-.47s1.76-.22,2.57-.22c1.47,0,2.47.27,3.01.81.54.54.81,1.54.81,3.01v27.05l1.86.59c.69.23,1.16.49,1.42.78s.39.72.39,1.27c0,.59-.21,1.08-.64,1.47-.42.39-1.01.59-1.76.59h-9.21c-.75,0-1.34-.2-1.76-.59-.43-.39-.64-.88-.64-1.47,0-.56.12-.98.37-1.27.24-.29.68-.54,1.3-.74l2.01-.64V10.66Z"/><path class="cls-1" d="m222.12,29.87c.23,2.22.96,3.91,2.18,5.07,1.22,1.16,2.95,1.74,5.17,1.74.75,0,1.4-.05,1.94-.15s1.01-.2,1.42-.29.77-.2,1.08-.29.61-.15.91-.15c.52,0,.93.16,1.22.47s.44.74.44,1.3c0,.33-.06.62-.17.88-.12.26-.3.52-.56.78-.56.56-1.51,1.08-2.87,1.57-1.36.49-3.11.74-5.27.74-1.93,0-3.65-.27-5.17-.81-1.52-.54-2.79-1.32-3.82-2.35-1.03-1.03-1.81-2.29-2.35-3.8-.54-1.5-.81-3.22-.81-5.15,0-2.09.3-3.96.91-5.61.6-1.65,1.45-3.04,2.52-4.19,1.08-1.14,2.37-2.02,3.87-2.65,1.5-.62,3.17-.93,5-.93,3.07,0,5.46.87,7.18,2.6s2.57,4.23,2.57,7.5c0,1.24-.29,2.17-.88,2.79-.59.62-1.42.93-2.5.93h-12Zm8.87-3.77c-.07-1.93-.47-3.31-1.2-4.16-.74-.85-1.69-1.27-2.87-1.27-1.27,0-2.32.47-3.14,1.42-.82.95-1.34,2.29-1.57,4.02h8.77Z"/><path class="cls-1" d="m255.53,10.66l-1.96-.44c-.65-.16-1.12-.4-1.4-.71-.28-.31-.42-.74-.42-1.3,0-.59.14-1.04.42-1.35.28-.31.74-.56,1.4-.76.59-.16,1.33-.32,2.23-.47s1.76-.22,2.57-.22c1.47,0,2.47.27,3.01.81.54.54.81,1.54.81,3.01v6.12c0,.65-.03,1.34-.1,2.06-.07.72-.15,1.41-.25,2.06l.1.05c.42-.62.96-1.19,1.62-1.71.56-.42,1.29-.82,2.21-1.18.91-.36,2.06-.54,3.43-.54,2.87,0,5.18.96,6.91,2.87s2.6,4.86,2.6,8.84c0,2.16-.31,4.08-.93,5.78-.62,1.7-1.52,3.14-2.69,4.31-1.18,1.18-2.62,2.08-4.34,2.7s-3.67.93-5.86.93c-1.67,0-3.13-.13-4.39-.39-1.26-.26-2.25-.59-2.96-.98-.69-.36-1.19-.77-1.52-1.22-.33-.46-.49-1.11-.49-1.96V10.66Zm6.66,25.24c.26.2.57.36.93.49.33.13.71.24,1.15.32.44.08.97.12,1.59.12,1.86,0,3.32-.63,4.38-1.89,1.06-1.26,1.59-3.37,1.59-6.35,0-2.68-.48-4.6-1.45-5.76-.96-1.16-2.16-1.74-3.6-1.74-.75,0-1.41.12-1.98.37-.57.25-1.05.51-1.45.81-.46.36-.85.73-1.18,1.13v12.5Z"/><path class="cls-1" d="m282.63,29.47c0-2.03.32-3.86.96-5.51.64-1.65,1.54-3.06,2.7-4.24,1.16-1.18,2.55-2.08,4.17-2.72s3.41-.96,5.37-.96c3.69,0,6.58,1.05,8.67,3.16,2.09,2.11,3.14,5.07,3.14,8.89,0,2.03-.3,3.86-.91,5.51-.61,1.65-1.48,3.06-2.62,4.24s-2.53,2.08-4.17,2.72c-1.63.64-3.46.96-5.49.96-3.69,0-6.58-1.05-8.67-3.16-2.09-2.11-3.14-5.07-3.14-8.89Zm6.86-.78c0,1.37.15,2.57.46,3.6.31,1.03.72,1.88,1.23,2.55.51.67,1.11,1.17,1.81,1.49.7.33,1.45.49,2.23.49,1.57,0,2.88-.63,3.94-1.89,1.06-1.26,1.59-3.27,1.59-6.05,0-1.37-.16-2.57-.47-3.6-.31-1.03-.72-1.88-1.22-2.55-.51-.67-1.11-1.17-1.81-1.49-.7-.33-1.45-.49-2.23-.49-1.57,0-2.88.63-3.95,1.89-1.06,1.26-1.59,3.28-1.59,6.05Z"/><path class="cls-1" d="m318.96,28.74l-6.59-7.45-.88-.39c-.69-.32-1.17-.69-1.45-1.09s-.42-.9-.42-1.48c0-.52.18-.94.54-1.26.36-.32.88-.49,1.57-.49h8.72c.69,0,1.21.16,1.57.49.36.32.54.74.54,1.26,0,.49-.11.89-.32,1.21-.21.32-.5.65-.86.97l-.49.44,3.75,4.41,3.31-4.41-.49-.44c-.36-.32-.65-.65-.86-.97-.21-.32-.32-.73-.32-1.21,0-.52.18-.94.54-1.26.36-.32.88-.49,1.57-.49h6.42c.69,0,1.21.16,1.57.49.36.32.54.74.54,1.26,0,.58-.14,1.08-.42,1.48s-.76.77-1.45,1.09l-.88.39-6.69,7.2,6.96,7.79,1.08.49c.62.26,1.05.55,1.3.86.25.31.37.74.37,1.3,0,.59-.21,1.08-.64,1.47-.43.39-1.01.59-1.76.59h-8.48c-.75,0-1.34-.2-1.76-.59-.42-.39-.64-.88-.64-1.47,0-.46.11-.83.34-1.1s.62-.6,1.18-.96l.44-.29-4.07-4.7-3.53,4.7.44.29c.56.36.95.68,1.18.96.23.28.34.65.34,1.1,0,.59-.21,1.08-.64,1.47-.42.39-1.01.59-1.76.59h-6.12c-.75,0-1.34-.2-1.76-.59-.42-.39-.64-.88-.64-1.47,0-.56.13-.99.39-1.3.26-.31.69-.6,1.27-.86l1.08-.49,6.91-7.55Z"/><path class="cls-1" d="m354.41,10.66l-1.96-.44c-.65-.16-1.12-.4-1.4-.71s-.42-.74-.42-1.3c0-.59.14-1.04.42-1.35.28-.31.74-.56,1.4-.76.59-.16,1.33-.32,2.23-.47s1.76-.22,2.57-.22c1.47,0,2.47.27,3.01.81.54.54.81,1.54.81,3.01v6.12c0,.65-.03,1.34-.1,2.06-.07.72-.15,1.41-.25,2.06l.1.05c.42-.62.96-1.19,1.62-1.71.56-.42,1.29-.82,2.21-1.18.91-.36,2.06-.54,3.43-.54,2.84,0,5.03.79,6.57,2.38,1.54,1.58,2.3,3.93,2.3,7.03v10.78l1.86.59c.69.23,1.16.49,1.42.78s.39.72.39,1.27c0,.59-.21,1.08-.64,1.47-.42.39-1.01.59-1.76.59h-9.11c-.75,0-1.34-.2-1.76-.59-.42-.39-.64-.88-.64-1.47,0-.56.13-.98.39-1.27.26-.29.74-.55,1.42-.78l1.76-.59v-9.21c0-2.19-.39-3.73-1.18-4.63-.78-.9-1.93-1.35-3.43-1.35-.75,0-1.41.12-1.98.37-.57.25-1.05.51-1.45.81-.46.36-.85.73-1.18,1.13v12.89l1.76.59c.69.23,1.16.49,1.42.78.26.29.39.72.39,1.27,0,.59-.21,1.08-.64,1.47-.42.39-1.01.59-1.76.59h-9.11c-.75,0-1.34-.2-1.76-.59-.43-.39-.64-.88-.64-1.47,0-.56.12-.98.37-1.27.24-.29.68-.54,1.3-.74l2.01-.64V10.66Z"/><path class="cls-1" d="m397.78,26.14c0-1.96-.34-3.32-1.03-4.07-.69-.75-1.88-1.13-3.58-1.13-.95,0-1.77.06-2.47.17s-1.32.24-1.84.37c-.52.13-.97.25-1.35.37-.38.12-.71.17-1,.17-.56,0-1.01-.18-1.37-.54s-.54-.83-.54-1.42c0-.52.21-1,.64-1.42.29-.29.73-.59,1.32-.88.59-.29,1.3-.56,2.13-.81s1.76-.45,2.79-.61c1.03-.16,2.13-.24,3.31-.24,3.5,0,5.98.68,7.45,2.03s2.21,3.49,2.21,6.39c0,1.93-.02,3.8-.05,5.61-.03,1.81.03,3.85.2,6.1l1.86.29c.65.1,1.11.3,1.37.61.26.31.39.74.39,1.3s-.15.99-.44,1.3-.75.58-1.37.81c-.65.23-1.37.42-2.16.56-.78.15-1.65.22-2.6.22-1.14,0-1.98-.27-2.5-.81-.52-.54-.78-1.33-.78-2.38v-.25l-.1-.05c-.39.69-.92,1.29-1.57,1.81-.56.46-1.29.88-2.21,1.25-.92.38-2.04.56-3.38.56-1.18,0-2.25-.19-3.23-.56-.98-.38-1.82-.88-2.52-1.52-.7-.64-1.24-1.4-1.62-2.28s-.56-1.81-.56-2.79.22-1.89.66-2.74c.44-.85,1.11-1.58,2.01-2.18.9-.6,2.04-1.08,3.43-1.42,1.39-.34,3.03-.51,4.92-.51.52,0,1,.02,1.42.05.42.03.8.07,1.13.1.36.03.7.07,1.03.1v-1.57Zm-.05,5.34c-.23-.03-.49-.08-.79-.15-.26-.03-.58-.06-.96-.1-.38-.03-.8-.05-1.26-.05-1.68,0-2.88.23-3.6.69-.72.46-1.08,1.08-1.08,1.86s.3,1.45.91,2.01c.61.56,1.44.83,2.49.83.69,0,1.3-.09,1.82-.27.53-.18.97-.38,1.33-.61.43-.26.8-.55,1.13-.88v-3.33Z"/><path class="cls-1" d="m415.96,36.53c.29.13.62.25.98.34.33.07.73.13,1.2.2s1,.1,1.59.1c1.47,0,2.49-.24,3.06-.71.57-.47.86-1.09.86-1.84s-.31-1.29-.93-1.71c-.62-.42-1.4-.81-2.33-1.15-.93-.34-1.94-.7-3.04-1.08-1.09-.38-2.11-.86-3.04-1.45-.93-.59-1.71-1.33-2.33-2.23-.62-.9-.93-2.07-.93-3.5,0-1.01.21-1.98.63-2.89.42-.91,1.07-1.71,1.95-2.38.88-.67,1.99-1.2,3.32-1.59,1.33-.39,2.92-.59,4.74-.59,1.95,0,3.44.16,4.45.49,1.01.33,1.68.65,2,.98.26.26.45.57.56.93.11.36.17.9.17,1.62v1.27c0,.33-.02.67-.05,1.03-.07.62-.27,1.08-.61,1.37-.34.29-.79.44-1.35.44s-.99-.15-1.3-.44-.58-.75-.81-1.37l-.49-1.42c-.29-.07-.62-.15-.98-.25-.29-.07-.65-.13-1.05-.2-.41-.06-.86-.1-1.35-.1-1.37,0-2.29.2-2.74.59-.46.39-.69.92-.69,1.57s.31,1.18.93,1.59c.62.41,1.4.78,2.33,1.1.93.33,1.94.68,3.04,1.05,1.09.38,2.11.87,3.04,1.47.93.6,1.71,1.37,2.33,2.3.62.93.93,2.13.93,3.6,0,1.08-.23,2.09-.68,3.04s-1.14,1.77-2.05,2.47c-.91.7-2.08,1.27-3.49,1.69-1.42.42-3.07.64-4.96.64-2.09,0-3.67-.18-4.74-.54s-1.78-.7-2.1-1.03c-.26-.26-.45-.57-.56-.93-.11-.36-.17-.9-.17-1.62v-1.37c0-.33.02-.67.05-1.03.06-.62.27-1.08.61-1.37s.79-.44,1.35-.44.99.15,1.3.44c.31.29.58.75.81,1.37l.54,1.52Z"/><path class="cls-1" d="m452.02,36.53c.29.13.62.25.98.34.33.07.73.13,1.2.2s1,.1,1.59.1c1.47,0,2.49-.24,3.06-.71.57-.47.86-1.09.86-1.84s-.31-1.29-.93-1.71c-.62-.42-1.4-.81-2.33-1.15-.93-.34-1.94-.7-3.04-1.08-1.09-.38-2.11-.86-3.04-1.45-.93-.59-1.71-1.33-2.33-2.23-.62-.9-.93-2.07-.93-3.5,0-1.01.21-1.98.63-2.89.42-.91,1.07-1.71,1.95-2.38.88-.67,1.99-1.2,3.32-1.59,1.33-.39,2.92-.59,4.74-.59,1.95,0,3.44.16,4.45.49,1.01.33,1.68.65,2,.98.26.26.45.57.56.93.11.36.17.9.17,1.62v1.27c0,.33-.02.67-.05,1.03-.07.62-.27,1.08-.61,1.37-.34.29-.79.44-1.35.44s-.99-.15-1.3-.44-.58-.75-.81-1.37l-.49-1.42c-.29-.07-.62-.15-.98-.25-.29-.07-.65-.13-1.05-.2-.41-.06-.86-.1-1.35-.1-1.37,0-2.29.2-2.74.59-.46.39-.69.92-.69,1.57s.31,1.18.93,1.59c.62.41,1.4.78,2.33,1.1.93.33,1.94.68,3.04,1.05,1.09.38,2.11.87,3.04,1.47.93.6,1.71,1.37,2.33,2.3.62.93.93,2.13.93,3.6,0,1.08-.23,2.09-.68,3.04s-1.14,1.77-2.05,2.47c-.91.7-2.08,1.27-3.49,1.69-1.42.42-3.07.64-4.96.64-2.09,0-3.67-.18-4.74-.54s-1.78-.7-2.1-1.03c-.26-.26-.45-.57-.56-.93-.11-.36-.17-.9-.17-1.62v-1.37c0-.33.02-.67.05-1.03.06-.62.27-1.08.61-1.37s.79-.44,1.35-.44.99.15,1.3.44c.31.29.58.75.81,1.37l.54,1.52Z"/><path class="cls-1" d="m473.28,21.49l-2.25-.49c-.65-.16-1.12-.39-1.4-.69-.28-.29-.42-.72-.42-1.27,0-.59.14-1.04.42-1.35.28-.31.74-.56,1.4-.76.69-.2,1.47-.36,2.35-.49.88-.13,1.8-.2,2.74-.2,1.47,0,2.47.27,3.01.81s.81,1.54.81,3.01v16.22l2.01.59c.62.16,1.05.39,1.3.69s.37.69.37,1.18c0,.65-.22,1.19-.66,1.62-.44.42-1.04.64-1.79.64h-9.46c-.75,0-1.34-.2-1.76-.59-.42-.39-.64-.88-.64-1.47,0-.56.13-.97.39-1.25.26-.28.75-.53,1.47-.76l2.11-.64v-14.8Zm-.88-11.51c0-1.18.39-2.16,1.18-2.94s1.76-1.18,2.94-1.18,2.14.38,2.89,1.13c.75.75,1.13,1.71,1.13,2.89s-.39,2.16-1.18,2.94-1.76,1.18-2.94,1.18-2.14-.38-2.89-1.13c-.75-.75-1.13-1.71-1.13-2.89Z"/><path class="cls-1" d="m489.31,21.49l-2.25-.49c-.65-.16-1.12-.39-1.4-.69-.28-.29-.42-.72-.42-1.27,0-.59.14-1.04.42-1.35.28-.31.74-.56,1.4-.76.69-.2,1.47-.36,2.35-.49.88-.13,1.73-.2,2.55-.2,1.24,0,2.11.25,2.6.74s.74,1.31.74,2.45v.64l.1.05c.36-.75.88-1.42,1.57-2.01.55-.49,1.31-.95,2.28-1.37.96-.42,2.16-.64,3.6-.64,1.86,0,3.42.35,4.68,1.05,1.26.7,2.25,1.74,2.96,3.11.46-.78,1.04-1.47,1.76-2.06.62-.52,1.43-1,2.43-1.45,1-.44,2.25-.66,3.75-.66,2.78,0,4.92.79,6.44,2.38,1.52,1.58,2.28,3.93,2.28,7.03v10.78l1.86.59c.69.23,1.16.49,1.42.78.26.29.39.72.39,1.27,0,.59-.21,1.08-.64,1.47-.42.39-1.01.59-1.76.59h-8.97c-.75,0-1.34-.2-1.76-.59-.42-.39-.64-.88-.64-1.47,0-.56.13-.97.39-1.25.26-.28.74-.55,1.42-.81l1.62-.59v-9.21c0-2.19-.38-3.73-1.15-4.63-.77-.9-1.87-1.35-3.31-1.35-.75,0-1.41.13-1.96.39-.56.26-1.03.54-1.42.83-.46.36-.85.77-1.18,1.22,0,.16.02.34.05.54,0,.16,0,.37.02.61.02.25.02.51.02.81v10.78l1.62.59c.69.26,1.16.53,1.42.81.26.28.39.69.39,1.25,0,.59-.21,1.08-.64,1.47-.42.39-1.01.59-1.76.59h-8.72c-.75,0-1.34-.2-1.76-.59-.42-.39-.64-.88-.64-1.47,0-.56.13-.97.39-1.25.26-.28.74-.55,1.42-.81l1.62-.59v-9.21c0-2.19-.38-3.73-1.15-4.63-.77-.9-1.87-1.35-3.31-1.35-.72,0-1.36.12-1.91.37s-1.01.51-1.37.81c-.46.36-.85.73-1.18,1.13v12.89l1.62.59c.69.26,1.16.53,1.42.81.26.28.39.69.39,1.25,0,.59-.21,1.08-.64,1.47-.42.39-1.01.59-1.76.59h-9.26c-.75,0-1.34-.2-1.76-.59-.42-.39-.64-.88-.64-1.47,0-.56.13-.97.39-1.25.26-.28.75-.53,1.47-.76l2.11-.64v-14.8Z"/><path class="cls-1" d="m535.56,21.49l-1.96-.44c-.65-.16-1.12-.4-1.4-.71s-.42-.74-.42-1.3c0-.59.14-1.04.42-1.35.28-.31.74-.56,1.4-.76.29-.1.64-.19,1.03-.27.39-.08.79-.16,1.2-.22s.83-.11,1.25-.15c.42-.03.83-.05,1.22-.05,1.18,0,2.01.25,2.5.74s.74,1.31.74,2.45v.64l.1.05c.39-.75.93-1.42,1.62-2.01.59-.49,1.36-.95,2.33-1.37.96-.42,2.18-.64,3.65-.64,2.88,0,5.18.96,6.91,2.87s2.6,4.86,2.6,8.84c0,2.16-.31,4.08-.93,5.78-.62,1.7-1.52,3.14-2.69,4.31-1.18,1.18-2.62,2.08-4.34,2.7s-3.67.93-5.86.93c-.39,0-.75,0-1.08-.02-.33-.02-.62-.06-.88-.12-.29-.03-.54-.08-.74-.15l-.1.1c.03.36.06.73.07,1.1.02.38.02.84.02,1.4v3.67l2.11.64c.72.23,1.21.48,1.47.76.26.28.39.69.39,1.25,0,.59-.21,1.08-.64,1.47-.42.39-1.01.59-1.76.59h-9.51c-.75,0-1.34-.2-1.76-.59-.42-.39-.64-.88-.64-1.47,0-.56.12-.98.37-1.27.25-.29.68-.54,1.3-.73l2.01-.64v-26.02Zm6.66,14.41c.26.2.57.36.93.49.33.13.71.24,1.15.32.44.08.97.12,1.59.12,1.83,0,3.28-.63,4.36-1.89,1.08-1.26,1.62-3.37,1.62-6.35,0-2.68-.48-4.6-1.45-5.76-.96-1.16-2.17-1.74-3.6-1.74-.75,0-1.41.12-1.98.37-.57.25-1.05.51-1.45.81-.46.36-.85.73-1.18,1.13v12.5Z"/><path class="cls-1" d="m565.01,10.66l-1.96-.44c-.65-.16-1.12-.4-1.4-.71s-.42-.74-.42-1.3c0-.59.14-1.04.42-1.35.28-.31.74-.56,1.4-.76.59-.16,1.33-.32,2.23-.47s1.76-.22,2.57-.22c1.47,0,2.47.27,3.01.81.54.54.81,1.54.81,3.01v27.05l1.86.59c.69.23,1.16.49,1.42.78s.39.72.39,1.27c0,.59-.21,1.08-.64,1.47-.42.39-1.01.59-1.76.59h-9.21c-.75,0-1.34-.2-1.76-.59-.43-.39-.64-.88-.64-1.47,0-.56.12-.98.37-1.27.24-.29.68-.54,1.3-.74l2.01-.64V10.66Z"/><path class="cls-1" d="m584.61,29.87c.23,2.22.96,3.91,2.18,5.07,1.22,1.16,2.95,1.74,5.17,1.74.75,0,1.4-.05,1.94-.15s1.01-.2,1.42-.29.77-.2,1.08-.29.61-.15.91-.15c.52,0,.93.16,1.22.47s.44.74.44,1.3c0,.33-.06.62-.17.88-.12.26-.3.52-.56.78-.56.56-1.51,1.08-2.87,1.57-1.36.49-3.11.74-5.27.74-1.93,0-3.65-.27-5.17-.81-1.52-.54-2.79-1.32-3.82-2.35-1.03-1.03-1.81-2.29-2.35-3.8-.54-1.5-.81-3.22-.81-5.15,0-2.09.3-3.96.91-5.61.6-1.65,1.45-3.04,2.52-4.19,1.08-1.14,2.37-2.02,3.87-2.65,1.5-.62,3.17-.93,5-.93,3.07,0,5.46.87,7.18,2.6s2.57,4.23,2.57,7.5c0,1.24-.29,2.17-.88,2.79-.59.62-1.42.93-2.5.93h-12Zm8.87-3.77c-.07-1.93-.47-3.31-1.2-4.16-.74-.85-1.69-1.27-2.87-1.27-1.27,0-2.32.47-3.14,1.42-.82.95-1.34,2.29-1.57,4.02h8.77Z"/><path class="cls-1" d="m4.17,84.14h-1.67c-1.5,0-2.25-.65-2.25-1.96,0-.78.24-1.41.71-1.89s1.15-.71,2.03-.71h1.32l.88-3.48c.26-1.08.64-1.86,1.15-2.35.51-.49,1.23-.73,2.18-.73.75,0,1.32.19,1.71.56.39.38.59.92.59,1.64v4.36h4.21c1.47,0,2.21.65,2.21,1.96,0,.82-.23,1.45-.69,1.91-.46.46-1.14.69-2.06.69h-3.67v11.12c0,1.57.23,2.66.69,3.28.46.62,1.11.93,1.96.93.62,0,1.11-.05,1.47-.15.36-.1.72-.15,1.08-.15.46,0,.82.14,1.08.42.26.28.39.68.39,1.2,0,.36-.07.69-.22,1-.15.31-.35.6-.61.86-.29.29-.89.64-1.79,1.03s-2.16.59-3.8.59c-2.52,0-4.3-.68-5.34-2.03-1.05-1.36-1.57-3.21-1.57-5.56v-12.54Z"/><path class="cls-1" d="m19.7,92.47c0-2.03.32-3.86.96-5.51.64-1.65,1.54-3.06,2.7-4.24,1.16-1.18,2.55-2.08,4.17-2.72s3.41-.96,5.37-.96c3.69,0,6.58,1.05,8.67,3.16,2.09,2.11,3.14,5.07,3.14,8.89,0,2.03-.3,3.86-.91,5.51-.61,1.65-1.48,3.06-2.62,4.24s-2.53,2.08-4.17,2.72c-1.63.64-3.46.96-5.49.96-3.69,0-6.58-1.05-8.67-3.16-2.09-2.11-3.14-5.07-3.14-8.89Zm6.86-.78c0,1.37.15,2.57.46,3.6.31,1.03.72,1.88,1.23,2.55.51.67,1.11,1.17,1.81,1.49.7.33,1.45.49,2.23.49,1.57,0,2.88-.63,3.94-1.89,1.06-1.26,1.59-3.27,1.59-6.05,0-1.37-.16-2.57-.47-3.6-.31-1.03-.72-1.88-1.22-2.55-.51-.67-1.11-1.17-1.81-1.49-.7-.33-1.45-.49-2.23-.49-1.57,0-2.88.63-3.95,1.89-1.06,1.26-1.59,3.28-1.59,6.05Z"/><path class="cls-1" d="m48.61,92.47c0-2.03.32-3.86.96-5.51.64-1.65,1.54-3.06,2.7-4.24,1.16-1.18,2.55-2.08,4.17-2.72s3.41-.96,5.37-.96c3.69,0,6.58,1.05,8.67,3.16,2.09,2.11,3.14,5.07,3.14,8.89,0,2.03-.3,3.86-.91,5.51-.61,1.65-1.48,3.06-2.62,4.24s-2.53,2.08-4.17,2.72c-1.63.64-3.46.96-5.49.96-3.69,0-6.58-1.05-8.67-3.16-2.09-2.11-3.14-5.07-3.14-8.89Zm6.86-.78c0,1.37.15,2.57.46,3.6.31,1.03.72,1.88,1.23,2.55.51.67,1.11,1.17,1.81,1.49.7.33,1.45.49,2.23.49,1.57,0,2.88-.63,3.94-1.89,1.06-1.26,1.59-3.27,1.59-6.05,0-1.37-.16-2.57-.47-3.6-.31-1.03-.72-1.88-1.22-2.55-.51-.67-1.11-1.17-1.81-1.49-.7-.33-1.45-.49-2.23-.49-1.57,0-2.88.63-3.95,1.89-1.06,1.26-1.59,3.28-1.59,6.05Z"/><path class="cls-1" d="m79.87,73.66l-1.96-.44c-.65-.16-1.12-.4-1.4-.71s-.42-.74-.42-1.3c0-.59.14-1.04.42-1.35.28-.31.74-.56,1.4-.76.59-.16,1.33-.32,2.23-.47s1.76-.22,2.57-.22c1.47,0,2.47.27,3.01.81.54.54.81,1.54.81,3.01v27.05l1.86.59c.69.23,1.16.49,1.42.78s.39.72.39,1.27c0,.59-.21,1.08-.64,1.47-.42.39-1.01.59-1.76.59h-9.21c-.75,0-1.34-.2-1.76-.59-.43-.39-.64-.88-.64-1.47,0-.56.12-.98.37-1.27.24-.29.68-.54,1.3-.74l2.01-.64v-25.63Z"/><path class="cls-1" d="m98.2,99.53c.29.13.62.25.98.34.33.07.73.13,1.2.2s1,.1,1.59.1c1.47,0,2.49-.24,3.06-.71.57-.47.86-1.09.86-1.84s-.31-1.29-.93-1.71c-.62-.42-1.4-.81-2.33-1.15-.93-.34-1.94-.7-3.04-1.08-1.09-.38-2.11-.86-3.04-1.45-.93-.59-1.71-1.33-2.33-2.23-.62-.9-.93-2.07-.93-3.5,0-1.01.21-1.98.63-2.89.42-.91,1.07-1.71,1.95-2.38.88-.67,1.99-1.2,3.32-1.59,1.33-.39,2.92-.59,4.74-.59,1.95,0,3.44.16,4.45.49,1.01.33,1.68.65,2,.98.26.26.45.57.56.93.11.36.17.9.17,1.62v1.27c0,.33-.02.67-.05,1.03-.07.62-.27,1.08-.61,1.37-.34.29-.79.44-1.35.44s-.99-.15-1.3-.44-.58-.75-.81-1.37l-.49-1.42c-.29-.07-.62-.15-.98-.25-.29-.07-.65-.13-1.05-.2-.41-.06-.86-.1-1.35-.1-1.37,0-2.29.2-2.74.59-.46.39-.69.92-.69,1.57s.31,1.18.93,1.59c.62.41,1.4.78,2.33,1.1.93.33,1.94.68,3.04,1.05,1.09.38,2.11.87,3.04,1.47.93.6,1.71,1.37,2.33,2.3.62.93.93,2.13.93,3.6,0,1.08-.23,2.09-.68,3.04s-1.14,1.77-2.05,2.47c-.91.7-2.08,1.27-3.49,1.69-1.42.42-3.07.64-4.96.64-2.09,0-3.67-.18-4.74-.54s-1.78-.7-2.1-1.03c-.26-.26-.45-.57-.56-.93-.11-.36-.17-.9-.17-1.62v-1.37c0-.33.02-.67.05-1.03.06-.62.27-1.08.61-1.37s.79-.44,1.35-.44.99.15,1.3.44c.31.29.58.75.81,1.37l.54,1.52Z"/><path class="cls-1" d="m131.07,84.14h-1.67c-1.5,0-2.25-.65-2.25-1.96,0-.78.24-1.41.71-1.89s1.15-.71,2.03-.71h1.32l.88-3.48c.26-1.08.64-1.86,1.15-2.35.51-.49,1.23-.73,2.18-.73.75,0,1.32.19,1.71.56.39.38.59.92.59,1.64v4.36h4.21c1.47,0,2.21.65,2.21,1.96,0,.82-.23,1.45-.69,1.91-.46.46-1.14.69-2.06.69h-3.67v11.12c0,1.57.23,2.66.69,3.28.46.62,1.11.93,1.96.93.62,0,1.11-.05,1.47-.15.36-.1.72-.15,1.08-.15.46,0,.82.14,1.08.42.26.28.39.68.39,1.2,0,.36-.07.69-.22,1-.15.31-.35.6-.61.86-.29.29-.89.64-1.79,1.03s-2.16.59-3.8.59c-2.52,0-4.3-.68-5.34-2.03-1.05-1.36-1.57-3.21-1.57-5.56v-12.54Z"/><path class="cls-1" d="m146.61,92.47c0-2.03.32-3.86.96-5.51.64-1.65,1.54-3.06,2.7-4.24,1.16-1.18,2.55-2.08,4.17-2.72s3.41-.96,5.37-.96c3.69,0,6.58,1.05,8.67,3.16,2.09,2.11,3.14,5.07,3.14,8.89,0,2.03-.3,3.86-.91,5.51-.61,1.65-1.48,3.06-2.62,4.24s-2.53,2.08-4.17,2.72c-1.63.64-3.46.96-5.49.96-3.69,0-6.58-1.05-8.67-3.16-2.09-2.11-3.14-5.07-3.14-8.89Zm6.86-.78c0,1.37.15,2.57.46,3.6.31,1.03.72,1.88,1.23,2.55.51.67,1.11,1.17,1.81,1.49.7.33,1.45.49,2.23.49,1.57,0,2.88-.63,3.94-1.89,1.06-1.26,1.59-3.27,1.59-6.05,0-1.37-.16-2.57-.47-3.6-.31-1.03-.72-1.88-1.22-2.55-.51-.67-1.11-1.17-1.81-1.49-.7-.33-1.45-.49-2.23-.49-1.57,0-2.88.63-3.95,1.89-1.06,1.26-1.59,3.28-1.59,6.05Z"/><path class="cls-1" d="m194.68,92.87c.23,2.22.96,3.91,2.18,5.07,1.22,1.16,2.95,1.74,5.17,1.74.75,0,1.4-.05,1.94-.15s1.01-.2,1.42-.29.77-.2,1.08-.29.61-.15.91-.15c.52,0,.93.16,1.22.47s.44.74.44,1.3c0,.33-.06.62-.17.88-.12.26-.3.52-.56.78-.56.56-1.51,1.08-2.87,1.57-1.36.49-3.11.74-5.27.74-1.93,0-3.65-.27-5.17-.81-1.52-.54-2.79-1.32-3.82-2.35-1.03-1.03-1.81-2.29-2.35-3.8-.54-1.5-.81-3.22-.81-5.15,0-2.09.3-3.96.91-5.61.6-1.65,1.45-3.04,2.52-4.19,1.08-1.14,2.37-2.02,3.87-2.65,1.5-.62,3.17-.93,5-.93,3.07,0,5.46.87,7.18,2.6s2.57,4.23,2.57,7.5c0,1.24-.29,2.17-.88,2.79-.59.62-1.42.93-2.5.93h-12Zm8.87-3.77c-.07-1.93-.47-3.31-1.2-4.16-.74-.85-1.69-1.27-2.87-1.27-1.27,0-2.32.47-3.14,1.42-.82.95-1.34,2.29-1.57,4.02h8.77Z"/><path class="cls-1" d="m217.17,84.14h-1.86c-1.47,0-2.2-.65-2.2-1.96,0-.78.24-1.41.71-1.89s1.15-.71,2.03-.71h1.32v-1.13c0-3.27.9-5.79,2.7-7.57,1.8-1.78,4.39-2.67,7.79-2.67.95,0,1.78.09,2.5.27.72.18,1.22.42,1.52.71.13.13.24.26.32.39.08.13.16.3.22.51.07.21.11.49.15.83.03.34.05.78.05,1.3v1.27c0,.26-.02.67-.05,1.22-.03.62-.21,1.08-.54,1.37-.33.29-.77.44-1.32.44s-1-.15-1.32-.46c-.33-.31-.6-.79-.83-1.45l-.59-1.76c-.07,0-.15-.02-.25-.05-.1-.03-.21-.06-.34-.07-.13-.02-.28-.02-.44-.02-.95,0-1.67.29-2.16.86-.49.57-.74,1.56-.74,2.96v3.04h3.48c1.47,0,2.2.65,2.2,1.96,0,.82-.23,1.45-.69,1.91s-1.14.69-2.06.69h-2.94v15.14l2.35.64c.72.2,1.21.44,1.47.74.26.29.39.72.39,1.27,0,.59-.21,1.08-.64,1.47-.42.39-1.01.59-1.76.59h-10.05c-.75,0-1.34-.2-1.76-.59-.42-.39-.64-.88-.64-1.47,0-.56.13-.97.39-1.25.26-.28.75-.53,1.47-.76l2.11-.64v-15.14Z"/><path class="cls-1" d="m235.15,84.14h-1.86c-1.47,0-2.2-.65-2.2-1.96,0-.78.24-1.41.71-1.89s1.15-.71,2.03-.71h1.32v-1.13c0-3.27.9-5.79,2.7-7.57,1.8-1.78,4.39-2.67,7.79-2.67.95,0,1.78.09,2.5.27.72.18,1.22.42,1.52.71.13.13.24.26.32.39.08.13.16.3.22.51.07.21.11.49.15.83.03.34.05.78.05,1.3v1.27c0,.26-.02.67-.05,1.22-.03.62-.21,1.08-.54,1.37-.33.29-.77.44-1.32.44s-1-.15-1.32-.46c-.33-.31-.6-.79-.83-1.45l-.59-1.76c-.07,0-.15-.02-.25-.05-.1-.03-.21-.06-.34-.07-.13-.02-.28-.02-.44-.02-.95,0-1.67.29-2.16.86-.49.57-.74,1.56-.74,2.96v3.04h3.48c1.47,0,2.2.65,2.2,1.96,0,.82-.23,1.45-.69,1.91s-1.14.69-2.06.69h-2.94v15.14l2.35.64c.72.2,1.21.44,1.47.74.26.29.39.72.39,1.27,0,.59-.21,1.08-.64,1.47-.42.39-1.01.59-1.76.59h-10.05c-.75,0-1.34-.2-1.76-.59-.42-.39-.64-.88-.64-1.47,0-.56.13-.97.39-1.25.26-.28.75-.53,1.47-.76l2.11-.64v-15.14Z"/><path class="cls-1" d="m256.22,92.87c.23,2.22.96,3.91,2.18,5.07,1.22,1.16,2.95,1.74,5.17,1.74.75,0,1.4-.05,1.94-.15s1.01-.2,1.42-.29.77-.2,1.08-.29.61-.15.91-.15c.52,0,.93.16,1.22.47s.44.74.44,1.3c0,.33-.06.62-.17.88-.12.26-.3.52-.56.78-.56.56-1.51,1.08-2.87,1.57-1.36.49-3.11.74-5.27.74-1.93,0-3.65-.27-5.17-.81-1.52-.54-2.79-1.32-3.82-2.35-1.03-1.03-1.81-2.29-2.35-3.8-.54-1.5-.81-3.22-.81-5.15,0-2.09.3-3.96.91-5.61.6-1.65,1.45-3.04,2.52-4.19,1.08-1.14,2.37-2.02,3.87-2.65,1.5-.62,3.17-.93,5-.93,3.07,0,5.46.87,7.18,2.6s2.57,4.23,2.57,7.5c0,1.24-.29,2.17-.88,2.79-.59.62-1.42.93-2.5.93h-12Zm8.87-3.77c-.07-1.93-.47-3.31-1.2-4.16-.74-.85-1.69-1.27-2.87-1.27-1.27,0-2.32.47-3.14,1.42-.82.95-1.34,2.29-1.57,4.02h8.77Z"/><path class="cls-1" d="m289.83,83.99c-.13-.03-.26-.06-.39-.1-.13-.03-.29-.06-.49-.1-.19-.03-.42-.05-.68-.05-1.62,0-2.99.66-4.11,1.98-1.12,1.32-1.68,3.4-1.68,6.23,0,2.64.58,4.58,1.73,5.84,1.15,1.25,2.76,1.88,4.81,1.88.58,0,1.09-.04,1.51-.12.42-.08.8-.16,1.15-.25.34-.08.65-.16.93-.25.28-.08.53-.12.76-.12.52,0,.93.16,1.22.47.29.31.44.74.44,1.3,0,.62-.25,1.18-.74,1.67-.26.26-.61.52-1.05.78-.44.26-.96.49-1.57.69-.61.2-1.28.36-2.03.49-.75.13-1.57.2-2.45.2-3.59,0-6.42-1.04-8.48-3.11-2.06-2.07-3.09-4.96-3.09-8.65,0-2.06.33-3.94.98-5.64.65-1.7,1.56-3.14,2.72-4.34s2.55-2.12,4.17-2.77,3.41-.98,5.37-.98c1.5,0,2.66.14,3.48.42.82.28,1.44.63,1.86,1.05.26.26.45.6.56,1.03.11.43.17,1.19.17,2.3v1.62c0,.33-.02.85-.05,1.57-.03.69-.22,1.18-.56,1.49-.34.31-.79.47-1.35.47s-1-.16-1.32-.49c-.33-.32-.61-.81-.83-1.46l-.98-3.06Z"/><path class="cls-1" d="m301.15,84.14h-1.67c-1.5,0-2.25-.65-2.25-1.96,0-.78.24-1.41.71-1.89s1.15-.71,2.03-.71h1.32l.88-3.48c.26-1.08.64-1.86,1.15-2.35.51-.49,1.23-.73,2.18-.73.75,0,1.32.19,1.71.56.39.38.59.92.59,1.64v4.36h4.21c1.47,0,2.21.65,2.21,1.96,0,.82-.23,1.45-.69,1.91-.46.46-1.14.69-2.06.69h-3.67v11.12c0,1.57.23,2.66.69,3.28.46.62,1.11.93,1.96.93.62,0,1.11-.05,1.47-.15.36-.1.72-.15,1.08-.15.46,0,.82.14,1.08.42.26.28.39.68.39,1.2,0,.36-.07.69-.22,1-.15.31-.35.6-.61.86-.29.29-.89.64-1.79,1.03s-2.16.59-3.8.59c-2.52,0-4.3-.68-5.34-2.03-1.05-1.36-1.57-3.21-1.57-5.56v-12.54Z"/><path class="cls-1" d="m320.02,84.49l-2.25-.49c-.65-.16-1.12-.39-1.4-.69-.28-.29-.42-.72-.42-1.27,0-.59.14-1.04.42-1.35.28-.31.74-.56,1.4-.76.69-.2,1.47-.36,2.35-.49.88-.13,1.8-.2,2.74-.2,1.47,0,2.47.27,3.01.81s.81,1.54.81,3.01v16.22l2.01.59c.62.16,1.05.39,1.3.69s.37.69.37,1.18c0,.65-.22,1.19-.66,1.62-.44.42-1.04.64-1.79.64h-9.46c-.75,0-1.34-.2-1.76-.59-.42-.39-.64-.88-.64-1.47,0-.56.13-.97.39-1.25.26-.28.75-.53,1.47-.76l2.11-.64v-14.8Zm-.88-11.51c0-1.18.39-2.16,1.18-2.94s1.76-1.18,2.94-1.18,2.14.38,2.89,1.13c.75.75,1.13,1.71,1.13,2.89s-.39,2.16-1.18,2.94-1.76,1.18-2.94,1.18-2.14-.38-2.89-1.13c-.75-.75-1.13-1.71-1.13-2.89Z"/><path class="cls-1" d="m332.78,84.29l-.83-.34c-.75-.29-1.27-.65-1.57-1.08-.29-.42-.44-.93-.44-1.52,0-.52.18-.95.54-1.27.36-.33.88-.49,1.57-.49h8.43c.69,0,1.21.16,1.57.49.36.33.54.75.54,1.27,0,.56-.15,1.01-.44,1.37s-.83.72-1.62,1.08l-.83.39,3.58,9.46c.23.62.42,1.2.59,1.74s.33,1.02.49,1.45c.13.49.28.95.44,1.37h.1c.13-.42.26-.88.39-1.37.13-.42.29-.91.46-1.47.18-.55.4-1.16.66-1.81l3.53-9.36-.83-.39c-.78-.36-1.32-.72-1.62-1.08-.29-.36-.44-.82-.44-1.37,0-.52.18-.95.54-1.27.36-.33.88-.49,1.57-.49h7.15c.69,0,1.21.16,1.57.49.36.33.54.75.54,1.27,0,.59-.15,1.09-.44,1.52-.29.42-.82.78-1.57,1.08l-.83.34-6.52,15.92c-.33.78-.65,1.43-.96,1.94-.31.51-.65.92-1,1.23s-.78.53-1.25.66c-.47.13-1.04.2-1.69.2s-1.22-.07-1.69-.2-.89-.35-1.25-.66c-.36-.31-.69-.72-1-1.23-.31-.51-.63-1.15-.96-1.94l-6.47-15.92Z"/><path class="cls-1" d="m366.17,92.87c.23,2.22.96,3.91,2.18,5.07,1.22,1.16,2.95,1.74,5.17,1.74.75,0,1.4-.05,1.94-.15s1.01-.2,1.42-.29.77-.2,1.08-.29.61-.15.91-.15c.52,0,.93.16,1.22.47s.44.74.44,1.3c0,.33-.06.62-.17.88-.12.26-.3.52-.56.78-.56.56-1.51,1.08-2.87,1.57-1.36.49-3.11.74-5.27.74-1.93,0-3.65-.27-5.17-.81-1.52-.54-2.79-1.32-3.82-2.35-1.03-1.03-1.81-2.29-2.35-3.8-.54-1.5-.81-3.22-.81-5.15,0-2.09.3-3.96.91-5.61.6-1.65,1.45-3.04,2.52-4.19,1.08-1.14,2.37-2.02,3.87-2.65,1.5-.62,3.17-.93,5-.93,3.07,0,5.46.87,7.18,2.6s2.57,4.23,2.57,7.5c0,1.24-.29,2.17-.88,2.79-.59.62-1.42.93-2.5.93h-12Zm8.87-3.77c-.07-1.93-.47-3.31-1.2-4.16-.74-.85-1.69-1.27-2.87-1.27-1.27,0-2.32.47-3.14,1.42-.82.95-1.34,2.29-1.57,4.02h8.77Z"/><path class="cls-1" d="m387.93,73.66l-1.96-.44c-.65-.16-1.12-.4-1.4-.71s-.42-.74-.42-1.3c0-.59.14-1.04.42-1.35.28-.31.74-.56,1.4-.76.59-.16,1.33-.32,2.23-.47s1.76-.22,2.57-.22c1.47,0,2.47.27,3.01.81.54.54.81,1.54.81,3.01v27.05l1.86.59c.69.23,1.16.49,1.42.78s.39.72.39,1.27c0,.59-.21,1.08-.64,1.47-.42.39-1.01.59-1.76.59h-9.21c-.75,0-1.34-.2-1.76-.59-.43-.39-.64-.88-.64-1.47,0-.56.12-.98.37-1.27.24-.29.68-.54,1.3-.74l2.01-.64v-25.63Z"/><path class="cls-1" d="m400.69,84.29l-.83-.34c-.75-.29-1.27-.65-1.57-1.08-.29-.42-.44-.93-.44-1.52,0-.52.18-.95.54-1.27.36-.33.88-.49,1.57-.49h8.43c.69,0,1.21.16,1.57.49.36.33.54.75.54,1.27,0,.56-.15,1.01-.44,1.37s-.83.72-1.62,1.08l-.83.39,3.58,9.46c.23.62.42,1.2.59,1.74s.33,1.02.49,1.45c.13.49.28.95.44,1.37h.1c.13-.42.26-.88.39-1.37.13-.42.29-.91.46-1.47.18-.55.4-1.16.66-1.81l3.53-9.36-.83-.39c-.78-.36-1.32-.72-1.62-1.08-.29-.36-.44-.82-.44-1.37,0-.52.18-.95.54-1.27.36-.33.88-.49,1.57-.49h7.15c.69,0,1.21.16,1.57.49.36.33.54.75.54,1.27,0,.59-.15,1.09-.44,1.52-.29.42-.82.78-1.57,1.08l-.83.34-6.76,16.56c-1.24,3.07-2.47,5.56-3.7,7.47-1.22,1.91-2.43,3.4-3.63,4.46-1.19,1.06-2.37,1.78-3.53,2.16-1.16.38-2.29.56-3.41.56-1.44,0-2.54-.3-3.31-.91s-1.15-1.45-1.15-2.52c0-.95.24-1.69.71-2.23.47-.54,1.04-.81,1.69-.81.36,0,.67.02.93.07.26.05.52.11.78.2.26.08.55.15.88.2.33.05.74.07,1.22.07.59,0,1.12-.09,1.59-.27s.91-.44,1.32-.78c.41-.34.78-.78,1.13-1.3.34-.52.68-1.14,1-1.86l-8.58-21.07Z"/><path class="cls-1" d="m443.44,84.49l-1.96-.44c-.65-.16-1.12-.4-1.4-.71s-.42-.74-.42-1.3c0-.59.14-1.04.42-1.35.28-.31.74-.56,1.4-.76.29-.1.64-.19,1.03-.27.39-.08.79-.16,1.2-.22s.83-.11,1.25-.15c.42-.03.83-.05,1.22-.05,1.18,0,2.01.25,2.5.74s.74,1.31.74,2.45v.64l.1.05c.39-.75.93-1.42,1.62-2.01.59-.49,1.36-.95,2.33-1.37.96-.42,2.18-.64,3.65-.64,2.88,0,5.18.96,6.91,2.87s2.6,4.86,2.6,8.84c0,2.16-.31,4.08-.93,5.78-.62,1.7-1.52,3.14-2.69,4.31-1.18,1.18-2.62,2.08-4.34,2.7s-3.67.93-5.86.93c-.39,0-.75,0-1.08-.02-.33-.02-.62-.06-.88-.12-.29-.03-.54-.08-.74-.15l-.1.1c.03.36.06.73.07,1.1.02.38.02.84.02,1.4v3.67l2.11.64c.72.23,1.21.48,1.47.76.26.28.39.69.39,1.25,0,.59-.21,1.08-.64,1.47-.42.39-1.01.59-1.76.59h-9.51c-.75,0-1.34-.2-1.76-.59-.42-.39-.64-.88-.64-1.47,0-.56.12-.98.37-1.27.25-.29.68-.54,1.3-.73l2.01-.64v-26.02Zm6.66,14.41c.26.2.57.36.93.49.33.13.71.24,1.15.32.44.08.97.12,1.59.12,1.83,0,3.28-.63,4.36-1.89,1.08-1.26,1.62-3.37,1.62-6.35,0-2.68-.48-4.6-1.45-5.76-.96-1.16-2.17-1.74-3.6-1.74-.75,0-1.41.12-1.98.37-.57.25-1.05.51-1.45.81-.46.36-.85.73-1.18,1.13v12.5Z"/><path class="cls-1" d="m472.75,84.49l-1.96-.44c-.65-.16-1.12-.4-1.4-.71-.28-.31-.42-.74-.42-1.3,0-.59.14-1.04.42-1.35.28-.31.74-.56,1.4-.76.59-.16,1.33-.32,2.23-.47.9-.15,1.76-.22,2.57-.22,1.47,0,2.47.27,3.01.81s.81,1.54.81,3.01v10.68c0,2.12.38,3.61,1.13,4.46.75.85,1.86,1.27,3.33,1.27.75,0,1.42-.11,2.01-.34s1.08-.49,1.47-.78c.46-.36.85-.75,1.18-1.18v-12.69l-2.25-.49c-.65-.16-1.12-.39-1.4-.69-.28-.29-.42-.72-.42-1.27,0-.59.14-1.04.42-1.35.28-.31.74-.56,1.4-.76.69-.2,1.47-.36,2.35-.49.88-.13,1.8-.2,2.74-.2,1.47,0,2.47.27,3.01.81s.81,1.54.81,3.01v16.12l2.01.34c.65.13,1.11.34,1.37.64.26.29.39.72.39,1.27s-.15.99-.44,1.3c-.29.31-.75.58-1.37.81-.65.23-1.37.42-2.16.56-.78.15-1.62.22-2.5.22-1.14,0-1.98-.27-2.5-.81-.52-.54-.78-1.33-.78-2.38v-.64l-.1-.05c-.39.75-.93,1.42-1.62,2.01-.59.52-1.37.99-2.35,1.4-.98.41-2.2.61-3.67.61-2.81,0-4.97-.77-6.47-2.3-1.5-1.53-2.25-3.82-2.25-6.86v-10.83Z"/><path class="cls-1" d="m506.85,99.53c.29.13.62.25.98.34.33.07.73.13,1.2.2s1,.1,1.59.1c1.47,0,2.49-.24,3.06-.71.57-.47.86-1.09.86-1.84s-.31-1.29-.93-1.71c-.62-.42-1.4-.81-2.33-1.15-.93-.34-1.94-.7-3.04-1.08-1.09-.38-2.11-.86-3.04-1.45-.93-.59-1.71-1.33-2.33-2.23-.62-.9-.93-2.07-.93-3.5,0-1.01.21-1.98.63-2.89.42-.91,1.07-1.71,1.95-2.38.88-.67,1.99-1.2,3.32-1.59,1.33-.39,2.92-.59,4.74-.59,1.95,0,3.44.16,4.45.49,1.01.33,1.68.65,2,.98.26.26.45.57.56.93.11.36.17.9.17,1.62v1.27c0,.33-.02.67-.05,1.03-.07.62-.27,1.08-.61,1.37-.34.29-.79.44-1.35.44s-.99-.15-1.3-.44-.58-.75-.81-1.37l-.49-1.42c-.29-.07-.62-.15-.98-.25-.29-.07-.65-.13-1.05-.2-.41-.06-.86-.1-1.35-.1-1.37,0-2.29.2-2.74.59-.46.39-.69.92-.69,1.57s.31,1.18.93,1.59c.62.41,1.4.78,2.33,1.1.93.33,1.94.68,3.04,1.05,1.09.38,2.11.87,3.04,1.47.93.6,1.71,1.37,2.33,2.3.62.93.93,2.13.93,3.6,0,1.08-.23,2.09-.68,3.04s-1.14,1.77-2.05,2.47c-.91.7-2.08,1.27-3.49,1.69-1.42.42-3.07.64-4.96.64-2.09,0-3.67-.18-4.74-.54s-1.78-.7-2.1-1.03c-.26-.26-.45-.57-.56-.93-.11-.36-.17-.9-.17-1.62v-1.37c0-.33.02-.67.05-1.03.06-.62.27-1.08.61-1.37s.79-.44,1.35-.44.99.15,1.3.44c.31.29.58.75.81,1.37l.54,1.52Z"/><path class="cls-1" d="m527.38,73.66l-1.96-.44c-.65-.16-1.12-.4-1.4-.71s-.42-.74-.42-1.3c0-.59.14-1.04.42-1.35.28-.31.74-.56,1.4-.76.59-.16,1.33-.32,2.23-.47s1.76-.22,2.57-.22c1.47,0,2.47.27,3.01.81.54.54.81,1.54.81,3.01v6.12c0,.65-.03,1.34-.1,2.06-.07.72-.15,1.41-.25,2.06l.1.05c.42-.62.96-1.19,1.62-1.71.56-.42,1.29-.82,2.21-1.18.91-.36,2.06-.54,3.43-.54,2.84,0,5.03.79,6.57,2.38,1.54,1.58,2.3,3.93,2.3,7.03v10.78l1.86.59c.69.23,1.16.49,1.42.78s.39.72.39,1.27c0,.59-.21,1.08-.64,1.47-.42.39-1.01.59-1.76.59h-9.11c-.75,0-1.34-.2-1.76-.59-.42-.39-.64-.88-.64-1.47,0-.56.13-.98.39-1.27.26-.29.74-.55,1.42-.78l1.76-.59v-9.21c0-2.19-.39-3.73-1.18-4.63-.78-.9-1.93-1.35-3.43-1.35-.75,0-1.41.12-1.98.37-.57.25-1.05.51-1.45.81-.46.36-.85.73-1.18,1.13v12.89l1.76.59c.69.23,1.16.49,1.42.78.26.29.39.72.39,1.27,0,.59-.21,1.08-.64,1.47-.42.39-1.01.59-1.76.59h-9.11c-.75,0-1.34-.2-1.76-.59-.43-.39-.64-.88-.64-1.47,0-.56.12-.98.37-1.27.24-.29.68-.54,1.3-.74l2.01-.64v-25.63Z"/><path class="cls-1" d="m16.66,152.14c0-1.96-.34-3.32-1.03-4.07-.69-.75-1.88-1.13-3.58-1.13-.95,0-1.77.06-2.47.17s-1.32.24-1.84.37c-.52.13-.97.25-1.35.37-.38.12-.71.17-1,.17-.56,0-1.01-.18-1.37-.54s-.54-.83-.54-1.42c0-.52.21-1,.64-1.42.29-.29.73-.59,1.32-.88.59-.29,1.3-.56,2.13-.81s1.76-.45,2.79-.61c1.03-.16,2.13-.24,3.31-.24,3.5,0,5.98.68,7.45,2.03s2.21,3.49,2.21,6.39c0,1.93-.02,3.8-.05,5.61-.03,1.81.03,3.85.2,6.1l1.86.29c.65.1,1.11.3,1.37.61.26.31.39.74.39,1.3s-.15.99-.44,1.3-.75.58-1.37.81c-.65.23-1.37.42-2.16.56-.78.15-1.65.22-2.6.22-1.14,0-1.98-.27-2.5-.81-.52-.54-.78-1.33-.78-2.38v-.25l-.1-.05c-.39.69-.92,1.29-1.57,1.81-.56.46-1.29.88-2.21,1.25-.92.38-2.04.56-3.38.56-1.18,0-2.25-.19-3.23-.56-.98-.38-1.82-.88-2.52-1.52-.7-.64-1.24-1.4-1.62-2.28s-.56-1.81-.56-2.79.22-1.89.66-2.74c.44-.85,1.11-1.58,2.01-2.18.9-.6,2.04-1.08,3.43-1.42,1.39-.34,3.03-.51,4.92-.51.52,0,1,.02,1.42.05.42.03.8.07,1.13.1.36.03.7.07,1.03.1v-1.57Zm-.05,5.34c-.23-.03-.49-.08-.79-.15-.26-.03-.58-.06-.96-.1-.38-.03-.8-.05-1.26-.05-1.68,0-2.88.23-3.6.69-.72.46-1.08,1.08-1.08,1.86s.3,1.45.91,2.01c.61.56,1.44.83,2.49.83.69,0,1.3-.09,1.82-.27.53-.18.97-.38,1.33-.61.43-.26.8-.55,1.13-.88v-3.33Z"/><path class="cls-1" d="m43.17,162.58c3.5,0,5.98.62,7.45,1.86s2.21,2.89,2.21,4.95c0,1.18-.29,2.32-.88,3.43-.59,1.11-1.45,2.11-2.57,2.99s-2.52,1.59-4.17,2.13c-1.65.54-3.55.81-5.71.81-1.93,0-3.58-.18-4.95-.54s-2.49-.86-3.36-1.49-1.5-1.39-1.91-2.25c-.41-.87-.61-1.79-.61-2.77,0-.65.11-1.27.32-1.86s.5-1.13.86-1.62c.36-.49.78-.93,1.25-1.32.47-.39.99-.74,1.54-1.03-.52-.36-.95-.81-1.27-1.35-.33-.54-.49-1.25-.49-2.13,0-.46.07-.91.2-1.35.13-.44.32-.86.56-1.25.25-.39.54-.75.88-1.08.34-.33.71-.62,1.1-.88-.95-.55-1.75-1.37-2.4-2.45s-.98-2.4-.98-3.97c0-1.34.25-2.58.73-3.72.49-1.14,1.21-2.13,2.16-2.96s2.11-1.48,3.48-1.94c1.37-.46,2.94-.69,4.7-.69.62,0,1.17.02,1.64.07.47.05.87.11,1.2.17.36.1.67.18.93.25.91-1.47,1.79-2.64,2.62-3.5s1.74-1.3,2.72-1.3c.75,0,1.38.24,1.89.71.51.47.76,1.04.76,1.69,0,.49-.13.91-.39,1.25s-.6.66-1.03.96c-.42.29-.89.6-1.4.93-.51.33-1.02.74-1.54,1.22.65.56,1.19,1.31,1.62,2.25.42.95.64,2.04.64,3.28,0,1.34-.25,2.58-.73,3.72-.49,1.14-1.21,2.13-2.16,2.96-.95.83-2.11,1.48-3.48,1.94-1.37.46-2.94.69-4.7.69-.36,0-.72,0-1.08-.02-.36-.02-.67-.04-.93-.07-.33-.03-.64-.08-.93-.15-.1.13-.18.26-.25.39-.07.13-.12.29-.17.49-.05.2-.07.41-.07.64,0,.29.06.56.17.78.11.23.33.42.66.59.33.16.76.29,1.3.39.54.1,1.25.15,2.13.15h2.45Zm-3.28,4.8c-.59,0-1.11,0-1.57-.02-.46-.02-.85-.06-1.18-.12-.36-.03-.67-.08-.93-.15-.23.26-.42.57-.59.93-.16.29-.29.64-.39,1.05-.1.41-.15.84-.15,1.3,0,1.14.42,2.06,1.25,2.74s2.26,1.03,4.29,1.03c1.83,0,3.21-.4,4.14-1.2s1.4-1.71,1.4-2.72c0-.92-.3-1.62-.91-2.11-.61-.49-1.72-.74-3.36-.74h-2.01Zm-2.99-16.71c0,1.23.36,2.2,1.08,2.93.72.73,1.62,1.09,2.69,1.09s1.91-.34,2.6-1.02c.69-.68,1.03-1.63,1.03-2.86s-.36-2.2-1.08-2.93-1.62-1.09-2.69-1.09-1.91.34-2.6,1.02c-.69.68-1.03,1.63-1.03,2.85Z"/><path class="cls-1" d="m69.97,152.14c0-1.96-.34-3.32-1.03-4.07-.69-.75-1.88-1.13-3.58-1.13-.95,0-1.77.06-2.47.17s-1.32.24-1.84.37c-.52.13-.97.25-1.35.37-.38.12-.71.17-1,.17-.56,0-1.01-.18-1.37-.54s-.54-.83-.54-1.42c0-.52.21-1,.64-1.42.29-.29.73-.59,1.32-.88.59-.29,1.3-.56,2.13-.81s1.76-.45,2.79-.61c1.03-.16,2.13-.24,3.31-.24,3.5,0,5.98.68,7.45,2.03s2.21,3.49,2.21,6.39c0,1.93-.02,3.8-.05,5.61-.03,1.81.03,3.85.2,6.1l1.86.29c.65.1,1.11.3,1.37.61.26.31.39.74.39,1.3s-.15.99-.44,1.3-.75.58-1.37.81c-.65.23-1.37.42-2.16.56-.78.15-1.65.22-2.6.22-1.14,0-1.98-.27-2.5-.81-.52-.54-.78-1.33-.78-2.38v-.25l-.1-.05c-.39.69-.92,1.29-1.57,1.81-.56.46-1.29.88-2.21,1.25-.92.38-2.04.56-3.38.56-1.18,0-2.25-.19-3.23-.56-.98-.38-1.82-.88-2.52-1.52-.7-.64-1.24-1.4-1.62-2.28s-.56-1.81-.56-2.79.22-1.89.66-2.74c.44-.85,1.11-1.58,2.01-2.18.9-.6,2.04-1.08,3.43-1.42,1.39-.34,3.03-.51,4.92-.51.52,0,1,.02,1.42.05.42.03.8.07,1.13.1.36.03.7.07,1.03.1v-1.57Zm-.05,5.34c-.23-.03-.49-.08-.79-.15-.26-.03-.58-.06-.96-.1-.38-.03-.8-.05-1.26-.05-1.68,0-2.88.23-3.6.69-.72.46-1.08,1.08-1.08,1.86s.3,1.45.91,2.01c.61.56,1.44.83,2.49.83.69,0,1.3-.09,1.82-.27.53-.18.97-.38,1.33-.61.43-.26.8-.55,1.13-.88v-3.33Z"/><path class="cls-1" d="m85.85,147.49l-2.25-.49c-.65-.16-1.12-.39-1.4-.69-.28-.29-.42-.72-.42-1.27,0-.59.14-1.04.42-1.35.28-.31.74-.56,1.4-.76.69-.2,1.47-.36,2.35-.49.88-.13,1.8-.2,2.74-.2,1.47,0,2.47.27,3.01.81s.81,1.54.81,3.01v16.22l2.01.59c.62.16,1.05.39,1.3.69s.37.69.37,1.18c0,.65-.22,1.19-.66,1.62-.44.42-1.04.64-1.79.64h-9.46c-.75,0-1.34-.2-1.76-.59-.42-.39-.64-.88-.64-1.47,0-.56.13-.97.39-1.25.26-.28.75-.53,1.47-.76l2.11-.64v-14.8Zm-.88-11.51c0-1.18.39-2.16,1.18-2.94s1.76-1.18,2.94-1.18,2.14.38,2.89,1.13c.75.75,1.13,1.71,1.13,2.89s-.39,2.16-1.18,2.94-1.76,1.18-2.94,1.18-2.14-.38-2.89-1.13c-.75-.75-1.13-1.71-1.13-2.89Z"/><path class="cls-1" d="m101.87,147.49l-2.25-.49c-.65-.16-1.12-.39-1.4-.69-.28-.29-.42-.72-.42-1.27,0-.59.14-1.04.42-1.35.28-.31.74-.56,1.4-.76.69-.2,1.47-.36,2.35-.49.88-.13,1.73-.2,2.55-.2,1.24,0,2.11.25,2.6.74s.74,1.31.74,2.45v.64l.1.05c.39-.75.93-1.42,1.62-2.01.59-.49,1.36-.95,2.33-1.37.96-.42,2.18-.64,3.65-.64,2.84,0,5.03.79,6.57,2.38,1.54,1.58,2.3,3.93,2.3,7.03v10.78l1.86.59c.69.23,1.16.49,1.42.78.26.29.39.72.39,1.27,0,.59-.21,1.08-.64,1.47-.42.39-1.01.59-1.76.59h-9.11c-.75,0-1.34-.2-1.76-.59-.43-.39-.64-.88-.64-1.47,0-.56.13-.98.39-1.27.26-.29.73-.55,1.42-.78l1.76-.59v-9.21c0-2.19-.39-3.73-1.18-4.63-.78-.9-1.93-1.35-3.43-1.35-.75,0-1.41.12-1.99.37s-1.05.51-1.45.81c-.46.36-.85.73-1.18,1.13v12.89l1.76.59c.69.23,1.16.49,1.42.78.26.29.39.72.39,1.27,0,.59-.21,1.08-.64,1.47-.42.39-1.01.59-1.76.59h-9.41c-.75,0-1.34-.2-1.76-.59-.42-.39-.64-.88-.64-1.47,0-.56.13-.97.39-1.25.26-.28.75-.53,1.47-.76l2.11-.64v-14.8Z"/><path class="cls-1" d="m135.93,162.53c.29.13.62.25.98.34.33.07.73.13,1.2.2s1,.1,1.59.1c1.47,0,2.49-.24,3.06-.71.57-.47.86-1.09.86-1.84s-.31-1.29-.93-1.71c-.62-.42-1.4-.81-2.33-1.15-.93-.34-1.94-.7-3.04-1.08-1.09-.38-2.11-.86-3.04-1.45-.93-.59-1.71-1.33-2.33-2.23-.62-.9-.93-2.07-.93-3.5,0-1.01.21-1.98.63-2.89.42-.91,1.07-1.71,1.95-2.38.88-.67,1.99-1.2,3.32-1.59,1.33-.39,2.92-.59,4.74-.59,1.95,0,3.44.16,4.45.49,1.01.33,1.68.65,2,.98.26.26.45.57.56.93.11.36.17.9.17,1.62v1.27c0,.33-.02.67-.05,1.03-.07.62-.27,1.08-.61,1.37-.34.29-.79.44-1.35.44s-.99-.15-1.3-.44-.58-.75-.81-1.37l-.49-1.42c-.29-.07-.62-.15-.98-.25-.29-.07-.65-.13-1.05-.2-.41-.06-.86-.1-1.35-.1-1.37,0-2.29.2-2.74.59-.46.39-.69.92-.69,1.57s.31,1.18.93,1.59c.62.41,1.4.78,2.33,1.1.93.33,1.94.68,3.04,1.05,1.09.38,2.11.87,3.04,1.47.93.6,1.71,1.37,2.33,2.3.62.93.93,2.13.93,3.6,0,1.08-.23,2.09-.68,3.04s-1.14,1.77-2.05,2.47c-.91.7-2.08,1.27-3.49,1.69-1.42.42-3.07.64-4.96.64-2.09,0-3.67-.18-4.74-.54s-1.78-.7-2.1-1.03c-.26-.26-.45-.57-.56-.93-.11-.36-.17-.9-.17-1.62v-1.37c0-.33.02-.67.05-1.03.06-.62.27-1.08.61-1.37s.79-.44,1.35-.44.99.15,1.3.44c.31.29.58.75.81,1.37l.54,1.52Z"/><path class="cls-1" d="m156.06,147.14h-1.67c-1.5,0-2.25-.65-2.25-1.96,0-.78.24-1.41.71-1.89s1.15-.71,2.03-.71h1.32l.88-3.48c.26-1.08.64-1.86,1.15-2.35.51-.49,1.23-.73,2.18-.73.75,0,1.32.19,1.71.56.39.38.59.92.59,1.64v4.36h4.21c1.47,0,2.21.65,2.21,1.96,0,.82-.23,1.45-.69,1.91-.46.46-1.14.69-2.06.69h-3.67v11.12c0,1.57.23,2.66.69,3.28.46.62,1.11.93,1.96.93.62,0,1.11-.05,1.47-.15.36-.1.72-.15,1.08-.15.46,0,.82.14,1.08.42.26.28.39.68.39,1.2,0,.36-.07.69-.22,1-.15.31-.35.6-.61.86-.29.29-.89.64-1.79,1.03s-2.16.59-3.8.59c-2.52,0-4.3-.68-5.34-2.03-1.05-1.36-1.57-3.21-1.57-5.56v-12.54Z"/><path class="cls-1" d="m187.42,147.49l-2.25-.49c-.65-.16-1.12-.39-1.4-.69-.28-.29-.42-.72-.42-1.27,0-.59.14-1.04.42-1.35.28-.31.74-.56,1.4-.76.69-.2,1.47-.36,2.35-.49.88-.13,1.8-.2,2.74-.2,1.47,0,2.47.27,3.01.81s.81,1.54.81,3.01v16.22l2.01.59c.62.16,1.05.39,1.3.69s.37.69.37,1.18c0,.65-.22,1.19-.66,1.62-.44.42-1.04.64-1.79.64h-9.46c-.75,0-1.34-.2-1.76-.59-.42-.39-.64-.88-.64-1.47,0-.56.13-.97.39-1.25.26-.28.75-.53,1.47-.76l2.11-.64v-14.8Zm-.88-11.51c0-1.18.39-2.16,1.18-2.94s1.76-1.18,2.94-1.18,2.14.38,2.89,1.13c.75.75,1.13,1.71,1.13,2.89s-.39,2.16-1.18,2.94-1.76,1.18-2.94,1.18-2.14-.38-2.89-1.13c-.75-.75-1.13-1.71-1.13-2.89Z"/><path class="cls-1" d="m203.44,147.49l-2.25-.49c-.65-.16-1.12-.39-1.4-.69-.28-.29-.42-.72-.42-1.27,0-.59.14-1.04.42-1.35.28-.31.74-.56,1.4-.76.69-.2,1.47-.36,2.35-.49.88-.13,1.73-.2,2.55-.2,1.24,0,2.11.25,2.6.74s.74,1.31.74,2.45v.64l.1.05c.39-.75.93-1.42,1.62-2.01.59-.49,1.36-.95,2.33-1.37.96-.42,2.18-.64,3.65-.64,2.84,0,5.03.79,6.57,2.38,1.54,1.58,2.3,3.93,2.3,7.03v10.78l1.86.59c.69.23,1.16.49,1.42.78.26.29.39.72.39,1.27,0,.59-.21,1.08-.64,1.47-.42.39-1.01.59-1.76.59h-9.11c-.75,0-1.34-.2-1.76-.59-.43-.39-.64-.88-.64-1.47,0-.56.13-.98.39-1.27.26-.29.73-.55,1.42-.78l1.76-.59v-9.21c0-2.19-.39-3.73-1.18-4.63-.78-.9-1.93-1.35-3.43-1.35-.75,0-1.41.12-1.99.37s-1.05.51-1.45.81c-.46.36-.85.73-1.18,1.13v12.89l1.76.59c.69.23,1.16.49,1.42.78.26.29.39.72.39,1.27,0,.59-.21,1.08-.64,1.47-.42.39-1.01.59-1.76.59h-9.41c-.75,0-1.34-.2-1.76-.59-.42-.39-.64-.88-.64-1.47,0-.56.13-.97.39-1.25.26-.28.75-.53,1.47-.76l2.11-.64v-14.8Z"/><path class="cls-1" d="m238.77,155.87c.23,2.22.96,3.91,2.18,5.07,1.22,1.16,2.95,1.74,5.17,1.74.75,0,1.4-.05,1.94-.15s1.01-.2,1.42-.29.77-.2,1.08-.29.61-.15.91-.15c.52,0,.93.16,1.22.47s.44.74.44,1.3c0,.33-.06.62-.17.88-.12.26-.3.52-.56.78-.56.56-1.51,1.08-2.87,1.57-1.36.49-3.11.74-5.27.74-1.93,0-3.65-.27-5.17-.81-1.52-.54-2.79-1.32-3.82-2.35-1.03-1.03-1.81-2.29-2.35-3.8-.54-1.5-.81-3.22-.81-5.15,0-2.09.3-3.96.91-5.61.6-1.65,1.45-3.04,2.52-4.19,1.08-1.14,2.37-2.02,3.87-2.65,1.5-.62,3.17-.93,5-.93,3.07,0,5.46.87,7.18,2.6s2.57,4.23,2.57,7.5c0,1.24-.29,2.17-.88,2.79-.59.62-1.42.93-2.5.93h-12Zm8.87-3.77c-.07-1.93-.47-3.31-1.2-4.16-.74-.85-1.69-1.27-2.87-1.27-1.27,0-2.32.47-3.14,1.42-.82.95-1.34,2.29-1.57,4.02h8.77Z"/><path class="cls-1" d="m274.69,168.21c0-.65.03-1.34.1-2.06.06-.72.15-1.4.25-2.06l-.1-.05c-.42.65-.96,1.23-1.62,1.72-.56.46-1.3.86-2.23,1.2-.93.34-2.07.51-3.41.51-2.88,0-5.18-.96-6.91-2.87-1.73-1.91-2.6-4.86-2.6-8.84,0-2.16.31-4.08.93-5.78.62-1.7,1.52-3.14,2.7-4.31,1.18-1.18,2.62-2.07,4.34-2.69,1.71-.62,3.67-.93,5.86-.93,1.67,0,3.13.13,4.38.39s2.25.59,2.96.98c.69.36,1.19.77,1.52,1.23.33.46.49,1.11.49,1.96v26.9l1.86.59c.69.23,1.16.49,1.42.78.26.29.39.72.39,1.27,0,.59-.21,1.08-.64,1.47-.42.39-1.01.59-1.76.59h-9.51c-.75,0-1.34-.2-1.76-.59-.42-.39-.64-.88-.64-1.47,0-.56.13-.97.39-1.25.26-.28.75-.53,1.47-.76l2.11-.64v-5.29Zm0-20.53c-.26-.16-.57-.31-.93-.44-.33-.13-.72-.25-1.18-.34-.46-.1-.98-.15-1.57-.15-1.86,0-3.32.63-4.39,1.89-1.06,1.26-1.59,3.37-1.59,6.35,0,2.68.48,4.6,1.45,5.76.96,1.16,2.16,1.74,3.6,1.74.75,0,1.41-.11,1.98-.34.57-.23,1.05-.49,1.45-.78.46-.36.85-.75,1.18-1.18v-12.5Z"/><path class="cls-1" d="m289,147.49l-1.96-.44c-.65-.16-1.12-.4-1.4-.71-.28-.31-.42-.74-.42-1.3,0-.59.14-1.04.42-1.35.28-.31.74-.56,1.4-.76.59-.16,1.33-.32,2.23-.47.9-.15,1.76-.22,2.57-.22,1.47,0,2.47.27,3.01.81s.81,1.54.81,3.01v10.68c0,2.12.38,3.61,1.13,4.46.75.85,1.86,1.27,3.33,1.27.75,0,1.42-.11,2.01-.34s1.08-.49,1.47-.78c.46-.36.85-.75,1.18-1.18v-12.69l-2.25-.49c-.65-.16-1.12-.39-1.4-.69-.28-.29-.42-.72-.42-1.27,0-.59.14-1.04.42-1.35.28-.31.74-.56,1.4-.76.69-.2,1.47-.36,2.35-.49.88-.13,1.8-.2,2.74-.2,1.47,0,2.47.27,3.01.81s.81,1.54.81,3.01v16.12l2.01.34c.65.13,1.11.34,1.37.64.26.29.39.72.39,1.27s-.15.99-.44,1.3c-.29.31-.75.58-1.37.81-.65.23-1.37.42-2.16.56-.78.15-1.62.22-2.5.22-1.14,0-1.98-.27-2.5-.81-.52-.54-.78-1.33-.78-2.38v-.64l-.1-.05c-.39.75-.93,1.42-1.62,2.01-.59.52-1.37.99-2.35,1.4-.98.41-2.2.61-3.67.61-2.81,0-4.97-.77-6.47-2.3-1.5-1.53-2.25-3.82-2.25-6.86v-10.83Z"/><path class="cls-1" d="m332.41,152.14c0-1.96-.34-3.32-1.03-4.07-.69-.75-1.88-1.13-3.58-1.13-.95,0-1.77.06-2.47.17s-1.32.24-1.84.37c-.52.13-.97.25-1.35.37-.38.12-.71.17-1,.17-.56,0-1.01-.18-1.37-.54s-.54-.83-.54-1.42c0-.52.21-1,.64-1.42.29-.29.73-.59,1.32-.88.59-.29,1.3-.56,2.13-.81s1.76-.45,2.79-.61c1.03-.16,2.13-.24,3.31-.24,3.5,0,5.98.68,7.45,2.03s2.21,3.49,2.21,6.39c0,1.93-.02,3.8-.05,5.61-.03,1.81.03,3.85.2,6.1l1.86.29c.65.1,1.11.3,1.37.61.26.31.39.74.39,1.3s-.15.99-.44,1.3-.75.58-1.37.81c-.65.23-1.37.42-2.16.56-.78.15-1.65.22-2.6.22-1.14,0-1.98-.27-2.5-.81-.52-.54-.78-1.33-.78-2.38v-.25l-.1-.05c-.39.69-.92,1.29-1.57,1.81-.56.46-1.29.88-2.21,1.25-.92.38-2.04.56-3.38.56-1.18,0-2.25-.19-3.23-.56-.98-.38-1.82-.88-2.52-1.52-.7-.64-1.24-1.4-1.62-2.28s-.56-1.81-.56-2.79.22-1.89.66-2.74c.44-.85,1.11-1.58,2.01-2.18.9-.6,2.04-1.08,3.43-1.42,1.39-.34,3.03-.51,4.92-.51.52,0,1,.02,1.42.05.42.03.8.07,1.13.1.36.03.7.07,1.03.1v-1.57Zm-.05,5.34c-.23-.03-.49-.08-.79-.15-.26-.03-.58-.06-.96-.1-.38-.03-.8-.05-1.26-.05-1.68,0-2.88.23-3.6.69-.72.46-1.08,1.08-1.08,1.86s.3,1.45.91,2.01c.61.56,1.44.83,2.49.83.69,0,1.3-.09,1.82-.27.53-.18.97-.38,1.33-.61.43-.26.8-.55,1.13-.88v-3.33Z"/><path class="cls-1" d="m347.55,136.66l-1.96-.44c-.65-.16-1.12-.4-1.4-.71s-.42-.74-.42-1.3c0-.59.14-1.04.42-1.35.28-.31.74-.56,1.4-.76.59-.16,1.33-.32,2.23-.47s1.76-.22,2.57-.22c1.47,0,2.47.27,3.01.81.54.54.81,1.54.81,3.01v27.05l1.86.59c.69.23,1.16.49,1.42.78s.39.72.39,1.27c0,.59-.21,1.08-.64,1.47-.42.39-1.01.59-1.76.59h-9.21c-.75,0-1.34-.2-1.76-.59-.43-.39-.64-.88-.64-1.47,0-.56.12-.98.37-1.27.24-.29.68-.54,1.3-.74l2.01-.64v-25.63Z"/><path class="cls-1" d="m363.58,147.49l-2.25-.49c-.65-.16-1.12-.39-1.4-.69-.28-.29-.42-.72-.42-1.27,0-.59.14-1.04.42-1.35.28-.31.74-.56,1.4-.76.69-.2,1.47-.36,2.35-.49.88-.13,1.8-.2,2.74-.2,1.47,0,2.47.27,3.01.81s.81,1.54.81,3.01v16.22l2.01.59c.62.16,1.05.39,1.3.69s.37.69.37,1.18c0,.65-.22,1.19-.66,1.62-.44.42-1.04.64-1.79.64h-9.46c-.75,0-1.34-.2-1.76-.59-.42-.39-.64-.88-.64-1.47,0-.56.13-.97.39-1.25.26-.28.75-.53,1.47-.76l2.11-.64v-14.8Zm-.88-11.51c0-1.18.39-2.16,1.18-2.94s1.76-1.18,2.94-1.18,2.14.38,2.89,1.13c.75.75,1.13,1.71,1.13,2.89s-.39,2.16-1.18,2.94-1.76,1.18-2.94,1.18-2.14-.38-2.89-1.13c-.75-.75-1.13-1.71-1.13-2.89Z"/><path class="cls-1" d="m378.72,147.14h-1.67c-1.5,0-2.25-.65-2.25-1.96,0-.78.24-1.41.71-1.89s1.15-.71,2.03-.71h1.32l.88-3.48c.26-1.08.64-1.86,1.15-2.35.51-.49,1.23-.73,2.18-.73.75,0,1.32.19,1.71.56.39.38.59.92.59,1.64v4.36h4.21c1.47,0,2.21.65,2.21,1.96,0,.82-.23,1.45-.69,1.91-.46.46-1.14.69-2.06.69h-3.67v11.12c0,1.57.23,2.66.69,3.28.46.62,1.11.93,1.96.93.62,0,1.11-.05,1.47-.15.36-.1.72-.15,1.08-.15.46,0,.82.14,1.08.42.26.28.39.68.39,1.2,0,.36-.07.69-.22,1-.15.31-.35.6-.61.86-.29.29-.89.64-1.79,1.03s-2.16.59-3.8.59c-2.52,0-4.3-.68-5.34-2.03-1.05-1.36-1.57-3.21-1.57-5.56v-12.54Z"/><path class="cls-1" d="m395.79,147.29l-.83-.34c-.75-.29-1.27-.65-1.57-1.08-.29-.42-.44-.93-.44-1.52,0-.52.18-.95.54-1.27.36-.33.88-.49,1.57-.49h8.43c.69,0,1.21.16,1.57.49.36.33.54.75.54,1.27,0,.56-.15,1.01-.44,1.37s-.83.72-1.62,1.08l-.83.39,3.58,9.46c.23.62.42,1.2.59,1.74s.33,1.02.49,1.45c.13.49.28.95.44,1.37h.1c.13-.42.26-.88.39-1.37.13-.42.29-.91.46-1.47.18-.55.4-1.16.66-1.81l3.53-9.36-.83-.39c-.78-.36-1.32-.72-1.62-1.08-.29-.36-.44-.82-.44-1.37,0-.52.18-.95.54-1.27.36-.33.88-.49,1.57-.49h7.15c.69,0,1.21.16,1.57.49.36.33.54.75.54,1.27,0,.59-.15,1.09-.44,1.52-.29.42-.82.78-1.57,1.08l-.83.34-6.76,16.56c-1.24,3.07-2.47,5.56-3.7,7.47-1.22,1.91-2.43,3.4-3.63,4.46-1.19,1.06-2.37,1.78-3.53,2.16-1.16.38-2.29.56-3.41.56-1.44,0-2.54-.3-3.31-.91s-1.15-1.45-1.15-2.52c0-.95.24-1.69.71-2.23.47-.54,1.04-.81,1.69-.81.36,0,.67.02.93.07.26.05.52.11.78.2.26.08.55.15.88.2.33.05.74.07,1.22.07.59,0,1.12-.09,1.59-.27s.91-.44,1.32-.78c.41-.34.78-.78,1.13-1.3.34-.52.68-1.14,1-1.86l-8.58-21.07Z"/><path class="cls-1" d="m439.33,147.49l-2.25-.49c-.65-.16-1.12-.39-1.4-.69-.28-.29-.42-.72-.42-1.27,0-.59.14-1.04.42-1.35.28-.31.74-.56,1.4-.76.69-.2,1.47-.36,2.35-.49.88-.13,1.8-.2,2.74-.2,1.47,0,2.47.27,3.01.81s.81,1.54.81,3.01v16.22l2.01.59c.62.16,1.05.39,1.3.69s.37.69.37,1.18c0,.65-.22,1.19-.66,1.62-.44.42-1.04.64-1.79.64h-9.46c-.75,0-1.34-.2-1.76-.59-.42-.39-.64-.88-.64-1.47,0-.56.13-.97.39-1.25.26-.28.75-.53,1.47-.76l2.11-.64v-14.8Zm-.88-11.51c0-1.18.39-2.16,1.18-2.94s1.76-1.18,2.94-1.18,2.14.38,2.89,1.13c.75.75,1.13,1.71,1.13,2.89s-.39,2.16-1.18,2.94-1.76,1.18-2.94,1.18-2.14-.38-2.89-1.13c-.75-.75-1.13-1.71-1.13-2.89Z"/><path class="cls-1" d="m455.35,147.49l-2.25-.49c-.65-.16-1.12-.39-1.4-.69-.28-.29-.42-.72-.42-1.27,0-.59.14-1.04.42-1.35.28-.31.74-.56,1.4-.76.69-.2,1.47-.36,2.35-.49.88-.13,1.73-.2,2.55-.2,1.24,0,2.11.25,2.6.74s.74,1.31.74,2.45v.64l.1.05c.39-.75.93-1.42,1.62-2.01.59-.49,1.36-.95,2.33-1.37.96-.42,2.18-.64,3.65-.64,2.84,0,5.03.79,6.57,2.38,1.54,1.58,2.3,3.93,2.3,7.03v10.78l1.86.59c.69.23,1.16.49,1.42.78.26.29.39.72.39,1.27,0,.59-.21,1.08-.64,1.47-.42.39-1.01.59-1.76.59h-9.11c-.75,0-1.34-.2-1.76-.59-.43-.39-.64-.88-.64-1.47,0-.56.13-.98.39-1.27.26-.29.73-.55,1.42-.78l1.76-.59v-9.21c0-2.19-.39-3.73-1.18-4.63-.78-.9-1.93-1.35-3.43-1.35-.75,0-1.41.12-1.99.37s-1.05.51-1.45.81c-.46.36-.85.73-1.18,1.13v12.89l1.76.59c.69.23,1.16.49,1.42.78.26.29.39.72.39,1.27,0,.59-.21,1.08-.64,1.47-.42.39-1.01.59-1.76.59h-9.41c-.75,0-1.34-.2-1.76-.59-.42-.39-.64-.88-.64-1.47,0-.56.13-.97.39-1.25.26-.28.75-.53,1.47-.76l2.11-.64v-14.8Z"/><path class="cls-1" d="m497.81,147.29l-.83-.34c-.75-.29-1.27-.65-1.57-1.08-.29-.42-.44-.93-.44-1.52,0-.52.18-.95.54-1.27.36-.33.88-.49,1.57-.49h8.43c.69,0,1.21.16,1.57.49.36.33.54.75.54,1.27,0,.56-.15,1.01-.44,1.37s-.83.72-1.62,1.08l-.83.39,3.58,9.46c.23.62.42,1.2.59,1.74s.33,1.02.49,1.45c.13.49.28.95.44,1.37h.1c.13-.42.26-.88.39-1.37.13-.42.29-.91.46-1.47.18-.55.4-1.16.66-1.81l3.53-9.36-.83-.39c-.78-.36-1.32-.72-1.62-1.08-.29-.36-.44-.82-.44-1.37,0-.52.18-.95.54-1.27.36-.33.88-.49,1.57-.49h7.15c.69,0,1.21.16,1.57.49.36.33.54.75.54,1.27,0,.59-.15,1.09-.44,1.52-.29.42-.82.78-1.57,1.08l-.83.34-6.76,16.56c-1.24,3.07-2.47,5.56-3.7,7.47-1.22,1.91-2.43,3.4-3.63,4.46-1.19,1.06-2.37,1.78-3.53,2.16-1.16.38-2.29.56-3.41.56-1.44,0-2.54-.3-3.31-.91s-1.15-1.45-1.15-2.52c0-.95.24-1.69.71-2.23.47-.54,1.04-.81,1.69-.81.36,0,.67.02.93.07.26.05.52.11.78.2.26.08.55.15.88.2.33.05.74.07,1.22.07.59,0,1.12-.09,1.59-.27s.91-.44,1.32-.78c.41-.34.78-.78,1.13-1.3.34-.52.68-1.14,1-1.86l-8.58-21.07Z"/><path class="cls-1" d="m524.54,155.47c0-2.03.32-3.86.96-5.51.64-1.65,1.54-3.06,2.7-4.24,1.16-1.18,2.55-2.08,4.17-2.72s3.41-.96,5.37-.96c3.69,0,6.58,1.05,8.67,3.16,2.09,2.11,3.14,5.07,3.14,8.89,0,2.03-.3,3.86-.91,5.51-.61,1.65-1.48,3.06-2.62,4.24s-2.53,2.08-4.17,2.72c-1.63.64-3.46.96-5.49.96-3.69,0-6.58-1.05-8.67-3.16-2.09-2.11-3.14-5.07-3.14-8.89Zm6.86-.78c0,1.37.15,2.57.46,3.6.31,1.03.72,1.88,1.23,2.55.51.67,1.11,1.17,1.81,1.49.7.33,1.45.49,2.23.49,1.57,0,2.88-.63,3.94-1.89,1.06-1.26,1.59-3.27,1.59-6.05,0-1.37-.16-2.57-.47-3.6-.31-1.03-.72-1.88-1.22-2.55-.51-.67-1.11-1.17-1.81-1.49-.7-.33-1.45-.49-2.23-.49-1.57,0-2.88.63-3.95,1.89-1.06,1.26-1.59,3.28-1.59,6.05Z"/><path class="cls-1" d="m555.65,147.49l-1.96-.44c-.65-.16-1.12-.4-1.4-.71-.28-.31-.42-.74-.42-1.3,0-.59.14-1.04.42-1.35.28-.31.74-.56,1.4-.76.59-.16,1.33-.32,2.23-.47.9-.15,1.76-.22,2.57-.22,1.47,0,2.47.27,3.01.81s.81,1.54.81,3.01v10.68c0,2.12.38,3.61,1.13,4.46.75.85,1.86,1.27,3.33,1.27.75,0,1.42-.11,2.01-.34s1.08-.49,1.47-.78c.46-.36.85-.75,1.18-1.18v-12.69l-2.25-.49c-.65-.16-1.12-.39-1.4-.69-.28-.29-.42-.72-.42-1.27,0-.59.14-1.04.42-1.35.28-.31.74-.56,1.4-.76.69-.2,1.47-.36,2.35-.49.88-.13,1.8-.2,2.74-.2,1.47,0,2.47.27,3.01.81s.81,1.54.81,3.01v16.12l2.01.34c.65.13,1.11.34,1.37.64.26.29.39.72.39,1.27s-.15.99-.44,1.3c-.29.31-.75.58-1.37.81-.65.23-1.37.42-2.16.56-.78.15-1.62.22-2.5.22-1.14,0-1.98-.27-2.5-.81-.52-.54-.78-1.33-.78-2.38v-.64l-.1-.05c-.39.75-.93,1.42-1.62,2.01-.59.52-1.37.99-2.35,1.4-.98.41-2.2.61-3.67.61-2.81,0-4.97-.77-6.47-2.3-1.5-1.53-2.25-3.82-2.25-6.86v-10.83Z"/><path class="cls-1" d="m587.45,147.49l-2.25-.49c-.65-.16-1.12-.39-1.4-.69-.28-.29-.42-.72-.42-1.27,0-.59.14-1.04.42-1.35.28-.31.74-.56,1.4-.76.69-.2,1.47-.36,2.35-.49.88-.13,1.73-.2,2.55-.2,1.24,0,2.11.25,2.6.74s.74,1.31.74,2.45v1.37l.1.05c.33-.75.72-1.43,1.18-2.03.46-.6.97-1.12,1.54-1.54.57-.42,1.18-.75,1.81-.98.64-.23,1.31-.34,2.03-.34.85,0,1.5.23,1.96.69s.69,1.11.69,1.96c0,.72-.07,1.35-.22,1.89-.15.54-.34.99-.59,1.35-.25.36-.51.63-.81.81-.29.18-.59.27-.88.27-.23,0-.43-.03-.61-.1-.18-.07-.35-.13-.51-.2-.16-.07-.33-.13-.51-.2-.18-.06-.4-.1-.66-.1-.69,0-1.36.15-2.01.44-.65.29-1.26.8-1.81,1.52v12l2.35.64c.72.2,1.21.44,1.47.74.26.29.39.72.39,1.27,0,.59-.21,1.08-.64,1.47-.42.39-1.01.59-1.76.59h-10.05c-.75,0-1.34-.2-1.76-.59-.42-.39-.64-.88-.64-1.47,0-.56.13-.97.39-1.25.26-.28.75-.53,1.47-.76l2.11-.64v-14.8Z"/><path class="cls-1" d="m3.26,210.29l-.83-.34c-.75-.29-1.27-.65-1.57-1.08-.29-.42-.44-.93-.44-1.52,0-.52.18-.95.54-1.27.36-.33.88-.49,1.57-.49h8.43c.69,0,1.21.16,1.57.49.36.33.54.75.54,1.27,0,.56-.15,1.01-.44,1.37s-.83.72-1.62,1.08l-.83.39,3.58,9.46c.23.62.42,1.2.59,1.74s.33,1.02.49,1.45c.13.49.28.95.44,1.37h.1c.13-.42.26-.88.39-1.37.13-.42.29-.91.46-1.47.18-.55.4-1.16.66-1.81l3.53-9.36-.83-.39c-.78-.36-1.32-.72-1.62-1.08-.29-.36-.44-.82-.44-1.37,0-.52.18-.95.54-1.27.36-.33.88-.49,1.57-.49h7.15c.69,0,1.21.16,1.57.49.36.33.54.75.54,1.27,0,.59-.15,1.09-.44,1.52-.29.42-.82.78-1.57,1.08l-.83.34-6.52,15.92c-.33.78-.65,1.43-.96,1.94-.31.51-.65.92-1,1.23s-.78.53-1.25.66c-.47.13-1.04.2-1.69.2s-1.22-.07-1.69-.2-.89-.35-1.25-.66c-.36-.31-.69-.72-1-1.23-.31-.51-.63-1.15-.96-1.94l-6.47-15.92Z"/><path class="cls-1" d="m34.3,210.49l-2.25-.49c-.65-.16-1.12-.39-1.4-.69-.28-.29-.42-.72-.42-1.27,0-.59.14-1.04.42-1.35.28-.31.74-.56,1.4-.76.69-.2,1.47-.36,2.35-.49.88-.13,1.8-.2,2.74-.2,1.47,0,2.47.27,3.01.81s.81,1.54.81,3.01v16.22l2.01.59c.62.16,1.05.39,1.3.69s.37.69.37,1.18c0,.65-.22,1.19-.66,1.62-.44.42-1.04.64-1.79.64h-9.46c-.75,0-1.34-.2-1.76-.59-.42-.39-.64-.88-.64-1.47,0-.56.13-.97.39-1.25.26-.28.75-.53,1.47-.76l2.11-.64v-14.8Zm-.88-11.51c0-1.18.39-2.16,1.18-2.94s1.76-1.18,2.94-1.18,2.14.38,2.89,1.13c.75.75,1.13,1.71,1.13,2.89s-.39,2.16-1.18,2.94-1.76,1.18-2.94,1.18-2.14-.38-2.89-1.13c-.75-.75-1.13-1.71-1.13-2.89Z"/><path class="cls-1" d="m61.44,209.99c-.13-.03-.26-.06-.39-.1-.13-.03-.29-.06-.49-.1-.19-.03-.42-.05-.68-.05-1.62,0-2.99.66-4.11,1.98-1.12,1.32-1.68,3.4-1.68,6.23,0,2.64.58,4.58,1.73,5.84,1.15,1.25,2.76,1.88,4.81,1.88.58,0,1.09-.04,1.51-.12.42-.08.8-.16,1.15-.25.34-.08.65-.16.93-.25.28-.08.53-.12.76-.12.52,0,.93.16,1.22.47.29.31.44.74.44,1.3,0,.62-.25,1.18-.74,1.67-.26.26-.61.52-1.05.78-.44.26-.96.49-1.57.69-.61.2-1.28.36-2.03.49-.75.13-1.57.2-2.45.2-3.59,0-6.42-1.04-8.48-3.11-2.06-2.07-3.09-4.96-3.09-8.65,0-2.06.33-3.94.98-5.64.65-1.7,1.56-3.14,2.72-4.34s2.55-2.12,4.17-2.77,3.41-.98,5.37-.98c1.5,0,2.66.14,3.48.42.82.28,1.44.63,1.86,1.05.26.26.45.6.56,1.03.11.43.17,1.19.17,2.3v1.62c0,.33-.02.85-.05,1.57-.03.69-.22,1.18-.56,1.49-.34.31-.79.47-1.35.47s-1-.16-1.32-.49c-.33-.32-.61-.81-.83-1.46l-.98-3.06Z"/><path class="cls-1" d="m73.65,210.49l-2.25-.49c-.65-.16-1.12-.39-1.4-.69-.28-.29-.42-.72-.42-1.27,0-.59.14-1.04.42-1.35.28-.31.74-.56,1.4-.76.69-.2,1.47-.36,2.35-.49.88-.13,1.8-.2,2.74-.2,1.47,0,2.47.27,3.01.81s.81,1.54.81,3.01v16.22l2.01.59c.62.16,1.05.39,1.3.69s.37.69.37,1.18c0,.65-.22,1.19-.66,1.62-.44.42-1.04.64-1.79.64h-9.46c-.75,0-1.34-.2-1.76-.59-.42-.39-.64-.88-.64-1.47,0-.56.13-.97.39-1.25.26-.28.75-.53,1.47-.76l2.11-.64v-14.8Zm-.88-11.51c0-1.18.39-2.16,1.18-2.94s1.76-1.18,2.94-1.18,2.14.38,2.89,1.13c.75.75,1.13,1.71,1.13,2.89s-.39,2.16-1.18,2.94-1.76,1.18-2.94,1.18-2.14-.38-2.89-1.13c-.75-.75-1.13-1.71-1.13-2.89Z"/><path class="cls-1" d="m89.67,210.49l-2.25-.49c-.65-.16-1.12-.39-1.4-.69-.28-.29-.42-.72-.42-1.27,0-.59.14-1.04.42-1.35.28-.31.74-.56,1.4-.76.69-.2,1.47-.36,2.35-.49.88-.13,1.73-.2,2.55-.2,1.24,0,2.11.25,2.6.74s.74,1.31.74,2.45v.64l.1.05c.39-.75.93-1.42,1.62-2.01.59-.49,1.36-.95,2.33-1.37.96-.42,2.18-.64,3.65-.64,2.84,0,5.03.79,6.57,2.38,1.54,1.58,2.3,3.93,2.3,7.03v10.78l1.86.59c.69.23,1.16.49,1.42.78.26.29.39.72.39,1.27,0,.59-.21,1.08-.64,1.47-.42.39-1.01.59-1.76.59h-9.11c-.75,0-1.34-.2-1.76-.59-.43-.39-.64-.88-.64-1.47,0-.56.13-.98.39-1.27.26-.29.73-.55,1.42-.78l1.76-.59v-9.21c0-2.19-.39-3.73-1.18-4.63-.78-.9-1.93-1.35-3.43-1.35-.75,0-1.41.12-1.99.37s-1.05.51-1.45.81c-.46.36-.85.73-1.18,1.13v12.89l1.76.59c.69.23,1.16.49,1.42.78.26.29.39.72.39,1.27,0,.59-.21,1.08-.64,1.47-.42.39-1.01.59-1.76.59h-9.41c-.75,0-1.34-.2-1.76-.59-.42-.39-.64-.88-.64-1.47,0-.56.13-.97.39-1.25.26-.28.75-.53,1.47-.76l2.11-.64v-14.8Z"/><path class="cls-1" d="m121.42,210.49l-2.25-.49c-.65-.16-1.12-.39-1.4-.69-.28-.29-.42-.72-.42-1.27,0-.59.14-1.04.42-1.35.28-.31.74-.56,1.4-.76.69-.2,1.47-.36,2.35-.49.88-.13,1.8-.2,2.74-.2,1.47,0,2.47.27,3.01.81s.81,1.54.81,3.01v16.22l2.01.59c.62.16,1.05.39,1.3.69s.37.69.37,1.18c0,.65-.22,1.19-.66,1.62-.44.42-1.04.64-1.79.64h-9.46c-.75,0-1.34-.2-1.76-.59-.42-.39-.64-.88-.64-1.47,0-.56.13-.97.39-1.25.26-.28.75-.53,1.47-.76l2.11-.64v-14.8Zm-.88-11.51c0-1.18.39-2.16,1.18-2.94s1.76-1.18,2.94-1.18,2.14.38,2.89,1.13c.75.75,1.13,1.71,1.13,2.89s-.39,2.16-1.18,2.94-1.76,1.18-2.94,1.18-2.14-.38-2.89-1.13c-.75-.75-1.13-1.71-1.13-2.89Z"/><path class="cls-1" d="m136.56,210.14h-1.67c-1.5,0-2.25-.65-2.25-1.96,0-.78.24-1.41.71-1.89s1.15-.71,2.03-.71h1.32l.88-3.48c.26-1.08.64-1.86,1.15-2.35.51-.49,1.23-.73,2.18-.73.75,0,1.32.19,1.71.56.39.38.59.92.59,1.64v4.36h4.21c1.47,0,2.21.65,2.21,1.96,0,.82-.23,1.45-.69,1.91-.46.46-1.14.69-2.06.69h-3.67v11.12c0,1.57.23,2.66.69,3.28.46.62,1.11.93,1.96.93.62,0,1.11-.05,1.47-.15.36-.1.72-.15,1.08-.15.46,0,.82.14,1.08.42.26.28.39.68.39,1.2,0,.36-.07.69-.22,1-.15.31-.35.6-.61.86-.29.29-.89.64-1.79,1.03s-2.16.59-3.8.59c-2.52,0-4.3-.68-5.34-2.03-1.05-1.36-1.57-3.21-1.57-5.56v-12.54Z"/><path class="cls-1" d="m153.64,210.29l-.83-.34c-.75-.29-1.27-.65-1.57-1.08-.29-.42-.44-.93-.44-1.52,0-.52.18-.95.54-1.27.36-.33.88-.49,1.57-.49h8.43c.69,0,1.21.16,1.57.49.36.33.54.75.54,1.27,0,.56-.15,1.01-.44,1.37s-.83.72-1.62,1.08l-.83.39,3.58,9.46c.23.62.42,1.2.59,1.74s.33,1.02.49,1.45c.13.49.28.95.44,1.37h.1c.13-.42.26-.88.39-1.37.13-.42.29-.91.46-1.47.18-.55.4-1.16.66-1.81l3.53-9.36-.83-.39c-.78-.36-1.32-.72-1.62-1.08-.29-.36-.44-.82-.44-1.37,0-.52.18-.95.54-1.27.36-.33.88-.49,1.57-.49h7.15c.69,0,1.21.16,1.57.49.36.33.54.75.54,1.27,0,.59-.15,1.09-.44,1.52-.29.42-.82.78-1.57,1.08l-.83.34-6.76,16.56c-1.24,3.07-2.47,5.56-3.7,7.47-1.22,1.91-2.43,3.4-3.63,4.46-1.19,1.06-2.37,1.78-3.53,2.16-1.16.38-2.29.56-3.41.56-1.44,0-2.54-.3-3.31-.91s-1.15-1.45-1.15-2.52c0-.95.24-1.69.71-2.23.47-.54,1.04-.81,1.69-.81.36,0,.67.02.93.07.26.05.52.11.78.2.26.08.55.15.88.2.33.05.74.07,1.22.07.59,0,1.12-.09,1.59-.27s.91-.44,1.32-.78c.41-.34.78-.78,1.13-1.3.34-.52.68-1.14,1-1.86l-8.58-21.07Z"/></svg>