<?xml version="1.0" encoding="UTF-8"?><svg id="Layer_1" xmlns="http://www.w3.org/2000/svg" viewBox="0 0 253.08 184.8"><defs><style>.cls-1{fill:#f7eeeb;}.cls-1,.cls-2,.cls-3,.cls-4,.cls-5,.cls-6,.cls-7,.cls-8{stroke-width:0px;}.cls-2{fill:#f6f6f6;}.cls-3{fill:#869ac4;}.cls-4{fill:#182a42;}.cls-5{fill:#923b25;}.cls-6{fill:#92a1c9;}.cls-7{fill:#fbdfcf;}.cls-8{fill:#f27959;}</style></defs><rect class="cls-6" x="0" y="0" width="253.08" height="184.8" rx="56.76" ry="56.76"/><path class="cls-5" d="m145.9,133.38c.24-.77-.5-.91-.87-1.13-2.42-1.41-3.33-3.86-4.22-6.24-.69-1.85-.14-3.65,1.68-4.69,1.3-.75,2.16-1.81,2.9-3.04,1.02-1.83,3.01-2.12,4.67-2.94.33-.04.72.05.86-.4,0,0-.01.01-.01.01.96.08,1.67-.53,2.48-.86,2.07-.84,4.15-1.92,6.32-2.19,2.1-.27,4.25-.37,6.37-.62,5.63-.8,11.06.05,16.56,1.44,2.56.65,5.39.53,8.03,1.24,1.06.28,2.27.33,2.82,1.54.13.28.34.4.66.38,4.25-.24,7.28,2.32,10.05,4.88,2.51,2.31,3.36,5.25,2.68,9.06-.48,2.72-1.99,3.36-3.74,4.36-1.03.59-2.21.89-3.11,1.72-.67.02-1.17.42-1.72.72-5.71,3.08-11.71,4.95-18.3,4.35-2.69-.34-5.25-1.91-8.09-.89-7.53.32-14.68-1.15-21.45-4.47-.42-.17-.84-.33-1.25-.5h0c-.35-.38-.67-.83-1.28-.44l.04.03c.22-.51-.09-.49-.44-.44h0c-.41-.6-.76-1.31-1.7-.86l.05-.02Zm11.31-12.14c-2.4-.15-2.78,2.38-4.37,3.34-.18.11-.25.8-.1.96,1.69,1.74,2.83,4.18,5.01,5.2,1.66.79,3.68,1.13,5.53,1.5,4.95.96,10,.88,15.03.6,5.65-.32,10.81-2.63,16.18-4.09,2.13-.58,1.28-2.15,1.66-3.3.41-1.23-.85-1.16-1.47-1.58-3.99-2.02-7.95-4.08-12.55-4.4-1.59-.11-3.64.07-4.62-1.03-1.53-1.73-3.1-1.16-4.77-1.01-1.04.1-2.07.42-3.1.43-4.45.04-8.51,1.43-12.43,3.38Z"/><path class="cls-8" d="m150.05,115.35c-1.66.82-3.64,1.12-4.67,2.94-3.71.92-5.75-1.48-8.24-3.64-4.67-4.05-6.91-9.3-8.68-14.92-.12-.4-.21-.88-.48-1.15-4.56-4.55-4.47-10.19-3.53-15.88,1.33-7.98,4.65-14.96,11.24-20.03,1.6-1.23,3.22-2.54,5.53-1.86.62.18,1.21-.24,1.76-.55,5.2-2.84,10.81-3.65,16.64-3.36,1.99.1,3.93.58,5.58,1.69,4.28,2.89,8.73,5.65,11.1,10.56,1.79,3.7,2.22,7.74,2.74,11.75.12.9.09,1.77.9,2.46.75.65.7,1.63.6,2.55-.7,6.46-2.47,12.56-5.7,18.24-.88,1.55-2.28,2.74-2.85,4.54-.32,1.03-1.63,1.26-2.68,1.38-1.12.13-2.22.28-3.27.72-.98-.1-2.2.3-2.59-1.13-.23-.82-.05-1.71.76-1.95,2.91-.87,4.19-3.53,6.2-5.37,3.64-1.16,2.66-4.28,3.21-7.75.89-5.56,2.37-10.61.52-15.87-.51-4.7-3.12-8.42-6.65-11.02-3.84-2.83-8.4-4.79-13.21-5.58-3.04-.5-6.19-.38-8.96,1.29-5,3-8.61,7.3-11.14,12.52-.36.74-.84,1.47-.61,2.37h0c-.51.09-.39.51-.43.85l.02-.03c-.43.34-.4.81-.38,1.28-1.14,2.65-2.07,5.49-1.61,8.29,1.19,7.29,2.75,14.52,9.96,18.65.42.35.84.7,1.27,1.04.12.09.24.17.36.26,1.51,1.22,2.98,2.48,5,2.8,3.13.48,3.13.49,3.11,3.52,0,0,.01-.01.01-.01-.43-.19-.67.06-.86.4Z"/><path class="cls-8" d="m150.48,135.61c6.77,3.32,13.92,4.79,21.45,4.47.94-.08,1.93.11,2.33.95.69,1.45,1.71,1.25,2.92,1,1.01-.21,1.93-.63,2.84-1.06,6.59.6,12.59-1.26,18.3-4.35.55-.3,1.05-.7,1.72-.72.07.56-.25.96-.64,1.25-4.87,3.61-9.97,6.57-16.17,7.44-6.21.88-12.31,1.15-18.42-.52-1.67-.46-3.47-.19-5.21-.46-4.38-.69-8.38-2.2-11.89-4.94-.71-.56-1.52-1-2.3-1.46-.89-.52-2.11-.82-2.03-2.13.09-1.54,1.59-1.27,2.53-1.7,0,0-.05.02-.05.02.34.73.9,1.02,1.7.86,0,0,0,0,0,0-.13.42.15.43.44.44,0,0-.04-.03-.04-.03.29.55.64.93,1.28.44,0,0,0,0,0,0-.33.37-.1.65.21.81.41.21.8.13,1.04-.31Z"/><path class="cls-1" d="m170.41,102.34c-2.02,1.84-3.29,4.51-6.2,5.37-.8.24-.98,1.13-.76,1.95.39,1.42,1.61,1.03,2.59,1.13,0,.17.02.34.02.5-2.12.25-4.27.35-6.37.62-2.17.28-4.25,1.35-6.32,2.19-.82.33-1.52.94-2.48.86.01-3.03.01-3.04-3.11-3.52-2.02-.31-3.5-1.57-5-2.8.81-.14,1.48.25,2.18.58,2.41,1.12,4.97,1.35,7.55.99,1.5-.21,2.93-.96,4.42-1.13,4.49-.49,8.27-2.31,11.18-5.76.67-.79,1.32-1.16,2.3-.99Z"/><path class="cls-7" d="m157.2,121.24c3.92-1.95,7.98-3.35,12.43-3.38,1.04,0,2.06-.33,3.1-.43,1.67-.15,3.24-.73,4.77,1.01.98,1.11,3.03.92,4.62,1.03,4.6.32,8.56,2.38,12.55,4.4.14,1.56-.04,2.98-1.82,3.54-4.03,1.27-7.49,3.84-12.03,4.15-5.07.34-10.04,1.33-15.04-.46-1.28-.46-2.73-.42-4.11-.59-2.43-.3-4.69-.86-5.78-3.42-.96-2.26-.43-4.19,1.3-5.85Z"/><path class="cls-1" d="m157.2,121.24c-1.73,1.66-2.26,3.58-1.3,5.85,1.09,2.56,3.35,3.12,5.78,3.42,1.38.17,2.83.13,4.11.59,5,1.79,9.97.8,15.04.46,4.54-.3,7.99-2.88,12.03-4.15,1.78-.56,1.96-1.98,1.82-3.54.62.41,1.88.35,1.47,1.58-.39,1.15.46,2.73-1.66,3.3-5.37,1.46-10.53,3.77-16.18,4.09-5.03.28-10.08.36-15.03-.6-1.86-.36-3.87-.71-5.53-1.5-2.18-1.03-3.32-3.46-5.01-5.2-.15-.16-.07-.85.1-.96,1.58-.95,1.96-3.49,4.37-3.34Z"/><path class="cls-1" d="m180.02,140.97c-.92.44-1.83.85-2.84,1.06-1.2.26-2.22.45-2.92-1-.4-.83-1.39-1.03-2.33-.95,2.84-1.02,5.4.54,8.09.88Z"/><path class="cls-2" d="m147.54,134.27c-.79.16-1.36-.13-1.7-.86.94-.46,1.29.26,1.7.86Z"/><path class="cls-2" d="m150.48,135.61c-.25.44-.64.52-1.04.31-.31-.16-.54-.43-.21-.81.42.17.84.33,1.25.5Z"/><path class="cls-2" d="m149.22,135.12c-.65.49-1,.12-1.28-.44.61-.4.94.05,1.28.44Z"/><path class="cls-1" d="m150.05,115.35c.19-.34.42-.58.86-.4-.14.45-.53.36-.86.4Z"/><path class="cls-2" d="m147.98,134.7c-.29,0-.57-.02-.44-.44.35-.05.66-.07.44.44Z"/><path class="cls-7" d="m169.47,102.19c-.96-.18-1.6.2-2.25,1-2.84,3.52-6.52,5.37-10.91,5.87-1.46.17-2.86.94-4.32,1.15-2.52.37-5.02.14-7.37-1.01-.68-.33-1.33-.73-2.13-.59-.12-.09-.23-.18-.35-.27.08-.98-.55-1.06-1.24-1.06-7.04-4.2-8.56-11.58-9.72-19-.45-2.85.45-5.75,1.57-8.44.47-.33.35-.84.37-1.31,0,0-.02.03-.02.03.37-.17.44-.5.42-.88,0,0,0,.01,0,.01,3.08-4.86,6.16-9.64,11.17-12.75,4-2.48,7.98-4.32,12.51-2.06,4.35,2.17,8.28,5.08,11.17,9.16,1.5,2.11,3.37,3.88,4.74,6.08,1.81,5.35,2.44,10.79,1.57,16.45-.54,3.53-1.66,6.42-5.22,7.61Z"/><path class="cls-1" d="m174.15,78.72c-1.4-2.16-3.32-3.89-4.86-5.97-2.96-4.01-6.99-6.87-11.45-9-4.64-2.22-8.72-.41-12.82,2.02-5.13,3.05-8.29,7.75-11.44,12.52-.23-.9.25-1.64.61-2.37,2.54-5.22,6.14-9.51,11.14-12.52,2.77-1.66,5.92-1.79,8.96-1.29,4.81.79,9.37,2.75,13.21,5.58,3.52,2.59,6.13,6.32,6.65,11.02Z"/><path class="cls-1" d="m141.16,107.34c.71,0,1.35.08,1.27,1.04-.42-.35-.84-.7-1.27-1.04Z"/><path class="cls-1" d="m133.18,79.12c-.02.46.11.96-.38,1.28-.02-.47-.06-.95.38-1.28Z"/><path class="cls-1" d="m133.59,78.29c.02.37-.05.7-.43.86.04-.34-.07-.76.43-.86Z"/><path class="cls-4" d="m174.83,108.94c2.11.77,4.25.73,6.29.81,2.9.11,5.96.31,8.45,1.36,5.94,2.5,12.21,4.68,16.72,9.7,3.67,4.08,3.49,9.41-.42,13.85-6.16,7-14.05,11.05-23.14,12.16-12.31,1.5-24.31-.15-35.64-5.56-4.67-2.23-7.58-6-9.18-10.72-.95-2.79-.23-5.72.96-8.39.77-1.72.7-2.72-1.15-3.83-2.85-1.7-4.94-4.32-6.91-6.99-6.88-9.31-9.05-19.81-7.25-31.07,2.05-12.81,12.19-22.44,25.42-25.08,10.07-2.01,18.36,1.45,25.65,7.93,3.65,3.25,4.88,7.73,5.64,12.53,1.24,7.86.38,15.49-1.32,23.13-.8,3.59-2.54,6.8-4.13,10.18Zm-42.24-21.45c-.68,8.1,8.27,20.82,17.42,21.41,2.87.19,5.58-.37,8.29-1,8.13-1.9,12.89-7.42,13.61-15.71.13-1.53.25-3.06.42-4.59.74-6.52-.19-12.44-5.75-16.81-1.93-1.52-3.68-3.25-5.62-4.75-2.87-2.21-6.11-2.95-9.71-2.22-10.03,2.04-18.67,12.97-18.67,23.67Zm37.84-17.41c2.3,2.17,3.72,4.81,4.44,7.94.84,3.68.62,7.38.71,11.08.13,5.15-1.11,9.82-4.23,13.98-1.43,1.9-3.09,3.58-4.88,5.11,3.66,1.47,5.54.13,6.87-3.31,1.29-3.34,2.59-6.62,3.33-10.14,1.45-6.94,1.95-13.86.26-20.84-.93-3.83-2.34-7.37-5.65-9.77-6.7-4.86-13.84-7.66-22.41-5.65-11.41,2.67-20.09,10.87-22.06,21.95-2.01,11.3.6,21.56,7.84,30.55,1.73,2.14,3.66,4.07,6.05,5.48.45.26.84.82,1.49.41,2.38-1.51,4.75-3.02,7.29-4.63-10.5-2.22-16.25-9.2-19.23-18.46-4.19-13.02,5.86-28.89,18.24-32.61,5.73-1.72,10.96-.85,15.52,3.16m4.03,47.31c-9.28.65-16.81,2.63-23.51,7.58-3.31,2.45-3.78,7.78-.94,10.82,3.34,3.57,7.64,5.35,12.27,6.51.31.08.94.07.94.06.12-1.39,1.47-2.29,1.53-3.61.05-1.18-1.29-1.09-2.02-1.5-5.5-3.12-5.61-8.88-.17-12.13,1.39-.83,2.87-1.5,4.46-1.83,7.85-1.63,15.69-2.22,23.46.41,2.42.82,2.05-1.44,2.64-2.51.83-1.5-.51-1.54-1.42-1.76-5.82-1.45-11.81-1.35-17.24-2.04Zm-4.96,26.41c.67.16,1.21.34,1.76.41,10.45,1.36,20.68.6,30.56-3.3,3.27-1.29,6.39-2.9,8.84-5.51,1.94-2.06,2.01-3.48.34-5.78-2.23-3.05-5.45-4.75-8.74-6.36-.22-.11-.57-.21-.76-.11-.81.41-1.21,4.14-.54,4.79,2.91,2.82,2.91,5-.39,7.12-4.9,3.16-10.64,3.95-16.23,4.37-3.7.28-7.53-.16-11.3-.13-.87,0-1.38.25-1.72,1.15-.42,1.09-1.11,2.08-1.81,3.35Zm20.36-8.46c3.26-.73,5.94-1.2,8.34-2.59,1.8-1.05,1.83-1.74,0-2.71-2.72-1.44-5.68-2.36-8.56-3.44-.89-.33-1.37.05-1.91.74-1.27,1.67-2.64,3.27-4,4.88-.65.77-1.51,1.21-2.39.53-.97-.75-.46-1.65.13-2.39,1-1.26,2.07-2.47,3.08-3.73.26-.32.84-.7.18-1.19-.88-.66-3.66-.32-4.42.58-1.75,2.1-3.44,4.25-5.21,6.33-.7.83-1.49,2.03-2.74.98-1.08-.91-.28-1.93.36-2.76,1.3-1.69,2.64-3.35,4.08-5.17-1.25-.15-2.31-.38-3.07.37-2.64,2.6-5.23,5.27-7.81,7.94-.81.84-.41,1.33.59,1.55.75.17,1.49.45,2.25.52,5.11.47,10.23.11,15.34.23.77.02,1.32-.38,1.79-.93,1.19-1.38,2.4-2.74,3.57-4.13.69-.81,1.4-1.92,2.55-1.04,1.21.92.42,1.99-.27,2.92-.5.66-1,1.32-1.89,2.51Zm-38.22,6.44c10.18,8.45,39.17,11.75,51.04,2.39-17.57,5.94-34.45,5.05-51.04-2.39Zm17.34-15.63c-2.63.65-4.53,1.31-6.01,2.74-.86.82-1.59,1.81-.98,3.14.26.56.52.98,1.18.26,1.77-1.94,3.6-3.81,5.82-6.13Zm29.34-3.25c.37-1.39-.46-1.99-1.25-1.8-1.74.43-1.41,2.38-2.08,3.6-.52.94.74,1.1,1.22,1.11,2.16.03,1.89-1.29,2.11-2.91Z"/><path class="cls-4" d="m169.38,85.78c-.3,2.4-.3,4.45-.93,6.4-.32.99-.82,1.96-2.06,1.58-1.3-.4-1-1.53-.74-2.48,1.3-4.69.72-9.14-1.52-13.43-.6-1.14-1.41-2.07-2.35-2.93-.72-.66-1.19-1.51-.39-2.39.82-.91,1.64-.42,2.37.24,3.97,3.58,5.19,8.31,5.62,13.01Z"/><path class="cls-4" d="m165.97,100.66c-1.18-.07-1.72-.83-1.72-1.92,0-1.13.45-2.17,1.74-2.18,1.23-.01,1.88.91,1.9,2.07.02,1.18-.57,1.98-1.92,2.03Z"/><path class="cls-3" d="m85.2,87.87c2.51-.33,4.61-1.67,6.61-3.02,3.29-2.22,6.62-3.3,10.66-2.51,3.6.7,5.88,3.64,5.18,7.24-.35,1.78-1.51,3.3-1.42,5.23.06,1.28.29,2.48.66,3.69.59,1.96,0,3.89-.2,5.83-.48,4.67.7,9.25.69,13.89,0,4.4-.17,8.81-.88,13.16-.29,1.76-.13,3.49-.22,5.23-.13,2.58-1.21,4.64-3.57,5.76-5.31,2.52-11.04,3.86-16.55,5.84-1.09.39-2.2.3-3.31-.04-4.82-1.44-9.66-2.81-14.46-4.31-4.32-1.35-5.47-3.02-5.48-7.5,0-11.08.16-22.16-.09-33.23-.1-4.5.05-9.08-1.3-13.51-.6-1.95-.58-4.03.21-5.98,1.35-3.32,5.89-4.67,8.37-2.15,1.88,1.91,4,2.25,6.32,2.59,0,0-.02-.01-.02-.01.97,1.58,2.59,1.86,4.23,2.12l-.02-.02c-.12.67.36.78.83.9.6,1.22,1.67,1.31,2.84,1.18.38,0,.79.08.96-.4l-.03.02Z"/><path class="cls-8" d="m83.86,88.25c-1.2.13-2.31.05-2.93-1.18.07-.61-.17-.96-.86-.9,0,0,.02.02.02.02-1.3-1.01-2.53-2.16-4.37-2.12,0,0,.02.01.02.01-.02-.52-.46-.74-.84-.84-2.96-.84-3.15-3.19-3.51-5.61-1.1-7.44-1.32-14.92-.7-22.39.32-3.86.38-7.69.18-11.52-.15-2.8,1.79-4.74,2.52-7.16.31-1,1.7-1.08,2.69-.84,4.02.98,7.89.1,11.79-.64,1.71-.32,3.45-.33,5.18.02,1.85.37,2.68,1.39,2.65,3.25-.17,11.4-.29,22.8-.43,34.2-.01.98.1,1.88.53,2.83,1.12,2.49.1,5.53-2.38,6.91-2.33,1.3-4.31,3.25-7.17,3.6-1.07.13-1.93.67-1.44,1.98,0,0,.03-.02.03-.02-.5-.27-.74.09-1,.4Zm-7.56-37.83s-.04,0-.06,0c0,3.08,0,6.16,0,9.24,0,.63.13,1.62.96.84.63-.6,1.6-1.22,1.62-2.34.08-5.3-.1-10.61.68-15.9.22-1.49-1.4-1.7-2.48-1.74-1.33-.05-.66,1.12-.68,1.72-.07,2.73-.03,5.46-.03,8.18Zm12.23-7.49c-1.52-.64-3.1-.86-4.72-.9-.79-.02-1.32.37-1.26,1.08.07.81.88.46,1.38.54,1.58.26,3.05-.41,4.6-.72Z"/><path class="cls-2" d="m76.39,84.07c1.78-.03,2.97,1.11,4.23,2.12-1.63-.26-3.26-.54-4.23-2.12Z"/><path class="cls-2" d="m80.6,86.18c.67-.06.9.29.83.9-.47-.12-.95-.24-.83-.9Z"/><path class="cls-2" d="m84.27,88.25c.25-.31.48-.67.96-.4-.18.48-.59.4-.96.4Z"/><path class="cls-7" d="m88.78,42.94c-1.5.31-2.92.98-4.45.72-.49-.08-1.27.27-1.34-.54-.06-.71.46-1.1,1.22-1.08,1.57.04,3.09.26,4.57.9Z"/><path class="cls-4" d="m107.83,110.14c-.13,9.86-.18,18.42.15,26.97.09,2.4-.46,4.25-2.82,5.53-6.81,3.7-13.62,7.45-21.73,6.61-7.62-.78-14.63-3.62-21.4-7.07-1.75-.89-2.05-2.53-2.13-4.27-.2-4.35-.05-8.69-.03-13.04.07-12.41.01-24.82.03-37.23,0-1.89.19-3.78.19-5.67,0-1.83,1.04-2.49,2.64-2.55,1.47-.06,2.96-.17,4.41,0,2.19.26,2.46-.82,2.25-2.6-.44-3.69-.63-7.4-.68-11.12-.12-8.62-.39-17.24.28-25.86.08-1.01.11-1.95-.8-2.87-1.15-1.18-.22-2.59,1.74-2.6,3.57-.03,7.16-.08,10.72.19,4.15.32,8.25.23,12.36-.41.83-.13,1.67-.22,2.51-.22,2.24,0,2.75.66,2.3,2.81-.1.48-.18.97-.17,1.45.13,11.71-.62,23.41-.31,35.12.03,1.26.4,2.54.25,3.76-.29,2.42.92,2.93,2.95,2.72,1.91-.2,3.77.28,5.63.54,1.42.19,2.12,1.13,1.88,2.52-.36,2.17-.28,4.35-.15,6.5.45,7.37-.23,14.72-.09,20.77Zm-2.94-25.77c-1.36,1.05-2.29,1.9-3.35,2.56-1.8,1.12-2.32,2.6-2.24,4.73.21,5.54.13,11.08.15,16.62,0,1.13-.27,2.25-1.64,2.25-1.55,0-1.35-1.25-1.35-2.32-.01-5.33-.09-10.66-.05-15.98.01-1.42-.36-1.9-1.87-1.94-7.29-.19-14.57-.51-21.86-.8-2.63-.1-2.72-.11-2.68,2.66.07,4.7.28,9.39.41,14.09.03.96.2,2.15-1.23,2.23-1.4.08-1.78-1.03-1.8-2.12-.08-5.39-.09-10.79-.09-16.18,0-.48.29-1.08-.35-1.25-1.62-.45-2.5-1.91-3.78-2.82-.54.58-.33,1.17-.33,1.69.09,10.31.22,20.62.3,30.92.03,4.56-.04,9.12-.07,13.68,0,.91-.08,1.81.89,2.41,2.44,1.51,4.81,3.1,7.73,3.67,5.55,1.1,11.1,1.54,16.72.75,1.03-.14,2.29-.22,2.51,1.22.22,1.45-.95,1.68-2.03,1.84-4.05.61-8.11.57-12.16.09-4.71-.56-9.37-1.36-13.36-4.47-.33,1.62.63,2.01,1.5,2.45,3.9,1.97,8.1,3.11,12.21,4.5,6.21,2.11,12.25,1.76,18.21-.95,1.03-.47,1.43-.89,1.31-2.14-.43-4.32-.78-8.67-.61-13.02.12-3.01.35-6.02.54-9.02.07-1.06.32-2.05,1.65-1.96,1.24.08,1.29,1.07,1.26,2.03-.01.28-.03.56-.05.84-.52,6.23-.49,12.46.05,18.69.13,1.52.58,1.59,1.78,1.03,3.43-1.61,3.89-2.25,3.58-6.37-.81-10.66-.11-21.31.12-31.97.13-5.74.15-11.47-.02-17.66Zm-10.3-44.32c-1.14.74-1.95,1.44-2.89,1.83-1.73.73-2.15,1.97-1.93,3.69.15,1.18.24,2.38.19,3.56-.04.84-.31,1.73-1.45,1.71-1.12-.02-1.35-.82-1.37-1.74-.03-1.05-.09-2.1-.06-3.15.04-1.36-.36-2.02-1.92-1.84-1.31.15-2.71.16-3.97-.16-1.67-.41-1.99.07-1.97,1.66.08,6.73.05,13.47.05,20.2,0,.95-.06,1.98-1.27,2.05-1.24.08-1.65-.87-1.77-1.93-.07-.63-.05-1.26-.05-1.89.04-6.24.02-12.48.17-18.72.04-1.93-.59-2.99-2.31-3.94-1.78-.98-1.98-.58-2.05,1.16-.47,12.2-.55,24.39.37,36.58.07.97.52,1.48,1.17,2.07,4.05,3.7,13.83,4.18,18.95.23,1.39-1.07,2.17-2.11,1.96-4-.82-7.27-.07-14.57-.05-21.85.02-5.04.57-10.08.2-15.51Zm-20.76-2.77c6.2,4.79,14.66,4.73,17.89.18-5.83,1-11.57-.24-17.89-.18Zm15.21,49.42c4.99,1.08,9.27.58,12.35-3.87-1.78-.21-3.75-1.07-5.18-.16-2.28,1.45-4.57,2.86-7.17,4.03Zm-24.4-4.08c1.96,3.49,6.61,4.98,11.52,3.69-3.58-1.91-6.66-5.47-11.52-3.69Z"/><path class="cls-4" d="m67.4,127.34c-.11-1.07.08-2.11,1.33-2.2,1.27-.09,1.52.94,1.59,2,.1,1.39.29,2.77.38,4.16.06.85-.24,1.55-1.21,1.65-1.05.11-1.55-.51-1.66-1.46-.17-1.38-.29-2.77-.44-4.16Z"/><path class="cls-4" d="m70.71,112.74c-.02,1.03-.36,1.64-1.31,1.68-1.03.03-1.48-.62-1.55-1.55-.07-.98.46-1.65,1.42-1.65.97,0,1.4.74,1.44,1.52Z"/><path class="cls-4" d="m69.07,119.03c.99.02,1.36.65,1.39,1.51.04.86-.29,1.57-1.27,1.58-.93,0-1.38-.58-1.39-1.49,0-.87.29-1.51,1.27-1.59Z"/><path class="cls-4" d="m77.5,70.7c.98.21,1.35.86,1.28,1.83-.06.84-.53,1.34-1.35,1.26-.88-.08-1.37-.73-1.36-1.59,0-.86.44-1.46,1.42-1.5Z"/><path class="cls-4" d="m88.85,59.96c-.93-.12-1.3-.71-1.26-1.6.04-.9.56-1.48,1.43-1.49.81-.02,1.3.58,1.3,1.36,0,.91-.42,1.62-1.47,1.73Z"/></svg>