<?xml version="1.0" encoding="UTF-8"?><svg id="Layer_1" xmlns="http://www.w3.org/2000/svg" viewBox="0 0 78.15 64.64"><defs><style>.cls-1{fill:#122b44;}.cls-1,.cls-2,.cls-3,.cls-4{stroke-width:0px;}.cls-2{fill:#8ea0ca;}.cls-3{fill:#ffe4d4;}.cls-4{fill:#fbfbfb;}</style></defs><path class="cls-2" d="m4.07,6.89c-.24-.83-.63-1.65-.68-2.5-.1-1.67.36-2.76,2.45-2.08,4.97,1.62,9.87,3.44,14.95,4.76,1.98.51,3.31,3.57,2.4,6.24-1.07,3.11.44,4.31,2.84,5.29,5.9,2.4,11.78,4.84,17.7,7.19,2.22.88,3.23,2.09,2.86,4.74-.32,2.29.11,4.69-.49,7.01-.21.83-.05,1.58.88,1.92,3.69,1.33,7.07,3.49,10.95,4.3,1.75.36,3.7,1.08,4.59-1.7.46-1.42,2.09-1.28,3.11-.39,3.4,2.99,6.74,6.05,10.02,9.18.75.71,1.04,1.82.5,2.9-.71,1.42-2.11.92-3.25,1.1,0,0,.01.07.01.07-.25-.07-.5-.14-.75-.21h.03c-2.53,1.16-5.16,1.3-9.26,1.75-.91.52-1.87.42-2.84.21-1.03-1.08-.93-2.27-.32-3.5.96-1.67.35-2.73-1.29-3.47-3.74-1.68-7.42-3.51-11.22-5.05-1.82-.74-3.61-1.85-5.73-1.6-1.61-1.16-2.12-2.24-.94-4.33,1.23-2.19-.5-4.28.55-6.71.41-.96.46-1.78-.3-1.88-2.45-.83-4.61-2.24-6.89-3.37-4.48-2.21-9.39-3.53-14.13-5.21-.5-.45-.95-1.01-1.52-1.33-2.04-1.14-2.87-2.75-2.19-5.05.77-1,.59-2.12.36-3.22-.13-.64.95-1.58-.4-1.9-4.03-.94-7.85-2.67-12-3.17Z"/><path class="cls-3" d="m19.82,21.55c4.73,1.69,9.65,3.01,14.13,5.21,2.28,1.12,4.44,2.54,6.89,3.37-1.09,3.98-1.43,4.01-5.54,2.32-5.21-2.14-10.15-4.96-15.64-6.42-1.48-.39-2.28-1.44-2.32-2.8-.05-1.55,1.37-1.52,2.48-1.69Z"/><path class="cls-3" d="m41.52,43.05c2.12-.26,3.91.86,5.73,1.6,3.8,1.54,7.48,3.37,11.22,5.05,1.64.74,2.25,1.79,1.29,3.47-1.84.71-3.62.18-5.28-.5-4.09-1.7-8.15-3.47-12.14-5.38-2.49-1.19-2.66-2.57-.83-4.23Z"/><path class="cls-3" d="m4.07,6.89c4.15.49,7.97,2.23,12,3.17,1.35.32.27,1.26.4,1.9.22,1.1.41,2.22-.36,3.22-4.36-.09-8.35-1.6-12.26-3.3-1.81-.79-1.62-3.22.22-4.98Z"/><path class="cls-3" d="m60.09,56.66c.97.22,1.93.31,2.84-.21,3.18-.09,6.26-.71,9.26-1.75,0,0-.03,0-.03,0,.25.07.5.14.75.21,0,0-.01-.07-.01-.07,1.51,3.06,1.15,3.77-2.29,4.5-2.46.52-4.91,1.05-7.36,1.6-1.62.36-3.44.98-4.6-.56-1.26-1.67,1.1-2.4,1.45-3.72Z"/><path class="cls-4" d="m72.91,54.91c-.25-.07-.5-.14-.75-.21.25.07.5.14.75.21Z"/><path class="cls-1" d="m55.1,62.99c-.91-1.3-.17-2.49.52-3.6,1.27-2.04,1.18-3.11-1.51-3.9-3.93-1.15-7.72-2.82-11.54-4.36-3.57-1.44-5.87-6.2-4.69-10.53.8-2.92-.19-4.06-2.75-5.01-5.33-1.98-10.57-4.21-15.85-6.32-2.47-.99-5.65-5.52-5.48-8.23.11-1.8-.48-2.66-2.23-3.15-2.77-.78-5.47-1.83-8.21-2.75C1.01,14.35-.3,12.41.06,9.91c.36-2.5.95-4.97,1.29-7.48C1.65.2,2.9-.35,4.85.19c3.62,1.01,7.23,2.08,10.85,3.11,1.51.43,3.03.87,4.56,1.24,4.3,1.05,5.4,2.78,4.56,7.2-1.08,5.65-1.68,4.24,3.54,6.46,5.47,2.33,11.1,4.3,16.66,6.4,3.42,1.29,3.88,1.89,3.7,5.63-.11,2.18-.29,4.37-.59,6.53-.16,1.17.13,1.77,1.28,2.12,3.1.93,6.19,1.91,9.25,2.95,1.57.54,1.51-.74,1.82-1.52,1.39-3.54,2.79-3.93,5.36-1.15,3.62,3.91,7.17,7.89,10.6,11.97,3.05,3.63,1.95,8.07-2.53,9.76-5.07,1.91-10.38,3-15.76,3.7-1.42.19-2.37-.33-3.03-1.62Zm17.76-9.03c1.32-.75.23-1.45-.24-1.98-2.48-2.82-5.06-5.54-7.52-8.38-1.19-1.37-1.73-1.06-2.24.47-.51,1.49-1.56,2.48-3.19,1.96-4.33-1.37-8.64-2.83-12.92-4.35-1.9-.67-2.59-2.2-2.38-4.18.26-2.35.43-4.7.75-7.04.2-1.48-.34-2.1-1.75-2.63-6.79-2.56-13.5-5.34-20.29-7.9-2.39-.9-3.41-2.18-2.64-4.76.47-1.58.64-3.26.97-4.89.23-1.15-.15-1.75-1.34-2.08-4.55-1.25-9.08-2.61-13.62-3.9-.95-.27-1.96-.9-2.37.86-.43,1.87.8,1.77,1.89,1.96,1.21.21,2.43.34,3.62.59,8.72,1.8,8.47,2.51,7.78,9.86,0,.09-.02.17-.03.26-.29,1.47.25,2.26,1.79,2.56,7.21,1.4,13.62,4.96,20.35,7.64,1.71.68,2.74,1.95,2.7,3.8-.06,2.62.02,5.3-.53,7.83-.48,2.18.48,2.79,2.11,3.37,4.37,1.54,8.75,3.08,13.09,4.7,4.51,1.69,4.75,2.22,3.73,6.9-.14.64-.58,1.65.62,1.46,3.88-.61,7.72-1.4,11.67-2.14ZM18.65,24.03c.14,1.21.65,1.71,1.46,2.02,5.6,2.18,11.18,4.4,16.79,6.57.47.18,1.13.87,1.52-.06.38-.91-.37-1.17-1.03-1.46-2.95-1.29-5.88-2.64-8.84-3.9-3.12-1.33-6.32-2.39-9.89-3.17ZM3.5,11.55c.28.13.65.35,1.04.49,2.56.87,5.12,1.74,7.7,2.55.63.2,1.54.97,1.86-.39.24-1.03.08-1.81-1.16-2.2-2.76-.87-5.63-1.2-8.45-1.74-.96-.18-1.33.16-.98,1.29Zm38.93,35.34c4.75,2.7,9.9,4.37,15.17,5.72-4.74-2.73-9.9-4.37-15.17-5.72Zm16.32,13.79c4.36-.35,8.64-1.12,12.77-2.6-4.37.3-8.68.9-12.77,2.6Z"/></svg>