<?xml version="1.0" encoding="UTF-8"?><svg id="Layer_1" xmlns="http://www.w3.org/2000/svg" viewBox="0 0 194.93 203.06"><defs><style>.cls-1{fill:#fff;}.cls-1,.cls-2,.cls-3,.cls-4{stroke:#182a42;stroke-miterlimit:10;stroke-width:1.5px;}.cls-2{fill:#ffeadc;}.cls-3{fill:#dd8b6b;}.cls-4{fill:#182a42;}.cls-5{fill:#95a1c6;stroke-width:0px;}</style></defs><path class="cls-2" d="m128.51,138.63c-.35-1.26-1.18-1.75-2.41-1.33-1.08.36-1.75,1.03-1.78,2.33-.06,2.17.32,4.19,1.3,6.15,2.07,4.11,2.8,8.42,1.82,13-.37,1.71.05,3.62-.44,5.27-1.85,6.28-4.44,12.27-9.28,16.87-5.31,5.05-11.65,7.93-19.11,8.02-1.3.02-2.6.11-3.9.16-3.06-.03-6.11-.01-9.12-.85-6.53-1.81-12.5-4.89-18.53-7.86-1.04-.51-1.41-1.49-1.98-2.39-2.59-4.08-5.25-8.12-7.94-12.14-.76-1.13-2.04-2.13-3.28-1.62-2.03.84-4.64,1.1-5.92,2.86-1.98,2.73-5,4.09-7.39,6.21-3.86,3.41-7.89,6.69-11.91,9.97-3.24-.57-3.43-.83-2.38-3.81.94-2.67,2.26-5.18,3.09-7.91,1.41-4.61,3-9.17,3.37-14.03.05-.68.28-1.47.7-1.97,1.82-2.19,2.05-4.97,3.04-7.47,1.1-2.79-.97-4.62-1.27-7.27-.1-.9-1.22-.54-1.88-1.01-4.34-3.03-8.22-6.68-11.84-10.7-1.03-1.14-3.18-1.41-3.99-2.75-1.42-2.35-2.12-5.1-4.66-6.4-2.71-1.39-3.97-3.95-4.3-6.92-.13-1.16.09-2.35-.76-3.37-2.68-3.22-3.68-7.22-4.04-11.16-.96-10.56,1.56-20.15,9.16-27.99.83-.86,1.73-1.62,2.85-2.07,4.15-1.66,8.16-3.63,12.74-4.1,1.6-.17,3,.4,4.52.26,1.36-.13,1.81-.67,1.73-2.04-.27-4.4-3.4-7.66-6.71-10.55-3.02-2.64-2.57-6.76-2.97-10.35-.69-6.14-.44-12.3,2.81-17.9,2.09-3.61,4.59-6.85,8.22-9.09,5.04-3.11,10.18-6.09,16.1-7.09,8.82-1.49,17.36-.89,25.26,3.94,4.33,2.65,8.43,5.63,12.54,8.59,2.47,1.77,4.27,4.13,4.5,7.31.14,1.89,1.52,2.93,2.61,4.07,1.09,1.13,3.67.39,4.53-1.15.86-1.54,1.69-3.11,2.23-4.82.78-2.47,1.84-4.78,3.42-6.94,1.5-2.04,2.02-4.69,3.45-6.9,2.62-4.07,6.43-6.44,10.88-7.31,7.2-1.4,14.51-1.78,21.71.35.9.27,1.82.57,2.74.66,5.88.63,10.05,4.16,14.2,7.95,3.71,3.4,6.39,7.5,9.08,11.65,0,0-.2.11-.2.11.14,1.15-.55,2.58,1.09,3.22,1.09,2.27,1.38,4.72,1.6,7.18-.07.06-.22.15-.21.18.06.15.15.29.24.43,0,.73,0,1.46.01,2.2-.81.1-1.16.53-1.34,1.35-1.78,8.27-4.11,16.36-7.72,24.05-.28.59-.91,1.25-.29,1.91.53.56,1.34.4,2.01.25.42-.09.77-.47,1.15-.72,1.02.77,2.26.83,3.45,1.03.1,1.36,1,2.21,2.1,2.62,6.18,2.28,9.73,7.19,12.85,12.56,2.85,4.9,5.57,9.97,6.86,15.45,1.95,8.27,1.43,16.62-1.68,24.63-1.49,3.83-3,7.64-5.63,10.95-1.14,1.44-2.5,2.45-3.88,3.51-.74.56-1.73.81-2.11,1.79-1.59.1-2.9.66-3.83,2.06-.64.97-1.48,1.79-2.53,2.34-.28-.19-.67-.62-.81-.54-2.34,1.19-3.85,2.96-6.1,4.19-6.04,3.31-13.15,1.58-19.22.65-3.95-.6-7.73-5.06-11.69-5.72h.1c-1.4-1.37-3-2.26-5.02-2.17l-.02.11Z"/><path class="cls-3" d="m28.65,183.27c4.01-3.27,8.05-6.56,11.91-9.97,2.39-2.12,5.41-3.48,7.39-6.21,1.28-1.76,3.89-2.03,5.92-2.86,1.24-.51,2.52.49,3.28,1.62,2.69,4.02,5.35,8.06,7.94,12.14.57.9.95,1.88,1.98,2.39,6.03,2.97,12,6.05,18.53,7.86,3.01.84,6.06.82,9.12.85.57.42,1.25.73,1.69,1.26,1.61,1.95,1.14,4.41-1.29,5.14-5.65,1.7-11.36,2.99-17.39,1.63-8.75-1.97-16.67-5.87-24.31-10.34-2.16-1.26-3.47-1.08-5.28.29-4.33,3.28-8.77,6.4-13.15,9.61-2.73,2-5.13,2.09-7.41.2-2.8-2.32-4.01-6.22-2.5-8.8,1.01-1.72,2.37-3.22,3.57-4.83Z"/><path class="cls-3" d="m171.28,142.1c1.06-.55,1.89-1.37,2.53-2.34.92-1.4,2.23-1.96,3.83-2.06,2.79,2.17,3.22,4.36.86,6.78-5.11,5.23-10.29,10.44-17.36,13.12-1.79.68-3.62,1.18-5.5,1.28-3.43.2-6.8.79-10.19,1.26-3.94.55-7.77-.12-11.59-.87-2.57-.5-4.02-2.02-4.23-4.89-.24-3.14-.52-6.33-2.33-9.15-.98-1.52-.47-3.46-.73-5.2-.18-1.22.89-1.49,1.94-1.41,0,0,.02-.11.02-.11,1.16,1.92,2.9,2.48,5.02,2.16,0,0-.1,0-.1,0-.21,1.99,1.12,2.53,2.68,2.93,3.29.85,6.58,1.74,9.85,2.64,6.06,1.68,12.03,1.62,17.93-.71,1.2-.47,2.44-1.02,3.69-1.11,1.75-.12,2.8-.99,3.66-2.34Z"/><path class="cls-3" d="m169.13,25.1s.19-.12.2-.11c.14-1.42-1.01-3.36.93-4.09,2.05-.77,2.18,1.69,3.2,2.63.73.67,1.06,1.81,1.45,2.79,1.35,3.39,2.56,6.84,3.99,10.2,2.67,6.27,2.62,12.61.64,18.99-.81,2.6-1.44,5.21-1.5,7.95-.02.81-.2,1.64-.44,2.43-.6,1.99-1.42,2.4-3.42,1.72-1.66-.56-3.19-1.55-5.04-1.43-1.19-.2-2.43-.26-3.45-1.03-.44-1.62.36-2.94.97-4.35,3.1-7.18,4.88-14.67,5.21-22.49,0-.73,0-1.46-.01-2.2.06-.21.05-.41-.03-.62-.23-2.46-.51-4.91-1.6-7.18-.22-1.12-.07-2.37-1.09-3.22Z"/><path class="cls-1" d="m171.86,38.3c-.33,7.82-2.11,15.31-5.21,22.49-.61,1.41-1.41,2.73-.97,4.35-.38.25-.73.63-1.15.72-.67.15-1.48.31-2.01-.25-.63-.66.01-1.32.29-1.91,3.61-7.68,5.94-15.78,7.72-24.05.18-.82.53-1.26,1.34-1.35Z"/><path class="cls-1" d="m133.56,140.67c-2.12.32-3.86-.24-5.02-2.16,2.02-.09,3.63.79,5.02,2.16Z"/><path class="cls-1" d="m169.13,25.1c1.02.85.87,2.09,1.09,3.22-1.64-.64-.95-2.07-1.09-3.22Z"/><path class="cls-1" d="m171.82,35.49c.08.2.09.41.03.62-.08-.14-.18-.28-.24-.43-.01-.03.14-.12.21-.18Z"/><path class="cls-4" d="m32.82,63.67c-.2-1.72-1.14-2.52-1.77-3.47-2.19-3.24-4.2-6.58-5.94-10.09-2.97-6.01-3.31-12.15-1.83-18.66,3.16-13.89,12.09-21.73,25.45-25.31,15.31-4.1,28.25-.04,39.24,11.07,3.09,3.13,5.78,6.58,8.27,10.2.73,1.06,1.51,2.1,2.28,3.17,1.52-.52,1.45-1.9,1.83-2.91,1.8-4.78,3.96-9.37,6.91-13.57,7.86-11.23,18.51-15.28,31.87-12.53,7.5,1.54,14.19,4.65,20.85,8.52,6.96,4.04,11.88,9.6,16.41,15.81,7.23,9.91,8.31,20.9,5.29,32.48-.83,3.2-1.95,6.35-3.22,9.4-.82,1.97-.37,3.14,1.04,4.63,7.26,7.69,11.59,16.95,13.82,27.2,2.19,10.1.16,19.52-5.08,28.31-1.69,2.83-3.24,5.67-4.43,8.81-2.88,7.55-7.82,13.77-14.11,18.84-5.52,4.46-11.86,6.79-19.01,6.82-2.48.01-4.97.2-7.45.36-3.57.22-7.09,0-10.57-.84-2.67-.65-2.76-.64-3.54,1.8-2.36,7.37-6.67,13.66-11.5,19.46-4.78,5.74-10.51,10.51-17.94,12.86-6.55,2.08-12.98,4.49-19.99,4.43-4.43-.04-8.77-.66-12.75-2.66-5.26-2.65-11.02-4.44-15.45-8.55-1.26-1.17-2.14-.43-3.09.27-4.96,3.64-9.92,7.3-14.87,10.95-.38.28-.74.6-1.13.86-1.91,1.3-3.14,1.36-4.72-.3-2.55-2.68-4.19-6.01-5.99-9.19-.62-1.09,0-2.31.32-3.45,3.26-11.25,6.52-22.51,9.78-33.76.82-2.84,1.6-5.7,2.46-8.53.47-1.54.24-2.55-1.22-3.58-4.35-3.08-8.49-6.44-12.5-9.96-8.49-7.45-14.31-16.63-17.87-27.31-4.48-13.43-.83-24.9,8.28-35.1,4.06-4.55,9.34-6.28,15.24-6.49,2.12-.07,4.25-.01,6.65-.01Zm-5.11,118.02c.24.11.49.22.73.33,2.15-2.19,4.24-4.45,6.76-6.21,4.28-2.99,8.25-6.36,12.23-9.72,1.63-1.37,3.3-2.7,5.04-3.93,2.45-1.73,3.56-1.52,5.16,1.05,1.31,2.11,2.36,4.38,3.64,6.51,4.58,7.63,10.91,13.36,18.96,17.12,8.6,4.02,17.16,3.74,25.67-.44,7.07-3.47,11.99-9.03,15.99-15.67,4.96-8.22,6.33-16.71,2.79-25.8-.69-1.76-1.24-3.58-1.85-5.37-.27-.78-.5-1.58-.76-2.37-.36-1.11-.27-2.16.72-2.88.99-.72,2.04-.41,2.98.22.79.53,1.55,1.09,2.31,1.65,2.66,1.99,5.4,3.86,8.34,5.41,13.61,7.18,30.62,4.94,41.39-6.08,11.81-12.08,16.13-26.22,9.79-42.62-2.66-6.9-6.04-13.38-11.41-18.63-2.89-2.83-6.26-4.68-10.36-4.88-5.45-.26-5.69-.75-3.14-5.78,3.67-7.24,6.31-14.82,6.58-23.03.47-14.45-7.15-28.66-23.7-33.54-2.72-.8-5.46-1.54-8.26-2.05-10.67-1.97-19.37,1.18-26.01,9.84-3.28,4.27-5.61,9.04-7.45,14.06-.65,1.78-1.21,3.6-2.03,5.3-1.03,2.12-2.92,2.43-4.58.76-1.07-1.08-1.92-2.4-2.79-3.66-2.68-3.91-5.45-7.75-8.77-11.16-10.65-10.94-23.15-14.48-37.91-9.89-12.67,3.94-19.69,12.43-21.51,25.47-.59,4.26.11,8.24,1.86,12.1,1.81,4.01,4.13,7.72,6.68,11.29.9,1.25,1.85,2.47,2.65,3.78,1.84,3.02.88,4.79-2.61,4.79-1.89,0-3.79-.16-5.68-.29-8.17-.56-14.58,2.37-18.85,9.52-1.03,1.73-2.07,3.45-3.04,5.22-2.73,4.97-3.42,10.28-2.5,15.82,1.89,11.37,7.33,20.92,15.21,29.13,4.85,5.05,10.36,9.36,16.02,13.48,2.43,1.77,2.63,2.02,1.81,4.99-2.25,8.22-4.55,16.42-6.84,24.62-1.07,3.85-2.17,7.69-3.25,11.53Zm65.59,12.48c-.51-.86-1.13-.69-1.67-.72-7.41-.47-14.02-3.07-20.03-7.36-6.47-4.62-11.55-10.43-15.22-17.5-1.72-3.31-2.11-3.34-4.93-1.06-3.86,3.12-7.56,6.47-11.59,9.36-4.78,3.42-8.81,7.5-12.29,12.18-2.14,2.87-2.15,2.86-.26,5.8.13.2.27.39.4.59,2.76,4.11,2.32,3.34,5.45,1.03,4.85-3.58,9.62-7.27,14.46-10.86,2.55-1.89,2.59-1.84,5.06.3,1.25,1.08,2.38,2.32,3.9,3.04,4.17,1.97,8.24,4.18,12.52,5.85,8.07,3.14,16.13,2.31,24.18-.64Zm83.31-52.2c-7.79,4.17-15.72,7.65-24.76,7.57-9.04-.09-16.75-3.97-24.19-8.97-.29,1.61.32,2.54.63,3.52,1.14,3.62,2.18,7.28,2.01,11.11-.1,2.14.91,3,2.76,3.35.81.15,1.62.35,2.43.46,6.27.79,12.54.19,18.72-.59,10.33-1.29,17.01-8.03,22.4-16.45Zm-6.07-117.05c.16.65.3,1.31.49,1.95.88,2.95,1.51,5.94,1.76,9.02.78,9.35-1.67,18.02-5.37,26.46-.44,1.01-1.28,1.94-1.08,3.22,2.38.44,4.61.81,6.59,1.9,1.53.84,2.08.14,2.56-1.18,2.49-6.81,4.37-13.67,3.97-21.07-.42-7.92-3.58-14.5-8.94-20.29Z"/><path class="cls-5" d="m38.05,90.81c-.18-.04-.39-.09-.62-.16-.21-.04-.44-.08-.7-.12-.26-.04-.55-.06-.88-.06-.86,0-1.46.13-1.78.38-.32.25-.48.59-.48,1.01,0,.56.23,1,.68,1.33.45.33,1.02.63,1.71.91s1.44.57,2.24.88c.8.31,1.55.71,2.24,1.19.69.48,1.26,1.1,1.71,1.85.45.75.68,1.71.68,2.89,0,1.01-.18,1.94-.56,2.78-.37.84-.94,1.57-1.71,2.19-.77.62-1.75,1.1-2.93,1.45-1.18.35-2.59.52-4.21.52-1.42,0-2.56-.12-3.43-.37s-1.45-.52-1.76-.83c-.14-.14-.26-.29-.35-.43-.09-.14-.17-.31-.23-.49-.06-.19-.1-.4-.12-.65-.02-.25-.03-.56-.03-.93v-.97c0-.2,0-.47.03-.82.04-.6.22-1.03.52-1.3.31-.27.71-.4,1.2-.4.95,0,1.61.5,1.98,1.5l.49,1.28c.21.08.42.16.65.22.21.04.45.08.74.12.29.04.62.06.99.06.93,0,1.57-.15,1.93-.46.36-.3.54-.71.54-1.21,0-.43-.13-.8-.4-1.11-.27-.31-.62-.58-1.05-.82-.43-.24-.93-.46-1.48-.68-.56-.22-1.12-.45-1.7-.71-.58-.26-1.14-.55-1.7-.86-.56-.32-1.05-.71-1.48-1.16-.43-.45-.78-.99-1.05-1.62-.27-.63-.4-1.37-.4-2.24,0-.93.18-1.79.54-2.58.36-.79.92-1.48,1.67-2.07.75-.59,1.7-1.04,2.86-1.37s2.52-.49,4.11-.49c1.44,0,2.56.12,3.37.35.8.24,1.35.5,1.64.79.14.14.26.29.36.43.09.14.17.31.23.49.06.19.1.4.12.65.02.25.03.56.03.93v.93c0,.16-.01.42-.03.77-.04.6-.22,1.03-.52,1.3-.31.27-.71.4-1.2.4s-.9-.12-1.2-.37c-.31-.25-.57-.62-.77-1.12l-.46-1.19Z"/><path class="cls-5" d="m44.94,100.29c0-1.3.21-2.48.63-3.55.42-1.07,1.04-1.98,1.84-2.73.8-.75,1.79-1.34,2.95-1.76,1.16-.42,2.48-.63,3.94-.63,2.7,0,4.76.68,6.19,2.04s2.13,3.21,2.13,5.56c0,1.3-.21,2.48-.63,3.55s-1.04,1.98-1.84,2.73c-.8.75-1.79,1.34-2.95,1.76-1.16.42-2.48.63-3.94.63-2.7,0-4.76-.68-6.19-2.04-1.42-1.36-2.13-3.21-2.13-5.56Zm6.58-.59c0,.68.07,1.26.2,1.74.13.48.31.88.52,1.19.21.31.46.54.74.68.28.14.57.22.87.22.61,0,1.13-.28,1.56-.83.43-.56.64-1.51.64-2.87,0-.68-.07-1.26-.2-1.74s-.31-.88-.52-1.2c-.21-.32-.46-.55-.74-.69-.28-.14-.57-.22-.87-.22-.61,0-1.13.28-1.56.83-.43.56-.64,1.52-.64,2.9Z"/><path class="cls-5" d="m72.9,95.97l-.28-.16c-.51-.29-.88-.61-1.08-.95s-.31-.76-.31-1.26.17-.87.51-1.18c.34-.31.81-.47,1.41-.47h5.99c.6,0,1.07.16,1.41.47.34.31.51.71.51,1.18s-.12.89-.35,1.23-.59.66-1.07.95l-.15.09,1.08,4.12c.1.41.19.8.28,1.17.08.37.14.7.18.98.06.35.11.66.15.92h.06c.02-.29.05-.6.09-.93.04-.29.09-.62.14-.99s.13-.76.23-1.17l.99-4.63c.27-1.3.7-2.21,1.31-2.75.61-.53,1.53-.8,2.76-.8s2.16.27,2.76.8c.61.54,1.04,1.45,1.31,2.75l.96,4.63c.08.41.15.8.22,1.17.06.37.11.7.15.99.04.33.07.64.09.93h.06c.04-.29.09-.6.15-.95.04-.29.1-.61.19-.98.08-.37.17-.75.28-1.14l1.11-4.12-.15-.09c-.47-.29-.83-.61-1.07-.95-.24-.34-.36-.75-.36-1.23s.17-.87.51-1.18c.34-.31.81-.47,1.41-.47h4.54c.6,0,1.07.16,1.41.47.34.31.51.71.51,1.18s-.1.92-.31,1.26c-.21.34-.57.66-1.08.95l-.28.16-2.78,8.47c-.37,1.15-.89,1.98-1.56,2.49-.67.51-1.66.77-2.98.77s-2.32-.26-3.01-.77c-.69-.51-1.16-1.35-1.41-2.5l-.8-3.83c-.08-.37-.15-.75-.2-1.13-.05-.38-.1-.71-.14-1-.04-.35-.07-.68-.09-.99h-.06c-.02.33-.05.67-.09,1.02-.04.29-.09.62-.14,1-.05.38-.12.76-.2,1.13l-.8,3.8c-.25,1.15-.73,1.99-1.45,2.5-.72.51-1.76.77-3.12.77-.7,0-1.3-.06-1.81-.18-.51-.12-.94-.32-1.31-.59-.37-.27-.68-.61-.93-1.02s-.46-.9-.65-1.48l-2.75-8.47Z"/><path class="cls-5" d="m102.83,89.7l-.56-.19c-.54-.19-.91-.41-1.11-.68-.21-.27-.31-.67-.31-1.21s.11-.95.32-1.24c.22-.29.56-.52,1.03-.68.47-.17,1.08-.31,1.82-.42.74-.11,1.48-.17,2.22-.17,1.05,0,1.81.23,2.27.69s.69,1.22.69,2.27v2.38c0,.47-.02.98-.06,1.53-.04.55-.11,1.08-.22,1.59l.06.03c.27-.35.6-.67.99-.96.35-.25.79-.47,1.31-.68.53-.21,1.18-.31,1.96-.31,1.96,0,3.43.49,4.43,1.48,1,.99,1.5,2.48,1.5,4.48v5.9l.59.31c.49.27.84.52,1.03.77.2.25.29.61.29,1.08,0,.56-.18,1.01-.54,1.36-.36.35-.87.52-1.53.52h-5.47c-.68,0-1.2-.17-1.57-.52-.37-.35-.56-.8-.56-1.36,0-.45.07-.8.22-1.05.14-.25.42-.53.83-.83l.31-.25v-4.72c0-.95-.16-1.61-.48-1.99-.32-.38-.76-.57-1.31-.57-.29,0-.54.05-.76.15-.22.1-.41.22-.57.34-.19.14-.34.31-.46.49v6.33l.31.25c.41.31.69.58.83.83.14.24.22.59.22,1.04,0,.55-.18,1-.56,1.35-.37.35-.9.52-1.57.52h-5.47c-.66,0-1.17-.17-1.53-.52-.36-.35-.54-.8-.54-1.35,0-.47.1-.83.29-1.07.2-.25.54-.5,1.03-.77l.59-.31v-13.83Z"/><path class="cls-5" d="m131.64,97.87c0-.65-.17-1.12-.51-1.42-.34-.3-.95-.45-1.84-.45-.64,0-1.19.04-1.67.11-.47.08-.89.15-1.24.23-.35.08-.66.15-.94.23s-.54.11-.79.11c-.47,0-.85-.16-1.14-.48-.29-.32-.43-.71-.43-1.16,0-.51.2-.97.59-1.36.21-.21.52-.43.96-.68.43-.25.96-.47,1.59-.66.63-.2,1.35-.36,2.18-.49.82-.13,1.73-.2,2.72-.2,2.43,0,4.19.48,5.28,1.44,1.09.96,1.64,2.25,1.64,3.87,0,1.03-.01,2.05-.03,3.06-.02,1.01,0,2.1.06,3.27l.62.19c.53.16.9.37,1.08.6.19.24.28.62.28,1.16s-.1.92-.31,1.22c-.21.3-.56.54-1.05.73-.49.19-1.1.34-1.82.45-.72.11-1.38.17-1.98.17-.93,0-1.6-.18-2.01-.56-.41-.37-.62-.92-.62-1.64v-.12l-.06-.03c-.23.45-.55.85-.96,1.2-.35.31-.82.59-1.41.83s-1.31.37-2.18.37-1.61-.12-2.28-.37c-.68-.25-1.26-.59-1.73-1.03-.47-.44-.84-.97-1.1-1.57-.26-.61-.39-1.26-.39-1.96,0-.6.14-1.17.43-1.73.29-.56.73-1.04,1.33-1.47.6-.42,1.37-.76,2.32-1.02.95-.26,2.09-.39,3.43-.39.29,0,.55,0,.77.02s.43.03.62.05c.21.02.4.04.59.06v-.56Zm-.06,3.59c-.08-.02-.19-.04-.31-.06-.1-.02-.23-.04-.39-.05-.15,0-.32-.02-.51-.02-.6,0-1.03.09-1.31.26-.28.18-.42.43-.42.76s.12.6.35.82c.24.22.54.32.91.32.29,0,.53-.04.73-.11.19-.07.36-.16.51-.26.16-.1.31-.23.43-.37v-1.3Z"/><path class="cls-5" d="m142.29,96.03h-.25c-1.26,0-1.88-.58-1.88-1.73,0-.72.2-1.29.59-1.71s.93-.63,1.61-.63h.22l.62-1.91c.31-.95.74-1.59,1.28-1.93.55-.34,1.25-.51,2.11-.51.68,0,1.2.18,1.56.52.36.35.54.83.54,1.45v2.38h1.54c1.25,0,1.88.58,1.88,1.73,0,.74-.2,1.32-.6,1.73-.4.41-.98.62-1.74.62h-1.08v4.91c0,.97.11,1.62.32,1.96.22.34.54.51.97.51.23,0,.42-.02.59-.05s.33-.05.49-.05c.35,0,.64.13.86.39.23.26.34.59.34,1,0,.37-.07.69-.22.96-.14.27-.34.52-.59.77s-.7.52-1.34.82c-.65.3-1.56.45-2.73.45-1.73,0-3.01-.44-3.84-1.31-.83-.87-1.25-2.29-1.25-4.25v-6.11Z"/><path class="cls-5" d="m155.01,96.95c0-.54.09-1.01.28-1.42.18-.41.41-.79.69-1.13.28-.34.57-.65.89-.94.32-.29.61-.57.89-.83.28-.27.51-.53.69-.8.18-.27.28-.57.28-.9,0-.45-.14-.8-.41-1.05s-.76-.37-1.46-.37c-.31,0-.57.02-.8.06-.23.04-.43.09-.63.14s-.39.1-.58.14c-.2.04-.41.06-.63.06-.47,0-.85-.16-1.15-.49-.3-.33-.45-.73-.45-1.2,0-.54.2-1,.59-1.39.21-.21.48-.42.83-.63.35-.22.77-.41,1.27-.59s1.05-.32,1.67-.43c.62-.11,1.3-.17,2.04-.17,1.11,0,2.07.12,2.87.36.8.24,1.47.57,2.01,1,.53.43.93.94,1.19,1.51.26.58.39,1.2.39,1.88,0,.62-.1,1.16-.31,1.64-.21.47-.47.9-.79,1.27-.32.37-.66.71-1.02,1.02-.36.31-.7.61-1.02.9-.32.29-.58.59-.79.9-.21.31-.31.65-.31,1.02,0,.21.01.39.03.56.02.16.05.32.08.46s.06.28.08.4c.02.12.03.25.03.37,0,.56-.24,1-.73,1.34-.48.34-1.27.51-2.36.51s-1.92-.28-2.49-.83c-.57-.56-.85-1.34-.85-2.35Zm.09,7.6c0-.99.33-1.8,1-2.44.67-.64,1.52-.96,2.55-.96s1.87.31,2.52.93c.65.62.97,1.42.97,2.41s-.34,1.8-1,2.44c-.67.64-1.52.96-2.55.96s-1.87-.31-2.52-.93c-.65-.62-.97-1.42-.97-2.41Z"/></svg>