<?xml version="1.0" encoding="UTF-8"?><svg id="Layer_1" xmlns="http://www.w3.org/2000/svg" viewBox="0 0 310.61 368.02"><defs><style>.cls-1{fill:#182a42;stroke:#182a42;stroke-miterlimit:10;stroke-width:1.5px;}.cls-2{fill:#95a1c6;}.cls-2,.cls-3{stroke-width:0px;}.cls-3{fill:#854430;}</style></defs><path class="cls-1" d="m146.17,85.87c-17.84-3.77-35.47-3.02-52.8,2.06-23.49,6.86-43.35,19.47-60.41,36.53C8.88,148.54-1.94,177.48,1.32,211.69c1.58,16.54,4.66,32.76,9.87,48.62,8.88,27.11,23.36,50.63,45.54,69.39,8.9,7.51,17.87,14.85,27.78,21,20.03,12.46,41.57,18.52,65.05,16,20.61-2.24,39.94-8.46,57.6-18.96,16.32-9.66,25-24.79,28.62-42.93.58-2.86,1.41-4.07,4.19-4.82,15.36-4.17,30.55-9.15,46.49-11.27,2.39-.31,4.72-1.24,7.12-1.58,3.01-.41,4.05-2.19,4.31-4.88.84-8.47-.33-16.27-7.29-22.41-1.83-1.63-3.45-3.46-5.13-5.25-15.34-16.2-12.84-11.02-13.37-31.19-.34-12.92-2.18-25.52-7.08-37.56-14.84-36.57-38.15-66.07-73.55-84.43-14.19-9.07-29.78-12.25-45.3-15.57Zm145.06,190.99c-.21-.08-.42-.16-.62-.27.21-.1.47-.22.68-.38-.03.23,0,.43-.06.65Z"/><path class="cls-2" d="m38.41,160.65l-.34-.16c-.4-.19-.69-.39-.87-.6-.18-.21-.27-.49-.27-.84,0-.31.11-.56.32-.76.21-.2.51-.3.9-.3h4.38c.39,0,.69.1.9.3.21.2.32.45.32.76,0,.35-.08.63-.23.84s-.41.43-.77.66l-.16.1v2.72h3.76v-2.72l-.16-.1c-.36-.23-.62-.45-.77-.66s-.23-.49-.23-.84c0-.31.11-.56.32-.76.21-.2.51-.3.9-.3h4.38c.39,0,.69.1.9.3.21.2.32.45.32.76,0,.35-.09.63-.27.84s-.47.41-.87.6l-.34.16v8.14l.46.22c.36.17.62.34.78.51s.24.4.24.71c0,.36-.12.65-.35.88s-.56.34-.99.34h-4.14c-.43,0-.76-.11-.99-.34s-.35-.52-.35-.88c0-.31.08-.55.24-.72.16-.17.41-.37.74-.6l.18-.12v-2.78h-3.76v2.78l.18.12c.33.23.58.43.74.6.16.17.24.41.24.72,0,.36-.12.65-.35.88s-.56.34-.99.34h-4.14c-.43,0-.76-.11-.99-.34s-.35-.52-.35-.88c0-.31.08-.54.24-.71.16-.17.42-.34.78-.51l.46-.22v-8.14Z"/><path class="cls-2" d="m57.05,167.25c.13.55.4.96.8,1.21.4.25.92.37,1.56.37.33,0,.62-.01.87-.04.25-.03.46-.06.64-.1.18-.04.34-.07.47-.1.13-.03.25-.04.36-.04.28,0,.5.09.67.26s.25.41.25.7c0,.21-.04.4-.11.55s-.18.3-.33.45c-.25.25-.7.51-1.34.76-.64.25-1.51.38-2.62.38-.87,0-1.63-.11-2.3-.34s-1.23-.55-1.68-.98c-.45-.43-.8-.94-1.03-1.53-.23-.59-.35-1.26-.35-2.01,0-.87.13-1.65.39-2.35s.63-1.29,1.11-1.78c.48-.49,1.06-.86,1.75-1.12.69-.26,1.45-.39,2.29-.39,1.49,0,2.62.37,3.39,1.1.77.73,1.15,1.74,1.15,3.02,0,.68-.15,1.18-.45,1.5s-.72.48-1.27.48h-4.22Zm2.16-2c-.03-.57-.13-.96-.31-1.2-.18-.23-.42-.34-.73-.34s-.58.14-.78.41c-.2.27-.33.65-.4,1.13h2.22Z"/><path class="cls-2" d="m65.37,164.17l-.46-.16c-.35-.12-.59-.26-.73-.42-.14-.16-.21-.42-.21-.77s.07-.62.21-.81c.14-.19.36-.33.67-.44s.7-.2,1.17-.27c.47-.07.94-.11,1.39-.11.61,0,1.04.12,1.29.35.25.23.37.62.37,1.17v.4l.04.02c.09-.27.21-.52.36-.77.15-.25.33-.47.54-.66.21-.19.46-.35.74-.47.28-.12.6-.18.96-.18.47,0,.79.13.96.38.17.25.26.63.26,1.14,0,.39-.04.74-.13,1.07-.09.33-.2.61-.34.85-.14.24-.31.43-.5.56-.19.13-.39.2-.59.2-.12,0-.22-.02-.31-.07s-.16-.1-.23-.15c-.07-.05-.14-.1-.21-.15s-.17-.07-.29-.07c-.27,0-.54.13-.82.4v3.64l.6.26c.35.15.58.3.71.46.13.16.19.38.19.67,0,.36-.12.65-.35.87s-.56.34-.99.34h-4.32c-.43,0-.76-.11-.99-.34s-.35-.52-.35-.87c0-.3.07-.54.2-.7.13-.16.35-.31.66-.46l.5-.24v-4.68Z"/><path class="cls-2" d="m77.51,167.25c.13.55.4.96.8,1.21.4.25.92.37,1.56.37.33,0,.62-.01.87-.04.25-.03.46-.06.64-.1.18-.04.34-.07.47-.1.13-.03.25-.04.36-.04.28,0,.5.09.67.26s.25.41.25.7c0,.21-.04.4-.11.55s-.18.3-.33.45c-.25.25-.7.51-1.34.76-.64.25-1.51.38-2.62.38-.87,0-1.63-.11-2.3-.34s-1.23-.55-1.68-.98c-.45-.43-.8-.94-1.03-1.53-.23-.59-.35-1.26-.35-2.01,0-.87.13-1.65.39-2.35s.63-1.29,1.11-1.78c.48-.49,1.06-.86,1.75-1.12.69-.26,1.45-.39,2.29-.39,1.49,0,2.62.37,3.39,1.1.77.73,1.15,1.74,1.15,3.02,0,.68-.15,1.18-.45,1.5s-.72.48-1.27.48h-4.22Zm2.16-2c-.03-.57-.13-.96-.31-1.2-.18-.23-.42-.34-.73-.34s-.58.14-.78.41c-.2.27-.33.65-.4,1.13h2.22Z"/><path class="cls-2" d="m85.13,159.15c0-.32.06-.62.18-.9.12-.28.28-.52.49-.73.21-.21.45-.37.73-.49.28-.12.58-.18.9-.18.64,0,1.18.23,1.61.7.43.47.65,1.1.65,1.9,0,.55-.08,1.08-.24,1.6-.16.52-.37,1-.62,1.45-.25.45-.53.84-.84,1.19s-.61.61-.9.78c-.21.13-.42.24-.63.31-.21.07-.44.1-.69.09-.25-.01-.46-.09-.61-.23-.15-.14-.23-.34-.23-.61,0-.2.05-.38.16-.53.11-.15.23-.32.38-.51.15-.19.31-.42.48-.7.17-.28.32-.65.44-1.1-.28-.12-.56-.35-.84-.69-.28-.34-.42-.79-.42-1.35Z"/><path class="cls-2" d="m92.77,169.09c.11.04.23.07.38.1.12.03.27.05.44.07.17.02.37.03.58.03.43,0,.71-.05.86-.16.15-.11.22-.25.22-.42,0-.21-.12-.38-.37-.51-.25-.13-.55-.24-.92-.35-.37-.11-.77-.23-1.2-.36-.43-.13-.83-.32-1.2-.55-.37-.23-.67-.53-.92-.9-.25-.37-.37-.84-.37-1.41,0-.49.1-.96.29-1.39.19-.43.5-.8.92-1.11s.96-.55,1.62-.73,1.46-.27,2.41-.27c.83,0,1.48.06,1.97.19.49.13.82.28,1.01.47.13.13.23.28.3.44s.1.38.1.66v.47c0,.11,0,.24-.02.39-.03.29-.13.51-.32.66-.19.15-.43.22-.74.22s-.57-.06-.76-.18c-.19-.12-.32-.29-.4-.5l-.1-.26c-.11-.03-.23-.05-.38-.08-.12-.03-.26-.05-.41-.07-.15-.02-.32-.03-.51-.03-.37,0-.63.05-.76.15-.13.1-.2.24-.2.41,0,.2.12.36.37.47.25.11.55.22.92.32.37.1.77.22,1.2.35.43.13.83.32,1.2.55.37.23.67.54.92.91.25.37.37.85.37,1.44,0,.51-.1.98-.3,1.41-.2.43-.52.81-.95,1.13-.43.32-.99.57-1.68.75-.69.18-1.52.27-2.49.27-.85,0-1.53-.07-2.02-.2-.49-.13-.83-.29-1.02-.48-.13-.13-.23-.28-.3-.44-.07-.16-.1-.38-.1-.66v-.46c0-.11,0-.22.02-.34.03-.35.13-.6.32-.75s.43-.23.74-.23.57.06.76.18c.19.12.32.29.4.5l.12.3Z"/><path class="cls-2" d="m106.17,159.89l-.36-.12c-.35-.12-.59-.27-.72-.44-.13-.17-.2-.44-.2-.79s.07-.62.21-.8c.14-.19.36-.34.67-.44s.7-.2,1.18-.27c.48-.07.96-.11,1.44-.11.68,0,1.17.15,1.47.45s.45.79.45,1.47v1.54c0,.31-.01.64-.04.99-.03.35-.07.7-.14,1.03l.04.02c.17-.23.39-.43.64-.62.23-.16.51-.31.85-.44s.76-.2,1.27-.2c1.27,0,2.22.32,2.87.96.65.64.97,1.61.97,2.9v3.82l.38.2c.32.17.54.34.67.5s.19.39.19.7c0,.36-.12.65-.35.88s-.56.34-.99.34h-3.54c-.44,0-.78-.11-1.02-.34s-.36-.52-.36-.88c0-.29.05-.52.14-.68.09-.16.27-.34.54-.54l.2-.16v-3.06c0-.61-.1-1.04-.31-1.29-.21-.25-.49-.37-.85-.37-.19,0-.35.03-.49.1s-.26.14-.37.22c-.12.09-.22.2-.3.32v4.1l.2.16c.27.2.45.38.54.54.09.16.14.38.14.67,0,.36-.12.65-.36.87-.24.22-.58.34-1.02.34h-3.54c-.43,0-.76-.11-.99-.34s-.35-.52-.35-.87c0-.3.06-.54.19-.7.13-.16.35-.32.67-.5l.38-.2v-8.96Z"/><path class="cls-2" d="m118.75,166.75c0-.84.14-1.61.41-2.3.27-.69.67-1.28,1.19-1.77s1.16-.87,1.91-1.14c.75-.27,1.61-.41,2.55-.41,1.75,0,3.09.44,4.01,1.32.92.88,1.38,2.08,1.38,3.6,0,.84-.14,1.61-.41,2.3s-.67,1.28-1.19,1.77c-.52.49-1.16.87-1.91,1.14-.75.27-1.61.41-2.55.41-1.75,0-3.09-.44-4.01-1.32-.92-.88-1.38-2.08-1.38-3.6Zm4.26-.38c0,.44.04.82.13,1.13.09.31.2.57.34.77.14.2.3.35.48.44.18.09.37.14.57.14.4,0,.74-.18,1.01-.54.28-.36.42-.98.42-1.86,0-.44-.04-.82-.13-1.13-.09-.31-.2-.57-.34-.78-.14-.21-.3-.36-.48-.45-.18-.09-.37-.14-.57-.14-.4,0-.74.18-1.01.54-.28.36-.42.99-.42,1.88Z"/><path class="cls-2" d="m131.76,163.95l-.18-.1c-.33-.19-.57-.39-.7-.61-.13-.22-.2-.49-.2-.82s.11-.56.33-.77c.22-.2.52-.3.91-.3h3.88c.39,0,.69.1.91.3.22.2.33.46.33.77s-.08.57-.23.8-.38.43-.69.62l-.1.06.7,2.67c.07.27.13.52.18.76.05.24.09.45.12.64.04.23.07.42.1.6h.04c.01-.19.03-.39.06-.6.03-.19.06-.4.09-.64s.08-.49.15-.76l.64-3c.17-.84.46-1.43.85-1.78.39-.35.99-.52,1.79-.52s1.4.17,1.79.52c.39.35.68.94.85,1.78l.62,3c.05.27.1.52.14.76s.07.45.1.64c.03.21.05.41.06.6h.04c.03-.19.06-.39.1-.62.03-.19.07-.4.12-.64s.11-.48.18-.74l.72-2.67-.1-.06c-.31-.19-.54-.39-.69-.62s-.23-.49-.23-.8.11-.56.33-.77c.22-.2.52-.3.91-.3h2.94c.39,0,.69.1.91.3.22.2.33.46.33.77s-.07.59-.2.82c-.13.22-.37.43-.7.61l-.18.1-1.8,5.49c-.24.74-.58,1.28-1.01,1.62-.43.33-1.08.5-1.93.5s-1.5-.17-1.95-.5c-.45-.33-.75-.87-.91-1.62l-.52-2.48c-.05-.24-.1-.48-.13-.73s-.06-.46-.09-.65c-.03-.23-.05-.44-.06-.64h-.04c-.01.21-.03.43-.06.66-.03.19-.06.4-.09.65-.03.25-.08.49-.13.73l-.52,2.46c-.16.75-.47,1.29-.94,1.62s-1.14.5-2.02.5c-.45,0-.84-.04-1.17-.12-.33-.08-.61-.21-.85-.38s-.44-.39-.6-.66-.3-.58-.42-.96l-1.78-5.49Z"/><path class="cls-2" d="m156.06,163.95l-.18-.1c-.33-.19-.57-.39-.7-.61-.13-.22-.2-.49-.2-.82s.11-.56.33-.77c.22-.2.52-.3.91-.3h3.9c.39,0,.69.1.91.3.22.2.33.46.33.77s-.08.57-.23.8c-.15.22-.38.43-.69.62l-.1.06.96,2.87c.07.23.13.45.2.67.07.22.13.42.18.59.05.2.1.38.14.56h.04c.04-.17.09-.36.14-.56.05-.17.11-.37.17-.59.06-.22.13-.44.21-.67l.96-2.87-.1-.06c-.31-.19-.54-.39-.69-.62s-.23-.49-.23-.8.11-.56.33-.77c.22-.2.52-.3.91-.3h3.02c.39,0,.69.1.91.3.22.2.33.46.33.77s-.07.59-.2.82c-.13.22-.37.43-.7.61l-.18.1-2.28,5.83c-.51,1.28-1.03,2.33-1.58,3.16-.55.83-1.11,1.48-1.7,1.96s-1.2.81-1.84,1c-.64.19-1.3.28-1.98.28-.8,0-1.4-.17-1.8-.51s-.6-.8-.6-1.39.14-1,.41-1.28.58-.42.93-.42c.16,0,.3.01.41.04.11.03.23.06.36.09s.27.06.44.09c.17.03.38.04.65.04.16,0,.3,0,.43-.02.13-.01.24-.04.34-.07.1-.03.19-.08.26-.13.07-.05.14-.12.19-.2l-3.32-8.46Z"/><path class="cls-2" d="m168.09,166.75c0-.84.14-1.61.41-2.3.27-.69.67-1.28,1.19-1.77s1.16-.87,1.91-1.14c.75-.27,1.61-.41,2.55-.41,1.75,0,3.09.44,4.01,1.32.92.88,1.38,2.08,1.38,3.6,0,.84-.14,1.61-.41,2.3s-.67,1.28-1.19,1.77c-.52.49-1.16.87-1.91,1.14-.75.27-1.61.41-2.55.41-1.75,0-3.09-.44-4.01-1.32-.92-.88-1.38-2.08-1.38-3.6Zm4.26-.38c0,.44.04.82.13,1.13.09.31.2.57.34.77.14.2.3.35.48.44.18.09.37.14.57.14.4,0,.74-.18,1.01-.54.28-.36.42-.98.42-1.86,0-.44-.04-.82-.13-1.13-.09-.31-.2-.57-.34-.78-.14-.21-.3-.36-.48-.45-.18-.09-.37-.14-.57-.14-.4,0-.74.18-1.01.54-.28.36-.42.99-.42,1.88Z"/><path class="cls-2" d="m181.51,164.17l-.36-.12c-.35-.12-.59-.27-.72-.44-.13-.17-.2-.44-.2-.79s.07-.62.21-.81c.14-.19.36-.33.67-.44s.7-.2,1.18-.27c.48-.07.96-.11,1.44-.11.68,0,1.17.15,1.47.45s.45.79.45,1.47v3.9c0,.61.1,1.04.31,1.29.21.25.49.37.85.37.19,0,.35-.03.49-.1.14-.07.26-.14.37-.22.12-.09.22-.2.3-.32v-3.86l-.46-.16c-.35-.12-.59-.26-.73-.42s-.21-.42-.21-.77.07-.62.21-.81c.14-.19.36-.33.67-.44s.7-.2,1.19-.27c.49-.07,1-.11,1.55-.11.68,0,1.17.15,1.47.45s.45.79.45,1.47v5.58l.4.12c.35.11.58.24.7.39.12.15.18.4.18.75s-.07.6-.2.79c-.13.19-.36.35-.68.47-.32.12-.71.22-1.18.29-.47.07-.87.11-1.22.11-.61,0-1.05-.12-1.31-.35-.26-.23-.39-.63-.39-1.19v-.1l-.04-.02c-.15.33-.35.62-.62.86-.23.21-.53.41-.92.58s-.88.26-1.48.26c-1.27,0-2.22-.32-2.87-.96-.65-.64-.97-1.6-.97-2.89v-3.63Z"/><path class="cls-2" d="m204.95,163.87s-.04,0-.08-.02c-.03,0-.06,0-.11,0s-.1-.01-.15-.01c-.41,0-.77.19-1.06.56-.29.38-.44,1-.44,1.89s.19,1.55.56,1.95c.37.4.93.6,1.66.6.21,0,.39-.01.52-.03.13-.02.25-.05.34-.08s.18-.06.27-.08c.09-.02.18-.03.29-.03.28,0,.5.09.67.26.17.17.25.41.25.7,0,.41-.15.77-.46,1.08-.09.09-.22.2-.39.32s-.38.23-.64.33c-.26.1-.57.18-.94.25-.37.07-.79.1-1.27.1-1.61,0-2.85-.42-3.71-1.26-.86-.84-1.29-2.01-1.29-3.5,0-.88.13-1.68.4-2.39.27-.71.65-1.32,1.15-1.81s1.11-.87,1.83-1.14,1.53-.4,2.44-.4c.6,0,1.11.06,1.52.18s.72.28.92.48c.17.17.28.36.33.55s.07.5.07.91v.69c0,.15,0,.4-.02.73-.01.39-.12.67-.31.84-.19.17-.44.26-.75.26s-.58-.08-.77-.23-.36-.4-.49-.75l-.34-.94Z"/><path class="cls-2" d="m214.95,165.18c0-.42-.11-.73-.33-.92-.22-.2-.62-.29-1.19-.29-.41,0-.77.02-1.08.07s-.57.1-.8.15-.43.1-.61.15c-.18.05-.35.07-.51.07-.31,0-.55-.1-.74-.31-.19-.21-.28-.46-.28-.75,0-.33.13-.63.38-.88.13-.13.34-.28.62-.44s.62-.3,1.03-.43c.41-.13.88-.23,1.41-.32.53-.09,1.12-.13,1.76-.13,1.57,0,2.71.31,3.42.93.71.62,1.06,1.46,1.06,2.51,0,.67,0,1.33-.02,1.98-.01.65,0,1.36.04,2.12l.4.12c.35.11.58.24.7.39s.18.4.18.75-.07.6-.2.79c-.13.19-.36.35-.68.47-.32.12-.71.22-1.18.29-.47.07-.89.11-1.28.11-.6,0-1.03-.12-1.3-.36-.27-.24-.4-.59-.4-1.06v-.08l-.04-.02c-.15.29-.35.55-.62.78-.23.2-.53.38-.91.54s-.85.24-1.41.24-1.04-.08-1.48-.24c-.44-.16-.81-.38-1.12-.67-.31-.29-.54-.63-.71-1.02-.17-.39-.25-.82-.25-1.27,0-.39.09-.76.28-1.12.19-.36.47-.68.86-.95s.89-.49,1.5-.66,1.35-.25,2.22-.25c.19,0,.35,0,.5,0s.28.02.4.03c.13.01.26.03.38.04v-.37Zm-.04,2.33c-.05-.01-.12-.03-.2-.04-.07-.01-.15-.02-.25-.03s-.21,0-.33,0c-.39,0-.67.06-.85.17-.18.11-.27.28-.27.49s.08.39.23.53c.15.14.35.21.59.21.19,0,.34-.02.47-.07s.24-.1.33-.17c.11-.07.2-.15.28-.24v-.84Z"/><path class="cls-2" d="m222.13,164.17l-.46-.16c-.35-.12-.59-.26-.73-.42-.14-.16-.21-.42-.21-.77s.07-.62.21-.81c.14-.19.36-.33.67-.44s.7-.2,1.17-.27c.47-.07.94-.11,1.39-.11.61,0,1.04.12,1.29.35.25.23.37.63.37,1.19v.1l.04.02c.15-.32.35-.6.62-.84.23-.21.53-.41.92-.59.39-.18.88-.27,1.48-.27,1.27,0,2.22.32,2.87.96.65.64.97,1.61.97,2.9v3.82l.38.2c.32.17.54.34.67.5s.19.39.19.7c0,.36-.12.65-.35.88s-.56.34-.99.34h-3.54c-.44,0-.78-.11-1.02-.34s-.36-.52-.36-.88c0-.29.05-.52.14-.68.09-.16.27-.34.54-.54l.2-.16v-3.06c0-.61-.1-1.04-.31-1.29-.21-.25-.49-.37-.85-.37-.19,0-.35.03-.49.1-.14.07-.26.14-.37.22-.12.09-.22.2-.3.32v4.1l.2.16c.27.2.45.38.54.54.09.16.14.38.14.67,0,.36-.12.65-.36.87s-.58.34-1.02.34h-3.66c-.43,0-.76-.11-.99-.34s-.35-.52-.35-.87c0-.3.07-.54.2-.7.13-.16.35-.31.66-.46l.5-.24v-4.68Z"/><path class="cls-2" d="m54.56,183.89l-.36-.12c-.35-.12-.59-.27-.72-.44-.13-.17-.2-.44-.2-.79s.07-.62.21-.8c.14-.19.36-.34.67-.44s.7-.2,1.18-.27c.48-.07.96-.11,1.44-.11.68,0,1.17.15,1.47.45s.45.79.45,1.47v1.54c0,.31-.01.64-.04.99-.03.35-.07.7-.14,1.03l.04.02c.17-.23.39-.43.64-.62.23-.16.51-.31.85-.44s.76-.2,1.27-.2c1.27,0,2.22.32,2.87.96.65.64.97,1.61.97,2.9v3.82l.38.2c.32.17.54.34.67.5s.19.39.19.7c0,.36-.12.65-.35.88s-.56.34-.99.34h-3.54c-.44,0-.78-.11-1.02-.34s-.36-.52-.36-.88c0-.29.05-.52.14-.68.09-.16.27-.34.54-.54l.2-.16v-3.06c0-.61-.1-1.04-.31-1.29-.21-.25-.49-.37-.85-.37-.19,0-.35.03-.49.1s-.26.14-.37.22c-.12.09-.22.2-.3.32v4.1l.2.16c.27.2.45.38.54.54.09.16.14.38.14.67,0,.36-.12.65-.36.87-.24.22-.58.34-1.02.34h-3.54c-.43,0-.76-.11-.99-.34s-.35-.52-.35-.87c0-.3.06-.54.19-.7.13-.16.35-.32.67-.5l.38-.2v-8.96Z"/><path class="cls-2" d="m71.28,191.25c.13.55.4.96.8,1.21.4.25.92.37,1.56.37.33,0,.62-.01.87-.04.25-.03.46-.06.64-.1.18-.04.34-.07.47-.1.13-.03.25-.04.36-.04.28,0,.5.09.67.26s.25.41.25.7c0,.21-.04.4-.11.55s-.18.3-.33.45c-.25.25-.7.51-1.34.76-.64.25-1.51.38-2.62.38-.87,0-1.63-.11-2.3-.34s-1.23-.55-1.68-.98c-.45-.43-.8-.94-1.03-1.53-.23-.59-.35-1.26-.35-2.01,0-.87.13-1.65.39-2.35s.63-1.29,1.11-1.78c.48-.49,1.06-.86,1.75-1.12.69-.26,1.45-.39,2.29-.39,1.49,0,2.62.37,3.39,1.1.77.73,1.15,1.74,1.15,3.02,0,.68-.15,1.18-.45,1.5s-.72.48-1.27.48h-4.22Zm2.16-2c-.03-.57-.13-.96-.31-1.2-.18-.23-.42-.34-.73-.34s-.58.14-.78.41c-.2.27-.33.65-.4,1.13h2.22Z"/><path class="cls-2" d="m79.4,183.89l-.36-.12c-.35-.12-.59-.27-.72-.44-.13-.17-.2-.44-.2-.79s.07-.62.21-.8c.14-.19.36-.34.67-.44s.7-.2,1.18-.27c.48-.07.96-.11,1.44-.11.68,0,1.17.15,1.47.45s.45.79.45,1.47v10.02l.38.2c.32.17.54.34.67.5.13.16.19.39.19.7,0,.36-.12.65-.35.87s-.56.34-.99.34h-3.94c-.43,0-.76-.11-.99-.34s-.35-.52-.35-.87c0-.3.06-.54.19-.7.13-.16.35-.32.67-.5l.38-.2v-8.96Z"/><path class="cls-2" d="m86.42,188.17l-.36-.12c-.36-.12-.6-.27-.73-.44-.13-.17-.19-.44-.19-.79s.07-.62.21-.81c.14-.19.36-.33.67-.44.16-.05.34-.1.54-.15s.41-.09.63-.12c.22-.03.44-.06.66-.08.22-.02.42-.03.61-.03.61,0,1.04.12,1.29.35.25.23.37.63.37,1.19v.1l.04.02c.15-.32.35-.6.62-.84.23-.21.54-.41.92-.59.39-.18.88-.27,1.48-.27,1.27,0,2.27.39,2.99,1.17.72.78,1.08,1.98,1.08,3.61,0,.91-.13,1.71-.39,2.42s-.65,1.3-1.15,1.79-1.13.86-1.88,1.12c-.74.26-1.59.39-2.56.39h-.3c-.09,0-.17,0-.24-.02-.08-.01-.15-.03-.22-.04l-.04.04c.03.24.04.44.04.61v1.19l.54.24c.32.15.54.3.67.46.13.16.19.39.19.69,0,.36-.12.65-.35.87-.23.22-.56.34-.99.34h-4.06c-.43,0-.76-.11-.99-.34-.23-.23-.35-.52-.35-.87,0-.3.06-.54.19-.69.13-.16.35-.32.67-.5l.38-.2v-9.26Zm4.14,4.66c.05.01.11.03.18.04.07.01.14.02.22.03.08,0,.17,0,.28,0,.57,0,1.01-.19,1.31-.58.3-.39.45-1.05.45-2,0-.81-.12-1.38-.37-1.71-.25-.33-.55-.49-.91-.49-.2,0-.37.03-.51.1-.14.07-.26.14-.37.22-.12.09-.21.2-.28.32v4.06Z"/><path class="cls-2" d="m103.91,187.95l-.18-.1c-.33-.19-.57-.39-.7-.61-.13-.22-.2-.49-.2-.82s.11-.56.33-.77c.22-.2.52-.3.91-.3h3.9c.39,0,.69.1.91.3.22.2.33.46.33.77s-.08.57-.23.8c-.15.22-.38.43-.69.62l-.1.06.96,2.87c.07.23.13.45.2.67.07.22.13.42.18.59.05.2.1.38.14.56h.04c.04-.17.09-.36.14-.56.05-.17.11-.37.17-.59.06-.22.13-.44.21-.67l.96-2.87-.1-.06c-.31-.19-.54-.39-.69-.62s-.23-.49-.23-.8.11-.56.33-.77c.22-.2.52-.3.91-.3h3.02c.39,0,.69.1.91.3.22.2.33.46.33.77s-.07.59-.2.82c-.13.22-.37.43-.7.61l-.18.1-2.28,5.83c-.51,1.28-1.03,2.33-1.58,3.16-.55.83-1.11,1.48-1.7,1.96s-1.2.81-1.84,1c-.64.19-1.3.28-1.98.28-.8,0-1.4-.17-1.8-.51s-.6-.8-.6-1.39.14-1,.41-1.28.58-.42.93-.42c.16,0,.3.01.41.04.11.03.23.06.36.09s.27.06.44.09c.17.03.38.04.65.04.16,0,.3,0,.43-.02.13-.01.24-.04.34-.07.1-.03.19-.08.26-.13.07-.05.14-.12.19-.2l-3.32-8.46Z"/><path class="cls-2" d="m115.94,190.75c0-.84.14-1.61.41-2.3.27-.69.67-1.28,1.19-1.77s1.16-.87,1.91-1.14c.75-.27,1.61-.41,2.55-.41,1.75,0,3.09.44,4.01,1.32.92.88,1.38,2.08,1.38,3.6,0,.84-.14,1.61-.41,2.3s-.67,1.28-1.19,1.77c-.52.49-1.16.87-1.91,1.14-.75.27-1.61.41-2.55.41-1.75,0-3.09-.44-4.01-1.32-.92-.88-1.38-2.08-1.38-3.6Zm4.26-.38c0,.44.04.82.13,1.13.09.31.2.57.34.77.14.2.3.35.48.44.18.09.37.14.57.14.4,0,.74-.18,1.01-.54.28-.36.42-.98.42-1.86,0-.44-.04-.82-.13-1.13-.09-.31-.2-.57-.34-.78-.14-.21-.3-.36-.48-.45-.18-.09-.37-.14-.57-.14-.4,0-.74.18-1.01.54-.28.36-.42.99-.42,1.88Z"/><path class="cls-2" d="m129.36,188.17l-.36-.12c-.35-.12-.59-.27-.72-.44-.13-.17-.2-.44-.2-.79s.07-.62.21-.81c.14-.19.36-.33.67-.44s.7-.2,1.18-.27c.48-.07.96-.11,1.44-.11.68,0,1.17.15,1.47.45s.45.79.45,1.47v3.9c0,.61.1,1.04.31,1.29.21.25.49.37.85.37.19,0,.35-.03.49-.1.14-.07.26-.14.37-.22.12-.09.22-.2.3-.32v-3.86l-.46-.16c-.35-.12-.59-.26-.73-.42s-.21-.42-.21-.77.07-.62.21-.81c.14-.19.36-.33.67-.44s.7-.2,1.19-.27c.49-.07,1-.11,1.55-.11.68,0,1.17.15,1.47.45s.45.79.45,1.47v5.58l.4.12c.35.11.58.24.7.39.12.15.18.4.18.75s-.07.6-.2.79c-.13.19-.36.35-.68.47-.32.12-.71.22-1.18.29-.47.07-.87.11-1.22.11-.61,0-1.05-.12-1.31-.35-.26-.23-.39-.63-.39-1.19v-.1l-.04-.02c-.15.33-.35.62-.62.86-.23.21-.53.41-.92.58s-.88.26-1.48.26c-1.27,0-2.22-.32-2.87-.96-.65-.64-.97-1.6-.97-2.89v-3.63Z"/><path class="cls-2" d="m143.04,188.17l-.46-.16c-.35-.12-.59-.26-.73-.42-.14-.16-.21-.42-.21-.77s.07-.62.21-.81c.14-.19.36-.33.67-.44s.7-.2,1.17-.27c.47-.07.94-.11,1.39-.11.61,0,1.04.12,1.29.35.25.23.37.62.37,1.17v.4l.04.02c.09-.27.21-.52.36-.77.15-.25.33-.47.54-.66.21-.19.46-.35.74-.47.28-.12.6-.18.96-.18.47,0,.79.13.96.38.17.25.26.63.26,1.14,0,.39-.04.74-.13,1.07-.09.33-.2.61-.34.85-.14.24-.31.43-.5.56-.19.13-.39.2-.59.2-.12,0-.22-.02-.31-.07s-.16-.1-.23-.15c-.07-.05-.14-.1-.21-.15s-.17-.07-.29-.07c-.27,0-.54.13-.82.4v3.64l.6.26c.35.15.58.3.71.46.13.16.19.38.19.67,0,.36-.12.65-.35.87s-.56.34-.99.34h-4.32c-.43,0-.76-.11-.99-.34s-.35-.52-.35-.87c0-.3.07-.54.2-.7.13-.16.35-.31.66-.46l.5-.24v-4.68Z"/><path class="cls-2" d="m158.82,193.09c.11.04.23.07.38.1.12.03.27.05.44.07.17.02.37.03.58.03.43,0,.71-.05.86-.16.15-.11.22-.25.22-.42,0-.21-.12-.38-.37-.51-.25-.13-.55-.24-.92-.35-.37-.11-.77-.23-1.2-.36-.43-.13-.83-.32-1.2-.55-.37-.23-.67-.53-.92-.9-.25-.37-.37-.84-.37-1.41,0-.49.1-.96.29-1.39.19-.43.5-.8.92-1.11s.96-.55,1.62-.73,1.46-.27,2.41-.27c.83,0,1.48.06,1.97.19.49.13.82.28,1.01.47.13.13.23.28.3.44s.1.38.1.66v.47c0,.11,0,.24-.02.39-.03.29-.13.51-.32.66-.19.15-.43.22-.74.22s-.57-.06-.76-.18c-.19-.12-.32-.29-.4-.5l-.1-.26c-.11-.03-.23-.05-.38-.08-.12-.03-.26-.05-.41-.07-.15-.02-.32-.03-.51-.03-.37,0-.63.05-.76.15-.13.1-.2.24-.2.41,0,.2.12.36.37.47.25.11.55.22.92.32.37.1.77.22,1.2.35.43.13.83.32,1.2.55.37.23.67.54.92.91.25.37.37.85.37,1.44,0,.51-.1.98-.3,1.41-.2.43-.52.81-.95,1.13-.43.32-.99.57-1.68.75-.69.18-1.52.27-2.49.27-.85,0-1.53-.07-2.02-.2-.49-.13-.83-.29-1.02-.48-.13-.13-.23-.28-.3-.44-.07-.16-.1-.38-.1-.66v-.46c0-.11,0-.22.02-.34.03-.35.13-.6.32-.75s.43-.23.74-.23.57.06.76.18c.19.12.32.29.4.5l.12.3Z"/><path class="cls-2" d="m167.62,188.17l-.46-.16c-.35-.12-.59-.26-.73-.42-.14-.16-.21-.42-.21-.77s.07-.62.21-.81c.14-.19.36-.33.67-.44s.7-.2,1.19-.27c.49-.07,1-.11,1.55-.11.68,0,1.17.15,1.47.45s.45.79.45,1.47v5.74l.38.2c.32.17.54.34.67.5.13.16.19.39.19.7,0,.36-.12.65-.35.87s-.56.34-.99.34h-4.06c-.43,0-.76-.11-.99-.34s-.35-.52-.35-.87c0-.3.06-.54.19-.7.13-.16.35-.31.67-.46l.5-.24v-4.68Zm-.22-5.56c0-.57.2-1.06.61-1.46.41-.4.96-.6,1.65-.6s1.24.19,1.63.58c.39.39.59.87.59,1.44s-.2,1.06-.61,1.46c-.41.4-.96.6-1.65.6s-1.24-.19-1.63-.57-.59-.86-.59-1.45Z"/><path class="cls-2" d="m176.4,193.09c.11.04.23.07.38.1.12.03.27.05.44.07.17.02.37.03.58.03.43,0,.71-.05.86-.16.15-.11.22-.25.22-.42,0-.21-.12-.38-.37-.51-.25-.13-.55-.24-.92-.35-.37-.11-.77-.23-1.2-.36-.43-.13-.83-.32-1.2-.55-.37-.23-.67-.53-.92-.9-.25-.37-.37-.84-.37-1.41,0-.49.1-.96.29-1.39.19-.43.5-.8.92-1.11s.96-.55,1.62-.73,1.46-.27,2.41-.27c.83,0,1.48.06,1.97.19.49.13.82.28,1.01.47.13.13.23.28.3.44s.1.38.1.66v.47c0,.11,0,.24-.02.39-.03.29-.13.51-.32.66-.19.15-.43.22-.74.22s-.57-.06-.76-.18c-.19-.12-.32-.29-.4-.5l-.1-.26c-.11-.03-.23-.05-.38-.08-.12-.03-.26-.05-.41-.07-.15-.02-.32-.03-.51-.03-.37,0-.63.05-.76.15-.13.1-.2.24-.2.41,0,.2.12.36.37.47.25.11.55.22.92.32.37.1.77.22,1.2.35.43.13.83.32,1.2.55.37.23.67.54.92.91.25.37.37.85.37,1.44,0,.51-.1.98-.3,1.41-.2.43-.52.81-.95,1.13-.43.32-.99.57-1.68.75-.69.18-1.52.27-2.49.27-.85,0-1.53-.07-2.02-.2-.49-.13-.83-.29-1.02-.48-.13-.13-.23-.28-.3-.44-.07-.16-.1-.38-.1-.66v-.46c0-.11,0-.22.02-.34.03-.35.13-.6.32-.75s.43-.23.74-.23.57.06.76.18c.19.12.32.29.4.5l.12.3Z"/><path class="cls-2" d="m184.92,187.99h-.16c-.81,0-1.22-.37-1.22-1.12,0-.47.13-.84.38-1.11.25-.27.6-.41,1.04-.41h.14l.4-1.24c.2-.61.48-1.03.83-1.25.35-.22.81-.33,1.37-.33.44,0,.78.11,1.01.34.23.23.35.54.35.94v1.54h1c.81,0,1.22.37,1.22,1.12,0,.48-.13.85-.39,1.12s-.64.4-1.13.4h-.7v3.18c0,.63.07,1.05.21,1.27s.35.33.63.33c.15,0,.27,0,.38-.03.11-.02.21-.03.32-.03.23,0,.41.08.56.25.15.17.22.38.22.65,0,.24-.05.45-.14.62-.09.17-.22.34-.38.5s-.45.34-.87.53c-.42.19-1.01.29-1.77.29-1.12,0-1.95-.28-2.49-.85-.54-.57-.81-1.48-.81-2.75v-3.96Z"/><path class="cls-2" d="m196.26,191.25c.13.55.4.96.8,1.21.4.25.92.37,1.56.37.33,0,.62-.01.87-.04.25-.03.46-.06.64-.1.18-.04.34-.07.47-.1.13-.03.25-.04.36-.04.28,0,.5.09.67.26s.25.41.25.7c0,.21-.04.4-.11.55s-.18.3-.33.45c-.25.25-.7.51-1.34.76-.64.25-1.51.38-2.62.38-.87,0-1.63-.11-2.3-.34s-1.23-.55-1.68-.98c-.45-.43-.8-.94-1.03-1.53-.23-.59-.35-1.26-.35-2.01,0-.87.13-1.65.39-2.35s.63-1.29,1.11-1.78c.48-.49,1.06-.86,1.75-1.12.69-.26,1.45-.39,2.29-.39,1.49,0,2.62.37,3.39,1.1.77.73,1.15,1.74,1.15,3.02,0,.68-.15,1.18-.45,1.5s-.72.48-1.27.48h-4.22Zm2.16-2c-.03-.57-.13-.96-.31-1.2-.18-.23-.42-.34-.73-.34s-.58.14-.78.41c-.2.27-.33.65-.4,1.13h2.22Z"/><path class="cls-2" d="m204.57,188.17l-.46-.16c-.35-.12-.59-.26-.73-.42-.14-.16-.21-.42-.21-.77s.07-.62.21-.81c.14-.19.36-.33.67-.44s.7-.2,1.17-.27c.47-.07.94-.11,1.39-.11.61,0,1.04.12,1.29.35.25.23.37.62.37,1.17v.4l.04.02c.09-.27.21-.52.36-.77.15-.25.33-.47.54-.66.21-.19.46-.35.74-.47.28-.12.6-.18.96-.18.47,0,.79.13.96.38.17.25.26.63.26,1.14,0,.39-.04.74-.13,1.07-.09.33-.2.61-.34.85-.14.24-.31.43-.5.56-.19.13-.39.2-.59.2-.12,0-.22-.02-.31-.07s-.16-.1-.23-.15c-.07-.05-.14-.1-.21-.15s-.17-.07-.29-.07c-.27,0-.54.13-.82.4v3.64l.6.26c.35.15.58.3.71.46.13.16.19.38.19.67,0,.36-.12.65-.35.87s-.56.34-.99.34h-4.32c-.43,0-.76-.11-.99-.34s-.35-.52-.35-.87c0-.3.07-.54.2-.7.13-.16.35-.31.66-.46l.5-.24v-4.68Z"/><path class="cls-2" d="m211.96,193.31c0-.69.23-1.27.68-1.72s1.03-.68,1.72-.68,1.26.24,1.7.71c.44.47.66,1.14.66,1.99,0,.6-.09,1.18-.26,1.73-.17.55-.39,1.06-.65,1.53s-.55.87-.86,1.22c-.31.35-.62.61-.91.78-.21.13-.44.24-.67.31s-.48.1-.73.09c-.27-.01-.49-.09-.66-.23-.17-.14-.26-.34-.26-.61,0-.21.06-.41.18-.58.12-.17.26-.37.42-.58.16-.21.33-.46.51-.74.18-.28.33-.64.45-1.08-.15-.07-.3-.16-.46-.28-.16-.12-.3-.27-.43-.44-.13-.17-.23-.38-.31-.61-.08-.23-.12-.5-.12-.81Z"/><path class="cls-2" d="m43.51,211.95l-.18-.1c-.33-.19-.57-.39-.7-.61-.13-.22-.2-.49-.2-.82s.11-.56.33-.77c.22-.2.52-.3.91-.3h3.9c.39,0,.69.1.91.3.22.2.33.46.33.77s-.08.57-.23.8c-.15.22-.38.43-.69.62l-.1.06.96,2.87c.07.23.13.45.2.67.07.22.13.42.18.59.05.2.1.38.14.56h.04c.04-.17.09-.36.14-.56.05-.17.11-.37.17-.59.06-.22.13-.44.21-.67l.96-2.87-.1-.06c-.31-.19-.54-.39-.69-.62s-.23-.49-.23-.8.11-.56.33-.77c.22-.2.52-.3.91-.3h3.02c.39,0,.69.1.91.3.22.2.33.46.33.77s-.07.59-.2.82c-.13.22-.37.43-.7.61l-.18.1-2.28,5.83c-.51,1.28-1.03,2.33-1.58,3.16-.55.83-1.11,1.48-1.7,1.96s-1.2.81-1.84,1c-.64.19-1.3.28-1.98.28-.8,0-1.4-.17-1.8-.51s-.6-.8-.6-1.39.14-1,.41-1.28.58-.42.93-.42c.16,0,.3.01.41.04.11.03.23.06.36.09s.27.06.44.09c.17.03.38.04.65.04.16,0,.3,0,.43-.02.13-.01.24-.04.34-.07.1-.03.19-.08.26-.13.07-.05.14-.12.19-.2l-3.32-8.46Z"/><path class="cls-2" d="m55.54,214.75c0-.84.14-1.61.41-2.3.27-.69.67-1.28,1.19-1.77s1.16-.87,1.91-1.14c.75-.27,1.61-.41,2.55-.41,1.75,0,3.09.44,4.01,1.32.92.88,1.38,2.08,1.38,3.6,0,.84-.14,1.61-.41,2.3s-.67,1.28-1.19,1.77c-.52.49-1.16.87-1.91,1.14-.75.27-1.61.41-2.55.41-1.75,0-3.09-.44-4.01-1.32-.92-.88-1.38-2.08-1.38-3.6Zm4.26-.38c0,.44.04.82.13,1.13.09.31.2.57.34.77.14.2.3.35.48.44.18.09.37.14.57.14.4,0,.74-.18,1.01-.54.28-.36.42-.98.42-1.86,0-.44-.04-.82-.13-1.13-.09-.31-.2-.57-.34-.78-.14-.21-.3-.36-.48-.45-.18-.09-.37-.14-.57-.14-.4,0-.74.18-1.01.54-.28.36-.42.99-.42,1.88Z"/><path class="cls-2" d="m68.96,212.17l-.36-.12c-.35-.12-.59-.27-.72-.44-.13-.17-.2-.44-.2-.79s.07-.62.21-.81c.14-.19.36-.33.67-.44s.7-.2,1.18-.27c.48-.07.96-.11,1.44-.11.68,0,1.17.15,1.47.45s.45.79.45,1.47v3.9c0,.61.1,1.04.31,1.29.21.25.49.37.85.37.19,0,.35-.03.49-.1.14-.07.26-.14.37-.22.12-.09.22-.2.3-.32v-3.86l-.46-.16c-.35-.12-.59-.26-.73-.42s-.21-.42-.21-.77.07-.62.21-.81c.14-.19.36-.33.67-.44s.7-.2,1.19-.27c.49-.07,1-.11,1.55-.11.68,0,1.17.15,1.47.45s.45.79.45,1.47v5.58l.4.12c.35.11.58.24.7.39.12.15.18.4.18.75s-.07.6-.2.79c-.13.19-.36.35-.68.47-.32.12-.71.22-1.18.29-.47.07-.87.11-1.22.11-.61,0-1.05-.12-1.31-.35-.26-.23-.39-.63-.39-1.19v-.1l-.04-.02c-.15.33-.35.62-.62.86-.23.21-.53.41-.92.58s-.88.26-1.48.26c-1.27,0-2.22-.32-2.87-.96-.65-.64-.97-1.6-.97-2.89v-3.63Z"/><path class="cls-2" d="m82.64,212.17l-.46-.16c-.35-.12-.59-.26-.73-.42-.14-.16-.21-.42-.21-.77s.07-.62.21-.81c.14-.19.36-.33.67-.44s.7-.2,1.17-.27c.47-.07.94-.11,1.39-.11.61,0,1.04.12,1.29.35.25.23.37.62.37,1.17v.4l.04.02c.09-.27.21-.52.36-.77.15-.25.33-.47.54-.66.21-.19.46-.35.74-.47.28-.12.6-.18.96-.18.47,0,.79.13.96.38.17.25.26.63.26,1.14,0,.39-.04.74-.13,1.07-.09.33-.2.61-.34.85-.14.24-.31.43-.5.56-.19.13-.39.2-.59.2-.12,0-.22-.02-.31-.07s-.16-.1-.23-.15c-.07-.05-.14-.1-.21-.15s-.17-.07-.29-.07c-.27,0-.54.13-.82.4v3.64l.6.26c.35.15.58.3.71.46.13.16.19.38.19.67,0,.36-.12.65-.35.87s-.56.34-.99.34h-4.32c-.43,0-.76-.11-.99-.34s-.35-.52-.35-.87c0-.3.07-.54.2-.7.13-.16.35-.31.66-.46l.5-.24v-4.68Z"/><path class="cls-2" d="m96.86,212.17l-.46-.16c-.35-.12-.59-.26-.73-.42-.14-.16-.21-.42-.21-.77s.07-.62.21-.81c.14-.19.36-.33.67-.44s.7-.2,1.17-.27c.47-.07.94-.11,1.39-.11.61,0,1.04.12,1.29.35.25.23.37.63.37,1.19v.1l.04.02c.15-.32.35-.6.62-.84.23-.21.53-.41.92-.59.39-.18.88-.27,1.48-.27.95,0,1.68.16,2.21.47.53.31.92.72,1.19,1.23.15-.32.36-.6.64-.84.23-.21.54-.41.93-.59.39-.18.89-.27,1.49-.27,1.27,0,2.22.32,2.87.96.65.64.97,1.61.97,2.9v3.82l.38.2c.32.17.54.34.67.5s.19.39.19.7c0,.36-.12.65-.35.88s-.56.34-.99.34h-3.54c-.44,0-.78-.11-1.02-.34s-.36-.52-.36-.88c0-.29.05-.52.14-.68.09-.16.27-.34.54-.54l.2-.16v-3.06c0-.61-.1-1.04-.31-1.29-.21-.25-.49-.37-.85-.37-.19,0-.35.03-.49.1-.14.07-.26.14-.37.22-.12.09-.22.2-.3.32v4.08l.2.16c.27.2.45.38.54.54.09.16.14.39.14.68,0,.36-.12.65-.36.88s-.58.34-1.02.34h-3.14c-.44,0-.78-.11-1.02-.34s-.36-.52-.36-.88c0-.29.05-.52.14-.68.09-.16.27-.34.54-.54l.2-.16v-3.06c0-.61-.1-1.04-.31-1.29-.21-.25-.49-.37-.85-.37-.19,0-.35.03-.49.1-.14.07-.26.14-.37.22-.12.09-.22.2-.3.32v4.1l.2.16c.27.2.45.38.54.54.09.16.14.38.14.67,0,.34-.12.63-.36.86s-.58.35-1.02.35h-3.66c-.43,0-.76-.11-.99-.34s-.35-.52-.35-.87c0-.3.07-.54.2-.7.13-.16.35-.31.66-.46l.5-.24v-4.68Z"/><path class="cls-2" d="m115.9,214.75c0-.84.14-1.61.41-2.3.27-.69.67-1.28,1.19-1.77s1.16-.87,1.91-1.14c.75-.27,1.61-.41,2.55-.41,1.75,0,3.09.44,4.01,1.32.92.88,1.38,2.08,1.38,3.6,0,.84-.14,1.61-.41,2.3s-.67,1.28-1.19,1.77c-.52.49-1.16.87-1.91,1.14-.75.27-1.61.41-2.55.41-1.75,0-3.09-.44-4.01-1.32-.92-.88-1.38-2.08-1.38-3.6Zm4.26-.38c0,.44.04.82.13,1.13.09.31.2.57.34.77.14.2.3.35.48.44.18.09.37.14.57.14.4,0,.74-.18,1.01-.54.28-.36.42-.98.42-1.86,0-.44-.04-.82-.13-1.13-.09-.31-.2-.57-.34-.78-.14-.21-.3-.36-.48-.45-.18-.09-.37-.14-.57-.14-.4,0-.74.18-1.01.54-.28.36-.42.99-.42,1.88Z"/><path class="cls-2" d="m129.32,211.99h-.16c-.81,0-1.22-.37-1.22-1.12,0-.47.13-.84.38-1.11.25-.27.6-.41,1.04-.41h.14l.4-1.24c.2-.61.48-1.03.83-1.25.35-.22.81-.33,1.37-.33.44,0,.78.11,1.01.34.23.23.35.54.35.94v1.54h1c.81,0,1.22.37,1.22,1.12,0,.48-.13.85-.39,1.12s-.64.4-1.13.4h-.7v3.18c0,.63.07,1.05.21,1.27s.35.33.63.33c.15,0,.27,0,.38-.03.11-.02.21-.03.32-.03.23,0,.41.08.56.25.15.17.22.38.22.65,0,.24-.05.45-.14.62-.09.17-.22.34-.38.5s-.45.34-.87.53c-.42.19-1.01.29-1.77.29-1.12,0-1.95-.28-2.49-.85-.54-.57-.81-1.48-.81-2.75v-3.96Z"/><path class="cls-2" d="m137.44,207.89l-.36-.12c-.35-.12-.59-.27-.72-.44-.13-.17-.2-.44-.2-.79s.07-.62.21-.8c.14-.19.36-.34.67-.44s.7-.2,1.18-.27c.48-.07.96-.11,1.44-.11.68,0,1.17.15,1.47.45s.45.79.45,1.47v1.54c0,.31-.01.64-.04.99-.03.35-.07.7-.14,1.03l.04.02c.17-.23.39-.43.64-.62.23-.16.51-.31.85-.44s.76-.2,1.27-.2c1.27,0,2.22.32,2.87.96.65.64.97,1.61.97,2.9v3.82l.38.2c.32.17.54.34.67.5s.19.39.19.7c0,.36-.12.65-.35.88s-.56.34-.99.34h-3.54c-.44,0-.78-.11-1.02-.34s-.36-.52-.36-.88c0-.29.05-.52.14-.68.09-.16.27-.34.54-.54l.2-.16v-3.06c0-.61-.1-1.04-.31-1.29-.21-.25-.49-.37-.85-.37-.19,0-.35.03-.49.1s-.26.14-.37.22c-.12.09-.22.2-.3.32v4.1l.2.16c.27.2.45.38.54.54.09.16.14.38.14.67,0,.36-.12.65-.36.87-.24.22-.58.34-1.02.34h-3.54c-.43,0-.76-.11-.99-.34s-.35-.52-.35-.87c0-.3.06-.54.19-.7.13-.16.35-.32.67-.5l.38-.2v-8.96Z"/><path class="cls-2" d="m154.16,215.25c.13.55.4.96.8,1.21.4.25.92.37,1.56.37.33,0,.62-.01.87-.04.25-.03.46-.06.64-.1.18-.04.34-.07.47-.1.13-.03.25-.04.36-.04.28,0,.5.09.67.26s.25.41.25.7c0,.21-.04.4-.11.55s-.18.3-.33.45c-.25.25-.7.51-1.34.76-.64.25-1.51.38-2.62.38-.87,0-1.63-.11-2.3-.34s-1.23-.55-1.68-.98c-.45-.43-.8-.94-1.03-1.53-.23-.59-.35-1.26-.35-2.01,0-.87.13-1.65.39-2.35s.63-1.29,1.11-1.78c.48-.49,1.06-.86,1.75-1.12.69-.26,1.45-.39,2.29-.39,1.49,0,2.62.37,3.39,1.1.77.73,1.15,1.74,1.15,3.02,0,.68-.15,1.18-.45,1.5s-.72.48-1.27.48h-4.22Zm2.16-2c-.03-.57-.13-.96-.31-1.2-.18-.23-.42-.34-.73-.34s-.58.14-.78.41c-.2.27-.33.65-.4,1.13h2.22Z"/><path class="cls-2" d="m162.48,212.17l-.46-.16c-.35-.12-.59-.26-.73-.42-.14-.16-.21-.42-.21-.77s.07-.62.21-.81c.14-.19.36-.33.67-.44s.7-.2,1.17-.27c.47-.07.94-.11,1.39-.11.61,0,1.04.12,1.29.35.25.23.37.62.37,1.17v.4l.04.02c.09-.27.21-.52.36-.77.15-.25.33-.47.54-.66.21-.19.46-.35.74-.47.28-.12.6-.18.96-.18.47,0,.79.13.96.38.17.25.26.63.26,1.14,0,.39-.04.74-.13,1.07-.09.33-.2.61-.34.85-.14.24-.31.43-.5.56-.19.13-.39.2-.59.2-.12,0-.22-.02-.31-.07s-.16-.1-.23-.15c-.07-.05-.14-.1-.21-.15s-.17-.07-.29-.07c-.27,0-.54.13-.82.4v3.64l.6.26c.35.15.58.3.71.46.13.16.19.38.19.67,0,.36-.12.65-.35.87s-.56.34-.99.34h-4.32c-.43,0-.76-.11-.99-.34s-.35-.52-.35-.87c0-.3.07-.54.2-.7.13-.16.35-.31.66-.46l.5-.24v-4.68Z"/><path class="cls-2" d="m169.86,217.31c0-.69.23-1.27.68-1.72s1.03-.68,1.72-.68,1.26.24,1.7.71c.44.47.66,1.14.66,1.99,0,.6-.09,1.18-.26,1.73-.17.55-.39,1.06-.65,1.53s-.55.87-.86,1.22c-.31.35-.62.61-.91.78-.21.13-.44.24-.67.31s-.48.1-.73.09c-.27-.01-.49-.09-.66-.23-.17-.14-.26-.34-.26-.61,0-.21.06-.41.18-.58.12-.17.26-.37.42-.58.16-.21.33-.46.51-.74.18-.28.33-.64.45-1.08-.15-.07-.3-.16-.46-.28-.16-.12-.3-.27-.43-.44-.13-.17-.23-.38-.31-.61-.08-.23-.12-.5-.12-.81Z"/><path class="cls-2" d="m181.57,211.95l-.18-.1c-.33-.19-.57-.39-.7-.61-.13-.22-.2-.49-.2-.82s.11-.56.33-.77c.22-.2.52-.3.91-.3h3.9c.39,0,.69.1.91.3.22.2.33.46.33.77s-.08.57-.23.8c-.15.22-.38.43-.69.62l-.1.06.96,2.87c.07.23.13.45.2.67.07.22.13.42.18.59.05.2.1.38.14.56h.04c.04-.17.09-.36.14-.56.05-.17.11-.37.17-.59.06-.22.13-.44.21-.67l.96-2.87-.1-.06c-.31-.19-.54-.39-.69-.62s-.23-.49-.23-.8.11-.56.33-.77c.22-.2.52-.3.91-.3h3.02c.39,0,.69.1.91.3.22.2.33.46.33.77s-.07.59-.2.82c-.13.22-.37.43-.7.61l-.18.1-2.28,5.83c-.51,1.28-1.03,2.33-1.58,3.16-.55.83-1.11,1.48-1.7,1.96s-1.2.81-1.84,1c-.64.19-1.3.28-1.98.28-.8,0-1.4-.17-1.8-.51s-.6-.8-.6-1.39.14-1,.41-1.28.58-.42.93-.42c.16,0,.3.01.41.04.11.03.23.06.36.09s.27.06.44.09c.17.03.38.04.65.04.16,0,.3,0,.43-.02.13-.01.24-.04.34-.07.1-.03.19-.08.26-.13.07-.05.14-.12.19-.2l-3.32-8.46Z"/><path class="cls-2" d="m193.6,214.75c0-.84.14-1.61.41-2.3.27-.69.67-1.28,1.19-1.77s1.16-.87,1.91-1.14c.75-.27,1.61-.41,2.55-.41,1.75,0,3.09.44,4.01,1.32.92.88,1.38,2.08,1.38,3.6,0,.84-.14,1.61-.41,2.3s-.67,1.28-1.19,1.77c-.52.49-1.16.87-1.91,1.14-.75.27-1.61.41-2.55.41-1.75,0-3.09-.44-4.01-1.32-.92-.88-1.38-2.08-1.38-3.6Zm4.26-.38c0,.44.04.82.13,1.13.09.31.2.57.34.77.14.2.3.35.48.44.18.09.37.14.57.14.4,0,.74-.18,1.01-.54.28-.36.42-.98.42-1.86,0-.44-.04-.82-.13-1.13-.09-.31-.2-.57-.34-.78-.14-.21-.3-.36-.48-.45-.18-.09-.37-.14-.57-.14-.4,0-.74.18-1.01.54-.28.36-.42.99-.42,1.88Z"/><path class="cls-2" d="m207.02,212.17l-.36-.12c-.35-.12-.59-.27-.72-.44-.13-.17-.2-.44-.2-.79s.07-.62.21-.81c.14-.19.36-.33.67-.44s.7-.2,1.18-.27c.48-.07.96-.11,1.44-.11.68,0,1.17.15,1.47.45s.45.79.45,1.47v3.9c0,.61.1,1.04.31,1.29.21.25.49.37.85.37.19,0,.35-.03.49-.1.14-.07.26-.14.37-.22.12-.09.22-.2.3-.32v-3.86l-.46-.16c-.35-.12-.59-.26-.73-.42s-.21-.42-.21-.77.07-.62.21-.81c.14-.19.36-.33.67-.44s.7-.2,1.19-.27c.49-.07,1-.11,1.55-.11.68,0,1.17.15,1.47.45s.45.79.45,1.47v5.58l.4.12c.35.11.58.24.7.39.12.15.18.4.18.75s-.07.6-.2.79c-.13.19-.36.35-.68.47-.32.12-.71.22-1.18.29-.47.07-.87.11-1.22.11-.61,0-1.05-.12-1.31-.35-.26-.23-.39-.63-.39-1.19v-.1l-.04-.02c-.15.33-.35.62-.62.86-.23.21-.53.41-.92.58s-.88.26-1.48.26c-1.27,0-2.22-.32-2.87-.96-.65-.64-.97-1.6-.97-2.89v-3.63Z"/><path class="cls-2" d="m220.7,212.17l-.46-.16c-.35-.12-.59-.26-.73-.42-.14-.16-.21-.42-.21-.77s.07-.62.21-.81c.14-.19.36-.33.67-.44s.7-.2,1.17-.27c.47-.07.94-.11,1.39-.11.61,0,1.04.12,1.29.35.25.23.37.62.37,1.17v.4l.04.02c.09-.27.21-.52.36-.77.15-.25.33-.47.54-.66.21-.19.46-.35.74-.47.28-.12.6-.18.96-.18.47,0,.79.13.96.38.17.25.26.63.26,1.14,0,.39-.04.74-.13,1.07-.09.33-.2.61-.34.85-.14.24-.31.43-.5.56-.19.13-.39.2-.59.2-.12,0-.22-.02-.31-.07s-.16-.1-.23-.15c-.07-.05-.14-.1-.21-.15s-.17-.07-.29-.07c-.27,0-.54.13-.82.4v3.64l.6.26c.35.15.58.3.71.46.13.16.19.38.19.67,0,.36-.12.65-.35.87s-.56.34-.99.34h-4.32c-.43,0-.76-.11-.99-.34s-.35-.52-.35-.87c0-.3.07-.54.2-.7.13-.16.35-.31.66-.46l.5-.24v-4.68Z"/><path class="cls-2" d="m73.83,235.95l-.18-.1c-.33-.19-.57-.39-.7-.61-.13-.22-.2-.49-.2-.82s.11-.56.33-.77c.22-.2.52-.3.91-.3h3.88c.39,0,.69.1.91.3.22.2.33.46.33.77s-.08.57-.23.8-.38.43-.69.62l-.1.06.7,2.67c.07.27.13.52.18.76.05.24.09.45.12.64.04.23.07.42.1.6h.04c.01-.19.03-.39.06-.6.03-.19.06-.4.09-.64s.08-.49.15-.76l.64-3c.17-.84.46-1.43.85-1.78.39-.35.99-.52,1.79-.52s1.4.17,1.79.52c.39.35.68.94.85,1.78l.62,3c.05.27.1.52.14.76s.07.45.1.64c.03.21.05.41.06.6h.04c.03-.19.06-.39.1-.62.03-.19.07-.4.12-.64s.11-.48.18-.74l.72-2.67-.1-.06c-.31-.19-.54-.39-.69-.62s-.23-.49-.23-.8.11-.56.33-.77c.22-.2.52-.3.91-.3h2.94c.39,0,.69.1.91.3.22.2.33.46.33.77s-.07.59-.2.82c-.13.22-.37.43-.7.61l-.18.1-1.8,5.49c-.24.74-.58,1.28-1.01,1.62-.43.33-1.08.5-1.93.5s-1.5-.17-1.95-.5c-.45-.33-.75-.87-.91-1.62l-.52-2.48c-.05-.24-.1-.48-.13-.73s-.06-.46-.09-.65c-.03-.23-.05-.44-.06-.64h-.04c-.01.21-.03.43-.06.66-.03.19-.06.4-.09.65-.03.25-.08.49-.13.73l-.52,2.46c-.16.75-.47,1.29-.94,1.62s-1.14.5-2.02.5c-.45,0-.84-.04-1.17-.12-.33-.08-.61-.21-.85-.38s-.44-.39-.6-.66-.3-.58-.42-.96l-1.78-5.49Z"/><path class="cls-2" d="m93.72,236.17l-.46-.16c-.35-.12-.59-.26-.73-.42-.14-.16-.21-.42-.21-.77s.07-.62.21-.81c.14-.19.36-.33.67-.44s.7-.2,1.19-.27c.49-.07,1-.11,1.55-.11.68,0,1.17.15,1.47.45s.45.79.45,1.47v5.74l.38.2c.32.17.54.34.67.5.13.16.19.39.19.7,0,.36-.12.65-.35.87s-.56.34-.99.34h-4.06c-.43,0-.76-.11-.99-.34s-.35-.52-.35-.87c0-.3.06-.54.19-.7.13-.16.35-.31.67-.46l.5-.24v-4.68Zm-.22-5.56c0-.57.2-1.06.61-1.46.41-.4.96-.6,1.65-.6s1.24.19,1.63.58c.39.39.59.87.59,1.44s-.2,1.06-.61,1.46c-.41.4-.96.6-1.65.6s-1.24-.19-1.63-.57-.59-.86-.59-1.45Z"/><path class="cls-2" d="m100.94,235.99h-.28c-.81,0-1.22-.37-1.22-1.12,0-.47.12-.84.37-1.11s.58-.41.99-.41h.14v-.28c0-1.29.41-2.32,1.24-3.08s2.08-1.14,3.76-1.14c.47,0,.87.05,1.21.16.34.11.58.23.73.38.07.07.12.13.16.2.04.07.07.14.1.23s.04.2.05.33c0,.13.01.29.01.48v.48c0,.11,0,.26-.02.46-.03.35-.13.59-.32.73-.19.14-.42.21-.7.21s-.51-.06-.69-.18-.31-.29-.39-.52l-.18-.5s-.06,0-.1-.02c-.03,0-.06,0-.1,0s-.09,0-.14,0c-.2,0-.35.07-.44.21-.09.14-.13.42-.1.83l.06,1.04h.68c.81,0,1.22.37,1.22,1.12,0,.48-.13.85-.39,1.12s-.64.4-1.13.4h-.38v4.86l.6.26c.35.15.58.3.71.46.13.16.19.38.19.67,0,.36-.12.65-.35.87s-.56.34-.99.34h-4.32c-.43,0-.76-.11-.99-.34s-.35-.52-.35-.87c0-.3.06-.54.19-.7.13-.16.35-.31.67-.46l.5-.24v-4.86Z"/><path class="cls-2" d="m111.62,239.25c.13.55.4.96.8,1.21.4.25.92.37,1.56.37.33,0,.62-.01.87-.04.25-.03.46-.06.64-.1.18-.04.34-.07.47-.1.13-.03.25-.04.36-.04.28,0,.5.09.67.26s.25.41.25.7c0,.21-.04.4-.11.55s-.18.3-.33.45c-.25.25-.7.51-1.34.76-.64.25-1.51.38-2.62.38-.87,0-1.63-.11-2.3-.34s-1.23-.55-1.68-.98c-.45-.43-.8-.94-1.03-1.53-.23-.59-.35-1.26-.35-2.01,0-.87.13-1.65.39-2.35s.63-1.29,1.11-1.78c.48-.49,1.06-.86,1.75-1.12.69-.26,1.45-.39,2.29-.39,1.49,0,2.62.37,3.39,1.1.77.73,1.15,1.74,1.15,3.02,0,.68-.15,1.18-.45,1.5s-.72.48-1.27.48h-4.22Zm2.16-2c-.03-.57-.13-.96-.31-1.2-.18-.23-.42-.34-.73-.34s-.58.14-.78.41c-.2.27-.33.65-.4,1.13h2.22Z"/><path class="cls-2" d="m123.72,238.75c0-.84.14-1.61.41-2.3.27-.69.67-1.28,1.19-1.77s1.16-.87,1.91-1.14c.75-.27,1.61-.41,2.55-.41,1.75,0,3.09.44,4.01,1.32.92.88,1.38,2.08,1.38,3.6,0,.84-.14,1.61-.41,2.3s-.67,1.28-1.19,1.77c-.52.49-1.16.87-1.91,1.14-.75.27-1.61.41-2.55.41-1.75,0-3.09-.44-4.01-1.32-.92-.88-1.38-2.08-1.38-3.6Zm4.26-.38c0,.44.04.82.13,1.13.09.31.2.57.34.77.14.2.3.35.48.44.18.09.37.14.57.14.4,0,.74-.18,1.01-.54.28-.36.42-.98.42-1.86,0-.44-.04-.82-.13-1.13-.09-.31-.2-.57-.34-.78-.14-.21-.3-.36-.48-.45-.18-.09-.37-.14-.57-.14-.4,0-.74.18-1.01.54-.28.36-.42.99-.42,1.88Z"/><path class="cls-2" d="m137.42,236.17l-.46-.16c-.35-.12-.59-.26-.73-.42-.14-.16-.21-.42-.21-.77s.07-.62.21-.81c.14-.19.36-.33.67-.44s.7-.2,1.17-.27c.47-.07.94-.11,1.39-.11.61,0,1.04.12,1.29.35.25.23.37.62.37,1.17v.4l.04.02c.09-.27.21-.52.36-.77.15-.25.33-.47.54-.66.21-.19.46-.35.74-.47.28-.12.6-.18.96-.18.47,0,.79.13.96.38.17.25.26.63.26,1.14,0,.39-.04.74-.13,1.07-.09.33-.2.61-.34.85-.14.24-.31.43-.5.56-.19.13-.39.2-.59.2-.12,0-.22-.02-.31-.07s-.16-.1-.23-.15c-.07-.05-.14-.1-.21-.15s-.17-.07-.29-.07c-.27,0-.54.13-.82.4v3.64l.6.26c.35.15.58.3.71.46.13.16.19.38.19.67,0,.36-.12.65-.35.87s-.56.34-.99.34h-4.32c-.43,0-.76-.11-.99-.34s-.35-.52-.35-.87c0-.3.07-.54.2-.7.13-.16.35-.31.66-.46l.5-.24v-4.68Z"/><path class="cls-2" d="m151.25,235.95l-.18-.1c-.33-.19-.57-.39-.7-.61-.13-.22-.2-.49-.2-.82s.11-.56.33-.77c.22-.2.52-.3.91-.3h3.9c.39,0,.69.1.91.3.22.2.33.46.33.77s-.08.57-.23.8c-.15.22-.38.43-.69.62l-.1.06.96,2.87c.07.23.13.45.2.67.07.22.13.42.18.59.05.2.1.38.14.56h.04c.04-.17.09-.36.14-.56.05-.17.11-.37.17-.59.06-.22.13-.44.21-.67l.96-2.87-.1-.06c-.31-.19-.54-.39-.69-.62s-.23-.49-.23-.8.11-.56.33-.77c.22-.2.52-.3.91-.3h3.02c.39,0,.69.1.91.3.22.2.33.46.33.77s-.07.59-.2.82c-.13.22-.37.43-.7.61l-.18.1-2.28,5.83c-.51,1.28-1.03,2.33-1.58,3.16-.55.83-1.11,1.48-1.7,1.96s-1.2.81-1.84,1c-.64.19-1.3.28-1.98.28-.8,0-1.4-.17-1.8-.51s-.6-.8-.6-1.39.14-1,.41-1.28.58-.42.93-.42c.16,0,.3.01.41.04.11.03.23.06.36.09s.27.06.44.09c.17.03.38.04.65.04.16,0,.3,0,.43-.02.13-.01.24-.04.34-.07.1-.03.19-.08.26-.13.07-.05.14-.12.19-.2l-3.32-8.46Z"/><path class="cls-2" d="m163.28,238.75c0-.84.14-1.61.41-2.3.27-.69.67-1.28,1.19-1.77s1.16-.87,1.91-1.14c.75-.27,1.61-.41,2.55-.41,1.75,0,3.09.44,4.01,1.32.92.88,1.38,2.08,1.38,3.6,0,.84-.14,1.61-.41,2.3s-.67,1.28-1.19,1.77c-.52.49-1.16.87-1.91,1.14-.75.27-1.61.41-2.55.41-1.75,0-3.09-.44-4.01-1.32-.92-.88-1.38-2.08-1.38-3.6Zm4.26-.38c0,.44.04.82.13,1.13.09.31.2.57.34.77.14.2.3.35.48.44.18.09.37.14.57.14.4,0,.74-.18,1.01-.54.28-.36.42-.98.42-1.86,0-.44-.04-.82-.13-1.13-.09-.31-.2-.57-.34-.78-.14-.21-.3-.36-.48-.45-.18-.09-.37-.14-.57-.14-.4,0-.74.18-1.01.54-.28.36-.42.99-.42,1.88Z"/><path class="cls-2" d="m176.7,236.17l-.36-.12c-.35-.12-.59-.27-.72-.44-.13-.17-.2-.44-.2-.79s.07-.62.21-.81c.14-.19.36-.33.67-.44s.7-.2,1.18-.27c.48-.07.96-.11,1.44-.11.68,0,1.17.15,1.47.45s.45.79.45,1.47v3.9c0,.61.1,1.04.31,1.29.21.25.49.37.85.37.19,0,.35-.03.49-.1.14-.07.26-.14.37-.22.12-.09.22-.2.3-.32v-3.86l-.46-.16c-.35-.12-.59-.26-.73-.42s-.21-.42-.21-.77.07-.62.21-.81c.14-.19.36-.33.67-.44s.7-.2,1.19-.27c.49-.07,1-.11,1.55-.11.68,0,1.17.15,1.47.45s.45.79.45,1.47v5.58l.4.12c.35.11.58.24.7.39.12.15.18.4.18.75s-.07.6-.2.79c-.13.19-.36.35-.68.47-.32.12-.71.22-1.18.29-.47.07-.87.11-1.22.11-.61,0-1.05-.12-1.31-.35-.26-.23-.39-.63-.39-1.19v-.1l-.04-.02c-.15.33-.35.62-.62.86-.23.21-.53.41-.92.58s-.88.26-1.48.26c-1.27,0-2.22-.32-2.87-.96-.65-.64-.97-1.6-.97-2.89v-3.63Z"/><path class="cls-2" d="m190.38,236.17l-.46-.16c-.35-.12-.59-.26-.73-.42-.14-.16-.21-.42-.21-.77s.07-.62.21-.81c.14-.19.36-.33.67-.44s.7-.2,1.17-.27c.47-.07.94-.11,1.39-.11.61,0,1.04.12,1.29.35.25.23.37.62.37,1.17v.4l.04.02c.09-.27.21-.52.36-.77.15-.25.33-.47.54-.66.21-.19.46-.35.74-.47.28-.12.6-.18.96-.18.47,0,.79.13.96.38.17.25.26.63.26,1.14,0,.39-.04.74-.13,1.07-.09.33-.2.61-.34.85-.14.24-.31.43-.5.56-.19.13-.39.2-.59.2-.12,0-.22-.02-.31-.07s-.16-.1-.23-.15c-.07-.05-.14-.1-.21-.15s-.17-.07-.29-.07c-.27,0-.54.13-.82.4v3.64l.6.26c.35.15.58.3.71.46.13.16.19.38.19.67,0,.36-.12.65-.35.87s-.56.34-.99.34h-4.32c-.43,0-.76-.11-.99-.34s-.35-.52-.35-.87c0-.3.07-.54.2-.7.13-.16.35-.31.66-.46l.5-.24v-4.68Z"/><path class="cls-2" d="m60.91,255.83l-.5-.16c-.35-.11-.59-.24-.73-.41-.14-.17-.21-.42-.21-.75s.07-.59.21-.78c.14-.19.36-.33.67-.44.31-.11.7-.2,1.19-.27.49-.07,1-.11,1.55-.11.68,0,1.17.15,1.47.45s.45.79.45,1.47v9.86l.4.12c.35.11.58.24.7.39s.18.4.18.75-.07.6-.2.79c-.13.19-.36.35-.68.47-.32.12-.71.22-1.18.29-.47.07-.87.11-1.22.11-.61,0-1.05-.12-1.31-.35-.26-.23-.39-.63-.39-1.19v-.1l-.04-.02c-.15.33-.35.62-.62.86-.23.21-.53.41-.92.58s-.88.26-1.48.26c-1.27,0-2.26-.39-2.98-1.17s-1.08-1.98-1.08-3.61c0-.89.13-1.7.39-2.41.26-.71.64-1.31,1.15-1.8.51-.49,1.13-.86,1.87-1.12.74-.26,1.59-.39,2.55-.39.11,0,.21,0,.3,0,.09,0,.17.02.24.03.08.01.15.02.22.02l.04-.04c-.01-.09-.02-.19-.03-.29,0-.1,0-.2,0-.31v-.74Zm-.04,4.14c-.05-.01-.11-.03-.18-.04-.07-.01-.14-.02-.22-.03s-.17,0-.28,0c-.57,0-1,.19-1.3.58s-.45,1.05-.45,2c0,.83.12,1.4.37,1.72.24.32.55.48.9.48.18,0,.35-.03.49-.1.14-.07.26-.14.37-.22.12-.09.22-.2.3-.32v-4.06Z"/><path class="cls-2" d="m73.15,261.18c0-.42-.11-.73-.33-.92-.22-.2-.62-.29-1.19-.29-.41,0-.77.02-1.08.07s-.57.1-.8.15-.43.1-.61.15c-.18.05-.35.07-.51.07-.31,0-.55-.1-.74-.31-.19-.21-.28-.46-.28-.75,0-.33.13-.63.38-.88.13-.13.34-.28.62-.44s.62-.3,1.03-.43c.41-.13.88-.23,1.41-.32.53-.09,1.12-.13,1.76-.13,1.57,0,2.71.31,3.42.93.71.62,1.06,1.46,1.06,2.51,0,.67,0,1.33-.02,1.98-.01.65,0,1.36.04,2.12l.4.12c.35.11.58.24.7.39s.18.4.18.75-.07.6-.2.79c-.13.19-.36.35-.68.47-.32.12-.71.22-1.18.29-.47.07-.89.11-1.28.11-.6,0-1.03-.12-1.3-.36-.27-.24-.4-.59-.4-1.06v-.08l-.04-.02c-.15.29-.35.55-.62.78-.23.2-.53.38-.91.54s-.85.24-1.41.24-1.04-.08-1.48-.24c-.44-.16-.81-.38-1.12-.67-.31-.29-.54-.63-.71-1.02-.17-.39-.25-.82-.25-1.27,0-.39.09-.76.28-1.12.19-.36.47-.68.86-.95s.89-.49,1.5-.66,1.35-.25,2.22-.25c.19,0,.35,0,.5,0s.28.02.4.03c.13.01.26.03.38.04v-.37Zm-.04,2.33c-.05-.01-.12-.03-.2-.04-.07-.01-.15-.02-.25-.03s-.21,0-.33,0c-.39,0-.67.06-.85.17-.18.11-.27.28-.27.49s.08.39.23.53c.15.14.35.21.59.21.19,0,.34-.02.47-.07s.24-.1.33-.17c.11-.07.2-.15.28-.24v-.84Z"/><path class="cls-2" d="m80.05,260.17l-.36-.12c-.35-.12-.59-.27-.72-.44-.13-.17-.2-.44-.2-.79s.07-.62.21-.81c.14-.19.36-.33.67-.44s.7-.2,1.18-.27c.48-.07.96-.11,1.44-.11.68,0,1.17.15,1.47.45s.45.79.45,1.47v3.9c0,.61.1,1.04.31,1.29.21.25.49.37.85.37.19,0,.35-.03.49-.1.14-.07.26-.14.37-.22.12-.09.22-.2.3-.32v-3.86l-.46-.16c-.35-.12-.59-.26-.73-.42s-.21-.42-.21-.77.07-.62.21-.81c.14-.19.36-.33.67-.44s.7-.2,1.19-.27c.49-.07,1-.11,1.55-.11.68,0,1.17.15,1.47.45s.45.79.45,1.47v5.58l.4.12c.35.11.58.24.7.39.12.15.18.4.18.75s-.07.6-.2.79c-.13.19-.36.35-.68.47-.32.12-.71.22-1.18.29-.47.07-.87.11-1.22.11-.61,0-1.05-.12-1.31-.35-.26-.23-.39-.63-.39-1.19v-.1l-.04-.02c-.15.33-.35.62-.62.86-.23.21-.53.41-.92.58s-.88.26-1.48.26c-1.27,0-2.22-.32-2.87-.96-.65-.64-.97-1.6-.97-2.89v-3.63Z"/><path class="cls-2" d="m99.05,265.43c1.4,0,2.44.25,3.11.75.67.5,1.01,1.2,1.01,2.09,0,.53-.12,1.04-.37,1.52-.25.48-.62.9-1.13,1.27-.51.37-1.14.66-1.91.87-.77.21-1.66.32-2.69.32-.91,0-1.67-.07-2.28-.2-.61-.13-1.1-.32-1.47-.56-.37-.24-.63-.52-.79-.83-.16-.31-.24-.65-.24-1.01,0-.25.04-.49.12-.71s.19-.42.34-.6c.15-.18.32-.34.53-.48.21-.14.44-.26.69-.35-.29-.19-.52-.41-.68-.66s-.24-.57-.24-.96c0-.2.03-.39.1-.58.07-.19.16-.37.28-.54.12-.17.27-.33.44-.48.17-.15.36-.27.56-.38-.37-.23-.72-.56-1.04-1-.32-.44-.48-1-.48-1.68,0-.6.11-1.15.32-1.65.21-.5.53-.93.96-1.29.43-.36.96-.64,1.59-.84.63-.2,1.37-.3,2.21-.3.21,0,.41,0,.59.02.18.01.34.03.47.06.15.03.28.05.4.08.36-.65.72-1.17,1.08-1.54.36-.37.79-.56,1.3-.56.43,0,.78.14,1.06.41.28.27.42.58.42.91,0,.21-.05.4-.15.55-.1.15-.23.3-.4.44s-.36.28-.57.43c-.21.15-.43.31-.64.5.19.2.37.47.54.82.17.35.26.77.26,1.26,0,.6-.11,1.15-.32,1.65-.21.5-.53.93-.96,1.29-.43.36-.96.64-1.59.84-.63.2-1.37.3-2.21.3h-.37c-.11,0-.22,0-.31-.02-.11-.01-.21-.03-.3-.04-.01.04-.03.08-.04.12-.01.03-.02.06-.03.11s0,.09,0,.13c0,.08.02.15.05.22.03.07.11.12.22.16s.27.07.47.1c.2.03.47.04.8.04h1.3Zm-1.7,2.72h-.47c-.13,0-.24,0-.33-.02-.11,0-.19,0-.26-.02-.03.05-.05.11-.08.18-.03.07-.05.14-.06.21-.01.07-.02.16-.02.27,0,.27.11.49.32.66.21.17.59.26,1.14.26.6,0,1.02-.1,1.27-.3.25-.2.37-.41.37-.62,0-.19-.07-.34-.21-.45-.14-.11-.4-.17-.79-.17h-.88Zm-.72-7.32c0,.38.09.67.28.88.19.2.43.31.74.31s.53-.1.71-.29c.18-.19.27-.46.27-.79,0-.38-.09-.67-.28-.88-.19-.2-.43-.31-.74-.31s-.53.1-.71.29c-.18.19-.27.46-.27.79Z"/><path class="cls-2" d="m104.75,255.89l-.36-.12c-.35-.12-.59-.27-.72-.44-.13-.17-.2-.44-.2-.79s.07-.62.21-.8c.14-.19.36-.34.67-.44s.7-.2,1.18-.27c.48-.07.96-.11,1.44-.11.68,0,1.17.15,1.47.45s.45.79.45,1.47v1.54c0,.31-.01.64-.04.99-.03.35-.07.7-.14,1.03l.04.02c.17-.23.39-.43.64-.62.23-.16.51-.31.85-.44s.76-.2,1.27-.2c1.27,0,2.22.32,2.87.96.65.64.97,1.61.97,2.9v3.82l.38.2c.32.17.54.34.67.5s.19.39.19.7c0,.36-.12.65-.35.88s-.56.34-.99.34h-3.54c-.44,0-.78-.11-1.02-.34s-.36-.52-.36-.88c0-.29.05-.52.14-.68.09-.16.27-.34.54-.54l.2-.16v-3.06c0-.61-.1-1.04-.31-1.29-.21-.25-.49-.37-.85-.37-.19,0-.35.03-.49.1s-.26.14-.37.22c-.12.09-.22.2-.3.32v4.1l.2.16c.27.2.45.38.54.54.09.16.14.38.14.67,0,.36-.12.65-.36.87-.24.22-.58.34-1.02.34h-3.54c-.43,0-.76-.11-.99-.34s-.35-.52-.35-.87c0-.3.06-.54.19-.7.13-.16.35-.32.67-.5l.38-.2v-8.96Z"/><path class="cls-2" d="m118.07,259.99h-.16c-.81,0-1.22-.37-1.22-1.12,0-.47.13-.84.38-1.11.25-.27.6-.41,1.04-.41h.14l.4-1.24c.2-.61.48-1.03.83-1.25.35-.22.81-.33,1.37-.33.44,0,.78.11,1.01.34.23.23.35.54.35.94v1.54h1c.81,0,1.22.37,1.22,1.12,0,.48-.13.85-.39,1.12s-.64.4-1.13.4h-.7v3.18c0,.63.07,1.05.21,1.27s.35.33.63.33c.15,0,.27,0,.38-.03.11-.02.21-.03.32-.03.23,0,.41.08.56.25.15.17.22.38.22.65,0,.24-.05.45-.14.62-.09.17-.22.34-.38.5s-.45.34-.87.53c-.42.19-1.01.29-1.77.29-1.12,0-1.95-.28-2.49-.85-.54-.57-.81-1.48-.81-2.75v-3.96Z"/><path class="cls-2" d="m129.41,263.25c.13.55.4.96.8,1.21.4.25.92.37,1.56.37.33,0,.62-.01.87-.04.25-.03.46-.06.64-.1.18-.04.34-.07.47-.1.13-.03.25-.04.36-.04.28,0,.5.09.67.26s.25.41.25.7c0,.21-.04.4-.11.55s-.18.3-.33.45c-.25.25-.7.51-1.34.76-.64.25-1.51.38-2.62.38-.87,0-1.63-.11-2.3-.34s-1.23-.55-1.68-.98c-.45-.43-.8-.94-1.03-1.53-.23-.59-.35-1.26-.35-2.01,0-.87.13-1.65.39-2.35s.63-1.29,1.11-1.78c.48-.49,1.06-.86,1.75-1.12.69-.26,1.45-.39,2.29-.39,1.49,0,2.62.37,3.39,1.1.77.73,1.15,1.74,1.15,3.02,0,.68-.15,1.18-.45,1.5s-.72.48-1.27.48h-4.22Zm2.16-2c-.03-.57-.13-.96-.31-1.2-.18-.23-.42-.34-.73-.34s-.58.14-.78.41c-.2.27-.33.65-.4,1.13h2.22Z"/><path class="cls-2" d="m137.73,260.17l-.46-.16c-.35-.12-.59-.26-.73-.42-.14-.16-.21-.42-.21-.77s.07-.62.21-.81c.14-.19.36-.33.67-.44s.7-.2,1.17-.27c.47-.07.94-.11,1.39-.11.61,0,1.04.12,1.29.35.25.23.37.62.37,1.17v.4l.04.02c.09-.27.21-.52.36-.77.15-.25.33-.47.54-.66.21-.19.46-.35.74-.47.28-.12.6-.18.96-.18.47,0,.79.13.96.38.17.25.26.63.26,1.14,0,.39-.04.74-.13,1.07-.09.33-.2.61-.34.85-.14.24-.31.43-.5.56-.19.13-.39.2-.59.2-.12,0-.22-.02-.31-.07s-.16-.1-.23-.15c-.07-.05-.14-.1-.21-.15s-.17-.07-.29-.07c-.27,0-.54.13-.82.4v3.64l.6.26c.35.15.58.3.71.46.13.16.19.38.19.67,0,.36-.12.65-.35.87s-.56.34-.99.34h-4.32c-.43,0-.76-.11-.99-.34s-.35-.52-.35-.87c0-.3.07-.54.2-.7.13-.16.35-.31.66-.46l.5-.24v-4.68Z"/><path class="cls-2" d="m148.51,265.09c.11.04.23.07.38.1.12.03.27.05.44.07.17.02.37.03.58.03.43,0,.71-.05.86-.16.15-.11.22-.25.22-.42,0-.21-.12-.38-.37-.51-.25-.13-.55-.24-.92-.35-.37-.11-.77-.23-1.2-.36-.43-.13-.83-.32-1.2-.55-.37-.23-.67-.53-.92-.9-.25-.37-.37-.84-.37-1.41,0-.49.1-.96.29-1.39.19-.43.5-.8.92-1.11s.96-.55,1.62-.73,1.46-.27,2.41-.27c.83,0,1.48.06,1.97.19.49.13.82.28,1.01.47.13.13.23.28.3.44s.1.38.1.66v.47c0,.11,0,.24-.02.39-.03.29-.13.51-.32.66-.19.15-.43.22-.74.22s-.57-.06-.76-.18c-.19-.12-.32-.29-.4-.5l-.1-.26c-.11-.03-.23-.05-.38-.08-.12-.03-.26-.05-.41-.07-.15-.02-.32-.03-.51-.03-.37,0-.63.05-.76.15-.13.1-.2.24-.2.41,0,.2.12.36.37.47.25.11.55.22.92.32.37.1.77.22,1.2.35.43.13.83.32,1.2.55.37.23.67.54.92.91.25.37.37.85.37,1.44,0,.51-.1.98-.3,1.41-.2.43-.52.81-.95,1.13-.43.32-.99.57-1.68.75-.69.18-1.52.27-2.49.27-.85,0-1.53-.07-2.02-.2-.49-.13-.83-.29-1.02-.48-.13-.13-.23-.28-.3-.44-.07-.16-.1-.38-.1-.66v-.46c0-.11,0-.22.02-.34.03-.35.13-.6.32-.75s.43-.23.74-.23.57.06.76.18c.19.12.32.29.4.5l.12.3Z"/><path class="cls-2" d="m156.05,265.31c0-.69.23-1.27.68-1.72s1.03-.68,1.72-.68,1.26.22,1.7.66c.44.44.66,1.01.66,1.7s-.23,1.27-.68,1.72-1.03.68-1.72.68-1.26-.22-1.7-.66c-.44-.44-.66-1.01-.66-1.7Z"/><path class="cls-2" d="m170.91,256.69h-1.3l-.44,1.14c-.15.37-.31.64-.5.8-.19.16-.43.24-.74.24s-.58-.09-.77-.26c-.19-.17-.3-.45-.31-.84-.01-.49-.02-.86-.02-1.09v-.93c0-.39.02-.67.06-.86s.13-.35.26-.48c.13-.13.29-.24.47-.31.18-.07.43-.11.75-.11h9.34c.32,0,.57.04.75.11.18.07.34.18.47.31.13.13.22.29.26.48s.06.47.06.86v.93c0,.23,0,.6-.02,1.09-.01.39-.12.67-.31.84-.19.17-.45.26-.77.26s-.55-.08-.74-.24c-.19-.16-.35-.43-.5-.8l-.44-1.14h-1.3v8.1l.56.24c.36.15.62.31.79.48.17.17.25.41.25.72,0,.36-.12.65-.35.88s-.56.34-.99.34h-4.78c-.43,0-.76-.11-.99-.34-.23-.23-.35-.52-.35-.88,0-.31.08-.54.25-.71s.43-.33.79-.49l.56-.24v-8.1Z"/><path class="cls-2" d="m181.01,255.89l-.36-.12c-.35-.12-.59-.27-.72-.44-.13-.17-.2-.44-.2-.79s.07-.62.21-.8c.14-.19.36-.34.67-.44s.7-.2,1.18-.27c.48-.07.96-.11,1.44-.11.68,0,1.17.15,1.47.45s.45.79.45,1.47v1.54c0,.31-.01.64-.04.99-.03.35-.07.7-.14,1.03l.04.02c.17-.23.39-.43.64-.62.23-.16.51-.31.85-.44s.76-.2,1.27-.2c1.27,0,2.22.32,2.87.96.65.64.97,1.61.97,2.9v3.82l.38.2c.32.17.54.34.67.5s.19.39.19.7c0,.36-.12.65-.35.88s-.56.34-.99.34h-3.54c-.44,0-.78-.11-1.02-.34s-.36-.52-.36-.88c0-.29.05-.52.14-.68.09-.16.27-.34.54-.54l.2-.16v-3.06c0-.61-.1-1.04-.31-1.29-.21-.25-.49-.37-.85-.37-.19,0-.35.03-.49.1s-.26.14-.37.22c-.12.09-.22.2-.3.32v4.1l.2.16c.27.2.45.38.54.54.09.16.14.38.14.67,0,.36-.12.65-.36.87-.24.22-.58.34-1.02.34h-3.54c-.43,0-.76-.11-.99-.34s-.35-.52-.35-.87c0-.3.06-.54.19-.7.13-.16.35-.32.67-.5l.38-.2v-8.96Z"/><path class="cls-2" d="m197.73,263.25c.13.55.4.96.8,1.21.4.25.92.37,1.56.37.33,0,.62-.01.87-.04.25-.03.46-.06.64-.1.18-.04.34-.07.47-.1.13-.03.25-.04.36-.04.28,0,.5.09.67.26s.25.41.25.7c0,.21-.04.4-.11.55s-.18.3-.33.45c-.25.25-.7.51-1.34.76-.64.25-1.51.38-2.62.38-.87,0-1.63-.11-2.3-.34s-1.23-.55-1.68-.98c-.45-.43-.8-.94-1.03-1.53-.23-.59-.35-1.26-.35-2.01,0-.87.13-1.65.39-2.35s.63-1.29,1.11-1.78c.48-.49,1.06-.86,1.75-1.12.69-.26,1.45-.39,2.29-.39,1.49,0,2.62.37,3.39,1.1.77.73,1.15,1.74,1.15,3.02,0,.68-.15,1.18-.45,1.5s-.72.48-1.27.48h-4.22Zm2.16-2c-.03-.57-.13-.96-.31-1.2-.18-.23-.42-.34-.73-.34s-.58.14-.78.41c-.2.27-.33.65-.4,1.13h2.22Z"/><path class="cls-2" d="m205.26,259.95l-.18-.1c-.33-.19-.57-.39-.7-.61-.13-.22-.2-.49-.2-.82s.11-.56.33-.77c.22-.2.52-.3.91-.3h3.9c.39,0,.69.1.91.3.22.2.33.46.33.77s-.08.57-.23.8c-.15.22-.38.43-.69.62l-.1.06.96,2.87c.07.23.13.45.2.67.07.22.13.42.18.59.05.2.1.38.14.56h.04c.04-.17.09-.36.14-.56.05-.17.11-.37.17-.59.06-.22.13-.44.21-.67l.96-2.87-.1-.06c-.31-.19-.54-.39-.69-.62s-.23-.49-.23-.8.11-.56.33-.77c.22-.2.52-.3.91-.3h3.02c.39,0,.69.1.91.3.22.2.33.46.33.77s-.07.59-.2.82c-.13.22-.37.43-.7.61l-.18.1-2.28,5.83c-.51,1.28-1.03,2.33-1.58,3.16-.55.83-1.11,1.48-1.7,1.96s-1.2.81-1.84,1c-.64.19-1.3.28-1.98.28-.8,0-1.4-.17-1.8-.51s-.6-.8-.6-1.39.14-1,.41-1.28.58-.42.93-.42c.16,0,.3.01.41.04.11.03.23.06.36.09s.27.06.44.09c.17.03.38.04.65.04.16,0,.3,0,.43-.02.13-.01.24-.04.34-.07.1-.03.19-.08.26-.13.07-.05.14-.12.19-.2l-3.32-8.46Z"/><path class="cls-2" d="m87.28,284.17l-.46-.16c-.35-.12-.59-.26-.73-.42-.14-.16-.21-.42-.21-.77s.07-.62.21-.81c.14-.19.36-.33.67-.44s.7-.2,1.17-.27c.47-.07.94-.11,1.39-.11.61,0,1.04.12,1.29.35.25.23.37.63.37,1.19v.1l.04.02c.15-.32.35-.6.62-.84.23-.21.53-.41.92-.59.39-.18.88-.27,1.48-.27,1.27,0,2.22.32,2.87.96.65.64.97,1.61.97,2.9v3.82l.38.2c.32.17.54.34.67.5s.19.39.19.7c0,.36-.12.65-.35.88s-.56.34-.99.34h-3.54c-.44,0-.78-.11-1.02-.34s-.36-.52-.36-.88c0-.29.05-.52.14-.68.09-.16.27-.34.54-.54l.2-.16v-3.06c0-.61-.1-1.04-.31-1.29-.21-.25-.49-.37-.85-.37-.19,0-.35.03-.49.1-.14.07-.26.14-.37.22-.12.09-.22.2-.3.32v4.1l.2.16c.27.2.45.38.54.54.09.16.14.38.14.67,0,.36-.12.65-.36.87s-.58.34-1.02.34h-3.66c-.43,0-.76-.11-.99-.34s-.35-.52-.35-.87c0-.3.07-.54.2-.7.13-.16.35-.31.66-.46l.5-.24v-4.68Z"/><path class="cls-2" d="m104,287.25c.13.55.4.96.8,1.21.4.25.92.37,1.56.37.33,0,.62-.01.87-.04.25-.03.46-.06.64-.1.18-.04.34-.07.47-.1.13-.03.25-.04.36-.04.28,0,.5.09.67.26s.25.41.25.7c0,.21-.04.4-.11.55s-.18.3-.33.45c-.25.25-.7.51-1.34.76-.64.25-1.51.38-2.62.38-.87,0-1.63-.11-2.3-.34s-1.23-.55-1.68-.98c-.45-.43-.8-.94-1.03-1.53-.23-.59-.35-1.26-.35-2.01,0-.87.13-1.65.39-2.35s.63-1.29,1.11-1.78c.48-.49,1.06-.86,1.75-1.12.69-.26,1.45-.39,2.29-.39,1.49,0,2.62.37,3.39,1.1.77.73,1.15,1.74,1.15,3.02,0,.68-.15,1.18-.45,1.5s-.72.48-1.27.48h-4.22Zm2.16-2c-.03-.57-.13-.96-.31-1.2-.18-.23-.42-.34-.73-.34s-.58.14-.78.41c-.2.27-.33.65-.4,1.13h2.22Z"/><path class="cls-2" d="m115.44,287.25c.13.55.4.96.8,1.21.4.25.92.37,1.56.37.33,0,.62-.01.87-.04.25-.03.46-.06.64-.1.18-.04.34-.07.47-.1.13-.03.25-.04.36-.04.28,0,.5.09.67.26s.25.41.25.7c0,.21-.04.4-.11.55s-.18.3-.33.45c-.25.25-.7.51-1.34.76-.64.25-1.51.38-2.62.38-.87,0-1.63-.11-2.3-.34s-1.23-.55-1.68-.98c-.45-.43-.8-.94-1.03-1.53-.23-.59-.35-1.26-.35-2.01,0-.87.13-1.65.39-2.35s.63-1.29,1.11-1.78c.48-.49,1.06-.86,1.75-1.12.69-.26,1.45-.39,2.29-.39,1.49,0,2.62.37,3.39,1.1.77.73,1.15,1.74,1.15,3.02,0,.68-.15,1.18-.45,1.5s-.72.48-1.27.48h-4.22Zm2.16-2c-.03-.57-.13-.96-.31-1.2-.18-.23-.42-.34-.73-.34s-.58.14-.78.41c-.2.27-.33.65-.4,1.13h2.22Z"/><path class="cls-2" d="m129.46,279.83l-.5-.16c-.35-.11-.59-.24-.73-.41-.14-.17-.21-.42-.21-.75s.07-.59.21-.78c.14-.19.36-.33.67-.44.31-.11.7-.2,1.19-.27.49-.07,1-.11,1.55-.11.68,0,1.17.15,1.47.45s.45.79.45,1.47v9.86l.4.12c.35.11.58.24.7.39s.18.4.18.75-.07.6-.2.79c-.13.19-.36.35-.68.47-.32.12-.71.22-1.18.29-.47.07-.87.11-1.22.11-.61,0-1.05-.12-1.31-.35-.26-.23-.39-.63-.39-1.19v-.1l-.04-.02c-.15.33-.35.62-.62.86-.23.21-.53.41-.92.58s-.88.26-1.48.26c-1.27,0-2.26-.39-2.98-1.17s-1.08-1.98-1.08-3.61c0-.89.13-1.7.39-2.41.26-.71.64-1.31,1.15-1.8.51-.49,1.13-.86,1.87-1.12.74-.26,1.59-.39,2.55-.39.11,0,.21,0,.3,0,.09,0,.17.02.24.03.08.01.15.02.22.02l.04-.04c-.01-.09-.02-.19-.03-.29,0-.1,0-.2,0-.31v-.74Zm-.04,4.14c-.05-.01-.11-.03-.18-.04-.07-.01-.14-.02-.22-.03s-.17,0-.28,0c-.57,0-1,.19-1.3.58s-.45,1.05-.45,2c0,.83.12,1.4.37,1.72.24.32.55.48.9.48.18,0,.35-.03.49-.1.14-.07.26-.14.37-.22.12-.09.22-.2.3-.32v-4.06Z"/><path class="cls-2" d="m141.05,283.95l-.18-.1c-.33-.19-.57-.39-.7-.61-.13-.22-.2-.49-.2-.82s.11-.56.33-.77c.22-.2.52-.3.91-.3h3.9c.39,0,.69.1.91.3.22.2.33.46.33.77s-.08.57-.23.8c-.15.22-.38.43-.69.62l-.1.06.96,2.87c.07.23.13.45.2.67.07.22.13.42.18.59.05.2.1.38.14.56h.04c.04-.17.09-.36.14-.56.05-.17.11-.37.17-.59.06-.22.13-.44.21-.67l.96-2.87-.1-.06c-.31-.19-.54-.39-.69-.62s-.23-.49-.23-.8.11-.56.33-.77c.22-.2.52-.3.91-.3h3.02c.39,0,.69.1.91.3.22.2.33.46.33.77s-.07.59-.2.82c-.13.22-.37.43-.7.61l-.18.1-2.28,5.83c-.51,1.28-1.03,2.33-1.58,3.16-.55.83-1.11,1.48-1.7,1.96s-1.2.81-1.84,1c-.64.19-1.3.28-1.98.28-.8,0-1.4-.17-1.8-.51s-.6-.8-.6-1.39.14-1,.41-1.28.58-.42.93-.42c.16,0,.3.01.41.04.11.03.23.06.36.09s.27.06.44.09c.17.03.38.04.65.04.16,0,.3,0,.43-.02.13-.01.24-.04.34-.07.1-.03.19-.08.26-.13.07-.05.14-.12.19-.2l-3.32-8.46Z"/><path class="cls-2" d="m153.08,286.75c0-.84.14-1.61.41-2.3.27-.69.67-1.28,1.19-1.77s1.16-.87,1.91-1.14c.75-.27,1.61-.41,2.55-.41,1.75,0,3.09.44,4.01,1.32.92.88,1.38,2.08,1.38,3.6,0,.84-.14,1.61-.41,2.3s-.67,1.28-1.19,1.77c-.52.49-1.16.87-1.91,1.14-.75.27-1.61.41-2.55.41-1.75,0-3.09-.44-4.01-1.32-.92-.88-1.38-2.08-1.38-3.6Zm4.26-.38c0,.44.04.82.13,1.13.09.31.2.57.34.77.14.2.3.35.48.44.18.09.37.14.57.14.4,0,.74-.18,1.01-.54.28-.36.42-.98.42-1.86,0-.44-.04-.82-.13-1.13-.09-.31-.2-.57-.34-.78-.14-.21-.3-.36-.48-.45-.18-.09-.37-.14-.57-.14-.4,0-.74.18-1.01.54-.28.36-.42.99-.42,1.88Z"/><path class="cls-2" d="m166.5,284.17l-.36-.12c-.35-.12-.59-.27-.72-.44-.13-.17-.2-.44-.2-.79s.07-.62.21-.81c.14-.19.36-.33.67-.44s.7-.2,1.18-.27c.48-.07.96-.11,1.44-.11.68,0,1.17.15,1.47.45s.45.79.45,1.47v3.9c0,.61.1,1.04.31,1.29.21.25.49.37.85.37.19,0,.35-.03.49-.1.14-.07.26-.14.37-.22.12-.09.22-.2.3-.32v-3.86l-.46-.16c-.35-.12-.59-.26-.73-.42s-.21-.42-.21-.77.07-.62.21-.81c.14-.19.36-.33.67-.44s.7-.2,1.19-.27c.49-.07,1-.11,1.55-.11.68,0,1.17.15,1.47.45s.45.79.45,1.47v5.58l.4.12c.35.11.58.24.7.39.12.15.18.4.18.75s-.07.6-.2.79c-.13.19-.36.35-.68.47-.32.12-.71.22-1.18.29-.47.07-.87.11-1.22.11-.61,0-1.05-.12-1.31-.35-.26-.23-.39-.63-.39-1.19v-.1l-.04-.02c-.15.33-.35.62-.62.86-.23.21-.53.41-.92.58s-.88.26-1.48.26c-1.27,0-2.22-.32-2.87-.96-.65-.64-.97-1.6-.97-2.89v-3.63Z"/><path class="cls-2" d="m179.44,289.31c0-.69.23-1.27.68-1.72s1.03-.68,1.72-.68,1.26.22,1.7.66c.44.44.66,1.01.66,1.7s-.23,1.27-.68,1.72-1.03.68-1.72.68-1.26-.22-1.7-.66c-.44-.44-.66-1.01-.66-1.7Z"/><path class="cls-3" d="m168.02,50.88l-7.92,31.5-1.73,1.93-1.42.82-41.5,6.71-1.26-.22-1.68-.46-3.25-.89c-.97-.26-1.79-.93-2.46-1.99l-25.02-40.47,10.98-40.27c.12-.45.55-.99,1.29-1.63.73-.64,1.52-1.05,2.37-1.22l2.8-.56,9.82-1.65c1.51-.23,2.59-.41,3.25-.44,1.18-.04,2.12-.2,3.15-.35,1.77-.26,3.43-.36,3.77-.43,2.33-.48,3.3-.41,6.11-.86s5.61-.62,7.85,0l2.9.79c.9.25,1.68.9,2.35,1.96l25.02,40.47m-73.74,1.53l40.22-6.46,5.34-19.58c-1,.13-2.71.38-5.13.76l-7.87,1.1c-7.85,1.15-12.26,1.75-13.23,1.8l-3.43.19c-.79.08-.83.12-1.98.23,1.02-3.73,2.28-6.88,3.76-7.59,1.64-.44,10.27-2.01,11.07-2.03,1.32-.44,1.63-2.3,2.48-5.43-.99.1-7.9,1.22-8.25,1.21l-8.74,1.21c-1.34.2-2.82.47-4.44.83l-.65.18-5.29,19.41,30-4.3,1.97-.4c-.1.37-.36,1.95-.4,2.86-.05.91-.31,1.7-.31,2.01-.28,1.37-.77,2.36-1.96,2.59l-31.63,5.8-1.53,5.59ZM122.89,10.34c-.33,1.19-.47,2.16-.43,2.89,2.99-.38,4.93-.88,5.81-1.48.88-.6,1.69-2.24,2.43-4.93-4.25-1.16-6.85.02-7.81,3.52Z"/><path class="cls-3" d="m160.66,52.49c.24-.89.96-2.06,2.15-3.5,1.19-1.44,2.2-2.2,3.03-2.3l41.49-6.71,1.26.22,1.68.46,3.13.85c1.19.33,2.05,1,2.57,2.03,2.29,3.35,3.96,5.89,5.01,7.62,5.26,8.33,9.22,14.53,11.87,18.62,2.24,3.82,3.9,6.67,4.99,8.57l2.31,3.87c.47.93.74,1.53.83,1.79l-10.98,40.27c-.45,1.64-2.35,2.72-5.7,3.25l-38.95,6.21-7.83-2.14c-.13-.12-.81-1.14-2.05-3.08l-14.84-23.16c-.62-.97-1.43-2.39-2.44-4.27l-5.48-9.43c-.6-1.05-5.57-8.57-5.65-8.83l3.11-1.04,10.47-29.32Zm-1.02,34.58l40.22-6.46,9.15-33.56-40.22,6.46-9.15,33.56Zm40.16-32.67l-5.59,20.51c-.22.82-4.1,1.8-11.61,2.94-7.52,1.14-12.03,1.51-13.53,1.1l5.69-20.88,25.04-3.67Zm-17.74,10.42c-.99.69-1.84,2.34-2.56,4.95,4.1,1.12,6.62-.04,7.56-3.47l.37-1.34c.11-.69.21-1.19.29-1.48-2.99.39-4.87.83-5.65,1.34Z"/><path class="cls-3" d="m310.61,127.56l-7.92,31.5-1.73,1.93-1.42.82-41.5,6.71-1.26-.22-1.68-.46-3.25-.89c-.97-.26-1.79-.93-2.46-1.99l-25.02-40.47,10.98-40.27c.12-.45.55-.99,1.29-1.63.73-.64,1.52-1.05,2.37-1.22l2.8-.56,9.82-1.65c1.51-.23,2.59-.41,3.25-.44,1.18-.04,2.12-.2,3.15-.35,1.77-.26,3.43-.36,3.77-.43,2.33-.48,3.3-.41,6.11-.86,2.9-.46,5.61-.62,7.85,0l2.9.79c.9.25,1.68.9,2.35,1.96l25.02,40.47m-73.74,1.53l40.22-6.46,5.34-19.58c-1,.13-2.71.38-5.13.76l-7.87,1.1c-7.85,1.15-12.26,1.75-13.23,1.8l-3.43.19c-.79.08-.83.12-1.98.23,1.02-3.73,2.28-6.88,3.76-7.59,1.64-.44,10.27-2.01,11.07-2.03,1.32-.44,1.63-2.3,2.48-5.43-.99.1-7.9,1.22-8.25,1.21l-8.74,1.21c-1.34.2-2.82.47-4.44.83l-.65.18-5.29,19.41,30-4.3,1.97-.4c-.1.37-.36,1.95-.4,2.86-.05.91-.31,1.7-.31,2.01-.28,1.37-.77,2.36-1.96,2.59l-31.63,5.8-1.53,5.59Zm33.18-34.82c-.33,1.19-.47,2.16-.43,2.89,2.99-.38,4.93-.88,5.81-1.48.88-.6,1.69-2.24,2.43-4.93-4.25-1.16-6.85.02-7.81,3.52Z"/></svg>