<?xml version="1.0" encoding="UTF-8"?><svg id="Layer_1" xmlns="http://www.w3.org/2000/svg" viewBox="0 0 354.32 156.39"><defs><style>.cls-1{fill:#122b44;stroke-width:0px;}</style></defs><path class="cls-1" d="m18.24,20.04l-.12.68-.6,1.96-.32.52-.32.16-.8.92-1.32.8-.56.04-.56.36-1.36.36-.88.12-.72-.12-.64.28-1.92-.2-.84-.32-1.16.08-.68-.52-.44.12-.88-.8-.48-.08-.48-.72-.32-.28-.88-1.4-.28-.92-.36-.8.32-.68.48-.4.52-.08h1.28l.48.48,1.12,2,.76.4,1.92,1,.52.08h2.04l.92-.16,1.16-.32,1-.48.52-.52.12-.52.36-.76.16-.12v-1.16l-.48-1.08-1.24-.88-1.68-.6-.6-.36-1.12-.44-.64.04-1.32-.52-2.04-.92-.84-.24-.36-.44-.96-.64-.6-.6-.16-.32-.52-.56-.36-.8v-.72l-.28-1.16.28-.8-.08-.84.16-.76.44-.72.6-.32.96-1.24.44-.2.56-.52,1.12-.32.48.04.76-.24,1.44-.24.64-.28,1.4.24.4-.08,2.08.68,1.16.44.72.68.32.16.72.92.2.44.52,1.28.32,1.28-.16.6-.16.24-.76.2h-.64l-.56-.12-.72-.4-.28-.6-.44-1.12-.96-1.08-1.36-.4-.72.08-1.48-.32-.12-.16-1.72.4-.4.28-.48.16-.56.68-.56.84-.16,1.16-.08.16.28.72.56.84.32.36,2.04,1.08.92.16,1.6.52,1.96.8.64.36,1.32.32.8.56.44.08,1.12,1.04.84,1.52-.04.52.36.76v.76l-.04.64Z"/><path class="cls-1" d="m34.56,7.84h1.08l1.12.32.72.28,1,.64.8.28v.12l.96.92.48.88.6.64.64,1.12.12.96v.92l.24,1-.08,1.08-.32,3.28-.24.52-.68,1.68-.76.92-1.24,1.16-.8.4-1.24.56-1.52.16-.64.24h-1.2l-1.36.16-1.44-.44-.4-.36-.88-.2-.36-.28-.8-.44-.12-.32-1.28-1.04-.36-.64-.4-.4-.36-1.16-.32-1.64-.4-.72.08-1.24.24-1.44-.2-.96.96-2.2.16-.52.48-1.04.4-.48.8-1.08.8-.32.4-.28.72-.16.84-.52.2-.28h1.08l-.08.04,1.4-.2h.48l.68.08Zm-1.6,2.56l-.92.2-.52.24-1,.36-.68.72-.92,1.64-.28.84.08,1.28-.24,1.16.2.92.08,1.32.16.76-.04.24.68,1.16.12.36.8.68,1.2.76.52.2,1.04.08v.08l1.56-.28h.88l.28-.24.8-.32.4-.04.8-1.04.44-.88.44-1.12-.2-.44.2-.4.4-2.04-.6-2.64-.24-.4-.16-1-.92-1.08-.84-.48-1.12-.2-1-.32-.56-.08h-.84Z"/><path class="cls-1" d="m77.84,14.36l-.12.36.12,1.04.24.16-.4,1.88.16.68-.04.6.24.56-.28,1.24.16.6-.2.48.08.8v1.56l-.08.44-.36.68-1.04.2-1.36-.24-.24-.76-.04-.6-.16-.6.16-2.2.12-.56-.12-.76.08-.84v-1.72l-.24-.64.32-1.16-.28-.76.24-.6-.2-1.16.2-.64.08-1.12-.28-.96-.12-.88.36-.96v-1.4l-.2-1.8V1.2l.44-1.12.88-.08h.8l1,.72.08.92-.08.52.08,1.08v2.36l-.12.2.24,1.28-.28,1.52-.16,1.4.36.16.32-.64,1.36-1.04.52-.28.88.12,1.4-.52h1.92l.72.08,1.52.8.8.56,1,1.44.4,1.16.16,2.32-.04.64.12,1.6-.08,1,.12.64-.16.72.2,1.12-.2.88v1.4l.28,1.16-.24.8.12.52-.16.96h-1.92l-.68-.12-.36-.56-.24-1,.12-.48.12-1.84-.12-.48v-1.2l-.2-1.08.2-1.28v-1.52l-.16-.2.2-1.6-.32-.92v-1.04l-1.2-1.4-1.16-.32-.88-.4-1.24.4-.52.04-.8.48-1,.32-.24.16h-.48l-.44.36.12.64.36.76-.16,1.04Z"/><path class="cls-1" d="m106.56,7.84h1.08l1.12.32.72.28,1,.64.8.28v.12l.96.92.48.88.6.64.64,1.12.12.96v.92l.24,1-.08,1.08-.32,3.28-.24.52-.68,1.68-.76.92-1.24,1.16-.8.4-1.24.56-1.52.16-.64.24h-1.2l-1.36.16-1.44-.44-.4-.36-.88-.2-.36-.28-.8-.44-.12-.32-1.28-1.04-.36-.64-.4-.4-.36-1.16-.32-1.64-.4-.72.08-1.24.24-1.44-.2-.96.96-2.2.16-.52.48-1.04.4-.48.8-1.08.8-.32.4-.28.72-.16.84-.52.2-.28h1.08l-.08.04,1.4-.2h.48l.68.08Zm-1.6,2.56l-.92.2-.52.24-1,.36-.68.72-.92,1.64-.28.84.08,1.28-.24,1.16.2.92.08,1.32.16.76-.04.24.68,1.16.12.36.8.68,1.2.76.52.2,1.04.08v.08l1.56-.28h.88l.28-.24.8-.32.4-.04.8-1.04.44-.88.44-1.12-.2-.44.2-.4.4-2.04-.6-2.64-.24-.4-.16-1-.92-1.08-.84-.48-1.12-.2-1-.32-.56-.08h-.84Z"/><path class="cls-1" d="m125.24,21.56l.52-1.32.32-.2v-1.88l.64-1,.12-.64.28-.6.4-1.92.28-1,.24-.48.32-.4.48-.4,1.24.16,1.2.44.4,1.2.68,1.08.16,1.04.52,1.36.24,1.16.44.88v.84l.48,1v.6l.24.96.28-.44.12-.48.16-1.64.32-.32v-1.08l-.12-.72.32-1.12.36-.68-.12-1.52.4-.96v-1.08l.28-.28-.08-1.2.16-.8.24-.24.08-1.12.72-.4.68-.2.68.08.56.76.16.56-.28.84.04.44-.44.92-.12,1.44.2,1.04-.6,1.12.12.44-.44,1.08v.6l-.4,1.56v.88l-.24.76v.52l-.12,1.68-.28,1-.48,1-.56.52-1.72.28-.68-.12-.76-.48-.68-1.32-.28-1.8-.28-.44-.4-1.52-.2-.36-.44-1.68.12-.6-.6-1.24.2-.12-.48-1.2-.24.16.12.44-.2,1-.28.6-.96,3.2.16.4-.56.84-.44,1.44v.84l-.56.8-.72.84-.28.16-1.32.08-1.28-.12-.24-.52-.48-1.24-.16-.96.08-.4-.36-1.28.04-.48-.16-.8-.36-1.16-.12-.96v-1.12l-.36-.8v-.32l-.24-1.16-.4-1.72v-.68l-.12-1.08-.4-.24v-1.24l.08-.36.48-.72.72-.08.44-.04,1.24.92.04.48.16.76v1.12l.28.88.28,1.24v1.12l.2.84-.04.44.36,1.68.28.6v1.16l.2-.08v1.6l.08.56.44.12Z"/><path class="cls-1" d="m181.76,9.6v-1.2l.2-1-.2-1v-1.32l-.12-1.92.08-.64.24-1.96.52-.44.8-.12,1.32.08.44,1.36-.12,1.96.12.72-.12,1.84v1.52l.12,1.12-.12,1.16v1.28l-.16.88.08,1.16v2.24l.12,1.12-.12.72-.16.36.32,1.56-.12,1.88.16.72-.12,1.76.2.88-.2,1-.24.4h-1.08l-1.24-.16-.16-.28.08-1.04.16-.84-.2-.2-1,1.08-.2.6-2.16.8h-.72l-.84.32h-.72l-1.72-.2-1.2-.36-.12-.32-1.04-.4-.6-.6-.92-.8-.56-.92-.2-.48-.68-2v-1.32l-.24-.84.16-.56-.32-1.36.12-1.24.4-1.24.68-1.72.24-.2.08-.56,1.4-1.48.32-.44,1.28-.72.6-.12,1.24-.4,1.08.12.52-.08,1.04.24,1.68.32,1.52,1.6.4-.32Zm-9.24,7.52l.28.72-.12,1.36.24.6v.52l.52.84.84,1.08.52.4,1.52.68.72-.08.68.12,1.48-.12.72-.52,1-.36.92-.08.4-.4-.28-.64-.24-.8.28-1.56-.32-1.04.04-.64.16-1.72-.2-.4.24-.68-.28-.92.32-1.04.4-.52-.56-.56-.52.12-.68-.2-1.44-.84h-1.12l-1.8.12-.4-.04-.72.28-.72.64-.24.08-.96,1.56v.28l-.4.48.16.72-.64,1.12.2,1.2v.24Z"/><path class="cls-1" d="m202.56,7.84h1.08l1.12.32.72.28,1,.64.8.28v.12l.96.92.48.88.6.64.64,1.12.12.96v.92l.24,1-.08,1.08-.32,3.28-.24.52-.68,1.68-.76.92-1.24,1.16-.8.4-1.24.56-1.52.16-.64.24h-1.2l-1.36.16-1.44-.44-.4-.36-.88-.2-.36-.28-.8-.44-.12-.32-1.28-1.04-.36-.64-.4-.4-.36-1.16-.32-1.64-.4-.72.08-1.24.24-1.44-.2-.96.96-2.2.16-.52.48-1.04.4-.48.8-1.08.8-.32.4-.28.72-.16.84-.52.2-.28h1.08l-.08.04,1.4-.2h.48l.68.08Zm-1.6,2.56l-.92.2-.52.24-1,.36-.68.72-.92,1.64-.28.84.08,1.28-.24,1.16.2.92.08,1.32.16.76-.04.24.68,1.16.12.36.8.68,1.2.76.52.2,1.04.08v.08l1.56-.28h.88l.28-.24.8-.32.4-.04.8-1.04.44-.88.44-1.12-.2-.44.2-.4.4-2.04-.6-2.64-.24-.4-.16-1-.92-1.08-.84-.48-1.12-.2-1-.32-.56-.08h-.84Z"/><path class="cls-1" d="m245.24,21.56l.52-1.32.32-.2v-1.88l.64-1,.12-.64.28-.6.4-1.92.28-1,.24-.48.32-.4.48-.4,1.24.16,1.2.44.4,1.2.68,1.08.16,1.04.52,1.36.24,1.16.44.88v.84l.48,1v.6l.24.96.28-.44.12-.48.16-1.64.32-.32v-1.08l-.12-.72.32-1.12.36-.68-.12-1.52.4-.96v-1.08l.28-.28-.08-1.2.16-.8.24-.24.08-1.12.72-.4.68-.2.68.08.56.76.16.56-.28.84.04.44-.44.92-.12,1.44.2,1.04-.6,1.12.12.44-.44,1.08v.6l-.4,1.56v.88l-.24.76v.52l-.12,1.68-.28,1-.48,1-.56.52-1.72.28-.68-.12-.76-.48-.68-1.32-.28-1.8-.28-.44-.4-1.52-.2-.36-.44-1.68.12-.6-.6-1.24.2-.12-.48-1.2-.24.16.12.44-.2,1-.28.6-.96,3.2.16.4-.56.84-.44,1.44v.84l-.56.8-.72.84-.28.16-1.32.08-1.28-.12-.24-.52-.48-1.24-.16-.96.08-.4-.36-1.28.04-.48-.16-.8-.36-1.16-.12-.96v-1.12l-.36-.8v-.32l-.24-1.16-.4-1.72v-.68l-.12-1.08-.4-.24v-1.24l.08-.36.48-.72.72-.08.44-.04,1.24.92.04.48.16.76v1.12l.28.88.28,1.24v1.12l.2.84-.04.44.36,1.68.28.6v1.16l.2-.08v1.6l.08.56.44.12Z"/><path class="cls-1" d="m268.84,19.4l.08.64.36.76.28.08.52,1.12.84.56.24.24,2.88.64h1.08l1.32-.44.16-.36,1.2-.32,1.2-1.56.24-.08.72-.68h.84l.28.12.64.12.24.72-.16.64-.64,1.48-.88.56-.6.64-1.32.88-.76.28h-.36l-.68.32-1.64.36h-.8l-1.76-.32h-.8l-.64-.12-.92-.44-.96-.44-1.04-.52-.52-.96-.76-.64-.16-.52-.52-1-.36-.16-.12-1.36.08-.8-.4-2.08.2-.88v-1.64l.32-.76.04-.44.64-.96.48-1.04.36-.52.2-.04.56-.92.96-.52,1.72-.8.8-.2.4-.24,1.12-.24,1.04.16.4.2.56-.2.84.24.36.28,1.04.2.76.36.52.16.56.4,1.64,1.6.56.92.24.92.24.52.28,1.2-.08.28.24,1.36-.28.56-.84.52h-.72l-.48.16-.92-.12-.6.12-1.2-.08-.44.16-.96-.28-1.72.24-.88-.16-.72.32-1.12-.16-.36.2-1.6-.2-.52-.24-.72-.16-.24.36.8,1.64.12.36Zm10.04-5.56l-.64-1.2-.72-.96-1.32-1-2-.32h-.68l-.48-.12-.92.28-2,1-.44.68-.48.56-.12.48-.44.96-.36.48-.12.64.4.16.92-.36,1.16.08,1.08-.08,1.44-.16,1.32.12,1.36.16,1.04-.12.72-.2,1.72.56.28-.36-.2-.48-.52-.8Z"/><path class="cls-1" d="m4.84,60.4l.08.64.36.76.28.08.52,1.12.84.56.24.24,2.88.64h1.08l1.32-.44.16-.36,1.2-.32,1.2-1.56.24-.08.72-.68h.84l.28.12.64.12.24.72-.16.64-.64,1.48-.88.56-.6.64-1.32.88-.76.28h-.36l-.68.32-1.64.36h-.8l-1.76-.32h-.8l-.64-.12-.92-.44-.96-.44-1.04-.52-.52-.96-.76-.64-.16-.52-.52-1-.36-.16-.12-1.36.08-.8-.4-2.08.2-.88v-1.64l.32-.76.04-.44.64-.96.48-1.04.36-.52.2-.04.56-.92.96-.52,1.72-.8.8-.2.4-.24,1.12-.24,1.04.16.4.2.56-.2.84.24.36.28,1.04.2.76.36.52.16.56.4,1.64,1.6.56.92.24.92.24.52.28,1.2-.08.28.24,1.36-.28.56-.84.52h-.72l-.48.16-.92-.12-.6.12-1.2-.08-.44.16-.96-.28-1.72.24-.88-.16-.72.32-1.12-.16-.36.2-1.6-.2-.52-.24-.72-.16-.24.36.8,1.64.12.36Zm10.04-5.56l-.64-1.2-.72-.96-1.32-1-2-.32h-.68l-.48-.12-.92.28-2,1-.44.68-.48.56-.12.48-.44.96-.36.48-.12.64.4.16.92-.36,1.16.08,1.08-.08,1.44-.16,1.32.12,1.36.16,1.04-.12.72-.2,1.72.56.28-.36-.2-.48-.52-.8Z"/><path class="cls-1" d="m37.76,50.6v-1.2l.2-1-.2-1v-1.32l-.12-1.92.08-.64.24-1.96.52-.44.8-.12,1.32.08.44,1.36-.12,1.96.12.72-.12,1.84v1.52l.12,1.12-.12,1.16v1.28l-.16.88.08,1.16v2.24l.12,1.12-.12.72-.16.36.32,1.56-.12,1.88.16.72-.12,1.76.2.88-.2,1-.24.4h-1.08l-1.24-.16-.16-.28.08-1.04.16-.84-.2-.2-1,1.08-.2.6-2.16.8h-.72l-.84.32h-.72l-1.72-.2-1.2-.36-.12-.32-1.04-.4-.6-.6-.92-.8-.56-.92-.2-.48-.68-2v-1.32l-.24-.84.16-.56-.32-1.36.12-1.24.4-1.24.68-1.72.24-.2.08-.56,1.4-1.48.32-.44,1.28-.72.6-.12,1.24-.4,1.08.12.52-.08,1.04.24,1.68.32,1.52,1.6.4-.32Zm-9.24,7.52l.28.72-.12,1.36.24.6v.52l.52.84.84,1.08.52.4,1.52.68.72-.08.68.12,1.48-.12.72-.52,1-.36.92-.08.4-.4-.28-.64-.24-.8.28-1.56-.32-1.04.04-.64.16-1.72-.2-.4.24-.68-.28-.92.32-1.04.4-.52-.56-.56-.52.12-.68-.2-1.44-.84h-1.12l-1.8.12-.4-.04-.72.28-.72.64-.24.08-.96,1.56v.28l-.4.48.16.72-.64,1.12.2,1.2v.24Z"/><path class="cls-1" d="m61.32,65.24l-.6.56-1.24.72-1.28.32-.32-.12-.84.16h-1.28l-.56-.08-1.44-.36-.24-.16-.36-.4-1.08-.64-.2-.72-.6-.8-.36-.2v-1.32l-.32-.76v-2.36l-.08-.56.24-1.32-.04-.6.08-.16-.12-1.84-.12-.6.12-1.2-.2-.56.16-.8-.08-.16.36-1.28.72-.8.6-.04.8.08.64.6.24,2-.08,1.32.12.92-.16.64.08.68-.12.44v1.72l.2.76.12.88-.4.88.24,1.52.28.6.16.72.56.64.28.2v.36h1.4l1.32.2.68-.16,1.2-.2.32-.4,1.4-.32.52.04.04-.6-.4-1.24v-2.08l.16-.88-.12-1.44.2-.72-.2-.92.12-.68-.24-.92v-.84l.16-1.04.12-.08-.24-1.12.4-.88.52-.52.72-.16,1.12.2.4.4v.8l.12.76.16,1.8-.16,1.08v.92l-.12,1.36.24.72-.28,2,.2,1.36-.2.52.2.96v3.08l-.36,1.6h-1.04l-.84-.12-.24-.2v-1.92l-.16-.16-1,.92Z"/><path class="cls-1" d="m76.48,58.44l.24,1.44.36,1.16.48.88.4.56,1,1,.92.24.8.36h1.16l.88.2,1.12-.16.64-.24,1.08-.96.68-.2.4-1.76.48-.48,1.24-.12,1.16.12.12.96-.36,1.48-.24.6-.44.8-1.12.88-1.2.88-.68.32-.84.24-.6.04-1.56.44-.8-.08-.24.16-1.12-.28-.32-.24h-1l-.72-.24-.64-.32-1.68-.92-.76-.72-.28-.68-.72-.68-.08-.52-.36-.8-.32-1.2-.2-1.6v-1.64l-.16-.64.4-1.4-.08-.72.68-1.08.12-.68.6-.56.4-.84.96-.8.24-.48,1.6-.64,1.56-.48,1.44-.32h2.68l1.32.44.16.2.8.24.56.4.68.16.96.88,1.08,1.72.36,1.08v.68l-.28.52-.84.28-.96-.12-.56.04-.4-.32-.88-1.96-.76-.68-1.24-.6-1.08-.08-.48-.28-1.28.28-.28.16-1.24.16-.44.44-.52.32-.8.88-.4.28-.28.96-.44.88.2,1.16-.2,1.04-.08.56Z"/><path class="cls-1" d="m114.28,66.84l-.92.08-.52-.04-1.12.08-.72-.12-.76-.44-.36-.68-.2-.8-.28-.28-.72.72h-.36l-.68.64-1.16.32-.64.4-.48-.04-.88.36h-1.12l-2.04-.2-1.48-.56-.44-.32-.24-.36-.84-.44-.72-1.16-.44-1.52v-1.72l1.36-1.92.12-.28.48-.52.88-.24,1.84-.56.4-.2h1.6l.56.08h.72l.48.12.48-.04h1.12l.88.24,1.12.48.2-.24-.16-.36-.16-.84.12-1.8-.28-.6v-.68l-.52-.84-.84-.56-.72-.6-1.84-.12-1.56.16-1.32.4-.76.84-.4,1.36-.36.48-.8.52h-.68l-.4-.08-.68-.28-.16-.56v-.88l.28-.56.08-.44.8-1.36,1.12-1,.6-.32,1.04-.24.16-.28,1.8-.16h1.8l1.32-.2,1.04.28.84.36.76.2.84.72.76.8.48.84.16.44.44,1.16-.16,1.08.32,1,.16.88-.16,1.08.2,1.32-.28,1.04v2.36l.08,1.04.28.84.84.28,1.12-.24.52.16.2.8-.08.96-.4.44-.52.2-.04.12Zm-13.88-4.08l.64.76v.08l1,.44.76.28h1.08l1.16-.08,1.44-.2.52-.28.68-.16.6-.28.92-.16.36-.4v-.24l-.28-1,.24-1.4-.4-.56h-.96l-1,.12-.56-.28-.96.16-.08-.28-1.72.4h-.8l-1.8.48-.56.56-.28,1.28v.76Z"/><path class="cls-1" d="m135.4,66.96l-.76-.2-1.24.32-1.8-.16-1.6-.28-1.4-.52-.56-.48-.44-.72-.68-.64-.64-1.88v-5.6l.12-.48-.24-1,.2-.4-.28-.8.32-.64-.08-1.2.44-.44-.36-.48-.8.36-1.04.12-1-.12-.64.12-.4-.04-1.88-.12-.24-.56-.12-.88.12-.8.48-.24.84.08h1.84l.52-.08h1.56l.72.4.44-.4-.48-.68-.12-1.28v-1.16l.16-.92-.2-1.12.28-.92-.16-.88v-1l1.28-.16h1.28l.48.4.08,1-.2,1.04.12.96v3.52l-.48.96.36.48.64-.2,2.24-.2.76.12.44-.12,1.36.28.84-.28,1.16.16h.48l.56.56.12.32.08,1-.48.4-2,.28-.4.2-.96-.32-1.76.36-1-.12-.64.08-1.28-.72-.36.52.44,1.48v1.04l-.12.56v1.8l-.12.32.28,1.12-.24,1.72v.52l.48,2.2.16.28.44.4.56.76.6.04.6.28,1.6-.12.8.12.84-.16.8-.36.92.12.4,1.2-.28.72-.08.4-.92.4-.76.36Z"/><path class="cls-1" d="m148.84,60.4l.08.64.36.76.28.08.52,1.12.84.56.24.24,2.88.64h1.08l1.32-.44.16-.36,1.2-.32,1.2-1.56.24-.08.72-.68h.84l.28.12.64.12.24.72-.16.64-.64,1.48-.88.56-.6.64-1.32.88-.76.28h-.36l-.68.32-1.64.36h-.8l-1.76-.32h-.8l-.64-.12-.92-.44-.96-.44-1.04-.52-.52-.96-.76-.64-.16-.52-.52-1-.36-.16-.12-1.36.08-.8-.4-2.08.2-.88v-1.64l.32-.76.04-.44.64-.96.48-1.04.36-.52.2-.04.56-.92.96-.52,1.72-.8.8-.2.4-.24,1.12-.24,1.04.16.4.2.56-.2.84.24.36.28,1.04.2.76.36.52.16.56.4,1.64,1.6.56.92.24.92.24.52.28,1.2-.08.28.24,1.36-.28.56-.84.52h-.72l-.48.16-.92-.12-.6.12-1.2-.08-.44.16-.96-.28-1.72.24-.88-.16-.72.32-1.12-.16-.36.2-1.6-.2-.52-.24-.72-.16-.24.36.8,1.64.12.36Zm10.04-5.56l-.64-1.2-.72-.96-1.32-1-2-.32h-.68l-.48-.12-.92.28-2,1-.44.68-.48.56-.12.48-.44.96-.36.48-.12.64.4.16.92-.36,1.16.08,1.08-.08,1.44-.16,1.32.12,1.36.16,1.04-.12.72-.2,1.72.56.28-.36-.2-.48-.52-.8Z"/><path class="cls-1" d="m195.32,55.4l.2,1.08v3.24l-.08.76.28,1.36-.2.96-.08,1.2.28.64-.44,1.4-.24.32-1.12.4-.56-.16-.88-.76.12-.72-.08-.6v-2.08l.2-.08-.2-2.56.16-.16-.2-1.44.08-.52-.08-.76.2-.6-.16-.64v-2.88l-.16-.4.24-1.4v-1.04l-.2-.16,1.2-.88,1.56.48-.24,1.08.28.72.48-.8.6-.44.4-.4.56-.16,1.2-.56.88-.24,1.44.48,1.12.76.44.44.28.56.16.8.48-.04.36-1.04.32-.44.36-.16.48-.64,1.08-.4,1.24-.2h.72l.44.28,1.52.6.32.68.72,1.4.4,1.6-.16,1.56v2.24l.16,1.4-.12,1.28.12,1.24-.32,1.4.12,1.28.28.56-.2,1.32-.28.48-.44.48-1.04.24-.6-.24-.6-.92.2-.68-.2-.76-.16-1.48.36-.8v-.76l-.32-1.48.12-1.4-.28-.36.32-1.12-.28-2,.16-1.2-.16-1-.44-.56-.32-.28-1-.24-1.2.48-1.76.64-.44.52.4.64.28,1.24-.12,1.48.12.48-.16.6.12,1.44-.12.36v1.24l.2,1.2-.32.36.24,1.68-.24.48.08,1.08-.2,1.04-1.16.32-1-.16-.4-1.16-.12-1.2v-.92l-.12-.24v-1.12l.24-.84-.04-.44-.16-2.04.2-.64-.12-1.68.2-1.56-.28-1-.12-.88-.2-.48-.4-.48-.56-.36-.44.08-.32-.08-1.2.52-.2.16-1.16.36-.44.4.44,1.52-.32.88Z"/><path class="cls-1" d="m220.84,60.4l.08.64.36.76.28.08.52,1.12.84.56.24.24,2.88.64h1.08l1.32-.44.16-.36,1.2-.32,1.2-1.56.24-.08.72-.68h.84l.28.12.64.12.24.72-.16.64-.64,1.48-.88.56-.6.64-1.32.88-.76.28h-.36l-.68.32-1.64.36h-.8l-1.76-.32h-.8l-.64-.12-.92-.44-.96-.44-1.04-.52-.52-.96-.76-.64-.16-.52-.52-1-.36-.16-.12-1.36.08-.8-.4-2.08.2-.88v-1.64l.32-.76.04-.44.64-.96.48-1.04.36-.52.2-.04.56-.92.96-.52,1.72-.8.8-.2.4-.24,1.12-.24,1.04.16.4.2.56-.2.84.24.36.28,1.04.2.76.36.52.16.56.4,1.64,1.6.56.92.24.92.24.52.28,1.2-.08.28.24,1.36-.28.56-.84.52h-.72l-.48.16-.92-.12-.6.12-1.2-.08-.44.16-.96-.28-1.72.24-.88-.16-.72.32-1.12-.16-.36.2-1.6-.2-.52-.24-.72-.16-.24.36.8,1.64.12.36Zm10.04-5.56l-.64-1.2-.72-.96-1.32-1-2-.32h-.68l-.48-.12-.92.28-2,1-.44.68-.48.56-.12.48-.44.96-.36.48-.12.64.4.16.92-.36,1.16.08,1.08-.08,1.44-.16,1.32.12,1.36.16,1.04-.12.72-.2,1.72.56.28-.36-.2-.48-.52-.8Z"/><path class="cls-1" d="m245.8,54.8l.16,1.2v5.8l-.24.4.2,1.24-.16.84.16,1.04-.16,1.08-1.4.24-1.16-.28-.48-.52.08-.72v-2.12l-.2-1.56v-3.36l.12-1.48-.28-1.16.16-1.92.16-.56-.12-1.48.16-.64v-1l.64-.52.72.08.84-.24.32.32-.24,1.56.2.2.56-.08.2-.64.76-.44.72-.6.56-.32h1.04l.88-.32.88-.08h1.56l.72.24,1,.44,1.12.72.32.32.8,1.48.28.88.16,2v.96l.08.8v1.16l-.08.84.2.92-.16.84.08.88-.12.44v1.52l.2,1.28-.2.48.12.72-.76.76-.84.2-.56.04-.88-.2-.04-.44-.32-1.2.2-.92.12-1.04-.12-.68v-.76l-.12-.64.08-1.24.16-.52-.16-1.84v-2.08l-.2-1.12-.48-1.2-.48-.76-.68-.28-2.08-.56-.92.36-.28.04-1.24.52-1.6.36-.32.48.32.6.08.72-.04.52Z"/><path class="cls-1" d="m293.24,62.56l.52-1.32.32-.2v-1.88l.64-1,.12-.64.28-.6.4-1.92.28-1,.24-.48.32-.4.48-.4,1.24.16,1.2.44.4,1.2.68,1.08.16,1.04.52,1.36.24,1.16.44.88v.84l.48,1v.6l.24.96.28-.44.12-.48.16-1.64.32-.32v-1.08l-.12-.72.32-1.12.36-.68-.12-1.52.4-.96v-1.08l.28-.28-.08-1.2.16-.8.24-.24.08-1.12.72-.4.68-.2.68.08.56.76.16.56-.28.84.04.44-.44.92-.12,1.44.2,1.04-.6,1.12.12.44-.44,1.08v.6l-.4,1.56v.88l-.24.76v.52l-.12,1.68-.28,1-.48,1-.56.52-1.72.28-.68-.12-.76-.48-.68-1.32-.28-1.8-.28-.44-.4-1.52-.2-.36-.44-1.68.12-.6-.6-1.24.2-.12-.48-1.2-.24.16.12.44-.2,1-.28.6-.96,3.2.16.4-.56.84-.44,1.44v.84l-.56.8-.72.84-.28.16-1.32.08-1.28-.12-.24-.52-.48-1.24-.16-.96.08-.4-.36-1.28.04-.48-.16-.8-.36-1.16-.12-.96v-1.12l-.36-.8v-.32l-.24-1.16-.4-1.72v-.68l-.12-1.08-.4-.24v-1.24l.08-.36.48-.72.72-.08.44-.04,1.24.92.04.48.16.76v1.12l.28.88.28,1.24v1.12l.2.84-.04.44.36,1.68.28.6v1.16l.2-.08v1.6l.08.56.44.12Z"/><path class="cls-1" d="m317.84,55.36l-.12.36.12,1.04.24.16-.4,1.88.16.68-.04.6.24.56-.28,1.24.16.6-.2.48.08.8v1.56l-.08.44-.36.68-1.04.2-1.36-.24-.24-.76-.04-.6-.16-.6.16-2.2.12-.56-.12-.76.08-.84v-1.72l-.24-.64.32-1.16-.28-.76.24-.6-.2-1.16.2-.64.08-1.12-.28-.96-.12-.88.36-.96v-1.4l-.2-1.8v-4.08l.44-1.12.88-.08h.8l1,.72.08.92-.08.52.08,1.08v2.36l-.12.2.24,1.28-.28,1.52-.16,1.4.36.16.32-.64,1.36-1.04.52-.28.88.12,1.4-.52h1.92l.72.08,1.52.8.8.56,1,1.44.4,1.16.16,2.32-.04.64.12,1.6-.08,1,.12.64-.16.72.2,1.12-.2.88v1.4l.28,1.16-.24.8.12.52-.16.96h-1.92l-.68-.12-.36-.56-.24-1,.12-.48.12-1.84-.12-.48v-1.2l-.2-1.08.2-1.28v-1.52l-.16-.2.2-1.6-.32-.92v-1.04l-1.2-1.4-1.16-.32-.88-.4-1.24.4-.52.04-.8.48-1,.32-.24.16h-.48l-.44.36.12.64.36.76-.16,1.04Z"/><path class="cls-1" d="m346.56,48.84h1.08l1.12.32.72.28,1,.64.8.28v.12l.96.92.48.88.6.64.64,1.12.12.96v.92l.24,1-.08,1.08-.32,3.28-.24.52-.68,1.68-.76.92-1.24,1.16-.8.4-1.24.56-1.52.16-.64.24h-1.2l-1.36.16-1.44-.44-.4-.36-.88-.2-.36-.28-.8-.44-.12-.32-1.28-1.04-.36-.64-.4-.4-.36-1.16-.32-1.64-.4-.72.08-1.24.24-1.44-.2-.96.96-2.2.16-.52.48-1.04.4-.48.8-1.08.8-.32.4-.28.72-.16.84-.52.2-.28h1.08l-.08.04,1.4-.2h.48l.68.08Zm-1.6,2.56l-.92.2-.52.24-1,.36-.68.72-.92,1.64-.28.84.08,1.28-.24,1.16.2.92.08,1.32.16.76-.04.24.68,1.16.12.36.8.68,1.2.76.52.2,1.04.08v.08l1.56-.28h.88l.28-.24.8-.32.4-.04.8-1.04.44-.88.44-1.12-.2-.44.2-.4.4-2.04-.6-2.64-.24-.4-.16-1-.92-1.08-.84-.48-1.12-.2-1-.32-.56-.08h-.84Z"/><path class="cls-1" d="m5.24,103.56l.52-1.32.32-.2v-1.88l.64-1,.12-.64.28-.6.4-1.92.28-1,.24-.48.32-.4.48-.4,1.24.16,1.2.44.4,1.2.68,1.08.16,1.04.52,1.36.24,1.16.44.88v.84l.48,1v.6l.24.96.28-.44.12-.48.16-1.64.32-.32v-1.08l-.12-.72.32-1.12.36-.68-.12-1.52.4-.96v-1.08l.28-.28-.08-1.2.16-.8.24-.24.08-1.12.72-.4.68-.2.68.08.56.76.16.56-.28.84.04.44-.44.92-.12,1.44.2,1.04-.6,1.12.12.44-.44,1.08v.6l-.4,1.56v.88l-.24.76v.52l-.12,1.68-.28,1-.48,1-.56.52-1.72.28-.68-.12-.76-.48-.68-1.32-.28-1.8-.28-.44-.4-1.52-.2-.36-.44-1.68.12-.6-.6-1.24.2-.12-.48-1.2-.24.16.12.44-.2,1-.28.6-.96,3.2.16.4-.56.84-.44,1.44v.84l-.56.8-.72.84-.28.16-1.32.08-1.28-.12-.24-.52-.48-1.24-.16-.96.08-.4-.36-1.28.04-.48-.16-.8-.36-1.16-.12-.96v-1.12l-.36-.8v-.32l-.24-1.16-.4-1.72v-.68l-.12-1.08-.4-.24v-1.24l.08-.36.48-.72.72-.08.44-.04,1.24.92.04.48.16.76v1.12l.28.88.28,1.24v1.12l.2.84-.04.44.36,1.68.28.6v1.16l.2-.08v1.6l.08.56.44.12Z"/><path class="cls-1" d="m42.28,107.84l-.92.08-.52-.04-1.12.08-.72-.12-.76-.44-.36-.68-.2-.8-.28-.28-.72.72h-.36l-.68.64-1.16.32-.64.4-.48-.04-.88.36h-1.12l-2.04-.2-1.48-.56-.44-.32-.24-.36-.84-.44-.72-1.16-.44-1.52v-1.72l1.36-1.92.12-.28.48-.52.88-.24,1.84-.56.4-.2h1.6l.56.08h.72l.48.12.48-.04h1.12l.88.24,1.12.48.2-.24-.16-.36-.16-.84.12-1.8-.28-.6v-.68l-.52-.84-.84-.56-.72-.6-1.84-.12-1.56.16-1.32.4-.76.84-.4,1.36-.36.48-.8.52h-.68l-.4-.08-.68-.28-.16-.56v-.88l.28-.56.08-.44.8-1.36,1.12-1,.6-.32,1.04-.24.16-.28,1.8-.16h1.8l1.32-.2,1.04.28.84.36.76.2.84.72.76.8.48.84.16.44.44,1.16-.16,1.08.32,1,.16.88-.16,1.08.2,1.32-.28,1.04v2.36l.08,1.04.28.84.84.28,1.12-.24.52.16.2.8-.08.96-.4.44-.52.2-.04.12Zm-13.88-4.08l.64.76v.08l1,.44.76.28h1.08l1.16-.08,1.44-.2.52-.28.68-.16.6-.28.92-.16.36-.4v-.24l-.28-1,.24-1.4-.4-.56h-.96l-1,.12-.56-.28-.96.16-.08-.28-1.72.4h-.8l-1.8.48-.56.56-.28,1.28v.76Z"/><path class="cls-1" d="m53.8,95.8l.16,1.2v5.8l-.24.4.2,1.24-.16.84.16,1.04-.16,1.08-1.4.24-1.16-.28-.48-.52.08-.72v-2.12l-.2-1.56v-3.36l.12-1.48-.28-1.16.16-1.92.16-.56-.12-1.48.16-.64v-1l.64-.52.72.08.84-.24.32.32-.24,1.56.2.2.56-.08.2-.64.76-.44.72-.6.56-.32h1.04l.88-.32.88-.08h1.56l.72.24,1,.44,1.12.72.32.32.8,1.48.28.88.16,2v.96l.08.8v1.16l-.08.84.2.92-.16.84.08.88-.12.44v1.52l.2,1.28-.2.48.12.72-.76.76-.84.2-.56.04-.88-.2-.04-.44-.32-1.2.2-.92.12-1.04-.12-.68v-.76l-.12-.64.08-1.24.16-.52-.16-1.84v-2.08l-.2-1.12-.48-1.2-.48-.76-.68-.28-2.08-.56-.92.36-.28.04-1.24.52-1.6.36-.32.48.32.6.08.72-.04.52Z"/><path class="cls-1" d="m87.4,107.96l-.76-.2-1.24.32-1.8-.16-1.6-.28-1.4-.52-.56-.48-.44-.72-.68-.64-.64-1.88v-5.6l.12-.48-.24-1,.2-.4-.28-.8.32-.64-.08-1.2.44-.44-.36-.48-.8.36-1.04.12-1-.12-.64.12-.4-.04-1.88-.12-.24-.56-.12-.88.12-.8.48-.24.84.08h1.84l.52-.08h1.56l.72.4.44-.4-.48-.68-.12-1.28v-1.16l.16-.92-.2-1.12.28-.92-.16-.88v-1l1.28-.16h1.28l.48.4.08,1-.2,1.04.12.96v3.52l-.48.96.36.48.64-.2,2.24-.2.76.12.44-.12,1.36.28.84-.28,1.16.16h.48l.56.56.12.32.08,1-.48.4-2,.28-.4.2-.96-.32-1.76.36-1-.12-.64.08-1.28-.72-.36.52.44,1.48v1.04l-.12.56v1.8l-.12.32.28,1.12-.24,1.72v.52l.48,2.2.16.28.44.4.56.76.6.04.6.28,1.6-.12.8.12.84-.16.8-.36.92.12.4,1.2-.28.72-.08.4-.92.4-.76.36Z"/><path class="cls-1" d="m135.4,107.96l-.76-.2-1.24.32-1.8-.16-1.6-.28-1.4-.52-.56-.48-.44-.72-.68-.64-.64-1.88v-5.6l.12-.48-.24-1,.2-.4-.28-.8.32-.64-.08-1.2.44-.44-.36-.48-.8.36-1.04.12-1-.12-.64.12-.4-.04-1.88-.12-.24-.56-.12-.88.12-.8.48-.24.84.08h1.84l.52-.08h1.56l.72.4.44-.4-.48-.68-.12-1.28v-1.16l.16-.92-.2-1.12.28-.92-.16-.88v-1l1.28-.16h1.28l.48.4.08,1-.2,1.04.12.96v3.52l-.48.96.36.48.64-.2,2.24-.2.76.12.44-.12,1.36.28.84-.28,1.16.16h.48l.56.56.12.32.08,1-.48.4-2,.28-.4.2-.96-.32-1.76.36-1-.12-.64.08-1.28-.72-.36.52.44,1.48v1.04l-.12.56v1.8l-.12.32.28,1.12-.24,1.72v.52l.48,2.2.16.28.44.4.56.76.6.04.6.28,1.6-.12.8.12.84-.16.8-.36.92.12.4,1.2-.28.72-.08.4-.92.4-.76.36Z"/><path class="cls-1" d="m154.56,89.84h1.08l1.12.32.72.28,1,.64.8.28v.12l.96.92.48.88.6.64.64,1.12.12.96v.92l.24,1-.08,1.08-.32,3.28-.24.52-.68,1.68-.76.92-1.24,1.16-.8.4-1.24.56-1.52.16-.64.24h-1.2l-1.36.16-1.44-.44-.4-.36-.88-.2-.36-.28-.8-.44-.12-.32-1.28-1.04-.36-.64-.4-.4-.36-1.16-.32-1.64-.4-.72.08-1.24.24-1.44-.2-.96.96-2.2.16-.52.48-1.04.4-.48.8-1.08.8-.32.4-.28.72-.16.84-.52.2-.28h1.08l-.08.04,1.4-.2h.48l.68.08Zm-1.6,2.56l-.92.2-.52.24-1,.36-.68.72-.92,1.64-.28.84.08,1.28-.24,1.16.2.92.08,1.32.16.76-.04.24.68,1.16.12.36.8.68,1.2.76.52.2,1.04.08v.08l1.56-.28h.88l.28-.24.8-.32.4-.04.8-1.04.44-.88.44-1.12-.2-.44.2-.4.4-2.04-.6-2.64-.24-.4-.16-1-.92-1.08-.84-.48-1.12-.2-1-.32-.56-.08h-.84Z"/><path class="cls-1" d="m209.88,102.68l-.16.8-.08.96-.84,1.12-.92.92-2.08,1.12h-.72l-2.2.36h-2.16l-.56-.12-1.08-.08-.6-.24h-.52l-1.52-.52-.92-.92-.12-.24-.8-.88-.24-.36-.32-1.08-.28-.68.04-.6.44-.28.56.04,1.56.12.4.36.36.8.6.92.68.48.96.24.88.36,1.2-.2h1.04l1.16.32,1.92-.6.64-.56.16-.56.28-.52-.08-.84-.16-.44-1.2-.96-.44-.12-.24-.16-.72-.12-1.6-.52-.6-.08h-1.08l-1.36-.4-.4-.04-1.64-.8-1.44-.6-.6-.64-.96-1.6-.08-1.2.2-1.16.36-.4.48-1.12.4-.52.64-.56.8-.28.24-.28.72-.2,1.12-.12,1-.2.64-.04.68-.24,1.36.28.68-.16,1.56.64.72.08,1.52.92.28.32.64.36.4.88.52.64.16,1.12-.12.16-.64.48-1.2-.12-1.24-.52-.36-.8-1.16-.96-1.28-.4-.52.04-1.28-.24-1.36.36-1.64.36-.72.48-.36.6.08.44-.04.52.24.6.36.28.68.52,1.44.44,1.16.16.68.24.48-.08,2.56.72.72.08.4.32,1.08.16.76.6.72.36.72.96.64,1.52-.08.76v.04Z"/><path class="cls-1" d="m220.84,101.4l.08.64.36.76.28.08.52,1.12.84.56.24.24,2.88.64h1.08l1.32-.44.16-.36,1.2-.32,1.2-1.56.24-.08.72-.68h.84l.28.12.64.12.24.72-.16.64-.64,1.48-.88.56-.6.64-1.32.88-.76.28h-.36l-.68.32-1.64.36h-.8l-1.76-.32h-.8l-.64-.12-.92-.44-.96-.44-1.04-.52-.52-.96-.76-.64-.16-.52-.52-1-.36-.16-.12-1.36.08-.8-.4-2.08.2-.88v-1.64l.32-.76.04-.44.64-.96.48-1.04.36-.52.2-.04.56-.92.96-.52,1.72-.8.8-.2.4-.24,1.12-.24,1.04.16.4.2.56-.2.84.24.36.28,1.04.2.76.36.52.16.56.4,1.64,1.6.56.92.24.92.24.52.28,1.2-.08.28.24,1.36-.28.56-.84.52h-.72l-.48.16-.92-.12-.6.12-1.2-.08-.44.16-.96-.28-1.72.24-.88-.16-.72.32-1.12-.16-.36.2-1.6-.2-.52-.24-.72-.16-.24.36.8,1.64.12.36Zm10.04-5.56l-.64-1.2-.72-.96-1.32-1-2-.32h-.68l-.48-.12-.92.28-2,1-.44.68-.48.56-.12.48-.44.96-.36.48-.12.64.4.16.92-.36,1.16.08,1.08-.08,1.44-.16,1.32.12,1.36.16,1.04-.12.72-.2,1.72.56.28-.36-.2-.48-.52-.8Z"/><path class="cls-1" d="m244.84,101.4l.08.64.36.76.28.08.52,1.12.84.56.24.24,2.88.64h1.08l1.32-.44.16-.36,1.2-.32,1.2-1.56.24-.08.72-.68h.84l.28.12.64.12.24.72-.16.64-.64,1.48-.88.56-.6.64-1.32.88-.76.28h-.36l-.68.32-1.64.36h-.8l-1.76-.32h-.8l-.64-.12-.92-.44-.96-.44-1.04-.52-.52-.96-.76-.64-.16-.52-.52-1-.36-.16-.12-1.36.08-.8-.4-2.08.2-.88v-1.64l.32-.76.04-.44.64-.96.48-1.04.36-.52.2-.04.56-.92.96-.52,1.72-.8.8-.2.4-.24,1.12-.24,1.04.16.4.2.56-.2.84.24.36.28,1.04.2.76.36.52.16.56.4,1.64,1.6.56.92.24.92.24.52.28,1.2-.08.28.24,1.36-.28.56-.84.52h-.72l-.48.16-.92-.12-.6.12-1.2-.08-.44.16-.96-.28-1.72.24-.88-.16-.72.32-1.12-.16-.36.2-1.6-.2-.52-.24-.72-.16-.24.36.8,1.64.12.36Zm10.04-5.56l-.64-1.2-.72-.96-1.32-1-2-.32h-.68l-.48-.12-.92.28-2,1-.44.68-.48.56-.12.48-.44.96-.36.48-.12.64.4.16.92-.36,1.16.08,1.08-.08,1.44-.16,1.32.12,1.36.16,1.04-.12.72-.2,1.72.56.28-.36-.2-.48-.52-.8Z"/><path class="cls-1" d="m306.28,107.84l-.92.08-.52-.04-1.12.08-.72-.12-.76-.44-.36-.68-.2-.8-.28-.28-.72.72h-.36l-.68.64-1.16.32-.64.4-.48-.04-.88.36h-1.12l-2.04-.2-1.48-.56-.44-.32-.24-.36-.84-.44-.72-1.16-.44-1.52v-1.72l1.36-1.92.12-.28.48-.52.88-.24,1.84-.56.4-.2h1.6l.56.08h.72l.48.12.48-.04h1.12l.88.24,1.12.48.2-.24-.16-.36-.16-.84.12-1.8-.28-.6v-.68l-.52-.84-.84-.56-.72-.6-1.84-.12-1.56.16-1.32.4-.76.84-.4,1.36-.36.48-.8.52h-.68l-.4-.08-.68-.28-.16-.56v-.88l.28-.56.08-.44.8-1.36,1.12-1,.6-.32,1.04-.24.16-.28,1.8-.16h1.8l1.32-.2,1.04.28.84.36.76.2.84.72.76.8.48.84.16.44.44,1.16-.16,1.08.32,1,.16.88-.16,1.08.2,1.32-.28,1.04v2.36l.08,1.04.28.84.84.28,1.12-.24.52.16.2.8-.08.96-.4.44-.52.2-.04.12Zm-13.88-4.08l.64.76v.08l1,.44.76.28h1.08l1.16-.08,1.44-.2.52-.28.68-.16.6-.28.92-.16.36-.4v-.24l-.28-1,.24-1.4-.4-.56h-.96l-1,.12-.56-.28-.96.16-.08-.28-1.72.4h-.8l-1.8.48-.56.56-.28,1.28v.76Z"/><path class="cls-1" d="m4.48,140.44l.24,1.44.36,1.16.48.88.4.56,1,1,.92.24.8.36h1.16l.88.2,1.12-.16.64-.24,1.08-.96.68-.2.4-1.76.48-.48,1.24-.12,1.16.12.12.96-.36,1.48-.24.6-.44.8-1.12.88-1.2.88-.68.32-.84.24-.6.04-1.56.44-.8-.08-.24.16-1.12-.28-.32-.24h-1l-.72-.24-.64-.32-1.68-.92-.76-.72-.28-.68-.72-.68-.08-.52-.36-.8-.32-1.2-.2-1.6v-1.64l-.16-.64.4-1.4-.08-.72.68-1.08.12-.68.6-.56.4-.84.96-.8.24-.48,1.6-.64,1.56-.48,1.44-.32h2.68l1.32.44.16.2.8.24.56.4.68.16.96.88,1.08,1.72.36,1.08v.68l-.28.52-.84.28-.96-.12-.56.04-.4-.32-.88-1.96-.76-.68-1.24-.6-1.08-.08-.48-.28-1.28.28-.28.16-1.24.16-.44.44-.52.32-.8.88-.4.28-.28.96-.44.88.2,1.16-.2,1.04-.08.56Z"/><path class="cls-1" d="m29.84,137.36l-.12.36.12,1.04.24.16-.4,1.88.16.68-.04.6.24.56-.28,1.24.16.6-.2.48.08.8v1.56l-.08.44-.36.68-1.04.2-1.36-.24-.24-.76-.04-.6-.16-.6.16-2.2.12-.56-.12-.76.08-.84v-1.72l-.24-.64.32-1.16-.28-.76.24-.6-.2-1.16.2-.64.08-1.12-.28-.96-.12-.88.36-.96v-1.4l-.2-1.8v-4.08l.44-1.12.88-.08h.8l1,.72.08.92-.08.52.08,1.08v2.36l-.12.2.24,1.28-.28,1.52-.16,1.4.36.16.32-.64,1.36-1.04.52-.28.88.12,1.4-.52h1.92l.72.08,1.52.8.8.56,1,1.44.4,1.16.16,2.32-.04.64.12,1.6-.08,1,.12.64-.16.72.2,1.12-.2.88v1.4l.28,1.16-.24.8.12.52-.16.96h-1.92l-.68-.12-.36-.56-.24-1,.12-.48.12-1.84-.12-.48v-1.2l-.2-1.08.2-1.28v-1.52l-.16-.2.2-1.6-.32-.92v-1.04l-1.2-1.4-1.16-.32-.88-.4-1.24.4-.52.04-.8.48-1,.32-.24.16h-.48l-.44.36.12.64.36.76-.16,1.04Z"/><path class="cls-1" d="m66.28,148.84l-.92.08-.52-.04-1.12.08-.72-.12-.76-.44-.36-.68-.2-.8-.28-.28-.72.72h-.36l-.68.64-1.16.32-.64.4-.48-.04-.88.36h-1.12l-2.04-.2-1.48-.56-.44-.32-.24-.36-.84-.44-.72-1.16-.44-1.52v-1.72l1.36-1.92.12-.28.48-.52.88-.24,1.84-.56.4-.2h1.6l.56.08h.72l.48.12.48-.04h1.12l.88.24,1.12.48.2-.24-.16-.36-.16-.84.12-1.8-.28-.6v-.68l-.52-.84-.84-.56-.72-.6-1.84-.12-1.56.16-1.32.4-.76.84-.4,1.36-.36.48-.8.52h-.68l-.4-.08-.68-.28-.16-.56v-.88l.28-.56.08-.44.8-1.36,1.12-1,.6-.32,1.04-.24.16-.28,1.8-.16h1.8l1.32-.2,1.04.28.84.36.76.2.84.72.76.8.48.84.16.44.44,1.16-.16,1.08.32,1,.16.88-.16,1.08.2,1.32-.28,1.04v2.36l.08,1.04.28.84.84.28,1.12-.24.52.16.2.8-.08.96-.4.44-.52.2-.04.12Zm-13.88-4.08l.64.76v.08l1,.44.76.28h1.08l1.16-.08,1.44-.2.52-.28.68-.16.6-.28.92-.16.36-.4v-.24l-.28-1,.24-1.4-.4-.56h-.96l-1,.12-.56-.28-.96.16-.08-.28-1.72.4h-.8l-1.8.48-.56.56-.28,1.28v.76Z"/><path class="cls-1" d="m77.8,136.8l.16,1.2v5.8l-.24.4.2,1.24-.16.84.16,1.04-.16,1.08-1.4.24-1.16-.28-.48-.52.08-.72v-2.12l-.2-1.56v-3.36l.12-1.48-.28-1.16.16-1.92.16-.56-.12-1.48.16-.64v-1l.64-.52.72.08.84-.24.32.32-.24,1.56.2.2.56-.08.2-.64.76-.44.72-.6.56-.32h1.04l.88-.32.88-.08h1.56l.72.24,1,.44,1.12.72.32.32.8,1.48.28.88.16,2v.96l.08.8v1.16l-.08.84.2.92-.16.84.08.88-.12.44v1.52l.2,1.28-.2.48.12.72-.76.76-.84.2-.56.04-.88-.2-.04-.44-.32-1.2.2-.92.12-1.04-.12-.68v-.76l-.12-.64.08-1.24.16-.52-.16-1.84v-2.08l-.2-1.12-.48-1.2-.48-.76-.68-.28-2.08-.56-.92.36-.28.04-1.24.52-1.6.36-.32.48.32.6.08.72-.04.52Z"/><path class="cls-1" d="m110.4,132.68l-.08-1.32.32-.24h1.32l.92.24.16.96-.24,2.24.12,1.44v1.64l.12.8-.16,1.2v1.44l-.2.36.2,1.88.16.6v1.64l-.2.4.08,1.04-.16.44.32.76-.16,1.08-.08.12.12.6-.08.96-.28.96-.16-.08-.44,1.48-1.28,1.48-.44.16-.44.28-.68.16-.76.32-1.56.4-.4.28-1.6-.2-.24-.28-1.32.2-.72-.08-1.12-.32-1.4-.64-.84-.84-.76-.92-.28-.92-.56-1,.2-1.28.92-.44.8.12,1.2.44.12,1.36.52.76.28.24.64.36.76.2,1.08.56.88-.16h2.04l1.16-.6.52-.4h.12l.76-1.32.12-.96-.2-.36.2-.88.24-.32.12-1.08.2-.84-.4-.28-1.24,1.32-1.16.32-1.52.56-1.24.08-.84-.2-1,.12-1.84-.76-.4-.4-.48-.24-.28-.24-.84-1-.64-.48-.28-1.32.08-.56-.6-1.36-.2-.68.12-.44-.32-1.68.32-.8-.08-1.12.44-1.36.2-.88.2-.52.24-.32.52-1.12.28-.2.88-.92.52-.4.88-.52.72-.24,1.48-.6,1.16.16.56.28.68-.28,1.4.6.2.24.64.28.52.52,1,.68.44-.36Zm-10.12,7.76l.4,1.48.24-.04.4,1.8.44.84.8.72,1.12.6,1.12.24.36-.12.96.12,1.28-.24.52-.24,1.28-.6h.68l.28-.48-.24-.44-.2-.88v-.96l.12-.52v-1.08l-.16-1.04v-.76l.24-1.16-.24-1,.12-.76.28-.4-.08-.72-.88-.4-1.64-.68-1.04-.2-1.24-.08-.56.16h-1l-1.08.68-.48.6-.52.24-.64,1.68-.4,1.68v1.28l-.24.68Z"/><path class="cls-1" d="m124.84,142.4l.08.64.36.76.28.08.52,1.12.84.56.24.24,2.88.64h1.08l1.32-.44.16-.36,1.2-.32,1.2-1.56.24-.08.72-.68h.84l.28.12.64.12.24.72-.16.64-.64,1.48-.88.56-.6.64-1.32.88-.76.28h-.36l-.68.32-1.64.36h-.8l-1.76-.32h-.8l-.64-.12-.92-.44-.96-.44-1.04-.52-.52-.96-.76-.64-.16-.52-.52-1-.36-.16-.12-1.36.08-.8-.4-2.08.2-.88v-1.64l.32-.76.04-.44.64-.96.48-1.04.36-.52.2-.04.56-.92.96-.52,1.72-.8.8-.2.4-.24,1.12-.24,1.04.16.4.2.56-.2.84.24.36.28,1.04.2.76.36.52.16.56.4,1.64,1.6.56.92.24.92.24.52.28,1.2-.08.28.24,1.36-.28.56-.84.52h-.72l-.48.16-.92-.12-.6.12-1.2-.08-.44.16-.96-.28-1.72.24-.88-.16-.72.32-1.12-.16-.36.2-1.6-.2-.52-.24-.72-.16-.24.36.8,1.64.12.36Zm10.04-5.56l-.64-1.2-.72-.96-1.32-1-2-.32h-.68l-.48-.12-.92.28-2,1-.44.68-.48.56-.12.48-.44.96-.36.48-.12.64.4.16.92-.36,1.16.08,1.08-.08,1.44-.16,1.32.12,1.36.16,1.04-.12.72-.2,1.72.56.28-.36-.2-.48-.52-.8Z"/><path class="cls-1" d="m152.88,125.76l.72-.16,1.28.12.2.24,1.96.12.52.24.6.16,1.44.88.44.48.68.52.4.56.48,1.72v1.64l-.2.44v.92l-.32.72-.44.52-.68,1.12-.32.32-.56.28-.88,1.2-1,.92-1.12.68-2.12,1.28-.56.04-.56-.44-.36-.8,1.12-1.12,1.44-1.24.36-.2.92-.88.76-.96.32-.12.68-1.44-.04-.44.24-.8v-.88l.08-.56-.84-1.2-.88-.64-.2-.04-.96-.6h-1.6l-.96-.2-1.64.48-.32-.04-.84.64-.16.04-.84.96-.24.4-.4,1-.88.44h-.6l-.92-.12-.32-.32-.08-.96.04-.6.4-.92.68-1.08.36-.44.64-.28.84-.64.44-.12,1.28-.68,1.64-.24.88.08Zm2.68,20.56v1.44l-.28.4-.92.44h-.6l-1.12-.16-1.24-.56-.16-.68-.12-1.48.32-.88.36-.52.72-.28.56.08,1.84.16.64.56.16,1.24-.16.24Z"/></svg>