<?xml version="1.0" encoding="UTF-8"?><svg id="Layer_1" xmlns="http://www.w3.org/2000/svg" viewBox="0 0 79.97 99.87"><defs><style>.cls-1{stroke:#182a42;stroke-miterlimit:10;stroke-width:1.5px;}.cls-1,.cls-2{fill:#182a42;}.cls-2,.cls-3,.cls-4,.cls-5{stroke-width:0px;}.cls-3{fill:#854430;}.cls-4{fill:#fff;}.cls-5{fill:#eb8862;}</style></defs><path class="cls-3" d="m61.03,92.5c.62.12,1.25.36,1.86.32,1-.07,2.04-.49,2.06-1.63.05-3.46,2.2-6.08,3.45-9.06,1.51-3.61,3.38-7.04,5.19-10.5.72-1.38,1.14-2.84,1.09-4.56-.05-1.76.76-3.55,1.25-5.31.23-.84.56-1.67.91-2.47.41-.95.54-1.86-.2-2.68-.69-.78-1.55-.55-2.45-.43-2.84.4-5.64.92-8.18,2.01-.73-.31-.63-.84-.65-1.29-.35-7.95-3.11-15.1-7.23-21.8-.5-.82-1.03-1.61-1.55-2.42-.73-1.14-2.17-2.09-.77-3.5-1.37-.9-.65.39-1.93-2.36-1.92.45-1.37-.81-2.33-1.87-2.63-2.89-4.55-6.33-7.21-9.18-2.48-2.66-5.48-4.62-8.66-6.32-1.93-1.03-4.11-1.29-6.2-1.77-1.89-.44-3.67-1.04-5.35-2-.61-.35-1.29-.68-1.98-.81-1.72-.34-2.61.38-2.84,2.21-.05.4-.06.8-.43,1.06,0,0,.02-.06.02-.06.62,0,.27.53.14,1.07-.2.84.54,1.58.11,2.37-.37,1.99-1.57,3.52-1.52,5.53.37.72.15,1.15-.17,1.79l.1,1.23c.3.45.07,1.16-.03,1.62-.49,2.23.91,1.96,2.96,2.88,2.39,1.07,4.86,2,7.11,3.32,2.28,1.34,4.38,3.01,5.85,5.31l-.02-.02c.68.11,1.29.29,1.11,1.2.86,1.07,1.54,2.34,3.04,2.68,1.03.87,2.27,1.58,3.04,2.64,1.73,2.36,3.27,4.88,4.79,7.38.41.67,1.13,1.46.28,2.36-.2.47.01.74.43.92,1.57.05,1.76,1.35,2.19,2.43-.25.21-.31.44-.09.7.66.33.84.82.49,1.49v-.03c.64.45.79,1.02.38,1.71v-.03c.31,2.37.92,3.75,1.11,5.66.19,1.9-.27,2.24-2.46,2.51-.33-.17-.53-.09-.59.28-.21.51-.63.75-1.14.89-.73-.41-1.44-.15-2.15.09-.57.43-1.19.76-1.88.97-2.79.85-4.28.8-2.33,4.07.59.64.93,1.57,1.97,1.69.52.09,1.02.21.96.91l-.02-.02c.52-.04.91.24,1.25.58,2.18,2.08,3.8,4.42,5.79,6.7,2.61,2.98,6.03,5.44,9.03,8.04.72.63,1.41,1.28,1.63,2.27.05.33.24.45.56.41.17.27.37.54.21.89,0,0-.03-.04-.03-.04Z"/><path class="cls-2" d="m43.88,66.03c.71-.23,1.41-.5,2.15-.09-.13-.95.48-.95,1.14-.89.07-.37.27-.46.59-.28,1.28-1.64,1.32-3.51,1.14-5.48-.08-.87-.45-1.84.19-2.69,0,0,0,.03,0,.03-.61-.46-.81-1.02-.39-1.71,0,0,.01.03.01.03-.65-.33-1.1-.73-.49-1.49-.22-.27-.16-.5.09-.7-.47.49-.84.2-1.07-.21-.41-.72-.75-1.48-1.12-2.22-.41-.18-.63-.45-.43-.92-.13-.08-.31-.13-.38-.25-2.16-3.58-4.5-7.05-7.15-10.29-.39-.48-1.04-1.02-.58-1.84-1.5-.34-2.18-1.61-3.04-2.68-.51-.27-1.13-.44-1.11-1.2,0,0,.02.02.02.02-.34.14-.59-.01-.85-.21-4.89-3.64-10.01-6.89-15.65-9.25-.15-1.7.8-3.09,1.36-4.58.2-.54.02-1.15.22-1.69-.05-2.01.26-3.96.64-5.95-.58-1.11-.49-2.27-.26-3.44,0,0-.02.06-.02.06-.62-.64-.38-1.5-.53-2.25-.31-1.54-1.19-2.39-2.72-2.59-1.35-.18-2.69-.4-4.04-.5-1.99-.15-3.98-.18-5.96-.44-2.06-.27-3.31.85-2.78,2.75,1.36,4.88.39,9.66-.19,14.47-.11.88-.21,1.74-.06,2.62.19,1.13.78,2.01,1.95,2.12,1.1.1,1.61.76,2.26,1.5,1.87,2.12,4.35,3.45,6.75,4.86,5.46,3.21,10.6,6.81,14.79,11.62,1.94,2.23,4.02,4.34,5.85,6.65,3.41,4.33,5.62,9.26,6.86,14.62.49,2.09.65,2.24,2.82,2.47Z"/><path class="cls-2" d="m60.85,91.65c-.32.05-.52-.08-.56-.41-.44.31-.72.01-1.01-.26-5.12-4.9-10.23-9.81-15.35-14.7-.77-.73-1.21-1.59-1.34-2.63,0,0,.02.02.02.02-.65.05-.92-.3-.96-.91-1.04-.11-1.38-1.05-1.97-1.69-2.36-2.92-6.6-1.81-9.07,0-2.57,1.88-2.51,2.15.05,4.14,1.39,1.08,2.61,2.3,3.76,3.63,5.63,6.54,12.1,12.19,18.77,17.62.97.79,1.82,1.05,3.01.41,1.04-.56,2.26-.77,3.35-1.25,1.79-.79,1.88-1.07,1.49-3.12,0,0,.03.04.03.04-.32-.24-.91-.41-.21-.89Z"/><path class="cls-4" d="m42.58,73.65c.13,1.04.57,1.9,1.34,2.63,5.13,4.89,10.24,9.8,15.35,14.7.29.28.57.57,1.01.26-.22-.99-.91-1.65-1.63-2.27-3-2.61-6.42-5.06-9.03-8.04-2-2.28-3.62-4.62-5.79-6.7-.35-.33-.73-.61-1.25-.58Z"/><path class="cls-4" d="m37.59,37.04c-.46.81.19,1.36.58,1.84,2.66,3.24,4.99,6.71,7.15,10.29.07.12.25.17.38.25.84-.89.12-1.69-.28-2.36-1.53-2.51-3.06-5.02-4.79-7.38-.77-1.06-2.01-1.77-3.04-2.64Z"/><path class="cls-4" d="m49.1,56.61c-.65.85-.28,1.82-.19,2.69.18,1.97.14,3.84-1.14,5.48,2.18-.27,2.64-.6,2.46-2.51-.19-1.91-.52-3.26-1.12-5.66Z"/><path class="cls-5" d="m16.95,23.73c.55-1.41,1.11-2.82,1.66-4.23,0,0,.04.02.04.02-.12-.13-.23-.25-.35-.38-.56,1.5-1.5,2.88-1.36,4.58Z"/><path class="cls-4" d="m46.13,50.33c.37.74.7,1.5,1.12,2.22.24.41.61.7,1.07.21-.43-1.08-.62-2.37-2.19-2.43Z"/><path class="cls-4" d="m48.72,54.92c-.42.7-.22,1.25.39,1.71.41-.69.26-1.26-.39-1.71Z"/><path class="cls-4" d="m48.23,53.46c-.61.75-.16,1.15.49,1.49.34-.66.16-1.16-.49-1.49Z"/><path class="cls-4" d="m33.44,33.16c-.02.76.6.93,1.11,1.2.19-.91-.42-1.09-1.11-1.2Z"/><path class="cls-4" d="m41.64,72.76c.04.6.31.96.96.91.05-.7-.44-.82-.96-.91Z"/><path class="cls-4" d="m47.17,65.05c-.66-.06-1.27-.05-1.14.89.5-.14.93-.38,1.14-.89Z"/><path class="cls-1" d="m66.31,56.5c-.2-1.69-.25-3.2-.57-4.65-.97-4.29-2.11-8.54-3.79-12.61-3.62-8.78-9.24-16.15-15.74-23.01-6.24-6.59-13.98-10.25-22.52-12.52-3.39-.9-6.71-2.11-10.21-2.58-3.18-.43-6.38-.45-9.57-.3-1.97.09-3.1,1.19-2.87,3.04.62,4.97-.16,9.89-.25,14.83-.03,1.36-.02,2.71-.05,4.07-.03,1.4.45,2.47,1.76,3.12,6.87,3.39,12.49,8.56,18.59,13.04,5.65,4.14,10.4,9.19,14.22,15.1,2.01,3.12,3.65,6.37,4.26,10.08.3,1.8.34,1.78-1.32,2.34-3.03,1.02-6.08,1.98-9.06,3.12-3.7,1.41-3.94,2.32-1.35,5.23,7.12,8,14.38,15.87,22.86,22.5.57.44,1.13.89,1.71,1.31.77.55,1.58.67,2.49.28,2.71-1.15,5.63-1.79,8.18-3.37.73-.45,1.28-.9,1.56-1.69,1.68-4.67,4.1-9.02,6.08-13.56,2.65-6.1,4.84-12.35,6.74-18.71.41-1.38.94-2.72,1.43-4.07.78-2.18.18-3.09-2.11-2.86-2.93.29-5.91.39-8.73,1.41-.45.16-.92.24-1.74.46Zm-27.16,12.07c3.3-.68,6.05-2.4,9.17-3.18,1.71-.43,2.03-.81,1.95-2.44-.21-4.17-.68-8.32-2.67-12.08-3.34-6.31-7.15-12.31-12.44-17.22-4.71-4.37-9.87-8.12-15.81-10.68-.93-.4-1.12-.96-.97-1.87.21-1.26.38-2.53.49-3.8.31-3.58.9-7.14.72-10.75-.05-1.02.4-1.29,1.3-1.07,1.01.25,2.02.49,3.01.8,5.05,1.56,10.17,3.06,14.39,6.38,12.9,10.13,21.4,23.14,25.1,39.19.36,1.56.49,3.15.45,4.76-.05,2.1.7,2.72,2.78,2.22,1.48-.35,2.92-.85,4.4-1.17,1.68-.36,3.38-.61,5.29-.16-1.43,3.31-2.15,6.68-3.25,9.93-2.65,7.81-6.1,15.29-9.39,22.84-1.04,2.39-1.02,2.39-2.92.61-6.75-6.36-13.15-13.07-19.63-19.69-.66-.67-1.43-1.29-1.97-2.62ZM6.43,25.47c.07-.15.13-.3.2-.45,3.02-.02,6.03.02,9.05-.09,1.58-.06,2.96.29,4.36,1,11.08,5.61,19.1,14.26,24.95,25.07,1.82,3.36,2.76,6.96,2.9,10.78.02.66.06,1.28-.75,1.55-1.63.55-3.25,1.13-5,1.75-.22-.95-.41-1.72-.56-2.49-.46-2.37-1.25-4.63-2.43-6.74-2.75-4.9-5.99-9.42-10.07-13.33-5.09-4.89-10.85-8.91-16.61-12.93-2-1.4-4.03-2.74-6.04-4.11Zm9.49-3.47c-.14,1.15-1.03,1.12-1.95,1.04-3.09-.24-6.19-.46-9.3-.33-1.65.07-1.68-.02-1.66-1.76.07-5.56,1.13-11.09.58-16.68-.09-.91.5-1.04,1.2-1.07,3.75-.13,7.48-.06,11.19.58.79.14,1.03.48,1.07,1.25.31,5.59-.33,11.12-1.05,16.65-.01.08-.04.15-.09.32Zm44.61,72.17c-1.64,1.09-3.23,1.17-4.57,1.82-1.62.79-2.72.3-4.03-.77-8.06-6.59-15.16-14.13-22.06-21.88-.3-.34-.7-.66-.49-1.37,1.69-.68,3.48-1.34,5.22-2.11,1.3-.57,2.09-.24,3.06.83,5.76,6.41,11.7,12.64,17.92,18.61,1.6,1.53,3.16,3.11,4.95,4.87Z"/><path class="cls-2" d="m60.21,53.34c.19-.62.11-1.25.01-1.89-.48-2.93-1.24-5.76-2.45-8.49-2.31-5.21-5.4-9.96-8.45-14.74-.13-.2-.26-.41-.41-.59-.54-.64-1.13-1.26-2.01-.62-.9.66-.4,1.4.03,2.1,2.56,4.14,5.32,8.16,7.54,12.51,1.69,3.31,2.97,6.71,3.56,10.37.07.47.16.95.31,1.39.14.41.51.61.94.61.44,0,.71-.3.93-.66Z"/><path class="cls-2" d="m63.95,77.34c-.88,2.31-1.78,4.61-2.64,6.93-.19.5-.44,1.15.25,1.47.7.33,1.24-.03,1.56-.68.28-.57.51-1.17.74-1.76,1.36-3.41,2.54-6.89,4.18-10.19.4-.8.67-1.64.61-2.53-.04-.59-.3-1.1-.95-1.21-.6-.1-.85.39-1.02.82"/><path class="cls-2" d="m68.41,65.15c-.16.64.02,1.16.66,1.33.81.22,1.39-.19,1.66-.95.19-.52,0-.95-.54-1.14-.81-.28-1.36.11-1.79.76Z"/><path class="cls-2" d="m42.96,23.72c-.11.48,0,.92.53,1.1.71.25,1.21-.03,1.4-.77.14-.55-.17-.91-.65-1.05-.61-.18-1.04.09-1.28.72Z"/></svg>