<?xml version="1.0" encoding="UTF-8"?><svg id="Layer_1" xmlns="http://www.w3.org/2000/svg" xmlns:xlink="http://www.w3.org/1999/xlink" viewBox="0 0 430.69 286.91"><defs><style>.cls-1{clip-path:url(#clippath);}.cls-2{fill:none;}.cls-2,.cls-3,.cls-4,.cls-5,.cls-6,.cls-7,.cls-8,.cls-9,.cls-10{stroke-width:0px;}.cls-11{fill:#122b44;stroke:#182a42;stroke-miterlimit:10;}.cls-3{fill:#893b25;}.cls-4{fill:#dd8b6b;}.cls-5{fill:#854430;}.cls-6{fill:#ffe9da;}.cls-7{fill:#e57a58;}.cls-8{fill:#f0d4c4;}.cls-9{fill:#ebebeb;}.cls-10{fill:#e7e1df;}</style><clipPath id="clippath"><rect class="cls-2" x="18.04" y="13.54" width="131.67" height="125.05"/></clipPath></defs><g id="Group_576"><g class="cls-1"><g id="Group_658"><path id="Path_7431" class="cls-4" d="m38.84,53.9c-.26.03-.51-.1-.62-.33-.11-.28-.16-.57-.15-.87,0-1.77-.03-3.48-.09-5.15-.07-.93-.1-1.69-.1-2.26-.1-.83.1-1.67.58-2.36.95-.9,1.79-1.9,2.51-2.99.32-.7,1.01-1.16,1.78-1.2.61.04,1.18.27,1.64.67l.87.67c.52.33,1.01.72,1.44,1.16.17.16.39.25.63.24.37,0,.74-.08,1.08-.22.28-.12.58-.2.89-.22.75-.04,1.42-.46,1.78-1.11.35-.62.53-1.31.53-2.02,0-.53-.08-1.05-.26-1.54-.1-.37-.37-.67-.72-.82-.3-.09-.6-.21-.89-.34-.46-.2-.95-.33-1.44-.39-.19,0-.31.13-.34.39-.12.39-.18.79-.19,1.2v.82c.02.19-.03.38-.12.55-.13.13-.32.2-.51.17-.42,0-.66-.4-.72-1.2-.02-.67-.22-1.32-.58-1.88-.57-.48-1.25-.81-1.97-.96-.64-.22-1.27-.49-1.88-.8-.58-.28-1.07-.72-1.4-1.28-.15-.13-.33-.21-.53-.22-.23-.02-.45-.09-.65-.22-.24-.2-.38-.5-.36-.82-.05-1.31-.21-2.62-.48-3.9-.18-.63-.28-1.27-.28-1.93.03-.83.21-1.65.53-2.41l.48-1.78c.54-1.93,1.82-3.57,3.56-4.57.41-.29.87-.52,1.35-.67.54-.06,1.08-.19,1.59-.39,1.22-.34,2.49-.48,3.76-.43.76-.02,1.52.02,2.26.14.7.12,1.41.17,2.12.14.94.07,1.8.54,2.36,1.3.21.23.45.42.72.58.61.2,1.14.58,1.51,1.11.38.5.59,1.11.6,1.73v.87l-.05.39.05,2.94c.01.89-.04,1.79-.15,2.67-.1.69-.33,1.03-.72,1.03-.16.02-.32-.07-.39-.22-.08-.23-.13-.46-.14-.7,0-.2.02-.4.05-.6.03-.23.05-.47.05-.7,0-.16-.02-.32-.05-.48-.03-.17-.08-.34-.14-.51-.07-.14-.14-.22-.24-.22-.07,0-.13.07-.19.19-.11.23-.27.43-.48.58-.19.13-.36.23-.51.31-.11.07-.24.12-.36.17-.45.22-.82.58-1.06,1.01-.11.26-.18.54-.19.82v.14c0,.45-.17.67-.53.67-.24,0-.46-.14-.55-.36-.09-.27-.13-.56-.12-.84.02-.84-.02-1.67-.14-2.5-.1-.49-.33-.94-.67-1.3-.73-.62-1.61-1.03-2.55-1.2-.31-.12-.63-.22-.96-.29-.45,0-.8.59-1.06,1.78l-.24,1.2c-.04.23-.24.4-.48.39-.42,0-.63-.53-.63-1.59-.39.62-.62,1.34-.67,2.07-.04.71.26,1.41.8,1.88.41.4.95.64,1.52.67.13-.03.23-.06.31-.07.22-.02.43-.03.65-.02,1.27.05,2.52.36,3.66.91,1.08.44,2.09,1,3.03,1.69.94.72,1.78,1.57,2.48,2.53.7.97,1.06,2.15,1.04,3.35l-.05,2.02-.05,1.16-.29,1.59c-.06.54-.19,1.06-.39,1.57-.13.26-.22.55-.24.84l-1.02,6.74c-.1.8-.4,1.2-.92,1.2-.32,0-.6-.24-.67-.55-.12-.55-.17-1.1-.15-1.66.01-.43-.01-.87-.07-1.3-.05-.26-.17-.38-.36-.38l-.29.05-1.35.63c-.48.19-.87.35-1.16.48-.45.15-.93.22-1.4.19l-2.65-.05c-.89,0-1.78.1-2.65.29-.19,0-.37-.02-.55-.07-.16-.05-.33-.07-.51-.07-.2,0-.39.1-.51.26-.19.36-.29.77-.27,1.18.01.18-.05.37-.17.51-.09.1-.22.16-.36.17-.39,0-.68-.37-.87-1.11-.36-1.14-1.05-2.14-1.97-2.89-.12-.11-.27-.18-.43-.19-.29,0-.43.56-.43,1.69l.05,1.25v1.45c0,.65-.05,1.29-.17,1.93-.11.54-.36.82-.75.82"/><path id="Path_7432" class="cls-4" d="m63.93,53.47c-.48,0-.72-.76-.72-2.26l.1-1.69c-.01-.55-.1-1.1-.24-1.64-.08-.22-.2-.43-.36-.6-.16-.15-.34-.27-.53-.36-.57-.24-.9-.84-.8-1.44.08-1.16.35-2.3.82-3.37.38-1.12.68-2.26.91-3.42.16-.81.4-1.6.72-2.36l.05-.14c0-.13-.1-.21-.29-.24-.45-.13-.68-.39-.68-.77.08-.43.2-.85.36-1.25.24-.71.52-1.46.82-2.26.3-.8.59-1.46.84-1.98.55-1.22.93-2.52,1.11-3.85.06-.32.15-.62.29-.91.16-.42.26-.85.29-1.3.09-1.22.27-2.62.55-4.21.17-1.23.51-2.44.99-3.59.14-.36.37-.69.67-.94.33-.25.74-.38,1.16-.36h.34c.6,0,1.2-.05,1.8-.14.57-.09,1.14-.14,1.71-.14h2.7c.39,0,.85.39,1.39,1.18.54.77.92,1.65,1.11,2.58.22,1.13.65,2.2,1.25,3.18.53.76.87,1.64,1.01,2.55.02.22-.08.43-.27.55-.16.09-.27.27-.26.46.03.68.16,1.36.39,2,.24.75.36,1.53.33,2.31,0,.92.23,1.82.68,2.62.89,2.41,1.5,4.92,1.83,7.47.27,1.72.66,3.43,1.16,5.1.29.62.45,1.29.48,1.98.03.32-.06.64-.26.89-.15.16-.32.29-.51.41-.14.09-.28.18-.41.29-.12.11-.18.27-.17.43v1.83c0,.9-.01,1.51-.05,1.83-.09.77-.33,1.16-.72,1.16-.26,0-.45-.26-.58-.77l-.05-2.55c-.09-.58-.17-.98-.24-1.2-.05-.2-.19-.36-.38-.43-.29-.08-.59-.12-.89-.12-.4-.02-.96-.07-1.66-.17h-.19c-.16-.02-.31.07-.36.22-.06.24-.08.5-.07.75,0,.35-.02.83-.05,1.44-.02.22-.1.43-.24.6-.11.13-.26.21-.43.22-.19,0-.4-.14-.63-.43-.21-.26-.33-.58-.34-.92v-.24c0-.45-.07-.89-.19-1.32-.13-.43-.19-.88-.19-1.32l.05-.43c.01-.18-.03-.35-.12-.51-.08-.11-.15-.22-.22-.31-.22-.82-.38-1.66-.48-2.5-.02-.38-.07-.75-.17-1.12-.08-.26-.34-.42-.61-.39-.11,0-.23-.01-.33-.05-.48-.19-.98-.28-1.49-.29-.7,0-1.4.1-2.08.29-.25.09-.51.16-.77.22-.23.05-.41.39-.56,1.03s-.27,1.37-.38,2.19-.23,1.56-.36,2.24c-.07.27-.1.54-.1.82v.82c.01.41-.07.82-.24,1.2-.16.32-.35.48-.58.48-.18,0-.35-.08-.43-.24-.1-.18-.15-.38-.15-.58l.05-.92c0-.51-.27-.79-.82-.82-.09,0-.22-.08-.36-.24-.14-.16-.34-.25-.55-.24-.3,0-.59.15-.77.38-.48.84-.75,1.78-.77,2.74v.92c0,1.32-.29,1.97-.87,1.97m11.32-20.42c.07-.04.11-.11.1-.19-.11-.75-.28-1.5-.53-2.22l-.58-2.41c-.09-.32-.3-.6-.58-.77-.05.98-.24,1.94-.55,2.87-.3.85-.48,1.73-.56,2.62.33.06.67.1,1.01.1h1.69Z"/><path id="Path_7433" class="cls-4" d="m99.28,56.84c-.19,0-.31-.06-.36-.17-.06-.21-.08-.43-.07-.65,0-.77-.05-1.65-.15-2.65-.08-.91-.25-1.8-.51-2.67-.24-.79-.6-1.2-1.06-1.23s-.95-.05-1.47-.05c-.54-.06-1.08,0-1.59.19-.12.11-.19.27-.19.43-.29.82-.47,1.68-.53,2.55v.24c0,.42-.13.66-.38.72-.45,0-.72-.92-.82-2.74-.02-.34-.06-.68-.14-1.01-.29-1.28-.5-2.36-.63-3.23-.09-.92-.34-1.81-.72-2.65-.09-.14-.14-.31-.14-.48-.16-1.3-.4-2.58-.72-3.85-.35-1.8-.56-3.02-.63-3.66-.13-1.18-.37-2.34-.72-3.47-.08-.27-.11-.56-.1-.84,0-.28-.02-.57-.1-.84-.08-.2-.27-.34-.48-.34-.24-.02-.45-.18-.53-.41-.09-.22-.14-.46-.14-.7.07-4.45-.55-8.88-1.82-13.15-.07-.17-.1-.35-.1-.53.01-.51.24-.99.63-1.32.43-.41,1-.64,1.59-.65l.87-.05c.32,0,.63.02.94.1.2.06.4.11.6.14.24,0,.47-.06.68-.17.22-.11.47-.17.72-.17.7-.01,1.39.13,2.02.43.37.31.62.75.7,1.23.14.6.31,1.5.51,2.72l.63,3.8c.13.84.34,2.54.63,5.1.22,2.09.53,3.13.92,3.13.35-.03.56-.14.63-.34.12-.51.27-1.01.43-1.49.32-.94.56-1.91.72-2.89.1-.8.27-2,.53-3.61.55-3.63.82-5.78.82-6.45,0-.35.18-.68.48-.87.29-.21.65-.33,1.01-.33h.92c.35.05.71.07,1.06.07.58.02,1.21.04,1.9.07.69.03,1.29.05,1.81.05.45-.02.89.13,1.23.43.31.3.48.72.46,1.16l-.05.48c-.36,1.32-.64,2.65-.87,4-.16.74-.45,1.86-.87,3.37-.95,3.32-1.69,6.7-2.22,10.11l-.1.72c-.12,1.67-.5,3.31-1.11,4.86-.29.74-.54,1.48-.77,2.22l-.63,1.83c-.34.92-.57,1.87-.67,2.84-.07.56-.22,1.11-.43,1.64-.29.55-.44,1.16-.44,1.78v.19c0,.39-.03.77-.1,1.16-.38,1.47-.61,2.97-.67,4.48l.05.96c.03.21-.12.4-.33.43-.04,0-.07,0-.11,0"/><path id="Path_7434" class="cls-4" d="m114.4,59.97c-.61,0-.91-.63-.92-1.88l.05-.77c-.32-1.41-.49-2.84-.53-4.29v-.29c0-.69-.05-1.37-.17-2.05-.12-.6-.39-1.16-.79-1.61-.14-.1-.24-.23-.31-.38-.05-.13-.11-.33-.19-.6s-.36-1.07-.84-2.38c-.13-.25-.2-.53-.19-.82,0-.17.05-.34.14-.48.23-.39.38-.81.46-1.25.09-.57.15-1.15.17-1.74.03-.96.16-2.31.38-4.05,0-.43-.03-.85-.1-1.28-.06-.29-.1-.59-.1-.89l.05-2.36c.07-1.35.11-2.74.14-4.17.03-1.43.06-2.4.1-2.91,0-.38-.04-.76-.12-1.13-.08-.36-.12-.72-.12-1.08l.05-.29c0-.13,0-.26.05-.39-.03-.16-.18-.26-.33-.24h-.19c-.32,0-.48-.26-.48-.77.04-.91.15-1.81.33-2.7.11-.47.17-.96.19-1.45v-.24c0-.43.08-.85.22-1.25.22-.5.63-.9,1.13-1.11.8-.37,1.67-.56,2.55-.57.56,0,1.13.04,1.69.1,1.23.15,2.47.21,3.71.19.77,0,1.5-.02,2.19-.07s1.85-.08,3.49-.08c.4,0,.8-.06,1.18-.17.69-.14,1.39-.2,2.09-.17.64,0,1.46.05,2.45.14.67.06,1.21.57,1.32,1.23.15.7.22,1.42.22,2.14v.63c0,.56-.06,1.12-.19,1.66-.13.5-.27,1.02-.43,1.57-.63,1.84-1.05,3.75-1.25,5.68-.03.35-.11.69-.24,1.01-.12.32-.43.51-.77.48-.55-.03-.82-.61-.82-1.73,0-.57.03-1.14.1-1.71.06-.5.09-1.01.09-1.52,0-.8-.14-1.2-.43-1.2-.13.03-.25.06-.36.1-.16.04-.33.05-.5.05-.28,0-.57-.03-.85-.1-.26-.06-.53-.1-.79-.1h-1.6c-.57,0-1.13.06-1.68.19-.14.03-.29.05-.44.05-.34,0-.68-.05-1.01-.15-.35-.09-.7-.16-1.06-.19-.58,0-.87.24-.87.72v.58c-.1.3-.15.6-.15.91,0,.4.04.81.12,1.2.08.37.13.74.17,1.11.03.23.1.34.19.34.12,0,.23-.04.34-.1.35-.15.73-.21,1.11-.19.22,0,.44.05.65.12.35.09.72.13,1.08.12l1.25-.05c.5,0,1,.11,1.44.34.42.23.63.74.63,1.54v1.88c0,.96-.19,1.91-.58,2.79-.26.81-.39,1.65-.38,2.5v.39c0,.23-.02.45-.07.67-.05.19-.23.29-.55.29-.51,0-.77-.34-.77-1.01,0-.25.02-.51.08-.75.05-.22.07-.45.07-.67,0-.19-.14-.29-.43-.29-.59-.02-1.18.02-1.76.12-.27.06-.53.14-.79.24-.18.08-.38.12-.58.12-.15,0-.29-.02-.43-.07-.14-.05-.29-.09-.44-.12-.12-.02-.22.06-.24.18,0,.02,0,.04,0,.06l.05.39c.11.24.15.51.14.77,0,.33-.02.66-.07.99-.05.28-.07.56-.07.84-.01.45.18.89.53,1.18.75.4,1.61.56,2.46.45.45,0,.87-.01,1.25-.05s.87-.06,1.44-.1c.98.02,1.96.09,2.94.22.88.06,1.75.28,2.55.65.65.36,1.16.93,1.44,1.61.34,1.03.49,2.12.43,3.2,0,1.6-.14,3.87-.43,6.79-.04.58-.24,1.14-.58,1.61-.21.3-.55.48-.92.51-.29,0-.56-.12-.75-.34-.22-.25-.33-.58-.31-.92,0-.26.05-.52.12-.77.08-.28.12-.57.12-.87,0-.61-.12-1.21-.34-1.78-.06-.26-.12-.49-.17-.7-.02-.17-.12-.31-.26-.38-.18-.06-.37-.08-.55-.07-.22,0-.44-.01-.65-.05-.64-.07-1.28-.1-1.93-.1-.3,0-.6.01-.89.05-.23.03-.47.05-.7.05-.27,0-.54-.02-.8-.07-.29-.05-.59-.07-.89-.07-.84,0-1.68-.07-2.5-.24-.55-.12-1.12-.19-1.69-.19-.59,0-1.16.19-1.61.55-.59.57-1,1.3-1.2,2.1-.42,1.46-.7,2.96-.84,4.48l-.05,1.3v.34c0,.65-.08,1.3-.25,1.94-.29.74-.58,1.11-.87,1.11"/><path id="Path_7435" class="cls-4" d="m43.44,94.5c-.23,0-.42-.18-.58-.53-.2-.72-.29-1.47-.29-2.22v-.92c-.02-1.05-.11-2.1-.29-3.13-.12-1.23-.17-2.47-.14-3.71v-3.47c-.35-.36-.56-.84-.58-1.35,0-.48.1-.96.29-1.4.26-.96.38-1.95.34-2.94v-1.63c0-.89-.05-1.77-.19-2.65-.11-.7-.43-1.36-.91-1.88-.03,0-.07-.03-.12-.1s-.09-.1-.12-.1c-.35.02-.68-.14-.87-.43-.15-.34-.25-.69-.29-1.06-.05-.86-.3-1.7-.72-2.46-.29-.51-.53-1.04-.72-1.59-.16-.39-.31-.71-.43-.99-.13-.27-.27-.41-.43-.41-.23,0-.44.12-.56.31-.1.32-.14.65-.12.99-.01.54-.14,1.06-.39,1.54-.07.13-.1.28-.1.43v.58l.1,1.64c0,.42-.16.63-.48.63-.22,0-.37-.17-.43-.53-.07-3.95-.13-6.71-.19-8.28.02-.85-.16-1.69-.53-2.46-.18-.29-.28-.62-.29-.96.02-.49.29-.94.7-1.2.72-.42,1.55-.6,2.38-.53l.77.05c.54,0,1.07-.08,1.59-.24.15-.06.32-.1.48-.1.48.02.94.16,1.35.41.41.22.78.52,1.06.89.68,1.29,1.21,2.65,1.59,4.05.47,1.63,1.05,3.22,1.73,4.77.17-.04.3-.17.34-.34.66-1.9,1.45-3.75,2.36-5.54.33-.7.61-1.41.84-2.14.11-.41.25-.8.43-1.18.16-.31.43-.54.75-.67.91-.41,1.89-.63,2.89-.63h1.59l.67-.05c.35,0,.69.07,1.01.19.77.31,1.28,1.05,1.3,1.88,0,.2-.04.39-.1.58-.52,1.38-.77,2.84-.72,4.31.03,1.18-.02,2.36-.15,3.54-.09.32-.24.48-.43.48-.45,0-.67-.64-.67-1.93,0-.74.03-1.44.1-2.12v-.43c-.03-.35-.14-.53-.34-.53-.16,0-.32.11-.48.34-.39.9-.88,1.91-1.49,3.03-.19.38-.4.75-.63,1.11-.44.72-.83,1.48-1.16,2.26-1.38,3.56-2.17,5.75-2.36,6.55-.15.58-.21,1.18-.19,1.78.08.43.11.86.1,1.3,0,.52-.04,1.05-.1,1.56-.06.56-.11,1.28-.14,2.14,0,.82.06,1.64.19,2.46.13.44.19.89.19,1.35-.01.43-.15.84-.39,1.2-.04.07-.06.16-.05.24l.09,1.06c0,.56.15,1.11.44,1.59.1.16.15.34.14.53,0,.17-.04.33-.1.48-.31.78-.47,1.62-.48,2.46v.19c0,.37-.02.74-.09,1.11-.07.29-.29.43-.67.43-.16.02-.31-.06-.39-.19-.08-.17-.12-.35-.14-.53-.04-.25-.1-.49-.19-.72-.07-.48-.32-.92-.7-1.23-.4-.17-.84-.24-1.28-.22-.87,0-1.38.1-1.54.29-.22.43-.32.92-.29,1.4-.1,1.76-.18,2.8-.24,3.11-.02.27-.26.48-.53.46"/><path id="Path_7436" class="cls-4" d="m78.16,98.89c-.55-.07-.82-1.33-.82-3.8l.05-3.47c.01-1.15-.06-2.3-.22-3.44-.14-.98-.51-1.47-1.09-1.47-.36.04-.7.21-.96.46-.49.36-1.04.62-1.62.79-1.16.27-2.35.39-3.53.34-1.53-.03-3.03-.36-4.43-.96-.34-.24-.74-.39-1.16-.43-.39,0-.64.4-.77,1.2l-.19,1.16c-.26.93-.38,1.88-.38,2.84l.05.38c-.1.64-.34.96-.72.96-.31-.03-.59-.21-.75-.48-.27-.45-.4-.97-.36-1.49l.05-.77c-.1-3.18-.53-6.35-1.3-9.44l-.48-2.12c-.23-1.16-.37-1.97-.43-2.46-.03-.28-.08-.57-.14-.84-.02-.07-.08-.11-.14-.12-.7,0-1.06-.51-1.06-1.54.02-.98.16-1.94.4-2.89.27-1.16.59-2.42.97-3.78.37-1.36.73-2.77,1.08-4.21.1-.32.3-.86.63-1.61s.7-1.55,1.13-2.38c.37-.74.83-1.44,1.37-2.07,1.08-1.37,2.52-2.41,4.17-2.99,1.19-.31,2.41-.47,3.64-.48h1.68c1.08.09,2.11.47,2.99,1.11,1,.61,1.89,1.37,2.65,2.26,1.29,1.68,2.24,3.6,2.79,5.65.78,2.68,1.15,5.47,1.11,8.26-.02,2.69-.34,5.37-.96,7.99-.04.34-.05.69-.05,1.03,0,.47-.02.94-.05,1.42-.02.42-.09.85-.22,1.25-.11.35-.31.53-.6.53-.12,0-.23-.02-.34-.07-.11-.05-.22-.09-.34-.12-.06,0-.11.02-.14.07-.03.04-.04.09-.05.14,0,.04-.02.09-.05.12-.31,1.03-.49,2.1-.53,3.18-.03,1.7-.08,3.3-.14,4.79s-.1,2.96-.1,4.41l.05,2.07c0,.7-.19,1.06-.58,1.06l-.09-.05Zm-8.14-18.01c.88-.09,1.68-.54,2.21-1.25,1.38-1.51,2.07-4.85,2.07-10.02.05-2.11-.21-4.22-.77-6.26-.3-.45-.71-.82-1.2-1.06-.23-.14-.5-.23-.77-.24-.88.18-1.58.84-1.81,1.71-.2.83-.31,1.68-.31,2.53v.92c0,.32-.01.64-.05.96-.07.42-.26.63-.58.63-.3.02-.57-.19-.63-.48-.09-.33-.14-.67-.14-1.01-.02-.53-.14-1.05-.34-1.54l-.29,2.46c-.07.35-.1.7-.1,1.06,0,.35.01.78.05,1.28s.05,1.1.05,1.81l.19,2.02c0,.3-.04.59-.14.87-.09.21-.14.44-.14.67,0,.36.14.7.39.96.13.22.26.5.41.82.16.41.23.86.22,1.3-.02.5.18.99.53,1.35.3.33.71.52,1.16.53"/><path id="Path_7437" class="cls-4" d="m103.35,94.02c-.48,0-.72-.58-.72-1.73,0-.48.03-1.04.1-1.69.03-.83.05-2.05.05-3.66.02-.55-.21-1.09-.63-1.44-.11-.07-.21-.16-.29-.26-.07-.1-.17-.16-.29-.17-.07,0-.13.02-.19.05-.07.04-.14.09-.19.14-.07.07-.15.11-.24.14l-.92.29c-.58.21-1.18.4-1.78.55-.9.2-1.82.29-2.74.26-1.35.1-2.7-.19-3.9-.82-.16-.09-.34-.14-.53-.14-.77,0-1.24.71-1.4,2.12-.07.75-.11,1.51-.1,2.26.02.33-.04.66-.17.96-.14.24-.42.38-.7.34-.16.02-.31-.08-.34-.24-.03-.16-.06-.38-.1-.67s-.08-.64-.14-1.06l-1.69-7.66c-.27-1.01-.43-2.04-.48-3.08l.05-.43c0-.6-.1-1.19-.26-1.76-.18-.62-.27-1.26-.26-1.9l.05-1.54-.14-.96-.14-.81c-.48,0-.74-.11-.77-.34-.14-.47-.21-.96-.19-1.44.9-5.59,1.35-8.49,1.35-8.72l-.1-.39c-.22-.85-.31-1.72-.29-2.6,0-1.01.22-2.02.65-2.94.34-.9,1.23-1.48,2.19-1.44h.29c.74.09,1.48.14,2.22.14.55,0,1.09.03,1.64.1.96.19,1.44.95,1.44,2.26,0,.43-.04.86-.12,1.28-.12,1.42-.15,2.84-.12,4.26v13.72c-.05.71.01,1.43.19,2.12.11.24.28.45.48.63.23.21.43.45.58.72.16.3.48.49.82.48.57-.03,1.1-.25,1.52-.63.46-.28.75-.77.8-1.3l-.05-.67c0-.44.04-.87.12-1.3.08-.42.13-.82.17-1.2.03-1.44.06-2.59.1-3.44s.08-1.57.12-2.17c.05-.59.09-1.24.12-1.95,0-.55-.08-.82-.24-.82-.13-.06-.19-.22-.19-.48v-.43l.38-2.74.05-1.01c0-.42-.04-.84-.1-1.25-.14-.99-.22-1.99-.24-2.99-.04-.82.22-1.63.72-2.29.54-.62,1.35-.95,2.17-.89l.82.05,2.07-.05,1.59.05c.26-.01.51.04.75.14.25.21.41.5.46.82.3,1.38.44,2.78.43,4.19,0,.21.02.42.05.63-.2,1.32-.29,2.66-.29,4,0,1.06.03,2.12.1,3.18l.05,2.5c0,1.9-.22,2.92-.67,3.08-.08.04-.14.11-.17.19-.02.13-.03.26-.02.38-.01.9-.08,1.8-.19,2.7-.16,1.25-.27,2.5-.31,3.73-.05,1.24-.18,2.48-.41,3.71-.24,1.34-.37,2.7-.39,4.07,0,.69-.07,1.39-.19,2.07-.28.89-.42,1.81-.43,2.74v.23c0,.53-.05,1.05-.16,1.57-.04.35-.32.62-.67.65"/><path id="Path_7438" class="cls-4" d="m110.53,97.58c-.51,0-.77-.4-.77-1.2l.1-.92c.07-.49.1-.99.1-1.49,0-1.17-.11-2.34-.34-3.49-.24-1.2-.35-2.42-.34-3.64l.05-1.44c.07-.71.1-1.43.1-2.17l.04-4.39c0-1.17.06-2.35.19-3.52.08-.53.13-1.06.15-1.59,0-.12-.05-.23-.15-.29-.42-.27-.66-.75-.62-1.25,0-.57.07-1.13.19-1.68.19-.8.29-1.63.29-2.46,0-.31-.02-.61-.05-.92-.03-.3-.05-.61-.05-.92-.01-.89.03-1.79.14-2.67.1-.66.18-1.45.24-2.38,0-.25,0-.5-.05-.75-.04-.2-.05-.4-.05-.6.07-1.2.21-2.39.43-3.56,0-.56.31-1.07.79-1.35.46-.2.97-.3,1.47-.3.4-.03.81-.1,1.2-.19.56-.16,1.15-.24,1.73-.24.38,0,.81.02,1.28.05s1.03.05,1.71.05l2.17-.05c1.75.06,3.48.44,5.1,1.11l.82.29c.62.13,1.21.38,1.73.72,2.62,1.77,4.17,4.74,4.14,7.9,0,1.16-.13,2.31-.39,3.44-.26,1.14-.54,2.24-.87,3.3-.52,1.58-.84,3.21-.97,4.86v.58c.03.23-.13.45-.36.48-.04,0-.08,0-.12,0-.29,0-.45-.16-.48-.48-.06-.75-.22-1.5-.46-2.22-.18-.42-.43-.63-.75-.63-.39.01-.77.14-1.08.36-.34.19-.55.55-.55.94.01.37.09.74.22,1.08.12.39.31.76.55,1.08,1.34,2.43,2.36,5.02,3.03,7.71.07.31.17.62.29.92.28.73.47,1.49.58,2.26.01.12-.02.24-.1.34-.21.22-.35.48-.43.77-.07.3-.12.61-.15.92-.05.97-.19,1.94-.43,2.89-.13.38-.34.58-.63.58-.42,0-.63-.34-.63-1.01-.02-.43.04-.86.17-1.28.11-.3.17-.62.17-.94,0-1.35-.58-2.02-1.73-2.02-.27,0-.53.02-.79.05-.22.03-.43.04-.65.05l-.34-.05c-.16,0-.26.13-.29.38-.03.42-.11.84-.22,1.25-.12.46-.18.93-.17,1.4l.05.67c0,.26-.2.48-.47.48-.02,0-.04,0-.06,0-.16-.03-.26-.09-.29-.17-.06-.25-.09-.49-.1-.75,0-2.24-.48-4.46-1.38-6.51l-.15-.34c-.05-.47-.44-.84-.92-.87-.19,0-.37-.31-.53-.92l-.1-.48c-.26-1.47-.76-2.89-1.49-4.19-.25-.59-.61-1.13-1.06-1.59.08.33.11.67.1,1.01,0,.96-.08,2.22-.24,3.78-.15,1.34-.23,2.68-.24,4.02v.82c0,.52-.07,1.04-.22,1.54-.14.5-.23,1.02-.26,1.54,0,.24-.07.47-.22.65-.12.16-.31.26-.51.26-.29,0-.52-.25-.7-.75-.1-.44-.49-.75-.94-.75l-1.01.1c-.34,0-.67-.06-.99-.17-.26-.1-.53-.15-.8-.17-.51,0-.78.4-.82,1.2-.15,1.2-.23,2.4-.24,3.61l.05,2.5c.01.44-.03.87-.12,1.3-.05.26-.29.45-.55.43m8.09-28.99c.86-.17,1.73-.28,2.6-.34l1.26.05c.28,0,.56-.04.82-.14.22-.1.46-.43.72-1.01.37-.7.6-1.47.67-2.26-.02-.51-.11-1.01-.29-1.49,0,.05-.03.09-.07.12-.05.04-.07.11-.07.17l.05.34c0,.46-.07.91-.19,1.35l-.15.72c-.16.67-.42,1.01-.77,1.01-.18,0-.35-.1-.46-.24-.16-.19-.23-.43-.22-.67l.05-1.01c.08-.86-.02-1.73-.31-2.55-.24-.35-.57-.61-.96-.77-.34-.17-.71-.27-1.08-.29-1.01.3-1.75,1.17-1.88,2.22l-.1,3.66c-.01.31,0,.63.07.94.04.14.17.23.31.22"/><path id="Path_7439" class="cls-4" d="m19,132.52c-.26.03-.51-.1-.63-.34-.11-.28-.16-.57-.15-.87,0-1.76-.03-3.48-.09-5.15-.07-.93-.1-1.69-.1-2.26-.1-.83.1-1.67.58-2.36.95-.9,1.79-1.9,2.51-2.99.32-.7,1.01-1.16,1.78-1.2.61.04,1.18.27,1.64.67l.87.67c.52.33,1.01.72,1.44,1.16.17.16.39.25.63.24.37,0,.74-.08,1.08-.22.28-.12.58-.2.89-.22.75-.04,1.42-.46,1.79-1.11.35-.62.53-1.31.53-2.02,0-.53-.08-1.05-.27-1.54-.1-.37-.37-.67-.72-.82-.3-.09-.6-.21-.89-.34-.46-.2-.95-.33-1.44-.38-.19,0-.31.13-.34.38-.12.39-.18.79-.19,1.2v.82c.02.19-.03.38-.12.55-.13.13-.32.2-.51.17-.42,0-.66-.4-.72-1.2-.02-.67-.22-1.32-.58-1.88-.57-.48-1.25-.81-1.97-.96-.64-.22-1.27-.49-1.88-.79-.58-.28-1.07-.72-1.4-1.28-.15-.13-.33-.21-.53-.22-.23-.02-.45-.09-.65-.22-.24-.2-.38-.5-.36-.82-.05-1.31-.21-2.62-.48-3.9-.19-.63-.28-1.27-.29-1.93.03-.83.21-1.65.53-2.41l.48-1.78c.54-1.93,1.82-3.57,3.56-4.58.41-.29.87-.52,1.35-.67.54-.06,1.08-.19,1.59-.39,1.22-.34,2.49-.48,3.76-.43.76-.02,1.52.02,2.26.14.7.12,1.41.17,2.12.14.94.07,1.8.54,2.36,1.3.21.23.45.42.72.58.61.2,1.14.58,1.51,1.11.38.5.59,1.11.6,1.73v.87l-.05.38.05,2.94c.01.89-.04,1.79-.15,2.67-.1.69-.33,1.03-.72,1.03-.16.02-.32-.07-.39-.22-.08-.23-.13-.46-.14-.7,0-.2.02-.4.05-.6.03-.23.05-.47.05-.7,0-.16-.02-.32-.05-.48-.03-.17-.08-.34-.14-.51-.07-.14-.14-.22-.24-.22-.07,0-.13.07-.19.19-.11.23-.27.43-.48.58-.19.13-.36.23-.51.31-.11.07-.24.12-.36.17-.45.22-.82.58-1.06,1.01-.11.26-.18.54-.19.82v.14c0,.45-.17.67-.53.67-.24,0-.46-.14-.55-.36-.09-.27-.13-.56-.12-.84.02-.84-.02-1.67-.14-2.5-.1-.49-.33-.94-.67-1.3-.73-.62-1.61-1.03-2.55-1.2-.31-.12-.63-.22-.96-.29-.45,0-.8.59-1.06,1.78l-.24,1.2c-.04.23-.24.4-.48.38-.42,0-.63-.53-.63-1.59-.39.62-.62,1.34-.67,2.07-.04.71.26,1.41.8,1.88.41.4.95.64,1.52.67.13-.03.23-.06.31-.07.22-.02.43-.03.65-.02,1.27.05,2.52.36,3.66.92,1.08.44,2.09,1,3.03,1.69.94.72,1.78,1.57,2.48,2.53.7.97,1.06,2.15,1.04,3.35l-.05,2.02-.05,1.16-.29,1.59c-.06.54-.19,1.06-.39,1.56-.13.26-.22.55-.24.84l-1.01,6.74c-.1.8-.4,1.2-.92,1.2-.32,0-.6-.24-.67-.55-.12-.55-.17-1.1-.15-1.66.01-.43-.01-.87-.07-1.3-.05-.26-.17-.39-.36-.39l-.28.05-1.35.63c-.48.19-.87.35-1.16.48-.45.15-.93.22-1.4.19l-2.65-.05c-.89,0-1.78.1-2.65.29-.19,0-.37-.02-.55-.07-.16-.05-.33-.07-.51-.07-.2,0-.39.1-.51.26-.19.36-.29.77-.26,1.18.01.18-.05.37-.17.51-.09.1-.22.16-.36.17-.39,0-.68-.37-.87-1.11-.36-1.14-1.04-2.14-1.97-2.89-.12-.11-.27-.18-.43-.19-.29,0-.43.56-.43,1.69l.05,1.25v1.44c0,.65-.05,1.29-.17,1.93-.11.54-.36.82-.75.82"/><path id="Path_7440" class="cls-4" d="m43.42,133.92c-.19,0-.38-.15-.55-.46-.18-.32-.27-.67-.27-1.04v-.63c-.03-.29-.1-.88-.19-1.78s-.2-1.85-.31-2.84-.17-1.69-.17-2.07l.1-1.93c.1-1.64.14-3.31.14-5.01,0-.83-.02-1.44-.05-1.83v-.29c0-.21.01-.42.05-.63.03-.21.05-.42.05-.63v-1.06c-.07-1.19-.1-2.68-.1-4.48v-4.57c.02-.28-.09-.55-.29-.75-.22-.24-.32-.57-.29-.89l.05-.77c.17-1.13.26-2.27.29-3.42.02-.68-.03-1.36-.14-2.02l-.05-.82c.03-.41.13-.81.29-1.18.19-.49.48-.94.85-1.32.35-.38.85-.59,1.37-.58.4.01.79.07,1.18.17.53.12,1.07.18,1.61.17.32,0,.63-.02.94-.07.25-.05.49-.1.74-.12.55-.01,1.06.32,1.25.84.25.55.39,1.15.39,1.76,0,.29-.04.59-.12.87-.11.59-.15,1.19-.12,1.78,0,1.09.04,2.43.12,4,.08,1.57.12,2.92.12,4.04.01.56-.01,1.13-.07,1.69-.04.25-.07.51-.07.77,0,.83.17,1.64.48,2.41.19.71.31,1.43.34,2.17l.24,1.93c.02.42-.26.79-.67.87-.29.1-.43.26-.43.48l.05.77c0,.5-.03,1-.1,1.49-.06.48-.1.96-.1,1.44.03.88.17,1.76.43,2.6.15.45.23.92.24,1.4,0,.41-.15.81-.43,1.11-.07.1-.1.22-.1.34v.77c-.05,1.68-.31,3.35-.77,4.96-.1.29-.24.43-.43.43-.18-.03-.34-.12-.46-.26-.22-.3-.35-.66-.36-1.04l-.14-1.4c0-.64-.09-1.27-.26-1.88-.19-.09-.39-.12-.6-.1l-1.97.1c-.18,0-.34.11-.39.29l-.29,1.01c-.31.7-.48,1.45-.48,2.21l.05.53c.02.64-.02,1.27-.12,1.9-.08.37-.23.55-.46.55"/><path id="Path_7441" class="cls-4" d="m54.16,132.52c-.26.03-.51-.1-.63-.34-.11-.28-.16-.57-.15-.87,0-1.77-.03-3.48-.09-5.15-.07-.93-.1-1.69-.1-2.26-.1-.83.1-1.67.58-2.36.95-.9,1.79-1.9,2.51-2.99.32-.7,1.01-1.16,1.78-1.2.61.04,1.18.27,1.64.67l.87.67c.52.33,1.01.72,1.44,1.16.17.16.39.25.63.24.37,0,.74-.08,1.08-.22.28-.12.58-.2.89-.22.75-.04,1.42-.46,1.78-1.11.35-.62.53-1.31.53-2.02,0-.53-.08-1.05-.26-1.54-.1-.37-.36-.67-.72-.82-.3-.09-.6-.21-.89-.34-.46-.2-.95-.33-1.44-.38-.19,0-.31.13-.34.38-.12.39-.18.79-.19,1.2v.82c.02.19-.03.38-.12.55-.13.13-.32.2-.51.17-.42,0-.66-.4-.72-1.2-.02-.67-.23-1.31-.59-1.88-.57-.48-1.25-.81-1.97-.96-.64-.22-1.27-.49-1.88-.79-.58-.28-1.07-.72-1.4-1.28-.15-.13-.33-.21-.53-.22-.23-.02-.45-.09-.65-.22-.24-.2-.38-.5-.36-.82-.05-1.31-.21-2.62-.48-3.9-.19-.63-.28-1.27-.29-1.93.03-.83.21-1.65.53-2.41l.48-1.78c.54-1.93,1.82-3.57,3.56-4.58.41-.29.87-.52,1.35-.67.54-.06,1.08-.19,1.59-.38,1.22-.34,2.49-.48,3.76-.43.76-.02,1.52.02,2.26.14.7.12,1.41.17,2.12.14.94.07,1.8.54,2.36,1.3.21.23.45.42.72.58.61.2,1.14.58,1.51,1.11.38.5.59,1.11.6,1.73v.87l-.05.38.05,2.94c.01.89-.04,1.79-.15,2.67-.1.69-.33,1.03-.72,1.03-.16.02-.32-.07-.38-.22-.08-.23-.13-.46-.14-.7,0-.2.02-.4.05-.6.03-.23.05-.47.05-.7,0-.16-.02-.32-.05-.48-.03-.17-.08-.34-.14-.51-.07-.14-.14-.22-.24-.22-.07,0-.13.07-.19.19-.11.23-.27.43-.48.58-.19.13-.36.23-.51.31-.11.07-.24.12-.36.17-.45.22-.82.58-1.06,1.01-.11.26-.18.54-.19.82v.14c0,.45-.17.67-.53.67-.24,0-.46-.14-.55-.36-.09-.27-.13-.56-.12-.84.02-.84-.02-1.67-.14-2.5-.1-.49-.33-.94-.67-1.3-.73-.62-1.61-1.03-2.55-1.2-.31-.12-.63-.22-.96-.29-.45,0-.8.59-1.06,1.78l-.24,1.2c-.04.23-.24.4-.48.38-.42,0-.63-.53-.63-1.59-.39.62-.62,1.34-.67,2.07-.04.71.26,1.41.8,1.88.41.4.95.64,1.52.67.13-.03.23-.06.31-.07.22-.02.43-.03.65-.02,1.27.05,2.52.36,3.66.92,1.08.44,2.09,1,3.03,1.69.95.72,1.79,1.57,2.49,2.52.7.97,1.06,2.15,1.04,3.35l-.05,2.02-.05,1.16-.29,1.59c-.06.54-.19,1.06-.38,1.56-.13.26-.22.55-.24.84l-1.01,6.74c-.1.8-.4,1.2-.92,1.2-.32,0-.6-.24-.67-.55-.12-.55-.17-1.1-.15-1.66.01-.43-.01-.87-.07-1.3-.05-.26-.17-.39-.36-.39l-.29.05-1.35.63c-.48.19-.87.35-1.16.48-.45.15-.93.22-1.4.19l-2.65-.05c-.89,0-1.78.1-2.65.29-.19,0-.37-.02-.55-.07-.16-.05-.33-.07-.51-.07-.2,0-.39.1-.51.26-.19.36-.29.77-.26,1.18.01.18-.05.37-.17.51-.09.1-.22.16-.36.17-.39,0-.68-.37-.87-1.11-.36-1.14-1.05-2.14-1.97-2.89-.12-.11-.27-.18-.43-.19-.29,0-.43.56-.43,1.69l.05,1.25v1.44c0,.65-.05,1.29-.17,1.93-.11.54-.36.82-.75.82"/><path id="Path_7442" class="cls-4" d="m90.52,129.59c-.38,0-.58-.21-.58-.63.02-.67-.09-1.35-.34-1.97l-.1-.34c-.07-.27-.3-.47-.58-.51-.25-.04-.51-.07-.77-.07h-.38c-.26,0-.51-.01-.77-.05-.22.02-.42.14-.53.34-.51.66-.84,1.44-.96,2.26,0,.45-.16.67-.48.67-.19,0-.31-.04-.36-.12-.07-.16-.11-.33-.12-.51v-.14c-.16-1.25-.46-2.48-.92-3.66-.09-.31-.14-.64-.14-.96,0-.28.05-.56.14-.82.3-.99.47-2.01.53-3.03.1-1.25.18-2.5.24-3.76,0-1.14.07-2.29.24-3.42,0-.19-.05-.3-.14-.34-.11-.03-.22-.05-.34-.05-.13,0-.25-.04-.36-.1-.11-.06-.17-.21-.17-.43v-.24c.22-1.51.38-2.56.48-3.15.1-.6.17-1.03.22-1.3.05-.28.07-.56.07-.84l-.19-4.72c-.01-.39-.16-.76-.4-1.05-.22-.32-.56-.53-.94-.58-1.16-.13-1.89-.19-2.22-.19-.49-.02-.98.12-1.39.38-.45.38-.7.95-.68,1.54,0,.18-.02.35-.05.53-.03.21-.05.42-.05.63l.05.63c0,.27-.03.53-.09.79-.07.26-.1.53-.1.79l.05.43c0,.08-.05.15-.12.19-.07.06-.17.1-.26.1-.19,0-.39-.14-.6-.43-.28-.69-.39-1.43-.31-2.17l.1-1.25c.01-.59-.07-1.17-.24-1.73-.16-.51-.25-1.05-.24-1.59,0-.4.04-.79.12-1.18.1-.74.14-1.49.12-2.24-.03-.58.14-1.15.48-1.61.32-.4,1.17-.6,2.55-.6,1.16.02,2.32.12,3.47.29.48.03,1.19.05,2.12.05,1.48,0,3.19-.03,5.15-.1l3.76-.05,1.44.05,1.83-.1c.47,0,.92.12,1.32.36.4.24.6.92.6,2.05v2.55c.01.41-.05.82-.19,1.2-.27.88-.41,1.78-.43,2.7,0,.71-.24,1.06-.72,1.06-.23.02-.44-.13-.48-.36-.06-.24-.1-.48-.12-.72-.02-.24-.04-.46-.07-.65-.13-.64-.3-1.03-.51-1.16-.31-.15-.66-.22-1.01-.19-.43,0-.85-.03-1.28-.1l-.77-.1c-.47,0-.93.18-1.28.51-.38.35-.62.82-.7,1.32-.19,1.51-.34,4.72-.44,9.63-.07,1.93-.1,3.58-.1,4.96.25,1.22.38,2.46.38,3.71.06.53-.04,1.07-.29,1.54-.06.15-.1.32-.1.48l.1,1.2c-.04,1.13-.19,2.26-.43,3.37-.06.46-.1.93-.1,1.4,0,.38-.03.76-.1,1.13-.02.27-.26.48-.53.46"/><path id="Path_7443" class="cls-4" d="m105.5,138.6c-.61,0-.91-.63-.92-1.88l.05-.77c-.32-1.41-.49-2.84-.53-4.29v-.29c0-.69-.05-1.37-.17-2.05-.12-.6-.39-1.16-.79-1.61-.14-.1-.24-.23-.31-.39-.05-.13-.11-.33-.19-.6s-.36-1.07-.84-2.38c-.13-.25-.2-.53-.19-.82,0-.17.05-.34.14-.48.23-.39.38-.81.46-1.25.09-.57.15-1.15.17-1.73.03-.96.16-2.31.38-4.04,0-.43-.03-.85-.1-1.28-.06-.29-.1-.59-.1-.89l.05-2.36c.07-1.35.11-2.74.14-4.17s.06-2.4.1-2.91c0-.38-.04-.76-.12-1.13-.08-.36-.12-.72-.12-1.08l.05-.29c0-.13,0-.26.05-.38-.03-.16-.18-.26-.34-.24h-.19c-.32,0-.48-.26-.48-.77.04-.91.15-1.81.33-2.7.11-.47.17-.96.19-1.44v-.24c0-.43.08-.85.22-1.25.22-.5.63-.9,1.13-1.11.8-.37,1.67-.57,2.55-.58.56,0,1.13.04,1.69.1,1.23.15,2.47.21,3.71.19.77,0,1.5-.02,2.19-.07s1.86-.07,3.49-.07c.4,0,.8-.06,1.18-.17.69-.14,1.39-.2,2.1-.17.64,0,1.46.05,2.45.14.67.06,1.21.57,1.32,1.23.15.7.22,1.42.22,2.14v.63c0,.56-.06,1.12-.19,1.66-.13.5-.27,1.02-.43,1.56-.63,1.84-1.05,3.75-1.25,5.68-.03.35-.11.69-.24,1.01-.12.32-.43.51-.77.48-.55-.03-.82-.61-.82-1.73,0-.57.03-1.14.1-1.71.06-.5.09-1.01.09-1.52,0-.8-.14-1.2-.43-1.2-.13.03-.25.06-.36.1-.16.04-.33.05-.5.05-.28,0-.57-.03-.85-.1-.26-.06-.53-.1-.79-.1h-1.6c-.57,0-1.13.06-1.68.19-.14.03-.29.05-.44.05-.34,0-.68-.05-1.01-.14-.35-.09-.7-.16-1.06-.19-.58,0-.87.24-.87.72v.58c-.1.3-.15.6-.15.92,0,.4.04.81.12,1.2.08.37.13.74.17,1.11.03.22.1.34.19.34.12,0,.23-.04.34-.1.35-.15.73-.21,1.11-.19.22,0,.44.05.65.12.35.09.72.13,1.08.12l1.25-.05c.5,0,1,.11,1.44.34.42.23.63.74.63,1.54v1.88c0,.96-.19,1.91-.58,2.79-.26.81-.39,1.65-.38,2.5v.38c0,.23-.02.45-.07.67-.05.19-.23.29-.55.29-.51,0-.77-.34-.77-1.01,0-.26.02-.52.07-.77.05-.22.07-.45.07-.67,0-.19-.14-.29-.43-.29-.59-.02-1.18.02-1.76.12-.27.06-.53.14-.79.24-.18.08-.38.12-.58.12-.15,0-.29-.02-.43-.07-.14-.05-.29-.09-.44-.12-.12-.02-.22.06-.24.18,0,.02,0,.04,0,.06l.05.38c.11.24.15.51.14.77,0,.33-.02.66-.07.99-.05.28-.07.56-.07.84-.01.45.18.89.53,1.18.75.4,1.61.56,2.45.46.45,0,.87-.01,1.25-.05s.87-.06,1.44-.1c.98.02,1.96.09,2.94.22.88.06,1.75.28,2.55.65.65.36,1.16.93,1.44,1.61.34,1.03.49,2.12.43,3.2,0,1.6-.14,3.87-.43,6.79-.04.58-.24,1.14-.58,1.61-.21.3-.55.48-.92.51-.29,0-.56-.12-.75-.34-.22-.25-.33-.58-.31-.92,0-.26.05-.52.12-.77.08-.28.12-.57.12-.87,0-.61-.12-1.21-.34-1.78-.06-.26-.12-.49-.17-.7-.02-.17-.12-.31-.26-.39-.18-.06-.37-.08-.55-.07-.22,0-.44-.01-.65-.05-.64-.07-1.28-.1-1.93-.1-.3,0-.6.01-.89.05-.23.03-.47.05-.7.05-.27,0-.54-.02-.8-.07-.29-.05-.59-.07-.89-.07-.84,0-1.68-.07-2.5-.24-.55-.12-1.12-.19-1.69-.19-.59,0-1.16.19-1.61.55-.59.57-1,1.3-1.2,2.1-.42,1.46-.7,2.96-.84,4.48l-.05,1.3v.34c0,.65-.08,1.3-.24,1.93-.29.74-.58,1.11-.87,1.11"/><path id="Path_7444" class="cls-4" d="m127.94,136.42c-.51,0-.77-.4-.77-1.2l.1-.92c.07-.49.1-.99.1-1.49,0-1.17-.11-2.34-.34-3.49-.24-1.2-.35-2.42-.34-3.64l.05-1.44c.07-.71.1-1.43.1-2.17l.05-4.38c0-1.17.06-2.35.19-3.52.08-.53.13-1.06.15-1.59,0-.12-.05-.23-.15-.29-.42-.27-.66-.75-.62-1.25,0-.57.07-1.13.19-1.69.19-.8.28-1.63.28-2.45,0-.31-.02-.61-.05-.92-.03-.3-.05-.61-.05-.92-.01-.89.03-1.79.14-2.67.1-.66.18-1.45.24-2.38,0-.25,0-.5-.05-.75-.04-.2-.05-.4-.05-.6.07-1.2.21-2.39.43-3.56,0-.56.31-1.07.79-1.35.46-.2.97-.3,1.47-.29.4-.03.81-.1,1.2-.19.56-.16,1.15-.24,1.73-.24.38,0,.81.02,1.28.05s1.03.05,1.71.05l2.17-.05c1.75.06,3.48.44,5.1,1.11l.82.29c.62.13,1.21.38,1.73.72,2.62,1.77,4.17,4.74,4.14,7.9,0,1.16-.13,2.31-.39,3.44-.26,1.14-.54,2.24-.86,3.3-.52,1.58-.84,3.21-.96,4.86v.58c.03.23-.13.45-.36.48-.04,0-.08,0-.12,0-.29,0-.45-.16-.48-.48-.06-.75-.22-1.5-.46-2.22-.18-.42-.43-.63-.75-.63-.39.01-.77.14-1.08.36-.34.19-.55.55-.55.94.01.37.09.74.22,1.08.12.39.31.76.55,1.08,1.34,2.43,2.36,5.02,3.03,7.71.07.31.17.62.29.92.28.73.47,1.49.58,2.26.01.12-.02.24-.1.34-.21.22-.35.48-.43.77-.07.3-.12.61-.15.92-.05.97-.19,1.94-.43,2.89-.13.39-.34.58-.63.58-.42,0-.63-.34-.63-1.01-.02-.43.04-.86.17-1.28.11-.3.17-.62.17-.94,0-1.35-.58-2.02-1.73-2.02-.27,0-.53.02-.79.05-.22.03-.43.04-.65.05l-.34-.05c-.16,0-.26.13-.29.39-.03.42-.1.84-.2,1.25-.12.46-.18.93-.17,1.4l.05.67c0,.26-.2.48-.47.49-.02,0-.04,0-.06,0-.16-.03-.26-.09-.29-.17-.06-.25-.09-.49-.1-.75-.01-2.24-.49-4.45-1.39-6.5l-.15-.34c-.05-.47-.44-.84-.92-.87-.19,0-.37-.31-.53-.92l-.1-.48c-.26-1.47-.76-2.89-1.49-4.19-.25-.59-.61-1.13-1.06-1.59.08.33.11.67.1,1.01,0,.96-.08,2.22-.24,3.78-.15,1.34-.23,2.68-.24,4.02v.82c0,.52-.07,1.04-.22,1.54-.14.5-.23,1.02-.26,1.54,0,.24-.07.47-.22.65-.12.16-.31.26-.51.26-.29,0-.52-.25-.7-.75-.1-.44-.49-.75-.94-.75l-1.01.1c-.34,0-.67-.06-.99-.17-.26-.1-.53-.15-.8-.17-.51,0-.79.4-.82,1.2-.15,1.2-.23,2.4-.24,3.61l.05,2.5c.01.44-.03.87-.12,1.3-.05.26-.29.45-.55.43m8.09-28.99c.86-.17,1.73-.28,2.6-.34l1.25.05c.28,0,.56-.04.82-.14.22-.1.46-.43.72-1.01.37-.71.6-1.48.68-2.27-.02-.51-.11-1.01-.29-1.49,0,.05-.03.09-.07.12-.05.04-.07.11-.07.17l.05.34c0,.46-.07.91-.19,1.35l-.15.72c-.16.67-.42,1.01-.77,1.01-.18,0-.35-.1-.46-.24-.16-.19-.24-.43-.22-.67l.05-1.01c.08-.86-.03-1.73-.31-2.55-.24-.35-.57-.61-.96-.77-.34-.17-.71-.27-1.08-.29-1.01.3-1.75,1.17-1.88,2.22l-.1,3.66c-.01.31,0,.63.07.94.04.14.17.23.31.22"/></g></g></g><path class="cls-6" d="m318.53,262.68c-9.15.33-18.09-1.13-26.97-3.17-4.84-1.11-9.76-2.01-14.42-3.7-5.41-1.96-10.94-3.41-16.56-4.58-9.97-2.07-19.9-4.33-29.95-6.01-4.68-.79-9.23-2.15-13.77-3.53-6.02-1.83-12.19-2.96-18.3-4.36-6.95-1.59-13.92-3.13-20.82-4.91-5.99-1.55-11.91-3.39-17.85-5.12-6.38-1.86-12.77-3.69-19.12-5.65-5.95-1.84-11.55-4.54-17.09-7.33-8.47-4.26-17.22-7.83-26.15-11.01-6.78-2.41-13.6-4.74-20.1-7.87-5.13-2.47-8.92-6.47-12.03-11.11-1.48-2.21-1.84-4.88-2.29-7.47-.94-5.38.72-10.47,1.7-15.64.42-2.19.99-4.32,2.15-6.24,1.4-2.3,3.41-3.82,6-4.57,4.27-1.24,8.69-1.56,13.06-2.2,5.93-.87,11.85-1.81,17.68-3.27,5.25-1.32,10.63-1.96,15.98-2.74,6.25-.92,12.52-.88,18.8-1.12,4.1-.16,8.12-1.2,11.86-3.07.97-.49,2-.87,2.95-1.39,1.94-1.07,3.05-2.82,3.64-4.89,1.88-6.65,3.41-13.36,4.34-20.22.33-2.44.1-4.87.44-7.3.64-4.49,1.93-8.63,5.05-12.04.71-.78,1.66-1.11,2.62-1.35,1.53-.39,3.08-.61,4.69-.62,4.26-.02,8.53-.02,12.77-.32,2.31-.16,4.61-.19,6.92-.19,5.64,0,5.92-2.27,6.42-6.14.52-4.02.1-8.06.31-12.09.16-3.15.72-6.28,1.67-9.3.88-2.78,4.18-5.1,6.75-4.84,3.44.35,5.63,2.41,6.54,5.63.64,2.29.74,4.61.34,6.98-.22,1.28-.23,2.62-.28,3.91-.14,4.07-.56,8.15-.3,12.22.2,3.15.48,6.29,1.7,9.28,1.12,2.75,3.39,3.86,6.06,4.09,3.66.31,7.29-.47,10.92-.89,3.6-.41,7.19-.64,10.79,0,2.48.44,4.86.08,6.88-1.38,1.72-1.24,2.1-3.3,2.32-5.31.55-4.93.05-9.88.32-14.81.12-2.17.21-4.29-.15-6.46-.57-3.47-2.55-6.11-4.66-8.72-1.88-2.32-3.11-4.93-2.82-7.99.49-5.08,3.64-8.2,8.2-9.61,6.34-1.96,12.34-.68,17.73,3.17,1.89,1.35,2.63,3.44,2.89,5.65.3,2.58-.27,5.01-1.41,7.36-2.18,4.47-4.46,8.93-5.46,13.86-.65,3.18-1.39,6.35-1.75,9.57-.33,2.87.68,4.89,3.77,6.19,1.55.65,3.18,1.01,4.89.97,3.41-.09,6.74.49,10.04,1.31,3.36.84,5.55,3.2,7.37,5.87,1.53,2.25,3.02,4.47,4.98,6.41,3.46,3.42,4.49,7.66,3.51,12.37-1.62,7.77-3.13,15.55-4.39,23.39-.48,2.98-.15,5.76,1.99,8.09.48.52,1.06.76,1.77.9,2.82.53,5.65.27,8.48.36,6.13.19,11.92-1.2,17.76-2.67,3.98-1.01,8.07-1.42,12.16-1.81,2.73-.26,5.45-.89,8.18-.96,5.63-.14,11.28-1.17,16.88.42,2.44.69,6.35,4.91,6.69,7.64.54,4.36-.26,8.46-1.81,12.45-1.63,4.18-2.7,8.54-4.23,12.75-2.07,5.66-3.24,11.58-5.15,17.29-2.25,6.74-4.52,13.48-6.73,20.23-2.28,6.96-4.33,13.99-5.77,21.17-.68,3.41-1.16,6.85-2.31,10.15-1.46,4.19-3.73,7.93-6.56,11.34-2.21,2.67-5.26,3.69-8.5,4.44-3.73.86-7.49.37-11.24.53Z"/><path class="cls-6" d="m250.59,162.49c1.5.51,3.07.35,4.56.18,3.13-.35,6.25-.24,9.37-.18,4.58.08,9.15-.23,13.72-.36,4.84-.14,9.67-.36,14.51-.54,2.64-.1,5.29-.58,7.89-1.11,2.6-.53,5.15-.01,7.7.18,2.91.22,5.77-.15,8.65-.26,3.1-.13,6.18-.71,9.28-.92,8.19-.57,16.41-.79,24.4-2.96,1.02-.28,1.92-.8,2.9-1.14.94-.32,1.85-.58,2.63.28.76.84.45,1.72-.05,2.5-1.42,2.19-1.62,4.88-2.92,7.14-.44.76-.23,1.9.64,2.61-.97,2.9-1.94,5.8-2.91,8.7-1.24.71-1.92,1.84-2.33,3.15-.54,1.77-1.14,3.53-1.5,5.34-.39,1.97-1.66,2.98-3.4,3.47-2,.56-4.03.92-6.14.89-3.76-.06-7.54-.17-11.29.02-5.54.28-11.09.37-16.61,1.01-4.37.51-8.78.2-13.16.34-5.1.17-10.2.46-15.31.6-2.87.08-5.8.52-8.64.35-3.47-.2-6.67.83-9.99,1.21-2.56.35-5.14.26-7.72.27-1.59,0-3.22-.23-4.75.08-7.07,1.42-14.21,1.89-21.39,1.8-1.46-.02-2.9.13-4.31.37-1,.17-2.09-.13-3,.5-.27.02-.54.06-.81.06-6.6-.13-13.21-.2-19.81.17-2.03.11-4.06.15-6.09.23-1-.45-2.05-.08-3.07-.23-4.22-.63-8.44-1.33-12.67-1.86-6.96-.86-13.88-2.12-20.92-2.19-.93,0-1.89-.22-2.81.18-1.35-.12-2.7-.28-4.05-.34-2.67-.12-5.29-.73-7.98-.71-1.89-1.06-4-1.25-6.08-1.59-4.7-.76-9.43-1.38-14.06-2.49-3.87-.93-7.68-2-11.72-1.61-.3.03-.62-.16-.93-.15-1.15.04-2.26-.62-3.43-.18-.32.06-.58-.09-.84-.23-.18-.24-.45-.22-.7-.22-2.83-.39-5.54-1.25-8.29-1.99-.13-.55-.41-.61-.81-.23-.32.03-.63.05-.88-.21.76-.32.09-.34-.09-.38-2.89-.71-5.76-1.52-8.68-2.08-3.45-.65-6.86-1.46-10.31-2.11-1.2-.23-2.69-1.41-3.64-2.52-.8-.94-.5-2.42-.63-3.66-.26-2.36-.13-4.74-.76-7.09-.4-1.48.12-3.04.51-4.53.06-.24.27-.5.48-.63.87-.54,1.77-.98,2.45-1.85.55-.7,1.46-.4,2.26-.1,1.98.75,4.01.96,6.08.38.36,1.12,1.31,1.08,2.22,1.15,4.88.34,9.72.95,14.55,1.75.13.12.23.31.38.34,6.81,1.32,13.64,2.51,20.42,3.96,5.43,1.16,10.93,1.12,16.41,1.51l.1-.02c.15.27.33.35.55.08,2,.24,3.99.47,5.99.71,1.49.69,3.14.73,4.71.85,7.95.6,15.92.72,23.9.57,1.85-.04,3.69-.37,5.55-.26.36.02.9-.09,1.05.1,1.07,1.31,2.47.64,3.74.72,3.26.19,6.51-.27,9.77-.27,3.98,0,7.95.17,11.92.53,2.53.23,4.89-.76,7.33-1.17,3.64-.61,7.31-1.02,10.97-1.53,2.29-.32,4.53-.82,6.7-1.61.29-.11.47-.25.49-.56,2.5-.33,4.99-.72,7.5-.98,4.4-.47,8.79-1.04,13.22-1.18Z"/><path class="cls-5" d="m196.11,195.29c2.03-.07,4.06-.12,6.09-.23,6.6-.36,13.2-.3,19.81-.17.27,0,.54-.04.81-.06,3.35.24,6.7.32,10.05.07,7.64-.58,15.28-1.14,22.89-2.03,2.74-.32,5.5-.48,8.25-.71,4.45.41,8.81-.86,13.24-.72,7.87.25,15.66-1.3,23.51-1.2,3.56.05,7.16.51,10.7.16,6.58-.65,13.21-.36,19.77-1.24.94-.13,1.83-.1,2.51.65.37.41.81.3,1.26.32,2.7.11,5.33-.31,7.95-.9.75-.17,1.52-.29,2.29-.31,1.49-.03,2.14.87,2.1,2.33-.03,1.54-.54,2.9-1.14,4.27-4.59,10.33-7.76,21.16-11.09,31.93-1.43,4.64-2.38,9.39-3.53,14.09-.29,1.19-.55,2.39-1.08,3.5-.72,1.5-1.97,1.67-3.09.43-.27-.3-.53-.43-.9-.51-10.45-2.04-20.89-4.14-31.35-6.13-13.36-2.54-26.68-5.33-40.16-7.15-15.05-2.02-31.04-2.18-44.86-7.66-5.32-.86-10.77-1.43-15.83-3.23-8.51-3.04-17.38-4.63-25.98-7.25-.82-.25-1.68-.44-2.53-.47-2.42-.08-4.32-1.47-6.4-2.39-.43-.19-.85-.59-.81-1.02-3.3-.83-2.54-.72-3.36-.96-4.07-1.2-6.71-1.41-10.64-3.11-.57-.25-.74-.11-1.59-.49-.9-.4-1.65-.13-2.53-.33-5.98-1.37-11.99-2.99-17.26-6.01-4.22-2.42-9.53-3.66-13.98-5.45-3.94-1.59-7.02-3.68-11.16-4.68-1.17-.28-1.68-1.35-2.71-1.69-1.93-.64-3.87-1.29-5.79-1.94-1.63-.56-3.26-1.1-4.87-1.71-1.09-.42-2.14-.98-1.89-2.43.17-1.06,1.2-1.64,2.83-1.55,3,.18,5.92.85,8.85,1.46.8.17,1.6.31,2.4.46.25.26.56.24.88.21.27.08.54.15.81.23,2.74.74,5.46,1.61,8.29,1.99.17.26.44.24.7.22.26.14.52.3.84.23,7.18,1.52,14.19,3.81,21.57,4.47,4.18.38,8.3,1.36,12.45,2.02.76.12,1.64.49,2.19-.47,2.68-.02,5.3.6,7.98.71,1.35.06,2.7.22,4.05.34,3.82,1.17,7.84,1.13,11.74,1.88,4.74.92,9.64,1.01,14.45,1.64,4.42.58,8.83,1.04,13.28.58Zm123.18,37.9c0,.5-.06,1.01.01,1.49.18,1.25.48,2.52,1.91,2.83,1.48.32,2.21-.75,2.77-1.91,1.44-2.97,2.8-5.97,4.03-9.04,2.89-7.25,5.24-14.65,6.95-22.25.44-1.93.99-3.85.42-5.88-.64-2.27-2.45-2.86-4.17-1.25-1.35,1.26-2.21,2.88-2.9,4.55-2.65,6.45-4.83,13.07-6.75,19.77-1.09,3.82-1.96,7.7-2.27,11.68Zm4.35-37.56c-.94.16-1.79.8-2.24,1.86-.53,1.24-.96,2.53-1.38,3.82-.34,1.04-.19,2.08.8,2.62,1.08.59,2.01.03,2.66-.93,1.09-1.6,1.64-3.41,2.01-5.28.22-1.11-.59-2.04-1.85-2.09Zm-6.25,1.63c0,.96.55,1.46,1.33,1.48.78.02,1.36-.46,1.38-1.35.01-.83-.55-1.3-1.25-1.35-.79-.06-1.35.42-1.45,1.21Z"/><path class="cls-4" d="m189.01,168.05c-4.35-.19-10.09.02-15.46-.57-3.04-.34-5.83-.82-8.88-.88-4.75.88-3.09-.83-3.19-2.82-.05-.96.07-1.91.29-2.84.78-3.38.35-6.88,1.08-10.27-.33-4.14.65-8.37.37-12.67-.36-5.54,2.07-11.1,2.61-16.47.26-2.57,1.61-3.73,4.08-4.11,3.76-.57,7.55-.92,11.33-1.37.18-.02.41.03.53-.06,2.35-1.83,5.21-1.21,7.82-1.43,4.76-.41,9.37-1.66,14.09-2.22,7.67-.91,15.1-3.04,22.69-4.35,2.22-.38,4.41-1.31,6.66-1.84.31-.07.61-.18.93-.21.65-.07,1.3-.07,1.72.54.43.63.38,1.33-.03,1.92-.58.85-.82,1.68-.76,2.75.07,1.35-.44,2.67-.83,3.97-1.29,4.22-2.17,8.51-2.3,12.94,0,.18,0,.36-.03.54-.1,1.03-.19,2.09-1.57,2.11-.91.02-1.57-1.05-1.51-2.38.15-3.4.63-6.76,1.42-10.08.26-1.09.61-2.09-.54-3.01-.39-.32-.64-.62-1.18-.63-2.13-.05-4.26-.1-6.4-.2-.66-.03-1.07.13-1.44.73-.86,1.4-1.54,3.15-3.15,3.15-2,0-4.55.31-6.53.48-4.55.4-9.22-.85-13.79-.69-2.76.1-5.54-.13-8.28.4-.52.1-1.01.1-1.04.79-.16,4.16-1.21,8.27-.87,12.47.19,2.3.41,4.61.57,6.91.06.93.44,1.21,1.38,1.14,6.39-.47,12.79-.44,19.19-.26,1.59.04,3.18.03,4.76.21,2.8.31,5.5-.34,8.24-.67,1.57-.19,3.16-.33,4.74-.46,1.31-.1,1.72.69,2.29,1.8,1.08,2.11.1,4.05-.03,6.03-.24,3.56.45,7.03.76,10.53.14,1.63.04,3.15-.56,4.66-.41,1.03-1.22,1.61-2.23,1.81-5.45,1.1-10.63,3.82-16.28,4.01-6.53.22-13.09.69-20.67.57Zm-22.06-32.63c0,.66,0,1.03,0,1.39.01,1.33.65,2.31,1.59,2.31,1.23,0,1.78-.89,1.91-1.93.53-4.39.98-8.79,1.45-13.19.13-1.17-.33-2-1.53-2.16-1.26-.16-1.79.75-2,1.78-.8,3.99-1.14,8.04-1.42,11.8Zm1.08,21.85c0-.32.02-.63,0-.95-.07-1-.29-2-1.52-2.04-1.15-.04-1.51.9-1.63,1.83-.19,1.52-.3,3.05-.36,4.58-.04,1.02.44,1.83,1.51,1.91,1.09.08,1.63-.66,1.74-1.68.12-1.21.18-2.43.26-3.64Zm-1.12-5.24c1.03-.09,1.59-.71,1.55-1.68-.04-.84-.64-1.39-1.5-1.47-.75-.07-1.69.96-1.55,1.72.14.8.56,1.42,1.5,1.43Zm15.17-7.45c-3.39-.71-6.8-.71-10.2-.76-.37,0-1.01-.21-1.04.3-.05.69.66.45,1.04.45,3.4.02,6.8.01,10.2.01Z"/><path class="cls-5" d="m251.76,162.06c-4.43.14-9.03,1.49-13.43,1.96-2.51.27-7.46.5-9.95.84-1.3-.39-.11-2.53-.02-3.81.04-.59-.3-1.64-.19-2.22.34-1.8.22-3.19-.59-4.94-.33-.71,1.41-.89,1.62-1.63.37-1.28-1.71-2.63-1.81-3.96-.59-7.94,2.48-16.34,4.49-23.9,1.41-5.3,2.7-9.32,3.56-14.75.45-2.87,2.48-3.41,5.81-3.79,2.08-.23,4.25.23,6.37.38,9.16.65,18.17,2.33,27.16,4.13,2.4.48,4.83,1.04,7.26,1.07,2.25.03,4.51-.19,6.77.12,1.08.15,2.17.24,3.17.71,1.71.8,2.15,1.84,1.57,3.65-.1.3-.21.6-.33.89-1.1,2.71-2.2,5.33-2.43,8.38-.39,5.07-2.26,9.88-3.48,14.8-.36,1.47-.77,3.04-.45,4.42.75,3.18.22,6.31.21,9.46,0,.18-.05.42.04.53,1.55,1.85.29,3.63-.19,5.38-.32,1.18-1.31,1.48-2.37.91-.38-.21-.71-.34-1.14-.29-6.65.76-13.34.45-20,.83-3.9.22-7.79.53-11.68.8Zm-17.53-24.59c1.73,0,3.44.03,5.15,0,10.79-.22,21.43,1.63,32.15,2.33,3.35.22,6.7.44,10.05.67.85.06,1.18-.25,1.22-1.15.19-3.62,1.04-7.16,1.67-10.71.61-3.38.68-6.47,2.09-9.63.34-.77.36-.48-.07-1.27-.5-.91-1.89-.29-2.9-.5-7.85-1.62-15.72-1.45-23.7-1.9-6.86-.39-13.78-.96-20.63-.41-.74.06-.93.32-1.03.9-1.05,5.94-2.69,11.74-4.11,17.6-.08.34-.33.78-.07,1.04,1,1.02.49,2.09.17,3.04Zm49.98,15.79c0-.48,0-.75,0-1.02-.02-1.46-.59-2.29-1.78-2.45-1.32-.18-2.2.47-2.61,1.67-.57,1.65-.77,3.31-.09,5.02.38.95.98,1.58,1.96,1.61,1.01.03,1.63-.62,1.94-1.59.36-1.12.73-2.24.58-3.23Z"/><path class="cls-8" d="m215.64,139c-3.78-.31-7.56.41-11.51-.17-.18-.03-.9.86-1-.09-2.91.91-5.55-.39-8.46-.58-1.03-.07-2.06-.08-3.11.15-2.26.51-4.03,1.27-4.32-1.03-.47-3.66.36-9.25,1.19-12.8.24-1.04.17-2.15.46-3.21.58-2.12,1.41-2.87,3.6-2.43,1.76.36,3.43-.01,5.12-.14,2.4-.19,4.76-.13,7.16,0,2.84.16,5.71.31,8.55-.14.53-.08,1.09-.03,1.63-.06,1.16-.08,2.28-.15,3.32-.89.66-.46,1.62-.71,2.45-.69,2.09.04,4.15-.37,6.24-.32,1.6.04,2.23.94,1.61,2.4-.24.57-.28,1.13-.27,1.72,0,3.68.02,7.36-.02,11.03-.01,1.08-.15,2.16-.29,3.23-.08.61-.44,1.05-1.02,1.35-1.17.63-2.42.99-3.72,1.23-1.3.24-2.62.23-3.82,1.08-1.02.72-2.39.14-3.79.33Zm-8.67-3.29c.47.03.78-.31,1.09-.64,2.99-3.1,5.73-6.45,8.86-9.41.44-.41.61-.92.23-1.46-.4-.58-1-.68-1.56-.35-.58.34-1.12.78-1.58,1.27-1.67,1.79-3.3,3.63-4.93,5.45-.94,1.05-1.89,2.09-2.81,3.15-.38.44-.5.97-.26,1.53.17.39.52.47.96.47Zm-14.31-.27c.66.06,1.04-.47,1.45-.96,1.55-1.89,3.11-3.77,4.64-5.68.56-.7,1.19-1.37,1.54-2.23.25-.63.25-1.15-.34-1.56-.56-.38-1.05-.15-1.45.28-.64.7-1.27,1.42-1.87,2.15-1.58,1.93-3.13,3.87-4.71,5.8-.41.5-.56,1.04-.34,1.64.16.44.56.56,1.09.55Zm2.11-13.42c-.15.04-.48.03-.66.19-1.13.98-2.09,2.11-2.82,3.42-.19.35-.1.82.24,1.12.36.32.82.5,1.24.21,1.32-.92,2.31-2.16,3.03-3.56.34-.66.04-1.35-1.04-1.38Zm16.64,1.51c0-.87-.79-1.33-1.64-.9-1.02.51-1.67,1.41-2.08,2.42-.35.85.47,1.67,1.35,1.44.72-.19,2.38-2.25,2.38-2.96Zm14.32.04c-.05-.52-.33-.92-.98-.98-.81-.08-2.14,1.19-2.16,2.08-.01.64.35,1.02.95,1.12.63.11,2.14-1.39,2.19-2.22Zm-2,9.6c.45-.09.89-.35.9-.93,0-.62-.36-1.05-1-1.04-.57.01-.94.4-.91.97.03.53.32.93,1.02,1Z"/><path class="cls-5" d="m139.17,166.47s-.1.02-.1.02c-.4-.38-.94-.3-1.41-.41-5.85-1.43-11.71-2.83-17.71-3.49-2.97-.32-5.96-.48-8.93-.8-3.06-.32-6.11-.74-9.17-1.11-4.82-.81-9.67-1.41-14.55-1.75-.91-.06-1.86-.02-2.22-1.15.07-1.08.69-1.5,1.72-1.46,3.58.14,7.16-.27,10.75-.08,1.59.08,3.25-.24,4.82-.62,6.32-1.57,12.75-1.49,19.19-1.42,7.43.08,14.84.67,22.26,1.12,5.33.32,10.66.82,16,1.06.97.04,1.29.58,1.5,1.55.58,2.76-.73,5.23-1.01,7.85-.14,1.28-1.29,1.7-2.44,1.76-1.13.06-2.28.05-3.39-.1-2.93-.41-5.85-.4-8.79-.18-2-.24-3.99-.47-5.99-.71-.18-.03-.37-.05-.55-.08Z"/><path class="cls-8" d="m184.56,114.25c-1.75-.24-3.99-.08-6.05.38-1.7.38-3.38,1.05-5.13,1.4-1.94.39-2.97-.4-2.98-2.38,0-1.22.3-2.41.29-3.64-.02-2.9-.43-5.78-.32-8.69.05-1.47.86-2.64,1.35-3.91.3-.77,1.34-.79,2.18-.35.39.21.7.62,1.21.55,2.59-.35,4.86.9,7.25,1.5,2.25.56,4.54.72,6.86.7,3.03-.03,4.32,1.13,4.01,4.09-.28,2.66-.13,5.44-1.34,7.95-.78,1.62-2.06,2.47-3.91,2.4-1-.04-2,0-3.42,0Zm-2.41-8.02c-.03-.51,0-1.15-.11-1.77-.17-.91-.65-1.64-1.69-1.66-.97-.02-1.67.52-1.88,1.46-.47,2.18-.71,4.38-.28,6.6.18.95.72,1.61,1.73,1.59.93-.02,1.46-.62,1.67-1.52.35-1.51.47-3.04.55-4.7Zm2.66-2.7c-.91.07-1.41.54-1.41,1.39,0,.84.46,1.38,1.32,1.39.93,0,1.42-.56,1.42-1.45,0-.87-.57-1.27-1.34-1.33Z"/><path class="cls-8" d="m262.67,49.3c2.01-.13,4.13.75,6.25,1.47,1.76.6,2.19,3.95.84,5.44-.73.82-1.96,1.37-1.44,2.82.01.04,0,.1-.03.13-1.25,1.76-3.15,2.66-4.95,3.68-1.12.63-2.21.26-3.2-.34-1.51-.91-2.95-1.93-4.46-2.82-1.2-.71-1.01-2.06-1.43-3.08-.56-1.35-1.43-2.7-1.18-4.34.16-1.07.65-2.04,1.65-2.03,2.6.04,5.05-.97,7.95-.93Z"/><path class="cls-8" d="m272.68,108.08c-.59,0-1.18.04-1.77,0-1.99-.16-3.24-1.78-2.76-3.68.22-.86.14-1.71.15-2.57.01-2.38,1.47-3.63,3.82-3.23,2.58.45,5.2.54,7.8.77,1.08.09,2.16.14,3.23.31,1.67.26,2.85,1.73,2.86,3.63,0,1.29-.01,2.48,1.16,3.42.62.49.75,1.41.31,2.13-.46.76-1.25.82-2.14.81-4.29-.02-8.35-1.81-12.66-1.58Zm11.71-4.97c-.1-.96-.68-1.51-1.59-1.49-.92.02-1.47.61-1.5,1.57-.03.91.77,1.69,1.63,1.57.92-.13,1.42-.7,1.46-1.65Z"/><path class="cls-7" d="m352.36,175.43c.97-2.9,1.94-5.8,2.91-8.7.61-1.68,1.22-3.31,1.51-5.15.34-2.19,1.49-4.27,2.89-6.08.72-.92,2.51-1.06,3.34-.36,1,.85.81,1.89.18,2.81-3.67,5.38-5.19,11.63-7.26,17.66-.54,1.59-1.15,3.15-1.72,4.73-.36,1-1.03,1.52-2.08,1.2-1.12-.34-1.42-1.28-1.13-2.29.37-1.3.9-2.56,1.37-3.84Z"/><path class="cls-10" d="m264,192.16c-2.75.23-5.51.39-8.25.71-7.61.89-15.25,1.45-22.89,2.03-3.35.25-6.7.17-10.05-.07.91-.63,2.01-.33,3-.5,1.4-.24,2.85-.39,4.31-.37,7.18.08,14.32-.39,21.39-1.8,1.53-.31,3.16-.07,4.75-.08,2.57-.01,5.15.08,7.72-.27,0,.12.01.23.02.35Z"/><path class="cls-10" d="m101.3,159.56c3.06.37,5.97,1.65,9.03,1.98,2.97.31,6.32,1.22,9.29,1.54,6,.65,11.63.45,17.48,1.88.47.11,1.01.03,1.41.41-5.48-.38-10.98-.35-16.41-1.51-6.78-1.45-13.61-2.64-20.42-3.96-.14-.03-.25-.22-.38-.34Z"/><path class="cls-10" d="m196.11,195.29c-4.46.46-8.86,0-13.28-.58-4.81-.63-9.71-.72-14.45-1.64-3.9-.76-7.92-.71-11.74-1.88.91-.4,1.87-.19,2.81-.18,7.04.07,13.96,1.33,20.92,2.19,4.24.52,8.45,1.23,12.67,1.86,1.02.15,2.08-.22,3.07.23Z"/><path class="cls-9" d="m98.56,181.66c-.27-.08-.54-.15-.81-.23.4-.38.67-.32.81.23Z"/><path class="cls-10" d="m138.61,165.34c.18.03.37.05.55.08-.22.27-.4.2-.55-.08Z"/><path class="cls-10" d="m107.55,183.88c-.26.01-.53.04-.7-.22.26,0,.52-.02.7.22Z"/><path class="cls-7" d="m319.29,233.18c.31-3.98,1.18-7.86,2.27-11.68,1.92-6.7,4.09-13.32,6.75-19.77.69-1.68,1.55-3.29,2.9-4.55,1.72-1.61,3.54-1.02,4.17,1.25.57,2.03.02,3.95-.42,5.88-1.72,7.6-4.06,15.01-6.95,22.25-1.23,3.07-2.58,6.07-4.03,9.04-.56,1.16-1.29,2.22-2.77,1.91-1.44-.31-1.74-1.58-1.91-2.83-.07-.49-.01-1-.01-1.49Z"/><path class="cls-7" d="m323.64,195.62c1.26.05,2.07.98,1.85,2.09-.36,1.86-.92,3.68-2.01,5.28-.65.96-1.58,1.51-2.66.93-.99-.53-1.14-1.58-.8-2.62.42-1.29.85-2.57,1.38-3.82.45-1.06,1.3-1.7,2.24-1.86Z"/><path class="cls-7" d="m317.4,197.26c.1-.79.66-1.27,1.45-1.21.7.05,1.26.51,1.25,1.35-.01.89-.6,1.37-1.38,1.35-.78-.02-1.33-.52-1.33-1.48Z"/><path class="cls-3" d="m166.95,135.41c.28-3.76.63-7.81,1.42-11.8.21-1.04.74-1.95,2-1.78,1.2.16,1.66.99,1.53,2.16-.48,4.4-.93,8.8-1.45,13.19-.12,1.04-.68,1.93-1.91,1.93-.94,0-1.58-.98-1.59-2.31,0-.36,0-.72,0-1.39Z"/><path class="cls-3" d="m168.03,157.27c-.08,1.22-.14,2.43-.26,3.64-.1,1.02-.65,1.77-1.74,1.68-1.08-.08-1.56-.89-1.51-1.91.06-1.53.17-3.06.36-4.58.11-.92.48-1.87,1.63-1.83,1.22.05,1.45,1.04,1.52,2.04.02.31,0,.63,0,.95Z"/><path class="cls-3" d="m166.91,152.03c-.94,0-1.36-.63-1.5-1.43-.14-.76.8-1.78,1.55-1.72.86.08,1.46.63,1.5,1.47.04.96-.52,1.58-1.55,1.68Z"/><path class="cls-8" d="m182.08,144.58c-3.4,0-6.8.01-10.2-.01-.38,0-1.08.24-1.04-.45.03-.51.67-.31,1.04-.3,3.4.05,6.8.05,10.2.76Z"/><path class="cls-10" d="m234.47,136.74c.32-.96.83-2.02-.17-3.04-.26-.27-.01-.7.07-1.04,1.42-5.85,3.06-11.66,4.11-17.6.1-.58.29-.84,1.03-.9,6.84-.55,13.45-.21,20.3.18,7.98.45,15.82,1.49,24.02,2.12,1.02.21.66.96,1.7.95,1.09,0,.75.34.41,1.11-1.41,3.16-.62,5.96-1.23,9.34-.64,3.55-1.48,7.09-1.67,10.71-.05.9-.37,1.21-1.22,1.15-3.35-.23-6.7-.45-10.05-.67-10.72-.7-21.36-2.55-32.15-2.33-1.71.04-3.42,0-5.15,0Zm9.48-21.76c-.41,0-.82.04-1.23,0-2.88-.35-4.04,1.69-4.06,4.06-.01,1.24-.25,2.4-.58,3.59-.98,3.48-1.81,7-1.63,10.67.07,1.42.73,2.34,1.88,2.39,4.25.2,8.49.39,12.74.54.85.03,1.71-.23,2.55-.19,1.84.1,3.68.32,5.52.47,2.43.2,4.89.23,7.28.63,4.52.76,9.11.33,13.64.96,1.54.21,2.04-.59,2.51-2.04,1.07-3.26,1.07-6.7,1.74-10.02.36-1.8.51-3.64,1.17-5.39.64-1.71.17-2.6-1.66-2.92-3.06-.54-6.14-.97-9.22-1.36-2.32-.29-4.66-.48-7-.67-3.09-.24-6.17-.6-9.25-.86-4.76-.42-9.6-.31-14.4.15Z"/><path class="cls-7" d="m284.21,153.27c.14,1-.22,2.11-.58,3.23-.31.97-.93,1.62-1.94,1.59-.97-.03-1.58-.65-1.96-1.61-.68-1.71-.48-3.37.09-5.02.41-1.2,1.29-1.85,2.61-1.67,1.19.16,1.77.99,1.78,2.45,0,.27,0,.54,0,1.02Z"/><path class="cls-7" d="m206.97,135.71c-.43,0-.79-.08-.96-.47-.24-.56-.12-1.09.26-1.53.92-1.06,1.86-2.1,2.81-3.15,1.64-1.82,3.27-3.65,4.93-5.45.46-.49,1-.93,1.58-1.27.56-.33,1.16-.23,1.56.35.38.55.21,1.05-.23,1.46-3.14,2.97-5.87,6.31-8.86,9.41-.32.33-.62.67-1.09.64Z"/><path class="cls-7" d="m192.66,135.44c-.53,0-.93-.11-1.09-.55-.22-.6-.07-1.14.34-1.64,1.58-1.93,3.13-3.87,4.71-5.8.6-.73,1.22-1.45,1.87-2.15.4-.43.89-.67,1.45-.28.59.4.59.93.34,1.56-.35.86-.97,1.53-1.54,2.23-1.53,1.91-3.09,3.79-4.64,5.68-.4.49-.78,1.03-1.45.96Z"/><path class="cls-7" d="m194.77,122.02c1.08.03,1.38.72,1.04,1.38-.72,1.4-1.71,2.64-3.03,3.56-.42.29-.88.11-1.24-.21-.35-.3-.44-.77-.24-1.12.73-1.31,1.68-2.45,2.82-3.42.18-.16.51-.15.66-.19Z"/><path class="cls-7" d="m211.41,123.53c0,.71-1.66,2.78-2.38,2.96-.87.23-1.7-.59-1.35-1.44.42-1.01,1.07-1.91,2.08-2.42.85-.43,1.64.03,1.64.9Z"/><path class="cls-7" d="m225.73,123.57c-.05.83-1.56,2.33-2.19,2.22-.6-.1-.96-.49-.95-1.12.02-.89,1.35-2.16,2.16-2.08.65.06.93.46.98.98Z"/><path class="cls-7" d="m223.74,133.17c-.7-.06-.99-.46-1.02-1-.03-.57.34-.96.91-.97.64-.01,1.01.42,1,1.04,0,.58-.45.83-.9.93Z"/><path class="cls-3" d="m182.15,106.23c-.07,1.67-.2,3.2-.55,4.7-.21.9-.74,1.5-1.67,1.52-1.02.02-1.55-.64-1.73-1.59-.43-2.22-.2-4.42.28-6.6.21-.94.9-1.48,1.88-1.46,1.04.02,1.52.75,1.69,1.66.11.62.08,1.26.11,1.77Z"/><path class="cls-3" d="m184.82,103.53c.77.07,1.34.46,1.34,1.33,0,.89-.5,1.46-1.42,1.45-.86,0-1.33-.55-1.32-1.39,0-.85.49-1.32,1.41-1.39Z"/><path class="cls-3" d="m284.39,103.12c-.04.94-.54,1.52-1.46,1.65-.87.12-1.66-.66-1.63-1.57.03-.96.58-1.55,1.5-1.57.91-.02,1.49.54,1.59,1.49Z"/><path class="cls-8" d="m243.95,114.97c4.8-.46,9.63-.57,14.4-.15,3.07.27,6.16.62,9.25.86,2.34.18,4.68.37,7,.67,3.08.39,6.16.82,9.22,1.36,1.83.32,2.29,1.21,1.66,2.92-.65,1.75-.8,3.59-1.17,5.39-.67,3.33-.67,6.76-1.74,10.02-.47,1.45-.97,2.25-2.51,2.04-4.53-.62-9.12-.2-13.64-.96-2.39-.4-4.85-.42-7.28-.63-1.84-.16-3.68-.37-5.52-.47-.84-.05-1.7.22-2.55.19-4.25-.15-8.49-.34-12.74-.54-1.15-.05-1.81-.97-1.88-2.39-.18-3.67.64-7.18,1.63-10.67.34-1.19.57-2.35.58-3.59.02-2.37,1.19-4.4,4.06-4.06.4.05.82,0,1.23,0Zm-1.79,18.27c.68.03,1.03-.17,1.36-.55,3.28-3.81,6.34-7.81,10.02-11.27.6-.56,1.05-1.26.3-1.99-.72-.7-1.32-.14-1.87.36-3.7,3.37-6.72,7.36-10.07,11.04-.24.26-.47.58-.56.91-.24.86.11,1.39.83,1.49Zm16.34-4.04c-.01.5.17.86.66,1.07.62.25,1.07-.03,1.46-.43,2.79-2.85,5.56-5.72,8.34-8.58.53-.54.81-1.21.25-1.81-.66-.71-1.34-.28-1.89.26-2.73,2.72-5.45,5.45-8.16,8.18-.35.36-.64.77-.65,1.3Zm23.95-6.46c-.07-.43-.3-.77-.72-.9-.59-.18-1.09.09-1.46.51-.97,1.07-1.89,2.19-2.84,3.28-1.21,1.4-2.44,2.79-3.65,4.19-.52.59-.87,1.26-.15,1.89.7.62,1.34.21,1.89-.35.19-.19.38-.39.55-.6,1.96-2.31,3.92-4.61,5.88-6.92.27-.32.46-.67.5-1.1Zm-14.89,5.96c.01-.37-.12-.7-.5-.86-.61-.25-1.18-.05-1.64.35-1.52,1.35-3.02,2.73-4.51,4.11-.55.51-1.11,1.08-.48,1.85.69.84,1.4.35,1.99-.18,1.59-1.41,3.14-2.87,4.7-4.3.28-.26.46-.55.43-.98Zm13.03,2.07c0-.77-.86-1.4-1.52-.94-1.62,1.13-3.14,2.41-4.31,4.03-.36.5-.28,1.14.3,1.56.55.4,1.04.15,1.45-.24,1.17-1.11,2.33-2.25,3.49-3.38.29-.28.59-.57.59-1.02Zm-38.93-6.05c.19-.09.53-.16.74-.36,1.3-1.24,2.59-2.5,3.85-3.78.43-.43.46-1.02.06-1.47-.46-.52-1.08-.43-1.6-.06-1.52,1.08-2.75,2.47-3.95,3.87-.62.73-.09,1.79.89,1.81Zm7.86,7.15c.83-.02,2.39-1.41,2.49-2.25.05-.42.02-.83-.37-1.1-.37-.25-.81-.28-1.16-.03-.74.53-1.45,1.12-1.91,1.9-.43.75.09,1.5.94,1.48Zm14.14-12.59c-.02-.56-.45-.88-1.03-.95-.76-.1-2.22,1.6-2.18,2.49.03.67.39.99,1.05.97.74-.02,2.16-1.61,2.16-2.5Zm14.74,1.64c-.07-.59-.43-1-1.12-1.01-.79-.01-1.87,1.1-1.83,1.87.03.63.4.99,1.02,1.04.64.05,1.91-1.17,1.93-1.91Z"/><path class="cls-7" d="m242.16,133.24c-.72-.1-1.07-.64-.83-1.49.09-.33.33-.65.56-.91,3.36-3.68,6.37-7.67,10.07-11.04.55-.5,1.16-1.07,1.87-.36.74.73.3,1.43-.3,1.99-3.68,3.45-6.74,7.46-10.02,11.27-.33.38-.68.58-1.36.55Z"/><path class="cls-7" d="m258.5,129.2c.01-.54.3-.95.65-1.3,2.71-2.73,5.43-5.47,8.16-8.18.54-.54,1.23-.97,1.89-.26.56.6.28,1.26-.25,1.81-2.78,2.86-5.55,5.72-8.34,8.58-.39.4-.84.69-1.46.43-.5-.2-.68-.56-.66-1.07Z"/><path class="cls-7" d="m282.44,122.75c-.04.43-.23.78-.5,1.1-1.96,2.31-3.92,4.61-5.88,6.92-.18.21-.36.4-.55.6-.55.56-1.18.97-1.89.35-.72-.63-.36-1.3.15-1.89,1.22-1.4,2.44-2.79,3.65-4.19.95-1.09,1.87-2.2,2.84-3.28.37-.41.87-.69,1.46-.51.42.13.65.47.72.9Z"/><path class="cls-7" d="m267.55,128.71c.03.42-.15.72-.43.98-1.57,1.44-3.12,2.89-4.7,4.3-.59.52-1.3,1.02-1.99.18-.63-.77-.07-1.34.48-1.85,1.5-1.38,2.99-2.76,4.51-4.11.46-.41,1.02-.6,1.64-.35.38.15.51.49.5.86Z"/><path class="cls-7" d="m280.58,130.77c0,.45-.29.74-.59,1.02-1.16,1.13-2.31,2.27-3.49,3.38-.41.39-.9.64-1.45.24-.58-.42-.66-1.06-.3-1.56,1.17-1.62,2.69-2.9,4.31-4.03.66-.46,1.52.17,1.52.94Z"/><path class="cls-7" d="m241.65,124.72c-.98-.02-1.51-1.08-.89-1.81,1.2-1.4,2.43-2.79,3.95-3.87.52-.37,1.13-.46,1.6.06.4.46.37,1.04-.06,1.47-1.26,1.28-2.55,2.54-3.85,3.78-.21.2-.55.27-.74.36Z"/><path class="cls-7" d="m249.51,131.87c-.84.02-1.37-.74-.94-1.48.46-.78,1.17-1.38,1.91-1.9.35-.25.79-.22,1.16.03.38.27.42.68.37,1.1-.11.84-1.67,2.24-2.49,2.25Z"/><path class="cls-7" d="m263.65,119.29c0,.89-1.43,2.48-2.16,2.5-.66.02-1.02-.3-1.05-.97-.04-.89,1.43-2.59,2.18-2.49.58.08,1.02.39,1.03.95Z"/><path class="cls-7" d="m278.39,120.92c-.02.74-1.29,1.96-1.93,1.91-.62-.05-.99-.42-1.02-1.04-.04-.78,1.04-1.89,1.83-1.87.69.01,1.05.42,1.12,1.01Z"/><path class="cls-11" d="m312.76,251.24c-13.6.14-25.18-1.26-36.66-3.88-13.71-3.13-27.46-6.04-41.2-9.05-3.87-.85-7.47-2.53-11.27-3.58-7.52-2.09-15.19-3.52-22.84-5.03-12.97-2.56-25.67-6.03-37.89-11.21-8.69-3.68-17.92-5.91-26.73-9.23-11.25-4.24-22.93-7.25-33.92-12.16-3.68-1.65-7.25-3.56-10.99-5.06-5.22-2.09-10.55-3.89-15.83-5.82-.43-.16-.84-.36-1.28-.46-2.55-.58-3.4-2.35-3.49-4.76-.04-1.03-.39-2.04-.49-3.07-.65-6.41.23-12.77.76-19.14.15-1.76.96-2.51,2.74-2.83,2.91-.51,5.87-.51,8.81-.79,8.26-.79,16.56-1.19,24.81-2.1,5.64-.62,11.31-.28,16.95.14,4.63.35,9.26.22,13.88.39,6.62.25,13.25.47,19.87.73.82.03,1.21-.13,1.28-1.07.74-9.73,2.08-19.39,3.65-29.02.25-1.52.54-3.04.75-4.56.23-1.6,1.08-2.63,2.69-2.78,1.51-.13,1.75-.84,1.64-2.21-.33-4.28.67-8.49.91-12.74.09-1.63.31-3.25.39-4.88.07-1.2.63-1.58,1.81-1.66,3.47-.22,6.69,1.03,10.03,1.56,3.58.58,7.14,1.32,10.8,1.25,1.62-.03,2.15.48,2.11,2.11-.08,3.31-.24,6.62-.37,9.93-.02.45-.02.91-.08,1.36-.12,1.03.24,1.29,1.31,1.2,2.27-.2,4.48-.69,6.7-1.13.78-.15,1.02-.43,1.05-1.21.3-7.89.96-15.76,1.13-23.66.15-7.08,1-14.12,1.94-21.14.2-1.47,1.16-2.11,2.27-2.6,1.04-.46,1.87.06,2.35,1.02.5.99.66,2.07.66,3.17.04,9.31-.36,18.61-.73,27.91-.17,4.36-.32,8.72-.06,13.07.13,2.2.2,2.27,2.31,1.77,7.18-1.71,14.47-2.93,21.57-5.08,2.74-.83,5.78-.3,8.67-.05,4.43.39,8.88.6,13.31.94,1.17.09,1.47-.28,1.42-1.4-.48-10.73.36-21.42.95-32.11.09-1.63.23-3.26.41-4.88.1-.85-.12-1.46-.78-2.03-1.69-1.44-3.31-2.98-5.15-4.24-1.61-1.1-2.37-2.63-2.49-4.58-.1-1.68-.24-3.35-.16-5.03.1-2.06.73-2.64,2.77-2.66,5.09-.05,10.17.21,15.24.51,1.85.11,2.33.76,2.31,2.61-.02,1.72-.06,3.45.06,5.17.08,1.18-.42,1.9-1.32,2.47-2.42,1.56-4.52,3.5-6.68,5.38-.62.54-1,1.11-1.05,1.95-.19,3.31-.51,6.61-.63,9.92-.33,9.26-.88,18.51-.61,27.78.03,1.08.29,1.5,1.38,1.57,1.36.08,2.71.29,4.05.5.68.11.96-.06.81-.75-.47-2.09-.15-4.26-.6-6.36-.4-1.87.69-2.94,2.52-2.56,2.4.49,4.81-.29,7.19.06,3.03.44,6.12.45,9.12,1.14,1.39.32,2.39,1.16,2.55,2.66.29,2.7.57,5.41.75,8.13.06.87.31,1.29,1.2,1.44,1.29.22,2.57.54,3.78,1.08,2.09.93,2.52,1.78,1.85,3.97-1.66,5.47-3.26,10.95-5.04,16.38-1.3,3.97-1.73,8.04-2.1,12.16-.31,3.43.32,6.78.42,10.17.04,1.36.2,2.73.08,4.08-.11,1.27.33,1.5,1.5,1.5,5.82,0,11.61-.54,17.41-.92,7.07-.47,14.14-.9,21.18-1.59,9.47-.92,19-1.62,28.13-4.65,1.27-.42,2.11.24,2.93.94.85.73,1.78,1.07,2.87.92,1.96-.28,2.88.87,2.17,2.76-.9,2.37-1.92,4.7-2.94,7.03-4.11,9.44-8.89,18.58-12.56,28.21-1.99,5.21-3.86,10.45-6.35,15.47-2.75,5.55-3.95,11.64-5.71,17.52-1.97,6.56-4.06,13.08-6.16,19.59-.46,1.42-1.03,2.8-1.56,4.19-.36.96-1.02,1.54-2.05,1.8-1.39.36-2.8.32-4.2.24-4.04-.21-8.08-.29-10.28-.12Zm14.29-8.44c1.54.38,1.57-.44,1.77-1.06,2.43-7.22,4.58-14.53,6.71-21.84,2.7-9.27,5.49-18.52,8.26-27.77.28-.93.34-1.43-.92-1.24-5.09.79-10.23.64-15.35.82-11.48.41-22.96.75-34.45,1.09-6.31.18-12.62.14-18.91.79-5.33.55-10.64,1.22-15.98,1.61-11.18.81-22.37,1.58-33.57,2.18-13.88.73-27.78,1.19-41.65.03-8.18-.68-16.34-1.64-24.5-2.58-5.09-.59-10.16-1.39-15.27-1.8-5.34-.42-10.71-.68-15.96-1.76-10.26-2.1-20.45-4.56-30.62-7.07-3.7-.91-7.38-1.89-11.17-2.41-.34-.05-.73-.29-.94.21-.19.48.2.63.5.83.99.65,2.02,1.2,3.16,1.56,2.12.68,4.21,1.43,6.27,2.26,8.71,3.5,17.21,7.52,25.98,10.87,10.43,3.99,21.12,7.2,31.8,10.41,19.83,5.97,39.39,12.92,59.71,17.2,4.48.95,8.82,2.48,13.39,3.05,3.88.48,7.82.34,11.66.97,10.02,1.64,20.13,2.68,30.09,4.78,7.19,1.51,14.46,2.56,21.74,3.59,3.54.5,6.92,1.82,10.53,2.1,2.8.21,5.59.59,8.37,1.04,6.59,1.07,13.19,1.93,19.35,2.16Zm29.11-87.06c-.55.13-.77.16-.99.23-8.6,2.7-17.53,3.4-26.41,4.33-5.55.58-11.14.79-16.71,1.21-9.46.71-18.93,1.38-28.43,1.33-4.35-.02-8.7.68-13.06.38-6.89-.47-13.68.61-20.48,1.4-5.27.61-10.5,1.55-15.75,2.34-5.25.8-10.57.96-15.84,1.63-9.47,1.21-18.94,2.09-28.51,1.83-10.94-.3-21.86-1.03-32.82-.88-4.81.07-9.63-.03-14.4-.76-3.63-.55-7.26-1.22-10.91-1.58-9.76-.94-19.43-2.6-29.11-4.1-9.32-1.45-18.62-3.03-28.01-4.01-.92-.1-1.31.05-1.35,1.06-.15,3.76-.38,7.52-.56,11.28-.05,1.09-.01,2.18,0,3.27,0,.49.11.79.71.94,5.06,1.21,10.03,2.74,15.17,3.75,8.94,1.75,17.77,4.04,26.63,6.19,7.9,1.91,15.82,3.68,23.96,4.16,10.57.63,20.99,2.49,31.52,3.49,7.54.72,15.06,1.79,22.66,1.75,6.27-.03,12.54.06,18.8-.06,4.72-.08,9.44-.36,14.15-.63,6.48-.38,12.96-.84,19.44-1.24,5.39-.34,10.79-.59,16.16-1.19,8.08-.89,16.14-1.81,24.29-1.86,13.81-.08,27.59-1.03,41.4-1.19,5.21-.06,10.45.15,15.64-.67,1.07-.17,1.68-.51,2.14-1.64,3.46-8.5,5.78-17.39,9.07-25.94.58-1.51,1.01-3.07,1.59-4.84Zm-122.62-47.78c-3.27,1.21-6.46,1.52-9.48,2.43-8.69,2.62-17.69,3.53-26.58,5.02-5.57.93-11.28,1.08-16.86,2.14-4.14.79-8.37,1.05-12.5,1.95-1.02.22-1.86.48-2.05,1.77-1.06,7.18-2.02,14.37-2.78,21.59-.1.95.13,1.16,1.03,1.16,2.5,0,4.99-.15,7.48-.28,6.49-.34,12.98.31,19.48.18.98-.02,1.92.24,1.94,1.42.02,1.19-.89,1.37-1.89,1.46-2.32.21-4.64.07-6.94-.07-6.63-.39-13.25-.16-19.88,0-1.84.04-1.83.01-1.98,1.87-.45,5.61-.89,11.22-1.39,16.82-.09.97.16,1.26,1.13,1.25,3.04-.03,6.09-.11,9.13.07,9.34.53,18.69.85,28.05.69,2.36-.04,4.72-.19,7.07-.4,6.06-.54,12.04-1.61,18-2.83.81-.17,1.04-.41,1.01-1.21-.11-3.04-.14-6.08-.21-9.12-.05-2.13.34-1.97-1.96-1.97-11.67.03-23.34.13-35-.55-1.49-.09-2.99-.2-4.47-.4-.78-.11-1.35-.59-1.23-1.5.12-.84.72-1.11,1.47-1.09.59.01,1.18.08,1.77.11,2.81.14,5.61.43,8.43.43,6.63,0,13.26.06,19.89.08,3.32,0,6.63-.05,9.95-.07.57,0,1.09.01,1.08-.82-.04-2.18-.06-4.35.21-6.53.1-.8-.24-1.48-1.35-1.36-1.22.13-2.45.14-3.67.15-.69,0-.95.24-.96.95,0,.9-.12,1.81-.24,2.71-.11.83-.61,1.34-1.47,1.3-.95-.05-1.3-.72-1.33-1.59,0-.27,0-.55.04-.82.12-.84-.21-1.12-1.06-1.09-1.77.05-3.58.24-5.31-.03-4-.64-8.08,1.35-12.03-.46-.34-.15-.81-.03-1.22-.02-2.68.06-5.36.13-8.04.17-.85.01-1.58-.06-2.14.91-.52.9-1.87.6-2.31-.39-.18-.42-.18-.88-.17-1.34.13-4.99.44-9.98.95-14.94.22-2.12.46-4.24.76-6.35.2-1.42,1-1.77,2.17-1,.33.21.61.33.99.32,1.5-.06,3-.09,4.49-.15,1.82-.07,3.63-.26,5.44-.19,1.76.06,3.4-.5,5.27-.29,4.08.45,8.25.19,12.36-.31.87-.1,1.19-.38,1.15-1.24-.04-.9,0-1.82.07-2.72.05-.74.5-1.17,1.24-1.19.68-.02,1.21.35,1.21,1.03,0,1.19.7,1.21,1.6,1.22,2.08.03,4.19-.21,6.25.22,1.76.36,2.11.95,1.81,2.67-.12.67-.22,1.34-.32,2.01-.33,2.13-.65,4.26-.98,6.39,2.08-5.87,3.14-11.97,4.86-18.19Zm36.56,52.24c5.32.45,9.92-.32,14.55-.37.55,0,.8-.15.81-.78.02-3.45-.09-6.89-.32-10.33-.05-.76-.35-1.02-1.1-.99-5.04.25-10.08-.06-15.11-.12-7.99-.09-15.98-.14-23.96-.34-5.08-.13-10.15-.52-15.22-.77-.41-.02-.93-.27-1.18.33-.61,1.44.31,3,1.85,3.12.32.02.63.03.95.03,2.22.02,4.45,0,6.67.06.92.02,1.78.33,1.72,1.48-.06,1.05-.87,1.33-1.75,1.3-2.76-.1-5.54.16-8.29-.3-.91-.15-1.22.16-1.2,1.07.06,3.04.1,6.08.09,9.12,0,1.01.43,1.2,1.33,1.16,4.48-.21,8.96-.52,13.4-1.21,9.1-1.42,18.21-2.69,26.78-2.47Zm-10.11-15.68c8.51.28,15.91.32,23.31.31,1.18,0,1.54-.41,1.61-1.57.24-3.66.69-7.3,1.84-10.82,1.8-5.52,3.51-11.06,5.36-16.56.41-1.22.08-1.66-1.02-1.9-1.5-.34-2.98-.81-4.5-1.03-11.53-1.69-22.98-4.02-34.66-4.52-4.76-.2-9.47-1.08-14.25-1.04-.96,0-1.36.29-1.56,1.22-.66,3.1-1.43,6.18-2.1,9.28-1.65,7.62-3.94,15.09-5.28,22.78-.62,3.6-.72,3.16,2.67,3.27,9.89.34,19.78.85,28.57.58Zm-143.85,10.56c-1.09,0-2.18-.04-3.26,0-7.48.3-14.9,1.45-22.39,1.73-.46.02-1.06.03-1.1.56-.06.64.61.69,1.07.76,8.35,1.15,16.64,2.73,24.99,3.91,7.18,1.02,14.39,1.85,21.57,2.91,6.51.96,13.02,1.87,19.63,1.68.97-.03,1.44-.18,1.57-1.28.27-2.3.39-4.61.6-6.91.17-1.82.2-1.82-1.6-1.87-6.44-.2-12.88-.5-19.33-.57-7.27-.08-14.5-.8-21.76-.92Zm92.92-15.99v-.05c2.09,0,4.18-.02,6.26,0,.94.01,1.36-.29,1.39-1.32.16-5.4.31-10.79.84-16.17.08-.81-.25-1.07-1-1-1.08.1-2.17.25-3.25.27-2.95.04-5.9.03-8.85.01-.69,0-1.22.01-1.29.94-.42,5.42-.87,10.85-1.33,16.27-.07.78.19,1.05.97,1.04,2.09-.04,4.18-.01,6.26-.01Zm-14.58-17.98c0,.1,0,.19,0,.29-1.63,0-3.27.07-4.9-.03-1.07-.07-1.31.44-1.39,1.33-.43,4.97-.87,9.94-.97,14.93-.02,1.01.35,1.24,1.26,1.19,2.36-.12,4.72-.18,7.07-.27,1.04-.04,2.31.29,3.06-.2.9-.59.44-2.02.56-3.07.47-4.28.79-8.58,1.26-12.86.13-1.19-.31-1.38-1.33-1.34-1.54.06-3.09.02-4.63.02Zm-17.81-13.97s0,0-.01,0c0,2.36.04,4.72-.02,7.07-.02.92.4.92,1.09.82,4.13-.57,8.2-1.57,12.37-1.87.44-.03.75-.13.77-.71.15-3.54.33-7.07.53-10.61.04-.68-.16-.98-.89-1-4.28-.11-8.49-.82-12.67-1.64-1.04-.21-1.17.17-1.16.98.01,2.32,0,4.63,0,6.95Zm43.18,23.08c-.06,0,.04.24-.03.24,0,2.18-.12,4.11-.19,6.29-.02.85.32,1.01,1.04.95,1.18-.09,2.35-.17,3.53-.2.77-.02,1.02-.37,1-1.1-.17-5.66.7-11.21,1.76-16.74.13-.69.05-1-.74-1.03-1.54-.05-3.08-.15-4.61-.32-.97-.11-1.24.22-1.27,1.16-.12,3.58-.32,7.16-.49,10.74Zm57.71-27.38c.08,1.39.25,2.97.25,4.55,0,.94.37,1.27,1.22,1.39,1.84.25,3.67.54,5.5.84.77.13,1.07-.08.97-.92-.24-2.02-.45-4.05-.58-6.07-.07-1.14-.48-1.74-1.69-1.79-1.08-.05-2.15-.33-3.23-.41-2.39-.18-2.45-.1-2.43,2.42Zm-13.51-46.54c.25.02.43.04.61.05,3.7.06,3.06.23,3.03-3.23,0-.71-.36-.91-1.02-.94-3.67-.16-7.34-.42-11.01-.5-2.98-.07-2.59-.57-2.66,2.63-.02,1.16.41,1.55,1.48,1.47,3.23-.22,6.42.48,9.57.52Zm-90.08,50.72c0-2.54-.04-5.08.02-7.62.02-.88-.2-1.16-1.1-1.22-1.05-.07-1.08.48-1.09,1.23-.02.86-.11,1.72-.18,2.58-.33,4.24-.74,8.48-.43,12.74.04.52-.16,1.34.88,1.03.71-.21,1.84.26,1.67-1.27-.28-2.49.08-4.98.22-7.48Zm177.7,71.49c.06.02.11.04.17.06.1-.15.22-.28.3-.44,2.9-6.24,5.82-12.47,8.69-18.72.86-1.87.79-1.84-1.09-2.53-.8-.29-1.05-.18-1.31.64-1.06,3.32-2.23,6.6-3.3,9.92-1.19,3.68-2.31,7.39-3.46,11.08Zm-97.18-119.68c1.71,1.31,3.16,2.38,4.37,3.7.77.84,1.65.66,2.31.17,1.28-.95,2.42-2.11,3.9-3.45-3.66.07-6.88-.78-10.58-.42Zm18.74,44.93s-.02.11,0,.11c0,1.17.01,2.24.05,3.41.03.99.88.76,1.44.8.68.04.42-.55.41-.9-.05-2.17-.43-4.32-.32-6.5.03-.54-.13-.85-.75-.84-.56,0-.84.21-.83.79.01,1.04,0,2.08,0,3.12Zm-2.77.5c0-1.46,0-2.51,0-3.55,0-.51-.24-.75-.72-.79-.37-.03-.64.09-.66.49-.12,2.18-.02,4.35.44,6.49.08.36.38.51.72.5.48-.02.4-.41.39-.71-.06-.95-.13-1.9-.16-2.43Z"/><path class="cls-11" d="m188.34,191.94c-1.08,0-2.17.05-3.25-.02-.82-.05-1.55-.43-1.51-1.4.04-.94.72-1.29,1.59-1.29,2.08,0,4.16,0,6.23,0,.86,0,1.56.29,1.62,1.25.06,1.05-.68,1.42-1.57,1.46-1.04.05-2.08.01-3.12.01,0,0,0,0,0-.01Z"/><path class="cls-11" d="m190.26,187.24c-1.69-.15-3.4-.29-5.11-.44-.9-.08-1.65-.45-1.59-1.47.06-1.07.89-1.24,1.78-1.18,1.71.12,3.42.25,5.14.37.97.07,2.09.06,1.98,1.43-.1,1.29-1.21,1.24-2.19,1.29Z"/><path class="cls-11" d="m128.65,179.64c1.63.25,3.02.42,4.4.69.67.13,1.14.59,1.1,1.35-.04.75-.56,1.2-1.24,1.23-1.69.08-3.33-.3-4.9-.92-.62-.25-.79-.86-.63-1.49.2-.79.84-.85,1.27-.85Z"/><path class="cls-11" d="m132.13,187.07c-1.15-.27-2.61-.56-4.03-.99-.77-.23-1.16-.89-.9-1.72.25-.79.9-.97,1.64-.81,1.28.27,2.57.52,3.82.89.75.22,1.19.82,1.04,1.67-.12.69-.58.98-1.57.96Z"/><path class="cls-11" d="m79.94,168.95c1.45.3,2.99.67,4.39,1.42.58.31.72.9.53,1.53-.19.63-.72.82-1.28.76-1.53-.17-2.96-.76-4.38-1.3-.59-.22-.82-.81-.67-1.47.16-.71.71-.87,1.42-.93Z"/><path class="cls-11" d="m82.27,176.21c-1.03-.16-2.17-.46-3.21-1.02-.68-.36-.98-1-.68-1.73.31-.74.95-.91,1.7-.66.95.31,1.9.59,2.84.93.68.24,1.01.77.89,1.49-.13.78-.7.99-1.55.99Z"/><path class="cls-11" d="m209.4,144.53c1,0,1.99.01,2.99,0,.78-.01,1.36.27,1.48,1.08.13.87-.4,1.5-1.16,1.57-2.25.21-4.53.24-6.78,0-.7-.07-1.23-.64-1.12-1.47.11-.82.7-1.1,1.46-1.11,1.04,0,2.08,0,3.12,0,0-.03,0-.05,0-.08Z"/><path class="cls-11" d="m201.85,145.39c-.03.74-.45,1.15-1.2,1.14-.75,0-1.21-.43-1.22-1.18,0-.76.47-1.18,1.21-1.18.74,0,1.17.41,1.21,1.21Z"/><path class="cls-11" d="m223.63,147.07c-.06.72-.45,1.1-1.15,1.07-.7-.03-1.09-.43-1.06-1.14.03-.7.45-1.08,1.14-1.06.71.02,1.03.46,1.07,1.13Z"/><path class="cls-11" d="m197.21,145.14c-.04.73-.4,1.13-1.11,1.12-.69-.01-1.11-.39-1.1-1.1,0-.69.42-1.09,1.1-1.1.71,0,1.04.43,1.11,1.08Z"/><path class="cls-11" d="m250.33,149.96c1.04,0,2.09,0,3.13,0,.81,0,1.46.27,1.53,1.19.06.82-.43,1.3-1.19,1.4-2.35.31-4.71.3-7.06.06-.77-.08-1.38-.6-1.27-1.49.11-.89.77-1.14,1.59-1.13,1.09.01,2.18,0,3.27,0,0-.01,0-.03,0-.04Z"/><path class="cls-11" d="m258.88,152.86c-.78-.08-1.38-.42-1.37-1.24,0-.87.57-1.32,1.42-1.3.84.03,1.39.51,1.35,1.37-.04.82-.67,1.11-1.39,1.17Z"/><path class="cls-11" d="m243.1,150.3c.75.12,1.25.51,1.24,1.33-.01.86-.55,1.2-1.34,1.15-.81-.06-1.23-.53-1.18-1.34.05-.77.54-1.09,1.28-1.13Z"/><path class="cls-11" d="m279.65,141.74c-10-.1-19.93-1.14-29.85-2.28-4.56-.52-9.14-.74-13.73-.4-.99.07-2,.09-2.99.03-1.18-.08-1.95-1.09-1.38-1.92,1.79-2.62,1.7-5.69,2.21-8.61.73-4.24,1.28-8.52,1.9-12.78.14-.98.67-1.52,1.64-1.42,4.09.4,8.16-.12,12.25-.12,8.58,0,17.15.06,25.64,1.55,2.99.52,6.05.59,9.02,1.28,2.45.57,2.89,1.26,2.07,3.7-1.6,4.78-2.35,9.76-3.4,14.67-.28,1.33-.42,2.69-.6,4.04-.24,1.88-.87,2.43-2.77,2.28Zm-33.22-24.71s-.35-.05-.35-.02c-2,0-3.64.14-5.64.12-2.16-.02-2.16-.03-2.4,2.13,0,.05,0,.09-.01.14-.74,5.2-1.4,10.42-2.27,15.6-.22,1.31.09,1.46,1.19,1.35,4.31-.43,8.61-.2,12.9.26.93.1,1.14-.33,1.28-1.12,1.03-5.75,2.09-11.5,3.18-17.24.19-1.02-.13-1.26-1.08-1.24-2.27.05-4.54.02-6.8.02Zm15.68.03s-.21.03-.21,0c-1.18,0-2.36,0-3.54,0-.77,0-1.18.28-1.33,1.17-.94,5.86-1.93,11.72-2.98,17.56-.17.97.14,1.16.98,1.25,3.47.35,6.95.72,10.42,1.12.63.07.9-.09.99-.74.16-1.26.36-2.52.63-3.76,1-4.61,2.04-9.2,3.07-13.81.44-1.97.45-2.01-1.58-2.21-2.21-.22-4.22-.43-6.44-.59Zm13.26,21.64s0-.04,0-.06c1,.04,2,.04,2.99.15.84.09,1.25-.15,1.36-1.03.73-5.63,2.42-11.05,3.59-16.59.21-.99,0-1.28-.91-1.39-2.74-.33-5.49-.67-8.22-1.05-.85-.12-1.13.25-1.26.99-.2,1.16-.49,2.3-.7,3.46-.83,4.63-2.13,9.17-2.78,13.84-.13.92.03,1.33,1.04,1.36,1.63.04,3.26.2,4.88.31Z"/></svg>