<?xml version="1.0" encoding="UTF-8"?><svg id="Layer_1" xmlns="http://www.w3.org/2000/svg" viewBox="0 0 402.79 279.73"><defs><style>.cls-1{fill:#182a42;}.cls-1,.cls-2,.cls-3{stroke-width:0px;}.cls-2{fill:#92a1c9;}.cls-3{fill:#ffe9da;}</style></defs><path class="cls-1" d="m19.17,143.82v-68.95h5.3v-5.3h5.3v-5.3h5.3v-5.3h68.95v68.95h-5.3v5.3h-5.3v5.3h-5.3v5.3H19.17Zm63.64-5.3v-58.34H24.47v58.34h58.34Zm5.3-68.95h5.3v-5.3h-58.34v5.3h-5.3v5.3h58.34v-5.3Zm-47.73,58.34v-37.12h21.21v5.3h5.3v10.61h-5.3v5.3h5.3v10.61h-5.3v5.3h-21.21Zm21.21-21.21v-10.61h-15.91v10.61h15.91Zm0,15.91v-10.61h-15.91v10.61h15.91Zm31.82,5.3h5.3v-58.34h-5.3v5.3h-5.3v58.34h5.3v-5.3Z"/><path class="cls-1" d="m112.4,151.77v-68.95h5.3v-5.3h5.3v-5.3h5.3v-5.3h68.95v68.95h-5.3v5.3h-5.3v5.3h-5.3v5.3h-68.95Zm63.64-5.3v-58.34h-58.34v58.34h58.34Zm5.3-68.95h5.3v-5.3h-58.34v5.3h-5.3v5.3h58.34v-5.3Zm-42.43,58.34v-5.3h-5.3v-26.52h5.3v-5.3h15.91v5.3h5.3v26.52h-5.3v5.3h-15.91Zm15.91-31.82h-15.91v26.52h15.91v-26.52Zm31.82,31.82h5.3v-58.34h-5.3v5.3h-5.3v58.34h5.3v-5.3Z"/><path class="cls-1" d="m205.63,125.25V56.31h5.3v-5.3h5.3v-5.3h5.3v-5.3h68.95v68.95h-5.3v5.3h-5.3v5.3h-5.3v5.3h-68.95Zm63.64-5.3v-58.34h-58.34v58.34h58.34Zm5.3-68.95h5.3v-5.3h-58.34v5.3h-5.3v5.3h58.34v-5.3Zm-37.12,58.34v-15.91h-5.3v-5.3h-5.3v-15.91h5.3v15.91h15.91v-15.91h5.3v15.91h-5.3v5.3h-5.3v15.91h-5.3Zm42.43,0h5.3v-58.34h-5.3v5.3h-5.3v58.34h5.3v-5.3Z"/><path class="cls-1" d="m21.55,231.79v-68.95h5.3v-5.3h5.3v-5.3h5.3v-5.3h68.95v68.95h-5.3v5.3h-5.3v5.3h-5.3v5.3H21.55Zm63.64-5.3v-58.34H26.85v58.34h58.34Zm5.3-68.95h5.3v-5.3h-58.34v5.3h-5.3v5.3h58.34v-5.3Zm-42.43,58.34v-5.3h-5.3v-26.52h5.3v-5.3h15.91v5.3h5.3v5.3h-5.3v-5.3h-15.91v26.52h15.91v-5.3h5.3v5.3h-5.3v5.3h-15.91Zm47.73,0h5.3v-58.34h-5.3v5.3h-5.3v58.34h5.3v-5.3Z"/><path class="cls-1" d="m112.4,239.75v-68.95h5.3v-5.3h5.3v-5.3h5.3v-5.3h68.95v68.95h-5.3v5.3h-5.3v5.3h-5.3v5.3h-68.95Zm63.64-5.3v-58.34h-58.34v58.34h58.34Zm5.3-68.95h5.3v-5.3h-58.34v5.3h-5.3v5.3h58.34v-5.3Zm-47.73,58.34v-37.12h5.3v31.82h21.21v5.3h-26.52Zm53.03,0h5.3v-58.34h-5.3v5.3h-5.3v58.34h5.3v-5.3Z"/><path class="cls-1" d="m205.63,213.82v-68.95h5.3v-5.3h5.3v-5.3h5.3v-5.3h68.95v68.95h-5.3v5.3h-5.3v5.3h-5.3v5.3h-68.95Zm63.64-5.3v-58.34h-58.34v58.34h58.34Zm5.3-68.95h5.3v-5.3h-58.34v5.3h-5.3v5.3h58.34v-5.3Zm-42.43,58.34v-5.3h-5.3v-31.82h5.3v31.82h15.91v-31.82h5.3v31.82h-5.3v5.3h-15.91Zm47.73,0h5.3v-58.34h-5.3v5.3h-5.3v58.34h5.3v-5.3Z"/><path class="cls-1" d="m290.93,246.68v-68.95h5.3v-5.3h5.3v-5.3h5.3v-5.3h68.95v68.95h-5.3v5.3h-5.3v5.3h-5.3v5.3h-68.95Zm63.64-5.3v-58.34h-58.34v58.34h58.34Zm5.3-68.95h5.3v-5.3h-58.34v5.3h-5.3v5.3h58.34v-5.3Zm-47.73,58.34v-37.12h21.21v5.3h5.3v10.61h-5.3v5.3h5.3v10.61h-5.3v5.3h-21.21Zm21.21-21.21v-10.61h-15.91v10.61h15.91Zm0,15.91v-10.61h-15.91v10.61h15.91Zm31.82,5.3h5.3v-58.34h-5.3v5.3h-5.3v58.34h5.3v-5.3Z"/><path class="cls-1" d="m290.93,162.11l6.16-68.67,5.28.47.47-5.28,5.28.47.47-5.28,5.28.47.47-5.28,68.67,6.16-6.16,68.67-5.28-.47-.47,5.28-5.28-.47-.47,5.28-5.28-.47-.47,5.28-68.67-6.16Zm63.86.41l5.21-58.1-58.1-5.21-5.21,58.1,58.1,5.21Zm11.44-68.2l5.28.47.47-5.28-58.1-5.21-.47,5.28-5.28-.47-.47,5.28,58.1,5.21.47-5.28Zm-50.86,32.71l.95-10.56,5.28.47.47-5.28,15.85,1.42-.47,5.28,5.28.47-.47,5.28-5.28-.47.47-5.28-15.85-1.42-.95,10.56-5.28-.47Zm3.39,21.6l.47-5.28-5.28-.47.47-5.28,5.28.47-.47,5.28,15.85,1.42.95-10.56,5.28.47-.95,10.56-5.28-.47-.47,5.28-15.85-1.42Zm1.42-15.85l.47-5.28,15.85,1.42-.47,5.28-15.85-1.42Zm46.12,20.11l5.28.47,5.21-58.1-5.28-.47-.47,5.28-5.28-.47-5.21,58.1,5.28.47.47-5.28Z"/><rect class="cls-3" x="-4.87" y="138.88" width="388.72" height="17.31" transform="translate(-43.02 87.42) rotate(-23.41)"/><path class="cls-2" d="m14.51,232.17l-.33-.61-.28-.64-.13-.18-.23-.46-.09-.55-.22-.39-.28-.27-.14-.56v-.17s-.3-.36-.3-.36l-.22-.75-.16-.2-.13-.3-.26-.29-.16-.81-.05-.08-.25-.69-.18-.41-.31-.49-.22-.51-.28-.45-.51-1.18-.11-.34-.11-.21-.2-.59-.31-.73-.28-.42-.16-.37v-.11s-.27-.35-.27-.35l-.26-.75-.33-.65.15-.54-.03-.02.87-.38.41-.09.26-.22.56-.16.23-.13.59-.2.3-.28.26-.11.93-.3.59-.34,1.05-.46.31-.07.36-.22,1.28-.55.46-.23.38.07.06.33.33.38.24.76.26.61.29.4.16.69.29.43.08.3.26.28.1.63.27.44h0s.15.17.15.17l.26.72.15.19v.26s.69,1.09.69,1.09l.15.74.45.89.42.98.26.24.14.53.21.48.29.84.24.35.1.24.28.33.04.52.18.29h0s.32.54.32.54l.35.81-.21.46-.8.34-.69.38-.53.23-.42.27-.8.25-.69.39-.13.14-.78.26-.38.17-.48.26-.57.2-.37.24-.37.13-1.14.49-.15.12v-.02s-.47-.08-.47-.08l-.25-.58Zm5-8.95l-.2-.27-.23-.17-.44-.03-.08-.12-.39-.07-.78.1.05-.23.31-.14.15-.2.26-.62.04-.29-.09-.47-.04-.4-.21-.14-.06-.21-.39-.42-.13-.11-.63-.35-.18.05-.77-.07-.39-.08-.39.23-.81.2-.38.25-.58.1-.58.37-.34.15-.23.18-.08.36.07.59.16.18.08.25.09.08.26.6.21.33.21.77.08.27.16.22.17.31.18.53.12.2.04.25.1.36.18.33.14.41.2.27.15.26.23.53.03.27.24.37.22.11h.33s.54-.17.54-.17l.8-.34.15-.03.12-.1.41-.11.31-.18.15-.05.75-.42.3-.23.27-.42.28-.36.18-.28.07-.31.04-.02.06-.6-.04-.22-.05-.62-.13-.1-.16-.3-.13-.19Zm-6.21-2.33l.31-.02.35-.12.26-.14.28-.21h.23s.78-.2.78-.2h.45s.07.06.07.06l.37.11.2.3.33.52-.07.43.04.05-.06.28-.17.24-.15.13-.64.36-.41.33h-.29s-.31.13-.31.13l-.41.31-.26-.17v-.2s-.26-.6-.26-.6l-.21-.64-.43-.69-.04-.1.04-.17Zm1.46,3.49l.61-.26.27-.07.3-.16,1.31-.28.08-.12.29-.02.32.16.21.16.24.1.24.44.06.46.03.12-.03.23-.12.27-.48.56-.43.29-.75.33-.54.15-.34.18-.24-.05-.1-.31-.21-.33-.07-.44-.41-.68-.26-.6v-.12Z"/><path class="cls-2" d="m23.39,229.23l-.11-.07-.68-1.58-.18-.23-.39-.91-.11-.41.04-.17-.41-.43-.23-.81-.38-.56-.13-.58-.18-.23-.06-.13-.31-.36-.13-.82-.44-1.01-.16-.3h0s-.19-.27-.19-.27l-.08-.25-.39-.56-.13-.49-.23-.53-.06-.06-.36-.82-.06-.25-.37-.85-.38-.6-.29-.82-.19-.36-.28-.65-.33-.52.28-.46.48-.14.08-.2.71-.12.44-.27.34-.03.53-.33.32-.05.4-.36.87-.26.52-.31,1.36-.59.39-.1.44-.31,1.56-.68.33.09.11.41.31.45-.02.28.33.45.29.67.16.2.07.51.16.3h0s.19.26.19.26l.17.47.28.3.17.67.26.41.17.6.32.47.09.33.48.69.35,1.2.44.86.26.79.35.35.2.62.31.73.08.37.24.28.14.4.32.42.11.56.22.35.47,1.09.11.17v.05s-.27.23-.27.23l-.25.06-.66.35-.44.16-.45.29-1.68.73-.77.45-.91.33-1.21.52-.28.22-.47.15-1.48.64h-.07s-.11-.09-.11-.09Zm.11-11.83l-.17.07-.47.29.02-.03-.38.17-.03.13-.22.31-.23.17-.1.16-.24.24-.12.51-.07.23v.44s.01.21.01.21v.93s.22.31.22.31l.14.55.16.45.25.2.37.53.31.36.2.08.23.17.61.17.09.09.35.03.17.04.34-.06.2.07.58-.06.46-.27.43-.18.19-.18.52-.29.35-.39.22-.26.26-.6.13-.44-.02-.7v-.22s-.39-1.21-.39-1.21l-.14-.4-.24-.32-.14-.33-.19-.32-.4-.3-.31-.13-.31-.24-.48-.18-.02-.04-.33.02-.45-.07h-.3s-.45.07-.45.07l-.38.17-.25.08Zm.38.95l.21-.06.4-.04.43-.1.37.04.49.24.21.33.15.1.62.85.17.79v.17s.13.12.13.12l.02.47-.02.38-.12.49-.14.08-.24.24-.06.13-.31.14-.51.34v-.03s-.39.13-.39.13h-.22s-.54-.08-.54-.08l-.39-.12-.1-.11-.42-.31-.02-.09-.17-.25-.23-.46-.21-.3-.09-.45-.23-.44-.03-.34.07-.73.13-.36.3-.28.15-.17.3-.21.3-.13Z"/><path class="cls-2" d="m31.34,224.64l-.28-.54-.25-.57-.17-.13-.12-.44-.08-.42.07-.07-.42-.81-.26-.38-.13-.47-.28-.27-.29-1.02-.53-.95-.08-.62-.18-.31-.11-.49-.41-.65-.14-.43-.36-.57-.1-.41-.86-1.98-.04-.24v.02s-.26-.58-.26-.58l-.22-.33h0s-.08-.12-.08-.12l-.1-.5-.35-.57-.16-.49-.34-.68.22-.5.6-.26.54-.16.47-.31.53-.14.92-.4.17-.19.59-.15.51-.22.22-.04.55-.29.74-.32.63-.22.21-.18.44-.19.95-.34.43-.22.31.05.15.51.26.38-.05.34.46.64.02.18.31.47v.44s.41.62.41.62l-.07.23.49.58.03.51.31.45.15.54.36.49.16.65.23.37.23.17.3,1.12.37.85.32.93.33.38.02.31.26.48.03.14.3.7.09.06.24.67.22.12.04.05.17.79.64,1.48-.22.42-.95.41-.4.24-.58.25-.69.43-.53.1-.33.14-.22.16-.53.23-.73.23-1.34.58-.21.18-.5.17-.53.23-.44.12-.45.28-.38-.14-.26-.6Zm2.77-5.76l-.42-.34-.11-.19-.28-.18-.07-.21-.34-.28-.08-.15-.34-.29-.34-.34-.2-.15-.09-.16-.23-.19-.16-.22-.23-.15-.34-.41-.47-.42-.46-.28-.38-.06-.1.11-.12.04-.22.23-.09.26.31.36.39.24.09.18.29.28.3.43.21.06.28.25.06.11.31.22.29.4h.07s.47.34.47.34l.26.24.08.19.16.18.35.3.16.05.13.21.58.44v.1s.41.2.41.2l.2-.09v.33s-.13.15-.13.15l-.09.53-.33.5-.16.44-.3.33-.24.1-.28.21-.39.42v.15s.1.23.1.23l.33.33.21-.06.26-.21.25-.06.42-.28.39-.39.17-.26.1-.08.1-.43.29-.31v-.2s.19-.37.19-.37l-.02-.35.03-.16v-.41s.06-.16.06-.16l-.05-.62.04-.39-.02-.7-.03-.65.05-.19v-.19s-.1-.43-.1-.43l.09-.26-.07-.43.06-.18v-.15s.1-.56.1-.56l-.12-.12.07-.57-.04-.17-.04-.44.08-1.13-.07-.24-.37-.12-.27.03-.24.1-.27.44-.03.44.06.68v.28s.06.56.06.56v.56s-.04.08-.04.08l.07.36-.07.31v.44s.05.11.05.11l.03.22-.07.43.05.23.05.65.12.27-.07.11-.3-.11Z"/><path class="cls-2" d="m39.96,221.09l-.45-.85-.64-1.48-.02-.31-.11-.41-.38-.53-.13-.47-.13-.1-.14-.17-.19-.9-.26-.4-.37-.46-.15-.81-.27-.78-.35-.64-.18-.43-.39-.59-.12-.51-.19-.44-.07-.04-.26-.76-.18-.43-.04-.25h.02s-.28-.65-.28-.65l-.3-.43-.13-.3-.07-.32-.23-.34-.22-.66-.12-.27-.3-.51.25-.43.23-.08.65-.37.5-.13-.02-.04.05-.09.92-.21.32-.17.38-.06.48-.38.79-.24.46-.23,3.82-1.66.27.07.21.6.23.29.07.55.31.41.18.53.28.45.02.28.42.97.29.31.16.57-.02.11.33.62.08.34.33.57v.07s-.06.11-.06.11l.46.75.22.28.17.89.16.2.63,1.46.22.19.05.55.36.64.16.37-.04.27.36.45.14.41.27.42v.38s.18.3.18.3h0s.18.29.18.29l.38.88.16.3v.05s-1.28.7-1.28.7l-.29.04-.47.29-.48.21-.21.21-.45.09-.28.09-.89.49-.79.28-1.19.52h-.22s-.55.37-.55.37l-.4.14-.54.23-.46.15-.38.22-.27-.19-.18-.43Zm5.41-7.73l-.09-.28-.46-.44-.4-.23-.31-.02-.36-.1-.41.11-.19-.05-.27.08-1.02.14-.16.1-.28.02-.44.12-.58.06-.32-.08-.17-.04-.18-.18-.07-.19-.1-.14.04-.27.18-.28.53-.38.43-.34.49-.11.18-.09.52-.06.56.16.25.23h.52s.45-.15.45-.15l.15-.27.02-.08-.23-.37-.28-.15-.28-.25-.28-.03-.15-.07-.68-.09-.27.08h-.65s-.22.17-.22.17l-.53.11-.2.19-.22.11-.32.23-.38.21-.23.18-.04.14-.24.22-.14.3-.06.25v.47s-.06.2-.06.2l.11.44.21.41.59.42.31.13h.6s.71.02.71.02l.15-.05.54-.07.38-.17.23-.06.65-.06.27-.07.11.02.18-.03.57.16.12.13.16.29-.02.23.03.22-.14.3-.59.51-.46.06-.37.16-.4.26h-.37s-.38.07-.38.07l-.32-.07-.35-.23-.25-.23-.2-.07-.57.2-.21.07-.11.17.08.22.2.2.28.33.14.09.42.19.08.07.47.19.62-.05.18-.08h.25s.4-.14.4-.14l.22-.04.77-.33.73-.47.26-.11.57-.72.19-.47.13-.53-.12-.35-.07-.31h0Z"/><path class="cls-2" d="m57.23,213.92l-.09-.05-.5-1.17-.18-.29-.31-.71v-.3s-.24-.42-.24-.42l-.25-.26-.28-.92-.2-.23-.1-.51-.25-.33-.14-.33-.34-.55-.06-.61-.27-.42-.15-.59-.3-.38-.26-.61-.32-.55-.57-1.32-.09-.28-.26-.61-.09-.3-.59-1.09-.26-.61-.07-.09-.19-.63-.31-.61-.21-.3.27-.44.33-.09.23-.24.79-.17.39-.27.39-.08.27-.17.48-.11.48-.41.95-.31.38-.17.42-.25.98-.42.35-.08.55-.36,1.54-.66.28.13.13.38.25.26.3.93.3.68.37.55.11.44h-.03s.23.52.23.52l.31.32.05.52.41.63.15.59.4.57.08.39.24.4.23.22.36,1.09-.02.06.32.59.3.88.14.14h0s.19.16.19.16l.09.52.7,1.61.19.24.11.34.35.53.04.36.57,1.04.29.67-.07.11h.03s-.24.18-.24.18l-1.41.61-.34.22-.34.15-.41.33-.56.14-.52.29-2.19.95-.68.23-.42.28-.45.16-.75.33-.26.15-.46-.09-.21-.48Zm-.12-7.22l-.09-.4-.25-.38.02-.38-.05-.39.1-.16.15-.44.14-.19.09-.22.42-.25.08-.1.41-.3.21.03.4-.14.53.02.37.12.61.56.19.05.19-.1.36-.1.26-.23.02-.23-.1-.24-.29-.33-.65-.45-.48-.16-.27.05-.26-.06-.32.04-.09-.05-.54.05-.95.41-.46.34-.48.41-.47.47v.21s-.23.43-.23.43v.36s-.14.29-.14.29l.06.26-.08.49.14.24.07.56.16.2.25.58.32.54.3.38.25.23.11.17.36.13.2.2.38.14.74.07.28.02.29-.03.36-.15.15.04.44-.07.06-.09.3-.1.49-.4.21-.11.26-.21.19-.22.29-.5.26-.49.03-.35v-.25s-.11-.58-.11-.58l-.19-.32-.43.14-.42.23-.1.25.13.69-.21.18-.24.51-.19.18-.37.23-.34.06-.41.18h-.34s-.36.05-.36.05l-.51-.2-.23-.14-.31-.24-.31-.36-.31-.47-.06-.21Z"/><path class="cls-2" d="m64.79,208.43l-.17-.24-.02-.51-.34-.63-.21-.26-.22-.71-.26-.26-.2-.93-.29-.45-.36-.82.02-.18-.14-.26-.24-.79-.35-.49h0s-.08-.12-.08-.12l-.08-.34-.21-.33h0s-.22-.34-.22-.34l-.09-.37-.16-.29-.17-.4-.08-.34-.54-1.24-.07-.36-.4-.62-.04-.37-.41-.72-.47-1.08.16-.49.6-.4.74-.17.08-.15.81-.2.91-.39.25-.17.06-.09,1.28-.4.51-.27.88-.38.33-.09.2-.17.74-.32,1-.33.49-.03.03.38.41.63-.04.14.27.44.15.49.36.59v.21s.2.36.2.36l.17.65.4.5v.06s-.11.24-.11.24l.53.76.12.39.26.33.09.57.36.52.25.57.19.66.71,1.64.26.29.02.47.41.72.17.4.05.42.33.37.2.59.21.21.09.52.17.24.58,1.34-.3.33-.36.22-.35.12-.51.22-.44.27-.48.18-.36.33-.74.12-.49.26-2.35,1.02-.46.25-.56.18-1.11.48-.23.13-.37-.12-.94-2.16Zm6.54-4.81l-.12-.28h-.51s-.42.14-.42.14l-.07.1-.36.22-.27.05-.61.47-.22-.11.08-.27-.19-.63-.1-.39-.11-.1-.22-.31v-.24s-.28-.52-.28-.52l-.29-.87-.2-.23-.03-.16-.25-.58-.05-.3-.36-.67-.22-.51-.14-.26-.2-.47-.25-.38v-.34s-.19-.3-.19-.3l-.07-.29-.43-.2h-.24s-1.07.46-1.07.46l-.24.15-.38.13-.31.14-.4.12-.24.31.07.39.11.19.3.11.52-.16.53-.3.37-.11.34-.23.19-.03.17.08-.04.27.03.29.19.29.24.67.19.25.07.44.15.34.26.48.11.09.04.2.29.47v.19s.22.53.22.53l.1.16.03.14.14.33.11.17.09.52.1.07.13.47.25.3.09.21.19.25-.03.23-.44-.04-.56.29-.14.03-.22.13-.35.05-.27.2-.12.42.31.49.36-.02.37-.24.56-.19.56-.23.27-.12.4-.28.12.03.9-.39.4-.21h.09s.68-.28.68-.28l.52-.29.06-.25-.08-.27Z"/><path class="cls-2" d="m74.07,206.46l-.43-.84-.43-.99-.23-.32-.06-.58-.17-.4-.27-.35-.31-.86-.15-.12-.1-.63-.41-.6-.3-.68v-.45s-.33-.54-.33-.54l-.1-.48-.13-.19-.25-.46-.2-.45-.3-.53-.5-1.17-.15-.46-.16-.37-.04-.34-.52-.94-.25-.57-.03-.18-.2-.38-.48-1.11-.25-.42.26-.33,1.01-.44.31-.07.23-.22.65-.17.21-.11.67-.17.51-.41.36-.04.78-.34.57-.3.7-.3.39-.12.62-.37,1.21-.44.41-.21.23.1.23.54.15.2.07.51.32.47.14.43.32.5.03.34.27.42.06.45.39.51v.45s.41.54.41.54l.26.75.21.25.11.48.23.37h0s.32.45.32.45l.1.55.57,1.31.15.7.48.57.05.43.55,1.27.13.19.23.53.21.14.07.68.28.49.47,1.1-.17.46-.85.37-.42.13-.25.19-.53.23-.65.37-.59.16-.4.21-2.2.95-.26.03-.41.35-.84.28-.26.11-.61.2-.44.19-.17-.15-.11-.34Zm4.54-6.35l.08.03.3.68.12.03.32-.09.37-.16-.12-.62-.47-1.09-.22-.31v-.22s-.29-.45-.29-.45l-.21-.75-.2-.22-.17-.5-.14-.33-.11-.41-.33-.61-.16-.25-.12-.28-.2-.08-.43.1-.23.17-.1.26v.37s.25.36.25.36l-.03.05.1.39.13.3.23.29.06.26.21.3.04.29.26.49.08.34.32.74.33.38.08.22-.19.07-.45.33-.05.19-.4.26-.22.16-.5.13-.5.22-.06-.13-.13-.03-.3-.14-.17-.23-.19-.17-.32-.5v-.37s-.17-.29-.17-.29l-.19-.24-.26-.61-.03-.18-.13-.23-.04-.25-.18-.31-.17-.48-.39-.67-.32-.11-.3.09-.21.11-.13.4.07.51.05.05.07.31.16.17.14.45.13.19.33.64v.07s.1.21.1.21l.12.51.11.19.36.84.23.22.2.47.16.02.34.19.18.22.48.06.19.09.11.02.57-.09.21-.06.45-.2.27-.19h.13s.41-.32.41-.32l.33-.45.13-.29.21-.48Z"/><path class="cls-2" d="m82.52,202.51l-.23-.42-.22-.51-.53-1-.08-.66-.25-.43-.09-.06-.23-.8-.37-.55-.19-.76-.16-.22-.09-.2-.25-.4-.08-.61-.13-.23-.44-1.01-.14-.24-.11-.42-.54-.9-.08-.35-.35-.81.03-.08-.33-.77-.23-.42v-.24s-.35-.52-.35-.52l-.11-.22-.07-.39-.32-.59-.39-.9-.24-.4.21-.46.95-.41.47-.09.15-.15.78-.22.88-.38.29-.23.4-.12h.22s.71-.4.71-.4l1.32-.57.39-.12.22-.13,1.75-.76h.36s.27.64.27.64l.07.07.08.49.28.42.22.63.34.51.05.42.27.42.05.28.29.33.15.76.14.17.39.89.19.2.1.55.54.9.13.3.17.77.23.34.34.8.04.29.32.35.06.45.27.51v.17s.41.94.41.94l.16.22.44,1.01-.03.12.33.57.33.75.08.37-.07.47h-.22s-.42.28-.42.28l-.8.34-.29.16-.55.24-.27.27-.76.12-.32.23-2.08.9-.49.15-.34.28-.83.27-.24.1-.46.11-.53.33-.29-.2-.24-.55Zm1.67-4.13l-.07-.2-.23-.27.17-.07.67.27h.25s.29.09.29.09l.23-.1h.38s.72-.27.72-.27v-.05s.28-.12.28-.12l.41-.38.4-.56.21-.56.09-.88-.03-.43-.18-1-.33-.57-.51-.87-.51-.52-.12-.13-.36-.28-.67-.25-.04.02-.45-.09-.5.06-.37.08-.3.09-.76.48-.31.25-.13.28-.25.4-.05.27-.15-.12-.08-.27.02-.19-.25-.35-.06-.29-.18-.31-.2-.66-.25-.43-.3-.7-.3-.16-.39.1-.33.18.04.37-.07.08.13.57.19.37.07.02.15.34.15.42.09.09.39.91.11.36.25.43.06.36.14.4.3.43.23.68.07.19.34.78.23.39.28.5v.09s.2.38.2.38v.15s.07.36.07.36l.26.38.62-.1.22-.11.02-.28.02-.03Zm2.24-4.38l.03.39.16.13v.33s.16.27.16.27l-.07.7-.14.43-.25.28-.11.17-.23.2-.41.21-.64.19-.34-.05-.38-.02-.51-.2v-.24s-.65-1.54-.65-1.54l-.17-.25v-.24s-.11-.24-.11-.24l-.21-.33-.08-.22-.14-.21v-.13s.09-.18.09-.18l.19-.15.19-.3.41-.21.21-.22.66-.34.25.06h.3s.42.09.42.09l.29.11.27.32.3.22.14.31.31.49.08.14Z"/><path class="cls-2" d="m99.79,195.69l-.8-1.85-.06-.02-.26-.61.03-.32-.38-.73-.33-.33-.23-.85-.1-.03-.04-.05-.14-.82-.37-.5-.33-.57-.12-.62-.07-.17-.14-.65-.38-.58-.22-.51-.35-.54-.11-.44-.2-.45-.14-.24-.34-1.02-.26-.49.03-.25-.42-.63-.18-.33-.1-.43-.22-.36-.25-.7-.33-.57.27-.47.37-.11.51-.3.52-.09.36-.26.51-.12.37-.19.27-.03.39-.34,1.25-.42,1.95-.84.14-.14.82-.29,1.15-.5.16.06.03.04.22.62.26.36.15.47.38.87.18.26.12.35.49,1.14.11.07.12.71.26.4.1.11.24.75.25.35.11.49.26.44.22.51h.03s.05.02.05.02l.19.75.2.35.27.63.25.82.33.36.12.56.49,1.14.12.15.31.73.12.15v.33s.17.3.17.3h0s.31.54.31.54l.4.92-.19.42-.29.04-.8.41-.35.15-.39.22-.33.14-.22.31-.81.16-2.44,1.06-.73.22-.41.33-.68.23-.41.18-.45.14-.31.19-.22-.11-.05-.08Zm5.66-6.84l-.2-.32-.15-.07-.29.07-.59.31-.43.18-.3.21-.22.04-.23-.05-.02-.24-.17-.38-.11-.44-.35-.54v-.15s-.29-.52-.29-.52l.02-.07-.32-.74-.18-.29-.22-.63-.12-.44-.41-.67-.54.12-.07.08-.51.14-.06.14-.45.2h-.02s-.65.28-.65.28l-.15.12-.46.1-.2.12-.15.35.17.23.21.41.24-.03.65-.28.18-.13.34-.06.25-.16.25-.21.24-.15.13.06.09.21.02.31.18.33.07.29.29.5.13.45.28.64.17.23.03.31.17.25.12.37.1.16.23.21-.07.15-.12.08-.47.13-.31.14-.25.08-.34.15-.56.43-.06.26.14.41.3.14.3-.09.24-.19.56-.19.2-.05.25-.19.3-.13.64-.19.63-.34.25-.06.2-.17.68-.3.27-.15.24-.02.31-.18.08-.25-.07-.09-.03-.19Zm-5.51-7.47l-.55-.1-.58.25-.17.24-.05.36.12.27v.06s.15.29.15.29l.18.18.22.04.5-.1.24-.15.22-.2-.08-.42-.04-.36-.15-.36Z"/><path class="cls-2" d="m108.15,191.57l-.45-.85-.64-1.48-.02-.31-.11-.41-.38-.53-.13-.47-.13-.1-.14-.17-.19-.9-.26-.4-.37-.46-.15-.81-.27-.78-.35-.64-.18-.43-.39-.59-.12-.51-.19-.44-.07-.04-.26-.76-.18-.43-.04-.25h.02s-.28-.65-.28-.65l-.3-.43-.13-.3-.07-.32-.23-.34-.22-.66-.12-.27-.31-.51.25-.43.23-.08.65-.37.5-.13-.02-.04.05-.09.92-.21.32-.17.38-.06.48-.38.79-.24.46-.23,3.82-1.66.27.07.21.6.23.29.07.55.31.41.18.53.28.45.02.28.42.97.29.31.16.57-.02.11.33.62.08.34.33.57v.07s-.06.11-.06.11l.46.75.22.28.17.89.16.2.63,1.46.22.19.05.55.36.64.16.37-.04.27.36.45.14.41.27.42v.38s.18.3.18.3h0s.18.29.18.29l.38.88.16.3v.06s-1.28.7-1.28.7l-.29.04-.47.29-.48.21-.21.21-.45.09-.28.09-.89.49-.79.28-1.19.52h-.22s-.55.37-.55.37l-.4.14-.54.23-.46.15-.38.22-.27-.19-.18-.43Zm5.41-7.73l-.09-.28-.46-.44-.4-.23-.31-.02-.36-.1-.41.11-.19-.05-.27.08-1.02.14-.16.1-.28.02-.44.12-.58.06-.32-.08-.17-.04-.18-.18-.07-.19-.1-.14.04-.27.18-.28.53-.38.43-.34.49-.11.18-.09.52-.06.56.16.25.23h.52s.44-.15.44-.15l.15-.27.02-.08-.23-.37-.28-.15-.28-.25-.28-.03-.15-.07-.68-.09-.27.08h-.65s-.22.17-.22.17l-.53.11-.2.19-.22.11-.32.23-.38.22-.22.18-.04.14-.24.22-.14.3-.06.25v.47s-.06.2-.06.2l.11.44.21.41.59.42.31.13h.6s.71.02.71.02l.15-.05.54-.07.38-.17.23-.06.65-.06.28-.07.11.02.17-.02.57.16.12.13.16.29-.02.23.03.22-.14.3-.59.51-.46.06-.37.16-.4.26h-.37s-.38.07-.38.07l-.32-.07-.35-.23-.25-.23-.2-.07-.57.2-.21.07-.11.17.08.22.2.2.28.33.14.09.42.19.08.07.47.19.62-.05.19-.08h.25s.4-.14.4-.14l.22-.04.77-.33.73-.47.26-.11.57-.72.19-.47.13-.53-.12-.35-.07-.31h0Z"/><path class="cls-2" d="m125.42,184.4l-.09-.05-.5-1.17-.18-.29-.31-.71v-.3s-.25-.42-.25-.42l-.25-.26-.28-.92-.2-.23-.1-.51-.25-.33-.14-.33-.34-.55-.06-.61-.27-.42-.15-.59-.3-.38-.26-.61-.32-.55-.57-1.32-.09-.28-.26-.61-.09-.3-.59-1.09-.26-.61-.07-.09-.19-.63-.31-.61-.21-.3.27-.44.33-.09.24-.24.79-.17.39-.27.39-.08.27-.17.48-.11.48-.41.95-.31.38-.17.42-.25.98-.42.35-.09.55-.36,1.54-.66.28.13.13.38.25.26.3.93.3.68.37.55.11.44h-.04s.23.52.23.52l.31.32.06.52.41.63.15.59.4.57.08.39.24.4.23.22.36,1.09-.02.06.32.59.3.88.15.14h0s.19.16.19.16l.09.52.7,1.61.19.24.11.34.35.53.04.36.57,1.04.29.67-.07.11h.03s-.24.18-.24.18l-1.41.61-.34.22-.34.15-.41.33-.56.14-.52.29-2.19.95-.68.23-.42.28-.45.16-.75.33-.26.15-.46-.09-.21-.48Zm-.12-7.22l-.09-.4-.25-.38.02-.38-.05-.38.1-.16.15-.44.14-.19.09-.22.42-.25.08-.1.41-.3.21.03.4-.14.53.02.37.13.61.56.19.05.19-.1.36-.11.26-.23.02-.23-.1-.24-.29-.33-.65-.45-.48-.16-.27.05-.26-.06-.32.04-.09-.05-.54.05-.95.41-.46.34-.48.41-.47.47v.21s-.23.43-.23.43v.36s-.14.29-.14.29l.06.26-.08.49.14.24.07.56.16.2.25.58.32.54.3.38.25.23.11.17.36.13.2.2.38.14.74.07.28.02.29-.03.36-.15.15.04.44-.07.06-.09.3-.1.49-.4.21-.11.26-.21.19-.22.29-.5.26-.49.03-.35v-.25s-.11-.58-.11-.58l-.19-.32-.43.14-.42.23-.1.25.13.69-.21.18-.24.51-.19.18-.37.23-.34.06-.41.18h-.34s-.36.05-.36.05l-.51-.2-.23-.14-.31-.24-.31-.36-.31-.47-.06-.21Z"/><path class="cls-2" d="m133.59,180.51l-.67-1.55-.17-.52.07-.16-.4-.74-.25-.28-.14-.48v-.19s-.28-.33-.28-.33l-.17-.77-.27-.39-.2-.45-.18-.23-.09-.64-.17-.25-.06-.46-.15-.22-.28-.54-.26-.6-.36-.59-.1-.34-.4-.92-.25-.73-.23-.44-.12-.39-.44-.74-.12-.47-.25-.43-.22-.63-.35-.62.28-.49.42-.13.42-.28.6-.13.12-.15.63-.17.78-.25.38-.28.15-.08.62-.22,1.78-.77.59-.2.2-.17.66-.23,1.29-.56.13.08.29.67.17.23-.04.27.28.5.29.67.25.42-.04.15.28.54.22.51.24.25.08.64.37.5.2.66.24.24.18.8.35.49.3.68.13.57.41.79.26.72.29.24.14.67.32.74.21.68.24.35.11.26.32.34.14.68.46,1.07.2.39-.27.39-.34.2-.43.1-.95.53-.18.06-.7.41-.39.12-4.31,1.86-.81.27-.44.26-.28-.18-.3-.54Zm6.48-6l.15-.15.07-.22-.12-.35-.19-.25-.21.02-.36.26-.34.03-.23-.26-.19-.36-.36-.84-.06-.41-.27-.44-.11-.41-.19-.29-.27-.31-.11-.41-.34-.34-.12-.13-.3-.23-.39-.17-.41-.13-.3.05h-.36s-.41.06-.41.06l-.44.27-.64.28-.62.33v.12s-.35.25-.35.25l-.16.21-.24.53-.08.61.04.17v.24s.12.31.12.31l.14.17h.28s.16-.04.16-.04l.24-.1.2-.31.06-.23-.07-.54.14-.42.41-.34.53-.3.67-.24.35.1.38.07.31.22.1.24.19.17.23.66.19.27.11.1-.03.12h-.47s-.35.05-.35.05l-.4.17-.17.09-.19.03-.26.11-.21.06-.57.25-.11.13-.57.48-.28.22-.09.26v.12s-.19.89-.19.89l.26.61.39.47.43.3.37.03.14.09.21.05.61-.03.76-.24.4-.17.26-.26.18-.06.17-.24.36-.29.14-.33.13-.06.14-.37.14.06.19.25.23.19.34.04.27-.07.39-.2.19-.06.31-.17v-.05Zm-5.67.46l-.1-.5.11-.28.57-.45.28-.12.55-.41.07.09.32-.21h.24s.34-.18.34-.18l.34-.15.23.14.13.53.25.31.04.09-.07.2-.3.2-.17.19-.22.16-.14.18-.48.29-.4.21-.38.17-.31.02h-.42s-.01-.03-.01-.03l-.34-.17-.12-.27Z"/><path class="cls-2" d="m142.26,176.81l-.4-.69-.43-1-.21-.41-.06-.46-.18-.43-.3-.29-.2-.81-.32-.47-.14-.68-.21-.3-.4-.92v-.22s-.15-.27-.15-.27l-.22-.75-.48-.75v-.18s-.49-.8-.49-.8l-.12-.35-.22-.51-.28-.81-.39-.91-.08-.35-.45-.72-.13-.49-.24-.4-.14-.4-.25-.57-.2-.38.27-.3.26-.11.46-.27.53-.1.6-.33.49-.13.84-.36.33-.26.27-.05,2.29-.99.47-.15.21-.14,1.04-.45.25-.08.64-.28.14.04.04.05.14.56.31.47-.03.1-.07.03.38.56.26.61.21.26.13.57.22.38-.03.32.51.62.16.65.24.44.11.37.22.24.15.63.58,1,.29.97.19.37.23.54.07.44.4.42.09.48.45,1.04.13.5.23.29.23.54.14.16.06.45.28.49.38.87.19.36-.28.36-1.24.54-.31.19-.37.12-.73.45-.41.07-.06-.03-.99.53-.59.19-.41.18-.14.1-.36.15-.78.27-.46.25-.85.37-.4.12-.36.22-.38-.14-.15-.46Zm-.01-8.49l-.14-.24-.21-.16.04-.22.51-.37.36-.38.09-.06.27-.27.83-.12h.29s.29.19.29.19l.36.35.24.37.32.74.34.63.02.21.16.45.14.21.12.27.15.22.12.39.07.36.3.38.08.15.34-.06.19-.1.27-.2.15-.39-.15-.24v-.2s-.27-.42-.27-.42l-.23-.54-.03-.18-.16-.3-.07-.32-.21-.3-.1-.31-.18-.41-.15-.27-.15-.34-.37-.69-.23-.27-.51-.4-.16-.06-.51-.08h-.42s-.29.02-.29.02l-.55.24-.3.16-.26.25-.37.16-.15.2-.16.32-.2.27.03.26-.19.11-.1-.04-.15-.59-.16-.06-.26.21-.27.08-.15.28.15.36.04.25.27.51.03.22.24.71.28.37.19.54.52,1.19.31.52.33.75.08.27.25.11.46-.08.46-.3-.11-.41-.22-.34-.07-.32-.26-.41.02-.18-.89-2.06-.24-.4-.07-.19Z"/><path class="cls-2" d="m150.99,173.33l-.09-.05-.5-1.17-.18-.29-.31-.71v-.3s-.24-.42-.24-.42l-.25-.26-.28-.92-.2-.23-.1-.51-.25-.33-.14-.33-.34-.55-.06-.61-.27-.42-.15-.59-.3-.38-.26-.61-.32-.55-.57-1.32-.09-.28-.26-.61-.09-.3-.59-1.09-.26-.61-.07-.09-.19-.63-.31-.61-.21-.3.27-.44.33-.09.24-.24.79-.17.39-.27.39-.08.27-.17.48-.11.48-.41.95-.31.38-.17.42-.25.98-.42.35-.09.55-.36,1.54-.66.28.13.13.38.25.26.3.93.3.68.37.55.11.44h-.04s.23.52.23.52l.31.32.06.52.41.63.15.59.4.57.08.39.24.4.23.22.36,1.09-.02.06.32.59.3.88.15.14h0s.19.16.19.16l.09.52.7,1.61.19.24.11.34.35.53.04.36.57,1.04.29.67-.07.11h.03s-.24.18-.24.18l-1.41.61-.34.22-.34.15-.41.33-.56.14-.52.29-2.19.95-.68.23-.42.28-.45.16-.75.33-.26.15-.46-.09-.21-.48Zm-.12-7.22l-.09-.4-.25-.38.02-.38-.05-.38.1-.16.15-.44.14-.19.09-.22.42-.25.07-.1.41-.3.21.03.4-.14.53.02.38.12.61.56.19.05.19-.1.36-.11.26-.23.02-.23-.1-.24-.29-.33-.65-.45-.48-.16-.27.05-.26-.06-.32.04-.09-.05-.54.05-.95.41-.46.34-.48.41-.47.47v.21s-.23.43-.23.43v.36s-.14.29-.14.29l.06.26-.08.49.14.24.07.56.16.2.25.58.32.54.3.38.25.23.11.17.36.13.2.2.38.14.74.07.28.02.29-.03.36-.15.15.04.44-.07.06-.09.3-.1.49-.4.21-.11.26-.21.19-.22.29-.5.26-.49.03-.35v-.25s-.11-.58-.11-.58l-.19-.32-.43.14-.42.23-.1.25.13.69-.21.18-.24.51-.19.18-.37.23-.34.06-.41.18h-.34s-.36.05-.36.05l-.51-.2-.23-.14-.31-.24-.31-.36-.31-.47-.06-.21Z"/><path class="cls-2" d="m158.48,167.64l-.14-.04-.04-.05-.16-.84-.36-.4-.16-.52-.1-.48-.3-.58.07-.22-.46-.64-.33-.75.02-.23-.56-1.06.09-.19-.44-.66-.17-.4-.21-.28-.25-.73-.52-1.21v-.17s-.39-.88-.39-.88l-.25-.38-.23-.53v-.24s-.36-.6-.36-.6l-.09-.37-.02.03-.26-.6-.17-.27.2-.47.22-.08.48-.26.47-.08.53-.33.48-.09.9-.39.35-.25.21-.11.69-.23,1.64-.71.43-.09.53-.33,1.68-.73.25.08.29.67.09.13v.34s.32.48.32.48l.13.47.42.66.05.4.23.39-.04.27.43.56-.02.38.56.87.22.62.13.18.03.27.53.9.17.4.21.68.36.82.31.9.3.31.1.43.34.8.03.38.34.43.14.4.22.24.08.54.17.31.71,1.63-.02.08-.64.35-.33.14-.47.12-.54.39-1.05.46-.33.06-.94.51-.54.19-1.54.66-.09-.05-.62.4-.38.13-.57.25h-.15s-.51.3-.51.3l-.4-.13-1.02-2.35Zm1.3-4.48l-.54-.46.03-.17.28-.05h.22s.6-.17.6-.17l.1-.13.42-.12.21-.22.34-.08.57-.35.38-.05.13-.12.44-.16.19-.14.35-.1.15-.13.26-.11.22-.31v-.24s-.28-.45-.28-.45l-.02-.11-.28-.38-.17-.15-.23-.29-.34-.24-.83-.32-.26-.06-.21.02h-.33s-.4.08-.4.08l-.17-.04-.34.04-.17.16h-.17s-.39.09-.39.09l-.36.26-.1.15-.25.19-.49.55-.26.33-.06.41-.07.04-.05.24v.44s-.09.44-.09.44l.05.16v.32s.25.58.25.58l.07.34.46.68.09.3.25.46h.15s.34.28.34.28l.14.16.37.11.33.26.45.02h.41s.39.02.39.02l.25-.06.28-.12.67-.16.28-.12.53-.38.19-.22.13-.06.23-.22.33-.52.11-.32.23-.33v-.62s-.04-.25-.04-.25l-.2-.22-.25.06h-.12s-.3.13-.3.13l-.15.35-.07.06-.19.74-.38.3v.15s-.4.36-.4.36l-.38.17-1.12.22-.12-.05-.38-.07-.36-.32-.11.02-.24-.22-.13-.21-.1-.11Zm3.12-3.21l.15.14-.04.17-.7.07-.22.18-.35.2-.51.15-.49.16-.49.28-.37.19-.42.15-.27.27h-.17s-.06-.24-.06-.24l.05-.23v-.41s-.02-.19-.02-.19l.08-.27.05-.31.56-.66.28-.24.19-.03.24-.1.76-.19.62.15.4.23.41.33.31.2Z"/><path class="cls-2" d="m167.07,164.16l-.17-.25-.02-.51-.34-.63-.21-.26-.22-.71-.26-.26-.2-.93-.29-.45-.36-.82.02-.18-.15-.26-.24-.79-.35-.49h0s-.08-.12-.08-.12l-.08-.34-.21-.33h0s-.22-.35-.22-.35l-.09-.37-.16-.29-.17-.4-.08-.34-.54-1.24-.07-.36-.4-.62-.04-.37-.41-.72-.47-1.08.16-.49.6-.4.74-.17.08-.15.81-.2.91-.39.24-.17.06-.09,1.28-.4.51-.27.88-.38.33-.09.2-.17.74-.32,1-.33.49-.03.03.38.41.63-.04.14.27.44.15.49.36.59v.22s.2.36.2.36l.16.65.4.5v.06s-.11.24-.11.24l.53.76.12.39.26.33.09.57.36.52.25.57.19.66.71,1.64.26.29.02.47.41.72.17.4.05.42.33.37.2.59.21.21.09.52.17.25.58,1.34-.3.33-.36.22-.35.12-.51.22-.44.27-.48.18-.37.33-.74.12-.49.26-2.35,1.02-.47.25-.56.18-1.11.48-.23.13-.38-.12-.94-2.16Zm6.54-4.81l-.12-.28h-.51s-.42.14-.42.14l-.07.1-.36.22-.27.05-.61.47-.22-.11.08-.27-.19-.63-.1-.39-.11-.1-.22-.31v-.24s-.28-.52-.28-.52l-.29-.87-.2-.23-.03-.16-.25-.58-.05-.3-.36-.67-.22-.51-.15-.26-.2-.47-.25-.38v-.34s-.19-.3-.19-.3l-.07-.29-.43-.2h-.24s-1.07.46-1.07.46l-.24.15-.38.13-.31.14-.4.12-.24.31.07.39.11.19.3.11.52-.16.53-.3.37-.11.34-.23.19-.03.17.08-.04.27.03.29.19.29.24.67.19.25.07.44.15.34.26.48.11.09.04.2.29.47v.19s.23.53.23.53l.1.16.03.14.14.33.11.17.09.52.1.07.13.47.25.3.09.21.19.25-.03.23-.44-.04-.56.29-.14.03-.21.13-.35.05-.27.2-.12.42.31.49.36-.02.37-.24.56-.19.56-.23.27-.12.4-.28.12.03.89-.39.4-.21h.09s.68-.28.68-.28l.52-.29.06-.25-.08-.27Z"/><path class="cls-2" d="m175.6,160.47l-.17-.25-.02-.51-.34-.63-.22-.26-.22-.71-.26-.26-.2-.93-.29-.45-.36-.82.02-.18-.14-.26-.24-.79-.35-.49h0s-.08-.12-.08-.12l-.08-.34-.21-.33h0s-.22-.35-.22-.35l-.09-.37-.16-.29-.17-.4-.08-.34-.54-1.24-.07-.36-.4-.62-.04-.37-.41-.72-.47-1.08.16-.49.6-.4.74-.17.08-.15.81-.2.91-.39.24-.17.06-.09,1.28-.4.51-.27.88-.38.33-.09.2-.17.74-.32,1-.33.49-.03.03.38.41.63-.04.14.27.44.15.49.36.59v.22s.2.36.2.36l.16.65.4.5v.06s-.11.24-.11.24l.53.76.12.39.26.33.09.57.36.52.25.57.18.66.71,1.64.26.29.02.47.41.72.17.4.05.42.33.37.2.59.21.21.09.52.17.25.58,1.34-.3.33-.36.22-.35.12-.51.22-.44.27-.48.18-.37.33-.74.12-.49.26-2.35,1.02-.47.25-.56.18-1.11.48-.23.13-.38-.12-.94-2.16Zm6.54-4.81l-.12-.28h-.51s-.42.14-.42.14l-.08.1-.36.22-.27.05-.61.47-.22-.11.08-.27-.19-.63-.1-.39-.11-.1-.22-.31v-.24s-.28-.52-.28-.52l-.29-.87-.2-.23-.03-.16-.25-.58-.05-.3-.36-.67-.22-.51-.15-.26-.2-.47-.25-.38v-.34s-.19-.3-.19-.3l-.07-.29-.43-.2h-.24s-1.07.46-1.07.46l-.24.15-.38.13-.31.14-.4.12-.24.31.07.39.11.19.3.11.52-.16.53-.3.37-.11.34-.23.19-.03.17.08-.04.27.03.29.19.29.24.67.19.25.07.44.15.34.26.48.11.09.04.2.29.47v.19s.23.53.23.53l.1.16.03.14.14.33.11.17.09.52.1.07.13.47.25.3.09.21.19.25-.03.23-.44-.04-.56.29-.14.03-.21.13-.35.05-.27.2-.12.42.31.49.36-.02.37-.24.56-.19.56-.23.27-.12.4-.28.12.03.89-.39.4-.21h.09s.68-.28.68-.28l.52-.29.06-.25-.08-.27Z"/><path class="cls-2" d="m184.05,156.57l-.14-.04-.04-.05-.16-.84-.36-.4-.16-.52-.11-.48-.3-.58.07-.22-.46-.64-.33-.75.02-.23-.56-1.06.09-.19-.44-.66-.17-.4-.21-.28-.25-.73-.52-1.21v-.17s-.39-.88-.39-.88l-.25-.38-.23-.53v-.24s-.36-.6-.36-.6l-.09-.37-.02.03-.26-.6-.17-.27.2-.47.22-.08.48-.26.47-.08.53-.33.48-.09.9-.39.35-.25.21-.11.69-.23,1.64-.71.43-.09.53-.33,1.68-.73.25.08.29.67.09.13v.34s.32.48.32.48l.13.47.42.66.05.4.23.39-.04.27.43.56-.02.38.56.87.22.62.13.18.03.27.53.9.17.4.21.68.36.82.31.9.3.31.1.43.34.8.03.38.34.43.14.4.22.24.08.54.17.31.71,1.63-.02.08-.64.35-.33.14-.47.12-.54.39-1.05.46-.33.06-.94.51-.54.19-1.54.66-.09-.05-.62.4-.38.13-.57.25h-.15s-.51.3-.51.3l-.4-.13-1.02-2.35Zm1.3-4.48l-.54-.46.03-.17.28-.05h.22s.6-.17.6-.17l.1-.13.42-.12.21-.22.34-.08.57-.35.38-.05.13-.12.44-.16.19-.14.35-.1.15-.13.26-.11.22-.31v-.24s-.28-.45-.28-.45l-.02-.11-.28-.38-.17-.15-.23-.29-.34-.24-.83-.32-.26-.06-.21.02h-.33s-.4.08-.4.08l-.17-.04-.34.04-.17.16h-.17s-.39.09-.39.09l-.36.26-.1.15-.25.19-.49.55-.26.33-.06.41-.07.04-.05.24v.44s-.09.44-.09.44l.05.16v.32s.25.58.25.58l.07.34.46.68.09.3.25.46h.15s.34.28.34.28l.14.16.37.11.33.26.45.02h.41s.39.02.39.02l.25-.06.28-.12.67-.16.28-.12.53-.38.19-.22.13-.06.23-.22.33-.52.11-.32.23-.33v-.62s-.04-.25-.04-.25l-.2-.22-.25.06h-.12s-.3.13-.3.13l-.15.35-.07.06-.19.74-.38.3v.15s-.4.36-.4.36l-.38.17-1.12.22-.12-.05-.38-.07-.36-.32-.11.02-.24-.22-.13-.21-.1-.11Zm3.12-3.21l.15.14-.04.17-.7.07-.22.18-.35.2-.51.15-.49.16-.49.28-.37.19-.42.15-.27.27h-.17s-.06-.24-.06-.24l.05-.23v-.41s-.02-.19-.02-.19l.08-.27.05-.31.56-.66.28-.24.19-.03.24-.1.76-.19.62.15.4.23.41.33.31.2Z"/><path class="cls-2" d="m193.38,154.62l-.23-.42-.52-1.19-.17-.23-.06-.5-.3-.7-.28-.38-.09-.28v-.12s-.36-.55-.36-.55l-.19-.75-.19-.27-.1-.24-.22-.21-.09-.84-.31-.49-.18-.61-.18-.19-.38-.87-.16-.17-.13-.42-.35-.81-.23-.64-.31-.71-.14-.48-.29-.47-.27-.63-.04-.17-.17-.25-.23-.73-.44-.86.3-.37.78-.42.62-.12.17-.16.5-.1.45-.25.34-.11.25-.23.5-.13,2.27-.98.6-.21.28-.17.54-.23h.15s.95-.42.95-.42l.4-.02.12.51.34.48v.34s.3.48.3.48l.26.61.18.21.09.52.47.89.15.12.15.69.15.34.22.31.2.66.23.26.15.63.22.31.22.38.11.26.21.68.25.57.44,1.26.29.36.03.27.26.48.29.82.17.23.26.6.1.04.04.05.09.59.26.49.51,1.18-.22.43-.9.46-.37.13-.45.29-.48.18-.32.31-.69.11-.45.28-.58.25-.67.24-1.09.47-.42.13-.44.24-.57.25-.58.18-.64.28-.16-.13-.21-.62Zm2.16-10.79l-.79-.33-.65.14-.41.07-.17.11-.4.12-.38.33-.19.13-.34.45-.05.21-.27.74.06.21-.05.11.02.72.05.5.15.46.32.43.03.22.21.26.2.47.55.61.15.14.34.24.45.14.31.12.43-.02.09.1.48-.06.64-.19.26-.11.25-.24.26-.11.64-.62-.02-.24.19-.54.1.04.07.32.13.38.1.08.47-.13.38-.17.02-.18-.08-.39-.21-.28-.23-.64-.17-.23-.25-.69-.35-.5v-.15s-.07-.27-.07-.27l-.21-.38-.34-.8-.21-.4-.08-.34-.2-.45-.14-.43-.22-.38-.23-.54-.24-.67-.15-.24-.26-.72-.36-.42-.48.17-.27.17-.12.24.22.73.07.24.34.66.2.47.23.32.08.39.18.43-.09.18Zm-2.07,3.83l-.26-.4.06-.5-.17-.23.07-.23-.04-.1.1-.7.07-.07.16-.34.21-.21.15-.05.62-.32.4-.17.64.08.27-.03.17-.12.28.11-.06.25.05.42.24.28.02.28.13.11.21.64.08.23.27.32.14.6.21.25.2.18-.08.2-.31.17-.3.28-.18.3-.51.27-.26.06-.24.14h-.64s-.25-.07-.25-.07l-.46-.25-.31-.22-.08-.19-.18-.18-.17-.5-.21-.21-.04-.09Z"/><path class="cls-2" d="m210.56,147.44l-.37-.85-.39-.67-.22-.51-.06-.48-.23-.37-.24-.2-.15-.58h0s-.12-.39-.12-.39l-.19-.2-.12-.59-.25-.31-.51-1.18v-.21s-.25-.46-.25-.46l-.25-.58-.05-.28-.35-.51-.12-.35-.38-.58-.12-.4-.58-1.35-.15-.54-.41-.63-.96-2.22-.36-.59.3-.43.54-.15.13-.14.48-.09.56-.38.48-.09.39-.23.45-.2.17-.19,1-.3.89-.45,1.27-.55.16-.1,1.83-.79.39-.03.3.7.13.15v.41s.39.54.39.54l.25.58.11.17v.35s.45.65.45.65l.25.57.05.03-.04.42.71,1.14-.03.13.33.41.11.48.31.44.23.53.12.15.22.73.75,1.73.22.28-.03.2.45.77.2.7.24.32.22.51.28.33.09.52.19.29.52,1.21.15.26v.05s-.27.23-.27.23l-.25.08-1.14.49-.22.16-.41.21-.5.4-.83.16-.62.37-.44.16-.57.25-.47.25-.38.17-.36.06-.61.42-.4.14-.95.41-.29.18-.37-.16-.28-.54Zm5.44-5.85l.27-.28-.03-.15v-.3s-.34-.36-.34-.36l-.35.1-.23.25-.27.19-.3.08-.55.29h-.26s-.22.07-.22.07l-.31-.18-.22-.07-.1-.07-.51-.71-.08-.18-.18-.65-.27-.36v-.13s-.28-.64-.28-.64l-.04-.22-.16-.37-.38-.46.05-.24.57.06.22-.13.37-.11.57-.4.39-.03.11-.13.67-.41.11-.22-.18-.34-.09-.1-.29-.11-.17.07-.44.12-.25.23-.53.11-.14.11-.29.07-.77.42-.2.17-.2-.12.02-.41-.54-1.25-.19-.32-.09-.4-.18-.34-.23-.07-.45.2-.43.25.15.36.19.29.04.37.24.37.08.35.18.41.24.44.27.17-.09.21-.32-.03-.55.24-.17.11-.65.28-.31.1-.13.16.08.3.18.29.17.16.69-.25.15-.05.21-.14.37-.11.35-.2.23-.25.2.12-.09.22.21.41-.02.28.22.24v.17s.23.32.23.32l.03.19.86,1.99.52.57.34.12.27.19.27.08.58-.03.61-.15.66-.22.39-.3.3-.05.22-.24Z"/><path class="cls-2" d="m219.12,144.04l-.8-1.85-.06-.02-.26-.61.03-.32-.38-.73-.33-.33-.23-.85-.1-.03-.04-.05-.14-.82-.37-.5-.33-.57-.12-.62-.07-.17-.14-.65-.38-.58-.22-.51-.35-.54-.11-.44-.2-.45-.14-.24-.34-1.02-.26-.49.03-.25-.42-.63-.18-.33-.1-.43-.22-.36-.25-.7-.33-.57.27-.47.37-.11.51-.3.52-.09.36-.26.51-.12.37-.19.27-.03.39-.34,1.25-.42,1.95-.84.14-.14.82-.29,1.15-.5.16.06.03.04.22.62.26.36.15.47.38.87.18.26.12.35.49,1.14.11.07.12.71.26.4.1.11.24.75.25.35.11.49.26.44.22.51h.03s.05.02.05.02l.19.75.2.35.27.63.25.82.33.36.12.56.49,1.14.12.15.31.73.12.15v.33s.17.3.17.3h0s.31.54.31.54l.4.92-.19.42-.29.04-.8.41-.35.15-.39.22-.33.14-.22.31-.81.16-2.44,1.06-.73.22-.41.33-.68.23-.41.18-.45.14-.31.19-.22-.11-.05-.08Zm5.66-6.84l-.2-.32-.15-.07-.29.07-.59.31-.43.18-.3.21-.22.04-.23-.05-.02-.24-.17-.38-.11-.44-.35-.54v-.15s-.29-.52-.29-.52l.02-.07-.32-.74-.18-.29-.22-.63-.12-.44-.41-.67-.54.12-.07.08-.51.14-.06.14-.45.2h-.02s-.65.28-.65.28l-.15.12-.46.1-.2.12-.15.35.17.23.21.41.24-.03.65-.28.18-.13.34-.06.25-.16.25-.21.24-.15.13.06.09.21.02.31.18.33.07.29.29.5.13.45.28.64.17.23.03.31.17.25.12.37.1.16.23.21-.07.15-.12.08-.47.13-.31.14-.25.08-.34.15-.56.43-.06.26.14.41.3.14.3-.09.24-.19.56-.19.2-.05.25-.19.3-.13.64-.19.63-.34.25-.06.2-.17.68-.3.27-.15.24-.02.31-.18.08-.25-.07-.09-.03-.19Zm-5.51-7.47l-.55-.1-.58.25-.17.24-.05.36.12.27v.06s.15.29.15.29l.18.18.22.04.5-.1.24-.15.22-.2-.08-.42-.04-.36-.15-.36Z"/><path class="cls-2" d="m226.74,138.33l-.17-.25-.02-.51-.34-.63-.22-.26-.22-.71-.26-.26-.2-.93-.29-.45-.36-.82.02-.18-.14-.26-.24-.79-.35-.49h0s-.08-.12-.08-.12l-.08-.34-.21-.33h0s-.22-.35-.22-.35l-.09-.37-.16-.29-.17-.4-.08-.34-.54-1.24-.07-.36-.4-.62-.04-.37-.41-.72-.47-1.08.16-.49.6-.4.74-.17.08-.15.81-.2.91-.39.24-.17.06-.09,1.28-.4.51-.27.88-.38.33-.09.2-.17.74-.32,1-.33.49-.03.03.38.41.63-.04.14.27.44.15.49.36.59v.22s.2.36.2.36l.16.65.4.5v.06s-.11.24-.11.24l.53.76.12.39.26.33.09.57.36.52.25.57.18.66.71,1.64.26.29.02.47.41.72.17.4.05.42.33.37.2.59.21.21.09.52.17.25.58,1.34-.3.33-.36.22-.35.12-.51.22-.44.27-.48.18-.37.33-.74.12-.49.26-2.35,1.02-.47.25-.56.18-1.11.48-.23.13-.38-.12-.94-2.16Zm6.54-4.81l-.12-.28h-.51s-.42.14-.42.14l-.08.1-.36.22-.27.05-.61.47-.22-.11.08-.27-.19-.63-.1-.39-.11-.1-.22-.31v-.24s-.28-.52-.28-.52l-.29-.87-.2-.23-.03-.16-.25-.58-.05-.3-.36-.67-.22-.51-.15-.26-.2-.47-.25-.38v-.34s-.19-.3-.19-.3l-.07-.29-.43-.2h-.24s-1.07.46-1.07.46l-.24.15-.38.13-.31.14-.4.12-.24.31.07.39.11.19.3.11.52-.16.53-.3.37-.11.34-.23.19-.03.17.08-.04.27.03.29.19.29.24.67.19.25.07.44.15.34.26.48.11.09.04.2.29.47v.19s.23.53.23.53l.1.16.03.14.14.33.11.17.09.52.1.07.13.47.25.3.09.21.19.25-.03.23-.44-.04-.56.29-.14.03-.21.13-.35.05-.27.2-.12.42.31.49.36-.02.37-.24.56-.19.56-.23.27-.12.4-.28.12.03.89-.39.4-.21h.09s.68-.28.68-.28l.52-.29.06-.25-.08-.27Z"/><path class="cls-2" d="m235.26,134.64l-.17-.25-.02-.51-.34-.63-.21-.26-.22-.71-.26-.26-.2-.93-.29-.45-.36-.82.02-.18-.15-.26-.24-.79-.35-.49h0s-.08-.12-.08-.12l-.08-.34-.21-.33h0s-.22-.35-.22-.35l-.09-.37-.16-.29-.17-.4-.08-.34-.54-1.24-.07-.36-.4-.62-.04-.37-.41-.72-.47-1.08.16-.49.6-.4.74-.17.08-.15.81-.2.91-.39.24-.17.06-.09,1.28-.4.51-.27.88-.38.33-.09.2-.17.74-.32,1-.33.49-.03.03.38.41.63-.04.14.27.44.15.49.36.59v.22s.2.36.2.36l.16.65.4.5v.06s-.11.24-.11.24l.53.76.12.39.26.33.09.57.36.52.25.57.19.66.71,1.64.26.29.02.47.41.72.17.4.05.42.33.37.2.59.21.21.09.52.17.25.58,1.34-.3.33-.36.22-.35.12-.51.22-.44.27-.48.18-.37.33-.74.12-.49.26-2.35,1.02-.47.25-.56.18-1.11.48-.23.13-.38-.12-.94-2.16Zm6.54-4.81l-.12-.28h-.51s-.42.14-.42.14l-.07.1-.36.22-.27.05-.61.47-.22-.11.08-.27-.19-.63-.1-.39-.11-.1-.22-.31v-.24s-.28-.52-.28-.52l-.29-.87-.2-.23-.03-.16-.25-.58-.05-.3-.36-.67-.22-.51-.15-.26-.2-.47-.25-.38v-.34s-.19-.3-.19-.3l-.07-.29-.43-.2h-.24s-1.07.46-1.07.46l-.24.15-.38.13-.31.14-.4.12-.24.31.07.39.11.19.3.11.52-.16.53-.3.37-.11.34-.23.19-.03.17.08-.04.27.03.29.19.29.24.67.19.25.07.44.15.34.26.48.11.09.04.2.29.47v.19s.23.53.23.53l.1.16.03.14.14.33.11.17.09.52.1.07.13.47.25.3.09.21.19.25-.03.23-.44-.04-.56.29-.14.03-.21.13-.35.05-.27.2-.12.42.31.49.36-.02.37-.24.56-.19.56-.23.27-.12.4-.28.12.03.89-.39.4-.21h.09s.68-.28.68-.28l.52-.29.06-.25-.08-.27Z"/><path class="cls-2" d="m252.97,128.71l-.26-.4-.75-1.73-.02-.28-.07-.31-.46-.55-.29-.97-.24-.4-.03-.31-.23-.34-.45-.82-.12-.62-.1-.19-.09-.55-.37-.55-.33-.77-.27-.47-.41-.95-.23-.64-.28-.64-.03-.19-.18-.41-.2-.32-.19-.37-.21-.67-.22-.32-.19-.59-.1-.24-.31-.51.25-.36.84-.36.29-.07.3-.25.79-.17.54-.3.35-.09.35-.27.76-.23.45-.2.66-.34,3.21-1.39.32.07.14.48.25.33.1.55.29.4.11.36.32.5.07.48.25.43.25.58.14.14.07.43.15.34.23.39.15.59.32.42.15.58.24.4.24.32.29,1.06.75,1.73.19.24-.04.19.38.68.3.85.15.2.33.75.11.1.02.36.25.42.45,1.04.21.4-.32.31-.43.25-.36.15-.53.14-.48.33-.31.14-.25.29-.63.1-.34.11-.79.44-.72.24-1.17.5-.44.16-.19.18-.92.33-.41.09-.62.33-.24-.17-.21-.6Zm.34-9.38l.22.51-.03.2.26.6.2.32.04.29.38.88.14.44.09.1.16.37.13.23.18.22-.06.16-.17.07h-.24s-1.08.47-1.08.47l-.16.34v.15s.07.16.07.16l.22.24.11.07.2-.02.49-.16.17-.14.47-.13.1-.08.61-.26.32-.09.14-.11.47-.2.3-.2.12.03.38-.17.08-.05,1.01-.44.31-.25-.1-.43-.17-.28h-.37s-.34.07-.34.07l-.64.39-.4.09-.65.33-.14.21-.13-.11-.06-.29v-.22s-.13-.5-.13-.5l-.15-.15-.19-.27-.05-.35-.39-.54-.03-.38-.09-.2-.18-.26-.23-.66-.41-.53.1-.23.19.05.86-.31h.09s.37-.1.37-.1l.48-.26.5-.17v-.37s-.22-.35-.22-.35l-.25-.19-.77.25-.24.14-1.14.49-.14.23-.21-.05.03-.23-.02-.35-.15-.69.13-.26.09-.34.22-.31.36-.34.63-.41.24-.1.15-.23-.09-.28-.2-.45-.14-.02-.72.31-.48.34-.21.14-.49.5-.36.65-.17.31-.17,1.02.12.55.3.53-.08.2-.39-.02-.76.39-.13.04-.28.24.05.43.12.27.18.06.7-.18.86-.56.26.17Z"/><path class="cls-2" d="m261.59,125.28l-.43-.84-.43-.99-.23-.32-.06-.58-.17-.4-.27-.35-.31-.86-.15-.12-.1-.63-.41-.6-.3-.68v-.45s-.33-.54-.33-.54l-.1-.48-.13-.19-.25-.46-.2-.45-.3-.53-.5-1.17-.15-.46-.16-.37-.04-.34-.52-.94-.25-.57-.03-.18-.2-.38-.48-1.11-.25-.42.26-.33,1.01-.44.31-.07.23-.22.65-.17.21-.11.67-.17.51-.41.36-.04.78-.34.57-.3.7-.3.39-.12.62-.37,1.21-.44.41-.21.23.1.23.54.15.2.07.51.32.47.14.43.32.5.03.34.27.42.06.45.39.51v.45s.41.54.41.54l.26.75.21.25.11.48.23.37h0s.32.45.32.45l.1.55.57,1.31.15.7.48.57.05.43.55,1.27.13.19.23.53.21.14.07.68.28.49.47,1.1-.17.46-.85.37-.42.13-.25.19-.53.23-.65.37-.59.16-.4.21-2.2.95-.26.03-.41.35-.84.28-.26.11-.61.2-.44.19-.17-.15-.11-.34Zm4.54-6.35l.08.03.3.68.12.03.32-.09.37-.16-.12-.62-.47-1.09-.22-.31v-.22s-.29-.45-.29-.45l-.21-.75-.2-.22-.17-.5-.14-.33-.11-.41-.33-.61-.16-.25-.12-.28-.2-.08-.43.1-.23.17-.1.26v.37s.25.36.25.36l-.03.05.1.39.13.3.23.29.06.26.21.3.04.29.26.49.08.34.32.74.33.38.08.22-.19.07-.45.33-.05.19-.4.26-.22.16-.5.13-.5.22-.06-.13-.13-.03-.3-.14-.17-.23-.19-.17-.32-.5v-.37s-.17-.29-.17-.29l-.19-.24-.26-.61-.03-.18-.13-.23-.04-.25-.18-.31-.17-.48-.39-.67-.32-.11-.3.09-.21.11-.13.4.07.51.05.05.07.31.16.17.14.45.13.19.33.64v.07s.1.21.1.21l.12.51.11.19.36.84.23.22.2.47.16.02.34.19.18.22.48.06.19.09.11.02.57-.09.21-.06.45-.2.27-.19h.13s.41-.32.41-.32l.33-.45.13-.29.21-.48Z"/><path class="cls-2" d="m270.03,121.44l-.24-.28-.52-1.21-.21-.64.06-.16-.36-.64-.28-.25-.13-.58.05-.07-.43-.72-.1-.53-.36-.57h0s-.18-.24-.18-.24l-.03-.66-.37-.55-.05-.43-.48-.8-.1-.3-.38-.6-.07-.32-.36-.84v-.12s-.37-.85-.37-.85l-.21-.41.02-.26-.51-.74-.31-.88-.33-.75-.32-.59.22-.51.35-.1.24-.27.83-.16.28-.17.39-.05.3-.16h-.01s.32-.18.32-.18h.22s.43-.33.43-.33l.78-.25.41-.18.42-.23.64-.21.92-.4.45-.29.86-.31.67-.29.36.05.13.5.29.4.16.49.09.18.14.45.35.54.13.49.08.18.16.67.41.55v.06s-.02.12-.02.12l.58,1.1.1.35.23.29.11.48.25.42.23.26.27,1.12.26.44.26.6.19.68.31.41.02.13.45,1.04.13.57.32.42.14.33.2.03.06.06.18.92.52,1.21.14.41v.07s-.25.14-.25.14l-.21.02-1.07.56-.61.26-.43.41-.8.14-.21.07-.29.18-.55.24-.41.09-1.96.85-.44.24-.72.31-.26.03-.64.36-.23-.17-.26-.6Zm5.87-6.37l-.21-.32h-.4s-.38.14-.38.14l-.35.24-.33.11-.39.23-.35.05-.35.32-.21-.14-.03-.31-.41-.7-.06-.34-.28-.4-.18-.77-.18-.21-.14-.24-.25-.06.02-.19.21-.11.28-.56.12-.37.23-.13.16-.19.28-.12.44-.24.31-.1.61-.26.1-.24-.32-.74-.23-.07-.61.08-.51.27-.17.04-.63.42-.05.21-.15.2-.16.3-.06.41-.09.14.03.31-.13.33-.08-.39-.24-.55-.02-.09-.18-.22-.48.07-.45.2-.76.24-.09.11-.34.15-.27.35-.02.31.25.3.52-.06.37-.09.48-.29.2-.19.23-.05-.02.35.13.38.05.42.08.03.1.38.28.4.17.6.23.53.28.49.14.31.26.41.24.05-.21.22-.19-.04-.32.05-.47.2-.17.12-.28.12-.19.23.15.36.07.2.2.15.26-.03.54-.23.28-.21.39-.1.61-.26.57-.23.54-.23.32-.22.48-.11.64-.28.63-.39-.05-.4-.08-.03Z"/><path class="cls-2" d="m278.75,117.92l-.37-.85-.39-.67-.22-.51-.06-.48-.23-.37-.24-.2-.15-.58h0s-.12-.39-.12-.39l-.19-.2-.12-.59-.25-.31-.51-1.18v-.21s-.25-.46-.25-.46l-.25-.58-.05-.28-.35-.51-.12-.35-.38-.58-.12-.4-.58-1.35-.15-.54-.41-.63-.96-2.22-.36-.59.3-.43.54-.15.13-.14.48-.09.56-.38.48-.09.39-.23.45-.2.17-.19,1-.3.89-.45,1.27-.55.16-.1,1.83-.79.39-.03.3.7.13.15v.41s.39.54.39.54l.25.58.11.17v.35s.45.65.45.65l.25.57.05.03-.04.42.71,1.14-.03.13.33.41.11.48.31.44.23.53.12.15.22.73.75,1.73.22.28-.03.2.45.77.2.7.24.32.22.51.28.33.09.52.19.29.52,1.21.15.26v.05s-.27.23-.27.23l-.25.08-1.14.49-.22.16-.41.21-.5.4-.83.16-.62.37-.44.16-.57.25-.47.25-.38.17-.36.06-.61.42-.4.14-.95.41-.29.18-.37-.16-.28-.54Zm5.44-5.85l.27-.28-.03-.15v-.3s-.34-.36-.34-.36l-.35.1-.23.25-.27.19-.3.08-.55.29h-.26s-.22.07-.22.07l-.31-.18-.22-.07-.1-.07-.51-.71-.08-.18-.18-.65-.27-.36v-.13s-.28-.64-.28-.64l-.04-.22-.16-.37-.38-.46.05-.24.57.06.22-.13.37-.11.57-.4.39-.03.11-.13.67-.41.11-.22-.18-.34-.09-.1-.29-.11-.17.07-.44.12-.25.23-.53.11-.14.11-.29.07-.77.42-.2.17-.2-.12.02-.41-.54-1.25-.19-.32-.09-.4-.18-.34-.23-.07-.45.2-.43.25.15.36.19.29.04.37.24.37.08.35.18.41.24.44.27.17-.09.21-.32-.03-.55.24-.17.11-.65.28-.31.1-.13.16.08.3.18.29.17.16.69-.25.15-.05.21-.14.37-.11.35-.2.23-.25.2.12-.09.22.21.41-.02.28.22.24v.17s.23.32.23.32l.03.19.86,1.99.52.57.34.12.27.19.27.08.58-.03.61-.15.66-.22.39-.3.3-.05.22-.24Z"/><path class="cls-2" d="m287.36,114.62l-.8-1.85-.14-.06-.26-.61-.08-.57-.22-.5-.23-.25-.12-.28-.22-.7-.11-.05-.04-.05-.13-.74-.36-.44-.32-.74-.03-.46-.27-.44-.1-.43-.32-.57-.23-.53-.29-.36-.14-.55-.62-1.42-.06-.26-.22-.5-.14-.44-.29-.47-.92-2.12-.2-.3.28-.44.32-.07.64-.28.29-.07.55-.29.27-.03.54-.3.23-.05.32-.27.33-.14.91-.28.32-.19,2.64-1.14.93-.34.4-.17.11.09.24.67.28.4-.03.28.34.46.25.58.14.16.21.65-.02.11.34.78.25.3.05.35.17.32.49,1.12.08.1.03.39.44.59.29.67.12.64.43.79.25.58.11.48.32.35.14.56.47,1.08.13.1.28.81.2.27.03.39.4.77.38.88-.15.44-.19.02-.69.38-.3.08-.47.27-.55.24-.49.31-.41.11-2.69,1.16-.61.16-.48.34-.52.17-.4.17-.28.09-.61.26-.14-.08-.08-.1Zm-.15-9.03l-.24-.21-.14-.21.1-.2.17-.07.06-.09.31-.27.21-.29.18-.09.38-.33h.37s.46-.06.46-.06l.64.31.16.37.26.28.17.6.09.05.23.54.13.49.24.35.18.43.12.15.24.67.03.19.24.32.21.14.26-.06.68-.3-.09-.37-.12-.17-.04-.32-.28-.37-.22-.5-.06-.34-.24-.37-.05-.28-.14-.21-.13-.37-.29-.55-.08-.23-.41-.8-.32-.35-.58-.36-.37-.08-.66-.05-.27.08-.68.3-.42.4-.33.09-.14.18-.32.58-.02.28h-.15s-.16-.52-.16-.52l-.13-.58-.28-.42v-.09s-.35-.84-.35-.84l-.19-.37-.05-.2-.17-.31-.47-.1-.28.12-.3.16.02.46.63,1.45.35.61.22.5.02.4.18.29.25.3.14.41.03.26.25.38v.25s.22.23.22.23l.07.46.18.19.26.61.1.31.16.25.04.22.28.81.15.19.11.21.2.23.52-.12.34-.23.02-.3-.04-.17-.24-.55-.15-.27v-.2s-.15-.19-.15-.19l-.09-.48-.17-.16-.08-.22-.16-.22-.15-.73-.11-.02-.2-.35v-.15s-.12-.39-.12-.39Z"/><path class="cls-2" d="m294.86,108.6l-.14-.04-.04-.05-.16-.84-.36-.4-.16-.52-.1-.48-.3-.58.07-.22-.46-.64-.33-.75.02-.23-.56-1.06.09-.19-.44-.66-.17-.4-.21-.28-.25-.73-.52-1.21v-.17s-.39-.88-.39-.88l-.25-.38-.23-.53v-.24s-.36-.6-.36-.6l-.09-.37-.02.03-.26-.6-.17-.27.2-.47.22-.08.48-.26.47-.08.53-.33.48-.09.9-.39.35-.25.21-.11.69-.23,1.64-.71.43-.09.53-.33,1.68-.73.25.08.29.67.09.13v.34s.32.48.32.48l.13.47.42.66.05.4.23.39-.04.27.43.56-.02.38.56.87.22.62.13.18.03.27.53.9.17.4.21.68.36.82.31.9.3.31.1.43.34.8.03.38.34.43.14.4.22.24.08.54.17.31.71,1.63-.02.08-.64.35-.33.14-.47.12-.54.39-1.05.46-.33.06-.94.51-.54.19-1.54.66-.09-.05-.62.4-.38.13-.57.25h-.15s-.51.3-.51.3l-.4-.13-1.02-2.35Zm1.3-4.48l-.54-.46.03-.17.28-.05h.22s.6-.17.6-.17l.1-.13.42-.12.21-.22.34-.08.57-.35.38-.05.13-.12.44-.16.19-.14.35-.1.15-.13.26-.11.22-.31v-.24s-.28-.45-.28-.45l-.02-.11-.28-.38-.17-.15-.23-.29-.34-.24-.83-.32-.26-.06-.21.02h-.33s-.4.08-.4.08l-.17-.04-.34.04-.17.16h-.17s-.39.09-.39.09l-.36.26-.1.15-.25.19-.49.55-.26.33-.06.41-.07.04-.05.24v.44s-.09.44-.09.44l.05.16v.32s.25.58.25.58l.07.34.46.68.09.3.25.46h.15s.34.28.34.28l.14.16.37.11.33.26.45.02h.41s.39.02.39.02l.25-.06.28-.12.67-.16.28-.12.53-.38.19-.22.13-.06.23-.22.33-.52.11-.32.23-.33v-.62s-.04-.25-.04-.25l-.2-.22-.25.06h-.12s-.3.13-.3.13l-.15.35-.07.06-.19.74-.38.3v.15s-.4.36-.4.36l-.38.17-1.12.22-.12-.05-.38-.07-.36-.32-.11.02-.24-.22-.13-.21-.1-.11Zm3.12-3.21l.15.14-.04.17-.7.07-.22.18-.35.2-.51.15-.49.16-.49.28-.37.19-.42.15-.27.27h-.17s-.06-.24-.06-.24l.05-.23v-.41s-.02-.19-.02-.19l.08-.27.05-.31.56-.66.28-.24.19-.03.24-.1.76-.19.62.15.4.23.41.33.31.2Z"/><path class="cls-2" d="m304.13,106.68l-.24-.28-.52-1.21-.21-.64.06-.16-.36-.64-.28-.25-.13-.58.05-.07-.43-.72-.1-.53-.36-.57h0s-.18-.24-.18-.24l-.03-.66-.37-.55-.05-.43-.48-.8-.1-.3-.38-.6-.07-.32-.36-.84v-.12s-.37-.85-.37-.85l-.21-.41.02-.26-.51-.74-.31-.88-.33-.75-.32-.59.22-.51.35-.1.24-.27.83-.16.28-.17.39-.05.3-.16h-.01s.32-.18.32-.18h.22s.43-.33.43-.33l.78-.25.41-.18.42-.23.64-.21.92-.4.45-.29.86-.31.67-.29.36.05.13.5.29.4.16.49.09.18.14.45.35.54.13.49.08.18.16.67.41.55v.06s-.02.12-.02.12l.58,1.1.1.35.23.29.11.48.25.42.23.26.27,1.12.26.44.26.6.19.68.31.41.02.13.45,1.04.13.57.32.42.14.33.2.03.06.06.18.92.52,1.21.14.41v.07s-.25.14-.25.14l-.21.02-1.07.56-.61.26-.43.41-.8.14-.21.07-.29.18-.55.24-.41.09-1.96.85-.44.24-.72.31-.26.03-.64.36-.23-.17-.26-.6Zm5.87-6.37l-.21-.32h-.4s-.38.14-.38.14l-.35.24-.33.11-.39.23-.35.05-.35.32-.21-.14-.03-.31-.41-.7-.06-.34-.28-.4-.18-.77-.18-.21-.14-.24-.25-.06.02-.19.21-.11.28-.56.12-.37.23-.13.16-.19.28-.12.44-.24.31-.1.61-.26.1-.24-.32-.74-.23-.07-.61.08-.51.27-.17.04-.63.42-.05.21-.15.2-.16.3-.06.41-.09.14.03.31-.13.33-.08-.39-.24-.55-.02-.09-.18-.22-.48.07-.45.2-.76.24-.09.11-.34.15-.27.35-.02.31.25.3.52-.06.37-.09.48-.29.2-.19.23-.05-.02.35.13.38.05.42.08.03.1.38.28.4.17.6.23.53.28.49.14.31.26.41.24.05-.21.22-.19-.04-.32.05-.47.2-.17.12-.28.12-.19.23.15.36.07.2.2.15.26-.03.54-.23.28-.21.39-.1.61-.26.57-.23.54-.23.32-.22.48-.11.64-.28.63-.39-.05-.4-.08-.03Z"/><path class="cls-2" d="m321.25,99.32l-.4-.69-.43-1-.21-.41-.07-.46-.18-.43-.3-.29-.2-.81-.32-.47-.14-.68-.21-.3-.4-.92v-.22s-.15-.27-.15-.27l-.22-.75-.48-.75v-.18s-.49-.8-.49-.8l-.12-.35-.22-.51-.28-.81-.39-.91-.08-.35-.45-.72-.13-.49-.24-.4-.14-.4-.25-.57-.2-.38.27-.3.26-.11.46-.27.53-.1.6-.33.49-.13.84-.36.33-.26.27-.05,2.29-.99.47-.15.21-.14,1.04-.45.25-.08.64-.28.14.04.04.05.14.56.31.47-.03.1-.07.03.38.56.26.61.21.26.13.57.22.38-.03.32.51.62.16.65.24.44.11.37.22.24.15.63.58,1,.29.97.19.37.23.54.07.44.4.42.09.48.45,1.04.13.5.23.29.23.54.14.16.06.45.28.49.38.87.19.36-.28.36-1.24.54-.31.19-.37.12-.73.45-.41.07-.06-.03-.99.53-.59.19-.41.18-.14.1-.36.15-.78.27-.46.25-.85.37-.4.12-.36.22-.38-.14-.15-.46Zm-.01-8.49l-.14-.24-.21-.16.04-.22.51-.37.36-.38.09-.06.27-.27.83-.12h.29s.29.19.29.19l.36.35.24.37.32.74.34.63.02.21.16.45.14.21.12.27.15.22.12.39.07.36.3.38.08.15.34-.06.19-.1.27-.2.15-.39-.15-.24v-.2s-.27-.42-.27-.42l-.23-.54-.03-.18-.16-.3-.07-.32-.21-.3-.1-.31-.18-.41-.15-.27-.15-.34-.37-.69-.23-.27-.51-.4-.16-.06-.51-.08h-.42s-.29.02-.29.02l-.55.24-.3.16-.26.25-.37.16-.15.2-.16.32-.2.27.03.26-.19.11-.1-.04-.15-.59-.16-.06-.26.21-.27.08-.15.28.15.36.04.25.27.51.03.22.24.71.28.37.19.54.52,1.19.31.52.33.75.08.27.25.11.46-.08.46-.3-.11-.41-.22-.34-.07-.32-.26-.41.02-.18-.89-2.06-.24-.4-.07-.19Z"/><path class="cls-2" d="m330.24,96.39l-.11-.07-.68-1.58-.18-.22-.39-.91-.11-.41.04-.17-.41-.43-.23-.81-.38-.56-.13-.58-.18-.22-.06-.13-.31-.36-.13-.82-.44-1.01-.16-.3h0s-.19-.27-.19-.27l-.08-.25-.39-.56-.13-.49-.23-.53-.06-.06-.36-.82-.06-.25-.37-.85-.38-.6-.29-.82-.19-.36-.28-.65-.33-.52.27-.46.48-.14.08-.2.71-.12.44-.27.34-.03.53-.33.31-.05.4-.36.87-.26.52-.31,1.36-.59.39-.1.44-.31,1.56-.68.33.09.11.41.31.45v.28s.31.45.31.45l.29.67.16.2.07.51.16.3h0s.19.26.19.26l.17.47.28.3.17.67.26.41.18.6.32.47.09.33.48.69.35,1.2.44.86.26.79.35.35.2.62.31.73.08.37.24.28.14.4.32.42.11.56.22.35.47,1.09.11.17v.05s-.27.23-.27.23l-.25.06-.66.35-.44.16-.45.29-1.68.73-.77.45-.91.32-1.21.52-.28.22-.47.15-1.48.64h-.07s-.11-.09-.11-.09Zm.11-11.83l-.17.07-.47.29.02-.03-.38.17-.03.13-.22.31-.23.17-.1.16-.24.24-.12.51-.07.23v.44s.01.21.01.21v.93s.22.31.22.31l.14.55.16.45.25.2.37.53.31.36.2.08.23.17.61.17.09.09.35.03.17.04.34-.07.2.07.58-.07.46-.27.43-.18.19-.18.52-.29.35-.39.22-.26.26-.6.13-.44-.02-.7v-.22s-.39-1.21-.39-1.21l-.14-.4-.24-.32-.14-.33-.19-.32-.4-.3-.31-.13-.31-.24-.48-.18-.02-.04-.33.02-.45-.07h-.3s-.45.07-.45.07l-.38.17-.25.08Zm.38.95l.21-.06.41-.04.43-.1.37.04.49.24.21.33.15.1.62.85.17.79v.17s.13.13.13.13l.02.47-.02.38-.12.49-.14.08-.24.24-.06.13-.31.14-.51.34v-.03s-.39.13-.39.13h-.22s-.54-.08-.54-.08l-.39-.12-.1-.11-.42-.31-.02-.09-.17-.25-.23-.46-.21-.3-.09-.45-.22-.44-.03-.34.07-.73.13-.36.3-.28.15-.17.3-.21.3-.13Z"/><path class="cls-2" d="m338.42,92.09l-.37-.85-.39-.67-.22-.51-.06-.48-.23-.37-.24-.2-.15-.58h0s-.12-.39-.12-.39l-.19-.2-.12-.59-.25-.31-.51-1.18v-.21s-.25-.46-.25-.46l-.25-.58-.05-.28-.35-.51-.12-.35-.38-.58-.12-.4-.58-1.35-.15-.54-.41-.63-.96-2.22-.36-.59.3-.43.54-.15.13-.14.48-.09.56-.38.48-.09.39-.23.45-.2.17-.19,1-.3.89-.45,1.27-.55.16-.1,1.83-.79.39-.03.3.7.13.15v.41s.39.54.39.54l.25.58.11.17v.35s.45.65.45.65l.25.57.05.03-.04.42.71,1.14-.03.13.33.41.11.48.31.44.23.53.12.15.22.73.75,1.73.22.28-.03.2.45.77.2.7.24.32.22.51.28.33.09.52.19.29.52,1.21.15.26v.05s-.27.23-.27.23l-.25.08-1.14.49-.22.16-.41.21-.5.4-.83.16-.62.37-.44.16-.57.25-.47.25-.38.17-.36.06-.61.42-.4.14-.95.41-.29.18-.37-.16-.28-.54Zm5.44-5.85l.27-.28-.03-.15v-.3s-.34-.36-.34-.36l-.35.1-.23.25-.27.19-.3.08-.55.29h-.26s-.22.07-.22.07l-.31-.18-.22-.07-.1-.07-.51-.71-.08-.18-.18-.65-.27-.36v-.13s-.28-.64-.28-.64l-.04-.22-.16-.37-.38-.46.05-.24.57.06.22-.13.37-.11.57-.4.39-.03.11-.13.67-.41.11-.22-.18-.34-.09-.1-.29-.11-.17.07-.44.12-.25.23-.53.11-.14.11-.29.07-.77.42-.2.17-.2-.12.02-.41-.54-1.25-.19-.32-.09-.4-.18-.34-.23-.07-.45.2-.43.25.15.36.19.29.04.37.24.37.08.35.18.41.24.44.27.17-.09.21-.32-.03-.55.24-.17.11-.65.28-.31.1-.13.16.08.3.18.29.17.16.69-.25.15-.05.21-.14.37-.11.35-.2.23-.25.2.12-.09.22.21.41-.02.28.22.24v.17s.23.32.23.32l.03.19.86,1.99.52.57.34.12.27.19.27.08.58-.03.61-.15.66-.22.39-.3.3-.05.22-.24Z"/><path class="cls-2" d="m346.98,88.69l-.8-1.85-.06-.02-.26-.61.03-.32-.38-.73-.33-.33-.23-.85-.1-.03-.04-.05-.14-.82-.37-.5-.33-.57-.12-.62-.07-.17-.15-.65-.38-.58-.22-.51-.35-.54-.11-.44-.2-.45-.14-.24-.34-1.02-.26-.49.03-.25-.42-.63-.18-.33-.1-.43-.22-.36-.25-.7-.33-.57.27-.47.37-.11.51-.3.52-.09.36-.26.51-.12.37-.19.27-.03.39-.34,1.25-.42,1.95-.84.14-.14.82-.29,1.15-.5.16.06.03.04.22.62.26.36.15.47.38.87.18.26.12.35.49,1.14.11.07.12.71.26.4.1.11.24.76.25.35.11.49.26.44.22.51h.03s.05.02.05.02l.19.75.2.35.27.63.25.82.33.36.12.56.49,1.14.12.15.31.73.12.15v.33s.17.3.17.3h0s.31.54.31.54l.4.92-.19.42-.29.04-.8.41-.35.15-.39.22-.33.14-.22.31-.81.16-2.44,1.06-.73.22-.41.33-.68.23-.41.18-.45.14-.31.18-.22-.11-.05-.08Zm5.66-6.84l-.2-.32-.15-.07-.29.07-.59.31-.43.18-.3.21-.22.04-.23-.05-.02-.24-.17-.38-.11-.44-.35-.54v-.15s-.29-.52-.29-.52l.02-.07-.32-.74-.18-.29-.22-.63-.12-.44-.41-.67-.54.12-.07.08-.51.14-.06.14-.45.2h-.02s-.65.28-.65.28l-.15.12-.46.1-.2.12-.15.35.17.23.21.41.24-.03.65-.28.18-.13.34-.06.25-.16.25-.21.24-.15.13.06.09.21.02.31.18.33.07.29.29.5.13.45.28.64.17.23.03.31.17.25.12.37.1.16.23.21-.07.15-.12.08-.47.13-.31.14-.25.08-.34.15-.56.43-.06.26.14.41.3.14.3-.09.24-.19.56-.19.2-.05.25-.19.3-.13.64-.19.63-.34.25-.06.2-.17.68-.3.27-.15.24-.02.31-.18.08-.25-.07-.09-.03-.19Zm-5.51-7.47l-.55-.1-.58.25-.17.24-.05.36.12.27v.06s.15.29.15.29l.18.18.22.04.5-.1.24-.15.22-.2-.08-.42-.04-.36-.15-.36Z"/><path class="cls-2" d="m355.56,84.78l-.09-.05-.5-1.17-.18-.29-.31-.71v-.3s-.24-.42-.24-.42l-.25-.26-.28-.92-.2-.23-.1-.51-.25-.33-.14-.33-.34-.55-.06-.61-.27-.42-.15-.59-.3-.38-.26-.61-.32-.55-.57-1.32-.09-.28-.26-.61-.09-.3-.59-1.09-.26-.61-.07-.09-.19-.63-.31-.61-.21-.3.27-.44.33-.09.24-.24.79-.17.39-.27.39-.08.27-.17.48-.11.48-.41.95-.31.38-.17.42-.25.98-.42.35-.09.55-.36,1.54-.66.28.13.13.38.25.26.3.93.3.68.37.55.11.44h-.04s.23.52.23.52l.31.32.06.52.41.63.15.59.4.57.08.39.24.4.23.22.36,1.09-.02.06.32.59.3.88.15.14h0s.19.16.19.16l.09.52.7,1.61.19.24.11.34.35.53.04.36.57,1.04.29.67-.07.11h.03s-.24.18-.24.18l-1.41.61-.34.22-.34.15-.41.33-.56.14-.52.29-2.19.95-.68.23-.42.28-.45.16-.75.33-.26.15-.46-.09-.21-.48Zm-.12-7.22l-.09-.4-.25-.38.02-.38-.05-.38.1-.16.15-.44.14-.19.09-.22.42-.25.07-.1.41-.3.21.03.4-.14.53.02.38.12.61.56.19.05.19-.1.36-.11.26-.23.02-.23-.1-.24-.29-.33-.65-.45-.48-.16-.27.05-.26-.06-.32.04-.09-.05-.54.05-.95.41-.46.34-.48.41-.47.47v.21s-.23.43-.23.43v.36s-.14.29-.14.29l.06.26-.08.49.14.24.07.56.16.2.25.58.32.54.3.38.25.23.11.17.36.13.2.2.38.14.74.07.28.02.29-.03.36-.15.15.04.44-.07.06-.09.3-.1.49-.4.21-.11.26-.21.19-.22.29-.5.26-.49.03-.35v-.25s-.11-.58-.11-.58l-.19-.32-.43.14-.42.23-.1.25.13.69-.21.18-.24.51-.19.18-.37.23-.34.06-.41.18h-.34s-.36.05-.36.05l-.51-.2-.23-.14-.31-.24-.31-.36-.31-.47-.06-.21Z"/><path class="cls-2" d="m363.04,79.09l-.14-.04-.04-.05-.16-.84-.36-.4-.16-.52-.1-.48-.3-.58.07-.22-.46-.64-.33-.75.02-.23-.56-1.06.09-.19-.44-.66-.17-.4-.21-.28-.25-.73-.52-1.21v-.17s-.39-.88-.39-.88l-.25-.38-.23-.53v-.24s-.36-.6-.36-.6l-.09-.37-.02.03-.26-.6-.17-.27.2-.47.22-.08.48-.26.47-.08.53-.33.48-.09.9-.39.35-.25.21-.11.69-.23,1.64-.71.43-.09.53-.33,1.68-.73.25.08.29.67.09.13v.34s.32.48.32.48l.13.47.42.66.05.4.23.39-.04.27.43.56-.02.38.56.87.22.62.13.18.03.27.53.9.17.4.21.68.36.82.31.9.3.31.1.43.34.8.03.38.34.43.14.4.22.24.08.54.17.31.71,1.63-.02.08-.64.35-.33.14-.47.12-.54.39-1.05.46-.33.06-.94.51-.54.19-1.54.66-.09-.05-.62.4-.38.13-.57.25h-.15s-.51.3-.51.3l-.4-.13-1.02-2.35Zm1.3-4.48l-.54-.46.03-.17.28-.05h.22s.6-.17.6-.17l.1-.13.42-.12.21-.22.34-.08.57-.35.38-.05.13-.12.44-.16.19-.14.35-.1.15-.13.26-.11.22-.31v-.24s-.28-.45-.28-.45l-.02-.11-.28-.38-.17-.15-.23-.29-.34-.24-.83-.32-.26-.06-.21.02h-.33s-.4.08-.4.08l-.17-.04-.34.04-.17.16h-.17s-.39.09-.39.09l-.36.26-.1.15-.25.19-.49.55-.26.33-.06.41-.07.04-.05.24v.44s-.09.44-.09.44l.05.16v.32s.25.58.25.58l.07.34.46.68.09.3.25.46h.15s.34.28.34.28l.14.16.37.11.33.26.45.02h.41s.39.02.39.02l.25-.06.28-.12.67-.16.28-.12.53-.38.19-.22.13-.06.23-.22.33-.52.11-.32.23-.33v-.62s-.04-.25-.04-.25l-.2-.22-.25.06h-.12s-.3.13-.3.13l-.15.35-.07.06-.19.74-.38.3v.15s-.4.36-.4.36l-.38.17-1.12.22-.12-.05-.38-.07-.36-.32-.11.02-.24-.22-.13-.21-.1-.11Zm3.12-3.21l.15.14-.04.17-.7.07-.22.18-.35.2-.51.15-.49.16-.49.28-.37.19-.42.15-.27.27h-.17s-.06-.24-.06-.24l.05-.23v-.41s-.02-.19-.02-.19l.08-.27.05-.31.56-.66.28-.24.19-.03.24-.1.76-.19.62.15.4.23.41.33.31.2Z"/><rect class="cls-2" x="45.26" y="199.25" width="9.04" height="17.67" transform="translate(-78.57 36.9) rotate(-23.41)"/><rect class="cls-2" x="87.72" y="180.88" width="9" height="17.32" transform="translate(-67.71 52.23) rotate(-23.41)"/><rect class="cls-2" x="113.47" y="169.59" width="9.72" height="17.91" transform="translate(-61.19 61.7) rotate(-23.41)"/><rect class="cls-2" x="198.59" y="132.88" width="9.79" height="17.75" transform="translate(-39.57 92.5) rotate(-23.41)"/><rect class="cls-2" x="241.05" y="114.47" width="9.95" height="17.36" transform="translate(-28.68 107.87) rotate(-23.41)"/><rect class="cls-2" x="309.64" y="84.96" width="9.76" height="17.22" transform="translate(-11.29 132.65) rotate(-23.41)"/></svg>