<?xml version="1.0" encoding="UTF-8"?><svg id="Layer_1" xmlns="http://www.w3.org/2000/svg" viewBox="0 0 397.38 287.83"><defs><style>.cls-1{fill:#122b44;}.cls-1,.cls-2,.cls-3,.cls-4{stroke-width:0px;}.cls-2{fill:#8f3f2a;}.cls-3{fill:#92a1c9;}.cls-4{fill:#ffe9da;}</style></defs><path class="cls-3" d="m363.78,181.32c-.92-11.6.85-23.92,1.16-36.28.19-7.67.29-15.51-1.47-23.13-.47-2.05-.37-4.11-.42-6.17-.29-12.22-1.06-24.43-1.04-36.67.02-7.93-3.92-14.55-8.89-20.44-6.29-7.45-14.17-12.75-23.3-16.16-9.35-3.49-18.92-6.34-28.09-10.34-5.98-2.61-12.43-2.28-18.83-1.85-4.38.29-8.85.7-13.16.11-5.69-.78-8.74-5.14-10.68-10.18-1.05-2.72-1.56-5.63-2.53-8.39C253.9,4.29,248.1.16,240.09,0c-8.46-.16-16.76,1.73-25.21,1.81-3.69.04-7.38.6-11.08.68-8.87.18-17.68,1.04-26.49,2-8.29.91-16.6,1.56-24.92,2.15-7.14.5-14.23,1.13-21.06,3.48-9.9,3.41-15.6,10.27-17.14,20.63-.4,2.73-1.06,5.39-2.07,7.97-2.83,7.24-9.17,11.36-16.98,11.62-10.48.35-21.02-.05-31.4,1.91-11,2.08-21.45,5.85-31.11,11.44-7.24,4.18-10.17,11.8-13.62,18.99-5.67,11.81-6.94,24.39-7.2,37.18-.06,3.21-.67,6.12-2.37,8.83-6.72,10.69-8.2,22.31-5.69,34.48,2.26,10.97,3.29,22.08,4.36,33.19.71,7.36,1.13,14.76,2.18,22.07,1.09,7.56,5.06,13.81,10.17,19.38,7.41,8.1,15.61,15.31,24.3,21.99,2.25,1.73,4.39,3.62,6.51,5.51,6.38,5.72,14.15,7.79,22.37,9.03,12.41,1.87,24.7.76,37.02-.77,6.48-.8,13.01-1.21,19.46-2.3,9.32-1.58,18.49-3.85,27.71-5.87,13.76-3.02,27.21-7.41,41.16-9.5,13.58-2.04,27.17-4.13,40.86-5.44,11.63-1.11,23.23-2.62,34.84-3.94,7.35-.83,14.69-1.69,22.05-2.41,10.27-.99,19.99-4.19,29.77-7.16,4.85-1.47,9.71-2.91,14.44-4.8,10.08-4.01,15.75-11.77,18.33-21.88,1.53-5.98,3.26-11.94,4.11-18.09.46-3.35.3-6.71.38-10.87ZM200.92,39.33c5.2.12,9.45-.26,13.44,1.58,2.56,1.18,4.31,3.87,3.91,6.1-.38,2.11-2.4,3.46-5.55,3.74-1.11.1-2.22.3-3.32.45-12,1.63-24,3.25-36,4.92-2.62.36-4.78-.31-6.32-2.45-1.56-2.17-1.14-4.4.24-6.51,2.23-3.41,5.94-4.33,9.5-5.13,8.24-1.86,16.64-2.57,24.1-2.69Z"/><path class="cls-2" d="m256.63,44.52c-2.55.32-5.09.75-7.48-.78-.68-.43-1.23-.57-1.05-1.66,1.16-7.09.55-14.21.23-21.32-.09-1.97-.6-3.74-2.54-4.72-2.65.6-5.26,1.36-8.07,1.08-2.05-.2-4.17-.25-6.19.07-12.35,1.91-24.85,1.96-37.26,3.05-5.99.53-11.99,1.02-17.97,1.67-11.92,1.29-23.85,2.53-35.84,3.09-2.75.13-4.54-.63-6.02-2.71-4.59-.08-6.35,1.56-6.04,6.19.94,13.94.22,27.88.38,41.82.02,1.78-.23,2.49-2.37,2.88-4.04.74-7.25-.14-10.57-2.45-3.94-2.74-8.23-4.98-12.42-7.34-1.03-.58-2.23-1.05-3.39-1.14-5.26-.42-10.48-.13-15.6,1.26-.83.22-1.6.56-2.22,1.18,3.51-.63,6.84-.65,10.39.57,4.08,1.4,7.83,2.98,10.8,6.2.66.72,1.74,1.07,2.64,1.57,3.52,1.96,7.15,3.65,9.92,6.83,2.06,2.37,4.3,4.74,7.56,5.71,1.42.42,2.39,1.67,3.39,2.74,1.95,2.08,4.02,4.01,6.42,5.58,1.31.85,2.56,1.96,1.94,3.81-.59,1.75-2.13,1.77-3.64,1.76-4.31,0-8.62.12-12.87.8-11.39,1.82-22.63,4.36-33.73,7.55-1.9.55-3.86.86-6.04,1.33.89.72,1.55,1.14,2.07,1.69,1.53,1.62,1.52,4.07.04,5.91-1.55,1.92-4.14,2.57-5.95,1.49-1.88-1.12-2.43-3.32-1.36-5.62.36-.78.72-1.59,1.27-2.23.81-.97.47-1.27-.49-1.88-8.66-5.6-18-9.73-27.66-13.23-1.29-.47-3.02-.7-3.57-1.9-1.2-2.6-3.7-3.06-5.79-4.23-1.58-.88-3.22-1.65-4.78-2.57-1.41-.83-2.85-1.71-2.83-3.68-3.94,2.66-4.9,6.83-4.93,11.07-.04,6.37-.86,12.7-.75,19.07.09,5.07-.29,10.16.46,15.21.16,1.09-.23,2.06-.66,2.98-1.95,4.19-3.26,8.71-6.25,12.39-.79.97-1.14,2.23-1.09,3.39.17,4.32-.52,8.58-.7,12.87.26-.02.54.02.76-.08,3.99-1.81,6.47-1.17,8.82,2.36.78,1.17,1.76,2.13,2.88,2.94,9.18,6.66,19.17,11.95,29.43,16.62,6.87,3.12,14.08,5.77,21.85,5.5,4.46-.15,8.9-.88,13.37-1.16,4.81-.29,9.52-1.53,14.39-1.41,1.9.05,3.68.9,5.63.54,6-1.11,11.99-2.38,18.04-3.18,8.59-1.14,17.2-2.33,25.93-1.4,3.49.37,6.91,1.54,10.49.97,3.07-.49,6.21-.25,9.27-.62,4.93-.61,9.96-.61,14.76-2.22,5.16-1.73,7.59-.03,8.17,5.38.51,4.79.34,9.63,1.41,14.38.63,2.78,5.36,6.33,8.08,5.56,3.02-.85,5.89-1.12,8.71.65.69.44,1.64.64,2.47.66,6.64.21,13.28.37,19.91.01,1.79-.1,3.47-.62,4.11-2.55,1.41-4.22,4.43-5.83,8.71-5.82,2.14,0,3.72-.81,4.07-3.39.26-1.88,1.71-3.22,3.61-3.67,1.73-.41,2.11-1.43,2-3.02-.26-3.69-.15-7.39-.54-11.09-.61-5.79,1.38-8.03,7.22-8.1,8.84-.09,17.12-2.66,25.44-5.19,1.04-.32,1.87-.8,2.35-1.83,1.29-2.78,3.7-4.07,6.57-4.4,10.27-1.19,20.41-3.18,30.49-5.31,6.07-1.29,12.63-.09,18.27-3.52.2-.12.51-.06.76-.09,3.47-.4,4.46,2.22,5.61,4.63.59-5.24.1-10.49-.11-15.72-.13-3.16-1.42-6.13-5.11-6.94-1.4-.31-1.14-1.37-1.09-2.24.43-7.43-.53-14.8-.72-22.21-.24-9.59-2.27-18.97-3-28.49-.27-3.47-1.62-5.47-4.88-6.33-.98,1.22-2.28,1.78-3.82,1.85-4.03.19-8.07.35-12.1.59-7.28.44-14.62.4-21.76,2.18-2.01.5-3.7.03-5.24-1.32-3.24-2.83-6.62-5.48-10.19-7.9-1.14-.77-2.64-1.44-3.18-2.55-1.14-2.32-3.17-2.41-5.17-3.27-7.73-3.3-16.17-4.79-23.46-9.22-3.07-1.86-3.48-2.4-2.61-5.95Zm-25.98-4.79c.05,0,.11,0,.16,0,0,2.84.08,5.69-.02,8.53-.1,2.84-1.32,3.6-3.76,2.53-2.95-1.28-4.37-.63-5.51,2.45-.49,1.31-.74,2.65-.73,4.04,0,.85-.23,1.44-1.22,1.66-11.56,2.67-23.26,4.63-34.93,6.65-11.27,1.96-22.81,1.7-34.13,3.41-1.46.22-1.4-.48-1.33-1.39.59-8.7.3-17.41.38-26.11.02-1.8.75-2.36,2.33-2.65,10.15-1.86,20.29-3.78,30.43-5.69,9.09-1.71,18.31-1.98,27.5-2.52,6.28-.37,12.57-.44,18.85-.71,1.55-.07,2.13.39,2.03,2.03-.15,2.58-.04,5.17-.04,7.76Zm-65.32,73.62c-2.33,0-4.66-.02-6.99,0-2.48.03-4.75-.69-6.9-1.87-1.51-.83-2.73-1.82-2.51-3.81.21-1.9,1.63-2.44,3.14-2.99,7.21-2.62,14.75-3.2,22.3-3.76,5.4-.4,10.83-.49,16.21-1.34,9.43-1.49,18.88-2.85,28.3-4.38,7.74-1.26,15.56-1.73,23.31-2.73,9.72-1.26,19.19-3.94,28.92-5.28,4.6-.63,9.15-1.68,13.82-1.69,2.03,0,4,.39,5.23,2.26,1.97,2.99.63,6.12-3.13,7.41-8,2.75-16.38,3.84-24.6,5.66-11.93,2.64-23.98,4.47-36.11,5.83-7.52.84-15.03,1.72-22.51,2.85-12.77,1.94-25.51,3.99-38.48,3.84Zm-95.44,28.86c0-3.7-.06-7.41.02-11.11.06-2.78.56-5.5,2.06-7.9,1.26-2.02,3.12-3.37,5.59-2.96,2.63.44,3.78,2.39,4.18,4.93.67,4.29.16,8.57.12,12.86-.11,11.19-.78,22.36-1.33,33.52-.18,3.64.25,7.44-1.28,10.94-.98,2.23-2.69,3.62-5.2,3.5-2.19-.11-3.95-2.15-4.19-4.87-.25-2.91-.63-5.88-.34-8.76,1.02-10.06.38-20.11.39-30.17Zm31.45,30.36c0-.07-.02-.15-.02-.22-1.38,0-2.76-.03-4.14.01-1.18.04-2.05-.4-2.41-1.52-.39-1.21.07-2.22,1.1-2.93,1.37-.94,2.94-1.47,4.56-1.74,6.53-1.08,13.08-2.03,19.61-3.12,7.49-1.25,15.08-1.32,22.61-2.04,3.6-.34,7.22-.4,10.83-.55,1.42-.06,2.62.37,2.79,2.02.18,1.67-1.01,2.23-2.34,2.57-.83.21-1.68.37-2.53.52-9.48,1.67-18.95,3.43-28.53,4.52-7.18.82-14.35,1.65-21.52,2.48Zm202.53-34.9c-1.29,0-2.59-.02-3.88,0-1.3.03-2.49-.15-2.84-1.63-.38-1.58.41-2.68,1.79-3.34.69-.33,1.46-.51,2.21-.7,7.36-1.8,14.96-2.2,22.39-3.6,4.55-.86,9.12-1.81,13.8-1.7,1.23.03,2.25.38,2.6,1.66.38,1.37-.29,2.31-1.45,2.99-1.29.76-2.72,1.02-4.15,1.36-10.04,2.39-20.09,4.75-30.48,4.94Zm-248.55,36.72c-.09-.03-.76-.19-1.39-.44-5.53-2.18-10.88-4.72-15.96-7.82-3.23-1.97-6.44-3.99-9.4-6.36-1.03-.82-1.57-1.88-1.06-3.18.48-1.24,1.6-1.39,2.78-1.41,1.98-.03,3.67.86,5.34,1.74,4.57,2.4,9.12,4.83,13.65,7.29,2.87,1.56,5.76,3.08,8.32,5.15.99.8,1.42,1.69.82,2.92-.53,1.09-.94,2.3-3.1,2.11Zm255.05-24.84c-2.29-.18-4.36.14-6.4-.38-1-.26-1.72-.7-1.84-1.84-.13-1.23.45-1.99,1.54-2.36.81-.27,1.64-.49,2.49-.6,4.08-.54,8.17-.98,12.24-1.57,2.47-.36,4.94-.72,7.43-.47,1.3.13,2.58.63,2.77,2.22.18,1.49-.85,1.99-2.04,2.54-5.25,2.44-10.9,1.96-16.19,2.46Zm-108.36-16.52c-1.83-.14-3.1.02-4.38-.33-1.5-.41-3.16-.5-3.16-2.65,0-2.07,1.57-2.54,3.08-2.84,3.69-.73,7.4-1.29,11.1-1.95,1.94-.35,3.88-.7,5.87-.54,1.45.11,2.44.83,2.77,2.26.29,1.29-.46,1.98-1.51,2.65-4.39,2.79-9.44,2.65-13.76,3.41Zm-86.62-26c1.48.16,3.14-.36,3.55,1.55.41,1.89-1.02,2.54-2.41,3.12-.55.23-1.13.41-1.71.57-4.32,1.22-8.74,1.76-13.2,2.11-1.79.14-3.6.38-5.39.31-1.32-.05-2.18-.9-2.2-2.39-.02-1.22.45-1.92,1.72-2.12,6.6-1.04,13.2-2.12,19.63-3.15Zm140.48-40.23s.38,0,.81,0c1.7-.02,2.91.7,3.03,2.47.11,1.66-1.13,2.11-2.54,2.3-1.27.17-2.53.44-3.81.64-4.41.68-8.83,1.36-13.24,1.99-1.23.18-2.52.09-3.03-1.29-.37-.99-.32-2.12.68-2.81.7-.48,1.51-.93,2.33-1.06,5.09-.8,10.15-1.82,15.77-2.23Zm71.21,11.38s0,.05,0,.07c2.15,0,4.31-.08,6.46.03,1.01.05,2.09.38,2.28,1.7.16,1.17-.64,1.63-1.52,2.11-4.41,2.41-9.19,1.82-13.87,1.57-1.26-.07-2.99-.94-2.7-2.87.25-1.67,1.68-2.41,3.15-2.55,2.05-.2,4.13-.05,6.2-.05Zm-140.18,91.54c-3.74-.18-7.91-1.52-12.1-2.74-1.11-.32-2.06-1.13-1.77-2.48.28-1.29,1.39-1.72,2.57-1.74.85-.02,1.71.17,2.54.36,4.01.88,8.22.88,12,2.75.85.42,1.75,1,1.54,2.13-.22,1.18-1.2,1.61-2.3,1.71-.6.05-1.2,0-2.48,0Zm-95.97,13.09s-.01-.09-.02-.13c-1.12,0-2.24.02-3.35,0-1.05-.02-1.87-.49-2.08-1.56-.2-1,.61-1.53,1.28-2.06.74-.59,1.63-.49,2.48-.46,4.04.1,8.06-.35,12.07-.75,1.39-.14,2.57.24,2.83,1.57.29,1.48-.9,2.1-2.22,2.25-3.66.41-7.32.78-10.99,1.16Zm143.22-2.84c-.77-.09-1.75-.26-2.17-1.26-.44-1.06.15-1.86.99-2.4,3.51-2.27,7.61-2.54,11.56-3.24,1.12-.2,1.79.92,1.75,2.11-.05,1.53-1.16,2.27-2.41,2.72-3.08,1.11-6.35,1.42-9.72,2.08Zm38.51-17.38c-1.27-.06-1.87-.06-2.47-.11-1.1-.09-2.07-.39-2.15-1.73-.1-1.62,1.09-2.09,2.31-2.23,3.06-.36,6.13-.69,9.06-1.68,1.21-.41,2.27-.55,2.89.67.7,1.39-.15,2.39-1.37,2.85-2.88,1.08-5.84,1.93-8.27,2.23Zm-89.37,13.86s0,.03,0,.04c-.69,0-1.38-.01-2.07,0-1.33.03-2.59-.29-2.58-1.84.01-1.37,1.23-1.73,2.44-1.77,1.81-.05,3.62-.08,5.43-.08,1.08,0,1.87.45,1.84,1.66-.02,1.09-.65,1.83-1.7,1.95-1.1.13-2.24.03-3.36.03Zm87.06-22.74c-1.3.04-2.09-.23-2.32-1.26-.23-1.02.01-1.92,1.07-2.34,1.35-.54,2.71-1.07,4.11-1.48.85-.25,1.71-.16,2.22.79.57,1.06.12,1.91-.68,2.48-1.41.99-3.04,1.54-4.39,1.81Zm-40.3-79.19c-1.16.02-2.12-.45-2.18-1.66-.07-1.46,1.18-1.77,2.3-1.83,1.09-.06,2.1.35,2.12,1.68.02,1.46-.97,1.84-2.24,1.81Zm-9.11-1.04c.07-1.25.83-1.63,1.89-1.61.96.02,1.66.43,1.71,1.48.05,1.16-.59,1.7-1.72,1.71-1.09,0-1.77-.47-1.87-1.57Z"/><path class="cls-4" d="m359.39,151.97c-1.15-2.42-2.14-5.03-5.61-4.63-.26.03-.56-.03-.76.09-5.64,3.44-12.2,2.24-18.27,3.52-10.09,2.14-20.23,4.13-30.49,5.31-2.87.33-5.27,1.62-6.57,4.4-.48,1.04-1.31,1.52-2.35,1.83-8.32,2.53-16.6,5.1-25.44,5.19-5.84.06-7.83,2.31-7.22,8.1.39,3.7.28,7.4.54,11.09.11,1.59-.27,2.61-2,3.02-1.9.45-3.35,1.79-3.61,3.67-.35,2.58-1.93,3.4-4.07,3.39-4.28-.02-7.3,1.6-8.71,5.82-.64,1.93-2.32,2.45-4.11,2.55-6.64.36-13.28.2-19.91-.01-.84-.03-1.78-.23-2.47-.66-2.82-1.77-5.69-1.51-8.71-.65-2.71.76-7.45-2.78-8.08-5.56-1.08-4.75-.9-9.59-1.41-14.38-.58-5.41-3.01-7.11-8.17-5.38-4.8,1.61-9.83,1.61-14.76,2.22-3.06.38-6.2.13-9.27.62-3.58.57-7-.6-10.49-.97-8.74-.93-17.34.26-25.93,1.4-6.05.8-12.03,2.07-18.04,3.18-1.95.36-3.73-.49-5.63-.54-4.86-.12-9.57,1.12-14.39,1.41-4.46.27-8.9,1-13.37,1.16-7.77.27-14.98-2.38-21.85-5.5-10.27-4.66-20.26-9.96-29.43-16.62-1.12-.81-2.1-1.76-2.88-2.94-2.35-3.53-4.83-4.17-8.82-2.36-.22.1-.51.05-.76.08-1.19,4.26.85,7.04,4.19,9.27.78.52,1.33,1.35,2.06,1.96,1.68,1.41,2.7,2.39.68,4.81-2.05,2.45-.51,5.83.04,8.72,1.27,6.66,2.14,13.37,2.27,20.14.15,7.56.63,15.07,2.07,22.51.55,2.86,2,5.2,4.03,7.32,7.11,7.44,15.07,13.79,23.68,19.41,6.9,4.5,13.32,9.73,20.97,13.07,3.4,1.48,6.67,2.58,10.43,1.53,5.17-1.45,10.56-.97,15.84-1.53,7.32-.78,14.66-1.45,22-1.98,3.26-.23,6.46-.8,9.69-1.18,2.65-.3,5.31-.66,7.29-2.79,3.18-3.42,7.62-4.22,11.78-5.29,13.7-3.53,27.45-6.88,41.22-10.12,7.5-1.77,15.21-2.39,22.83-3.48,10.95-1.57,21.81-3.55,32.46-6.58,3.91-1.11,7.94-1.25,11.93-1.69,7.06-.78,14.14-1.64,21.23-1.96,7.74-.34,15.61-.81,23.24.17,4.09.52,7.23-.02,10.78-1.51,3.79-1.59,7.78-2.75,11.76-3.83,5.08-1.38,9.71-3.88,14.7-5.48,4.31-1.38,5.9-4.85,4.97-9.51-1.08-5.36.05-10.63.35-15.91.42-7.43,2.47-14.68,2.9-22.13.26-4.62.72-9.23.98-13.85.07-1.32.78-1.75,1.83-2.11,2.78-.95,4.22-3.06,4.86-5.81Z"/><path class="cls-4" d="m30.26,82.83c-.02,1.96,1.42,2.84,2.83,3.68,1.56.92,3.2,1.69,4.78,2.57,2.09,1.17,4.6,1.63,5.79,4.23.55,1.2,2.28,1.43,3.57,1.9,9.66,3.5,19,7.63,27.66,13.23.95.62,1.3.92.49,1.88-.54.65-.91,1.46-1.27,2.23-1.07,2.31-.52,4.5,1.36,5.62,1.81,1.08,4.41.43,5.95-1.49,1.48-1.84,1.49-4.28-.04-5.91-.52-.55-1.18-.98-2.07-1.69,2.18-.47,4.15-.78,6.04-1.33,11.09-3.19,22.33-5.73,33.73-7.55,4.25-.68,8.57-.81,12.87-.8,1.51,0,3.05-.01,3.64-1.76.62-1.85-.63-2.95-1.94-3.81-2.41-1.57-4.47-3.5-6.42-5.58-1-1.07-1.97-2.32-3.39-2.74-3.27-.96-5.5-3.34-7.56-5.71-2.77-3.18-6.41-4.86-9.92-6.83-.9-.5-1.97-.85-2.64-1.57-2.97-3.23-6.72-4.8-10.8-6.2-3.55-1.22-6.88-1.19-10.39-.57-4.47,1.18-8.94,3.24-13.43,3.31-5.9.09-11.1,2.06-16.29,4.05-6.01,2.3-12.54,2.98-18.24,6.12-1.96,1.08-4.56,1.59-4.31,4.71Z"/><path class="cls-4" d="m256.95,44.46c-.88,3.55-.46,4.09,2.61,5.95,7.3,4.42,15.73,5.91,23.46,9.22,2,.86,4.03.95,5.17,3.27.55,1.11,2.05,1.78,3.18,2.55,3.56,2.42,6.95,5.07,10.19,7.9,1.54,1.35,3.23,1.82,5.24,1.32,7.14-1.78,14.48-1.74,21.76-2.18,4.03-.25,8.07-.4,12.1-.59,1.54-.07,2.84-.63,3.82-1.85.34-2.72-1.02-4.18-3.55-4.8-1.08-.27-2.23-.39-3.25-.71-1.75-.55-4.85.66-4.55-3.15.08-1.07-1.23-1.57-2.24-1.87-1.81-.53-3.62-1.06-5.46-1.48-1.58-.36-3.2-.41-3.61-2.58-.14-.77-1.32-1.01-2.16-1.22-2.66-.68-5.3-1.39-7.97-2.03-1.23-.29-2.06-.76-1.96-2.21.11-1.53-.93-2.42-2.12-2.95-3.85-1.7-7.77-3.2-12.11-3.14-5.34.07-10.7-.26-16.02.12-4.55.32-9.1.54-13.64.36-2.99-.12-5.95-.83-8.92.08Z"/><path class="cls-4" d="m134.75,22.24c1.48,2.08,3.26,2.84,6.02,2.71,11.99-.57,23.91-1.8,35.84-3.09,5.98-.65,11.98-1.14,17.97-1.67,12.41-1.1,24.91-1.14,37.26-3.05,2.02-.31,4.15-.27,6.19-.07,2.81.28,5.41-.49,8.07-1.08,1.37-4.15-.17-6.22-4.68-6.22-9.95.01-19.8,1.13-29.65,2.48-6.77.93-13.61,1.33-20.39,2.22-8.3,1.09-16.66,1.64-24.95,2.87-4.54.67-9.21.62-13.8,1.25-4.5.62-8.99,1.33-13.56,1.03-2.07-.14-2.92,1.68-4.31,2.63Z"/><path class="cls-4" d="m165.65,113.29c12.97.14,25.72-1.9,38.48-3.84,7.47-1.14,14.99-2.01,22.51-2.85,12.14-1.35,24.19-3.19,36.11-5.83,8.21-1.82,16.59-2.91,24.6-5.66,3.75-1.29,5.1-4.42,3.13-7.41-1.23-1.86-3.2-2.26-5.23-2.26-4.67,0-9.22,1.06-13.82,1.69-9.72,1.34-19.2,4.02-28.92,5.28-7.76,1-15.58,1.47-23.31,2.73-9.42,1.54-18.87,2.9-28.3,4.38-5.37.85-10.8.94-16.21,1.34-7.56.56-15.09,1.13-22.3,3.76-1.51.55-2.93,1.08-3.14,2.99-.22,1.99,1,2.98,2.51,3.81,2.15,1.18,4.41,1.9,6.9,1.87,2.33-.03,4.66,0,6.99,0Z"/><path class="cls-4" d="m70.21,142.14c-.01,10.06.63,20.11-.39,30.17-.29,2.88.08,5.85.34,8.76.24,2.72,2,4.76,4.19,4.87,2.52.13,4.22-1.27,5.2-3.5,1.54-3.5,1.11-7.3,1.28-10.94.55-11.17,1.22-22.33,1.33-33.52.04-4.29.55-8.57-.12-12.86-.4-2.54-1.55-4.49-4.18-4.93-2.47-.42-4.33.94-5.59,2.96-1.5,2.39-2,5.12-2.06,7.9-.07,3.7-.02,7.41-.02,11.11Z"/><path class="cls-4" d="m101.66,172.5c7.17-.83,14.35-1.66,21.52-2.48,9.58-1.09,19.04-2.85,28.53-4.52.85-.15,1.7-.3,2.53-.52,1.33-.34,2.52-.9,2.34-2.57-.17-1.65-1.37-2.08-2.79-2.02-3.61.15-7.24.21-10.83.55-7.53.72-15.12.79-22.61,2.04-6.53,1.09-13.08,2.04-19.61,3.12-1.61.27-3.18.8-4.56,1.74-1.02.7-1.48,1.71-1.1,2.93.36,1.12,1.23,1.56,2.41,1.52,1.38-.05,2.76-.01,4.14-.01,0,.07.02.15.02.22Z"/><path class="cls-4" d="m304.19,137.6c10.4-.2,20.44-2.55,30.48-4.94,1.42-.34,2.86-.6,4.15-1.36,1.16-.69,1.82-1.62,1.45-2.99-.35-1.28-1.37-1.63-2.6-1.66-4.69-.11-9.25.84-13.8,1.7-7.43,1.4-15.02,1.8-22.39,3.6-.75.18-1.52.37-2.21.7-1.38.66-2.16,1.75-1.79,3.34.35,1.48,1.54,1.67,2.84,1.63,1.29-.03,2.59,0,3.88,0Z"/><path class="cls-4" d="m55.64,174.32c2.16.19,2.58-1.02,3.1-2.11.59-1.23.16-2.12-.82-2.92-2.56-2.07-5.46-3.59-8.32-5.15-4.53-2.47-9.09-4.89-13.65-7.29-1.67-.88-3.35-1.76-5.34-1.74-1.18.01-2.3.16-2.78,1.41-.51,1.3.03,2.36,1.06,3.18,2.96,2.37,6.17,4.38,9.4,6.36,5.08,3.1,10.43,5.64,15.96,7.82.63.25,1.3.41,1.39.44Z"/><path class="cls-4" d="m310.69,149.48c5.29-.5,10.94-.02,16.19-2.46,1.19-.55,2.22-1.04,2.04-2.54-.19-1.59-1.47-2.09-2.77-2.22-2.49-.25-4.96.11-7.43.47-4.07.59-8.16,1.03-12.24,1.57-.84.11-1.68.33-2.49.6-1.1.37-1.67,1.13-1.54,2.36.12,1.14.84,1.58,1.84,1.84,2.04.52,4.11.2,6.4.38Z"/><path class="cls-4" d="m202.33,132.96c4.32-.75,9.36-.62,13.76-3.41,1.05-.67,1.81-1.36,1.51-2.65-.32-1.42-1.32-2.14-2.77-2.26-1.99-.16-3.92.19-5.87.54-3.7.66-7.42,1.23-11.1,1.95-1.51.3-3.09.77-3.08,2.84,0,2.15,1.66,2.25,3.16,2.65,1.28.35,2.56.19,4.38.33Z"/><path class="cls-4" d="m115.71,106.95c-6.43,1.04-13.03,2.11-19.63,3.15-1.27.2-1.74.9-1.72,2.12.02,1.48.88,2.33,2.2,2.39,1.79.07,3.59-.17,5.39-.31,4.45-.35,8.88-.89,13.2-2.11.58-.16,1.16-.34,1.71-.57,1.39-.58,2.82-1.23,2.41-3.12-.41-1.92-2.07-1.4-3.55-1.55Z"/><path class="cls-4" d="m256.2,66.72c-5.63.41-10.68,1.43-15.77,2.23-.81.13-1.63.58-2.33,1.06-1,.68-1.05,1.82-.68,2.81.51,1.38,1.8,1.47,3.03,1.29,4.42-.63,8.83-1.32,13.24-1.99,1.27-.19,2.53-.47,3.81-.64,1.4-.19,2.65-.63,2.54-2.3-.12-1.77-1.34-2.48-3.03-2.47-.43,0-.86,0-.81,0Z"/><path class="cls-4" d="m327.41,78.11c-2.07,0-4.15-.15-6.2.05-1.47.14-2.89.88-3.15,2.55-.3,1.94,1.44,2.81,2.7,2.87,4.68.25,9.46.84,13.87-1.57.88-.48,1.69-.93,1.52-2.11-.18-1.31-1.26-1.64-2.28-1.7-2.15-.11-4.31-.03-6.46-.03,0-.02,0-.05,0-.07Z"/><path class="cls-4" d="m187.23,169.65c1.28,0,1.88.04,2.48,0,1.1-.1,2.08-.53,2.3-1.71.21-1.13-.69-1.71-1.54-2.13-3.77-1.88-7.99-1.88-12-2.75-.84-.18-1.7-.37-2.54-.36-1.18.02-2.29.45-2.57,1.74-.29,1.35.66,2.16,1.77,2.48,4.19,1.22,8.36,2.56,12.1,2.74Z"/><path class="cls-4" d="m91.26,182.74c3.66-.38,7.33-.75,10.99-1.16,1.31-.15,2.51-.77,2.22-2.25-.26-1.33-1.44-1.7-2.83-1.57-4.01.4-8.02.85-12.07.75-.85-.02-1.74-.12-2.48.46-.67.54-1.48,1.06-1.28,2.06.21,1.07,1.03,1.54,2.08,1.56,1.12.02,2.24,0,3.35,0,0,.04.01.09.02.13Z"/><path class="cls-4" d="m234.47,179.9c3.38-.66,6.64-.97,9.72-2.08,1.25-.45,2.35-1.18,2.41-2.72.04-1.19-.64-2.3-1.75-2.11-3.95.69-8.05.97-11.56,3.24-.84.55-1.43,1.34-.99,2.4.42,1,1.39,1.17,2.17,1.26Z"/><path class="cls-4" d="m272.98,162.52c2.42-.3,5.38-1.15,8.27-2.23,1.22-.46,2.07-1.46,1.37-2.85-.62-1.23-1.68-1.08-2.89-.67-2.93.98-6,1.32-9.06,1.68-1.22.14-2.41.61-2.31,2.23.08,1.34,1.06,1.64,2.15,1.73.6.05,1.2.06,2.47.11Z"/><path class="cls-4" d="m183.62,176.38c1.12,0,2.25.1,3.36-.03,1.05-.12,1.68-.86,1.7-1.95.03-1.21-.76-1.66-1.84-1.66-1.81,0-3.62.03-5.43.08-1.21.03-2.42.4-2.44,1.77-.02,1.55,1.25,1.86,2.58,1.84.69-.01,1.38,0,2.07,0,0-.01,0-.03,0-.04Z"/><path class="cls-4" d="m270.68,153.65c1.35-.27,2.98-.82,4.39-1.81.8-.57,1.25-1.41.68-2.48-.51-.96-1.36-1.05-2.22-.79-1.39.41-2.76.94-4.11,1.48-1.06.42-1.3,1.32-1.07,2.34.23,1.02,1.02,1.3,2.32,1.26Z"/><path class="cls-4" d="m230.38,74.46c1.26.03,2.26-.35,2.24-1.81-.02-1.33-1.03-1.74-2.12-1.68-1.12.06-2.37.37-2.3,1.83.06,1.21,1.02,1.68,2.18,1.66Z"/><path class="cls-4" d="m221.27,73.42c.1,1.1.78,1.58,1.87,1.57,1.13,0,1.77-.55,1.72-1.71-.04-1.05-.74-1.46-1.71-1.48-1.06-.02-1.82.37-1.89,1.61Z"/><path class="cls-1" d="m127.51,46.12c0,9.03-.03,15.41.02,21.8.01,1.42-.39,1.91-1.88,2.38-4.06,1.3-7.28.5-10.62-2.17-8.11-6.47-17.37-7.67-27.56-6.25-16.04,2.23-31.64,5.93-46.84,11.42-3.25,1.17-6.34,2.68-9.48,4.07-6.34,2.81-8.43,8.25-8.65,14.4-.28,7.92.1,15.86.3,23.79.14,5.7-.43,11.37-.55,17.06-.03,1.51-.56,2.75-1.69,3.61-4.01,3.05-5.53,7.06-5.38,12.03.15,4.99-.68,9.97-.61,14.98.04,2.53.7,4.64,2.7,6.11,3.89,2.86,5,6.47,4.79,11.33-.44,10.34,1.01,20.64,1.63,30.96.23,3.87.1,7.74.56,11.62.34,2.94,1.31,5.7,1.85,8.57.1.55.47,1.34.89,1.49,3.99,1.38,6.22,4.83,8.99,7.58,8.39,8.36,17,16.39,27.66,21.91,2.88,1.5,5.46,3.61,8.11,5.54,2.73,1.98,5.53,2.96,9.1,2.68,6.7-.53,13.46-.14,20.16-.67,11.07-.87,22.2-1.36,33.06-4.01.42-.1.86-.18,1.28-.16,3.51.14,6.31-.96,8-4.27.6-1.17,1.75-1.62,3-1.77,12.42-1.53,24.56-4.45,36.68-7.4,14.91-3.63,30.2-5.29,45.12-8.77,12.42-2.9,24.9-5.43,37.49-7.4,6.47-1.01,13.03-1.21,19.59-1.4,3.87-.11,7.73-.71,11.6-.76,3.2-.05,6.5-.08,9.38,1.8.95.62,1.94.52,2.99.33,5.29-.95,10.27-2.91,15.22-4.88,7.9-3.15,16.13-5.45,23.74-9.35,1.58-.81,2.39-1.79,2.56-3.49.81-7.97,1.77-15.93,2.46-23.91.98-11.33,1.79-22.67,2.65-34.01.08-1,.42-1.78,1.06-2.55,2.57-3.07,3.98-6.6,3.94-10.65-.05-5.34.02-10.69-.87-15.98-.2-1.19-.58-2.11-1.85-2.53-1.74-.57-2.5-1.73-2.58-3.66-.4-9.38-.95-18.76-1.43-28.14-.32-6.28-.66-12.56-.89-18.85-.13-3.6-1.25-6.51-4.01-9.1-7.05-6.62-14.87-11.69-24.37-13.96-3.27-.78-6.16-2.06-8.71-4.58-6.12-6.04-14.1-7.85-22.32-8.06-12.5-.31-25.01-.06-37.52-.1-5-.01-5-.07-5.05-5.19-.07-6.73-.14-13.46-.16-20.18,0-2.01-.91-3.33-2.18-4.92-4.6-5.75-10.47-5.05-16.72-4.39-22.45,2.34-44.98,3.92-67.32,7.2-11.17,1.64-22.37,2.96-33.6,4.06-2.08.2-3.07,1.41-3.27,3.59-.76,8.61-.49,17.23-.46,23.2ZM33.21,183.11c3.4,2.6,6.34,5.12,9.56,7.2,1.89,1.22,2.51,2.75,2.9,4.76,1.59,8.08,1.26,16.3,1.9,24.45.38,4.9,1.27,9.73,1.82,14.6.12,1.03.56,2.05,1.86,2.16,1.26.1,1.45-.83,1.82-1.76.54-1.37,1.03-2.7.91-4.22-.34-4.47-.64-8.94-.91-13.41-.38-6.28-1.32-12.52-1.2-18.83.03-1.71.38-2.14,2.06-1.37,2.57,1.18,5.21,2.24,8.01,2.85,11.26,2.45,22.66,3.36,34.16,3.19,1.36-.02,3.05.22,3.27-1.67.25-2.12-1.78-1.93-3.02-2.48-.37-.16-.86-.13-1.28-.09-4.23.42-8.43-.07-12.64-.42-14.92-1.25-28.3-6.26-39.91-15.88-6.17-5.11-12.51-10.02-19.22-14.44-3.02-1.99-3.57-3.85-2.54-7.71.38.24.76.42,1.08.67,7.81,6.26,16.24,11.68,24.53,17.24,10.5,7.05,22.05,11.36,34.98,10.64,6.79-.38,13.64-.61,20.34-1.7,13.36-2.17,26.76-3.96,40.22-5.21,6.38-.59,12.79-1.66,19.28.07,3.02.8,6.28.74,9.51.46,8.33-.73,16.56-2.27,24.92-2.74,2.22-.13,3.64.05,3.42,2.84-.15,1.87.1,3.79.26,5.68.14,1.69-.54,2.32-2.23,2.24-1.21-.06-2.96-.39-2.84,1.61.12,1.89,1.84,1.37,3.05,1.46.43.03.86.03,1.29,0,1.19-.07,1.84.55,1.82,1.67-.06,4.42,1.73,7.43,6.22,8.53.4.1.77.39,1.11.64,1.32.97,2.7,1.15,4.07.2,1.01-.69,1.94-.79,2.75.16,1.13,1.32,2.74,1.56,4.23,1.63,6.2.29,12.42.64,18.61.48,3.78-.1,7.87-.81,9.66-4.8.89-1.97,2.07-2.46,3.84-2.6.77-.06,1.55-.12,2.32-.23,4.26-.6,4.66-.9,5.37-5.18.23-1.39.77-1.85,2.12-1.86,2.28-.03,3.42-1.24,3.45-3.58.07-4.74.28-9.48.34-14.22.06-4.21,0-4.21,4.02-4.62.6-.06,1.2-.16,1.79-.27,6.85-1.29,13.59-3.11,20.53-4.02,3.3-.43,6.24-2.11,8.43-4.68,1.21-1.42,2.62-2.1,4.35-2.49,8.67-1.95,17.42-3.28,26.27-4.15,8.66-.85,17.14-2.91,25.64-4.73.71-.15,1.77-1.01,1.75.7-.03,3.27-2.52,6.35-5.68,7.36-15.13,4.85-30.6,8.15-46.32,10.38-.92.13-1.84.44-2.71.81-.77.32-1.26.99-1.03,1.87.25.97.98,1.41,1.97,1.27,1.02-.14,2.03-.38,3.05-.54,9.95-1.57,19.91-3.22,29.64-5.81,7.04-1.87,7.03-2.14,7.1,5.25.08,8.02.07,16.05-.02,24.07-.03,2.48,1.71,3.12,3.43,3.38,1.84.28,1.72-1.52,1.95-2.73.13-.67.18-1.37.22-2.05.6-9.39.52-18.79.5-28.19,0-.95-.03-1.9.07-2.84.16-1.42,1.4-1.41,2.36-1.46,1.34-.07.78,1.1.76,1.7-.04,1.37-.33,2.73-.45,4.1-1.43,16.56-2.82,33.12-4.61,49.65-.25,2.29-1.2,3.57-3.19,4.5-6.03,2.78-12.44,4.53-18.59,6.97-5.03,2-10.14,3.86-15.42,5.13-.94.23-1.98.77-2.76-.48-1.84-2.94-4.8-3.96-8-4.67-8.89-1.95-17.93-2.51-26.97-2.63-14.34-.18-28.53,1.81-42.73,3.57-23.25,2.88-46,7.69-67.8,16.59-8.51,3.47-16.53,7.37-21.73,15.37-1.06,1.63-2.16,2.69-4.35,2.15-.92-.23-2.03.24-3.05.43-6.52,1.22-13.05,2.25-19.67,2.92-11.08,1.12-22.17,1.58-33.29,1.91-1.63.05-3.03-.33-4.37-1.25-3.55-2.44-6.98-5.12-10.74-7.18-7.7-4.21-14.59-9.43-20.96-15.44-3.03-2.85-5.17-6.14-6.72-9.95-1.55-3.82-1.7-7.88-2.39-11.86-.18-1.03-.42-1.93-1.64-1.91-1.42.02-1.58,1.09-1.58,2.19-.01,2.5.01,5-.03,7.51,0,.52.32,1.25-.63,1.53-2.36-1.79-2.71-4.58-2.9-7.14-1.01-13.66-2.27-27.31-2.71-41-.07-2.2,0-4.41,0-6.62.95,2.18,1.42,4.34,1.69,6.54,1.05,8.46,2.04,16.93,3.02,25.39.21,1.77.8,2.97,2.9,2.76,1.95-.2,2.31-1.42,2.29-3.08-.06-3.81-.97-7.52-1.29-11.29-.38-4.5-.9-9-.71-13.92Zm57.24-9.06c-4.48.31-9.2-.12-13.93-.47-6.56-.48-12.89-2.17-18.26-5.86-10.95-7.5-23.08-13.11-33.49-21.46-4.45-3.56-4.61-3.27-.74-7.44.84-.91,1.31-.99,2.32-.3,1.7,1.16,3.52,2.16,5.33,3.15.93.51,2.1.88,2.77-.23.8-1.32-.33-2.03-1.3-2.63-1.83-1.13-3.66-2.27-5.54-3.29-1.63-.88-2-2.27-1.87-3.91.85-10.51.26-21.02.15-31.53-.01-1.32-1.05-3.14.13-3.83,1.07-.63,2.42.89,3.6,1.54,15.47,8.48,30.04,18.57,46.35,25.54,3.11,1.33,4.59,3.84,4.54,7.41-.07,5.17.06,10.35.91,15.47.2,1.2.65,2.7,2.37,2.59,1.9-.13,1.63-1.67,1.64-2.94.05-5-.23-10,.58-14.97.58-3.53,2.58-5.8,6.06-6.52,15.58-3.21,30.93-7.6,46.89-8.94,3.19-.27,5.35.18,7.28,2.81,2.19,2.98,4.73,5.72,8.27,7.25,8.7,3.75,17.76,4.65,27.05,3.31,12.78-1.84,25.56-3.65,38.29-5.86,18.83-3.27,37.69-6.32,56.56-9.38,12.63-2.05,21.8-8.89,27.86-19.98,1.49-2.73,3.66-3.67,6.53-3.68,4.66-.02,9.28-.56,13.91-.96,4.62-.39,9.28-1.23,13.91-.24,3.72.8,5.46,2.1,5.33,6.25-.14,4.29.27,8.6.44,12.91.05,1.3.61,2.12,2.03,2.14,1.46.02,1.64-1.09,1.76-2.1.1-.84-.04-1.71-.1-2.57-.32-4.65-.65-9.3.46-13.89.17-.7.22-1.76,1.27-1.65.98.1.64,1.07.67,1.69.55,11.7,1.05,23.41,1.66,35.11.1,1.85-.43,2.72-2.19,3.41-7.17,2.83-14.71,4.26-22.17,5.95-8.4,1.91-17.03,2.55-25.53,3.91-7.7,1.23-15.48,1.8-23.35-.07-5.51-1.31-11.44-1.72-16.92-.06-6.3,1.91-12.79,2.58-19.16,3.98-13.05,2.88-26.34,4.33-39.5,6.58-1.86.32-3.33,1.8-5.38,1.44-7.43-1.29-14.57.28-21.63,2.39-2.8.84-5.97,1.58-7.74,3.86-1.66,2.14-1.97,5.1-5.38,6.02-.93.25-2.18,1.61-3.56,1.95-10.13,2.49-20.38,4.24-30.75,5.45-12.67,1.48-25.33,3.02-38.39,2.67Zm78.04-50.55c-1.91,0-3.12.08-4.32-.01-5-.37-9.98-.71-13.53-5.11-3.13-3.88-6.43-7.63-9.71-11.38-.59-.68-.65-1.33-.59-2.12.2-2.55,2.32-1.95,3.73-2.12,7.35-.88,14.73-1.52,22.08-2.42,12.74-1.57,25.46-3.26,38.19-4.91,10.25-1.33,20.57-1.96,30.8-3.51,7.92-1.2,15.74-2.96,23.72-3.77,9.08-.91,18.16-1.93,27.22-3.02,4.27-.51,8.51-1.33,12.77-1.95.93-.14,2.65-.53,2.33.95-.64,2.94.1,6.15-1.43,8.84-3.88,6.79-9.11,12.13-16.88,14.33-2.72.77-5.54,1.24-8.34,1.71-12.74,2.15-25.66,2.94-38.41,5.09-13.33,2.25-26.78,3.8-40.15,5.82-9.37,1.41-18.67,3.25-27.48,3.59Zm60.84-84.88s.07,0,.1,0c0,1.12,0,2.24,0,3.36.04,4.02.02,4.13-3.94,3.63-2.59-.33-4.2.4-5.32,2.87-.97,2.15-1.85,4.28-2.05,6.61-.15,1.75-.88,2.59-2.67,2.81-6.66.83-13.31,1.76-19.97,2.67-14.07,1.93-28.14,3.86-42.21,5.83-1.74.24-2.25-.34-2.17-2.04.28-6.02.42-12.06.7-18.08.2-4.25.95-5.03,5.06-5.71,10.11-1.66,20.22-3.32,30.33-4.95,13.01-2.09,26.09-3.6,39.24-4.43,2.18-.14,3.23.35,2.93,2.76-.19,1.53-.04,3.1-.04,4.65Zm-89.95,13.71c0-7.59.04-15.17-.03-22.76-.02-1.79.56-2.35,2.37-2.38,12.85-.2,25.6-1.91,38.38-2.92,14.86-1.17,29.73-2.14,44.58-3.31,6.44-.51,12.87-1.14,19.28-1.91,3.55-.42,3.62-.34,3.67,3.18.17,12.97.2,25.94.8,38.9.03.67-.07,1.33-.89,1.24-1.91-.2-3.47.91-5.22,1.31-1.9.43-2.7.27-2.82-2.03-.39-7.66-.84-15.32-.68-22.99.08-4.03-1-7.05-4.48-9.45-1.99-1.37-3.85-1.06-5.87-1.08-10.63-.09-21.14,1.39-31.66,2.56-10.36,1.15-20.61,3.14-30.87,4.98-4.49.8-9.09.96-13.46,2.41-1.51.5-2.97,1.16-3.3,2.92-.31,1.69-.54,3.41-.59,5.12-.28,9.46-1.56,18.89-.66,28.37.1,1.08-.37,1.32-1.29,1.43-2.05.25-4.1.53-6.13.92-1.59.31-1.92-.33-1.82-1.77.52-7.58.12-15.17.68-22.75Zm-42.06,12.46c2.63-.05,4.43.18,6.19.91,3.6,1.48,7.23,3.09,10.16,5.56,3.67,3.1,7.39,3.96,11.8,2.26,1.33-.51,1.98-.37,2.05,1.36.07,1.81,1,4.01,2.57,4.33,4.35.89,7.91,3.26,11.69,5.22,8.46,4.37,17.01,7.63,26.92,5.91,11.61-2.02,23.43-2.76,34.99-5.27,5.2-1.13,10.14-3.29,15.54-3.68,7.99-.57,15.97-1.23,23.9-2.49,6.88-1.1,13.71-2.55,20.74-2.71,2.88-.06,5.73-1.08,8.41-2.31,2.96-1.36,3.59-3.22,1.81-6.02-1.77-2.78-4.04-5.14-6.69-7.13-1.55-1.17-3.24-1.6-5.11-.99-2.88.95-5.89,1.24-8.81,1.95-1.61.39-1.97-.09-1.92-1.57.11-3.45.21-6.9.14-10.35-.04-2.01.63-2.21,2.23-1.34,13.6,7.43,27.55,14.22,40.56,22.72,1.68,1.1,3.16,2.4,4.38,3.99,1.45,1.89,1.25,2.5-1.02,2.76-6.16.7-12.32,1.58-18.51,1.92-10.26.57-20.44,1.77-30.52,3.64-15.85,2.95-31.76,5.47-47.75,7.44-11.46,1.41-22.94,2.62-34.38,4.13-8.2,1.09-16.34,2.63-24.65,2.6-1.03,0-1.94.02-2.81-.87-1.62-1.67-3.4-3.18-5.18-4.68-10.46-8.84-20.62-18.08-32.62-24.9-1.16-.66-2.31-1.35-4.11-2.4ZM20.14,146.95c1.67,1.16,2.82,1.9,3.9,2.72,4.65,3.56,9.31,7.1,14.45,9.98,5.34,2.99,10.53,6.2,15.56,9.69,4.27,2.96,8.99,5.05,14.04,6.37,6.65,1.73,13.49,1.92,20.27,1.95,13.1.06,26.13-.89,39.15-2.57,11.8-1.53,23.51-3.28,35.03-6.25,2.47-.64,2.79-.43,2.73,2.09-.02.99-.19,1.65-1.36,1.71-1.36.07-3.12.03-2.96,1.98.16,2.01,1.88,1.27,3.07,1.15,1.66-.16,1.15,1.07,1.32,1.88.24,1.17-.45,1.29-1.34,1.2-.6-.07-1.23-.02-1.8-.19-6.09-1.83-12.27-1.23-18.45-.77-18.22,1.35-36.17,4.82-54.34,6.6-11.84,1.16-23.11.35-33.63-5.27-12.33-6.6-23.58-14.87-34.73-23.27-.6-.45-.92-.97-.91-1.73.02-2.22,0-4.45,0-7.29Zm337.23-10.13c0,2.18-.09,4.06.03,5.92.11,1.79-.7,2.79-2.33,3.14-9.51,2.08-19.02,4.14-28.74,4.92-8.61.69-17.08,2.22-25.45,4.3-1.46.36-2.67,1.15-3.61,2.36-1.89,2.43-4.45,3.89-7.42,4.31-6.41.92-12.67,2.51-19.01,3.71-6.5,1.22-5.7,1.15-6.4-4.88-.22-1.91.3-2.81,2.16-2.91,8.09-.42,13.26-5.12,17.08-11.72.65-1.13,1.43-1.53,2.67-1.56,3.88-.09,7.81.11,11.62-.46,14.03-2.09,28.17-3.59,41.93-7.34,4.91-1.34,9.58-3.33,14.46-4.69.93-.26,1.87-.34,2.25.59.52,1.26-.81,1.29-1.48,1.63-2.93,1.48-6.03,2.5-9.18,3.41-.97.28-1.8.88-1.54,2.03.27,1.2,1.29,1.25,2.28,1.08.68-.11,1.33-.35,2-.51,2.92-.71,5.58-2.11,8.69-3.34Zm-239.47-53.46c-4.35.49-8.12.7-11.81,1.36-12.23,2.18-24.3,4.92-35.24,11.18-2.72,1.55-5.23,3.34-7.02,5.97-.61.9-1.1,1.27-2.27.65-4.48-2.39-9.05-4.6-13.54-6.97-5.69-3-5.71-3.98-.15-7.48,5.14-3.23,10.87-5.11,16.54-7.14,12.19-4.35,25.01-5.38,37.68-7.22,2.19-.32,4.06.17,5.75,1.55,3.21,2.6,6.43,5.18,10.06,8.11Zm27.62-3.86c2.45-.37,4.99-.72,7.53-1.13,12.68-2.07,25.52-2.63,38.27-4.1,18.22-2.1,36.46-4.08,54.48-7.6,5.26-1.03,10.56-1.42,15.91-1.12,2.03.11,3.87.56,5.38,2.09.9.92,1.61,1.89,1.34,3.17-.26,1.29-1.59,1.11-2.51,1.42-4.08,1.36-8.39.62-12.55,1.37-7.37,1.33-14.76,2.67-22.23,3.3-17.69,1.49-35.28,3.55-52.61,7.62-11.55,2.72-22.93,3.09-33.01-5.03Zm2.98,177.01c13.97-16.26,127.57-35.86,147.59-25.53-2.76.21-5.3.5-7.85.59-8.7.33-17.41.5-26.01,1.96-13.24,2.25-26.31,5.43-39.5,7.92-20.22,3.83-40.43,7.66-60.42,12.57-4.47,1.1-8.99,1.95-13.81,2.49Zm-13.6-158.98c-2.64.44-4.75.75-6.85,1.14-10.33,1.94-20.86,2.52-31.16,4.62-6.07,1.24-11.86,3.57-18.03,4.46-3.87.56-7.47.27-11-1.63-1.85-1-1.65-1.78-.52-3.05,1.39-1.57,3.01-2.86,4.84-3.83,14.78-7.84,30.63-11.62,47.26-12.45,1.4-.07,2.9.03,3.96.9,3.78,3.09,7.43,6.33,11.51,9.85Zm74.45,92.55s-.04,0-.06,0c0-2.24-.03-4.48,0-6.72.09-5.54-.85-4.11,4.45-5.53,1.78-.47,2.72-.33,2.82,1.97.1,2.17.08,4.7,1.82,6.3,1.81,1.67,3.71-.37,5.6-.48,7.51-.44,14.62-3.16,22.1-3.86,3.48-.33,4.59-2.03,4.61-5.61,0-.95.02-1.9.02-2.84.02-3.13,2.28-1.61,3.72-1.79,1.89-.23,1.68.93,1.67,2.27-.03,6.16-1.49,12.25-.85,18.45.21,2.05-.57,3.28-2.87,3.28-1.37,0-2.73.29-4.1.45-1.43.17-2.93.61-3.34,2.05-1.31,4.64-5.01,4.97-8.8,5.06-4.57.11-9.14.1-13.71,0-1.93-.05-4,.08-5.65-1.31-1.78-1.49-3.78-1.7-5.79-.79-1.4.63-1.66.18-1.65-1.07.01-3.28,0-6.55,0-9.83Zm-122.57-72.85c-4.32-.1-7.75-.4-11.16-.9-3.71-.54-6.6-2.84-9.78-4.51-.95-.5-1.27-1.62-.79-2.47.58-1.02,1.44-.02,1.97.28,4.88,2.83,9.98,2.04,15.1,1.09,6.01-1.11,11.71-3.47,17.76-4.43,10.46-1.65,20.94-3.18,31.38-4.89,5.92-.97,5.81-1.1,5.48,4.75-.1,1.71-.76,2.45-2.3,2.82-2.34.57-4.65,1.26-6.98,1.87-13.63,3.56-27.51,5.47-40.69,6.38Zm12.76-47.08c-.05.21-.11.42-.16.64-3.57.48-7.14,1.03-10.73,1.41-13.74,1.46-26.91,4.95-39.37,10.99-3.28,1.59-6.37,3.5-8.43,6.64-.67,1.02-1.24.83-2.09.32-2.01-1.2-3.93-2.53-5.54-4.22-1.14-1.19-3.86-1.53-3.48-3.19.35-1.52,2.78-2.1,4.42-2.82,17.48-7.65,35.75-12.39,54.7-14.47.66-.07,1.45-.08,2.02.2,2.91,1.44,5.77,2.99,8.65,4.5Zm190.65-6.04c15.21-3.06,29.76-3.16,44.24.69,2.88.77,5.94,1.22,8.18,3.48.57.57,1.72.93,1.44,1.89-.24.82-1.35.63-2.07.73-11.26,1.58-22.58,2.33-33.93,2.92-3.73.19-6.45-.29-8.9-3.41-2.1-2.69-5.65-3.82-8.97-6.29Zm-43.62-48.75c-6.46.66-12.61,1.42-18.79,1.88-13.4,1-26.82,1.76-40.22,2.8-16.23,1.25-32.39,3.34-48.66,4.19-1.75.09-2.83-.52-4.04-2,.85-.08,1.34-.11,1.82-.17,7.53-.83,15.08-1.52,22.6-2.51,13.33-1.75,26.64-3.57,40.03-4.85,12.61-1.2,25.24-2.12,37.83-3.51,4.02-.45,6.79.77,9.43,4.17Zm-17.85,50.23c-1.03.87-1.93.83-2.77.94-7.61.94-15.23,1.78-22.82,2.82-16.81,2.3-33.8,3.06-50.57,5.74-.58.09-1.31.35-1.34-.61-.05-1.46-.34-3.04.1-4.36.4-1.21,1.99-.32,3.01-.63.25-.07.51-.09.76-.13,7.34-.97,14.66-2.07,22.02-2.87,12.84-1.4,25.68-2.95,38.39-5.18,5.64-.99,8.92,2.14,13.21,4.28Zm84.27,18.96c-2.07,0-4.14.03-6.2-.01-.73-.01-1.51.09-1.87-.94-2.06-6-1.53-6.63,4.82-6.81,12.13-.34,24.25-.82,36.21-3.12.65-.13,1.42-.56,1.88.22.99,1.68.55,3.47.28,5.26-.23,1.53-1.24,1.85-2.54,2.04-10.81,1.59-21.61,3.35-32.58,3.36Zm-138.82,74.37c5.66-3.23,11.61-3.2,17.54-3.19.75,0,1.07.77,1.5,1.31,2.53,3.16,4.04,6.74,4.6,10.76.22,1.55-.14,2.18-1.8,2.22-4.14.11-8.25-.35-12.35-.72-4.2-.37-8.39-1.04-12.17-3.06-.69-.37-2.57-.22-1.8-1.76.57-1.14.51-3.4,3.23-2.42,2.55.92,5.33,1.41,8.11,1.32,1.21-.04,2.98.45,3.05-1.42.07-1.8-1.58-1.6-2.88-1.7-2.29-.17-4.56-.45-7.04-1.34Zm96.28-105.69c11.09-3.12,46.83.95,52.4,5.89-12.16-1.09-24.24-.85-36.15,2.17-.6.15-1.2.27-1.76-.04-4.79-2.64-9.58-5.3-14.49-8.02Zm-101.92,115.46c2.08.79,4.11,1.75,6.23,2.34,7.11,1.97,14.42,2.24,21.74,2.29,1.77.01,2.83,1.01,2.13,2.1-.6.93-1.69.76-2.6.75-6.4-.07-12.67,1.05-18.97,1.96-2.21.32-4.44.56-6.67.73-1.65.13-1.76-1.17-1.69-2.29.09-1.42,1.1-.6,1.74-.52,1.19.15,2.38.37,3.57.54,1.09.15,2.19.09,2.5-1.19.33-1.38-.77-1.79-1.8-2.03-1-.24-2.04-.28-3.06-.46q-3.41-.62-3.12-4.22Zm88.16-122.45c2.37,0,3.98,0,5.59,0,11.1.05,22.21.01,33.31.21,4.09.07,8.01,1.29,11.67,3.21-2.44.01-4.83-.16-7.22-.35-11.6-.93-23.19-1.22-34.74.66-.8.13-1.5.07-2.22-.33-1.87-1.04-3.77-2.02-6.38-3.4Zm22.04,100.98c-2.78,4.1-6.2,6.36-10.77,6.87-1.17.13-1.86-.16-1.86-1.43.01-2.71-1.37-4.7-3.2-6.52-.61-.6-1.9-.92-1.52-2.11.42-1.29,1.75-1.23,2.81-1.44,4.37-.86,8.75-.17,13.12.08.39.02.86.12.89.76-1.25.75-2.63,1.13-4.11,1.21-.94.05-1.76.32-1.77,1.44-.01,1.2.8,1.57,1.85,1.73,1.41.22,2.68-.48,4.55-.59Zm-46.16-114.79c2.44,1.03,2.98,2.65,3.02,4.87.17,8.66-.35,17.35.81,25.99.32,2.36-2.06,1.44-3.23,1.89-1.07.41-.99-.47-.91-1.21.84-7.8.06-15.61.3-23.42.08-2.63.01-5.27.01-8.12Zm-101.45,12.66c1.72,1.4,4.43,1.27,4.53,3.64.21,4.81,0,9.63-.05,14.45,0,.46.14,1.07-.67,1.1-1.09.04-3.79-2.17-3.8-3.22-.03-5.16-.01-10.31-.01-15.97Zm-.53-11.43c-.19-2.44.35-5.16.51-7.9.03-.45-.18-1.1.62-1.17.8-.07,4.46,3.01,4.46,3.9,0,3.6-.05,7.21-.15,10.81-.02.58.03,1.44-1.12,1.26-2.7-.41-4.31-2.24-4.32-5.04,0-.51,0-1.03,0-1.86Zm98.82,131.59c.24,5.62-.03,5.95-4.3,6.53-1.14.15-1.56-.04-1.62-1.18-.12-2.23-.04-4.52-.55-6.66-.6-2.51.58-2.93,2.56-3.13,3.72-.36,3.71-.4,3.84,3.41.01.34.04.69.06,1.03Zm-.08-108.91q0,5.62-4.59,3.26c-.46-.24-.9-.49-1.36-.73-2.08-1.09-2.43-3.17-1.13-6.27.92-2.2,2.52-1.37,4.11-1.05,3.1.61,3.24,2.79,2.96,4.8Zm11.9,107.12q-.13-4.64,4.42-4.79c.09,0,.17-.01.26-.02.96-.14,1.43.3,1.52,1.25.21,2.22.45,4.43.68,6.64.06.6.14,1.08-.7,1.36-4.61,1.55-6.01.62-6.17-4.19,0-.09,0-.17,0-.26Zm-38.68-4.96c1.84,2.05,3.66,3.41,3.87,5.44.33,3.14.36,6.34-.15,9.49-.08.51,0,1.49-.93,1.04-1.23-.6-2.84-.88-2.81-2.87.06-4.11.02-8.22.02-13.11Zm30.02,6.61s-.04,0-.07,0c0-.86.12-1.74-.03-2.57-.3-1.7.17-2.39,2.04-2.54,3.36-.27,3.37-.42,3.58,2.97.08,1.37-.07,2.76.1,4.12.18,1.4-.3,1.92-1.66,2.24-3.98.93-3.97,1-3.97-2.93,0-.43,0-.86,0-1.29ZM42.55,96.94c5.91,3.25,12.14,5.64,17.89,9,.22.13.45.26.64.44.81.78.75,1.88.28,2.59-.45.68-1.21-.12-1.76-.41-4.6-2.48-9.19-4.98-13.77-7.51-1.63-.9-2.35-2.55-3.27-4.11Zm207.88,62.59c-.53-1.64,1.14-1.63,2.6-1.8,1.66-.19,2.87.1,2.78,2.22-.07,1.71.02,3.42.13,5.13.19,3.1.07,3.18-2.9,2.83-1.12-.13-1.44-.7-1.58-1.63-.3-2.03-.62-4.06-1.03-6.76Zm-30.28,8.51c0,1.48.06,2.69-.01,3.89-.12,1.78-1.77,1.35-2.77,1.67-1.25.4-1.03-.83-1.11-1.48-.33-2.73-.48-5.48-.88-8.19-.3-2.03,1.05-1.96,2.31-2.19,1.43-.27,1.99.24,2.01,1.72.02,1.62.31,3.24.46,4.59Zm39.22-9.64c2.07,9.43,1.67,18.9,1.5,28.36,0,.34-.03.7-.13,1.02-.14.46-.51.64-.99.64-.61,0-1-.26-1.01-.89-.02-.86,0-1.73.04-2.59.35-8.25,1.12-16.5.53-24.77-.04-.58.05-1.18.08-1.77Zm-25.53-1.77c-2.66.68-3.12-1.94-4.52-3.08-1-.81-2.63-1.99-2.2-3.14.43-1.16,2.47-.54,3.74-1,.82-.3,1.43.03,1.92.81.78,1.22,1.74,2.33,2.52,3.55.47.74,1.74,1.32,1.16,2.31-.49.84-1.74.35-2.62.56Zm12.98-2.58c-.22.31-.45.63-.67.94-1.81.2-3.86,1.45-5.39.18-1.74-1.45-2.91-3.57-4.32-5.41-.33-.44-.57-1.13.1-1.24,1.34-.21,2.69-1.2,4.09.12,1.99,1.88,4.12,3.61,6.19,5.4Zm-18.99,3.13c-2.04.32-4.04,1.25-5.44.08-1.85-1.55-3.17-3.72-4.76-5.67,5.82-1.47,4.39-1.63,10.2,5.59ZM26.55,88.32c.41-.82.38-2.38,1.97-1.32,3.42,2.28,6.35,5.24,10,7.22.84.46.6,1.49.3,2.11-.46.95-1.16.16-1.66-.12-3.29-1.86-6.51-3.83-9.37-6.32-.5-.43-1.15-.78-1.23-1.57Zm176.88,89.36c2.16.38,2.95,1.66,2.67,4.07-.29,2.45-.02,4.96-.09,7.45-.02.8.52,2.13-1.08,2.06-1.13-.05-1.52-.86-1.51-1.97.04-3.84.01-7.69.01-11.61Zm6.2-7.86h-.1c.15-1.89.3-3.77.44-5.65.06-.79.4-1.32,1.25-1.34,1.04-.03.97.8,1.02,1.45.25,2.91.33,5.84.74,8.72.28,2.05-1.07,2.1-2.3,2.2-1.69.14-.95-1.26-1.03-2.03-.11-1.11-.03-2.23-.03-3.35Zm52.71-15.82c-1.21-2.31-2.75-4.08-5.17-3.96-2.89.15-3.97-1.79-5.38-3.61,5.06-2.1,11.03,2.03,10.55,7.57Zm-131.24-82.24c.13-4.9.27-5,3.39-3.37.85.44,1.1.91,1.02,1.78-.13,1.45-.28,2.9-.27,4.35,0,1.68-.5,1.67-1.99,1.17-2.41-.81-2.55-2.37-2.15-3.94Zm78.92,80.97c2.21-1.16,3.92-.93,5.25,1.24.53.87,1.44,1.49,2,2.35.4.61,1.87,1.26.84,1.96-1,.68-2.98,1.23-3.74.13-1.36-1.96-3.09-3.64-4.35-5.68Zm33.78-5.13c3.56-.63,7.63,2.45,9.63,6.99-4.94-.23-6.11-4.82-9.63-6.99Zm-40.81,5.94c4.98-.68,5.57,3.72,8.66,6.13-1.86-.16-2.91,1.17-3.99-.23-1.46-1.88-2.95-3.73-4.67-5.91Zm.7,42.05c2.24-.04,2.47,1.18,2.33,2.68-.04.44-.12,1-.64.86-1.78-.49-1.24-2.11-1.68-3.54Z"/><path class="cls-1" d="m129.34,200.22c5.3-1.15,10.74-2.36,16.19-3.49,1.84-.38,3.73-.58,5.6-.82,1.12-.15,2.14-.52,2.06-1.82-.1-1.52-1.35-1.6-2.51-1.48-5.48.56-10.83,1.81-16.15,3.17-1.83.47-3.68.84-5.53,1.2-1.27.24-3.2-.31-3.11,1.74.1,2.11,2.07,1.14,3.44,1.51Z"/><path class="cls-1" d="m177.91,195.35c1.56-.15,3.44-.3,5.31-.52,1.2-.14,2.3-.63,2.09-2.06-.2-1.37-1.34-1.27-2.43-1.15-2.13.24-4.26.44-6.4.62-1.13.09-2.44,0-2.4,1.61.04,1.59,1.35,1.49,2.47,1.51.34,0,.69,0,1.35,0Z"/><path class="cls-1" d="m296.06,169.42c-1.61.23-3.32.46-5.02.71-.96.14-1.63.61-1.61,1.67.03,1.16.86,1.44,1.79,1.38,2.31-.16,4.62-.4,6.93-.63.83-.08,1.18-.65,1.2-1.42.01-.77-.34-1.37-1.12-1.52-.67-.13-1.37-.12-2.16-.19Z"/><path class="cls-1" d="m107.86,202.07c.94,0,1.12.03,1.28,0,1.4-.34,3.67.01,3.44-2.11-.23-2.09-2.2-1.23-3.58-1.03-.17.02-.34.02-.51.03-1.12.1-2.73-.39-2.73,1.44,0,1.84,1.58,1.67,2.1,1.68Z"/><path class="cls-1" d="m271.23,176.75c-1.35.55-3.66-.12-4.05,2.4-.16,1.06.71,1.76,1.62,1.43,1.58-.59,3.92-.04,4.49-2.31.32-1.26-.79-1.52-2.06-1.52Z"/><path class="cls-1" d="m32.91,219.58c1.58-.17,2.11-1.28,2.23-2.51.15-1.56-.78-2.4-2.31-2.45-1.32-.04-2.14.66-2.18,2-.05,1.6.88,2.51,2.27,2.96Z"/><path class="cls-1" d="m285.29,171.66c-1.08.02-2.21.17-2.32,1.48-.12,1.39.95,1.65,2.07,1.62,1.09-.03,2.16-.27,2.19-1.61.02-1.21-.88-1.53-1.94-1.49Z"/><path class="cls-1" d="m49.82,241.57c.31,1.02.35,2.32,1.78,2.48,1.21.14,1.75-.67,1.63-1.78-.12-1.1-.32-2.33-1.82-2.39-1.06-.04-1.5.66-1.59,1.68Z"/><path class="cls-1" d="m343.72,203.91c.03,1.12.19,2.1,1.53,1.94,1.3-.16,1.54-1.21,1.56-2.29.02-1.08-.43-1.92-1.62-1.85-1.41.09-1.38,1.27-1.46,2.2Z"/><path class="cls-1" d="m119.09,197.99c-1.11.04-2.12.3-2.12,1.66,0,1.06.7,1.48,1.71,1.45,1.13-.03,2.11-.33,2.13-1.67.02-1.06-.71-1.48-1.72-1.44Z"/><path class="cls-1" d="m343.75,208.59c.06.82.2,1.81,1.51,1.74,1.06-.05,1.46-.88,1.45-1.79,0-1.02-.44-1.91-1.63-1.92-1.13,0-1.35.85-1.33,1.97Z"/><path class="cls-1" d="m158.76,191.64c-.94.12-1.77.34-1.77,1.47,0,1.12.85,1.45,1.73,1.44.88,0,1.73-.32,1.73-1.45,0-1.14-.85-1.33-1.7-1.46Z"/><path class="cls-1" d="m50.72,246.87c.05.79.5,1.31,1.43,1.28.82-.03,1.21-.52,1.23-1.32.02-.96-.54-1.41-1.42-1.39-.78.02-1.23.5-1.24,1.43Z"/><path class="cls-1" d="m29.37,115.92c0,2.93-.03,5.86.02,8.79.02,1.15.21,2.38,1.73,2.42,1.56.04,1.76-1.23,1.8-2.35.21-6.29-.22-12.59.38-18.88.08-.85-.12-1.79-1.21-2.01-1.02-.21-1.57.4-1.99,1.26-.48.96-.6,1.97-.6,3.01,0,2.59,0,5.17,0,7.76-.05,0-.09,0-.14,0Z"/><path class="cls-1" d="m38.41,143.17c-1.11.04-1.61.56-1.55,1.48.11,1.6,1.32,2.16,2.64,2.35.86.12,1.53-.46,1.42-1.42-.17-1.53-1.37-2.04-2.5-2.41Z"/><path class="cls-1" d="m82.33,157.76c.08,1.17.28,2.37,1.77,2.3,1.16-.05,1.45-1.01,1.36-2.06-.09-1.12-.14-2.37-1.65-2.42-1.46-.05-1.45,1.13-1.48,2.18Z"/><path class="cls-1" d="m30.23,133.78c1.09.02,1.83-.36,1.87-1.41.05-1.18-.63-1.98-1.78-2.09-1.03-.1-1.55.7-1.59,1.62-.05,1.05.46,1.78,1.49,1.88Z"/><path class="cls-1" d="m346.84,121.95c1.16.01,1.64-.59,1.66-1.6.02-1.06-.34-1.92-1.54-1.97-1.03-.04-1.55.61-1.6,1.62-.06,1.1.38,1.82,1.47,1.95Z"/><path class="cls-1" d="m344.68,114.44c.03.87.4,1.54,1.33,1.61.93.07,1.45-.49,1.45-1.41,0-.91-.5-1.46-1.43-1.48-.84-.02-1.21.53-1.35,1.29Z"/><path class="cls-1" d="m84.02,165.64c-.7.04-1.15.43-1.22,1.1-.09.81.33,1.33,1.17,1.37.7.03,1.18-.39,1.25-1.05.09-.81-.43-1.25-1.2-1.41Z"/><path class="cls-1" d="m287.46,151.75c1.33,2.13-.49,2.75-2.07,3.54-.96.48-1.98,1.06-1.29,2.35.68,1.28,1.83,1.09,2.91.53,1.26-.66,2.44-1.69,3.64.17.3.48,1.11.42,1.66.02.54-.39.85-1.04.57-1.59-1.29-2.51.81-2.88,2.24-3.61.6-.3,1.33-.32,1.99-.5.89-.24,1.71-.63,1.48-1.74-.2-.98-1.03-1.44-1.94-1.36-1.01.09-2.03.37-2.99.71-1.37.48-2.76,2.05-3.83-.47-.23-.54-1.05-.45-1.62-.07-.66.43-.84,1.05-.75,2.02Z"/><path class="cls-1" d="m338.7,140.83c.18.99.84,1.4,1.79,1.38.9-.02,1.44-.53,1.39-1.43-.06-1.04-.77-1.44-1.73-1.39-.87.05-1.4.49-1.45,1.43Z"/><path class="cls-1" d="m333.94,141.33c.09,1,.65,1.36,1.54,1.31.82-.04,1.23-.57,1.25-1.3.02-.88-.47-1.41-1.41-1.39-.92.02-1.35.54-1.38,1.38Z"/><path class="cls-1" d="m247.03,189.44c-6.29.73-12.09,1.42-17.89,2.06-2.56.29-5.13.47-7.69.73-1.42.14-2.32.9-2,2.38.33,1.52,1.44,1.16,2.65,1.01,6.47-.85,12.95-1.55,19.43-2.31,1.79-.21,3.59-.36,5.37-.67.97-.17,1.82-.71,1.59-1.94-.2-1.07-1.06-1.22-1.46-1.25Z"/><path class="cls-1" d="m240.43,185.74c-3.85.33-7.69.64-11.53,1.01-.85.08-1.73.25-2.49.6-.82.37-1.36,1.11-1.04,2.1.29.9,1.04,1.06,1.87.96,4.52-.51,9.03-1.02,13.55-1.53,1.14-.13,2.42-.29,2.23-1.84-.18-1.49-1.43-1.47-2.59-1.31Z"/><path class="cls-1" d="m228.61,199.61c3.93-.43,7.7-.8,11.46-1.3,1.07-.14,2.43-.47,2.16-2.01-.27-1.52-1.48-1.29-2.67-1.14-3.67.47-7.34.89-11.02,1.28-1.23.13-2.93-.38-2.79,1.65.12,1.89,1.82,1.39,2.86,1.52Z"/><path class="cls-1" d="m186.46,162.64c.06,1.3.7,1.7,1.71,1.69,1.08,0,1.89-.33,1.86-1.59-.03-1.07-.72-1.49-1.7-1.52-1.11-.03-1.8.45-1.87,1.41Z"/><path class="cls-1" d="m269.97,145.44c-.99.22-1.74.7-1.73,1.86,0,.93.52,1.47,1.43,1.45,1.12-.02,1.71-.71,1.73-1.81.01-.91-.51-1.4-1.43-1.5Z"/></svg>