<?xml version="1.0" encoding="UTF-8"?><svg id="Layer_1" xmlns="http://www.w3.org/2000/svg" viewBox="0 0 144.93 25.18"><defs><style>.cls-1{isolation:isolate;}.cls-2{fill:#182a42;}.cls-2,.cls-3,.cls-4{stroke-width:0px;}.cls-3{fill:#162b41;}.cls-4{fill:#854430;}</style></defs><g id="We_investigate_" class="cls-1"><g class="cls-1"><path class="cls-2" d="m1.61,24.41v-.74l-.04-.16.05-.28.04-.03-.08-.29v-.11s.06-.22.06-.22l-.02-.23.04-.08-.04-.16v-.2l-.05-.11.08-.34-.02-.13.04-.17h0s0-.2,0-.2l-.04-.22v-.19s-.02-.2-.02-.2l.04-.14v-.83l.04-.17-.05-.23v-.12s.04-.17.04-.17l-.03-.3v-.4l.12-.17.37-.03.22.05.13-.02.14.03.22-.02.21.03.22-.05h.08l.25.03h.19s.44-.01.44-.01l.19.02h.16s.75-.01.75-.01l.14.07v.2l.04.08-.05.29.02.11v.29l.02.11-.03.27v.16l-.02.2.05.16-.04.25.03.17-.03.29.04.17-.04.15.07.34-.05.37v.76l.03.07-.04.14.02.22v.24l-.04.17.03.14v.23l.05.18-.06.24.03.14v.49l-.14.1h-.59l-.12.02h-.17s-.26.02-.26.02l-.2-.05-.29.02h0l-.11.02-.25-.04h-.75l-.11.02-.24-.02h-.44l-.16-.09v-.14Zm2.63-1.75l-.04-.12v-.13s-.07-.14-.07-.14l-.08-.28v-.02s-.05-.14-.05-.14v-.06s-.04-.23-.04-.23l-.07-.25-.02-.1-.13-.19-.11-.04h-.19l-.14.07v.08s-.14.21-.14.21l.04.1-.03.05v.14l-.05.11-.05.17-.05.12v.07s-.08.19-.08.19l-.05.16-.05.23-.07-.02.02-.16v-.05s-.01-.19-.01-.19l-.02-.02.02-.12-.08-.2.05-.16-.04-.05-.02-.22v-.12s-.01-.17-.01-.17l-.02-.07-.02-.13-.02-.27v-.08s0-.19,0-.19l-.06-.11h0s-.04-.2-.04-.2l.02-.08-.05-.22-.09-.04h-.09l-.04.02h-.11s-.07.07-.07.07l.02.22-.05.08.04.11v.08s.04.11.04.11v.11s0,.16,0,.16l.03.09v.23l.04.22.05.18-.02.1.02.09v.18s.05.11.05.11l.02.26v.11l.07.23v.2s.04.15.04.15v.14l.06.07.09.07.12.04h.08s.28-.11.28-.11l.07-.13.08-.23.05-.18.06-.11v-.15s.05-.04.05-.04v-.17s.11-.21.11-.21l.03-.1v-.07s.1-.05.1-.05l.02.11.08.16-.02.08.02.12.04.08.07.2.05.22h.02l.06.27.1.2.14.08.2.04.15-.07h.07s.07-.11.07-.11l.05-.22.02-.26v-.13s.05-.22.05-.22v-.02s.02-.25.02-.25v-.14l.05-.12v-.06s.04-.11.04-.11l-.02-.19.02-.19.06-.16v-.05s.04-.17.04-.17l-.02-.13.04-.13v-.26l.03-.05.03-.26-.05-.08-.1-.04h-.08s-.18.01-.18.01l-.02.05-.06.1v.24l-.05.17-.02.16.02.06v.11l-.07.14.03.08-.05.32h.02s.02.22.02.22l-.08.11v.08s0,.19,0,.19v.04s-.04.19-.04.19l.02.04-.02.25v.15l-.04.14h-.05Z"/><path class="cls-2" d="m5.22,23.61l-.04-.04v-.02s.07-.32.07-.32l-.07-.2.02-.21.04-.19-.02-.25.06-.07-.07-.3v-.32l.04-.08-.04-.46.06-.05-.05-.3v-.17l-.03-.13.02-.3v-.51l.02-.06v-.37l-.03-.17v-.22l.04-.08-.04-.27.02-.14h-.01s0-.25,0-.25l-.02-.12.14-.14h.09s.21-.01.21-.01l.18.04.24-.04.19.04h.38l.16-.04h.09s.28.02.28.02h.69l.17.04.24-.04h.71l.08.07v.34s-.04.12-.04.12l.04.22-.02.19.05.3-.04.15.02.17-.05.09.07.26-.07.13.07.4-.02.25.02.08-.03.1.05.4v.17l-.03.28v.35l-.03.37.06.16-.03.17v.34l-.05.14.05.2v.16s.03.12.03.12l-.05.2v.14s.01.69.01.69l-.02.02-.28.02h-.14l-.19-.03-.25.05h-.44l-.13-.03-.41.04-.22-.02h-.65l-.02-.03-.28.05h-.16s-.24-.01-.24-.01l-.05-.02-.23.03-.12-.11v-.99Zm1.15-1.39l-.12-.25.04-.05.11.02.08.04.24.03.05-.03.17.02.11-.05.13.02.26-.04.14.04.07-.02h.18s.09,0,.09,0l.14.02.07-.02h.11l.13-.08.04-.08-.04-.2v-.04s-.03-.18-.03-.18l-.04-.08-.04-.14-.08-.14-.25-.24-.08-.06-.08-.02-.11-.05-.16-.03-.05-.04-.13-.04-.08.03-.06-.03-.16-.02-.17.04-.06.04-.12.03-.26.12-.14.08-.08.14h-.03s-.05.08-.05.08l-.07.16-.1.14v.07s-.05.11-.05.11v.25l-.03.13.06.31v.12s0,.2,0,.2l.05.02.08.15.02.08.11.1.08.14.16.08.14.07.14.07.1.02h.12l.26.05h.12l.25-.05.1-.05h.05l.11-.04.2-.13.09-.1.13-.08.1-.22.02-.1-.04-.11-.1-.02-.04-.02h-.13l-.11.1h-.04s-.18.25-.18.25l-.18.05-.02.05-.2.07h-.16l-.43-.1-.04-.04-.13-.08-.08-.17h-.04s-.05-.13-.05-.13v-.1s-.03-.05-.03-.05Zm1.6-.66l.03.07-.04.05-.26-.08-.11.03-.16.02-.2-.02-.2-.02-.22.02h-.16s-.17,0-.17,0l-.14.05-.06-.02.02-.1.05-.07.07-.14.02-.07.07-.08.07-.1.3-.15.14-.04.07.02h.1l.3.05.2.15.11.14.1.18.08.12Z"/><path class="cls-2" d="m12.42,24.55v-.78l-.02-.02v-.26l.06-.11-.02-.32-.07-.17.05-.34-.03-.02v-.02s.07-.31.07-.31l-.05-.23-.03-.25.05-.24v-.07l.05-.25-.05-.26v-.22l-.04-.25.03-.17v-.3s.02-.41.02-.41l-.02-.22.05-.08-.05-.29v-.14s.02-.17.02-.17l-.02-.16.02-.29-.03-.25.17-.13.15.02.23-.03.2.05.17-.04.2.04h.16s.1.02.1.02l.19-.06.51.04h.82l.07-.03.34.02h.49l.05.05v.02s-.01.25-.01.25l.04.17-.02.19v.37l.02.12v.14s-.01.48-.01.48l.03.04-.07.27.03.18.02.05-.03.31.04.16-.04.19.02.2v.22h.01v.02s-.04.29-.04.29l.02.16v.26l-.04.33.06.18-.04.22v.48l.02.07v.31l.02.07-.05.12v.13s.01,0,.01,0l.02.25v.39l-.13.12-.11-.03-.35.02h-.15l-.17.02h-.14l-.13.08-.31-.07h-1.03l-.29-.04-.2.05-.28-.02h-.17l-.18-.02-.14.02-.06-.07v-.04Zm3.06-1.56l-.02-.14-.04-.05-.11-.02-.26.02h-.18l-.14.03-.08-.02-.07-.05.03-.09v-.16l.03-.17-.04-.25.02-.05-.02-.23.02-.02v-.31l-.02-.13.02-.26.02-.17-.04-.3-.21-.04-.04.02-.2-.03-.04.04h-.2s-.28,0-.28,0l-.07.02-.18-.04h-.09s-.11.11-.11.11l.02.11v.18s.1.02.1.02h.28l.08-.02.13.03.11-.02.12-.04.11-.02.04.04v.09l-.04.11v.14s0,.11,0,.11l.02.22-.02.18v.27l.02.11-.04.11.02.11v.15s0,.07,0,.07l.05.11-.05.04h-.05s-.19-.01-.19-.01h-.23s-.14-.01-.14-.01l-.26.07-.06.08v.17s.07.1.07.1h.12s.11-.02.11-.02l.23.02h.08s.12-.02.12-.02h.13l.26.03.28-.02.1.02.1-.03h.41s.09.02.09.02l.14-.02.07-.08v-.04s0-.07,0-.07Zm-.81-3.5l-.18-.12h-.25l-.1.06-.07.12v.13s0,.13,0,.13l.04.09.07.05.19.04.11-.02.11-.04.04-.16.04-.13v-.15Z"/><path class="cls-2" d="m16.03,24.37l-.04-.31v-.6s.04-.17.04-.17v-.18l-.06-.15.05-.32-.04-.22.05-.26-.03-.14v-.39l.04-.08v-.12s.02-.3.02-.3l-.05-.34.02-.07-.05-.36v-.14s.01-.22.01-.22l.02-.33v-.38l.02-.14-.05-.32.03-.19-.02-.18v-.16s.01-.24.01-.24v-.17s.13-.07.13-.07h.11l.2-.02.2.05.26-.02.19.03h.35l.16-.04.1.02h.97l.19.02.1-.02h.54s.27.01.27.01l.04.04v.02s-.03.22-.03.22l.04.22-.02.03h-.03l.05.26v.26l.04.13-.04.22.02.17-.06.11.08.3-.04.26.02.19-.02.15.04.12-.04.25.05.44-.05.39v.16s.01.23.01.23l-.04.17.08.21-.04.19v.44l-.03.2.04.14v.23l.02.08-.05.17.02.22v.52s-.14.08-.14.08h-.52l-.14.02h-.15s-.33.04-.33.04l-.16-.04-.02-.02-.43.04-.24-.02h-.24s-.15.01-.15.01l-.32-.02-.2.02h-.36l-.16-.02-.16.02-.11-.11.02-.19Zm1.3-3.02v-.11s-.06-.09-.06-.09l.05-.07.24-.05.19-.08h.04s.14-.06.14-.06l.31.08.1.04.07.11.07.18.03.17v.31l.02.28-.02.08v.19s0,.1,0,.1v.11l.02.1-.02.16-.03.14.05.18v.07s.14.03.14.03h.08s.13-.04.13-.04l.11-.11-.02-.11.03-.07-.03-.19v-.23l.02-.07v-.13s.01-.13.01-.13l-.03-.14v-.13s.01-.17.01-.17v-.12s-.01-.14-.01-.14l-.02-.3-.04-.13-.12-.22-.05-.05-.17-.11-.15-.07-.11-.04h-.37s-.13.06-.13.06h-.16l-.08.05-.11.09-.11.07-.03.1h-.08s-.03-.02-.03-.02l.04-.23-.05-.05-.13.04h-.11s-.1.07-.1.07v.15l-.02.1.02.22-.02.08-.02.29.04.17-.02.22v.5l.03.23v.43s.06.08.06.08l.17.04.21-.04.02-.16-.02-.16.02-.13-.03-.19.04-.06v-.87l-.02-.18v-.08Z"/><path class="cls-2" d="m19.66,24.46l-.02-.24v-.38s-.01-.23-.01-.23l.05-.11-.04-.29-.03-.08.04-.31-.04-.26.04-.16-.04-.16v-.12l-.05-.16.07-.37v-.4l-.02-.23.02-.13-.04-.35v-.87l.05-.28-.08-.32v-.35l.02-.25-.02-.22v-.19s.15-.06.15-.06l.19.02.06-.04.21.05.24-.04.2.02h.44l.12-.03h.13s1.18.01,1.18.01l.28-.04h.17s.35.01.35.01l.13.06-.02.26.04.19-.02.03h-.02l.05.21-.02.24.05.25-.07.46.07.23-.02.03-.05.02.09.35-.02.29.04.15-.04.25.04.14v.19l.02.07-.03.27v.71l.06.16-.04.25v.22l-.03.23.04.14v.31l.03.15v.15s-.01.6-.01.6l.02.1-.16.08-.14.02h-.46l-.16.02h-.08l-.21.05-.27-.05-.22.03h-.24l-.17-.02-.27.02h-.34l-.11-.02-.2.04h-.38l-.2-.02-.17.02-.08-.11v-.22Zm3.18-3.65l.03-.12-.06-.05-.14-.05-.19.04-.05.05-.11.2-.03.04-.07.21-.08.14v.05l-.04.14-.15.23v.07s-.09.17-.09.17l-.08.31-.1.14-.02.1-.05.14-.04.19v.05s-.07,0-.07,0l-.02-.09-.08-.2v-.03s-.1-.23-.1-.23l-.05-.17-.04-.16-.07-.11-.02-.1-.15-.32-.06-.11v-.04s-.08-.17-.08-.17v-.07l-.06-.09-.04-.14-.14-.19-.2-.05h-.09s-.11.1-.11.1l.04.11.02.12.07.12.02.07.11.16.07.23.03.15h.04s.07.14.07.14l.02.16.08.1.04.14.13.22.07.13v.07s.05.17.05.17l.08.08.05.09.04.12.14.11h.17l.19-.03.1-.08.05-.13.08-.16.1-.16v-.07s.07-.26.07-.26l.13-.21.11-.27.03-.04.08-.22.08-.1v-.17l.11-.14.07-.13.02-.15.06-.07Z"/><path class="cls-2" d="m23.2,23.61l-.04-.04v-.02s.07-.32.07-.32l-.07-.2.02-.21.04-.19-.02-.25.06-.07-.07-.3v-.32l.04-.08-.04-.46.06-.05-.05-.3v-.17l-.03-.13.02-.3v-.51l.02-.06v-.37l-.03-.17v-.22l.04-.08-.04-.27.02-.14h-.01s0-.25,0-.25l-.02-.12.14-.14h.09s.21-.01.21-.01l.18.04.24-.04.19.04h.38l.16-.04h.09s.28.02.28.02h.69l.17.04.24-.04h.71l.08.07v.34s-.04.12-.04.12l.04.22-.02.19.05.3-.04.15.02.17-.05.09.07.26-.07.13.07.4-.02.25.02.08-.03.1.05.4v.17l-.03.28v.35l-.03.37.06.16-.03.17v.34l-.05.14.05.2v.16s.03.12.03.12l-.05.2v.14s.01.69.01.69l-.02.02-.28.02h-.14l-.19-.03-.25.05h-.44l-.13-.03-.41.04-.22-.02h-.65l-.02-.03-.28.05h-.16s-.24-.01-.24-.01l-.05-.02-.23.03-.12-.11v-.99Zm1.15-1.39l-.12-.25.04-.05.11.02.08.04.24.03.05-.03.17.02.11-.05.13.02.26-.04.14.04.07-.02h.18s.09,0,.09,0l.14.02.07-.02h.11l.13-.08.04-.08-.04-.2v-.04s-.03-.18-.03-.18l-.04-.08-.04-.14-.08-.14-.25-.24-.08-.06-.08-.02-.11-.05-.16-.03-.05-.04-.13-.04-.08.03-.06-.03-.16-.02-.17.04-.06.04-.12.03-.26.12-.14.08-.08.14h-.03s-.05.08-.05.08l-.07.16-.1.14v.07s-.05.11-.05.11v.25l-.03.13.06.31v.12s0,.2,0,.2l.05.02.08.15.02.08.11.1.08.14.16.08.14.07.14.07.1.02h.12l.26.05h.12l.25-.05.1-.05h.05l.11-.04.2-.13.09-.1.13-.08.1-.22.02-.1-.04-.11-.1-.02-.04-.02h-.13l-.11.1h-.04s-.18.25-.18.25l-.18.05-.02.05-.2.07h-.16l-.43-.1-.04-.04-.13-.08-.08-.17h-.04s-.05-.13-.05-.13v-.1s-.03-.05-.03-.05Zm1.6-.66l.03.07-.04.05-.26-.08-.11.03-.16.02-.2-.02-.2-.02-.22.02h-.16s-.17,0-.17,0l-.14.05-.06-.02.02-.1.05-.07.07-.14.02-.07.07-.08.07-.1.3-.15.14-.04.07.02h.1l.3.05.2.15.11.14.1.18.08.12Z"/><path class="cls-2" d="m26.81,24.37l-.03-.37v-.62l.04-.11.02-.16-.05-.25.02-.19-.03-.05-.02-.08.07-.35-.03-.18-.06-.22.07-.31.02-.32-.02-.28v-.18l-.05-.27.04-.2v-.19l-.02-.02.02-.31v-.18l.02-.1h0s0-.27,0-.27l-.04-.2v-.13l.02-.12-.03-.16.02-.27v-.11l-.03-.23.16-.11h.1s.29-.02.29-.02l.2.03v-.02l.03-.02.36.07h.14s.14.02.14.02l.23-.06.32.04h.2s1.61-.01,1.61-.01l.08.07-.02.25.04.14-.06.2.05.19-.02.22.03.2-.04.1v.41l.05.16-.03.23-.02.04.02.27-.02.13.03.25v.02s-.05.03-.05.03l.05.34.04.13-.08.34.02.1v.62l.05.1-.07.2.03.28v.16l-.05.09.06.22v.17s.02.19.02.19l-.05.14v.13s.01,0,.01,0l.02.14v.5s0,.02,0,.02l-.56.05-.11-.03-.21.03h-.2l-.11.04-.17-.04h-.11s-.39.02-.39.02l-.32-.02h-.5l-.08-.03-.25.04h-.16s-.23-.01-.23-.01l-.19-.02-.17.02-.07-.11v-.18Zm3.11-1.91v-.11s-.08-.23-.08-.23l-.11-.14-.11-.05-.11-.09-.16-.02-.06-.05h-.11s-.38-.12-.38-.12h-.07s-.1-.02-.1-.02l-.17-.02-.22-.07-.1-.08-.05-.04-.04-.09v-.08s0-.07,0-.07l.05-.09.11-.07.25-.05.2-.05.19.04h.08s.19.05.19.05l.17.14.05.12.19.08.18.02.1-.07.02-.02-.02-.17-.08-.1-.06-.13-.1-.05-.04-.05-.23-.14h-.11s-.23-.11-.23-.11l-.1.02-.2-.04-.1.04h-.1s-.15.04-.15.04l-.17.02-.11.03-.04.04-.12.04-.1.08-.06.08-.07.17-.05.06-.03.17v.18s.16.24.16.24l.09.1.22.09.25.12h.06s.2.07.2.07h.25s.24.09.24.09l.11.02.04.02.07.02.18.14.02.07v.13s-.03.08-.03.08l-.02.08-.1.08-.29.09-.17-.05h-.16l-.18.03-.13-.05-.14-.04-.1-.07-.09-.14-.05-.12-.06-.05-.23-.02h-.08s-.07.04-.07.04v.09s.04.1.04.1l.05.16.04.05.12.13.02.04.14.14.23.08h.08l.09.04h.16s.08.03.08.03h.32l.33-.05h.11l.31-.17.14-.14.13-.17v-.14s.04-.12.04-.12h0Z"/><path class="cls-2" d="m30.43,24.44v-.36l-.04-.3v-.22l.05-.18-.02-.17-.05-.11.04-.23h0s.02-.16.02-.16l-.04-.1.05-.23-.04-.15v-.5l.04-.07-.02-.2v-.25l.02-.11-.05-.23v-.14s-.04-.26-.04-.26l.02-.16v-.57l.03-.22-.05-.29v-.94l-.04-.26.17-.11.22.03.07-.03.19.04.26-.05.19.04.17-.02h.19l.09-.04.4.05.38-.02h.61s.77-.01.77-.01l.14.05v.29l.02.07-.07.14.06.25v.32s-.04.13-.04.13l.06.3v.26s-.07.14-.07.14l.08.52-.03.04.05.2-.04.19.04.2v.22l.02.07-.04.29v.73l.04.13-.04.07.04.34-.04.28.04.15v.22l.05.16-.05.2.02.13v.62s0,.02,0,.02l-.13.04h-.1s-.48-.01-.48-.01l-.1.02h-.18s-.24.08-.24.08l-.32-.07-.28.04h-.18s-.24-.01-.24-.01l-.2.02h-.16l-.14-.04-.28.05h-.16s-.4-.01-.4-.01l-.13.02-.11-.11-.02-.23Zm2.83-1.24l.14-.06v-.06s.05-.11.05-.11l-.06-.18-.14-.02-.12.05-.13.02-.12-.02-.24.02-.09-.04h-.09s-.08-.12-.08-.12l-.07-.06-.02-.04-.07-.33v-.08l.04-.26-.04-.17.02-.05v-.27l.02-.08v-.16l-.07-.22.05-.08.19.11h.1s.15,0,.15,0l.26-.05.14.05.06-.03.3-.04.07-.06v-.15s-.03-.05-.03-.05l-.08-.08h-.07l-.17-.02-.13.04-.2-.04-.07.02-.11-.02-.34.03-.1.03-.05-.07.07-.14v-.53l-.02-.14.03-.16v-.15s-.08-.06-.08-.06h-.19l-.19.02v.15l.02.13-.04.14.03.17-.02.14v.17l.02.19.07.1-.07.06-.11-.06h-.31s-.28.01-.28.01h-.13s-.07.02-.07.02l-.02.12.02.13.04.08.28.02h.06s.1-.01.1-.01l.15.02.16-.02.12-.05.05.07-.07.07v.18s-.04.1-.04.1l.04.12-.03.06.04.15-.02.07v.84l.1.28.1.1.07.11.08.07.21.08.24.04.27.02.19-.05.11.03.11-.05Z"/><path class="cls-2" d="m34,24.55v-.78l-.02-.02v-.26l.06-.11-.02-.32-.07-.17.05-.34-.03-.02v-.02s.07-.31.07-.31l-.05-.23-.03-.25.05-.24v-.07l.05-.25-.05-.26v-.22l-.04-.25.03-.17v-.3s.02-.41.02-.41l-.02-.22.05-.08-.05-.29v-.14s.02-.17.02-.17l-.02-.16.02-.29-.03-.25.17-.13.15.02.23-.03.2.05.17-.04.2.04h.16s.1.02.1.02l.19-.06.51.04h.82l.07-.03.34.02h.49l.05.05v.02s-.01.25-.01.25l.04.17-.02.19v.37l.02.12v.14s-.01.48-.01.48l.03.04-.07.27.03.18.02.05-.03.31.04.16-.04.19.02.2v.22h.01v.02s-.04.29-.04.29l.02.16v.26l-.04.33.06.18-.04.22v.48l.02.07v.31l.02.07-.05.12v.13s.01,0,.01,0l.02.25v.39l-.13.12-.11-.03-.35.02h-.15l-.17.02h-.14l-.13.08-.31-.07h-1.03l-.29-.04-.2.05-.28-.02h-.17l-.18-.02-.14.02-.06-.07v-.04Zm3.06-1.56l-.02-.14-.04-.05-.11-.02-.26.02h-.18l-.14.03-.08-.02-.07-.05.03-.09v-.16l.03-.17-.04-.25.02-.05-.02-.23.02-.02v-.31l-.02-.13.02-.26.02-.17-.04-.3-.21-.04-.04.02-.2-.03-.04.04h-.2s-.28,0-.28,0l-.07.02-.18-.04h-.09s-.11.11-.11.11l.02.11v.18s.1.02.1.02h.28l.08-.02.13.03.11-.02.12-.04.11-.02.04.04v.09l-.04.11v.14s0,.11,0,.11l.02.22-.02.18v.27l.02.11-.04.11.02.11v.15s0,.07,0,.07l.05.11-.05.04h-.05s-.19-.01-.19-.01h-.23s-.14-.01-.14-.01l-.26.07-.06.08v.17s.07.1.07.1h.12s.11-.02.11-.02l.23.02h.08s.12-.02.12-.02h.13l.26.03.28-.02.1.02.1-.03h.41s.09.02.09.02l.14-.02.07-.08v-.04s0-.07,0-.07Zm-.81-3.5l-.18-.12h-.25l-.1.06-.07.12v.13s0,.13,0,.13l.04.09.07.05.19.04.11-.02.11-.04.04-.16.04-.13v-.15Z"/><path class="cls-2" d="m37.64,24.4l-.05-.43v-.45l.04-.13.02-.15-.07-.24v-.15l.02-.12-.05-.21.05-.25-.03-.1v-.22l-.04-.16.05-.22-.02-.09.04-.18-.02-.21-.04-.18v-.18l-.05-.16.05-.26v-1.04l-.02-.16v-.42l-.02-.12v-.49l.13-.17.4-.03.2.04.1-.04.25.04h.37l.14-.03.25.02h.22l.18-.02.25.02h.38l.29-.04.11.02h.44s.13.07.13.07l-.04.14.05.29-.06.07.07.31-.02.13.04.21-.04.16.02.16-.02.13.05.14-.1.19.07.31v.36l.02.08-.03.16.05.23v.34l-.04.23.04.38v.13l-.04.16.07.22-.04.14.02.18v.38l.02.05-.02.28.04.17-.04.15.04.11v.62l-.16.08h-.2s-.2.05-.2.05l-.07-.05-.25.06h-.73l-.09.02h-.24l-.14-.02-.27.02h-.35l-.05-.02-.16.05-.27-.02h-.52s-.14-.1-.14-.1v-.28Zm2.48-3.54l-.15-.1-.08-.08-.1-.04-.03-.04-.21-.09-.1.04-.08-.04-.17-.02-.22.09-.11.04-.13.08-.08.06-.13.14-.04.03-.08.17-.04.05-.03.08-.03.13-.07.2v.17s-.04.12-.04.12l.05.25-.02.07.03.1.09.2v.08s.03.2.03.2l.1.07.13.15.04.04.07.04.06.06.28.11.15-.02.13.03h.19s.23-.1.23-.1l.17-.05.19-.2.06.04-.03.13-.02.16-.04.05-.03.13.03.05-.02.14-.11.2h-.02l-.08.06-.17.09h-.31l-.13.02-.16-.08-.11-.03-.1-.05-.04-.04-.08-.11-.02-.2-.18-.07-.12-.02-.14.07-.03.19.08.15.04.14.11.14.13.13.21.1.17.05h.11s.2-.02.2-.02l.04.04.24.03.06-.04.23-.06.11-.05.1-.02.07-.04.07-.02.19-.22.07-.22h.02s.04-.13.04-.13v-.14s0-.09,0-.09v-.02s.04-.16.04-.16l-.05-.11.02-.07v-.16s.02-.06.02-.06v-.25l-.02-.09-.03-.28.03-.05v-.22l.02-.18-.02-.12v-.25l-.02-.22.04-.34-.02-.14-.14-.04h-.2l-.05.04v.2s-.05.05-.05.05Zm-1.42,1.01v-.19l.06-.25.1-.25.08-.04.07-.09.16-.1h.15l.08-.02h.19s.16.04.16.04l.25.1.13.06v.11s-.03.06-.03.06l-.02.11.04.15-.04.17v.11l.02.16v.16l-.02.08v.14l.03.13.04.07-.04.07h-.1l-.19.09-.08.04-.19.04-.14-.02-.05.02-.17-.04-.17-.09-.12-.11-.07-.13-.06-.27h-.04s-.06-.22-.06-.22l.04-.1Z"/><path class="cls-2" d="m41.15,24.35v-.65l.02-.21.05-.05-.03-.32-.05-.14.02-.19.03-.07-.05-.16.06-.3-.04-.18v-.19l-.03-.11.07-.24-.02-.11.05-.17-.02-.1-.02-.23v-.25l-.04-.26.02-.14v-.39l.02-.3v-.19s0-.16,0-.16l-.04-.33.03-.19-.02-.19.02-.26-.03-.28.17-.13.17.02.19-.04.23.05.07-.04.25.04.32.03.18-.04h.07s.25.01.25.01h.75l.24.02.1-.03.27.02h.55l.04.05v.28l.02.11-.05.09.02.22v.28l.02.19-.04.05.02.23v.22l.05.13-.07.24.05.23-.03.26.05.12-.06.31.05.23v.29l-.04.22.02.34-.02.29.07.13-.05.26v.31l-.03.28.03.16v.11l.06.17-.05.26v.62s-.14.1-.14.1l-.15.02-.17-.03-.42.04h-.07s-.31.03-.31.03l-.16-.02h-1.82l-.33-.03-.2.02-.07-.11-.02-.24Zm3.23-1.13l.08-.03.06-.07v-.14s-.02-.12-.02-.12l-.08-.02-.17.04-.13-.04-.04-.13v-.16s-.01-.35-.01-.35l.04-.16-.03-.2.02-.16-.02-.13-.05-.15.02-.16-.07-.17-.02-.07-.07-.13-.11-.12-.13-.11-.11-.03-.13-.05-.16-.04-.2.03h-.27l-.27.02-.02.04-.16.04-.09.05-.17.15-.12.2v.07s-.05.08-.05.08v.13l.02.08.1.04h.06s.1.01.1.01l.12-.08.05-.07.06-.2.11-.13.2-.06.23-.02.28.02.11.09.13.08.08.13v.1l.04.09-.02.27.02.13.02.05-.03.04-.17-.07-.13-.04h-.24s-.07-.01-.07-.01h-.19s-.24-.01-.24-.01l-.06.03-.28.08-.13.04-.07.08-.02.04-.2.29v.26l.07.23.11.17.13.07.04.05.07.05.22.08.31.03h.17l.13-.05h.07s.1-.05.1-.05l.17-.05.1-.1h.05l.11-.11.04.04.03.12.05.1.11.07.11.02h.17s.08,0,.08,0h.14s0-.03,0-.03Zm-2.09-.71l.04-.19.08-.08.27-.07h.12l.26-.06v.04s.16-.02.16-.02l.08.04.15-.02h.14l.06.08-.04.21.04.15v.04l-.05.06-.14.02-.09.04-.1.02-.08.04-.22.03h-.17s-.16.01-.16.01l-.11-.04-.15-.07h0s-.1-.13-.1-.13v-.11Z"/><path class="cls-2" d="m44.82,24.44v-.36l-.04-.3v-.22l.05-.18-.02-.17-.05-.11.04-.23h0s.02-.16.02-.16l-.04-.1.05-.23-.04-.15v-.5l.04-.07-.02-.2v-.25l.02-.11-.05-.23v-.14s-.04-.26-.04-.26l.02-.16v-.57l.03-.22-.05-.29v-.94l-.04-.26.17-.11.22.03.07-.03.19.04.26-.05.19.04.17-.02h.19l.09-.04.4.05.38-.02h.61s.77-.01.77-.01l.14.05v.29l.02.07-.07.14.06.25v.32s-.04.13-.04.13l.06.3v.26s-.07.14-.07.14l.08.52-.03.04.05.2-.04.19.04.2v.22l.02.07-.04.29v.73l.04.13-.04.07.04.34-.04.28.04.15v.22l.05.16-.05.2.02.13v.62s0,.02,0,.02l-.13.04h-.1s-.48-.01-.48-.01l-.1.02h-.18s-.24.08-.24.08l-.32-.07-.28.04h-.18s-.24-.01-.24-.01l-.2.02h-.16l-.14-.04-.28.05h-.16s-.4-.01-.4-.01l-.13.02-.11-.11-.02-.23Zm2.83-1.24l.14-.06v-.06s.05-.11.05-.11l-.06-.18-.14-.02-.12.05-.13.02-.12-.02-.24.02-.09-.04h-.09s-.08-.12-.08-.12l-.07-.06-.02-.04-.07-.33v-.08l.04-.26-.04-.17.02-.05v-.27l.02-.08v-.16l-.07-.22.05-.08.19.11h.1s.15,0,.15,0l.26-.05.14.05.06-.03.3-.04.07-.06v-.15s-.03-.05-.03-.05l-.08-.08h-.07l-.17-.02-.13.04-.2-.04-.07.02-.11-.02-.34.03-.1.03-.05-.07.07-.14v-.53l-.02-.14.03-.16v-.15s-.08-.06-.08-.06h-.19l-.19.02v.15l.02.13-.04.14.03.17-.02.14v.17l.02.19.07.1-.07.06-.11-.06h-.31s-.28.01-.28.01h-.13s-.07.02-.07.02l-.02.12.02.13.04.08.28.02h.06s.1-.01.1-.01l.15.02.16-.02.12-.05.05.07-.07.07v.18s-.04.1-.04.1l.04.12-.03.06.04.15-.02.07v.84l.1.28.1.1.07.11.08.07.21.08.24.04.27.02.19-.05.11.03.11-.05Z"/><path class="cls-2" d="m48.38,23.61l-.04-.04v-.02s.07-.32.07-.32l-.07-.2.02-.21.04-.19-.02-.25.06-.07-.07-.3v-.32l.04-.08-.04-.46.06-.05-.05-.3v-.17l-.03-.13.02-.3v-.51l.02-.06v-.37l-.03-.17v-.22l.04-.08-.04-.27.02-.14h-.01s0-.25,0-.25l-.02-.12.14-.14h.09s.21-.01.21-.01l.18.04.24-.04.19.04h.38l.16-.04h.09s.28.02.28.02h.69l.17.04.24-.04h.71l.08.07v.34s-.04.12-.04.12l.04.22-.02.19.05.3-.04.15.02.17-.05.09.07.26-.07.13.07.4-.02.25.02.08-.03.1.05.4v.17l-.03.28v.35l-.03.37.06.16-.03.17v.34l-.05.14.05.2v.16s.03.12.03.12l-.05.2v.14s.01.69.01.69l-.02.02-.28.02h-.14l-.19-.03-.25.05h-.44l-.13-.03-.41.04-.22-.02h-.65l-.02-.03-.28.05h-.16s-.24-.01-.24-.01l-.05-.02-.23.03-.12-.11v-.99Zm1.15-1.39l-.12-.25.04-.05.11.02.08.04.24.03.05-.03.17.02.11-.05.13.02.26-.04.14.04.07-.02h.18s.09,0,.09,0l.14.02.07-.02h.11l.13-.08.04-.08-.04-.2v-.04s-.03-.18-.03-.18l-.04-.08-.04-.14-.08-.14-.25-.24-.08-.06-.08-.02-.11-.05-.16-.03-.05-.04-.13-.04-.08.03-.06-.03-.16-.02-.17.04-.06.04-.12.03-.26.12-.14.08-.08.14h-.03s-.05.08-.05.08l-.07.16-.1.14v.07s-.05.11-.05.11v.25l-.03.13.06.31v.12s0,.2,0,.2l.05.02.08.15.02.08.11.1.08.14.16.08.14.07.14.07.1.02h.12l.26.05h.12l.25-.05.1-.05h.05l.11-.04.2-.13.09-.1.13-.08.1-.22.02-.1-.04-.11-.1-.02-.04-.02h-.13l-.11.1h-.04s-.18.25-.18.25l-.18.05-.02.05-.2.07h-.16l-.43-.1-.04-.04-.13-.08-.08-.17h-.04s-.05-.13-.05-.13v-.1s-.03-.05-.03-.05Zm1.6-.66l.03.07-.04.05-.26-.08-.11.03-.16.02-.2-.02-.2-.02-.22.02h-.16s-.17,0-.17,0l-.14.05-.06-.02.02-.1.05-.07.07-.14.02-.07.07-.08.07-.1.3-.15.14-.04.07.02h.1l.3.05.2.15.11.14.1.18.08.12Z"/><path class="cls-2" d="m55.61,24.3l-.03-.05v-.74l.03-.07.02-.17-.07-.28.02-.21-.05-.11.07-.39-.08-.41.05-.28v-.47s-.02-.19-.02-.19v-.08s-.04-.27-.04-.27l.03-.21-.02-.26.02-.17v-.66l-.04-.22.04-.2-.04-.24.02-.1-.05-.44.17-.12h.39l.12.02.1-.04.22.05.25-.04.09.02.17-.06.26.04h.32l.2-.02h.4l.16.02.15-.03h.62l.06.03.19.05-.04.14.05.27-.05.15.05.22-.02.16.04.21-.04.14.03.18-.04.16.05.17v.02s-.08.07-.08.07l.08.33-.03.2.05.3-.02.17.02.13.02.25-.05.32.04.22v.49l.06.11-.05.25v.61l.03.11v.15s.05.11.05.11l-.04.3v.49l.02.19-.16.06h-.15l-.22.02-.17-.02-.2.04h-.11l-.15.05-.18-.04-.17-.02-.28.03h0s-.13.02-.13.02l-.34-.02h-.14s-.32.01-.32.01l-.14-.02-.2.04h-.24l-.29-.03h-.25l-.03-.07v-.38Zm3.24-2.42l-.06-.18-.1-.07-.08-.04-.21-.04-.12-.1-.11-.04-.19-.13h-.04s-.19-.04-.19-.04l-.14-.07-.03-.04-.17-.03-.12-.05-.09-.07-.08-.02-.11-.06-.22-.08-.1-.05-.17-.11h-.09s-.1-.07-.1-.07h-.12l-.08.02-.05.16.06.11-.02.06.08.11.25.11.08.04.11.02.16.07.02.03.16.05.08.05.13.03.23.15.14.05.11.07.07-.02.18.05.07.05.2.04.05.03.02.07h-.14s-.22.1-.22.1l-.22.07-.18.04-.1.1-.23.06-.05.04-.14.05-.15.11h-.03s-.21.1-.21.1h-.08s-.2.1-.2.1l-.09.05-.07.11-.05.17v.09s.07.06.07.06h.11l.12-.05.2-.1.14-.04.22-.13.23-.08.18-.13.09.02.11-.07.05-.02.08-.06.26-.09.14-.05.14-.1h.03s.2-.1.2-.1h.04s.19-.08.19-.08h.05l.04-.05.05-.13v-.05Z"/><path class="cls-2" d="m59.21,24.3l-.03-.05v-.74l.03-.07.02-.17-.07-.28.02-.21-.05-.11.07-.39-.08-.41.05-.28v-.47s-.02-.19-.02-.19v-.08s-.04-.27-.04-.27l.03-.21-.02-.26.02-.17v-.66l-.04-.22.04-.2-.04-.24.02-.1-.05-.44.17-.12h.39l.12.02.1-.04.22.05.25-.04.09.02.17-.06.26.04h.32l.2-.02h.4l.16.02.15-.03h.62l.06.03.19.05-.04.14.05.27-.05.15.05.22-.02.16.04.21-.04.14.03.18-.04.16.05.17v.02s-.08.07-.08.07l.08.33-.03.2.05.3-.02.17.02.13.02.25-.05.32.04.22v.49l.06.11-.05.25v.61l.03.11v.15s.05.11.05.11l-.04.3v.49l.02.19-.16.06h-.15l-.22.02-.17-.02-.2.04h-.11l-.15.05-.18-.04-.17-.02-.28.03h0s-.13.02-.13.02l-.34-.02h-.14s-.32.01-.32.01l-.14-.02-.2.04h-.24l-.29-.03h-.25l-.03-.07v-.38Zm3.24-2.42l-.06-.18-.1-.07-.08-.04-.21-.04-.12-.1-.11-.04-.19-.13h-.04s-.19-.04-.19-.04l-.14-.07-.03-.04-.17-.03-.12-.05-.09-.07-.08-.02-.11-.06-.22-.08-.1-.05-.17-.11h-.09s-.1-.07-.1-.07h-.12l-.08.02-.05.16.06.11-.02.06.08.11.25.11.08.04.11.02.16.07.02.03.16.05.08.05.13.03.23.15.14.05.11.07.07-.02.18.05.07.05.2.04.05.03.02.07h-.14s-.22.1-.22.1l-.22.07-.18.04-.1.1-.23.06-.05.04-.14.05-.15.11h-.03s-.21.1-.21.1h-.08s-.2.1-.2.1l-.09.05-.07.11-.05.17v.09s.07.06.07.06h.11l.12-.05.2-.1.14-.04.22-.13.23-.08.18-.13.09.02.11-.07.05-.02.08-.06.26-.09.14-.05.14-.1h.03s.2-.1.2-.1h.04s.19-.08.19-.08h.05l.04-.05.05-.13v-.05Z"/></g></g><g id="Catfish_or_Catfish_" class="cls-1"><g class="cls-1"><path class="cls-4" d="m7.88,4.19s-.1-.03-.16-.05-.14-.04-.22-.05-.18-.02-.31-.02c-.38,0-.74.08-1.08.23-.33.15-.63.38-.87.68-.25.3-.44.69-.58,1.15-.14.47-.21,1.01-.21,1.64,0,.59.07,1.11.22,1.55.15.44.35.82.62,1.12.26.3.58.53.95.68.37.15.78.23,1.23.23.26,0,.49-.02.69-.05.2-.03.37-.07.52-.11.15-.04.28-.07.39-.1s.21-.04.31-.04c.23,0,.4.06.52.19.12.13.17.31.17.55,0,.15-.02.29-.07.4-.05.12-.13.23-.24.34-.1.1-.24.2-.41.31-.18.11-.4.21-.66.3-.26.09-.56.16-.9.22-.34.06-.71.09-1.11.09-.81,0-1.54-.12-2.18-.36-.64-.24-1.19-.59-1.65-1.05-.46-.46-.81-1.02-1.05-1.68s-.36-1.4-.36-2.23c0-.91.15-1.74.45-2.49.3-.75.71-1.39,1.24-1.92.53-.53,1.16-.95,1.89-1.24.73-.29,1.54-.44,2.43-.44.6,0,1.09.05,1.47.16s.64.25.81.42c.07.07.12.13.17.21s.08.16.11.26.04.23.05.37c0,.14,0,.32,0,.53v.82c0,.16,0,.38-.02.64-.01.26-.09.46-.22.58-.14.13-.32.19-.55.19s-.42-.06-.55-.17-.25-.3-.34-.56l-.46-1.33Z"/><path class="cls-4" d="m16.04,8.22c0-.5-.1-.86-.31-1.06-.21-.21-.58-.31-1.1-.31-.33,0-.62.02-.86.06-.24.04-.45.08-.63.12-.18.04-.34.08-.48.12-.14.04-.26.06-.37.06-.22,0-.4-.07-.54-.21-.14-.14-.21-.32-.21-.54s.09-.42.26-.59c.1-.1.26-.21.47-.32.21-.12.48-.22.78-.31.31-.09.66-.17,1.05-.23s.81-.09,1.26-.09c1.23,0,2.12.24,2.66.72.54.48.81,1.19.81,2.12,0,.59,0,1.18-.02,1.76s0,1.22.05,1.92l.49.1c.24.05.41.14.5.25s.14.29.14.51-.05.41-.16.54-.27.24-.5.33c-.24.09-.52.16-.84.2s-.64.07-.96.07c-.44,0-.76-.09-.96-.28-.2-.19-.3-.46-.3-.82v-.08l-.03-.02c-.12.24-.29.45-.51.63-.19.17-.44.31-.75.44-.31.13-.7.19-1.15.19-.42,0-.8-.06-1.15-.19s-.65-.3-.89-.53c-.25-.23-.44-.5-.57-.81-.13-.31-.2-.65-.2-1,0-.32.08-.62.23-.92.15-.29.38-.55.69-.76.31-.21.71-.39,1.19-.51.49-.13,1.07-.19,1.74-.19.16,0,.31,0,.44.02s.25.02.36.03c.11.01.22.02.33.03v-.42Zm-.03,1.88c-.06-.01-.13-.03-.21-.05-.08-.01-.17-.02-.27-.02s-.22,0-.34,0c-.45,0-.77.06-.97.18s-.3.3-.3.53.08.41.25.56c.16.15.39.23.68.23.19,0,.35-.02.49-.07.14-.05.26-.11.36-.17.12-.08.23-.17.31-.26v-.91Z"/><path class="cls-4" d="m21.38,6.88h-.36c-.58,0-.87-.26-.87-.77,0-.33.09-.59.27-.77.18-.19.44-.28.77-.28h.3l.31-1.1c.12-.43.29-.73.52-.91.23-.18.54-.26.93-.26.3,0,.52.08.68.24.16.16.24.38.24.65v1.38h1.14c.58,0,.87.26.87.77,0,.33-.09.59-.27.77-.18.19-.45.28-.8.28h-.94v3.21c0,.53.07.89.21,1.08.14.19.34.29.6.29.17,0,.3-.01.4-.03s.21-.03.32-.03c.16,0,.3.06.4.17.1.11.16.26.16.46,0,.17-.03.31-.09.43s-.15.24-.26.35c-.12.11-.34.24-.66.39-.32.15-.77.22-1.37.22-.88,0-1.52-.23-1.91-.69-.4-.46-.59-1.15-.59-2.06v-3.78Z"/><path class="cls-4" d="m27.96,6.88h-.44c-.57,0-.86-.26-.86-.77,0-.33.09-.59.27-.77.18-.19.43-.28.75-.28h.28v-.31c0-1.09.32-1.94.96-2.55.64-.61,1.59-.92,2.84-.92.35,0,.66.04.92.11.26.07.44.16.55.27.05.05.1.11.12.16.03.05.05.11.07.18.02.07.04.16.05.27.01.11.02.25.02.41v.41c0,.09,0,.22-.02.4-.02.25-.1.43-.23.54s-.3.16-.51.16c-.2,0-.36-.05-.49-.15-.13-.1-.23-.25-.3-.46l-.18-.51s-.05,0-.08-.02c-.02,0-.05,0-.09,0-.04,0-.09,0-.14,0-.24,0-.43.08-.55.23-.13.15-.18.43-.17.84l.02.96h.89c.58,0,.87.26.87.77,0,.33-.09.59-.28.77-.19.19-.46.28-.81.28h-.68v4.6l.66.21c.26.09.44.19.54.3.09.12.14.28.14.48,0,.24-.08.44-.25.6-.16.16-.4.24-.69.24h-3.46c-.31,0-.54-.08-.71-.24-.17-.16-.25-.36-.25-.6,0-.22.05-.38.15-.49.1-.11.27-.21.53-.31l.56-.2v-4.6Z"/><path class="cls-4" d="m34.27,7.01l-.58-.16c-.25-.07-.43-.16-.54-.27-.1-.12-.16-.29-.16-.52,0-.24.05-.43.16-.55.1-.13.28-.23.52-.3.23-.08.52-.14.87-.2.35-.05.71-.08,1.1-.08.53,0,.9.11,1.1.32.21.21.31.59.31,1.12v5.12l.51.18c.24.09.41.19.49.3s.13.28.13.48c0,.25-.08.46-.25.62-.16.16-.4.25-.71.25h-3.25c-.31,0-.54-.08-.71-.24-.17-.16-.25-.36-.25-.6,0-.22.05-.38.15-.49.1-.11.27-.21.53-.31l.56-.2v-4.47Zm-.25-4.2c0-.44.15-.8.45-1.1s.69-.44,1.16-.44.87.14,1.15.42.43.64.43,1.08-.15.79-.45,1.09c-.3.3-.69.44-1.17.44s-.85-.14-1.15-.42c-.29-.28-.44-.64-.44-1.08Z"/><path class="cls-4" d="m40.94,11.59c.09.04.19.08.31.1.11.02.24.04.39.07.15.02.32.03.5.03.43,0,.72-.06.88-.19.16-.13.24-.29.24-.49,0-.21-.1-.38-.3-.5-.2-.13-.46-.24-.77-.35s-.64-.21-1.01-.33c-.36-.12-.7-.27-1.01-.47-.31-.2-.57-.45-.77-.75-.2-.3-.3-.69-.3-1.16,0-.37.07-.73.22-1.06s.38-.62.71-.86.73-.42,1.23-.56c.49-.14,1.08-.21,1.78-.21s1.19.05,1.55.16.62.22.75.35c.1.1.17.21.21.34.04.13.07.31.07.55v.4c0,.11,0,.22-.02.34-.02.22-.1.38-.23.5-.13.11-.31.17-.53.17s-.4-.05-.53-.15c-.13-.1-.23-.25-.3-.45l-.13-.35c-.09-.02-.19-.05-.31-.08-.1-.02-.21-.04-.34-.06s-.28-.02-.44-.02c-.38,0-.64.05-.78.17-.14.11-.2.25-.2.43,0,.2.1.35.31.47.21.12.47.22.77.32.31.1.64.21,1,.32.36.12.69.27,1,.47.31.2.56.45.77.77.21.31.31.72.31,1.21,0,.38-.08.75-.24,1.08-.16.33-.41.63-.74.88-.33.25-.76.45-1.27.59-.52.14-1.13.21-1.84.21s-1.24-.06-1.63-.17c-.38-.12-.64-.24-.77-.37-.1-.1-.17-.21-.21-.34-.04-.13-.07-.31-.07-.54v-.43c0-.1,0-.2.02-.31.02-.24.1-.42.23-.54s.31-.17.53-.17.4.05.53.15c.13.1.23.25.3.44l.15.38Z"/><path class="cls-4" d="m47.92,3.42l-.48-.13c-.25-.08-.43-.18-.53-.3-.1-.12-.15-.3-.15-.53s.05-.43.15-.55c.1-.13.27-.23.51-.31.22-.08.5-.14.85-.19.34-.05.68-.07,1.01-.07.52,0,.89.1,1.11.31s.32.58.32,1.1v1.68c0,.24-.01.5-.03.76s-.06.52-.1.76l.03.02c.14-.2.32-.38.53-.54.19-.13.43-.25.73-.37.3-.12.67-.17,1.11-.17,1,0,1.77.26,2.29.79.52.53.79,1.32.79,2.38v3.42l.48.18c.25.1.43.2.52.32.09.11.14.28.14.5,0,.24-.08.44-.25.6-.17.16-.4.24-.69.24h-3c-.31,0-.54-.08-.71-.24-.16-.16-.25-.36-.25-.6,0-.21.04-.37.12-.48.08-.11.23-.23.45-.35l.4-.16v-2.84c0-.63-.11-1.07-.33-1.32s-.54-.38-.95-.38c-.21,0-.39.03-.55.1-.15.07-.29.14-.4.23-.13.1-.24.21-.33.33v3.89l.4.16c.22.12.37.24.45.35.08.12.12.28.12.48,0,.24-.08.44-.25.6-.16.16-.4.24-.71.24h-2.99c-.3,0-.53-.08-.69-.24-.16-.16-.25-.36-.25-.6,0-.22.04-.38.13-.5s.25-.22.49-.32l.49-.18V3.42Z"/></g><g class="cls-1"><path class="cls-2" d="m61.99,9.43c0-.68.11-1.3.33-1.87s.53-1.05.94-1.44c.41-.4.9-.7,1.48-.92.58-.22,1.23-.33,1.94-.33,1.33,0,2.36.36,3.09,1.07.73.71,1.1,1.71,1.1,2.98,0,.68-.11,1.31-.32,1.87-.21.57-.52,1.05-.93,1.44-.41.4-.9.7-1.48.92-.58.22-1.24.33-1.96.33-1.34,0-2.37-.36-3.1-1.07-.73-.71-1.09-1.71-1.09-2.98Zm2.87-.28c0,.41.04.76.13,1.07s.2.56.35.76c.14.2.31.34.51.44.2.09.4.14.61.14.44,0,.81-.18,1.1-.54s.44-.96.44-1.8c0-.42-.04-.78-.13-1.09s-.2-.56-.35-.76c-.14-.2-.31-.34-.51-.44-.2-.09-.41-.14-.63-.14-.43,0-.79.18-1.09.54-.3.36-.44.97-.44,1.81Z"/><path class="cls-2" d="m73,7.01l-.58-.16c-.25-.07-.43-.16-.54-.27-.1-.12-.16-.29-.16-.52,0-.24.05-.43.16-.55.1-.13.28-.23.52-.3.23-.08.52-.14.86-.2.34-.05.68-.08,1.01-.08.45,0,.77.09.96.27.19.18.28.48.28.88v.41l.03.02c.09-.24.2-.46.35-.67.14-.2.3-.38.49-.53.18-.15.38-.27.61-.35.23-.09.47-.13.73-.13.33,0,.57.09.72.26s.22.44.22.79c0,.27-.03.52-.09.75s-.14.42-.24.58c-.1.16-.21.28-.34.36-.13.08-.26.12-.39.12-.08,0-.15-.02-.21-.05s-.13-.07-.18-.1c-.06-.03-.11-.06-.17-.09-.06-.03-.14-.04-.24-.04-.22,0-.41.05-.58.16s-.31.22-.42.35v3.56l.66.21c.26.09.44.19.54.3.09.12.14.28.14.48,0,.24-.08.44-.25.6-.16.16-.4.24-.69.24h-3.46c-.31,0-.54-.08-.71-.24-.17-.16-.25-.36-.25-.6,0-.22.05-.38.15-.49.1-.11.27-.21.53-.31l.56-.2v-4.47Z"/></g><g class="cls-1"><path class="cls-3" d="m90.79,4.13s-.08-.03-.13-.05c-.04-.01-.1-.02-.17-.02-.07,0-.16,0-.26,0-.56,0-1.06.14-1.5.41-.44.28-.82.64-1.13,1.1-.31.46-.55.99-.72,1.59-.17.6-.25,1.22-.25,1.85,0,.76.21,1.34.62,1.75s.98.62,1.71.62c.26,0,.5-.02.72-.05.21-.03.4-.07.57-.1.17-.03.31-.07.44-.1.13-.03.24-.05.34-.05.19,0,.33.05.43.16.1.1.15.25.15.45,0,.3-.13.57-.38.82-.12.12-.28.24-.48.35-.2.11-.43.21-.71.31-.27.09-.58.17-.92.22-.34.06-.7.08-1.09.08-.71,0-1.35-.09-1.9-.28-.55-.19-1.01-.46-1.38-.81s-.65-.78-.83-1.29-.28-1.09-.28-1.74c0-.9.15-1.79.46-2.66.31-.87.76-1.65,1.34-2.33s1.31-1.23,2.16-1.66,1.83-.63,2.93-.63c.59,0,1.08.05,1.45.16s.64.23.79.39c.07.07.12.15.16.24.04.09.06.22.06.39,0,.12-.01.26-.03.42s-.06.35-.1.58c-.06.3-.1.53-.12.71s-.07.37-.12.59c-.07.25-.17.43-.3.54-.14.11-.32.17-.55.17-.43,0-.68-.26-.76-.77l-.2-1.35Z"/><path class="cls-3" d="m100.74,10.57c-.06.35-.04.57.05.67.09.09.19.14.3.14s.19-.01.25-.03c.06-.02.13-.03.21-.03.15,0,.27.05.36.16.09.11.13.25.13.42,0,.22-.06.42-.17.61-.12.18-.27.34-.48.47-.2.13-.44.24-.72.31-.27.07-.57.11-.89.11-.52,0-.91-.12-1.19-.36-.28-.24-.44-.58-.47-1.02l-.03-.02c-.15.29-.35.53-.59.74-.21.19-.47.36-.79.51-.32.15-.7.23-1.15.23-.84,0-1.5-.26-1.99-.79-.49-.53-.74-1.3-.74-2.32,0-.6.1-1.23.31-1.88.21-.65.54-1.24.98-1.77.45-.53,1.02-.97,1.73-1.32.71-.35,1.57-.52,2.58-.52.5,0,.97.05,1.4.16.43.1.77.24,1.02.4.23.14.4.3.5.48.1.18.12.44.06.76l-.66,3.9Zm-2.09-3.63c-.05-.02-.12-.05-.2-.08-.07-.02-.15-.04-.24-.07-.09-.02-.2-.03-.32-.03-.38,0-.72.1-1,.31-.28.2-.52.46-.7.77-.18.31-.31.65-.39,1.03-.08.38-.12.75-.12,1.1,0,.54.09.92.27,1.15.18.23.4.35.66.35.2,0,.38-.05.56-.14.17-.09.32-.19.44-.29.16-.13.3-.29.41-.46l.63-3.63Z"/><path class="cls-3" d="m103.66,6.88c-.52,0-.77-.25-.77-.74,0-.33.1-.59.31-.79.21-.2.49-.3.86-.3h.31l.41-1.02c.19-.46.41-.79.68-.97.26-.19.59-.28.97-.28.33,0,.56.08.69.25.13.17.17.4.12.71l-.23,1.32h1.02c.54,0,.81.25.81.74,0,.33-.1.59-.31.79-.21.2-.49.3-.86.3h-.96l-.59,3.36c-.04.24-.06.44-.06.6s.03.28.08.37c.05.09.12.15.2.19.08.04.19.06.32.06.17,0,.3-.02.4-.05s.21-.05.32-.05c.32,0,.48.18.48.53,0,.19-.05.37-.15.54-.1.18-.25.34-.46.48-.21.14-.47.26-.78.35-.31.09-.68.14-1.1.14-.44,0-.81-.07-1.1-.2s-.52-.32-.68-.57c-.17-.25-.27-.55-.31-.9s-.03-.75.05-1.19l.64-3.68h-.31Z"/><path class="cls-3" d="m109.89,6.88c-.54,0-.81-.25-.81-.74,0-.33.11-.59.32-.79.21-.2.5-.3.85-.3h.33l.05-.28c.09-.53.25-1.01.49-1.44.24-.43.56-.81.96-1.12.4-.31.88-.56,1.44-.73.56-.18,1.21-.26,1.95-.26.98,0,1.71.17,2.21.51.49.34.74.75.74,1.24,0,.37-.13.67-.39.88-.26.21-.55.32-.88.32-.18,0-.32-.06-.45-.19-.12-.13-.25-.27-.38-.42-.13-.15-.29-.29-.49-.42-.19-.13-.45-.19-.78-.19-.48,0-.86.12-1.13.35-.27.24-.44.58-.52,1.03l-.13.73h3.74c.46,0,.78.11.96.32.18.21.23.54.16.98l-.73,4.22c-.07.35-.05.57.04.67.09.09.2.14.31.14s.19-.01.25-.03c.06-.02.13-.03.21-.03.15,0,.27.05.36.16.09.11.13.25.13.42,0,.22-.06.42-.18.61s-.29.34-.49.47c-.21.13-.45.24-.73.31-.28.07-.59.11-.93.11s-.62-.04-.87-.12c-.25-.08-.46-.2-.61-.38s-.26-.41-.32-.69c-.06-.29-.05-.63.02-1.04l.73-4.33h-2.34l-1.14,6.59c-.12.66-.29,1.23-.5,1.7-.21.47-.48.86-.79,1.17-.31.31-.67.53-1.08.68-.41.14-.85.21-1.33.21-.67,0-1.19-.14-1.55-.43-.36-.29-.54-.64-.54-1.06,0-.33.1-.58.3-.77.2-.18.44-.27.72-.27.11,0,.21.04.29.12.08.08.17.17.26.26.09.1.18.19.28.26.1.08.23.12.38.12.16,0,.3-.07.41-.22.11-.15.2-.4.26-.75l1.32-7.57h-.38Z"/><path class="cls-3" d="m119.86,7.67c0-.37.08-.73.24-1.06s.4-.63.73-.89c.32-.26.73-.46,1.21-.62.48-.15,1.04-.23,1.67-.23.44,0,.82.04,1.14.12.32.08.58.19.78.33.2.14.35.29.45.47.1.18.15.36.15.54,0,.3-.1.54-.29.74-.19.2-.44.3-.73.3-.13,0-.24-.04-.34-.12-.09-.08-.2-.17-.32-.27-.12-.1-.27-.2-.45-.28s-.41-.13-.69-.13-.51.06-.64.18c-.13.12-.2.26-.2.42,0,.19.08.34.25.47.17.13.37.25.6.36s.5.24.78.37c.29.13.55.29.78.49.24.19.43.43.59.71s.24.63.24,1.05c0,.38-.09.75-.26,1.1-.17.35-.42.65-.76.92-.34.26-.76.48-1.26.63s-1.09.24-1.75.24c-.45,0-.84-.04-1.16-.13s-.59-.2-.8-.35c-.21-.14-.36-.3-.45-.49-.09-.18-.14-.37-.14-.55,0-.3.09-.55.28-.76.19-.21.43-.31.74-.31.13,0,.25.05.35.14.1.09.21.2.34.31.13.12.28.22.47.3.19.09.44.13.76.13s.55-.06.71-.19c.15-.13.23-.29.23-.49s-.08-.36-.24-.49-.36-.26-.6-.39c-.24-.13-.5-.25-.78-.38s-.54-.29-.78-.48-.44-.42-.6-.69c-.16-.27-.24-.61-.24-1.01Z"/><path class="cls-3" d="m128.04,3.29c-.2-.05-.34-.13-.44-.24-.09-.1-.14-.24-.14-.42,0-.25.07-.46.21-.63.14-.16.34-.3.62-.4.25-.09.53-.15.82-.2.3-.04.6-.07.92-.07.48,0,.83.09,1.03.26.2.18.3.43.3.78,0,.08-.01.19-.03.35-.02.15-.05.33-.07.52s-.06.39-.1.6c-.04.21-.08.41-.12.61-.07.3-.14.57-.22.82-.08.25-.17.52-.27.79l.03.02c.15-.22.35-.42.59-.61.21-.15.47-.29.78-.41.31-.12.68-.18,1.11-.18.8,0,1.41.21,1.82.63.41.42.62,1.03.62,1.82,0,.25-.03.55-.08.89s-.12.68-.19,1.03c-.07.35-.13.67-.19.97-.06.3-.08.54-.08.7,0,.18.03.3.1.36.07.07.15.1.26.1s.19-.01.26-.03c.06-.02.13-.03.22-.03.14,0,.26.05.35.16.09.11.13.25.13.42,0,.22-.06.42-.17.61s-.28.34-.49.47-.45.24-.73.31c-.27.07-.57.11-.89.11-.62,0-1.07-.13-1.38-.4s-.45-.67-.45-1.21c0-.21.02-.48.07-.81.05-.33.1-.68.16-1.04.06-.36.11-.72.16-1.06.05-.35.07-.65.07-.9,0-.38-.06-.66-.19-.82-.13-.16-.31-.25-.57-.25-.21,0-.4.05-.57.14-.17.09-.32.2-.45.3-.15.13-.29.27-.41.43l-.75,4.33c-.14.86-.68,1.29-1.62,1.29-.46,0-.77-.11-.94-.33s-.22-.53-.14-.94l1.5-8.7-.46-.13Z"/><path class="cls-3" d="m137.4,11.99c0-.47.16-.87.49-1.2.32-.32.73-.49,1.23-.49.45,0,.82.14,1.1.43s.43.64.43,1.07c0,.48-.17.88-.49,1.2s-.74.48-1.22.48c-.45,0-.82-.14-1.1-.42s-.43-.64-.43-1.08Zm.66-3.63c0-.37.07-.7.21-.99.14-.29.31-.54.51-.77.2-.23.43-.43.67-.63.24-.19.46-.38.67-.58.2-.19.37-.39.51-.6s.21-.45.21-.73c0-.24-.08-.43-.24-.58-.16-.14-.42-.21-.78-.21-.16,0-.31.01-.44.03-.13.02-.24.05-.35.07-.1.03-.21.05-.31.08-.1.03-.2.04-.31.04-.2,0-.36-.07-.48-.2-.12-.13-.18-.3-.18-.51,0-.16.04-.3.12-.42.08-.12.17-.22.28-.32.24-.21.59-.39,1.05-.55s1.02-.24,1.71-.24c.47,0,.89.06,1.25.17.36.12.66.27.91.47s.43.43.55.71.19.57.19.87c0,.45-.07.84-.22,1.15-.15.32-.34.6-.56.84-.23.24-.47.46-.73.65-.26.19-.5.39-.73.59-.23.2-.41.41-.56.65-.15.24-.22.51-.22.83v.4c0,.35-.13.61-.38.77s-.59.24-1.02.24-.74-.1-.97-.31c-.23-.21-.35-.52-.35-.94Z"/></g></g><rect class="cls-2" x="8.98" y="17.88" width="4.24" height="6.67"/><rect class="cls-2" x="52.21" y="17.94" width="3.43" height="6.81"/></svg>