<?xml version="1.0" encoding="UTF-8"?><svg id="Layer_1" xmlns="http://www.w3.org/2000/svg" viewBox="0 0 285.77 131.97"><defs><style>.cls-1{stroke:#182a42;stroke-miterlimit:10;stroke-width:1.5px;}.cls-1,.cls-2{fill:#182a42;}.cls-3{fill:#95a1c6;}.cls-3,.cls-2,.cls-4{stroke-width:0px;}.cls-4{fill:#ffeadc;}</style></defs><path class="cls-4" d="m191.23,60.55c-.09,2.09,1.5,3.36,3.48,2.88,4.95-1.19,9.88-2.5,14.65-4.28,2.32-.87,4.01-.76,5.68,1.27,1.32,1.61,2.72,3.11,3.61,5.02.67,1.43,1.72,2.63,2.38,4.1.67,1.49,3.5,1.37,4.44-.19,1.12-1.85,2.47-3.5,3.79-5.2,1.48-1.9,3.12-3.59,5.05-5.04,1.01-.76,1.91-1.71,2.75-2.67,2.92-3.36,6.33-6.29,8.52-10.26.34-.61.91-1.12,1.47-1.57,5.44-4.39,9.94-9.62,13.87-15.38,2.56-3.75,5.26-7.37,8.57-10.55,3.74-3.58,7.18-7.45,10.3-11.6.52-.7,1.24-1.24,1.82-1.9.81-.92.96-2.41.38-3.32-.68-1.08-1.32.31-2.81.73-1.6.45-3.73-.84-5.12.14-1.87-.73-3.61.15-5.32.6-2.97.78-6.03.16-9.01.87-2.61.62-5.32.86-7.99,1.19-2.2.28-3.67,1.89-5.9,2-2.21.12-3.55.55-5.75.81-3.23.38-8.03-.52-11.26-.1-2.59.34-5.19.69-7.76,1.17-.87.16-1.73.25-2.6.26-8.05.08-16.09.57-24.15.61-2.63.02-5.41-.02-8.04.73-.52.15-1.16.17-1.66,0-2.37-.78-4.52-.04-6.73.7-1.93.65-3.94.49-5.9.08-.96-.2-1.91-.26-2.85-.18-1.6.13-2.72,1.12-2.89,2.38-.21,1.59.22,2.13,2.05,2.99,1.88.89,3.77,1.62,5.85,1.99,2.42.43,4.39,1.96,6.11,3.6,2.61,2.49,5.36,4.76,8.41,6.67,1.16.73,1.6,1.59,1.58,2.94-.08,5.66.84,11.22,1.74,16.8.58,3.61.26,7.31-.52,10.93-.07.31-.18.61-.23.76Z"/><path class="cls-1" d="m283.34.76c-7.58,1.08-15.01,1.61-22.32,2.97-15.67,2.91-31.46,4.48-47.41,4.69-9.91.13-19.82.54-29.71,1.04-4.54.23-9.05.97-13.57,1.52-1.51.18-3.02.31-4.54.33-.96.01-1.92.1-2.86.23-.56.08-1.08.34-1.19,1.01-.1.63.17,1.11.72,1.38,3.53,1.74,6.43,4.46,9.88,6.33,5.5,2.99,10.32,6.97,15.28,10.75,1.53,1.16,2.06,2.56,2.18,4.5.54,8.87-.1,17.75.25,26.62.06,1.43-.05,2.86-.3,4.29-.22,1.23.3,1.65,1.52,1.33,1.31-.34,2.65-.7,3.85-1.3,4.1-2.03,8.49-3.27,12.73-4.93,2.49-.98,4.6-.92,6.5,1.48,2.33,2.94,4.92,5.68,6.98,8.83,1.29,1.98,1.63,2.04,3.49.47.67-.56,1.39-1.12,1.89-1.83,3.87-5.53,8.82-10.12,13.29-15.12,11.3-12.63,22.65-25.21,33.43-38.3,3.2-3.89,6.53-7.67,9.79-11.51.67-.79,1.39-1.57,1.68-2.6.44-1.57-.14-2.26-1.54-2.19Zm-59.85,69.45c-.78-.23-.96-.71-1.24-1.09-2.87-3.96-5.99-7.68-9.54-11.06-2.95-2.81-5.83-5.7-8.45-8.84-1.16-1.39-1.13-1.58.29-2.6.39-.28.81-.51,1.22-.77,11.51-7.52,23.02-15.05,34.52-22.58.6-.39,1.19-.81,1.75-1.26.46-.37.75-.86.57-1.47-.2-.68-.68-1.09-1.41-1.07-1.04.03-2.09.03-3.1.19-7.81,1.28-15.53,3-23.08,5.4-7.16,2.28-14.48,3.95-21.74,5.88-1.27.34-2.2.1-3.25-.8-5.42-4.62-10.99-9.04-17.23-12.53-1.46-.82-2.82-1.81-4.21-2.75-.31-.21-.73-.38-.68-.88.11-.09.21-.26.32-.27,7.57-.55,15.03-2.14,22.66-2.05,8.4.1,16.77-.86,25.16-.87,11.38-.01,22.65-1.21,33.91-2.71,8.16-1.09,16.19-2.98,24.38-3.82,2.34-.24,4.65-.85,7.27-.7-.48,1.11-1.19,1.75-1.8,2.45-4.51,5.09-8.96,10.22-13.32,15.44-8.96,10.75-18.42,21.07-27.7,31.54-4.56,5.14-9.66,9.8-13.64,15.46-.45.64-1.08,1.16-1.66,1.76Zm-30.58-8c-.49-.34-.41-.67-.43-.97-.35-8.38.22-16.78-.44-25.16-.18-2.23-.03-2.23,2.19-2.82,6.25-1.66,12.58-3.02,18.74-4.98,6.62-2.11,13.35-3.83,20.13-5.33,1.18-.26,2.37-.74,3.68-.55-.18.79-.8.93-1.24,1.22-1.13.75-2.31,1.43-3.46,2.15-9.86,6.22-19.39,12.98-29.38,19-.93.56-1.56,1.3-1.99,2.3-1.91,4.4-4.17,8.63-6.37,12.89-.39.76-.65,1.63-1.44,2.25Zm16.46-3.86c-4.72,1.7-9.06,3.26-13.9,5,2.09-4.3,3.93-8.07,5.77-11.83.4-.82.98-.71,1.51-.16,2.14,2.23,4.25,4.48,6.61,6.98Z"/><path class="cls-2" d="m161.05,92.5c1.49-1.14,2.62-2.23,3.79-3.23,1.1-.95,2.14-1.87,3.32-2.75.24-.18,1.22.24,1.49.64.28.4.35,1.42.08,1.64-2.07,1.69-4.43,3.09-6.81,4.27-.41.22-.81.52-1.25.59-.2.03-.56-.32-.68-.58-.1-.22.05-.54.06-.57Z"/><path class="cls-2" d="m154.8,96.17c.02,1.03-.77,1.23-1.4,1.5-1.35.57-2.82.84-4.26,1.11-.99.19-2.04.09-2.97.38-.7.21-1.13-.02-1.52-.8-.05-.1.03-.38.11-.41,2.18-.82,4.27-1.29,6.34-2.32.41-.2.79-.46,1.18-.72.77-.5,2.04-.02,2.52,1.25Z"/><path class="cls-2" d="m175.92,81.14c.89-1.03,2.48-2.62,3.08-3.37.59-.72,1.08-1.54,1.75-2.15.33-.3,1.01-.31,1.54-.28.16,0,.32.61.47.94.64,1.4-.58,1.86-1.31,2.55-.77.75-3.21,2.3-3.98,3.04-.9.87-1.21.74-1.64-.46-.06-.17.14-.42.08-.27Z"/><path class="cls-2" d="m110.27,100.29c1.87-.2,3.42-.51,4.99-.67,1.46-.15,2.92-.24,4.38-.2.29.01.8.94.78,1.42-.03.49-.6,1.34-.95,1.34-2.65.03-5.27-.19-7.9-.43-.46-.05-.95,0-1.37-.16-.18-.07-.31-.56-.28-.84.03-.23.33-.43.35-.46Z"/><path class="cls-2" d="m103.02,100.07c-.58.85-1.4.56-2.1.37-1.5-.41-2.86-1.26-4.05-2.24-.83-.67-1.42-1.6-2.2-2.25-.59-.49-.63-1-.16-1.73.06-.09.34-.17.41-.12,1.8,1.37,3.4,2.75,5.57,3.32.42.12.87.14,1.31.17.85.07,1.53,1.15,1.22,2.47Z"/><path class="cls-2" d="m129.03,99.7c1.32-.31,3.55-.67,4.48-.91.91-.23,1.8-.58,2.73-.66.45-.04,1,.38,1.4.73.12.11-.13.67-.22,1.03-.37,1.49-1.58,1.1-2.58,1.22-1.06.13-3.93-.06-4.98.09-1.24.18-1.41-.11-1.06-1.33.05-.17.36-.27.22-.17Z"/><path class="cls-2" d="m92.09,62.57c-.62,1.77-.95,3.3-1.36,4.78-.38,1.38-.77,2.76-1.21,4.1-.09.26-1.13.49-1.58.34-.47-.16-1.11-.95-1.01-1.3.75-2.61,1.96-5.04,3.29-7.36.24-.4.41-.87.73-1.18.14-.14.65-.04.88.11.2.13.25.48.27.51Z"/><path class="cls-2" d="m95.46,56.15c-.51-.87.05-1.47.5-2.02.97-1.19,2.25-2.08,3.47-2.9.86-.57,1.82-.86,2.6-1.54.58-.5,1.06-.47,1.67.13.08.08.1.38.04.44-1.58,1.63-3.44,2.85-4.81,4.63-.27.35-.48.76-.69,1.14-.41.75-1.72.98-2.79.12Z"/><path class="cls-2" d="m88.04,80.29c.43,1.24,1.24,3.28,1.73,4.07.47.78,1.06,1.49,1.43,2.3.18.4-.02,1.05-.2,1.54-.05.15-.67.13-1.03.18-1.53.19-1.62-1.13-2.04-2.07-.49-1.01-1.03-3.93-1.28-5.02-.36-1.28-.04-1.46,1.2-1.2.17.04.3.32.19.2Z"/><path class="cls-2" d="m130.56,61.13c-.57-.9-1.18-1.63-1.74-2.22-.52-.6-.95-1.11-1.39-1.62-.95-1.14-1.78-2.2-2.61-3.27-.16-.21.2-1.23.55-1.55.37-.33,1.37-.45,1.62-.16.72.86,1.39,1.84,1.94,2.76.57.93,1.08,1.86,1.6,2.8.25.46.49.94.71,1.42.19.44.48.87.52,1.34.02.2-.37.54-.63.62-.22.07-.53-.1-.56-.11Z"/><path class="cls-2" d="m133.2,67.84c1.01.15,1.1.93,1.28,1.57.39,1.46.42,2.98.42,4.45,0,1.02-.29,2.04-.19,3.01.07.73-.25,1.11-1.09,1.33-.11.03-.37-.11-.38-.2-.37-2.29-.42-4.43-1.1-6.61-.14-.43-.35-.84-.54-1.24-.39-.84.26-2.06,1.6-2.32Z"/><path class="cls-2" d="m117.95,48.4c-1.29-.26-3.41-.6-4.3-.58-.86,0-1.69.17-2.52.11h-.05c-.42-.04-.94-.54-1.36-.95-.13-.13.08-.7.17-1.03.15-.66.52-.91.98-.97.54-.07,1.18.13,1.75.19.56.06,1.6.32,2.59.64,1,.32,1.96.7,2.5.84,1.27.35,1.3.68.5,1.68-.11.14-.42.11-.27.07Z"/><path class="cls-2" d="m116.39,106.02c1.35-1.32,2.4-2.5,3.53-3.58,1.06-1.01,2.16-1.98,3.28-2.85.22-.17,1.21.21,1.5.59.3.39.4,1.42.12,1.65-2.08,1.72-4.29,3.12-6.52,4.55-.39.24-.74.59-1.17.71-.19.06-.59-.25-.74-.49-.12-.2-.01-.54-.01-.58Z"/><path class="cls-2" d="m110.81,110.64c.22.99-.48,1.36-1.03,1.76-1.17.84-2.51,1.44-3.81,2.07-.89.43-1.91.64-2.72,1.18-.6.41-1.07.32-1.68-.3-.08-.08-.09-.37-.02-.43,1.83-1.46,3.73-2.48,5.53-3.98.36-.3.67-.65,1-.98.66-.66,2.01-.47,2.73.68Z"/><path class="cls-2" d="m129.43,93.04c.45-1.26,1.17-3.35,1.33-4.28.17-.9.2-1.83.45-2.67.13-.42.7-.77,1.16-1.02.14-.08.59.34.9.54,1.29.86.47,1.93.16,2.91-.3,1.08-1.82,3.61-2.27,4.59-.51,1.19-.86,1.16-1.69.2-.12-.13-.04-.44-.03-.28Z"/><path class="cls-2" d="m69.21,126.65c1.77-.66,3.24-1.26,4.73-1.76,1.41-.45,2.82-.83,4.23-1.11.28-.06.99.74,1.07,1.21.08.48-.29,1.44-.63,1.52-1.3.31-2.61.53-3.91.72-1.3.2-2.6.37-3.9.54-.45.06-.91.22-1.35.17-.19-.03-.44-.47-.47-.75-.03-.23.21-.5.23-.53Z"/><path class="cls-2" d="m62.25,128.63c-.19,1-.98,1.06-1.64,1.2-1.4.31-2.87.35-4.32.42-.99.05-2.01-.15-2.96.02-.71.14-1.11-.13-1.43-.94-.04-.1.07-.38.15-.4,2.26-.62,4.4-.82,6.64-1.49.45-.14.87-.34,1.3-.51.87-.35,2.03.36,2.24,1.71Z"/><path class="cls-2" d="m87.26,121.69c1.18-.66,3.17-1.7,3.97-2.22.78-.52,1.5-1.13,2.33-1.51.41-.19,1.07.02,1.56.21.15.06.11.68.15,1.04.17,1.52-1.12,1.59-2.03,2.02-.96.49-3.77,1.2-4.74,1.65-1.14.53-1.39.31-1.4-.97,0-.18.27-.36.16-.23Z"/><path class="cls-2" d="m17.42,129.98c1.88-.25,3.44-.49,5.01-.65,1.46-.13,2.94-.19,4.4-.11.29.02.78.97.74,1.44-.04.49-.64,1.32-.99,1.31-2.63-.03-5.25-.3-7.86-.55-.46-.04-.94.01-1.35-.14-.18-.07-.32-.56-.29-.84.02-.23.32-.44.34-.47Z"/><path class="cls-2" d="m10.2,130.5c-.38.94-1.18.84-1.86.85-1.46,0-2.93-.3-4.37-.62-.99-.22-1.94-.74-2.89-.84-.72-.08-1.02-.45-1.08-1.32,0-.11.17-.34.26-.34,2.36.09,4.41.54,6.73.37.46-.04.91-.14,1.37-.22.91-.16,1.9.76,1.84,2.13Z"/><path class="cls-2" d="m36.23,129.9c1.34-.26,3.58-.49,4.52-.7.91-.2,1.82-.5,2.74-.54.45-.02.99.41,1.37.78.12.11-.15.67-.25,1.02-.42,1.48-1.62,1.05-2.63,1.12-1.06.09-3.93-.23-4.98-.13-1.24.13-1.41-.17-.99-1.38.06-.17.37-.25.23-.16Z"/><path class="cls-3" d="m195.13,83.02s-.12-.01-.21-.04c-.07-.02-.16-.04-.27-.05-.11-.01-.23-.02-.37-.02-.69,0-1.34.14-1.95.43-.62.28-1.15.72-1.61,1.29-.46.58-.83,1.31-1.1,2.2-.27.89-.41,1.93-.41,3.14s.14,2.2.41,3.07c.27.86.66,1.59,1.17,2.18.51.59,1.12,1.03,1.83,1.31.71.28,1.49.43,2.34.43.47,0,.89-.02,1.24-.07s.67-.11.96-.18.54-.13.78-.18c.24-.05.46-.07.67-.07.57,0,1,.17,1.31.5s.46.78.46,1.35c0,.43-.07.8-.21,1.12-.14.32-.35.62-.64.9-.24.24-.55.47-.94.71-.39.24-.87.46-1.44.66-.57.2-1.21.37-1.91.5-.71.13-1.5.2-2.38.2-1.82,0-3.45-.26-4.89-.78-1.44-.52-2.66-1.27-3.65-2.25-.99-.98-1.75-2.17-2.27-3.58-.52-1.41-.78-3-.78-4.77,0-1.96.32-3.75.96-5.37.64-1.62,1.54-3,2.71-4.15,1.17-1.15,2.58-2.04,4.24-2.68,1.65-.64,3.51-.96,5.57-.96,1.28,0,2.29.12,3.05.35.76.24,1.31.53,1.67.89.17.17.3.33.41.5.11.17.2.37.27.6.07.24.12.51.14.83.02.32.04.72.04,1.19v1.72c0,.37-.01.88-.04,1.54-.02.69-.21,1.18-.55,1.49-.34.31-.8.46-1.36.46-.61,0-1.09-.14-1.42-.41-.33-.27-.61-.73-.85-1.37l-.96-2.62Z"/><path class="cls-3" d="m203.99,81.53l-.64-.21c-.61-.21-1.04-.48-1.28-.79-.24-.31-.35-.77-.35-1.39s.12-1.09.37-1.43.64-.6,1.19-.79c.54-.19,1.24-.35,2.09-.48.85-.13,1.7-.2,2.55-.2,1.21,0,2.07.27,2.61.8.53.53.8,1.4.8,2.61v17.76l.67.35c.57.31.96.6,1.19.88.22.28.34.69.34,1.23,0,.63-.21,1.15-.62,1.55-.41.4-1,.6-1.76.6h-6.99c-.76,0-1.34-.2-1.76-.6-.41-.4-.62-.91-.62-1.55,0-.54.11-.95.34-1.23.22-.28.62-.57,1.19-.88l.67-.35v-15.89Z"/><path class="cls-3" d="m216.79,89.12l-.82-.29c-.61-.21-1.05-.46-1.29-.75s-.37-.74-.37-1.36.12-1.09.37-1.43c.25-.33.64-.6,1.19-.79.54-.19,1.25-.35,2.11-.48.86-.13,1.78-.2,2.75-.2,1.21,0,2.07.27,2.61.8.53.53.8,1.4.8,2.61v10.17l.67.35c.57.31.96.6,1.19.88.22.28.34.69.34,1.23,0,.63-.21,1.15-.62,1.55-.41.4-1,.6-1.76.6h-7.2c-.76,0-1.34-.2-1.76-.6-.41-.4-.62-.91-.62-1.55,0-.54.11-.95.34-1.23.22-.28.62-.55,1.19-.81l.89-.42v-8.3Zm-.39-9.86c0-1.02.36-1.88,1.08-2.59s1.7-1.06,2.93-1.06,2.19.34,2.89,1.03c.7.69,1.05,1.54,1.05,2.55s-.36,1.88-1.08,2.59c-.72.71-1.7,1.06-2.93,1.06s-2.19-.34-2.89-1.01c-.7-.67-1.05-1.53-1.05-2.57Z"/><path class="cls-3" d="m238.39,88.58s-.07-.01-.14-.04c-.05,0-.11,0-.2-.02-.08-.01-.17-.02-.27-.02-.73,0-1.36.33-1.88,1-.52.67-.78,1.78-.78,3.35s.33,2.74.99,3.45c.66.71,1.64,1.07,2.94,1.07.38,0,.69-.02.92-.06.24-.04.44-.08.6-.14.16-.05.32-.1.48-.14.15-.04.32-.06.51-.06.5,0,.89.15,1.19.46.29.31.44.72.44,1.24,0,.73-.27,1.37-.82,1.91-.17.17-.4.35-.69.57s-.67.41-1.13.58-1.02.32-1.67.44c-.65.12-1.4.18-2.25.18-2.86,0-5.05-.74-6.58-2.23-1.52-1.49-2.29-3.56-2.29-6.21,0-1.56.24-2.97.71-4.24.47-1.26,1.15-2.33,2.04-3.21.89-.87,1.97-1.55,3.25-2.02,1.28-.47,2.72-.71,4.33-.71,1.06,0,1.96.11,2.7.32.73.21,1.28.5,1.63.85.31.31.5.63.59.98.08.34.12.88.12,1.61v1.22c0,.27-.01.7-.04,1.29-.02.69-.21,1.18-.55,1.49-.34.31-.79.46-1.33.46s-1.02-.14-1.36-.41c-.34-.27-.63-.71-.87-1.33l-.6-1.67Z"/><path class="cls-3" d="m246.97,81.53l-.64-.21c-.61-.21-1.04-.48-1.28-.79-.24-.31-.35-.77-.35-1.39s.12-1.09.37-1.43.64-.6,1.19-.79c.54-.19,1.24-.35,2.09-.48.85-.13,1.7-.2,2.55-.2,1.21,0,2.07.27,2.61.8s.8,1.4.8,2.6v12.43l3.97-3.78-.25-.18c-.38-.26-.65-.56-.82-.9-.17-.34-.25-.75-.25-1.22,0-.54.2-.99.59-1.35.39-.35.93-.53,1.61-.53h6.14c.68,0,1.22.18,1.61.53.39.35.59.8.59,1.35s-.14,1.01-.43,1.38c-.28.38-.73.7-1.35.96l-.82.35-3.55,3.24,1.84,2.38c.35.45.69.86,1.01,1.23.32.37.63.7.94,1,.31.3.6.56.89.8.28.24.57.46.85.68.31.24.54.47.71.71.16.24.25.53.25.89,0,.71-.34,1.33-1.01,1.86-.67.53-1.66.8-2.96.8-.64,0-1.24-.06-1.81-.18-.57-.12-1.11-.33-1.63-.64-.52-.31-1.02-.71-1.49-1.21s-.95-1.13-1.42-1.88l-3.23-5.19v4.27l.28.28c.4.4.69.74.87,1.02.18.28.27.66.27,1.13,0,.63-.21,1.15-.64,1.55-.43.4-1.03.6-1.81.6h-6.13c-.76,0-1.34-.19-1.76-.58-.41-.39-.62-.91-.62-1.57,0-.54.11-.95.34-1.23.22-.28.62-.57,1.19-.88l.67-.35v-15.89Z"/><path class="cls-3" d="m159.45,102.2l-.56-.19c-.54-.19-.91-.42-1.12-.69-.21-.27-.31-.68-.31-1.22s.11-.96.33-1.25.56-.52,1.04-.69c.48-.17,1.09-.31,1.84-.42.75-.11,1.49-.17,2.24-.17,1.06,0,1.82.23,2.29.7.47.47.7,1.23.7,2.29v2.4c0,.48-.02.99-.06,1.54-.04.55-.11,1.08-.22,1.6l.06.03c.27-.35.6-.67.99-.96.35-.25.79-.48,1.32-.68.53-.21,1.19-.31,1.98-.31,1.97,0,3.46.5,4.46,1.49,1.01,1,1.51,2.5,1.51,4.51v5.94l.59.31c.5.27.84.53,1.04.78.2.25.29.61.29,1.09,0,.56-.18,1.02-.54,1.37-.36.35-.88.53-1.54.53h-5.51c-.68,0-1.21-.18-1.59-.53s-.56-.81-.56-1.37c0-.46.07-.81.22-1.06s.43-.53.84-.84l.31-.25v-4.76c0-.95-.16-1.62-.48-2.01-.32-.38-.76-.58-1.32-.58-.29,0-.54.05-.76.16s-.41.22-.58.34c-.19.15-.34.31-.47.5v6.38l.31.25c.41.31.69.59.84.83.14.25.22.6.22,1.05,0,.56-.19,1.01-.56,1.36-.37.35-.9.52-1.59.52h-5.51c-.66,0-1.18-.17-1.54-.52-.36-.35-.54-.8-.54-1.36,0-.47.1-.83.3-1.08.2-.25.54-.5,1.04-.77l.59-.31v-13.93Z"/><path class="cls-3" d="m185.45,113.65c.21.86.62,1.49,1.24,1.87.62.39,1.43.58,2.43.58.52,0,.97-.02,1.35-.07.38-.04.71-.09.99-.15.28-.06.52-.11.73-.15.21-.04.39-.07.56-.07.44,0,.78.13,1.04.4.26.27.39.63.39,1.09,0,.33-.06.62-.17.86-.11.24-.29.47-.51.7-.39.39-1.09.79-2.08,1.18-.99.39-2.35.59-4.07.59-1.35,0-2.54-.18-3.58-.53-1.04-.35-1.91-.86-2.61-1.52-.7-.66-1.24-1.46-1.6-2.38-.36-.92-.54-1.96-.54-3.13,0-1.35.2-2.57.61-3.65s.98-2.01,1.73-2.77c.75-.76,1.65-1.34,2.72-1.74,1.07-.4,2.26-.61,3.56-.61,2.32,0,4.08.57,5.27,1.71,1.19,1.14,1.79,2.71,1.79,4.7,0,1.06-.23,1.84-.7,2.33-.47.5-1.13.75-1.98.75h-6.56Zm3.36-3.11c-.04-.88-.2-1.5-.48-1.86-.28-.36-.66-.54-1.14-.54s-.9.21-1.21.63c-.31.42-.52,1.01-.62,1.76h3.45Z"/><path class="cls-3" d="m198.39,108.86l-.72-.25c-.54-.19-.92-.41-1.13-.66s-.33-.65-.33-1.19.11-.96.33-1.25c.22-.29.56-.52,1.04-.69.48-.17,1.08-.31,1.82-.42.74-.11,1.46-.17,2.16-.17.95,0,1.62.18,2.01.54.38.36.58.97.58,1.82v.62l.06.03c.14-.41.33-.81.56-1.2s.51-.73.84-1.03c.33-.3.72-.54,1.15-.73.44-.19.93-.28,1.49-.28.73,0,1.22.2,1.49.59.27.39.4.98.4,1.77,0,.6-.07,1.16-.2,1.66-.14.51-.31.95-.53,1.32-.22.37-.48.66-.78.87-.3.21-.61.31-.92.31-.19,0-.35-.04-.48-.11-.13-.07-.25-.15-.36-.23-.1-.08-.21-.16-.33-.23s-.26-.11-.45-.11c-.42,0-.84.21-1.28.62v5.66l.93.4c.54.23.91.46,1.1.71.2.25.3.6.3,1.05,0,.56-.18,1.01-.54,1.36-.36.35-.88.52-1.54.52h-6.72c-.66,0-1.18-.17-1.54-.52-.36-.35-.54-.8-.54-1.36,0-.47.1-.83.31-1.08.21-.25.55-.48,1.03-.71l.78-.37v-7.28Z"/><path class="cls-3" d="m217.27,113.65c.21.86.62,1.49,1.24,1.87.62.39,1.43.58,2.43.58.52,0,.97-.02,1.35-.07.38-.04.71-.09.99-.15.28-.06.52-.11.73-.15.21-.04.39-.07.56-.07.44,0,.78.13,1.04.4.26.27.39.63.39,1.09,0,.33-.06.62-.17.86-.11.24-.29.47-.51.7-.39.39-1.09.79-2.08,1.18-.99.39-2.35.59-4.07.59-1.35,0-2.54-.18-3.58-.53-1.04-.35-1.91-.86-2.61-1.52-.7-.66-1.24-1.46-1.6-2.38-.36-.92-.54-1.96-.54-3.13,0-1.35.2-2.57.61-3.65s.98-2.01,1.73-2.77c.75-.76,1.65-1.34,2.72-1.74,1.07-.4,2.26-.61,3.56-.61,2.32,0,4.08.57,5.27,1.71,1.19,1.14,1.79,2.71,1.79,4.7,0,1.06-.23,1.84-.7,2.33-.47.5-1.13.75-1.98.75h-6.56Zm3.36-3.11c-.04-.88-.2-1.5-.48-1.86-.28-.36-.66-.54-1.14-.54s-.9.21-1.21.63c-.31.42-.52,1.01-.62,1.76h3.45Z"/></svg>