<?xml version="1.0" encoding="UTF-8"?><svg id="Layer_1" xmlns="http://www.w3.org/2000/svg" xmlns:xlink="http://www.w3.org/1999/xlink" viewBox="0 0 311.45 272.08"><defs><style>.cls-1{stroke:#182a42;stroke-width:1.5px;}.cls-1,.cls-2,.cls-3{fill:none;}.cls-1,.cls-3{stroke-miterlimit:10;}.cls-4{clip-path:url(#clippath);}.cls-2,.cls-5,.cls-6,.cls-7,.cls-8,.cls-9{stroke-width:0px;}.cls-3{stroke:#ffeadc;}.cls-10{isolation:isolate;}.cls-5{fill:#182a42;}.cls-6{fill:#93a2c9;}.cls-7{fill:#fff;}.cls-8{fill:#ffeadc;}.cls-9{fill:#ffe9da;}</style><clipPath id="clippath"><rect class="cls-2" x="7.34" width="295.81" height="123.23"/></clipPath></defs><g id="Group_289"><g class="cls-4"><g id="Group_154"><path id="Path_4149" class="cls-8" d="m300.13,23.45c-.53-.75-1.14-1.43-1.83-2.04-.69-.79-1.5-1.48-2.4-2.03-1.68-.94-3.51-1.61-5.4-1.99-.46-.14-.94-.27-1.4-.39-.28-.07-.55-.14-.82-.23,0,.02.02.02.02.04-2.54-.61-5.11-1.04-7.71-1.29-24.44-2.47-48.9-4.71-73.46-5.27-1.42.02-2.82-.29-4.09-.92-8.15-4.33-16.94-6.09-26.11-6.89-14.65-1.26-27.49,2.47-38.67,12.11-5.06,4.35-10.71,7.94-16.43,11.37-7.64,4.58-16.11,5.12-24.67,5.24-.57-.04-1.13-.12-1.69-.23-.89.02-1.63-.68-1.65-1.56,0-.15.01-.3.05-.44.07-.71.18-1.42.2-2.13.12-5.12-1.85-7.67-6.78-8.69-1.1-.23-2.34-.09-2.84-1.44-1.39-3.73-4.65-4.72-8.05-5.43-6.84-1.44-13.68-2.49-20.69-1.17-1.13.1-2.27.09-3.39-.04-8.63-.32-17.26-1.07-25.95-.57-4.24.23-6.73,2.08-7.94,6.25-2.34,8.19-4.71,16.38-6.09,24.78-3.84,23.14-4.67,46.68-2.47,70.03.37,3.1.9,6.17,1.58,9.22.37,1.94,1.42,2.91,3.62,2.54,1.83-.23,3.68-.36,5.52-.37,9.91-.59,19.87.05,29.79-.85,3.11-.28,6.29-.91,9.33-.53,8.05.98,15.08-1.79,22.03-5.13,1.94-.94,3.87-2.24,4.39-4.41.57-2.45,1.79-2.98,4.16-3.04,6.84-.18,7.16-.66,7.03-7.3-.09-4.69.27-5.08,5.1-4.33,6.47.96,12.76,2.83,18.71,5.56,5.67,2.63,11.31,5.3,16.93,8.03,5.77,2.82,11.79,4.94,18.22,5.56,9.64.92,19.06.44,27.23-5.7,1.6-1.21,3.09-.96,4.78-.34,4.38,1.7,9.07,2.46,13.77,2.22,6.71-.43,11.54-4.39,13.36-10.66.62-2.13.07-4.16-.21-6.15,1.71-.89,3.29-.46,4.81-.55,5.52-.3,10.69-1.47,14.6-5.84,1.65-1.87,2.79-3.89,2.77-6.48,0-1.21-1.1-2.61.02-3.59.96-.83,2.45-.55,3.71-.64,1.42-.11,2.84-.07,4.24-.2,9.31-.8,16.37-5.34,21.22-13.17,4.09-6.61,3.59-12.43-1.08-18.58-.66-.89-1.69-1.55-2.01-3.32,2.81-.25,5.33-.52,7.85-.68,6.67-.31,13.27-1.48,19.64-3.46,3.13-1.01,6.07-2.43,8.42-4.83,2.98-3.09,3.21-6.5.75-10.02M61.29,104.32c-2.22-4.03-1.15-6.25,3.37-7.07.68-.12,1.37-.27,1.69-.32,3.34-.04,5.88,1.81,6.75,4.62.77,2.37-.2,4.96-2.34,6.24-2.49,1.55-5.45,1.15-7.71-1.1-.7-.7-1.29-1.49-1.76-2.36"/><path id="Path_4150" class="cls-3" d="m300.13,23.45c-.53-.75-1.14-1.43-1.83-2.04-.69-.79-1.5-1.48-2.4-2.03-1.68-.94-3.51-1.61-5.4-1.99-.46-.14-.94-.27-1.4-.39-.28-.07-.55-.14-.82-.23,0,.02.02.02.02.04-2.54-.61-5.11-1.04-7.71-1.29-24.44-2.47-48.9-4.71-73.46-5.27-1.42.02-2.82-.29-4.09-.92-8.15-4.33-16.94-6.09-26.11-6.89-14.65-1.26-27.49,2.47-38.67,12.11-5.06,4.35-10.71,7.94-16.43,11.37-7.64,4.58-16.11,5.12-24.67,5.24-.57-.04-1.13-.12-1.69-.23-.89.02-1.63-.68-1.65-1.56,0-.15.01-.3.05-.44.07-.71.18-1.42.2-2.13.12-5.12-1.85-7.67-6.78-8.69-1.1-.23-2.34-.09-2.84-1.44-1.39-3.73-4.65-4.72-8.05-5.43-6.84-1.44-13.68-2.49-20.69-1.17-1.13.1-2.27.09-3.39-.04-8.63-.32-17.26-1.07-25.95-.57-4.24.23-6.73,2.08-7.94,6.25-2.34,8.19-4.71,16.38-6.09,24.78-3.84,23.14-4.67,46.68-2.47,70.03.37,3.1.9,6.17,1.58,9.22.37,1.94,1.42,2.91,3.62,2.54,1.83-.23,3.68-.36,5.52-.37,9.91-.59,19.87.05,29.79-.85,3.11-.28,6.29-.91,9.33-.53,8.05.98,15.08-1.79,22.03-5.13,1.94-.94,3.87-2.24,4.39-4.41.57-2.45,1.79-2.98,4.16-3.04,6.84-.18,7.16-.66,7.03-7.3-.09-4.69.27-5.08,5.1-4.33,6.47.96,12.76,2.83,18.71,5.56,5.67,2.63,11.31,5.3,16.93,8.03,5.77,2.82,11.79,4.94,18.22,5.56,9.64.92,19.06.44,27.23-5.7,1.6-1.21,3.09-.96,4.78-.34,4.38,1.7,9.07,2.46,13.77,2.22,6.71-.43,11.54-4.39,13.36-10.66.62-2.13.07-4.16-.21-6.15,1.71-.89,3.29-.46,4.81-.55,5.52-.3,10.69-1.47,14.6-5.84,1.65-1.87,2.79-3.89,2.77-6.48,0-1.21-1.1-2.61.02-3.59.96-.83,2.45-.55,3.71-.64,1.42-.11,2.84-.07,4.24-.2,9.31-.8,16.37-5.34,21.22-13.17,4.09-6.61,3.59-12.43-1.08-18.58-.66-.89-1.69-1.55-2.01-3.32,2.81-.25,5.33-.52,7.85-.68,6.67-.31,13.27-1.48,19.64-3.46,3.13-1.01,6.07-2.43,8.42-4.83,2.98-3.09,3.22-6.5.75-10.02ZM61.29,104.32c-2.22-4.03-1.15-6.25,3.37-7.07.68-.12,1.37-.27,1.69-.32,3.34-.04,5.88,1.81,6.75,4.62.77,2.37-.2,4.96-2.34,6.24-2.49,1.55-5.45,1.15-7.71-1.1-.7-.7-1.29-1.5-1.76-2.36Z"/><path id="Path_4151" class="cls-6" d="m124.16,25.38c-.31.28-.64.55-.93.85-3.39,3.43-7.42,5.3-12.32,5.21-2.95-.05-5.64,1.61-8.68,1.24-1.69-.2-3.35-.24-4.67-1.49.84-.09,1.72-.4,2.51-.24,6.44,1.33,12.09-.97,17.76-3.56,1.98-.91,3.94-2.25,6.33-2.01"/><path id="Path_4152" class="cls-6" d="m294.01,32.68c.75-.82,1.49-1.64,2.23-2.47,3.36-3.8,2.88-7.81-1.28-10.69-1.52-1.05-3.3-1.49-4.99-2.13-.77-.29-1.69-.32-1.68-1.47,2.55.83,5.27,1.15,7.61,2.61,2.9,1.82,4.56,4.32,3.88,7.83-.62,3.2-2.1,5.81-5.77,6.32"/><path id="Path_4153" class="cls-9" d="m44.88,68.52c.91,2.64,1.24,5.45.96,8.23-.32,2.54.69,5.04,1.34,7.49,1.42,5.33,3.08,10.6,4.64,15.9,1,3.7,2.59,7.22,4.71,10.41.48.69,1,1.41.49,2.32-2.01-2.09-4.25-4.02-5.04-6.99-.08-.7-.28-1.38-.58-2.02-5.01-7.06-4.56-15.58-6.33-23.51-.86-3.89-.93-7.92-.21-11.84"/><path id="Path_4154" class="cls-7" d="m76.78,36.98c.43.37.63.95.52,1.5-.72,6.72-.81,13.5-.26,20.24.05,2.11-.06,4.22-.33,6.31-.43,4.21-.26,8.46.49,12.62.14.69.23,1.4-.43,1.92-1.41-1.74-2.13-3.94-2.03-6.18-.08-11.33-.3-22.68.93-33.98.1-.88-.26-2.09,1.1-2.45"/><path id="Path_4155" class="cls-7" d="m81.05,22.51c.2.19.6.43.57.54-1.4,4.73-2.31,9.64-4.85,13.97-.72-5.09.77-9.68,3.22-14.03.15-.27.7-.33,1.07-.48"/><path id="Path_4156" class="cls-7" d="m76.75,79.52c1.68,2.2,2.31,5.03,1.72,7.73-1.65-2.21-2.28-5.03-1.72-7.73"/><path id="Path_4157" class="cls-7" d="m78.83,90.58c1.44.11,1.8.93,1.34,3.09-1.05-.77-.96-2.03-1.34-3.09"/><path id="Path_4158" class="cls-7" d="m78.44,87.18c1.47,1.55,1.47,2.47-.03,3.1.03-1.03-.39-2.07.03-3.1"/><path id="Path_4159" class="cls-7" d="m81.88,21.67c.17.75.15,1.32-.88.89-.09-.67,0-1.16.88-.89"/><path id="Path_4160" class="cls-5" d="m263.46,41.58c.33,1.79,1.35,2.44,2.02,3.33,4.67,6.16,5.17,11.97,1.08,18.58-4.85,7.84-11.92,12.38-21.22,13.18-1.41.12-2.84.1-4.25.2-1.26.09-2.74-.2-3.71.64-1.12.98-.03,2.37-.02,3.59.01,2.6-1.13,4.62-2.78,6.48-3.9,4.38-9.06,5.54-14.59,5.85-1.53.09-3.12-.34-4.81.55.28,1.99.82,4.01.2,6.13-1.81,6.27-6.65,10.23-13.35,10.67-4.69.23-9.39-.53-13.77-2.24-1.69-.62-3.19-.86-4.79.34-8.17,6.15-17.59,6.62-27.23,5.69-6.43-.61-12.43-2.72-18.22-5.55-5.61-2.74-11.25-5.41-16.92-8.03-5.94-2.73-12.24-4.61-18.7-5.56-4.84-.74-5.19-.36-5.1,4.34.13,6.63-.2,7.11-7.03,7.29-2.36.06-3.59.59-4.16,3.05-.51,2.17-2.45,3.47-4.39,4.41-6.94,3.34-13.98,6.12-22.02,5.14-3.04-.37-6.22.25-9.33.53-9.91.91-19.87.26-29.79.85-1.84.02-3.69.14-5.52.36-2.2.39-3.25-.59-3.63-2.54-.59-3.06-1.29-6.12-1.58-9.22-2.19-23.35-1.36-46.88,2.46-70.02,1.39-8.4,3.76-16.59,6.11-24.78,1.2-4.16,3.68-6.02,7.94-6.26,8.68-.49,17.3.25,25.95.57,1.12.14,2.26.15,3.39.04,7-1.32,13.86-.26,20.69,1.18,3.4.71,6.67,1.69,8.05,5.44.5,1.34,1.73,1.2,2.83,1.42,4.94,1.02,6.91,3.58,6.78,8.7-.02.71-.11,1.42-.19,2.12-.22.87.3,1.75,1.17,1.97.14.04.29.05.44.05.56.11,1.12.19,1.69.23,8.56-.13,17.03-.65,24.66-5.23,5.73-3.44,11.38-7.02,16.44-11.38,11.17-9.63,24.01-13.37,38.65-12.1,9.17.8,17.96,2.55,26.12,6.89,1.27.63,2.67.94,4.08.91,24.57.58,49.02,2.82,73.46,5.28,4.39.35,8.71,1.33,12.83,2.91,2.68.98,5.02,2.73,6.72,5.03,2.46,3.52,2.23,6.94-.76,10.02-2.33,2.4-5.28,3.82-8.41,4.83-6.37,1.98-12.98,3.15-19.64,3.47-2.53.15-5.05.42-7.86.67m-26.94,20.45c-.18-.84-.7-1.56-1.44-2.01-4.95-4.19-5.58-9.4-3.15-15,.9-2.08.59-3.23-.8-4.8-6.97-7.89-14.59-15.11-22.21-22.34-4.28-4.07-9.5-6.64-15.03-8.63-4.84-1.62-9.86-2.68-14.95-3.15-14.2-1.6-27.07,1.31-37.99,11.08-3.49,3.13-7.58,5.5-11.34,8.28-9.06,6.7-19.36,9.12-30.4,9.34-1.93.04-4.4-1.12-5.67.37-1.37,1.59-.3,4.1-.16,6.18.99,15.14,3.57,30.17,3.46,45.39,0,.57.12,1.13.11,1.7-.03,1.91.77,2.69,2.8,2.78,8.03.38,15.66,2.56,22.98,5.78,5.97,2.63,11.9,5.37,17.73,8.29,9.33,4.67,19.15,6.02,29.39,4.69,3.79-.38,7.36-1.97,10.18-4.53-.23-1.32-1.24-1.72-1.97-2.35-3.34-2.88-6.24-6.23-8.63-9.94-4.48-6.85-3.45-10.97,3.8-14.8,1.78-.87,3.63-1.61,5.52-2.19,1.6-.55,3.39-.3,5.07-1.14-1.24-8.48,4.82-11.05,11.11-13.3-1.44-5.56-.53-8.17,3.9-11.55.45-.34.94-.63,1.41-.95,2.19-1.47,2.18-2.26.3-4.01-1.36-1.26-2.64-.61-3.96-.19-5.31,1.63-10.9,2.15-16.42,1.5-4.18-.52-8.31-1.44-12.31-2.75-.68.65-.57,1.41-.75,2.08-1.19,4.54-2.43,9.15-5.57,12.76-10.67,12.25-24.45,18.05-40.46,18.95-1.64.09-3.88.35-3.87-2.1,0-2.24,2.15-1.71,3.63-1.83,12.19-1.04,23.22-4.83,32.58-13.07,6.09-5.37,9.83-11.57,9.29-19.97-.19-2.91,1.56-3.85,4.07-2.42,8.47,4.82,17.43,5.39,26.72,3.12,1.51-.37,3-.85,4.52-1.2,1.98-.54,4.08.14,5.37,1.73.84.96,1.67,1.93,2.5,2.9,6,7.08,13.52,12.06,21.88,15.86,2.69,1.22,5.52,2.27,8.77,1.45M46.78,12.73c-6.49,0-11.99-.14-17.47.04-6.16.2-6.16.33-7.8,6.15-3.67,13.26-6.11,26.83-7.3,40.54-1.7,17.66-1.55,35.45.47,53.08.51,4.3.8,4.54,4.99,4.41,9.78-.31,19.57-.65,29.35-1.03,1.8-.07,3.68.03,5.65-1.12-2.37-3.8-4.74-7.49-5.97-11.74-3.39-11.76-5.87-23.71-6.11-35.97-.25-13.33.01-26.67.07-40.01.02-4.73.56-9.34,4.11-14.34m.2,35.53h-.02c0,3.69.12,7.38-.02,11.06-.53,13.75,1.88,27.1,5.33,40.32,1.32,4.79,3.56,9.29,6.6,13.23,1.15,1.56,2.5,2.79,4.56,2.63,6.1-.44,12.01-2.35,17.21-5.56,1.96-1.22,2.17-2.86.9-4.73-5.04-7.38-7.17-15.83-7.63-24.45-.67-12.3-.62-24.67-.3-36.99.22-8.24,2-16.29,6.27-23.59,1.49-2.54.81-4.34-2.12-5.14-6.03-1.66-12.21-2.76-18.48-1.91-9.78,1.32-12.11,4-12.28,13.85-.12,7.09-.02,14.18-.02,21.27M212.12,13.7c.14.66.11.99.27,1.15,7.21,7.42,14.97,14.3,21.73,22.15.94,1.09,2.38,1.61,3.8,1.38,3.24-.26,6.48-.6,9.73-.76,7.36-.36,14.73-.55,22.09-.98,6.23-.28,12.42-1.26,18.43-2.94,2.62-.66,5.08-1.84,7.24-3.47,2.42-1.99,2.49-3.85.27-6.1-1.46-1.35-3.21-2.35-5.12-2.92-3.9-1.41-7.99-1.97-12.06-2.38-20.44-2.06-40.92-3.65-61.41-5.12-1.63-.12-3.27-.02-4.96-.02m27.12,28.81c.32,2.11,1.59,3.35,2.39,4.82,1.02,1.87,2.1,3.68,2.62,5.78,2.08,8.46-3.15,14.46-11.71,13.44-3.23-.48-6.35-1.54-9.21-3.11-5.45-2.74-10.55-6.13-15.19-10.09-2.25-1.93-3.67-2.02-6.07-.45-.92.66-1.77,1.41-2.53,2.24-1.55,1.58-1.49,3.19-.09,4.9,1.75,2.13,4.03,3.51,6.39,4.84,11.92,6.7,24.8,8.48,38.21,7.54,6.61-.33,12.77-3.46,16.93-8.61,5.12-6.18,5.01-11.96-.4-17.84-1.53-1.66-2.99-3.71-5.33-4.02-5.34-.73-10.65.01-16.02.55m-145.95,51.57h-.09c-.46-7.5-.81-15-1.42-22.48-.78-9.6-1.84-19.18-2.66-28.78-.47-5.51-.71-11.02.49-16.51.54-2.49-.4-3.98-2.18-4.44-2.06-.53-3.63.26-4.66,2.04-.56.99-1.03,2.02-1.4,3.09-3.75,10.49-4.15,21.35-3.48,32.32.09,1.55.66,2.33,2.25,2.42,2.12.13,4.23.39,6.36.54,1.33.1,2.84.27,2.85,1.87.02,1.91-1.68,2.04-3.12,2-1.84-.05-3.67-.25-5.5-.45-1.99-.22-2.75.58-2.83,2.61-.4,10.03.69,19.81,4.4,29.21,1.74,4.43,3.73,5.63,8.41,5.13,1.71-.18,2.61-.85,2.59-2.62-.02-1.98,0-3.97,0-5.95m92.01-14.46c-5.26-.05-9.07,1.29-12.4,3.91-2.18,1.71-2.45,2.76-1.13,5.12,6.23,11.15,15.74,17.11,28.53,17.86,1.85.02,3.68-.37,5.37-1.14,3.02-1.19,4.73-3.55,5.43-6.62.86-3.73-.41-5.92-4.02-6.93-6.3-1.75-11.62-5.21-16.38-9.53-1.88-1.71-3.74-2.99-5.4-2.68m32.05,9.27c5.33.07,9.86-.22,13.39-3.72,1.41-1.4,2.88-2.89,1.88-5.19-.89-2.05-2.11-3.27-4.71-3.5-9.47-.83-18.16-4.17-26.28-9.05-3.59-2.16-7.55-1.92-10.99.7-3.39,2.58-3.73,4.28-.86,7.31,7.67,8.1,16.66,13.6,27.56,13.45m18.57-41.84c-1.9,4.32-1.44,6.9,1.58,9.48.52.45,1.07,1.09,1.81.78.96-.4.8-1.38.72-2.17-.34-3.18-2.03-5.67-4.11-8.1"/><path id="Path_4161" class="cls-1" d="m263.46,41.58c.33,1.79,1.35,2.44,2.02,3.33,4.67,6.16,5.17,11.97,1.08,18.58-4.85,7.84-11.92,12.38-21.22,13.18-1.41.12-2.84.1-4.25.2-1.26.09-2.74-.2-3.71.64-1.12.98-.03,2.37-.02,3.59.01,2.6-1.13,4.62-2.78,6.48-3.9,4.38-9.06,5.54-14.59,5.85-1.53.09-3.12-.34-4.81.55.28,1.99.82,4.01.2,6.13-1.81,6.27-6.65,10.23-13.35,10.67-4.69.23-9.39-.53-13.77-2.24-1.69-.62-3.19-.86-4.79.34-8.17,6.15-17.59,6.62-27.23,5.69-6.43-.61-12.43-2.72-18.22-5.55-5.61-2.74-11.25-5.41-16.92-8.03-5.94-2.73-12.24-4.61-18.7-5.56-4.84-.74-5.19-.36-5.1,4.34.13,6.63-.2,7.11-7.03,7.29-2.36.06-3.59.59-4.16,3.05-.51,2.17-2.45,3.47-4.39,4.41-6.94,3.34-13.98,6.12-22.02,5.14-3.04-.37-6.22.25-9.33.53-9.91.91-19.87.26-29.79.85-1.84.02-3.69.14-5.52.36-2.2.39-3.25-.59-3.63-2.54-.59-3.06-1.29-6.12-1.58-9.22-2.19-23.35-1.36-46.88,2.46-70.02,1.39-8.4,3.76-16.59,6.11-24.78,1.2-4.16,3.68-6.02,7.94-6.26,8.68-.49,17.3.25,25.95.57,1.12.14,2.26.15,3.39.04,7-1.32,13.86-.26,20.69,1.18,3.4.71,6.67,1.69,8.05,5.44.5,1.34,1.73,1.2,2.83,1.42,4.94,1.02,6.91,3.58,6.78,8.7-.02.71-.11,1.42-.19,2.12-.22.87.3,1.75,1.17,1.97.14.04.29.05.44.05.56.11,1.12.19,1.69.23,8.56-.13,17.03-.65,24.66-5.23,5.73-3.44,11.38-7.02,16.44-11.38,11.17-9.63,24.01-13.37,38.65-12.1,9.17.8,17.96,2.55,26.12,6.89,1.27.63,2.67.94,4.08.91,24.57.58,49.02,2.82,73.46,5.28,4.39.35,8.71,1.33,12.83,2.91,2.68.98,5.02,2.73,6.72,5.03,2.46,3.52,2.23,6.94-.76,10.02-2.33,2.4-5.28,3.82-8.41,4.83-6.37,1.98-12.98,3.15-19.64,3.47-2.53.15-5.05.42-7.86.66Zm-26.94,20.45c-.18-.84-.7-1.56-1.44-2.01-4.95-4.19-5.58-9.4-3.15-15,.9-2.08.59-3.23-.8-4.8-6.97-7.89-14.59-15.11-22.21-22.34-4.28-4.07-9.5-6.64-15.03-8.63-4.85-1.62-9.86-2.68-14.95-3.14-14.2-1.6-27.07,1.31-37.99,11.08-3.49,3.13-7.58,5.5-11.34,8.28-9.06,6.7-19.36,9.12-30.4,9.34-1.93.04-4.4-1.12-5.67.37-1.37,1.59-.3,4.1-.16,6.18.99,15.14,3.57,30.17,3.46,45.39,0,.57.12,1.13.11,1.7-.03,1.91.77,2.69,2.8,2.78,8.03.38,15.66,2.56,22.98,5.78,5.97,2.63,11.9,5.37,17.73,8.29,9.33,4.67,19.15,6.02,29.39,4.69,3.79-.38,7.36-1.97,10.18-4.53-.23-1.32-1.24-1.72-1.97-2.35-3.34-2.88-6.24-6.23-8.63-9.94-4.48-6.85-3.45-10.97,3.8-14.8,1.78-.87,3.63-1.61,5.52-2.19,1.6-.55,3.39-.3,5.07-1.14-1.24-8.48,4.82-11.05,11.11-13.3-1.44-5.56-.53-8.17,3.9-11.55.45-.34.94-.63,1.41-.95,2.19-1.47,2.18-2.26.3-4.01-1.36-1.26-2.64-.61-3.96-.19-5.31,1.63-10.9,2.15-16.42,1.5-4.18-.52-8.31-1.44-12.31-2.75-.68.65-.57,1.41-.75,2.08-1.19,4.54-2.43,9.15-5.57,12.76-10.67,12.25-24.45,18.05-40.46,18.95-1.64.09-3.88.35-3.87-2.1,0-2.24,2.15-1.71,3.63-1.83,12.19-1.04,23.22-4.83,32.58-13.07,6.09-5.37,9.83-11.57,9.29-19.97-.19-2.91,1.56-3.85,4.07-2.42,8.47,4.82,17.43,5.39,26.72,3.12,1.51-.37,3-.85,4.52-1.2,1.98-.54,4.08.14,5.37,1.73.84.96,1.67,1.93,2.5,2.9,6,7.08,13.52,12.06,21.88,15.86,2.69,1.23,5.52,2.27,8.77,1.46h0ZM46.78,12.73c-6.49,0-11.99-.14-17.47.04-6.16.2-6.16.33-7.8,6.15-3.67,13.26-6.11,26.83-7.3,40.54-1.7,17.66-1.55,35.45.47,53.08.51,4.3.8,4.54,4.99,4.41,9.78-.31,19.57-.65,29.35-1.03,1.8-.07,3.68.03,5.65-1.12-2.37-3.8-4.74-7.49-5.97-11.74-3.39-11.76-5.87-23.71-6.11-35.97-.25-13.33.01-26.67.07-40.01.02-4.73.56-9.34,4.11-14.34Zm.2,35.53h-.02c0,3.69.12,7.38-.02,11.06-.53,13.75,1.88,27.1,5.33,40.32,1.32,4.79,3.56,9.29,6.6,13.23,1.15,1.56,2.5,2.79,4.56,2.63,6.1-.44,12.01-2.35,17.21-5.56,1.96-1.22,2.17-2.86.9-4.73-5.04-7.38-7.17-15.83-7.63-24.45-.67-12.3-.62-24.67-.3-36.99.22-8.24,2-16.29,6.27-23.59,1.49-2.54.81-4.34-2.12-5.14-6.03-1.66-12.21-2.76-18.48-1.91-9.78,1.32-12.11,4-12.28,13.85-.12,7.09-.02,14.18-.02,21.28ZM212.12,13.7c.14.66.11.99.27,1.15,7.21,7.42,14.97,14.3,21.73,22.15.94,1.09,2.38,1.61,3.8,1.38,3.24-.26,6.48-.6,9.73-.76,7.36-.36,14.73-.55,22.09-.98,6.23-.28,12.42-1.26,18.43-2.94,2.62-.66,5.08-1.84,7.24-3.47,2.42-1.99,2.49-3.85.27-6.1-1.46-1.35-3.21-2.35-5.12-2.92-3.9-1.41-7.99-1.97-12.06-2.38-20.44-2.06-40.92-3.65-61.41-5.12-1.62-.12-3.27-.01-4.96-.01Zm27.12,28.8c.32,2.11,1.59,3.35,2.39,4.82,1.02,1.87,2.1,3.68,2.62,5.78,2.08,8.46-3.15,14.46-11.71,13.44-3.23-.48-6.35-1.54-9.21-3.11-5.45-2.74-10.55-6.13-15.19-10.09-2.25-1.93-3.67-2.02-6.07-.45-.92.66-1.77,1.41-2.53,2.24-1.55,1.58-1.49,3.19-.09,4.9,1.75,2.13,4.03,3.51,6.39,4.84,11.92,6.7,24.8,8.48,38.21,7.54,6.61-.33,12.77-3.46,16.93-8.61,5.12-6.18,5.01-11.96-.4-17.84-1.53-1.66-2.99-3.71-5.33-4.02-5.33-.73-10.65.01-16.02.55Zm-145.95,51.57h-.09c-.46-7.5-.81-15-1.42-22.48-.78-9.6-1.84-19.18-2.66-28.78-.47-5.51-.71-11.02.49-16.51.54-2.49-.4-3.98-2.18-4.44-2.06-.53-3.63.26-4.66,2.04-.56.99-1.03,2.02-1.4,3.09-3.75,10.49-4.15,21.35-3.48,32.32.09,1.55.66,2.33,2.25,2.42,2.12.13,4.23.39,6.36.54,1.33.1,2.84.27,2.85,1.87.02,1.91-1.68,2.04-3.12,2-1.84-.05-3.67-.25-5.5-.45-1.99-.22-2.75.58-2.83,2.61-.4,10.03.69,19.81,4.4,29.21,1.74,4.43,3.73,5.63,8.41,5.13,1.71-.18,2.61-.85,2.59-2.62-.03-1.98,0-3.97,0-5.95Zm92.01-14.46c-5.26-.05-9.07,1.29-12.4,3.91-2.18,1.71-2.45,2.76-1.13,5.12,6.23,11.15,15.74,17.11,28.53,17.86,1.85.02,3.68-.37,5.37-1.14,3.02-1.19,4.73-3.55,5.43-6.62.86-3.73-.41-5.92-4.02-6.93-6.3-1.75-11.62-5.21-16.38-9.53-1.88-1.71-3.74-2.99-5.4-2.68h0Zm32.05,9.27c5.33.07,9.86-.22,13.39-3.72,1.41-1.4,2.88-2.89,1.88-5.19-.89-2.05-2.11-3.27-4.71-3.5-9.47-.83-18.16-4.17-26.28-9.05-3.59-2.16-7.55-1.92-10.99.7-3.39,2.58-3.73,4.28-.86,7.31,7.67,8.1,16.66,13.6,27.56,13.45h0Zm18.57-41.84c-1.9,4.32-1.44,6.9,1.58,9.48.52.45,1.07,1.09,1.81.78.96-.4.8-1.38.72-2.17-.35-3.18-2.04-5.67-4.11-8.1h0Z"/><path id="Path_4162" class="cls-5" d="m66.35,96.07c3.34-.02,5.87,1.82,6.75,4.63.76,2.37-.21,4.95-2.35,6.23-2.49,1.55-5.45,1.17-7.71-1.1-.69-.7-1.29-1.49-1.76-2.36-2.22-4.03-1.14-6.26,3.37-7.08.69-.12,1.38-.26,1.69-.33m1.09,7.49c.88-.09,1.5-.49,1.47-1.25-.05-1.32-.91-1.92-2.2-1.85-.75.04-1.49.43-1.43,1.17.1,1.26,1.06,1.81,2.16,1.93"/></g></g></g><g id="Confused_We_thought_you_might_be._Head_to_our_Tackle_box_to_tackle_the_big_issues." class="cls-10"><g class="cls-10"><path class="cls-5" d="m9.62,178.36l-.12-1.49v-3.58l-.12-.55.31-.63v-2l-.39-1.61.16-1.97-.24-.79.24-1.42-.2-.79v-1.26l-.16-1.06.51-1.34-.39-1.73.04-.16.39-.43-.43-1.73v-2.28l-.24-1.06v-3.38l.12-1.45v-1.18l.12-1.73-.31-1.38v-7.39l.28-.2.67-.31,1.45.2.04-.28.2-.16,2.08.43.98-.08.43.08,1.06-.12,1.53.12.87-.24h9.39l.47-.08h3.81l1.1-.08.67.43-.16,1.65.24,1.26-.12.16-.31.12.35,1.73v1.34l.31,1.53-.28,1.18.2,1.06-.2.51.43,1.18-.43,1.53.24,2.16v1.38l.27.47-.27,2,.16,1.06.35.71-.31,1.77v.87l-.08.27v4.56l.27.94-.2.63.12,1.42v2.87l.16.43-.12,1.81.12,1.53-.08.51.12.75v3.54l.12.63-.94.59-.59-.12h-1.69l-2.87.31-.28-.04-1.81.2-.87-.08h-1.96l-1.49.12h-5.58l-.63-.16-1.49.24h-2.24l-.79-.12-1.38.2-.63-.67v-1.38Zm6.88-17.45v-3.42l.35-1.81v-.94l.59-1.38.59-.83.28-.9.86-.63,1.65-.83.75.24h1.02l.51-.16,1.42.35,1.34.83.47.39.67,1.3.86,1.02-.12.47.27.24h.67l.51.16.63-.16.63-.67.04-.51-.55-1.89-.16-.55-.86-1.38-1.57-1.26-.63-.51-1.26-.2-1.26-.31h-1.49l-.31-.24h-.79l-.94.12h-.79l-.87.35-1.22.55-.86.67-.79.86-.59.47-.51.59-.71.75-.47,1.42h.08l-.28.98-.2,1.38v1.81l-.43.39v1.93l.08.2v1.57l.39,1.34.47,1.26-.16.24.47,1.73.71.87.43.98.94.67.39.55,1.77.75,1.22.35h.75l1.45.28,1.45-.16,1.69-.35.35.04.71-.2.31-.2.86-.79.75-.24.75-.67.71-.86.28-.9.55-.83-.08-.59.28-1.06-.43-.39-1.77-.12-.2-.12-.55.31-.9,1.81v.39l-.63.83-.47.43-.79.24-.55.35-.87.24-1.93.31-.59-.43-.9-.31-.71-.16-.59-.71-.51-.43-.71-1.02-.63-1.06.16-.39-.31-1.89-.2-.55Z"/><path class="cls-5" d="m33.32,179.9l-.2-.28v-4.36l-.2-.71v-2.52l.16-1.06.28-.35-.51-1.42.28-2.12-.31-1.69.27-1.49-.2-.71v-.35l-.35-1.14.51-2.04v-2.79l-.08-.87v.04l-.16-.86.08-.67-.35-1.69.2-1.26v-1.46l-.08-.2v-2.28l.12-.63v-2.36l-.27-1.77.16-2.2-.08-1.02v-1.81l-.24-1.53,1.1-.79,1.26.16.39-.39,1.77.43,1.3-.2.83.28,1.57-.24.79.2,1.3-.43,2.28.28,1.53-.2h3.77l1.02.16,1.34-.28h4.32l.67.55-.16,1.06.28,1.38-.31.63.31,1.38v1.85l.16.63-.35,1.26.08.86v-.04l.16.83-.08,1.26.35.98-.28,1.73.2,1.22-.2,1.57.28,1.42-.12.87.43,2.08-.39,3.14.16,2.44-.2,2.08.47,1.18-.16,1.65v2l-.2.94.28.9-.08,1.06.31,1.3-.31,1.42.16,1.02v3.03l.08.51-.04.12-.87.28-.63-.12-1.89.16-1.18-.08-1.34.24h-4.64l-2.24.28-2.44-.16h-3.34l-.87.24-1.26-.12h-4.09l-.16-.08-.16-.31Zm12.19-27.44h-.47l-1.38.2.08-.04h-1.06l-.2.28-.83.51-.71.16-.39.28-.79.31-.79,1.06-.39.47-.47,1.02-.16.51-.94,2.16.2.94-.24,1.41-.08,1.22.39.71.31,1.61.35,1.14.39.39.35.63,1.26,1.02.12.31.79.43.35.28.87.2.39.35,1.42.43,1.34-.16h1.18l.63-.24,1.49-.16,1.22-.55.79-.39,1.22-1.14.75-.9.67-1.65.24-.51.31-3.22.08-1.06-.24-.98v-.9l-.12-.94-.63-1.1-.59-.63-.47-.87-.94-.9v-.12l-.79-.28-.98-.63-.71-.28-1.1-.31h-1.06l-.67-.08Zm-.08,2.59l.55.08.98.31,1.1.2.83.47.9,1.06.16.98.24.39.59,2.59-.39,2-.2.39.2.43-.43,1.1-.43.86-.79,1.02-.39.04-.79.31-.27.24h-.87l-1.53.27v-.08l-1.02-.08-.51-.2-1.18-.75-.79-.67-.12-.35-.67-1.14.04-.24-.16-.75-.08-1.3-.2-.9.24-1.14-.08-1.26.27-.83.9-1.61.67-.71.98-.35.51-.24.9-.2h.83Z"/><path class="cls-5" d="m56.59,177.66l-.24-2v-2.75l-.08-1.18.31-1.14v-1.18l-.39-.98.35-2.08-.28-1.42.35-1.73-.2-.9v-2.55l.24-.51-.08-.79.24-1.97-.35-2.24.16-.43-.31-2.36.08-.94v-1.42l.16-2.16v-2.52l.16-.9-.31-2.12.2-1.26-.16-1.18.08-1.06v-1.57l-.08-1.1.94-.43h.71l1.34-.16,1.34.31,1.73-.16,1.26.2h2.32l1.02-.28.67.16h6.33l1.26.12.63-.12h2.87l.67.08h1.77l.28.24.04.16-.24,1.46.24,1.42-.16.2h-.2l.31,1.69v1.69l.24.83-.28,1.45.12,1.1-.39.71.55,1.96-.28,1.69.12,1.26-.12.98.28.79-.28,1.61.35,2.91-.31,2.55.08,1.06v1.49l-.27,1.1.51,1.38-.28,1.22v2.87l-.2,1.3.24.9v1.49l.16.51-.31,1.1.16,1.42v2.4l.08,1.02-1.02.55h-3.42l-.9.12-.98-.08-2.16.31-1.02-.24-.12-.12-2.83.24-1.57-.16h-1.14l-.43.08h-.98l-2.08-.16-1.34.12h-2.36l-1.06-.12-1.06.16-.75-.71.12-1.22Zm8.53-19.77l-.08-.71-.31-.59.31-.47,1.57-.35,1.22-.51.27-.04.9-.35,2.04.55.67.28.47.75.47,1.18.2,1.1v2.04l.16,1.81-.16.51-.08,1.22.12.63v.75l.12.67-.12,1.02-.2.9.31,1.18.04.43.86.2.55-.04.83-.2.75-.75-.12-.71.2-.47-.2-1.26v-1.49l.12-.43-.08-.87.16-.83-.2-.9.08-.83v-1.14l-.08-.79v-.94l-.16-1.97-.28-.86-.79-1.46-.31-.31-1.1-.71-.98-.43-.71-.24h-1.53l-.87.08-.86.31h-1.02l-.55.31-.71.59-.75.43-.2.63-.55.08-.2-.2.24-1.53-.31-.31-.83.24-.71-.08-.63.51v.98l-.16.63.12,1.46-.16.55-.16,1.89.28,1.14-.12,1.46v3.3l.2,1.53v2.08l-.08.71.47.51,1.14.27,1.38-.24.16-1.06-.16-1.02.16-.83-.2-1.22.24-.39v-5.7l-.16-1.18.04-.51Z"/><path class="cls-5" d="m80.1,177.26l-.2-1.18v-4.8l.24-.67.16-.79-.51-1.73.31-2.55-.16-1.18.24-.75-.2-1.02-.24-2.36.35-1.57-.04-.55.35-1.38-.31-1.65v-2.12l-.16-1.38v-2.63l.12-1.73v-1.77l.12-.47v-1.14l-.16-.94-.08-1.06.2-1.77-.2-.98.16-1.57v-.67l-.2-1.49.94-.59h2.32l.75.12.94-.28,2,.39,1.57-.16.9.16,1.1-.27,2,.24h1.26l1.89-.12h8.88l.67.47-.16,1.26.24,1.02-.31,1.38.28,1.22-.12.94.24,1.49-.31,1.18.16,1.26v1.61l.2.47-.28,1.06v.94l.16,1.14-.24,1.53.31,1.3-.24,1.49.16,1.18.24.98-.39,2.75v4.8l.2.75-.27.39.2,1.97-.16,2.28.16.63v2.08l.16.35-.31.86.16,1.22v2.87l.08,1.14-1.06.39-1.26.16h-.98l-1.38-.2-1.45.28h-.87l-.87.43-1.57-.39-.9-.08-2.28.24-1.93-.16h-3.22l-1.18-.08-.63.24-2.48-.16-1.06-.2-1.77.16-.39-.63.12-1.61Zm10.26-21.5v1.42l-.28.43v1.65l.16.94-.2.71v2.44l-.12,1.18.12.31v1.02l.08.67.2.71-.31.31h-.47l-.55-.24h-2.99l-.71.63-.16.35v.43l.28.79.2.28.47.16,1.3.12.55-.16,1.22.16.31-.08h1.69l.83.12.43-.12h1.3l.9-.16.24.2h1.06l.24-.04h2.79l.98-.28.2-1.1-.12-.83-.86-.35-.87-.2-1.89.27-1.02-.2-1.85.12-.55.35-.2-.39.16-.75.24-.51.2-1.3-.2-.51-.16-.83.24-.87-.35-1.65.31-.9v-.55l-.16-.79.12-1.77-.43-1.65.47-.43.39.31,2.32.16.2.12.98.12,1.38-.12,1.34.12.35-.87-.16-1.02-.39-.71-2.04-.2-.71.08h-3.14l-.55.39-.43-.31.31-.51.31-.83.35-1.77.55-.47.55-.71.83-.51,1.18-.43,1.89-.31h.67l.59-.39.08-.75v-1.26l-.31-.2h-2l-1.45.31-.63.12-1.65.67-1.49,1.14-.71.55-1.42,2.2-.28,1.42.16,1.53-.39.39-.9-.43-2.16.16-.35-.04-.9.28-.31,1.06v.75l.35.31,1.81.28,2.55-.43.43.67Z"/><path class="cls-5" d="m103.64,177.97l-.16-2.4v-2.75l-.2-.98.43-1.42v-1.1l-.28-1.1.16-2.32-.24-.43.39-1.57-.35-1.81v-1.89l.43-1.06-.2-1.57.24-1.22-.12-.59-.12-1.34v-1.26l-.16-1.53v-3.22l.12-1.22v-1.02l.24-.83-.27-2.71v-1.57l.12-.43-.08-1.1v-3.07l-.16-1.22.94-.51h2.79l.79.16.75-.28,1.69.28.59-.04,1.73.27,1.61-.43.87.28h2.16l1.61-.12h1.93l1.02.12,1.81-.24,3.26.2,1.18-.08.43.47v1.49l.16.63-.35,1.26.27,1.42-.12,1.14.24,1.49-.27.83.2,1.26-.31,1.1.39,1.57-.43,1.06.39,1.65-.16,2,.24.79-.24,1.22.16,1.1v-.04l.28,1.41-.31,1.38v3.62l-.35,1.77.55,1.81-.31,1.06v3.5l.12.59v1.45l.35.55-.51,1.65.16,1.42v3.03l-.87.9h-2.36l-1.1-.12-.79.2h-1.45l-1.89.2-1.53-.24-1.14.08h-6.09l-.63-.2-1.3.39-2.24-.2h-.71l-1.61-.16h-1.22l-.24-.51.08-.9Zm16.98-10.22l.16.16v1.89l.24.2.83.12h1.02l.35-1.57v-3.03l-.2-.94.2-.51-.2-1.34.28-1.97-.24-.71.12-1.34v-.9l.16-1.06-.16-1.77-.12-.75v-.79l-.39-.39-1.1-.2-.71.16-.51.51-.39.87.24,1.1-.12.08-.16,1.02v.83l.24.9-.12.67.2.9-.2.71.12,1.42-.16.87v2.04l.39,1.22-.04.59-.51-.04-1.38.31-.31.39-1.18.2-.67.16-1.3-.2h-1.38v-.35l-.28-.2-.55-.63-.16-.71-.27-.59-.24-1.49.39-.86-.12-.87-.2-.75v-1.69l.12-.43-.08-.67.16-.63-.12-.9.08-1.3-.24-1.97-.63-.59-.79-.08-.59.04-.71.79-.35,1.26.08.16-.16.79.2.55-.12,1.18.12.59.12,1.81-.08.16.04.59-.24,1.3.08.55v2.32l.31.75v1.3l.35.2.59.79.2.71,1.06.63.35.39.24.16,1.42.35.55.08h1.26l.83-.16.31.12,1.26-.31,1.22-.71.59-.55.98-.9Z"/><path class="cls-5" d="m127.31,177.66l-.2-2.44v-4.09l.28-.75.16-1.06-.35-1.61.16-1.22-.2-.35-.16-.55.47-2.28-.2-1.18-.39-1.45.47-2.04.16-2.08-.16-1.85v-1.18l-.31-1.77.24-1.3v-1.22l-.12-.16.16-2.04v-1.18l.16-.63.04.04v-1.81l-.28-1.3v-.83l.16-.83-.2-1.02.16-1.77v-.75l-.2-1.49,1.02-.75.63.04,1.89-.2,1.3.2v-.12l.2-.16,2.36.43.9-.08.94.24,1.49-.39,2.08.24,1.3-.08h10.57l.55.43-.12,1.61.24.9-.39,1.34.31,1.26-.12,1.42.2,1.34-.24.67v2.67l.35,1.02-.2,1.49-.16.24.16,1.77-.16.87.2,1.65-.08.16-.24.2.31,2.2.24.87-.51,2.24.16.63v4.05l.31.67-.43,1.34.2,1.85v1.02l-.35.59.39,1.42-.08,1.1.2,1.26-.35.9.08.87v-.04l.12.9v2.44l.08.86-.08.12-3.66.35-.71-.2-1.38.2h-1.34l-.71.27-1.14-.24-.75-.08-2.55.24-2.12-.16h-3.3l-.51-.2-1.65.28-1.06-.08h-1.49l-1.22-.12-1.1.12-.43-.71v-1.18Zm20.4-12.54l.08-.75-.63-1.49-.71-.94-.71-.35-.75-.59-1.06-.16-.39-.31-.71-.08-2.52-.71-.47.08-.67-.24-1.14-.16-1.42-.43-.67-.51-.35-.28-.24-.59.04-.51-.08-.43.35-.59.71-.47,1.61-.35,1.34-.35,1.26.24.51-.04,1.26.39,1.14.94.35.79,1.22.51,1.18.12.63-.47.12-.16-.16-1.1-.51-.63-.39-.87-.63-.35-.28-.31-1.49-.9-.71-.08-1.53-.63-.67.16-1.34-.28-.67.24-.63.04-.98.2-1.1.12-.71.2-.24.28-.79.27-.63.55-.39.51-.47,1.1-.35.39-.2,1.14.08,1.18.94,1.57.59.63,1.42.59,1.61.79.39.04,1.34.39h1.06l.59.08,1.57.51.71.12.24.16.43.12,1.18.94.16.43.08.83-.27.51-.16.55-.63.55-1.89.59-1.14-.31h-1.02l-1.18.2-.86-.35-.94-.24-.67-.47-.59-.9-.35-.79-.39-.35-1.53-.12-.55-.04-.43.28-.04.59.27.67.31,1.06.24.35.79.87.12.24.9.9,1.49.51h.51l.59.24,1.06.08.55.12h2.12l2.16-.35h.71l2.04-1.1.9-.9.83-1.1.08-.94.16-.79v-.04Z"/><path class="cls-5" d="m150.82,172.66l-.28-.24-.04-.16.47-2.12-.43-1.3.16-1.38.24-1.22-.12-1.65.39-.43-.43-1.96v-2.08l.28-.51-.24-3.03.39-.35-.35-1.97v-1.1l-.2-.87.16-1.96v-3.34l.16-.39v-2.44l-.2-1.14v-1.46l.24-.55-.24-1.77.16-.94-.08.04v-1.65l-.12-.79.94-.9.59.04,1.38-.12,1.18.28,1.57-.24,1.22.28h2.48l1.06-.24.59-.04,1.85.16h4.52l1.1.24,1.57-.24h4.64l.51.43v1.85l.08.39-.35.79.28,1.45-.16,1.22.31,1.97-.28.98.16,1.14-.35.59.43,1.73-.43.86.43,2.59-.12,1.65.12.55-.2.67.31,2.63v1.1l-.2,1.81v2.28l-.2,2.4.39,1.02-.2,1.1v2.2l-.31.9.35,1.34-.08,1.06.28.79-.35,1.34.08.9v4.52l-.12.16-1.85.16h-.9l-1.22-.2-1.65.35h-2.91l-.83-.2-2.71.24-1.45-.12h-4.25l-.16-.2-1.85.31-1.02-.08h-1.57l-.35-.16-1.49.2-.79-.71v-6.49Zm7.55-9.12l-.79-1.61.24-.35.71.16.51.24,1.57.2.35-.2,1.1.16.71-.31.87.16,1.69-.24.94.28.43-.16,1.18.08.59-.12.9.12.47-.16h.71l.83-.51.28-.55-.24-1.34.08-.28-.28-1.18-.24-.51-.24-.9-.55-.9-1.61-1.57-.55-.39-.51-.16-.75-.35-1.02-.2-.35-.27-.83-.24-.55.2-.39-.2-1.02-.16-1.1.24-.39.24-.79.2-1.69.79-.94.51-.55.9-.2.04-.35.51-.47,1.02-.63.94-.04.43-.31.75v1.61l-.2.87.39,2.04-.08.79.12,1.34.35.16.51.98.16.51.75.63.51.94,1.02.51.94.43.9.43.63.12h.79l1.73.31h.79l1.61-.35.67-.31h.35l.75-.28,1.3-.86.59-.63.87-.55.63-1.45.16-.63-.24-.71-.63-.12-.28-.12h-.83l-.71.67-.24.08-1.18,1.53-1.18.31-.16.35-1.3.43h-1.06l-2.83-.63-.24-.24-.83-.55-.51-1.1-.28-.08-.35-.75-.08-.63-.12-.35Zm10.5-4.32l.2.47-.28.35-1.69-.55-.71.2-1.02.12-1.34-.16-1.3-.12-1.42.16-1.06.08-1.14-.08-.9.35-.39-.16.12-.63.35-.47.43-.94.12-.47.47-.55.43-.67,1.97-.98.9-.28.47.12h.67l1.97.31,1.3.98.71.94.63,1.18.51.79Z"/><path class="cls-5" d="m174.52,177.54l-.12-1.22v-3.3l-.16-.71.35-1.22v-1.93l-.27-1.18.08-.75.16-.28-.31-1.65.31-1.93-.16-.83v-.67l-.31-.71.63-2.04-.24-1.45.2-1.61-.24-.63v-2.4l-.2-.55.12-1.1v-2.24l.12-1.73v-1.97l.16-1.26-.2-1.38v-1.73l.08-.43-.16-.75.2-1.93-.16-2.44,1.06-.55,2.24-.2,1.57.35.55-.2,1.26.28,1.3-.12.9.08.83-.28,1.3.2h6.29l1.61.12.83-.12h1.49l.35.12h2.63l.94.35-.24,1.3.31,1.46-.35.79.24,1.42v1.69l.2.67-.31,1.3.2,2.55.24.43-.35,1.77v.94l.2.94-.2,1.73.27.83-.27,1.61.2.94.12,1.1v.71l-.2,1.81v1.57l-.24,3.38.31,1.14-.2.67.12,1.38-.16,2.2.16.71v1.65l.2.2.04.16-.39,1.45.12,1.42v3.26l-.94.79-2.55.16-.98-.08-1.34.24-1.3-.08-1.06.39-1.73-.43-1.34.2h-1.61l-1.81-.12h-3.03l-1.1-.12-1.26.12h-1.57l-1.53-.16h-1.77l-.24-.47.12-1.65Zm15.92-22.96l-1.49-1.57-1.65-.31-1.02-.24-.51.08-1.06-.12-1.22.39-.59.12-1.26.71-.31.43-1.38,1.45-.08.55-.24.2-.67,1.69-.39,1.22-.12,1.22.31,1.34-.16.55.24.83v1.3l.67,1.96.2.47.55.9.9.79.59.59,1.02.39.12.31,1.18.35,1.69.2h.71l.83-.31h.71l2.12-.79.2-.59.98-1.06.2.2-.16.83-.08,1.02.16.28,1.22.16h1.06l.24-.39.2-.98-.2-.86.12-1.73-.16-.71.12-1.85-.31-1.53.16-.35.12-.71-.12-1.1v-2.2l-.08-1.14.16-.87v-1.26l.12-1.14-.12-1.1v-1.49l.12-1.81-.12-.71.12-1.93-.43-1.34-1.3-.08-.79.12-.51.43-.24,1.93-.08.63.12,1.89v1.3l.2.98-.2.98v1.18l-.39.31Zm-8.69,6.84l-.2-1.18.63-1.1-.16-.71.39-.47v-.27l.94-1.53.24-.08.71-.63.71-.27.39.04,1.77-.12h1.1l1.41.83.67.2.51-.12.55.55-.39.51-.31,1.02.28.9-.24.67.2.39-.16,1.69-.04.63.31,1.02-.27,1.53.24.79.28.63-.39.39-.9.08-.98.35-.71.51-1.46.12-.67-.12-.71.08-1.49-.67-.51-.39-.83-1.06-.51-.83v-.51l-.24-.59.12-1.34-.28-.71v-.24Z"/><path class="cls-5" d="m198.07,178.01l-.2-1.38v-2.32l-.2-2.36.39-1.53-.08-.87-.35-.71.24-1.42.12-1.45-.2-.16-.04-.16.43-1.89-.51-3.18.35-1.77v-2.36l.08-.55-.08-.9v-1.49l-.24-1.49.2-.67v-5.7l.12-1.49-.24-1.06v-1.38l.28-1.34-.24-1.49.12-1.18-.2-1.97,1.06-.79.9.12.75-.2,1.41.35,1.93-.2.86.12h2.79l.55-.16.51-.04,2.04.24,1.3-.12h7.78l1.14.12h1.89l.35.31v1.81l.08.16-.51,1.57.43,1.85-.2.28.24,1.96-.31.47.24,1.69v1.38l.27.55-.39,1.49v.83l.16,1.42-.2.79.28,1.97-.2,1.1.43,2.12-.51,2.24.2,1.18v1.96l-.2,2.12.35,1.02-.24.94v3.58l.08.24v1.69l.31.55-.43,1.81.16,1.06v4.01l-.12.16-2.16.2-.98-.12-1.45.12.04.08h-1.73l-1.65.43-1.61-.39-.71-.08-1.96.2-1.38-.12h-5.46l-.16.12-1.18-.12h-3.26l-1.42-.63.12-1.18Zm10.69-30.54l-1.61.24-1.26.67-.43.12-.83.63-.63.28-.35.43-.67,1.06-.39.9-.04.59.08.94.31.31.9.12h.59l.87-.43.39-.98.24-.39.83-.94.16-.04.83-.63.31.04,1.61-.47.94.2h1.57l.94.59.2.04.86.63.83,1.18-.08.55v.86l-.24.79.04.43-.67,1.42-.31.12-.75.94-.9.87-.35.2-1.42,1.22-1.1,1.1.35.79.55.43.55-.04,2.08-1.26,1.1-.67.98-.9.87-1.18.55-.28.31-.31.67-1.1.43-.51.31-.71v-.9l.2-.43v-1.61l-.47-1.69-.39-.55-.67-.51-.43-.47-1.42-.86-.59-.16-.51-.24-1.93-.12-.2-.24-1.26-.12-.71.16-.86-.08Zm3.66,20.05l-.16-1.22-.63-.55-1.81-.16-.55-.08-.71.28-.35.51-.31.86.12,1.45.16.67,1.22.55,1.1.16h.59l.9-.43.28-.39v-1.42l.16-.24Z"/></g><g class="cls-10"><path class="cls-5" d="m15.81,191.83l.08-.33v-.34l.05-.57-.04-.08.11-.43-.03-.09.03-.42v-.19s.16-.24.16-.24l-.04-.47h-.04s.12-.73.12-.73l-.07-.19.15-.31v-.24l-.04-.14.05-.37.12-.38v-.54l.14-.22.04-.11.41-.04h.19s.22.1.22.1l.11.18-.07.58-.07.12v.58l-.08.29.05.28-.11.39.03.12-.13.37-.04.42.04.43-.11.26.03.14-.12.27v.31l-.05.56v.04s-.12.49-.12.49l.03.28-.05.6-.12.49-.16.23-.16.03-.34.16-.45-.08-.33-.19-.22-.45-.14-.61h-.04l-.11-.5-.15-.46-.1-.19-.05-.27.05-.19-.18-.37-.04-.26-.2.12v.15s-.08.22-.08.22l-.22.47-.03.39-.08.09-.03.34-.13.24-.11.41-.19.53-.16.3-.62.23-.19.03-.27-.08-.2-.15-.14-.16v-.31l-.09-.34v-.15s.01-.31.01-.31l-.16-.52v-.26l-.04-.58-.08-.26-.03-.41-.04-.2.04-.22-.11-.41-.1-.49v-.51l-.07-.2-.03-.37.03-.26-.11-.24.03-.18-.09-.24.11-.18-.04-.5.16-.12.24-.03.1-.04h.2l.2.08.12.49-.04.18.09.47h-.01s.14.24.14.24l-.04.42.03.19.04.61.04.29.05.15.05.38-.03.27.05.49.08.12-.11.35.18.45-.04.27.04.04v.42l.03.11-.04.37.16.05.12-.53.11-.35.18-.42v-.15s.12-.27.12-.27l.11-.38.12-.26v-.33l.07-.11-.09-.22.31-.47v-.18s.34-.15.34-.15h.43l.24.09.3.43.04.23.16.55.11.52v.13s.12.31.12.31l-.03.05.19.64.14.33.03.29.08.27h.11Z"/><path class="cls-5" d="m20.57,190.94l.03.22.12.26.09.03.18.38.28.19.08.08.98.22h.37l.45-.15.05-.12.41-.11.41-.53.08-.03.24-.23h.29l.09.04.22.04.08.24-.05.22-.22.5-.3.19-.2.22-.45.3-.26.09h-.12l-.23.11-.56.12h-.27l-.6-.11h-.27l-.22-.04-.31-.15-.33-.15-.35-.18-.18-.33-.26-.22-.05-.18-.18-.34-.12-.05-.04-.46.03-.27-.14-.7.07-.3v-.55l.11-.26v-.15s.23-.33.23-.33l.16-.35.12-.18h.07s.19-.33.19-.33l.32-.18.58-.27.27-.07.13-.08.38-.08.35.05.13.07.19-.07.28.08.12.09.35.07.26.12.18.05.19.14.56.54.19.31.08.31.08.18.1.41-.03.09.08.46-.09.19-.28.18h-.24l-.16.05-.31-.04-.2.04-.41-.03-.15.05-.33-.09-.58.08-.3-.05-.24.11-.38-.05-.12.07-.54-.07-.18-.08-.24-.05-.08.12.27.55.04.12Z"/><path class="cls-5" d="m40.41,193.16l-.26-.07-.42.11-.61-.05-.54-.09-.47-.18-.19-.16-.15-.24-.23-.22-.22-.64v-1.9l.04-.16-.08-.34.07-.14-.09-.27.11-.22-.03-.41.15-.15-.12-.16-.27.12-.35.04-.34-.04-.22.04h-.14s-.64-.05-.64-.05l-.08-.19-.04-.3.04-.27.16-.08.29.03h.62l.18-.03h.53l.24.14.15-.14-.16-.23-.04-.43v-.39l.05-.31-.07-.38.09-.31-.05-.3v-.34l.43-.05h.43l.16.13.03.34-.07.35.04.33v1.19l-.16.33.12.16.22-.07.76-.07.26.04.15-.04.46.09.29-.09.39.05h.16l.19.19.04.11.03.34-.16.14-.68.09-.14.07-.33-.11-.6.12-.34-.04-.22.03-.43-.24-.12.18.15.5v.35l-.04.19v.61l-.04.11.09.38-.08.58v.18l.16.75.05.09.15.14.19.26h.2s.2.11.2.11l.54-.04.27.04.28-.05.27-.12.31.04.14.41-.1.24-.03.14-.31.14-.26.12Z"/><path class="cls-5" d="m45.31,189.23l-.04.12.04.35.08.05-.14.64.05.23v.2s.07.19.07.19l-.09.42.05.2-.07.16.03.27v.53l-.03.15-.12.23-.35.07-.46-.08-.08-.26v-.2s-.07-.2-.07-.2l.05-.75.04-.19-.04-.26.03-.29v-.58l-.08-.22.11-.39-.09-.26.08-.2-.07-.39.07-.22.03-.38-.09-.33-.04-.3.12-.32v-.47l-.07-.61v-1.38l.15-.38.3-.03h.27l.34.24.03.31-.03.18.03.37v.8l-.04.07.08.43-.1.51-.05.47.12.05.11-.22.46-.35.18-.1.3.04.47-.18h.65l.24.03.51.27.27.19.34.49.14.39.05.79v.22s.03.54.03.54l-.03.34.04.22-.05.24.07.38-.07.3v.47l.09.39-.08.27.04.18-.05.33h-.65l-.23-.04-.12-.19-.08-.34.04-.16.04-.62-.04-.16v-.41l-.07-.37.07-.43v-.51l-.05-.07.07-.54-.11-.31v-.35l-.41-.47-.39-.11-.3-.14-.42.14h-.18s-.27.18-.27.18l-.34.11-.08.05h-.16l-.15.12.04.22.12.26-.05.35Z"/><path class="cls-5" d="m55.04,187.02h.37l.38.11.24.1.34.22.27.09v.04l.33.31.16.3.2.22.22.38.04.33v.31l.08.34-.03.37-.11,1.11-.08.18-.23.57-.26.31-.42.39-.27.14-.42.19-.52.05-.22.08h-.41l-.46.05-.49-.15-.14-.12-.3-.07-.12-.1-.27-.15-.04-.11-.43-.35-.12-.22-.14-.14-.12-.39-.11-.56-.13-.24.03-.42.08-.49-.07-.33.33-.75.05-.18.16-.35.14-.16.27-.37.27-.11.14-.09.24-.05.28-.18.07-.09h.37-.03s.47-.05.47-.05h.16l.23.03Z"/><path class="cls-5" d="m64.1,192.57l-.2.19-.42.24-.43.11-.11-.04-.28.05h-.43l-.19-.03-.49-.12-.08-.05-.12-.14-.37-.22-.07-.24-.2-.27-.12-.07v-.45l-.11-.26v-.8l-.03-.19.08-.45v-.2s.01-.05.01-.05l-.04-.62-.04-.2.04-.41-.07-.19.05-.27-.03-.05.12-.43.24-.27h.2s.27.01.27.01l.22.2.08.68-.03.45.04.31-.05.22.03.23-.04.15v.58l.07.26.04.3-.14.3.08.52.09.2.05.24.19.22.1.07v.12h.47l.45.07.23-.05.41-.07.11-.13.47-.11h.18s.01-.19.01-.19l-.14-.42v-.7l.05-.3-.04-.49.07-.24-.07-.31.04-.23-.08-.31v-.28l.05-.35.04-.03-.08-.38.13-.3.18-.18.24-.05.38.07.14.14v.27l.04.26.05.61-.05.37v.31l-.04.46.08.24-.09.68.07.46-.07.18.07.33v1.04l-.12.54h-.35l-.29-.04-.08-.07v-.65l-.05-.05-.34.31Z"/><path class="cls-5" d="m72.6,187.64l-.03-.45.11-.08h.45l.31.08.05.33-.08.76.04.49v.56l.04.27-.05.41v.49l-.07.12.07.64.05.2v.56l-.07.13.03.35-.05.15.11.26-.05.37-.03.04.04.2-.03.33-.09.33-.05-.03-.15.5-.43.5-.15.05-.15.09-.23.05-.26.11-.53.13-.13.1-.54-.07-.08-.09-.45.07-.24-.03-.38-.11-.47-.22-.29-.29-.26-.31-.09-.31-.19-.34.07-.43.31-.15.27.04.41.15.04.46.18.26.09.08.22.12.26.07.37.19.3-.05h.69l.39-.2.18-.13h.04l.26-.45.04-.33-.07-.12.07-.3.08-.11.04-.37.07-.28-.14-.1-.42.45-.39.11-.51.19-.42.03-.28-.07-.34.04-.62-.26-.13-.14-.16-.08-.09-.08-.28-.34-.22-.16-.09-.45.03-.19-.2-.46-.07-.23.04-.15-.11-.57.11-.27-.03-.38.15-.46.07-.3.07-.18.08-.11.18-.38.09-.07.3-.31.18-.14.3-.18.24-.08.5-.2.39.05.19.09.23-.09.47.2.07.08.22.09.18.18.34.23.15-.12Z"/><path class="cls-5" d="m77.84,189.23l-.04.12.04.35.08.05-.14.64.05.23v.2s.07.19.07.19l-.09.42.05.2-.07.16.03.27v.53l-.03.15-.12.23-.35.07-.46-.08-.08-.26v-.2s-.07-.2-.07-.2l.05-.75.04-.19-.04-.26.03-.29v-.58l-.08-.22.11-.39-.09-.26.08-.2-.07-.39.07-.22.03-.38-.09-.33-.04-.3.12-.32v-.47l-.07-.61v-1.38l.15-.38.3-.03h.27l.34.24.03.31-.03.18.03.37v.8l-.04.07.08.43-.1.51-.05.47.12.05.11-.22.46-.35.18-.1.3.04.47-.18h.65l.24.03.51.27.27.19.34.49.14.39.05.79v.22s.03.54.03.54l-.03.34.04.22-.05.24.07.38-.07.3v.47l.09.39-.08.27.04.18-.05.33h-.65l-.23-.04-.12-.19-.08-.34.04-.16.04-.62-.04-.16v-.41l-.07-.37.07-.43v-.51l-.05-.07.07-.54-.11-.31v-.35l-.41-.47-.39-.11-.3-.14-.42.14h-.18s-.27.18-.27.18l-.34.11-.08.05h-.16l-.15.12.04.22.12.26-.05.35Z"/><path class="cls-5" d="m89.21,193.16l-.26-.07-.42.11-.61-.05-.54-.09-.47-.18-.19-.16-.15-.24-.23-.22-.22-.64v-1.9l.04-.16-.08-.34.07-.14-.09-.27.11-.22-.03-.41.15-.15-.12-.16-.27.12-.35.04-.34-.04-.22.04h-.14s-.64-.05-.64-.05l-.08-.19-.04-.3.04-.27.16-.08.29.03h.62l.18-.03h.53l.24.14.15-.14-.16-.23-.04-.43v-.39l.05-.31-.07-.38.09-.31-.05-.3v-.34l.43-.05h.43l.16.13.03.34-.07.35.04.33v1.19l-.16.33.12.16.22-.07.76-.07.26.04.15-.04.46.09.29-.09.39.05h.16l.19.19.04.11.03.34-.16.14-.68.09-.14.07-.33-.11-.6.12-.34-.04-.22.03-.43-.24-.12.18.15.5v.35l-.04.19v.61l-.04.11.09.38-.08.58v.18l.16.75.05.09.15.14.19.26h.2s.2.11.2.11l.54-.04.27.04.28-.05.27-.12.31.04.14.41-.1.24-.03.14-.31.14-.26.12Z"/><path class="cls-5" d="m103.69,192.06l.09-.07v-.26l.19-.54.04-.2.2-.33.05-.19v-.11s.15-.35.15-.35l.16-.23.07-.31.05-.05.2-.45.14-.47.11-.22.19-.57.18-.34.37-.26h.23l.23.07.26.23-.03.22-.46.88-.12.37-.03.15-.26.43.05.14-.28.41-.04.12-.11.12-.09.37-.16.18-.07.38-.07.15-.11.14-.2.53-.23.57-.16.3-.18.51-.09.11-.15.33-.08.12-.11.28-.28.23-.07.16-.34.15-.23.31-.11.03-.23.15-.45.18-.43.08-.22-.04-.29.08-.19-.03-.15-.38v-.22s.05-.12.05-.12l.46-.2.3-.07h.23l.35-.16.28-.3.43-.29.26-.39.16-.07.11-.27h-.19l-.26-.3.03-.08-.31-.56-.03-.22-.11-.09-.18-.37-.07-.2v-.18l-.12-.28-.26-.43-.05-.03-.1-.42-.18-.28v-.11s-.15-.3-.15-.3l-.15-.12-.09-.45-.14-.33v-.18s-.24-.33-.24-.33l-.12-.39.16-.18.26-.11h.11s.12-.04.12-.04l.29.18.27.38.23.5.14.45.13.2.05.23.12.23v.16s.12.19.12.19l.15.39.18.35v.15s.19.34.19.34v.19s.15.24.15.24l.03.19.22.42.2.19Z"/><path class="cls-5" d="m111.97,187.02h.37l.38.11.24.1.34.22.27.09v.04l.33.31.16.3.2.22.22.38.04.33v.31l.08.34-.03.37-.11,1.11-.08.18-.23.57-.26.31-.42.39-.27.14-.42.19-.52.05-.22.08h-.41l-.46.05-.49-.15-.14-.12-.3-.07-.12-.1-.27-.15-.04-.11-.43-.35-.12-.22-.14-.14-.12-.39-.11-.56-.13-.24.03-.42.08-.49-.07-.33.33-.75.05-.18.16-.35.14-.16.27-.37.27-.11.14-.09.24-.05.29-.18.07-.09h.37-.03s.47-.05.47-.05h.16l.23.03Z"/><path class="cls-5" d="m121.04,192.57l-.2.19-.42.24-.43.11-.11-.04-.28.05h-.43l-.19-.03-.49-.12-.08-.05-.12-.14-.37-.22-.07-.24-.2-.27-.12-.07v-.45l-.11-.26v-.8l-.03-.19.08-.45v-.2s.01-.05.01-.05l-.04-.62-.04-.2.04-.41-.07-.19.05-.27-.03-.05.12-.43.24-.27h.2s.27.01.27.01l.22.2.08.68-.03.45.04.31-.05.22.03.23-.04.15v.58l.07.26.04.3-.14.3.08.52.09.2.05.24.19.22.09.07v.12h.47l.45.07.23-.05.41-.07.11-.13.47-.11h.18s.01-.19.01-.19l-.14-.42v-.7l.05-.3-.04-.49.07-.24-.07-.31.04-.23-.08-.31v-.28l.05-.35.04-.03-.08-.38.14-.3.18-.18.24-.05.38.07.14.14v.27l.04.26.05.61-.05.37v.31l-.04.46.08.24-.09.68.07.46-.07.18.07.33v1.04l-.12.54h-.35l-.28-.04-.08-.07v-.65l-.05-.05-.34.31Z"/><path class="cls-5" d="m133.91,189.24l.07.37v1.1l-.03.26.1.46-.07.33-.03.41.1.22-.15.47-.08.11-.38.14-.19-.05-.3-.26.04-.24-.03-.2v-.7l.07-.03-.07-.87.05-.05-.07-.49.03-.18-.03-.26.07-.2-.05-.22v-.98l-.05-.14.08-.47v-.35l-.07-.05.41-.3.53.16-.08.37.09.24.16-.27.2-.15.13-.14.19-.05.41-.19.3-.08.49.16.38.26.15.15.09.19.05.27h.16s.12-.37.12-.37l.11-.15.12-.05.16-.22.37-.14.42-.07h.24l.15.09.52.2.11.23.24.47.14.54-.05.53v.76l.05.47-.04.43.04.42-.11.47.04.43.09.19-.07.45-.1.16-.15.16-.35.08-.2-.08-.2-.31.07-.23-.07-.26-.05-.5.12-.27v-.26l-.11-.5.04-.47-.09-.12.11-.38-.09-.68.05-.41-.05-.34-.15-.19-.11-.1-.34-.08-.41.16-.6.22-.15.18.13.22.1.42-.04.5.04.16-.05.2.04.49-.04.12v.42l.07.41-.11.12.08.57-.08.16.03.37-.07.35-.39.11-.34-.05-.14-.39-.04-.41v-.31l-.04-.08v-.38l.08-.28v-.15s-.07-.69-.07-.69l.07-.22-.04-.57.07-.53-.09-.34-.04-.3-.07-.16-.13-.16-.19-.12-.15.03-.11-.03-.41.18-.07.05-.39.12-.15.13.15.52-.11.3Z"/><path class="cls-5" d="m146.82,192.72l.03.09-.15.18-.31.04-.2-.07-.27.03h-.65l-.22.07-.22-.04-.62.05-.58-.07h-.28l-.27.07-.18-.03-.51-.04-.26.07-.27-.03-.19-.22.03-.38.14-.19.6-.15h.33l.23.03h.3l.42.05.12-.03.11-.09-.11-.24-.03-.16.03-.34-.05-.26.08-.26-.05-.24v-.61l.05-.41-.05-.5.04-.26-.03-.33.09-.26v-.2l-.08-.09-.24.04-.27.08-.26.04-.3-.07-.19.04h-.62l-.2-.05-.03-.41-.05-.24.24-.23.2-.03.41.08.16-.04h.64s.43.01.43.01l.09-.09.46.07.08-.04.47.09.09.68-.05.39-.04.58.04.3v.71l-.04.05.04.51-.04.12.09.56-.07.39v.37l-.07.2.16.12.19.04.31-.07h.41l.58-.04.26.04.09.11.05.33-.04.16Zm-1.79-7.74l-.09.3-.08.37-.24.08-.24.04-.43-.09-.16-.11-.08-.2-.03-.29.03-.04v-.26l.16-.27.22-.14h.56l.41.27v.34Z"/><path class="cls-5" d="m153.93,187.64l-.03-.45.11-.08h.45l.31.08.05.33-.08.76.04.49v.56l.04.27-.05.41v.49l-.07.12.07.64.05.2v.56l-.07.13.03.35-.05.15.11.26-.05.37-.03.04.04.2-.03.33-.09.33-.05-.03-.15.5-.43.5-.15.05-.15.09-.23.05-.26.11-.53.13-.14.1-.54-.07-.08-.09-.45.07-.24-.03-.38-.11-.47-.22-.28-.29-.26-.31-.1-.31-.19-.34.07-.43.31-.15.27.04.41.15.04.46.18.26.1.08.22.12.26.07.37.19.3-.05h.69l.39-.2.18-.13h.04l.26-.45.04-.33-.07-.12.07-.3.08-.11.04-.37.07-.28-.13-.1-.42.45-.39.11-.51.19-.42.03-.29-.07-.34.04-.62-.26-.13-.14-.16-.08-.09-.08-.28-.34-.22-.16-.1-.45.03-.19-.2-.46-.07-.23.04-.15-.11-.57.11-.27-.03-.38.15-.46.07-.3.07-.18.08-.11.18-.38.09-.07.3-.31.18-.14.3-.18.24-.08.5-.2.39.05.19.09.23-.09.47.2.07.08.22.09.18.18.34.23.15-.12Z"/><path class="cls-5" d="m159.17,189.23l-.04.12.04.35.08.05-.14.64.05.23v.2s.07.19.07.19l-.09.42.05.2-.07.16.03.27v.53l-.03.15-.12.23-.35.07-.46-.08-.08-.26v-.2s-.07-.2-.07-.2l.05-.75.04-.19-.04-.26.03-.29v-.58l-.08-.22.11-.39-.09-.26.08-.2-.07-.39.07-.22.03-.38-.09-.33-.04-.3.12-.32v-.47l-.07-.61v-1.38l.15-.38.3-.03h.27l.34.24.03.31-.03.18.03.37v.8l-.04.07.08.43-.09.51-.05.47.12.05.11-.22.46-.35.18-.1.3.04.47-.18h.65l.24.03.52.27.27.19.34.49.14.39.05.79v.22s.03.54.03.54l-.03.34.04.22-.05.24.07.38-.07.3v.47l.1.39-.08.27.04.18-.05.33h-.65l-.23-.04-.12-.19-.08-.34.04-.16.04-.62-.04-.16v-.41l-.07-.37.07-.43v-.51l-.05-.07.07-.54-.11-.31v-.35l-.41-.47-.39-.11-.3-.14-.42.14h-.18s-.27.18-.27.18l-.34.11-.08.05h-.16l-.15.12.04.22.12.26-.05.35Z"/><path class="cls-5" d="m170.54,193.16l-.26-.07-.42.11-.61-.05-.54-.09-.47-.18-.19-.16-.15-.24-.23-.22-.22-.64v-1.9l.04-.16-.08-.34.07-.14-.09-.27.11-.22-.03-.41.15-.15-.12-.16-.27.12-.35.04-.34-.04-.22.04h-.14s-.64-.05-.64-.05l-.08-.19-.04-.3.04-.27.16-.08.29.03h.62l.18-.03h.53l.24.14.15-.14-.16-.23-.04-.43v-.39l.05-.31-.07-.38.09-.31-.05-.3v-.34l.43-.05h.43l.16.13.03.34-.07.35.04.33v1.19l-.16.33.12.16.22-.07.76-.07.26.04.15-.04.46.09.29-.09.39.05h.16l.19.19.04.11.03.34-.16.14-.68.09-.14.07-.33-.11-.6.12-.34-.04-.22.03-.43-.24-.12.18.15.5v.35l-.04.19v.61l-.04.11.1.38-.08.58v.18l.16.75.05.09.15.14.19.26h.2s.2.11.2.11l.54-.04.27.04.28-.05.27-.12.31.04.14.41-.09.24-.03.14-.31.14-.26.12Z"/><path class="cls-5" d="m183.36,192.83l-.11.22h-.22s-.53-.12-.53-.12l-.08-.39.07-.31.05-.12-.04-.38.04-.07-.05-.5-.05-.39v-.92s.07-.62.07-.62l-.09-.45.03-.37.08-.31-.05-.43.04-.33v-.87l-.04-.11.03-.39v-.33l-.05-.04-.03-.37.09-.5.08-.04.09-.31.33-.03.35.05.19.23v.66l.05.43-.07.6.04.31-.05.26.08.37-.08.15-.03.24.08.15.14-.2.34-.23.2-.18.34-.09.77-.12.27.03.33.07.42.12.33.23h.04l.45.43.19.35.05.15.23.6.11.88.07.57-.2.87-.12.35-.38.68-.37.38-.51.31-.46.16h-.26l-.03.04-.66-.04-.31-.12h-.22l-.2-.18-.2-.08-.45-.45h-.16l.09.3v.19s-.04.01-.04.01Z"/><path class="cls-5" d="m191.36,190.94l.03.22.12.26.09.03.18.38.29.19.08.08.98.22h.37l.45-.15.05-.12.41-.11.41-.53.08-.03.24-.23h.29l.09.04.22.04.08.24-.05.22-.22.5-.3.19-.2.22-.45.3-.26.09h-.12l-.23.11-.56.12h-.27l-.6-.11h-.27l-.22-.04-.31-.15-.33-.15-.35-.18-.18-.33-.26-.22-.05-.18-.18-.34-.12-.05-.04-.46.03-.27-.14-.7.07-.3v-.55l.11-.26v-.15s.23-.33.23-.33l.16-.35.12-.18h.07s.19-.33.19-.33l.33-.18.58-.27.27-.07.13-.08.38-.08.35.05.13.07.19-.07.28.08.12.09.35.07.26.12.18.05.19.14.56.54.19.31.08.31.08.18.09.41-.03.09.08.46-.09.19-.28.18h-.24l-.16.05-.31-.04-.2.04-.41-.03-.15.05-.33-.09-.58.08-.3-.05-.24.11-.38-.05-.12.07-.54-.07-.18-.08-.24-.05-.08.12.27.55.04.12Z"/><path class="cls-5" d="m201.93,192.44l.03.31-.14.15-.51.2-.37-.04-.41-.11-.18-.26v-.58l.07-.43.14-.04.29-.24.13.05.46-.12.35.15.27.57-.13.39Z"/></g><g class="cls-10"><path class="cls-5" d="m12.86,206.71l-.09.39v.3l.07.42h.03s-.03.34-.03.34v.42l.04.33-.24.34-.34.05-.34-.08-.2-.23v-.26l-.08-.34v-.58l.05-.27v-.15l-.04-.1.04-.64-.05-.33v-.49l.05-.29.04-.45-.09-.22.08-.29-.05-.5v-.79l.03-.35-.07-.09.07-.3v-.71l.54-.22.09.05h.31l.12.09.04.37-.05.33.05.26v.27l-.04.15.08.37-.05.38.03.04-.07.58-.07.28v.09s.11.11.11.11l.31-.11h1.31l.11.04.34-.03.42.09.12-.04.07-.15-.04-.43-.05-.68-.03-.31v-.61l.18-.57v-.46l.15-.12h.24l.08.07.35.04.2.42-.05.42.04.39-.04.42v.08s-.01.26-.01.26l.05.2.03.41-.04.41v.33l-.05.33.03.33-.05.27.07.34.07.08-.05.46-.07.12.04.39-.03.29.07.53-.04.23-.03.07v.56l-.16.18-.47.04-.2-.11-.28-.2v-.24l.04-.31.07-.07-.05-.5v-.39l-.11-.24.12-.37-.05-.22v-.26l.05-.2.03-.27-.14-.14-.49.12h-1.02l-.61.04-.22-.11-.19.05-.04.12v.15l.11.23-.03.33Z"/><path class="cls-5" d="m20.57,207.2l.03.22.12.26.09.03.18.38.28.19.08.08.98.22h.37l.45-.15.05-.12.41-.11.41-.53.08-.03.24-.23h.29l.09.04.22.04.08.24-.05.22-.22.5-.3.19-.2.22-.45.3-.26.09h-.12l-.23.11-.56.12h-.27l-.6-.11h-.27l-.22-.04-.31-.15-.33-.15-.35-.18-.18-.33-.26-.22-.05-.18-.18-.34-.12-.05-.04-.46.03-.27-.14-.7.07-.3v-.55l.11-.26v-.15s.23-.33.23-.33l.16-.35.12-.18h.07s.19-.33.19-.33l.32-.18.58-.27.27-.07.13-.08.38-.08.35.05.13.07.19-.07.28.08.12.09.35.07.26.12.18.05.19.14.56.54.19.31.08.31.08.18.1.41-.03.09.08.46-.09.19-.28.18h-.24l-.16.05-.31-.04-.2.04-.41-.03-.15.05-.33-.09-.58.08-.3-.05-.24.11-.38-.05-.12.07-.54-.07-.18-.08-.24-.05-.08.12.27.55.04.12Z"/><path class="cls-5" d="m33.25,209.38l-.31.03h-.18s-.38.01-.38.01l-.24-.04-.26-.15-.12-.23-.07-.27-.09-.09-.24.24h-.12l-.23.22-.39.11-.22.14h-.16s-.3.11-.3.11h-.38l-.69-.07-.5-.19-.15-.11-.08-.12-.28-.15-.24-.39-.15-.51v-.58l.46-.65.04-.09.16-.18.3-.08.62-.19.14-.07h.54l.19.03h.24l.16.04h.16s.38-.01.38-.01l.3.08.38.16.07-.08-.05-.12-.05-.28.04-.61-.09-.2v-.23l-.18-.28-.28-.19-.24-.2-.62-.04-.53.05-.45.14-.26.29-.13.46-.12.16-.27.18h-.23l-.13-.03-.23-.09-.05-.19v-.3l.09-.19.03-.15.27-.46.38-.34.2-.11.35-.08.05-.09.61-.05h.61l.45-.07.35.09.28.12.26.07.28.24.26.27.16.28.05.15.15.39-.05.37.11.34.05.3-.05.37.07.45-.09.35v.8l.03.35.09.29.29.09.38-.08.18.05.07.27-.03.33-.14.15-.18.07v.04Z"/><path class="cls-5" d="m39.86,203.88v-.41l.07-.34-.07-.34v-.45l-.04-.65.03-.22.08-.66.18-.15.27-.04.45.03.15.46-.04.66.04.24-.04.62v.52l.04.38-.04.39v.43l-.05.3.03.39v.76l.04.38-.04.24-.05.12.11.53-.04.64.05.24-.04.6.07.3-.07.34-.08.14h-.37l-.42-.05-.05-.09.03-.35.05-.28-.07-.07-.34.37-.07.2-.73.27h-.24l-.28.11h-.24l-.58-.07-.41-.12-.04-.11-.35-.14-.2-.2-.31-.27-.19-.31-.07-.16-.23-.68v-.45l-.08-.29.05-.19-.11-.46.04-.42.14-.42.23-.58.08-.07.03-.19.47-.5.11-.15.43-.24.2-.04.42-.14.37.04.18-.03.35.08.57.11.51.54.14-.11Z"/><path class="cls-5" d="m56.68,209.42l-.26-.07-.42.11-.61-.05-.54-.09-.47-.18-.19-.16-.15-.24-.23-.22-.22-.64v-1.9l.04-.16-.08-.34.07-.14-.09-.27.11-.22-.03-.41.15-.15-.12-.16-.27.12-.35.04-.34-.04-.22.04h-.14s-.64-.05-.64-.05l-.08-.19-.04-.3.04-.27.16-.08.29.03h.62l.18-.03h.53l.24.14.15-.14-.16-.23-.04-.43v-.39l.05-.31-.07-.38.09-.31-.05-.3v-.34l.43-.05h.43l.16.13.03.34-.07.35.04.33v1.19l-.16.33.12.16.22-.07.76-.07.26.04.15-.04.46.09.29-.09.39.05h.16l.19.19.04.11.03.34-.16.14-.68.09-.14.07-.33-.11-.6.12-.34-.04-.22.03-.43-.24-.12.18.15.5v.35l-.04.19v.61l-.04.11.09.38-.08.58v.18l.16.75.05.09.15.14.19.26h.2s.2.11.2.11l.54-.04.27.04.28-.05.27-.12.31.04.14.41-.1.24-.03.14-.31.14-.26.12Z"/><path class="cls-5" d="m63.17,203.29h.37l.38.11.24.1.34.22.27.09v.04l.33.31.16.3.2.22.22.38.04.33v.31l.08.34-.03.37-.11,1.11-.08.18-.23.57-.26.31-.42.39-.27.14-.42.19-.52.05-.22.08h-.41l-.46.05-.49-.15-.14-.12-.3-.07-.12-.1-.27-.15-.04-.11-.43-.35-.12-.22-.14-.14-.12-.39-.11-.56-.13-.24.03-.42.08-.49-.07-.33.33-.75.05-.18.16-.35.14-.16.27-.37.27-.11.14-.09.24-.05.28-.18.07-.09h.37-.03s.47-.05.47-.05h.16l.23.03Z"/><path class="cls-5" d="m79.44,203.29h.37l.38.11.24.1.34.22.27.09v.04l.33.31.16.3.2.22.22.38.04.33v.31l.08.34-.03.37-.11,1.11-.08.18-.23.57-.26.31-.42.39-.27.14-.42.19-.52.05-.22.08h-.41l-.46.05-.49-.15-.14-.12-.3-.07-.12-.1-.27-.15-.04-.11-.43-.35-.12-.22-.14-.14-.12-.39-.11-.56-.13-.24.03-.42.08-.49-.07-.33.33-.75.05-.18.16-.35.14-.16.27-.37.27-.11.14-.09.24-.05.28-.18.07-.09h.37-.03s.47-.05.47-.05h.16l.23.03Z"/><path class="cls-5" d="m88.5,208.84l-.2.19-.42.24-.43.11-.11-.04-.28.05h-.43l-.19-.03-.49-.12-.08-.05-.12-.14-.37-.22-.07-.24-.2-.27-.12-.07v-.45l-.11-.26v-.8l-.03-.19.08-.45v-.2s.01-.05.01-.05l-.04-.62-.04-.2.04-.41-.07-.19.05-.27-.03-.05.12-.43.24-.27h.2s.27.01.27.01l.22.2.08.68-.03.45.04.31-.05.22.03.23-.04.15v.58l.07.26.04.3-.14.3.08.52.09.2.05.24.19.22.1.07v.12h.47l.45.07.23-.05.41-.07.11-.13.47-.11h.18s.01-.19.01-.19l-.14-.42v-.7l.05-.3-.04-.49.07-.24-.07-.31.04-.23-.08-.31v-.28l.05-.35.04-.03-.08-.38.13-.3.18-.18.24-.05.38.07.14.14v.27l.04.26.05.61-.05.37v.31l-.04.46.08.24-.09.68.07.46-.07.18.07.33v1.04l-.12.54h-.35l-.29-.04-.08-.07v-.65l-.05-.05-.34.31Z"/><path class="cls-5" d="m98.09,208.88l-.09.34-.64.09h-.61l-.42-.08-.34.07h-1.06s-.58-.01-.58-.01l-.35-.05-.3.07h-.52l-.22-.07-.11-.19v-.19s.01-.34.01-.34l.23-.12h.27l.18-.04h.45l.27.07.14.09.24-.11-.18-.12-.07-.42v-.3l-.05-.49v-.5l.07-.54-.08-.42.05-.34-.05-.05.11-.35.03-.35.14-.27-.2-.04-.23.08-.49.07-.33-.05-.43-.14-.09-.33.12-.24.34-.19h.33l.11-.05.69.07h.43l.41.11.07.24v.08s-.01.53-.01.53l-.07.34.22-.22.08-.26.12-.08.19-.31.23-.19.19-.11.11-.15.65-.12.15.03.5-.04.51.15.16.14v.7l-.16.16h-.58l-.29-.03-.43.04h-.27l-.19.09-.23.03-.23.26-.42.35h-.2s-.08.16-.08.16l.18.13.03.24.07.23-.12.68.08.42-.07.3.08.71-.08.26.12.19.39-.14.3.08.39-.05.3.03.37-.07.35.03.33.13.05.33.05.05Z"/><path class="cls-5" d="m112.29,203.48l-.08.15.12.26-.09.35v.38l.08.22v.27l-.11.34.12.42-.04.28v.5l-.04.16v.84l-.03.18v.47l.07.45-.11.38h-.14l-.28.15-.39-.03-.2-.22v-.28l-.03-.18v-.39l.04-.16-.08-.23.05-.51-.03-.07-.04-.37.03-.33.08-.19v-.23l-.09-.31.05-.45-.04-.46.07-.09-.04-.38-.03-.09v-.31l.05-.35-.08-.35.18-.57-.05-.11-.14-.08-.22.03-.18.07h-.39l-.35.07-.43-.09-.41.04-.3-.03-.22-.07-.04-.24.04-.12v-.3l.08-.2.34-.05.43.07.12-.07.33.03.22.05.38-.03.3-.08.8.07.42-.04.3.05.11.07.43-.07h.27l.49-.08.37.07h.51l.19.08.09.11.11.27-.04.41-.12.08-.6.04-.38-.07-.26.07-.19-.03-.19.05-.39-.07-.33-.14-.12.04-.1.13.1.2.07.28-.03.34Z"/><path class="cls-5" d="m122.72,209.38l-.31.03h-.18s-.38.01-.38.01l-.24-.04-.26-.15-.12-.23-.07-.27-.09-.09-.24.24h-.12l-.23.22-.39.11-.22.14h-.16s-.3.11-.3.11h-.38l-.69-.07-.5-.19-.15-.11-.08-.12-.28-.15-.24-.39-.15-.51v-.58l.46-.65.04-.09.16-.18.3-.08.62-.19.14-.07h.54l.19.03h.24l.16.04h.16s.38-.01.38-.01l.3.08.38.16.07-.08-.05-.12-.05-.28.04-.61-.09-.2v-.23l-.18-.28-.28-.19-.24-.2-.62-.04-.53.05-.45.14-.26.29-.13.46-.12.16-.27.18h-.23l-.13-.03-.23-.09-.05-.19v-.3l.09-.19.03-.15.27-.46.38-.34.2-.11.35-.08.05-.09.61-.05h.61l.45-.07.35.09.28.12.26.07.28.24.26.27.16.28.05.15.15.39-.05.37.11.34.05.3-.05.37.07.45-.09.35v.8l.03.35.09.29.28.09.38-.08.18.05.07.27-.03.33-.14.15-.18.07v.04Z"/><path class="cls-5" d="m126.17,206.54l.08.49.12.39.16.3.13.19.34.34.31.08.27.12h.39l.3.07.38-.05.22-.08.37-.32.23-.07.13-.6.16-.16.42-.04.39.04.04.33-.12.5-.08.2-.15.27-.38.3-.41.3-.23.11-.29.08h-.2s-.53.16-.53.16l-.27-.03-.08.05-.38-.09-.11-.08h-.34l-.24-.08-.22-.11-.57-.31-.26-.24-.09-.23-.24-.23-.03-.18-.12-.27-.11-.41-.07-.54v-.56l-.05-.22.14-.47-.03-.24.23-.37.04-.23.2-.19.14-.29.33-.27.08-.16.54-.22.53-.16.49-.11h.91l.45.15.05.07.27.08.19.14.23.05.33.3.37.58.12.37v.23l-.09.18-.29.09-.33-.04h-.19s-.14-.1-.14-.1l-.3-.66-.26-.23-.42-.2-.37-.03-.16-.09-.43.09-.09.05-.42.05-.15.15-.18.11-.27.3-.13.09-.09.33-.15.3.07.39-.07.35-.03.19Z"/><path class="cls-5" d="m134.75,207.91l.04.2-.04.33.11.18-.15.47-.12.16-.42.07-.26-.04-.12-.15-.04-.42-.11-.23.05-.33.05-.46-.11-.16.08-.41-.08-.19.05-.39-.07-.18.07-.43-.05-.05.05-.26v-.75l-.04-.11.04-.42v-.64l.08-.3-.07-.41v-.28l.05-.19-.03-.39-.07-.24.04-.2-.05-.15.03-.34.09-.41.3-.18h.49l.22.12.04.57-.04.43v.22s-.01.18-.01.18v.57s-.01.24-.01.24l-.03.16v.76l.05.38-.08.13.04.31-.05.2.12.33-.05.35-.04.03-.07.31.14.14.41-.41.04-.12.62-.49.37-.35.31-.15.18-.27.3-.19.26-.28.22-.15.43-.27h.53l.35.05v.23l-.09.18-.26.15-.09.16-.2.12-.26.27-.2.11-.35.31-.19.22-.54.27-.15.05-.03.18.24.09.38.42.11.22.08.08.54.72.22.26.03.26.34.28.07.15.16.13.15.19.08.18.24.38-.19.24-.19.03-.03.05-.34-.08-.23-.03-.3-.27-.09-.24-.22-.16-.23-.29-.18-.3-.24-.26-.14-.27v-.12l-.33-.31-.14-.27-.27-.34-.03-.24-.12-.05-.16.12-.2.33-.19.14-.34.15h-.2s-.12.19-.12.19l.16.26.07.27-.07.34Z"/><path class="cls-5" d="m146.8,209.07l-.14.18-.51.05h-.65l-.07-.04-.39.03h-.85l-.08-.07-.42.08h-.79s-.51-.05-.51-.05l-.38.07-.3-.11-.08-.5.24-.3.29-.07.3.08.22-.03.12.03.56-.04.34.19.11-.18-.07-.27v-.2l-.09-.33.05-.42-.05-.1.11-.45-.03-.18v-.31l.03-.12-.03-.16v-.5l.07-.15-.07-.47.04-.18-.05-.11-.04-.47v-.33l.09-.38-.07-.27.04-.62-.05-.3.08-.24.12-.2-.11-.12-.16-.04-.35.07-.34-.04-.53.05-.47-.05-.2-.19-.03-.19.08-.34.3-.16.37.04h.3l.35.03.24-.04h1.02l.19.08.27.31-.04.26.05.31-.12.27.07.39v.45l.03.26v.49l.05.66-.07.26v.56l-.03.14.08.26-.07.8.04.51-.08.19.07.33.05.12-.05.35-.07.57-.16.19.13.16.65-.16.23.05.37-.05.09-.05.39.03.41.19v.27l-.03.24Z"/><path class="cls-5" d="m150.69,207.2l.03.22.12.26.09.03.18.38.29.19.08.08.98.22h.37l.45-.15.05-.12.41-.11.41-.53.08-.03.24-.23h.29l.09.04.22.04.08.24-.05.22-.22.5-.3.19-.2.22-.45.3-.26.09h-.12l-.23.11-.56.12h-.27l-.6-.11h-.27l-.22-.04-.31-.15-.33-.15-.35-.18-.18-.33-.26-.22-.05-.18-.18-.34-.12-.05-.04-.46.03-.27-.14-.7.07-.3v-.55l.11-.26v-.15s.23-.33.23-.33l.16-.35.12-.18h.07s.19-.33.19-.33l.33-.18.58-.27.27-.07.13-.08.38-.08.35.05.13.07.19-.07.28.08.12.09.35.07.26.12.18.05.19.14.56.54.19.31.08.31.08.18.09.41-.03.09.08.46-.09.19-.28.18h-.24l-.16.05-.31-.04-.2.04-.41-.03-.15.05-.33-.09-.58.08-.3-.05-.24.11-.38-.05-.12.07-.54-.07-.18-.08-.24-.05-.08.12.27.55.04.12Z"/><path class="cls-5" d="m167.1,209.1l-.11.22h-.22s-.53-.12-.53-.12l-.08-.39.07-.31.05-.12-.04-.38.04-.07-.05-.5-.05-.39v-.92s.07-.62.07-.62l-.09-.45.03-.37.08-.31-.05-.43.04-.33v-.87l-.04-.11.03-.39v-.33l-.05-.04-.03-.37.09-.5.08-.04.09-.31.33-.03.35.05.19.23v.66l.05.43-.07.6.04.31-.05.26.08.37-.08.15-.03.24.08.15.14-.2.34-.23.2-.18.34-.09.77-.12.27.03.33.07.42.12.33.23h.04l.45.43.19.35.05.15.23.6.11.88.07.57-.2.87-.12.35-.38.68-.37.38-.51.31-.46.16h-.26l-.03.04-.66-.04-.31-.12h-.22l-.2-.18-.2-.08-.45-.45h-.16l.09.3v.19s-.04.01-.04.01Z"/><path class="cls-5" d="m177.03,203.29h.37l.38.11.24.1.34.22.27.09v.04l.33.31.16.3.2.22.22.38.04.33v.31l.08.34-.03.37-.11,1.11-.08.18-.23.57-.26.31-.42.39-.27.14-.42.19-.52.05-.22.08h-.41l-.46.05-.49-.15-.14-.12-.3-.07-.12-.1-.27-.15-.04-.11-.43-.35-.12-.22-.14-.14-.12-.39-.11-.56-.13-.24.03-.42.08-.49-.07-.33.33-.75.05-.18.16-.35.14-.16.27-.37.27-.11.14-.09.24-.05.29-.18.07-.09h.37-.03s.47-.05.47-.05h.16l.23.03Z"/><path class="cls-5" d="m184.32,207.58l-.12.23-.42.41-.18.24-.37.42-.14.09-.39.31-.6.04-.12-.05-.09-.13.11-.33.2-.13v-.22s.46-.29.46-.29l.14-.24.54-.52.12-.22.04-.18.34-.22.12-.15.34-.24.18-.07-.04-.19-.23-.05-.3-.16-.19-.3-.37-.39-.08-.04-.15-.2-.46-.56-.22-.11-.18-.37-.12-.11-.11-.34.27-.15h.62l.31.12.2.41.14.2.33.28.11.07.26.42.35.39.11.07.09.3h.2s.05-.09.05-.09l.12-.35.22-.27.23-.16.22-.38.3-.26.18-.3.27-.13.26-.24h.23l.18-.04.46.12v.12s-.09.24-.09.24l-.45.47-.03.09-.34.31-.11.15-.16.1-.19.26-.14.08-.2.43-.23.14-.05.11-.31.09.03.24.38.26.22.24v.03l.38.42.16.09.37.49.26.37.18.15.16.09.3.53v.14s-.28.12-.28.12l-.27.03-.31-.07-.19-.07-.51-.58-.41-.46-.2-.16-.15-.28-.08-.05-.41-.57v-.31l-.27.05v.22l-.19.34-.27.2Z"/><path class="cls-5" d="m203.07,209.42l-.26-.07-.42.11-.61-.05-.54-.09-.47-.18-.19-.16-.15-.24-.23-.22-.22-.64v-1.9l.04-.16-.08-.34.07-.14-.09-.27.11-.22-.03-.41.15-.15-.12-.16-.27.12-.35.04-.34-.04-.22.04h-.14s-.64-.05-.64-.05l-.08-.19-.04-.3.04-.27.16-.08.29.03h.62l.18-.03h.53l.24.14.15-.14-.16-.23-.04-.43v-.39l.05-.31-.07-.38.09-.31-.05-.3v-.34l.43-.05h.43l.16.13.03.34-.07.35.04.33v1.19l-.16.33.12.16.22-.07.76-.07.26.04.15-.04.46.09.29-.09.39.05h.16l.19.19.04.11.03.34-.16.14-.68.09-.14.07-.33-.11-.6.12-.34-.04-.22.03-.43-.24-.12.18.15.5v.35l-.04.19v.61l-.04.11.1.38-.08.58v.18l.16.75.05.09.15.14.19.26h.2s.2.11.2.11l.54-.04.27.04.28-.05.27-.12.31.04.14.41-.09.24-.03.14-.31.14-.26.12Z"/><path class="cls-5" d="m209.56,203.29h.37l.38.11.24.1.34.22.27.09v.04l.33.31.16.3.2.22.22.38.04.33v.31l.08.34-.03.37-.11,1.11-.08.18-.23.57-.26.31-.42.39-.27.14-.42.19-.52.05-.22.08h-.41l-.46.05-.49-.15-.14-.12-.3-.07-.12-.1-.27-.15-.04-.11-.43-.35-.12-.22-.14-.14-.12-.39-.11-.56-.13-.24.03-.42.08-.49-.07-.33.33-.75.05-.18.16-.35.14-.16.27-.37.27-.11.14-.09.24-.05.29-.18.07-.09h.37-.03s.47-.05.47-.05h.16l.23.03Z"/></g><g class="cls-10"><path class="cls-5" d="m16.01,225.69l-.26-.07-.42.11-.61-.05-.54-.09-.47-.18-.19-.16-.15-.24-.23-.22-.22-.64v-1.9l.04-.16-.08-.34.07-.14-.09-.27.11-.22-.03-.41.15-.15-.12-.16-.27.12-.35.04-.34-.04-.22.04h-.14s-.64-.05-.64-.05l-.08-.19-.04-.3.04-.27.16-.08.29.03h.62l.18-.03h.53l.24.14.15-.14-.16-.23-.04-.43v-.39l.05-.31-.07-.38.09-.31-.05-.3v-.34l.43-.05h.43l.16.13.03.34-.07.35.04.33v1.19l-.16.33.12.16.22-.07.76-.07.26.04.15-.04.46.09.29-.09.39.05h.16l.19.19.04.11.03.34-.16.14-.68.09-.14.07-.33-.11-.6.12-.34-.04-.22.03-.43-.24-.12.18.15.5v.35l-.04.19v.61l-.04.11.09.38-.08.58v.18l.16.75.05.09.15.14.19.26h.2s.2.11.2.11l.54-.04.27.04.28-.05.27-.12.31.04.14.41-.1.24-.03.14-.31.14-.26.12Z"/><path class="cls-5" d="m25.12,225.65l-.31.03h-.18s-.38.01-.38.01l-.24-.04-.26-.15-.12-.23-.07-.27-.09-.09-.24.24h-.12l-.23.22-.39.11-.22.14h-.16s-.3.11-.3.11h-.38l-.69-.07-.5-.19-.15-.11-.08-.12-.28-.15-.24-.39-.15-.51v-.58l.46-.65.04-.09.16-.18.3-.08.62-.19.14-.07h.54l.19.03h.24l.16.04h.16s.38-.01.38-.01l.3.08.38.16.07-.08-.05-.12-.05-.28.04-.61-.09-.2v-.23l-.18-.28-.28-.19-.24-.2-.62-.04-.53.05-.45.14-.26.29-.13.46-.12.16-.27.18h-.23l-.13-.03-.23-.09-.05-.19v-.3l.09-.19.03-.15.27-.46.38-.34.2-.11.35-.08.05-.09.61-.05h.61l.45-.07.35.09.28.12.26.07.28.24.26.27.16.28.05.15.15.39-.05.37.11.34.05.3-.05.37.07.45-.09.35v.8l.03.35.09.29.29.09.38-.08.18.05.07.27-.03.33-.14.15-.18.07v.04Z"/><path class="cls-5" d="m28.58,222.8l.08.49.12.39.16.3.14.19.34.34.31.08.27.12h.39l.3.07.38-.05.22-.08.37-.32.23-.07.13-.6.16-.16.42-.04.39.04.04.33-.12.5-.08.2-.15.27-.38.3-.41.3-.23.11-.29.08h-.2s-.53.16-.53.16l-.27-.03-.08.05-.38-.09-.11-.08h-.34l-.24-.08-.22-.11-.57-.31-.26-.24-.09-.23-.24-.23-.03-.18-.12-.27-.11-.41-.07-.54v-.56l-.05-.22.14-.47-.03-.24.23-.37.04-.23.2-.19.14-.29.33-.27.08-.16.54-.22.53-.16.49-.11h.91l.45.15.05.07.27.08.19.14.23.05.33.3.37.58.12.37v.23l-.09.18-.29.09-.33-.04h-.19s-.14-.1-.14-.1l-.3-.66-.26-.23-.42-.2-.37-.03-.16-.09-.43.09-.09.05-.42.05-.15.15-.18.11-.27.3-.13.09-.1.33-.15.3.07.39-.07.35-.03.19Z"/><path class="cls-5" d="m37.16,224.17l.04.2-.04.33.11.18-.15.47-.12.16-.42.07-.26-.04-.12-.15-.04-.42-.11-.23.05-.33.05-.46-.11-.16.08-.41-.08-.19.05-.39-.07-.18.07-.43-.05-.05.05-.26v-.75l-.04-.11.04-.42v-.64l.08-.3-.07-.41v-.28l.05-.19-.03-.39-.07-.24.04-.2-.05-.15.03-.34.09-.41.3-.18h.49l.22.12.04.57-.04.43v.22s-.01.18-.01.18v.57s-.01.24-.01.24l-.03.16v.76l.05.38-.08.13.04.31-.05.2.12.33-.05.35-.04.03-.07.31.14.14.41-.41.04-.12.62-.49.37-.35.31-.15.18-.27.3-.19.26-.28.22-.15.43-.27h.53l.35.05v.23l-.09.18-.26.15-.09.16-.2.12-.26.27-.2.11-.35.31-.19.22-.54.27-.15.05-.03.18.24.09.38.42.11.22.08.08.54.72.22.26.03.26.34.28.07.15.16.13.15.19.08.18.24.38-.19.24-.19.03-.03.05-.34-.08-.23-.03-.3-.27-.09-.24-.22-.16-.23-.29-.18-.3-.24-.26-.14-.27v-.12l-.33-.31-.14-.27-.27-.34-.03-.24-.12-.05-.16.12-.2.33-.19.14-.34.15h-.2s-.12.19-.12.19l.16.26.07.27-.07.34Z"/><path class="cls-5" d="m49.21,225.34l-.14.18-.51.05h-.65l-.07-.04-.39.03h-.85l-.08-.07-.42.08h-.79s-.51-.05-.51-.05l-.38.07-.3-.11-.08-.5.24-.3.29-.07.3.08.22-.03.12.03.56-.04.34.19.11-.18-.07-.27v-.2l-.09-.33.05-.42-.05-.1.11-.45-.03-.18v-.31l.03-.12-.03-.16v-.5l.07-.15-.07-.47.04-.18-.05-.11-.04-.47v-.33l.09-.38-.07-.27.04-.62-.05-.3.08-.24.12-.2-.11-.12-.16-.04-.35.07-.34-.04-.53.05-.47-.05-.2-.19-.03-.19.08-.34.3-.16.37.04h.3l.35.03.24-.04h1.02l.19.08.27.31-.04.26.05.31-.12.27.07.39v.45l.03.26v.49l.05.66-.07.26v.56l-.03.14.08.26-.07.8.04.51-.08.19.07.33.05.12-.05.35-.07.57-.16.19.13.16.65-.16.23.05.37-.05.09-.05.39.03.41.19v.27l-.03.24Z"/><path class="cls-5" d="m53.1,223.47l.03.22.12.26.09.03.18.38.28.19.08.08.98.22h.37l.45-.15.05-.12.41-.11.41-.53.08-.03.24-.23h.29l.09.04.22.04.08.24-.05.22-.22.5-.3.19-.2.22-.45.3-.26.09h-.12l-.23.11-.56.12h-.27l-.6-.11h-.27l-.22-.04-.31-.15-.33-.15-.35-.18-.18-.33-.26-.22-.05-.18-.18-.34-.12-.05-.04-.46.03-.27-.14-.7.07-.3v-.55l.11-.26v-.15s.23-.33.23-.33l.16-.35.12-.18h.07s.19-.33.19-.33l.32-.18.58-.27.27-.07.13-.08.38-.08.35.05.13.07.19-.07.28.08.12.09.35.07.26.12.18.05.19.14.56.54.19.31.08.31.08.18.1.41-.03.09.08.46-.09.19-.28.18h-.24l-.16.05-.31-.04-.2.04-.41-.03-.15.05-.33-.09-.58.08-.3-.05-.24.11-.38-.05-.12.07-.54-.07-.18-.08-.24-.05-.08.12.27.55.04.12Z"/><path class="cls-5" d="m72.94,225.69l-.26-.07-.42.11-.61-.05-.54-.09-.47-.18-.19-.16-.15-.24-.23-.22-.22-.64v-1.9l.04-.16-.08-.34.07-.14-.09-.27.11-.22-.03-.41.15-.15-.12-.16-.27.12-.35.04-.34-.04-.22.04h-.14s-.64-.05-.64-.05l-.08-.19-.04-.3.04-.27.16-.08.29.03h.62l.18-.03h.53l.24.14.15-.14-.16-.23-.04-.43v-.39l.05-.31-.07-.38.09-.31-.05-.3v-.34l.43-.05h.43l.16.13.03.34-.07.35.04.33v1.19l-.16.33.12.16.22-.07.76-.07.26.04.15-.04.46.09.29-.09.39.05h.16l.19.19.04.11.03.34-.16.14-.68.09-.14.07-.33-.11-.6.12-.34-.04-.22.03-.43-.24-.12.18.15.5v.35l-.04.19v.61l-.04.11.09.38-.08.58v.18l.16.75.05.09.15.14.19.26h.2s.2.11.2.11l.54-.04.27.04.28-.05.27-.12.31.04.14.41-.1.24-.03.14-.31.14-.26.12Z"/><path class="cls-5" d="m77.84,221.76l-.04.12.04.35.08.05-.14.64.05.23v.2s.07.19.07.19l-.09.42.05.2-.07.16.03.27v.53l-.03.15-.12.23-.35.07-.46-.08-.08-.26v-.2s-.07-.2-.07-.2l.05-.75.04-.19-.04-.26.03-.29v-.58l-.08-.22.11-.39-.09-.26.08-.2-.07-.39.07-.22.03-.38-.09-.33-.04-.3.12-.32v-.47l-.07-.61v-1.38l.15-.38.3-.03h.27l.34.24.03.31-.03.18.03.37v.8l-.04.07.08.43-.1.51-.05.47.12.05.11-.22.46-.35.18-.1.3.04.47-.18h.65l.24.03.51.27.27.19.34.49.14.39.05.79v.22s.03.54.03.54l-.03.34.04.22-.05.24.07.38-.07.3v.47l.09.39-.08.27.04.18-.05.33h-.65l-.23-.04-.12-.19-.08-.34.04-.16.04-.62-.04-.16v-.41l-.07-.37.07-.43v-.51l-.05-.07.07-.54-.11-.31v-.35l-.41-.47-.39-.11-.3-.14-.42.14h-.18s-.27.18-.27.18l-.34.11-.08.05h-.16l-.15.12.04.22.12.26-.05.35Z"/><path class="cls-5" d="m85.63,223.47l.03.22.12.26.09.03.18.38.28.19.08.08.98.22h.37l.45-.15.05-.12.41-.11.41-.53.08-.03.24-.23h.29l.09.04.22.04.08.24-.05.22-.22.5-.3.19-.2.22-.45.3-.26.09h-.12l-.23.11-.56.12h-.27l-.6-.11h-.27l-.22-.04-.31-.15-.33-.15-.35-.18-.18-.33-.26-.22-.05-.18-.18-.34-.12-.05-.04-.46.03-.27-.14-.7.07-.3v-.55l.11-.26v-.15s.23-.33.23-.33l.16-.35.12-.18h.07s.19-.33.19-.33l.32-.18.58-.27.27-.07.13-.08.38-.08.35.05.13.07.19-.07.28.08.12.09.35.07.26.12.18.05.19.14.56.54.19.31.08.31.08.18.1.41-.03.09.08.46-.09.19-.28.18h-.24l-.16.05-.31-.04-.2.04-.41-.03-.15.05-.33-.09-.58.08-.3-.05-.24.11-.38-.05-.12.07-.54-.07-.18-.08-.24-.05-.08.12.27.55.04.12Z"/><path class="cls-5" d="m102.03,225.36l-.11.22h-.22s-.53-.12-.53-.12l-.08-.39.07-.31.05-.12-.04-.38.04-.07-.05-.5-.05-.39v-.92s.07-.62.07-.62l-.09-.45.03-.37.08-.31-.05-.43.04-.33v-.87l-.04-.11.03-.39v-.33l-.05-.04-.03-.37.09-.5.08-.04.09-.31.33-.03.35.05.19.23v.66l.05.43-.07.6.04.31-.05.26.08.37-.08.15-.03.24.08.15.14-.2.34-.23.2-.18.34-.09.77-.12.27.03.33.07.42.12.33.23h.04l.45.43.19.35.05.15.23.6.11.88.07.57-.2.87-.12.35-.38.68-.37.38-.51.31-.46.16h-.26l-.03.04-.66-.04-.31-.12h-.22l-.2-.18-.2-.08-.45-.45h-.16l.09.3v.19s-.04.01-.04.01Z"/><path class="cls-5" d="m114.29,225.26l.03.09-.15.18-.31.04-.2-.07-.27.03h-.65l-.22.07-.22-.04-.62.05-.58-.07h-.28l-.27.07-.18-.03-.51-.04-.26.07-.27-.03-.19-.22.03-.38.14-.19.6-.15h.33l.23.03h.3l.42.05.12-.03.11-.09-.11-.24-.03-.16.03-.34-.05-.26.08-.26-.05-.24v-.61l.05-.41-.05-.5.04-.26-.03-.33.09-.26v-.2l-.08-.09-.24.04-.27.08-.26.04-.3-.07-.19.04h-.62l-.2-.05-.03-.41-.05-.24.24-.23.2-.03.41.08.16-.04h.64s.43.01.43.01l.09-.09.46.07.08-.04.47.09.09.68-.05.39-.04.58.04.3v.71l-.04.05.04.51-.04.12.09.56-.07.39v.37l-.07.2.16.12.19.04.31-.07h.41l.58-.04.26.04.09.11.05.33-.04.16Zm-1.79-7.74l-.09.3-.08.37-.24.08-.24.04-.43-.09-.16-.11-.08-.2-.03-.29.03-.04v-.26l.16-.27.22-.14h.56l.41.27v.34Z"/><path class="cls-5" d="m121.4,220.17l-.03-.45.11-.08h.45l.31.08.05.33-.08.76.04.49v.56l.04.27-.05.41v.49l-.07.12.07.64.05.2v.56l-.07.13.03.35-.05.15.11.26-.05.37-.03.04.04.2-.03.33-.09.33-.05-.03-.15.5-.43.5-.15.05-.15.09-.23.05-.26.11-.53.13-.14.1-.54-.07-.08-.09-.45.07-.24-.03-.38-.11-.47-.22-.28-.29-.26-.31-.1-.31-.19-.34.07-.43.31-.15.27.04.41.15.04.46.18.26.1.08.22.12.26.07.37.19.3-.05h.69l.39-.2.18-.13h.04l.26-.45.04-.33-.07-.12.07-.3.08-.11.04-.37.07-.28-.13-.1-.42.45-.39.11-.51.19-.42.03-.29-.07-.34.04-.62-.26-.13-.14-.16-.08-.09-.08-.28-.34-.22-.16-.1-.45.03-.19-.2-.46-.07-.23.04-.15-.11-.57.11-.27-.03-.38.15-.46.07-.3.07-.18.08-.11.18-.38.09-.07.3-.31.18-.14.3-.18.24-.08.5-.2.39.05.19.09.23-.09.47.2.07.08.22.09.18.18.34.23.15-.12Z"/><path class="cls-5" d="m138.68,225.26l.03.09-.15.18-.31.04-.2-.07-.27.03h-.65l-.22.07-.22-.04-.62.05-.58-.07h-.28l-.27.07-.18-.03-.51-.04-.26.07-.27-.03-.19-.22.03-.38.14-.19.6-.15h.33l.23.03h.3l.42.05.12-.03.11-.09-.11-.24-.03-.16.03-.34-.05-.26.08-.26-.05-.24v-.61l.05-.41-.05-.5.04-.26-.03-.33.09-.26v-.2l-.08-.09-.24.04-.27.08-.26.04-.3-.07-.19.04h-.62l-.2-.05-.03-.41-.05-.24.24-.23.2-.03.41.08.16-.04h.64s.43.01.43.01l.09-.09.46.07.08-.04.47.09.09.68-.05.39-.04.58.04.3v.71l-.04.05.04.51-.04.12.09.56-.07.39v.37l-.07.2.16.12.19.04.31-.07h.41l.58-.04.26.04.09.11.05.33-.04.16Zm-1.79-7.74l-.09.3-.08.37-.24.08-.24.04-.43-.09-.16-.11-.08-.2-.03-.29.03-.04v-.26l.16-.27.22-.14h.56l.41.27v.34Z"/><path class="cls-5" d="m146.98,223.9l-.05.27-.03.33-.28.38-.31.31-.71.38h-.24l-.75.12h-.73l-.19-.04-.37-.03-.2-.08h-.18l-.51-.18-.31-.31-.04-.08-.27-.3-.08-.12-.11-.37-.09-.23v-.2s.16-.09.16-.09h.19s.53.05.53.05l.13.12.12.27.2.31.23.16.33.08.3.12.41-.07h.35l.39.11.65-.2.22-.19.05-.19.09-.18-.03-.29-.05-.15-.41-.33-.15-.04-.08-.05-.24-.04-.54-.18-.2-.03h-.37l-.46-.14h-.14s-.56-.28-.56-.28l-.49-.2-.2-.22-.33-.54-.03-.41.07-.39.12-.14.16-.38.13-.18.22-.19.27-.09.08-.09.24-.07.38-.04.34-.07h.22s.23-.1.23-.1l.46.1.23-.05.53.22.24.03.52.31.09.11.22.12.14.3.18.22.05.38-.04.05-.22.16-.41-.04-.42-.18-.12-.27-.39-.33-.43-.14h-.18s-.43-.07-.43-.07l-.46.12-.56.12-.24.16-.12.2.03.15v.18s.07.2.07.2l.12.09.23.18.49.15.39.05.23.08.16-.03.87.24.24.03.14.11.37.05.26.2.24.12.24.33.22.51-.03.26h0Z"/><path class="cls-5" d="m155.11,223.9l-.05.27-.03.33-.28.38-.31.31-.71.38h-.24l-.75.12h-.73l-.19-.04-.37-.03-.2-.08h-.18l-.51-.18-.31-.31-.04-.08-.27-.3-.08-.12-.11-.37-.09-.23v-.2s.16-.09.16-.09h.19s.53.05.53.05l.13.12.12.27.2.31.23.16.33.08.3.12.41-.07h.35l.39.11.65-.2.22-.19.05-.19.09-.18-.03-.29-.05-.15-.41-.33-.15-.04-.08-.05-.24-.04-.54-.18-.2-.03h-.37l-.46-.14h-.14s-.56-.28-.56-.28l-.49-.2-.2-.22-.33-.54-.03-.41.07-.39.12-.14.16-.38.13-.18.22-.19.27-.09.08-.09.24-.07.38-.04.34-.07h.22s.23-.1.23-.1l.46.1.23-.05.53.22.24.03.52.31.09.11.22.12.14.3.18.22.05.38-.04.05-.22.16-.41-.04-.42-.18-.12-.27-.39-.33-.43-.14h-.18s-.43-.07-.43-.07l-.46.12-.56.12-.24.16-.12.2.03.15v.18s.07.2.07.2l.12.09.23.18.49.15.39.05.23.08.16-.03.87.24.24.03.14.11.37.05.26.2.24.12.24.33.22.51-.03.26h0Z"/><path class="cls-5" d="m161.7,225.11l-.2.19-.42.24-.43.11-.11-.04-.28.05h-.43l-.19-.03-.49-.12-.08-.05-.12-.14-.37-.22-.07-.24-.2-.27-.12-.07v-.45l-.11-.26v-.8l-.03-.19.08-.45v-.2s.01-.05.01-.05l-.04-.62-.04-.2.04-.41-.07-.19.05-.27-.03-.05.12-.43.24-.27h.2s.27.01.27.01l.22.2.08.68-.03.45.04.31-.05.22.03.23-.04.15v.58l.07.26.04.3-.14.3.08.52.09.2.05.24.19.22.09.07v.12h.47l.45.07.23-.05.41-.07.11-.13.47-.11h.18s.01-.19.01-.19l-.14-.42v-.7l.05-.3-.04-.49.07-.24-.07-.31.04-.23-.08-.31v-.28l.05-.35.04-.03-.08-.38.14-.3.18-.18.24-.05.38.07.14.14v.27l.04.26.05.61-.05.37v.31l-.04.46.08.24-.09.68.07.46-.07.18.07.33v1.04l-.12.54h-.35l-.28-.04-.08-.07v-.65l-.05-.05-.34.31Z"/><path class="cls-5" d="m166.96,223.47l.03.22.12.26.09.03.18.38.29.19.08.08.98.22h.37l.45-.15.05-.12.41-.11.41-.53.08-.03.24-.23h.29l.09.04.22.04.08.24-.05.22-.22.5-.3.19-.2.22-.45.3-.26.09h-.12l-.23.11-.56.12h-.27l-.6-.11h-.27l-.22-.04-.31-.15-.33-.15-.35-.18-.18-.33-.26-.22-.05-.18-.18-.34-.12-.05-.04-.46.03-.27-.14-.7.07-.3v-.55l.11-.26v-.15s.23-.33.23-.33l.16-.35.12-.18h.07s.19-.33.19-.33l.33-.18.58-.27.27-.07.13-.08.38-.08.35.05.13.07.19-.07.28.08.12.09.35.07.26.12.18.05.19.14.56.54.19.31.08.31.08.18.09.41-.03.09.08.46-.09.19-.28.18h-.24l-.16.05-.31-.04-.2.04-.41-.03-.15.05-.33-.09-.58.08-.3-.05-.24.11-.38-.05-.12.07-.54-.07-.18-.08-.24-.05-.08.12.27.55.04.12Z"/><path class="cls-5" d="m179.51,223.9l-.05.27-.03.33-.28.38-.31.31-.71.38h-.24l-.75.12h-.73l-.19-.04-.37-.03-.2-.08h-.18l-.51-.18-.31-.31-.04-.08-.27-.3-.08-.12-.11-.37-.09-.23v-.2s.16-.09.16-.09h.19s.53.05.53.05l.13.12.12.27.2.31.23.16.33.08.3.12.41-.07h.35l.39.11.65-.2.22-.19.05-.19.09-.18-.03-.29-.05-.15-.41-.33-.15-.04-.08-.05-.24-.04-.54-.18-.2-.03h-.37l-.46-.14h-.14s-.56-.28-.56-.28l-.49-.2-.2-.22-.33-.54-.03-.41.07-.39.12-.14.16-.38.13-.18.22-.19.27-.09.08-.09.24-.07.38-.04.34-.07h.22s.23-.1.23-.1l.46.1.23-.05.53.22.24.03.52.31.09.11.22.12.14.3.18.22.05.38-.04.05-.22.16-.41-.04-.42-.18-.12-.27-.39-.33-.43-.14h-.18s-.43-.07-.43-.07l-.46.12-.56.12-.24.16-.12.2.03.15v.18s.07.2.07.2l.12.09.23.18.49.15.39.05.23.08.16-.03.87.24.24.03.14.11.37.05.26.2.24.12.24.33.22.51-.03.26h0Z"/><path class="cls-5" d="m185.67,224.97l.03.31-.14.15-.51.2-.37-.04-.41-.11-.18-.26v-.58l.07-.43.14-.04.29-.24.13.05.46-.12.35.15.27.57-.13.39Z"/></g></g></svg>