<?xml version="1.0" encoding="UTF-8"?><svg id="Layer_1" xmlns="http://www.w3.org/2000/svg" viewBox="0 0 174.39 37.41"><defs><style>.cls-1{fill:#182a42;stroke-width:0px;}</style></defs><path class="cls-1" d="m.58,35.71l-.1-1.22v-2.91l-.1-.45.26-.51v-1.63l-.32-1.31.13-1.6-.19-.64.19-1.15-.16-.64v-1.02l-.13-.86.42-1.09-.32-1.41.03-.13.32-.35-.35-1.41v-1.86l-.19-.86v-2.75l.1-1.18v-.96l.1-1.41-.26-1.12V1.22l.22-.16.54-.26,1.18.16.03-.22.16-.13,1.7.35.8-.06.35.06.86-.1,1.25.1.7-.19h7.65l.38-.06h3.1l.9-.06.54.35-.13,1.34.19,1.02-.1.13-.26.1.29,1.41v1.09l.26,1.25-.22.96.16.86-.16.42.35.96-.35,1.25.19,1.76v1.12l.22.38-.22,1.63.13.86.29.58-.26,1.44v.7l-.06.22v3.71l.22.77-.16.51.1,1.15v2.34l.13.35-.1,1.47.1,1.25-.06.42.1.61v2.88l.1.51-.77.48-.48-.1h-1.38l-2.34.26-.22-.03-1.47.16-.7-.06h-1.6l-1.22.1h-4.54l-.51-.13-1.22.19h-1.82l-.64-.1-1.12.16-.51-.54v-1.12Zm5.6-14.21v-2.78l.29-1.47v-.77l.48-1.12.48-.67.22-.74.7-.51,1.34-.67.61.19h.83l.42-.13,1.15.29,1.09.67.38.32.54,1.06.7.83-.1.38.22.19h.54l.42.13.51-.13.51-.54.03-.42-.45-1.54-.13-.45-.7-1.12-1.28-1.02-.51-.42-1.02-.16-1.02-.26h-1.22l-.26-.19h-.64l-.77.1h-.64l-.7.29-.99.45-.7.54-.64.7-.48.38-.42.48-.58.61-.38,1.15h.06l-.22.8-.16,1.12v1.47l-.35.32v1.57l.06.16v1.28l.32,1.09.38,1.02-.13.19.38,1.41.58.7.35.8.77.54.32.45,1.44.61.99.29h.61l1.18.22,1.18-.13,1.38-.29.29.03.58-.16.26-.16.7-.64.61-.19.61-.54.58-.7.22-.74.45-.67-.06-.48.22-.86-.35-.32-1.44-.1-.16-.1-.45.26-.74,1.47v.32l-.51.67-.38.35-.64.19-.45.29-.7.19-1.57.26-.48-.35-.74-.26-.58-.13-.48-.58-.42-.35-.58-.83-.51-.86.13-.32-.26-1.54-.16-.45Z"/><path class="cls-1" d="m19.87,36.96l-.16-.22v-3.55l-.16-.58v-2.05l.13-.86.22-.29-.42-1.15.22-1.73-.26-1.38.22-1.22-.16-.58v-.29l-.29-.93.42-1.66v-2.27l-.06-.7v.03l-.13-.7.06-.54-.29-1.38.16-1.02v-1.18l-.06-.16v-1.86l.1-.51v-1.92l-.22-1.44.13-1.79-.06-.83v-1.47l-.19-1.25.9-.64,1.02.13.32-.32,1.44.35,1.06-.16.67.22,1.28-.19.64.16,1.06-.35,1.86.22,1.25-.16h3.07l.83.13,1.09-.22h3.52l.54.45-.13.86.22,1.12-.26.51.26,1.12v1.5l.13.51-.29,1.02.06.7v-.03l.13.67-.06,1.02.29.8-.22,1.41.16.99-.16,1.28.22,1.15-.1.7.35,1.7-.32,2.56.13,1.98-.16,1.7.38.96-.13,1.34v1.63l-.16.77.22.74-.06.86.26,1.06-.26,1.15.13.83v2.46l.06.42-.03.1-.7.22-.51-.1-1.54.13-.96-.06-1.09.19h-3.78l-1.82.22-1.98-.13h-2.72l-.7.19-1.02-.1h-3.33l-.13-.06-.13-.26Zm9.92-22.33h-.38l-1.12.16.06-.03h-.86l-.16.22-.67.42-.58.13-.32.22-.64.26-.64.86-.32.38-.38.83-.13.42-.77,1.76.16.77-.19,1.15-.06.99.32.58.26,1.31.29.93.32.32.29.51,1.02.83.1.26.64.35.29.22.7.16.32.29,1.15.35,1.09-.13h.96l.51-.19,1.22-.13.99-.45.64-.32.99-.93.61-.74.54-1.34.19-.42.26-2.62.06-.86-.19-.8v-.74l-.1-.77-.51-.9-.48-.51-.38-.7-.77-.74v-.1l-.64-.22-.8-.51-.58-.22-.9-.26h-.86l-.54-.06Zm-.06,2.11l.45.06.8.26.9.16.67.38.74.86.13.8.19.32.48,2.11-.32,1.63-.16.32.16.35-.35.9-.35.7-.64.83-.32.03-.64.26-.22.19h-.7l-1.25.22v-.06l-.83-.06-.42-.16-.96-.61-.64-.54-.1-.29-.54-.93.03-.19-.13-.61-.06-1.06-.16-.74.19-.93-.06-1.02.22-.67.74-1.31.54-.58.8-.29.42-.19.74-.16h.67Z"/><path class="cls-1" d="m38.82,35.13l-.19-1.63v-2.24l-.06-.96.26-.93v-.96l-.32-.8.29-1.7-.22-1.15.29-1.41-.16-.74v-2.08l.19-.42-.06-.64.19-1.6-.29-1.82.13-.35-.26-1.92.06-.77v-1.15l.13-1.76v-2.05l.13-.74-.26-1.73.16-1.02-.13-.96.06-.86v-1.28l-.06-.9.77-.35h.58l1.09-.13,1.09.26,1.41-.13,1.02.16h1.89l.83-.22.54.13h5.15l1.02.1.51-.1h2.34l.54.06h1.44l.22.19.03.13-.19,1.18.19,1.15-.13.16h-.16l.26,1.38v1.38l.19.67-.22,1.18.1.9-.32.58.45,1.6-.22,1.38.1,1.02-.1.8.22.64-.22,1.31.29,2.37-.26,2.08.06.86v1.22l-.22.9.42,1.12-.22.99v2.34l-.16,1.06.19.74v1.22l.13.42-.26.9.13,1.15v1.95l.06.83-.83.45h-2.78l-.74.1-.8-.06-1.76.26-.83-.19-.1-.1-2.3.19-1.28-.13h-.93l-.35.06h-.8l-1.7-.13-1.09.1h-1.92l-.86-.1-.86.13-.61-.58.1-.99Zm6.94-16.1l-.06-.58-.26-.48.26-.38,1.28-.29.99-.42.22-.03.74-.29,1.66.45.54.22.38.61.38.96.16.9v1.66l.13,1.47-.13.42-.06.99.1.51v.61l.1.54-.1.83-.16.74.26.96.03.35.7.16.45-.03.67-.16.61-.61-.1-.58.16-.38-.16-1.02v-1.22l.1-.35-.06-.7.13-.67-.16-.74.06-.67v-.93l-.06-.64v-.77l-.13-1.6-.22-.7-.64-1.18-.26-.26-.9-.58-.8-.35-.58-.19h-1.25l-.7.06-.7.26h-.83l-.45.26-.58.48-.61.35-.16.51-.45.06-.16-.16.19-1.25-.26-.26-.67.19-.58-.06-.51.42v.8l-.13.51.1,1.18-.13.45-.13,1.54.22.93-.1,1.18v2.69l.16,1.25v1.7l-.06.58.38.42.93.22,1.12-.19.13-.86-.13-.83.13-.67-.16-.99.19-.32v-4.64l-.13-.96.03-.42Z"/><path class="cls-1" d="m58.11,35.52v-1.92l-.19-1.6v-1.15l.29-.96-.13-.9-.29-.58.19-1.22v.03l.1-.86-.19-.54.26-1.22-.22-.8v-2.66l.19-.38-.13-1.09v-1.31l.13-.58-.26-1.25.06-.77-.26-1.41.1-.86v-3.04l.16-1.15-.26-1.54V2.78l-.19-1.41.93-.58,1.15.16.35-.16.99.22,1.38-.26.99.22.93-.13h1.02l.48-.22,2.14.26,2.05-.13h2.85l.38-.06h4.13l.77.26v1.57l.13.38-.35.77.32,1.34v1.31l.06.42-.29.67.32,1.6v1.28l.06.1-.42.77.42,2.75-.16.22.29,1.06-.19.99.22,1.09v1.18l.1.38-.19,1.57v3.9l.19.7-.22.35.22,1.82-.19,1.5.19.8v1.15l.26.86-.26,1.06.13.7v2.72l.06.61-.03.1-.7.22-.54-.06h-2.56l-.54.13-.96.06-1.28.35-1.7-.38-1.47.19-.96-.06h-1.28l-1.09.1h-.86l-.74-.19-1.5.29-.86-.06h-2.14l-.7.1-.58-.61-.1-1.25Zm15.1-6.62l.74-.32.06-.32.22-.58-.32-.96-.74-.1-.64.29-.67.13-.64-.1-1.28.1-.48-.22-.48-.03-.45-.61-.35-.32-.13-.22-.38-1.76v-.42l.19-1.38-.22-.9.1-.26v-1.44l.1-.45v-.83l-.35-1.18.29-.42,1.02.58.51-.06.8.1,1.41-.29.77.26.32-.16,1.6-.22.38-.32-.06-.8-.1-.26-.45-.45h-.38l-.93-.13-.67.22-1.09-.22-.35.1-.61-.1-1.79.16-.51.16-.29-.38.38-.77v-2.82l-.1-.77.16-.83-.06-.8-.38-.32h-1.02l-1.02.13v.8l.13.7-.22.74.16.9-.13.74v.93l.1,1.02.38.54-.35.32-.58-.32h-1.25l-.42.06h-1.47l-.67-.06-.38.19-.1.64.1.7.19.45,1.5.1.32.03.51-.1.8.1.83-.1.64-.29.29.38-.35.35.06.96-.26.51.22.64-.16.32.19.8-.1.38v4.48l.51,1.5.54.51.35.58.45.38,1.12.42,1.28.22,1.44.13.99-.26.61.16.61-.29Z"/><path class="cls-1" d="m77.12,31.07l-.22-.19-.03-.13.38-1.73-.35-1.06.13-1.12.19-.99-.1-1.34.32-.35-.35-1.6v-1.7l.22-.42-.19-2.46.32-.29-.29-1.6v-.9l-.16-.7.13-1.6v-2.72l.13-.32v-1.98l-.16-.93v-1.18l.19-.45-.19-1.44.13-.77-.06.03v-1.34l-.1-.64.77-.74.48.03,1.12-.1.96.22,1.28-.19.99.22h2.02l.86-.19.48-.03,1.5.13h3.68l.9.19,1.28-.19h3.78l.42.35v1.5l.06.32-.29.64.22,1.18-.13.99.26,1.6-.22.8.13.93-.29.48.35,1.41-.35.7.35,2.11-.1,1.34.1.45-.16.54.26,2.14v.9l-.16,1.47v1.86l-.16,1.95.32.83-.16.9v1.79l-.26.74.29,1.09-.06.86.22.64-.29,1.09.06.74v3.68l-.1.13-1.5.13h-.74l-.99-.16-1.34.29h-2.37l-.67-.16-2.21.19-1.18-.1h-3.46l-.13-.16-1.5.26-.83-.06h-1.28l-.29-.13-1.22.16-.64-.58v-5.28Zm6.14-7.42l-.64-1.31.19-.29.58.13.42.19,1.28.16.29-.16.9.13.58-.26.7.13,1.38-.19.77.22.35-.13.96.06.48-.1.74.1.38-.13h.58l.67-.42.22-.45-.19-1.09.06-.22-.22-.96-.19-.42-.19-.74-.45-.74-1.31-1.28-.45-.32-.42-.13-.61-.29-.83-.16-.29-.22-.67-.19-.45.16-.32-.16-.83-.13-.9.19-.32.19-.64.16-1.38.64-.77.42-.45.74-.16.03-.29.42-.38.83-.51.77-.03.35-.26.61v1.31l-.16.7.32,1.66-.06.64.1,1.09.29.13.42.8.13.42.61.51.42.77.83.42.77.35.74.35.51.1h.64l1.41.26h.64l1.31-.29.54-.26h.29l.61-.22,1.06-.7.48-.51.7-.45.51-1.18.13-.51-.19-.58-.51-.1-.22-.1h-.67l-.58.54-.19.06-.96,1.25-.96.26-.13.29-1.06.35h-.86l-2.3-.51-.19-.19-.67-.45-.42-.9-.22-.06-.29-.61-.06-.51-.1-.29Zm8.54-3.52l.16.38-.22.29-1.38-.45-.58.16-.83.1-1.09-.13-1.06-.1-1.15.13-.86.06-.93-.06-.74.29-.32-.13.1-.51.29-.38.35-.77.1-.38.38-.45.35-.54,1.6-.8.74-.22.38.1h.54l1.6.26,1.06.8.58.77.51.96.42.64Z"/><path class="cls-1" d="m96.41,35.13l-.19-1.63v-2.24l-.06-.96.26-.93v-.96l-.32-.8.29-1.7-.22-1.15.29-1.41-.16-.74v-2.08l.19-.42-.06-.64.19-1.6-.29-1.82.13-.35-.26-1.92.06-.77v-1.15l.13-1.76v-2.05l.13-.74-.26-1.73.16-1.02-.13-.96.06-.86v-1.28l-.06-.9.77-.35h.58l1.09-.13,1.09.26,1.41-.13,1.02.16h1.89l.83-.22.54.13h5.15l1.02.1.51-.1h2.34l.54.06h1.44l.22.19.03.13-.19,1.18.19,1.15-.13.16h-.16l.26,1.38v1.38l.19.67-.22,1.18.1.9-.32.58.45,1.6-.22,1.38.1,1.02-.1.8.22.64-.22,1.31.29,2.37-.26,2.08.06.86v1.22l-.22.9.42,1.12-.22.99v2.34l-.16,1.06.19.74v1.22l.13.42-.26.9.13,1.15v1.95l.06.83-.83.45h-2.78l-.74.1-.8-.06-1.76.26-.83-.19-.1-.1-2.3.19-1.28-.13h-.93l-.35.06h-.8l-1.7-.13-1.09.1h-1.92l-.86-.1-.86.13-.61-.58.1-.99Zm6.94-16.1l-.06-.58-.26-.48.26-.38,1.28-.29.99-.42.22-.03.74-.29,1.66.45.54.22.38.61.38.96.16.9v1.66l.13,1.47-.13.42-.06.99.1.51v.61l.1.54-.1.83-.16.74.26.96.03.35.7.16.45-.03.67-.16.61-.61-.1-.58.16-.38-.16-1.02v-1.22l.1-.35-.06-.7.13-.67-.16-.74.06-.67v-.93l-.06-.64v-.77l-.13-1.6-.22-.7-.64-1.18-.26-.26-.9-.58-.8-.35-.58-.19h-1.25l-.7.06-.7.26h-.83l-.45.26-.58.48-.61.35-.16.51-.45.06-.16-.16.19-1.25-.26-.26-.67.19-.58-.06-.51.42v.8l-.13.51.1,1.18-.13.45-.13,1.54.22.93-.1,1.18v2.69l.16,1.25v1.7l-.06.58.38.42.93.22,1.12-.19.13-.86-.13-.83.13-.67-.16-.99.19-.32v-4.64l-.13-.96.03-.42Z"/><path class="cls-1" d="m115.71,35.52v-1.92l-.19-1.6v-1.15l.29-.96-.13-.9-.29-.58.19-1.22v.03l.1-.86-.19-.54.26-1.22-.22-.8v-2.66l.19-.38-.13-1.09v-1.31l.13-.58-.26-1.25.06-.77-.26-1.41.1-.86v-3.04l.16-1.15-.26-1.54V2.78l-.19-1.41.93-.58,1.15.16.35-.16.99.22,1.38-.26.99.22.93-.13h1.02l.48-.22,2.14.26,2.05-.13h2.85l.38-.06h4.13l.77.26v1.57l.13.38-.35.77.32,1.34v1.31l.06.42-.29.67.32,1.6v1.28l.06.1-.42.77.42,2.75-.16.22.29,1.06-.19.99.22,1.09v1.18l.1.38-.19,1.57v3.9l.19.7-.22.35.22,1.82-.19,1.5.19.8v1.15l.26.86-.26,1.06.13.7v2.72l.06.61-.03.1-.7.22-.54-.06h-2.56l-.54.13-.96.06-1.28.35-1.7-.38-1.47.19-.96-.06h-1.28l-1.09.1h-.86l-.74-.19-1.5.29-.86-.06h-2.14l-.7.1-.58-.61-.1-1.25Zm15.1-6.62l.74-.32.06-.32.22-.58-.32-.96-.74-.1-.64.29-.67.13-.64-.1-1.28.1-.48-.22-.48-.03-.45-.61-.35-.32-.13-.22-.38-1.76v-.42l.19-1.38-.22-.9.1-.26v-1.44l.1-.45v-.83l-.35-1.18.29-.42,1.02.58.51-.06.8.1,1.41-.29.77.26.32-.16,1.6-.22.38-.32-.06-.8-.1-.26-.45-.45h-.38l-.93-.13-.67.22-1.09-.22-.35.1-.61-.1-1.79.16-.51.16-.29-.38.38-.77v-2.82l-.1-.77.16-.83-.06-.8-.38-.32h-1.02l-1.02.13v.8l.13.7-.22.74.16.9-.13.74v.93l.1,1.02.38.54-.35.32-.58-.32h-1.25l-.42.06h-1.47l-.67-.06-.38.19-.1.64.1.7.19.45,1.5.1.32.03.51-.1.8.1.83-.1.64-.29.29.38-.35.35.06.96-.26.51.22.64-.16.32.19.8-.1.38v4.48l.51,1.5.54.51.35.58.45.38,1.12.42,1.28.22,1.44.13.99-.26.61.16.61-.29Z"/><path class="cls-1" d="m134.78,35.13l-.16-1.98v-3.33l.22-.61.13-.86-.29-1.31.13-.99-.16-.29-.13-.45.38-1.86-.16-.96-.32-1.18.38-1.66.13-1.7-.13-1.5v-.96l-.26-1.44.19-1.06v-.99l-.1-.13.13-1.66v-.96l.13-.51.03.03v-1.47l-.22-1.06v-.67l.13-.67-.16-.83.13-1.44v-.61l-.16-1.22.83-.61.51.03,1.54-.16,1.06.16v-.1l.16-.13,1.92.35.74-.06.77.19,1.22-.32,1.7.19,1.06-.06h8.61l.45.35-.1,1.31.19.74-.32,1.09.26,1.02-.1,1.15.16,1.09-.19.54v2.18l.29.83-.16,1.22-.13.19.13,1.44-.13.7.16,1.34-.06.13-.19.16.26,1.79.19.7-.42,1.82.13.51v3.3l.26.54-.35,1.09.16,1.5v.83l-.29.48.32,1.15-.06.9.16,1.02-.29.74.06.7v-.03l.1.74v1.98l.06.7-.06.1-2.98.29-.58-.16-1.12.16h-1.09l-.58.22-.93-.19-.61-.06-2.08.19-1.73-.13h-2.69l-.42-.16-1.34.22-.86-.06h-1.22l-.99-.1-.9.1-.35-.58v-.96Zm16.61-10.21l.06-.61-.51-1.22-.58-.77-.58-.29-.61-.48-.86-.13-.32-.26-.58-.06-2.05-.58-.38.06-.54-.19-.93-.13-1.15-.35-.54-.42-.29-.22-.19-.48.03-.42-.06-.35.29-.48.58-.38,1.31-.29,1.09-.29,1.02.19.42-.03,1.02.32.93.77.29.64.99.42.96.1.51-.38.1-.13-.13-.9-.42-.51-.32-.7-.51-.29-.22-.26-1.22-.74-.58-.06-1.25-.51-.54.13-1.09-.22-.54.19-.51.03-.8.16-.9.1-.58.16-.19.22-.64.22-.51.45-.32.42-.38.9-.29.32-.16.93.06.96.77,1.28.48.51,1.15.48,1.31.64.32.03,1.09.32h.86l.48.06,1.28.42.58.1.19.13.35.1.96.77.13.35.06.67-.22.42-.13.45-.51.45-1.54.48-.93-.26h-.83l-.96.16-.7-.29-.77-.19-.54-.38-.48-.74-.29-.64-.32-.29-1.25-.1-.45-.03-.35.22-.03.48.22.54.26.86.19.29.64.7.1.19.74.74,1.22.42h.42l.48.19.86.06.45.1h1.73l1.76-.29h.58l1.66-.9.74-.74.67-.9.06-.77.13-.64v-.03Z"/><path class="cls-1" d="m153.75,35.49l-.16-2.08v-2.21l-.06-.7.35-.74-.13-1.41-.29-.9.1-.99v-1.09l.32-1.18-.35-1.34v-1.89l.32-.83-.16-.99.26-.93-.26-2.05v-1.18l-.19-.77.22-.93v-3.97l.13-1.22-.19-1.09-.06-.77.22-1.06-.19-1.38.1-1.54-.16-1.25.9-.64.9.1.67-.32,1.6.35.38-.13,1.06.19.86-.06,1.38.1.77-.29,1.22.19.45.16,1.5-.16h2.75l.54.16.99-.19h1.82l1.34.13h1.25l.13.26-.13,1.41.22.96-.26.96.22.99-.16.38.16,1.57-.26.26.26,1.63-.26.7.38,1.25-.35.86.19,1.12v1.86l.13.45-.22.99.38,2.18-.26,1.5v2.88l-.13.93.26.77-.22.86.1,1.09v1.73l-.19.7.22.86-.06,1.06.1,1.12-.16.45.1.77v3.23l-.16.32v-.03l-.51.13h-3.33l-.77.1-.51-.03-.9.38-1.47-.35-.54-.06-1.02.13h-1.09l-1.7-.13-.99.06h-1.44l-.83-.06-.48.19-3.26-.26-1.12.13-.29-.38-.06-.19.1-.83Zm12.42-18.85l-.45-1.34-.38-.26h-.64l-.7-.1-.99.19-.54.51-.51,1.73.51.7-.06.19.58.61h1.57l1.12-.22.26-.48v-.8l.26-.74Zm.03,10.02l-.29-.61-.45-.8-.29-.19-1.5-.13-.93.26-.45.45-.16.77.16.96-.06.32.22.7.45.45.42-.06,1.09.16h.54l.74-.54.32-.48.19-.64v-.61Z"/></svg>