<?xml version="1.0" encoding="UTF-8"?><svg id="Layer_1" xmlns="http://www.w3.org/2000/svg" viewBox="0 0 1003.76 53.31"><defs><style>.cls-1{fill:#92a1c9;stroke-width:0px;}</style></defs><path class="cls-1" d="m33.3,20.53c-.06-1.8-.24-3.55-.55-5.25-.07-.24-.21-.42-.42-.52-.14-.63-.29-1.21-.47-1.77-.24-.76-.67-1.62-1.3-2.57-.62-.96-1.14-1.66-1.55-2.11l-1.83-2.08c-2.63-2.95-5.4-4.71-8.32-5.3C14.84.17,9.21.2,1.97,1.03c-.18.04-.32.1-.42.21-.24.07-.4.22-.47.47C.56,3.06.35,5.73.46,9.71c.03.98.09,2.42.18,4.32.09,1.91.13,3.19.13,3.85,0,.31-.01,1-.03,2.05-.01,1.06-.06,2.51-.13,4.34l-.1,4.58c-.07,2.84-.11,5.04-.11,6.61-.03.93-.03,1.64,0,2.13v.83c-.06.03-.12.08-.15.15-.35.42-.33.78.05,1.1.97.83,2.24,2.37,3.8,4.63.17.24.41.34.73.31,3.5.52,7.5.14,12.01-1.15.31-.07.98-.23,2-.49,1.02-.26,1.79-.47,2.31-.63.52-.15,1.18-.4,1.98-.75s1.49-.73,2.08-1.14c1.49-1.01,2.78-2.28,3.87-3.82,1.1-1.55,1.94-3.19,2.55-4.95.61-1.75,1.05-3.59,1.33-5.53.27-1.94.39-3.82.34-5.62Zm-2.99,3.33c-.91,4.16-2.29,7.4-4.17,9.72-1.31,1.63-3.36,2.76-6.13,3.38-1.01.21-2.29.38-3.85.52-.28.04-.87.1-1.77.19-.9.08-1.58.14-2.03.18-1.28.14-3.2.24-5.77.31-1.38,0-2.53-.03-3.43-.11-.45,0-.81-.03-1.09-.1h-.1v-.36c-.04-.49-.04-1.2,0-2.13,0-1.53.03-3.71.1-6.56l.1-4.57c.07-1.87.12-3.34.13-4.4.02-1.05.03-1.74.03-2.05,0-.66-.04-1.95-.13-3.88-.09-1.92-.15-3.37-.18-4.34-.07-3.46.07-5.84.41-7.12,6.9-.8,12.28-.82,16.12-.05,2.6.48,5.1,2.08,7.49,4.78l1.82,2.08c.38.45.84,1.08,1.38,1.9.54.81.93,1.57,1.17,2.26.86,2.64.83,6.08-.1,10.35Z"/><path class="cls-1" d="m25.5,12.44c-1.1-2.23-2.7-3.96-4.82-5.17-3.81-2.18-8.47-2.65-13.98-1.4-.25-.35-.56-.45-.94-.32-.38.14-.55.42-.52.84-.14.2-.19.43-.15.67.06.21.2.37.41.47.14,1.01.21,2.5.21,4.47.03.97-.02,3.94-.16,8.89-.1,4.24-.15,7.06-.15,8.48.03,1.28.07,2.29.1,3.02.04.41.09.76.16,1.04.07.34.17.62.31.83.38.48,1.02.76,1.92.83.25.04.54.04.89,0h.67c6.28,0,10.96-1.61,14.04-4.84,1.98-2.08,3.11-5.33,3.38-9.77.18-3.12-.28-5.8-1.37-8.04Zm-.19,7.94c-.24,4.09-1.23,7.03-2.96,8.83-2.39,2.5-5.84,3.9-10.35,4.22v-.21c-.17-2.43-.31-5.99-.41-10.69-.11-4.69-.23-8.15-.37-10.37,3.16-.94,5.84-.95,8.06-.05,2.29.93,4.28,2.87,5.98,5.82,0,.04.02.07.05.11.04.76.04,1.54,0,2.34Z"/><path class="cls-1" d="m60.15,14.08c-.8-.76-1.68-1.42-2.65-1.97-1.39-.8-3.73-1.41-7.02-1.82-.24-.04-.45.03-.62.21-2.01-.07-3.94.53-5.78,1.81-2.6,1.84-4.43,3.82-5.51,5.93-.76,1.46-1.14,3.73-1.14,6.81,0,3.61.66,6.7,1.97,9.26,1.32,3.23,3.14,5.6,5.46,7.12,1.7,1.15,3.64,1.8,5.8,1.95,2.17.16,4.23-.11,6.19-.8,1.96-.7,3.75-1.74,5.38-3.15,1.63-1.4,2.83-3,3.59-4.81.31-.79.55-1.7.73-2.73.17-1.02.27-1.83.28-2.42.02-.58.03-1.49.03-2.7,0-5.1-2.24-9.32-6.71-12.69Zm-19.29,19.61c-.76-1.91-1.28-3.94-1.56-6.09-.03-.17-.1-.31-.21-.41-.07-.7-.1-1.41-.1-2.14,0-2.84.31-4.87.93-6.08.97-1.91,2.67-3.71,5.1-5.41,1.8-1.28,3.67-1.75,5.62-1.4.24.03.46-.03.67-.21,2.32.35,4.06.8,5.2,1.35.04.21.16.37.37.47.79.45,1.52.94,2.18,1.46,1.8,1.73,2.96,3.95,3.46,6.65.5,2.71.35,5.29-.44,7.75-.97,3.22-2.73,5.73-5.26,7.51-2.53,1.79-5.59,2.34-9.2,1.64-3.02-.59-5.27-2.28-6.76-5.09Z"/><path class="cls-1" d="m57.76,19.59c-1.18-2.56-2.98-4.07-5.41-4.52h-.26c-2.39-.45-4.44.1-6.13,1.66-1.74,1.6-2.81,3.89-3.23,6.87-.41,2.88-.1,5.51.94,7.9,1.18,2.71,3,4.34,5.46,4.89,1.38.31,2.68.26,3.87-.16,1.2-.41,2.18-1.09,2.94-2.02.76-.94,1.39-2,1.87-3.17.49-1.18.82-2.43.99-3.75.35-2.84,0-5.41-1.04-7.7Zm-.52,7.49c-.31,2.6-1.16,4.67-2.55,6.19-1.38,1.53-3.14,2.05-5.25,1.56-.17-.03-.36-.09-.57-.16.1-.24.07-.46-.11-.67-.9-1.18-1.45-2.68-1.66-4.5-.21-1.82-.05-3.58.47-5.28.55-1.8,1.42-3.25,2.6-4.34,1.18-1.09,2.58-1.64,4.21-1.64.17,0,.33-.05.47-.15.59.59,1.09,1.31,1.51,2.18.9,1.98,1.19,4.25.88,6.81Z"/><path class="cls-1" d="m99.1,20.74c-1.25-4.92-3.9-8.06-7.96-9.41-1.42-.77-3.06-1.1-4.94-.99-2.15.14-4.19.76-6.13,1.87-.73-.41-1.42-.73-2.08-.94-.14-.17-.33-.26-.57-.26s-.96-.05-2.14-.15c-.97-.11-1.8-.11-2.49,0-.21.03-.37.14-.5.31-.12.17-.16.38-.13.63,0,.03.02.06.06.1,0,1.98-.05,4.95-.13,8.92-.09,3.97-.13,6.95-.13,8.94s.08,4.97.26,8.92c-.21.28-.23.55-.06.83.39.59.87,1.28,1.46,2.08.07.07.14.12.21.16.1.38.34.57.73.57.69,0,1.71-.03,3.06-.08,1.36-.05,2.36-.08,3.02-.08.17,0,.33-.05.47-.15h.26c.21-.04.37-.15.49-.34s.17-.39.13-.6c-.41-2.18-.54-5.79-.36-10.82.1-2.39.26-4.47.47-6.24.27-1.9.58-3.22.93-3.95.42-.76,1.02-1.35,1.82-1.76.8-.42,1.68-.63,2.65-.63.32.45.58,1.01.78,1.67.63,1.66,1.03,3.95,1.2,6.86.1,2.11.12,4.66.05,7.64-.03.63-.07,1.47-.1,2.52-.04,1.06-.07,1.78-.11,2.16-.27.14-.41.37-.41.68v.1c-.04.28.05.5.26.68.31.31.83.74,1.56,1.3l1.25,1.09c0,.1.01.21.05.31.21.49.55.63,1.04.42.28-.14.6-.24.96-.29.36-.05.68-.08.94-.08s.65.01,1.17.03c.52.02.91.03,1.19.03.14,0,.26-.04.37-.11.1.04.2.05.31.05.1.11.24.18.41.21.21.04.4-.02.58-.15.17-.14.27-.32.31-.52.1-.9.17-2.12.21-3.64,0-1.67.03-2.83.1-3.49.48-6.24.31-11.04-.52-14.4Zm-20.64-7.59l.15.05-.15.15v-.2Zm12.58,12.94c-.21-3.05-.62-5.47-1.25-7.28-.86-2.39-2.16-3.72-3.9-4-2.53-.38-4.5.45-5.93,2.5-1.07,1.56-1.82,3.9-2.23,7.02-.28,2.11-.4,4.8-.37,8.06.04,3.67.04,5.51,0,5.51-.34,0-.92.02-1.74.08-.81.05-1.45.07-1.9.07-.13-3.84-.2-6.7-.2-8.58s.04-4.73.13-8.58c.08-3.84.13-6.7.13-8.58.34,0,.79.02,1.35.06,1.04.1,1.61.17,1.71.2h.06c-.07,1.04-.06,1.88.05,2.5.03.21.14.38.31.52s.36.19.57.16l.31-.11c.18-.03.32-.12.42-.26.87-.93,2-1.72,3.41-2.36,1.4-.64,2.83-1.02,4.29-1.12.79-.04,1.54.02,2.23.15.14.21.31.33.52.37.52.1,1.02.22,1.51.36,1.11.63,1.94,1.56,2.5,2.81.97,2.18,1.54,6,1.71,11.44.04,1.21.02,5.01-.05,11.39-.1-.07-.23-.11-.36-.11-.07,0-1.22.04-3.44.11.04-.35.07-1.03.11-2.06.03-1.02.07-1.84.1-2.47.07-3.05.05-5.65-.05-7.8Z"/><path class="cls-1" d="m112.1,3.27c-.49-.87-.99-1.58-1.51-2.14-.07-.1-.17-.17-.31-.2-.07-.04-.16-.05-.26-.05-2.15,0-3.5.05-4.06.15-.14-.07-.27-.1-.41-.1-.38,0-.63.17-.73.52-.21.2-.26.45-.16.72,0,.11.04.2.11.26.03.87.14,2.1.31,3.7.24,2.18.38,3.52.42,4-.04.04-.06.09-.06.16,0,.24.09.45.26.62.04.07.09.12.16.16.03.03.42.69,1.14,1.97.18.31.42.45.73.42.56.07,1.16.1,1.82.1.18,0,.33-.05.47-.15.14,0,.28-.02.42-.06.13.18.33.26.57.26.52,0,.78-.26.78-.77,0-3.09.26-5.99.78-8.69.07-.42-.09-.71-.47-.88Zm-3.12-.31c0,.72-.1,1.95-.31,3.69-.18,1.21-.26,2.2-.26,2.96h-1.41c-.03-.38-.15-1.59-.36-3.64-.17-1.38-.28-2.53-.31-3.43.59-.11,1.47-.14,2.65-.11v.53Z"/><path class="cls-1" d="m132.69,13.61c-.52-.58-1.37-1.42-2.55-2.49-.07-.07-.15-.12-.26-.16-.14-.14-.29-.21-.46-.21-.25,0-.58-.03-.99-.1v-3.48c0-.28-.12-.49-.37-.63-.03-.07-.07-.12-.1-.15-1.25-1.15-1.91-1.75-1.98-1.82,0-.38-.17-.63-.52-.73-.1-.04-.2-.05-.31-.05-.14-.11-.29-.16-.47-.16-3.05,0-4.92.02-5.61.05-.31,0-.52.14-.63.42-.21.17-.31.38-.31.62v.05c.04.66.05,1.84.05,3.54-.03,1.11-.01,2.01.05,2.7h-4.1c-.52,0-.78.26-.78.79,0,.2.07.38.21.51-.14.59-.18,1.29-.11,2.08,0,.11.02.29.05.55.04.26.06.41.06.44.03.31.05.59.05.83-.31.42-.26.79.15,1.1.28.2.61.53.99.99.49.58.8.95.94,1.09.1.31.33.48.67.52.77.03,1.55.1,2.34.2-.07,3.23-.1,5.9-.1,8.01.03,1.84.08,3.47.16,4.89.03,4.02.79,6.78,2.28,8.27s4.51,2.34,8.84,2.34c.21,0,.4-.09.58-.26.2.07.39.05.57-.05.2-.07.38-.23.52-.47.07-.17.1-.43.1-.78,0-.07,0-.2.03-.39.01-.19.02-.36.02-.5.04-.62.11-1.24.21-1.87.07-.03.14-.08.21-.15.31-.31.33-.65.05-.99.04-.45-.15-.73-.57-.83h-.31c-1.18-1.08-2.15-1.84-2.91-2.29-.04-.04-.09-.07-.16-.11h-.05c-.11-.06-.21-.1-.32-.1v-.05c0-1.7.07-4.17.19-7.41.12-3.24.18-5.64.18-7.2.28.03,1.18.05,2.7.05.25,0,.44-.09.58-.26h.15c.52,0,.78-.26.78-.78,0-2.01.04-3.49.11-4.42.03,0,.06-.02.1-.05.38-.35.4-.71.05-1.1Zm-8.32,1.56c-.21.04-.38.14-.52.32-.14.17-.19.36-.16.57.04.24.16.43.37.57-.14.56-.26,1.72-.37,3.48-.1,1.81-.15,3.82-.15,6.04-.04,2.32,0,4.28.1,5.87.04.9.11,1.61.21,2.13.04.32.07.58.11.78.1.28.22.51.36.68.41.49,1.07.78,1.98.89.24.03.51.05.83.05v2.65c-.38-.04-.96-.05-1.72-.05h-1.4c-1.35-.07-2.27-.37-2.76-.89-.14-.17-.28-.53-.41-1.09-.14-.59-.26-1.37-.37-2.34-.07-.55-.12-1.18-.16-1.87v-.37c0-.06-.01-.13-.05-.2-.03-1.25-.07-2.69-.1-4.32,0-2.11.03-4.89.1-8.32.04-.07.05-.14.05-.21,0-.14-.01-.26-.05-.36.04-1.53.05-2.5.05-2.91,0-.38-.19-.63-.57-.73-.14-.24-.34-.37-.62-.37h-4c-.04-.06-.06-.16-.06-.28s0-.24-.02-.34c-.02-.1-.03-.21-.03-.31-.07-.66-.03-1.21.11-1.67h3.53c.17.07.35.11.52.11.21-.04.38-.13.52-.29.14-.15.19-.35.16-.59-.11-.84-.14-2-.11-3.49v-2.86h4.42c-.1.59-.16,1.22-.18,1.87-.02.66-.01,1.42.03,2.27.03.84.05,1.39.05,1.63,0,.14.03.28.1.42.14.35.4.5.78.47.73-.07,1.77-.04,3.12.1.04.56.06,1.51.06,2.86-1.11-.1-2.36-.07-3.75.1Z"/><path class="cls-1" d="m179.44,26.9c-.07-2.06-.35-3.86-.83-5.38-.18-.83-.38-1.61-.63-2.34-.66-1.94-1.48-3.6-2.47-4.97s-2.29-2.48-3.92-3.35c-1.42-.73-2.9-1.06-4.42-.99-1.53.07-3,.45-4.42,1.14-.18-1.38-.18-3.65,0-6.81,0-.2-.07-.4-.21-.57-.14-.17-.31-.26-.52-.26h-.26l-.37-.41c-.41-.53-.74-.89-.98-1.1-.9-.93-1.82-1.4-2.76-1.4-.21,0-.38.07-.52.21-.24,0-.55.01-.94.05-1.14.14-1.78.21-1.92.21-.52,0-.78.26-.78.78,0,.24.09.43.26.57v.15c0,4.03-.01,10.07-.02,18.13-.02,8.06-.03,14.1-.03,18.12v.16c-.14.06-.26.17-.37.31-.27.41-.19.78.27,1.09.45.28.96.78,1.55,1.51.59.72.98,1.17,1.15,1.35-.04.48.19.76.68.83.65.11,2.11.16,4.36.16.52,0,.78-.26.78-.78,0-.21-.07-.39-.21-.52l.06-.11v-.1l.41.21.78.36c.32.17.52.26.63.26,1.35.38,2.82.54,4.42.47,1.63-.11,3.1-.43,4.42-.99,1.66-.69,3.02-1.93,4.08-3.72,1.06-1.78,1.81-3.84,2.26-6.16.38-2.01.54-4.05.47-6.11Zm-2.13.73c-.21,2.03-.68,3.86-1.41,5.48-1,2.19-2.37,3.81-4.1,4.87-1.74,1.05-3.85,1.32-6.35.8-2.11-.41-3.52-1.02-4.21-1.82l-.78-1.09c-.42-.66-.71-1.09-.89-1.3-.31-.42-.67-.47-1.09-.15-.24.2-.34.46-.31.77-.21,1.53-.31,2.5-.31,2.92-.69.07-1.56.1-2.6.1,0-3.92.01-9.85.02-17.81.02-7.96.03-13.94.03-17.97.14-.03.32-.06.55-.1.22-.03.39-.05.49-.05.66-.07,1.13-.09,1.41-.05.06.17.12.43.15.78.11.69.17,1.66.21,2.91v5.15c0,.07-.01.24-.03.52-.02.27-.03.6-.05.98-.02.39-.02.73-.02,1.04v1.51c0,.25,0,.44.05.57,0,.11.01.21.05.32l.05.1c.03.07.1.15.18.23.09.09.2.15.34.19.17.07.35.07.52,0,.07-.04.12-.07.16-.11l.1-.1s.07-.09.1-.16l.21-.2.57-.79c.59-.76,1.01-1.26,1.25-1.5,1.25-1.11,2.73-1.81,4.45-2.11,1.72-.29,3.32-.08,4.81.65,1.42.76,2.56,1.75,3.43,2.96.83,1.18,1.58,2.69,2.24,4.53.17.48.31,1,.41,1.56,0,.14.02.26.05.36l.11.31c.34,1.77.42,3.67.21,5.7Z"/><path class="cls-1" d="m174.14,21.73c-.39-1.6-1.06-3.05-2.03-4.37-.97-1.32-2.21-2.2-3.7-2.65-.2-.07-.41-.06-.62.05-.28-.04-.87-.04-1.77,0-2.49.07-4.4,1.3-5.72,3.69-1.14,2.08-1.64,4.56-1.5,7.44.13,2.91.88,5.37,2.23,7.38,1.56,2.36,3.59,3.54,6.08,3.54,1.04,0,2-.25,2.87-.73.38,0,.64-.16.78-.47.69-.52,1.3-1.19,1.81-2.03,1.22-1.83,1.89-4.12,2.03-6.86.07-1.73-.08-3.4-.46-4.99Zm-1.1,4.88c-.14,2.47-.73,4.51-1.77,6.14-.48.73-1.02,1.3-1.61,1.72-1.87-.35-3.2-1.29-4-2.81-.66-1.28-1.06-3.26-1.2-5.93-.14-1.18-.14-2.4,0-3.67.14-1.26.54-2.31,1.2-3.14.48-.59,1.44-1.25,2.86-1.98.1-.03.19-.1.26-.21.07.04.14.09.21.16.17.14.38.19.62.16,1.18.86,2.07,2.17,2.68,3.92.6,1.75.86,3.63.75,5.64Z"/><path class="cls-1" d="m213.29,29.68c0-2.98-.56-5.8-1.66-8.47-1.11-2.67-2.8-5-5.05-6.97-2.25-1.98-4.87-3.26-7.85-3.85-.17-.03-.33-.02-.47.05-.38-.07-.78-.12-1.2-.15-1.62-.14-3.22.04-4.78.54-1.56.51-2.97,1.3-4.24,2.37-1.26,1.07-2.3,2.51-3.12,4.31-.81,1.81-1.29,3.84-1.43,6.09-.34,6.07.87,10.64,3.64,13.73.73.93,1.63,1.82,2.71,2.65,2.42,1.84,5.06,2.81,7.9,2.91,2.84.11,5.49-.55,7.93-1.97,2.45-1.43,4.43-3.4,5.96-5.93.13-.28.13-.54,0-.78.17-.32.15-.61-.06-.89-.1-.14-.34-.48-.72-1.04-.39-.55-.72-.97-.99-1.24h.31c.55-.07,1.39-.11,2.5-.11.51,0,.78-.26.78-.78,0-.17-.06-.33-.16-.47Zm-18.15,10.01c-2.04-.22-3.85-.93-5.41-2.1-.52-.38-.98-.82-1.4-1.3-.42-.56-.73-1.1-.94-1.62-.1-.27-.29-.45-.57-.52-1.42-2.6-2.01-6.08-1.77-10.45.18-2.7.87-5.01,2.08-6.91,1.22-1.91,2.67-3.25,4.37-4.03,1.7-.78,3.52-1.09,5.46-.91,2.95.28,5.5,1.62,7.67,4.03,2.17,2.41,3.36,5.71,3.56,9.9-2.11,0-5.28.06-9.51.18-4.23.13-7.4.19-9.52.19-.52,0-.78.26-.78.78,0,.38.17.62.52.72.04.56.12,1.11.26,1.67-.07.14-.1.28-.1.41,0,.35.15.59.47.73.79,2.12,2.07,3.8,3.84,5.05.87.62,1.77,1.05,2.71,1.3.93.2,1.94.15,3.01-.16,1.08-.31,2.07-.9,2.97-1.77.52-.52.95-1.23,1.3-2.13.07-.17.15-.38.26-.62l.21-.63c.06-.2.13-.38.2-.52.49-.1,1.61-.14,3.38-.1-.2,1.87-.91,3.51-2.1,4.91-1.2,1.41-2.7,2.46-4.5,3.15-1.73.73-3.62.98-5.67.75Zm7.23-8.81c-.07.17-.16.42-.26.73l-.21.57c-.24.69-.54,1.21-.88,1.56-2.12,2.01-4.37,2.18-6.76.52-1.29-.94-2.29-2.19-3.02-3.75h11.03c0,.11,0,.2.05.26.03.04.05.07.05.11Z"/><path class="cls-1" d="m204.03,21.47c-.03-.07-.17-.37-.41-.89l-.37-.99c-.03-.17-.1-.31-.2-.41l-.32-.68c-.24-.45-.43-.79-.57-1.04l-.67-.88c-.28-.38-.55-.68-.81-.89-.26-.2-.56-.43-.91-.67-.35-.24-.71-.45-1.09-.63-1.42-.45-2.69-.49-3.8-.13-1.11.37-2.15,1.02-3.12,1.95-.9.91-1.62,1.94-2.16,3.1-.53,1.16-.8,2.28-.8,3.35,0,.28.1.49.31.63,0,.07.02.14.05.21.07.2.2.35.39.44.19.08.39.09.6.02.94-.34,2.95-.55,6.03-.62h2.45c1.04,0,1.92-.01,2.65-.03.73-.01,1.33-.04,1.82-.08.21,0,.38-.08.52-.26.14-.17.21-.36.21-.57v-.05c.27-.24.34-.54.2-.88Zm-4.78.28c-1.49.02-2.51.03-3.07.03-.93.03-1.75.07-2.44.1.17-1.42.79-2.59,1.87-3.51,1.07-.92,2.34-1.37,3.8-1.37.1,0,.2-.04.31-.11.38.38.75.88,1.12,1.48.36.61.63,1.1.8,1.48l.78,1.88c-.62,0-1.68.01-3.17.02Z"/><path class="cls-1" d="m264.25,34.15c0-1.97.05-4.94.15-8.89.11-3.95.16-6.91.16-8.89,0-.21-.07-.38-.21-.52-.03-.17-.1-.33-.21-.47-.41-.41-1.02-1.05-1.82-1.92l-1.87-2.08c-.31-.31-.66-.33-1.04-.05-.1.03-.19.08-.26.15-.24,0-.75.02-1.53.06-.78.03-1.38.05-1.8.05-.27,0-.48.1-.62.31-.48.1-.69.4-.62.88.07.52.15,1.35.26,2.5-.9-.9-2.01-1.63-3.33-2.19-.73-.27-1.38-.51-1.95-.7s-1.21-.35-1.92-.49c-.72-.14-1.44-.18-2.16-.13-.73.05-1.46.2-2.19.44-1.94.63-3.68,1.75-5.22,3.38-1.55,1.63-2.77,3.52-3.67,5.67-1.56,3.85-1.89,7.52-.99,11.02-.07.14-.07.3,0,.47,1.74,5.17,4.77,8.34,9.1,9.52,3.68.97,8.01.41,13-1.67l.42.57c-.04.07-.05.14-.05.21,0,.21.07.39.2.55.14.16.32.25.52.28,1.22.11,3.49.16,6.82.16.52,0,.78-.26.78-.78,0-.1-.02-.21-.06-.31.18-.21.25-.44.21-.68-.1-.62-.16-1.27-.18-1.95-.02-.67-.01-1.48.03-2.42.03-.93.05-1.62.05-2.08Zm-9,2.92v-2.14c0-.51-.26-.78-.78-.78h-.05c-.42-.17-.73-.05-.94.37-.76,1.39-1.98,2.42-3.66,3.09-1.68.68-3.55.96-5.59.83-2.05-.12-3.88-.64-5.51-1.56-1.63-.91-2.74-2.1-3.33-3.56-.7-1.69-.99-3.55-.89-5.56.11-2.01.56-3.99,1.36-5.93.83-1.98,1.93-3.69,3.3-5.15,1.37-1.45,2.92-2.46,4.65-3.01.66-.28,1.44-.38,2.34-.32.9.07,1.69.2,2.37.37.67.17,1.46.45,2.37.83,1.97.8,3.36,2.05,4.15,3.75.07.13.16.24.27.31.17.24.41.34.72.31.21-.04.38-.14.52-.31.14-.18.19-.37.16-.57-.11-.66-.21-1.58-.31-2.76-.11-1.18-.18-1.89-.21-2.13.34,0,.84-.02,1.48-.06.64-.03,1.07-.05,1.27-.05.18,4.23.26,12.31.26,24.23-1.97,0-3.29-.06-3.95-.2Z"/><path class="cls-1" d="m254.37,24.98c-.18-2.14-.83-4.03-1.98-5.7-.14-.24-.34-.36-.62-.36l-.21-.21c-.55-.48-1.47-.8-2.75-.94-3.47-.38-6.11.42-7.91,2.4-1.56,1.76-2.44,4.4-2.65,7.9,0,.14-.01.34-.03.6-.02.26-.04.42-.08.49-.03.45-.03.85,0,1.2,0,1.04.25,1.89.73,2.55.97,1.35,2.55,2.27,4.73,2.75,2.36.52,4.39.31,6.09-.65,1.7-.95,2.96-2.38,3.79-4.29.77-1.7,1.06-3.61.89-5.74Zm-2.34,5.12c-.66,1.59-1.68,2.77-3.07,3.53-1.39.77-3.07.92-5.04.47-.49-.1-.96-.24-1.41-.41-.52-1.35-.66-2.89-.44-4.6.23-1.72.77-3.27,1.64-4.66.93-1.46,2.03-2.41,3.27-2.86,1.39-.48,2.87-.29,4.42.57.18.11.37.12.58.05.07.04.13.06.2.06.97,2.67.92,5.28-.15,7.85Z"/><path class="cls-1" d="m300.28,13.61c-.52-.58-1.37-1.42-2.54-2.49-.07-.07-.16-.12-.26-.16-.14-.14-.3-.21-.47-.21-.24,0-.57-.03-.99-.1v-3.48c0-.28-.12-.49-.36-.63-.04-.07-.07-.12-.11-.15-1.25-1.15-1.91-1.75-1.97-1.82,0-.38-.18-.63-.52-.73-.11-.04-.21-.05-.32-.05-.14-.11-.29-.16-.46-.16-3.05,0-4.93.02-5.62.05-.31,0-.52.14-.62.42-.21.17-.32.38-.32.62v.05c.04.66.06,1.84.06,3.54-.04,1.11-.02,2.01.05,2.7h-4.11c-.52,0-.78.26-.78.79,0,.2.07.38.21.51-.14.59-.17,1.29-.11,2.08,0,.11.02.29.06.55.03.26.05.41.05.44.03.31.05.59.05.83-.31.42-.26.79.16,1.1.27.2.6.53.98.99.49.58.8.95.94,1.09.1.31.33.48.68.52.76.03,1.54.1,2.34.2-.07,3.23-.11,5.9-.11,8.01.04,1.84.09,3.47.16,4.89.03,4.02.79,6.78,2.29,8.27,1.56,1.56,4.5,2.34,8.84,2.34.2,0,.39-.09.57-.26.21.07.4.05.57-.05.21-.07.38-.23.52-.47.07-.17.1-.43.1-.78,0-.07.01-.2.03-.39.02-.19.03-.36.03-.5.03-.62.1-1.24.2-1.87.07-.03.14-.08.21-.15.31-.31.33-.65.05-.99.04-.45-.15-.73-.57-.83h-.31c-1.18-1.08-2.15-1.84-2.91-2.29-.04-.04-.09-.07-.16-.11h-.05c-.1-.06-.21-.1-.31-.1v-.05c0-1.7.06-4.17.18-7.41.12-3.24.18-5.64.18-7.2.28.03,1.18.05,2.71.05.24,0,.43-.09.57-.26h.15c.52,0,.78-.26.78-.78,0-2.01.04-3.49.11-4.42.03,0,.07-.02.1-.05.38-.35.4-.71.05-1.1Zm-8.32,1.56c-.2.04-.38.14-.52.32-.13.17-.19.36-.15.57.03.24.15.43.36.57-.14.56-.26,1.72-.36,3.48-.11,1.81-.16,3.82-.16,6.04-.03,2.32,0,4.28.11,5.87.03.9.1,1.61.2,2.13.04.32.07.58.11.78.1.28.22.51.36.68.42.49,1.08.78,1.98.89.24.03.52.05.83.05v2.65c-.38-.04-.95-.05-1.72-.05h-1.4c-1.35-.07-2.27-.37-2.76-.89-.13-.17-.27-.53-.41-1.09-.14-.59-.26-1.37-.37-2.34-.07-.55-.12-1.18-.15-1.87v-.37c0-.06-.02-.13-.05-.2-.04-1.25-.07-2.69-.11-4.32,0-2.11.04-4.89.11-8.32.03-.07.05-.14.05-.21,0-.14-.02-.26-.05-.36.03-1.53.05-2.5.05-2.91,0-.38-.19-.63-.57-.73-.14-.24-.35-.37-.63-.37h-4c-.04-.06-.05-.16-.05-.28s0-.24-.03-.34c-.02-.1-.03-.21-.03-.31-.07-.66-.03-1.21.11-1.67h3.53c.18.07.35.11.52.11.21-.04.38-.13.52-.29.14-.15.19-.35.16-.59-.1-.84-.14-2-.1-3.49v-2.86h4.42c-.11.59-.17,1.22-.19,1.87-.01.66-.01,1.42.03,2.27.03.84.05,1.39.05,1.63,0,.14.04.28.11.42.13.35.39.5.78.47.72-.07,1.76-.04,3.12.1.03.56.05,1.51.05,2.86-1.11-.1-2.36-.07-3.75.1Z"/><path class="cls-1" d="m327.38,14.08c-.8-.76-1.69-1.42-2.66-1.97-1.38-.8-3.72-1.41-7.02-1.82-.24-.04-.45.03-.62.21-2.01-.07-3.94.53-5.77,1.81-2.6,1.84-4.44,3.82-5.51,5.93-.77,1.46-1.15,3.73-1.15,6.81,0,3.61.66,6.7,1.98,9.26,1.31,3.23,3.13,5.6,5.46,7.12,1.7,1.15,3.63,1.8,5.8,1.95,2.16.16,4.22-.11,6.18-.8,1.96-.7,3.76-1.74,5.39-3.15,1.62-1.4,2.82-3,3.58-4.81.31-.79.56-1.7.73-2.73.17-1.02.27-1.83.29-2.42.01-.58.02-1.49.02-2.7,0-5.1-2.23-9.32-6.7-12.69Zm-19.3,19.61c-.76-1.91-1.28-3.94-1.56-6.09-.03-.17-.1-.31-.21-.41-.06-.7-.1-1.41-.1-2.14,0-2.84.31-4.87.94-6.08.97-1.91,2.67-3.71,5.09-5.41,1.81-1.28,3.68-1.75,5.62-1.4.24.03.47-.03.67-.21,2.33.35,4.06.8,5.2,1.35.04.21.16.37.37.47.8.45,1.52.94,2.18,1.46,1.81,1.73,2.96,3.95,3.46,6.65.5,2.71.36,5.29-.44,7.75-.97,3.22-2.72,5.73-5.25,7.51-2.53,1.79-5.6,2.34-9.21,1.64-3.01-.59-5.27-2.28-6.76-5.09Z"/><path class="cls-1" d="m324.98,19.59c-1.18-2.56-2.98-4.07-5.41-4.52h-.26c-2.39-.45-4.43.1-6.13,1.66-1.74,1.6-2.81,3.89-3.22,6.87-.42,2.88-.11,5.51.93,7.9,1.18,2.71,3,4.34,5.46,4.89,1.39.31,2.68.26,3.88-.16,1.19-.41,2.17-1.09,2.93-2.02.77-.94,1.39-2,1.87-3.17.49-1.18.82-2.43.99-3.75.35-2.84,0-5.41-1.04-7.7Zm-.52,7.49c-.31,2.6-1.16,4.67-2.54,6.19-1.39,1.53-3.14,2.05-5.26,1.56-.17-.03-.36-.09-.57-.16.1-.24.07-.46-.1-.67-.9-1.18-1.46-2.68-1.67-4.5-.21-1.82-.05-3.58.47-5.28.56-1.8,1.42-3.25,2.6-4.34,1.18-1.09,2.58-1.64,4.21-1.64.18,0,.33-.05.47-.15.59.59,1.09,1.31,1.51,2.18.9,1.98,1.19,4.25.88,6.81Z"/><path class="cls-1" d="m360.97,14.08c-.8-.76-1.69-1.42-2.66-1.97-1.38-.8-3.72-1.41-7.01-1.82-.25-.04-.46.03-.63.21-2.01-.07-3.93.53-5.77,1.81-2.6,1.84-4.44,3.82-5.51,5.93-.77,1.46-1.15,3.73-1.15,6.81,0,3.61.66,6.7,1.98,9.26,1.32,3.23,3.14,5.6,5.46,7.12,1.7,1.15,3.63,1.8,5.8,1.95,2.16.16,4.23-.11,6.18-.8,1.96-.7,3.76-1.74,5.39-3.15,1.63-1.4,2.82-3,3.59-4.81.31-.79.55-1.7.72-2.73.18-1.02.27-1.83.29-2.42.02-.58.03-1.49.03-2.7,0-5.1-2.24-9.32-6.71-12.69Zm1.92,15.55c-.97,3.22-2.72,5.73-5.25,7.51-2.53,1.79-5.6,2.34-9.2,1.64-3.02-.59-5.27-2.28-6.76-5.09-.77-1.91-1.29-3.94-1.57-6.09-.03-.17-.1-.31-.2-.41-.07-.7-.11-1.41-.11-2.14,0-2.84.31-4.87.94-6.08.97-1.91,2.67-3.71,5.09-5.41,1.81-1.28,3.68-1.75,5.62-1.4.24.03.47-.03.68-.21,2.32.35,4.05.8,5.2,1.35.03.21.15.37.36.47.8.45,1.53.94,2.18,1.46,1.81,1.73,2.96,3.95,3.46,6.65.51,2.71.36,5.29-.44,7.75Z"/><path class="cls-1" d="m358.57,19.59c-1.17-2.56-2.98-4.07-5.4-4.52h-.26c-2.39-.45-4.44.1-6.14,1.66-1.73,1.6-2.81,3.89-3.22,6.87-.42,2.88-.11,5.51.93,7.9,1.18,2.71,3,4.34,5.46,4.89,1.39.31,2.68.26,3.88-.16,1.19-.41,2.17-1.09,2.94-2.02.76-.94,1.38-2,1.87-3.17.48-1.18.81-2.43.98-3.75.35-2.84,0-5.41-1.04-7.7Zm-.51,7.49c-.32,2.6-1.17,4.67-2.55,6.19-1.39,1.53-3.14,2.05-5.25,1.56-.18-.03-.37-.09-.58-.16.11-.24.07-.46-.1-.67-.9-1.18-1.46-2.68-1.67-4.5-.2-1.82-.05-3.58.47-5.28.56-1.8,1.42-3.25,2.6-4.34,1.18-1.09,2.58-1.64,4.21-1.64.18,0,.33-.05.47-.15.59.59,1.1,1.31,1.51,2.18.9,1.98,1.2,4.25.89,6.81Z"/><path class="cls-1" d="m382.88,27.86c-.01-5.82-.02-10.19-.02-13.1,0-.59-.04-2.22-.11-4.89-.07-2.18-.07-3.76,0-4.73v-.16c.04-.24-.03-.45-.2-.62-.14-.17-.66-.71-1.56-1.61-.59-.63-1.06-1.15-1.41-1.56-.31-.42-.67-.47-1.09-.16l-.1.1c-.83-.13-2.34-.15-4.53-.05-.21,0-.38.08-.52.24-.14.15-.21.35-.21.6s.11.43.32.57c-.04.66-.06,1.37-.06,2.13,0,.38.02,1.23.06,2.55.07,2.63.1,4.24.1,4.83,0,2.92.01,7.28.03,13.11.01,5.82.02,10.19.02,13.1l-.1.1c-.35.42-.33.78.05,1.1.35.27.76.69,1.25,1.24.55.66.9,1.06,1.04,1.2v.21c.03.21.14.38.31.52.17.14.37.19.57.15.56-.06,1.98-.1,4.27-.1.2,0,.38-.07.52-.21.27.11.52.05.72-.15.18-.18.26-.39.26-.63.28-.14.42-.36.42-.67,0-2.92,0-7.28-.03-13.11Zm-7.72,10.09c0-2.88,0-7.19-.02-12.95-.02-5.75-.03-10.08-.03-13,0-.59-.03-2.22-.1-4.89-.04-1.35-.06-2.18-.06-2.49,0-.73.02-1.41.06-2.03,1.31-.07,2.35-.03,3.12.1-.07,1.11-.07,2.54,0,4.27.07,2.63.1,4.25.1,4.84,0,2.91.01,7.27.03,13.07.01,5.81.02,10.15.02,13.03h-.15c-.97.14-1.96.15-2.97.05Z"/><path class="cls-1" d="m421.7,24.17c-.03-.07-.07-.12-.1-.16-.07-.1-.23-.27-.47-.51l-.57-.63-.57-.52c-.21-.21-.44-.38-.68-.52-.03-.03-.09-.07-.16-.1-.03-.04-.08-.07-.15-.11-.18-.17-.38-.24-.63-.2-.1,0-.19.03-.26.1-.72,0-1.91-.02-3.56-.05-1.64-.04-2.95-.05-3.92-.05s-2.15.03-3.54.1c-1.39.07-2.63.17-3.74.31-.07,0-.14.02-.21.05-.45.11-.66.38-.62.83,0,.32.05.94.15,1.88.07.72.1,1.3.1,1.71-.1.14-.17.3-.2.47,0,.14.03.28.1.42,0,.03-.02.05-.05.05-.28.45-.19.81.26,1.09.45.28,1.11.76,1.97,1.46l1.04.83c-.03.1-.05.19-.05.26.04.24.13.43.29.57.15.14.34.19.54.16.63-.07,2.86-.23,6.71-.47,2.81-.17,5.08-.4,6.81-.68.39-.07.61-.29.68-.67.03,0,.09-.04.16-.11.1-.1.17-.22.2-.36.25,0,.44-.08.58-.23.13-.16.21-.34.21-.55v-3.74c0-.25-.11-.46-.32-.63Zm-17.47.31c-.07-.69-.1-1.09-.1-1.19,1.04-.11,2.19-.19,3.45-.24,1.27-.05,2.34-.08,3.2-.08s2.08.02,3.64.06c1.56.03,2.69.05,3.38.05.07.83.12,1.72.16,2.65-.28.04-1.36.11-3.25.23-1.89.13-3.17.2-3.82.21-.66.02-1.65.04-2.97.05-1.32.02-2.51,0-3.59-.07,0-.42-.03-.97-.1-1.67Z"/><path class="cls-1" d="m469.2,20.76c-.05-.29-.1-.56-.15-.8s-.13-.52-.24-.83c-.1-.32-.2-.56-.28-.73-.09-.17-.2-.43-.34-.76-.14-.32-.24-.56-.31-.7-1.36-3.08-3.11-5.16-5.25-6.24-1.74-.86-4.39-1.3-7.96-1.3h-.11c-1.83,0-3.59.33-5.27.99-1.69.66-3.11,1.63-4.29,2.91-1.6,1.74-2.4,3.7-2.4,5.88s1.04,3.88,3.13,5.3c1.24.87,3.32,1.82,6.24,2.86,2.94,1.04,4.83,1.81,5.66,2.29,1.32.8,1.86,1.68,1.62,2.65-.07.42-.46.82-1.15,1.2-.66.38-1.53.69-2.62.94-1.1.24-2.16.36-3.2.36,0-.07-.02-.16-.05-.26-.11-.49-.27-1.17-.5-2.06-.22-.88-.37-1.48-.44-1.79-.07-.21-.2-.36-.39-.47-.19-.1-.39-.14-.6-.1-.03.03-.07.05-.1.05-.18-.03-.71-.17-1.61-.42-.46-.13-.86-.22-1.2-.26-.21-.17-.43-.29-.68-.36-.48-.1-1.23-.14-2.23-.1-.49.03-.9.07-1.25.1-.49.07-.85.17-1.09.31-.73.45-.96,1.29-.68,2.5.18.76.56,1.68,1.14,2.75l.63,1.04c-.04.21.02.4.16.58.72.86,1.28,1.52,1.66,1.97l1.72,1.77c.72.73,1.36,1.27,1.89,1.64.54.36,1.21.76,2.01,1.19.79.44,1.56.72,2.31.84.74.12,1.6.15,2.57.1.97-.05,1.96-.23,2.97-.55,1.42-.41,2.8-1.04,4.13-1.87,1.33-.83,2.33-1.82,2.99-2.96.94-1.49,1.33-3.42,1.17-5.77-.16-2.36-.87-4.2-2.16-5.52-.17-.13-.34-.2-.52-.2-1.63-2.12-4.16-3.64-7.59-4.58-.38-.1-1.13-.29-2.23-.57-.84-.21-1.48-.38-1.93-.52-1.18-.38-1.98-.85-2.39-1.41-.18-.31-.09-.79.26-1.45.45-.83,1.13-1.47,2.03-1.93.97-.48,1.95-.53,2.96-.15s1.98,1.19,2.91,2.44c-.38.14-.55.4-.52.78,0,.21.09.38.26.52.18.14.37.21.58.21h.46c.35.17.69.4,1.02.68.33.27.7.6,1.11.98l1.04.99c.32.28.65.3.99.05.56,0,1.62.04,3.18.11.52.03.91.05,1.19.05.14-.03.28-.05.42-.05.1.1.22.17.36.21.24.03.45-.01.62-.13.18-.12.28-.29.32-.5.03-.34.06-.67.08-.99.01-.31,0-.61-.06-.91Zm-5.33-2.15h-.41c-.45,0-1.1.02-1.93.05h-1.56c-1.24-1.94-2.65-3.21-4.21-3.8-1.42-.52-2.82-.45-4.21.21-1.15.59-2.03,1.44-2.65,2.55-.66,1.25-.71,2.27-.16,3.07.59.9,1.65,1.59,3.17,2.08.25.07.92.24,2.03.52,1.11.27,1.84.46,2.19.57,1.76.48,3.28,1.13,4.55,1.92,1.26.8,2.31,2,3.14,3.59.21.42.19,1.2-.05,2.34-.35,1.73-1.14,3.21-2.37,4.42-1.23,1.21-2.71,2.1-4.44,2.65-1.67.56-3.42.74-5.25.55-1.84-.19-3.49-.77-4.94-1.74-.25-.14-.65-.56-1.2-1.25-.59-.8-1.13-1.61-1.61-2.45-.52-.93-.85-1.71-.99-2.34-.07-.27-.11-.48-.11-.62l.11-.16s.19-.06.47-.1c.31-.03.67-.07,1.09-.1h1.14c.14.2.33.31.58.31h.26s.05.07.05.1c.07.18.14.4.21.68.13.55.22.85.25.88.53,1.84,1.46,3,2.81,3.49,1.42.52,3.42.48,5.98-.11,1.25-.24,2.27-.6,3.07-1.09,1.08-.62,1.72-1.37,1.93-2.24.38-1.69-.42-3.13-2.4-4.31-.86-.52-2.84-1.32-5.93-2.39-2.73-.97-4.69-1.86-5.87-2.66-1.63-1.14-2.44-2.49-2.44-4.05,0-1.77.65-3.38,1.97-4.84,1.67-1.8,3.85-2.88,6.55-3.25,2.71-.36,5.13.05,7.28,1.22.25.14.64.53,1.2,1.15.55.69,1.07,1.44,1.56,2.23.52.87.87,1.62,1.04,2.24.1.28.14.5.1.68Z"/><path class="cls-1" d="m493.72,19.59c-1.18-2.56-2.98-4.07-5.41-4.52h-.26c-2.39-.45-4.44.1-6.13,1.66-1.74,1.6-2.81,3.89-3.23,6.87-.41,2.88-.1,5.51.94,7.9,1.18,2.71,3,4.34,5.46,4.89,1.38.31,2.68.26,3.87-.16,1.2-.41,2.18-1.09,2.94-2.02.76-.94,1.39-2,1.87-3.17.49-1.18.82-2.43.99-3.75.35-2.84,0-5.41-1.04-7.7Zm-.52,7.49c-.31,2.6-1.16,4.67-2.55,6.19-1.38,1.53-3.14,2.05-5.25,1.56-.17-.03-.36-.09-.57-.16.1-.24.07-.46-.11-.67-.9-1.18-1.45-2.68-1.66-4.5-.21-1.82-.05-3.58.47-5.28.55-1.8,1.42-3.25,2.6-4.34,1.18-1.09,2.58-1.64,4.21-1.64.17,0,.33-.05.47-.15.59.59,1.09,1.31,1.51,2.18.9,1.98,1.19,4.25.88,6.81Z"/><path class="cls-1" d="m496.11,14.08c-.8-.76-1.68-1.42-2.65-1.97-1.39-.8-3.73-1.41-7.02-1.82-.24-.04-.45.03-.62.21-2.01-.07-3.94.53-5.78,1.81-2.6,1.84-4.43,3.82-5.51,5.93-.76,1.46-1.14,3.73-1.14,6.81,0,3.61.66,6.7,1.97,9.26,1.32,3.23,3.14,5.6,5.46,7.12,1.7,1.15,3.64,1.8,5.8,1.95,2.17.16,4.23-.11,6.19-.8,1.96-.7,3.75-1.74,5.38-3.15,1.63-1.4,2.83-3,3.59-4.81.31-.79.55-1.7.73-2.73.17-1.02.27-1.83.28-2.42.02-.58.03-1.49.03-2.7,0-5.1-2.24-9.32-6.71-12.69Zm1.93,15.55c-.97,3.22-2.73,5.73-5.26,7.51-2.53,1.79-5.6,2.34-9.2,1.64-3.02-.59-5.27-2.28-6.76-5.09-.76-1.91-1.28-3.94-1.56-6.09-.03-.17-.1-.31-.21-.41-.07-.7-.1-1.41-.1-2.14,0-2.84.31-4.87.93-6.08.97-1.91,2.67-3.71,5.1-5.41,1.8-1.28,3.67-1.75,5.62-1.4.24.03.46-.03.67-.21,2.32.35,4.06.8,5.2,1.35.04.21.16.37.37.47.79.45,1.52.94,2.18,1.46,1.8,1.73,2.96,3.95,3.46,6.65.5,2.71.35,5.29-.44,7.75Z"/><path class="cls-1" d="m534.64,15.8l.21-.21c.31-.38.26-.74-.15-1.09-.25-.21-.78-.75-1.62-1.61-.59-.56-1.09-.99-1.5-1.3-.14-.28-.37-.42-.68-.42h-.1c-.14,0-.26.02-.37.05-1.42-.13-3-.15-4.73-.05-.14-.1-.26-.16-.36-.16-.25-.03-.45.02-.6.16-.16.14-.25.31-.29.52-.07.69-.08,2.67-.05,5.93,0,3.19-.1,5.72-.31,7.59-.31,2.77-.9,4.85-1.77,6.24-.03.1-.09.19-.16.26-.45.1-.88.14-1.3.1-.65-.03-1.12-.18-1.4-.46-.52-.56-.94-1.56-1.25-3.02-.31-1.35-.5-3-.57-4.94-.17-3.29-.09-6.29.26-9,.03-.2-.02-.39-.16-.57-.03-.17-.1-.33-.2-.47-.28-.24-.8-.65-1.56-1.24-.56-.42-.96-.78-1.2-1.1-.24-.31-.54-.39-.88-.26h-4.68c-.21,0-.39.08-.55.24-.16.15-.23.34-.23.55v.05c-.35,6.24-.49,10.66-.42,13.26.07,3.53.36,6.34.88,8.42-.07.21-.07.42,0,.62l.52,1.15c.32.93.71,1.71,1.2,2.34.94,1.63,2.08,2.93,3.43,3.9,1.49,1.07,3.78,1.58,6.87,1.51,2.8-.07,5.07-.52,6.81-1.36.59.66,1.07,1.17,1.45,1.51.14.14.33.21.58.21,1.59,0,2.68-.05,3.27-.15.45-.04.78-.13.99-.27l.31-.2c.24-.18.37-.42.37-.73-.14-2.57-.21-5.25-.21-8.06s.02-6.09.08-9.86c.05-3.76.07-6.45.07-8.08Zm-7.64,22.41c0-1.14.02-2.04.05-2.7,0-.21-.07-.4-.21-.58-.13-.17-.32-.26-.54-.26s-.41.07-.55.21c-.38.04-.62.23-.73.58-.2.9-.85,1.63-1.95,2.18-1.09.55-2.41.88-3.97.99-1.53.1-2.96-.04-4.29-.42-1.34-.38-2.28-.92-2.84-1.61l-.05-.05c-.35-.59-.71-1.3-1.09-2.13-.73-2.19-1.15-5.4-1.25-9.62-.07-2.74.05-6.9.36-12.49h3.23c0,.39-.03,1.15-.08,2.29-.05,1.15-.08,2.05-.08,2.71-.1,2.8-.08,5.28.05,7.43.18,2.98.58,5.29,1.2,6.92.87,2.29,2.15,3.48,3.85,3.59,2.04.1,3.71-.61,4.99-2.14l.1-.05c.42-.14.59-.41.52-.83.97-1.59,1.62-3.88,1.93-6.86.21-1.94.31-4.53.31-7.75-.03-2.74-.03-4.39,0-4.94,1.52-.07,2.91-.04,4.16.1,0,2.81.07,7.01.21,12.59.14,5.58.21,9.76.21,12.53-.04.03-.07.05-.11.05l-.1.21c-1.56.1-2.67.12-3.33.05Z"/><path class="cls-1" d="m567.25,20.74c-1.25-4.92-3.9-8.06-7.96-9.41-1.42-.77-3.07-1.1-4.94-.99-2.15.14-4.19.76-6.13,1.87-.73-.41-1.43-.73-2.08-.94-.14-.17-.33-.26-.58-.26s-.95-.05-2.13-.15c-.97-.11-1.8-.11-2.49,0-.21.03-.38.14-.5.31-.12.17-.16.38-.13.63,0,.03.02.06.05.1,0,1.98-.04,4.95-.13,8.92-.08,3.97-.13,6.95-.13,8.94s.09,4.97.26,8.92c-.2.28-.22.55-.05.83.38.59.87,1.28,1.46,2.08.07.07.14.12.21.16.1.38.34.57.72.57.7,0,1.72-.03,3.07-.08,1.35-.05,2.36-.08,3.02-.08.17,0,.33-.05.47-.15h.26c.2-.04.37-.15.49-.34.12-.19.16-.39.13-.6-.42-2.18-.54-5.79-.36-10.82.1-2.39.26-4.47.46-6.24.28-1.9.59-3.22.94-3.95.42-.76,1.02-1.35,1.82-1.76.8-.42,1.68-.63,2.65-.63.31.45.57,1.01.78,1.67.63,1.66,1.02,3.95,1.2,6.86.1,2.11.12,4.66.05,7.64-.04.63-.07,1.47-.1,2.52-.04,1.06-.07,1.78-.11,2.16-.28.14-.41.37-.41.68v.1c-.04.28.05.5.26.68.31.31.83.74,1.56,1.3l1.24,1.09c0,.1.02.21.06.31.2.49.55.63,1.04.42.27-.14.59-.24.96-.29.36-.05.67-.08.93-.08s.65.01,1.17.03c.52.02.92.03,1.2.03.14,0,.26-.04.36-.11.11.04.21.05.32.05.1.11.24.18.41.21.21.04.4-.02.57-.15.18-.14.28-.32.32-.52.1-.9.17-2.12.2-3.64,0-1.67.04-2.83.11-3.49.48-6.24.31-11.04-.52-14.4Zm-20.65-7.59l.16.05-.16.15v-.2Zm12.59,12.94c-.21-3.05-.63-5.47-1.25-7.28-.87-2.39-2.17-3.72-3.9-4-2.53-.38-4.51.45-5.93,2.5-1.07,1.56-1.82,3.9-2.23,7.02-.28,2.11-.4,4.8-.37,8.06.04,3.67.04,5.51,0,5.51-.35,0-.93.02-1.74.08-.82.05-1.45.07-1.9.07-.14-3.84-.21-6.7-.21-8.58s.05-4.73.13-8.58c.09-3.84.13-6.7.13-8.58.35,0,.8.02,1.36.06,1.04.1,1.61.17,1.71.2h.05c-.07,1.04-.05,1.88.06,2.5.03.21.13.38.31.52.17.14.36.19.57.16l.31-.11c.17-.03.31-.12.42-.26.86-.93,2-1.72,3.4-2.36,1.41-.64,2.84-1.02,4.29-1.12.8-.04,1.55.02,2.24.15.14.21.31.33.52.37.52.1,1.02.22,1.51.36,1.11.63,1.94,1.56,2.49,2.81.97,2.18,1.55,6,1.72,11.44.03,1.21.02,5.01-.05,11.39-.11-.07-.23-.11-.37-.11-.07,0-1.21.04-3.43.11.04-.35.07-1.03.11-2.06.03-1.02.06-1.84.1-2.47.07-3.05.05-5.65-.05-7.8Z"/><path class="cls-1" d="m601.2,4.41c-1.42-1.59-2.41-2.6-2.96-3.02-.14-.31-.38-.46-.73-.46l-.1-.05c-.24-.14-.49-.14-.73,0-.66-.07-1.5-.09-2.52-.06-1.02.04-1.88.18-2.58.42-.2.07-.35.2-.44.39-.08.19-.09.39-.02.6.06.17.17.29.31.36-.18,3.29-.12,6.95.15,10.97-2.01-2.01-4.35-3.01-7.02-3.01-.03,0-.42-.01-1.17-.03-.74-.02-1.34-.01-1.79.03-.45.03-.9.12-1.35.26-2.36.73-4.21,2.18-5.57,4.36-1.35,2.15-2.2,4.65-2.54,7.49-.32,2.5-.25,4.96.2,7.39.45,2.46,1.22,4.57,2.29,6.34.7,1.39,1.49,2.58,2.39,3.59,1.84,2.04,3.96,3.19,6.35,3.43,2.67.28,5.51-.61,8.53-2.65.1-.04.17-.09.2-.16l.99,1.2-.1.21c-.04.2.01.4.13.57.12.17.28.29.49.36,1.35.28,3.02.47,4.99.57.11,0,.21-.01.32-.05.2.07.39.05.57-.05.14-.07.24-.17.31-.31.21-.1.35-.28.42-.52.31-1.39.45-3.23.41-5.51v-5.41l.52-8.27c.21-3.78.38-7.1.52-9.96.14-2.86.21-5.6.21-8.24,0-.45-.23-.71-.68-.78Zm-4.88,15.68c-.28,7.82-.42,13.65-.42,17.5-1.63,0-2.79.05-3.48.15v-2.44c0-.52-.26-.78-.78-.78-.11,0-.21.02-.32.05-.2.07-.38.19-.52.36-.59,1.01-1.51,1.86-2.78,2.55-1.26.7-2.66,1.13-4.18,1.3-1.53.21-2.95.11-4.27-.31s-2.34-1.13-3.07-2.13c-.17-.24-.33-.49-.46-.73-1.6-3.22-2.4-6.83-2.4-10.81,0-.14-.03-.26-.1-.37.03-.52.09-1.04.16-1.56.31-2.63,1.06-4.9,2.26-6.78,1.19-1.89,2.8-3.17,4.81-3.83.24-.07.53-.12.86-.15.33-.04.62-.06.88-.06s.61.01,1.04.03c.43.02.77.03,1.01.03,1.39,0,2.69.33,3.9,1.01,1.22.68,2.24,1.6,3.07,2.78.07.11.16.18.26.21.04.21.14.38.31.52.18.14.37.19.58.16.2-.04.38-.14.52-.32.13-.17.19-.36.15-.57-.21-1.59-.34-3.8-.41-6.63-.07-2.82-.06-5.08.05-6.78.38-.07,1.63-.09,3.74-.06,0,3.96-.14,9.84-.41,17.66Z"/><path class="cls-1" d="m592.6,25.55c-.12-1.09-.27-1.99-.44-2.71-.18-.71-.47-1.67-.89-2.88.17-.31.16-.59-.05-.83l-.31-.37c-.07-.21-.19-.34-.37-.41-1.9-1.98-4.1-2.97-6.6-2.97-1.73,0-3.16.53-4.29,1.59-1.13,1.06-1.93,2.43-2.42,4.13-.41,1.53-.57,3.12-.47,4.79.11,1.66.44,3.13.99,4.42.59,1.32,1.47,2.4,2.63,3.25,1.16.85,2.36,1.37,3.61,1.56s2.52,0,3.82-.58c1.3-.57,2.37-1.51,3.2-2.83.63-1,1.08-2.01,1.35-3.02.28-1,.36-2.05.24-3.14Zm-1.69,2.21c-.18,1.07-.59,2.11-1.25,3.12-.97,1.56-2.3,2.45-3.98,2.68-1.68.22-3.16-.2-4.44-1.28.03-.21-.02-.4-.16-.57-.56-.69-.83-2.03-.83-4,0-1.84.07-2.97.21-3.38.41-1.29,1.17-2.29,2.28-3.02,1.08-.69,2.27-1.02,3.59-.99,1.32.04,2.5.47,3.54,1.3.1.07.22.12.36.16.38,1.21.63,2.24.76,3.09.12.85.09,1.81-.08,2.89Z"/><path class="cls-1" d="m633.47,20.76c-.05-.29-.11-.56-.16-.8s-.13-.52-.23-.83c-.1-.32-.2-.56-.29-.73-.08-.17-.2-.43-.34-.76-.13-.32-.24-.56-.31-.7-1.35-3.08-3.1-5.16-5.25-6.24-1.73-.86-4.38-1.3-7.95-1.3h-.11c-1.84,0-3.6.33-5.28.99-1.68.66-3.11,1.63-4.29,2.91-1.59,1.74-2.39,3.7-2.39,5.88s1.04,3.88,3.12,5.3c1.25.87,3.33,1.82,6.24,2.86,2.95,1.04,4.84,1.81,5.67,2.29,1.32.8,1.85,1.68,1.61,2.65-.07.42-.45.82-1.14,1.2-.66.38-1.54.69-2.63.94-1.09.24-2.16.36-3.2.36,0-.07-.02-.16-.05-.26-.1-.49-.27-1.17-.49-2.06-.23-.88-.38-1.48-.44-1.79-.08-.21-.21-.36-.4-.47-.19-.1-.39-.14-.59-.1-.04.03-.07.05-.11.05-.17-.03-.71-.17-1.61-.42-.45-.13-.85-.22-1.2-.26-.2-.17-.43-.29-.67-.36-.49-.1-1.23-.14-2.24-.1-.48.03-.9.07-1.25.1-.48.07-.85.17-1.09.31-.72.45-.95,1.29-.67,2.5.17.76.55,1.68,1.14,2.75l.62,1.04c-.03.21.02.4.16.58.73.86,1.28,1.52,1.66,1.97l1.72,1.77c.73.73,1.36,1.27,1.9,1.64.54.36,1.2.76,2,1.19.8.44,1.57.72,2.31.84.75.12,1.61.15,2.58.1.97-.05,1.96-.23,2.96-.55,1.42-.41,2.8-1.04,4.14-1.87,1.33-.83,2.33-1.82,2.99-2.96.93-1.49,1.32-3.42,1.17-5.77-.16-2.36-.88-4.2-2.16-5.52-.18-.13-.35-.2-.52-.2-1.63-2.12-4.16-3.64-7.59-4.58-.38-.1-1.13-.29-2.24-.57-.83-.21-1.47-.38-1.92-.52-1.18-.38-1.98-.85-2.4-1.41-.17-.31-.08-.79.27-1.45.45-.83,1.12-1.47,2.02-1.93.97-.48,1.96-.53,2.97-.15,1,.38,1.97,1.19,2.91,2.44-.38.14-.56.4-.52.78,0,.21.08.38.26.52.17.14.36.21.57.21h.47c.35.17.68.4,1.01.68.33.27.7.6,1.12.98l1.04.99c.31.28.64.3.99.05.55,0,1.61.04,3.17.11.52.03.92.05,1.2.05.13-.03.27-.05.41-.05.11.1.23.17.37.21.24.03.45-.01.62-.13.17-.12.28-.29.31-.5.04-.34.06-.67.08-.99.02-.31,0-.61-.05-.91Zm-9.23-2.1c-1.25-1.94-2.65-3.21-4.21-3.8-1.43-.52-2.83-.45-4.22.21-1.14.59-2.02,1.44-2.65,2.55-.66,1.25-.71,2.27-.15,3.07.59.9,1.64,1.59,3.17,2.08.24.07.92.24,2.03.52,1.11.27,1.83.46,2.18.57,1.77.48,3.29,1.13,4.55,1.92,1.27.8,2.31,2,3.15,3.59.2.42.19,1.2-.06,2.34-.34,1.73-1.13,3.21-2.36,4.42-1.23,1.21-2.71,2.1-4.45,2.65-1.66.56-3.41.74-5.25.55-1.84-.19-3.48-.77-4.94-1.74-.24-.14-.64-.56-1.2-1.25-.59-.8-1.12-1.61-1.61-2.45-.52-.93-.85-1.71-.99-2.34-.07-.27-.1-.48-.1-.62l.1-.16s.2-.06.47-.1c.32-.03.68-.07,1.09-.1h1.15c.14.2.33.31.57.31h.26s.05.07.05.1c.07.18.14.4.21.68.14.55.23.85.26.88.52,1.84,1.46,3,2.81,3.49,1.42.52,3.41.48,5.98-.11,1.25-.24,2.27-.6,3.07-1.09,1.07-.62,1.71-1.37,1.92-2.24.38-1.69-.42-3.13-2.39-4.31-.87-.52-2.84-1.32-5.93-2.39-2.74-.97-4.7-1.86-5.88-2.66-1.63-1.14-2.44-2.49-2.44-4.05,0-1.77.66-3.38,1.98-4.84,1.66-1.8,3.84-2.88,6.55-3.25,2.7-.36,5.13.05,7.28,1.22.24.14.64.53,1.2,1.15.55.69,1.07,1.44,1.55,2.23.53.87.87,1.62,1.04,2.24.11.28.14.5.11.68h-.42c-.45,0-1.09.02-1.92.05h-1.56Z"/><path class="cls-1" d="m680.68,20.76c-.05-.29-.1-.56-.15-.8s-.13-.52-.24-.83c-.1-.32-.2-.56-.28-.73-.09-.17-.2-.43-.34-.76-.14-.32-.24-.56-.31-.7-1.35-3.08-3.11-5.16-5.25-6.24-1.74-.86-4.39-1.3-7.96-1.3h-.1c-1.84,0-3.6.33-5.28.99-1.68.66-3.11,1.63-4.29,2.91-1.6,1.74-2.39,3.7-2.39,5.88s1.04,3.88,3.12,5.3c1.24.87,3.32,1.82,6.24,2.86,2.94,1.04,4.83,1.81,5.66,2.29,1.32.8,1.86,1.68,1.62,2.65-.07.42-.46.82-1.15,1.2-.66.38-1.53.69-2.62.94-1.1.24-2.16.36-3.2.36,0-.07-.02-.16-.05-.26-.11-.49-.27-1.17-.5-2.06-.22-.88-.37-1.48-.44-1.79-.07-.21-.2-.36-.39-.47-.19-.1-.39-.14-.6-.1-.03.03-.07.05-.1.05-.18-.03-.71-.17-1.61-.42-.46-.13-.85-.22-1.2-.26-.21-.17-.43-.29-.68-.36-.48-.1-1.23-.14-2.23-.1-.49.03-.9.07-1.25.1-.49.07-.85.17-1.09.31-.73.45-.96,1.29-.68,2.5.18.76.56,1.68,1.15,2.75l.62,1.04c-.04.21.02.4.16.58.72.86,1.28,1.52,1.66,1.97l1.72,1.77c.72.73,1.36,1.27,1.89,1.64.54.36,1.21.76,2.01,1.19.79.44,1.56.72,2.31.84.74.12,1.6.15,2.57.1.97-.05,1.96-.23,2.97-.55,1.42-.41,2.8-1.04,4.13-1.87,1.34-.83,2.33-1.82,2.99-2.96.94-1.49,1.33-3.42,1.17-5.77-.15-2.36-.87-4.2-2.16-5.52-.17-.13-.34-.2-.52-.2-1.63-2.12-4.16-3.64-7.59-4.58-.38-.1-1.13-.29-2.23-.57-.84-.21-1.48-.38-1.93-.52-1.18-.38-1.97-.85-2.39-1.41-.17-.31-.09-.79.26-1.45.45-.83,1.13-1.47,2.03-1.93.97-.48,1.96-.53,2.96-.15,1.01.38,1.98,1.19,2.91,2.44-.38.14-.55.4-.52.78,0,.21.09.38.26.52.18.14.37.21.58.21h.46c.35.17.69.4,1.02.68.33.27.7.6,1.12.98l1.04.99c.31.28.64.3.98.05.56,0,1.62.04,3.18.11.52.03.91.05,1.19.05.14-.03.28-.05.42-.05.1.1.22.17.36.21.24.03.45-.01.63-.13.17-.12.27-.29.31-.5.03-.34.06-.67.08-.99.01-.31,0-.61-.06-.91Zm-5.33-2.15h-.41c-.45,0-1.09.02-1.93.05h-1.56c-1.24-1.94-2.65-3.21-4.21-3.8-1.42-.52-2.82-.45-4.21.21-1.14.59-2.03,1.44-2.65,2.55-.66,1.25-.71,2.27-.16,3.07.59.9,1.65,1.59,3.17,2.08.25.07.92.24,2.03.52,1.11.27,1.84.46,2.19.57,1.76.48,3.28,1.13,4.55,1.92,1.26.8,2.31,2,3.14,3.59.21.42.19,1.2-.05,2.34-.35,1.73-1.14,3.21-2.37,4.42-1.23,1.21-2.71,2.1-4.44,2.65-1.67.56-3.42.74-5.25.55-1.84-.19-3.49-.77-4.94-1.74-.25-.14-.65-.56-1.2-1.25-.59-.8-1.13-1.61-1.61-2.45-.52-.93-.85-1.71-.99-2.34-.07-.27-.1-.48-.1-.62l.1-.16s.19-.06.47-.1c.31-.03.67-.07,1.09-.1h1.14c.14.2.33.31.58.31h.26s.05.07.05.1c.07.18.14.4.21.68.13.55.22.85.26.88.52,1.84,1.45,3,2.8,3.49,1.42.52,3.42.48,5.98-.11,1.25-.24,2.27-.6,3.07-1.09,1.08-.62,1.72-1.37,1.93-2.24.38-1.69-.42-3.13-2.4-4.31-.86-.52-2.84-1.32-5.92-2.39-2.74-.97-4.7-1.86-5.88-2.66-1.63-1.14-2.44-2.49-2.44-4.05,0-1.77.65-3.38,1.97-4.84,1.67-1.8,3.85-2.88,6.55-3.25,2.71-.36,5.13.05,7.28,1.22.25.14.65.53,1.2,1.15.55.69,1.07,1.44,1.56,2.23.52.87.87,1.62,1.04,2.24.1.28.14.5.1.68Z"/><path class="cls-1" d="m694.8,3.06c-.03-.21-.14-.38-.31-.52-.18-.14-.37-.19-.57-.16-.52-.55-.96-1.04-1.3-1.45-.07-.25-.23-.44-.47-.58-.31-.41-.68-.46-1.09-.15l-.11.1c-1.8,0-3.1.02-3.9.05-.2,0-.38.09-.52.26-.14.18-.21.37-.21.58,0,.07-.01.12-.05.15-.21,1.04-.17,2.59.11,4.63-.39.28-.45.62-.21,1.04.66,1.11,1.37,2.01,2.13,2.7.1.14.24.25.42.32l.05.05c.31.24.62.24.93,0h4.06c.52,0,.78-.26.78-.78v-.16c.24-.1.38-.29.42-.57.2-1.8.15-3.64-.16-5.51Zm-6.86,2.96c-.25-2.01-.3-3.39-.16-4.16h3.02c0,1.6.07,2.88.21,3.85h-.06c-.03.07-.07.12-.1.16-.21.03-.7.05-1.46.05-.59.03-1.07.07-1.45.1Z"/><path class="cls-1" d="m695.74,16.16c.14-.34.07-.64-.21-.88-.8-.73-1.79-1.75-2.97-3.07-.07-.21-.19-.35-.36-.41-.31-.28-.62-.32-.93-.11-.11-.07-.23-.1-.37-.1-1.84-.18-3.26-.18-4.26,0-.18.03-.33.14-.47.31-.31.14-.45.38-.42.73.11,2.01.19,4.21.24,6.6.05,2.39.07,4.46.07,6.19s0,4-.02,6.79-.03,4.89-.03,6.31c0,.11.02.21.05.32-.1.24-.08.46.06.67.76,1.14,1.37,1.98,1.82,2.5,0,.45.22.71.67.78.59.07,1.2.11,1.82.13.63.01,1.39.01,2.29,0,.9-.02,1.47-.03,1.72-.03.52,0,.78-.26.78-.78v-.1c.31-.14.46-.38.46-.73v-17.47c0-.11.04-1.35.11-3.75.07-2.39.05-3.69-.05-3.9Zm-8.17,22.05c0-1.35.01-3.4.03-6.14.02-2.73.02-4.94.02-6.6s-.01-3.66-.05-5.98c-.03-2.32-.1-4.45-.21-6.4.73-.1,1.88-.08,3.44.06.07,0,.15-.02.26-.06,0,2.71.02,6.83.08,12.38.05,5.55.07,9.74.07,12.58v.06c-1.14-.11-2.36-.07-3.64.1Z"/><path class="cls-1" d="m742.28,25.57c-.45-7.86-2.71-12.56-6.76-14.09-.14-.07-.28-.08-.42-.05-1.14-.8-2.88-1.23-5.2-1.3-2.53-.1-4.37.3-5.51,1.2-.52.41-1.28,1.24-2.29,2.49l-.57.73c-.07-.21-.16-.38-.26-.52-.66-.9-1.52-1.74-2.58-2.52-1.05-.78-2.12-1.29-3.19-1.54-2.47-.55-4.77.04-6.92,1.77-.42.39-.66.61-.73.68.07-.31.05-.57-.05-.78-.14-.38-.43-.59-.88-.63-.14,0-.4.02-.78.06-1.15.07-2.22.1-3.23.1-.21,0-.38.07-.52.21-.14.14-.22.31-.26.52-.34.07-.53.29-.57.67,0,2.12-.01,3.3-.03,3.54-.01.24.05,1.42.19,3.54.13,2.11.21,3.27.21,3.48.06,1.46.1,3.02.1,4.68s-.02,3.51-.05,5.54c-.04,2.03-.05,3.6-.05,4.7,0,.18.05.33.15.47.1.42.27.83.49,1.23.23.39.43.7.6.9l.84.94c.38.45.6.71.67.78.04.21.14.38.31.52.18.14.37.19.57.16,1.32-.18,2.81-.14,4.48.1.14,0,.27-.02.41-.05.14.07.28.08.42.05.21-.07.37-.19.49-.36.12-.18.17-.37.13-.58-.14-.58-.26-2.15-.36-4.67-.07-2.61-.07-5.33,0-8.17.03-3.12.15-5.75.36-7.9.11-1.15.23-2.03.37-2.66.07-.31.13-.55.2-.72.04-.04.06-.07.06-.11.2-.1.55-.21,1.04-.31.24-.07.59-.14,1.04-.21.45.14.86.42,1.24.84.59.55,1.04,1.71,1.36,3.48.27,1.45.43,3.41.47,5.87.03,1.01.05,2.35.05,4.03s0,3.12.02,4.29c.02,1.18.08,2.12.18,2.81.07.42.32.64.73.68.8,1.32,1.49,2.29,2.08,2.91h.06c.17.21.39.3.67.26.83-.1,2.55-.16,5.15-.16.17.21.38.32.62.32.52,0,.78-.26.78-.78,0-.14-.14-2.15-.41-6.04-.25-3.32-.35-6.13-.31-8.42.03-3.22.34-5.67.93-7.33.62-1.73,1.53-2.65,2.7-2.76.66.63,1.17,1.84,1.51,3.64.28,1.56.44,3.57.47,6.03,0,1.7-.05,3.85-.15,6.45-.14,2.78-.21,4.42-.21,4.94,0,.45.22.71.67.78.25.38.63.87,1.17,1.46.54.59.84.93.91,1.04h.05c.14.41.42.59.84.52.97-.14,2.44-.09,4.42.15.2.04.38-.01.52-.15.17.21.39.31.67.31.21,0,.38-.09.52-.26.14-.17.21-.36.21-.57-.03-.63.02-3,.16-7.13.14-3.7.14-6.74,0-9.1Zm-8.58,12.02c.03-.32.1-1.62.2-3.9.11-2.67.16-4.86.16-6.56-.03-2.53-.21-4.64-.52-6.34-.38-2.15-1.04-3.64-1.98-4.47-.1-.11-.2-.19-.31-.26-.03,0-.05-.02-.05-.05-.55-.35-1.47-.52-2.76-.52h-.78c-.06,0-.21,0-.44.02-.22.02-.39.05-.49.08-.11.04-.25.08-.44.13s-.36.11-.5.18l-.47.31c-.86.73-1.5,2.17-1.92,4.32-.35,1.7-.57,3.83-.67,6.4-.11,3.08-.04,6.69.2,10.81-.34,0-.81.02-1.4.06-.59.03-1.01.05-1.25.05s-.66-.04-1.25-.11l-.05-.05c-.07-.87-.1-2.48-.1-4.84s-.02-4.07-.06-5.25c-.06-2.56-.22-4.59-.46-6.08-.38-2.08-.97-3.54-1.77-4.37-.52-.48-1.08-.85-1.66-1.09-.18-.17-.39-.24-.63-.21-.73-.17-1.51-.14-2.34.11-1.04.27-1.95.79-2.73,1.55-.78.77-1.36,1.65-1.74,2.66-.18.41-.31,1.56-.42,3.43-.1,1.73-.17,3.62-.21,5.67-.03,2.15-.01,4.04.06,5.66,0,1.18.03,2.07.1,2.66h-.26c-1.8,0-2.89-.02-3.28-.05,0-.98.02-2.48.06-4.53.03-2.04.05-3.86.05-5.46s-.04-3.1-.11-4.52c0-.28-.06-1.43-.2-3.46-.14-2.03-.2-3.17-.18-3.43.01-.26.02-1.4.02-3.41.97,0,1.99-.03,3.07-.1v.15c-.14.8-.1,1.72.1,2.76,0,.03.01.06.03.08.02,0,.03.04.03.07l.2.32c.25.2.52.26.84.15.17-.07.31-.2.41-.41.04-.11.05-.18.05-.21v-.73c.14-.38.73-.99,1.77-1.82,1.7-1.42,3.55-1.9,5.56-1.45.87.17,1.76.59,2.66,1.24.9.66,1.63,1.39,2.18,2.19l.16.62c.17.69.52,1.09,1.04,1.2.1.03.21.03.31,0,.1-.04.17-.06.21-.06l.36-.36.31-.36.89-1.2c.93-1.18,1.61-1.92,2.02-2.24.87-.65,2.38-.95,4.53-.88,2.15.07,3.66.45,4.52,1.15,1.84,1.49,2.88,4.1,3.12,7.85.11,1.24.11,2.87,0,4.88-.1,2.6-.15,4.11-.15,4.53v7.23c-.07.03-.16.07-.26.1v.05c-1.6,0-2.73.04-3.38.11Z"/><path class="cls-1" d="m773.68,24.33c-.13-.8-.48-1.82-1.04-3.07-.55-1.28-.91-2.2-1.09-2.76,0-.1-.05-.2-.15-.31-.25-.62-.52-1.21-.84-1.77-.93-1.59-2.2-2.92-3.79-3.98-1.6-1.05-3.28-1.7-5.04-1.94-1.6-.25-3.13-.13-4.58.36-1.46.48-2.72,1.35-3.8,2.6,0-.45-.02-.76-.05-.94-.07-.83-.35-1.35-.83-1.56-.24-.1-.52-.14-.83-.1-.14,0-.42.03-.83.1-.94.14-1.86.21-2.76.21-.21,0-.39.08-.55.23-.15.16-.23.34-.23.55,0,.1.02.19.05.26-.03.14-.05.26-.05.36.21,3.44.19,9.45-.05,18.05-.07,2.36-.07,5.58,0,9.67.1,4.19.15,6.93.15,8.22v.1c-.24.31-.24.62,0,.94.18.24.45.69.83,1.35.25.38.44.69.58.94-.04.06-.05.13-.05.2-.04.21.01.39.15.55.14.16.33.25.57.29.8.06,1.77.08,2.91.05l2.87-.05c.51,0,.77-.27.77-.79.04-.03.07-.05.11-.05.52,0,.78-.26.78-.78,0-3.29.14-5.67.42-7.12,2.39.34,4.14.45,5.25.31,2.15-.31,4.03-1.17,5.64-2.57,1.61-1.41,2.88-3.15,3.82-5.23.9-1.91,1.49-3.97,1.77-6.19.28-2.22.24-4.26-.11-6.13Zm-2.73,1.61c-.22,3.33-1.11,6.26-2.67,8.79-1.67,2.63-3.66,4.12-5.98,4.47-2.71.41-5.6-.78-8.69-3.59-.38-.35-.74-.33-1.09.05-.21.21-.26.45-.16.73-.2.24-.26.5-.15.78.24.83.41,2.63.52,5.41.03,1.32.05,3.14.05,5.46-.07-.04-.16-.05-.26-.05-1.94,0-3.14,0-3.59.05,0-1.08-.05-3.68-.15-7.8-.07-4.06-.07-7.26,0-9.62.24-8.49.26-14.46.05-17.89.69-.03,1.42-.1,2.18-.21.42-.07.66-.1.73-.1v.21c.03.17.06.55.08,1.14.02.59.04,1.11.08,1.56.03.45.26.69.67.73h.05c.45.24.8.14,1.04-.31.87-1.49,2-2.54,3.38-3.15,1.39-.61,2.88-.8,4.48-.6,1.52.25,2.99.83,4.39,1.75,1.4.91,2.5,2.08,3.3,3.5,1.39,2.47,1.97,5.36,1.74,8.69Z"/><path class="cls-1" d="m767.08,21.78c-.94-2.81-2.23-5.06-3.9-6.76-.14-.1-.28-.17-.41-.21-.25-.21-.54-.36-.89-.47-.66-.17-1.4-.08-2.24.26-1.24.52-2.37,1.37-3.37,2.55-.98,1.11-1.74,2.59-2.29,4.45-.56,1.85-.82,3.7-.78,5.53.03,2.08.5,3.9,1.4,5.44.9,1.54,2.29,2.54,4.16,2.99,1.84.41,3.42.21,4.76-.63,1.33-.83,2.35-2.06,3.04-3.69.62-1.45.99-3.06,1.09-4.81.11-1.75-.08-3.3-.57-4.65Zm-.99,4.57c-.07,1.57-.38,2.99-.93,4.27-1.29,2.91-3.31,4.04-6.09,3.38-.1,0-.22-.04-.36-.11l-.11-.2c-.79-1.01-1.26-2.48-1.4-4.42s.09-3.82.68-5.62c.59-1.87,1.42-3.21,2.49-4,1.18-.87,2.52-.97,4.01-.31.45.83.86,1.81,1.24,2.96.39,1.14.54,2.5.47,4.05Z"/><path class="cls-1" d="m789.15,27.86c-.01-5.82-.02-10.19-.02-13.1,0-.59-.04-2.22-.11-4.89-.07-2.18-.07-3.76,0-4.73v-.16c.04-.24-.03-.45-.2-.62-.14-.17-.66-.71-1.56-1.61-.59-.63-1.06-1.15-1.41-1.56-.31-.42-.67-.47-1.09-.16l-.1.1c-.84-.13-2.34-.15-4.53-.05-.21,0-.38.08-.52.24-.14.15-.21.35-.21.6s.11.43.32.57c-.04.66-.06,1.37-.06,2.13,0,.38.02,1.23.06,2.55.07,2.63.1,4.24.1,4.83,0,2.92.01,7.28.03,13.11.01,5.82.02,10.19.02,13.1l-.1.1c-.35.42-.33.78.05,1.1.35.27.76.69,1.25,1.24.55.66.9,1.06,1.04,1.2v.21c.03.21.14.38.31.52s.36.19.57.15c.56-.06,1.98-.1,4.27-.1.2,0,.38-.07.52-.21.27.11.52.05.72-.15.18-.18.26-.39.26-.63.28-.14.42-.36.42-.67,0-2.92-.01-7.28-.03-13.11Zm-7.72,10.09c0-2.88-.01-7.19-.02-12.95-.02-5.75-.03-10.08-.03-13,0-.59-.03-2.22-.1-4.89-.04-1.35-.06-2.18-.06-2.49,0-.73.02-1.41.06-2.03,1.31-.07,2.35-.03,3.12.1-.07,1.11-.07,2.54,0,4.27.07,2.63.1,4.25.1,4.84,0,2.91.01,7.27.03,13.07.01,5.81.02,10.15.02,13.03h-.15c-.97.14-1.96.15-2.97.05Z"/><path class="cls-1" d="m813.78,21.47c-.04-.07-.18-.37-.42-.89l-.36-.99c-.04-.17-.11-.31-.21-.41l-.31-.68c-.25-.45-.44-.79-.58-1.04l-.67-.88c-.28-.38-.55-.68-.81-.89-.26-.2-.56-.43-.91-.67-.34-.24-.71-.45-1.09-.63-1.42-.45-2.69-.49-3.8-.13-1.1.37-2.14,1.02-3.12,1.95-.9.91-1.62,1.94-2.15,3.1-.54,1.16-.81,2.28-.81,3.35,0,.28.1.49.31.63,0,.07.02.14.05.21.07.2.2.35.39.44.19.08.39.09.6.02.94-.34,2.95-.55,6.03-.62h2.45c1.04,0,1.92-.01,2.65-.03.73-.01,1.33-.04,1.82-.08.21,0,.38-.08.52-.26.14-.17.21-.36.21-.57v-.05c.28-.24.34-.54.21-.88Zm-4.79.28c-1.49.02-2.51.03-3.07.03-.93.03-1.75.07-2.44.1.17-1.42.8-2.59,1.87-3.51,1.08-.92,2.34-1.37,3.8-1.37.1,0,.21-.04.31-.11.38.38.75.88,1.12,1.48.36.61.63,1.1.8,1.48l.78,1.88c-.62,0-1.68.01-3.17.02Z"/><path class="cls-1" d="m823.03,29.68c0-2.98-.55-5.8-1.66-8.47-1.11-2.67-2.79-5-5.05-6.97-2.25-1.98-4.87-3.26-7.85-3.85-.17-.03-.33-.02-.47.05-.38-.07-.78-.12-1.19-.15-1.63-.14-3.23.04-4.79.54-1.56.51-2.97,1.3-4.23,2.37-1.27,1.07-2.31,2.51-3.12,4.31-.82,1.81-1.29,3.84-1.43,6.09-.35,6.07.86,10.64,3.64,13.73.72.93,1.63,1.82,2.7,2.65,2.43,1.84,5.06,2.81,7.9,2.91,2.85.11,5.49-.55,7.93-1.97,2.45-1.43,4.43-3.4,5.96-5.93.14-.28.14-.54,0-.78.17-.32.15-.61-.05-.89-.11-.14-.35-.48-.73-1.04-.38-.55-.71-.97-.99-1.24h.31c.56-.07,1.39-.11,2.5-.11.52,0,.78-.26.78-.78,0-.17-.05-.33-.16-.47Zm-14.61-3.72c-4.23.13-7.4.19-9.52.19-.52,0-.78.26-.78.78,0,.38.18.62.52.72.04.56.13,1.11.26,1.67-.07.14-.1.28-.1.41,0,.35.16.59.47.73.8,2.12,2.08,3.8,3.85,5.05.86.62,1.76,1.05,2.7,1.3.94.2,1.94.15,3.02-.16,1.07-.31,2.06-.9,2.96-1.77.52-.52.95-1.23,1.3-2.13.07-.17.16-.38.26-.62l.21-.63c.07-.2.14-.38.21-.52.48-.1,1.61-.14,3.38-.1-.21,1.87-.91,3.51-2.11,4.91-1.2,1.41-2.7,2.46-4.5,3.15-1.73.73-3.62.98-5.67.75-2.04-.22-3.84-.93-5.4-2.1-.52-.38-.99-.82-1.41-1.3-.41-.56-.73-1.1-.93-1.62-.11-.27-.3-.45-.58-.52-1.42-2.6-2.01-6.08-1.76-10.45.17-2.7.86-5.01,2.08-6.91,1.21-1.91,2.67-3.25,4.36-4.03,1.7-.78,3.52-1.09,5.46-.91,2.95.28,5.51,1.62,7.67,4.03,2.17,2.41,3.36,5.71,3.57,9.9-2.12,0-5.29.06-9.52.18Zm3.69,4.92c-.07.17-.15.42-.26.73l-.21.57c-.24.69-.53,1.21-.88,1.56-2.11,2.01-4.37,2.18-6.76.52-1.28-.94-2.29-2.19-3.02-3.75h11.03c0,.11.02.2.05.26.03.04.05.07.05.11Z"/><path class="cls-1" d="m868.53,20.38c-.07-.11-.17-.2-.31-.27-.04-.03-.05-.08-.05-.15-1.04-1.21-1.67-2.36-1.87-3.43-.07-.28-.25-.47-.53-.57-1.31-2.54-3.55-4.1-6.7-4.69-2.78-.48-5.53-.13-8.27,1.04-.04-.24-.11-.46-.21-.67-.31-.59-.85-.94-1.61-1.04-.42-.07-1.04-.07-1.87,0-.94.1-1.58.15-1.93.15-.52,0-.78.26-.78.79v.15c-.1.14-.15.3-.15.47-.11,1.21-.12,2.77-.06,4.68.11,2.84.16,4.35.16,4.52,0,1.94-.03,4.85-.1,8.71-.07,3.87-.11,6.77-.11,8.71,0,.18.05.33.16.47.03.1.09.21.15.31.42.38.89.9,1.41,1.56l1.14,1.35c-.03.14-.05.26-.05.37.03.21.14.38.31.52.18.14.37.19.58.15,1.94-.24,3.77-.36,5.51-.36.13.17.31.29.52.34.2.05.4.02.57-.11.17-.12.29-.28.36-.49.07-.38.13-.88.18-1.48.06-.61.08-1.15.08-1.64s-.01-1.18-.05-2.08c-.03-.9-.07-1.58-.1-2.03l-.16-2.28c-.1-1.15-.15-1.86-.15-2.14-.21-2.7-.3-4.76-.26-6.19.06-1.9.32-3.2.77-3.9.73-1.14,2.19-1.54,4.37-1.19h.11l.36.52c-.21.38-.15.71.16.99.31.27.64.29.99.05l.15.26c.49.73.85,1.32,1.09,1.77-.03.17,0,.34.11.52.27.45.64.53,1.09.26.48-.32,1.26-.78,2.34-1.41,1.07-.62,1.87-1.11,2.39-1.45.45-.32.54-.68.26-1.09Zm-7.23-1.41c-.17-.34-.45-.48-.83-.42-.73-.9-1.49-1.5-2.29-1.82-1.73-.65-3.42-.54-5.07.34-1.64.89-2.76,2.16-3.35,3.82-.14.35-.05.65.26.89,0,1,.03,2.48.1,4.42.07,1.94.11,3.07.11,3.38.07,3.29,0,6.01-.21,8.16-.42.04-1.16.09-2.24.16-.86.07-1.56.1-2.08.1,0-1.73.04-4.45.11-8.16s.1-6.54.1-8.48c0-.38-.05-1.92-.15-4.63-.08-1.8-.06-3.27.05-4.42.24-.03.72-.08,1.43-.15.71-.07,1.2-.07,1.48,0,.24.03.4.1.47.21.13.24.13.71,0,1.4-.04.21,0,.41.13.6.12.19.28.3.49.34.21.03.41-.01.6-.13s.3-.29.34-.5c2.63-1.31,5.32-1.73,8.06-1.24,2.67.48,4.55,1.8,5.67,3.95-.04,0-.08.01-.11.05-.21.17-.66.52-1.35,1.04-.7.52-1.23.93-1.61,1.25l-.11-.16Z"/><path class="cls-1" d="m882.73,3.06c-.04-.21-.14-.38-.32-.52-.17-.14-.36-.19-.57-.16-.52-.55-.95-1.04-1.3-1.45-.07-.25-.22-.44-.47-.58-.31-.41-.67-.46-1.09-.15l-.1.1c-1.8,0-3.1.02-3.9.05-.21,0-.38.09-.52.26-.14.18-.21.37-.21.58,0,.07-.02.12-.05.15-.21,1.04-.18,2.59.1,4.63-.38.28-.45.62-.21,1.04.66,1.11,1.37,2.01,2.14,2.7.1.14.24.25.41.32l.05.05c.32.24.63.24.94,0h4.06c.52,0,.78-.26.78-.78v-.16c.24-.1.38-.29.41-.57.21-1.8.16-3.64-.15-5.51Zm-6.87,2.96c-.24-2.01-.29-3.39-.15-4.16h3.01c0,1.6.07,2.88.21,3.85h-.05c-.04.07-.07.12-.11.16-.2.03-.69.05-1.45.05-.59.03-1.08.07-1.46.1Z"/><path class="cls-1" d="m883.66,16.16c.14-.34.07-.64-.21-.88-.79-.73-1.78-1.75-2.96-3.07-.07-.21-.19-.35-.36-.41-.32-.28-.63-.32-.94-.11-.1-.07-.23-.1-.36-.1-1.84-.18-3.26-.18-4.27,0-.17.03-.33.14-.47.31-.31.14-.45.38-.41.73.1,2.01.18,4.21.23,6.6.05,2.39.08,4.46.08,6.19s-.01,4-.03,6.79c-.01,2.79-.02,4.89-.02,6.31,0,.11.02.21.05.32-.1.24-.09.46.05.67.77,1.14,1.37,1.98,1.82,2.5,0,.45.23.71.68.78.59.07,1.19.11,1.82.13.62.01,1.38.01,2.29,0,.9-.02,1.47-.03,1.71-.03.52,0,.78-.26.78-.78v-.1c.31-.14.47-.38.47-.73v-17.47c0-.11.03-1.35.1-3.75.07-2.39.06-3.69-.05-3.9Zm-8.16,22.05c0-1.35.01-3.4.02-6.14.02-2.73.03-4.94.03-6.6s-.02-3.66-.05-5.98c-.04-2.32-.11-4.45-.21-6.4.73-.1,1.87-.08,3.43.06.07,0,.16-.02.26-.06,0,2.71.03,6.83.08,12.38s.08,9.74.08,12.58v.06c-1.15-.11-2.36-.07-3.64.1Z"/><path class="cls-1" d="m915.88,23.73c-.2-4.14-.29-6.79-.29-7.93,0-.28-.1-.49-.31-.63-.04-.17-.12-.32-.26-.46-1.46-1.36-2.45-2.36-2.97-3.02-.2-.24-.46-.33-.78-.26h-.31c-.1,0-.19.04-.26.11-.03-.04-.09-.06-.15-.06-.66-.1-1.34-.17-2.03-.21-.49-.03-.77.18-.83.63-.46.14-.65.43-.58.88.04.11.06.26.06.47s.01.36.05.47c-1.6-1.01-3.5-1.77-5.72-2.29-5.03-1.14-8.72.21-11.08,4.06-1.7,2.81-2.55,6.77-2.55,11.9,0,1.11.01,1.9.03,2.37.02.47.09,1.18.21,2.13.12.96.34,1.8.67,2.53.33.72.78,1.4,1.33,2.02,1.59,1.77,4.26,2.83,8.01,3.17,3.29.28,6.13-.59,8.53-2.6.03,2.08-.44,3.79-1.41,5.13-.97,1.33-2.22,2.22-3.74,2.67-.9.32-1.81.44-2.71.37,0-.11-.01-.21-.05-.31-.24-.56-.47-1.16-.67-1.82-.11-.38-.35-.58-.73-.58-1.46-.79-2.5-1.3-3.12-1.5-.38-.14-.68-.05-.89.26-.38,0-.95-.01-1.71-.03-.77-.02-1.32-.03-1.67-.03-.1-.07-.22-.12-.36-.15-.24-.04-.44.02-.6.15-.15.14-.25.32-.28.52,0,.42-.01.71-.03.86-.02.16.03.41.13.76.1.34.17.57.21.67.03.11.11.32.23.63.12.31.2.52.24.62.55,1.49,1.48,2.76,2.78,3.8s2.81,1.8,4.55,2.28c4.85,2.12,8.79,2.55,11.8,1.3,3.16-1.24,5.29-4.29,6.4-9.15.59-2.46.92-5.33,1.01-8.6.09-3.28.04-6.99-.15-11.13Zm-5.07,13.7c-.11,1.25-.25,2.53-.42,3.85-.31,2.36-1.13,4.4-2.44,6.14-.87,1.17-2.14,2-3.8,2.46-1.66.47-3.42.57-5.25.29-.52-.07-1.04-.17-1.56-.31-.97-.42-1.98-.9-3.02-1.46-.14-.07-.28-.1-.41-.1-1.46-.97-2.45-2.17-2.97-3.59-.41-1.14-.64-1.8-.67-1.98,1.31,0,2.34.04,3.06.11.56,1.66,1.69,2.81,3.38,3.43,1.7.62,3.45.64,5.26.05,2.08-.66,3.71-1.96,4.88-3.9,1.22-1.9,1.62-4.31,1.2-7.23-.03-.17-.12-.32-.26-.46-.14-.14-.31-.21-.52-.21h-.1c-.18.03-.33.12-.47.26-2.29,2.49-5.12,3.59-8.48,3.27-3.33-.27-5.65-1.16-6.97-2.65-.55-.66-.98-1.47-1.27-2.44-.3-.97-.46-1.8-.49-2.5-.04-.69-.06-1.71-.06-3.07,0-4.81.78-8.51,2.34-11.07,1.95-3.23,5.08-4.33,9.42-3.33,2.39.56,4.52,1.51,6.39,2.86.28.21.57.23.89.05.13,0,.27-.03.41-.1.45-.28.54-.64.26-1.09-.1-.14-.17-.25-.21-.34-.03-.09-.07-.19-.1-.31-.04-.12-.05-.23-.05-.31,0-.09-.01-.23-.03-.42s-.04-.36-.08-.49c.45.03,1.01.1,1.67.2h.05c.07.87.1,1.96.1,3.28.04,2.46.06,3.85.06,4.16,0,.24.05,1.55.15,3.92.11,2.38.17,3.93.18,4.66.02.73.04,1.98.06,3.74.01,1.77-.03,3.31-.13,4.63Z"/><path class="cls-1" d="m907.11,20.19c-.79-2.23-2.18-3.68-4.16-4.34-.45-.14-1.09-.22-1.92-.26-1.73-.76-3.4-.17-4.99,1.77-1.39,1.7-2.34,3.92-2.86,6.65-.59,2.88-.49,5.38.31,7.49.94,2.6,2.72,4.06,5.36,4.37,2.42.28,4.41-.44,5.95-2.16,1.54-1.71,2.52-3.85,2.94-6.42.38-2.49.17-4.86-.63-7.1Zm-.93,6.84c-.35,2.29-1.16,4.14-2.45,5.54-1.28,1.4-2.84,1.98-4.68,1.74h-.1l-.1-.21c-.73-1.45-1.17-3.07-1.33-4.86-.16-1.78-.01-3.46.44-5.02.52-1.59,1.38-2.8,2.58-3.61,1.19-.81,2.74-1.1,4.65-.86,1.14,1.98,1.47,4.4.99,7.28Z"/><path class="cls-1" d="m949.99,36.23c-.02-.86-.05-2.05-.11-3.56-.05-1.5-.14-2.94-.26-4.29-.12-1.35-.28-2.67-.49-3.95-1.35-8.32-4.46-13.12-9.31-14.4-1.94-.49-3.36-.66-4.26-.52l-.83.1c-1.05.14-2.05.43-3.02.89,0-2.88-.14-5.1-.42-6.66-.07-.28-.24-.47-.52-.57l-.1-.11c-.14-.1-.64-.43-1.51-.99-.52-.38-.95-.67-1.3-.88-.17-.24-.38-.36-.62-.36-2.01-.14-3.64-.11-4.89.1-.28.04-.47.17-.57.42-.18.17-.26.38-.26.62.21,3.57.31,7.37.31,11.39s-.05,8.53-.16,13.52c-.1,4.99-.15,8.79-.15,11.39-.14.27-.14.55,0,.83.24.38.76,1.09,1.56,2.13.59.8.99,1.46,1.19,1.98.18.41.51.55.99.41.38.11.82.18,1.33.21.5.03.92.05,1.27.05s.8-.01,1.35-.02c.56-.02.96-.03,1.2-.03.17,0,.33-.05.47-.16.17.14.38.18.62.11.21-.04.37-.15.47-.34.1-.19.12-.39.05-.6-.55-2.08-.8-5.96-.73-11.64.04-2.5.16-4.77.37-6.82.21-2.15.5-3.57.88-4.26.52-1.11,1.47-2.05,2.86-2.81.21-.1.33-.26.37-.47.17.04.32.09.46.16.94.55,1.68,1.73,2.24,3.53.45,1.63.74,3.75.88,6.35.11,1.91.12,4.19.06,6.86,0,.45-.03,1.27-.08,2.45s-.08,2.01-.08,2.49c-.1.14-.16.31-.16.52.04.28.18.49.42.63l3.28,3.43v.1c.03.21.14.38.33.5.19.12.39.16.6.13.49-.11,1.18-.18,2.08-.21,1.11,0,1.89-.04,2.34-.11l.31-.1c.25.04.47-.03.68-.21h.05c.52,0,.78-.26.78-.78,0-.24,0-1.16.03-2.75.01-1.6.01-2.83,0-3.7Zm-4.81-4c0,.38-.05,1.06-.13,2.03-.09.97-.13,1.65-.13,2.03s.03,1.09.1,2.13h-4.21c0-.45.03-1.19.08-2.21.05-1.02.08-1.79.08-2.32.06-2.73.05-5.07-.06-7.01-.14-2.71-.46-4.93-.98-6.66-.66-2.25-1.65-3.75-2.97-4.47-.9-.52-2.22-.64-3.95-.37-2.05.31-3.61,1.55-4.68,3.69-.83,1.67-1.37,3.92-1.61,6.77-.18,1.97-.19,4.41-.05,7.33,0,.55.02,1.38.07,2.49.06,1.11.1,1.89.13,2.34-1.94.04-3.2.02-3.79-.05,0-2.53.05-6.47.15-11.83.11-5.36.16-9.3.16-11.83s-.09-6.46-.26-11.8c.9-.11,2.01-.12,3.33-.06v.26c.17,1.15.22,3,.15,5.57-.03,2.53.06,4.45.26,5.77.04.21.12.36.26.47l-.05.1c-.24.45-.14.8.31,1.04.45.25.8.14,1.04-.31.59-1,1.41-1.86,2.45-2.57,1.04-.71,2.16-1.21,3.38-1.49.24.14.48.16.73.06.24-.14.5-.23.78-.26,2.63-.14,4.61.83,5.92,2.91,2.67,4.19,3.83,10.28,3.49,18.25Z"/><path class="cls-1" d="m970.09,13.61c-.52-.58-1.37-1.42-2.55-2.49-.07-.07-.16-.12-.26-.16-.14-.14-.3-.21-.47-.21-.24,0-.57-.03-.99-.1v-3.48c0-.28-.12-.49-.36-.63-.04-.07-.07-.12-.11-.15-1.24-1.15-1.9-1.75-1.97-1.82,0-.38-.18-.63-.52-.73-.11-.04-.21-.05-.31-.05-.14-.11-.3-.16-.47-.16-3.05,0-4.93.02-5.62.05-.31,0-.52.14-.62.42-.21.17-.31.38-.31.62v.05c.03.66.05,1.84.05,3.54-.04,1.11-.02,2.01.05,2.7h-4.11c-.52,0-.78.26-.78.79,0,.2.07.38.21.51-.14.59-.17,1.29-.1,2.08,0,.11.01.29.05.55.03.26.05.41.05.44.03.31.05.59.05.83-.31.42-.26.79.16,1.1.28.2.61.53.99.99.48.58.79.95.93,1.09.11.31.33.48.68.52.76.03,1.54.1,2.34.2-.07,3.23-.11,5.9-.11,8.01.04,1.84.09,3.47.16,4.89.03,4.02.8,6.78,2.29,8.27,1.56,1.56,4.5,2.34,8.84,2.34.21,0,.4-.09.57-.26.21.07.4.05.57-.05.21-.07.38-.23.52-.47.07-.17.11-.43.11-.78,0-.07,0-.2.02-.39s.03-.36.03-.5c.03-.62.1-1.24.21-1.87.06-.03.13-.08.2-.15.32-.31.33-.65.06-.99.03-.45-.16-.73-.58-.83h-.31c-1.18-1.08-2.15-1.84-2.91-2.29-.04-.04-.09-.07-.16-.11h-.05c-.1-.06-.21-.1-.31-.1v-.05c0-1.7.06-4.17.18-7.41.12-3.24.18-5.64.18-7.2.28.03,1.18.05,2.71.05.24,0,.43-.09.57-.26h.16c.52,0,.78-.26.78-.78,0-2.01.03-3.49.1-4.42.03,0,.07-.02.1-.05.38-.35.4-.71.06-1.1Zm-8.32,1.56c-.21.04-.39.14-.52.32-.14.17-.19.36-.16.57.03.24.16.43.36.57-.14.56-.26,1.72-.36,3.48-.1,1.81-.16,3.82-.16,6.04-.03,2.32,0,4.28.11,5.87.03.9.1,1.61.21,2.13.03.32.06.58.1.78.1.28.22.51.36.68.42.49,1.08.78,1.98.89.24.03.52.05.83.05v2.65c-.38-.04-.95-.05-1.71-.05h-1.41c-1.35-.07-2.27-.37-2.75-.89-.14-.17-.28-.53-.42-1.09-.14-.59-.26-1.37-.36-2.34-.07-.55-.13-1.18-.16-1.87v-.37c0-.06-.02-.13-.05-.2-.04-1.25-.07-2.69-.11-4.32,0-2.11.04-4.89.11-8.32.03-.07.05-.14.05-.21,0-.14-.02-.26-.05-.36.03-1.53.05-2.5.05-2.91,0-.38-.19-.63-.57-.73-.14-.24-.35-.37-.63-.37h-4c-.03-.06-.05-.16-.05-.28s-.01-.24-.03-.34c-.02-.1-.02-.21-.02-.31-.07-.66-.04-1.21.1-1.67h3.54c.17.07.34.11.52.11.2-.04.38-.13.52-.29.13-.15.19-.35.15-.59-.1-.84-.14-2-.1-3.49v-2.86h4.42c-.11.59-.17,1.22-.18,1.87-.02.66-.01,1.42.02,2.27.04.84.05,1.39.05,1.63,0,.14.04.28.11.42.14.35.4.5.78.47.73-.07,1.77-.04,3.12.1.03.56.05,1.51.05,2.86-1.11-.1-2.36-.07-3.74.1Z"/><path class="cls-1" d="m1002.95,9.3c-.59-1.21-1.63-2.58-3.12-4.11-1.63-2.25-3.8-3.77-6.5-4.55-2.71-.78-5.41-.84-8.11-.18-2.78.69-5.1,2.05-6.97,4.08-1.87,2.03-2.84,4.53-2.91,7.51-.25.35-.23.68.05.99.8.94,1.85,2.01,3.17,3.23.1.17.28.29.52.36.59.1,1.23.17,1.93.18.69.02,1.48,0,2.36-.02.89-.04,1.48-.06,1.79-.06.11,0,.21-.01.32-.05.17.07.36.07.57,0,.21-.07.35-.2.44-.39.09-.19.1-.39.03-.6-.35-1.07-.43-2.12-.24-3.14.19-1.02.6-1.9,1.23-2.63.62-.73,1.36-1.18,2.23-1.35.87-.17,1.87-.02,3.02.47.13.07.29.1.47.1.62,1.32.76,2.66.41,4.01-.03.2-.09.4-.18.6-.09.19-.22.4-.39.64l-.42.58c-.1.14-.28.36-.54.67-.26.32-.43.52-.5.63l-1.61,1.97-1.56,1.93c-.31.38-.71.94-1.2,1.69-.48.74-.82,1.43-1.01,2.05-.19.63-.37,1.39-.55,2.29-.17.9-.25,1.89-.25,2.96,0,.18.05.33.15.47v.26s.02.05.05.05c-.1.11-.17.23-.2.37-.04.2,0,.4.13.57.12.17.28.29.49.36.38.07,1.14.4,2.29.99v.11c0,.51.26.77.78.77h4.52c.07.42.31.65.73.68.21,0,.4-.07.57-.21s.26-.31.26-.52c.03-.41.03-.93,0-1.56v-1.5c0-1.11.12-2,.36-2.66.21-.52.51-1.01.89-1.48.38-.47.92-1.03,1.61-1.69.69-.66,1.18-1.14,1.46-1.46,1.07-1.14,2.08-2.72,3.01-4.73,1.49-3.26,1.63-6.15.42-8.68Zm-2.76,3.64c-.45,1.49-1.68,3.27-3.69,5.36-.24.27-.64.69-1.19,1.24l-1.36,1.41c-.34.34-.73.77-1.17,1.27-.43.5-.8.98-1.12,1.43-1.21,1.77-1.69,3.48-1.45,5.15-1.35-.07-2.43-.05-3.23.05,0-.93.08-1.78.24-2.55.15-.76.32-1.41.49-1.95.18-.53.48-1.13.91-1.79.44-.66.8-1.18,1.1-1.56.29-.38.78-.97,1.48-1.77l1.66-2.03s.18-.2.44-.52c.26-.31.44-.55.55-.72l.52-.73c.21-.31.38-.61.52-.89.14-.27.24-.53.31-.78.31-1.38.26-2.74-.16-4.05-.41-1.32-1.12-2.45-2.13-3.38-1-.94-2.14-1.54-3.4-1.8-1.27-.26-2.65-.06-4.14.6-1.9.9-3.03,2.43-3.38,4.58-.03.1-.1.78-.21,2.03-.03.13-.05.26-.05.36-.1.03-.17.09-.21.15-.03,0-.05.02-.05.06h-2.03c-.34,0-1.19-.02-2.54-.06.07-2.56.91-4.73,2.54-6.5,1.63-1.76,3.7-2.96,6.19-3.58,1.81-.49,3.68-.57,5.62-.24,1.94.33,3.64,1.03,5.1,2.11l2.33,2.34.16.21c1.56,2.28,2.01,4.47,1.35,6.55Z"/><path class="cls-1" d="m994.63,36.6c-.14-.17-.31-.28-.52-.31h-.05l-.11-.11c-.59-.52-.9-.79-.93-.83-.04,0-.42-.17-1.15-.52-.1-.38-.34-.57-.73-.57-.1,0-.61-.01-1.53-.03-.92-.01-1.65-.01-2.18,0-.54.02-1.09.08-1.64.19-.21.03-.37.13-.5.31-.12.17-.16.38-.13.62l.11.21c-.07.1-.11.21-.11.31-.03.69.09,2.24.37,4.63-.07.14-.1.29-.1.47.03.27.17.46.41.57l.21.21c.59.34,1.58,1.11,2.96,2.29l.21.1c.14.07.3.1.47.1.55-.03,1.8-.05,3.74-.05.52,0,.78-.26.78-.78,0-.1-.02-.21-.05-.31.31-.14.47-.38.47-.73,0-2.7.05-4.44.15-5.2.04-.21-.01-.4-.15-.57Zm-7.9-.63v-.1c.65-.07,1.75-.09,3.27-.05-.1.17-.14.35-.1.52.2.9.31,2.06.31,3.48-.38.04-.97.07-1.77.11-.62.03-1.09.07-1.4.1-.25-2.04-.35-3.4-.31-4.06Z"/></svg>