<?xml version="1.0" encoding="UTF-8"?><svg id="Layer_1" xmlns="http://www.w3.org/2000/svg" viewBox="0 0 68.82 79.37"><defs><style>.cls-1{fill:#182a42;}.cls-1,.cls-2{stroke-width:0px;}.cls-2{fill:#122b44;}</style></defs><path class="cls-1" d="m18.01,6c0-.61.13-1.2.38-1.75.25-.55.64-1.04,1.15-1.46.51-.42,1.15-.75,1.91-1,.76-.25,1.65-.37,2.65-.37.79,0,1.51.09,2.15.27s1.18.43,1.62.75c.44.32.78.7,1.02,1.15.24.44.36.92.36,1.43,0,.73-.23,1.4-.67,1.99-.45.59-1.09,1.15-1.93,1.67.85.45,1.55.97,2.09,1.55.54.59.81,1.28.81,2.09,0,.72-.16,1.37-.47,1.95s-.75,1.07-1.32,1.49c-.56.41-1.24.73-2.02.96-.79.22-1.65.34-2.6.34-.87,0-1.64-.09-2.32-.26s-1.24-.42-1.7-.73c-.46-.32-.81-.7-1.05-1.14-.24-.44-.36-.93-.36-1.45,0-.41.06-.79.18-1.15.12-.36.3-.7.53-1.02.23-.32.52-.63.85-.91.34-.29.72-.56,1.16-.81-.31-.19-.62-.41-.91-.64-.29-.23-.55-.49-.78-.79s-.4-.61-.54-.97c-.13-.35-.2-.75-.2-1.18Zm4.03,6.66c0,.45.15.82.46,1.09.31.28.69.42,1.16.42s.84-.12,1.07-.37c.23-.25.35-.53.35-.85,0-.18-.04-.36-.11-.53-.08-.17-.19-.35-.35-.52-.16-.17-.37-.34-.64-.51-.27-.17-.59-.34-.97-.52-.29.23-.52.49-.7.79-.18.3-.27.63-.27.99Zm.45-7.2c0,.4.15.75.45,1.05.3.3.68.58,1.15.85.28-.24.5-.5.64-.77.14-.28.21-.59.21-.93,0-.4-.12-.73-.36-.99s-.55-.38-.92-.38-.68.11-.88.34-.29.5-.29.83Z"/><path class="cls-1" d="m31.06,9.45c0-1.26.17-2.39.51-3.39.34-1,.81-1.84,1.42-2.53.61-.69,1.33-1.21,2.18-1.57.85-.36,1.78-.54,2.8-.54s1.98.15,2.79.45c.81.3,1.49.76,2.05,1.39s.98,1.43,1.27,2.4c.29.97.44,2.11.44,3.43,0,1.25-.17,2.36-.51,3.35-.34.99-.81,1.83-1.42,2.51s-1.33,1.2-2.18,1.56c-.85.36-1.78.54-2.8.54s-1.98-.15-2.79-.45-1.49-.76-2.05-1.38c-.55-.62-.98-1.41-1.27-2.37-.29-.96-.44-2.09-.44-3.4Zm4.72-.23c0,.89.06,1.63.17,2.23s.27,1.07.46,1.44c.19.36.41.62.65.77.24.15.5.23.76.23s.52-.07.75-.21c.23-.14.44-.39.62-.75.18-.35.32-.82.43-1.4s.16-1.31.16-2.2-.06-1.66-.17-2.26c-.11-.6-.27-1.08-.46-1.45s-.41-.62-.65-.78-.49-.24-.76-.24-.52.07-.75.21c-.23.14-.44.39-.62.75-.18.35-.32.83-.43,1.42-.1.6-.16,1.35-.16,2.25Z"/><path class="cls-1" d="m46.02,5.92c0-.64.11-1.24.33-1.78.22-.54.52-1,.92-1.38.4-.38.87-.68,1.43-.9.55-.22,1.18-.33,1.87-.33,1.38,0,2.43.35,3.15,1.06s1.08,1.72,1.08,3.04c0,.65-.11,1.24-.33,1.78-.22.54-.52,1-.92,1.38-.4.38-.87.68-1.43.9-.55.22-1.18.33-1.87.33-1.38,0-2.43-.35-3.15-1.06s-1.08-1.72-1.08-3.04Zm3.37-.18c0,.74.1,1.24.29,1.52s.44.42.74.42c.28,0,.52-.13.71-.4.19-.27.28-.76.28-1.46s-.1-1.24-.3-1.52c-.2-.28-.45-.42-.73-.42s-.52.13-.71.4c-.19.27-.28.76-.28,1.46Zm9.58-3.42c.18-.3.37-.52.58-.66s.44-.21.67-.21c.3,0,.58.11.83.32.25.21.38.46.38.76,0,.31-.1.64-.31.97l-7.58,12.66c-.18.3-.38.52-.58.66-.21.14-.44.21-.67.21-.3,0-.58-.1-.83-.31s-.38-.46-.38-.76c0-.32.1-.64.31-.97l7.58-12.66Zm-1.17,10.5c0-.64.11-1.24.33-1.78s.52-1,.92-1.38c.4-.38.87-.68,1.43-.9.55-.22,1.18-.33,1.87-.33,1.38,0,2.43.35,3.15,1.06s1.08,1.72,1.08,3.04c0,.64-.11,1.24-.33,1.78-.22.54-.52,1-.92,1.38-.4.38-.87.68-1.43.9-.56.22-1.18.33-1.87.33-1.38,0-2.43-.35-3.15-1.06s-1.08-1.72-1.08-3.04Zm3.37-.18c0,.74.1,1.24.29,1.52.19.28.44.42.74.42.28,0,.52-.13.71-.41.19-.27.28-.76.28-1.46s-.1-1.24-.3-1.52c-.2-.28-.45-.42-.73-.42s-.52.14-.71.41c-.19.27-.28.76-.28,1.46Z"/><path class="cls-2" d="m27.44,25.02c.04-.46.15-.87.31-1.24.16-.37.37-.69.63-.95s.56-.47.91-.61c.35-.15.73-.22,1.14-.23.38,0,.71.05,1,.17.29.12.52.29.7.51.18.22.3.49.37.81.07.32.08.69.03,1.09-.06.44-.17.84-.33,1.19-.17.36-.38.67-.64.93-.26.26-.56.47-.9.62-.34.15-.71.24-1.11.26-.37.02-.69-.03-.97-.14-.28-.11-.51-.28-.69-.5-.18-.22-.31-.49-.39-.82-.08-.32-.1-.69-.06-1.1Zm1.59-.21c-.03.27-.03.51,0,.71.03.2.08.36.16.49.07.13.16.22.27.28.11.06.23.09.35.08.13,0,.25-.04.37-.11.12-.07.23-.16.33-.29.1-.13.18-.29.26-.49.07-.2.13-.43.16-.7.03-.28.03-.52,0-.72-.03-.2-.08-.37-.15-.5-.07-.13-.17-.23-.28-.29-.11-.06-.23-.09-.36-.09-.13,0-.26.04-.38.1-.12.06-.23.16-.33.29-.1.13-.18.3-.25.5-.07.2-.12.44-.15.72Z"/><path class="cls-2" d="m33.35,24.39s-.06,0-.1,0c-.29,0-.42-.13-.38-.43.02-.18.09-.33.19-.44.1-.11.23-.17.38-.17.02,0,.03,0,.05,0,0-.04,0-.07.01-.11.07-.51.27-.92.61-1.22.34-.3.82-.46,1.43-.47.17,0,.31.02.43.06.12.04.2.09.24.14.02.03.04.05.05.08.01.03.02.06.02.09,0,.03,0,.08,0,.13s-.01.11-.02.19c0,.02,0,.03,0,.05,0,.05-.01.09-.02.13,0,.04-.02.1-.03.18-.03.13-.08.23-.16.29-.08.06-.16.09-.26.09-.1,0-.18-.02-.24-.06-.06-.05-.1-.11-.11-.2-.02-.08-.02-.12-.04-.19,0,0-.02,0-.04,0,0,0-.02,0-.03,0-.02,0-.03,0-.05,0-.07,0-.13.03-.17.08-.04.06-.07.16-.08.33-.01.16-.02.24-.03.41.1,0,.15,0,.24,0,.29,0,.42.13.38.43-.03.19-.1.33-.2.44-.11.11-.25.16-.43.17-.05,0-.08,0-.14,0-.11.76-.16,1.14-.27,1.9.08.04.12.06.2.09.11.05.19.11.23.17.04.06.05.15.03.26-.02.14-.08.25-.17.35-.1.09-.22.14-.37.15-.61.03-.91.04-1.52.07-.15,0-.26-.03-.33-.12-.07-.08-.1-.2-.08-.34.02-.12.05-.21.1-.28.05-.06.14-.13.26-.19.08-.04.11-.06.19-.1.1-.77.15-1.15.25-1.91Z"/><path class="cls-2" d="m37.8,24.24s-.04-.02-.06-.04c-.11-.07-.18-.15-.21-.23-.03-.08-.04-.19-.02-.31.02-.12.07-.22.16-.3.09-.08.21-.12.35-.12.56-.01.84-.02,1.4-.03.14,0,.24.03.31.11.07.07.09.17.07.29-.02.12-.06.22-.13.3-.07.09-.16.17-.29.24-.02,0-.02.01-.04.02.03.4.05.6.08,1.01,0,.1.01.2.02.29,0,.09,0,.17,0,.24,0,.08,0,.16,0,.23,0,0,0,0,.01,0,.02-.07.04-.15.06-.23.02-.07.05-.15.07-.24.03-.09.06-.19.1-.29.17-.46.25-.69.43-1.14.12-.32.26-.55.42-.68.17-.13.39-.21.68-.21.29,0,.49.05.61.18.12.13.18.35.18.66,0,.45,0,.67.01,1.12,0,.1,0,.19,0,.28,0,.09,0,.17,0,.24,0,.08-.01.15-.02.22,0,0,0,0,.01,0,.02-.07.05-.15.08-.23.02-.07.05-.15.09-.24.04-.09.07-.18.12-.28.18-.4.27-.6.45-1-.01,0-.02-.01-.03-.02-.1-.07-.16-.14-.2-.22-.04-.08-.05-.18-.03-.3.02-.12.08-.21.17-.29.09-.08.21-.12.35-.12.42,0,.63-.02,1.06-.02.14,0,.24.03.31.11.06.07.09.17.06.28-.02.12-.07.22-.13.3-.06.08-.16.16-.3.23-.03.02-.04.02-.07.04-.42.82-.63,1.23-1.05,2.05-.14.28-.3.49-.47.62-.18.13-.42.2-.72.22-.3.01-.52-.04-.65-.16-.13-.12-.2-.32-.21-.6,0-.37,0-.56-.02-.93,0-.09,0-.18,0-.27,0-.09,0-.17.01-.24,0-.08.01-.17.02-.24,0,0,0,0-.02,0-.02.08-.04.17-.07.25-.02.07-.05.15-.08.25-.03.09-.06.19-.1.28-.14.37-.21.56-.35.94-.11.28-.25.49-.44.63-.19.13-.44.21-.74.22-.16,0-.3,0-.41-.03-.11-.03-.2-.07-.27-.13-.07-.06-.13-.14-.17-.24-.04-.1-.07-.22-.09-.36-.11-.83-.17-1.24-.29-2.08Z"/><path class="cls-2" d="m44.24,25.1c.06-.31.17-.6.32-.86.15-.26.34-.48.56-.66.23-.18.48-.33.78-.43.29-.11.61-.16.96-.16.63,0,1.08.15,1.34.47.26.32.33.76.21,1.33-.07.31-.18.6-.33.85-.15.26-.34.48-.57.66-.22.18-.48.33-.77.43-.29.11-.6.16-.94.17-.62,0-1.07-.15-1.33-.47s-.34-.76-.22-1.33Zm1.56-.16c-.03.16-.05.3-.04.42,0,.12.03.21.06.28.03.07.08.13.14.16.06.03.12.05.19.05.14,0,.28-.07.4-.21.13-.14.23-.37.3-.69.03-.16.05-.3.04-.42,0-.12-.03-.21-.06-.29-.03-.08-.08-.13-.14-.16-.06-.03-.12-.05-.19-.05-.14,0-.28.07-.41.21-.13.13-.23.37-.29.7Z"/><path class="cls-2" d="m49.37,24.08c-.06-.02-.09-.03-.15-.06-.12-.04-.19-.09-.23-.15-.04-.06-.04-.15-.01-.28.03-.13.08-.23.14-.3.07-.07.16-.13.28-.17.12-.04.27-.08.44-.11.18-.03.35-.05.51-.05.22,0,.37.04.44.12.07.08.08.23.03.44,0,.01,0,.02,0,.04,0,0,0,0,.01,0,.08-.12.18-.22.29-.31.1-.08.23-.15.38-.22.16-.07.34-.1.56-.11.34,0,.6.05.76.16.16.11.27.26.32.45.08-.12.19-.22.3-.31.1-.08.23-.15.39-.22.16-.07.35-.1.56-.11.46,0,.78.11.95.34.18.23.2.59.09,1.07-.14.57-.21.85-.35,1.41.05.03.07.04.12.07.1.06.16.12.19.18.03.06.03.14,0,.26-.03.13-.1.24-.2.33s-.23.13-.38.13c-.5,0-.76.01-1.26.02-.16,0-.27-.04-.33-.12-.07-.08-.08-.19-.05-.32.03-.11.06-.19.11-.25.05-.06.13-.13.24-.2.03-.02.05-.04.09-.06.11-.45.16-.68.27-1.13.05-.23.06-.39,0-.48-.05-.09-.14-.13-.27-.13-.07,0-.13.01-.18.04-.06.03-.11.05-.15.08-.05.04-.1.07-.14.12,0,0,0,.01,0,.03,0,.01,0,.03-.01.05,0,.02-.01.05-.02.07-.13.55-.19.82-.32,1.36.02.02.03.03.06.06.08.07.13.14.15.2.02.06.02.14,0,.25-.03.13-.1.24-.21.33-.1.09-.24.13-.39.13-.45,0-.67.01-1.12.02-.16,0-.27-.04-.34-.12-.07-.08-.08-.19-.05-.32.02-.11.06-.19.11-.25.05-.06.13-.13.24-.2.03-.02.05-.04.08-.06.1-.45.16-.68.26-1.13.05-.23.05-.39,0-.48-.05-.09-.14-.13-.27-.13-.07,0-.13.01-.18.04s-.11.05-.15.08c-.05.04-.1.07-.13.12-.14.61-.21.91-.34,1.52.02.02.03.03.06.06.08.07.13.14.15.2.02.06.02.14,0,.25-.03.13-.1.23-.2.32-.11.09-.24.13-.39.13-.52,0-.78.01-1.3.02-.15,0-.26-.04-.32-.12s-.08-.19-.05-.32c.02-.11.07-.2.13-.26.06-.06.15-.12.27-.17.08-.04.12-.05.2-.09.15-.69.23-1.04.38-1.73Z"/><path class="cls-2" d="m57.42,25.1c0,.2.05.35.17.44.12.09.29.13.52.13.12,0,.22,0,.31-.02.09-.01.17-.02.24-.04.07-.01.13-.03.18-.04.05-.01.09-.02.13-.02.1,0,.17.03.21.09.04.06.05.15.02.26-.02.08-.05.15-.09.2-.04.06-.09.11-.16.17-.11.09-.3.19-.55.29-.25.1-.58.15-.97.15-.31,0-.57-.03-.79-.11-.22-.08-.39-.2-.51-.35-.12-.16-.2-.34-.23-.56s0-.47.06-.74c.08-.32.2-.61.36-.87.16-.26.35-.48.56-.66.22-.18.46-.32.74-.42.27-.1.56-.15.86-.16.54,0,.91.12,1.12.39.21.27.25.64.12,1.11-.07.25-.17.44-.31.56-.14.12-.31.18-.5.18-.6,0-.91.01-1.51.02Zm.96-.75c.05-.21.05-.36,0-.44-.04-.08-.12-.13-.23-.12-.12,0-.22.05-.32.15-.1.1-.18.24-.25.42.32,0,.48,0,.8-.01Z"/><path class="cls-2" d="m60.7,23.9c-.06-.02-.09-.03-.15-.05-.11-.04-.19-.09-.22-.15-.03-.06-.04-.15,0-.28.03-.13.09-.23.15-.3.07-.07.16-.13.28-.17.12-.04.27-.08.45-.11.18-.03.35-.05.51-.05.22,0,.36.04.43.12.06.08.07.23.01.43,0,.01,0,.02-.01.04,0,0,0,0,.01,0,.09-.12.19-.22.31-.31.1-.08.23-.15.39-.22.16-.07.35-.1.56-.11.46,0,.77.1.93.32.17.23.18.57.04,1.04-.16.55-.24.83-.4,1.38.05.03.07.04.11.07.1.06.16.12.18.17.03.06.03.14,0,.25-.04.13-.11.24-.22.32s-.24.13-.39.14c-.5.02-.75.03-1.25.05-.16,0-.26-.03-.33-.11-.06-.08-.07-.18-.04-.32.03-.11.07-.19.12-.25.05-.06.13-.13.25-.2.03-.02.05-.04.09-.06.13-.45.19-.67.31-1.11.06-.22.07-.38.02-.47-.05-.09-.14-.13-.27-.13-.07,0-.13.02-.19.04-.06.03-.11.05-.16.08-.05.04-.1.07-.14.12-.17.6-.25.9-.42,1.5.02.02.03.03.05.06.07.07.12.13.14.19.02.06.01.14-.02.24-.04.13-.11.24-.22.32-.11.09-.24.13-.39.14-.52.02-.78.03-1.3.05-.15,0-.26-.03-.32-.11s-.07-.19-.04-.32c.03-.11.08-.2.14-.26.06-.06.16-.12.28-.18.08-.04.12-.06.2-.09.18-.69.28-1.03.46-1.72Z"/><path class="cls-2" d="m20.15,34.71c-.06-.03-.09-.04-.16-.06-.12-.05-.2-.11-.24-.17-.04-.07-.06-.17-.05-.32s.04-.26.09-.33c.05-.08.14-.14.25-.19.11-.05.25-.08.42-.12.17-.03.35-.05.54-.05.24,0,.4.06.5.18s.13.33.11.61c-.07.95-.1,1.43-.17,2.38.05.03.08.05.13.08.11.07.18.14.22.2.04.06.05.16.04.29-.01.15-.06.27-.15.36-.09.09-.2.14-.35.14-.56,0-.84,0-1.4.01-.15,0-.26-.04-.33-.14-.07-.09-.11-.21-.1-.36,0-.13.04-.22.08-.29.05-.07.13-.13.24-.19.07-.04.11-.06.18-.1.05-.78.08-1.16.13-1.94Zm.07-2.3c.02-.24.1-.44.25-.61.15-.17.35-.25.6-.25.24,0,.43.08.56.23.13.16.18.36.17.59-.02.24-.1.44-.26.61-.15.17-.35.25-.59.25-.24,0-.43-.07-.55-.23-.13-.16-.18-.35-.17-.6Z"/><path class="cls-2" d="m22.66,34.69c-.06-.03-.09-.04-.15-.06-.12-.05-.2-.11-.24-.17-.04-.07-.06-.17-.05-.32.01-.14.04-.26.1-.33s.14-.14.25-.19c.11-.05.25-.08.42-.12.17-.03.33-.05.49-.06.21-.02.35.02.43.11.08.09.11.25.09.48,0,.02,0,.02,0,.04,0,0,0,0,.01,0,.06-.14.14-.26.24-.36.08-.09.2-.18.33-.27.14-.08.31-.13.52-.15.43-.03.75.07.95.31.2.24.27.63.22,1.15-.06.62-.09.93-.15,1.56.05.03.07.04.12.07.1.06.17.12.21.18.04.06.05.15.04.28-.01.15-.06.27-.15.37s-.2.16-.34.17c-.47.05-.71.07-1.18.12-.15.02-.26-.02-.33-.1-.07-.08-.1-.2-.09-.35.01-.12.03-.22.07-.28.04-.07.1-.15.2-.24.03-.03.04-.04.07-.07.04-.5.06-.75.11-1.26.02-.25,0-.43-.06-.52-.06-.09-.15-.14-.28-.13-.06,0-.12.02-.17.06-.05.03-.09.07-.13.1-.04.04-.08.09-.11.14-.05.68-.08,1.01-.14,1.69.02.02.04.04.06.06.08.07.14.14.16.2.03.06.03.15.02.27-.01.15-.06.27-.15.37-.09.1-.21.16-.35.17-.49.05-.74.07-1.24.07-.15,0-.26-.04-.33-.14-.07-.09-.1-.21-.09-.36,0-.13.04-.22.09-.29.05-.07.13-.13.24-.19.07-.04.11-.06.18-.1.06-.78.09-1.16.14-1.94Z"/><path class="cls-2" d="m27.2,34.27s-.03,0-.05,0c-.28.02-.4-.12-.37-.42.02-.19.08-.34.17-.46.1-.12.22-.18.37-.19.02,0,.03,0,.05,0,.07-.21.11-.31.19-.51.09-.25.21-.43.34-.53.13-.1.29-.15.49-.17.15-.01.26.03.33.11s.1.21.08.37c-.03.25-.04.37-.07.62.14-.01.21-.02.34-.03.28-.02.4.12.37.41-.02.19-.08.34-.18.46-.1.11-.23.18-.4.19-.1,0-.14.01-.24.02-.06.51-.08.77-.14,1.28-.03.25-.02.42.02.5.04.08.1.12.2.11.05,0,.09-.01.13-.02.04-.01.07-.02.11-.02.08,0,.14.02.18.08.04.06.06.15.04.25-.01.1-.04.18-.08.25-.04.07-.09.14-.15.21-.06.07-.17.15-.32.24-.15.09-.35.15-.6.18-.37.04-.64-.05-.8-.26-.16-.21-.21-.57-.16-1.09.06-.64.1-.96.16-1.6Z"/><path class="cls-2" d="m30.89,35.22c.02.22.09.37.21.45.12.09.29.12.51.1.11-.01.21-.03.29-.05.08-.02.16-.04.22-.06.06-.02.12-.04.16-.05.05-.02.09-.03.12-.03.09,0,.17.02.21.08.05.06.06.15.05.27-.01.08-.03.16-.07.22-.03.06-.08.13-.13.19-.1.11-.26.22-.49.34-.23.12-.53.2-.9.24-.29.03-.54.01-.75-.05-.21-.07-.38-.18-.52-.33-.13-.15-.22-.35-.27-.58-.05-.23-.06-.49-.02-.79.04-.35.12-.66.24-.95.12-.29.27-.53.46-.74.19-.21.4-.37.65-.49.25-.12.51-.19.8-.22.51-.04.88.07,1.1.34.22.27.3.65.23,1.15-.04.27-.11.47-.23.6-.12.13-.27.21-.45.23-.57.05-.85.08-1.42.14Zm.83-.86c.02-.22,0-.38-.04-.46-.05-.09-.13-.12-.23-.11-.11,0-.2.07-.29.18-.08.11-.15.27-.19.46l.75-.07Z"/><path class="cls-2" d="m33.87,33.76c-.06-.02-.09-.03-.15-.05-.11-.04-.19-.08-.23-.14-.04-.06-.05-.16-.03-.29.02-.14.06-.24.12-.32.06-.08.14-.14.25-.19.11-.05.25-.1.41-.14.17-.04.33-.07.48-.08.21-.02.35.02.42.1.07.08.09.23.06.44,0,.06-.01.09-.02.16,0,0,0,0,.01,0,.05-.11.1-.21.17-.31.06-.1.14-.19.22-.27.08-.08.18-.15.28-.2.1-.05.22-.09.34-.1.16-.01.26.03.31.12.04.09.05.24.02.43-.02.15-.06.29-.11.41-.05.13-.1.24-.17.34-.06.1-.13.17-.2.23-.07.06-.14.09-.21.1-.04,0-.07,0-.1-.02-.03-.02-.05-.03-.07-.05-.02-.02-.04-.04-.06-.05-.02-.02-.05-.02-.09-.02-.09,0-.19.07-.3.18-.09.56-.13.84-.21,1.41.07.03.11.05.19.08.11.05.18.1.21.15s.04.14.02.25c-.02.14-.08.25-.17.35-.09.09-.21.15-.35.16-.58.06-.87.09-1.44.15-.14.02-.25-.02-.31-.1-.07-.08-.09-.19-.07-.33.02-.12.05-.21.1-.28.05-.07.14-.13.25-.2.07-.04.11-.07.18-.11.1-.73.16-1.09.26-1.82Z"/><path class="cls-2" d="m36.95,33.41s-.03-.02-.06-.03c-.1-.06-.17-.13-.2-.22-.03-.08-.04-.18-.02-.31.02-.12.07-.22.16-.3.09-.08.2-.13.33-.14.53-.04.8-.06,1.33-.11.13-.01.23.02.29.09.06.07.08.16.06.28-.02.12-.07.22-.13.31-.07.09-.16.17-.27.25-.02.01-.02.02-.04.03.06.42.08.63.14,1.06,0,.08.01.17.02.25s.02.15.02.22c0,.07,0,.14.01.21,0,0,0,0,.01,0,.02-.07.05-.14.08-.22.03-.07.06-.14.1-.23.04-.08.07-.17.12-.26.21-.45.31-.67.52-1.11-.01,0-.02-.01-.03-.02-.09-.06-.16-.13-.19-.21-.04-.08-.05-.18-.02-.29s.08-.22.16-.3c.09-.08.2-.13.33-.14.41-.03.62-.05,1.03-.08.13-.01.23.02.29.09.06.07.08.16.06.28-.02.12-.07.22-.13.31-.06.09-.16.17-.28.25-.03.02-.04.03-.07.04-.45.85-.67,1.27-1.11,2.12-.08.15-.15.28-.23.38-.08.11-.16.2-.26.27-.09.07-.2.13-.32.17-.12.04-.26.07-.41.08-.16.02-.29.02-.4,0-.11-.02-.19-.05-.26-.11-.07-.06-.12-.13-.17-.23-.04-.1-.07-.21-.1-.36-.15-.81-.23-1.21-.38-2.03Z"/><path class="cls-2" d="m41.54,33.09c-.06-.02-.09-.03-.14-.05-.11-.03-.18-.08-.22-.14-.04-.06-.04-.15-.02-.28.03-.13.07-.23.13-.31.06-.07.15-.14.26-.18.11-.05.25-.09.43-.13.17-.04.36-.05.55-.05.24,0,.4.05.48.16.08.11.1.29.05.54-.17.85-.26,1.28-.43,2.13.05.03.07.04.12.07.1.06.16.12.19.18.03.06.04.14.01.26-.03.13-.09.24-.19.33-.1.08-.22.13-.37.13-.56.01-.85,0-1.39.05-.14.02-.24-.01-.31-.09s-.08-.18-.05-.31c.02-.11.06-.2.11-.27.05-.06.14-.13.26-.19.07-.04.11-.06.18-.1.14-.7.2-1.04.34-1.74Zm.33-2.06c.04-.21.15-.4.32-.56.17-.16.38-.23.62-.24.24,0,.42.07.53.21.11.14.14.32.1.53-.04.21-.15.39-.32.55-.17.15-.38.23-.62.23-.24,0-.42-.06-.53-.19-.11-.13-.14-.31-.1-.52Z"/><path class="cls-2" d="m44.89,34.15c0,.2.06.35.18.44.12.09.29.13.51.13.12,0,.22,0,.3-.02.09-.01.16-.02.23-.04.07-.01.12-.03.17-.04.05-.01.09-.02.13-.02.1,0,.17.03.21.09.04.06.05.15.03.26-.02.08-.04.15-.08.2-.04.06-.09.11-.15.17-.11.1-.28.19-.52.29-.24.1-.55.15-.93.16-.3,0-.55-.03-.76-.11-.21-.08-.38-.2-.5-.35-.12-.16-.2-.34-.24-.56-.03-.22-.02-.47.03-.74.07-.32.17-.61.31-.87.14-.26.32-.48.52-.67.2-.18.44-.33.7-.43.26-.1.54-.15.83-.16.52,0,.89.12,1.09.39.21.27.26.64.16,1.11-.06.25-.15.44-.28.56-.13.12-.29.18-.48.19-.58.01-.88.02-1.46.03Zm.91-.75c.04-.21.03-.36-.01-.44-.04-.08-.12-.13-.23-.12-.11,0-.21.05-.3.16-.09.1-.17.24-.23.42.31,0,.46,0,.77-.01Z"/><path class="cls-2" d="m47.84,32.88s-.03-.02-.05-.04c-.1-.07-.17-.14-.19-.22-.03-.08-.03-.18,0-.3.03-.11.08-.21.18-.29.09-.08.21-.11.34-.12.54,0,.81-.01,1.35-.02.13,0,.23.03.29.11.06.07.08.17.05.28s-.08.21-.15.3c-.07.08-.17.16-.29.23-.02,0-.02.01-.04.02,0,.39,0,.59.02.98,0,.1,0,.19,0,.28,0,.09,0,.17-.01.24,0,.08-.01.16-.02.22,0,0,0,0,.01,0,.02-.07.04-.14.07-.22.02-.07.05-.15.09-.24.03-.09.07-.18.12-.28.19-.45.29-.67.48-1.11.13-.31.28-.53.45-.66.17-.13.39-.2.67-.2.28,0,.47.06.58.18.11.13.15.34.14.65-.02.44-.03.66-.05,1.11,0,.1-.01.19-.02.28s-.01.17-.02.24c0,.08-.02.15-.03.22,0,0,0,0,.01,0,.03-.07.06-.15.09-.23.03-.07.06-.15.1-.24.04-.09.08-.18.13-.27.2-.4.29-.6.49-.99-.01,0-.02-.01-.03-.02-.09-.07-.15-.14-.18-.22-.03-.08-.04-.18-.01-.29.03-.11.09-.21.18-.29.09-.08.21-.11.35-.12.41,0,.62-.01,1.03-.02.14,0,.23.03.29.11.06.07.07.17.04.28-.03.12-.08.22-.15.3-.07.08-.17.16-.3.23-.03.02-.04.02-.07.04-.45.82-.67,1.22-1.12,2.04-.15.28-.31.48-.49.6-.18.13-.41.19-.71.2-.29,0-.5-.05-.63-.17-.12-.12-.18-.32-.17-.59.01-.37.02-.55.04-.92,0-.09,0-.18.02-.27.01-.09.02-.17.02-.24,0-.08.02-.16.04-.24,0,0,0,0-.01,0-.02.08-.05.16-.08.25-.02.07-.06.15-.09.24-.03.09-.07.18-.11.27-.16.37-.24.55-.39.91-.12.28-.27.48-.46.61-.19.13-.44.19-.74.2-.16,0-.29,0-.39-.04-.1-.03-.19-.07-.26-.14-.07-.06-.12-.14-.15-.24-.03-.1-.05-.21-.06-.35-.06-.81-.09-1.21-.16-2.02Z"/><path class="cls-2" d="m55.42,33.97c0,.2.05.35.16.44.11.09.28.13.5.13.12,0,.22,0,.3-.02.09-.01.16-.02.23-.04.07-.01.12-.03.17-.04.05-.01.09-.02.13-.02.1,0,.17.03.2.08.04.06.04.14.02.25-.02.08-.05.15-.09.21-.04.06-.09.12-.16.18-.11.1-.29.19-.53.29-.25.1-.56.15-.94.16-.3,0-.55-.03-.76-.11-.21-.08-.37-.2-.49-.35-.12-.16-.19-.34-.21-.56-.03-.22,0-.47.06-.74.08-.32.2-.61.35-.87.15-.26.34-.48.55-.66.21-.18.45-.32.71-.42.26-.1.54-.15.84-.16.52,0,.88.12,1.08.39.2.27.23.62.1,1.09-.07.25-.17.44-.3.57-.13.13-.29.19-.48.19-.58.01-.88.02-1.46.03Zm.94-.75c.05-.21.05-.36,0-.44-.04-.08-.11-.12-.22-.12-.11,0-.22.05-.31.15-.1.1-.18.24-.25.42.31,0,.46,0,.77-.01Z"/><path class="cls-2" d="m60.98,30.99c-.06-.02-.09-.03-.16-.05-.11-.03-.18-.08-.21-.13-.03-.06-.03-.15,0-.27.03-.12.08-.22.15-.29.07-.07.16-.13.28-.17.12-.05.26-.09.44-.12.18-.04.36-.06.55-.07.24-.01.39.03.46.13.07.1.07.28,0,.52-.42,1.42-.63,2.14-1.04,3.56.05.01.07.02.12.03.11.03.17.07.2.12.02.05.02.14-.02.27-.04.12-.09.22-.15.29-.07.07-.16.14-.28.19-.12.05-.26.1-.43.14-.17.04-.31.07-.42.08-.21.02-.34-.01-.41-.09-.06-.08-.07-.22,0-.42,0-.01,0-.02.01-.04,0,0,0,0-.01,0-.08.13-.18.24-.3.33-.1.08-.22.16-.37.24s-.32.12-.53.14c-.43.04-.72-.07-.89-.34-.17-.27-.17-.7-.01-1.3.09-.33.21-.63.37-.9.16-.27.35-.5.57-.69.22-.19.47-.34.75-.46s.59-.18.92-.2c.04,0,.07,0,.1,0,.03,0,.06,0,.08,0,.03,0,.05,0,.07,0,0,0,.01,0,.02-.02,0-.03.01-.07.02-.11,0-.04.02-.07.03-.11.03-.11.05-.16.08-.27Zm-.44,1.51s-.04,0-.06,0c-.02,0-.04,0-.07,0-.03,0-.06,0-.09,0-.19.01-.36.1-.5.24-.14.15-.26.4-.36.74-.08.3-.1.51-.05.62.05.11.14.16.26.15.06,0,.12-.02.17-.05.05-.03.1-.06.15-.09.05-.04.1-.08.13-.12.17-.59.25-.89.42-1.48Z"/><path class="cls-2" d="m25.12,42.51s-.07-.02-.11-.03c-.11-.03-.18-.08-.22-.15-.04-.07-.05-.17-.04-.31.01-.14.05-.26.1-.34.05-.08.13-.15.24-.21.1-.06.24-.11.4-.16.16-.05.32-.09.47-.11.22-.03.38.01.46.12.09.11.12.3.09.58-.03.25-.04.37-.06.62-.01.12-.03.26-.05.4-.02.14-.05.29-.09.42,0,0,0,0,.01,0,.06-.1.14-.19.23-.28.08-.07.18-.15.29-.22.12-.07.25-.12.42-.14.41-.06.71.03.89.25.18.23.24.6.18,1.11-.07.61-.1.92-.17,1.53.04.02.07.04.11.06.09.05.16.11.19.16.03.06.04.15.03.27-.02.14-.07.27-.15.37-.08.1-.19.17-.33.19-.45.08-.67.12-1.12.19-.14.02-.24,0-.31-.08-.07-.08-.09-.19-.08-.34.01-.12.04-.21.07-.28.04-.07.1-.15.19-.25.03-.03.04-.04.07-.07.05-.49.08-.74.13-1.23.03-.25.01-.42-.05-.51-.06-.09-.14-.13-.26-.11-.06,0-.11.03-.16.06-.05.03-.09.07-.13.11-.04.04-.08.09-.11.14-.07.66-.1,1-.17,1.66.02.02.03.03.06.05.08.07.13.13.15.19.02.06.03.15.02.27-.01.14-.06.27-.15.37-.08.1-.2.17-.34.19-.45.08-.67.12-1.12.19-.13.02-.23,0-.3-.08-.07-.08-.09-.19-.08-.34.01-.12.04-.22.09-.29.05-.07.12-.15.23-.24.05-.04.08-.06.13-.1.13-1.46.2-2.2.34-3.66Z"/><path class="cls-2" d="m30.9,43.75c.02-.16,0-.28-.06-.35s-.18-.09-.37-.06c-.13.02-.25.05-.35.08-.1.03-.19.07-.26.1-.08.03-.14.06-.2.09-.06.03-.12.05-.17.05-.1.01-.17-.01-.22-.09s-.07-.17-.05-.28c.02-.13.07-.26.16-.37.05-.06.12-.13.22-.2.1-.08.22-.15.35-.22.14-.07.29-.13.47-.19.18-.06.37-.1.58-.13.51-.07.86,0,1.06.21.19.21.26.52.21.93-.04.26-.08.52-.12.77-.04.26-.07.53-.1.83.05.01.07.02.12.03.1.02.17.06.2.12.03.05.03.15.01.28-.02.13-.05.24-.11.32-.05.08-.13.16-.24.22-.11.06-.24.12-.39.18-.15.05-.29.09-.41.11-.19.03-.32,0-.39-.07-.07-.08-.1-.21-.07-.4,0-.01,0-.02,0-.03,0,0,0,0-.01,0-.06.12-.14.24-.24.34-.08.09-.19.18-.32.26-.13.08-.28.14-.46.17-.17.03-.32.02-.45-.01-.13-.04-.24-.11-.32-.21-.08-.1-.14-.22-.18-.37-.03-.15-.04-.31-.02-.49.02-.15.07-.31.14-.46.08-.15.18-.29.32-.42.14-.13.31-.24.51-.34.2-.1.45-.17.72-.21.06,0,.11-.02.16-.02.05,0,.09,0,.13,0,.04,0,.08,0,.12,0,0-.06.01-.09.02-.14Zm-.13.92s-.04,0-.06,0c-.02,0-.05,0-.08,0-.03,0-.07,0-.1.01-.12.02-.22.06-.28.11-.06.05-.1.12-.11.21-.01.08,0,.15.05.2.04.05.1.07.18.05.06,0,.11-.03.15-.05.04-.03.08-.05.11-.08.04-.03.07-.07.1-.11.02-.13.03-.2.04-.33Z"/><path class="cls-2" d="m32.91,42.97s-.03-.02-.05-.03c-.1-.06-.16-.13-.19-.21-.03-.08-.04-.18-.02-.31.02-.12.07-.23.15-.31.08-.09.19-.14.31-.16.5-.07.76-.11,1.26-.18.13-.02.22,0,.28.07.06.07.08.16.06.28-.02.12-.06.22-.12.32-.06.09-.15.18-.26.27-.01.01-.02.02-.04.03.06.42.08.63.14,1.06,0,.08.01.17.02.25s.02.15.02.22c0,.07,0,.14.01.21,0,0,0,0,.01,0,.02-.07.05-.14.08-.22.03-.07.06-.15.09-.23.03-.09.07-.18.11-.27.19-.46.29-.69.48-1.15-.01,0-.02-.01-.03-.02-.09-.06-.15-.12-.18-.2-.04-.08-.04-.18-.03-.29.02-.12.07-.22.15-.31.08-.09.19-.14.31-.16.39-.06.59-.08.98-.14.13-.02.22,0,.28.07.06.07.08.16.06.28-.02.12-.06.23-.12.32-.06.09-.15.18-.26.27-.03.02-.04.03-.06.05-.42.88-.62,1.32-1.03,2.2-.07.16-.14.29-.22.4s-.15.21-.24.29c-.09.08-.19.14-.3.19-.11.05-.24.08-.39.11-.15.03-.28.03-.38.02-.1-.01-.18-.04-.25-.1-.07-.05-.12-.13-.16-.22-.04-.09-.07-.21-.1-.35-.15-.8-.22-1.21-.38-2.02Z"/><path class="cls-2" d="m37.88,43.43c0,.2.06.34.17.41.11.07.27.09.47.06.11-.02.2-.04.28-.06.08-.02.15-.05.21-.07.06-.02.11-.04.16-.06.04-.02.08-.03.12-.03.09-.01.15,0,.19.06.04.06.05.14.03.25-.02.08-.04.15-.08.21-.03.06-.08.12-.14.19-.1.11-.26.23-.48.35-.22.13-.51.22-.85.28-.27.05-.51.05-.7,0-.2-.05-.35-.14-.47-.28-.12-.14-.19-.31-.23-.52-.03-.21-.03-.46.02-.74.06-.33.15-.63.28-.91.13-.28.29-.52.48-.73s.4-.37.64-.5c.24-.13.5-.21.77-.25.48-.07.82.02,1.02.25.19.24.24.59.15,1.07-.05.25-.13.45-.25.58-.12.13-.27.22-.44.24-.54.09-.81.13-1.35.22Zm.83-.86c.03-.21.03-.36-.02-.43-.04-.08-.11-.11-.21-.09-.1.02-.2.08-.28.19-.08.11-.15.26-.21.45.28-.04.43-.07.71-.11Z"/><path class="cls-2" d="m42.42,41.86s-.06,0-.09,0c-.27,0-.38-.13-.32-.41.04-.17.1-.31.21-.41.1-.1.23-.16.36-.16.02,0,.03,0,.05,0,0-.04.01-.06.02-.1.1-.48.32-.86.66-1.15.34-.29.79-.44,1.36-.45.16,0,.29.01.4.05.11.04.18.08.22.14.02.02.03.05.04.07,0,.02.01.05.02.08,0,.03,0,.07-.01.12s-.02.11-.03.18c0,.02,0,.03-.01.05,0,.04-.02.09-.03.13,0,.04-.02.1-.04.17-.04.13-.09.22-.17.27-.07.05-.16.08-.25.08-.09,0-.17-.02-.22-.06-.05-.04-.08-.11-.09-.19,0-.07-.01-.11-.02-.18,0,0-.02,0-.03,0,0,0-.02,0-.03,0-.01,0-.03,0-.05,0-.07,0-.12.03-.17.08-.04.05-.08.16-.1.31-.02.15-.04.23-.06.39.09,0,.14,0,.23,0,.27,0,.38.13.32.41-.04.18-.11.32-.22.42-.11.1-.25.15-.41.16-.05,0-.08,0-.13,0-.15.72-.23,1.08-.39,1.8.07.04.11.05.18.09.1.05.17.11.2.16.03.06.03.14,0,.25-.03.13-.09.24-.19.33-.1.09-.21.13-.36.13-.57.01-.86.02-1.43.03-.14,0-.24-.04-.3-.12-.06-.08-.08-.19-.05-.32.02-.11.06-.2.12-.26.05-.06.14-.12.26-.17.07-.04.11-.05.18-.09.15-.72.22-1.08.37-1.8Z"/><path class="cls-2" d="m46.63,42.21c.03-.15.02-.27-.03-.34-.06-.07-.18-.1-.37-.1-.14,0-.26.01-.37.03-.11.02-.2.04-.28.06-.08.02-.15.04-.22.06s-.12.03-.18.03c-.1,0-.18-.03-.22-.11s-.06-.17-.03-.28c.03-.12.09-.23.2-.33.06-.05.14-.11.24-.17.11-.06.23-.12.38-.17.15-.05.31-.09.5-.13.19-.04.39-.06.6-.06.53-.01.89.1,1.07.32.18.22.23.53.14.92-.06.25-.12.49-.18.73-.06.24-.12.5-.17.78.05.02.07.02.12.04.11.04.17.08.2.14.03.06.02.15,0,.28-.03.12-.07.22-.13.29-.06.07-.15.13-.27.18-.12.05-.25.09-.42.12-.16.03-.31.05-.43.05-.2,0-.33-.04-.4-.12-.07-.09-.08-.22-.04-.39,0-.01,0-.02,0-.03,0,0,0,0-.01,0-.07.11-.16.21-.27.29-.09.08-.21.14-.35.21-.14.06-.3.1-.49.1-.18,0-.34-.02-.47-.08-.13-.06-.24-.14-.32-.24-.08-.1-.13-.23-.15-.37-.02-.14-.02-.3.02-.47.03-.14.09-.28.18-.42.09-.13.21-.25.36-.36.15-.1.34-.19.55-.25.22-.07.47-.1.76-.11.06,0,.12,0,.17,0,.05,0,.09,0,.13,0,.04,0,.08,0,.12.01.01-.05.02-.08.03-.14Zm-.21.86s-.04,0-.06-.01c-.02,0-.05,0-.08,0-.03,0-.07,0-.11,0-.13,0-.23.03-.3.07-.07.04-.11.1-.13.18-.02.08,0,.14.03.19.04.05.1.08.18.07.06,0,.12-.01.16-.03.05-.02.09-.04.12-.07.04-.03.08-.06.11-.09.03-.12.04-.19.07-.31Z"/><path class="cls-2" d="m50.81,41.64s-.01,0-.02,0c0,0-.02,0-.04,0-.02,0-.03,0-.05,0-.14,0-.27.07-.41.22-.13.14-.24.37-.31.7-.08.33-.08.57.01.72.09.15.25.22.5.21.07,0,.13,0,.18-.02.05,0,.09-.02.12-.03.03-.01.07-.02.1-.03.03,0,.06-.01.1-.01.09,0,.16.03.2.09.04.06.05.15.02.26-.04.15-.12.29-.25.4-.04.04-.09.08-.16.12-.07.05-.15.09-.24.13-.1.04-.21.07-.33.1-.13.03-.27.04-.43.05-.54.01-.91-.14-1.12-.44-.21-.3-.25-.73-.12-1.29.08-.33.19-.62.34-.89.15-.27.33-.49.54-.68.21-.19.45-.33.72-.43.27-.1.55-.16.86-.16.2,0,.37.01.49.06.13.04.22.1.27.17.04.06.06.13.06.2,0,.07-.02.18-.06.34,0,.03,0,.04-.02.07-.02.07-.03.13-.05.19-.01.06-.04.15-.07.27-.04.14-.1.25-.18.31-.08.07-.17.1-.27.1-.11,0-.19-.02-.24-.08-.05-.06-.08-.15-.1-.27-.01-.14-.02-.21-.03-.35Z"/><path class="cls-2" d="m53.16,42.84c0,.2.04.35.15.44.11.09.27.13.48.13.11,0,.21-.01.29-.02.09-.01.16-.03.22-.04.06-.01.12-.03.17-.04.05-.01.09-.02.12-.02.09,0,.16.02.19.08.04.06.04.14.01.25-.02.08-.05.15-.09.21-.04.06-.09.12-.15.18-.11.1-.28.2-.52.29-.24.1-.54.15-.91.16-.29,0-.53-.03-.73-.11-.2-.08-.36-.2-.47-.35-.11-.15-.18-.34-.2-.56-.02-.22,0-.46.07-.74.08-.32.19-.61.35-.87.15-.26.33-.48.54-.67.21-.18.44-.33.69-.43.26-.1.52-.15.81-.16.5-.01.85.12,1.04.38.19.27.21.61.08,1.08-.07.25-.16.44-.29.57-.13.13-.28.2-.47.2-.56.01-.84.02-1.41.03Zm.91-.75c.05-.21.05-.36.01-.44-.04-.08-.11-.12-.21-.12-.11,0-.21.05-.3.16-.09.1-.17.24-.24.42.3,0,.45,0,.74-.02Z"/><path class="cls-2" d="m58.51,39.72c-.06-.02-.09-.02-.15-.04-.1-.03-.17-.07-.2-.12-.03-.06-.03-.14,0-.27.03-.12.08-.22.15-.29.07-.07.15-.13.27-.18.11-.05.25-.1.42-.14.17-.04.34-.08.52-.1.22-.02.37.01.44.11s.07.27,0,.51c-.42,1.42-.63,2.14-1.04,3.56.05.01.07.02.12.03.1.02.16.06.18.11.02.05.02.14-.02.26-.04.12-.09.22-.15.29-.06.08-.15.14-.27.2-.11.06-.25.11-.41.16-.16.05-.29.08-.4.1-.2.03-.32,0-.38-.07-.06-.07-.06-.21,0-.41,0-.01,0-.02.01-.04,0,0,0,0-.01,0-.08.13-.18.24-.29.34-.09.09-.21.17-.35.25s-.31.13-.5.16c-.41.06-.68-.04-.84-.29-.15-.25-.15-.68,0-1.28.09-.33.21-.63.36-.9.15-.27.34-.51.55-.71.21-.2.45-.36.72-.48.27-.12.56-.2.87-.24.04,0,.07,0,.1,0,.03,0,.06,0,.08,0,.02,0,.05,0,.07,0,0,0,.01,0,.02-.02,0-.03.01-.07.02-.1,0-.04.02-.07.03-.11.03-.11.05-.16.08-.27Zm-.44,1.51s-.03,0-.05,0c-.02,0-.04,0-.07,0-.03,0-.05,0-.09,0-.19.02-.35.11-.48.26-.14.15-.25.4-.35.75-.08.3-.1.51-.06.61.05.11.13.15.24.14.06,0,.11-.03.17-.06.05-.03.1-.06.14-.1.05-.04.09-.08.13-.13.17-.59.25-.89.42-1.48Z"/><path class="cls-2" d="m4.02,52.88c-.06-.03-.1-.04-.16-.06-.11-.04-.19-.1-.23-.17s-.07-.17-.07-.31c0-.14.02-.24.07-.32.05-.08.12-.14.22-.18.1-.04.23-.08.39-.11.16-.03.33-.05.51-.05.22,0,.38.06.48.18.1.12.14.32.14.6-.03,1.63-.04,2.44-.06,4.06.05.02.08.03.13.05.11.04.18.1.22.16.04.06.05.17.05.31,0,.14-.03.25-.07.33-.04.08-.12.15-.22.2-.1.05-.23.09-.38.12-.15.03-.28.05-.39.05-.19,0-.33-.05-.41-.14-.08-.1-.12-.26-.12-.49,0-.02,0-.02,0-.04,0,0,0,0-.01,0-.05.14-.12.26-.2.36-.07.09-.17.17-.29.24s-.28.11-.47.11c-.4,0-.72-.16-.94-.48-.23-.32-.34-.81-.34-1.49,0-.37.04-.7.12-.99.08-.29.21-.54.37-.74.16-.2.37-.36.61-.47.24-.11.52-.16.83-.17.03,0,.07,0,.1,0,.03,0,.06,0,.08.01.03,0,.05,0,.07,0,0,0,0,0,.01-.02,0-.04,0-.08,0-.12,0-.04,0-.08,0-.13,0-.12,0-.18,0-.31Zm-.03,1.71s-.04-.01-.06-.02c-.02,0-.04,0-.07-.01-.03,0-.06,0-.09,0-.18,0-.32.08-.42.24-.1.16-.15.43-.15.83,0,.34.04.58.11.71.08.13.17.2.29.2.06,0,.11-.01.15-.04.05-.03.08-.06.12-.09.04-.04.07-.08.1-.13,0-.67,0-1,.02-1.67Z"/><path class="cls-2" d="m5.97,55.72c0-.35.06-.66.15-.95.09-.29.23-.53.4-.73.17-.2.38-.36.63-.47.25-.11.52-.17.83-.18.57,0,.99.17,1.28.53.28.36.42.85.39,1.48-.01.35-.07.66-.17.95-.1.29-.23.53-.4.73-.17.2-.38.36-.62.47-.24.11-.51.17-.82.18-.55,0-.97-.17-1.26-.53-.29-.36-.42-.85-.41-1.48Zm1.37-.17c0,.18,0,.34.03.47.02.13.06.24.1.32.04.08.09.14.15.18.06.04.12.06.18.06.13,0,.24-.08.33-.23.09-.15.15-.41.16-.77,0-.18,0-.34-.03-.47-.02-.13-.06-.24-.1-.32s-.09-.15-.15-.18c-.06-.04-.12-.06-.18-.06-.13,0-.24.08-.33.23-.09.15-.14.41-.15.78Z"/><path class="cls-2" d="m10.3,54.62s-.07-.03-.11-.05c-.11-.05-.18-.11-.22-.18-.04-.07-.06-.18-.05-.32,0-.14.03-.25.08-.33s.12-.14.22-.18c.1-.04.23-.08.39-.11.16-.03.31-.05.47-.05.22,0,.38.06.47.18.09.12.13.32.12.61-.03.64-.04.96-.07,1.61-.01.25.01.43.08.53.06.1.15.15.26.15.06,0,.11-.01.16-.04.05-.03.09-.06.12-.09.04-.04.07-.08.1-.13.03-.64.05-.95.08-1.59-.06-.03-.09-.04-.15-.07-.11-.05-.18-.11-.23-.17-.04-.07-.06-.17-.05-.31,0-.14.03-.25.08-.33.05-.08.12-.14.23-.18.1-.04.23-.08.39-.11.16-.03.33-.05.5-.05.22,0,.37.06.47.18.09.12.13.32.11.61-.05.92-.07,1.38-.12,2.3.05.02.07.03.12.05.11.04.18.1.21.16.03.06.05.17.04.31,0,.14-.04.25-.08.33-.05.08-.12.15-.23.2-.1.05-.23.09-.38.12-.15.03-.28.05-.39.05-.2,0-.33-.05-.41-.14-.08-.1-.11-.26-.1-.49,0-.02,0-.02,0-.04,0,0,0,0-.01,0-.05.14-.13.26-.21.36-.08.09-.18.17-.3.24s-.28.11-.47.11c-.4,0-.7-.13-.89-.39-.19-.26-.28-.66-.26-1.19.02-.6.03-.9.06-1.5Z"/><path class="cls-2" d="m14.63,52.83s-.07-.03-.11-.05c-.11-.05-.18-.11-.22-.18-.04-.07-.06-.18-.05-.32,0-.14.04-.26.09-.33s.13-.14.23-.18c.1-.04.23-.08.39-.12.16-.03.32-.05.47-.05.22,0,.38.06.47.18.09.12.13.32.11.6-.02.25-.02.38-.04.64,0,.13-.02.26-.04.41-.02.15-.04.29-.07.42,0,0,0,0,.01,0,.06-.09.13-.18.22-.26.08-.07.17-.13.29-.18.12-.06.26-.08.42-.09.41,0,.72.16.93.48.21.32.29.82.24,1.49-.03.38-.09.72-.2,1.01-.1.29-.25.54-.43.74-.18.21-.4.36-.66.47-.26.11-.55.16-.89.16-.25,0-.47-.02-.66-.06-.18-.04-.32-.1-.42-.16-.12-.08-.2-.18-.25-.28-.05-.11-.07-.26-.06-.46.09-1.55.14-2.33.23-3.89Zm1.11,3.64s.05.02.07.03c.02,0,.05.02.09.02.04,0,.08,0,.12,0,.15,0,.27-.08.38-.23.1-.15.17-.43.19-.83.02-.34,0-.57-.07-.7-.07-.13-.16-.2-.28-.2-.06,0-.11.01-.16.04-.05.03-.09.06-.12.09-.04.04-.08.08-.1.13-.04.65-.06.98-.1,1.63Z"/><path class="cls-2" d="m18.81,52.8s-.07-.03-.11-.05c-.11-.05-.18-.11-.22-.18-.04-.07-.05-.18-.04-.32.01-.14.04-.26.09-.33s.13-.14.23-.18.23-.08.39-.12c.16-.03.32-.05.47-.05.22,0,.38.06.46.18.09.12.12.33.1.61-.14,1.65-.21,2.48-.34,4.13.05.03.07.05.11.08.1.07.16.14.2.2.03.06.05.16.04.29-.01.15-.06.27-.14.36-.08.09-.19.14-.33.14-.5,0-.75,0-1.25,0-.13,0-.24-.04-.3-.14-.07-.09-.1-.21-.08-.36,0-.13.04-.22.08-.29.05-.07.12-.13.23-.21.05-.03.08-.05.13-.08.11-1.48.17-2.22.28-3.7Z"/><path class="cls-2" d="m21.86,55.74c.02.22.08.36.19.44.11.07.26.09.45.04.1-.02.19-.05.26-.08.07-.03.14-.06.19-.09.06-.03.1-.05.14-.07.04-.02.08-.04.11-.04.08-.02.15,0,.19.06.04.06.06.15.04.27,0,.09-.03.16-.06.23-.03.07-.07.14-.12.21-.09.12-.23.26-.43.41-.2.15-.46.27-.79.35-.26.06-.46.12-.67.03-.2-.09-.37-.22-.5-.4-.13-.17-.22-.38-.27-.63-.05-.24-.07-.52-.04-.83.03-.36.1-.68.21-.97.11-.29.25-.53.42-.74.17-.2.38-.32.6-.48.22-.15.46-.26.71-.31.45-.1.78-.02.98.23.2.25.27.63.22,1.15-.03.28-.1.49-.2.64-.1.15-.24.25-.4.29-.5.12-.76.18-1.26.3Zm.72-.97c.02-.23,0-.39-.05-.47-.05-.08-.11-.11-.21-.09-.1.02-.18.1-.25.22-.07.13-.13.29-.16.49.27-.06.4-.09.67-.15Z"/><path class="cls-2" d="m26.15,55.44s.07.01.11.01c.03,0,.08,0,.13,0,.05,0,.11-.01.17-.03.13-.03.21-.07.26-.13.05-.05.08-.11.09-.18.01-.08-.02-.14-.08-.18-.07-.03-.15-.06-.26-.07-.1-.02-.22-.04-.34-.06-.12-.02-.23-.07-.33-.14-.1-.07-.18-.17-.23-.3-.06-.13-.07-.31-.04-.54.02-.2.08-.39.16-.58.08-.19.19-.36.33-.51.14-.15.32-.28.53-.4.21-.11.46-.2.75-.27.25-.05.45-.07.59-.05.14.02.23.06.28.12.03.04.05.1.07.15.01.06,0,.14,0,.25,0,.01,0,.02,0,.03,0,.06-.02.11-.02.15,0,.04-.02.1-.03.16-.02.12-.07.21-.13.28-.06.07-.14.12-.24.14-.1.02-.17.02-.22-.02-.05-.04-.08-.09-.09-.17,0-.04,0-.06-.02-.1-.03,0-.07,0-.11,0-.03,0-.07,0-.12,0s-.1,0-.15.02c-.11.03-.19.06-.24.11-.05.05-.07.11-.08.18-.01.08.02.13.09.16.07.03.16.05.26.06.11.01.22.03.34.06.12.02.23.07.33.14.1.07.17.17.23.3.05.13.06.31.03.54-.03.2-.09.39-.17.58-.08.19-.2.36-.35.52-.15.16-.32.3-.54.42-.21.12-.46.22-.75.29-.25.06-.45.09-.59.07-.14-.02-.23-.06-.28-.12-.03-.04-.06-.1-.07-.15-.01-.06-.01-.15,0-.26,0-.01,0-.02,0-.03,0-.06.01-.11.02-.15,0-.04.01-.09.02-.14.03-.14.07-.25.13-.32.06-.07.14-.12.23-.14.1-.02.17-.02.22.02.05.03.08.09.09.17,0,.04.01.07.02.11Z"/><path class="cls-2" d="m28.98,52.82s-.03,0-.05.01c-.25.06-.35-.06-.3-.36.03-.18.09-.34.18-.46.09-.12.21-.2.34-.23.02,0,.03,0,.04,0,.08-.21.12-.31.19-.51.1-.25.21-.43.33-.54.12-.11.27-.18.44-.22.13-.03.23,0,.29.07.06.07.07.19.05.34-.04.24-.06.36-.1.6.12-.03.18-.04.3-.07.25-.05.35.06.3.35-.03.19-.09.34-.19.46-.1.12-.22.2-.37.23-.08.02-.13.03-.21.05-.08.5-.12.74-.2,1.24-.04.24-.04.4-.02.48.03.08.08.1.17.08.04-.01.08-.02.11-.04.03-.02.07-.03.1-.03.07-.02.12,0,.15.06.03.05.04.13.02.24-.02.09-.04.18-.08.25-.04.07-.09.15-.14.22-.06.07-.15.16-.29.27-.14.11-.32.19-.54.24-.33.08-.56.03-.69-.15-.13-.18-.15-.52-.08-1.02.09-.62.14-.93.23-1.55Z"/><path class="cls-2" d="m32.93,52.37c.03-.16.02-.27-.04-.33-.05-.06-.17-.07-.34-.03-.12.03-.24.06-.33.1-.1.04-.18.08-.25.11-.07.03-.14.07-.19.1-.06.03-.11.05-.16.06-.09.02-.16,0-.2-.07-.04-.07-.06-.16-.04-.27.02-.13.08-.25.17-.36.05-.06.12-.13.22-.21.1-.08.21-.16.34-.23.13-.08.28-.15.45-.22.17-.07.35-.12.54-.17.48-.1.8-.06.97.13.17.19.22.48.14.88-.05.25-.1.5-.15.75-.05.25-.1.51-.14.8.04,0,.07,0,.11.02.09.02.16.05.18.1.02.05.02.14,0,.27-.02.13-.06.23-.12.31-.05.08-.13.16-.24.23-.1.07-.23.13-.37.2-.14.06-.27.11-.39.14-.18.04-.3.03-.36-.04-.06-.07-.08-.2-.04-.37,0-.01,0-.02,0-.03,0,0,0,0-.01,0-.06.12-.14.24-.24.34-.08.09-.18.18-.31.27-.12.09-.27.15-.43.2-.16.04-.3.05-.42.02-.12-.03-.22-.09-.29-.18-.07-.09-.12-.2-.14-.34-.02-.14-.02-.3,0-.47.02-.15.08-.3.16-.45.08-.15.18-.29.32-.43.13-.13.3-.25.49-.36.19-.11.42-.19.68-.25.06-.01.11-.02.15-.03.04,0,.08-.01.12-.02.04,0,.08,0,.11-.01.01-.06.02-.08.03-.14Zm-.17.89s-.04,0-.06,0c-.02,0-.04,0-.07,0-.03,0-.06.01-.1.02-.12.03-.2.07-.27.13s-.1.13-.11.21c-.01.08,0,.14.03.19.04.04.09.06.16.04.06-.01.1-.03.14-.06.04-.03.08-.06.11-.09.04-.03.07-.07.1-.11.02-.13.04-.19.06-.32Z"/><path class="cls-2" d="m35.17,51.49c-.05-.01-.08-.02-.13-.03-.1-.02-.16-.06-.19-.11-.03-.05-.03-.14,0-.27.03-.13.07-.24.12-.32.06-.08.14-.15.24-.21s.23-.12.38-.18c.15-.06.29-.1.43-.13.19-.04.31-.02.36.05.06.07.06.21.02.42,0,.01,0,.02,0,.04,0,0,0,0,.01,0,.07-.13.16-.25.25-.35.09-.09.19-.19.33-.28.13-.09.29-.16.47-.2.39-.08.65-.03.79.16.14.19.17.58.06,1.05-.13.56-.19.84-.32,1.4.04.03.06.04.1.07.09.06.14.12.17.18.03.06.03.14,0,.26-.03.13-.09.24-.19.33-.09.09-.21.13-.34.13-.45.01-.64.11-1.06.21-.13.03-.22.02-.27-.05-.05-.07-.06-.17-.03-.3.02-.11.06-.2.1-.26.04-.07.11-.15.2-.24.03-.03.04-.04.07-.07.1-.45.15-.68.25-1.13.05-.23.05-.38.01-.46-.04-.08-.12-.1-.23-.08-.06.01-.11.04-.16.07s-.09.07-.13.11c-.04.04-.08.09-.12.14-.13.61-.2.92-.33,1.53.02.02.03.03.05.04.06.05.1.11.12.16.01.05.01.13-.01.24-.03.13-.09.25-.18.35-.09.1-.2.17-.33.2-.43.11-.65.16-1.08.27-.13.03-.21.01-.27-.05s-.06-.17-.04-.3c.02-.11.06-.21.11-.28.05-.07.13-.14.23-.22.07-.05.1-.08.17-.13.14-.7.21-1.06.36-1.76Z"/><path class="cls-2" d="m41.57,49.16c-.06-.02-.09-.03-.15-.05-.1-.04-.17-.08-.2-.14-.03-.06-.03-.15,0-.27.03-.12.08-.22.14-.29.06-.07.15-.13.26-.17.11-.04.25-.08.41-.11.16-.03.34-.05.51-.05.22,0,.37.05.44.15.07.11.07.29.01.54-.37,1.45-.55,2.17-.91,3.62.05.02.07.02.12.04.1.04.16.08.19.14.02.06.02.15-.01.27-.03.12-.08.22-.14.29-.06.07-.15.13-.26.18-.11.05-.25.09-.4.12-.15.03-.29.05-.4.05-.19,0-.32-.03-.38-.12-.06-.08-.07-.23-.02-.43,0-.01,0-.02,0-.04,0,0,0,0-.01,0-.08.12-.17.23-.27.32-.09.08-.21.15-.34.22-.14.07-.3.1-.49.11-.4.01-.68-.12-.84-.4-.16-.28-.17-.72-.03-1.32.08-.33.19-.62.33-.89.15-.26.32-.49.53-.67.2-.18.44-.33.7-.43.26-.1.55-.16.86-.16.03,0,.07,0,.1,0,.03,0,.05,0,.08,0,.02,0,.05,0,.07,0,0,0,0,0,.02-.01,0-.03,0-.07.02-.11,0-.04.02-.07.02-.11.03-.11.04-.16.07-.27Zm-.39,1.52s-.03,0-.05-.01c-.02,0-.04,0-.07,0-.03,0-.05,0-.09,0-.18,0-.34.08-.47.22-.13.14-.24.39-.32.74-.07.3-.08.51-.04.63.05.12.13.17.24.17.06,0,.11-.02.16-.04.05-.03.1-.05.14-.08.05-.04.09-.08.12-.12.15-.6.22-.89.37-1.49Z"/><path class="cls-2" d="m45.01,51.02c.04-.15.04-.26-.02-.33s-.17-.1-.35-.1c-.13,0-.25.02-.35.04-.1.02-.19.04-.27.06-.08.02-.15.04-.21.06s-.12.03-.17.03c-.1,0-.17-.03-.21-.11-.04-.07-.05-.16-.02-.27.03-.12.1-.23.21-.33.06-.05.14-.11.24-.17.11-.06.23-.12.37-.17.14-.05.3-.09.49-.13.18-.04.37-.06.58-.06.51-.01.85.09,1.01.31.17.22.2.52.09.91-.07.24-.14.49-.2.72-.07.24-.14.5-.2.78.05.02.07.02.12.04.1.04.16.08.18.14.02.05.02.15-.02.27-.03.12-.08.22-.14.29-.06.07-.15.13-.26.18-.11.05-.25.09-.4.12-.15.03-.29.05-.42.05-.19,0-.32-.04-.38-.12s-.07-.21-.02-.38c0-.01,0-.02,0-.03,0,0,0,0-.01,0-.08.11-.17.21-.27.29-.09.08-.21.14-.34.21-.14.06-.29.1-.47.1-.17,0-.32-.02-.45-.08-.12-.06-.22-.13-.29-.24-.07-.1-.11-.23-.13-.37-.02-.14,0-.3.04-.46.04-.14.1-.28.19-.41.09-.13.21-.25.36-.36.15-.1.33-.19.54-.25.21-.07.46-.1.74-.11.06,0,.11,0,.16,0,.05,0,.09,0,.12,0,.04,0,.08,0,.12.01.01-.05.02-.08.04-.13Zm-.24.85s-.04,0-.06-.01c-.02,0-.05,0-.08,0-.03,0-.07,0-.1,0-.12,0-.22.03-.29.07-.07.04-.11.1-.13.18-.02.08-.01.14.02.19.04.05.09.07.17.07.06,0,.11-.01.16-.03.05-.02.09-.04.12-.07.04-.03.08-.06.11-.09.03-.12.05-.18.08-.31Z"/><path class="cls-2" d="m47.42,50.59c-.05-.02-.08-.03-.13-.05-.1-.04-.16-.09-.19-.15-.03-.06-.03-.15,0-.28.04-.13.08-.23.15-.3s.15-.13.26-.17c.11-.04.25-.08.41-.11.16-.03.31-.05.46-.05.2,0,.32.03.38.12.05.08.05.22,0,.42-.02.06-.03.09-.04.15,0,0,0,0,.01,0,.06-.1.12-.19.2-.28.07-.09.15-.17.24-.25.09-.07.19-.13.29-.18.1-.05.21-.07.33-.07.15,0,.24.04.27.13.03.09.02.23-.04.41-.04.14-.09.27-.16.39-.06.12-.13.22-.2.31-.07.09-.14.16-.22.21-.08.05-.15.08-.21.08-.04,0-.07,0-.09-.02-.02-.02-.04-.03-.06-.05-.02-.02-.03-.04-.05-.05-.02-.02-.05-.02-.09-.02-.09,0-.19.05-.3.15-.15.53-.23.8-.38,1.33.07.04.1.05.16.09.09.05.15.1.18.16s.02.14-.01.24c-.04.13-.11.24-.2.32-.1.08-.21.13-.35.13-.55.02-.82.02-1.37.04-.13,0-.23-.03-.28-.11-.05-.08-.06-.19-.02-.32.03-.11.07-.2.13-.26.06-.06.14-.12.26-.17.07-.04.11-.05.18-.09.19-.68.29-1.03.48-1.71Z"/><path class="cls-2" d="m52.63,48.89c-.06-.02-.09-.03-.14-.05-.1-.04-.16-.08-.19-.14-.03-.06-.02-.15.01-.27.04-.12.09-.22.15-.29.07-.07.15-.12.27-.17.11-.04.25-.08.42-.11.17-.03.34-.06.51-.09.21-.04.35,0,.41.09.06.09.05.26-.03.51-.45,1.43-.67,2.15-1.12,3.58.04,0,.06.01.11.02.09.02.15.05.17.1.02.05,0,.14-.03.26-.04.12-.09.22-.15.3-.06.08-.15.15-.26.21-.11.06-.24.12-.39.18-.15.06-.28.09-.38.12-.18.04-.31,0-.37-.08-.06-.08-.05-.23,0-.43,0-.01,0-.02.01-.04,0,0,0,0-.01,0-.08.12-.18.23-.29.32-.1.08-.21.15-.36.22-.14.07-.31.1-.5.11-.4.01-.67-.12-.82-.4-.15-.28-.13-.71.04-1.31.1-.33.22-.62.38-.88.16-.26.35-.48.56-.67.22-.18.46-.32.72-.42s.56-.16.87-.16c.03,0,.07,0,.1,0,.03,0,.05,0,.07,0,.02,0,.05,0,.07,0,0,0,.01,0,.02-.01,0-.03.01-.07.02-.11,0-.04.02-.07.03-.11.03-.11.05-.16.08-.27Zm-.47,1.51s-.03,0-.05-.01c-.02,0-.04,0-.07,0-.02,0-.05,0-.09,0-.18,0-.34.08-.48.22-.14.14-.26.39-.36.73-.09.3-.11.51-.07.62.04.11.12.17.23.17.06,0,.11-.02.17-.04.05-.03.1-.05.14-.08.05-.04.09-.08.13-.12.18-.59.27-.89.45-1.48Z"/><path class="cls-2" d="m54.28,51.81s.06.01.1.01c.03,0,.07,0,.13,0,.05,0,.11-.01.17-.02.13-.03.22-.06.28-.11.06-.05.1-.1.12-.16.03-.08,0-.13-.05-.16-.06-.03-.14-.05-.24-.07-.1-.02-.21-.04-.32-.06-.12-.02-.22-.06-.3-.13-.09-.06-.14-.15-.18-.27-.03-.12-.02-.28.05-.49.06-.18.14-.35.25-.52.11-.17.25-.32.41-.45.17-.13.36-.25.59-.35.22-.1.49-.18.78-.23.26-.05.45-.06.59-.04.14.02.22.06.26.11.03.04.04.09.04.14,0,.05-.02.13-.05.23,0,.01,0,.02,0,.03-.02.05-.03.1-.05.14-.01.04-.03.09-.05.14-.04.11-.1.19-.18.25-.08.06-.16.1-.25.12-.1.02-.17.01-.21-.02-.04-.03-.06-.08-.06-.16,0-.03,0-.05,0-.09-.03,0-.07,0-.11,0-.03,0-.07,0-.12,0s-.1,0-.15.02c-.12.02-.2.05-.25.1-.05.04-.09.1-.11.16-.02.07,0,.12.06.15.06.03.14.05.24.06.1.01.21.03.33.06.12.02.22.07.3.13.08.06.14.15.17.27.03.12,0,.28-.06.49-.06.18-.15.35-.26.52-.11.17-.26.32-.43.46-.17.14-.37.26-.6.37-.23.11-.49.19-.78.25-.26.05-.45.07-.59.05-.13-.02-.22-.05-.25-.11-.02-.04-.04-.09-.04-.14,0-.05.01-.13.05-.23,0-.01,0-.02,0-.03.02-.05.03-.1.04-.14.01-.04.03-.08.05-.12.05-.13.11-.22.18-.29.07-.07.16-.11.25-.13.1-.02.17-.01.21.02.04.03.06.08.06.16,0,.04,0,.06,0,.1Z"/><path class="cls-2" d="m14,62.72s-.06-.03-.11-.05c-.11-.05-.18-.11-.21-.18-.04-.07-.05-.18-.04-.32,0-.14.04-.26.08-.33.05-.08.12-.14.22-.18.1-.04.22-.08.37-.11.15-.03.3-.05.45-.05.21,0,.36.06.45.18s.12.32.1.6c-.02.25-.02.38-.04.64,0,.13-.02.26-.04.41-.02.15-.04.29-.07.42,0,0,0,0,.01,0,.05-.09.12-.18.21-.26.07-.07.17-.13.28-.18.11-.06.24-.08.4-.09.39,0,.69.16.89.48.2.32.27.82.22,1.49-.03.38-.09.72-.19,1.01-.1.29-.24.54-.41.74-.17.2-.38.36-.63.47-.25.11-.53.16-.85.16-.24,0-.45-.02-.63-.06-.18-.04-.31-.1-.4-.16-.11-.08-.19-.18-.24-.28-.05-.11-.07-.26-.06-.46.09-1.55.13-2.33.22-3.89Zm1.05,3.64s.04.02.06.03c.02,0,.05.02.08.02.03,0,.07,0,.12,0,.14,0,.26-.08.36-.23.1-.15.16-.43.19-.83.02-.34,0-.57-.07-.7-.07-.13-.16-.2-.27-.2-.06,0-.11.01-.15.04-.04.03-.08.06-.12.09-.04.04-.07.08-.1.13-.04.65-.06.98-.1,1.63Z"/><path class="cls-2" d="m18.77,65.72c.02.23.09.39.2.5.11.1.27.15.46.15.1,0,.19,0,.27-.02.08-.01.14-.03.2-.04.06-.01.1-.03.15-.04.04-.01.08-.02.11-.02.08,0,.15.03.19.11.04.07.06.17.05.29,0,.09-.03.16-.05.23-.03.06-.07.13-.12.19-.09.1-.23.21-.43.32-.2.11-.47.16-.81.16-.26,0-.49-.04-.68-.14-.19-.09-.35-.23-.48-.4-.12-.18-.21-.38-.26-.63-.05-.24-.07-.52-.04-.83.03-.36.09-.68.19-.97.1-.29.23-.53.4-.74s.36-.36.58-.47c.22-.11.46-.16.72-.17.46,0,.8.15,1.01.45.21.3.29.71.24,1.24-.03.28-.09.49-.19.62s-.24.2-.41.2c-.52,0-.77,0-1.29,0Zm.73-.83c.01-.23,0-.4-.05-.49-.05-.09-.12-.14-.21-.14-.1,0-.18.06-.25.17-.07.11-.12.27-.16.47.27,0,.41,0,.68,0Z"/><path class="cls-2" d="m21.3,64.2s-.03,0-.04.01c-.23.07-.33-.05-.3-.35.02-.19.07-.36.15-.49.08-.13.19-.22.31-.26.02,0,.02,0,.04-.01.06-.22.1-.33.16-.54.08-.27.18-.46.29-.58.11-.12.24-.2.4-.25.13-.04.22-.02.27.06.06.07.08.19.06.35-.03.25-.04.38-.07.63.11-.03.17-.05.28-.09.23-.07.33.05.3.35-.02.19-.07.36-.16.49-.08.13-.2.22-.33.26-.08.02-.12.04-.2.06-.05.52-.08.78-.14,1.3-.03.26-.03.42,0,.5.03.08.08.1.16.08.04-.01.08-.03.11-.05.03-.02.06-.03.09-.04.06-.02.11,0,.14.05.03.05.04.13.03.24-.01.1-.03.19-.07.26-.03.08-.08.16-.13.24-.05.08-.14.18-.26.3-.12.12-.29.21-.5.28-.31.1-.52.07-.65-.12-.13-.18-.17-.53-.12-1.05.06-.65.09-.98.15-1.63Z"/><path class="cls-2" d="m23.53,63.49s-.03-.02-.05-.03c-.09-.05-.14-.11-.17-.19-.03-.08-.03-.18-.02-.31.01-.13.06-.24.13-.34.07-.1.16-.17.27-.2.44-.13.66-.2,1.1-.33.11-.03.19-.02.24.04.05.06.07.15.05.28-.02.12-.05.24-.1.34-.05.1-.13.2-.23.31-.01.01-.02.02-.03.03.03.4.04.6.06,1.01,0,.1,0,.2.01.29,0,.09,0,.17,0,.24,0,.08,0,.16,0,.23,0,0,0,0,.01,0,.01-.08.03-.16.05-.25.02-.08.04-.16.06-.26.02-.1.05-.2.08-.32.13-.5.2-.75.33-1.25.09-.35.2-.61.33-.78.13-.17.31-.29.53-.36.23-.07.39-.05.48.05.09.1.14.31.14.63,0,.45,0,.68,0,1.13,0,.1,0,.2,0,.29,0,.09,0,.17,0,.24,0,.08-.01.16-.02.23,0,0,0,0,.01,0,.02-.08.04-.16.06-.25.02-.07.04-.16.07-.26.03-.1.06-.2.09-.31.14-.45.21-.67.35-1.11,0,0-.01,0-.02-.02-.08-.05-.13-.11-.16-.18-.03-.07-.04-.17-.02-.29.02-.12.06-.23.14-.33.07-.1.17-.16.28-.2.33-.1.5-.15.83-.25.11-.03.19-.02.24.04.05.06.07.15.05.27-.02.13-.06.24-.11.34-.05.1-.13.2-.23.3-.02.02-.03.03-.06.06-.34.92-.5,1.38-.83,2.31-.11.31-.23.56-.37.73-.14.17-.32.3-.56.38-.23.08-.4.08-.51-.01-.1-.09-.16-.28-.16-.56,0-.37,0-.56-.01-.94,0-.09,0-.18,0-.28,0-.1,0-.18,0-.25,0-.09.01-.17.02-.25,0,0,0,0-.01,0-.01.09-.03.18-.05.27-.02.08-.04.17-.06.27-.02.1-.05.2-.07.3-.11.41-.16.62-.27,1.03-.08.31-.2.56-.34.73-.15.18-.34.31-.58.39-.12.04-.23.06-.32.06-.09,0-.16-.03-.21-.07-.06-.05-.1-.12-.13-.21-.03-.09-.05-.21-.07-.35-.09-.82-.14-1.23-.24-2.05Z"/><path class="cls-2" d="m29.7,62.78c0,.2.05.33.14.39.09.06.23.06.41,0,.09-.03.17-.06.24-.1.07-.03.13-.06.18-.1.05-.03.1-.06.14-.08.04-.02.07-.04.1-.05.08-.03.13-.01.17.04.03.05.04.13.02.24-.02.08-.04.15-.07.22-.03.07-.07.13-.12.2-.09.12-.23.26-.42.41-.19.16-.44.29-.75.39-.24.08-.44.11-.61.08-.17-.03-.3-.1-.4-.22-.1-.12-.16-.29-.19-.5s-.02-.46.03-.75c.05-.34.14-.65.25-.95.12-.29.26-.56.42-.79.17-.23.35-.42.57-.58.21-.16.44-.27.67-.35.42-.13.72-.08.88.13.17.21.2.56.11,1.05-.05.26-.12.46-.23.61-.11.15-.24.25-.39.3-.47.15-.7.23-1.17.38Zm.73-.96c.03-.22.03-.36,0-.43-.04-.07-.1-.1-.18-.07-.09.03-.17.1-.25.22-.07.12-.14.28-.19.47.25-.08.37-.12.62-.2Z"/><path class="cls-2" d="m32.88,61.74c0,.2.04.32.13.38.09.06.23.06.4,0,.09-.03.17-.06.24-.1.07-.03.13-.06.18-.09.05-.03.1-.06.14-.08.04-.02.07-.04.1-.05.08-.03.13-.01.17.04.03.05.04.13.01.24-.02.08-.04.15-.07.21-.03.06-.07.13-.13.2-.09.12-.23.25-.43.41-.2.15-.45.28-.75.39-.24.08-.44.11-.61.09-.17-.02-.3-.09-.39-.21-.09-.12-.15-.28-.17-.49-.02-.2,0-.45.05-.73.06-.33.15-.64.28-.93.12-.29.27-.55.44-.77s.36-.42.58-.57c.21-.16.44-.27.68-.34.42-.13.71-.09.87.12.16.21.19.55.08,1.02-.05.25-.14.45-.25.6-.11.15-.24.24-.39.29-.47.15-.7.23-1.17.38Zm.75-.94c.04-.21.04-.35,0-.42-.03-.07-.09-.09-.18-.07-.09.03-.17.1-.25.22-.08.12-.14.27-.2.46.25-.08.37-.12.62-.2Z"/><path class="cls-2" d="m35.45,59.86s-.07-.01-.12-.02c-.09-.01-.14-.05-.17-.09-.03-.05-.03-.14,0-.27.03-.13.07-.23.12-.32.06-.08.13-.16.23-.22.1-.07.21-.13.35-.2.14-.07.27-.12.4-.16.17-.05.31.02.36.1.06.08.06.23.01.43,0,.01,0,.02,0,.04,0,0,0,0,.01,0,.07-.12.16-.22.26-.31.09-.08.2-.16.33-.23.14-.07.3-.11.48-.11.39-.01.66.1.8.32.14.23.16.58.04,1.06-.14.56-.2.84-.34,1.4.04.03.06.04.1.07.08.06.13.12.16.18.02.06.02.14,0,.26-.03.13-.09.24-.18.33-.09.09-.2.13-.33.14-.43.01-.64.02-1.07.04-.13,0-.23-.03-.28-.11-.05-.08-.06-.19-.03-.32.03-.11.06-.19.1-.25.04-.06.11-.13.21-.2.03-.02.04-.04.07-.06.11-.45.16-.67.27-1.12.05-.23.06-.38.02-.47-.04-.09-.12-.13-.23-.13-.06,0-.11.02-.16.04-.05.03-.09.05-.13.08-.04.04-.08.08-.12.12-.14.6-.21.9-.35,1.51.02.02.03.03.05.06.06.07.1.13.12.19.01.06,0,.14-.02.25-.03.13-.09.24-.18.32-.09.09-.2.13-.34.13-.44.02-.64.09-1.04.23-.12.04-.2.03-.24-.03-.05-.06-.05-.16-.02-.29.02-.11.06-.21.11-.28.05-.07.12-.15.22-.23.06-.05.09-.08.16-.13.15-.69.23-1.04.39-1.73Z"/><path class="cls-2" d="m41.03,59.5c-.05-.02-.08-.03-.13-.05-.1-.04-.16-.09-.18-.15-.03-.06-.03-.15,0-.28.03-.13.08-.23.14-.3.06-.07.14-.13.25-.17s.23-.08.39-.11c.15-.03.3-.05.44-.05.19,0,.31.03.36.12.05.08.05.23,0,.43,0,.01,0,.02,0,.04,0,0,0,0,.01,0,.08-.12.17-.22.27-.31.09-.08.2-.16.34-.23.14-.07.3-.11.48-.11.29,0,.5.04.63.15.13.11.21.26.24.44.08-.12.17-.22.28-.31.09-.08.21-.16.35-.23.14-.07.3-.11.49-.11.39-.01.65.1.79.32.13.23.13.58,0,1.05-.16.56-.24.84-.4,1.4.04.03.06.04.09.07.08.06.13.12.15.18.02.06.02.14-.02.25-.04.13-.1.24-.2.33s-.21.13-.33.13c-.43.01-.64.02-1.07.04-.13,0-.22-.03-.27-.11-.05-.08-.06-.19-.02-.32.03-.11.07-.19.11-.25.04-.06.12-.13.22-.2.03-.02.05-.04.08-.06.12-.45.19-.67.31-1.12.06-.22.07-.38.04-.47-.04-.09-.11-.13-.22-.13-.06,0-.11.02-.16.04-.05.03-.09.05-.14.08-.05.04-.09.07-.12.12,0,0,0,.01,0,.03,0,.01,0,.03-.01.05,0,.02-.01.05-.02.07-.15.54-.22.81-.37,1.35.02.02.03.03.04.06.06.07.1.14.11.19.01.06,0,.14-.03.25-.04.13-.1.24-.2.33-.1.09-.21.13-.34.13-.38.01-.57.02-.95.03-.13,0-.22-.03-.28-.11-.05-.08-.06-.19-.02-.32.03-.11.06-.19.11-.25.04-.06.12-.13.22-.2.03-.02.05-.04.08-.06.12-.45.18-.67.3-1.12.06-.22.07-.38.03-.47-.04-.09-.11-.13-.22-.13-.06,0-.11.02-.16.04-.05.03-.09.05-.13.08-.05.04-.09.08-.12.12-.16.6-.24.9-.4,1.5.02.02.03.03.05.06.06.07.1.13.11.19.01.06,0,.14-.02.25-.03.13-.1.23-.19.32-.1.09-.21.13-.34.14-.44.02-.66.02-1.11.04-.13,0-.22-.03-.27-.11-.05-.08-.06-.19-.02-.32.03-.11.07-.2.13-.26.05-.06.14-.12.24-.17.07-.04.1-.06.17-.09.18-.69.26-1.03.44-1.72Z"/><path class="cls-2" d="m47.81,60.39c-.02.2.02.34.11.43.09.09.24.13.43.12.1,0,.19-.01.27-.03.08-.01.15-.03.2-.04.06-.01.11-.03.15-.04.04-.01.08-.02.11-.02.08,0,.14.03.17.09.03.06.03.15,0,.25-.02.08-.06.14-.09.2-.04.06-.09.11-.15.17-.1.09-.27.19-.49.29-.22.1-.5.15-.83.17-.26,0-.48-.02-.66-.1-.18-.08-.31-.19-.4-.34-.09-.15-.14-.33-.15-.55,0-.21.03-.46.11-.73.09-.32.21-.6.37-.86.15-.26.33-.48.53-.66.2-.18.42-.32.66-.43.24-.1.49-.16.75-.16.46-.01.77.11.92.37.15.26.16.61.01,1.08-.08.25-.17.44-.3.56-.13.12-.27.18-.44.19-.51.02-.77.03-1.29.04Zm.88-.75c.05-.21.07-.35.04-.43-.03-.08-.09-.12-.19-.12-.1,0-.19.06-.28.16-.09.1-.17.24-.25.42.27,0,.41-.01.68-.02Z"/><path class="cls-2" d="m50.65,59.03s-.07-.01-.11-.02c-.09-.02-.14-.05-.16-.1-.02-.05-.01-.14.03-.26.04-.13.09-.23.15-.31.06-.08.14-.15.25-.21.1-.06.23-.12.37-.18.15-.06.29-.11.42-.14.18-.04.29-.03.33.03.04.07.03.2-.03.4,0,.01,0,.02-.01.04,0,0,0,0,0,0,.08-.13.17-.24.28-.35.09-.09.2-.19.34-.28.13-.09.29-.16.46-.2.37-.09.61-.04.72.14.11.18.09.5-.07.96-.19.54-.28.82-.47,1.36.03.02.05.03.08.04.07.04.11.08.13.13.02.05,0,.12-.03.23-.04.13-.11.24-.21.34s-.2.16-.32.2c-.4.11-.6.17-1,.28-.12.03-.21.02-.25-.04-.04-.06-.04-.16,0-.29.03-.11.07-.19.12-.26.05-.06.12-.14.22-.24.03-.03.05-.04.08-.07.15-.44.22-.66.36-1.1.07-.22.09-.37.06-.44-.03-.07-.1-.1-.2-.07-.05.01-.1.04-.15.07s-.09.07-.13.11c-.05.04-.09.09-.12.14-.19.59-.29.89-.48,1.48.02.02.02.02.04.04.05.05.08.1.09.15,0,.05,0,.13-.04.23-.04.13-.11.24-.21.34-.09.1-.2.17-.33.2-.42.11-.62.17-1.04.29-.12.03-.2.02-.24-.05-.04-.06-.04-.16,0-.29.03-.11.08-.2.13-.27.06-.07.14-.14.24-.22.07-.05.1-.07.17-.12.21-.68.32-1.02.53-1.7Z"/><path class="cls-2" d="m12.55,74.78c.02-.17,0-.29-.06-.37-.06-.08-.17-.12-.34-.12-.12,0-.23.01-.32.03-.09.02-.17.04-.24.06-.07.02-.13.04-.18.06-.05.02-.1.03-.15.03-.09,0-.16-.04-.2-.12-.05-.08-.07-.18-.06-.3.01-.14.06-.26.14-.36.04-.05.11-.11.2-.18.09-.07.19-.12.32-.18.12-.05.27-.1.42-.13.16-.04.33-.06.52-.06.46,0,.79.12.97.37.18.25.25.59.21,1.01-.03.27-.06.54-.09.8-.03.26-.06.55-.08.86.04.02.07.03.11.05.09.04.16.09.18.16.03.06.03.16.02.3-.01.13-.04.24-.09.32-.05.08-.12.14-.21.19-.1.05-.21.09-.35.12-.13.03-.26.05-.37.05-.17,0-.29-.04-.36-.14s-.09-.24-.07-.43c0-.01,0-.02,0-.03,0,0,0,0-.01,0-.05.12-.12.23-.2.32-.07.08-.17.16-.28.22-.11.07-.25.1-.41.1-.15,0-.29-.03-.41-.09-.12-.06-.22-.15-.3-.27-.08-.12-.14-.25-.17-.41-.04-.16-.05-.33-.03-.52.01-.16.05-.31.12-.46.06-.15.16-.28.28-.39.12-.11.27-.2.46-.27.18-.07.4-.11.65-.11.05,0,.1,0,.15,0,.04,0,.08,0,.11.01.04,0,.07,0,.11.02,0-.06,0-.09.01-.15Zm-.1.94s-.04-.01-.06-.02c-.02,0-.04,0-.07-.01-.03,0-.06,0-.09,0-.11,0-.2.03-.25.07-.06.05-.09.11-.09.2,0,.09,0,.16.05.21.04.06.09.08.16.08.05,0,.1-.01.14-.03.04-.02.07-.04.1-.07.03-.03.06-.06.09-.1.01-.14.02-.2.03-.34Z"/><path class="cls-2" d="m14.68,74.35c-.05-.03-.08-.04-.13-.06-.1-.05-.16-.1-.2-.17-.03-.06-.04-.17-.03-.31s.05-.25.1-.33c.05-.08.12-.14.22-.18.09-.04.21-.08.36-.11.14-.03.28-.05.41-.05.18,0,.3.04.36.14.06.09.08.25.05.48,0,.02,0,.02,0,.04,0,0,0,0,.01,0,.06-.13.13-.24.22-.34.08-.08.18-.17.3-.24.12-.07.27-.11.45-.11.37,0,.64.12.79.38.16.26.2.64.13,1.17-.08.62-.12.92-.21,1.54.04.03.06.05.1.08.08.07.14.13.16.2.03.06.03.16.02.28-.02.14-.07.26-.15.36-.08.09-.18.14-.3.14-.4,0-.6,0-1,.01-.13,0-.22-.04-.27-.13-.06-.09-.08-.21-.06-.35.01-.12.04-.21.07-.28.04-.06.1-.14.18-.22.03-.03.04-.04.06-.06.06-.49.09-.74.15-1.23.03-.25.02-.42-.02-.52-.05-.1-.12-.15-.23-.15-.05,0-.1.01-.15.04-.04.03-.08.06-.12.09-.04.04-.07.08-.1.13-.08.66-.12.99-.2,1.65.02.03.03.04.05.06.07.08.11.15.13.21.02.06.02.15,0,.27-.02.14-.07.26-.15.35-.08.09-.18.14-.31.14-.42,0-.62,0-1.04.01-.12,0-.21-.04-.27-.13-.06-.09-.08-.21-.06-.35.01-.12.04-.22.09-.28.04-.06.11-.13.21-.19.06-.04.09-.06.15-.1.08-.76.12-1.14.21-1.89Z"/><path class="cls-2" d="m20.49,72.37c-.05,0-.08,0-.13-.01-.09,0-.15-.04-.18-.09-.03-.05-.04-.15-.03-.29.01-.14.04-.25.09-.34.04-.09.11-.17.19-.25.09-.08.19-.15.33-.23.13-.08.27-.15.42-.2.18-.07.31-.06.37.03.07.09.09.28.06.55-.17,1.61-.35,2.36-.63,3.92.04,0,.06,0,.09,0,.08,0,.13.03.15.07.02.05.02.14,0,.28-.02.13-.06.24-.11.33-.05.09-.11.18-.2.26-.09.08-.19.17-.31.25-.12.08-.23.14-.31.18-.15.07-.25.07-.3.01-.05-.06-.06-.21-.02-.43,0-.02,0-.02,0-.04,0,0,0,0,0,0-.06.15-.13.29-.21.41-.07.11-.16.22-.27.34-.11.11-.25.17-.42.17-.36,0-.62-.15-.78-.46-.16-.31-.2-.79-.1-1.45.05-.36.13-.68.25-.97.12-.29.26-.53.44-.73.18-.2.38-.35.61-.45.23-.11.49-.16.74-.26.03-.01.05-.02.08-.03.02,0,.04-.01.06-.01.02,0,.04,0,.06-.02,0,0,0-.01.01-.02,0-.04,0-.07.01-.11,0-.04,0-.08.01-.13.01-.12.02-.18.03-.3Zm-.25,1.67s-.03,0-.04,0c-.02,0-.03,0-.05.01-.02,0-.04.01-.07.03-.15.06-.27.19-.38.35-.11.16-.19.42-.25.8-.05.33-.05.56,0,.69.05.13.12.17.21.13.05-.02.09-.05.13-.09.04-.04.08-.09.11-.13.04-.05.07-.1.1-.16.1-.65.15-.97.26-1.62Z"/><path class="cls-2" d="m23.26,72.77s-.02-.01-.04-.02c-.07-.04-.12-.09-.13-.16-.02-.07-.01-.17.01-.3.02-.12.07-.23.14-.33.07-.1.16-.17.26-.21.41-.16.61-.24,1.02-.41.1-.04.17-.03.21.02.04.05.05.14.02.26-.03.12-.07.23-.13.33-.06.1-.14.2-.23.31-.01.01-.02.02-.03.03-.02.38-.03.57-.04.95,0,.09-.01.18-.02.27,0,.09-.02.16-.02.23,0,.08-.02.15-.03.22,0,0,0,0,.01,0,.02-.07.04-.15.07-.24.02-.07.05-.16.08-.25.03-.1.06-.2.1-.31.17-.49.25-.73.42-1.21.12-.34.24-.6.38-.77.13-.17.31-.3.52-.39.21-.08.35-.08.42,0,.07.09.09.28.06.58-.05.42-.07.64-.12,1.06-.01.09-.02.18-.04.27-.01.09-.02.16-.03.23-.01.08-.03.15-.04.22,0,0,0,0,.01,0,.02-.07.05-.15.08-.24.02-.07.05-.16.09-.25.04-.1.07-.19.11-.3.17-.43.26-.65.44-1.08,0,0-.01,0-.02-.01-.06-.04-.1-.09-.12-.16-.02-.07-.01-.16.01-.27s.08-.22.16-.32c.08-.1.17-.17.27-.21.31-.12.46-.19.77-.31.1-.04.17-.04.21.02.04.05.04.13,0,.25-.03.12-.08.23-.13.32-.06.1-.14.2-.24.3-.02.02-.03.03-.06.06-.4.89-.6,1.34-1,2.24-.13.3-.27.54-.41.72-.14.17-.32.31-.53.41-.21.1-.36.11-.44.04-.08-.07-.11-.24-.08-.51.04-.35.05-.53.09-.88,0-.09.02-.17.03-.26.01-.09.02-.17.03-.24.01-.08.03-.16.04-.24,0,0,0,0-.01,0-.02.08-.05.17-.07.26-.02.07-.05.16-.08.26-.03.1-.06.19-.1.29-.14.4-.21.6-.35.99-.11.3-.23.54-.38.72-.15.18-.33.32-.55.42-.11.05-.21.08-.28.09-.07,0-.14,0-.18-.05-.05-.04-.08-.1-.1-.18-.02-.08-.03-.19-.03-.32,0-.77,0-1.15-.02-1.93Z"/><path class="cls-2" d="m27.79,71.81c.09-.31.2-.61.34-.89.14-.29.3-.55.49-.78.19-.23.39-.44.62-.62.23-.18.47-.32.71-.42.46-.18.76-.16.9.05.14.22.12.6-.06,1.14-.1.3-.22.59-.37.87-.15.28-.32.54-.5.77s-.39.44-.61.63c-.22.19-.45.33-.68.44-.44.2-.72.2-.86-.02-.14-.22-.14-.61.02-1.17Zm1.13-.61c-.05.16-.08.29-.09.4-.01.1-.01.19,0,.24.01.06.04.09.07.11.04.01.08,0,.13-.01.1-.04.21-.15.32-.31.11-.16.21-.4.31-.72.05-.16.08-.29.09-.4.01-.1.01-.19,0-.25-.01-.06-.04-.1-.07-.11-.04-.01-.08-.01-.13.01-.1.04-.21.14-.32.31-.11.16-.21.41-.31.73Z"/><path class="cls-2" d="m31.59,69.38s-.06,0-.1,0c-.08,0-.12-.03-.14-.07-.02-.04,0-.13.03-.25.04-.12.09-.23.15-.31.06-.08.13-.16.23-.23.09-.07.21-.14.34-.22.13-.08.26-.14.38-.19.16-.06.26-.07.3-.01.04.06.02.18-.05.38,0,.01,0,.02-.01.03,0,0,0,0,0,0,.08-.13.17-.25.27-.36.09-.1.19-.2.31-.3.12-.1.27-.19.42-.25.25-.1.41-.17.52-.07s.18.24.19.41c.08-.11.19-.21.3-.3.09-.07.21-.15.35-.22.14-.07.3-.1.47-.11.37-.01.61.09.71.3.1.21.06.54-.12.99-.21.53-.32.79-.53,1.32.03.03.05.04.08.06.07.06.11.11.12.16.01.05,0,.13-.04.24-.05.12-.12.23-.22.31-.1.08-.21.12-.33.13-.4.02-.6.03-1,.05-.12,0-.21-.03-.24-.1-.04-.07-.03-.17.02-.3.04-.1.08-.18.13-.24.05-.06.12-.12.23-.19.03-.02.05-.03.08-.06.16-.42.25-.63.41-1.06.08-.21.11-.36.08-.44-.03-.08-.09-.12-.2-.12-.05,0-.11.02-.16.04-.05.03-.09.05-.14.08-.05.03-.09.07-.13.11,0,0,0,.01-.01.03,0,0,0,.02-.02.05,0,.02-.02.04-.02.07-.19.51-.29.76-.48,1.27.01.02.02.03.04.05.05.07.08.13.08.18,0,.05-.01.13-.05.23-.05.12-.12.23-.22.31-.1.08-.21.13-.33.13-.36.02-.51.1-.82.24-.11.05-.18.05-.21,0-.03-.05-.02-.14.02-.27.04-.1.08-.19.12-.25.04-.07.11-.15.2-.25.03-.03.04-.05.07-.08.15-.43.23-.64.39-1.07.08-.21.11-.35.08-.42-.02-.06-.08-.08-.17-.04-.05.02-.09.05-.14.09s-.09.08-.12.12c-.04.05-.08.09-.12.14-.2.58-.3.86-.51,1.44.01.01.02.02.03.03.04.04.07.08.07.13,0,.05-.01.12-.05.22-.04.12-.11.24-.2.34-.09.11-.19.19-.3.24-.37.17-.55.25-.91.42-.11.05-.18.05-.21,0-.03-.05-.03-.14.01-.27.04-.11.08-.2.13-.27.05-.07.13-.15.22-.24.06-.06.09-.08.15-.14.22-.67.33-1,.55-1.66Z"/><path class="cls-2" d="m37.61,69.3c-.04.19-.02.32.06.4.08.08.21.12.39.11.1,0,.18-.01.26-.03.07-.01.14-.03.2-.04.06-.01.11-.03.15-.04.04-.01.08-.02.11-.02.08,0,.13.02.15.08.02.06.01.14-.03.24-.03.07-.07.14-.11.19-.04.05-.1.11-.16.16-.11.09-.27.18-.49.28-.22.1-.49.15-.8.17-.25.01-.45-.02-.6-.08-.16-.07-.27-.17-.34-.31-.07-.14-.1-.31-.08-.51.02-.2.08-.43.18-.69.12-.3.27-.57.44-.81.17-.24.36-.45.57-.63.21-.17.43-.31.67-.41.24-.1.48-.15.73-.16.44-.02.72.1.83.34.11.24.08.58-.12,1.02-.1.23-.22.4-.35.52-.13.11-.28.17-.44.18-.49.02-.73.03-1.21.05Zm.91-.71c.08-.19.1-.33.08-.41-.02-.08-.07-.11-.16-.11-.09,0-.19.05-.29.15-.1.1-.19.23-.28.39.26-.01.39-.02.64-.03Z"/><path class="cls-2" d="m40.47,68.14s-.07-.03-.11-.05c-.08-.04-.13-.08-.15-.14-.02-.05,0-.14.05-.26.05-.12.11-.21.18-.28.07-.07.16-.12.26-.16.11-.04.23-.08.38-.11.15-.03.29-.05.43-.05.18,0,.29.03.32.1.04.08.01.21-.08.4,0,.01,0,.02-.02.03,0,0,0,0,0,0,.09-.11.2-.21.31-.29.1-.07.22-.15.36-.21.14-.07.3-.1.48-.11.37-.01.6.08.69.29.09.21.02.53-.19.97-.25.52-.37.78-.62,1.29.03.02.05.04.08.06.06.05.1.11.11.16.01.05-.01.13-.06.23-.06.12-.14.22-.24.3-.1.08-.22.12-.34.13-.4.02-.6.03-1,.05-.12,0-.2-.03-.24-.1-.03-.07-.02-.17.04-.29.05-.1.1-.18.15-.23.05-.06.13-.12.24-.19.03-.02.05-.03.08-.06.19-.42.29-.62.49-1.04.1-.21.14-.35.12-.43-.02-.08-.08-.12-.19-.11-.05,0-.11.02-.16.04-.05.02-.1.05-.14.08-.05.03-.1.07-.14.11-.26.56-.38.84-.64,1.39.01.02.02.03.03.05.04.06.07.12.07.18,0,.05-.02.13-.07.23-.06.12-.14.22-.24.3-.1.08-.22.12-.34.13-.42.02-.62.03-1.04.05-.12,0-.2-.03-.23-.1-.03-.07-.02-.17.03-.29.05-.1.1-.18.16-.24.06-.06.15-.11.26-.16.07-.04.11-.05.18-.09.28-.64.43-.96.71-1.6Z"/><path class="cls-2" d="m47.09,68.12c.07-.14.1-.23.07-.28-.02-.05-.12-.04-.28-.04-.12,0-.23.02-.33.04-.1.02-.18.04-.26.06-.07.02-.14.04-.2.06s-.11.03-.16.03c-.09,0-.14-.03-.16-.1-.02-.07,0-.15.05-.25.06-.11.14-.21.26-.3.06-.05.15-.1.26-.16.11-.06.23-.11.38-.16.14-.05.3-.09.47-.12.17-.04.35-.05.53-.11.43-.14.68-.13.77,0,.08.14.02.39-.17.74-.12.22-.24.44-.36.66-.12.22-.25.45-.37.7.03,0,.05,0,.08,0,.07,0,.11.02.11.06,0,.04-.03.12-.09.23-.06.11-.13.2-.2.28-.07.08-.16.15-.26.22-.11.07-.23.14-.36.21-.13.07-.25.12-.35.16-.16.06-.25.06-.27,0-.03-.05,0-.16.08-.32,0-.01,0-.02.01-.03,0,0,0,0,0,0-.09.11-.19.22-.3.32-.1.09-.2.19-.34.25-.14.06-.28.09-.44.1-.15,0-.28-.01-.38-.06-.1-.05-.17-.12-.2-.21-.04-.09-.05-.2-.03-.33.02-.13.07-.27.14-.42.07-.13.16-.26.27-.38.11-.12.25-.23.41-.33.16-.1.34-.18.55-.24.21-.06.43-.1.69-.11.05,0,.1,0,.14-.01.04-.01.07-.02.1-.03.03,0,.06-.02.1-.02.03-.05.04-.07.06-.12Zm-.42.78s-.03,0-.05,0c-.01,0-.04,0-.06.01-.02,0-.05.02-.09.03-.1.04-.2.04-.27.08-.07.04-.13.1-.16.17-.04.07-.05.13-.03.17.02.05.06.07.13.06.05,0,.1-.02.14-.05.04-.03.08-.06.12-.09.04-.03.08-.07.12-.11.06-.11.09-.17.15-.28Z"/><path class="cls-2" d="m49.16,67.1s-.03,0-.04.01c-.22.07-.26-.01-.12-.26.09-.15.19-.29.31-.4.12-.11.24-.19.36-.23.01,0,.02,0,.04-.01.14-.18.19-.27.29-.46.13-.24.25-.41.38-.52.12-.11.26-.19.42-.24.12-.04.2-.03.24.04.04.06.03.16-.02.3-.07.22-.11.33-.22.53.11-.04.16-.05.27-.09.22-.07.26.01.12.25-.09.15-.2.29-.32.4-.12.11-.25.19-.38.23-.08.03-.11.04-.19.06-.24.41-.36.62-.6,1.03-.12.2-.18.33-.18.39,0,.06.03.07.1.05.04-.01.07-.03.11-.05.03-.02.06-.03.09-.04.06-.02.09-.01.1.03,0,.04-.02.1-.07.19-.05.08-.1.15-.16.21-.06.06-.12.13-.19.2-.07.07-.18.15-.33.26-.15.1-.32.19-.52.26-.29.11-.46.1-.49-.04-.04-.13.06-.41.29-.83.29-.52.44-.78.73-1.3Z"/><path class="cls-2" d="m32.6,76.54s-.02-.02-.03-.03c-.06-.06-.1-.13-.1-.2,0-.07.01-.17.06-.28.04-.11.11-.2.19-.27.09-.07.18-.11.29-.12.42-.03.63-.04,1.05-.07.1,0,.17.02.2.09.03.07.02.15-.02.26-.04.11-.1.2-.17.28-.07.08-.16.15-.27.22-.01,0-.02.01-.03.02-.08.36-.11.54-.19.9-.02.09-.04.18-.06.26-.02.08-.04.15-.06.22-.02.08-.04.14-.06.2,0,0,0,0,.01,0,.03-.06.06-.13.1-.21.03-.06.07-.14.11-.22.04-.08.09-.17.15-.26.24-.42.36-.63.6-1.04.17-.29.33-.5.48-.63.16-.13.34-.2.56-.21.22-.01.35.04.41.15.06.11.04.31-.03.59-.11.41-.17.61-.28,1.01-.03.09-.05.18-.08.26-.03.08-.05.15-.07.22-.02.07-.05.14-.07.2,0,0,0,0,.01,0,.03-.06.07-.14.12-.21.03-.06.08-.14.13-.22.05-.08.1-.17.16-.25.24-.37.35-.56.59-.93,0,0-.01-.01-.02-.02-.05-.06-.08-.13-.09-.2,0-.07.01-.16.06-.27.05-.11.11-.19.2-.27.09-.07.19-.11.29-.12.32-.02.48-.03.79-.05.1,0,.17.02.2.09.03.06.02.15-.03.26-.05.11-.11.2-.18.28-.07.08-.16.15-.28.22-.03.02-.04.02-.06.04-.53.76-.79,1.14-1.31,1.9-.18.26-.34.45-.51.57-.16.12-.35.19-.58.21-.22.02-.37-.03-.43-.13-.07-.11-.07-.28,0-.54.09-.34.13-.5.22-.84.02-.08.04-.16.07-.25.03-.08.05-.16.07-.22.02-.08.05-.15.08-.22,0,0,0,0-.01,0-.03.07-.07.15-.11.23-.03.06-.07.14-.12.22-.04.09-.09.17-.14.25-.2.34-.3.51-.49.85-.15.26-.31.45-.48.57-.17.12-.37.19-.6.21-.12,0-.21,0-.29-.02-.07-.02-.13-.06-.17-.11-.04-.05-.06-.13-.07-.21,0-.09,0-.2.02-.32.12-.74.17-1.11.28-1.86Z"/><path class="cls-2" d="m37.12,77.16c.13-.29.28-.55.47-.79.18-.24.38-.45.59-.62.22-.17.45-.32.69-.42.25-.11.5-.17.75-.18.47-.03.76.1.86.38.1.28.03.68-.23,1.19-.14.28-.3.54-.49.78-.19.24-.39.45-.6.62-.22.17-.44.32-.68.42-.24.11-.48.17-.73.19-.45.03-.73-.09-.83-.37-.1-.28-.04-.68.2-1.2Zm1.19-.21c-.07.15-.12.28-.15.38-.03.1-.04.19-.03.26,0,.06.02.11.06.14.03.03.07.04.13.04.1,0,.22-.08.35-.2.13-.13.27-.34.41-.64.07-.15.12-.28.15-.38.03-.1.04-.19.04-.26s-.02-.12-.05-.14c-.03-.03-.08-.04-.13-.04-.11,0-.23.07-.36.2-.13.13-.27.34-.41.65Z"/><path class="cls-2" d="m41.17,76.03s-.06-.03-.1-.05c-.07-.03-.11-.08-.12-.13-.01-.05.01-.14.07-.25.06-.12.12-.21.19-.28.07-.07.15-.12.25-.16.1-.04.22-.08.36-.11.14-.03.27-.05.39-.06.17-.01.26.02.29.1.03.07,0,.2-.1.39-.03.05-.04.08-.07.13,0,0,0,0,0,0,.07-.09.15-.18.23-.27s.17-.16.26-.23c.09-.07.18-.13.28-.17.1-.04.2-.05.29-.09.11-.05.17-.04.17.02,0,.07-.05.18-.14.35-.07.13-.14.25-.22.37-.08.12-.16.23-.23.32-.08.1-.15.18-.22.24-.07.07-.13.11-.18.11-.03,0-.06,0-.07-.02-.01-.01-.03-.03-.03-.05,0-.02-.02-.03-.03-.05-.01-.01-.03-.02-.07-.02-.07,0-.17.05-.29.15-.25.49-.38.73-.63,1.22.05.03.07.04.11.07.07.04.1.09.11.14,0,.05-.02.13-.07.22-.06.12-.14.22-.24.3-.1.08-.2.12-.32.13-.45.03-.67.05-1.12.09-.11,0-.18-.02-.2-.09s0-.17.06-.29c.05-.1.11-.18.17-.24.06-.06.14-.11.25-.17.07-.04.1-.05.17-.09.32-.63.47-.95.79-1.58Z"/><path class="cls-2" d="m44.22,74.2s-.04,0-.07,0c-.06,0-.1-.03-.1-.07,0-.04.03-.12.09-.24s.13-.21.19-.29c.07-.08.15-.15.24-.22.1-.07.21-.14.34-.21.13-.07.26-.14.38-.19.17-.07.26-.07.28,0,.02.07-.03.21-.16.44-.51.92-.77,1.39-1.28,2.31.37-.38.56-.57.93-.95,0,0,0-.01-.02-.02-.02-.02-.03-.06-.02-.12.01-.05.04-.12.09-.21.06-.1.13-.2.22-.29.09-.09.18-.16.28-.2.34-.15.51-.23.84-.38.09-.04.15-.04.16,0,.02.04,0,.11-.06.21-.06.1-.13.19-.21.28-.08.09-.18.17-.29.26-.06.05-.09.07-.15.12-.33.33-.5.49-.83.82,0,.13,0,.19,0,.32,0,.06,0,.11,0,.16,0,.05,0,.09.02.12,0,.03.02.06.03.09.01.02.03.05.04.07.01.02.02.05.02.08,0,.03-.03.08-.06.15-.08.13-.19.26-.33.41-.15.14-.3.26-.47.34-.08.04-.16.07-.22.09-.06.02-.11.01-.15-.01-.04-.02-.06-.06-.07-.12-.01-.06,0-.15,0-.26.05-.3.07-.45.11-.75-.18.32-.26.48-.44.79,0,.01,0,.02,0,.03.01.05.01.09,0,.13,0,.04-.03.1-.08.19-.07.12-.15.23-.24.33-.1.1-.2.18-.3.23-.32.16-.48.24-.8.41-.1.05-.16.05-.17,0-.02-.05,0-.13.07-.25.05-.1.11-.19.17-.25.06-.07.14-.15.25-.24.05-.04.07-.07.13-.11.64-1.19.96-1.79,1.59-2.99Z"/></svg>