<?xml version="1.0" encoding="UTF-8"?><svg id="Layer_1" xmlns="http://www.w3.org/2000/svg" xmlns:xlink="http://www.w3.org/1999/xlink" viewBox="0 0 567.94 327.79"><defs><style>.cls-1{stroke:#182a42;stroke-miterlimit:10;stroke-width:1.5px;}.cls-1,.cls-2{fill:none;}.cls-3{clip-path:url(#clippath);}.cls-2,.cls-4,.cls-5,.cls-6{stroke-width:0px;}.cls-7{isolation:isolate;}.cls-4{fill:#95a1c6;}.cls-5{fill:#182a42;}.cls-6{fill:#ffeadc;}</style><clipPath id="clippath"><rect class="cls-2" x="412.99" y="2.12" width="179.89" height="189.66" transform="translate(128.82 446.78) rotate(-53.99)"/></clipPath></defs><g id="Employee_" class="cls-7"><g class="cls-7"><path class="cls-4" d="m20.19,179.64l-2.14-.76c-1.24-.51-2.12-1.06-2.62-1.66-.51-.6-.76-1.4-.76-2.42,0-.87.31-1.6.93-2.17s1.51-.86,2.66-.86h27.95c.92,0,1.67.1,2.24.31s1.07.52,1.48.93.69.91.83,1.48c.14.58.21,1.53.21,2.86v2.45c0,.48-.02,1.09-.07,1.83-.05,1.15-.37,1.99-.97,2.52-.6.53-1.38.79-2.35.79s-1.74-.23-2.31-.69c-.58-.46-1.05-1.17-1.41-2.14l-.97-2.76h-10.69v12.14h7.73l.62-1.66c.37-.83.8-1.41,1.31-1.76.5-.35,1.15-.52,1.93-.52.92,0,1.66.28,2.21.83.55.55.83,1.38.83,2.48v8c0,1.1-.28,1.93-.83,2.48s-1.29.83-2.21.83c-.78,0-1.43-.18-1.93-.55-.51-.37-.92-.94-1.24-1.73l-.69-1.66h-7.73v12.35h11.66l1.1-3.17c.32-.97.78-1.67,1.38-2.1.6-.44,1.36-.66,2.28-.66,1.01,0,1.82.25,2.42.76.6.51.92,1.33.97,2.48,0,.41.01.77.03,1.07.02.3.04.58.04.83v2.79c0,1.29-.07,2.23-.21,2.83-.14.6-.41,1.1-.83,1.52s-.91.72-1.48.93c-.58.21-1.35.31-2.31.31h-28.57c-1.29,0-2.28-.33-2.97-1-.69-.67-1.04-1.51-1.04-2.52,0-.92.23-1.62.69-2.1.46-.48,1.24-.93,2.35-1.35l2.48-.9v-30.7Z"/><path class="cls-4" d="m60.7,191.85l-2.42-.69c-1.06-.28-1.81-.66-2.24-1.14-.44-.48-.66-1.21-.66-2.17s.22-1.78.66-2.31c.44-.53,1.16-.95,2.17-1.28.97-.32,2.16-.6,3.59-.83,1.42-.23,2.83-.34,4.21-.34,1.89,0,3.22.38,4,1.14.78.76,1.17,2.01,1.17,3.76v.62l.14.07c.5-1.06,1.21-2,2.13-2.83.78-.74,1.85-1.4,3.2-2,1.35-.6,3.04-.9,5.06-.9,2.94,0,5.3.52,7.09,1.55,1.79,1.03,3.16,2.47,4.13,4.31.55-1.1,1.34-2.07,2.35-2.9.83-.74,1.94-1.41,3.32-2.04,1.38-.62,3.14-.93,5.26-.93,4.1,0,7.25,1.11,9.44,3.32,2.19,2.21,3.29,5.53,3.29,9.96v14.32l2,.75c1.06.41,1.78.85,2.17,1.33.39.48.59,1.17.59,2.09,0,1-.35,1.84-1.04,2.5-.69.66-1.66.99-2.9.99h-12.49c-1.24,0-2.22-.33-2.93-.99-.71-.66-1.07-1.49-1.07-2.5,0-.87.17-1.54.52-2.02.35-.48,1-.97,1.97-1.47l1.52-.68v-11.91c0-2.63-.46-4.48-1.39-5.54-.93-1.06-2.22-1.59-3.89-1.59-.83,0-1.57.15-2.22.45-.65.3-1.2.63-1.67,1-.56.41-1.02.87-1.39,1.38v.55c0,.19.01.42.04.69.02.28.03.58.03.9v14.07l1.52.68c.97.5,1.62.99,1.97,1.47s.52,1.15.52,2.02c0,1-.36,1.84-1.07,2.5-.71.66-1.71.99-2.99.99h-11.55c-1.28,0-2.27-.33-2.96-.99-.69-.66-1.03-1.49-1.03-2.5,0-.87.17-1.54.52-2.02.34-.48.98-.97,1.9-1.47l1.52-.68v-11.91c0-2.63-.45-4.48-1.35-5.54-.9-1.06-2.17-1.59-3.83-1.59-.83,0-1.56.14-2.21.41-.64.28-1.2.6-1.66.97-.51.41-.97.88-1.38,1.38v16.28l1.59.68c.92.5,1.55.99,1.9,1.47.35.48.52,1.15.52,2.02,0,1-.34,1.84-1.04,2.5-.69.66-1.68.99-2.97.99h-12.83c-1.29,0-2.28-.33-2.97-.99-.69-.66-1.04-1.49-1.04-2.5,0-.91.21-1.59.62-2.05s1.15-.89,2.21-1.3l2.35-.82v-18.7Z"/><path class="cls-4" d="m127.42,191.85l-2.07-.55c-1.06-.32-1.79-.74-2.21-1.24-.41-.5-.62-1.24-.62-2.21s.22-1.78.66-2.31c.44-.53,1.14-.95,2.11-1.28.51-.18,1.08-.34,1.7-.48.62-.14,1.26-.25,1.91-.35.65-.09,1.32-.17,2.01-.24s1.34-.1,1.94-.1c1.85,0,3.16.38,3.95,1.14.79.76,1.18,2.01,1.18,3.76v.62l.14.07c.5-1.06,1.24-2,2.2-2.83.78-.74,1.85-1.4,3.2-2,1.35-.6,3.06-.9,5.13-.9,4.17,0,7.49,1.35,9.94,4.04,2.45,2.69,3.68,6.84,3.68,12.45,0,3.08-.45,5.83-1.34,8.25-.89,2.42-2.18,4.45-3.85,6.11-1.67,1.66-3.75,2.93-6.23,3.83-2.48.9-5.32,1.35-8.53,1.35-.46,0-.88-.01-1.27-.03-.39-.02-.74-.08-1.06-.17-.32-.05-.62-.09-.9-.14l-.14.14c.04.28.08.65.1,1.11.02.46.03,1.04.03,1.74v4.74l2.48.82c1.06.41,1.78.84,2.17,1.3.39.46.59,1.14.59,2.05,0,1-.35,1.83-1.04,2.5-.69.66-1.66.99-2.91.99h-13.71c-1.29,0-2.29-.33-2.98-.99-.69-.66-1.04-1.49-1.04-2.5,0-.91.2-1.61.59-2.08.39-.48,1.07-.92,2.04-1.33l2.14-.75v-34.5Zm11.73,18.29c.27.18.62.35,1.03.48.32.09.71.17,1.17.24s1.01.1,1.65.1c2.29,0,4.07-.78,5.35-2.35,1.28-1.56,1.92-4.21,1.92-7.94,0-3.36-.56-5.73-1.68-7.11-1.12-1.38-2.5-2.07-4.15-2.07-.87,0-1.62.14-2.26.41s-1.19.6-1.65.97c-.55.41-1.01.88-1.37,1.38v15.87Z"/><path class="cls-4" d="m170.27,176.81l-2-.55c-1.06-.32-1.79-.74-2.21-1.24-.41-.5-.62-1.24-.62-2.21s.21-1.78.62-2.31c.41-.53,1.12-.95,2.13-1.28.92-.32,2.1-.59,3.54-.79s2.85-.31,4.23-.31c2.2,0,3.74.44,4.64,1.31.89.88,1.34,2.42,1.34,4.63v36.49l2,.75c1.01.41,1.73.85,2.14,1.33.41.48.62,1.17.62,2.09,0,1-.34,1.84-1.03,2.5-.69.66-1.67.99-2.96.99h-13.21c-1.24,0-2.2-.33-2.89-.99-.69-.66-1.03-1.49-1.03-2.5,0-.91.18-1.61.55-2.09.37-.48,1.06-.92,2.07-1.33l2.07-.75v-33.74Z"/><path class="cls-4" d="m190,201.99c0-2.85.46-5.46,1.38-7.83.92-2.37,2.23-4.38,3.93-6.04,1.7-1.66,3.77-2.94,6.21-3.86,2.44-.92,5.15-1.38,8.14-1.38,5.56,0,9.88,1.5,12.94,4.48,3.06,2.99,4.59,7.15,4.59,12.49,0,2.85-.45,5.46-1.35,7.83-.9,2.37-2.2,4.38-3.9,6.04-1.7,1.66-3.77,2.94-6.21,3.86-2.44.92-5.17,1.38-8.21,1.38-5.61,0-9.94-1.49-12.97-4.48s-4.55-7.15-4.55-12.49Zm12.01-1.17c0,1.7.18,3.2.55,4.48.37,1.29.85,2.35,1.45,3.17.6.83,1.31,1.44,2.14,1.83.83.39,1.68.59,2.55.59,1.84,0,3.38-.76,4.62-2.28,1.24-1.52,1.86-4.02,1.86-7.52,0-1.75-.18-3.27-.55-4.55-.37-1.29-.85-2.35-1.45-3.17-.6-.83-1.31-1.44-2.14-1.83-.83-.39-1.7-.59-2.62-.59-1.79,0-3.31.76-4.55,2.28-1.24,1.52-1.86,4.05-1.86,7.59Z"/><path class="cls-4" d="m232.4,191.3l-.9-.41c-1.1-.51-1.88-1.09-2.31-1.76-.44-.67-.66-1.48-.66-2.45s.31-1.66.93-2.21c.62-.55,1.51-.83,2.66-.83h12.63c1.1,0,1.98.28,2.62.83.64.55.97,1.29.97,2.21s-.24,1.69-.72,2.31-1.25,1.21-2.31,1.76l-.83.41,4.28,11.73c.28.83.53,1.62.76,2.38.23.76.44,1.44.62,2.04.18.69.37,1.33.55,1.93h.14c.18-.6.37-1.24.55-1.93.18-.6.39-1.29.62-2.07.23-.78.5-1.59.83-2.42l4.21-11.66-.83-.41c-1.06-.55-1.83-1.14-2.31-1.76-.48-.62-.72-1.39-.72-2.31s.32-1.66.97-2.21c.64-.55,1.52-.83,2.62-.83h10.28c1.1,0,1.98.28,2.62.83.64.55.97,1.29.97,2.21,0,.97-.22,1.78-.66,2.45-.44.67-1.21,1.25-2.31,1.76l-.9.41-8.76,21.87c-1.75,4.37-3.52,7.94-5.31,10.7s-3.62,4.92-5.49,6.49-3.74,2.63-5.62,3.21c-1.89.57-3.8.86-5.73.86-2.39,0-4.2-.5-5.42-1.48-1.22-.99-1.83-2.36-1.83-4.11,0-1.66.4-2.91,1.21-3.76.8-.85,1.74-1.28,2.79-1.28.51,0,.95.03,1.35.1.39.07.78.16,1.17.28.39.11.84.22,1.35.31.51.09,1.17.14,2,.14.69,0,1.31-.08,1.86-.24.55-.16,1.06-.39,1.52-.69.46-.3.89-.69,1.28-1.17s.75-1.07,1.07-1.76l-11.8-29.46Z"/><path class="cls-4" d="m283.56,203.1c.41,2.53,1.39,4.43,2.93,5.69,1.54,1.27,3.67,1.9,6.38,1.9,1.1,0,2.06-.06,2.86-.17.8-.11,1.51-.23,2.1-.34.6-.11,1.12-.23,1.55-.35.44-.11.86-.17,1.28-.17.83,0,1.48.25,1.97.76.48.51.72,1.2.72,2.07,0,.6-.09,1.12-.28,1.55-.18.44-.51.89-.97,1.35-.83.83-2.27,1.63-4.31,2.42-2.05.78-4.77,1.17-8.18,1.17-2.85,0-5.38-.39-7.59-1.17s-4.06-1.9-5.55-3.35c-1.5-1.45-2.63-3.22-3.42-5.31-.78-2.09-1.17-4.47-1.17-7.14,0-2.94.44-5.6,1.31-7.97.87-2.37,2.1-4.37,3.69-6,1.59-1.63,3.5-2.9,5.73-3.79,2.23-.9,4.7-1.35,7.42-1.35,4.69,0,8.3,1.24,10.83,3.73,2.53,2.48,3.79,5.98,3.79,10.49,0,2.03-.46,3.53-1.38,4.52-.92.99-2.23,1.48-3.93,1.48h-15.8Zm10.14-6.07c-.09-2.32-.56-3.98-1.42-4.98s-1.97-1.5-3.35-1.5c-1.47,0-2.67.57-3.59,1.71-.92,1.14-1.52,2.73-1.79,4.78h10.14Z"/><path class="cls-4" d="m321.58,203.1c.41,2.53,1.39,4.43,2.93,5.69,1.54,1.27,3.67,1.9,6.38,1.9,1.1,0,2.06-.06,2.86-.17.8-.11,1.51-.23,2.1-.34.6-.11,1.12-.23,1.55-.35.44-.11.86-.17,1.28-.17.83,0,1.48.25,1.97.76.48.51.72,1.2.72,2.07,0,.6-.09,1.12-.28,1.55-.18.44-.51.89-.97,1.35-.83.83-2.27,1.63-4.31,2.42-2.05.78-4.77,1.17-8.18,1.17-2.85,0-5.38-.39-7.59-1.17s-4.06-1.9-5.55-3.35c-1.5-1.45-2.63-3.22-3.42-5.31-.78-2.09-1.17-4.47-1.17-7.14,0-2.94.44-5.6,1.31-7.97.87-2.37,2.1-4.37,3.69-6,1.59-1.63,3.5-2.9,5.73-3.79,2.23-.9,4.7-1.35,7.42-1.35,4.69,0,8.3,1.24,10.83,3.73,2.53,2.48,3.79,5.98,3.79,10.49,0,2.03-.46,3.53-1.38,4.52-.92.99-2.23,1.48-3.93,1.48h-15.8Zm10.14-6.07c-.09-2.32-.56-3.98-1.42-4.98s-1.97-1.5-3.35-1.5c-1.47,0-2.67.57-3.59,1.71-.92,1.14-1.52,2.73-1.79,4.78h10.14Z"/></g></g><g id="of_the_month" class="cls-7"><g class="cls-7"><path class="cls-4" d="m107.16,254.58c0-2.56.41-4.91,1.24-7.04.83-2.13,2-3.94,3.53-5.42,1.53-1.49,3.39-2.64,5.58-3.47,2.19-.83,4.63-1.24,7.32-1.24,5,0,8.88,1.34,11.62,4.03,2.75,2.69,4.12,6.43,4.12,11.22,0,2.56-.4,4.91-1.21,7.04-.81,2.13-1.97,3.94-3.5,5.42-1.53,1.49-3.39,2.65-5.58,3.47-2.19.83-4.65,1.24-7.38,1.24-5.04,0-8.93-1.34-11.66-4.03s-4.09-6.43-4.09-11.22Zm10.79-1.05c0,1.53.16,2.87.5,4.03.33,1.16.76,2.11,1.3,2.85.54.74,1.18,1.29,1.92,1.64.74.35,1.51.53,2.29.53,1.65,0,3.04-.68,4.15-2.05s1.67-3.62,1.67-6.76c0-1.57-.17-2.93-.5-4.09-.33-1.16-.77-2.11-1.3-2.85-.54-.74-1.18-1.29-1.92-1.64-.74-.35-1.53-.53-2.36-.53-1.61,0-2.98.68-4.09,2.05-1.12,1.36-1.67,3.64-1.67,6.82Z"/><path class="cls-4" d="m148.58,244.97h-1.67c-2.15,0-3.22-.97-3.22-2.91,0-1.24.34-2.21,1.02-2.91.68-.7,1.62-1.05,2.82-1.05h1.05v-1.18c0-4.09,1.21-7.29,3.63-9.58s5.98-3.44,10.7-3.44c1.32,0,2.47.13,3.44.4.97.27,1.66.61,2.08,1.02.21.21.36.4.46.59.1.19.2.41.28.68.08.27.14.61.19,1.02.04.41.06.93.06,1.55v1.55c0,.33-.02.83-.06,1.49-.08.95-.37,1.62-.87,2.02s-1.14.59-1.92.59-1.36-.19-1.86-.56-.87-.95-1.12-1.74l-.68-1.92c-.08,0-.19-.02-.31-.06-.08,0-.2,0-.34-.03-.15-.02-.32-.03-.53-.03-.91,0-1.6.29-2.08.87-.48.58-.69,1.63-.65,3.16l.06,3.6h3.35c2.19,0,3.29.97,3.29,2.91,0,1.24-.35,2.21-1.05,2.91s-1.72,1.05-3.04,1.05h-2.54v17.3l2.48.8c.99.33,1.66.71,2.01,1.14.35.43.53,1.03.53,1.81,0,.9-.31,1.65-.93,2.24s-1.49.89-2.6.89h-13.02c-1.16,0-2.05-.3-2.67-.89s-.93-1.34-.93-2.24c0-.82.19-1.43.56-1.84s1.03-.8,1.98-1.17l2.11-.74v-17.3Z"/><path class="cls-4" d="m186.71,244.97h-1.36c-2.19,0-3.29-.97-3.29-2.91,0-1.24.34-2.21,1.02-2.91.68-.7,1.64-1.05,2.88-1.05h1.12l1.18-4.15c.45-1.61,1.1-2.75,1.95-3.41.85-.66,2.02-.99,3.5-.99,1.12,0,1.97.3,2.57.9.6.6.9,1.42.9,2.45v5.21h4.28c2.19,0,3.29.97,3.29,2.91,0,1.24-.34,2.21-1.02,2.91-.68.7-1.68,1.05-3.01,1.05h-3.54v12.09c0,1.98.26,3.34.78,4.06.52.72,1.27,1.08,2.26,1.08.62,0,1.12-.04,1.52-.12.39-.08.8-.12,1.21-.12.62,0,1.13.21,1.52.62.39.41.59.99.59,1.74,0,.62-.12,1.16-.34,1.61s-.55.89-.96,1.3c-.46.41-1.28.9-2.48,1.46-1.2.56-2.91.84-5.14.84-3.31,0-5.7-.87-7.19-2.6-1.49-1.74-2.23-4.32-2.23-7.75v-14.2Z"/><path class="cls-4" d="m210.64,231.95l-1.8-.5c-.95-.29-1.61-.66-1.98-1.12s-.56-1.12-.56-1.98.18-1.6.55-2.08c.37-.47,1.01-.86,1.91-1.15.82-.29,1.88-.53,3.18-.71,1.3-.19,2.56-.28,3.8-.28,1.98,0,3.36.39,4.17,1.18s1.21,2.17,1.21,4.15v6.32c0,.91-.04,1.86-.12,2.85-.08.99-.21,1.94-.37,2.85l.12.06c.54-.74,1.2-1.43,1.99-2.05.71-.5,1.62-.96,2.74-1.4,1.12-.43,2.51-.65,4.17-.65,3.77,0,6.64.99,8.61,2.98s2.96,4.97,2.96,8.95v12.87l1.8.68c.95.37,1.6.77,1.95,1.2.35.43.53,1.06.53,1.87,0,.9-.31,1.65-.93,2.24s-1.49.89-2.6.89h-11.28c-1.16,0-2.05-.3-2.67-.89s-.93-1.34-.93-2.24c0-.78.16-1.38.47-1.81.31-.43.88-.87,1.7-1.32l1.49-.61v-10.7c0-2.36-.42-4.02-1.25-4.98-.83-.95-2.02-1.43-3.56-1.43-.79,0-1.48.12-2.06.37-.58.25-1.08.54-1.5.87-.5.37-.92.79-1.25,1.24v14.63l1.49.61c.83.45,1.4.89,1.71,1.32.31.43.46,1.03.46,1.81,0,.9-.31,1.65-.93,2.24s-1.5.89-2.66.89h-11.25c-1.11,0-1.98-.3-2.6-.89s-.93-1.34-.93-2.24c0-.82.16-1.44.5-1.87.33-.43.95-.83,1.86-1.2l1.86-.68v-30.32Z"/><path class="cls-4" d="m258.69,255.57c.37,2.27,1.25,3.98,2.63,5.12s3.3,1.71,5.74,1.71c.99,0,1.85-.05,2.57-.16.72-.1,1.35-.21,1.89-.31.54-.1,1-.21,1.4-.31.39-.1.77-.16,1.15-.16.74,0,1.33.23,1.77.68.43.46.65,1.08.65,1.86,0,.54-.08,1-.25,1.4-.17.39-.46.8-.87,1.21-.74.74-2.04,1.47-3.88,2.17s-4.29,1.05-7.35,1.05c-2.56,0-4.84-.35-6.82-1.05-1.98-.7-3.65-1.71-4.99-3.01-1.34-1.3-2.37-2.89-3.07-4.77-.7-1.88-1.05-4.02-1.05-6.42,0-2.64.39-5.03,1.18-7.16.78-2.13,1.89-3.93,3.32-5.39,1.43-1.47,3.14-2.6,5.15-3.41,2-.81,4.23-1.21,6.67-1.21,4.22,0,7.46,1.12,9.73,3.35,2.27,2.23,3.41,5.37,3.41,9.42,0,1.82-.41,3.17-1.24,4.06-.83.89-2.01,1.33-3.53,1.33h-14.2Zm9.11-5.46c-.08-2.09-.51-3.58-1.27-4.48-.76-.9-1.77-1.35-3.01-1.35-1.32,0-2.4.51-3.22,1.53-.83,1.02-1.36,2.45-1.61,4.29h9.11Z"/><path class="cls-4" d="m301.28,245.46l-2.17-.62c-.95-.25-1.62-.59-2.01-1.02-.39-.43-.59-1.08-.59-1.95s.2-1.6.59-2.08c.39-.47,1.04-.86,1.95-1.15.87-.29,1.94-.54,3.22-.74,1.28-.21,2.54-.31,3.78-.31,1.69,0,2.89.34,3.6,1.02.7.68,1.05,1.81,1.05,3.38v.56l.12.06c.45-.95,1.09-1.8,1.92-2.54.7-.66,1.66-1.26,2.88-1.8,1.22-.54,2.73-.81,4.54-.81,2.64,0,4.76.46,6.37,1.39,1.61.93,2.84,2.22,3.71,3.88.5-.99,1.2-1.86,2.11-2.6.75-.66,1.74-1.27,2.98-1.83,1.24-.56,2.82-.84,4.72-.84,3.69,0,6.52.99,8.48,2.98s2.95,4.97,2.95,8.95v12.87l1.8.68c.95.37,1.6.77,1.95,1.2.35.43.53,1.06.53,1.87,0,.9-.31,1.65-.93,2.24s-1.49.89-2.6.89h-11.22c-1.12,0-1.99-.3-2.63-.89-.64-.59-.96-1.34-.96-2.24,0-.78.16-1.38.46-1.81.31-.43.9-.87,1.77-1.32l1.36-.61v-10.7c0-2.36-.42-4.02-1.25-4.98-.83-.95-2-1.43-3.5-1.43-.75,0-1.42.13-2,.4-.58.27-1.08.57-1.5.9-.5.37-.92.79-1.25,1.24v.5c0,.17,0,.37.03.62.02.25.03.52.03.81v12.64l1.36.61c.87.45,1.46.89,1.77,1.32.31.43.46,1.03.46,1.81,0,.9-.32,1.65-.96,2.24-.64.59-1.53.89-2.69.89h-10.38c-1.15,0-2.04-.3-2.66-.89s-.93-1.34-.93-2.24c0-.78.15-1.38.46-1.81.31-.43.88-.87,1.71-1.32l1.36-.61v-10.7c0-2.36-.4-4.02-1.21-4.98-.81-.95-1.95-1.43-3.44-1.43-.74,0-1.41.12-1.98.37s-1.08.54-1.49.87c-.46.37-.87.79-1.24,1.24v14.63l1.43.61c.83.45,1.4.89,1.71,1.32.31.43.46,1.03.46,1.81,0,.9-.31,1.65-.93,2.24s-1.51.89-2.67.89h-11.53c-1.16,0-2.05-.3-2.67-.89s-.93-1.34-.93-2.24c0-.82.19-1.43.56-1.84s1.03-.8,1.98-1.17l2.11-.74v-16.8Z"/><path class="cls-4" d="m358.51,254.58c0-2.56.41-4.91,1.24-7.04.83-2.13,2-3.94,3.53-5.42,1.53-1.49,3.39-2.64,5.58-3.47,2.19-.83,4.63-1.24,7.32-1.24,5,0,8.88,1.34,11.62,4.03,2.75,2.69,4.12,6.43,4.12,11.22,0,2.56-.4,4.91-1.21,7.04-.81,2.13-1.97,3.94-3.5,5.42-1.53,1.49-3.39,2.65-5.58,3.47-2.19.83-4.65,1.24-7.38,1.24-5.04,0-8.93-1.34-11.66-4.03-2.73-2.69-4.09-6.43-4.09-11.22Zm10.79-1.05c0,1.53.17,2.87.5,4.03s.76,2.11,1.3,2.85c.54.74,1.18,1.29,1.92,1.64.74.35,1.51.53,2.29.53,1.65,0,3.04-.68,4.15-2.05,1.12-1.36,1.67-3.62,1.67-6.76,0-1.57-.17-2.93-.5-4.09-.33-1.16-.77-2.11-1.3-2.85-.54-.74-1.18-1.29-1.92-1.64-.74-.35-1.53-.53-2.36-.53-1.61,0-2.98.68-4.09,2.05-1.12,1.36-1.67,3.64-1.67,6.82Z"/><path class="cls-4" d="m399.92,245.46l-2.17-.62c-.95-.25-1.62-.59-2.01-1.02-.39-.43-.59-1.08-.59-1.95s.2-1.6.59-2.08c.39-.47,1.04-.86,1.95-1.15.87-.29,1.94-.54,3.22-.74,1.28-.21,2.54-.31,3.78-.31,1.69,0,2.89.34,3.6,1.02.7.68,1.05,1.81,1.05,3.38v.56l.12.06c.45-.95,1.12-1.8,1.98-2.54.7-.66,1.66-1.26,2.88-1.8,1.22-.54,2.76-.81,4.62-.81,3.76,0,6.62.99,8.59,2.98s2.95,4.97,2.95,8.95v12.87l1.8.68c.95.37,1.6.77,1.95,1.2.35.43.53,1.06.53,1.87,0,.9-.31,1.65-.93,2.24s-1.51.89-2.67.89h-11.22c-1.16,0-2.06-.3-2.7-.89s-.96-1.34-.96-2.24c0-.78.16-1.38.46-1.81.31-.43.9-.87,1.77-1.32l1.49-.61v-10.7c0-2.36-.41-4.02-1.24-4.98-.83-.95-2.01-1.43-3.53-1.43-.79,0-1.48.12-2.08.37-.6.25-1.11.54-1.52.87-.46.37-.87.79-1.24,1.24v14.63l1.49.61c.87.45,1.46.89,1.77,1.32.31.43.46,1.03.46,1.81,0,.9-.32,1.65-.96,2.24-.64.59-1.54.89-2.7.89h-11.59c-1.16,0-2.05-.3-2.67-.89s-.93-1.34-.93-2.24c0-.82.19-1.43.56-1.84s1.03-.8,1.98-1.17l2.11-.74v-16.8Z"/><path class="cls-4" d="m440.04,244.97h-1.36c-2.19,0-3.29-.97-3.29-2.91,0-1.24.34-2.21,1.02-2.91.68-.7,1.64-1.05,2.88-1.05h1.12l1.18-4.15c.45-1.61,1.11-2.75,1.95-3.41.85-.66,2.01-.99,3.5-.99,1.12,0,1.97.3,2.57.9.6.6.9,1.42.9,2.45v5.21h4.28c2.19,0,3.29.97,3.29,2.91,0,1.24-.34,2.21-1.02,2.91-.68.7-1.68,1.05-3.01,1.05h-3.53v12.09c0,1.98.26,3.34.78,4.06.52.72,1.27,1.08,2.26,1.08.62,0,1.13-.04,1.52-.12.39-.08.8-.12,1.21-.12.62,0,1.13.21,1.52.62.39.41.59.99.59,1.74,0,.62-.11,1.16-.34,1.61-.23.46-.55.89-.96,1.3-.46.41-1.28.9-2.48,1.46-1.2.56-2.91.84-5.15.84-3.31,0-5.7-.87-7.19-2.6-1.49-1.74-2.23-4.32-2.23-7.75v-14.2Z"/><path class="cls-4" d="m463.97,231.95l-1.8-.5c-.95-.29-1.61-.66-1.98-1.12s-.56-1.12-.56-1.98.18-1.6.55-2.08c.37-.47,1.01-.86,1.91-1.15.82-.29,1.88-.53,3.18-.71,1.3-.19,2.56-.28,3.8-.28,1.98,0,3.36.39,4.17,1.18s1.21,2.17,1.21,4.15v6.32c0,.91-.04,1.86-.12,2.85-.08.99-.21,1.94-.37,2.85l.12.06c.54-.74,1.2-1.43,1.99-2.05.71-.5,1.62-.96,2.74-1.4,1.12-.43,2.51-.65,4.17-.65,3.77,0,6.64.99,8.61,2.98s2.96,4.97,2.96,8.95v12.87l1.8.68c.95.37,1.6.77,1.95,1.2.35.43.53,1.06.53,1.87,0,.9-.31,1.65-.93,2.24s-1.49.89-2.6.89h-11.28c-1.16,0-2.05-.3-2.67-.89s-.93-1.34-.93-2.24c0-.78.16-1.38.47-1.81.31-.43.88-.87,1.7-1.32l1.49-.61v-10.7c0-2.36-.42-4.02-1.25-4.98-.83-.95-2.02-1.43-3.56-1.43-.79,0-1.48.12-2.06.37-.58.25-1.08.54-1.5.87-.5.37-.92.79-1.25,1.24v14.63l1.49.61c.83.45,1.4.89,1.71,1.32.31.43.46,1.03.46,1.81,0,.9-.31,1.65-.93,2.24s-1.5.89-2.66.89h-11.25c-1.11,0-1.98-.3-2.6-.89s-.93-1.34-.93-2.24c0-.82.16-1.44.5-1.87.33-.43.95-.83,1.86-1.2l1.86-.68v-30.32Z"/></g></g><g id="Group_292"><g class="cls-3"><g id="Group_125"><path id="Path_3620" class="cls-6" d="m529.99,164.67c.78-1.44,2.22-1.5,3.58-1.75,6.52-1.21,13.16-1.73,19.61-3.35.6-.06,1.2-.03,1.79.08,4.04.19,5.7-1.29,5.53-5.37-.2-5.06-.68-10.12-.99-15.17-.74-11.91-3.69-23.42-7.67-34.51-4.67-13.01-9.07-26.2-15.83-38.38-2.77-4.98-5.95-9.71-9.52-14.16-1.83-2.29-3.36-4.79-5.27-6.99-1.75-2.01-1.59-3.64-.06-5.72,3.85-5.23,8.68-9.5,13.23-14.05,1.96-1.96,4.63-3.9,3.14-7.01-1.45-3.04-4.63-3.04-7.65-2.84-7.21.66-14.47.38-21.6-.84-9.66-1.92-19.47-3.05-29.32-3.35-4.42-.11-8.77-1.65-13.29-1.25-.76.06-1.55-.03-2.3.06-2.87.37-3.27.82-3.32,3.81-.02,1.19.56,2.63-1.52,2.57.28,2.14.41,4.3.37,6.46-.13,4.48.36,8.97,1.45,13.32,1.7,7.22,2.86,14.55,3.48,21.93.53,5.83,1.91,14.22,2.65,20.02,3.36,1.62,4.41-1.11,6.54-4.18,3.27-4.71,8.03-7.55,12.44-10.86,1.25-.93,2.45-1.41,3.77-.43,3.3,2.46,5.12,5.84,6.9,10.05,5.62,13.33,13.26,25.61,18.16,39.24,1.3,3.63,1.77,7.9,2.35,11.73,1.63,10.68,5.04,19.77,6.73,30.44.19,1.22.67,2.52.43,3.65-.74,3.5-2,6.6.65,8.29l2.91-1.14,1.37-.22h-.07c.46-.06.91-.13,1.37-.21l-.05.12Z"/><path id="Path_3621" class="cls-4" d="m527.46,165.07c-.87.65-1.92,1.02-3.01,1.05-.87.28-1.8-.19-2.09-1.06-.07-.21-.09-.43-.08-.65-.12-1.08-.3-2.14-.47-3.21-3.05-19.38-7.23-38.56-12.51-57.45-3.11-11.5-7.86-22.5-14.1-32.65-5.29-8.36-9.88-8.38-16.04-.53-2.78,3.54-2.96,4.44-.52,8.25,7.33,11.45,11.37,24.28,15.83,36.95.26.56.42,1.16.45,1.78-.66,9.54,2.33,18.64,3.44,27.96.53,4.44,1.14,8.77.65,13.31-.9,8.47.25,16.96.73,25.43.21,3.79-.75,7.58.87,11.42,1.06,2.53,2.38,3.92,4.95,3.98,7.59.18,15.04,1.66,22.59,2.2,3.24.27,6.49.13,9.69-.41,2.67-.29,4.87-2.23,5.5-4.85,2.8-9.23,8.29-17.14,12.87-25.49.7-1.01,1.35-2.06,1.92-3.15,1.6-4.03-.49-6.85-4.82-6.35-3.53.41-7,1.27-10.52,1.72-4.26.53-8.43,2-12.81,1.36l.05-.12c-.35.39-.92.48-1.37.22h.07c-.35.38-.92.47-1.37.21l.08.09Z"/><path id="Path_3622" class="cls-4" d="m466.02,75.59c-.74-5.81-1.65-11.6-2.18-17.43-.62-7.39-1.78-14.72-3.48-21.93-1.09-4.35-1.57-8.83-1.45-13.32.04-2.16-.08-4.32-.37-6.46-3.75-2.33-4.81-2.18-7.29,1.01-.73,1.18-1.6,2.26-2.6,3.22-5.38,4.08-6.27,9.81-5.34,15.78,1.54,9.88,3.43,19.72,5.52,29.5,1.16,5.43,2.12,10.89,2.9,16.36.39,2.75.6,5.64,3.95,6.63,3.21.94,4.71-1.51,6.54-3.31,2.63-2.66,4.02-6.32,3.81-10.06"/><path id="Path_3623" class="cls-5" d="m543.85,199.2c7.51-11.64,13.67-24.11,18.35-37.15.67-2.06.94-4.23.8-6.39-1.31-35.94-9.85-69.62-30.97-99.41-2.61-3.64-5.46-7.1-8.54-10.35-1.41-1.5-1.27-2.53.11-3.85,6.93-6.65,12.4-14.58,18.84-21.66,2.03-2.23,1.49-3.93-1.47-4.59-3.3-.83-6.65-1.39-10.04-1.68-20.98-1.17-41.77-4.27-62.68-6.13-10.08-.9-10.12-.74-17.81,5.83-2.46,2.11-4.77,4.39-7.14,6.61-2.07,1.94-2.67,4.32-2.54,7.13.81,15.6,3,31.09,6.56,46.29,1.44,5.85,2.5,11.79,3.19,17.77.37,3.74,1.85,4.52,5.16,2.78,2.22-1.17,3.73-3.21,5.58-4.83,3.73-3.25,7.27-6.69,10.99-9.95,1.95-1.71,2.55-1.58,3.89.73,2.04,3.64,3.82,7.42,5.32,11.31,8.95,22.12,14.37,44.93,14.68,68.95.15,12.19,1.24,24.36-.15,36.55-.53,4.67.66,5.77,5.49,5.7,12.67-.18,25.33-.51,37.99-.74,1.96.15,3.77-1.06,4.38-2.93m-7.25-179.31c-2.66,3.66-5.51,7.18-8.55,10.54-3.36,3.83-6.94,7.46-10.04,11.52-1.36,1.77-1.53,2.88.18,4.66,4.18,4.33,7.98,9.03,11.34,14.02,19.04,28.48,27.33,60.22,28.69,94.08.01.31-.03.62,0,.93.28,2.4-.51,3.68-3.18,3.9-3.23.29-6.45.8-9.61,1.53-5.57,1.25-11.41.75-16.85,2.91-3.17,1.25-3.49.91-3.92-2.75-1.66-14.3-4.46-28.4-7.5-42.45-3.69-17.06-9.87-33.13-19.73-47.67-1.76-2.73-3.94-5.16-6.45-7.22-3.02-2.38-3.78-2.44-6.84,0-4.83,3.85-9.54,7.85-14.34,11.73-.74.59-1.31,1.9-2.8,1.09-.52-4.05-.95-8.2-1.61-12.3-2.57-15.89-2.68-32.03-4.8-47.98-.52-3.91-.18-4.08,4.06-3.85,7.71.43,15.42.82,23.04,2.25,7.76,1.4,15.6,2.23,23.48,2.47,6.79.25,13.59.52,20.34,1.4,1.63.21,3.35.19,5.09,1.19m-35.33,171.96c.19-3.46.37-6.37.51-9.27.53-10.51-1.01-20.92-1.39-31.4-.89-24.46-8.05-47.34-18.41-69.34-1.1-2.34-3.85-4.48-3.27-6.86.61-2.54,3.87-3.77,5.75-5.8.2-.22.47-.4.69-.61,1.36-1.39,2.62-1.15,4.01.07,1.68,1.59,3.15,3.38,4.38,5.34,7.96,11.8,13.78,24.91,17.18,38.74,4.17,16.63,7.3,33.5,9.38,50.51.44,2.75-.3,5.56-2.03,7.74-4.2,5.53-8.23,11.2-12.37,16.78-1.08,1.45-1.98,3.14-4.43,4.11m54.58-28.17c.12,1.6.24,1.94.14,2.19-4,10.6-9.74,20.29-15.59,29.93-1.09,1.79-2.6,1.86-4.35,1.87-9.58.08-19.15.22-28.72.29-.98,0-2.18.53-2.99-.83,6.43-8.04,11.93-16.79,18.02-25.13,1.14-1.56,2.65-1.93,4.23-2.52,6-2.24,12.38-2.48,18.58-3.59,3.48-.63,6.92-1.43,10.67-2.21M454.97,16.26c.75,1.26,1.14,2.71,1.12,4.18,2.15,17.93,2.8,36.01,5.7,53.86.17,1.06.17,2.15.24,3.23.36,5.81-.96,7.86-6.88,10.4-.68-3.51-1.13-7.03-2.05-10.42-3.01-11.06-4.56-22.38-6.32-33.66-.76-4.88-1.07-9.82-1.54-14.73-.15-1.54-.4-3.33.62-4.49,2.69-3.06,5.38-6.21,9.12-8.38"/><path id="Path_3624" class="cls-1" d="m543.85,199.2c7.51-11.64,13.67-24.11,18.35-37.15.67-2.06.94-4.23.8-6.39-1.31-35.94-9.85-69.62-30.97-99.41-2.61-3.64-5.46-7.1-8.54-10.35-1.41-1.5-1.27-2.53.11-3.85,6.93-6.65,12.4-14.58,18.84-21.66,2.03-2.23,1.49-3.93-1.47-4.59-3.3-.83-6.65-1.39-10.04-1.68-20.98-1.17-41.77-4.27-62.68-6.13-10.08-.9-10.12-.74-17.81,5.83-2.46,2.11-4.77,4.39-7.14,6.61-2.07,1.94-2.67,4.32-2.54,7.13.81,15.6,3,31.09,6.56,46.29,1.44,5.85,2.5,11.79,3.19,17.77.37,3.74,1.85,4.52,5.16,2.78,2.22-1.17,3.73-3.21,5.58-4.83,3.73-3.25,7.27-6.69,10.99-9.95,1.95-1.71,2.55-1.58,3.89.73,2.04,3.64,3.82,7.42,5.32,11.31,8.95,22.12,14.37,44.93,14.68,68.95.15,12.19,1.24,24.36-.15,36.55-.53,4.67.66,5.77,5.49,5.7,12.67-.18,25.33-.51,37.99-.74,1.96.15,3.77-1.06,4.39-2.93Zm-7.25-179.31c-2.66,3.66-5.51,7.18-8.55,10.54-3.36,3.83-6.94,7.46-10.04,11.52-1.36,1.77-1.53,2.88.18,4.66,4.18,4.33,7.98,9.03,11.34,14.02,19.04,28.48,27.33,60.22,28.69,94.08.01.31-.03.62,0,.93.28,2.4-.51,3.68-3.18,3.9-3.23.29-6.45.8-9.61,1.53-5.57,1.25-11.41.75-16.85,2.91-3.17,1.25-3.49.91-3.92-2.75-1.66-14.3-4.46-28.4-7.5-42.45-3.69-17.06-9.87-33.13-19.73-47.67-1.76-2.73-3.94-5.16-6.45-7.22-3.02-2.38-3.78-2.44-6.84,0-4.83,3.85-9.54,7.85-14.34,11.73-.74.59-1.31,1.9-2.8,1.09-.52-4.05-.95-8.2-1.61-12.3-2.57-15.89-2.68-32.03-4.8-47.98-.52-3.91-.18-4.08,4.06-3.85,7.71.43,15.42.82,23.04,2.25,7.76,1.4,15.6,2.23,23.48,2.47,6.79.25,13.59.52,20.34,1.4,1.63.21,3.35.19,5.09,1.19Zm-35.33,171.96c.19-3.46.37-6.37.51-9.27.53-10.51-1.01-20.92-1.39-31.4-.89-24.46-8.05-47.34-18.41-69.34-1.1-2.34-3.85-4.48-3.27-6.86.61-2.54,3.87-3.77,5.75-5.8.2-.22.47-.4.69-.61,1.36-1.39,2.62-1.15,4.01.07,1.68,1.59,3.15,3.38,4.38,5.34,7.96,11.8,13.78,24.91,17.18,38.74,4.17,16.63,7.3,33.5,9.38,50.51.44,2.75-.3,5.56-2.03,7.74-4.2,5.53-8.23,11.2-12.37,16.78-1.08,1.46-1.97,3.14-4.42,4.11Zm54.58-28.17c.12,1.6.24,1.94.14,2.19-4,10.6-9.74,20.29-15.59,29.93-1.09,1.79-2.6,1.86-4.35,1.87-9.58.08-19.15.22-28.72.29-.98,0-2.18.53-2.99-.83,6.43-8.04,11.93-16.79,18.02-25.13,1.14-1.56,2.65-1.93,4.23-2.52,6-2.24,12.38-2.48,18.58-3.59,3.48-.62,6.93-1.43,10.67-2.21ZM454.97,16.26c.75,1.26,1.14,2.71,1.12,4.18,2.15,17.93,2.8,36.01,5.7,53.86.17,1.06.17,2.15.24,3.23.36,5.81-.96,7.86-6.88,10.4-.68-3.51-1.13-7.03-2.05-10.42-3.01-11.06-4.56-22.38-6.32-33.66-.76-4.88-1.07-9.82-1.54-14.73-.15-1.54-.4-3.33.62-4.49,2.69-3.06,5.38-6.2,9.11-8.37Z"/><path id="Path_3625" class="cls-5" d="m547.95,145.93c.73.54,1.76.37,2.3-.36.1-.14.19-.3.24-.47.33-.86.45-1.79.37-2.7-.17-2.93-.27-5.88-.71-8.78-2.48-16.05-6.75-31.76-12.76-46.85-.56-1.42-1.02-2.94-2.31-3.95-.92-.72-1.92-1.12-2.95-.33-.8.55-1.11,1.57-.77,2.47.2.58.5,1.13.74,1.69,5.83,13.55,9.44,27.77,12.73,42.08.95,4.54,1.52,9.15,1.72,13.79.08,1.23.06,2.5,1.4,3.41"/><path id="Path_3626" class="cls-5" d="m466.26,22.75c-.5.79-.66,1.74-.46,2.65.29,5.09.56,10.17.84,15.26.02.62.09,1.23.2,1.84.09,1.12,1.06,1.95,2.18,1.86.02,0,.04,0,.06,0,.96-.07,1.75-.81,1.89-1.77.12-.45.18-.91.17-1.37-.35-5.55-.72-11.09-1.11-16.63-.07-.61-.28-1.2-.62-1.71-.57-.89-1.76-1.15-2.65-.58-.19.12-.36.28-.49.46"/><path id="Path_3627" class="cls-5" d="m527.56,73.89c-.68-.58-1.7-.5-2.28.17-.05.06-.1.12-.14.19-.89,1.24-.49,2.33.7,3.13.68.58,1.71.5,2.29-.18.05-.06.09-.12.14-.18.87-1.23.51-2.3-.7-3.13"/><path id="Path_3628" class="cls-5" d="m468.78,56.29c.73.44,1.68.22,2.13-.51.68-.71.65-1.83-.06-2.51-.11-.11-.24-.2-.38-.28-.66-.6-1.69-.56-2.29.1-.06.06-.11.13-.15.19-.79,1.01-.65,2,.74,3"/></g></g></g><path class="cls-5" d="m35.77,299.53h-.05v-.98l-.11-.89.16-.86-.16-.73.13-1.38-.08-.24-.13-.81.3-1.21-.14-.19v-2.16l.05-.65-.1-.54v-1.65l.08-.86-.17-.76.09-1.13-.03-.08-.22-.22h-2.18l-1.51-.1-.33.13h-3.7l-2.29-.19-.87.27-.45-.13-.73.05-.89-.16-.76.16-.89-.22-1.03.14-.67-.08-.76.57.14,1.13-.08,1.3.1.72-.13.76.05.65.25,1.29-.22.38.08.97-.16,1.87.05.48v.86l-.13.79.19,1.1v.98l.21,1.18-.21,1.14v.32l-.24,1.08.13,1.14.24,1.05-.35,1.4.03.11.13.11-.21,1.51.29.75.11,1.44-.27.48v1.16l.08.08v3.51l.03.16.27.33.62-.08.81.08h.78l1.25.11.89-.25,1.32.16h4.64l1.41.3.56-.35h.62l.79-.08h.67l1.57-.11.2.06.28.08.6-.54v-1.76l-.11-1.1-.06-.57.22-.54-.08-.33v-1.37l-.08-.33v-2.16l.19-.97-.27-.81.16-1.48v-1.19l-.08-.7.22-1.32-.06-.08Zm-9.88-7.16v-.51l.33-.54.43-.27h1.1l.81.54v.67l-.19.6-.16.73-.48.16-.49.08-.86-.19-.33-.21-.16-.41-.05-.57.05-.08Zm6.29,15.5l-.3.35-.62.08-.4-.14-.54.06h-1.3l-.43.13-.43-.08-1.24.11-1.16-.14h-.57l-.54.14-.35-.05-1.03-.09-.51.14-.54-.05-.38-.44.06-.75.27-.38,1.18-.3h.65l.46.06h.59l.84.1.24-.05.22-.19-.22-.48-.05-.33.05-.67-.1-.52.16-.51-.11-.48v-1.22l.11-.81-.11-1,.08-.51-.05-.65.19-.51v-.41l-.17-.18-.48.08-.54.16-.51.08-.6-.14-.38.08h-1.24l-.4-.1-.06-.81-.1-.49.48-.46.41-.05.81.16.32-.08h1.24l.03.03h.86l.19-.19.92.13.16-.08.95.19.18,1.35-.1.78-.08,1.16.08.6v1.4l-.08.11.08,1.02-.08.25.18,1.1-.13.79v.73l-.14.4.33.24.38.08.62-.13h.81l1.16-.08.51.08.19.22.11.64-.08.33.05.19Z"/><path class="cls-5" d="m35.77,299.53h-.05v-.98l-.11-.89.16-.86-.16-.73.13-1.38-.08-.24-.13-.81.3-1.21-.14-.19v-2.16l.05-.65-.1-.54v-1.65l.08-.86-.17-.76.09-1.13-.03-.08-.22-.22h-.29l-.57.41.14,1.02v.52l-.11,1.21.14.7-.11.57v.57l.19.89v1.24l-.03-.03-.11.44v.8l-.11,1.41.08.11v.83l-.16.89.22,1.22v.81l.11,1.27-.11,1.43-.33,1.4.27,1,.14.81-.32,1.57.1.37.14.25-.11.83.24,1.11-.1.73-.19.51v2.81l.13,1.67v.81l.2.33.28.08.6-.54v-1.76l-.11-1.1-.06-.57.22-.54-.08-.33v-1.37l-.08-.33v-2.16l.19-.97-.27-.81.16-1.48v-1.19l-.08-.7.22-1.32-.06-.08Z"/><path class="cls-5" d="m115.7,299.07l-.08-1.06v-1.13l-.17-1.19.09-.62v-1.75l.1-1.35-.05-.87.08-.7-.19-1.48.14-.84-.11-.86.08-1.16-.14-1.24.51-.38-.19-.06h-1.7l-1.45-.1-.11.08h-3.78l-1.51-.11h-1.14l-.08.11h-1.1l-.63.05-1.43-.22-.08.03-.11.14-1.26-.3-.11.05-.19.25-.95-.14-.73.38v2.32l.17,1.11-.17.64v.76l.25,1.08-.19.54.05.76-.13,1.89v1.13l.05.51-.11.57.17.86-.06.73.25,1.81-.22.68.05.48-.35,1.43.24.7v.41l.19.92-.29,1.13.19.65-.09.75-.16.89.33.92v1.13l-.19.54.05.3v2.43l.06.76v1.16l-.03.13.19.3.78-.08,2.89.21.92-.24.73.14h1.72l1,.08h1.35l.84-.14.86.06.7.1,1.03-.13.14.03.94-.17h2.19l-.21-.32-.11-1.08v-2.94l.08-.95.21-.21-.13-1.46-.22-.62.11-.86.14-.3-.22-.73.27-1.35-.16-.81v-.86l-.14-.49.3-1.08-.11-.51.22-.78-.08-.46Zm-1.44,8.53l-.19.32-.29.32-.71.17-.4-.17-.41-.62.14-.46-.14-.51-.1-1,.24-.54v-.51l-.22-1,.08-.94-.18-.25.21-.75-.19-1.35.11-.81-.11-.68-.29-.37-.22-.19-.68-.16-.81.32-1.18.43-.3.35.27.43.19.84-.08,1,.08.32-.11.41.08.97-.08.24v.84l.14.81-.22.24.16,1.14-.16.32.05.73-.13.7-.78.22-.68-.11-.27-.78-.08-.81v-.63l-.08-.16v-.75l.16-.57-.03-.3-.1-1.37.13-.44-.08-1.13.14-1.05-.19-.68-.08-.59-.14-.32-.27-.33-.38-.24-.29.05-.22-.05-.81.35-.14.11-.78.24-.3.27.3,1.03-.21.59.13.73v2.19l-.05.51.19.92-.14.64-.05.81.19.44-.3.94-.16.22-.76.27-.38-.11-.59-.51.08-.49-.05-.4v-1.41l.13-.05-.13-1.73.1-.11-.13-.97.05-.35-.05-.51.13-.41-.1-.43v-1.94l-.11-.27.16-.95v-.7l-.13-.11.81-.59,1.05.32-.16.73.18.49.33-.54.4-.3.27-.27.38-.11.81-.38.6-.16.97.33.75.51.3.3.19.37.11.54.32-.02.24-.71.22-.29.24-.11.33-.43.73-.27.83-.14h.49l.29.19,1.03.41.22.46.48.94.27,1.08-.11,1.05v1.51l.11.95-.08.86.08.84-.21.94.08.87.19.38-.14.89Z"/><path class="cls-5" d="m84.21,311.67l.24-1.18-.27-.76v-.49l-.13-.73.13-1.24v-1.4l.25-1.16-.3-.6.08-1.32-.11-1.54.19-1v-1.29l-.22-1.03.27-1.4-.21-.54.13-1.19-.24-1.05.32-1.08-.21-.57v-.97l-.08-1.05.16-.22-.11-.83v-1.27l-.11-1,.25-.41-.11-.48v-1.27l-.16-.22h-2.46l-1.21-.08-.44.14-1.08-.08h-3.37l-1.13-.08-.3.02-.81.19-1.43-.13-1.13-.17-.3.17-1.05-.22-.87.16-.75-.08-.79.6.14,1.24-.08,1.16.1.86-.13.84.19,1.48-.08.7.05.87-.11,1.35v1.75l-.08.62.16,1.19v1.13l.09,1.06.08.46-.22.78.11.51-.3,1.08.14.49v.86l.16.81-.27,1.35.21.73-.13.3-.11.86.22.62.13,1.46-.21.21-.08.95v2.94l.1,1.08.33.49.89-.11,1.48.13h8.18l.7.08,1.41-.16.32.03,1.89-.19.76.14.67-.09.7-.43-.05-.75v-2.03Zm-2.24-3.72l-.27.29-.35.14-.03.08-.62.05-.35-.02-.76.05-.48-.08-.52-.3-.24-.46-.13-.54-.19-.18-.49.48h-.24l-.46.43-.78.22-.43.27-.33-.03-.59.25h-.76l-1.37-.14-1-.38-.3-.21-.16-.25-.57-.29-.48-.79-.3-1.02v-1.16l.92-1.3.08-.19.32-.35.59-.16,1.25-.38.27-.13h1.08l.37.05h.49l.32.08.33-.03h.75l.6.17.75.32.14-.16-.11-.24-.11-.57.08-1.22-.19-.4v-.46l-.35-.57-.56-.37-.49-.41-1.24-.08-1.05.11-.89.27-.52.56-.27.92-.24.33-.54.35h-.46l-.27-.06-.46-.19-.11-.37v-.6l.19-.38.06-.29.54-.92.75-.67.41-.22.7-.16.11-.19,1.21-.11h1.22l.89-.13.7.18.57.25.51.13.57.49.51.54.32.56.11.3.3.78-.11.73.22.68.1.59-.1.73.13.89-.19.7v1.6l.06.7.18.56.57.19.76-.16.35.11.13.54-.05.65Z"/><path class="cls-5" d="m51.92,298.74l-.22-1.51.16-.13.06-.11-.14-1.13.11-.6-.11-1.21.11-.17.14-1.02-.25-.7v-1.84l.16-.46-.13-.92.08-.97-.22-.86.27-.92-.16-.62.08-1.11-.37-.29h-7.27l-.89.05-1.43-.16-1.02.27-.65-.16-.62.05-1.62-.3-.14.11v.08l-.89-.13-1.29.13-.43-.02-.14.1h.29l.22.22.03.08-.09,1.13.17.76-.08.86v1.65l.1.54-.05.65v2.16l.14.19-.3,1.21.13.81.08.24-.13,1.38.16.73-.16.86.11.89v.98h.05l.06.08-.22,1.32.08.7v1.19l-.16,1.48.27.81-.19.97v2.16l.08.33v1.37l.08.33-.22.54.06.57.11,1.1v1.76l-.6.54-.28-.08.1.16.75-.08.84.08h1.03l.73.05,1.13-.19.35.14h2.27l1.45.11,1.76-.17.51.06.79.16.48-.19h.92l.94-.13.49.13,2.51-.24.05-.08-.05-.6v-1.67l-.08-.62-.06-.57.25-.62-.14-.86.06-.76-.27-.97.24-.4v-.71l-.14-1.27.3-.91-.21-.46v-2.78l-.11-.43.35-1.54-.16-.6Zm-3.27,6.21v.03l-.11.54-.05.65-.57.75-.62.62-1.4.76h-.49l-1.48.24h-1.46l-.38-.08-.73-.05-.4-.17h-.35l-1.03-.35-.62-.62-.08-.16-.54-.59-.16-.25-.22-.72-.19-.46.03-.41.3-.19.37.03,1.06.08.27.24.24.54.41.62.45.33.65.16.6.24.8-.13h.71l.78.21,1.3-.4.43-.38.11-.38.18-.35-.05-.56-.11-.3-.81-.65-.29-.08-.17-.11-.48-.08-1.08-.35-.41-.05h-.73l-.91-.27-.27-.03-1.11-.54-.97-.41-.41-.43-.64-1.08-.06-.81.14-.78.24-.27.32-.76.27-.35.44-.37.54-.19.16-.19.48-.14.76-.08.67-.13.44-.03.45-.16.92.19.46-.11,1.05.43.49.05,1.03.63.18.21.44.24.27.6.35.43.1.76-.08.1-.43.33-.81-.08-.83-.35-.25-.54-.78-.65-.86-.27-.35.03-.87-.17-.92.25-1.1.24-.49.32-.24.41.05.29-.03.36.17.4.24.19.46.35.97.3.78.11.46.16.33-.06,1.72.49.49.05.27.22.73.11.51.4.49.25.48.64.43,1.03-.05.51Z"/><path class="cls-5" d="m77.95,304.87l.16-.94-.27-.38h-.65l-.67.08-.38-.19-.65.11-.05-.19-1.16.27h-.54l-1.22.32-.38.38-.19.86v.52l.44.51v.05l.67.3.51.19h.73l.79-.05.97-.14.35-.19.46-.11.4-.19.62-.1.25-.27v-.16l-.19-.68Zm0,0l.16-.94-.27-.38h-.65l-.67.08-.38-.19-.65.11-.05-.19-1.16.27h-.54l-1.22.32-.38.38-.19.86v.52l.44.51v.05l.67.3.51.19h.73l.79-.05.97-.14.35-.19.46-.11.4-.19.62-.1.25-.27v-.16l-.19-.68Zm0,0l.16-.94-.27-.38h-.65l-.67.08-.38-.19-.65.11-.05-.19-1.16.27h-.54l-1.22.32-.38.38-.19.86v.52l.44.51v.05l.67.3.51.19h.73l.79-.05.97-.14.35-.19.46-.11.4-.19.62-.1.25-.27v-.16l-.19-.68Z"/><path class="cls-5" d="m116.85,299.42l-.08-.84-.13-.62.13-.76-.21-1.43.16-.48-.06-.68-.19-1.18.33-.65-.24-.87.24-1.94-.22-1.35.14-.22-.43-1.8.32-.06.11-.13-.11-.62v-1.16l-.65-.19-.51.38.14,1.24-.08,1.16.11.86-.14.84.19,1.48-.08.7.05.87-.1,1.35v1.75l-.09.62.17,1.19v1.13l.08,1.06.08.46-.22.78.11.51-.3,1.08.14.49v.86l.16.81-.27,1.35.22.73-.14.3-.11.86.22.62.13,1.46-.21.21-.08.95v2.94l.11,1.08.21.32h.29l.65-.56v-2.94l.14-.71-.14-.67v-.92l-.13-.59.13-1.08v-.84l-.08-1.21.22-.65-.27-.78.16-1.19-.08-1.22.21-1.45v-.65Z"/><path class="cls-5" d="m126.55,304.87l.16-.94-.27-.38h-.65l-.67.08-.38-.19-.65.11-.05-.19-1.16.27h-.54l-1.22.32-.38.38-.18.86v.52l.43.51v.05l.67.3.51.19h.73l.79-.05.97-.14.35-.19.46-.11.4-.19.62-.1.25-.27v-.16l-.19-.68Zm0,0l.16-.94-.27-.38h-.65l-.67.08-.38-.19-.65.11-.05-.19-1.16.27h-.54l-1.22.32-.38.38-.18.86v.52l.43.51v.05l.67.3.51.19h.73l.79-.05.97-.14.35-.19.46-.11.4-.19.62-.1.25-.27v-.16l-.19-.68Zm6.26,6.8l.24-1.18-.27-.76v-.49l-.13-.73.13-1.24v-1.4l.25-1.16-.3-.6.08-1.32-.11-1.54.19-1v-1.29l-.22-1.03.28-1.4-.22-.54.13-1.19-.24-1.05.33-1.08-.22-.57v-.97l-.08-1.05.16-.22-.11-.83v-1.27l-.11-1,.25-.41-.11-.48v-1.27l-.16-.22h-2.46l-1.21-.08-.44.14-1.08-.08h-3.37l-1.13-.08-.3.02-.81.19-1.43-.13-1.13-.17-.3.17-1.05-.22-.87.16-.75-.08-.28.22-.51.38.14,1.24-.08,1.16.11.86-.14.84.19,1.48-.08.7.05.87-.1,1.35v1.75l-.09.62.17,1.19v1.13l.08,1.06.08.46-.22.78.11.51-.3,1.08.14.49v.86l.16.81-.27,1.35.22.73-.14.3-.11.86.22.62.13,1.46-.21.21-.08.95v2.94l.11,1.08.21.32.11.17.89-.11,1.48.13h8.18l.7.08,1.41-.16.32.03,1.89-.19.76.14.67-.09.08-.05.62-.38-.05-.75v-2.03Zm-2.24-3.72l-.27.29-.35.14-.03.08-.62.05-.35-.02-.76.05-.48-.08-.51-.3-.25-.46-.13-.54-.19-.18-.49.48h-.24l-.46.43-.78.22-.43.27-.33-.03-.59.25h-.76l-1.37-.14-1-.38-.3-.21-.16-.25-.57-.29-.48-.79-.3-1.02v-1.16l.92-1.3.08-.19.32-.35.59-.16,1.25-.38.27-.13h1.08l.37.05h.49l.32.08.33-.03h.75l.6.17.75.32.14-.16-.11-.24-.11-.57.08-1.22-.19-.4v-.46l-.35-.57-.56-.37-.49-.41-1.24-.08-1.05.11-.89.27-.52.56-.27.92-.24.33-.54.35h-.46l-.27-.06-.46-.19-.11-.37v-.6l.19-.38.06-.29.54-.92.75-.67.41-.22.7-.16.11-.19,1.21-.11h1.22l.89-.13.7.18.57.25.51.13.57.49.51.54.32.56.11.3.3.78-.11.73.22.68.1.59-.1.73.13.89-.19.7v1.6l.06.7.19.56.56.19.76-.16.35.11.13.54-.05.65Zm-3.86-4.02l-.27-.38h-.65l-.67.08-.38-.19-.65.11-.05-.19-1.16.27h-.54l-1.22.32-.38.38-.18.86v.52l.43.51v.05l.67.3.51.19h.73l.79-.05.97-.14.35-.19.46-.11.4-.19.62-.1.25-.27v-.16l-.19-.68.16-.94Zm-.16.94l.16-.94-.27-.38h-.65l-.67.08-.38-.19-.65.11-.05-.19-1.16.27h-.54l-1.22.32-.38.38-.18.86v.52l.43.51v.05l.67.3.51.19h.73l.79-.05.97-.14.35-.19.46-.11.4-.19.62-.1.25-.27v-.16l-.19-.68Zm0,0l.16-.94-.27-.38h-.65l-.67.08-.38-.19-.65.11-.05-.19-1.16.27h-.54l-1.22.32-.38.38-.18.86v.52l.43.51v.05l.67.3.51.19h.73l.79-.05.97-.14.35-.19.46-.11.4-.19.62-.1.25-.27v-.16l-.19-.68Z"/><path class="cls-5" d="m132.81,311.67l.24-1.18-.27-.76v-.49l-.13-.73.13-1.24v-1.4l.25-1.16-.3-.6.08-1.32-.11-1.54.19-1v-1.29l-.22-1.03.28-1.4-.22-.54.13-1.19-.24-1.05.33-1.08-.22-.57v-.97l-.08-1.05.16-.22-.11-.83v-1.27l-.11-1,.25-.41-.11-.48v-1.27l-.16-.22h-.74l-.07.03.06.76v1.08l-.06.72.11.81-.13.87.21,1.46-.11.62v1.72l-.1,1.49v.97l-.06.65.22,1.62-.11.29.24,1.54-.16,1.35.05.54-.16.35v1.76l.14.62-.25,1.19.19.97-.24,1.43.27.67v.81l-.22.79.06.81v1.89l.16,1.37-.08.84.45.43.62-.38-.05-.75v-2.03Z"/><path class="cls-5" d="m181.33,303.84l.16-1.13v-2.35l.22-1.24-.25-.81-.1-.65.19-1.24-.03-.11-.14-.13v-.92l-.1-1.05.21-1.41-.4-1.07.21-.36-.08-.59.19-.84-.27-1.48.08-.89-.19-.84.19-.24-.13-.81.08-1.11-.54-.16-.29.22.13,1.13-.08,1.3.11.72-.14.76.06.65.24,1.29-.22.38.08.97-.16,1.87.06.48v.86l-.14.79.19,1.1v.98l.22,1.18-.22,1.14v.32l-.24,1.08.13,1.14.25,1.05-.36,1.4.03.11.14.11-.22,1.51.3.75.11,1.44-.27.48v1.16l.08.08v3.51l.02.16.25.3h.88l.02-.02.06-.09v-3.61l.03-.33-.11-1.16.11-1.16-.11-.22v-1.72l-.05-.65.19-.86-.38-1.17Z"/><path class="cls-5" d="m148.98,297.42l.19-1.11-.19-.54.08-.67-.08-.86.19-1.17-.38-1.34.27-.49-.08-.76.19-1-.16-.56v-1.16l-.22-1.16h.14l.11-.14-.17-.97.17-1-.03-.11-.19-.16h-1.21l-.46-.05h-1.97l-.44.08-.86-.08h-4.34l-.46-.11-.71.19h-1.59l-.86-.14-1.19.11-.92-.22-.91.11h-.49l-.58.27h.74l.16.22v1.27l.11.48-.25.41.11,1v1.27l.11.83-.16.22.08,1.05v.97l.22.57-.33,1.08.24,1.05-.13,1.19.22.54-.28,1.4.22,1.03v1.29l-.19,1,.11,1.54-.08,1.32.3.6-.25,1.16v1.4l-.13,1.24.13.73v.49l.27.76-.24,1.18v2.03l.05.75-.62.38.06.05.73-.1.73.08h1.62l.92-.08,1.43.1h.67l.3-.05h.78l1.08.11,1.94-.16.09.08.7.16,1.48-.22.68.06.62-.08h2.35l.7-.38-.06-.7v-1.65l-.1-.97.21-.76-.11-.35v-1.02l-.16-.62.14-.89v-1.98l.19-.83-.36-.95.19-.75v-1.03l-.05-.73.22-1.75-.25-2Zm-3.75,7.26l-.08.3v1.02l.13.87-.13.32.08.49-.51.51-.57.14-.38.02-.59-.13-.03-.3-.21-.81.13-.62.08-.7-.08-.46v-.51l-.08-.44.05-.83.11-.35-.11-1.25v-1.4l-.13-.75-.32-.81-.33-.52-.46-.19-1.4-.37-.62.24-.19.03-.84.35-1.08.24-.21.32.21.41.06.49-.03.35.11.81v3.91l-.16.27.13.84-.11.56.11.71-.11.72-.94.17-.78-.19-.33-.35.06-.49v-1.43l-.14-1.05v-2.27l.08-1-.19-.78.11-1.3.11-.38-.08-.99.11-.44v-.67l.43-.35.48.05.57-.16.22.22-.17,1.05.14.13.38-.05.13-.43.51-.3.49-.4.38-.22h.7l.59-.22.6-.05h1.05l.49.16.67.3.76.48.21.22.54,1,.19.59.11,1.35v.65l.05.54v.78l-.05.57.13.62-.1.57.05.59Z"/><path class="cls-5" d="m180.42,314.37v-3.51l-.08-.08v-1.16l.27-.48-.11-1.44-.3-.75.22-1.51-.14-.11-.03-.11.36-1.4-.25-1.05-.13-1.14.24-1.08v-.32l.22-1.14-.22-1.18v-.98l-.19-1.1.14-.79v-.86l-.06-.48.16-1.87-.08-.97.22-.38-.24-1.29-.06-.65.14-.76-.11-.72.08-1.3-.13-1.13.29-.22-.41-.13h-3.24l-.43.13h-5.4l-.56-.08-.41.16h-1.24l-1.08-.13-.54.16-1.08-.22-.73.22-.89-.11-.65.86v4.3l.33,1.1-.25,1.3v4.07l.17,1.19v1.38l.21.92-.21.86.08.49-.25,1.02.17.84v.75l.21,1-.19.76.14.94-.16,1.3.16.54.13,1.11-.24.51v1.02l.22,3.05v1.06l.51.51.67-.14h1.43l1.33.14.21-.08.22-.08h5.13l1.27-.16.48.1h1.65l.57-.05.83-.19.62.11,1.11-.11h.17l-.25-.3-.02-.16Zm-1.17-16.33l.03.3-.3.62-.08.97.14.7-.41.76.08.3-.3.72v.41l-.27,1.05v.6l-.16.51v.35l-.08,1.13-.19.68-.32.67-.38.35-1.16.19-.46-.08-.51-.32-.46-.89-.19-1.22-.19-.29-.27-1.03-.13-.24-.3-1.14.08-.4-.4-.84.13-.08-.32-.81-.17.11.09.3-.14.67-.19.4-.65,2.16.11.27-.38.57-.29.97v.57l-.38.54-.49.57-.19.1-.89.06-.86-.08-.16-.35-.33-.84-.1-.65.05-.27-.24-.86.02-.33-.1-.54-.25-.78-.08-.65v-.75l-.24-.54v-.22l-.16-.78-.27-1.16v-.46l-.08-.73-.27-.16v-.84l.05-.24.32-.49.49-.05.3-.03.83.62.03.33.11.51v.76l.19.59.19.84v.75l.13.57-.03.3.25,1.13.19.4v.79l.13-.06v1.08l.06.38.29.08.35-.89.22-.13v-1.27l.43-.68.08-.43.19-.4.27-1.3.19-.67.16-.33.22-.27.32-.27.84.11.81.3.27.81.46.73.11.7.35.91.16.79.3.59v.57l.32.67v.41l.16.65.19-.3.08-.32.11-1.11.22-.22v-.73l-.09-.48.22-.76.24-.46-.08-1.02.27-.65v-.73l.19-.19-.05-.81.1-.54.17-.16.05-.76.49-.27.45-.13.46.05.38.52.11.37-.19.57Z"/><path class="cls-5" d="m197.77,299.53h-.05v-.98l-.11-.89.16-.86-.16-.73.14-1.38-.09-.24-.13-.81.3-1.21-.14-.19v-2.16l.06-.65-.11-.54v-1.65l.08-.86-.16-.76.07-.94v-.19s-.02-.08-.02-.08l-.22-.22h-2.18l-1.51-.1-.33.13h-3.7l-2.29-.19-.86.27-.46-.13-.73.05-.89-.16-.76.16-.89-.22-1.02.14-.68-.08-.46.35-.29.22.13,1.13-.08,1.3.11.72-.14.76.06.65.24,1.29-.22.38.08.97-.16,1.87.06.48v.86l-.14.79.19,1.1v.98l.22,1.18-.22,1.14v.32l-.24,1.08.13,1.14.25,1.05-.36,1.4.03.11.14.11-.22,1.51.3.75.11,1.44-.27.48v1.16l.08.08v3.51l.02.16.25.3.02.03.23-.03.39-.05.26.03.55.05h.79l1.24.11.89-.25,1.32.16h4.64l1.41.3.56-.35h.63l.78-.08h.67l1.57-.11.17.05.31.09.6-.54v-1.76l-.11-1.1-.05-.57.21-.54-.08-.33v-1.37l-.08-.33v-2.16l.19-.97-.27-.81.16-1.48v-1.19l-.08-.7.22-1.32-.06-.08Zm-9.88-7.16v-.51l.33-.54.43-.27h1.11l.81.54v.67l-.19.6-.17.73-.48.16-.49.08-.86-.19-.32-.21-.17-.41-.05-.57.05-.08Zm6.29,15.5l-.29.35-.63.08-.4-.14-.54.06h-1.3l-.43.13-.43-.08-1.24.11-1.16-.14h-.57l-.54.14-.35-.05-1.02-.09-.52.14-.54-.05-.38-.44.06-.75.27-.38,1.19-.3h.64l.46.06h.6l.83.1.25-.05.21-.19-.21-.48-.06-.33.06-.67-.11-.52.16-.51-.11-.48v-1.22l.11-.81-.11-1,.08-.51-.05-.65.19-.51v-.41l-.16-.18-.49.08-.54.16-.51.08-.6-.14-.37.08h-1.25l-.4-.1-.05-.81-.11-.49.48-.46.41-.05.81.16.32-.08h1.24l.03.03h.86l.19-.19.92.13.16-.08.95.19.19,1.35-.11.78-.08,1.16.08.6v1.4l-.08.11.08,1.02-.08.25.19,1.1-.14.79v.73l-.13.4.32.24.38.08.62-.13h.81l1.16-.08.51.08.19.22.11.64-.08.33.05.19Z"/><path class="cls-5" d="m196.75,313.89v-1.62l-.16-1.35v-.97l.24-.81-.11-.76-.24-.49.16-1.03v.03l.08-.73-.16-.46.22-1.03-.19-.67v-2.24l.16-.32-.11-.92v-1.11l.11-.49-.22-1.05.05-.65-.22-1.19.08-.73v-2.56l.13-.97-.22-1.3v-4.21l-.16-1.19.78-.49.97.13.3-.13.84.19,1.16-.22.84.19.78-.11h.86l.4-.19,1.81.22,1.73-.11h2.4l.32-.05h3.48l.65.22v1.32l.11.32-.3.65.27,1.13v1.11l.05.35-.24.57.27,1.35v1.08l.05.08-.35.65.35,2.32-.13.19.24.89-.16.84.19.92v1l.08.32-.16,1.32v3.29l.16.59-.19.3.19,1.54-.16,1.27.16.67v.97l.22.73-.22.89.11.59v2.29l.05.51-.03.08-.59.19-.46-.05h-2.16l-.46.11-.81.05-1.08.3-1.43-.32-1.24.16-.81-.05h-1.08l-.92.08h-.73l-.62-.16-1.27.24-.73-.05h-1.81l-.59.08-.49-.51-.08-1.05Zm12.74-5.59l.62-.27.05-.27.19-.49-.27-.81-.62-.08-.54.24-.57.11-.54-.08-1.08.08-.41-.19-.41-.03-.38-.51-.3-.27-.11-.19-.32-1.49v-.35l.16-1.16-.19-.76.08-.22v-1.21l.08-.38v-.7l-.3-1,.24-.35.86.49.43-.05.67.08,1.19-.24.65.22.27-.14,1.35-.19.32-.27-.05-.67-.08-.22-.38-.38h-.32l-.78-.11-.57.19-.92-.19-.3.08-.51-.08-1.51.13-.43.13-.24-.32.32-.65v-2.38l-.08-.65.13-.7-.05-.67-.32-.27h-.86l-.86.11v.67l.11.59-.19.62.13.76-.11.62v.78l.08.86.32.46-.3.27-.49-.27h-1.05l-.35.05h-1.24l-.57-.05-.32.16-.08.54.08.59.16.38,1.27.08.27.03.43-.08.67.08.7-.08.54-.24.24.32-.3.3.05.81-.22.43.19.54-.13.27.16.67-.08.32v3.78l.43,1.27.46.43.3.49.38.32.94.35,1.08.19,1.21.11.84-.22.51.13.51-.24Z"/><path class="cls-5" d="m212.81,314.56v-3.51l-.19-.19v-1.16l.27-.97v-.94l-.19-.57v-.54l.13-1.27-.13-.16-.03-.11.3-1.27-.27-.94v-1.4l.27-.76-.13-.89.13-.76-.11-1.13v-1l-.22-.78.16-.97v-2.7l.08-.46v-.94l.08-.81-.13-.94v-4.02l-.11-.62.75-.51.57.11h1.21l.51.08,1.08-.08.46.13,1.08-.11.41.08.7-.22h.62l1.65.19.65-.08h5.02l1.73.11h.76l.11.22-.08,1.24.16.84-.24.43.22.97v1.11l.11.35-.11,1.19-.11.16v1.48l.19.65-.16.59.05.62v2.13l.05.22-.22.65.3,1.24v1.27l-.24,1.11.13,1.57v1.11l-.16.84.27.78-.16,1v2.05l.13.24-.11,1.49.13.57-.22.65.11,1.51v1.67l-.54.59-.32-.11-1.38.13-.54-.08-.94.11h-1.05l-1,.16-.73-.11h-5.1l-1.08-.16-1,.22-.95-.08h-.76l-.51-.05h-1.16l-.16-.22-.05-.22Zm6.02-14.55l-.24-.51-.08-.43.3-.24h.32l.16-.11.67-.22.54-.32.35-.03.84-.27.59.27.78.22.81.95v.7l.22.62-.13,1.08.11.13v1.03l-.14.86.14.73v.81l.08.32-.08,1.24-.08.32.16.67.24.38.46.08h1.3l.11-.65-.08-.35.16-.54-.19-.78v-.95l.13-.59-.13-.76.11-.49-.08-.43.05-.67-.08-1.08.03-.43-.11-1.57-.27-.78-.67-.97-.54-.38-1.03-.54-.49-.05h-1.3l-.94.35-.59-.08-.35.19-.92.7-.22.43-.24-.11.11-.94.19-1.03-.16-.86.08-.13v-1.59l-.05-.73.05-.35-.05-.62-.67-.49h-.54l-.59.05-.3.76v2.75l.13,1.21v.95l-.24.65.08.59.19.65-.05.76-.13.43.13.78-.16.41.19.51-.22.78.16.43v1.16l-.05.57.08.51-.08.38-.11,1.48.11.41.03.41.16.51.92.16.7-.14.24-.46.05-.3v-1.05l-.05-.54.13-.32-.11-.41.19-.84-.16-.38.03-.41-.11-.46.27-1.27-.16-.11-.08-.7.08-.24.11-.7Z"/><path class="cls-5" d="m245.03,313.48v-2.94l.08-.94.22-.22-.13-1.46-.22-.62.11-.86.13-.3-.22-.73.27-1.35-.16-.81v-.86l-.13-.49.3-1.08-.11-.51.22-.78-.08-.46-.08-1.05v-1.13l-.16-1.19.08-.62v-1.75l.11-1.35-.05-.86.08-.7-.19-1.48.13-.84-.11-.86.08-1.16-.13-1.24.78-.59.76.08.86-.16,1.05.22.3-.16,1.13.16,1.43.13.81-.19.3-.03,1.13.08h3.37l1.08.08.43-.14,1.21.08h2.46l.16.22v1.27l.11.49-.24.41.11,1v1.27l.11.84-.16.22.08,1.05v.97l.22.57-.32,1.08.24,1.05-.13,1.19.22.54-.27,1.4.22,1.03v1.3l-.19,1,.11,1.54-.08,1.32.3.59-.24,1.16v1.4l-.13,1.24.13.73v.49l.27.76-.24,1.19v2.02l.05.76-.7.43-.67.08-.76-.13-1.89.19-.32-.03-1.4.16-.7-.08h-8.18l-1.49-.13-.89.11-.32-.49-.11-1.08Zm14.52-5.1l.35-.13.27-.3.05-.65-.14-.54-.35-.11-.76.16-.57-.19-.19-.57-.05-.7v-1.59l.19-.7-.13-.89.11-.73-.11-.59-.22-.67.11-.73-.3-.78-.11-.3-.32-.57-.51-.54-.57-.49-.51-.13-.57-.24-.7-.19-.89.13h-1.21l-1.21.11-.11.19-.7.16-.4.22-.76.67-.54.92-.05.3-.19.38v.59l.11.38.46.19.27.05h.46l.54-.35.24-.32.27-.92.51-.57.89-.27,1.05-.11,1.24.08.49.4.57.38.35.57v.46l.19.41-.08,1.21.11.57.11.24-.13.16-.76-.32-.59-.16h-.76l-.32.03-.32-.08h-.49l-.38-.05h-1.08l-.27.13-1.24.38-.59.16-.32.35-.08.19-.92,1.29v1.16l.3,1.03.49.78.57.3.16.24.3.22,1,.38,1.38.13h.76l.59-.24.32.03.43-.27.78-.22.46-.43h.24l.49-.49.19.19.14.54.24.46.51.3.49.08.76-.05.35.03.62-.05.03-.08Zm-9.39-3.19l.19-.86.38-.38,1.21-.32h.54l1.16-.27.05.19.65-.11.38.19.67-.08h.65l.27.38-.16.95.19.67v.16l-.24.27-.62.11-.41.19-.46.11-.35.19-.97.13-.78.05h-.73l-.51-.19-.67-.3v-.05l-.43-.51v-.51Z"/><path class="cls-5" d="m261.31,311.75l-.08-.92v-1.35l.19-.51.14-.78-.3-1.29.11-1.38-.16-.05-.05-.11.22-1.54-.05-.27v-1.27l-.11-.05-.03-.11.4-1.16-.22-1.08.22-.62-.24-1.81.05-.19-.19-1.05.08-.76v-1.35l.19-.92v-3.02l-.13-.41v-2l-.05-.32.11-1.35-.13-1.24.7-.57.35.03,1.4-.13.89.19.19-.16,1.38.22.73-.05.84.05.57-.22,2.02.19h3.05l.65.19,1.16-.22h2.94l.46.4-.13.73.19.89-.05.11-.35.35.35,1.51-.11.46.19,1.11-.13.62-.03.43.11,1.38.13.16-.38,1.13.24,1.08h-.03l.08.11-.11,1.3.11.46-.16.76.16,1.05.08,1.03-.05.67-.19,1.08.11,1.67-.14,1.35.35.76-.22,1.43v2.19l.11.11-.11,1.46.24.4-.27,1.16v2.62l-.65.57-1.7.11-.57-.05-.84.13h-2.35l-.57-.11-1.13.13h-.73l-.67-.11h-3.72l-.46.11-.76-.05h-1.24l-.41-.11h-1.3l-.19-.35v-2.83Zm10.47-5.43l-.54-1.13-.7-.3-.92.24-.27-.11-.57.49-.27.08-.13.86v1.16l.35.51.81.22.73.08,1.03-.4.27-.3-.05-.62.27-.78Z"/><path class="cls-5" d="m277.51,311.75l-.08-.92v-1.35l.19-.51.14-.78-.3-1.29.11-1.38-.16-.05-.05-.11.22-1.54-.05-.27v-1.27l-.11-.05-.03-.11.4-1.16-.22-1.08.22-.62-.24-1.81.05-.19-.19-1.05.08-.76v-1.35l.19-.92v-3.02l-.13-.41v-2l-.05-.32.11-1.35-.13-1.24.7-.57.35.03,1.4-.13.89.19.19-.16,1.38.22.73-.05.84.05.57-.22,2.02.19h3.05l.65.19,1.16-.22h2.94l.46.4-.13.73.19.89-.05.11-.35.35.35,1.51-.11.46.19,1.11-.13.62-.03.43.11,1.38.13.16-.38,1.13.24,1.08h-.03l.08.11-.11,1.3.11.46-.16.76.16,1.05.08,1.03-.05.67-.19,1.08.11,1.67-.14,1.35.35.76-.22,1.43v2.19l.11.11-.11,1.46.24.4-.27,1.16v2.62l-.65.57-1.7.11-.57-.05-.84.13h-2.35l-.57-.11-1.13.13h-.73l-.67-.11h-3.72l-.46.11-.76-.05h-1.24l-.41-.11h-1.3l-.19-.35v-2.83Zm10.47-5.43l-.54-1.13-.7-.3-.92.24-.27-.11-.57.49-.27.08-.13.86v1.16l.35.51.81.22.73.08,1.03-.4.27-.3-.05-.62.27-.78Z"/><path class="cls-5" d="m310.02,313.29l-.13-.81v-3.29l.16-.46.11-.54-.35-1.19.22-1.75-.11-.81.16-.51-.13-.7-.16-1.62.24-1.08-.03-.38.24-.95-.22-1.13v-1.46l-.11-.95v-1.81l.08-1.19v-1.21l.08-.32v-.78l-.11-.65-.05-.73.13-1.21-.13-.67.11-1.08v-.46l-.13-1.03.65-.41h1.59l.51.08.65-.19,1.38.27,1.08-.11.62.11.76-.19,1.38.16h.86l1.3-.08h6.1l.46.32-.11.86.16.7-.22.95.19.84-.08.65.16,1.03-.22.81.11.86v1.11l.13.32-.19.73v.65l.11.78-.16,1.05.22.89-.16,1.03.11.81.16.67-.27,1.89v3.29l.13.51-.19.27.13,1.35-.11,1.57.11.43v1.43l.11.24-.22.59.11.84v1.97l.05.78-.73.27-.86.11h-.67l-.95-.13-1,.19h-.59l-.59.3-1.08-.27-.62-.05-1.57.16-1.32-.11h-2.21l-.81-.05-.43.16-1.7-.11-.73-.14-1.21.11-.27-.43.08-1.11Zm7.05-14.77v.97l-.19.3v1.13l.11.65-.13.49v1.67l-.08.81.08.22v.7l.05.46.13.49-.22.22h-.32l-.38-.16h-2.05l-.49.43-.11.24v.3l.19.54.13.19.32.11.89.08.38-.11.84.11.22-.05h1.16l.57.08.3-.08h.89l.62-.11.16.14h.73l.16-.03h1.92l.67-.19.14-.76-.08-.57-.59-.24-.59-.13-1.29.19-.7-.14-1.27.08-.38.24-.13-.27.11-.51.16-.35.13-.89-.13-.35-.11-.57.16-.59-.24-1.13.22-.62v-.38l-.11-.54.08-1.21-.3-1.13.32-.3.27.22,1.59.11.13.08.67.08.95-.08.92.08.24-.59-.11-.7-.27-.49-1.4-.13-.49.05h-2.16l-.38.27-.3-.22.22-.35.22-.57.24-1.21.38-.32.38-.49.57-.35.81-.3,1.29-.22h.46l.41-.27.05-.51v-.86l-.22-.13h-1.38l-1,.22-.43.08-1.13.46-1.03.78-.49.38-.97,1.51-.19.97.11,1.05-.27.27-.62-.3-1.49.11-.24-.03-.62.19-.22.73v.51l.24.22,1.24.19,1.75-.3.3.46Z"/><path class="cls-5" d="m326.22,314.37v-3.51l-.08-.08v-1.16l.27-.49-.11-1.43-.3-.76.22-1.51-.13-.11-.03-.11.35-1.4-.24-1.05-.13-1.13.24-1.08v-.32l.22-1.13-.22-1.19v-.97l-.19-1.11.13-.78v-.86l-.05-.49.16-1.86-.08-.97.22-.38-.24-1.3-.05-.65.13-.76-.11-.73.08-1.3-.13-1.13.75-.57.68.08,1.03-.14.89.22.76-.16.89.16.73-.05.46.13.86-.27,2.29.19h3.7l.32-.14,1.51.11h2.19l.22.22.03.08-.08,1.13.16.76-.08.86v1.65l.11.54-.05.65v2.16l.14.19-.3,1.21.13.81.08.24-.13,1.38.16.73-.16.86.11.89v.97h.05l.05.08-.22,1.32.08.7v1.19l-.16,1.48.27.81-.19.97v2.16l.08.32v1.38l.08.32-.22.54.05.59v-.03l.11,1.11v1.75l-.59.54-.49-.13-1.57.11h-.67l-.78.08h-.62l-.57.35-1.4-.3h-4.64l-1.32-.16-.89.24-1.24-.11h-.78l-.81-.08-.62.08-.27-.32-.03-.16Zm13.79-7.02l-.11-.65-.19-.22-.51-.08-1.16.08h-.81l-.62.13-.38-.08-.32-.24.14-.41v-.73l.13-.78-.19-1.11.08-.24-.08-1.03.08-.11v-1.4l-.08-.59.08-1.16.11-.78-.19-1.35-.94-.19-.16.08-.92-.13-.19.19h-.86l-.03-.03h-1.24l-.32.08-.81-.16-.4.05-.49.46.11.49.05.81.41.11h1.24l.38-.08.59.14.51-.08.54-.16.49-.08.16.19v.41l-.19.51.05.65-.08.51.11,1-.11.81v1.21l.11.49-.16.51.11.51-.05.67.05.32.22.49-.22.19-.24.05-.84-.11h-.59l-.46-.05h-.65l-1.19.3-.27.38-.05.76.38.43.54.05.51-.13,1.03.08.35.05.54-.13h.57l1.16.13,1.24-.11.43.08.43-.13h1.3l.54-.05.4.13.62-.08.3-.35-.05-.19.08-.32Zm-3.64-15.76l-.81-.54h-1.11l-.43.27-.32.54v.51l-.05.08.05.57.16.41.32.22.86.19.49-.08.49-.16.16-.73.19-.59v-.67Z"/><path class="cls-5" d="m342.44,313.56l-.13-1.67v-2.81l.19-.51.11-.73-.24-1.11.11-.84-.13-.24-.11-.38.32-1.57-.14-.81-.27-1,.32-1.4.11-1.43-.11-1.27v-.81l-.22-1.21.16-.89v-.84l-.08-.11.11-1.4v-.81l.11-.43.03.03v-1.24l-.19-.89v-.57l.11-.57-.13-.7.11-1.21v-.51l-.13-1.03.7-.51.43.03,1.3-.13.89.13v-.08l.14-.11,1.62.3.62-.05.65.16,1.03-.27,1.43.16.89-.05h7.26l.38.3-.08,1.11.16.62-.27.92.22.86-.08.97.13.92-.16.46v1.84l.24.7-.14,1.03-.11.16.11,1.21-.11.59.13,1.13-.05.11-.16.13.22,1.51.16.59-.35,1.54.11.43v2.78l.22.46-.3.92.13,1.27v.7l-.24.4.27.97-.05.76.13.86-.24.62.05.59v-.03l.08.62v1.67l.05.59-.05.08-2.51.24-.49-.13-.94.13h-.92l-.49.19-.78-.16-.51-.05-1.75.16-1.46-.11h-2.27l-.35-.14-1.13.19-.73-.05h-1.03l-.84-.08-.76.08-.3-.49v-.81Zm14.01-8.61l.05-.51-.43-1.03-.49-.65-.49-.24-.51-.41-.73-.11-.27-.22-.49-.05-1.73-.49-.32.05-.46-.16-.78-.11-.97-.3-.46-.35-.24-.19-.16-.41.03-.35-.05-.3.24-.41.49-.32,1.11-.24.92-.24.86.16.35-.03.86.27.78.65.24.54.84.35.81.08.43-.32.08-.11-.11-.76-.35-.43-.27-.59-.43-.24-.19-.22-1.03-.62-.49-.05-1.05-.43-.46.11-.92-.19-.46.16-.43.03-.67.13-.76.08-.49.13-.16.19-.54.19-.43.38-.27.35-.32.75-.24.27-.13.78.05.81.65,1.08.4.43.97.4,1.11.54.27.03.92.27h.73l.41.05,1.08.35.49.08.16.11.3.08.81.65.11.3.05.57-.19.35-.11.38-.43.38-1.29.41-.78-.22h-.7l-.81.13-.59-.24-.65-.16-.46-.32-.41-.62-.24-.54-.27-.24-1.05-.08-.38-.03-.3.19-.03.41.19.46.22.73.16.24.54.59.08.16.62.62,1.03.35h.35l.41.16.73.05.38.08h1.46l1.49-.24h.49l1.4-.76.62-.62.57-.76.05-.65.11-.54v-.03Z"/><path class="cls-5" d="m358.62,314.56v-3.51l-.19-.19v-1.16l.27-.97v-.94l-.19-.57v-.54l.13-1.27-.13-.16-.03-.11.3-1.27-.27-.94v-1.4l.27-.76-.13-.89.13-.76-.11-1.13v-1l-.22-.78.16-.97v-2.7l.08-.46v-.94l.08-.81-.13-.94v-4.02l-.11-.62.75-.51.57.11h1.21l.51.08,1.08-.08.46.13,1.08-.11.41.08.7-.22h.62l1.65.19.65-.08h5.02l1.73.11h.76l.11.22-.08,1.24.16.84-.24.43.22.97v1.11l.11.35-.11,1.19-.11.16v1.48l.19.65-.16.59.05.62v2.13l.05.22-.22.65.3,1.24v1.27l-.24,1.11.13,1.57v1.11l-.16.84.27.78-.16,1v2.05l.13.24-.11,1.49.13.57-.22.65.11,1.51v1.67l-.54.59-.32-.11-1.38.13-.54-.08-.94.11h-1.05l-1,.16-.73-.11h-5.1l-1.08-.16-1,.22-.95-.08h-.76l-.51-.05h-1.16l-.16-.22-.05-.22Zm6.02-14.55l-.24-.51-.08-.43.3-.24h.32l.16-.11.67-.22.54-.32.35-.03.84-.27.59.27.78.22.81.95v.7l.22.62-.13,1.08.11.13v1.03l-.14.86.14.73v.81l.08.32-.08,1.24-.08.32.16.67.24.38.46.08h1.3l.11-.65-.08-.35.16-.54-.19-.78v-.95l.13-.59-.13-.76.11-.49-.08-.43.05-.67-.08-1.08.03-.43-.11-1.57-.27-.78-.67-.97-.54-.38-1.03-.54-.49-.05h-1.3l-.94.35-.59-.08-.35.19-.92.7-.22.43-.24-.11.11-.94.19-1.03-.16-.86.08-.13v-1.59l-.05-.73.05-.35-.05-.62-.67-.49h-.54l-.59.05-.3.76v2.75l.13,1.21v.95l-.24.65.08.59.19.65-.05.76-.13.43.13.78-.16.41.19.51-.22.78.16.43v1.16l-.05.57.08.51-.08.38-.11,1.48.11.41.03.41.16.51.92.16.7-.14.24-.46.05-.3v-1.05l-.05-.54.13-.32-.11-.41.19-.84-.16-.38.03-.41-.11-.46.27-1.27-.16-.11-.08-.7.08-.24.11-.7Z"/><path class="cls-5" d="m374.84,313.81l-.13-.95v-1.59l-.13-1.62.27-1.05-.05-.59-.24-.49.16-.97.08-1-.13-.11-.03-.11.3-1.3-.35-2.19.24-1.21v-1.62l.05-.38-.05-.62v-1.03l-.16-1.03.13-.46v-3.91l.08-1.03-.16-.73v-.95l.19-.92-.16-1.03.08-.81-.13-1.35.73-.54.62.08.51-.13.97.24,1.32-.14.59.08h1.92l.38-.11.35-.03,1.4.16.89-.08h5.34l.78.08h1.29l.24.22v1.24l.05.11-.35,1.08.3,1.27-.13.19.16,1.35-.22.32.16,1.16v.94l.19.38-.27,1.03v.57l.11.97-.13.54.19,1.35-.13.76.3,1.46-.35,1.54.13.81v1.35l-.13,1.46.24.7-.16.65v2.46l.05.16v1.16l.22.38-.3,1.24.11.73v2.75l-.08.11-1.48.13-.67-.08-1,.08.03.05h-1.19l-1.13.3-1.11-.27-.49-.05-1.35.13-.95-.08h-3.75l-.11.08-.81-.08h-2.24l-.97-.43.08-.81Zm7.34-20.97l-1.11.16-.86.46-.3.08-.57.43-.43.19-.24.3-.46.73-.27.62-.03.41.05.65.22.22.62.08h.41l.59-.3.27-.67.16-.27.57-.65.11-.03.57-.43.22.03,1.11-.32.65.13h1.08l.65.4.14.03.59.43.57.81-.05.38v.59l-.16.54.03.3-.46.97-.22.08-.51.65-.62.59-.24.13-.97.84-.76.76.24.54.38.3.38-.03,1.43-.86.76-.46.67-.62.59-.81.38-.19.22-.22.46-.76.3-.35.22-.49v-.62l.13-.3v-1.11l-.32-1.16-.27-.38-.46-.35-.3-.32-.97-.59-.41-.11-.35-.16-1.32-.08-.14-.16-.86-.08-.49.11-.59-.05Zm2.51,13.77l-.11-.84-.43-.38-1.24-.11-.38-.05-.49.19-.24.35-.22.59.08,1,.11.46.84.38.76.11h.4l.62-.3.19-.27v-.97l.11-.16Z"/><rect class="cls-5" x="51.49" y="284.17" width="16.66" height="30.77"/><rect class="cls-5" x="81.51" y="284.38" width="18.93" height="30.56"/><rect class="cls-5" x="147.61" y="284.22" width="16.88" height="30.56"/><rect class="cls-5" x="229.17" y="284.44" width="17.18" height="30.5"/><rect class="cls-5" x="294.78" y="284.76" width="15.42" height="30.07"/></svg>