<?xml version="1.0" encoding="UTF-8"?><svg id="Layer_1" xmlns="http://www.w3.org/2000/svg" viewBox="0 0 586.43 212.34"><defs><style>.cls-1{isolation:isolate;}.cls-2{fill:#8d9bc2;}.cls-2,.cls-3,.cls-4{stroke-width:0px;}.cls-3{fill:#feeadc;}.cls-4{fill:#e68161;}</style></defs><g id="_" class="cls-1"><g class="cls-1"><path class="cls-2" d="m188.07,187.72c1.79.16,3.14.81,4.04,1.96.9,1.15,1.28,2.62,1.12,4.41-.15,1.73-.77,3.08-1.86,4.05-1.09.98-2.53,1.38-4.32,1.23l-31.37-2.74c-1.73-.15-3.06-.8-3.99-1.96-.94-1.15-1.33-2.59-1.18-4.32.16-1.79.79-3.17,1.92-4.15,1.12-.97,2.54-1.38,4.27-1.23l31.37,2.74Zm1.77-20.32c1.79.16,3.14.81,4.04,1.96.9,1.15,1.28,2.62,1.12,4.41-.16,1.79-.78,3.16-1.86,4.1-1.09.94-2.53,1.33-4.32,1.18l-31.37-2.74c-1.73-.15-3.06-.79-4-1.9-.94-1.12-1.33-2.58-1.17-4.37.16-1.79.79-3.17,1.92-4.15,1.12-.97,2.54-1.38,4.27-1.23l31.37,2.74Z"/></g></g><g id="_2" class="cls-1"><g class="cls-1"><path class="cls-3" d="m249.78,172.35c1.79.16,3.14.81,4.04,1.96.9,1.15,1.28,2.62,1.12,4.41-.15,1.73-.77,3.08-1.86,4.05-1.09.98-2.53,1.38-4.32,1.23l-31.37-2.74c-1.73-.15-3.06-.8-3.99-1.96-.94-1.15-1.33-2.59-1.18-4.32.16-1.79.79-3.17,1.92-4.15,1.12-.97,2.55-1.38,4.27-1.23l31.37,2.74Zm1.77-20.32c1.79.16,3.14.81,4.04,1.96.9,1.15,1.28,2.62,1.12,4.41-.16,1.79-.78,3.16-1.86,4.1-1.09.94-2.53,1.33-4.32,1.18l-31.37-2.74c-1.73-.15-3.06-.79-4-1.9-.94-1.12-1.33-2.58-1.17-4.37.16-1.79.79-3.17,1.92-4.15,1.12-.97,2.55-1.38,4.27-1.23l31.37,2.74Z"/></g></g><g id="_3" class="cls-1"><g class="cls-1"><path class="cls-3" d="m381.29,111.33c1.79.16,3.14.81,4.04,1.96.9,1.15,1.28,2.62,1.12,4.41-.15,1.73-.77,3.08-1.86,4.05-1.09.98-2.53,1.38-4.32,1.23l-31.37-2.74c-1.73-.15-3.06-.8-4-1.95-.94-1.15-1.33-2.59-1.18-4.32.16-1.79.79-3.17,1.92-4.15,1.12-.97,2.54-1.38,4.27-1.23l31.37,2.74Zm1.77-20.32c1.79.16,3.14.81,4.04,1.96.9,1.15,1.28,2.62,1.12,4.41-.16,1.79-.78,3.16-1.86,4.1-1.09.94-2.53,1.34-4.32,1.18l-31.37-2.74c-1.73-.15-3.06-.78-4-1.9-.94-1.12-1.33-2.58-1.17-4.37.16-1.79.79-3.18,1.92-4.15,1.12-.97,2.54-1.38,4.27-1.23l31.37,2.74Z"/></g></g><g id="_4" class="cls-1"><g class="cls-1"><path class="cls-2" d="m579.45,155.94c1.79.16,3.14.81,4.04,1.96.9,1.15,1.28,2.62,1.12,4.41-.15,1.73-.77,3.08-1.86,4.05-1.09.98-2.53,1.38-4.32,1.23l-31.37-2.74c-1.73-.15-3.06-.8-3.99-1.96-.94-1.15-1.33-2.59-1.18-4.32.16-1.79.79-3.18,1.92-4.15,1.12-.97,2.54-1.38,4.27-1.23l31.37,2.74Zm1.78-20.32c1.79.16,3.14.81,4.04,1.96.9,1.15,1.28,2.62,1.12,4.41-.16,1.79-.78,3.16-1.86,4.1-1.09.94-2.53,1.34-4.32,1.18l-31.37-2.74c-1.73-.15-3.06-.79-4-1.91-.94-1.12-1.33-2.58-1.17-4.37.16-1.79.79-3.18,1.92-4.15,1.12-.97,2.54-1.38,4.27-1.23l31.37,2.74Z"/></g></g><g id="_5" class="cls-1"><g class="cls-1"><path class="cls-2" d="m340.2,168.6c1.79.16,3.14.81,4.04,1.96.9,1.15,1.28,2.62,1.12,4.41-.15,1.73-.77,3.08-1.86,4.05-1.09.98-2.53,1.38-4.32,1.23l-31.37-2.74c-1.73-.15-3.06-.8-4-1.95-.94-1.15-1.33-2.59-1.18-4.32.16-1.79.79-3.18,1.92-4.15,1.12-.97,2.54-1.38,4.27-1.23l31.37,2.74Zm1.78-20.32c1.79.16,3.14.81,4.04,1.96.9,1.15,1.28,2.62,1.12,4.41s-.78,3.16-1.86,4.1c-1.09.94-2.53,1.33-4.32,1.18l-31.37-2.74c-1.73-.15-3.06-.79-4-1.91-.94-1.12-1.33-2.58-1.17-4.37s.79-3.18,1.92-4.15c1.12-.97,2.55-1.38,4.27-1.23l31.37,2.74Z"/></g></g><g id="_6" class="cls-1"><g class="cls-1"><path class="cls-4" d="m287.32,120.24c1.79.16,3.14.81,4.04,1.96.9,1.15,1.28,2.62,1.12,4.41-.15,1.73-.77,3.08-1.86,4.05-1.09.98-2.53,1.38-4.32,1.23l-31.37-2.74c-1.73-.15-3.06-.8-3.99-1.95-.94-1.15-1.33-2.59-1.18-4.32.16-1.79.79-3.17,1.92-4.15,1.12-.97,2.55-1.38,4.27-1.23l31.37,2.74Zm1.77-20.32c1.79.16,3.14.81,4.04,1.96.9,1.15,1.28,2.62,1.12,4.41-.16,1.79-.78,3.16-1.86,4.1-1.09.94-2.53,1.34-4.32,1.18l-31.37-2.74c-1.73-.15-3.06-.78-4-1.91-.94-1.12-1.33-2.57-1.17-4.37.16-1.79.79-3.18,1.92-4.15,1.12-.97,2.55-1.38,4.27-1.23l31.37,2.74Z"/></g></g><g id="_7" class="cls-1"><g class="cls-1"><path class="cls-4" d="m181.29,135.29c1.79.16,3.14.81,4.04,1.96.9,1.15,1.28,2.62,1.12,4.41-.15,1.73-.77,3.08-1.86,4.05-1.09.98-2.53,1.38-4.32,1.23l-31.37-2.74c-1.73-.15-3.06-.8-3.99-1.95-.94-1.15-1.33-2.59-1.18-4.32.16-1.79.79-3.17,1.92-4.15,1.12-.97,2.55-1.38,4.27-1.23l31.37,2.74Zm1.77-20.32c1.79.16,3.14.81,4.04,1.96.9,1.15,1.28,2.62,1.12,4.41-.16,1.79-.78,3.16-1.86,4.1-1.09.94-2.53,1.33-4.32,1.18l-31.37-2.74c-1.73-.15-3.06-.78-4-1.9-.94-1.12-1.33-2.58-1.17-4.37.16-1.79.79-3.17,1.92-4.15,1.12-.97,2.55-1.38,4.27-1.23l31.37,2.74Z"/></g></g><g id="_8" class="cls-1"><g class="cls-1"><path class="cls-3" d="m118.89,198c1.79.16,3.14.81,4.04,1.96.9,1.15,1.28,2.62,1.12,4.41-.15,1.73-.77,3.08-1.86,4.05-1.09.98-2.53,1.38-4.32,1.23l-31.37-2.74c-1.73-.15-3.06-.8-3.99-1.96-.94-1.15-1.33-2.59-1.18-4.32.16-1.79.79-3.17,1.92-4.15,1.12-.97,2.54-1.38,4.27-1.23l31.37,2.74Zm1.77-20.32c1.79.16,3.14.81,4.04,1.96.9,1.15,1.28,2.62,1.12,4.41-.16,1.79-.78,3.16-1.86,4.1-1.09.94-2.53,1.33-4.32,1.18l-31.37-2.74c-1.73-.15-3.06-.79-4-1.91-.94-1.12-1.33-2.58-1.17-4.37.16-1.79.79-3.17,1.92-4.15,1.12-.97,2.54-1.38,4.27-1.23l31.37,2.74Z"/></g></g><g id="_9" class="cls-1"><g class="cls-1"><path class="cls-2" d="m124.73,111.33c1.79.16,3.14.81,4.04,1.96.9,1.15,1.28,2.62,1.12,4.41-.15,1.73-.77,3.08-1.86,4.05-1.09.98-2.53,1.38-4.32,1.23l-31.37-2.74c-1.73-.15-3.06-.8-3.99-1.95-.94-1.15-1.33-2.59-1.18-4.32.16-1.79.79-3.18,1.92-4.15,1.12-.97,2.55-1.38,4.27-1.23l31.37,2.74Zm1.77-20.32c1.79.16,3.14.81,4.04,1.96.9,1.15,1.28,2.62,1.12,4.41-.16,1.79-.78,3.16-1.86,4.1-1.09.94-2.53,1.33-4.32,1.18l-31.37-2.74c-1.73-.15-3.06-.78-4-1.9-.94-1.12-1.33-2.58-1.17-4.37.16-1.79.8-3.18,1.92-4.15,1.12-.97,2.55-1.38,4.27-1.23l31.37,2.74Z"/></g></g><g id="_10" class="cls-1"><g class="cls-1"><path class="cls-3" d="m167.51,75.51c1.79.16,3.14.81,4.04,1.96.9,1.15,1.28,2.62,1.12,4.41-.15,1.73-.77,3.08-1.86,4.05-1.09.98-2.53,1.38-4.32,1.23l-31.37-2.74c-1.73-.15-3.06-.8-3.99-1.96-.94-1.15-1.33-2.59-1.18-4.32.16-1.79.79-3.17,1.92-4.15,1.12-.97,2.55-1.38,4.27-1.23l31.37,2.74Zm1.77-20.32c1.79.16,3.14.81,4.04,1.96.9,1.15,1.28,2.62,1.12,4.41-.16,1.79-.78,3.16-1.86,4.1-1.09.94-2.52,1.33-4.32,1.18l-31.37-2.74c-1.73-.15-3.06-.79-4-1.91-.94-1.12-1.33-2.58-1.17-4.37.16-1.79.8-3.18,1.92-4.15,1.12-.97,2.55-1.38,4.27-1.23l31.37,2.74Z"/></g></g><g id="_11" class="cls-1"><g class="cls-1"><path class="cls-3" d="m268.52,77.08c1.79.16,3.14.81,4.04,1.96.9,1.15,1.28,2.62,1.12,4.41-.15,1.73-.77,3.08-1.86,4.05-1.09.98-2.53,1.38-4.32,1.23l-31.37-2.74c-1.73-.15-3.06-.8-3.99-1.96-.94-1.15-1.33-2.59-1.18-4.32.16-1.79.79-3.17,1.92-4.15,1.12-.97,2.54-1.38,4.27-1.23l31.37,2.74Zm1.77-20.32c1.79.16,3.14.81,4.04,1.96.9,1.15,1.28,2.62,1.12,4.41s-.78,3.16-1.86,4.1c-1.09.94-2.53,1.33-4.32,1.18l-31.37-2.74c-1.73-.15-3.06-.79-4-1.91-.94-1.12-1.33-2.58-1.17-4.37s.79-3.17,1.92-4.15c1.12-.97,2.54-1.38,4.27-1.23l31.37,2.74Z"/></g></g><g id="_12" class="cls-1"><g class="cls-1"><path class="cls-4" d="m337.01,45.5c1.79.16,3.14.81,4.04,1.96.9,1.15,1.28,2.62,1.12,4.41-.15,1.73-.77,3.08-1.86,4.05-1.09.98-2.53,1.38-4.32,1.23l-31.37-2.74c-1.73-.15-3.06-.8-4-1.95-.94-1.15-1.33-2.59-1.18-4.32.16-1.79.79-3.17,1.92-4.15,1.12-.97,2.54-1.38,4.27-1.23l31.37,2.74Zm1.78-20.32c1.79.16,3.14.81,4.04,1.96.9,1.15,1.28,2.62,1.12,4.41-.16,1.79-.78,3.16-1.86,4.1-1.09.94-2.52,1.33-4.32,1.18l-31.37-2.74c-1.73-.15-3.06-.78-4-1.9-.94-1.12-1.33-2.58-1.17-4.37.16-1.79.79-3.17,1.92-4.15,1.12-.97,2.55-1.38,4.27-1.23l31.38,2.74Z"/></g></g><g id="_13" class="cls-1"><g class="cls-1"><path class="cls-3" d="m439.73,79.51c1.79.16,3.14.81,4.04,1.96.9,1.15,1.28,2.62,1.12,4.41-.15,1.73-.77,3.08-1.86,4.05-1.09.98-2.53,1.38-4.32,1.23l-31.37-2.74c-1.73-.15-3.06-.8-3.99-1.95-.94-1.15-1.33-2.59-1.18-4.32.16-1.79.79-3.17,1.92-4.15,1.12-.97,2.55-1.38,4.27-1.23l31.37,2.74Zm1.77-20.32c1.79.16,3.14.81,4.04,1.96.9,1.15,1.28,2.62,1.12,4.41-.16,1.79-.78,3.16-1.86,4.1-1.09.94-2.53,1.33-4.32,1.18l-31.37-2.74c-1.73-.15-3.06-.78-4-1.9-.94-1.12-1.33-2.58-1.17-4.37.16-1.79.8-3.17,1.92-4.15,1.12-.97,2.54-1.38,4.27-1.23l31.37,2.74Z"/></g></g><g id="_14" class="cls-1"><g class="cls-1"><path class="cls-3" d="m559.74,23.09c1.79.16,3.14.81,4.04,1.96.9,1.15,1.28,2.62,1.12,4.41-.15,1.73-.77,3.08-1.86,4.05-1.09.98-2.53,1.38-4.32,1.23l-31.37-2.74c-1.73-.15-3.06-.8-3.99-1.96-.94-1.15-1.33-2.59-1.18-4.32.16-1.79.79-3.17,1.92-4.15,1.12-.97,2.54-1.38,4.27-1.23l31.37,2.74Zm1.78-20.32c1.79.16,3.14.81,4.04,1.96.9,1.15,1.28,2.62,1.12,4.41s-.78,3.16-1.86,4.1c-1.09.94-2.52,1.33-4.32,1.18l-31.37-2.74c-1.73-.15-3.06-.79-4-1.91-.94-1.12-1.33-2.58-1.17-4.37.16-1.79.79-3.17,1.92-4.15,1.12-.97,2.55-1.38,4.27-1.23l31.37,2.74Z"/></g></g><g id="_15" class="cls-1"><g class="cls-1"><path class="cls-2" d="m525.49,79.65c1.79.16,3.14.81,4.04,1.96.9,1.15,1.28,2.62,1.12,4.41-.15,1.73-.77,3.08-1.86,4.05-1.09.98-2.53,1.38-4.32,1.23l-31.37-2.74c-1.73-.15-3.06-.8-4-1.95-.94-1.15-1.33-2.59-1.18-4.32.16-1.79.79-3.18,1.92-4.15,1.12-.97,2.54-1.38,4.27-1.23l31.37,2.74Zm1.77-20.32c1.79.16,3.14.81,4.04,1.96.9,1.15,1.28,2.62,1.12,4.41-.16,1.79-.78,3.16-1.86,4.1-1.09.94-2.53,1.34-4.32,1.18l-31.37-2.74c-1.73-.15-3.06-.78-4-1.91-.94-1.12-1.33-2.58-1.17-4.37.16-1.79.79-3.18,1.92-4.15,1.12-.97,2.54-1.38,4.27-1.23l31.37,2.74Z"/></g></g><g id="_16" class="cls-1"><g class="cls-1"><path class="cls-4" d="m480.2,150.35c1.79.16,3.14.81,4.04,1.96.9,1.15,1.28,2.62,1.12,4.41-.15,1.73-.77,3.08-1.86,4.05-1.09.98-2.53,1.38-4.32,1.23l-31.37-2.74c-1.73-.15-3.06-.8-4-1.96-.94-1.15-1.33-2.59-1.18-4.32.16-1.79.79-3.17,1.92-4.15,1.12-.97,2.54-1.38,4.27-1.23l31.37,2.74Zm1.78-20.32c1.79.16,3.14.81,4.04,1.96.9,1.15,1.28,2.62,1.12,4.41-.16,1.79-.78,3.16-1.86,4.1-1.09.94-2.53,1.33-4.32,1.18l-31.37-2.74c-1.73-.15-3.06-.79-4-1.9-.94-1.12-1.33-2.58-1.17-4.37.16-1.79.79-3.17,1.92-4.15,1.12-.97,2.54-1.38,4.27-1.23l31.37,2.74Z"/></g></g><g id="_17" class="cls-1"><g class="cls-1"><path class="cls-2" d="m45.99,124.58c1.79.16,3.14.81,4.04,1.96.9,1.15,1.28,2.62,1.12,4.41-.15,1.73-.77,3.08-1.86,4.05-1.09.98-2.53,1.38-4.32,1.23l-31.37-2.74c-1.73-.15-3.06-.8-3.99-1.96-.94-1.15-1.33-2.59-1.18-4.32.16-1.79.79-3.17,1.92-4.15,1.12-.97,2.54-1.38,4.27-1.23l31.37,2.74Zm1.77-20.32c1.79.16,3.14.81,4.04,1.96.9,1.15,1.28,2.62,1.12,4.41s-.78,3.16-1.86,4.1c-1.09.94-2.53,1.33-4.32,1.18l-31.37-2.74c-1.73-.15-3.06-.79-4-1.91-.94-1.12-1.33-2.57-1.17-4.37s.79-3.17,1.92-4.15c1.12-.97,2.54-1.38,4.27-1.23l31.37,2.74Z"/></g></g><g id="_18" class="cls-1"><g class="cls-1"><path class="cls-4" d="m37.6,191.53c1.79.16,3.14.81,4.04,1.96.9,1.15,1.28,2.62,1.12,4.41-.15,1.73-.77,3.08-1.86,4.05-1.09.98-2.53,1.38-4.32,1.23l-31.37-2.74c-1.73-.15-3.06-.8-3.99-1.95-.94-1.15-1.33-2.59-1.18-4.32.16-1.79.79-3.18,1.92-4.15,1.12-.97,2.55-1.38,4.27-1.23l31.37,2.74Zm1.77-20.32c1.79.16,3.14.81,4.04,1.96.9,1.15,1.28,2.62,1.12,4.41s-.78,3.16-1.86,4.1c-1.09.94-2.53,1.33-4.32,1.18l-31.37-2.74c-1.73-.15-3.06-.79-4-1.91-.94-1.12-1.33-2.58-1.17-4.37s.79-3.18,1.92-4.15c1.12-.97,2.55-1.38,4.27-1.23l31.37,2.74Z"/></g></g><g id="_19" class="cls-1"><g class="cls-1"><path class="cls-3" d="m94.94,58.9c1.79.16,3.14.81,4.04,1.96s1.28,2.62,1.12,4.41c-.15,1.73-.77,3.08-1.86,4.05s-2.53,1.38-4.32,1.23l-31.37-2.74c-1.73-.15-3.06-.8-3.99-1.95-.94-1.15-1.33-2.59-1.18-4.32.16-1.79.79-3.18,1.92-4.15,1.12-.97,2.55-1.38,4.27-1.23l31.37,2.74Zm1.77-20.32c1.79.16,3.14.81,4.04,1.96.9,1.15,1.28,2.62,1.12,4.41s-.78,3.16-1.86,4.1c-1.09.94-2.53,1.33-4.32,1.18l-31.37-2.74c-1.73-.15-3.06-.79-4-1.91-.94-1.12-1.33-2.57-1.17-4.37s.79-3.18,1.92-4.15c1.12-.97,2.55-1.38,4.27-1.23l31.37,2.74Z"/></g></g></svg>