<?xml version="1.0" encoding="UTF-8"?><svg id="Layer_1" xmlns="http://www.w3.org/2000/svg" viewBox="0 0 68.74 44.36"><defs><style>.cls-1{fill:#182a42;stroke:#182a42;stroke-miterlimit:10;}.cls-2{fill:#8998c0;}.cls-2,.cls-3,.cls-4{stroke-width:0px;}.cls-3{fill:#ffeadc;}.cls-4{fill:#f5f5f5;}</style></defs><path class="cls-3" d="m32.83,37.52c.43-.22.96-.35,1.27-.68.86-.92,1.9-1.18,3.08-1.1.19-.77.66-1.13,1.45-1.07.39.03.78.08,1.08-.33.5-.68,1.26-.96,2.02-1.22,1.65-1.35,2.91-3.07,4.34-4.63,2.28-2.49,4.6-4.95,6.95-7.37.73-.76,3.7-.28,4.6.61,1.88,1.85,4.17,2.27,6.58,1.55,2.58-.77,4.16-3.93,3.64-6.96-.37-2.14-1.28-4.06-2.65-5.72-1.85-2.26-4.49-2.65-6.59-.59-1.73,1.7-3.75,2.88-5.66,4.26-.6.43-1.39.49-1.73.09-1.15-1.33-2.5-2.51-3.25-4.16,0,0,.02,0,.02,0-.35.2-.51-.06-.68-.29-.71-.57-1.43-1.14-2.14-1.72-3.93-3.04-8.24-5.21-13.16-6.08-4.07-.72-8.01-.39-11.87,1.03-1.45.53-2.79,1.3-3.56,2.74-.42.77-.93.48-1.48.32-2.05-.6-4.05-.68-5.96.48-1.7,1.03-2.68,2.52-2.77,4.53-.03.61-.18.96-.71,1.3-1.43.91-2.13,2.26-2.08,4.01.03,1.04,0,2.09-.05,3.13-.05,1.08-.14,2.12-1.07,2.93-.51.45-.75,1.3-.55,1.89.75,2.21,1.05,4.76,3.72,5.73.94.34,1.78.87,2.43,1.65,1.54,1.84,3.26,3.49,5.13,4.98.6-.03,1.09.16,1.59.56.92.74,2.01,1.28,3.17,1.36,5.02.32,10.08.94,14.91-1.23Z"/><path class="cls-2" d="m33.24,37.52c-4.89,2.17-10.02,1.55-15.11,1.23-1.18-.07-2.28-.62-3.21-1.36-.5-.4-1-.58-1.61-.56-1.13.97-1.11,2.65.26,3.17,4.8,1.79,9.55,4.01,14.92,3.13,1.46-.24,2.85-.78,4.3-1.1,1.84-.4,2.15-2.07.89-4-.12-.19-.29-.34-.44-.51Z"/><path class="cls-2" d="m45.73,8.2c.72.57,1.45,1.14,2.17,1.72.27,0,.56-.04.69.29,0,0-.02,0-.02,0,2.05-.08,3.18-1.75,4.67-2.77.61-.42.49-1.16.13-1.85-.5-.96-1.04-1.9-2.28-1.79-1.24.11-2.4.33-3.39,1.4-.86.92-1.93,1.59-1.98,3.01Z"/><path class="cls-2" d="m53.38,31.69c1.19.02,2.01-.17,2.41-1.1.39-.92,0-1.72-.59-2.35-1.12-1.18-2.56-1.86-4.14-2.13-1.34-.23-2.11.79-2.63,1.74-.52.95.17,1.69,1,2.22,1.3.84,2.69,1.44,3.96,1.62Z"/><path class="cls-2" d="m42.26,33.12c-.77.26-1.54.55-2.05,1.22-.3.4-.69.36-1.09.33-.8-.06-1.28.3-1.47,1.07.03.76.5,1.11,1.18,1.27,1.89.43,3.78.84,5.72.97.63.04,1.29.09,1.6-.67.28-.68-.2-1.03-.54-1.52-.87-1.23-2.13-1.91-3.35-2.66Z"/><path class="cls-4" d="m48.59,10.2c-.13-.33-.42-.29-.69-.29.17.23.34.49.69.29Z"/><path class="cls-1" d="m53.21,13.7c-.71-.9-1.37-1.82-2.13-2.66-.52-.58-.35-.88.19-1.27,1.03-.75,2.04-1.58,2.56-2.77.6-1.37.22-2.76-.71-3.81-1.04-1.16-2.55-1.14-3.93-.71-1.43.44-2.79,1.13-3.7,2.4-.38.53-.7.67-1.32.29C39.16,2.12,33.64.77,27.86.52c-4.27-.19-8.16,1.03-11.48,3.79-.66.55-1.2.82-2.04.39-2.83-1.47-7.68,1.25-8.32,4.29-.23,1.1-.79,2.01-1.53,2.92-1.67,2.06-1.9,4.65-1.9,7.21,0,.64-.06,1.05-.59,1.5-1.84,1.6-1.97,3.02-.5,4.91.27.34.24.6.19.98-.17,1.48.56,2.61,1.99,2.93.63.14,1.05.37,1.38.91,1.17,1.91,2.66,3.56,4.33,5.04.57.5.87,1.16,1.23,1.78,2.26,4.01,5.81,5.98,10.26,6.5,4.37.51,8.68-.14,12.98-.84,1.46-.24,1.94-1.14,1.56-2.59-.15-.57-.41-1.1-.57-1.67-.11-.4-.61-.87-.11-1.22.44-.31.93-.49,1.62-.21,3.07,1.23,6.28,1.7,9.58,1.4.69-.06,1.39-.21,1.65-.97.27-.78-.09-1.42-.65-1.95-.89-.84-1.77-1.69-2.73-2.45-.58-.46-.49-.71.03-1.11.9-.69,1.66-1.82,2.65-2.05,1.05-.25,1.79,1.14,2.76,1.66,1.2.64,2.34,1.39,3.76,1.47,1.27.08,2.36-.24,3.06-1.36.74-1.18.66-2.43.04-3.63-.78-1.49-2.01-2.6-3.47-3.36-.9-.47-.73-.77-.28-1.47.83-1.28,1.61-1.65,3.19-.99,2.37.99,4.87,1.73,7.53,1.55,2.31-.16,4.01-1.45,4.45-3.7.6-3.06.36-6.06-1.13-8.87-1.9-3.57-4.96-4.36-8.25-2-1.87,1.34-3.57,2.91-5.35,4.39Zm-47.17-.76c.58.43.65,1.02.95,1.46.3.44.65.84,1.22.61.65-.27.59-.88.41-1.4-.19-.55-.5-1.07-.74-1.61-.2-.46-.4-.91-.35-1.43.15-1.83,1.61-3.53,3.62-4.18,1.63-.53,3.05-.02,4.4,1.6.17.21.34.43.53.61.38.34.84.41,1.25.12.44-.32.47-.87.12-1.21-1.15-1.1-.2-1.62.55-2.17.58-.43,1.21-.8,1.85-1.14,4.21-2.26,8.63-2.03,13.12-1.1,7.58,1.57,13.97,4.99,18.36,11.58,1.19,1.79,1.78,1.84,3.35.33,1.64-1.57,3.37-3.04,5.24-4.32.91-.62,1.92-1.08,3.07-.61.28.11.65.32.72.56.13.42-.38.41-.62.56-.39.24-.8.43-1.19.66-.53.32-1.04.71-.67,1.41.38.71.97.48,1.53.2.57-.28,1.13-.59,1.72-.81.99-.38.96.52,1.18,1.04.29.7-.13.81-.72.89-.76.09-1.51.28-2.25.48-.52.14-.92.46-.82,1.07.11.67.66.7,1.16.63.85-.12,1.69-.34,2.54-.47.72-.11.66.43.66.89,0,.43.03.78-.64.67-.89-.15-1.81-.1-2.7.16-.53.15-.9.46-.78,1.08.11.55.54.7,1.03.66.45-.03.9-.15,1.35-.17.47-.02,1.14-.39,1.37.08.27.56-.26,1.1-.68,1.51-.44.43-1.02.63-1.61.67-2.99.18-5.81-.69-8.33-2.09-1.27-.71-1.75-.61-2.5.39-2.95,3.94-6.14,7.65-10.09,10.63-5.53,4.18-11.86,6.17-18.71,6.61-3.14.2-6.26.03-9.26-1.11-3.55-1.36-6.03-3.93-8.11-6.99-.44-.65-.76-1.5-1.73-1.59-.54-.05-1.22.02-1.26-.71-.04-.69.46-.99,1.16-1,.53,0,.85-.37.83-.89-.01-.47-.37-.7-.81-.79-.27-.05-.53-.1-.8-.13-.55-.07-1.29.23-1.49-.57-.16-.65.25-1.26.75-1.48,1.24-.55,1.17-1.55,1.18-2.62.02-2.28.28-4.52,1.66-6.58Zm7.54,25.2c.27.01.4,0,.51.03,5.52,1.93,11.09,1.41,16.66.29,1.83-.37,1.76-.38,2.53,1.34.43.99.11,1.27-.81,1.4-3.68.51-7.35,1.14-11.1.6-2.95-.42-5.64-1.26-7.79-3.66Zm37.15-12.09c1.75.21,3.91,1.99,4.29,3.37.33,1.22-.47,2.09-1.73,1.77-1.66-.42-3.01-1.43-4.29-2.51-.28-.24-.39-.48-.09-.79.28-.3.53-.47.91-.13.37.33.76.65,1.17.92.41.27.89.32,1.22-.11.32-.41.21-.87-.14-1.23-.37-.39-.78-.74-1.34-1.28Zm-2.21-17.6c.57-.61,1.03-.9,1.6-1.09.52-.17.88-.53.65-1.14-.21-.56-.67-.71-1.22-.62-.75.13-1.3.61-1.85,1.08-.25.21-.41.64-.85.23-.41-.38-.12-.67.1-.93.93-1.06,2.15-1.67,3.51-1.9,1.06-.18,1.95.87,1.76,1.89-.2,1.11-2.26,2.6-3.7,2.47Zm-10.16,27.42c1.24-.73,2.27-1.33,3.31-1.93.27-.15.53-.09.75.11.92.84,1.97,1.54,2.83,2.8-2.38-.05-4.53-.21-6.89-.98Z"/><path class="cls-1" d="m30.27,20.02c-.14.75-.41,1.16-1.16,1.16-.86,0-1.72.11-2.57.17-.64.05-1.41.03-1.44.88-.03.99.84.87,1.49.94.17.02.34-.01.55.09-1.29,1.06-2.86,1.24-4.45,1.33-1.27.07-2.54.02-3.8.12-.71.05-1.6.19-1.42,1.22.16.92.95.77,1.64.69,1.85-.19,3.71-.08,5.56-.33,3.32-.44,7.08-3.3,8.11-7.13.09-.32.15-.6.02-.92-1.4-3.48-7.09-6.76-10.64-5.8-2.38.64-4.4,2.13-5.84,4.22-.51.74-.93,1.55-1.41,2.32-.26.43-.35.86.08,1.22.47.4.96.26,1.34-.12.28-.28.54-.63.69-1,1.02-2.38,3.04-3.74,5.22-4.74,1.43-.66,2.99,0,4.66.83-1.25.4-2.25.7-3.23,1.05-.7.24-1.76.39-1.46,1.4.34,1.15,1.35.56,2.08.36,1.26-.34,2.51-.77,3.76-1.14.3-.09.62-.14.93-.16.78-.07,1.08.57,1.16,1.09.09.55-.6.4-.93.49-1.05.26-2.13.43-3.2.63-.62.12-1.23.34-1.09,1.1.15.78.86.69,1.44.61,1.29-.18,2.56-.39,3.9-.6Z"/><path class="cls-1" d="m9.76,10.04c0,1.28.83,2.14,1.93,2.09,1.01-.05,1.58-.59,1.58-1.62,0-.94-1-1.97-1.86-1.95-1.02.03-1.77.39-1.66,1.48Z"/><path class="cls-1" d="m15.99,12.67c.03.59.18,1.07.84,1.04.69-.04.88-.56.86-1.15-.03-.56-.32-.96-.93-.92-.65.04-.73.56-.76,1.03Z"/><path class="cls-1" d="m26.13,33.54c-.62.12-1.02.51-1.09,1.16-.06.55.25.85.81.84.73,0,1.05-.43,1.1-1.11.03-.54-.22-.86-.81-.9Z"/><path class="cls-1" d="m6.66,25.9c.04.61.43.97,1.02,1.06.5.08.93-.14.97-.7.05-.72-.42-1.09-1.06-1.16-.52-.06-.86.23-.93.81Z"/><path class="cls-1" d="m21.1,30.34c.58-.05.88-.38.84-.89-.05-.65-.44-1.12-1.13-1.1-.53.02-.79.41-.72.94.07.61.44.96,1.02,1.05Z"/><path class="cls-1" d="m13.64,28.51c.08.53.33,1,.99.97.52-.02.8-.4.79-.91-.02-.61-.31-1.05-.98-1.02-.52.02-.78.37-.8.95Z"/><path class="cls-1" d="m34.68,23.89c-.6.06-.94.32-.92.86.02.65.44.95,1.05.97.53.02.84-.29.84-.82,0-.68-.51-.87-.97-1.01Z"/><path class="cls-1" d="m45.31,13.74c.12.55.42.89,1.02.83.59-.06.85-.45.8-1.02-.04-.53-.37-.83-.89-.78-.54.06-.88.39-.93.98Z"/><path class="cls-1" d="m33.52,16.4c.58-.04.94-.31.95-.83,0-.57-.36-.92-.93-.95-.47-.02-.77.26-.81.73-.04.59.34.88.79,1.05Z"/><path class="cls-1" d="m28.34,27.66c-.62,0-.91.29-.88.84.02.6.43.91.97.94.5.03.91-.23.91-.79,0-.66-.44-.94-.99-1Z"/><path class="cls-1" d="m39.39,30.08c.03.52.27.84.82.84.68-.01.94-.45.95-1.05,0-.5-.21-.87-.79-.84-.66.03-.9.48-.98,1.06Z"/><path class="cls-1" d="m25.6,4.95c.01.65.33.93.84.96.56.03.98-.2.99-.82.01-.53-.31-.82-.83-.85-.58-.04-.92.24-1,.72Z"/><path class="cls-1" d="m29.13,8.61c-.58.09-.85.4-.81.94.04.54.39.83.88.86.55.03.85-.36.85-.86,0-.57-.39-.88-.92-.94Z"/><path class="cls-1" d="m39.94,23.78c.1.56.43.86.95.76.56-.11.83-.52.74-1.09-.07-.48-.4-.7-.86-.65-.6.06-.83.46-.82.99Z"/><path class="cls-1" d="m43.42,24.36c.13.54.44.88,1.04.83.56-.05.78-.41.71-.94-.06-.53-.43-.8-.93-.79-.53.01-.81.34-.82.89Z"/><path class="cls-1" d="m15.43,34.03c.06.57.3.94.85.89.58-.05.85-.45.85-1.02,0-.55-.27-.84-.83-.81-.62.04-.82.46-.87.95Z"/><path class="cls-1" d="m45.04,19.12c.07.54.35.89.95.88.53,0,.84-.29.84-.83,0-.56-.34-.79-.85-.82-.52-.03-.86.19-.94.76Z"/><path class="cls-1" d="m48.76,18.38c-.02.53.22.82.68.87.58.05.95-.22.98-.82.02-.45-.18-.79-.67-.83-.58-.05-.9.27-1,.78Z"/><path class="cls-1" d="m52.87,17.6c.09.52.41.8.94.77.49-.03.72-.37.69-.83-.03-.55-.37-.81-.91-.76-.48.04-.71.34-.72.82Z"/><path class="cls-1" d="m10.84,20.82c.55,0,.85-.28.86-.83,0-.48-.24-.78-.74-.79-.54,0-.87.27-.87.82,0,.48.28.74.75.8Z"/><path class="cls-1" d="m19.56,6.92c.48-.03.77-.29.78-.76.01-.53-.29-.85-.83-.85-.49,0-.75.27-.76.75,0,.54.26.84.82.86Z"/><path class="cls-1" d="m33.31,33.11c.49,0,.79-.25.8-.74,0-.53-.29-.88-.84-.85-.53.02-.85.37-.81.9.03.48.38.69.85.69Z"/><path class="cls-1" d="m22.67,9.45c.09.54.4.79.93.76.48-.02.77-.29.76-.75,0-.51-.32-.84-.85-.84-.53,0-.79.33-.84.83Z"/><path class="cls-1" d="m41.26,17.88c.55-.03.89-.3.87-.84-.02-.46-.3-.76-.77-.78-.57-.03-.82.31-.82.84,0,.48.26.75.72.79Z"/><path class="cls-1" d="m6.04,17.57c.08.52.36.82.9.79.5-.03.71-.37.69-.82-.02-.54-.32-.83-.87-.78-.48.04-.7.35-.73.82Z"/><path class="cls-1" d="m36.5,11.25c-.52.02-.85.26-.84.83,0,.48.24.79.73.8.53.01.85-.3.87-.83.02-.49-.28-.73-.76-.8Z"/><path class="cls-1" d="m39.81,8.4c-.45.03-.79.23-.84.7-.06.55.26.84.8.85.47,0,.77-.22.78-.73,0-.49-.28-.73-.74-.82Z"/><path class="cls-1" d="m36.69,20.24c-.4.03-.69.21-.72.64-.04.48.22.76.7.78.42.02.69-.22.73-.63.04-.48-.23-.74-.7-.79Z"/><path class="cls-1" d="m47.11,22.89c.04.42.27.67.69.67.49,0,.75-.29.7-.77-.04-.42-.32-.64-.74-.61-.42.03-.63.29-.65.7Z"/><path class="cls-1" d="m35.15,5.5c-.02-.41-.2-.69-.63-.72-.49-.03-.76.23-.76.72,0,.43.28.66.69.66.41,0,.65-.24.7-.66Z"/></svg>