<?xml version="1.0" encoding="UTF-8"?><svg id="Layer_1" xmlns="http://www.w3.org/2000/svg" viewBox="0 0 86.65 45.23"><defs><style>.cls-1{fill:#81412c;}.cls-1,.cls-2,.cls-3,.cls-4,.cls-5{stroke-width:0px;}.cls-2{fill:#95a1c6;}.cls-3{fill:#182a42;}.cls-4{fill:#854430;}.cls-5{fill:#efefef;}</style></defs><path class="cls-4" d="m61.13,21.4c.46-.09.78.21,1.1.44,1.44,1.04,1.4,1.89-.2,2.67-1.95.95-3.91,1.87-6.23,1.32-.85-.2-1.8-.15-2.67.24-.81.36-1.22,1.01-1.13,1.82.1.87.67,1.43,1.57,1.67,5.08,1.31,10.12.85,15.15-.29.53-.12,1.09-.24,1.54-.51,2.81-1.68,5.99-2.19,9.07-3.03.61-.17,1.25-.33,1.78-.64,1.05-.62,1.58-1.6,1.02-2.76-1.66-3.4-3.62-6.58-7.06-8.55-2.31-1.32-4.77-1.24-7.27-.98-1.17.12-2.34.26-3.5.38-1.1.25-2.2.36-3.33.29-2.1.45-4.27.14-6.38.5-.86-.08-1.75.3-2.58-.2-2.5.9-5.12,1.27-7.73,1.57-4.59.52-9.13,1.4-13.69,2.09-3.67.56-7.36,1.02-11.1.51-1.08-.15-1.96.37-2.39,1.42-.54,1.31-.16,2.53.64,3.56.69.88,1.68.82,2.73.6,5.01-1.07,10.01-.67,14.97.38,3.96.84,7.83,1.93,11.35,4.03,1.3.78,2.67.35,3.92-.06,1.19-.39,1.53-1.9.5-2.79-2.16-1.85-1.43-4.22-1.51-6.46-.02-.6.24-.8.85-.64.34.09.73.09,1.08.02,3.43-.65,6.04,1.27,8.79,2.76.1.05.14.22.21.33,0,0-.01,0-.01,0,.26-.05.48-.03.55.29h-.02Z"/><path class="cls-2" d="m70.68,32.56c.03-1.36-1.09-2.54-2.36-2.04-3.14,1.22-6.34.84-9.54.66-1.4-.08-4.08,1.54-4.61,2.8-.31.73-.18,1.42.26,2.06,1.4,2.02,3,3.87,4.84,5.5,1.61,1.43,2.9,1.39,4.4-.13,1.15-1.17,2.41-2.19,3.74-3.14,1.88-1.36,3.13-3.13,3.28-5.7Z"/><path class="cls-2" d="m3.48,16.52c.06.72.36,1.23.69,1.72.78,1.13,1.44,2.32,1.51,3.73.06,1,0,1.96-.87,2.73-.78.7-1.19,1.61-.82,2.69.29.83.98,1.26,1.78,1.24,1.11-.02,2.13-.34,2.67-1.52.48-1.05,2.8-.96,3.99-1.55,1.53.49,2.14.29,2.89-1.09.66-1.22,1.1-2.48.57-3.89-.09-.24-.1-.54-.05-.79.21-1.11-.3-1.84-1.23-2.33-2.54-1.34-5.33-2.01-8.06-2.83-1.6-.48-3.11.67-3.09,1.89Z"/><path class="cls-2" d="m60.95,13.5c1.12.07,2.23-.04,3.33-.29-.19-2.1-1.62-3.49-2.94-4.88-1.49-1.57-3.12-2.98-4.4-4.77-1.06-1.48-2.93-1.13-3.67.57-.38.88-.48,1.83-.57,2.77-.13,1.58-.33,3.14-.96,4.61-.35.8-.33,1.58.25,2.29.83.5,1.72.11,2.58.2.63-.86,1.58-1.01,2.52-1.01,1.08,0,2.05-.19,2.78-1.07.51.47.86.98,1.08,1.58Z"/><path class="cls-1" d="m44.5,10.4c-3.25.6-6.49,1.22-9.74,1.81-1.96.35-3.93.65-5.89,1-.62.11-1.24.27-1.83.48-1.08.39-1.69,1.16-1.3,2.31.35,1.05,1.24,1.36,2.3,1.15,4.44-.88,8.87-1.77,13.31-2.64,1.15-.23,2.31-.43,3.48-.59,1.14-.15,1.97-.65,1.85-1.88-.12-1.21-1.04-1.6-2.19-1.65Z"/><path class="cls-2" d="m23.97,25.93c-.02,1,.79,1.89,1.85,1.71,1.78-.31,3.4.24,5.07.58,2.39.5,4.77,1.07,7.15,1.62,1.01.24,2.01.47,2.95.98,1.04.57,2.13.23,2.54-.7.47-1.07.04-1.88-.91-2.39-1.2-.65-2.53-.97-3.85-1.29-3.48-.85-6.96-1.67-10.43-2.51-1.14-.28-2.24-.24-3.29.37-.63.37-1.02.89-1.07,1.63Z"/><path class="cls-2" d="m59.63,21.96c-2.7,0-5.15-1.13-7.72-1.73-1.53-.36-2.73.76-2.25,2.21.51,1.53,1.38,2.73,3.2,2.92,1.4.15,2.8.13,4.19.15,2.46.04,3.12-.83,3.11-3.28,0,0,.02,0,.02,0-.33.18-.46-.01-.55-.29h.01Z"/><path class="cls-5" d="m60.95,13.5c-.23-.59-.57-1.11-1.08-1.58-.73.88-1.69,1.07-2.78,1.07-.95,0-1.89.15-2.52,1.01,2.11-.36,4.28-.05,6.38-.5Z"/><path class="cls-5" d="m60.59,21.13c.09.27.23.47.55.29-.07-.31-.29-.34-.55-.29Z"/><path class="cls-3" d="m48.78,12.22c-1.64-3.37-4.17-2.89-6.92-2.46-4.67.72-9.26,1.8-13.85,2.88-1.45.34-3.28.78-3.37,2.5-.1,1.91-1.15,1.6-2.25,1.56-3.34-.11-6.54-.97-9.7-1.98-2.86-.91-5.78-1.53-8.67-2.28-.35-.09-.72-.12-1.08-.13-2.25-.08-3.44,1.67-2.3,3.61,1.05,1.79,2.32,3.46,3.58,5.12.62.81.61,1.4.07,2.27-1.08,1.74-2.4,3.3-3.56,4.98-.59.86-1.06,1.74-.43,2.76.66,1.07,1.71,1.11,2.78.85,5.56-1.33,10.99-3.06,16.24-5.34.87-.38,1.75-.74,2.64-1.08.24-.09.52-.08.77-.11.07.11.17.2.15.25-.74,3.04-.14,3.91,2.97,4.36,4.4.64,8.79,1.36,13,2.83,2.84,1,5.1-.58,7.41-1.78.61-.31,1.05-.51,1.74-.31,1.61.46,3.25.83,4.88,1.2.69.16.83.41.37.99-.5.64-.99,1.3-1.4,2.01-.82,1.41-.72,2.57.39,3.73,2.13,2.24,4.56,4.15,7,6.04.77.6,1.63.64,2.58.41,2.33-.54,4.19-1.82,5.57-3.68,2.27-3.05,4.5-6.17,5.29-10.01.14-.68.51-.99,1.12-1.18,2.81-.88,5.6-1.8,8.42-2.64,1.05-.31,2.08-.65,3.05-1.15,1.51-.78,1.89-2.54.51-3.42-2.49-1.57-3.48-4-4.68-6.44-2.08-4.24-7.52-6.52-12.59-5.5-2.25.45-2.32.48-3.47-1.54-1.87-3.27-4.3-6.06-7.18-8.47-2.09-1.75-4.08-1.35-5.13,1.13-1.33,3.16-2.85,6.25-3.96,10.02Zm32.33,11.83c-6.56,1.87-12.66,4.85-19.52,5-2.28.05-4.55.22-6.87-.54.6-.37,1.16-.32,1.69-.42,2.18-.42,4.36-.84,6.54-1.29.92-.19,1.82-.54,1.96-1.61.15-1.1.08-2.23-1.01-2.91-3.66-2.29-7.42-4.41-11.78-5.08-2.99-.46-4.59,1.17-4.16,4.18.29,2.04.77,4.04,1.88,5.83-.43.17-.72,0-1.03-.07-6.38-1.74-12.74-3.59-19.24-4.83-3.15-.6-6.33-1.34-9.52-.06-1.99.8-1.95.75-2.08-1.41-.06-1.04.25-1.09,1.21-1.02,3.51.26,7.06.75,10.56.05,2.13-.43,4.25-.9,6.4-1.23,3.76-.58,7.49-1.41,11.26-1.97,5.66-.84,11.4-.95,17.08-1.55,1.15-.12,1.3.16.99,1.17-.86,2.86.17,5.35,1.66,7.71.52.83,1.35,1.16,2.24.69.95-.51,1.06-1.4.67-2.36-.1-.25-.24-.49-.38-.72-1.2-1.89-1.34-3.86-.64-5.98.26-.8.66-1.05,1.43-1.1,3.77-.2,6.62,1.54,8.05,5.03.64,1.55,1.23,3.12,2.6,4.49Zm-11.9,7.82c-1.66,3.51-3.38,6.66-6.29,8.98-.31.25-.72.37-1.1.53-.46.2-.86.1-1.25-.24-1.13-.97-2.33-1.88-3.44-2.88-1.99-1.81-1.93-1.8-.41-3.99.74-1.06,1.56-1.58,2.92-1.5,1.53.09,3.08-.05,4.61-.29,1.55-.23,3.12-.39,4.95-.61ZM5.68,16.69c3.01.46,5.69,1.38,8.41,2.13.3.08.49.23.48.55-.03,1.49.35,2.97.1,4.47-.06.37-.09.72-.53.85-2.63.76-5.11,1.99-8.06,2.6.7-1.14,1.25-2.11,1.88-3.03.96-1.41.94-2.77,0-4.16-.73-1.08-1.45-2.17-2.27-3.41Zm48.15-4.43c-1.36.26-1.18-.36-.9-1.03.88-2.13,1.79-4.25,2.62-6.39.26-.66.47-.8,1.01-.29,1.94,1.84,3.82,3.73,5.22,6.05.51.84.3,1.09-.57,1.15-2.53.17-5.06.35-7.37.51Zm5.81,11.35c-1.39.59-2.66.71-3.91.84-3.82.41-3.13.48-4.06-2.75-.3-1.04.21-1.07.96-.91,2.41.53,4.59,1.6,7.01,2.81Zm-17.45,5.48c-.95.69-1.64.71-2.42.43-1.19-.43-2.41-.78-3.62-1.15-2.82-.87-5.74-1.3-8.62-1.85-.33-.06-.83,0-.74-.55.09-.53.58-.35.89-.29,4.8.87,9.52,2.09,14.51,3.42Zm-7.71-14.1c3.45-1.12,7-1.69,10.61-1.97-3.51.78-7.01,1.69-10.61,1.97Z"/><path class="cls-3" d="m73.85,18.86c.04.92.52,1.53,1.49,1.56.95.02,1.56-.5,1.56-1.49,0-.98-.61-1.53-1.55-1.54-.88,0-1.43.5-1.5,1.47Z"/></svg>