<?xml version="1.0" encoding="UTF-8"?><svg id="Layer_1" xmlns="http://www.w3.org/2000/svg" viewBox="0 0 318.58 325.76"><defs><style>.cls-1{fill:#182a42;}.cls-1,.cls-2,.cls-3,.cls-4,.cls-5,.cls-6{stroke-width:0px;}.cls-2{fill:#91412c;}.cls-3{fill:#92a1c9;}.cls-4{fill:#93a2c9;}.cls-5{fill:#eb8761;}.cls-6{fill:#ffe9da;}</style></defs><path class="cls-6" d="m215.25,308.28c-4.04,0-7.08.12-10.11-.03-4.52-.22-9.05-.3-13.56-.87-2.28-.29-4.6-.26-6.9-.41-3.09-.2-6.19-.5-9.28-.71-3.16-.22-6.35-.15-9.49-.75-2.17-.41-4.44-.3-6.65-.45-2.85-.2-5.74-.37-8.55-.73-3.09-.4-6.23.07-9.26-.77-.3-.08-.64-.07-.95-.06-7.1.19-14.19-.96-21.28-.44-5.34.39-10.68.2-16.01.5-5.16.29-10.31.64-15.47.97-4.2.27-8.43.42-12.59.96-7.23.95-14.47,1.03-21.71.83-4.2-.12-8.36-.91-12.27-2.67-4.28-1.93-6.9-5.25-8.46-9.57-1.22-3.38-1.78-6.93-2.8-10.36-1.25-4.2-2.01-8.5-2.79-12.79-.56-3.04-.77-6.14-1.09-9.22-.49-4.74-1.05-9.47-1.37-14.22-.17-2.54-.47-5.08-.49-7.61-.06-5.18-.4-10.37-.69-15.52-.28-5.03,0-10.05-.37-15.06-.94-13.01.02-26.04-.55-39.04-.24-5.42.02-10.86-.44-16.25-.79-9.18-.18-18.36-.42-27.53-.04-1.63.32-3.16.9-4.66.91-2.37,2.74-3.43,5.19-3.5,1.04-.03,2.04-.19,3.07-.36,1.63-.26,3.28-.29,4.94.38,2.2.89,4.56.52,6.84.26,3.15-.36,6.28-.9,9.43-1.23,5.21-.54,10.43-.96,15.65-1.43.16-.01.32-.02.48-.02,5.43.24,10.83-.46,16.25-.61,4.29-.11,8.62-.04,12.88-.48,3.03-.31,6.04-.33,9.06-.35,6.14-.04,12.29-.29,18.4-.64,8.95-.51,17.88-.44,26.8-.2,5.41.14,10.86-.09,16.24.43,6.31.61,12.61.52,18.89.28,5.18-.19,10.38-.04,15.52-.49,3.27-.28,6.54-.48,9.78-.3,3.96.22,7.92.43,11.88.78,8.34.74,16.41,2.82,24.61,4.29,4.77.85,9.63,1.42,14.49,1.05,5.39-.41,10.82-.5,16.18-1.07,3.82-.41,7.47-.1,11.09.68,6.18,1.33,10.23,5.32,12.45,11.15,1.45,3.81,2.11,7.77,2.53,11.85.66,6.47.47,12.93.26,19.37-.11,3.38-.15,6.82-.71,10.22-.37,2.24-.29,4.59-.58,6.88-.45,3.62-.8,7.25-1.31,10.87-.49,3.46-.74,6.95-1.12,10.42-.25,2.29-.51,4.57-.84,6.85-.27,1.89-.27,3.81-.44,5.7-.24,2.6-.5,5.23-.7,7.84-.25,3.24-.15,6.52-.81,9.73-.06.31-.09.64-.07.95.27,3.36-.41,6.67-.58,10.01-.24,4.52-.56,9.05-.98,13.55-.35,3.68.09,7.37-.45,10.97-.67,4.44-.12,8.9-.75,13.34-.42,2.97-.36,6.01-1.04,8.98-1.01,4.42-3.52,7.86-7.01,10.54-5.06,3.88-10.93,5.64-17.22,6.47-5.19.69-10.41,1.11-15.61,1.71-3.05.35-6.19.48-9.27.7-5.58.4-11.19,0-16.72.51-5.04.46-10.05.1-14.06.36Zm-80.96-114.03c-6.4-.23-12.77.33-19.15.67-2.47.13-2.74.41-2.75,2.88-.03,5.27-.56,10.53-.42,15.81.07,2.93.51,3.52,3.45,3.54,3.6.02,7.19-.08,10.79,0,5.51.13,11.01.39,16.52.57,2.3.08,2.75-.39,3.11-2.66.99-6.13.14-12.28.1-18.42-.01-1.95-.57-2.34-2.54-2.38-3.04-.06-6.07-.02-9.11-.02Zm69.86,22.83c.56,0,1.12,0,1.68,0,3.38,0,3.79-.48,3.85-3.87.07-4.22-.23-8.45.42-12.66.19-1.25.14-2.56.01-3.82-.14-1.45-.8-2.07-2.08-2.16-4.92-.32-9.85-.7-14.77-.87-4.06-.14-8.14-.03-12.21,0-3.15.02-4.23.96-4.34,4.09-.19,5.34-.24,10.67-.91,15.98-.22,1.75.53,2.52,2.34,2.99.86.22,1.72.32,2.6.28,2.62-.11,5.25-.31,7.87-.33,5.18-.04,10.37-.29,15.53.37Zm-11.75,20.69c-1.42-.08-3.25-.22-5.09-.26-2.72-.06-5.44-.11-8.15-.04-1.75.04-2.38.59-2.51,1.97-.6,6.13-.8,12.28-.28,18.43.16,1.92.83,2.47,2.8,2.47.4,0,.8-.04,1.2-.07,7.74-.64,15.49-.51,23.24-.55,1.28,0,2.56.11,3.83.06,1.57-.06,2.14-.64,2.28-2.18.11-1.19.07-2.4.21-3.59.54-4.71-.14-9.42-.02-14.14.05-1.89-.7-2.52-2.48-2.36-4.87.44-9.75.07-15.04.27Zm-127.41,0s0,.03,0,.05c-4.15,0-8.3-.05-12.45.02-2.89.04-3.51.74-3.45,3.61.08,3.52.17,7.04-.16,10.53-.19,2.01-.21,3.96.05,5.94.23,1.73.69,2.34,2.36,2.38,2.23.05,4.48.05,6.7-.14,6.13-.54,12.26-.53,18.38.02,1.42.13,2.84.29,4.25-.26.94-.36,1.39-.88,1.49-1.9.55-5.78,1.16-11.56,1.72-17.34.13-1.37-.63-2.44-1.98-2.91-.83-.29-1.69-.57-2.58-.32-1.49.41-3.01.32-4.52.33-3.27.02-6.55,0-9.82,0Zm69.83,22.56c2.72,0,5.43.02,8.15,0,2.06-.02,2.68-.61,2.88-2.67.05-.48.04-.96.06-1.44.2-4.78-.14-9.59.46-14.36.07-.55.05-1.12.02-1.68-.08-1.82-.64-2.35-2.5-2.44-.24-.01-.48,0-.72,0-9.34.16-18.68.32-28.01.48-.08,0-.16,0-.24,0-1.57.11-2.15.53-2.45,2.09-.28,1.48-.51,2.97-.51,4.51,0,3.91-.09,7.83-.21,11.74-.07,2.38.59,3.32,2.97,3.24,6.71-.22,13.4.7,20.1.52Zm56.17-108.39v.03c-3.44,0-6.87-.03-10.31.01-2.59.03-3.2.64-3.56,3.14-.78,5.47-.96,10.97-1,16.48-.02,2.41.91,3.33,3.33,3.35,2.79.02,5.58-.32,8.36-.4,5.74-.16,11.47-.82,17.23-.57.72.03,1.44.03,2.16,0,1.84-.08,2.38-.61,2.48-2.47.1-1.75.18-3.51.28-5.26.22-3.91.21-7.83.2-11.74,0-1.61-.52-2.2-1.94-2.14-3.13.13-6.2-.51-9.32-.45-2.64.05-5.27.01-7.91.01Zm83.53,94.95c0-1.84,0-3.67,0-5.51,0-3.53-.23-3.79-3.71-4-.16,0-.32,0-.48,0-7.9-.05-15.81-.27-23.72-.04-1.13.03-2.22.28-3.32.35-1.37.09-2.11.91-2.25,2.08-.18,1.56-.43,3.11-.29,4.74.32,3.89,1.02,7.76.68,11.69-.05.55-.04,1.12.02,1.68.19,1.59.89,2.27,2.47,2.39.63.05,1.28.03,1.91-.04,5.23-.52,10.47-.85,15.74-.89,3.2-.02,6.36.55,9.55.44,2.82-.1,4.04-1.31,3.67-4.05-.4-2.95-.15-5.9-.28-8.84Zm-21.94-94.97c-3.03.02-6.06.04-9.08.36-2.08.22-2.42.52-2.54,2.65-.19,3.11-.29,6.22-.52,9.32-.19,2.56.08,5.1.2,7.65.08,1.76.79,2.41,2.57,2.49,1.35.06,2.72.03,4.07-.09,5.58-.5,11.15-.46,16.73-.03,2.38.19,4.78.22,7.18.22,2.05,0,2.67-.76,2.54-2.82-.07-1.11-.2-2.23-.22-3.34-.07-4.39.1-8.77.56-13.15.22-2.06-.27-2.59-2.34-2.66-6.38-.22-12.76-.4-19.14-.59Zm-187.02,22.16c4.63,0,9.27-.03,13.9.01,2.23.02,2.67-.24,2.61-2.55-.13-5.67-.32-11.35-.55-17.02-.08-1.86-.47-2.15-2.36-2.22-3.83-.15-7.67-.4-11.5-.38-5.27.03-10.52-.87-15.8-.1-2.56.38-2.93.7-2.86,3.36.12,4.56.14,9.11-.11,13.67-.07,1.27-.09,2.55.1,3.83.18,1.14.72,1.68,1.94,1.57,4.86-.45,9.75-.05,14.61-.17Zm192.4,20.94v.02c-4.31,0-8.62,0-12.93,0-2.8,0-3.52.47-3.58,3.21-.14,5.82-.11,11.65-.08,17.48,0,1.39.63,2.01,2.02,2.22.78.11,1.62.17,2.38.02,1.98-.4,3.97-.32,5.96-.33,6.07-.03,12.13-.05,18.2-.08.64,0,1.29.03,1.91-.06,1.6-.24,2.2-.93,2.21-2.56,0-.96-.06-1.92-.17-2.87-.53-4.61-.75-9.21.02-13.82.4-2.38-.33-3.21-2.76-3.22-4.39-.02-8.78,0-13.17,0Zm-198.95-.91c-2.4,0-5.04-.05-7.67.02-2.06.05-2.49.44-2.8,2.49-.88,5.94-.87,11.94-.84,17.92,0,1.58.95,2.3,2.58,1.95,1.43-.3,2.86-.31,4.29-.29,7.66.07,15.33-.34,22.99.35,2.67.24,3.68-.95,3.38-3.56-.06-.55-.19-1.11-.2-1.66-.1-4.79-.24-9.58.76-14.32.4-1.91-.09-2.37-2.15-2.37-1.6,0-3.2.03-4.79.04-5.11.03-10.18-.94-15.55-.57Zm66.07-41.2c-.4,0-.8,0-1.2,0-2.79,0-5.59-.06-8.38.03-2.33.08-2.92,1.04-2.72,3.38.37,4.54.31,9.1-.13,13.63-.34,3.52.36,4.49,3.91,4.48.4,0,.8-.02,1.2,0,6.14.19,12.26-.68,18.4-.46,2.23.08,4.43.58,6.67.44,1.75-.11,1.94-.38,2.22-2.1.79-4.73.73-9.52,1.25-14.27.1-.94.08-1.9-.17-2.85-.67-2.51-.98-2.77-3.62-2.78-5.82-.03-11.62.75-17.44.5Z"/><path class="cls-3" d="m73.21,103.02c-6.12-.36-11.86.21-17.59.48-5.01.24-9.97,1.15-14.91,2.06-2.43.44-4.88.79-7.37.77-4.17-.04-7.16-1.98-9.11-5.57-2.42-4.44-2.99-9.29-2.4-14.2.77-6.43,3.02-12.38,6.64-17.79,4.26-6.37,10.21-9.95,17.77-10.93,6.29-.81,12.58-.64,18.88-.1,3.26.28,6.53.43,9.8.65,2.66.17,5.25-.39,7.86-.72,4.2-.53,8.41-.87,12.62-1.2,10.21-.79,20.44-.65,30.67-.53,5.67.07,11.33.36,16.98.89,4.09.38,8.13-.18,12.18-.56,4.61-.43,9.21-.97,13.82-1.24,10.05-.57,20.1-.93,30.16-1.18,5.27-.13,10.54-.14,15.81-.41,8.06-.4,16.12-.58,24.17-1.02,7.35-.4,14.71-.51,22.04-.22,6.35.26,12.79.39,18.88,2.7,5.67,2.15,10.76,5.23,15.11,9.49,3.37,3.3,4.94,7.37,5.19,12.02.21,3.89-.37,7.65-1.91,11.23-.61,1.41-.58,2.67-.09,4.14,2.18,6.45-1.61,11.83-8.4,12.11-.08,0-.16.01-.24,0-5.05-.51-9.97.51-14.93,1.23-2.28.33-4.63.2-6.94.16-6.71-.14-13.42-.23-20.11-.56-6.45-.31-12.91-.58-19.36-.96-6.45-.38-12.91-.65-19.36-.97-15.66-.77-31.32-.43-46.98-.24-7.49.09-15,.48-22.48.96-12.37.79-24.74,1.1-37.11.74-6.69-.2-13.36-.87-20.05-1.21-3.19-.16-6.39-.03-9.23-.03Z"/><path class="cls-2" d="m134.29,194.25c3.04,0,6.07-.05,9.11.02,1.97.04,2.53.44,2.54,2.38.04,6.14.88,12.28-.1,18.42-.36,2.27-.82,2.73-3.11,2.66-5.51-.18-11.01-.44-16.52-.57-3.59-.09-7.19.02-10.79,0-2.94-.02-3.38-.61-3.45-3.54-.13-5.28.39-10.54.42-15.81.01-2.48.28-2.75,2.75-2.88,6.38-.34,12.75-.9,19.15-.67Z"/><path class="cls-4" d="m204.15,217.08c-5.16-.67-10.35-.41-15.53-.37-2.62.02-5.25.22-7.87.33-.88.04-1.74-.06-2.6-.28-1.81-.47-2.56-1.24-2.34-2.99.67-5.31.71-10.65.91-15.98.11-3.13,1.19-4.07,4.34-4.09,4.07-.03,8.14-.14,12.21,0,4.93.17,9.85.55,14.77.87,1.28.08,1.94.71,2.08,2.16.12,1.26.18,2.58-.01,3.82-.65,4.21-.35,8.44-.42,12.66-.06,3.39-.47,3.87-3.85,3.87-.56,0-1.12,0-1.68,0Z"/><path class="cls-2" d="m192.4,237.77c5.29-.19,10.17.18,15.04-.27,1.78-.16,2.52.47,2.48,2.36-.12,4.71.55,9.42.02,14.14-.14,1.19-.1,2.4-.21,3.59-.14,1.55-.72,2.12-2.28,2.18-1.28.05-2.56-.07-3.83-.06-7.75.04-15.5-.1-23.24.55-.4.03-.8.07-1.2.07-1.97,0-2.64-.56-2.8-2.47-.52-6.15-.32-12.29.28-18.43.13-1.37.76-1.92,2.51-1.97,2.72-.07,5.43-.02,8.15.04,1.84.04,3.67.19,5.09.26Z"/><path class="cls-4" d="m64.99,237.77c3.27,0,6.55.01,9.82,0,1.51,0,3.03.08,4.52-.33.88-.24,1.74.04,2.58.32,1.34.47,2.11,1.53,1.98,2.91-.56,5.78-1.17,11.56-1.72,17.34-.1,1.02-.55,1.54-1.49,1.9-1.41.55-2.83.38-4.25.26-6.13-.54-12.25-.56-18.38-.02-2.22.2-4.47.2-6.7.14-1.67-.04-2.13-.65-2.36-2.38-.26-1.98-.25-3.93-.05-5.94.34-3.49.25-7.02.16-10.53-.07-2.87.56-3.56,3.45-3.61,4.15-.06,8.3-.02,12.45-.02,0-.02,0-.03,0-.05Z"/><path class="cls-5" d="m134.81,260.33c-6.71.18-13.39-.74-20.1-.52-2.39.08-3.05-.86-2.97-3.24.12-3.91.21-7.83.21-11.74,0-1.54.23-3.03.51-4.51.29-1.56.88-1.98,2.45-2.09.08,0,.16,0,.24,0,9.34-.16,18.68-.32,28.01-.48.24,0,.48,0,.72,0,1.86.09,2.42.62,2.5,2.44.03.56.05,1.13-.02,1.68-.6,4.77-.25,9.58-.46,14.36-.02.48,0,.96-.06,1.44-.2,2.05-.82,2.65-2.88,2.67-2.72.03-5.43,0-8.15,0Z"/><path class="cls-5" d="m190.98,151.93c2.64,0,5.28.04,7.91-.01,3.12-.06,6.19.57,9.32.45,1.42-.06,1.93.53,1.94,2.14.01,3.92.02,7.84-.2,11.74-.1,1.75-.18,3.51-.28,5.26-.1,1.86-.64,2.39-2.48,2.47-.72.03-1.44.03-2.16,0-5.76-.24-11.48.42-17.23.57-2.78.08-5.57.42-8.36.4-2.42-.02-3.35-.94-3.33-3.35.04-5.51.21-11.02,1-16.48.36-2.5.97-3.11,3.56-3.14,3.44-.04,6.87-.01,10.31-.01v-.03Z"/><path class="cls-4" d="m274.5,246.89c.12,2.94-.12,5.89.28,8.84.37,2.74-.86,3.95-3.67,4.05-3.19.11-6.35-.46-9.55-.44-5.27.03-10.51.37-15.74.89-.63.06-1.28.09-1.91.04-1.57-.12-2.27-.8-2.47-2.39-.07-.55-.07-1.12-.02-1.68.34-3.93-.35-7.8-.68-11.69-.13-1.63.11-3.17.29-4.74.13-1.17.88-1.99,2.25-2.08,1.11-.08,2.2-.32,3.32-.35,7.91-.23,15.81,0,23.72.04.16,0,.32,0,.48,0,3.48.21,3.71.46,3.71,4,0,1.84,0,3.67,0,5.51Z"/><path class="cls-2" d="m252.57,151.91c6.38.19,12.76.37,19.14.59,2.07.07,2.56.6,2.34,2.66-.46,4.37-.63,8.75-.56,13.15.02,1.11.15,2.23.22,3.34.13,2.07-.49,2.82-2.54,2.82-2.39,0-4.79-.03-7.18-.22-5.58-.43-11.15-.48-16.73.03-1.35.12-2.71.15-4.07.09-1.78-.08-2.49-.73-2.57-2.49-.12-2.55-.39-5.09-.2-7.65.23-3.1.33-6.21.52-9.32.13-2.12.46-2.43,2.54-2.65,3.02-.31,6.05-.33,9.09-.36Z"/><path class="cls-2" d="m65.55,174.07c-4.87.12-9.75-.28-14.61.17-1.22.11-1.76-.43-1.94-1.57-.2-1.28-.17-2.56-.1-3.83.25-4.55.23-9.11.11-13.67-.07-2.66.3-2.99,2.86-3.36,5.28-.78,10.53.13,15.8.1,3.83-.02,7.67.23,11.5.38,1.89.07,2.29.37,2.36,2.22.23,5.67.43,11.34.55,17.02.05,2.31-.38,2.58-2.61,2.55-4.63-.05-9.27-.01-13.9-.01Z"/><path class="cls-5" d="m257.95,195.01c4.39,0,8.78-.01,13.17,0,2.43,0,3.16.84,2.76,3.22-.77,4.61-.55,9.21-.02,13.82.11.95.18,1.91.17,2.87,0,1.64-.6,2.32-2.21,2.56-.63.09-1.27.06-1.91.06-6.07.03-12.13.05-18.2.08-1.99.01-3.98-.08-5.96.33-.76.16-1.6.1-2.38-.02-1.39-.2-2.02-.83-2.02-2.22-.02-5.83-.05-11.66.08-17.48.06-2.74.78-3.22,3.58-3.21,4.31,0,8.62,0,12.93,0v-.02Z"/><path class="cls-5" d="m58.99,194.11c5.36-.37,10.43.61,15.55.57,1.6-.01,3.2-.04,4.79-.04,2.06,0,2.55.46,2.15,2.37-1,4.74-.86,9.53-.76,14.32.01.55.14,1.11.2,1.66.3,2.62-.71,3.8-3.38,3.56-7.66-.69-15.32-.28-22.99-.35-1.43-.01-2.85,0-4.29.29-1.63.35-2.58-.37-2.58-1.95-.03-5.99-.05-11.98.84-17.92.31-2.06.74-2.44,2.8-2.49,2.64-.07,5.27-.02,7.67-.02Z"/><path class="cls-4" d="m125.06,152.91c5.83.25,11.62-.53,17.44-.5,2.64.01,2.95.27,3.62,2.78.25.95.28,1.9.17,2.85-.52,4.75-.47,9.54-1.25,14.27-.29,1.72-.48,1.99-2.22,2.1-2.25.15-4.44-.36-6.67-.44-6.15-.22-12.26.65-18.4.46-.4-.01-.8,0-1.2,0-3.55,0-4.26-.96-3.91-4.48.44-4.53.5-9.09.13-13.63-.19-2.34.39-3.3,2.72-3.38,2.79-.09,5.59-.03,8.38-.03.4,0,.8,0,1.2,0Z"/><path class="cls-1" d="m245.43,325.72c-10.05.12-19.16-.03-28.27-.45-5.83-.27-11.67-.09-17.5-.22-18.06-.39-36.13-.3-54.2-.54-11.58-.16-23.17-.52-34.75-.96-9.34-.35-18.67-1.17-28.03-.88-4.55.14-9.09.48-13.65.52-10.92.1-21.7-.88-32.26-3.82-1.92-.54-3.87-.96-5.81-1.47-7.73-2.01-13.51-6.78-17.99-13.16-3.62-5.15-5.85-10.94-7.28-17.09-1.85-7.96-2.83-16.03-3.87-24.11-1.05-8.19-1.14-16.4-1.48-24.62-.66-15.84-.18-31.66-.12-47.49.03-9.66.51-19.33,1.12-28.98.17-2.63.06-5.28.06-7.91-.02-12.79.64-25.57.92-38.36.2-8.87.42-17.74.69-26.61.22-7.03.51-14.08,2.28-20.92,1.73-6.69,4.12-13.11,8.74-18.47,2.21-2.57,4.73-4.79,7.4-6.81,3.87-2.93,7.67-6.03,12.56-7.29,2.25-.58,4.49-1.1,6.81-1.27,6.45-.47,12.9-.99,19.35-1.47,1.04-.08,2.08-.07,3.12-.09q2.4-.05,2.43-2.37c.05-3.44,0-6.88.19-10.31.17-3.27.55-6.53,1.33-9.72.42-1.71,1-3.37,1.87-4.91,2.14-3.81,5.28-5.91,9.77-5.68,4.4.22,7.57,2.31,9.4,6.32,1.51,3.32,2.17,6.85,2.24,10.48.08,4.08.02,8.16.03,12.24,0,.72,0,1.44.06,2.16.15,1.65.22,1.73,1.89,1.71,5.2-.06,10.39-.13,15.59-.23,8.24-.15,16.47.08,24.69.53,7.02.39,14.03.87,21.07.98,7.36.12,14.7-.01,22.01-.95,10.97-1.4,22-1.43,33.03-1.11,5.75.17,11.5.38,17.25.55,1.62.05,1.89.14,1.98-1.78.19-4.23.48-8.45.76-12.67.24-3.68.76-7.31,2-10.81.59-1.66,1.32-3.27,2.44-4.65,2.57-3.18,6.84-3.94,10.35-1.83,2.49,1.5,4.1,3.75,5.33,6.33,1.96,4.12,2.56,8.53,2.95,13.01.32,3.67.26,7.35.32,11.02.03,1.79.07,1.81,1.67,1.87,4.79.17,9.59.23,14.37.51,6.06.35,12.12.79,18.03,2.32,3.74.97,7.26,2.46,10.54,4.49,4.15,2.56,7.15,6.09,8.88,10.67,2.5,6.61,4.29,13.42,4.99,20.43,1.1,11.04,2.29,22.08,3.34,33.13.66,7,.95,14.02,1.22,21.05.25,6.47.16,12.95.47,19.41.51,10.38.73,20.76.82,31.16.07,7.75.2,15.51.61,23.25.52,9.82.57,19.65.99,29.47.48,11.11.45,22.22.35,33.33-.08,9.29-1.37,18.47-3.36,27.55-.99,4.51-3.07,8.54-5.82,12.25-6.24,8.43-14.55,14.04-24.2,17.8-3.27,1.27-6.6,2.41-9.92,3.55-3.5,1.2-7.1,1.78-10.82,1.78-6.63,0-13.27-.22-18.97.16Zm47.21-173.48c.05,0,.11,0,.16,0,0-5.2.08-10.4-.03-15.59-.09-4.31.02-8.64-.39-12.94-.16-1.68-.15-1.71-1.81-1.64-4.39.18-8.78.41-13.17.58-7.35.28-14.71.18-22.06-.16-7.58-.35-15.16-.8-22.74-1.14-6.47-.29-12.94-.4-19.4-.76-10.85-.6-21.72-.69-32.58-1.16-11.58-.5-23.18-.08-34.77-.45-11.82-.37-23.65-.5-35.48-.72-8.56-.16-17.1.25-25.64.6-6.95.29-13.89.79-20.84.76-12.4-.06-24.76.91-37.16.71-1.22-.02-1.51.47-1.5,1.55.02,1.6-.02,3.2-.07,4.8-.23,7.19-.52,14.37-.71,21.56-.42,15.67.41,31.31,1.34,46.95.51,8.62.79,17.24.85,25.87.05,6.88.41,13.72.94,20.58.83,10.67,1.74,21.33,2.17,32.03.19,4.79.95,9.5,2.85,14.01,1.76,4.18,4.68,6.73,9.05,7.76,2.65.62,5.33,1.03,8.02,1.39,8.25,1.09,16.55,1.46,24.86,1.46,20.87,0,41.73-.07,62.6-.17,4.95-.02,9.91-.19,14.86-.4,5.19-.22,10.37-.75,15.55-.81,13.11-.15,26.22-.1,39.34-.14,4.88-.02,9.74.29,14.6.65,7.64.57,15.28,1.21,22.93,1.67,4.14.25,8.32.07,12.46.32,3.6.21,7.16.49,10.75-.08,2.68-.43,5.39-.77,8.11-.68,3.43.11,6.02-1.32,7.91-4.1.67-.99,1.38-1.98,1.87-3.06,1.97-4.37,3.71-8.84,4.8-13.53,1.6-6.88,2.18-13.9,2.25-20.93.13-11.43.09-22.86-.16-34.29-.26-11.58-.53-23.18-.25-34.77.07-2.87.42-5.74.44-8.61.06-9.03.02-18.07.02-27.1ZM56.41,58.84c-3.99.01-7.98-.15-11.97.31-4.27.49-7.76,2.27-10.58,5.48-1.87,2.13-3.28,4.52-4.18,7.21-.51,1.51-.94,3.07-1.58,4.52-.82,1.86-1.15,3.8-1.36,5.79-.5,4.78-.3,9.58-.47,14.37-.06,1.58,0,1.62,1.57,1.65,3.84.07,7.68.01,11.51.16,4.71.18,9.4.69,14.12.67,17.98-.1,35.97-.18,53.95-.37,7.03-.07,14.07-.22,21.08-.65,6.62-.41,13.25-.61,19.88-.67,18.22-.17,36.44.56,54.67.28,2.8-.04,5.6,0,8.39.19,9.33.65,18.67.97,28.01,1.14,12.23.22,24.44.71,36.65,1.19,4.82.19,9.56-.68,14.35-.76.96-.02,1.58-.29,1.55-1.56-.13-4.71,0-9.44-.17-14.15-.19-5.45-1.02-10.79-2.96-15.95-1.47-3.92-4.32-6.25-8.16-7.49-1.43-.46-2.95-.73-4.44-.95-7.9-1.11-15.8,0-23.7.03-1.2,0-1.64.54-1.75,1.73-.23,2.62-.58,5.24-.94,7.85-.5,3.64-1.02,7.28-2.35,10.74-.84,2.19-1.91,4.23-3.68,5.82-2.11,1.9-4.48,2.3-7.11,1.21-2.96-1.22-5.06-3.3-6.25-6.27-.89-2.24-1.34-4.59-1.64-6.98-.5-3.98-.41-7.97-.57-11.96-.11-2.85-.19-2.86-2.93-3.07-.96-.07-1.92-.1-2.87-.1-8.31.06-16.63.3-24.93.16-8.31-.15-16.63-.06-24.94-.17-26.14-.34-52.27.52-78.41.71-.24,0-.48.02-.72,0-1.12-.08-1.51.42-1.55,1.54-.14,3.27-.31,6.54-.84,9.78-.79,4.85-2.52,9.28-6.11,12.74-4.4,4.24-10.07,3.31-13.01-2.03-1.25-2.27-1.99-4.72-2.36-7.26-.65-4.42-1.26-8.85-1.76-13.3-.14-1.28-.7-1.62-1.83-1.61-3.2.02-6.39,0-9.59,0Z"/></svg>