<?xml version="1.0" encoding="UTF-8"?><svg id="Layer_1" xmlns="http://www.w3.org/2000/svg" viewBox="0 0 79.37 43.54"><defs><style>.cls-1{fill:#182a42;}.cls-1,.cls-2,.cls-3,.cls-4,.cls-5{stroke-width:0px;}.cls-2{fill:#e18060;}.cls-3{fill:#8a97be;}.cls-4{fill:#86412d;}.cls-5{fill:#f5dfd0;}</style></defs><path class="cls-3" d="m75.75,24.49c-.48,4.34-3.23,6.91-6.85,8.82-2.77,1.46-5.78,2.07-8.83,2.6-.8.14-1.61.29-2.39.49-1.18.3-2.26.2-3.42-.29-1.5-.63-3.14-.23-4.71-.13-1.9.13-3.81.19-5.71.16-5.32-.07-10.58.66-15.86,1.08-7.81.62-15.58.15-23.32-1.01-2.57-.39-3.51-1.65-2.9-4.2.1-.42-.04-.66-.22-.99-.84-1.57-.35-3.22,1.31-3.76,3.23-1.05,6.35-2.45,9.69-3.15.35-.07.72-.18,1.07-.16,1.75.06,3.34-.41,4.97-1.08,3.26-1.33,6.77-1.69,10.26-1.85,6.49-.29,12.96.52,19.44.5,4.4-.01,8.8.26,13.19-.26.71-.08,1.43-.11,2.19-.47-1.53-.51-2.91.28-4.35.02-6.12-1.11-12.03-3.06-18.04-4.6-6.14-1.57-12.41-1.47-18.67-1.17-2.07.1-3.45-.48-3.95-2.05-.45-1.42.3-2.63,2.2-3.54.16-.08.33-.14.5-.21.66.6,1.45,1.24,2.28.62.94-.7,2.04-.94,3.04-1.45,4.03-2.04,8.25-3.19,12.81-2.7,2.21.5,4.44.91,6.21,2.5.33.29.77.21,1.17.2.23.27.5.28.8.12,2.19.23,4.36-.19,6.55-.08,1.14.41,2.32.17,3.47.18,3.78.03,7.58-.2,11.22,1.14,1.22.34,2.37.85,3.43,1.53,1.58,1.03,2.44,2.47,2.29,4.41-.14-.1-.3-.17-.41-.29-2.48-2.82-5.9-3.33-9.34-3.69-.81-.08-1.42.81-2.11,1.05-.65.22-1.4-1.26-2.18-.89-1.73.82-3.16-.02-4.75-.32-1.67-.32-3.43-.17-5.16-.16-1.12,0-2.3-.28-3.36.23-.77.38-1.24.29-1.85-.34-.72-.73-1.68-.85-2.63-.32-.94.52-1.32,1.34-1.19,2.39.12,1.01.78,1.98,1.66,1.85,1.8-.26,3.06,1.06,4.56,1.22,2.82.31,5.71.27,8.54.05,1.16-.09,2.23-.95,3.4.07.21.18.85.21,1.04.04,1.42-1.32,2.66-.4,3.94.21.12.06.26.06.4.08,2.11.34,4.15.8,5.98,2.05,1.29.88,1.5,1.2.52,2.48-1.17,1.51-2.48,2.87-4.12,3.9-1.22.77-1.55,2.12-.96,3.27.6,1.18,1.86,1.63,3.26,1.19,1.02-.32,1.89-.91,2.61-1.66,1.13-1.18,2.19-2.41,3.28-3.62Zm-55.11,6.49c-.4-1.07.18-1.2,1.08-1.05.49.08.99.13,1.49.13,3.03.01,6.06.46,9.1-.05,1.06-.18,1.67-.89,2.44-1.54.73-.61,1.97.57,2.93-.13.64-.47,1-.16,1.48.28,1.02.94,2.46.96,3.49.15.91-.72,1.18-2.06.6-3.06-.64-1.11-2.08-1.68-3.31-1.14-.75.33-1.22.42-1.84-.24-.59-.62-1.62-.92-2.24-.38-1.34,1.18-2.76.79-4.29.86-3.27.15-6.53.28-9.78-.07-1.92-.21-3.72.4-5.62.36-1.76-.04-2.83,2.08-1.76,3.47,1.25,1.62,1.14,3.07.38,4.78-.59,1.32-.02,2.66,1.13,3.26,1.11.58,2.33.27,3.24-.89,1.08-1.38,1.42-3.01,1.5-4.76Zm29.46-5.42c-.78-.03-1.55,0-2.28.31-1.03.43-1.56,1.2-1.54,2.32.01,1.14.63,1.88,1.67,2.21.55.18,1.15.22,1.74.28,1.44.17,2.88.29,4.32.47,1.82.24,3.15-.54,3.44-2.05.25-1.35-.79-2.7-2.5-2.99-1.6-.27-3.23-.37-4.85-.55Zm15.87,2.56c.01-1.35-.91-2.29-2.3-2.32-1.4-.04-2.59,1.04-2.64,2.37-.04,1.31,1.06,2.43,2.41,2.45,1.38.02,2.51-1.1,2.53-2.5Z"/><path class="cls-4" d="m75.75,24.49c-1.09,1.21-2.15,2.45-3.28,3.62-.72.76-1.59,1.34-2.61,1.66-1.4.44-2.66-.01-3.26-1.19-.58-1.14-.25-2.5.96-3.27,1.64-1.04,2.96-2.39,4.12-3.9.99-1.28.77-1.6-.52-2.48-1.83-1.25-3.87-1.71-5.98-2.05-.13-.02-.28-.03-.4-.08-1.28-.62-2.52-1.53-3.94-.21-.19.17-.83.15-1.04-.04-1.16-1.02-2.23-.16-3.4-.07-2.83.22-5.72.26-8.54-.05-1.5-.16-2.76-1.48-4.56-1.22-.88.13-1.54-.84-1.66-1.85-.12-1.05.26-1.86,1.19-2.39.95-.53,1.91-.41,2.63.32.61.62,1.08.71,1.85.34,1.06-.52,2.23-.23,3.36-.23,1.72-.01,3.49-.16,5.16.16,1.59.31,3.02,1.15,4.75.32.78-.37,1.53,1.11,2.18.89.69-.23,1.3-1.13,2.11-1.05,3.44.36,6.86.87,9.34,3.69.11.12.28.2.41.29,1.93.33,2.62.98,2.75,2.88.14,2.01-.28,3.92-1.45,5.61-.06.1-.13.21-.19.31h0Z"/><path class="cls-2" d="m56.27,42.41c-5.45-.26-10.83-.73-16.22-.83-1.14-.02-1.45-1.39-1.73-2.66-.3-1.34.06-1.62,1.68-1.58,3.17.08,6.34.25,9.51.38,3.96.16,7.93.98,11.88-.32.98-.32,2,.14,2.43,1.25.45,1.17-.21,1.97-1.13,2.47-2.01,1.09-4.23,1.25-6.41,1.29Z"/><path class="cls-2" d="m54.21,8.17c-1.64,0-3.24-.33-4.84-.68-.8-.18-1.58-.32-2.42-.23-1.05.11-1.76-.43-1.98-1.46-.23-1.08.25-1.84,1.27-2.27,1-.42,1.99-.11,2.94.11,3.9.91,7.81.84,11.76.53,2.76-.21,5.54-.19,8.12,1.11.85.43,1.4,1.08,1.34,2.02-.05.87-.54,1.53-1.45,1.76-1.94-.05-3.69-1.08-5.68-.99-3.01.13-6.04.08-9.06.1Z"/><path class="cls-2" d="m39.49,5.7c-4.56-.49-8.78.66-12.81,2.7-1,.5-2.1.75-3.04,1.45-.82.61-1.62-.02-2.28-.62-.4-1.42.11-2.52,1.31-3.26,5.17-3.15,10.65-5.1,16.83-4.35,1,.12,1.72.61,1.87,1.66.15,1.03-.32,1.74-1.28,2.14-.21.09-.41.18-.62.28Z"/><path class="cls-2" d="m78.01,31.33c-.06.79-.4,1.32-.79,1.82-1.85,2.35-4.26,4.03-6.78,5.56-1.03.62-2.81.28-3.64-.57-.97-1-.6-2.59.8-2.84,3.03-.54,5.01-2.52,6.9-4.66,1.14-1.29,2.7-1.31,3.33.03.11.24.14.52.18.66Z"/><path class="cls-5" d="m54.21,8.17c3.02-.02,6.04.03,9.06-.1,2-.09,3.74.94,5.68.99-.01.23-.02.46-.03.69-3.64-1.34-7.44-1.11-11.22-1.14-1.16,0-2.34.22-3.47-.18,0-.09,0-.17-.02-.26Z"/><path class="cls-5" d="m47.68,8.51c-.29.16-.57.16-.8-.12.32-.34.59-.31.8.12Z"/><path class="cls-3" d="m75.75,24.5c.06-.1.13-.21.19-.31-.06.1-.13.21-.19.31Z"/><path class="cls-4" d="m20.64,30.98c-.08,1.76-.42,3.38-1.5,4.76-.91,1.16-2.13,1.47-3.24.89-1.15-.6-1.72-1.94-1.13-3.26.76-1.71.87-3.16-.38-4.78-1.07-1.39,0-3.52,1.76-3.47,1.9.05,3.7-.56,5.62-.36,3.24.35,6.51.22,9.78.07,1.53-.07,2.95.31,4.29-.86.62-.54,1.65-.25,2.24.38.62.66,1.1.57,1.84.24,1.23-.54,2.67.04,3.31,1.14.58,1,.32,2.34-.6,3.06-1.03.81-2.47.79-3.49-.15-.48-.45-.84-.75-1.48-.28-.96.7-2.19-.48-2.93.13-.77.64-1.38,1.36-2.44,1.54-3.03.51-6.06.06-9.1.05-.5,0-1-.05-1.49-.13-.9-.15-1.48-.01-1.08,1.05Z"/><path class="cls-4" d="m50.1,25.56c1.62.18,3.25.28,4.85.55,1.7.29,2.75,1.64,2.5,2.99-.28,1.52-1.62,2.29-3.44,2.05-1.44-.19-2.88-.31-4.32-.47-.58-.07-1.18-.11-1.74-.28-1.05-.33-1.66-1.07-1.67-2.21-.01-1.12.52-1.89,1.54-2.32.73-.3,1.49-.34,2.28-.31Z"/><path class="cls-4" d="m65.97,28.12c-.02,1.4-1.14,2.51-2.53,2.5-1.35-.02-2.45-1.14-2.41-2.45.04-1.34,1.24-2.41,2.64-2.37,1.39.04,2.31.97,2.3,2.32Z"/><path class="cls-1" d="m49.46,20.02c-5.89-1.46-11.65-3.76-17.84-3.9-4.22-.1-8.43-.38-12.62-.86-1.13-.13-2.23-.44-3.27-.88-.89-.37-1.58-.97-1.5-2.04.08-1,.79-1.47,1.69-1.72,1.18-.32,2.36-.65,3.55-.94.59-.15.99-.36.88-1.09-.4-2.5.89-3.86,3-5.02,3.8-2.09,7.88-2.9,12.11-3.28,1.27-.11,2.53-.18,3.8-.28,1.46-.12,2.67.37,3.64,1.47.3.34.66.62.97.96.68.75,1.32.95,2.12.08.96-1.05,2.26-1.1,3.55-.84,3.85.77,7.77.69,11.65,1.04,2.8.25,5.6.53,8.38.92,1.99.28,3.21,1.74,3.56,4.4.13,1.02.59,1.6,1.39,1.96,1.07.48,1.78,1.31,2.18,2.33,1.3,3.34,2.67,6.74,2.19,10.4-.31,2.31-.3,4.5.3,6.75.62,2.33-.34,4.28-1.88,5.96-1.38,1.5-2.93,2.83-4.55,4.09-1.85,1.44-3.67,1.67-5.6.28-.98-.71-1.4-.56-1.62.69-.48,2.73-.94,3.11-3.68,3.05-6.31-.13-12.61-.33-18.92-.49-1.49-.04-2.78-.64-3.78-1.66-2.39-2.43-5.12-3.11-8.51-2.56-3.48.57-7.05.57-10.58.79-2.64.17-5.25,0-7.83-.71-2.75-.75-5.53-1.44-8.28-2.18-.65-.18-1.31-.4-1.9-.72-1.59-.83-1.9-1.94-1.01-3.47.2-.34.5-.53.06-1-1.53-1.63-1.45-3.1.19-4.66,1.5-1.43,3.31-2.37,5.22-3.14,2.88-1.16,5.97-1.51,8.96-2.22.84-.2,1.7-.36,2.47-.72,4.64-2.14,9.49-2.54,14.51-1.98,5.64.63,11.31.88,17.02,1.17Zm25.68-2.24c-1.53,1.44-3.13,2.63-5.05,3.27-3.37,1.12-6.82,1.89-10.36,2.1-9.41.56-18.76-.5-28.12-1.25-3.99-.32-7.88-.18-11.61,1.45-1.33.58-2.73.94-4.16,1.23-3.15.63-6.37.96-9.34,2.33-.95.44-1.88.91-2.7,1.56-.7.56-.89,1.05.23,1.32.62.14,1.24.27,1.83.49,1.02.37,2.31.7,1.9,2.16-.42,1.49-1.57.98-2.57.6-.42-.16-.87-.2-1.01.32-.16.59.44.49.71.56,3.21.8,6.4,1.67,9.64,2.32,3.88.78,7.78.15,11.66-.14,7.69-.57,15.37-1.25,23.1-.83,4.39.23,8.8.47,13.17-.39,5.34-1.04,9.63-3.64,12.3-8.52.46-.83.8-1.72.66-2.79-.52.31-.81.78-1.19,1.16-1.37,1.36-2.99,2.36-4.79,3.03-.81.3-1.67.26-2.06-.73-.36-.9.17-1.46.88-1.9.15-.1.32-.18.48-.25,2.6-1,4.38-3.01,6.19-4.99.54-.6.76-1.22.2-2.1Zm-53.2-5.3c1.63.12,3.25.24,4.88.35,3.98.27,8.01.46,11.85,1.4,6.56,1.6,13.14,3.11,19.74,4.51,4,.85,7.82.71,11.55-1.02.31-.14.83-.23.79-.63-.04-.36-.55-.39-.87-.51-1.36-.52-2.79-.77-4.2-1.12-.86-.21-1.55-.71-1.33-1.73.21-.99,1.02-1.22,1.91-1.07,2.06.37,4.07.91,5.97,1.81.31.15.63.68,1.03.23.34-.39.15-.86-.03-1.29-.22-.52-.63-.89-1.06-1.22-1.36-1.03-2.88-1.72-4.53-2.12-3.15-.76-6.37-1.09-9.58-.73-5.5.62-10.75-.15-15.87-2.16-2.96-1.17-5.96-1-8.89.2-3.81,1.56-7.42,3.59-11.35,5.09Zm18.08,25.76c1.39,1.84,3.15,1.98,4.94,1.99,5.39.06,10.78.1,16.17.15.18,0,.36,0,.54,0,1.28-.06,1.01-1.19,1.07-1.85.07-.8-.73-.37-1.13-.36-.9.02-1.8.22-2.7.23-4.89.1-9.78.04-14.67-.16-1.33-.05-2.67,0-4.21,0Zm7.33-32.62c2.45.86,4.87,1,7.32.98,4.2-.03,8.41-.43,12.6.22.83.13,1.64.35,2.5.54-.05-.9-.67-.89-1.18-.94-2.38-.25-4.77-.53-7.16-.7-4.15-.3-8.33-.13-12.44-.99-.76-.16-1.2.17-1.66.88Zm20.29,31.02c1.95,1.5,2.04,1.49,3.75.22,1.39-1.03,2.6-2.26,3.74-3.54.7-.79,1.35-1.68.92-3.13-2.26,3-5.17,4.85-8.41,6.45ZM34.28,3.67c-3.64.24-7.09,1.13-10.21,3.13-.43.28-.73.65-.52,1.12.28.6.72.09,1.03-.03,3.27-1.29,6.29-3.17,9.69-4.22Z"/><path class="cls-1" d="m22.52,27.68c-.68-.03-1.36-.04-2.04-.11-.71-.08-1.19-.46-1.23-1.21-.04-.68.33-1.1.95-1.32.13-.05.26-.13.39-.12,4.09.21,8.08-1.29,12.18-.67.13.02.27.01.41.05.83.2,1.43.63,1.37,1.58-.05.91-.75,1.4-1.47,1.29-3.57-.56-7.04.57-10.57.54Z"/><path class="cls-1" d="m18.96,30.3c-.08,1.21-.25,2.42-.97,3.45-.51.73-1.23,1.16-2.09.64-.79-.48-.83-1.24-.42-2.02.74-1.39.86-2.7-.26-4-.53-.61-.49-1.37.18-1.92.63-.51,1.29-.35,1.85.14,1.11.97,1.66,2.22,1.71,3.72Z"/><path class="cls-1" d="m53.18,26c.95.05,1.9.07,2.84.16.82.08,1.36.53,1.35,1.4-.02.87-.58,1.33-1.41,1.32-1.81-.02-3.61-.09-5.42-.19-.84-.05-1.54-.43-1.51-1.39.03-1.04.84-1.31,1.7-1.36.81-.04,1.63,0,2.44,0,0,.02,0,.05,0,.07Z"/><path class="cls-1" d="m9.03,30.4c-1.03-.04-1.86-.84-1.77-1.73.1-.97.74-1.42,1.67-1.43.96,0,1.84.86,1.74,1.72-.11.97-.77,1.37-1.65,1.44Z"/><path class="cls-1" d="m37.34,24.81c.83.04,1.3.47,1.34,1.26.04.81-.45,1.29-1.24,1.3-.77,0-1.3-.4-1.32-1.24-.01-.81.44-1.23,1.21-1.32Z"/><path class="cls-1" d="m65.75,27.9c-.1.71-.45,1.19-1.2,1.21-.82.02-1.27-.47-1.28-1.24-.01-.71.39-1.18,1.16-1.19.81,0,1.22.44,1.32,1.22Z"/><path class="cls-1" d="m41.86,27.75c-.81-.12-1.25-.53-1.22-1.27.03-.73.47-1.16,1.22-1.14.76.02,1.14.48,1.12,1.22-.02.76-.51,1.09-1.12,1.18Z"/><path class="cls-1" d="m53.5,15.21c-1.26-.01-2.53-.01-3.76-.38-.89-.27-1.61-.77-1.38-1.84.25-1.15,1.17-1.13,2.05-.95,1.65.34,3.32.33,4.98.36.91.02,1.83.09,1.92,1.22.1,1.21-.85,1.47-1.79,1.57-.67.07-1.35.01-2.03.01Z"/><path class="cls-1" d="m62.42,13.88c-.08.81-.5,1.3-1.3,1.31-.83,0-1.41-.45-1.44-1.29-.03-.84.46-1.36,1.35-1.34.86.01,1.3.52,1.4,1.33Z"/><path class="cls-1" d="m45.21,13.57c-.85-.08-1.38-.44-1.42-1.25-.04-.82.47-1.28,1.24-1.32.79-.04,1.31.42,1.35,1.22.04.81-.48,1.21-1.17,1.35Z"/></svg>