<?xml version="1.0" encoding="UTF-8"?><svg id="Layer_1" xmlns="http://www.w3.org/2000/svg" viewBox="0 0 641.09 52.29"><defs><style>.cls-1{isolation:isolate;}.cls-2{fill:#8d9bc2;}.cls-2,.cls-3,.cls-4{stroke-width:0px;}.cls-3{fill:#feeadc;}.cls-4{fill:#e68161;}</style></defs><g id="_" class="cls-1"><g class="cls-1"><path class="cls-2" d="m188.07,23.09c1.79.16,3.14.81,4.04,1.96.9,1.15,1.28,2.62,1.12,4.41-.15,1.73-.77,3.08-1.86,4.05-1.09.98-2.53,1.38-4.32,1.23l-31.37-2.74c-1.73-.15-3.06-.8-3.99-1.96-.94-1.15-1.33-2.59-1.18-4.32.16-1.79.79-3.17,1.92-4.15,1.12-.97,2.54-1.38,4.27-1.23l31.37,2.74Zm1.77-20.32c1.79.16,3.14.81,4.04,1.96.9,1.15,1.28,2.62,1.12,4.41-.16,1.79-.78,3.16-1.86,4.1-1.09.94-2.53,1.33-4.32,1.18l-31.37-2.74c-1.73-.15-3.06-.79-4-1.9-.94-1.12-1.33-2.58-1.17-4.37.16-1.79.79-3.17,1.92-4.15,1.12-.97,2.54-1.38,4.27-1.23l31.37,2.74Z"/></g></g><g id="_8" class="cls-1"><g class="cls-1"><path class="cls-3" d="m118.89,33.38c1.79.16,3.14.81,4.04,1.96.9,1.15,1.28,2.62,1.12,4.41-.15,1.73-.77,3.08-1.86,4.05-1.09.98-2.53,1.38-4.32,1.23l-31.37-2.74c-1.73-.15-3.06-.8-3.99-1.96-.94-1.15-1.33-2.59-1.18-4.32.16-1.79.79-3.17,1.92-4.15,1.12-.97,2.54-1.38,4.27-1.23l31.37,2.74Zm1.77-20.32c1.79.16,3.14.81,4.04,1.96.9,1.15,1.28,2.62,1.12,4.41-.16,1.79-.78,3.16-1.86,4.1-1.09.94-2.53,1.33-4.32,1.18l-31.37-2.74c-1.73-.15-3.06-.79-4-1.91-.94-1.12-1.33-2.58-1.17-4.37.16-1.79.79-3.17,1.92-4.15,1.12-.97,2.54-1.38,4.27-1.23l31.37,2.74Z"/></g></g><g id="_18" class="cls-1"><g class="cls-1"><path class="cls-4" d="m37.6,26.9c1.79.16,3.14.81,4.04,1.96.9,1.15,1.28,2.62,1.12,4.41-.15,1.73-.77,3.08-1.86,4.05-1.09.98-2.53,1.38-4.32,1.23l-31.37-2.74c-1.73-.15-3.06-.8-3.99-1.95-.94-1.15-1.33-2.59-1.18-4.32.16-1.79.79-3.18,1.92-4.15,1.12-.97,2.55-1.38,4.27-1.23l31.37,2.74Zm1.77-20.32c1.79.16,3.14.81,4.04,1.96.9,1.15,1.28,2.62,1.12,4.41s-.78,3.16-1.86,4.1c-1.09.94-2.53,1.33-4.32,1.18l-31.37-2.74c-1.73-.15-3.06-.79-4-1.91-.94-1.12-1.33-2.58-1.17-4.37s.79-3.18,1.92-4.15c1.12-.97,2.55-1.38,4.27-1.23l31.37,2.74Z"/></g></g><g id="_-2" class="cls-1"><g class="cls-1"><path class="cls-2" d="m419.5,25.3c1.79.16,3.14.81,4.04,1.96.9,1.15,1.28,2.62,1.12,4.41-.15,1.73-.77,3.08-1.86,4.05-1.09.98-2.53,1.38-4.32,1.23l-31.37-2.74c-1.73-.15-3.06-.8-3.99-1.96-.94-1.15-1.33-2.59-1.18-4.32.16-1.79.79-3.17,1.92-4.15,1.12-.97,2.54-1.38,4.27-1.23l31.37,2.74Zm1.77-20.32c1.79.16,3.14.81,4.04,1.96.9,1.15,1.28,2.62,1.12,4.41-.16,1.79-.78,3.16-1.86,4.1-1.09.94-2.53,1.33-4.32,1.18l-31.37-2.74c-1.73-.15-3.06-.79-4-1.9-.94-1.12-1.33-2.58-1.17-4.37.16-1.79.79-3.17,1.92-4.15,1.12-.97,2.54-1.38,4.27-1.23l31.37,2.74Z"/></g></g><g id="_8-2" class="cls-1"><g class="cls-1"><path class="cls-3" d="m350.32,35.59c1.79.16,3.14.81,4.04,1.96.9,1.15,1.28,2.62,1.12,4.41-.15,1.73-.77,3.08-1.86,4.05-1.09.98-2.53,1.38-4.32,1.23l-31.37-2.74c-1.73-.15-3.06-.8-3.99-1.96-.94-1.15-1.33-2.59-1.18-4.32.16-1.79.79-3.17,1.92-4.15,1.12-.97,2.54-1.38,4.27-1.23l31.37,2.74Zm1.77-20.32c1.79.16,3.14.81,4.04,1.96.9,1.15,1.28,2.62,1.12,4.41-.16,1.79-.78,3.16-1.86,4.1-1.09.94-2.53,1.33-4.32,1.18l-31.37-2.74c-1.73-.15-3.06-.79-4-1.91-.94-1.12-1.33-2.58-1.17-4.37.16-1.79.79-3.17,1.92-4.15,1.12-.97,2.54-1.38,4.27-1.23l31.37,2.74Z"/></g></g><g id="_18-2" class="cls-1"><g class="cls-1"><path class="cls-4" d="m269.03,29.12c1.79.16,3.14.81,4.04,1.96.9,1.15,1.28,2.62,1.12,4.41-.15,1.73-.77,3.08-1.86,4.05-1.09.98-2.53,1.38-4.32,1.23l-31.37-2.74c-1.73-.15-3.06-.8-3.99-1.95-.94-1.15-1.33-2.59-1.18-4.32.16-1.79.79-3.18,1.92-4.15,1.12-.97,2.55-1.38,4.27-1.23l31.37,2.74Zm1.77-20.32c1.79.16,3.14.81,4.04,1.96.9,1.15,1.28,2.62,1.12,4.41s-.78,3.16-1.86,4.1c-1.09.94-2.53,1.33-4.32,1.18l-31.37-2.74c-1.73-.15-3.06-.79-4-1.91-.94-1.12-1.33-2.58-1.17-4.37s.79-3.18,1.92-4.15c1.12-.97,2.55-1.38,4.27-1.23l31.37,2.74Z"/></g></g><g id="_-3" class="cls-1"><g class="cls-1"><path class="cls-2" d="m634.12,30.32c1.79.16,3.14.81,4.04,1.96.9,1.15,1.28,2.62,1.12,4.41-.15,1.73-.77,3.08-1.86,4.05-1.09.98-2.53,1.38-4.32,1.23l-31.37-2.74c-1.73-.15-3.06-.8-3.99-1.96-.94-1.15-1.33-2.59-1.18-4.32.16-1.79.79-3.17,1.92-4.15,1.12-.97,2.54-1.38,4.27-1.23l31.37,2.74Zm1.77-20.32c1.79.16,3.14.81,4.04,1.96.9,1.15,1.28,2.62,1.12,4.41-.16,1.79-.78,3.16-1.86,4.1-1.09.94-2.53,1.33-4.32,1.18l-31.37-2.74c-1.73-.15-3.06-.79-4-1.9-.94-1.12-1.33-2.58-1.17-4.37.16-1.79.79-3.17,1.92-4.15,1.12-.97,2.54-1.38,4.27-1.23l31.37,2.74Z"/></g></g><g id="_8-3" class="cls-1"><g class="cls-1"><path class="cls-3" d="m564.94,40.61c1.79.16,3.14.81,4.04,1.96.9,1.15,1.28,2.62,1.12,4.41-.15,1.73-.77,3.08-1.86,4.05-1.09.98-2.53,1.38-4.32,1.23l-31.37-2.74c-1.73-.15-3.06-.8-3.99-1.96-.94-1.15-1.33-2.59-1.18-4.32.16-1.79.79-3.17,1.92-4.15,1.12-.97,2.54-1.38,4.27-1.23l31.37,2.74Zm1.77-20.32c1.79.16,3.14.81,4.04,1.96.9,1.15,1.28,2.62,1.12,4.41-.16,1.79-.78,3.16-1.86,4.1-1.09.94-2.53,1.33-4.32,1.18l-31.37-2.74c-1.73-.15-3.06-.79-4-1.91-.94-1.12-1.33-2.58-1.17-4.37.16-1.79.79-3.17,1.92-4.15,1.12-.97,2.54-1.38,4.27-1.23l31.37,2.74Z"/></g></g><g id="_18-3" class="cls-1"><g class="cls-1"><path class="cls-4" d="m483.65,34.13c1.79.16,3.14.81,4.04,1.96.9,1.15,1.28,2.62,1.12,4.41-.15,1.73-.77,3.08-1.86,4.05-1.09.98-2.53,1.38-4.32,1.23l-31.37-2.74c-1.73-.15-3.06-.8-3.99-1.95-.94-1.15-1.33-2.59-1.18-4.32.16-1.79.79-3.18,1.92-4.15,1.12-.97,2.55-1.38,4.27-1.23l31.37,2.74Zm1.77-20.32c1.79.16,3.14.81,4.04,1.96.9,1.15,1.28,2.62,1.12,4.41s-.78,3.16-1.86,4.1c-1.09.94-2.53,1.33-4.32,1.18l-31.37-2.74c-1.73-.15-3.06-.79-4-1.91-.94-1.12-1.33-2.58-1.17-4.37s.79-3.18,1.92-4.15c1.12-.97,2.55-1.38,4.27-1.23l31.37,2.74Z"/></g></g></svg>