<?xml version="1.0" encoding="UTF-8"?><svg id="Layer_1" xmlns="http://www.w3.org/2000/svg" viewBox="0 0 84.55 40.77"><defs><style>.cls-1{fill:#dd8b6b;}.cls-1,.cls-2,.cls-3,.cls-4{stroke-width:0px;}.cls-2{fill:#e18060;}.cls-3{fill:#86412d;}.cls-4{fill:#f5f5f5;}.cls-5{fill:#182a42;stroke:#182a42;stroke-miterlimit:10;stroke-width:.75px;}</style></defs><path class="cls-1" d="m66.64,29.74c.36-.86.13-1.61-.19-2.46-.86-2.29-1.8-4.53-3.14-6.59-3.06-4.69-7.36-8.03-12.06-10.89-3.82-2.32-7.98-3.78-12.38-4.57-2.44-.43-4.92-.57-7.39-.7-.54,0-1.09,0-1.63,0-1.39-.01-2.75.47-3.71,1.26-2.32,1.89-5.14,2.52-7.78,3.59-.1.04-.26-.07-.39-.1-.1.2-.15.51-.31.58-2.21,1.04-3.96,2.8-6.27,3.73-2.8,1.13-5.45,2.66-7.93,4.42-1.08.77-1.22,1.88-.44,3.11,1.17,1.85,2.84,3.27,4.15,5,.57.75,1.22,1.46,1.75,2.24.6.88.51.52,1.45.22.82-.26.52-.91,1.32-1.43-.07-2.72,1.97-4.4,3.61-6.28,1.19-1.37,2.55-2.58,3.83-3.87.43-.43.85-.72,1.38-.15,1.59,1.71,3.65,1.39,5.61,1.18,1.24-.13,2.47-.53,3.66-.95.82-.29,1.36-.12,1.87.53.71.91,1.47,1.79,2.41,2.94-1.76.06-3.21-.15-4.64-.13-1.11.01-1.95.34-2.08,1.25-.36,2.41-1.37,4.82-.27,7.3,1.48,3.35,3.83,5.78,7.29,7.04,1.53.56,2.96-.05,4.1-1.62.69-.95,1.39-1.88,2.23-2.73.53-.54,1.07-.44,1.4.01,1.43,1.98,3.61,2.84,5.67,3.83,2.13,1.02,4.14,2.21,6.13,3.46,1.45.92,2.48.54,2.97-1.04-.17-.72-.7-1.22-1.09-1.8-.8-.15-1.27-.8-1.89-1.23-.31-.21-.73-.53-.48-.99.22-.39.63-.22.97-.11.51.16.98-.09,1.44-.21,1.13-.27,2.23-.65,3.34-.99,2.51-.93,5.15-1.53,7.51-2.87Z"/><path class="cls-2" d="m17.97,9.28c.13.04.29.14.39.1,2.65-1.07,5.46-1.7,7.78-3.59.97-.79,2.33-1.28,3.71-1.26.54,0,1.09,0,1.63,0,.14-1.1-.47-1.64-1.46-1.7-3.97-.26-7.94-.9-11.94-.25-.53.09-1.08.03-1.63.04-1.29.04-2.01,1-1.39,2.09.89,1.57,1.67,3.22,2.91,4.56Z"/><path class="cls-3" d="m55.74,36.13c.39.58.92,1.08,1.09,1.8,2.75,1.68,5.74,2.24,8.95,2.1,1.81-.08,3.22-.84,4.46-1.98,1.01-.92.63-4.21-.53-4.98-.86-.56-1.99-.77-2.4.32-.53,2.93.23,3.83-2.95,3.81-2.21-.02-4.12-.88-5.97-1.97-1.14-.45-2.11-.41-2.66.9Z"/><path class="cls-3" d="m66.64,29.74c-2.36,1.34-5,1.94-7.51,2.87-.25.56.02,1.07.17,1.59.88.43,1.73.31,2.63.02,1.46-.48,2.95-.86,4.43-1.28.65-.04,1.18-.43,1.75-.68.8-.35,1.42-.89,1.09-1.87-.31-.92-1.09-.95-1.9-.8-.22.04-.44.1-.66.14Z"/><path class="cls-2" d="m66.36,32.94c-1.48.42-2.97.81-4.43,1.28-.9.3-1.76.42-2.63-.02-.49.18-.72.59-.9,1.03,1.85,1.09,3.76,1.96,5.97,1.97,3.18.02,2.6-.4,3.09-3.26-.75.28-.91-.32-1.1-1.01Z"/><path class="cls-4" d="m58.4,35.24c.18-.45.42-.85.9-1.03-.15-.52-.43-1.03-.17-1.59-1.11.34-2.21.72-3.34.99-.46.11-.93.37-1.44.21-.34-.11-.75-.28-.97.11-.26.46.17.78.48.99.62.42,1.09,1.08,1.89,1.23.55-1.3,1.52-1.35,2.66-.9Z"/><path class="cls-5" d="m60.02,15.44c-2.3-1.96-4.4-3.83-6.8-5.29-.19-.12-.33-.27-.37-.53-.37-2.27-1.55-4.23-2.5-6.28-.15-.33-.35-.64-.54-.94-.27-.41-.64-.71-1.14-.51-.6.24-.55.81-.41,1.29.15.52.41,1,.64,1.49.56,1.18,1.13,2.36,1.77,3.7-.9-.1-1.2-.42-1.43-1.13-.44-1.37-1.06-2.69-1.66-4.01-.25-.55-.66-1.08-1.37-.71-.62.32-.51.91-.3,1.44.36.89.75,1.78.85,2.8-.51-.76-1.01-1.55-1.55-2.29-.42-.57-.87-1.39-1.72-.92-.95.53-.18,1.25.11,2-1.21-.03-2.22-.53-3.29-.73-1.07-.19-2.13-.43-3.2-.63-1.43-.27-2.76-.48-4.1-1.37-2.16-1.43-4.86-1.68-7.41-2.04-3.15-.44-6.32-.6-9.49-.07-2.69.44-3.3,1.39-2.3,3.9.52,1.3,1.12,2.58,1.75,3.83.34.67.2.99-.4,1.42-1.82,1.32-3.82,2.26-5.96,2.9-2.92.87-5.54,2.2-7.68,4.44-1.11,1.16-1.53,2.24-.62,3.49,2.31,3.19,4.65,6.38,7.45,9.18,1,1,1.91.68,2.72-.64,1.85-3.06,3.34-6.35,5.71-9.08.27-.31.53-.63.81-.92,1.74-1.77,1.75-1.79,3.64-.18.8.68,1.7.64,2.57.38,1.43-.42,2.93-.64,4.29-1.29,1.27-.61,2.26-.32,2.98.86,0,.23-.17.26-.28.24-3.5-.74-5.09,1.71-5.44,5.21-.64,6.3,2.4,10.63,8.45,12.56,1.8.57,2.79.24,3.85-1.32,2.38-3.48,2.4-3.48,6.02-1.32,3.04,1.82,6.16,3.46,9.44,4.82,1.31.54,2.6.78,3.95.21.32-.13.6-.17.91-.02,2.61,1.26,5.38,1.05,8.15.86,4.5-.3,6.21-3.49,3.75-7.24-.72-1.1-.23-1.64.49-1.98,2.67-1.29,4.91-3.08,6.74-5.39.3-.38.58-.48,1.03-.21.36.22.8.22,1.12-.14.33-.37.19-.74,0-1.13-.51-1.1-.22-1.57,1-1.65,1.11-.07,1.4-.57.75-1.45-.6-.8-.23-1.16.5-1.3,1.06-.21,1.31-.63.72-1.58-.54-.87-.11-1.53.62-2.04.84-.58,1.32-1.37,1.36-2.38.02-.74-.27-1.35-1.04-1.56-.73-.2-1.32.04-1.76.69-.54.79-.44,1.74-.72,2.6-.19.61-.17,1.32-1.15,1.41-.73.07-.89.69-.49,1.35.61,1,.12,1.49-.81,1.79-.21.07-.6.21-.6.22.53,1.63-1.53,2.02-1.59,3.35,0,.13-.03.29-.11.38-1.72,2.16-3.67,4.04-6.29,5.06-.98.38-1.06-.76-1.53-1.22-.47-.46-.19-.79.24-1.08,2.95-2.01,4.75-4.91,6.42-7.97.55-1.01,1.49-1.79,1.37-3.1-.02-.25.14-.63.51-.74.83-.26.78-.77.57-1.5-.3-1-.03-1.96.78-2.67.34-.3.65-.61.47-1.03-.63-1.42-.22-2.8,0-4.21.11-.74.12-1.48-.66-1.91-.48-.26-.99-.22-1.39.17-.61.59-.83,1.35-.47,2.11.55,1.15.96,2.15-.64,2.82-.42.17-.4.65-.16,1.07.75,1.32.59,1.91-.71,2.81-.38.26-.61.64-.37,1.04.56.92.56,1.58-.62,1.94-.4.12-.58.56-.42.89.42.85-.08,1.46-.44,2.12-1.25,2.33-2.67,4.52-4.88,6.12-.75.54-1.11.68-1.56-.31-1.02-2.28-2.31-4.42-3.87-6.38-.34-.42-.5-.82-.42-1.36.24-1.68-.37-3.42.4-5.07.16-.35-.27-.62-.46-.92-.54-.87-1.14-1.75-.17-2.76.35-.36.36-1-.12-1.18-1.65-.6-1.5-2.14-1.9-3.38-.11-.36-.15-.83-.51-.87-.91-.11-1.38-.8-2.02-1.28-.53-.4-1.12-.77-1.69-.16-.59.63-.14,1.16.36,1.62.65.6,1.46,1.08,1.11,2.23-.12.38.32.65.79.75,1,.21,1.25.71.5,1.56-.56.64-.37,1.09.42,1.44.99.44,1.07,1.11.27,1.9-.48.47-.58.94-.07,1.39,1.32,1.15,1.45,1.44,1.27,3.52Zm-17.32,16.17c.04-.11.07-.23.11-.34.35-.04.7-.08,1.05-.12.66-.07,1.35-.16,1.33-1.02-.02-.93-.78-1.01-1.48-1.02-.82,0-1.64.16-2.36.57-1.99,1.13-3.83,2.44-5.11,4.4-.2.3-.39.62-.64.88-.44.46-.98.27-1.38,0-.57-.37.02-.69.2-.99.31-.5.69-.96.99-1.46.29-.48.27-.97-.24-1.31-.54-.36-.95-.07-1.28.35-.53.68-.96,1.46-1.59,2.03-.85.78-1.34-.24-1.87-.64-.65-.48,0-.74.33-.98.74-.53,1.5-1.02,2.23-1.55.45-.33.65-.79.29-1.3-.31-.44-.79-.45-1.22-.2-.63.36-1.24.76-1.84,1.17-1.74,1.18-1.84,1.15-2.52-.83-.03-.09-.04-.18-.08-.26-.27-.56-.16-.81.52-.82.58,0,1.16-.15,1.75-.23.72-.09,1.27-.4,1.12-1.21-.15-.83-.82-.67-1.41-.58-.54.08-1.08.15-1.62.19-1.33.09-.8-.9-.82-1.51-.03-.67.17-1.17,1.05-.93.7.19,1.41.34,2.12.45.52.08,1.04.03,1.19-.61.16-.69-.3-.99-.86-1.17-.39-.12-.8-.16-1.19-.28-.42-.13-1.2.03-1.11-.63.09-.64.82-.6,1.36-.58,1.91.07,3.79.34,5.67.69.63.12,1.26.24,1.47-.5.23-.81-.36-1.17-1.05-1.26-1.11-.13-1.93-.62-2.52-1.59-.27-.45-.77-.76-1.13-1.17-1.28-1.47-2.81-1.65-4.56-1.01-1.19.43-2.45.69-3.61,1.18-1.36.58-2.06-.04-2.7-1.13,1.6-.96,3.23-1.08,4.94-.74.66.13,1.34.09,1.49-.75.16-.85-.5-1.14-1.14-1.23-1.95-.27-3.88-.28-5.73.61-3.1,1.48-5.24,3.98-7.23,6.66-1.41,1.9-2.31,4.11-3.66,6.04-.21.3-.19,1.3-1.06.71-.86-.58-.24-1.03.15-1.52.68-.84,1.43-1.65,1.89-2.65.23-.51.2-1-.32-1.31-.55-.33-.94,0-1.26.43-.51.7-1,1.4-1.54,2.07-.21.26-.36.79-.73.66-.33-.12-.6-.54-.79-.89-.3-.54.28-.67.55-.92.43-.41.89-.77,1.32-1.18.48-.45,1-.96.38-1.6-.62-.64-1.15-.11-1.65.3-.42.35-.81.73-1.25,1.06-.33.24-.65.74-1.13.18-.47-.54-.02-.82.32-1.09.5-.39,1.03-.75,1.54-1.11.44-.31.78-.7.47-1.25-.31-.55-.88-.52-1.32-.29-.68.35-1.28.84-1.92,1.27-.27.18-.53.64-.88.15-.23-.32-.51-.69-.05-1.07,1.32-1.09,2.41-2.56,4.13-3.04,4.87-1.35,9.04-4.12,13.43-6.46,4.72-2.51,9.67-4.23,15.13-3.4,13.7,2.09,24.33,8.53,30.3,21.52.28.61.25.84-.36,1.12-1.65.76-3.3,1.52-4.89,2.39-2.67,1.48-5.47,2.09-8.51,1.7-.89-.11-2.1-.32-2.37.95-.26,1.27.89,1.62,1.79,2.04.12.06.25.1.39.13,1.22.23,2.12,1,3,1.81-4.27-1.5-8.22-3.63-12.04-6ZM30.04,3.77c-3.1.41-5.91,1.67-8.77,2.77-1.23.47-2.47,2.11-3.58,1.33-1.03-.72-1.36-2.48-1.92-3.81-.16-.38-.79-1.07.2-1.26.74-.14,1.67-.85,2.11.53.23.72.62,1.4,1,2.07.25.44.7.59,1.17.36.44-.21.51-.64.4-1.05-.13-.47-.4-.91-.56-1.38-.11-.32-.6-.74.02-.98.43-.17.9-.07,1.13.46.18.42.38.82.58,1.22.28.55.63,1.07,1.36.77.66-.28.54-.86.38-1.4-.08-.29-.36-.54-.1-.95,2.2.2,4.42.48,6.59,1.31Zm37.53,29.63c.62.5.81,1.07,1.01,1.6.69,1.87.15,2.84-1.83,3.19-1.02.18-2.06.31-3.1.32-2.21.02-4.4-.16-6.16-1.79,2.02.43,4.05.82,6.11,1.01,3.14.28,4.5-1.16,3.97-4.33Zm-7.74,1.77c1.68-.47,3.04-.85,4.41-1.22.76-.2,1.53-.17,1.63.8.1.99-.73,1.13-1.47,1.14-1.44.01-2.85-.29-4.58-.71Zm3.08-2.84l-.09-.26c1.2-.58,2.41-1.16,3.62-1.72.45-.21,1.05-.45,1.27.19.21.61-.44.86-.88.97-1.29.33-2.61.55-3.92.82Z"/><path class="cls-5" d="m39.56,8.17c-.54.03-1.1.11-1.17.83-.09.89.62,1.07,1.24,1.14,2.9.31,5.5,1.48,8.08,2.7,1.35.64,2.62,1.44,3.94,2.14.46.25,1.01.37,1.35-.14.37-.55.11-1.07-.41-1.39-3.94-2.47-8.04-4.57-12.73-5.23-.09-.01-.18-.03-.3-.05Z"/><path class="cls-5" d="m47.57,23.34c.02.48.03,1.01.71,1.09.61.07.92-.28,1.06-.83.16-.61.26-1.25.49-1.83.3-.77.65-1.52,1.71-1.44.52.04.89-.24.92-.79.03-.54-.37-.8-.82-.95-.94-.32-1.69.07-2.35.68-1.18,1.08-1.53,2.53-1.71,4.07Z"/><path class="cls-5" d="m63.81,26.8c-.38-1.07-.9-2.06-1.63-2.93-.29-.35-.69-.44-1.1-.22-.45.23-.49.72-.32,1.06.49,1.01,1.04,1.99,1.62,2.95.2.34.62.37.98.21.45-.21.42-.64.46-1.06Z"/><path class="cls-5" d="m55.73,27.68c.97-.11,1.49-.59,1.48-1.5,0-.95-.53-1.52-1.51-1.52-.98,0-1.52.54-1.48,1.52.04.96.65,1.41,1.5,1.5Z"/><path class="cls-5" d="m54.42,31.74c.51.03.87-.02,1.04-.41.15-.36.14-.75-.18-.99-.81-.6-1.69-1.03-2.73-1.05-.33,0-.65.11-.76.46-.12.37-.07.75.27.97.76.5,1.61.8,2.35,1.02Z"/><path class="cls-5" d="m45.44,21.64c.03.54-.07,1.19.66,1.31.78.12.97-.48,1.07-1.11,0-.04.02-.09.03-.13.13-.6.52-1.23-.07-1.78-.25-.23-.61-.22-.9-.06-.69.39-.76,1.07-.78,1.77Z"/><path class="cls-5" d="m59.25,21.45c.74.02,1.03-.3,1.01-.82-.03-.79-.44-1.39-1.25-1.52-.51-.08-.89.3-.85.82.06.75.44,1.34,1.08,1.52Z"/><path class="cls-5" d="m48.74,28.63c.52-.02.85-.27.85-.82,0-.67-.45-.99-1.03-1.06-.49-.06-.9.16-.94.74-.04.76.48,1,1.11,1.14Z"/><path class="cls-5" d="m56.1,17.79c.03.59.36.94.93.98.51.04.91-.23.91-.78,0-.63-.4-1.03-1.02-1.06-.53-.03-.82.31-.82.86Z"/><path class="cls-5" d="m32.94,8.11c.02.58.33.95.9.93.54-.01.76-.41.74-.92-.02-.51-.28-.84-.82-.85-.55-.01-.79.32-.82.84Z"/><path class="cls-5" d="m36.17,8.51c.02.48.28.75.75.73.41-.02.65-.27.66-.69,0-.48-.26-.75-.74-.73-.42.02-.63.27-.66.69Z"/></svg>