<?xml version="1.0" encoding="UTF-8"?><svg id="Layer_1" xmlns="http://www.w3.org/2000/svg" xmlns:xlink="http://www.w3.org/1999/xlink" viewBox="0 0 98.86 89.4"><defs><style>.cls-1{clip-path:url(#clippath);}.cls-2{fill:none;}.cls-2,.cls-3,.cls-4{stroke-width:0px;}.cls-5{isolation:isolate;}.cls-3{fill:#182a42;}.cls-4{fill:#dc8b6b;}</style><clipPath id="clippath"><rect class="cls-2" x="12.38" y=".9" width="77.09" height="80.33" transform="translate(-10.1 64.64) rotate(-60)"/></clipPath></defs><g id="Group_300"><g class="cls-1"><g id="Group_159"><path id="Path_4163" class="cls-4" d="m70.69,8.37c3.1,2.81,5.43,6.15,6.63,10.19.24.78.55,1.17,1.39,1.28,1.31.16,2.61.42,3.89.76,4.6,1.27,8.18,3.83,10.16,8.3,1.25,2.8,2.18,5.61,2.19,8.81.01,3.07-.25,6.01-1.21,8.9-1.72,5.16-5.24,8.03-10.68,8.51-2.03.15-4.06.04-6.06-.32-.42-.06-.89-.37-1.37.05.22.49.42.96.64,1.42.77,1.57,1.4,3.2,1.88,4.89,1.65,6,.47,11.28-4,15.74-3.89,3.9-8.38,5.42-13.8,3.74-2.54-.78-4.59-2.13-6.08-4.35-.86-1.3-1.63-2.66-2.3-4.06-.2-.41-.29-.89-.84-1.3-.48.83-.88,1.58-1.33,2.29-1.25,1.99-2.9,3.47-5.28,3.97-5.33,1.11-10.02.08-13.76-4.14-2.98-3.36-4.99-7.2-5.87-11.61-.43-2.08-.74-4.18-.94-6.3-.07-.71-.37-.99-1-1.13-1.15-.27-2.29-.57-3.44-.85-4.53-1.12-9.06-2.23-13.6-3.35-.46-.11-1-.14-1.25-.57-.75-1.26-1.56-2.49-1.98-3.9-.26-.88,0-1.29.84-1.69.17-.08.35-.14.52-.22,2.25-.98,4.5-1.96,6.74-2.95.43-.19.86-.34.71-1.01-.54-2.35,0-4.7.12-7.04.1-1.77.75-3.39,1.62-4.93,1.38-2.44,3.49-4.17,5.51-6.02,2.29-2.1,5.08-3.13,8.01-3.63,2.97-.51,6-.74,9.01-.09,1,.22,1.02.19,1.33-.86.41-1.36,1.02-2.65,1.82-3.82.55-.82,1.11-1.64,1.6-2.5,1.38-2.4,3.55-4.24,6.15-5.2,3-1.16,6.13-1.63,9.31-1.11,1.3.19,2.61.27,3.92.23,4.08-.06,7.73,1.12,10.78,3.89M4.1,45.26c.03-.16.09-.32.17-.46-.17.09-.24.29-.17.46"/></g></g></g><g id="There_s_plenty_of_fish_in_the_sea" class="cls-5"><g class="cls-5"><path class="cls-3" d="m39.33,28.7l-.04.08.07.14-.05.19v.2l.04.12v.15l-.06.18.07.23-.02.15v.27l-.02.09v.55s-.01.26-.01.26l.04.24-.06.2h-.07l-.15.08h-.21s-.11-.13-.11-.13v-.25s-.01-.21-.01-.21l.02-.09-.04-.12.03-.28v-.04s-.04-.2-.04-.2v-.18s.06-.1.06-.1v-.12l-.05-.17.03-.24-.02-.25.04-.05-.02-.2v-.05s-.01-.17-.01-.17l.03-.19-.04-.19.1-.31-.03-.06-.07-.04h-.12s-.1.05-.1.05h-.21l-.19.04-.23-.05-.22.02h-.16s-.12-.05-.12-.05l-.02-.13.02-.07v-.16l.04-.11.18-.03.23.04.07-.04h.18s.12.04.12.04h.2s.16-.06.16-.06l.43.04.23-.02.16.03.06.04.23-.04h.15l.26-.04.2.04h.28l.1.04.05.06.06.15-.02.22-.07.04-.32.02-.2-.04-.14.04h-.1s-.1.01-.1.01l-.21-.04-.18-.07-.07.02-.05.07.05.11.04.15v.18Z"/><path class="cls-3" d="m42.68,29.79l-.02.07.02.19.04.03-.07.34.03.12v.11s.04.1.04.1l-.05.23.03.11-.04.09v.15s.01.29.01.29v.08s-.08.12-.08.12l-.19.04-.25-.04-.04-.14v-.11s-.04-.11-.04-.11l.03-.4.02-.1-.02-.14v-.15s.01-.31.01-.31l-.04-.12.06-.21-.05-.14.04-.11-.04-.21.04-.12v-.2s-.04-.18-.04-.18l-.02-.16.07-.18v-.26l-.04-.33v-.75l.08-.2h.16s.15-.01.15-.01l.18.13v.17s0,.09,0,.09v.2s.01.43.01.43l-.02.04.04.23-.05.28-.03.26.07.03.06-.12.25-.19.1-.05.16.02.26-.09h.48s.28.16.28.16l.15.1.18.26.07.21.03.42v.12s.01.29.01.29v.18s0,.12,0,.12l-.03.13.04.2-.04.16v.26l.05.21-.04.15.02.1-.03.18h-.35l-.12-.02-.07-.1-.04-.18.02-.09.02-.34-.02-.09v-.22l-.04-.2.04-.23v-.28l-.03-.04.04-.29-.06-.17v-.19l-.22-.26-.21-.06-.16-.07-.23.07h-.09s-.15.09-.15.09l-.18.06-.04.03h-.09l-.08.07.02.12.07.14-.03.19Z"/><path class="cls-3" d="m46.88,30.71v.12s.08.14.08.14h.05s.1.22.1.22l.15.1.04.04.53.12h.2l.24-.08.03-.07.22-.06.22-.29h.04s.13-.14.13-.14h.15l.05.02.12.02.04.13-.03.12-.12.27-.16.1-.11.12-.24.16-.14.05h-.07l-.12.06-.3.07h-.15l-.32-.06h-.15l-.12-.02-.17-.08-.18-.08-.19-.1-.09-.18-.14-.12-.03-.09-.09-.18-.07-.03-.02-.25v-.15s-.06-.38-.06-.38l.04-.16v-.3l.06-.14v-.08s.12-.18.12-.18l.09-.19.07-.09h.04s.1-.18.1-.18l.18-.1.31-.15.15-.04.07-.04.2-.04.19.03.07.04.1-.04.15.04.07.05.19.04.14.07.1.03.1.07.3.29.1.17.04.17.04.1.05.22v.05s.03.25.03.25l-.05.1-.15.1h-.13l-.09.03-.17-.02-.11.02h-.22s-.08.01-.08.01l-.18-.05-.31.04-.16-.03-.13.06-.2-.03-.07.04-.29-.04-.1-.04-.13-.03-.04.07.15.3.02.07Z"/><path class="cls-3" d="m53.6,31.62l-.05.18-.34.05h-.33l-.23-.04-.18.04h-.57s-.31,0-.31,0l-.19-.03-.16.04h-.28l-.12-.04-.06-.1v-.1s0-.18,0-.18l.12-.07h.15l.1-.02h.24l.15.04.07.05.13-.06-.09-.07-.04-.23v-.16l-.03-.26v-.27l.04-.29-.04-.23.03-.18-.03-.03.06-.19v-.19s.09-.15.09-.15l-.11-.02-.12.04-.26.04-.18-.03-.23-.07-.05-.18.07-.13.18-.1h.18l.06-.03.37.04h.23l.22.06.04.13v.04s0,.28,0,.28l-.04.18.12-.12.04-.14.07-.04.1-.17.12-.1.1-.06.06-.08.35-.07h.08s.27,0,.27,0l.28.08.09.07v.38l-.09.09h-.47s-.23,0-.23,0h-.15l-.1.05h-.12s-.12.15-.12.15l-.23.19h-.11s-.04.09-.04.09l.1.07v.13s.05.12.05.12l-.07.37.04.23-.04.16.04.38-.04.14.07.1.21-.07.16.04.21-.03h.16s.2-.02.2-.02h.19s.18.09.18.09l.03.18.03.03Z"/><path class="cls-3" d="m55.65,30.71v.12s.08.14.08.14h.05s.1.22.1.22l.15.1.04.04.53.12h.2l.24-.08.03-.07.22-.06.22-.29h.04s.13-.14.13-.14h.15l.05.02.12.02.04.13-.03.12-.12.27-.16.1-.11.12-.24.16-.14.05h-.07l-.12.06-.3.07h-.15l-.32-.06h-.15l-.12-.02-.17-.08-.18-.08-.19-.1-.09-.18-.14-.12-.03-.09-.09-.18-.07-.03-.02-.25v-.15s-.06-.38-.06-.38l.04-.16v-.3l.06-.14v-.08s.12-.18.12-.18l.09-.19.07-.09h.04s.1-.18.1-.18l.18-.1.31-.15.15-.04.07-.04.2-.04.19.03.07.04.1-.04.15.04.07.05.19.04.14.07.1.03.1.07.3.29.1.17.04.17.04.1.05.22v.05s.03.25.03.25l-.05.1-.15.1h-.13l-.09.03-.17-.02-.11.02h-.22s-.08.01-.08.01l-.18-.05-.31.04-.16-.03-.13.06-.2-.03-.07.04-.29-.04-.1-.04-.13-.03-.04.07.15.3.02.07Z"/><path class="cls-3" d="m60.48,29.43h-.2s-.09-.12-.09-.12l.11-.26v-.15l.06-.12v-.13s.07-.04.07-.04l.04-.35.08-.23v-.04l.11-.31.17-.23h.27l.12-.02.28.04.03.11-.05.13-.03.16-.12.18-.07.05-.09.23-.13.23-.12.16-.07.17-.09.15-.07.07-.07.14-.12.2Z"/><path class="cls-3" d="m66.81,30.95l-.03.15v.18s-.17.21-.17.21l-.17.17-.38.2h-.13l-.4.07h-.4l-.1-.02h-.2s-.11-.06-.11-.06h-.09l-.28-.1-.17-.17-.02-.04-.15-.16-.04-.07-.06-.2-.05-.12v-.11s.09-.05.09-.05h.1s.29.03.29.03l.07.07.07.15.11.17.12.09.18.04.16.07.22-.04h.19l.21.06.35-.11.12-.1.03-.1.05-.1v-.15s-.04-.08-.04-.08l-.22-.18-.08-.02-.04-.03-.13-.02-.29-.1h-.11s-.2-.01-.2-.01l-.25-.07h-.07s-.3-.15-.3-.15l-.26-.11-.11-.12-.18-.29v-.22s.02-.21.02-.21l.07-.07.09-.2.07-.09.12-.1.15-.05.04-.05.13-.04.2-.02.18-.04h.12s.12-.05.12-.05l.25.05.12-.03.29.12h.13s.28.18.28.18l.05.06.12.07.07.16.1.12.03.2-.02.03-.12.09-.22-.02-.23-.1-.07-.15-.21-.18-.23-.07h-.1s-.23-.04-.23-.04l-.25.07-.3.07-.13.09-.07.11v.08s0,.1,0,.1l.04.11.07.05.12.1.26.08.21.03.12.04h.09s.47.12.47.12h.13s.07.07.07.07l.2.03.14.11.13.07.13.18.12.28v.14s-.01,0-.01,0Z"/></g><g class="cls-5"><path class="cls-3" d="m33.9,40.38l.02.2.03.26-.05.24-.03.04.07.26-.04.15h.02l-.05.3-.05.08-.3.04-.19-.04-.03-.23.03-.29-.05-.15.03-.24v-.07s.04-.12.04-.12l-.03-.32.02-.11v-.12s-.01-.19-.01-.19l.02-.19-.04-.18.04-.19-.04-.08v-.26l.04-.11v-.17l-.05-.18.02-.22-.04-.18.05-.15v-.16s-.07-.18-.07-.18l.06-.25v-.14s.2-.04.2-.04l.25.03v.04s0,.28,0,.28l.04.05.13-.12.1-.12.1-.03.21-.11.26-.08h.37l.2.04.35.15.14.11.02.07.23.26.14.31v.1s.11.34.11.34v.38l-.03.14-.07.4-.04.04v.19s-.14.22-.14.22l-.17.2v.08s-.22.09-.22.09l-.06.06-.27.11h-.09s-.25.04-.25.04l-.2-.04h-.12s-.1-.06-.1-.06l-.26-.09-.22-.2-.06.07Z"/><path class="cls-3" d="m40.39,40.49l-.07.09-.28.03h-.35l-.04-.02h-.21s-.46.01-.46.01l-.04-.04-.23.04h-.42s-.28-.03-.28-.03l-.2.04-.16-.06-.04-.27.13-.16.15-.04.16.04h.12s.07,0,.07,0l.3-.02.18.1.06-.1-.04-.15v-.11l-.05-.18.03-.23-.03-.05.06-.24v-.09s-.01-.17-.01-.17v-.07s0-.09,0-.09v-.27l.04-.08-.04-.26.02-.1-.03-.06-.02-.26v-.18l.05-.2-.04-.15.02-.34-.03-.16.04-.13.07-.11-.06-.07-.09-.02-.19.04-.18-.02-.29.03-.26-.03-.11-.1v-.1s.03-.18.03-.18l.16-.09.2.02h.35s.13,0,.13,0h.55l.1.04.15.17-.02.14.03.17-.07.15.04.21v.38s.01.26.01.26l.03.36-.04.14v.37s.03.14.03.14l-.04.43.02.28-.04.1.04.18.03.07-.03.19-.04.31-.09.1.07.09.35-.09.12.03.2-.03.05-.03h.21s.22.12.22.12v.28Z"/><path class="cls-3" d="m42.49,39.49v.12s.08.14.08.14h.05s.1.22.1.22l.15.1.04.04.53.12h.2l.24-.08.03-.07.22-.06.22-.29h.04s.13-.14.13-.14h.15l.05.02.12.02.04.13-.03.12-.12.27-.16.1-.11.12-.24.16-.14.05h-.07l-.12.06-.3.07h-.15l-.32-.06h-.15l-.12-.02-.17-.08-.18-.08-.19-.1-.09-.18-.14-.12-.03-.09-.09-.18-.07-.03-.02-.25v-.15s-.06-.38-.06-.38l.04-.16v-.3l.06-.14v-.08s.12-.18.12-.18l.09-.19.07-.09h.04s.1-.18.1-.18l.18-.1.31-.15.15-.04.07-.04.2-.04.19.03.07.04.1-.04.15.04.07.05.19.04.14.07.1.03.1.07.3.29.1.17.04.17.04.1.05.22v.05s.03.25.03.25l-.05.1-.15.1h-.13l-.09.03-.17-.02-.11.02h-.22s-.08.01-.08.01l-.18-.05-.31.04-.16-.03-.13.06-.2-.03-.07.04-.29-.04-.1-.04-.13-.03-.04.07.15.3.02.07Z"/><path class="cls-3" d="m47.05,38.46l.03.22v1.06l-.04.07.04.23-.03.15.03.19-.03.2-.26.04-.21-.05-.09-.09v-.13s.01-.39.01-.39l-.04-.29v-.61l.02-.27-.05-.21.03-.35.03-.1-.02-.27.03-.12v-.18l.12-.09h.13s.15-.03.15-.03l.06.06-.04.29.04.04h.1s.04-.13.04-.13l.14-.08.13-.11.1-.06h.19l.16-.06h.16s.29-.01.29-.01l.13.04.18.08.2.13.06.06.15.27.05.16.03.37v.32s.01.21.01.21v.15s.02.17.02.17l-.03.15v.16s0,.08,0,.08v.28l.04.23-.04.09.02.13-.14.14-.15.04h-.1s-.16-.03-.16-.03v-.08s-.07-.22-.07-.22l.04-.17.02-.19-.02-.12v-.14l-.02-.12v-.23s.04-.1.04-.1l-.03-.34v-.38l-.04-.2-.09-.22-.09-.14-.12-.05-.38-.1-.17.07h-.05s-.23.1-.23.1l-.29.07-.06.09.06.11v.13s0,.09,0,.09Z"/><path class="cls-3" d="m53.2,40.68l-.14-.04-.23.06-.33-.03-.29-.05-.26-.1-.1-.09-.08-.13-.12-.12-.12-.34v-1.02l.02-.09-.04-.18.04-.07-.05-.15.06-.12v-.22s.07-.08.07-.08l-.07-.09-.15.07-.19.02-.18-.02-.12.02h-.07s-.34-.03-.34-.03l-.04-.1-.02-.16.02-.15.09-.04h.15s.34.01.34.01h.1s.29-.01.29-.01l.13.07.08-.07-.09-.12-.02-.23v-.21l.03-.17-.04-.2.05-.17-.03-.16v-.18l.23-.03h.23l.09.07v.18s-.02.19-.02.19l.02.18v.64l-.09.18.07.09.12-.04.41-.04.14.02.08-.02.25.05.15-.05.21.03h.09l.1.1.02.06v.18s-.07.07-.07.07l-.37.05-.07.04-.18-.06-.32.07-.18-.02h-.12s-.23-.12-.23-.12l-.07.1.08.27v.19l-.02.1v.33l-.02.06.05.2-.04.31v.1l.09.4.03.05.08.07.1.14h.11s.11.06.11.06l.29-.02.15.02.15-.03.15-.07.17.02.07.22-.05.13v.07s-.18.07-.18.07l-.14.07Z"/><path class="cls-3" d="m56.62,40.09l.05-.04v-.14l.1-.29.02-.11.11-.18.03-.1v-.06s.08-.19.08-.19l.09-.12.04-.17.03-.03.11-.24.07-.26.06-.12.1-.31.09-.18.2-.14h.12l.12.04.14.12v.12s-.26.48-.26.48l-.07.2v.08s-.15.23-.15.23l.03.07-.15.22-.02.07-.06.07-.05.2-.09.09-.04.2-.04.08-.06.07-.11.28-.12.31-.09.16-.09.28-.05.06-.08.18-.04.07-.06.15-.15.12-.04.09-.18.08-.12.17h-.06s-.12.1-.12.1l-.24.1-.23.04-.12-.02-.15.04h-.1s-.08-.22-.08-.22v-.12s.03-.07.03-.07l.25-.11.16-.04h.12l.19-.09.15-.16.23-.15.14-.21.09-.04.06-.15h-.1l-.14-.16v-.04s-.15-.3-.15-.3v-.12s-.07-.05-.07-.05l-.09-.2-.04-.11v-.09l-.07-.15-.14-.23h-.03s-.05-.24-.05-.24l-.1-.15v-.06s-.08-.16-.08-.16l-.08-.07-.05-.24-.07-.18v-.1s-.13-.18-.13-.18l-.07-.21.09-.1.14-.06h.06s.07-.02.07-.02l.15.09.15.2.12.27.07.24.07.11.03.12.07.12v.09s.07.1.07.1l.08.21.09.19v.08s.1.18.1.18v.1s.08.13.08.13v.1s.13.23.13.23l.11.1Z"/><path class="cls-3" d="m65.47,37.37h.2l.2.06.13.05.18.12.15.05v.02l.18.17.09.16.11.12.12.2.02.18v.17l.04.18v.2s-.07.6-.07.6l-.04.1-.12.31-.14.17-.23.21-.15.07-.23.1-.28.03-.12.04h-.22l-.25.03-.26-.08-.07-.07-.16-.04-.07-.05-.15-.08-.02-.06-.23-.19-.07-.12-.07-.07-.07-.21-.06-.3-.07-.13v-.23s.06-.26.06-.26l-.04-.18.18-.4.03-.09.09-.19.07-.09.15-.2.15-.06.07-.05.13-.03.15-.09.04-.05h.2-.01s.26-.03.26-.03h.21Z"/><path class="cls-3" d="m69.22,37.85l-.48.08-.34-.05-.07-.06v-.14l.06-.2.17-.05h.07s.4-.02.4-.02l.17.08.07-.07-.03-.29.05-.26.26-.41.13-.1.28-.21.31-.12.12-.02.27-.06h.37l.06.04v.37s-.12.07-.12.07h-.12l-.35.06-.22.08-.15.1-.1.13-.1.09-.07.33-.06.15-.06.1.08.06.1-.07h.72s.38.02.38.02l.07.13.03.19-.07.16-.25-.02-.26.02-.18-.02-.04-.02-.43-.03-.07-.06-.09.08.08.31-.02.33.03.15v.1l-.06.17.07.31-.04.16.03.15.04.1-.04.24-.04.1-.03.14.04.07.1-.07.34-.02.19.04.35-.05.16.04.16.07.02.15-.04.2-.18.05h-.56s-.2,0-.2,0l-.04-.04-.17.03h-.24l-.08.02-.15-.02h-.37s-.23-.01-.23-.01l-.1.03-.24-.02-.09-.03-.04-.05-.05-.15v-.08l.03-.07.13-.12h.56l.1.04h.09l.06-.06-.04-.13v-.12s-.01-.19-.01-.19l-.02-.06.02-.22v-.45l.04-.13-.03-.18v-.31l.05-.08v-.26l-.08-.12Z"/></g><g class="cls-5"><path class="cls-3" d="m29.74,46.62l-.48.08-.34-.05-.07-.06v-.14l.06-.2.17-.05h.07s.4-.02.4-.02l.17.08.07-.07-.03-.29.05-.26.26-.41.13-.1.28-.21.31-.12.12-.02.27-.06h.37l.06.04v.37s-.12.07-.12.07h-.12l-.35.06-.22.08-.15.09-.1.13-.1.09-.07.33-.06.15-.06.09.08.06.1-.07h.72s.38.02.38.02l.07.13.03.19-.07.16-.25-.02-.26.02-.18-.02-.04-.02-.43-.03-.07-.06-.09.08.08.31-.02.33.03.15v.1l-.06.17.07.31-.04.16.03.15.04.1-.04.24-.04.09-.03.14.04.07.1-.07.34-.02.19.04.35-.05.16.04.16.07.02.15-.04.21-.18.05h-.56s-.2,0-.2,0l-.04-.04-.17.03h-.24l-.08.02-.15-.02h-.37s-.23-.01-.23-.01l-.1.03-.24-.02-.09-.03-.04-.05-.05-.15v-.08l.03-.07.13-.12h.56l.1.04h.09l.06-.06-.04-.13v-.12s-.01-.19-.01-.19l-.02-.06.02-.22v-.45l.04-.13-.03-.17v-.31l.05-.08v-.26l-.08-.12Z"/><path class="cls-3" d="m36.01,49.22v.05s-.07.1-.07.1l-.17.02-.11-.04h-.15s-.35.01-.35.01l-.12.04-.12-.02-.34.03-.31-.04h-.15l-.15.04h-.09s-.28-.04-.28-.04l-.14.04h-.15s-.1-.13-.1-.13v-.21s.09-.1.09-.1l.32-.08h.3s.16.01.16.01l.23.03h.07s.06-.07.06-.07l-.06-.13v-.09s0-.18,0-.18l-.03-.14.04-.14-.03-.13v-.33l.03-.22-.03-.27.02-.14v-.17s.04-.14.04-.14v-.11l-.04-.05-.13.02-.15.04-.14.02-.16-.04-.1.02h-.34l-.11-.03v-.22s-.04-.13-.04-.13l.13-.12h.11s.22.03.22.03l.09-.02h.34s.23,0,.23,0l.05-.05.25.04.04-.02.26.05.05.37-.03.21-.02.31.02.16v.38l-.02.03.02.28-.02.07.05.3-.04.21v.2l-.04.11.09.07.1.02.17-.04h.22l.31-.02.14.02.05.06.03.18-.02.09Zm-.96-4.17l-.05.16-.04.2-.13.04-.13.02-.23-.05-.09-.06-.04-.11v-.15s0-.02,0-.02v-.14l.09-.15.12-.07h.3l.22.15v.18Z"/><path class="cls-3" d="m40.49,48.49l-.03.15v.18s-.17.2-.17.2l-.17.17-.38.21h-.13l-.4.07h-.4l-.1-.02h-.2s-.11-.06-.11-.06h-.09l-.28-.09-.17-.17-.02-.04-.15-.16-.04-.07-.06-.2-.05-.12v-.11s.09-.05.09-.05h.1s.29.03.29.03l.07.07.07.15.11.17.12.09.18.04.16.07.22-.04h.19l.21.06.35-.11.12-.1.03-.1.05-.1v-.15s-.04-.08-.04-.08l-.22-.18-.08-.02-.04-.03-.13-.02-.29-.09h-.11s-.2-.01-.2-.01l-.25-.07h-.07s-.3-.15-.3-.15l-.26-.11-.11-.12-.18-.29v-.22s.02-.21.02-.21l.07-.07.09-.2.07-.1.12-.1.15-.05.04-.05.13-.04.2-.02.18-.04h.12s.12-.05.12-.05l.25.05.12-.03.29.12h.13s.28.18.28.18l.05.06.12.07.07.16.1.12.03.21-.02.03-.12.09-.22-.02-.23-.09-.07-.15-.21-.18-.23-.07h-.1s-.23-.04-.23-.04l-.25.07-.3.07-.13.09-.07.11v.08s0,.09,0,.09l.04.11.07.05.12.09.26.08.21.03.12.04h.09s.47.12.47.12h.13s.07.07.07.07l.2.03.14.11.13.07.13.17.12.28v.14s-.01,0-.01,0Z"/><path class="cls-3" d="m42.68,47.34l-.02.07.02.19.04.03-.07.34.03.12v.11s.04.1.04.1l-.05.23.03.11-.04.09v.15s.01.29.01.29v.08s-.08.12-.08.12l-.19.04-.25-.04-.04-.14v-.11s-.04-.11-.04-.11l.03-.4.02-.1-.02-.14v-.15s.01-.31.01-.31l-.04-.12.06-.21-.05-.14.04-.11-.04-.21.04-.12v-.2s-.04-.18-.04-.18l-.02-.16.07-.17v-.26l-.04-.33v-.75l.08-.21h.16s.15-.01.15-.01l.18.13v.17s0,.09,0,.09v.2s.01.43.01.43l-.02.04.04.23-.05.28-.03.26.07.03.06-.12.25-.19.1-.05.16.02.26-.1h.48s.28.16.28.16l.15.1.18.26.07.21.03.42v.12s.01.29.01.29v.18s0,.12,0,.12l-.03.13.04.21-.04.16v.26l.05.21-.04.15.02.09-.03.18h-.35l-.12-.02-.07-.1-.04-.18.02-.09.02-.34-.02-.09v-.22l-.04-.2.04-.23v-.28l-.03-.04.04-.29-.06-.17v-.19l-.22-.26-.21-.06-.16-.07-.23.07h-.09s-.15.09-.15.09l-.18.06-.04.03h-.09l-.08.07.02.12.07.14-.03.19Z"/><path class="cls-3" d="m53.56,49.22v.05s-.07.1-.07.1l-.17.02-.11-.04h-.15s-.35.01-.35.01l-.12.04-.12-.02-.34.03-.31-.04h-.15l-.15.04h-.09s-.28-.04-.28-.04l-.14.04h-.15s-.1-.13-.1-.13v-.21s.09-.1.09-.1l.32-.08h.3s.16.01.16.01l.23.03h.07s.06-.07.06-.07l-.06-.13v-.09s0-.18,0-.18l-.03-.14.04-.14-.03-.13v-.33l.03-.22-.03-.27.02-.14v-.17s.04-.14.04-.14v-.11l-.04-.05-.13.02-.15.04-.14.02-.16-.04-.1.02h-.34l-.11-.03v-.22s-.04-.13-.04-.13l.13-.12h.11s.22.03.22.03l.09-.02h.34s.23,0,.23,0l.05-.05.25.04.04-.02.26.05.05.37-.03.21-.02.31.02.16v.38l-.02.03.02.28-.02.07.05.3-.04.21v.2l-.04.11.09.07.1.02.17-.04h.22l.31-.02.14.02.05.06.03.18-.02.09Zm-.96-4.17l-.05.16-.04.2-.13.04-.13.02-.23-.05-.09-.06-.04-.11v-.15s0-.02,0-.02v-.14l.09-.15.12-.07h.3l.22.15v.18Z"/><path class="cls-3" d="m55.83,47.24l.03.22v1.06l-.04.07.04.23-.03.15.03.19-.03.2-.26.04-.21-.05-.09-.09v-.13s.01-.39.01-.39l-.04-.28v-.61l.02-.27-.05-.21.03-.35.03-.1-.02-.27.03-.12v-.18l.12-.09h.13s.15-.03.15-.03l.06.06-.04.29.04.04h.1s.04-.13.04-.13l.14-.08.13-.11.1-.06h.19l.16-.06h.16s.29-.01.29-.01l.13.04.18.08.2.13.06.06.15.27.05.16.03.37v.32s.01.21.01.21v.15s.02.17.02.17l-.03.15v.16s0,.08,0,.08v.28l.04.23-.04.09.02.13-.14.14-.15.04h-.1s-.16-.03-.16-.03v-.08s-.07-.22-.07-.22l.04-.17.02-.19-.02-.12v-.14l-.02-.12v-.23s.04-.1.04-.1l-.03-.34v-.38l-.04-.21-.09-.22-.09-.14-.12-.05-.38-.1-.17.07h-.05s-.23.1-.23.1l-.29.07-.06.09.06.11v.13s0,.09,0,.09Z"/><path class="cls-3" d="m66.35,49.46l-.14-.04-.23.06-.33-.03-.29-.05-.26-.09-.1-.09-.08-.13-.12-.12-.12-.34v-1.02l.02-.09-.04-.18.04-.07-.05-.15.06-.12v-.22s.07-.08.07-.08l-.07-.09-.15.07-.19.02-.18-.02-.12.02h-.07s-.34-.03-.34-.03l-.04-.1-.02-.16.02-.15.09-.04h.15s.34.01.34.01h.1s.29-.01.29-.01l.13.07.08-.07-.09-.12-.02-.23v-.21l.03-.17-.04-.2.05-.17-.03-.16v-.18l.23-.03h.23l.09.07v.18s-.02.19-.02.19l.02.17v.64l-.09.17.07.09.12-.04.41-.04.14.02.08-.02.25.05.15-.05.21.03h.09l.1.1.02.06v.18s-.07.07-.07.07l-.37.05-.07.04-.18-.06-.32.07-.18-.02h-.12s-.23-.12-.23-.12l-.07.09.08.27v.19l-.02.1v.33l-.02.06.05.21-.04.31v.09l.09.4.03.05.08.07.1.14h.11s.11.06.11.06l.29-.02.15.02.15-.03.15-.07.17.02.07.22-.05.13v.07s-.18.07-.18.07l-.14.07Z"/><path class="cls-3" d="m68.99,47.34l-.02.07.02.19.04.03-.07.34.03.12v.11s.04.1.04.1l-.05.23.03.11-.04.09v.15s.01.29.01.29v.08s-.08.12-.08.12l-.19.04-.25-.04-.04-.14v-.11s-.04-.11-.04-.11l.03-.4.02-.1-.02-.14v-.15s.01-.31.01-.31l-.04-.12.06-.21-.05-.14.04-.11-.04-.21.04-.12v-.2s-.04-.18-.04-.18l-.02-.16.07-.17v-.26l-.04-.33v-.75l.08-.21h.16s.15-.01.15-.01l.18.13v.17s0,.09,0,.09v.2s.01.43.01.43l-.02.04.04.23-.05.28-.03.26.07.03.06-.12.25-.19.1-.05.16.02.26-.1h.48s.28.16.28.16l.15.1.18.26.07.21.03.42v.12s.01.29.01.29v.18s0,.12,0,.12l-.03.13.04.21-.04.16v.26l.05.21-.04.15.02.09-.03.18h-.35l-.12-.02-.07-.1-.04-.18.02-.09.02-.34-.02-.09v-.22l-.04-.2.04-.23v-.28l-.03-.04.04-.29-.06-.17v-.19l-.22-.26-.21-.06-.16-.07-.23.07h-.09s-.15.09-.15.09l-.18.06-.04.03h-.09l-.08.07.02.12.07.14-.03.19Z"/><path class="cls-3" d="m73.2,48.26v.12s.08.14.08.14h.05s.1.22.1.22l.15.1.04.04.53.12h.2l.24-.08.03-.07.22-.06.22-.29h.04s.13-.14.13-.14h.15l.05.02.12.02.04.13-.03.12-.12.27-.16.1-.11.12-.24.16-.14.05h-.07l-.12.06-.3.07h-.15l-.32-.06h-.15l-.12-.02-.17-.08-.18-.08-.19-.09-.09-.18-.14-.12-.03-.1-.09-.18-.07-.03-.02-.25v-.15s-.06-.38-.06-.38l.04-.16v-.3l.06-.14v-.08s.12-.18.12-.18l.09-.19.07-.1h.04s.1-.17.1-.17l.18-.1.31-.15.15-.04.07-.04.2-.04.19.03.07.04.1-.04.15.04.07.05.19.04.14.07.1.03.1.07.3.29.1.17.04.17.04.09.05.22v.05s.03.25.03.25l-.05.1-.15.1h-.13l-.09.03-.17-.02-.11.02h-.22s-.08.01-.08.01l-.18-.05-.31.04-.16-.03-.13.06-.2-.03-.07.04-.29-.04-.1-.04-.13-.03-.04.07.15.3.02.07Z"/></g><g class="cls-5"><path class="cls-3" d="m49.26,57.26l-.03.15v.18s-.17.2-.17.2l-.17.17-.38.21h-.13l-.4.07h-.4l-.1-.02h-.2s-.11-.06-.11-.06h-.09l-.28-.09-.17-.17-.02-.04-.15-.16-.04-.07-.06-.2-.05-.12v-.11s.09-.05.09-.05h.1s.29.03.29.03l.07.07.07.15.11.17.12.09.18.04.16.07.22-.04h.19l.21.06.35-.11.12-.1.03-.1.05-.1v-.15s-.04-.08-.04-.08l-.22-.18-.08-.02-.04-.03-.13-.02-.29-.09h-.11s-.2-.01-.2-.01l-.25-.07h-.07s-.3-.15-.3-.15l-.26-.11-.11-.12-.18-.29v-.22s.02-.21.02-.21l.07-.07.09-.2.07-.1.12-.1.15-.05.04-.05.13-.04.2-.02.18-.04h.12s.12-.05.12-.05l.25.05.12-.03.29.12h.13s.28.18.28.18l.05.06.12.07.07.16.1.12.03.21-.02.03-.12.09-.22-.02-.23-.09-.07-.15-.21-.18-.23-.07h-.1s-.23-.04-.23-.04l-.25.07-.3.07-.13.09-.07.11v.08s0,.09,0,.09l.04.11.07.05.12.09.26.08.21.03.12.04h.09s.47.12.47.12h.13s.07.07.07.07l.2.03.14.11.13.07.13.17.12.28v.14s-.01,0-.01,0Z"/><path class="cls-3" d="m51.27,57.03v.12s.08.14.08.14h.05s.1.22.1.22l.15.1.04.04.53.12h.2l.24-.08.03-.07.22-.06.22-.29h.04s.13-.14.13-.14h.15l.05.02.12.02.04.13-.03.12-.12.27-.16.1-.11.12-.24.16-.14.05h-.07l-.12.06-.3.07h-.15l-.32-.06h-.15l-.12-.02-.17-.08-.18-.08-.19-.09-.09-.18-.14-.12-.03-.1-.09-.18-.07-.03-.02-.25v-.15s-.06-.38-.06-.38l.04-.16v-.3l.06-.14v-.08s.12-.18.12-.18l.09-.19.07-.1h.04s.1-.17.1-.17l.18-.1.31-.15.15-.04.07-.04.2-.04.19.03.07.04.1-.04.15.04.07.05.19.04.14.07.1.03.1.07.3.29.1.17.04.17.04.09.05.22v.05s.03.25.03.25l-.05.1-.15.1h-.13l-.09.03-.17-.02-.11.02h-.22s-.08.01-.08.01l-.18-.05-.31.04-.16-.03-.13.06-.2-.03-.07.04-.29-.04-.1-.04-.13-.03-.04.07.15.3.02.07Z"/><path class="cls-3" d="m58.11,58.21h-.17s-.1,0-.1,0h-.2s-.13,0-.13,0l-.14-.08-.07-.12-.04-.15-.05-.05-.13.13h-.07l-.12.12-.21.06-.12.07h-.09s-.16.06-.16.06h-.2l-.37-.04-.27-.1-.08-.06-.04-.07-.15-.08-.13-.21-.08-.28v-.31l.25-.35.02-.05.09-.1.16-.04.34-.1.07-.04h.4s.13.01.13.01l.09.02h.09s.21,0,.21,0l.16.04.2.09.04-.04-.03-.07-.03-.15.02-.33-.05-.11v-.12l-.09-.15-.15-.1-.13-.11-.34-.02-.29.03-.24.07-.14.15-.07.25-.07.09-.15.09h-.2s-.12-.07-.12-.07l-.03-.1v-.16l.05-.1v-.08s.16-.25.16-.25l.2-.18.11-.06.19-.04.03-.05.33-.03h.33l.24-.04.19.05.15.07.14.04.15.13.14.15.09.15.03.08.08.21-.03.2.06.18.03.16-.03.2.04.24-.05.19v.62s.07.15.07.15l.15.05.2-.04.09.03.04.15v.18s-.09.08-.09.08l-.1.04v.02Z"/></g></g></svg>