<?xml version="1.0" encoding="UTF-8"?><svg id="Layer_1" xmlns="http://www.w3.org/2000/svg" viewBox="0 0 473.58 453.57"><defs><style>.cls-1{fill:#95a1c6;}.cls-1,.cls-2,.cls-3,.cls-4,.cls-5,.cls-6,.cls-7,.cls-8,.cls-9{stroke-width:0px;}.cls-2{fill:#182a42;}.cls-3{fill:#91412d;}.cls-4{fill:#8f402b;}.cls-5{fill:#92a1c9;}.cls-6{fill:#854430;}.cls-7{fill:#93a2c9;}.cls-8{fill:#fff;}.cls-9{fill:#ffe9da;}</style></defs><rect class="cls-5" x="309.44" y="244.92" width="17.62" height="71.57" rx="6.47" ry="6.47" transform="translate(-99 358.04) rotate(-51.91)"/><rect class="cls-5" x="326.54" y="186.96" width="17.62" height="60.02" rx="6.47" ry="6.47" transform="translate(-42.28 347.08) rotate(-51.91)"/><rect class="cls-5" x="327.2" y="195.88" width="17.62" height="60.02" rx="6.47" ry="6.47" transform="translate(-49.05 351.01) rotate(-51.91)"/><path class="cls-5" d="m294.45,189.66s.03-.01.04,0c-.01.02-.01.03-.02.05l-.02-.05Z"/><path class="cls-5" d="m308.23,180.88c-1.89.26-3.82.31-5.71-.16-.95-.24-1.91-.25-2.86-.17-3.62.3-6,3.48-5.32,7.06.14.67.41,1.35.15,2.05.25-.04.43-.02.56.06.05.03.09.07.12.11.06.07.1.13.13.21.02.05.04.1.05.15.05.15.08.31.11.47.31.54.78.84,1.38.91.17.14.34.28.5.41l.1.07c.28.16.57.31.85.47,2.78.45,5.33,1.39,7.75,2.9,1.5.93,2.54,1.87,2.2,3.76-.05.31.04.64.06.95.1,1.08.73,1.93,1.26,2.81,1.75,2.93,2.44,5.95,1.33,9.33-.67,2.04-1.13,4.17-2.07,6.09-3.34,6.8-5.91,13.92-8.9,20.87-2.36,5.49-5.3,10.71-7.77,16.14-.1.21-.31.36-.47.54-.07.31-.12.62-.19.93h0c-.04.16-.08.31-.13.46-1.17,3.27-2.37,6.53-3.52,9.81-.17.48-.34.97-.51,1.46-2.77,8-5.29,16.09-8.33,23.99-4.27,11.1-8.58,22.19-12.57,33.39-2.31,6.47-4.46,12.99-6.7,19.48-.3.87-.42,1.8-1.61,2.16-1.9.58-3.14,1.86-3.97,3.54-.19.35-.35.73-.5,1.12-.61,1.63-1.2,3.26-1.78,4.9-2.46,6.94-4.68,13.96-6.98,20.96-2.67,8.11-5.5,16.21-6.7,24.68-.52,3.68-1.91,6.87-3.45,10.1-.14.29-.29.57-.42.86-1.87,4.07-3.92,8.05-5.44,12.26-.95,2.62-1.18,5.24-.19,7.95,1.56,4.24,4.96,6.32,9.42,5.27,4.19-.98,8.33-1.2,12.52-.11,3.79.98,7.62,1.69,11.58,1.54,1.26-.05,2.52.4,3.81.33.82-.05,1.29.47,1.77,1.03,4.04,4.72,9.76,5.63,15.25,2.4.3-.18.6-.33.9-.4.18-.06.37-.08.57-.06.1,0,.2.02.31.05,2.52.69,5.09.34,7.63.43,1.2.04,2.42-.09,3.59.11,2.87.48,5.73.43,8.6.14.65-.07,1.25-.02,1.88.06,2.81.33,5.39,1.44,8.06,2.25,4.21,1.28,8.13-1.58,7.64-5.85-.28-2.5-.07-4.91.12-7.35.21-2.78.52-5.55.72-8.34.32-4.46,1.16-8.85,1.57-13.29.54-5.8.93-11.61,1.08-17.44.07-2.39.31-4.78.59-7.15.52-4.35,1.2-8.68,1.67-13.04.2-1.88.68-3.82-.05-5.68-.51-1.28-.35-2.48-.07-3.75,1.85-8.57,3.63-17.16,5.51-25.73,1.55-7.01,3.08-14.02,4.86-20.97.54-2.12,1.15-4.23,1.79-6.32.11-.32.21-.64.32-.96.53-1.5,1.18-2.93,1.72-4.41h0c.08-.24.15-.46.23-.69l-.22-.08-1.7-.58,1.02-3.23c-.13-.12-.28-.24-.44-.37-15.2-12.6-30.71-24.84-45.26-38.2l-1.04,2.81-1.87-.7.39-1.5.52-1.96.15-.21,3.14-7.64.14.05,1.73.64-.81,2.19c.06.05.12.11.19.17,3.83,3.51,7.57,7.13,11.55,10.47,11.02,9.25,22.13,18.38,33.22,27.55.13.11.26.23.39.34l.61-1.92,1.71.54.06.02c.29-.89.59-1.78.88-2.67.99-3.01,1.98-6.02,2.98-9.02.14-.43.27-.85.41-1.26.15-.47.31-.94.46-1.41.11-.35.23-.7.34-1.04,2.3-6.99,4.62-14.16,5.4-21.46.06-.58.2-1.24.41-1.82.01-.02.02-.03.02-.04.08-.2.17-.39.26-.57,1.98-3.71,1.45-6.86,1.31-10.06h0c-.05-1.25-.05-2.49.18-3.78.16-.87-.54-1.8-.52-2.68,0-.07.01-.15.02-.22.06-.3.28-.56.43-.84.08-.54.13-1.1.25-1.64,1.3-5.84,2.33-11.71,2.13-17.74-.04-1.19-.37-2.36-.16-3.56.51-2.82.01-5.55-.66-8.28-1.69-6.96-5.91-12.27-11.02-17.01-3.3-3.06-6.81-5.77-11.28-6.96-4.79-1.26-9.63-2.19-14.59-2.32-4.94-.12-9.87.15-14.78.84Zm49.97,48.8l-.17,2.03v.07s-.77,8.92-.77,8.92l-.18,2.13-2.71.17.41-4.85c-.94-.81-1.87-1.64-2.83-2.43-11.56-9.51-23.92-17.95-35.97-26.82l.02,1.35-2,.03-.03-1.93s.01-.03.01-.05c.01-.03.02-.07.02-.1.01-.05.02-.1.03-.14.22-1.27,1.06-6.39,0-8.03-.11-.16-.19-.23-.19-.23h-.01l-.02-1.59,2-.03.05,3.09c1.25.89,2.54,1.75,3.91,2.5.39-1.18.6-2.12,1-2.98.91-1.95,2.46-2.98,3.82-2.68,1.48.32,2.51,1.78,2.68,3.86.14,1.79-.07,3.54-1.27,4.97-.64.76-.5,1.22.24,1.73.66.44,1.29.95,1.93,1.42,9.14,6.72,18.48,13.2,27.25,20.43l.07-.79,2.71-.17v.12Z"/><path class="cls-9" d="m234.35,190.67c-3.25.46-5.62-.91-7.7-3.34-3.56-4.14-7.93-7.31-12.46-10.36-5.27-3.55-10.46-7.24-15.2-11.54-4.02-3.64-7.93-7.4-11.99-10.98-4.78-4.22-9.37-8.64-14.11-12.89-3.98-3.57-7.51-7.64-11.45-11.27-5.2-4.81-10.32-9.73-15.95-14.04-1.39-1.06-2.93-1.93-4.43-2.83-7.25-4.36-13.85-9.62-20.39-14.96-2.02-1.65-4.08-3.32-5.89-5.25-1.35-1.44-2.92-2.48-5.1-1.52-.54.24-1.26.09-1.9.09-3.12,0-6.24.04-9.35,0-5.02-.08-10.02.22-14.99.93-1.02.14-2.08.05-3.11.09-2.56.11-4.34,1.7-6.17,3.22-2.94,2.44-5.88,4.88-8.88,7.23-2.93,2.3-5.3,5.05-7.09,8.31-.79,1.43-.82,3.05-1.13,4.6-.71,3.51-1.37,7.03-2.58,10.4-.56,1.57-1.38,3.05-2.55,4.3-1.69,1.81-2.36,4.32-4.22,6.05-2.02,1.89-4.21,2.81-6.92,1.83-.73-.27-1.28-.28-1.97.21-2.21,1.58-4.64,1.55-7.06.59-5.91-2.34-11.23-5.65-15.86-10.02-1.92-1.81-3.68-3.79-5.63-5.57-2.5-2.28-3.75-5.32-5.2-8.22-.78-1.56-.47-3.36.34-4.86.61-1.12.85-2.19.8-3.41-.1-2.54,1-4.38,3.13-5.79,5.19-3.43,10.73-6.28,15.8-9.9,2.14-1.52,4.3-3.01,6.41-4.58,2.43-1.81,3.97-4.38,5.32-6.99,1.97-3.83,3.37-7.85,3.94-12.2.47-3.6.33-7.32,1.77-10.78,1.14-2.74,2.36-5.41,4.22-7.74.25-.31.5-.63.69-.97,2.83-4.89,6.51-9.07,10.71-12.8,6.78-6.02,13.46-12.2,21.04-17.22,5.99-3.97,12.28-7.45,19.16-9.64,4-1.27,8.02-2.46,12.33-2.57,2.57-.07,5.12-1.03,7.68-1.57,3.97-.83,7.97-1.36,12.01-1.72,4.99-.46,10.01-.56,14.99-1,8.7-.77,17.4-.4,26.09-.28,4.24.06,8.57.32,12.78,1.23,1.39.3,3.03-.39,4.19.61,2.5,2.16,5.59,1.89,8.51,2.35,1.46.23,2.69.8,3.74,1.9,2.96,3.1,2.06,7.86-1.92,9.42-1.32.52-2.74.83-4.15,1.05-5.48.88-10.95,1.79-16.42,2.8-6.41,1.18-12.76,2.58-19.1,4.05-6.43,1.5-12.88,2.95-19.17,4.93-6.07,1.9-11.99,4.32-17.88,6.75-3.15,1.3-4.45,4.43-5.91,7.27-.35.68.14,1.21.61,1.67,2.08,2.09,3.83,4.49,6,6.51,2.63,2.45,4.75,5.37,7.36,7.86,1.17,1.12,1.85,2.6,1.72,4.32-.09,1.18.35,2.14.94,3.13,1.4,2.32,3,4.52,4.15,6.99.76,1.64,2.12,2.79,3.58,3.78,2.45,1.67,4.8,3.42,6.8,5.62.37.41.8.84,1.29,1.05,4.95,2.17,8.86,5.89,13.29,8.85,6.78,4.52,12.7,10.11,18.45,15.88,2.01,2.02,4.39,3.68,6.59,5.5,2.45,2.03,4.92,4.04,7.33,6.11,2.05,1.76,4.2,3.42,6.28,5.14,1.59,1.32,3.17,2.67,4.72,4.02,5.93,5.19,11.73,10.53,17.94,15.39,2.57,2.01,5.28,3.85,8.05,5.59,4.26,2.68,8.07,5.96,12.27,8.72,1.69,1.11,3.14,2.7,4.25,4.5,1.85,3.03,1.54,6.56-.74,9.31-1.74,2.09-3.88,3.76-5.77,5.69-1.27,1.29-2.26,2.61-2.52,4.47-.15,1.09-.6,2.14-.91,3.21-1.5.74-2.76,1.74-3.52,3.28Z"/><path class="cls-4" d="m358.34,237.55c7.81,7.67,15.56,15.4,22.87,23.55,13.63,15.17,28.68,28.68,45.98,39.58,3.92,2.47,7.75,5.09,11.48,7.84,6.28,4.64,13.28,7.92,20.35,11.08,1.46.66,2.94,1.27,4.32,2.06,2.41,1.37,4.12,3.38,4.32,6.23.11,1.45,1.46,1.83,1.9,2.91.2,1.69.14,3.37.01,5.06-.8.81-2,1.4-.67,2.86.64.7.43,1.86-.37,2.62-.79.75-1.65,1.29-2.73.43-.08-.06-.19-.08-.33-.09s-.29-.01-.45-.03c-1.05,2.32-2.17,4.61-3.14,6.96,0,.01-.01.02-.01.02-1.95,4.7-4.66,8.89-8.21,12.53-.97,1-1.91,2.05-2.86,3.09-.77.86-1.54,1.71-2.35,2.54-1.21,1.25-2.54,2.3-3.98,3.18-1.65,1.04-3.43,1.86-5.33,2.52-.86.3-1.7.5-2.53.61h-.01c-2.47.33-4.84-.17-7.19-1.32-1.66-.81-3.15-1.89-4.56-3.07-3.01-2.52-5.9-5.17-8.5-8.1-4.31-4.85-9.06-9.24-13.83-13.63-2.64-2.44-5.32-4.84-7.81-7.44-5.15-5.39-10.76-10.22-16.58-14.87-11.07-8.83-22.35-17.37-33.56-26.01-.05-.05-.11-.09-.16-.13.45-1.37.91-2.74,1.35-4.11,1.7-5.14,3.39-10.27,5.07-15.4,2.3-6.99,3.63-14.16,4.41-21.46.08-.8,1.61-1.63,1.68-2.43.42-4.67,1.17-9.36,1.99-13.99.17-.94-1.16-1.81-.99-2.75.06-.3.28-.56.43-.84Z"/><path class="cls-7" d="m141.91,236.33c-11.16-.19-19.98-1.98-28.12-6.56-2.36-1.33-4.86-2.41-7.08-4.02-2.27-1.64-4-3.72-4.93-6.33-.63-1.78-1.58-3.3-2.7-4.76-6.17-8.06-7.72-17.2-5.97-26.96.74-4.13,3.1-7.66,5.19-11.26,2.64-4.55,6.42-7.91,10.96-10.45,1.75-.98,3.41-2.05,4.85-3.47,2.31-2.29,5.33-2.86,8.39-2.92,2.8-.05,5.15,1.96,5.84,4.51.66,2.46-.56,5.25-3.07,6.69-1.52.88-3.13,1.6-4.71,2.35-1.02.49-1.93,1.12-2.68,1.97-2.33,2.63-4.61,5.29-6.74,8.09-3.48,4.59-3.32,9.39-.76,14.16,3.5,6.52,8.29,11.92,14.88,15.51,4.09,2.23,8.48,3.67,13.06,4.53.89.17,1.72-.05,2.58-.32,10.57-3.32,20.36-8.34,30.11-13.5,11.28-5.97,21.45-13.54,31.56-21.23.65-.5,1.11-1.11,1.6-1.75,2.14-2.84,5.15-3.55,8.24-1.75,3.59,2.09,7.1,4.31,10.12,7.21,1.38,1.34,3,2.38,4.49,3.58,3.72,2.98,3.65,7.81-.38,10.25-6.02,3.63-11.72,7.75-17.71,11.43-8.1,4.98-16.79,8.5-25.98,10.83-1.72.43-3.26.96-4.68,2.15-1.78,1.48-3.98,2.35-6.17,3.13-2.18.78-4.38,1.49-6.57,2.23-1.58.53-3.19.93-4.41,2.25-.45.49-1.23.75-1.9.95-6.28,1.84-12.55,3.77-17.31,3.46Z"/><path class="cls-5" d="m263.33,219.82c.01.96.86,1.82,1.83,1.84,1,.03,1.8-.73,1.86-1.75.05-1.06-.63-1.86-1.66-1.94-1.07-.09-2.04.8-2.03,1.85Zm.88-19.93c-2.18,2.31-2.67,5.18-2.92,8.13-.12,1.49.98,2.31,2.12,2.92,1.04.57,2.28.6,3.14-.23,2.03-1.95,3.65-4.19,3.83-7.15.11-1.3-.57-2.29-1.22-3.3-1.49-2.33-3.06-2.39-4.95-.37Zm7.52-3.22c-.02,1.18,1.13,2.23,2.58,2.33,1.23.09,2.23-.77,2.24-1.94.02-1.26-1.08-2.26-2.55-2.3-1.33-.03-2.25.73-2.27,1.91Zm7.74-36.59c-1.54,2.3-1.86,4.88-1.09,7.56.41,1.43,1.37,2.4,2.84,2.59,1.51.2,2.59-.65,3.38-1.86.85-1.31,1.18-2.78,1.12-4.25.01-1.38-.12-2.65-.79-3.79-1.37-2.32-3.96-2.49-5.46-.25Zm-16.11.53c.03,1.03,1.03,1.97,2.06,1.93,1.13-.03,2.11-1.06,2.09-2.2-.02-1.13-.88-1.94-2.01-1.9-1.14.04-2.16,1.08-2.14,2.17Zm-14.06-4.38c-1.13,1.96.03,4.17,2.3,4.39,1.82.18,3.67-.13,5.27-1.12,1.72-1.06,2.58-3.1,2.08-4.67-.55-1.75-2.11-2.73-4.74-2.69-2.48-.13-3.73,2.02-4.91,4.09Zm23.48-8.88c-2.56.39-4.23,2.5-4.02,5.06.18,2.18,1.91,3.49,4.58,3.53,1.37.02,2.7-.3,3.98-.66,2.52-.71,3.32-3.47,1.63-5.51-1.33-1.6-3.13-2.38-5.18-2.51-.35.03-.67.04-.99.09Zm0,0c-2.56.39-4.23,2.5-4.02,5.06.18,2.18,1.91,3.49,4.58,3.53,1.37.02,2.7-.3,3.98-.66,2.52-.71,3.32-3.47,1.63-5.51-1.33-1.6-3.13-2.38-5.18-2.51-.35.03-.67.04-.99.09Zm-18.57,4.79c-2.48-.13-3.73,2.02-4.91,4.09-1.13,1.96.03,4.17,2.3,4.39,1.82.18,3.67-.13,5.27-1.12,1.72-1.06,2.58-3.1,2.08-4.67-.55-1.75-2.11-2.73-4.74-2.69Zm9.15,8.47c.03,1.03,1.03,1.97,2.06,1.93,1.13-.03,2.11-1.06,2.09-2.2-.02-1.13-.88-1.94-2.01-1.9-1.14.04-2.16,1.08-2.14,2.17Zm16.11-.53c-1.54,2.3-1.86,4.88-1.09,7.56.41,1.43,1.37,2.4,2.84,2.59,1.51.2,2.59-.65,3.38-1.86.85-1.31,1.18-2.78,1.12-4.25.01-1.38-.12-2.65-.79-3.79-1.37-2.32-3.96-2.49-5.46-.25Zm-7.74,36.59c-.02,1.18,1.13,2.23,2.58,2.33,1.23.09,2.23-.77,2.24-1.94.02-1.26-1.08-2.26-2.55-2.3-1.33-.03-2.25.73-2.27,1.91Zm-7.52,3.22c-2.18,2.31-2.67,5.18-2.92,8.13-.12,1.49.98,2.31,2.12,2.92,1.04.57,2.28.6,3.14-.23,2.03-1.95,3.65-4.19,3.83-7.15.11-1.3-.57-2.29-1.22-3.3-1.49-2.33-3.06-2.39-4.95-.37Zm-.88,19.93c.01.96.86,1.82,1.83,1.84,1,.03,1.8-.73,1.86-1.75.05-1.06-.63-1.86-1.66-1.94-1.07-.09-2.04.8-2.03,1.85Zm2.23-79.32c-7.1,1.54-13.85,4.35-20.45,7.4-3.92,1.82-4.6,6.45-1.66,9.63.99,1.07,2.23,1.78,3.47,2.52,2.67,1.6,5.24,3.37,7.96,4.85,1.87,1.02,2.47,2.26,1.68,4.2-1.39,7.26-2.23,14.61-3.2,21.94-.45,3.39-.89,6.77-1.55,10.13-.12.64-.17,1.27-.78,1.66-2.54,1.59-3.52,4.21-4.5,6.83-1.95,10.53-2.3,21.26-3.98,31.83,0,2.21,0,4.43,0,6.64.04.23.09.47.13.71.77,4.53,5.19,7.39,9.39,6.22,2.21-.61,4.55-.78,6.83-1.18,3.24-.56,6.4-1.38,9.25-3.1,2.53-1.52,3.94-3.64,3.79-6.7-.09-1.68-.03-3.36.02-5.04.03-.85-.2-1.78.49-2.51-.29-1.64.31-3.15.74-4.67,1-3.61,2.57-7.02,3.98-10.48,3.41-8.34,5.54-17.08,7.71-25.79.86-3.47,1.66-6.96,2.49-10.44.71-3.43.94-7.05,3.58-9.79.15-.15.17-.43.25-.66.18-2.19-.43-4.43.4-6.58.15-1.43.36-2.85.45-4.28.37-6.25-1.83-11.77-5.13-16.88-1.39-2.15-3.38-3.84-5.84-4.82-5.01-2-10.31-2.76-15.51-1.64Zm6.38,3.76c2.07.18,4.13.51,6.2.61,6.73.36,9.91,5.19,10.88,9.74.53,2.44.65,4.91.56,7.4-.07,4-.63,7.95-1.11,11.92-.07.56-.15,1.16-.6,1.53-1.32,1.05-2.52,2.22-3.55,3.55,0,0-.21.09-.52.38h0c-.74.66-2.08,2.42-2.72,6.68.3,1.71,1.1,2.99,2.81,3.55.78.25.93.74.71,1.48-1.11,3.74-2.22,7.49-3.3,11.25-.26.91-.91,1.1-1.71,1.37-3.62,1.19-6.36,5.28-6.2,9.09.07,1.65.67,3.11,1.71,4.38.89,1.07,1.04,2.17.57,3.53-.84,2.49-1.48,5.05-2.22,7.57-.15.54-.31,1.09-.56,1.58h-.01c-.04.07-.29.32-1.43.81-1.41.62-3.14,2.6-4.7,5.68-.04.21-.11.43-.2.68-1.26,3.37-1.04,6.4,2.23,8.69,1.29.91.35,3.76-1.42,4.42-1.8.67-3.6,1.35-5.45,1.82-3.86.99-7.72,2.09-11.8,1.6-2.42-.28-3.14-.83-3.81-3.25-.59-2.17-.83-4.41-.72-6.65.41-8.73,1.99-17.29,3.86-25.8l2.03-9.85c2.36-11.15,4.27-22.41,7.33-33.41.12-.46.25-.93.43-1.37.16-.41.21-1.39.61-1.7l1.94-6.68c.01-.15.04-.31.08-.48.18-.69.24-1.43.21-2.14-.11-2.11-1.26-2.86-3.21-2.04-1.18.48-2.3,1.12-3.44,1.69-2.72,1.34-3.24,1.28-5.52-.71-1.93-1.68-3.86-3.35-5.77-5.05-1.23-1.1-1.27-1.23.09-2.09,3.5-2.23,7.04-4.42,10.87-6.07,2.19-.95,4.43-1.81,6.7-2.55,3.3-1.07,6.7-1.48,10.16-1.16Zm-3.18,8.15c.18,2.18,1.91,3.49,4.58,3.53,1.37.02,2.7-.3,3.98-.66,2.52-.71,3.32-3.47,1.63-5.51-1.33-1.6-3.13-2.38-5.18-2.51-.35.03-.67.04-.99.09-2.56.39-4.23,2.5-4.02,5.06Zm-14.55-.27c-2.48-.13-3.73,2.02-4.91,4.09-1.13,1.96.03,4.17,2.3,4.39,1.82.18,3.67-.13,5.27-1.12,1.72-1.06,2.58-3.1,2.08-4.67-.55-1.75-2.11-2.73-4.74-2.69Zm9.15,8.47c.03,1.03,1.03,1.97,2.06,1.93,1.13-.03,2.11-1.06,2.09-2.2-.02-1.13-.88-1.94-2.01-1.9-1.14.04-2.16,1.08-2.14,2.17Zm16.11-.53c-1.54,2.3-1.86,4.88-1.09,7.56.41,1.43,1.37,2.4,2.84,2.59,1.51.2,2.59-.65,3.38-1.86.85-1.31,1.18-2.78,1.12-4.25.01-1.38-.12-2.65-.79-3.79-1.37-2.32-3.96-2.49-5.46-.25Zm-7.74,36.59c-.02,1.18,1.13,2.23,2.58,2.33,1.23.09,2.23-.77,2.24-1.94.02-1.26-1.08-2.26-2.55-2.3-1.33-.03-2.25.73-2.27,1.91Zm-7.52,3.22c-2.18,2.31-2.67,5.18-2.92,8.13-.12,1.49.98,2.31,2.12,2.92,1.04.57,2.28.6,3.14-.23,2.03-1.95,3.65-4.19,3.83-7.15.11-1.3-.57-2.29-1.22-3.3-1.49-2.33-3.06-2.39-4.95-.37Zm-.88,19.93c.01.96.86,1.82,1.83,1.84,1,.03,1.8-.73,1.86-1.75.05-1.06-.63-1.86-1.66-1.94-1.07-.09-2.04.8-2.03,1.85Zm-8.72,18.52c-.92,1.23-1.41,2.65-1.53,3.88-.08,1.88.56,2.97,1.75,3.32,1.04.3,2.16-.19,3-1.43.85-1.27,1.44-2.66,1.42-4.21-.01-1.21-.54-2.18-1.73-2.6-1.21-.43-2.19.08-2.91,1.04Zm2.75,9.77c0,1.14.86,1.96,1.98,1.92,1.09-.03,2.14-1.07,2.18-2.17.04-1.05-.86-2.03-1.92-2.06-1.2-.04-2.26,1.05-2.24,2.31Z"/><path class="cls-4" d="m272.44,236.53c-.28-1.64.31-3.15.74-4.67,1-3.61,2.57-7.02,3.98-10.47,3.41-8.35,5.54-17.08,7.71-25.8.86-3.47,1.66-6.95,2.49-10.43,1.9.98,3.52,2.38,5.3,3.54.58.38,1.01,1.03,1.81,1.02,0,0-.02-.05-.02-.05.06.62.61.74,1.02,1,.31.54.77.83,1.38.91.17.14.33.27.5.41,0,0,.1.07.1.07.2.33.5.5.89.5,0,0-.05-.02-.05-.02,3.08,2.88,6.56,5.23,10.02,7.61.1,1.08.73,1.93,1.26,2.81,1.75,2.93,2.44,5.94,1.33,9.33-.67,2.04-1.13,4.17-2.07,6.09-3.34,6.8-5.91,13.92-8.9,20.87-2.36,5.49-5.29,10.71-7.77,16.14-.09.21-.31.36-.46.53-2.51-2.44-4.77-5.1-7.05-7.75-.73-.85-1.47-1.64-2.49-2.17-1-.51-1.72-1.4-2.5-2.18-2.4-2.42-4.8-4.85-7.2-7.28Z"/><path class="cls-3" d="m256.56,169.1c-1.39,7.27-2.23,14.61-3.2,21.94-.45,3.39-.89,6.78-1.54,10.13-.12.64-.17,1.27-.78,1.66-2.54,1.6-3.52,4.22-4.5,6.84-2-1.95-3.45-4.34-5.19-6.5-1.5-1.86-2.98-3.73-4.84-5.25-2.36-1.93-3.06-4.35-2.16-7.25.76-1.54,2.02-2.53,3.52-3.28,1.42-.42,3.02.17,4.33-.81.22,0,.33-.12.34-.34l.1-.1c.23-.03.35-.15.37-.38l.1-.11c.22-.03.34-.15.36-.37l.12-.13c.11-.12.22-.23.33-.35.11,0,.16-.06.15-.16.1-.11.21-.21.31-.32.11,0,.17-.06.17-.17.1-.1.2-.2.3-.31.11,0,.17-.06.18-.18.18-.02.28-.12.3-.3.12,0,.18-.06.18-.18.18-.02.28-.12.3-.3.12,0,.18-.07.18-.18,0,0,.17-.06.17-.06l.02-.18c1.41-2.24,3.14-4.25,4.32-6.69.94-1.95,2.55-3.57,3.89-5.32.54-.71,1.38-1,2.17-1.36Z"/><path class="cls-9" d="m242.55,241.49c0,2.21,0,4.43-.01,6.64-.56-2.21-.58-4.43.01-6.64Z"/><path class="cls-9" d="m291.19,174.7c.18-2.19-.42-4.43.4-6.58,0,1.6.02,3.19,0,4.79,0,.62.15,1.29-.41,1.8Z"/><path class="cls-5" d="m469.57,335.86c.13-1.69.19-3.37-.02-5.06.84,1.68.81,3.37.02,5.06Z"/><path class="cls-9" d="m242.54,186.24c-.01.21-.13.33-.34.34.11-.11.23-.22.34-.34Z"/><path class="cls-9" d="m243.01,185.76c-.02.23-.15.35-.37.38.12-.13.25-.25.37-.38Z"/><path class="cls-9" d="m243.47,185.28c-.02.22-.14.34-.36.37.12-.12.24-.25.36-.37Z"/><path class="cls-9" d="m243.92,184.8c-.11.12-.22.23-.33.35.11-.12.22-.23.33-.35Z"/><path class="cls-9" d="m244.39,184.32c-.1.11-.21.21-.31.32.05-.16.15-.26.31-.32Z"/><path class="cls-9" d="m244.86,183.84c-.1.1-.2.2-.3.31.05-.16.15-.26.3-.31Z"/><path class="cls-9" d="m245.34,183.36c-.02.18-.12.28-.3.3.05-.15.15-.25.3-.3Z"/><path class="cls-9" d="m245.81,182.89c-.02.18-.12.28-.3.3.05-.15.15-.25.3-.3Z"/><path class="cls-9" d="m246.19,182.46l-.02.18s-.17.06-.17.06c.02-.12.08-.2.19-.24Z"/><path class="cls-8" d="m308.3,200.14c-3.46-2.38-6.94-4.74-10.02-7.61,2.78.45,5.34,1.39,7.76,2.89,1.5.93,2.54,1.87,2.2,3.77-.05.3.04.63.06.95Z"/><path class="cls-8" d="m295.47,190.67c-.41-.26-.96-.38-1.02-1,.83-.16.9.44,1.02,1Z"/><path class="cls-8" d="m298.34,192.55c-.39,0-.69-.16-.89-.5.3.17.6.33.89.5Z"/><path class="cls-8" d="m297.34,191.98c-.17-.14-.33-.27-.5-.41.17.14.33.27.5.41Z"/><path class="cls-2" d="m348.82,283.59c-.75,2.69-1.53,5.38-2.32,8.06-.26.92-.53,1.83-.8,2.75l.06.02c.29-.89.59-1.78.88-2.67.99-3.01,1.98-6.02,2.98-9.02.14-.43.27-.85.41-1.26.15-.47.31-.94.46-1.41.11-.35.23-.7.34-1.04,2.3-6.99,3.63-14.16,4.41-21.46-1.69,8.77-4,17.41-6.42,26.03Zm0,0c-.75,2.69-1.53,5.38-2.32,8.06-.26.92-.53,1.83-.8,2.75l.06.02c.29-.89.59-1.78.88-2.67.99-3.01,1.98-6.02,2.98-9.02.14-.43.27-.85.41-1.26.15-.47.31-.94.46-1.41.11-.35.23-.7.34-1.04,2.3-6.99,3.63-14.16,4.41-21.46-1.69,8.77-4,17.41-6.42,26.03Zm0,0c-.75,2.69-1.53,5.38-2.32,8.06-.26.92-.53,1.83-.8,2.75l.06.02c.29-.89.59-1.78.88-2.67.99-3.01,1.98-6.02,2.98-9.02.14-.43.27-.85.41-1.26.15-.47.31-.94.46-1.41.11-.35.23-.7.34-1.04,2.3-6.99,3.63-14.16,4.41-21.46-1.69,8.77-4,17.41-6.42,26.03Zm0,0c-.75,2.69-1.53,5.38-2.32,8.06-.26.92-.53,1.83-.8,2.75l.06.02c.29-.89.59-1.78.88-2.67.99-3.01,1.98-6.02,2.98-9.02.14-.43.27-.85.41-1.26.15-.47.31-.94.46-1.41.11-.35.23-.7.34-1.04,2.3-6.99,3.63-14.16,4.41-21.46-1.69,8.77-4,17.41-6.42,26.03Zm0,0c-.75,2.69-1.53,5.38-2.32,8.06-.26.92-.53,1.83-.8,2.75l.06.02c.29-.89.59-1.78.88-2.67.99-3.01,1.98-6.02,2.98-9.02.14-.43.27-.85.41-1.26.15-.47.31-.94.46-1.41.11-.35.23-.7.34-1.04,2.3-6.99,3.63-14.16,4.41-21.46-1.69,8.77-4,17.41-6.42,26.03Zm0,0c-.75,2.69-1.53,5.38-2.32,8.06-.26.92-.53,1.83-.8,2.75l.06.02c.29-.89.59-1.78.88-2.67.99-3.01,1.98-6.02,2.98-9.02.14-.43.27-.85.41-1.26.15-.47.31-.94.46-1.41.11-.35.23-.7.34-1.04,2.3-6.99,3.63-14.16,4.41-21.46-1.69,8.77-4,17.41-6.42,26.03Zm0,0c-.75,2.69-1.53,5.38-2.32,8.06-.26.92-.53,1.83-.8,2.75l.06.02c.29-.89.59-1.78.88-2.67.99-3.01,1.98-6.02,2.98-9.02.14-.43.27-.85.41-1.26.15-.47.31-.94.46-1.41.11-.35.23-.7.34-1.04,2.3-6.99,3.63-14.16,4.41-21.46-1.69,8.77-4,17.41-6.42,26.03Zm-3.12,10.81l.06.02c.29-.89.59-1.78.88-2.67l-.14-.1c-.26.92-.53,1.83-.8,2.75Zm0,0l.06.02c.29-.89.59-1.78.88-2.67l-.14-.1c-.26.92-.53,1.83-.8,2.75Zm0,0l.06.02c.29-.89.59-1.78.88-2.67l-.14-.1c-.26.92-.53,1.83-.8,2.75Zm0,0l.06.02c.29-.89.59-1.78.88-2.67l-.14-.1c-.26.92-.53,1.83-.8,2.75Zm0,0l.06.02c.29-.89.59-1.78.88-2.67l-.14-.1c-.26.92-.53,1.83-.8,2.75ZM117.11,1.9c-14.56,2.23-27.66,7.53-39.47,16.25-7.93,5.85-15.4,12.21-22.64,18.89-4.8,4.42-8.17,9.79-11.58,15.19-.43.7-.62,1.47-.78,2.26-.57,2.81-1.09,5.64-1.67,8.46-2.32,11.28-7.74,20.38-18.24,25.9-.57.3-1.1.67-1.68.93-9.61,4.32-14.92,12.74-20.18,21.19-1.33,2.13-1.1,3.97.42,6.11,6.96,9.81,15.94,17.45,25.62,24.34,3.53,2.51,7.55,4.16,11.92,4.78,1.52.21,2.82-.06,4.02-1.04,4.88-3.95,9.04-8.57,12.95-13.45.95-1.17,1.73-2.49,2.51-3.79,1.27-2.1,1.95-4.39,1.8-6.86-.15-2.64.59-5.06,1.67-7.4,2.87-6.22,7.51-10.86,13.14-14.61,3.51-2.33,7.31-3.93,11.54-4.35,1.51-.14,3.06-.07,4.54-.33,6.3-1.1,12.41.1,18.52,1.42.63.13,1.18.34,1.68.82,3.36,3.2,7.15,5.9,10.73,8.84.87.73,1.82,1.46,2.97,1.4,1.29-.08,2.11.6,2.94,1.33,7.4,6.36,14.85,12.66,22.14,19.13,3.94,3.51,7.53,7.41,11.43,10.96,12.82,11.7,25.8,23.22,39.34,34.07.46.37,1.11.62,1.23,1.42-2.35,1.12-3.74,3.13-3.35,5.55.33,2.07-.35,3.1-1.84,4.11-.99.67-1.93,1.44-2.78,2.27-.97.94-1.69.92-2.88.17-2.83-1.78-5.64-.95-7.34,1.93-.87,1.48-1.32,3.08-1.26,4.81.02.55.22,1.25-.24,1.6-1.2.92-2.48,1.75-3.77,2.54-.81.49-1.53-.2-2.28-.38-3.2-.74-5.16.6-5.53,3.83-.23,2.06-2.66,3.33-4.49,2.24-5.02-2.98-11.18,1.68-12.21,5.12-.47,1.57-1.11,2.15-2.45,2.67-1.59.63-2.99.56-4.59-.07-2.82-1.1-4.28-.47-5.66,2.17-.24.45-.43.86-.98.9-1.24.09-2.38.29-3.64-.53-2.46-1.61-5.21-2.35-8.2-1.45-1.6.48-2.45.04-3.2-1.5-1.34-2.77-2.8-3.65-5.65-3.43-2.37.18-2.9-.38-2.62-2.76.46-3.79-1.24-6.64-4.09-8.86-.7-.54-.82-1.01-.84-1.76-.04-1.28,1-1.5,1.79-1.97,2.66-1.59,4.35-4.17,2.3-7.42-.53-.84-.36-1.45.1-2.18.49-.79,1.07-1.21,2.04-1.43,2.84-.65,5.03-2.05,5.24-5.36.08-1.26.83-1.87,2.08-1.76,1.69.15,2.88-.59,3.92-1.85,1.27-1.55,1.73-1.52,3.19-.08,2.34,2.32,5.03,2.52,7.45.38.76-.68,1.37-.97,2.32-.6.43.17.94.18,1.42.2,1.74.08,3.01-.65,3.47-1.98.48-1.36.08-2.87-1.28-3.8-3.16-2.18-6.42-4.21-10.2-5.18-7.73-1.97-15.3-1.11-22.59,1.69-10.68,4.1-17.75,12.12-22.31,22.31-4.34,9.73-3.44,19.31,2.2,28.4,2.75,4.42,5.67,8.72,9.06,12.67,8.2,9.56,18.82,14.37,31.21,15.29,8.6.64,17.04-.83,25.34-3.03,17.43-4.61,33.65-12.11,49.31-20.9,2.58-1.45,4.95-3.22,7.21-5.14,4.08-3.47,8.52-6.51,12.44-10.17.52-.48,1.16-.86,1.76-1.25,1.8-1.18,1.8-1.17,3.34.24,3.29,3.03,6.32,6.33,9.56,9.43,1.45,1.38,1.82,2.67,1.37,4.62-2.17,9.42-3.97,18.92-4.53,28.6-.21,3.7.15,7.36,1.41,10.86,1.09,3.06,3.19,5.14,6.4,5.93,1.31.33,2.66.48,4.02.55,3.75.19,7.27-.8,10.82-1.77,6.41-1.76,12.83-3.43,18.45-7.16.93-.62,1.56-.46,2.26.32.69.77,1.5,1.44,2.25,2.16,1.45,1.37,1.46,1.37.74,3.21-.9,2.3-1.25,4.67-.3,7.01.48,1.15.37,2.11-.05,3.2-1.31,3.44-2.57,6.88-3.79,10.35-.42,1.17-1.03,2.02-2.1,2.75-4.19,2.88-6.17,8.59-4.65,13.35.35,1.08.29,1.98-.05,3-1.79,5.29-3.72,10.54-5.69,15.77-.52,1.39-1.23,2.52-2.38,3.48-2.78,2.31-4.54,5.35-5.73,8.72-.55,1.54-.8,3.17.01,4.66.61,1.12.43,2.09.08,3.19-1.29,4.13-2.99,8.09-4.41,12.17-.78,2.25-1.6,4.49-2.44,6.72-.75,2.01-1.51,4.01-2.28,6.02-2.35,6.13-4.69,12.27-6.64,18.55-.22.69-.56,1.2-1.31,1.57-5.06,2.51-6.94,7.4-4.98,12.83.24.66.26,1.19-.04,1.81-2.61,5.31-4.53,10.92-7.23,16.19-.45.88-1.04,1.54-1.86,2.11-3.97,2.76-5.6,6.65-5.12,11.4.15,1.47.08,2.83-.36,4.24-.8,2.59-1.49,5.21-1.61,7.96-.12,2.97,1.16,5.06,3.72,6.45,1.91,1.03,3.95,1.72,6.07,2.17,5.2,1.11,10.48,1.17,15.75.92,4.74-.23,9.42.1,14.08.91,1.42.25,2.56.84,3.51,1.9.53.59,1.08,1.17,1.63,1.75,2.82,2.94,6.2,4.01,10.24,3.32,10.06-1.71,20.14-2.43,30.24-.31.24.05.48.05.72.05,2.68-.01,5.15.66,7.6,1.81,3.79,1.79,6.48.48,7.85-3.5.87-2.52,1.09-5.15,1.32-7.78.71-7.96,1.14-15.95,2.13-23.88,1.73-13.88,2.7-27.84,4.64-41.69,1.33-9.56,2.43-19.2,5.4-28.45,1.67-5.19,2.15-10.63,3.65-15.86,2.06-7.19,2.97-14.7,6.03-21.62.32-.72.36-1.56,1-2.19.84.29,1.46.94,2.14,1.48,2.4,1.87,4.73,3.82,7.18,5.61,16.09,11.84,30.63,25.43,44.64,39.6,5.68,5.75,11.52,11.31,17.65,16.58,5.09,4.36,10.85,7.25,17.45,8.52,2.43.47,4.6.22,6.56-1.34,3.43-2.74,7.11-5.18,10.13-8.42,7.03-7.56,12.69-16.02,16.9-25.46,1.31-2.95,2.25-5.97,2.56-9.18.25-2.62-.23-5.08-1.47-7.4-1.19-2.23-2.89-4.02-4.81-5.61-3.2-2.66-6.6-5.05-10.12-7.27-10.56-6.63-21.15-13.27-31.11-20.77-12.01-9.03-23.66-18.5-34.27-29.24-8.65-8.75-17.3-17.54-26.53-25.7-.78-.69-1.15-1.41-1.09-2.49.36-6.39.34-12.78-.05-19.17-.41-6.67-1.54-13.19-4.11-19.38-5.01-12.05-14.45-18.57-26.92-21.01-4.71-.93-9.56-.74-14.35-.82-5.22-.08-10.36.64-15.34,2.29-2.57.86-5.12,1.78-8.16,2.83.27-1.52.52-2.78-.03-3.84-.71-1.32-.49-2.63-.33-3.97.17-1.5.41-3.01.53-4.52.11-1.38.49-2.61,1.2-3.83,1.3-2.24,2.04-4.69,2.02-7.31-.01-1.95-.65-3.66-2.38-4.69-.92-.55-1.32-1.26-1.61-2.23-1.49-5.02-4.74-8.54-9.64-10.24-2.41-.83-4.06-2.25-5.58-4.16-2.66-3.38-5.87-3.95-9.11-1.07-2.42,2.16-5.07,3.05-8.06,3.56-1.1.19-2.19.49-3.25.83-1,.32-1.7.28-2.5-.64-1.7-1.94-3.73-2.25-6.04-1.04-2.75,1.43-4.83,3.46-5.25,6.7-.12.92-.55,1.4-1.28,1.84-1.64.99-3.34,1.93-4.82,3.13-1.06.84-1.68.68-2.64-.07-4.83-3.82-9.63-7.69-14.6-11.32-15.64-11.44-30.24-24.14-44.99-36.66-6.72-5.7-13.63-11.11-20.96-16-2.12-1.42-4.33-2.74-6.21-4.49-.57-.53-1.42-.68-1.77-1.54-.87-2.15-2.58-3.61-4.34-5.02-2.55-2.06-5.21-3.98-7.99-5.72-1.02-.64-1.34-1.12-.53-2.23,1.22-1.65.87-3.31-.43-4.81-.73-.84-1.48-1.67-2.25-2.49-3.6-3.86-7.26-7.66-10.8-11.57-2.12-2.34-2.03-3.33-.03-5.81.77-.94,1.69-1.69,2.73-2.31,1.53-.9,3.18-1.49,4.84-2.07,5.23-1.81,10.72-2.55,16.05-3.92,9.44-2.42,18.9-4.7,28.49-6.5,7.29-1.37,14.51-3.17,21.85-4.34,4.12-.66,8.11-1.8,11.95-3.42.81-.33,1.64-.68,2.37-1.16,2.46-1.62,2.59-4.3.36-6.22-.66-.57-1.57-.8-2.09-1.54,1.86-3.92.78-6-3.56-6.26-3.91-.25-7.75-1.01-11.67-1.22-3.83-.2-7.65-.49-11.46-.95C172.17,1.24,162.99-.05,153.69,0c-12.22.07-24.41.03-36.58,1.9Zm43.96,4.5c7.56.31,15.07,1.66,22.62,2.4,4.45.43,8.91.66,13.35,1.18.63.07,1.28.05,1.97.4-.42,1.92.2,3.55,1.79,4.94-2.46,1.15-4.92,1.49-7.33,1.87-7.03,1.09-13.92,2.93-20.91,4.15-10.8,1.88-21.33,4.86-32,7.25-4.68,1.04-9.37,1.98-13.89,3.62-2.03.74-3.96,1.68-5.8,2.84-3.74,2.36-5.75,5.91-6.89,10.02-.44,1.6-.19,3.19.9,4.54,1.06,1.31,2.03,2.69,3.19,3.89,3.27,3.4,6.61,6.73,9.94,10.07,1.49,1.49,1.58,1.71.05,3.27-2.3,2.33-4.59,4.7-7.06,6.83-4.9,4.22-8.7,9.34-12.46,14.52-1.27,1.74-1.28,1.75-3.33,1.18-.92-.26-1.8-.64-2.72-.91-2.48-.72-4.96-1.06-7.57-.7-3.4.46-6.83.65-10.25.98-3.8.37-7.3,1.71-10.59,3.59-7.81,4.49-14.08,10.47-17.94,18.74-1.44,3.08-2.37,6.28-2.24,9.72.07,1.66-.41,3.13-1.23,4.55-2.59,4.46-6.21,8.09-9.42,11.96-1.02-.24-1.47-.96-2.04-1.49-5.45-5.18-10.97-10.27-16.62-15.23-4.7-4.12-9.5-8.09-15.44-10.37-.21-.07-.35-.31-.61-.54,3.52-5.01,7.13-9.86,12.67-12.85,1.89-1.03,3.74-2.14,5.63-3.19,11.01-6.12,16.97-15.88,19.86-27.79.75-3.1,1.29-6.26,1.86-9.4.25-1.36.71-2.62,1.39-3.8,1.68-2.93,3.65-5.64,6.09-7.98,7.79-7.49,15.88-14.6,24.58-21.03,11.01-8.14,23.11-13.34,36.7-15.49,14.55-2.3,29.14-2.34,43.75-1.74Zm-20.42,76.16c-3.19,3.23-6.12,6.7-9.97,9.26-2.22,1.46-3.57,3.85-5.17,5.94-.38.5-.74,1.02-1.21,1.68-3.09-2.04-5.74-4.22-8.49-6.27-.85-.64-1.02-1.25-.64-2.24,1.03-2.74,2.62-5.14,4.56-7.24,2.98-3.22,6.32-6.11,8.7-9.85.57-.89,1.22-1.09,2.2-.47,3.45,2.17,6.79,4.49,9.93,7.1.86.71.95,1.22.09,2.09Zm6.46,4.14c3.84,2.87,7.67,5.75,11.53,8.6,10.7,7.88,20.54,16.8,30.66,25.38,13.36,11.34,27.46,21.71,41.24,32.49,5.04,3.94,10.02,7.96,14.77,12.24.77.7,1.53,1.41,2.46,1.91,1.02.54,1.25,1.2.63,2.33-1.49,2.75-3.1,5.41-4.88,7.94-.01.01-.01.02-.03.03-1.41,2.03-2.93,3.97-4.57,5.82-1.47,1.67-3.04,3.26-4.73,4.77-1.23,1.11-1.45,1.16-2.62.26-3.92-3.03-7.82-6.09-11.77-9.08-19.08-14.43-37.15-30.07-54.78-46.22-4.71-4.32-9.11-8.98-13.88-13.24-6.1-5.43-12.73-10.2-18.93-15.49-2.44-2.09-2.43-2.05-.51-4.59,1.4-1.87,2.98-3.53,4.96-4.82,2.3-1.49,4.19-3.44,5.94-5.54.81-.99,1.65-1.95,2.68-2.73.31-.24.66-.42,1.01-.64.3.21.56.4.82.58Zm136.69,92.69h0c-.74.66-2.77,2.37-2.72,6.68.02,1.74,1.1,2.99,2.81,3.55.78.25.93.74.71,1.48-1.11,3.74-2.22,7.49-3.3,11.25-.26.91-.91,1.1-1.71,1.37-3.62,1.19-6.36,5.28-6.2,9.09.07,1.65.67,3.11,1.71,4.38.89,1.07,1.04,2.17.57,3.53-.84,2.49-1.48,5.05-2.22,7.57-.15.54-.31,1.09-.56,1.58h-.01c-.9.49-1.04.57-1.43.81-1.41.62-3.14,2.6-4.7,5.68-.04.21-.11.43-.2.68-1.26,3.37-1.04,6.4,2.23,8.69,1.29.91.35,3.76-1.42,4.42-1.8.67-3.6,1.35-5.45,1.82-3.86.99-7.72,2.09-11.8,1.6-2.42-.28-3.14-.83-3.81-3.25-.59-2.17-.83-4.41-.72-6.65.41-8.73,1.99-17.29,3.86-25.8l2.03-9.85c2.36-11.15,4.27-22.41,7.33-33.41.12-.46.25-.93.43-1.37.16-.41.34-.98.61-1.7l1.94-6.68c.15-.2.04-.31.08-.48.18-.69.24-1.43.21-2.14-.11-2.11-1.26-2.86-3.21-2.04-1.18.48-2.3,1.12-3.44,1.69-2.72,1.34-3.24,1.28-5.52-.71-1.93-1.68-3.86-3.35-5.77-5.05-1.23-1.1-1.27-1.23.09-2.09,3.5-2.23,7.04-4.42,10.87-6.07,2.19-.95,4.43-1.81,6.7-2.55,3.3-1.07,6.7-1.48,10.16-1.16,2.07.18,4.13.51,6.2.61,6.73.36,9.91,5.19,10.88,9.74.53,2.44.65,4.91.56,7.4-.07,4-.63,7.95-1.11,11.92-.07.56-.33,1.04-.69,1.48m7.92,19.64c2.77,1.89,5.52,3.82,8.33,5.66.99.65,1.26,1.24.6,2.32-.71,1.18-.92,2.53-.76,3.93.17,1.53.92,2.72,2.18,3.55.75.5.83,1.05.56,1.84-.91,2.72-1.81,5.45-2.67,8.2-.28.91-.93,1.43-1.67,1.94-1.67,1.16-2.94,2.69-3.8,4.54-.84,1.81-1.11,3.66-.37,5.58.35.91.48,1.76.09,2.76-2.01,5.22-4.6,10.18-6.45,15.55-1.09-.29-1.53-.9-2.03-1.39-3.6-3.52-7.14-7.1-10.78-10.59-.99-.95-1.2-1.9-.95-3.2.49-2.53,1.69-4.82,2.22-7.32,1.16-5.4,2.86-10.64,4.45-15.91,1.85-6.12,3.73-12.22,5.61-18.32.2-.68.21-1.45.98-2.12,1.45.97,2.96,1.96,4.46,2.98Zm-58.37,1.21q-1.26-1.16-.08-2.34c2.19-2.21,4.42-4.39,6.56-6.65,2.53-2.68,4.66-5.68,6.46-8.9.29-.52.45-1.21,1.16-1.41-.26,1.95-5.32,25.58-5.71,26.64-.76.04-1.06-.62-1.5-1.02-2.31-2.09-4.6-4.21-6.89-6.32ZM8.56,116.7c.61-.35,1.05.06,1.46.33,1.34.87,2.74,1.67,3.97,2.68,6.6,5.43,12.92,11.19,19.15,17.05.34.32.64.7,1.32,1.45-5.59-1.99-21.75-15.56-25.9-21.51Zm148.81,114.43c-6.35,1.76-12.83,2.91-19.37,2.99-12.63.15-23.5-4.12-31.67-14.14-2.93-3.59-5.59-7.4-7.97-11.38-2.48-4.13-3.95-8.56-3.68-13.44.23-4.05,1.38-7.87,3.35-11.4,2.47-4.44,5.61-8.37,9.52-11.63,4.61-3.83,9.94-5.94,15.98-6.18-1.85,1.36-3.72,2.71-5.56,4.09-.42.31-.86.32-1.34.36-2.69.24-4.31,1.54-4.45,4.07-.09,1.74-.77,3.03-1.8,4.27-.52.14-.9-.26-1.35-.36-.99-.23-1.76.11-2.22.97-.46.87-.39,1.88.46,2.35,1.33.73.96,1.54.52,2.56-6.09,13.91,2.88,27.64,13.7,31.76,5.64,2.15,11.35,3.83,17.47,3.66,3.06-.08,6-.82,8.92-1.67,12.92-3.79,24.77-9.84,36-17.19,5.62-3.68,11.12-7.52,16.05-12.13.87-.82,1.56-1.21,2.88-.58,3.04,1.44,7.22-.48,8.79-3.81.34-.72.57-1.48.83-2.17.43-.12.72,0,.97.2.74.6,1.88.96,2.12,1.85.24.9-.98,1.32-1.43,2.05-.64,1.03-1.19,2.09-1.52,3.25-.59,2.04-.16,3.64,1.19,4.51,1.35.88,3.87.71,5.19-.44,1.14-.99,2.24-2.04,3.29-3.13.55-.58.97-.69,1.6-.15.6.52,1.27.96,1.91,1.44,1.64,1.27,1.68,1.36.06,2.81-1.97,1.75-4,3.44-6.03,5.12-8.04,6.62-16.38,12.66-25.86,17.22-4.44,2.14-8.91,4.19-13.43,6.1-7.53,3.18-15.2,5.97-23.12,8.17Zm182.64,80.96c-.78,2.34-1.54,4.68-2.21,7.04-2.13,7.43-4.09,14.9-5.47,22.53-1,5.49-2.59,10.88-3.6,16.37-1.87,10.21-3.41,20.47-4.31,30.83-.78,8.9-1.96,17.77-2.91,26.66-.46,4.21-.83,8.43-1.22,12.64-.5,5.41-.97,10.81-1.46,16.22-.07.79-.12,1.6-.82,2.33-2.55-1.4-5.35-1.81-8.27-1.92-1.82-.06-3.62-.59-5.44-.82-6.62-.84-13.22-.73-19.79-.01-.19.01-.38.03-.57.06-1.57.17-3.14.38-4.7.62-.4.06-.79.16-1.18.24-2.89.6-5.3.04-7.2-2.48-1.96-2.6-4.7-3.97-7.96-4.39-4.6-.6-9.16-1.21-13.83-.91-5.02.32-10.07.28-15.04-.76-2.05-.42-2.04-.45-1.84-2.44.22-2.2-.25-4.32-.95-6.35-.34-1-.33-1.8,0-2.75,1.27-3.62,2.71-7.16,4.39-10.62,5.16-10.64,10.04-21.39,14.18-32.47.84-2.25,1.55-4.54,2.31-6.81.3-.89.61-1.53,1.84-1.17,1.42.41,2.7-.27,3.71-1.24,3.53-3.38,4.9-7.58,4.37-12.39-.13-1.21-.65-2.45-1.88-2.88-1.39-.49-1.11-1.28-.75-2.23,2.62-6.95,5.16-13.93,8.28-20.67,4.18-9,7.95-18.16,10.57-27.73,3.38-12.36,8.19-24.2,12.53-36.21.55-1.5,1.08-3,1.61-4.5.21-.61.47-1.12.76-1.7.26-.51.55-1.08.84-1.82l.21-.35c1.15-1.79,2.31-5.38,2.31-5.38l.59-2.21s.02-.05.03-.08c.05-.16.12-.34.19-.55,1.93-5.5,4.53-10.73,6.69-16.15,3.76-9.42,7.54-18.83,9.78-28.76.04-.18.12-.35.17-.53,0-.02.01-.03.01-.05.01-.03.02-.07.02-.1.01-.05.02-.1.03-.14,1.35-5.34.44-7.41,0-8.03-.11-.16-.19-.23-.19-.23h-.01c-.75-.54-1.49-1.09-2.24-1.62l-.14.04c-1.59-1.05-3.17-2.11-4.91-3.27.53-.76,1.69-1.07,1.28-2.14-.19-.51-.57-.76-1.11-.73-.99.07-1.27.83-1.49,1.82-3.21-1.86-5.77-4.4-9-5.83.32-1.19,1.18-1.13,1.78-1.37,8.69-3.49,17.75-4.53,27.03-3.92,1.91.12,3.82.15,5.74.34,4.15.42,7.87,1.93,11.46,3.94,6.14,3.43,10.31,8.45,12.56,15.12,1.66,4.95,2.62,10.01,2.97,15.23.26,3.91.38,7.82.43,11.73,0,.14,0,.28.01.42v.12l-.51,8.35s-.01.05-.01.08c-.05.31-.06.5-.06,1.09l-.2,3.18c-.46,5.07-1.2,10.07-2.15,15.03-.01.05-.02.1-.03.15-1.69,8.77-4,17.41-6.42,26.03-.75,2.69-1.53,5.38-2.32,8.06-.26.92-.53,1.83-.8,2.75l-.14.62v.06c-.39,1.15-.77,2.3-1.15,3.45-.61,1.87-1.23,3.73-1.85,5.59-.05.42-.23.98-.49,1.79,0,.01-.01.03-.01.04-.1.28-.19.57-.29.85-.47,1.44-.96,2.89-1.44,4.33-.11.32-.21.64-.32.96Zm121.87,36.52s-.01.02-.01.02c-3.13,5.55-6.78,10.78-11.07,15.62-1.92,2.15-4.11,3.96-6.33,5.72-1.09.87-2.18,1.72-3.25,2.6-1.12.93-2.45,1.02-3.86.71-.25-.06-.5-.11-.75-.18h-.01c-4.87-1.21-9.08-3.69-12.9-6.95-5.96-5.09-11.59-10.52-17.11-16.1-14.23-14.39-29.02-28.18-45.37-40.2-3.22-2.36-6.29-4.92-9.43-7.41-1.56-1.23-1.56-1.25-.99-3.17,2.8-9.34,5.45-18.71,7.84-28.16,1.9-7.52,3.46-15.1,4.37-22.81.07-.62.06-1.28.7-2.12,1.92,1.82,3.75,3.48,5.51,5.21,8.33,8.17,16.65,16.35,24.98,24.54,3.93,3.87,8.08,7.5,12.42,10.92,3.84,3.01,7.66,6.04,11.46,9.1,7.55,6.07,15.78,11.17,23.81,16.56,4.44,2.98,9.02,5.78,13.52,8.68,2.95,1.91,5.8,3.97,8.45,6.3,1.02.9,1.95,1.89,2.74,3.01.9,1.28,1.32,2.69,1.07,4.29-.26,1.75-.63,3.46-1.36,5.08-.27.61-.55,1.21-.84,1.81-1.11,2.36-2.3,4.67-3.59,6.93Zm-116.18-54.21l.06.02c.29-.89.59-1.78.88-2.67l-.14-.1c-.26.92-.53,1.83-.8,2.75Zm0,0l.06.02c.29-.89.59-1.78.88-2.67l-.14-.1c-.26.92-.53,1.83-.8,2.75Zm0,0l.06.02c.29-.89.59-1.78.88-2.67l-.14-.1c-.26.92-.53,1.83-.8,2.75Zm0,0l.06.02c.29-.89.59-1.78.88-2.67l-.14-.1c-.26.92-.53,1.83-.8,2.75Zm0,0l-.14.62c.07-.2.13-.4.2-.6.29-.89.59-1.78.88-2.67l-.14-.1c-.26.92-.53,1.83-.8,2.75Zm11.92-55.2l.06-1.09c-.05.31-.06.5-.06,1.09Zm.07-1.17s-.01.05-.01.08c-.05.31-.06.5-.06,1.09,0,.17,0,.37,0,.62l.33-3.69c-.12,1.1-.2,1.58-.25,1.9Zm-8.87,45.56c-.75,2.69-1.53,5.38-2.32,8.06-.26.92-.53,1.83-.8,2.75l.06.02c.29-.89.59-1.78.88-2.67.99-3.01,1.98-6.02,2.98-9.02.14-.43.27-.85.41-1.26.15-.47.31-.94.46-1.41.11-.35.23-.7.34-1.04,2.3-6.99,3.63-14.16,4.41-21.46-1.69,8.77-4,17.41-6.42,26.03Zm0,0c-.75,2.69-1.53,5.38-2.32,8.06-.26.92-.53,1.83-.8,2.75l.06.02c.29-.89.59-1.78.88-2.67.99-3.01,1.98-6.02,2.98-9.02.14-.43.27-.85.41-1.26.15-.47.31-.94.46-1.41.11-.35.23-.7.34-1.04,2.3-6.99,3.63-14.16,4.41-21.46-1.69,8.77-4,17.41-6.42,26.03Zm0,0c-.75,2.69-1.53,5.38-2.32,8.06-.26.92-.53,1.83-.8,2.75l.06.02c.29-.89.59-1.78.88-2.67.99-3.01,1.98-6.02,2.98-9.02.14-.43.27-.85.41-1.26.15-.47.31-.94.46-1.41.11-.35.23-.7.34-1.04,2.3-6.99,3.63-14.16,4.41-21.46-1.69,8.77-4,17.41-6.42,26.03Zm0,0c-.75,2.69-1.53,5.38-2.32,8.06-.26.92-.53,1.83-.8,2.75l.06.02c.29-.89.59-1.78.88-2.67.99-3.01,1.98-6.02,2.98-9.02.14-.43.27-.85.41-1.26.15-.47.31-.94.46-1.41.11-.35.23-.7.34-1.04,2.3-6.99,3.63-14.16,4.41-21.46-1.69,8.77-4,17.41-6.42,26.03Zm0,0c-.75,2.69-1.53,5.38-2.32,8.06-.26.92-.53,1.83-.8,2.75l.06.02c.29-.89.59-1.78.88-2.67.99-3.01,1.98-6.02,2.98-9.02.14-.43.27-.85.41-1.26.15-.47.31-.94.46-1.41.11-.35.23-.7.34-1.04,2.3-6.99,3.63-14.16,4.41-21.46-1.69,8.77-4,17.41-6.42,26.03Zm0,0c-.75,2.69-1.53,5.38-2.32,8.06-.26.92-.53,1.83-.8,2.75l.06.02c.29-.89.59-1.78.88-2.67.99-3.01,1.98-6.02,2.98-9.02.14-.43.27-.85.41-1.26.15-.47.31-.94.46-1.41.11-.35.23-.7.34-1.04,2.3-6.99,3.63-14.16,4.41-21.46-1.69,8.77-4,17.41-6.42,26.03Zm0,0c-.75,2.69-1.53,5.38-2.32,8.06-.26.92-.53,1.83-.8,2.75l-.14.62v.06s-.11.42-.11.42c.39-1.19.81-2.44,1.22-3.72.97-2.97,1.99-6.09,2.95-9.05.14-.43.27-.85.41-1.26.15-.47.31-.94.46-1.41.11-.35.23-.7.34-1.04,2.3-6.99,3.63-14.16,4.41-21.46-1.69,8.77-4,17.41-6.42,26.03Z"/><path class="cls-1" d="m261.78,145.42c-2.27.74-4.51,1.6-6.7,2.55-3.83,1.65-7.37,3.84-10.87,6.07-1.36.86-1.32.99-.09,2.09,1.91,1.7,3.84,3.37,5.77,5.05,2.28,1.99,2.8,2.05,5.52.71,1.14-.57,2.26-1.21,3.44-1.69,1.95-.82,3.1-.07,3.21,2.04.03.71-.16,1.43-.21,2.14-.01.18-.03.31-.08.48l-1.94,6.68c-.2.56-.45,1.29-.61,1.7-.18.44-.31.91-.43,1.37-3.06,11-4.97,22.26-7.33,33.41l-2.03,9.85c-1.87,8.51-3.45,17.07-3.86,25.8-.11,2.24.13,4.48.72,6.65.67,2.42,1.39,2.97,3.81,3.25,4.08.49,7.94-.61,11.8-1.6,1.85-.47,3.65-1.15,5.45-1.82,1.77-.66,2.71-3.51,1.42-4.42-3.27-2.29-3.49-5.32-2.23-8.69.09-.25.16-.47.2-.68,1.56-3.08,3.29-5.06,4.7-5.68,1.14-.49,1.39-.74,1.43-.8h.01c.25-.5.41-1.05.56-1.59.74-2.52,1.38-5.08,2.22-7.57.47-1.36.32-2.46-.57-3.53-1.04-1.27-1.64-2.73-1.71-4.38-.16-3.81,2.58-7.9,6.2-9.09.8-.27,1.45-.46,1.71-1.37,1.08-3.76,2.19-7.51,3.3-11.25.22-.74.07-1.23-.71-1.48-1.71-.56-2.79-1.81-2.81-3.55-.05-4.31,1.98-6.02,2.72-6.68h0c.31-.29.86-.79.99-.89,1.33-1.03,1.94-1.63,3.08-3.04.68-.83.53-.97.6-1.53.48-3.97,1.04-7.92,1.11-11.92.09-2.49-.03-4.96-.56-7.4-.97-4.55-4.15-9.38-10.88-9.74-2.07-.1-4.13-.43-6.2-.61-3.46-.32-6.86.09-10.16,1.16Zm-.26,102.44c-.04,1.1-1.09,2.14-2.18,2.17-1.12.04-1.97-.78-1.98-1.92-.02-1.26,1.04-2.35,2.24-2.31,1.06.03,1.96,1.01,1.92,2.06Zm-3.69-3.75c-.84,1.24-1.96,1.73-3,1.43-1.19-.35-1.83-1.44-1.75-3.32.12-1.23.61-2.65,1.53-3.88.72-.96,1.7-1.47,2.91-1.04,1.19.42,1.72,1.39,1.73,2.6.02,1.55-.57,2.94-1.42,4.21Zm9.19-24.2c-.06,1.02-.86,1.78-1.86,1.75-.97-.02-1.82-.88-1.83-1.84-.01-1.05.96-1.94,2.03-1.85,1.03.08,1.71.88,1.66,1.94Zm2.14-19.65c.65,1.01,1.33,2,1.22,3.3-.18,2.96-1.8,5.2-3.83,7.15-.86.83-2.1.8-3.14.23-1.14-.61-2.24-1.43-2.12-2.92.25-2.95.74-5.82,2.92-8.13,1.89-2.02,3.46-1.96,4.95.37Zm7.39-3.2c0,1.17-1.01,2.03-2.24,1.94-1.45-.1-2.6-1.15-2.58-2.33s.94-1.94,2.27-1.91c1.47.04,2.57,1.04,2.55,2.3Zm8.38-36.73c.67,1.14.8,2.41.79,3.79.06,1.47-.27,2.94-1.12,4.25-.79,1.21-1.87,2.06-3.38,1.86-1.47-.19-2.43-1.16-2.84-2.59-.77-2.68-.45-5.26,1.09-7.56,1.5-2.24,4.09-2.07,5.46.25Zm-17.42.01c.02,1.14-.96,2.17-2.09,2.2-1.03.04-2.03-.9-2.06-1.93-.02-1.09,1-2.13,2.14-2.17,1.13-.04,1.99.77,2.01,1.9Zm-10.64-.84c-1.6.99-3.45,1.3-5.27,1.12-2.27-.22-3.43-2.43-2.3-4.39,1.18-2.07,2.43-4.22,4.91-4.09,2.63-.04,4.19.94,4.74,2.69.5,1.57-.36,3.61-2.08,4.67Zm22.08-9.73c1.69,2.04.89,4.8-1.63,5.51-1.28.36-2.61.68-3.98.66-2.67-.04-4.4-1.35-4.58-3.53-.21-2.56,1.46-4.67,4.02-5.06.32-.05.64-.06.99-.09,2.05.13,3.85.91,5.18,2.51Z"/><path class="cls-2" d="m311.45,198.23c-.24-.59-.54-1.16-.7-1.77-.31-1.22.4-2.4,1.61-2.81,1.06-.36,2.12.07,2.62,1.06.52,1.03.04,2.4-1.08,3.07-.71.42-1.49.52-2.31.41,0,0-.14.05-.14.05Z"/><path class="cls-2" d="m243.59,415.46c.57-4.15,2.34-8.28,5.62-11.64,2.09-2.14,4.26-2.18,7.45-.52,1.91.99,3.41,3.62,2.88,5.86-1.21,5.17-3.94,9.46-8.6,12.12-3.93,2.24-7.58-.52-7.35-5.82Z"/><path class="cls-2" d="m297.85,295.05c-.13,3.17-.91,5.64-2.58,7.8-.54.7-1.18,1.3-1.92,1.79-3.09,2.02-6.28.79-6.81-2.86-.61-4.28.7-8.12,3.94-11.03,2.86-2.57,6.42-1.18,7.16,2.63.14.7.18,1.42.21,1.67Z"/><path class="cls-2" d="m279.35,340.2c-.21,2.43-.95,4.93-2.5,7.15-.6.86-1.33,1.59-2.28,2.08-2.21,1.14-4.39.31-5.23-2.02-.19-.52-.37-1.09-.34-1.63.16-3.74,1.43-7.04,4.24-9.59,1.4-1.28,2.86-1.39,4.2-.63.88.51,1.36,1.3,1.66,2.25.22.7.26,1.41.26,2.38Z"/><path class="cls-2" d="m241.51,432.95c.06-.6-.03-1.4.38-2.13.42-.75,1.01-1.23,1.89-1.19.89.04,1.5.55,1.76,1.36.43,1.34.28,2.68-.45,3.88-.51.84-1.35,1.13-2.27.79-1.15-.43-1.37-1.42-1.32-2.7Z"/><path class="cls-2" d="m281.4,318.26c-.07-1.41,1.37-2.99,2.77-3.01,1.15-.02,2,.72,2.07,1.82.09,1.29-1.46,2.98-2.8,3.03-1.11.04-1.99-.75-2.04-1.84Z"/><path class="cls-2" d="m278.55,360.77c1.2-.05,2.15.96,2.2,2.33.04,1.23-.78,2.31-1.84,2.43-1.15.13-2.19-.89-2.3-2.25-.11-1.4.71-2.47,1.94-2.52Z"/><path class="cls-2" d="m295.83,274.2c1.13.04,2.12,1.26,2.04,2.53-.07,1.08-1.04,1.98-2.06,1.92-1.1-.06-2.04-1.1-2.05-2.27,0-1.21.95-2.21,2.07-2.18Z"/><path class="cls-2" d="m257.93,386.98c0,1.26-.85,2.2-2,2.21-1.13,0-2.07-.96-2.09-2.17-.02-1.21.88-2.18,2.04-2.19,1.2-.01,2.05.88,2.05,2.15Z"/><path class="cls-2" d="m79.23,74.87c5.02.37,9.8.66,14.43,2.01,1.77.51,2.7,1.85,2.48,3.56-.22,1.67-1.55,2.71-3.41,2.64-.47-.02-.97-.07-1.41-.24-3.49-1.38-7.2-1.56-10.84-1.62-8.47-.15-15.91,2.7-21.55,9.15-5.83,6.67-11.8,13.24-16.83,20.58-.54.79-1.12,1.58-1.81,2.22-1.03.95-2.53.94-3.51.14-.97-.79-1.27-1.98-.71-3.24.29-.65.72-1.24,1.1-1.85,4.89-7.82,10.83-14.83,16.89-21.74,6.71-7.65,15.42-11.05,25.19-11.61Z"/><path class="cls-2" d="m104.33,39.05c.13-3.46,1.68-6.86,4.53-9.68,1.72-1.7,3.72-3.03,5.85-4.14,4.61-2.4,9.35-4.49,14.44-5.71,5.12-1.23,10.2-2.63,15.35-3.75,3.97-.86,8.01-1.41,12.03-2.07.47-.08.96-.08,1.43,0,1.57.25,2.69,1.46,2.74,2.89.05,1.33-.85,2.57-2.3,3.01-.84.26-1.71.44-2.57.55-9.14,1.11-18,3.53-26.87,5.87-4.88,1.28-9.44,3.47-13.77,6.05-3.31,1.97-5.38,4.72-5.18,8.79.02.47-.06.96-.21,1.41-.4,1.15-1.19,1.88-2.47,1.92-1.27.04-2.09-.61-2.61-1.73-.42-.91-.31-1.88-.37-3.4Z"/><path class="cls-2" d="m55.79,66.1c.04,3.33-.7,6.47-2.17,9.47-3.29,6.73-7.6,12.74-12.69,18.21-2.94,3.16-5.85,6.34-8.77,9.51-.6.65-1.17,1.33-1.98,1.71-1.08.51-2.34.31-3.1-.51-.85-.9-1.11-1.95-.47-3.07.39-.68.89-1.32,1.4-1.93,3.77-4.44,7.59-8.86,11.34-13.32,3.2-3.8,5.91-7.93,8.21-12.34,1.32-2.53,2.11-5.16,2.06-8.03-.01-.64,0-1.28.07-1.91.21-1.76,1.35-2.87,2.93-2.92,1.65-.05,2.95,1.13,3.16,2.96.08.71.01,1.44.01,2.15Z"/><path class="cls-2" d="m122.98,62.47c0,2.17-2.25,3.48-4.32,2.51-.74-.35-1.34-.88-1.85-1.5-1.48-1.79-3.11-3.43-4.91-4.9-.94-.77-1.65-1.74-2.07-2.89-.49-1.37-.07-2.67,1.04-3.38,1.1-.71,2.5-.59,3.47.52,2.26,2.6,5.16,4.52,7.39,7.15.64.75,1.26,1.45,1.25,2.49Z"/><path class="cls-2" d="m45.44,113.7c.82-.03,1.59.37,2.25.98,1.24,1.13,2.5,2.24,3.66,3.45,1.15,1.2,1.24,2.56.38,3.68-.85,1.12-2.26,1.41-3.65.59-1.87-1.1-3.41-2.63-4.85-4.23-.72-.8-.94-1.83-.39-2.9.53-1.04,1.32-1.56,2.59-1.57Z"/><path class="cls-2" d="m107.99,45.47c1.45,0,2.76,1.23,2.83,2.68.07,1.48-1.15,2.73-2.67,2.74-1.5,0-2.75-1.18-2.81-2.66-.06-1.5,1.14-2.75,2.65-2.75Z"/><path class="cls-2" d="m101.24,80.17c1.54.01,2.7,1.24,2.63,2.8-.06,1.45-1.17,2.55-2.62,2.59-1.58.05-2.76-1.09-2.75-2.67,0-1.54,1.22-2.74,2.74-2.72Z"/><path class="cls-2" d="m166.28,11.97c1.43.03,2.62,1.17,2.66,2.55.04,1.46-1.27,2.75-2.76,2.72-1.48-.03-2.76-1.38-2.65-2.82.1-1.4,1.31-2.48,2.75-2.45Z"/><path class="cls-2" d="m52.46,59.08c-1.44-.02-2.61-1.16-2.63-2.56-.02-1.47,1.27-2.73,2.77-2.7,1.42.03,2.62,1.19,2.64,2.57.02,1.46-1.26,2.71-2.78,2.69Z"/><path class="cls-2" d="m385.33,291.27c3.15-.03,5.83,1.22,8.32,2.84,4.17,2.71,7.78,6.1,11.15,9.75,1.25,1.35,2.51,2.67,3.91,3.87,3.83,3.29,7.25,6.96,10.24,11.03,1.47,2.01,2.68,4.16,3.24,6.62.94,4.17-1.46,7.14-5.73,7.05-2.26-.05-4.4-.71-6.47-1.58-3.33-1.4-6.45-3.2-9.25-5.46-5.65-4.56-11.18-9.27-16.37-14.37-1.6-1.57-3.04-3.28-4.24-5.18-1.25-1.98-2.06-4.11-2.33-6.46-.5-4.3,3.01-8.5,7.54-8.11Z"/><path class="cls-2" d="m324.28,228.91c-.14,3.09-1.02,5.77-2.93,8.06-.62.74-1.34,1.37-2.2,1.82-2.47,1.29-4.83.27-5.63-2.42-.99-3.31.99-9.93,3.63-12.14,2.27-1.89,5.07-1.3,6.38,1.33.55,1.1.62,2.3.75,3.34Z"/><path class="cls-2" d="m305.85,249.82c0,1.34-.93,2.28-2.2,2.22-1.1-.05-2.01-1.04-2.05-2.2-.03-1.21,1.02-2.41,2.12-2.41,1.16,0,2.12,1.09,2.12,2.39Z"/><path class="cls-2" d="m314.91,214.94c.02-1.14.84-1.96,1.95-1.95,1.16.01,2.06.97,2.04,2.18-.02,1.12-.87,1.98-1.95,1.97-1.14-.02-2.06-1.01-2.04-2.2Z"/><path class="cls-2" d="m209.39,161.97c0,2.08-2.02,3.51-4,2.83-.7-.24-1.25-.7-1.8-1.17-2.52-2.1-4.96-4.28-7.32-6.57-7.93-7.67-15.94-15.26-24.31-22.47-10.36-8.92-20.62-17.97-30.16-27.79-.61-.63-1.29-1.21-1.65-2.03-.5-1.12-.29-2.27.54-3.09.84-.83,1.98-1.02,3.09-.43.55.3,1.06.71,1.52,1.15,12.31,11.43,25,22.42,37.58,33.55,6.4,5.67,12.65,11.52,18.68,17.6,1.92,1.93,4.04,3.64,6.11,5.4,1.33,1.14,1.72,1.88,1.71,3.01Z"/><path class="cls-2" d="m214.57,164.66c1.79-.02,3.4,1.35,3.46,2.96.05,1.59-1.16,2.76-2.91,2.79-1.93.04-3.4-1.2-3.43-2.89-.03-1.6,1.22-2.84,2.88-2.86Z"/><path class="cls-2" d="m224.32,172.44c.04,1.54-1.15,2.74-2.69,2.71-1.47-.03-2.76-1.25-2.84-2.7-.09-1.48,1.13-2.82,2.59-2.87,1.5-.05,2.9,1.31,2.94,2.85Z"/><path class="cls-2" d="m168.29,212.25c2.62-.02,4.13,1.98,3.12,4.03-1.23,2.5-3.27,4.29-6.04,5.02-1.27.34-2.53.07-3.6-.8-2.16-1.75-2.08-4.01.3-5.45,1.49-.9,3.1-1.63,4.68-2.37.56-.27,1.21-.35,1.54-.44Z"/><path class="cls-2" d="m142.88,221.73c2.27-.07,3.88.65,5.41,1.49,1.25.68,1.63,1.93,1.46,3.29-.17,1.41-1.19,2.47-2.71,2.62-2.1.2-4.14-.18-5.96-1.3-1.46-.9-2.06-2.23-1.67-3.63.41-1.48,1.51-2.18,2.96-2.41.31-.05.63-.06.51-.05Z"/><path class="cls-2" d="m188.28,204.47c-.08-2.5,3.26-6.11,5.74-6.21,1.78-.07,3.23,1.38,2.71,3.06-.71,2.3-1.92,4.42-4.02,5.75-1.95,1.23-4.36-.26-4.43-2.59Z"/><path class="cls-2" d="m113.83,215.26c.02,1.84-1.61,3.18-3.39,2.55-2.5-.9-4.34-2.67-5.13-5.24-.63-2.04.86-3.53,3.07-3.28,2.27.26,5.43,3.72,5.45,5.98Z"/><path class="cls-2" d="m99.61,198.07c-.04-.92.21-1.73.87-2.38.97-.96,2.38-.91,3.07.25.81,1.37,1.42,2.86,1.42,4.49,0,1.45-.77,2.44-1.92,2.65-1.2.21-2.18-.39-2.76-1.76-.44-1.03-.6-2.13-.66-3.25Z"/><path class="cls-2" d="m201.6,194.7c1.09.05,1.98,1,1.91,2.05-.07,1.17-1.3,2.18-2.51,2.07-1.05-.09-1.75-.86-1.75-1.92,0-1.23,1.1-2.26,2.35-2.21Z"/><path class="cls-2" d="m158.07,223.44c-.02,1.09-.9,1.97-1.95,1.94-1.09-.03-2.04-1.06-2.02-2.2.02-1.13.84-1.93,1.96-1.9,1.16.02,2.04.96,2.01,2.16Z"/><path class="cls-2" d="m180.6,208.37c.02-1.07.88-1.92,1.99-1.94,1.18-.03,2.18.97,2.09,2.1-.09,1.04-1.02,1.83-2.14,1.8-1.15-.03-1.96-.84-1.94-1.95Z"/><path class="cls-2" d="m117.53,220.99c0-1.13.97-2.1,2.12-2.09,1.1,0,1.94.84,1.95,1.94,0,1.13-.98,2.13-2.1,2.13-1.01,0-1.96-.95-1.97-1.98Z"/><path class="cls-2" d="m103.79,205.6c.97-.04,1.85.73,1.94,1.72.11,1.13-.68,2.05-1.78,2.09-.99.04-1.87-.72-1.96-1.7-.11-1.07.75-2.07,1.8-2.11Z"/><path class="cls-2" d="m126.96,224.99c-.03-1.07.89-1.99,1.97-1.99,1.01,0,1.81.77,1.89,1.79.08,1.1-.76,2.08-1.81,2.13-1.03.05-2.02-.89-2.05-1.94Z"/><path class="cls-2" d="m103.03,186.52c1.03-.02,1.79.71,1.83,1.75.04,1.06-.63,1.84-1.66,1.91-1.07.07-2.02-.81-2-1.86.02-.97.84-1.78,1.83-1.8Z"/><path class="cls-2" d="m269.16,200.26c.65,1.01,1.33,2,1.22,3.3-.18,2.96-1.8,5.2-3.83,7.15-.86.83-2.1.8-3.14.23-1.14-.61-2.24-1.43-2.12-2.92.25-2.95.74-5.82,2.92-8.13,1.89-2.02,3.46-1.96,4.95.37Z"/><path class="cls-2" d="m274,194.76c1.47.04,2.57,1.04,2.55,2.3,0,1.17-1.01,2.03-2.24,1.94-1.45-.1-2.6-1.15-2.58-2.33s.94-1.94,2.27-1.91Z"/><path class="cls-2" d="m265.36,217.97c1.03.08,1.71.88,1.66,1.94-.06,1.02-.86,1.78-1.86,1.75-.97-.02-1.82-.88-1.83-1.84-.01-1.05.96-1.94,2.03-1.85Z"/><path class="cls-2" d="m273.77,147.26c2.05.13,3.85.91,5.18,2.51,1.69,2.04.89,4.8-1.63,5.51-1.28.36-2.61.68-3.98.66-2.67-.04-4.4-1.35-4.58-3.53-.21-2.56,1.46-4.67,4.02-5.06.32-.05.64-.06.99-.09Z"/><path class="cls-2" d="m284.93,160.33c.67,1.14.8,2.41.79,3.79.06,1.47-.27,2.94-1.12,4.25-.79,1.21-1.87,2.06-3.38,1.86-1.47-.19-2.43-1.16-2.84-2.59-.77-2.68-.45-5.26,1.09-7.56,1.5-2.24,4.09-2.07,5.46.25Z"/><path class="cls-2" d="m254.21,152.14c2.63-.04,4.19.94,4.74,2.69.5,1.57-.36,3.61-2.08,4.67-1.6.99-3.45,1.3-5.27,1.12-2.27-.22-3.43-2.43-2.3-4.39,1.18-2.07,2.43-4.22,4.91-4.09Z"/><path class="cls-2" d="m265.5,158.44c1.13-.04,1.99.77,2.01,1.9.02,1.14-.96,2.17-2.09,2.2-1.03.04-2.03-.9-2.06-1.93-.02-1.09,1-2.13,2.14-2.17Z"/><path class="cls-2" d="m257.52,237.3c1.19.42,1.72,1.39,1.73,2.6.02,1.55-.57,2.94-1.42,4.21-.84,1.24-1.96,1.73-3,1.43-1.19-.35-1.83-1.44-1.75-3.32.12-1.23.61-2.65,1.53-3.88.72-.96,1.7-1.47,2.91-1.04Z"/><path class="cls-2" d="m259.6,245.8c1.06.03,1.96,1.01,1.92,2.06-.04,1.1-1.09,2.14-2.18,2.17-1.12.04-1.97-.78-1.98-1.92-.02-1.26,1.04-2.35,2.24-2.31Z"/><path class="cls-2" d="m122.49,84.01c1.55.03,5.59,3.61,5.84,5.17.33,2.12-1.58,3.78-3.63,2.97-2.14-.85-3.72-2.49-4.72-4.54-.85-1.74.58-3.64,2.51-3.61Z"/><polygon class="cls-6" points="358.2 229.56 358.21 229.56 358.2 229.68 358.2 229.56"/></svg>