<svg id="Group_305" data-name="Group 305" xmlns="http://www.w3.org/2000/svg" xmlns:xlink="http://www.w3.org/1999/xlink" width="481.886" height="471.906" viewBox="0 0 481.886 471.906">
  <defs>
    <clipPath id="clip-path">
      <rect id="Rectangle_175" data-name="Rectangle 175" width="481.886" height="471.906" fill="none"/>
    </clipPath>
  </defs>
  <g id="Group_188" data-name="Group 188" clip-path="url(#clip-path)">
    <path id="Path_4184" data-name="Path 4184" d="M114.526,26.017a20.019,20.019,0,0,1,2.577.022c10.273,1.427,19.311-2.119,28.308-6.509C161.965,11.452,179.359,6.352,197.9,5.282c9.657-.556,19.137-2.684,28.652-4.434,7.639-1.405,15.4-.726,23.1-.351,9.382.458,18.61,2.362,27.945,3.363,11.8,1.266,23.669,2.564,34.88,7.532,11.871,5.261,24.613,8.072,37.211,11.233,17.271,4.339,34.788,5.46,52.489,6.2,10.377.429,21.158.379,30.926,5.236C443.84,39.4,450.709,48.2,455.651,58.882c6.265,13.548,8.138,28.153,10.232,42.636,2.441,16.883,5.214,33.841,5.789,50.834.7,20.7,6.666,40.422,8.833,60.778a100.186,100.186,0,0,1,.878,14.072c-.278,7.683.843,15.266.395,23.034a252.74,252.74,0,0,1-5.883,41.376c-5.4,23.855-14.754,46.189-26.407,67.616a62.114,62.114,0,0,1-8.451,11.82,22.9,22.9,0,0,0-5.893,17.767c2.125,26.6-20.372,47.31-43.388,50.654a53.621,53.621,0,0,1-12.016.123,30.239,30.239,0,0,0-19.719,5.157c-14.8,9.515-31.536,14.688-48.2,19.864-24.7,7.671-50.2,8.135-75.558,6.575-21.957-1.352-44.076-3.382-64.934-11.587-4.516-1.778-8.978-3.695-13.472-5.53-18.139-7.4-37.113-12.187-55.937-17.344-6.761-1.851-14.189-1.219-21.057-3.126-21.089-5.858-33.222-19.466-34.706-42.336-.635-9.821.309-19.734-1.56-29.461-1.386-7.213-4.626-13.819-7.529-20.461Q26.248,316.594,14.68,292.172a149.236,149.236,0,0,1-13.9-49.144c-2.466-24.31,1.2-48.008,7.567-71.4,4.257-15.629,9.7-30.86,17.5-45.061C33.277,113.048,41.27,99.838,48.53,86.208c2.438-4.573,1.841-9.449,2.915-14.129C54.139,60.335,58.2,49.159,66.834,40.525c9.36-9.357,21.256-13.649,34.368-14.47,4.424-.275,8.88-.044,13.324-.038m264.661,220.5c.366,7.945-.035,15.739-3.467,23.123-.524,1.134-.471,2.6-2.056,2.978-3.423.812-3.711,3.546-3.9,6.348-.278,4.143-.613,8.28-.821,12.423a6.025,6.025,0,0,1-2.283,4.63c-5.078,4.6-4.649,7.772.18,12.648,10.876,10.983,24.73,18.73,34.03,31.409.679.925,1.743,1.885,2.88,1.636,3.123-.688,4.2,1.424,5.618,3.455,3.48,5,8.435,7.4,12.787,5.65s8.763-3.985,11.107-8.384c6.186-11.618,13.061-22.981,18.016-35.117,8.318-20.363,13.336-41.7,13.036-63.9-.158-11.713-.868-23.445-1.939-35.114-1.014-11.066-1.869-22.321-9.338-31.592a3.443,3.443,0,0,1,.328-5.037c2.132-1.86,1.661-3.944.745-6.25-5.447-13.753-12.739-26.581-19.842-39.494-2.7-4.908-6.348-5.4-10.469-1.554a21.988,21.988,0,0,1-10.734,5.937c-4.4.891-6.518,5.766-11.069,6.442-2.908,6.515-9.253,8.334-15,10.974a15.143,15.143,0,0,0-5.9,4.206c-1.522,1.958-3.395,2.7-5.766,3.215-6.932,1.5-10.3,6.313-9.07,12.739.341,1.781,1.4,3.42,2.087,5.138,3.414,8.473,8.236,16.63,8.877,25.858,1.105,15.844,1.348,31.747,1.955,47.629m-351.6-4.841c-.272,7.822-.3,15.648,1.118,23.47,3.572,19.693,9.089,38.673,19.141,56.146,2.451,4.26,3.1,9.19,4.728,13.756,2.744,7.7,9.926,9.686,16.055,4.541S80.8,329.148,86.894,323.944c.941-.8,1.69-2.293,3.171-1.851,5.106,1.528,8.849-1.317,12.585-3.894,4.715-3.246,9.288-6.7,13.848-10.166,6.5-4.939,7.172-7.819,4.184-15.5-4.522-11.628-9.354-22.927-11.634-35.486-4.715-25.962,1.067-39.045,5.34-59.932a6.005,6.005,0,0,1,.483-2.492c3.7-8.334,5.836-17.325,11.375-24.9,3.524-4.822,2.217-10.219-2.823-13.38-4.958-3.107-8.738-7.336-12.547-11.606a41.229,41.229,0,0,0-3.556-3.717c-2.1-1.825-4.895-3.01-4.266-6.717a2.522,2.522,0,0,0-2.473-2.567c-4.118.246-5.605-3.193-8.138-5.23-5.239-4.216-10.652-8.22-15.9-12.427-5.144-4.127-7.181-4.055-11.287,1.105-3.929,4.942-6.856,10.548-10.169,15.9-4.02,6.5-5.972,14.2-11.653,19.728a3.069,3.069,0,0,0-.609,3.622c1.563,2.631.505,4.9-.382,7.327-9.446,25.788-17.167,51.9-14.858,79.913M154.225,36.653c-6.164,2.848-13.371,4.693-17.6,11.35a5.418,5.418,0,0,0,.208,6.123c3.183,4.709,3.591,11.4,9.875,13.952.474.193.717,1.21.875,1.888,2.574,10.942,8.356,20.306,14.467,29.505,3.414,5.141,6.12,10.927,13.778,11.2,2.694.095,5.4,1.014,7.923-.3,10.159-5.293,21.247-7.585,32.278-9.979,7.383-1.6,14.814-3.831,22.371-3.543,8.3.316,16.6.259,24.894.682,11.823.6,23.2,2.912,33.895,8.305,4.693,2.368,9.389,4.535,13.286,8.239,1.1,1.048,2.637,1.295,2.4,3.36-.186,1.626,1.061,2.615,2.495,3.095a3.008,3.008,0,0,0,3.758-1.352c2.567-4.781,7.45-7.627,10.229-12.076,4.832-7.734,12.616-12.973,16.974-21.1,4.434-8.258,12.417-13.848,17.129-21.964,3.455-5.956,3.149-8.514-2.861-11.928-6.1-3.467-11.871-7.459-18.152-10.753A119.807,119.807,0,0,0,310.04,29.494c-20.435-4.061-40.811-8.52-61.855-9.032-14.189-.347-28.2-.938-42.263,2-14.874,3.1-29.723,5.962-43.233,13.374a9.88,9.88,0,0,1-8.463.821m91.847,407.553c5.286-.6,10.532-1.371,15.806-1.775,28.422-2.182,55.716-9.487,82.72-18.117a30.017,30.017,0,0,0,6.622-3c4.036-2.5,6.367-7.342,4.364-10.592-4.023-6.534-7.046-13.6-11-20.1-2.567-4.232-5.725-8.192-8.6-12.288-5.845-8.315-12.019-16.4-18.136-24.522-1.576-2.091-3.616-4.159-6.449-3.575a67.969,67.969,0,0,0-19.889,7.535,17.179,17.179,0,0,1-8.624,2.643c-2.331.063-5.157.06-5.886,2.552-1.3,4.446-4.715,4.942-8.246,5.23-12.288.995-24.613.733-36.926.837a114.691,114.691,0,0,1-23.407-2.536c-1.38-.275-3.174-.2-2.807-2.334.767-4.484-2.321-5.448-5.533-6.019a93.667,93.667,0,0,1-19.324-5.621c-5.065-2.084-6.837-1.544-10.459,2.4-5.9,6.436-12,12.692-18.032,19.008-1.086,1.137-2.631,2.122-2.773,3.714-.262,2.867-2.28,4.09-4.244,5.539-7.7,5.678-15.8,10.949-19.491,20.508-.875,2.264-2.1,4.418.278,6.152a108.841,108.841,0,0,0,15.054,9.607c12.761,6.43,26.6,9.7,39.813,14.76a108.347,108.347,0,0,0,43.678,7.4c5.662-.237,11.454-.808,16.851,2.072,1.279.679,3.082.373,4.642.521" transform="translate(0.001 -0.002)" fill="#ffeadc"/>
    <path id="Path_4185" data-name="Path 4185" d="M130.327,162.789c-.606-15.878-.849-31.785-1.955-47.629-.641-9.228-5.463-17.382-8.877-25.854-.692-1.721-1.746-3.36-2.087-5.138-1.232-6.43,2.138-11.246,9.07-12.742,2.372-.512,4.244-1.257,5.766-3.215a15.207,15.207,0,0,1,5.9-4.206c5.748-2.64,12.089-4.456,15-10.974,4.551-.676,6.67-5.549,11.069-6.442a21.988,21.988,0,0,0,10.734-5.937c4.121-3.846,7.769-3.354,10.469,1.554,7.1,12.913,14.394,25.741,19.845,39.494.913,2.305,1.383,4.39-.748,6.253-1.8,1.566,1.089,2.072-.328,5.034,7.469,9.272,8.324,20.527,9.338,31.592,1.071,11.669,1.781,23.4,1.939,35.114.3,22.194-4.718,43.533-13.036,63.9-4.955,12.136-11.83,23.5-18.016,35.117-2.343,4.4-6.745,6.632-11.107,8.384s-9.307-.654-12.787-5.65c-1.418-2.031-2.495-4.143-5.615-3.455-1.14.249-2.2-.707-2.88-1.633-9.3-12.682-23.154-20.429-34.03-31.409-4.832-4.879-5.261-8.053-.183-12.648a6.016,6.016,0,0,0,2.283-4.633c.208-4.143,6.417-6.967,6.695-11.107.186-2.8-1.585-3.651-1.974-7.664-.158-1.623,1.528-1.844,2.056-2.978,3.43-7.38,3.831-15.177,3.464-23.123" transform="translate(246.386 82.22)" fill="#dd8b6b"/>
    <path id="Path_4186" data-name="Path 4186" d="M7.157,165.314C4.848,137.306,12.569,111.187,22.015,85.4c.887-2.425,1.945-4.7.382-7.327a3.073,3.073,0,0,1,.609-3.625c5.681-5.523,7.633-13.232,11.653-19.725,3.313-5.353,6.24-10.958,10.172-15.9,4.1-5.16,6.139-5.233,11.287-1.108,5.245,4.21,10.658,8.211,15.9,12.43,2.53,2.034,4.017,5.476,8.135,5.23a2.518,2.518,0,0,1,2.476,2.564C82,61.647,84.8,62.835,86.9,64.657a41.642,41.642,0,0,1,3.553,3.717c3.812,4.27,7.589,8.5,12.547,11.609,9.755,6.259,6.348,8.558,2.823,13.38-5.539,7.576-4.437,15.521-8.135,23.855-.338.758-2.138,2.577-2.122,3.407.363,19.76-2.64,39.611-2.773,59.367C92.7,192.76,100.481,212.172,105,223.8c2.987,7.687-.91,4.968-8.934,7.873-4.557,3.467-9.133,6.919-13.848,10.169-3.736,2.574-6.569,8.46-11.675,6.932-1.481-.442-3.1,1.468-4.039,2.271-6.1,5.2-12.168,7.03-18.31,12.18s-13.311,3.164-16.055-4.541c-1.623-4.566-2.277-9.5-4.727-13.756-10.049-17.473-15.566-36.453-19.141-56.146-1.418-7.819-1.386-15.645-1.118-23.467" transform="translate(14.554 75.043)" fill="#dd8b6b"/>
    <path id="Path_4187" data-name="Path 4187" d="M59.586,22.454a9.89,9.89,0,0,0,8.463-.818c13.51-7.412,28.359-10.276,43.233-13.377,14.066-2.934,28.078-2.343,42.266-2,21.045.515,41.42,4.971,61.855,9.032a119.816,119.816,0,0,1,32.407,11.868c6.278,3.291,12.044,7.285,18.152,10.753,6.01,3.411,6.316,5.972,2.858,11.925-4.712,8.116-12.692,13.706-17.126,21.967-4.361,8.119-12.146,13.358-16.974,21.092-2.782,4.453-7.661,7.3-10.232,12.079a3.007,3.007,0,0,1-3.755,1.352c-1.437-.483-2.681-1.472-2.5-3.1.234-2.065-1.3-2.312-2.4-3.357-3.894-3.7-8.593-5.871-13.286-8.239-10.69-5.394-22.068-7.705-33.891-8.309-8.293-.423-16.6-.363-24.9-.679-7.557-.291-14.985,1.939-22.371,3.54-11.031,2.394-22.115,4.69-32.275,9.979-2.526,1.317-5.23.4-7.927.3C73.528,96.2,73.032,87.9,69.619,82.765c-6.111-9.2-14.1-16.055-16.674-27-.161-.679-.4-1.7-.878-1.888-6.284-2.555-6.692-9.24-9.872-13.952a5.413,5.413,0,0,1-.212-6.123c4.232-6.657,11.438-8.5,17.6-11.35" transform="translate(88.764 12.88)" fill="#dd8b6b"/>
    <path id="Path_4188" data-name="Path 4188" d="M159.034,204.528c-1.56-.148-3.363.158-4.642-.521-5.817.521-11.126,1.377-17,.063-15.117.625-29.461-4.15-43.533-9.537-13.21-5.062-27.051-8.331-39.813-14.76A109.14,109.14,0,0,1,39,170.166c-2.381-1.734-1.153-3.888-.278-6.152,3.695-9.559,11.789-14.83,19.491-20.508,1.964-1.449,3.982-2.672,4.244-5.539.142-1.592,1.686-2.577,2.773-3.714,6.035-6.316,12.13-12.572,18.032-19.008,3.622-3.947,5.394-4.487,10.459-2.4a93.669,93.669,0,0,0,19.324,5.621c3.212.572,6.3,1.535,5.533,6.019-.366,2.135,1.427,2.059,2.807,2.334a114.688,114.688,0,0,0,23.407,2.536c12.313-.1,24.639.158,36.926-.837,3.531-.287,6.941-.783,8.245-5.23.73-2.492,3.556-2.488,5.886-2.552a17.179,17.179,0,0,0,8.624-2.643,67.968,67.968,0,0,1,19.889-7.535c2.833-.584,4.873,1.484,6.449,3.575,6.117,8.119,12.291,16.207,18.136,24.522,2.877,4.1,6.035,8.056,8.6,12.288,3.954,6.509,6.976,13.57,11,20.1,2,3.25-.328,8.091-4.364,10.592a30.024,30.024,0,0,1-6.622,3c-27,8.631-54.3,15.935-82.72,18.117-5.274.4-10.519,1.172-15.806,1.775" transform="translate(81.165 238.36)" fill="#dd8b6b"/>
    <path id="Path_4189" data-name="Path 4189" d="M75.822,33.3a26.272,26.272,0,0,1,16.961,7.137c2.012,1.974,3.161,1.525,4.917-.044,2.561-2.29,5.343-4.326,7.993-6.518,3.089-2.555,6.1-3.174,8.94.294,1.08,1.32,2.138,1.715,3.66.695,20.372-13.684,43.485-20.262,67.079-25.283,39.595-8.425,78.384-6.537,116.469,8.558,16.835,6.673,33.538,13.222,48.32,23.865,1.339.963,2.672,1.348,3.894.243,2.886-2.605,5.6-1.712,8.065.395,3.815,3.259,7.172,3.224,11.817.859,10.589-5.388,21.809-7.854,33.557-3.265,19.485,7.614,24.389,33.939,8.675,47.733-2.545,2.236-2.261,3.508-.679,5.83a95.427,95.427,0,0,1,4.955,8.536c1.238,2.29,2.593,4.664-.186,6.9-1.156.928-.357,1.781.212,2.58,14.571,20.517,19.109,44.828,25.738,68.323,5.833,20.685,5.706,41.786,4.769,63.1A176.963,176.963,0,0,1,436.8,304.8c-5.129,12.174-13.671,22.125-20.833,32.976-2.473,3.742-5.492,6.872-4.27,12.262.881,3.875-2.3,7.225-4.611,10.308a7.92,7.92,0,0,0-1.522,7.819c2.271,7.753,3.262,15.752,1.219,23.754-3.48,13.63-19.112,22.557-32.6,18.708-2.47-.707-5.106-1.288-7.248-2.609-4.055-2.5-7.327-1.724-10.747,1.127-1.737,1.446-3.925,2.343-5.886,3.524-1.134.685-2.555,1.551-3.616.935-4.409-2.574-7.437.594-10.9,2.223-16.662,7.832-34.182,13.115-52.1,17.085-32.044,7.1-64.473,9.572-96.839,3.685-27.639-5.028-53.711-14.972-76.789-31.6-2.018-1.453-3.695-2.207-6.193-.982-4.045,1.98-8.047.755-11.309-1.753-3.436-2.637-6.629-2.571-10.336-1.02A33.872,33.872,0,0,1,61.188,403.1c-9.689-2.192-16.26-9.84-18.313-21-1.418-7.712.142-14.584,5.2-20.464,1.99-2.315,1.547-3.692-.215-5.744-3.262-3.8-6.237-7.848-9.307-11.814-2.021-2.605-2.583-5.5-.9-8.41,1.219-2.106.638-3.647-.543-5.466-18.55-28.57-26.963-60.431-30.171-93.912-1.825-19.068,1.7-37.672,5.375-56.256C17.882,151.9,29.8,126.565,45.89,103.041c1.292-1.888,2.444-3.183.685-5.88-2.226-3.4-.335-7.184,2.091-9.847,3.3-3.619,3.085-6.9,1.342-11.163-3.073-7.507-2.842-15.43-1.086-23.252,2.545-11.35,13.346-19.722,26.9-19.6m149.811,321.11c21.424.038,41.685-5.04,61.1-13.873,5.16-2.35,10.592-4.3,12.979-10.219.354-.878,1.292-1.516,1.949-2.274,7.364-8.476,16.226-15.36,24.414-22.965,5.928-5.5,12.449-10.522,17.6-16.681,6.152-7.345,9.243-16.554,10.535-25.993,3.328-24.335,4.829-48.715.534-73.158a143.919,143.919,0,0,0-7.8-27.178c-.767-1.983-1.254-4.775-4.121-4.879-3.717-.142-6.085-2.207-8.157-4.885a241.044,241.044,0,0,0-28.731-30.759c-4.317-3.925-7.465-9.275-12.319-12.206-16.845-10.175-35.48-15.12-55.025-16.45-24.459-1.664-47.891,2.883-70.417,12.4-2.422,1.023-5.106,1.437-5,5.223.051,1.756-2,3.092-3.613,3.979-17.3,9.528-30.061,24.01-41.78,39.339a72.629,72.629,0,0,0-12.231,24.465c-2.561,9.111-4.6,18.329-6.477,27.588-5.185,25.57-3.761,50.458,8.141,74.14,1.857,3.7,2.656,8.795,8.719,8.318.647-.051,1.465.843,2.046,1.446,3.575,3.711,7.184,7.383,10.652,11.211,11.132,12.288,20,26.8,35.031,35.319,4.2,2.378,8,5.5,12.376,7.687,15.629,7.8,32.388,10.166,49.6,10.4m218.51-130.453c0-5.154.335-10.333-.063-15.455-1.254-16.087-5.776-31.513-10.308-46.883-4.525-15.348-8.6-30.917-18.1-44.291-1.689-2.378-2.672-2.826-5.258-1.178-17.622,11.227-34.9,23.025-53.256,33.064-2.245,1.228-5.065,2.29-6.231,4.254-.632,1.067,1.765,3.831,2.634,5.9,7.431,17.691,10.014,36.377,10.791,55.331.493,12.022-.729,24.032-1.718,36.02-1.225,14.912-4.617,29.123-13.548,41.509-1.146,1.592-.6,2.451.764,3.477,17.173,12.932,33.5,26.906,50.029,40.634,5.694,4.728,5.975,4.778,9.986-1.3,7.387-11.2,15.847-21.676,21.14-34.264,10.358-24.635,14.015-50.322,13.137-76.812m-430.755.884c.426,5.182.429,10.327,1.033,15.471,3.625,30.961,11.928,60.3,29.006,86.788,1.907,2.959,2.968,2.728,5.425.909,16.939-12.54,34.4-24.3,53.31-33.7,3.227-1.6,3.171-2.807,1.607-5.672-6.543-12-12.12-24.582-13.361-38.256-3.073-33.822,2.122-66.179,19.453-95.952,1.09-1.873.938-2.931-.827-4.229-3.692-2.71-7.213-5.656-10.813-8.492-14.094-11.091-26.71-23.865-40.413-35.4-3.992-3.36-4.036-3.385-7,1.017A223.569,223.569,0,0,0,34.5,136.052c-13.4,28.119-19.1,58.012-21.108,88.793M231.324,11.754c-7,.319-14.034-.041-21.016.925-30.228,4.184-59.686,10.8-86.26,26.8-2.864,1.727-3.388,2.83-1.219,5.713C135.757,62.36,148.446,79.707,159,98.478c1.522,2.713,3.019,1.686,4.854.916,16.194-6.8,32.878-11.681,50.471-13.162,29.319-2.466,57.087,2.4,82.635,17.508,2.732,1.614,4.219,1.648,6.348-.733C318.014,86.55,332.095,69.6,345.2,51.819c2.482-3.37,1.522-4.475-1.352-6.395-14.062-9.4-29.663-15.244-45.459-20.963-21.743-7.87-43.748-13.5-67.063-12.708M222.472,432.3c13.829.591,26.075-.752,38.284-2.441a265.513,265.513,0,0,0,70.1-19.567c7.327-3.2,7.232-3.414,2.747-9.679q-1-1.4-1.977-2.814c-11.388-16.532-21.9-33.585-30.553-51.731-1.352-2.833-2.413-3.647-5.637-1.986-27.727,14.293-57.09,20.06-88.168,16.08-16.289-2.087-31.592-6.982-44.894-16.914-2.788-2.084-4.229-2.1-6.5.625-12.847,15.4-24.945,31.425-38.606,46.148-1.554,1.674-2.785,3.644-4.3,5.362-1.389,1.579-1.664,2.694.36,4.09,4.244,2.924,8.211,6.281,12.885,8.523,30.9,14.82,62.676,26.154,96.252,24.3m120.9-133.242c-1.667.186-2.444,1.311-3.363,2.157-4.945,4.563-9.8,9.234-14.8,13.74-6.379,5.754-13.083,11.145-18.866,17.558-1.926,2.138-2.691,3.749-1.067,6.619,4.364,7.718,8.179,15.749,12.461,23.518A376.567,376.567,0,0,0,343.6,403.17c2.438,3.338,4.519,4,7.889,1.323,3.464-2.754,7.308-5.031,10.955-7.557,16.491-11.438,29.657-25.993,40.435-42.844,1.828-2.858,1.759-4.709-.995-6.821-3.97-3.047-7.68-6.433-11.52-9.654-14.6-12.234-28.9-24.834-44.025-36.434-1.007-.774-2.068-1.481-2.968-2.125m-229.724-3.363c-.84.433-1.721.906-2.618,1.348-23.139,11.331-44.01,26.167-64.59,41.486-2.365,1.762-2.128,2.605-.553,4.5,6.42,7.7,12.657,15.556,19.084,23.255,9.095,10.9,18.225,21.781,30.427,29.47,4.513,2.845,6.082,2.612,9.471-1.5,3.736-4.529,7.1-9.417,11.17-13.611,12.3-12.673,22.573-27.058,34.34-40.166,1.626-1.81,1.506-2.82-.145-4.506-3.805-3.887-7.431-7.958-11.006-12.064-7.522-8.634-14.947-17.356-22.466-25.993-.808-.928-1.592-2.081-3.114-2.217M414.165,104.409c-.5-.938-.995-1.964-1.579-2.931-13.175-21.809-31.526-38.35-52.77-51.987-2.378-1.525-3.616-.657-4.939,1.153-3.546,4.854-6.869,9.9-10.706,14.514C332,79.8,320.344,94.888,306.976,108.5c-1.184,1.206-2.706,2.094-.556,4.039a263.334,263.334,0,0,1,32.78,35.139c1.547,2.021,2.855,2.075,5.024.865,19.131-10.671,37.7-22.27,56.313-33.8,3.647-2.258,7.229-4.639,10.759-7.077a6.741,6.741,0,0,0,2.867-3.265m-257.7,3.06c-.407-.8-.831-1.708-1.317-2.58-12.686-22.69-28.858-42.971-44.142-63.864-1.361-1.863-2.359-1.352-3.761-.136C96.326,50.36,84.629,58.915,74.189,68.948A211.169,211.169,0,0,0,55.254,90.008c-2.005,2.523-2.391,4.3.944,6.316,5.773,3.49,10.608,8.249,15.544,12.825,13.121,12.165,26.281,24.285,40.362,35.366,2.627,2.068,4.049,1.791,5.776-.783a107.556,107.556,0,0,1,6.818-9.363c8.2-9.752,18.613-16.87,29.057-23.934,1.074-.726,2.9-.868,2.713-2.965M394.1,44.534c-5.192.262-10.743,1.983-16.254,4.1-3.777,1.45-3.158,2.507-.423,4.535a158.169,158.169,0,0,1,29.754,28.978c1.822,2.3,2.994,1.977,4.712.278,6.051-5.975,7.854-13.336,5.789-21.269-2.684-10.317-11.918-16.68-23.577-16.62M57.047,76.271c5.129-5.046,9.761-9.891,14.707-14.388,5.065-4.607,10.393-8.928,15.7-13.26,1.756-1.434,1.393-2.375-.069-3.682-9.938-8.921-27.354-4.56-31.532,8.072a30.764,30.764,0,0,0,1.2,23.259M81.326,394.318a230.806,230.806,0,0,1-24.983-27.879c-1.241-1.611-2.021-1.323-3.234.148-7.459,9.038-3.016,25.8,7.949,29.454a25.246,25.246,0,0,0,20.268-1.724m318.331-23.385c-9.076,12.06-19.491,21.282-30.917,29.736,10.8,5.691,18.136,5.359,26.458-2.125,8.17-7.349,6.711-16.908,4.459-27.61" transform="translate(13.897 9.935)" fill="#182a42"/>
    <path id="Path_4190" data-name="Path 4190" d="M75.822,33.3a26.272,26.272,0,0,1,16.961,7.137c2.012,1.974,3.161,1.525,4.917-.044,2.561-2.29,5.343-4.326,7.993-6.518,3.089-2.555,6.1-3.174,8.94.294,1.08,1.32,2.138,1.715,3.66.695,20.372-13.684,43.485-20.262,67.079-25.283,39.595-8.425,78.384-6.537,116.469,8.558,16.835,6.673,33.538,13.222,48.32,23.865,1.339.963,2.672,1.348,3.894.243,2.886-2.605,5.6-1.712,8.065.395,3.815,3.259,7.172,3.224,11.817.859,10.589-5.388,21.809-7.854,33.557-3.265,19.485,7.614,24.389,33.939,8.675,47.733-2.545,2.236-2.261,3.508-.679,5.83a95.427,95.427,0,0,1,4.955,8.536c1.238,2.29,2.593,4.664-.186,6.9-1.156.928-.357,1.781.212,2.58,14.571,20.517,19.109,44.828,25.738,68.323,5.833,20.685,5.706,41.786,4.769,63.1A176.963,176.963,0,0,1,436.8,304.8c-5.129,12.174-13.671,22.125-20.833,32.976-2.473,3.742-5.492,6.872-4.27,12.262.881,3.875-2.3,7.225-4.611,10.308a7.92,7.92,0,0,0-1.522,7.819c2.271,7.753,3.262,15.752,1.219,23.754-3.48,13.63-19.112,22.557-32.6,18.708-2.47-.707-5.106-1.288-7.248-2.609-4.055-2.5-7.327-1.724-10.747,1.127-1.737,1.446-3.925,2.343-5.886,3.524-1.134.685-2.555,1.551-3.616.935-4.409-2.574-7.437.594-10.9,2.223-16.662,7.832-34.182,13.115-52.1,17.085-32.044,7.1-64.473,9.572-96.839,3.685-27.639-5.028-53.711-14.972-76.789-31.6-2.018-1.453-3.695-2.207-6.193-.982-4.045,1.98-8.047.755-11.309-1.753-3.436-2.637-6.629-2.571-10.336-1.02A33.872,33.872,0,0,1,61.188,403.1c-9.689-2.192-16.26-9.84-18.313-21-1.418-7.712.142-14.584,5.2-20.464,1.99-2.315,1.547-3.692-.215-5.744-3.262-3.8-6.237-7.848-9.307-11.814-2.021-2.605-2.583-5.5-.9-8.41,1.219-2.106.638-3.647-.543-5.466-18.55-28.57-26.963-60.431-30.171-93.912-1.825-19.068,1.7-37.672,5.375-56.256C17.882,151.9,29.8,126.565,45.89,103.041c1.292-1.888,2.444-3.183.685-5.88-2.226-3.4-.335-7.184,2.091-9.847,3.3-3.619,3.085-6.9,1.342-11.163-3.073-7.507-2.842-15.43-1.086-23.252C51.467,41.549,62.268,33.177,75.822,33.3Zm149.811,321.11c21.424.038,41.685-5.04,61.1-13.873,5.16-2.35,10.592-4.3,12.979-10.219.354-.878,1.292-1.516,1.949-2.274,7.364-8.476,16.226-15.36,24.414-22.965,5.928-5.5,12.449-10.522,17.6-16.681,6.152-7.345,9.243-16.554,10.535-25.993,3.328-24.335,4.829-48.715.534-73.158a143.919,143.919,0,0,0-7.8-27.178c-.767-1.983-1.254-4.775-4.121-4.879-3.717-.142-6.085-2.207-8.157-4.885a241.044,241.044,0,0,0-28.731-30.759c-4.317-3.925-7.465-9.275-12.319-12.206-16.845-10.175-35.48-15.12-55.025-16.45-24.459-1.664-47.891,2.883-70.417,12.4-2.422,1.023-5.106,1.437-5,5.223.051,1.756-2,3.092-3.613,3.979-17.3,9.528-30.061,24.01-41.78,39.339a72.629,72.629,0,0,0-12.231,24.465c-2.561,9.111-4.6,18.329-6.477,27.588-5.185,25.57-3.761,50.458,8.141,74.14,1.857,3.7,2.656,8.795,8.719,8.318.647-.051,1.465.843,2.046,1.446,3.575,3.711,7.184,7.383,10.652,11.211,11.132,12.288,20,26.8,35.031,35.319,4.2,2.378,8,5.5,12.376,7.687C191.663,351.815,208.422,354.18,225.633,354.414Zm218.51-130.453c0-5.154.335-10.333-.063-15.455-1.254-16.087-5.776-31.513-10.308-46.883-4.525-15.348-8.6-30.917-18.1-44.291-1.689-2.378-2.672-2.826-5.258-1.178-17.622,11.227-34.9,23.025-53.256,33.064-2.245,1.228-5.065,2.29-6.231,4.254-.632,1.067,1.765,3.831,2.634,5.9,7.431,17.691,10.014,36.377,10.791,55.331.493,12.022-.729,24.032-1.718,36.02-1.225,14.912-4.617,29.123-13.548,41.509-1.146,1.592-.6,2.451.764,3.477,17.173,12.932,33.5,26.906,50.029,40.634,5.694,4.728,5.975,4.778,9.986-1.3,7.387-11.2,15.847-21.676,21.14-34.264C441.364,276.137,445.021,250.45,444.143,223.961Zm-430.755.884c.426,5.182.429,10.327,1.033,15.471,3.625,30.961,11.928,60.3,29.006,86.788,1.907,2.959,2.968,2.728,5.425.909,16.939-12.54,34.4-24.3,53.31-33.7,3.227-1.6,3.171-2.807,1.607-5.672-6.543-12-12.12-24.582-13.361-38.256-3.073-33.822,2.122-66.179,19.453-95.952,1.09-1.873.938-2.931-.827-4.229-3.692-2.71-7.213-5.656-10.813-8.492-14.094-11.091-26.71-23.865-40.413-35.4-3.992-3.36-4.036-3.385-7,1.017A223.569,223.569,0,0,0,34.5,136.052C21.094,164.17,15.4,194.064,13.388,224.845ZM231.324,11.754c-7,.319-14.034-.041-21.016.925-30.228,4.184-59.686,10.8-86.26,26.8-2.864,1.727-3.388,2.83-1.219,5.713C135.757,62.36,148.446,79.707,159,98.478c1.522,2.713,3.019,1.686,4.854.916,16.194-6.8,32.878-11.681,50.471-13.162,29.319-2.466,57.087,2.4,82.635,17.508,2.732,1.614,4.219,1.648,6.348-.733C318.014,86.55,332.095,69.6,345.2,51.819c2.482-3.37,1.522-4.475-1.352-6.395-14.062-9.4-29.663-15.244-45.459-20.963C276.644,16.592,254.639,10.961,231.324,11.754ZM222.472,432.3c13.829.591,26.075-.752,38.284-2.441a265.513,265.513,0,0,0,70.1-19.567c7.327-3.2,7.232-3.414,2.747-9.679q-1-1.4-1.977-2.814c-11.388-16.532-21.9-33.585-30.553-51.731-1.352-2.833-2.413-3.647-5.637-1.986-27.727,14.293-57.09,20.06-88.168,16.08-16.289-2.087-31.592-6.982-44.894-16.914-2.788-2.084-4.229-2.1-6.5.625-12.847,15.4-24.945,31.425-38.606,46.148-1.554,1.674-2.785,3.644-4.3,5.362-1.389,1.579-1.664,2.694.36,4.09,4.244,2.924,8.211,6.281,12.885,8.523C157.118,422.815,188.9,434.149,222.472,432.3Zm120.9-133.242c-1.667.186-2.444,1.311-3.363,2.157-4.945,4.563-9.8,9.234-14.8,13.74-6.379,5.754-13.083,11.145-18.866,17.558-1.926,2.138-2.691,3.749-1.067,6.619,4.364,7.718,8.179,15.749,12.461,23.518A376.567,376.567,0,0,0,343.6,403.17c2.438,3.338,4.519,4,7.889,1.323,3.464-2.754,7.308-5.031,10.955-7.557,16.491-11.438,29.657-25.993,40.435-42.844,1.828-2.858,1.759-4.709-.995-6.821-3.97-3.047-7.68-6.433-11.52-9.654-14.6-12.234-28.9-24.834-44.025-36.434C345.333,300.409,344.272,299.7,343.372,299.057Zm-229.724-3.363c-.84.433-1.721.906-2.618,1.348-23.139,11.331-44.01,26.167-64.59,41.486-2.365,1.762-2.128,2.605-.553,4.5,6.42,7.7,12.657,15.556,19.084,23.255,9.095,10.9,18.225,21.781,30.427,29.47,4.513,2.845,6.082,2.612,9.471-1.5,3.736-4.529,7.1-9.417,11.17-13.611,12.3-12.673,22.573-27.058,34.34-40.166,1.626-1.81,1.506-2.82-.145-4.506-3.805-3.887-7.431-7.958-11.006-12.064-7.522-8.634-14.947-17.356-22.466-25.993C115.953,296.983,115.17,295.83,113.648,295.694ZM414.165,104.409c-.5-.938-.995-1.964-1.579-2.931-13.175-21.809-31.526-38.35-52.77-51.987-2.378-1.525-3.616-.657-4.939,1.153-3.546,4.854-6.869,9.9-10.706,14.514C332,79.8,320.344,94.888,306.976,108.5c-1.184,1.206-2.706,2.094-.556,4.039a263.334,263.334,0,0,1,32.78,35.139c1.547,2.021,2.855,2.075,5.024.865,19.131-10.671,37.7-22.27,56.313-33.8,3.647-2.258,7.229-4.639,10.759-7.077A6.741,6.741,0,0,0,414.165,104.409Zm-257.7,3.06c-.407-.8-.831-1.708-1.317-2.58-12.686-22.69-28.858-42.971-44.142-63.864-1.361-1.863-2.359-1.352-3.761-.136C96.326,50.36,84.629,58.915,74.189,68.948A211.169,211.169,0,0,0,55.254,90.008c-2.005,2.523-2.391,4.3.944,6.316,5.773,3.49,10.608,8.249,15.544,12.825,13.121,12.165,26.281,24.285,40.362,35.366,2.627,2.068,4.049,1.791,5.776-.783a107.556,107.556,0,0,1,6.818-9.363c8.2-9.752,18.613-16.87,29.057-23.934C154.828,109.708,156.653,109.566,156.467,107.469ZM394.1,44.534c-5.192.262-10.743,1.983-16.254,4.1-3.777,1.45-3.158,2.507-.423,4.535a158.169,158.169,0,0,1,29.754,28.978c1.822,2.3,2.994,1.977,4.712.278,6.051-5.975,7.854-13.336,5.789-21.269C414.992,50.837,405.758,44.474,394.1,44.534ZM57.047,76.271c5.129-5.046,9.761-9.891,14.707-14.388,5.065-4.607,10.393-8.928,15.7-13.26,1.756-1.434,1.393-2.375-.069-3.682-9.938-8.921-27.354-4.56-31.532,8.072A30.764,30.764,0,0,0,57.047,76.271ZM81.326,394.318a230.806,230.806,0,0,1-24.983-27.879c-1.241-1.611-2.021-1.323-3.234.148-7.459,9.038-3.016,25.8,7.949,29.454A25.246,25.246,0,0,0,81.326,394.318Zm318.331-23.385c-9.076,12.06-19.491,21.282-30.917,29.736,10.8,5.691,18.136,5.359,26.458-2.125C403.367,391.195,401.908,381.635,399.657,370.933Z" transform="translate(13.897 9.935)" fill="none" stroke="#182a42" stroke-miterlimit="10" stroke-width="0.75"/>
    <path id="Path_4191" data-name="Path 4191" d="M158.722,135.219c.01,1.364-.272,2.482-1.481,3.006a3.084,3.084,0,0,1-3.581-.6c-9.736-9.619-22-15.881-32.467-24.534-2.343-1.939-6.041-4.222-3.152-7.566,2.924-3.389,5.22.628,7.447,2.239,7.181,5.195,14.271,10.51,21.433,15.727a84.859,84.859,0,0,1,9.9,8.2c1.026,1.02,2,2.078,1.9,3.531" transform="translate(252.447 224.864)" fill="#182a42"/>
    <path id="Path_4192" data-name="Path 4192" d="M158.722,135.219c.01,1.364-.272,2.482-1.481,3.006a3.084,3.084,0,0,1-3.581-.6c-9.736-9.619-22-15.881-32.467-24.534-2.343-1.939-6.041-4.222-3.152-7.566,2.924-3.389,5.22.628,7.447,2.239,7.181,5.195,14.271,10.51,21.433,15.727a84.859,84.859,0,0,1,9.9,8.2C157.847,132.708,158.816,133.766,158.722,135.219Z" transform="translate(252.447 224.864)" fill="none" stroke="#182a42" stroke-miterlimit="10" stroke-width="0.75"/>
    <path id="Path_4193" data-name="Path 4193" d="M118.339,103.565c-.1,2.04-1.127,3.01-3,2.994-1.816-.016-3.038-.894-3.1-2.785a2.763,2.763,0,0,1,3.183-3.12,2.882,2.882,0,0,1,2.918,2.912" transform="translate(242.201 217.2)" fill="#182a42"/>
    <path id="Path_4194" data-name="Path 4194" d="M118.339,103.565c-.1,2.04-1.127,3.01-3,2.994-1.816-.016-3.038-.894-3.1-2.785a2.763,2.763,0,0,1,3.183-3.12A2.882,2.882,0,0,1,118.339,103.565Z" transform="translate(242.201 217.2)" fill="none" stroke="#182a42" stroke-miterlimit="10" stroke-width="0.75"/>
    <path id="Path_4195" data-name="Path 4195" d="M117.585,108.085a2.73,2.73,0,0,1-2.807-2.984,2.65,2.65,0,0,1,3.095-2.741,2.71,2.71,0,0,1,2.618,3.218c-.117,1.718-1.153,2.485-2.905,2.507" transform="translate(247.68 220.853)" fill="#182a42"/>
    <path id="Path_4196" data-name="Path 4196" d="M117.585,108.085a2.73,2.73,0,0,1-2.807-2.984,2.65,2.65,0,0,1,3.095-2.741,2.71,2.71,0,0,1,2.618,3.218C120.373,107.3,119.337,108.063,117.585,108.085Z" transform="translate(247.68 220.853)" fill="none" stroke="#182a42" stroke-miterlimit="10" stroke-width="0.75"/>
    <path id="Path_4197" data-name="Path 4197" d="M66.825,101.977c-.1,1.623-1.14,2.53-2.432,3.278-10.671,6.174-20.558,13.488-30.364,20.915-1.958,1.481-4.339,2.517-6.085.24-1.727-2.252-.313-4.216,1.813-5.725,9.793-6.951,19.415-14.157,29.862-20.138,1.241-.711,2.4-1.585,3.913-1.607,2.132-.032,3.379,1.127,3.294,3.038" transform="translate(58.635 213.508)" fill="#182a42"/>
    <path id="Path_4198" data-name="Path 4198" d="M66.825,101.977c-.1,1.623-1.14,2.53-2.432,3.278-10.671,6.174-20.558,13.488-30.364,20.915-1.958,1.481-4.339,2.517-6.085.24-1.727-2.252-.313-4.216,1.813-5.725,9.793-6.951,19.415-14.157,29.862-20.138,1.241-.711,2.4-1.585,3.913-1.607C65.663,98.908,66.911,100.067,66.825,101.977Z" transform="translate(58.635 213.508)" fill="none" stroke="#182a42" stroke-miterlimit="10" stroke-width="0.75"/>
    <path id="Path_4199" data-name="Path 4199" d="M27.806,113.534c-1.787-.278-2.874-1.279-2.672-3.167a2.722,2.722,0,0,1,3.272-2.6,2.589,2.589,0,0,1,2.5,2.912c-.069,1.879-1.216,2.785-3.1,2.855" transform="translate(54.188 232.514)" fill="#182a42"/>
    <path id="Path_4200" data-name="Path 4200" d="M27.806,113.534c-1.787-.278-2.874-1.279-2.672-3.167a2.722,2.722,0,0,1,3.272-2.6,2.589,2.589,0,0,1,2.5,2.912C30.841,112.558,29.695,113.465,27.806,113.534Z" transform="translate(54.188 232.514)" fill="none" stroke="#182a42" stroke-miterlimit="10" stroke-width="0.75"/>
    <path id="Path_4201" data-name="Path 4201" d="M28.786,112.488c-.174,1.829-1.33,2.605-3.142,2.523a2.511,2.511,0,0,1-2.719-2.608,2.607,2.607,0,0,1,2.9-2.9,2.739,2.739,0,0,1,2.962,2.981" transform="translate(49.466 236.314)" fill="#182a42"/>
    <path id="Path_4202" data-name="Path 4202" d="M28.786,112.488c-.174,1.829-1.33,2.605-3.142,2.523a2.511,2.511,0,0,1-2.719-2.608,2.607,2.607,0,0,1,2.9-2.9A2.739,2.739,0,0,1,28.786,112.488Z" transform="translate(49.466 236.314)" fill="none" stroke="#182a42" stroke-miterlimit="10" stroke-width="0.75"/>
    <path id="Path_4203" data-name="Path 4203" d="M136.653,25.315a4.589,4.589,0,0,1-1.326,2.618c-5.6,6.657-11.179,13.336-16.8,19.981a16.314,16.314,0,0,1-3.032,2.981,3.019,3.019,0,0,1-4.251-.42,2.831,2.831,0,0,1-.18-3.925c6.594-7.87,12.815-16.061,20-23.426a3.347,3.347,0,0,1,3.982-.6,2.77,2.77,0,0,1,1.607,2.792" transform="translate(238.155 47.761)" fill="#182a42"/>
    <path id="Path_4204" data-name="Path 4204" d="M136.653,25.315a4.589,4.589,0,0,1-1.326,2.618c-5.6,6.657-11.179,13.336-16.8,19.981a16.314,16.314,0,0,1-3.032,2.981,3.019,3.019,0,0,1-4.251-.42,2.831,2.831,0,0,1-.18-3.925c6.594-7.87,12.815-16.061,20-23.426a3.347,3.347,0,0,1,3.982-.6A2.77,2.77,0,0,1,136.653,25.315Z" transform="translate(238.155 47.761)" fill="none" stroke="#182a42" stroke-miterlimit="10" stroke-width="0.75"/>
    <path id="Path_4205" data-name="Path 4205" d="M107.225,48.374c-2.653-.139-3.906-2.8-2.223-5.122,2.252-3.107,4.848-5.972,7.387-8.861a2.984,2.984,0,0,1,3.9-.625c1.153.625,1.314,1.778,1.225,2.972-.183,2.4-6.884,10.725-9.187,11.41a10.148,10.148,0,0,1-1.1.227" transform="translate(224.941 71.882)" fill="#182a42"/>
    <path id="Path_4206" data-name="Path 4206" d="M107.225,48.374c-2.653-.139-3.906-2.8-2.223-5.122,2.252-3.107,4.848-5.972,7.387-8.861a2.984,2.984,0,0,1,3.9-.625c1.153.625,1.314,1.778,1.225,2.972-.183,2.4-6.884,10.725-9.187,11.41A10.148,10.148,0,0,1,107.225,48.374Z" transform="translate(224.941 71.882)" fill="none" stroke="#182a42" stroke-miterlimit="10" stroke-width="0.75"/>
    <path id="Path_4207" data-name="Path 4207" d="M114.255,34.2a2.765,2.765,0,0,1-3.111,2.776,2.5,2.5,0,0,1-2.691-2.684,2.776,2.776,0,0,1,2.867-3.063c1.892-.069,2.807,1.118,2.934,2.972" transform="translate(234.042 67.39)" fill="#182a42"/>
    <path id="Path_4208" data-name="Path 4208" d="M114.255,34.2a2.765,2.765,0,0,1-3.111,2.776,2.5,2.5,0,0,1-2.691-2.684,2.776,2.776,0,0,1,2.867-3.063C113.213,31.162,114.129,32.349,114.255,34.2Z" transform="translate(234.042 67.39)" fill="none" stroke="#182a42" stroke-miterlimit="10" stroke-width="0.75"/>
    <path id="Path_4209" data-name="Path 4209" d="M73.169,63.04c.019,2.394-.616,3.767-2.428,4.2a3.165,3.165,0,0,1-3.859-1.9A205.517,205.517,0,0,0,39.619,24.895c-1.468-1.715-2.05-3.711-.155-5.309,1.911-1.614,3.714-.619,5.173,1.105C55.112,33.052,64.6,46.1,72.2,60.444a16.372,16.372,0,0,1,.966,2.6" transform="translate(82.576 40.504)" fill="#182a42"/>
    <path id="Path_4210" data-name="Path 4210" d="M73.169,63.04c.019,2.394-.616,3.767-2.428,4.2a3.165,3.165,0,0,1-3.859-1.9A205.517,205.517,0,0,0,39.619,24.895c-1.468-1.715-2.05-3.711-.155-5.309,1.911-1.614,3.714-.619,5.173,1.105C55.112,33.052,64.6,46.1,72.2,60.444A16.372,16.372,0,0,1,73.169,63.04Z" transform="translate(82.576 40.504)" fill="none" stroke="#182a42" stroke-miterlimit="10" stroke-width="0.75"/>
    <path id="Path_4211" data-name="Path 4211" d="M141.557,27.3c-.044,4.263-2.04,6.505-5.713,6.427-3.61-.079-6.543-3.553-6.483-7.677.051-3.537,2.495-6.212,5.716-6.259,3.758-.054,6.528,3.155,6.48,7.51" transform="translate(279.156 42.71)" fill="#182a42"/>
    <path id="Path_4212" data-name="Path 4212" d="M141.557,27.3c-.044,4.263-2.04,6.505-5.713,6.427-3.61-.079-6.543-3.553-6.483-7.677.051-3.537,2.495-6.212,5.716-6.259C138.835,19.739,141.6,22.947,141.557,27.3Z" transform="translate(279.156 42.71)" fill="none" stroke="#182a42" stroke-miterlimit="10" stroke-width="0.75"/>
    <path id="Path_4213" data-name="Path 4213" d="M29.739,31.174c-3.654-.022-5.725-2.182-5.684-5.924.044-4.134,3.647-8.05,7.358-8,3.133.038,5.432,3.259,5.337,7.469-.085,3.771-3.032,6.483-7.011,6.458" transform="translate(51.908 37.218)" fill="#182a42"/>
    <path id="Path_4214" data-name="Path 4214" d="M29.739,31.174c-3.654-.022-5.725-2.182-5.684-5.924.044-4.134,3.647-8.05,7.358-8,3.133.038,5.432,3.259,5.337,7.469C36.664,28.487,33.718,31.2,29.739,31.174Z" transform="translate(51.908 37.218)" fill="none" stroke="#182a42" stroke-miterlimit="10" stroke-width="0.75"/>
    <path id="Path_4215" data-name="Path 4215" d="M33.391,129.932c-.177,3.474-2.163,5.113-5.492,5.182-3.373.069-5.956-2.814-5.8-6.49.136-3.265,1.825-5.388,5.173-5.64,3.047-.227,6.193,3.5,6.123,6.948" transform="translate(47.668 265.377)" fill="#182a42"/>
    <path id="Path_4216" data-name="Path 4216" d="M33.391,129.932c-.177,3.474-2.163,5.113-5.492,5.182-3.373.069-5.956-2.814-5.8-6.49.136-3.265,1.825-5.388,5.173-5.64C30.316,122.757,33.461,126.481,33.391,129.932Z" transform="translate(47.668 265.377)" fill="none" stroke="#182a42" stroke-miterlimit="10" stroke-width="0.75"/>
    <path id="Path_4217" data-name="Path 4217" d="M136.491,132.322c-.054,2.65-1.917,4.3-4.816,4.27-3.18-.038-5.47-1.781-5.567-5.208-.085-3.117,1.582-5.151,4.794-5.4,2.848-.224,5.545,2.722,5.59,6.341" transform="translate(272.13 271.839)" fill="#182a42"/>
    <path id="Path_4218" data-name="Path 4218" d="M136.491,132.322c-.054,2.65-1.917,4.3-4.816,4.27-3.18-.038-5.47-1.781-5.567-5.208-.085-3.117,1.582-5.151,4.794-5.4C133.749,125.757,136.446,128.7,136.491,132.322Z" transform="translate(272.13 271.839)" fill="none" stroke="#182a42" stroke-miterlimit="10" stroke-width="0.75"/>
    <path id="Path_4219" data-name="Path 4219" d="M41.219,116.033c-1.948.442-2.526-.369-1.847-2.634C46.4,89.935,52.338,79.107,67.152,61.286a33.88,33.88,0,0,1,4.033-4.165c3.385-2.924,5.141-4.32,8.767-6.96,1.462-1.064,1.579-.682.395,1.257a147.4,147.4,0,0,0-9.471,17.76c4.645-2.16,7.036-3.174,11.934-5.053a179.113,179.113,0,0,1,8.024-18.979A8.8,8.8,0,0,1,94.579,40.9a111.386,111.386,0,0,1,10.143-4.986c1.674-.736,2.075-.079,1.317,2.16-7.854,23.211-11,36.74-14.729,65.6-.36,2.785-1.5,4.14-3.761,4.415-5.6.685-8.353,1.061-13.756,1.87-2.176.325-2.934-.695-2.457-3.319a221.617,221.617,0,0,1,5.116-22.617c-5.353,1.44-7.971,2.217-13.077,3.875a173.205,173.205,0,0,0-6.038,21.37c-.562,2.485-1.693,3.764-3.739,4.162-5.069.988-7.548,1.513-12.379,2.608" transform="translate(84.374 76.875)" fill="#182a42"/>
    <path id="Path_4220" data-name="Path 4220" d="M62.637,113.5c-2.353.205-3.262-.973-2.975-3.834,3-29.653,5.523-43.58,11.833-67.59.609-2.315,1.652-3.572,3.423-4.115,13.125-4.033,20.088-5.271,34.409-5.785,1.926-.069,2.773.985,2.744,3.445-.057,4.6-.082,6.966-.133,11.789-.025,2.574-.982,3.736-3.1,3.793a161.593,161.593,0,0,0-23,2c-.4,3.149-.6,4.746-.973,7.983,6.581-.862,9.926-1.175,16.709-1.551,2.173-.123,3.092,1.014,3,3.723-.161,4.633-.237,6.992-.379,11.779-.085,2.8-1.146,4.077-3.467,4.172-7.241.3-10.816.553-17.855,1.241-.347,3.821-.508,5.757-.818,9.67,10.226-.856,15.458-1.121,26.075-1.285,2.4-.038,3.461,1.228,3.445,4.153-.032,5.473-.047,8.252-.073,13.876-.013,3.006-1.134,4.345-3.644,4.371-18.648.2-27.771.657-45.222,2.17" transform="translate(128.639 69.437)" fill="#182a42"/>
    <path id="Path_4221" data-name="Path 4221" d="M84.753,111.261c-2.495-.051-3.619-1.4-3.663-4.405-.483-31.116-.894-45.772-1.911-71.244-.1-2.457.7-3.48,2.615-3.341a111.361,111.361,0,0,1,11.7,1.367c1.863.3,2.826,1.494,3.171,3.91,2.722,19.112,3.872,29.764,5.539,52.34,5.091.4,7.611.638,12.591,1.2-.78-7.263-1.216-10.819-2.17-17.754-.369-2.672.4-3.685,2.5-3.322,4.892.837,7.308,1.317,12.054,2.381,2.046.458,3.19,1.781,3.736,4.349a331.5,331.5,0,0,1,5.628,33.866c.344,2.8-.527,3.935-2.826,3.695a489.2,489.2,0,0,0-48.964-3.041" transform="translate(170.848 69.612)" fill="#182a42"/>
    <path id="Path_4222" data-name="Path 4222" d="M115.931,107.313c-2.22-.306-3.363-1.648-3.764-4.377-4.178-28.292-7.712-41.534-16.516-64.18-.846-2.182-.505-2.785,1.127-1.974a111.713,111.713,0,0,1,18.973,11.492,103.376,103.376,0,0,1,24.118,24.389c2.669,3.745,3.935,5.681,6.31,9.663,5.381,9.022,4.642,14.075-9.4,9.821-3.55-1.074-5.356-1.588-9.032-2.571,1.816,6.477,2.618,9.8,3.995,16.589.524,2.558-.2,3.537-2.331,3.183-5.29-.875-7.986-1.285-13.478-2.037m6.149-34.842c2.681.985,4,1.5,6.607,2.555,2.826,1.149,2.492-.594,1.446-2.811-.856-1.81-1.295-2.7-2.195-4.472a12.353,12.353,0,0,0-5.239-5.706c-2.41-1.257-3.638-1.863-6.12-3.032,2.35,5.22,3.455,7.92,5.5,13.466" transform="translate(205.444 78.632)" fill="#182a42"/>
    <path id="Path_4223" data-name="Path 4223" d="M56.386,139.322c-2.119-.363-3.149-1.566-3.6-4.014-.919-5.005-1.295-7.551-1.863-12.7-5.969-8.722-8.757-12.973-13.579-20.953C34.905,97.668,34.378,95.817,34.921,90a111.035,111.035,0,0,1,2.842-17.637c.518-2.245,1.607-3.395,3.524-3.786,4.715-.963,7.137-1.427,12.1-2.305,2.012-.354,2.694.572,2.258,3.051a157.63,157.63,0,0,0-2.163,16.557,7.978,7.978,0,0,0,.433,4.289c1.361,2.905,2.081,4.4,3.584,7.44.575,1.266,1.083,1.8,2.031,1.791l.868-.009c.951-.013,1.478-.562,2.116-1.879,1.671-3.167,2.536-4.765,4.317-7.99A10.324,10.324,0,0,0,67.9,84.9c.5-7.134.878-10.655,1.86-17.562.376-2.631,1.5-3.913,3.66-4.213,5.138-.711,7.759-1.042,13.09-1.661,2.233-.259,3.082.853,2.788,3.657-.906,8.612-1.235,13.008-1.614,21.929-.306,7.2-1.067,9.619-3.853,14.429-5.643,9.676-8.277,14.321-12.894,22.911.458,5.542.761,8.28,1.5,13.684.363,2.656-.407,3.682-2.539,3.376-5.53-.8-8.236-1.228-13.516-2.128" transform="translate(74.939 132.561)" fill="#182a42"/>
    <path id="Path_4224" data-name="Path 4224" d="M86.206,152.614C61.915,151.272,55.681,141.1,55,126.687a367.18,367.18,0,0,1,0-40.8c.673-14.41,6.916-24.7,31.207-26.047s30.664,9.067,30.585,24.55c-.088,17.309-.088,26.5,0,43.808.079,15.484-6.288,25.763-30.585,24.421m-.954-23.524c7.276.189,8.366-2.3,8.315-5.7-.208-13.551-.208-20.65,0-34.2.051-3.275-1.042-5.766-8.318-5.58-7.172.186-8.394,2.691-8.473,5.9-.319,13.3-.319,20.262,0,33.554.082,3.335,1.307,5.839,8.476,6.025" transform="translate(117.465 128.873)" fill="#182a42"/>
    <path id="Path_4225" data-name="Path 4225" d="M109.019,152.206c-24.263,1.191-30.8-9.133-30.765-24.629.063-25.144.044-38.657-.069-63.153-.013-3.095,1.1-4.44,3.644-4.412,6.382.063,9.547.129,15.806.325,2.488.079,3.625,1.453,3.723,4.516.717,22.324.84,34.523.537,57.583-.044,3.417,1.162,5.915,8.182,5.754,7.118-.164,8.343-2.678,8.416-6.035.486-22.671.287-34.678-.868-56.613-.158-3.01.736-4.263,3.237-4.105,5.849.373,8.738.584,14.432,1.064,2.343.2,3.483,1.554,3.723,4.453a399.3,399.3,0,0,1,1.134,59.288c-.635,14.546-6.872,24.774-31.131,25.965" transform="translate(168.719 129.504)" fill="#182a42"/>
    <path id="Path_4226" data-name="Path 4226" d="M104.179,143.884c-2.248.253-3.1-.865-2.811-3.679,2.991-29.18,2.991-45.936,0-75.116-.287-2.814.562-3.932,2.811-3.676,11.953,1.358,17.723,2.16,28.687,3.966,12.354,2.037,17.382,9.051,18.578,18.5.221,1.756.319,2.64.489,4.412.518,5.4-.489,9.269-3.884,11.025,5.981.906,9.938,6.079,9.316,13.99a111.214,111.214,0,0,1-3.006,19.516c-.518,2.245-1.611,3.4-3.524,3.786-4.746.97-7.188,1.434-12.184,2.318-2.012.357-2.694-.568-2.258-3.051,1.067-6.073,1.484-9.164,2.062-15.436.281-3.073-.474-4.371-2.858-4.238-4.759.272-7.184.4-12.127.641a210.625,210.625,0,0,1-2.056,21.124c-.373,2.643-1.5,3.925-3.663,4.222-5.327.726-8.047,1.067-13.573,1.7M123.8,96.849c2.656.054,3.973.079,6.578.136,3.041.066,3.752-2.059,3.61-4.923-.073-1.443-.114-2.16-.208-3.594-.193-2.849-1.14-5-4.156-5.223-2.583-.2-3.891-.287-6.528-.471.433,5.568.578,8.388.7,14.075" transform="translate(218.636 132.452)" fill="#182a42"/>
    <path id="Path_4227" data-name="Path 4227" d="M72.061,155.4a11.527,11.527,0,0,1-3.846-4.244c-11.8-20.5-16.526-32.666-22.125-58.811-.543-2.52.161-3.48,2.274-3.114,5.435.941,8.214,1.38,13.873,2.192,1.847.265,3.12,1.295,4.541,3.837,4.247,7.548,6.426,11.328,10.778,18.831.834,1.39,1.187,1.967,1.879,2.091l.774.142c.692.123.849-.36,1.244-1.547,1.926-6.486,3.057-9.9,5.574-17,.846-2.4,1.98-3.215,3.947-3.038,6.079.54,9.164.771,15.411,1.159,2.413.148,3.55,1.522,3.723,4.472,1.819,30.591,3.354,44.985,7.188,69.933.369,2.406-.275,3.287-2.1,2.89a109.772,109.772,0,0,1-11.069-2.918c-1.838-.568-2.814-1.8-3.426-4.118a330.692,330.692,0,0,1-7.525-34.94c-1.219,4.238-1.759,6.284-2.678,10.213-.452,2.081-1.408,2.656-3.439,2.1-1.247-.344-1.87-.521-3.107-.884-2.012-.591-3.4-1.816-4.958-4.326-3.025-4.778-4.547-7.188-7.582-12.019a212.891,212.891,0,0,0,11.021,32.672c.9,2.151.587,2.719-1.02,1.87-3.834-2.027-5.706-3.12-9.348-5.441" transform="translate(99.082 192.406)" fill="#182a42"/>
    <path id="Path_4228" data-name="Path 4228" d="M77.826,170.416c-1.9-.183-2.83-1.339-3.051-3.78-2.283-25.308-3.2-39.882-4.285-70.837-.1-2.987.938-4.279,3.42-4.21,13.216.363,20.154.366,33.377.009,14.893-.4,18.869,7.32,17.95,18.619-.174,2.1-.262,3.142-.442,5.217-.556,6.316-2.267,10.838-6.183,13.175,6.427.249,9.875,5.432,8.564,14.1-1.323,8.751-2.049,12.973-3.616,21.032-.461,2.378-1.465,3.6-3.287,4.014a110.5,110.5,0,0,1-11.47,2.065c-1.876.253-2.612-.711-2.4-3.152.531-5.978.78-9.067,1.251-15.411.231-3.107-.518-4.409-2.912-4.251-4.788.313-7.2.4-12.079.448-.063,8.312-.1,12.332-.174,20.047-.022,2.46-.891,3.54-2.833,3.524a112.637,112.637,0,0,1-11.833-.613M92.8,127.809c2.795-.019,4.187-.044,6.957-.126,3.231-.095,4.14-2.378,4.251-5.441.057-1.541.082-2.315.136-3.869.107-3.089-.673-5.369-4.033-5.29-2.88.069-4.326.088-7.232.1-.028,5.95-.044,8.877-.079,14.621" transform="translate(152.1 197.637)" fill="#182a42"/>
    <path id="Path_4229" data-name="Path 4229" d="M91.331,169.633c-1.753.572-2.28-.2-1.718-2.539,1.055-4.374,1.56-6.616,2.526-11.2.515-2.454,1.6-3.749,3.553-4.225a151.307,151.307,0,0,0,20.341-6.253,5.554,5.554,0,0,0,2.833-3.385c.733-2.129.338-2.741-.884-2.5-4.27.733-6.477,1.02-11.018,1.434-7.093.568-11.375-2.492-9.629-14.6.654-4.538.96-6.843,1.528-11.52,1.544-12.689,9.423-20.577,21.181-22,10.128-1.225,15.051-1.945,24.528-3.569,2.116-.36,2.826.6,2.29,3.133-1.02,4.816-1.588,7.188-2.842,11.846-.657,2.447-1.841,3.745-3.846,4.27-7.481,1.948-11.347,2.83-19.286,4.383-1.443.281-2.539,1.715-2.912,3.6s.212,2.959,1.582,2.855c4.794-.268,7.131-.464,11.666-.988,7.121-.688,10.633,1.525,6.348,11.321-1.607,3.673-2.451,5.473-4.216,8.984-4.787,9.534-12.458,17.492-20.748,21.9a110.557,110.557,0,0,1-21.275,9.048" transform="translate(192.919 192.496)" fill="#182a42"/>
  </g>
</svg>
