<svg id="Group_312" data-name="Group 312" xmlns="http://www.w3.org/2000/svg" xmlns:xlink="http://www.w3.org/1999/xlink" width="227.977" height="231.784" viewBox="0 0 227.977 231.784">
  <defs>
    <clipPath id="clip-path">
      <rect id="Rectangle_78" data-name="Rectangle 78" width="227.977" height="231.784" fill="none"/>
    </clipPath>
  </defs>
  <g id="Group_32" data-name="Group 32" clip-path="url(#clip-path)">
    <path id="Path_1206" data-name="Path 1206" d="M30.918,134.6c-1.152,1.737-2.194,3.558-3.48,5.188-2.245,2.844-3.45,5.628-.473,8.722.11.115-.14.575-.223.875l.134-.027c.865-.467,1.361-.059,1.708.712l-.054-.04a.7.7,0,0,1,.709.709l-.04-.035c2.844,1.023,6.176,1.606,5.357,5.94,1.157,2.954,2.712,5.51,6.074,6.4.91.242,1.318,1.13,1.748,1.9a3.572,3.572,0,0,0,2.194,1.737c7.183,2.495,11.53,4.7,12.212,14.189.4-.521,1.061-1,1.149-1.571,1.122-7.159,7.172-10.585,11.6-15.142,3.92-4.03,8.391-7.529,12.62-11.262-.113-.129-.226-.26-.338-.392-7.148.15-10.88-5-14.8-9.72a3.32,3.32,0,0,1,.644-5.223c2.022-1.364,3.633-.414,5.1,1.34,2.409,2.873,4.9,5.658,8.517,7.188,2.282.969,2.9,2.862,1.936,5.2.134.123.263.25.387.381,5.29-4.264,9.527-9.6,14.5-14.194,5.094-4.7,11.81-7.014,16.941-11.643a1.171,1.171,0,0,1,1.506-.293c3.531,2.47,5.846-.07,8.131-2.092,11.538-10.209,19.65-22.781,25.311-37.024.61-1.531,1.332-3.015,2-4.522.228-.765.459-1.533.687-2.3.183-.392.126-.953.738-1.034l-.046.054c-.537-1.375.153-2.591.51-3.848a125.579,125.579,0,0,1,8.579-21.989,77.68,77.68,0,0,0,3.891-9.847c.838-2.452.062-4.576-2.6-5.193-2.529-.583-3.061-2.108-3.021-4.326a40.019,40.019,0,0,0-.188-5.325c-.22-1.869-1.074-3.424-3.126-3.851a3.758,3.758,0,0,0-4.2,2c-1.206,2.086-3.045,3.061-5.064,4.3Q129.98,41.684,111.235,51.8c-.247.132-.357.516-.532.781,5.408-.142,5.588.011,6.595,5.47.4,2.175.867,4.339,1.238,6.52.4,2.35-.252,4.363-2.715,4.989-2.551.647-3.832-1.332-4.119-3.308-.661-4.517-2.7-8.979-.994-13.673-5.467,2.554-10.088,6.372-14.753,10.075A83.829,83.829,0,0,0,77.292,82.906a26.781,26.781,0,0,0-3.757,9.707,16.77,16.77,0,0,1-7.272,10.754,104.326,104.326,0,0,0-17.873,14.369c1.716.217,3.625-.051,4.629,1.9,1.426,2.777,3.644,4.962,5.532,7.4,1.455,1.877,2.333,3.971.094,5.846-2.2,1.839-4.151.822-5.725-1.045-1.917-2.274-3.681-4.675-5.558-6.984a6.277,6.277,0,0,1-1.49-4.9q-5.035,4.886-10.064,9.771c3.7,3.485,6.968,7.435,11.125,10.427,2.009,1.445,3.432,3.174,1.63,5.518-1.713,2.226-3.9,1.668-5.838.132A98.375,98.375,0,0,1,30.918,134.6m83.118-24.011-.1.1c-.115,1.418.25,2.849-.448,4.248a4.307,4.307,0,0,1-4.53,2.674,3.6,3.6,0,0,1-3.276-3.314c-.207-2,.87-4.678,2.489-4.538,4.619.4,5.209-2.857,6.49-5.738a4.327,4.327,0,0,1,.784-1.071c4.653-5.1,10.459-8.515,16.675-11.3a3.191,3.191,0,0,1,4.124,1.19c.929,1.316.51,2.8-.414,4.033a8.883,8.883,0,0,1-3.52,2.422c-4.745,2.272-9.106,5.043-12.22,9.438-1.531,2.156-3.523,2.922-6.058,1.858m-7.647-43.949c2.341-.013,3.775,2.21,3.166,4.841a35.782,35.782,0,0,1-6.426,13.372,14.72,14.72,0,0,1-4.635,4.218c-1.963,1.082-3.875,1.332-5.26-.755-1.364-2.054-.639-3.885,1.3-5.123a16.285,16.285,0,0,0,5.765-7.135c1.093-2.3,2.062-4.656,2.975-7.027a3.73,3.73,0,0,1,3.118-2.393m33.084,17.47c-2.062-.311-4.149-.516-6.181-.969a3.059,3.059,0,0,1-2.666-3.582,2.953,2.953,0,0,1,3.3-2.962,63.218,63.218,0,0,1,8.526.763c2.288.395,3.193,3.6,1.643,5.3-1.23,1.353-2.905,1.437-4.619,1.447m14.454-39.628c2.562.258,2.887,2.538,2.865,4.984-.027,3.064-2.637,6.283-4.909,6.16-1.987-.107-4.535-3.214-4.511-5.5.027-2.68,3.206-5.7,6.555-5.642M76.7,121.154c.04,3.136-.749,5.239-3.689,5.475-2.693.217-5.746-3.091-5.685-5.889.07-3.013,1.928-4.9,4.747-4.812,2.787.086,4.64,2.4,4.627,5.225m68.145-82.683a3.816,3.816,0,0,1,3.864,4.087c.008,2.87-2.629,5.961-5.15,6.039-2.43.075-4.17-1.813-4.21-4.57a5.565,5.565,0,0,1,5.5-5.556m-63.033,88.2a4.38,4.38,0,0,1,4.213,4.608c-.032,2.266-2.28,4.594-4.412,4.568-2.1-.027-4.318-2.535-4.213-4.772a4.341,4.341,0,0,1,4.412-4.4M58.143,156.757c-2.086-.2-3.5-1.565-3.585-4.216-.083-2.548,1.974-5.123,4.243-5,2.607.134,3.953,1.866,4.2,4.32a4.694,4.694,0,0,1-4.858,4.9M86.352,97.315c-2.111-.252-3.8-.959-3.8-3.577-.005-2.4,1.05-3.7,3.515-3.853,2.562-.161,4.194,1.147,4.372,3.491.188,2.505-1.708,3.6-4.084,3.939" transform="translate(-6.357 40.707)" fill="#e18060"/>
    <path id="Path_1207" data-name="Path 1207" d="M73.277,10.7a29.077,29.077,0,0,0-13.531-.806c-4.79,1.023-10.048,2.057-13.294,6.528a2.177,2.177,0,0,1-2.39.985c-2.946-.207-4.337,1.517-3.475,4.393.47,1.565.18,2.253-1.114,3.236a13.245,13.245,0,0,0-5.083,10.1c-.209,3.034,1.069,5.392,4.063,7.059-3.491,1.52-4.849,4.261-5.76,7.258-1.6,5.255-2.578,10.58-1.383,16.092a12.823,12.823,0,0,0,6.165,8.7c2.229,1.324,4.264.9,5.228-1.512,3.23-8.069,5.274-16.348,2.516-25-1.034-3.246,1.125-5.6,2.331-7.838,2.538-4.726,4.146-9.242,1.619-14.986a73.488,73.488,0,0,0,11.858,2.226,40.181,40.181,0,0,0,11.955-.07,15,15,0,0,0,8.265-4.653c1.265-3.359-.239-6.117-1.92-8.837-2.288-.381-4-1.976-6.05-2.868M49.04,24.752l.357.212c-.067.064-.148.2-.193.188a1.948,1.948,0,0,1-.389-.193c.07-.064.14-.126.226-.207" transform="translate(63.612 15.872)" fill="#88412d"/>
    <path id="Path_1208" data-name="Path 1208" d="M21.816,26.616c1.681,2.72,3.185,5.475,1.92,8.834,1.544.768,3.147,1.259,4.065,3.093.736,1.463,2.495,1.563,4.151,1.391a62,62,0,0,0,21.159-6.595c1.826-.9,3.123-2.328,2.444-4.522-.663-2.14-2.406-2.809-4.506-2.414a6.538,6.538,0,0,1-3.23-.448c-1.614-.491-1.681-1.912-2.068-3.142-.486-1.56.875-1.858,1.778-2.352C50,19.1,52.511,17.824,52.441,14.409a1.1,1.1,0,0,1,1.079-1.069c2.86-.387,4.941-2.21,7.218-3.724,1.4-.926,2.492-1.966,2.331-3.706a4.037,4.037,0,0,0-3.432-3.6c-4.3-1.069-8.63-.623-12.878.212C35.648,4.7,26.658,11.047,17.848,17.663c-1.721,1.292-1.858,3.174-1.133,5.129,1.163.518,2.191,1.533,3.571,1.3,2.774-.473,2.266.932,1.531,2.527" transform="translate(121.123 2.828)" fill="#e28061"/>
    <path id="Path_1209" data-name="Path 1209" d="M113.65,103.143c-.682-9.489-5.029-11.7-12.212-14.189a3.579,3.579,0,0,1-2.2-1.74c-.43-.765-.835-1.654-1.748-1.9-3.359-.894-4.914-3.45-6.071-6.407-2.814-1.05-5.043-2.632-5.36-5.937l.043.035c-.58.107-.889-.059-.709-.709l.051.04c-.846.43-1.165-.408-1.705-.712l-.137.027c-4.374-1.608-8.966-1.042-13.472-1.364a3.5,3.5,0,0,0-3.885,4.452c.951,3.961,1.394,8.158,6.96,9.326a7.868,7.868,0,0,1,6.369,6.82c.7,4.9,4.235,7.255,9.114,7.545a9.48,9.48,0,0,1,7.419,4.621,12.185,12.185,0,0,0,11.208,5.894c3.52-.118,5.6-2.366,6.332-5.808" transform="translate(-63.221 118.437)" fill="#88412d"/>
    <path id="Path_1210" data-name="Path 1210" d="M31.679,21.5c0-.779.019-1.555,0-2.333A3.7,3.7,0,0,0,28.658,15.3a3.643,3.643,0,0,0-4.294,2.352,51.873,51.873,0,0,0-3.214,8.026c-.814,3.021-3.072,1.458-4.6,1.684s-.62-1.466-.9-2.269c-.258-.72-.2-1.708-.677-2.167a4.416,4.416,0,0,1-1.5-4.9,2.9,2.9,0,0,0-1.826-3.249,3.419,3.419,0,0,0-4.017.542,9.84,9.84,0,0,0-2.666,4.546,58.735,58.735,0,0,0-3.171,20.3A9.1,9.1,0,0,0,7.5,48.712c2.054.886,3.767,2.156,6.372,2.253a7.191,7.191,0,0,0,6.914-3.491C26.287,39.6,31.443,31.58,31.679,21.5" transform="translate(191.499 24.192)" fill="#e28061"/>
    <path id="Path_1211" data-name="Path 1211" d="M13.839,55.49c-.231.765-.459,1.531-.69,2.3.838,3.432,3.166,4.49,6.447,4.1.865-.1,1.874-.483,2.594.142,2.916,2.527,6.077,1.708,9.111.569,6.538-2.449,13.539-3.528,19.8-6.786A16.942,16.942,0,0,0,59.63,46.43c.857-2.333.857-4.624-1.063-6.493-1.947-1.89-4.235-1.77-6.5-.7-3.322,1.568-6.667,3.217-8.689,6.474-.883,1.42-1.775,1.5-3.263,1.176C34.636,45.7,29.212,44.3,23.484,46.121c-3.754,1.195-6.855,2.613-7.465,6.957-.124.886-.524,1.439-1.488,1.434l.046-.056c-.247.344-.491.69-.738,1.034" transform="translate(132.492 64.824)" fill="#88412d"/>
    <path id="Path_1212" data-name="Path 1212" d="M8.321,45.151c.145,2.248.628,4.355-.33,6.587-.65,1.509.411,2.994,1.874,3.875a3.635,3.635,0,0,0,4.374-.132c6.828-5.427,9.908-12.637,9.495-21.256-.134-2.763-1.394-5.148-4.611-5.744-3.05-.567-5.088.8-6.673,3.244a25.418,25.418,0,0,0-4.13,13.426" transform="translate(183.274 47.782)" fill="#88412d"/>
    <path id="Path_1213" data-name="Path 1213" d="M68.881,68.386a98.565,98.565,0,0,0,11.8,11.195c1.941,1.536,4.127,2.094,5.838-.134,1.8-2.342.381-4.071-1.627-5.515C80.739,70.939,77.471,66.989,73.77,63.5c-4.232-.29-4.96.438-4.89,4.882" transform="translate(-44.319 106.923)" fill="#88412d"/>
    <path id="Path_1214" data-name="Path 1214" d="M64.971,61.216a6.283,6.283,0,0,0,1.49,4.9c1.877,2.309,3.644,4.713,5.561,6.987,1.571,1.864,3.526,2.881,5.722,1.045,2.239-1.874,1.361-3.971-.094-5.846-1.888-2.435-4.1-4.619-5.532-7.4-1-1.955-2.913-1.686-4.627-1.9a4.518,4.518,0,0,0-2.521,2.21" transform="translate(-25.458 99.437)" fill="#88412d"/>
    <path id="Path_1215" data-name="Path 1215" d="M37.5,13.365c.736-1.6,1.243-3-1.531-2.527-1.38.236-2.409-.779-3.571-1.3-.317.317-.631.636-.948.953,2.046.894,3.762,2.489,6.05,2.87" transform="translate(105.436 16.079)" fill="#f6e0d1"/>
    <path id="Path_1216" data-name="Path 1216" d="M56.456,72.49l.722-.61q-.185-.193-.387-.379c-.22.223-.44.443-.661.663.11.107.218.215.325.325" transform="translate(20.075 120.495)" fill="#e18060"/>
    <path id="Path_1217" data-name="Path 1217" d="M56.738,72.693l.73-.62-.322-.325L56.4,72.3c.113.132.226.26.338.389" transform="translate(19.062 120.91)" fill="#e18060"/>
    <path id="Path_1218" data-name="Path 1218" d="M44.71,68.439c2.535,1.063,4.527.3,6.055-1.861,3.118-4.393,7.478-7.167,12.223-9.439a8.9,8.9,0,0,0,3.518-2.419c.926-1.23,1.345-2.717.416-4.033A3.192,3.192,0,0,0,62.8,49.495c-6.219,2.785-12.022,6.2-16.675,11.3a4.182,4.182,0,0,0-.784,1.069c-1.284,2.881-1.874,6.141-6.493,5.741-1.616-.14-2.693,2.538-2.486,4.538a3.6,3.6,0,0,0,3.276,3.311,4.3,4.3,0,0,0,4.527-2.672c.7-1.4.336-2.83.454-4.251-.1-.126-.2-.252-.3-.379l.4.285" transform="translate(62.97 82.859)" fill="#88412d"/>
    <path id="Path_1219" data-name="Path 1219" d="M60.275,39.978a3.726,3.726,0,0,0-3.118,2.393c-.916,2.371-1.882,4.731-2.975,7.027a16.273,16.273,0,0,1-5.768,7.135c-1.936,1.238-2.658,3.069-1.294,5.121,1.386,2.089,3.3,1.839,5.26.757a14.725,14.725,0,0,0,4.635-4.221,35.792,35.792,0,0,0,6.426-13.37c.61-2.631-.824-4.855-3.166-4.841" transform="translate(39.758 67.371)" fill="#88412d"/>
    <path id="Path_1220" data-name="Path 1220" d="M71.885,81.742l.746-.553.658-.663c.967-2.336.349-4.232-1.936-5.2-3.612-1.533-6.106-4.318-8.512-7.188-1.471-1.756-3.083-2.707-5.1-1.343s-2.065,3.512-.642,5.225c3.91,4.721,7.645,9.871,14.79,9.72" transform="translate(3.575 111.472)" fill="#88412d"/>
    <path id="Path_1221" data-name="Path 1221" d="M43.748,34.759c-1.705,4.7.336,9.157.994,13.67.287,1.976,1.568,3.955,4.119,3.311,2.462-.626,3.112-2.64,2.715-4.989-.371-2.18-.835-4.345-1.238-6.52-1.007-5.459-1.187-5.612-6.595-5.47l.005,0" transform="translate(60.605 58.53)" fill="#88412d"/>
    <path id="Path_1222" data-name="Path 1222" d="M42.2,51.2c1.713-.011,3.389-.094,4.616-1.447,1.549-1.708.647-4.909-1.641-5.3a64.141,64.141,0,0,0-8.526-.763,2.956,2.956,0,0,0-3.3,2.962,3.061,3.061,0,0,0,2.666,3.582c2.033.454,4.122.658,6.184.969" transform="translate(90.921 73.616)" fill="#88412d"/>
    <path id="Path_1223" data-name="Path 1223" d="M35.435,31.725c-3.348-.054-6.53,2.964-6.557,5.644-.021,2.288,2.524,5.395,4.514,5.5,2.272.124,4.879-3.1,4.906-6.163.021-2.446-.3-4.723-2.862-4.984" transform="translate(112.136 53.463)" fill="#88412d"/>
    <path id="Path_1224" data-name="Path 1224" d="M68.078,63.56c.013-2.83-1.839-5.139-4.624-5.225-2.822-.086-4.68,1.8-4.747,4.812-.064,2.8,2.989,6.106,5.682,5.891,2.94-.239,3.73-2.341,3.689-5.478" transform="translate(2.261 98.301)" fill="#88412d"/>
    <path id="Path_1225" data-name="Path 1225" d="M37.385,29.486a5.564,5.564,0,0,0-5.5,5.558c.04,2.755,1.778,4.643,4.21,4.57,2.521-.078,5.158-3.169,5.15-6.042a3.817,3.817,0,0,0-3.864-4.087" transform="translate(101.102 49.69)" fill="#88412d"/>
    <path id="Path_1226" data-name="Path 1226" d="M59.65,62.333a4.347,4.347,0,0,0-4.414,4.406c-.1,2.234,2.113,4.742,4.216,4.769,2.129.03,4.38-2.3,4.412-4.568a4.38,4.38,0,0,0-4.213-4.608" transform="translate(15.805 105.041)" fill="#88412d"/>
    <path id="Path_1227" data-name="Path 1227" d="M67.387,79.326a4.692,4.692,0,0,0,4.855-4.9c-.247-2.454-1.592-4.186-4.2-4.32-2.269-.118-4.326,2.457-4.243,5,.086,2.653,1.5,4.014,3.585,4.216" transform="translate(-15.6 118.139)" fill="#88412d"/>
    <path id="Path_1228" data-name="Path 1228" d="M57.387,56.072c2.376-.344,4.272-1.434,4.084-3.939-.177-2.344-1.81-3.652-4.372-3.491-2.465.153-3.52,1.455-3.515,3.853.005,2.618,1.692,3.324,3.8,3.577" transform="translate(22.609 81.95)" fill="#88412d"/>
    <path id="Path_1229" data-name="Path 1229" d="M74.353,71.283c.317,3.305,2.543,4.887,5.357,5.94.822-4.334-2.513-4.914-5.357-5.94" transform="translate(-51.512 120.126)" fill="#f6e0d1"/>
    <path id="Path_1230" data-name="Path 1230" d="M76.624,70.908c.54.3.859,1.141,1.705.712-.344-.773-.843-1.179-1.705-.712" transform="translate(-56.104 119.159)" fill="#f6e0d1"/>
    <path id="Path_1231" data-name="Path 1231" d="M76.43,71.033c-.177.653.129.816.709.709a.7.7,0,0,0-.709-.709" transform="translate(-54.258 119.705)" fill="#f6e0d1"/>
    <path id="Path_1232" data-name="Path 1232" d="M30.131,45.455c.247-.344.491-.69.738-1.034-.615.081-.559.642-.738,1.034" transform="translate(116.199 74.858)" fill="#f6f6f6"/>
    <path id="Path_1233" data-name="Path 1233" d="M43.041,15.129c-.086.081-.156.142-.226.207a1.948,1.948,0,0,0,.389.193c.046.011.126-.124.193-.188l-.357-.212" transform="translate(69.612 25.495)" fill="#f6f6f6"/>
    <path id="Path_1234" data-name="Path 1234" d="M45.2,56.524l-.4-.285c.1.126.2.252.3.379l.094-.094" transform="translate(62.482 94.774)" fill="#e18060"/>
    <path id="Path_1235" data-name="Path 1235" d="M209.267,45.168c-1.163-2.36-1.216-4.694-1.587-6.965-.414-2.567-.271-5.588-3.668-6.423-3.093-.76-4.568,1.563-6.257,3.48-10.013,11.361-12.04,24.129-6.737,38.178a2.347,2.347,0,0,1-.36,2.691c-4.149,5.142-4.777,11.146-3.719,17.371.481,2.833-.03,4.455-3.118,4.648a4.028,4.028,0,0,0-.945.314c-5.215,1.759-5.161,1.743-6.893-3.73-1.775-5.615-3.59-11.221-5.558-16.769-.6-1.692-.593-2.8.875-4.022a36.138,36.138,0,0,0,4.431-4.519c1.265-1.5,1.67-3.33.073-4.785-1.555-1.418-3.346-.951-4.807.365-1.651,1.488-3.179,3.115-4.782,4.659a17.591,17.591,0,0,1-9.688,4.715c-.9-3.246.491-6.27.94-9.382.357-2.508,2.213-4.329,3.177-6.56a23.944,23.944,0,0,0,1.592-4,2.814,2.814,0,0,0-1.7-3.287,2.772,2.772,0,0,0-3.381.572,13.7,13.7,0,0,0-2.1,2.975c-2.64,4.7-2.64,4.8-7.739,3.759-8.7-1.783-17.355-3.843-26.087-5.478-3.12-.585-2.116-2.425-2.006-4.157.148-2.341,1.668-1.415,2.9-1.2,6.812,1.165,13.262-.381,19.543-2.8a6.72,6.72,0,0,1,3.77-.314c16.315,2.529,30.509-2.111,42.757-13,1.6-1.423,2.382-3.295,1.426-5.411-1.018-2.248-3.091-2.427-5.134-2.038-4.009.763-7.841.191-12.038-.835,3.867-5.005,8.7-7.817,13.982-10.016,1.743-.725,3.507-1.42,5.172-2.3A3.883,3.883,0,0,0,193.838,7.1a4.03,4.03,0,0,0-2.61-3.558c-14.841-7.272-37.743-2.927-48.86,9.275A5.321,5.321,0,0,0,141.1,14.35c-2.041,5.964-6.219,6.41-11.844,5.685-9.248-1.195-16.246,3.348-21.6,10.633a4.118,4.118,0,0,1-2.288,1.772c-5.765,1.574-9.06,5.411-9.938,11.254-.349,2.323-.994,3.1-3.63,2.535-15.128-3.268-30.356-5.894-45.941-4.935-5.322.328-10.636.83-15.942,1.356a10.214,10.214,0,0,0-3.472,1.071c-1.909.961-2.844,2.6-2.03,4.7.768,1.971,2.5,2.339,4.439,2.006a144.86,144.86,0,0,1,51.4.47c4.259.8,8.515,1.63,12.8,2.3,2.591.4,3.018,1.976,1.815,3.724-7.078,10.266-5.346,21.092-2.218,32,.765,2.674-1.563,6.469-4.366,6.345-1.5-.064-2.744-.661-2.18-2.8.763-2.892.934-5.958,1.869-8.783,1.079-3.265.078-5.274-2.946-6.265-2.787-.916-3.179-2.409-2.234-5.021a21.842,21.842,0,0,0,1.574-7.137c.024-1.813-.328-3.445-2.387-3.818-1.987-.36-3.214.87-3.73,2.6-1.2,4.041-2.325,8.109-3.324,12.207-.693,2.828,1.028,4.506,3.4,5.333,2.618.916,2.981,2.54,2.307,4.9-.548,1.923-.916,3.894-1.418,5.83-.72,2.782-.738,5.344,2.121,7.006,1.412.819,1.147,1.5.121,2.5a64.707,64.707,0,0,0-4.766,5.129c-2.833,3.416-5.5,3.74-9.417,1.286-1.458-.913-1.136-1.984-.878-3.16.693-3.147,1.466-6.278,2.143-9.428.832-3.88-.15-5.907-3.867-7.285-2.17-.806-2.873-1.737-2.207-4.162,1.531-5.566,2.72-11.23,4-16.863.494-2.188.545-4.5-2.094-5.22-2.7-.736-3.824,1.34-4.353,3.507C58.24,72.858,56.6,80.118,54.892,87.366c-.789,3.357,1.488,4.7,3.937,5.62s3.222,2.14,2.339,4.734c-.819,2.4-1.061,5-1.665,7.478-1.061,4.339-.61,5.744,3.118,8.058a14.585,14.585,0,0,0,4.514,2.084c2.983.62,2.7,1.9,1.477,4.055-2.355,4.157-4.645,8.367-6.632,12.706-1.31,2.862-3.225,1.786-5.274,1.582-2.374-.234-2.546-1.635-2.425-3.467.244-3.663.612-7.325.62-10.991.013-5.832-1.305-9.3-6.815-10.078-2.035-.287-1.976-1.692-1.7-3.238.669-3.714,1.4-7.425,1.917-11.16.269-1.925.1-4.049-2.366-4.457-2.562-.424-3.6,1.509-4,3.563-.94,4.8-1.821,9.613-2.452,14.457-.529,4.06.615,5.832,4.731,6.611,3.512.666,4.465,2.261,4.012,5.644a101.286,101.286,0,0,0-.607,10.991c-.137,6,1.077,7.422,6.936,8.515.843.156,1.815-.024,2.529,1.026-5.679,3.107-10.381,7.183-12.921,13.321-.352.851-1.147.9-1.944,1.007-5.921.755-10,4.039-12.422,9.382a6.422,6.422,0,0,1-3.338,3.424c-5.07,2.414-8.319,6.3-8.577,12.121-.078,1.786-.615,2.478-2.441,2.712a83.38,83.38,0,0,0-9.82,1.826C1.214,186-.528,188.5.138,193a28.186,28.186,0,0,0,8.356,15.958,22.616,22.616,0,0,1,3.544,4.278c3.448,5.671,7.583,10.5,14.849,11.106,1.3.11,1.727,1.308,2.43,2.119,4.93,5.693,15.163,7.108,21.318,2.849,3.647-2.524,4.487-6.471,4.909-10.518.142-1.367.354-2.264,1.947-2.543,5.486-.969,8.33-4.841,9.919-9.731.7-2.167,1.4-3.434,3.977-4.006,4.629-1.028,7.607-4.363,9.267-8.816.333-.886.209-1.992,1.5-2.355,4.7-1.316,7.669-4.866,10.292-8.6,1.716-2.444,4.065-3.44,6.533-4.769,5.225-2.809,10.113-2.245,15.209-.013,1.619.706,3.413.993,5.091,1.576,4.653,1.608,8.751,1.254,11.7-3.222,1.262-1.917,2.478-2.164,4.616-.913,3.73,2.18,7.758,3.843,11.627,5.787a4.915,4.915,0,0,0,5.341-.467c3.569-2.46,7.118-4.954,10.615-7.516,1.751-1.284,2.943-3.072,1.541-5.148-1.455-2.156-3.485-1.361-5.322-.3a7.367,7.367,0,0,0-1.9,1.343c-5.207,5.9-10.875,6.007-16.962,1.453a9.232,9.232,0,0,0-.891-.451c-8.885-5.25-9-3.912-14.011,2.248a2.63,2.63,0,0,1-3.182,1.045c-2.293-.749-4.61-1.429-7.494-2.312,5.306-3.711,10.134-7.2,14.326-11.471,1.012-1.031,1.81.048,2.615.521,2.758,1.63,5.172,3.853,8.362,4.747,2.411.677,4.173.244,5.719-2,3.134-4.538,3.252-4.457,8.483-2.269,7.862,3.284,7.876,3.3,13.713-2.819,1.536-1.608,3.024-3.273,4.4-5.013s2.414-3.883.306-5.6c-1.912-1.563-3.781-.371-5.25,1.208-1.74,1.877-3.459,3.773-5.137,5.7a2.979,2.979,0,0,1-4.09.87c-2.172-1.1-4.6-1.67-6.63-3.091a3.684,3.684,0,0,0-5.357.51c-1.149,1.211-2.449,2.3-3.467,3.606-1.249,1.606-2.317,1.874-4.151.7-4.251-2.725-4.275-2.589-1.536-6.936,1.6-2.538,2.449-6.154,4.7-7.508,2.46-1.474,4.852,2.167,7.545,3,5.1,1.574,5.067,1.643,8.558-2.672.816-1.01,1.56-2.409,3.23-1.5,5.76,3.142,10.2.891,14.215-3.357a3.107,3.107,0,0,1,2.457-1.4,148.166,148.166,0,0,1,1.705,18.791c.405,15.574.682,31.159-.639,46.706-.553,6.528-1.085,13.077-2.97,19.414-.647,2.172-.795,4.431,1.719,5.4,2.666,1.028,4.213-.76,5.118-2.989,1.829-4.484,2.242-9.3,2.7-14.036,2.583-26.782,2.554-53.53-1.753-80.164-.405-2.513.021-3.644,2.809-4.345,6.692-1.678,11.63-8.26,12.271-15.864A5.811,5.811,0,0,1,201.1,105.1c6.845-6.458,12.661-13.539,12.14-23.791a2.6,2.6,0,0,1,.934-2.323c13.9-12.263,16.076-27.682,11.906-44.752a72.44,72.44,0,0,0-2.382-7.626c-.776-2.121-2.167-3.681-4.721-3.418-2.61.269-3.451,2.213-3.816,4.4-.7,4.165-1.163,8.381-2.774,12.33a14.9,14.9,0,0,1-3.123,5.25M67.024,139.107c1.676-5.172,4.809-9.549,7.038-14.358,6.6-14.226,17.658-23.992,31.194-31.293,14.258-7.69,29.223-14.07,42.759-23.1a7.746,7.746,0,0,1,1.477-.534c-.3,3.236-.849,6.262.373,9.114,1.563,3.641,4.737,3.236,8.152,2.615-1.117,2.516-2.081,4.621-2.989,6.751-6.042,14.2-11.216,28.742-16.648,43.183-6.41,17.027-17.725,29.572-34.634,36.752-4.769,2.025-4.782,1.955-6.555-2.973a18.259,18.259,0,0,0-1.335-3.048c-6.622-11.321-14.535-21.06-28.834-23.109M24.987,183.88c-.749-3.775-.1-6.737,2.93-8.9,1.42-1.012,2.414-1.093,3.528.564a46.327,46.327,0,0,0,8.378,9.017c1.678,1.453,3.692,2.57,5.569.456,1.743-1.963.459-3.762-.961-5.282-2.049-2.191-4.3-4.194-6.267-6.455-3.638-4.186-2.07-9.106,3.287-10.894,1.676-.559,2.731-.338,3.268,1.517a11.7,11.7,0,0,0,3.81,5.365c1.716,1.531,3.6,2.661,5.532.677,1.8-1.85.709-3.681-.746-5.274a10.716,10.716,0,0,1-1.375-1.447c-1.318-2.14-2.226-4.425-1.1-6.917,4.049-9,16.965-12.5,24.323-6.909a45.974,45.974,0,0,1,9.868,9.4c7.881,10.953,7.927,12.435-1.689,23.4-1.445,1.649-2.946,1.9-5.005.934-4.151-1.939-7.825-4.651-11.777-6.9-2.009-1.141-4.138-1.549-5.588.709s-.212,4.082,1.705,5.362c2.954,1.976,5.975,3.859,9.025,5.682,3.2,1.912,3.45,3.8.741,6.393a6.9,6.9,0,0,1-4.847,1.839c-5,.148-5.327.5-5.886,5.51-.639,5.719-3.295,7.975-8.961,7.94-2.876-.016-5.1-1.447-7.333-2.854-6.356-4.006-11.563-9.353-16.756-14.7-2.323-2.39-5.15-4.559-3.668-8.241M179.515,8.268c-6.275,3.209-10.486,7.438-14.46,11.928-4.157,4.694-3,8.265,3.163,9.763,2.3.559,4.627.975,7.814,1.635-8.77,4.662-17.148,6.949-26.237,6.308-1.818-.129-1.289-1.386-1.128-2.457.542-3.609-.083-7.14-2.793-9.514-2.766-2.425-1.791-4.3-.185-6.493,4.372-5.956,10.741-8.786,17.483-10.859a27.541,27.541,0,0,1,16.342-.311M40.692,224.854c-4.388-.067-6.442-2.427-5.631-6.514a3.487,3.487,0,0,0-1.571-4.022c-1.539-.943-2.962-.513-4.312.521-.859.658-1.313,2.108-2.556,1.952-3.851-.478-5.655-3.569-7.725-6.326-1.461-1.941.352-2.736,1.184-3.888,1.321-1.826,1.678-3.743-.035-5.421a3.444,3.444,0,0,0-5.115.083c-2.129,2.159-3.093,1.007-4.1-.918-.516-.985-1.088-1.941-1.587-2.932-2.688-5.333-2.527-5.4,3.322-6.56,3.378-.669,5.459.083,7.916,2.782,7.7,8.464,15.717,16.718,26.385,21.629a3.255,3.255,0,0,1,1.947,3.808c-.542,4.264-2.782,5.886-8.123,5.808M200.76,43.406c1.028,3.338,1.778,6.359,2.887,9.237,1.531,3.963,4.815,4.632,7.849,1.638a35.362,35.362,0,0,0,7.038-10.048c.322-.677.32-1.78,1.662-1.839a43.206,43.206,0,0,1,.328,9.326,31.373,31.373,0,0,1-9.063,19.871c-.859.908-1.657,2.164-3.348,1.211a14.085,14.085,0,0,0-8.722-1.48c-1.455.166-2.379-.3-2.76-1.7-2.486-9.151-2.742-17.969,4.13-26.216m-57.6,21.283c-.094,1.018-.819,1.2-1.348,1.56-8.225,5.556-17.481,9.14-26.2,13.737-1.939,1.02-1.941-.1-1.963-1.509-.089-5.523.516-11.063-1.284-16.514-.741-2.242,1.517-3.263,3.209-2.943,9.232,1.745,18.412,3.754,27.591,5.668m-16.7-23.353c-4.28-.363-8.27-1.034-10.859-5.5-1.176-2.025-.806-2.736.561-4.033,6.525-6.184,15.217-5.36,22.185-2.758a4.772,4.772,0,0,1,3.33,4.884,5.062,5.062,0,0,1-3.743,4.962,42.16,42.16,0,0,1-11.474,2.446m37.257,71.456c1.2,0,1.866.016,2.532,0,2.086-.062,3.982.089,4.737,2.6.787,2.607,1.187,5.212-1.5,6.826a25.558,25.558,0,0,1-18.775,3.515c-1.506-.306-1.893-1.026-1.5-2.6,2.239-8.91,2.379-9.084,11.4-10.091,1.208-.137,2.425-.193,3.107-.247m-57.4-38.423c0,1.88-.005,3.762,0,5.644.008,3.636-1.38,6.214-5.091,7.371-1.337.416-1.987.446-2.438-1.012-2.148-6.906-2.707-13.858-.663-20.88.389-1.343.717-3,2.76-2.589,1.949.4,4.286-.019,4.97,2.879.677,2.862.371,5.725.462,8.587m58.693,8.9c2.683,7.615,4.75,14.457,6.485,21.4.255,1.02-.113,1.506-1.114,1.447a74.191,74.191,0,0,0-13.26.534c-1.152.142-1.743-.346-1.262-1.536,2.844-7.057,5.086-14.374,9.151-21.85m28.171,6.3c.048-6.211,2.288-10.061,6.506-11.195,4.162-1.12,6.973,1.2,6.391,5.4-.873,6.3-4.774,10.875-8.99,15.206-1.176,1.206-2.234.851-2.559-.878-.532-2.83-1.356-5.617-1.348-8.536M181.056,118.8c-.846-.008-1.764.362-2.39-.618-3.244-5.064-1.987-9.573,3.469-12.1a24.44,24.44,0,0,1,4.382-1.514c3.81-.94,5.7.822,5.268,4.788-.583,5.3-4.994,9.178-10.73,9.447M101.708,50.777c-.177-3.228-.016-5.886,1.179-8.343,1.458-3,5.212-4.21,7.124-2.387,3.469,3.308,2.75,11.423-1.343,13.928-1.748,1.071-3.727,2.817-5.776,1.753s-.943-3.6-1.184-4.952m54.614,83.1c-.685,1.869-2.223,2.734-3.136,4.082a1.494,1.494,0,0,1-2.258.534c-1.625-.948-3.3-1.821-4.957-2.7-1.085-.577-.851-1.351-.451-2.242.338-.749.62-1.506,1.651-1.125,2.9,1.071,6.031.9,9.151,1.455m10.247,1.708c-1.294-.269-2.814-.387-3.118-1.982-.328-1.732,1.351-1.41,2.239-1.721,3.238-1.133,6.447-2.3,9.049-4.656.741-.669,1.48-1.179,1.88.282.234.862,1.087,2.277-.365,2.384-3.281.242-4.863,2.819-7.1,4.5-.787.591-1.426,1.434-2.586,1.195" transform="translate(-0.001 0)" fill="#182a42"/>
    <path id="Path_1236" data-name="Path 1236" d="M36.885,63.923a2.867,2.867,0,0,0,1.568,2.814,3.037,3.037,0,0,0,3.708-.424c1.318-1.176,2.444-2.562,3.684-3.826,3.206-3.268,6.536-6.281,11.377-6.955a3.11,3.11,0,0,0,2.86-4.063c-.491-2.231-2.272-2.959-4.337-2.634A22.485,22.485,0,0,0,46.4,52.96a38.53,38.53,0,0,0-8.16,7.766,4.59,4.59,0,0,0-1.356,3.2" transform="translate(68.77 82.173)" fill="#182a42"/>
    <path id="Path_1237" data-name="Path 1237" d="M60.178,40.482a3.094,3.094,0,0,0-3.394,2.809c-.991,6.2-4.554,10.706-9.221,14.581-1.743,1.445-2.93,3.391-1.152,5.478,1.791,2.1,3.861,1.168,5.588-.3,5.628-4.788,10.177-10.287,11.023-18,.25-2.288-.175-4.286-2.844-4.568" transform="translate(42.633 68.22)" fill="#182a42"/>
    <path id="Path_1238" data-name="Path 1238" d="M50.4,45.61c-.411-1.842-.9-4.465-1.6-7.027-.559-2.033-1.928-3.373-4.186-2.833-2.366.569-2.64,2.409-2.178,4.482.532,2.382,1.036,4.772,1.608,7.145.489,2.033,1.563,3.585,3.915,3.179,2.282-.392,2.384-2.307,2.441-4.946" transform="translate(64.14 60.044)" fill="#182a42"/>
    <path id="Path_1239" data-name="Path 1239" d="M38.214,44.686c-2.648-.07-4.184.252-4.675,2.078-.513,1.9.443,3.246,2.154,3.969a29.954,29.954,0,0,0,8,2.014,3.132,3.132,0,0,0,1.52-6.05c-2.591-.9-5.279-1.528-7-2.011" transform="translate(90.96 75.291)" fill="#182a42"/>
    <path id="Path_1240" data-name="Path 1240" d="M35.085,37.085a4.179,4.179,0,0,0,4.1-4.409c.043-2.132-1.281-3.295-3.426-3.147-2.511.175-4.3,1.42-4.323,4.114-.019,2.264,1.434,3.357,3.652,3.442" transform="translate(104.39 49.741)" fill="#182a42"/>
    <path id="Path_1241" data-name="Path 1241" d="M32.591,32.644c-1.853.263-3.859.677-4.009,3.276a3.174,3.174,0,0,0,3.34,3.663c2.433.1,4.06-1.19,4.205-3.673.129-2.154-1.286-3.134-3.536-3.265" transform="translate(115.117 55.012)" fill="#182a42"/>
    <path id="Path_1242" data-name="Path 1242" d="M45.089,58.579c.226,2.073,1.364,3.3,3.408,3.319a2.738,2.738,0,0,0,3.075-2.752A3.1,3.1,0,0,0,48.4,55.684c-2-.15-2.994,1.039-3.314,2.895" transform="translate(55.33 93.817)" fill="#182a42"/>
    <path id="Path_1243" data-name="Path 1243" d="M56.263,55.341c2.078-.043,3.276-1.112,3.365-3a2.739,2.739,0,0,0-2.991-3.152,3.034,3.034,0,0,0-3.271,3.338c.005,1.845,1.235,2.691,2.9,2.814" transform="translate(25.048 82.893)" fill="#182a42"/>
    <path id="Path_1244" data-name="Path 1244" d="M58.681,62.584c.207,2.194,1.069,3.974,3.445,4.149a2.8,2.8,0,0,0,3.295-3.185c-.118-2.2-.843-4.251-3.507-4.377-2.226-.1-2.948,1.52-3.233,3.413" transform="translate(4.977 99.707)" fill="#182a42"/>
    <path id="Path_1245" data-name="Path 1245" d="M59.426,62.322c-2.081.086-3.16,1.093-3.206,2.884a2.918,2.918,0,0,0,5.835.032,2.605,2.605,0,0,0-2.629-2.916" transform="translate(14.962 105.025)" fill="#182a42"/>
    <path id="Path_1246" data-name="Path 1246" d="M64.418,73.05c.177,1.893,1.144,2.8,2.825,2.779a2.441,2.441,0,0,0,2.677-2.691,2.53,2.53,0,0,0-2.935-2.779,2.582,2.582,0,0,0-2.567,2.691" transform="translate(-14.919 118.558)" fill="#182a42"/>
  </g>
</svg>
