<?xml version="1.0" encoding="UTF-8"?><svg id="Layer_1" xmlns="http://www.w3.org/2000/svg" viewBox="0 0 361.78 299.31"><defs><style>.cls-1{isolation:isolate;}.cls-2{fill:#95a1c6;}.cls-2,.cls-3{stroke-width:0px;}.cls-3{fill:#182a42;}</style></defs><g id="Mayday_Mayday_Mayday_Mayday_Mammas_Need_YOU_" class="cls-1"><g class="cls-1"><path class="cls-3" d="m8.77,40.54V5.54h10v5h5v5h5v-5h5v-5h10v35h-10v-20h-5v10h-5v-10h-5v20h-10Z"/><path class="cls-3" d="m53.77,40.54v-5h-5v-5h5v-5h20v-5h-20v-5h25v5h5v20h-30Zm5-5h15v-5h-15v5Z"/><path class="cls-3" d="m93.77,45.54v-5h20v-5h-20v-5h-5v-15h10v15h15v-15h10v25h-5v5h-25Z"/><path class="cls-3" d="m133.77,40.54v-5h-5v-15h5v-5h20V5.54h10v35h-30Zm5-5h15v-15h-15v15Z"/><path class="cls-3" d="m173.77,40.54v-5h-5v-5h5v-5h20v-5h-20v-5h25v5h5v20h-30Zm5-5h15v-5h-15v5Z"/><path class="cls-3" d="m213.77,45.54v-5h20v-5h-20v-5h-5v-15h10v15h15v-15h10v25h-5v5h-25Z"/><path class="cls-3" d="m258.77,30.54V5.54h15v15h-5v10h-10Zm0,10v-5h10v5h-10Z"/><path class="cls-3" d="m298.77,30.54V5.54h15v15h-5v10h-10Zm0,10v-5h10v5h-10Z"/><path class="cls-3" d="m338.77,30.54V5.54h15v15h-5v10h-10Zm0,10v-5h10v5h-10Z"/></g><g class="cls-1"><path class="cls-3" d="m8.77,88.54v-35h10v5h5v5h5v-5h5v-5h10v35h-10v-20h-5v10h-5v-10h-5v20h-10Z"/><path class="cls-3" d="m53.77,88.54v-5h-5v-5h5v-5h20v-5h-20v-5h25v5h5v20h-30Zm5-5h15v-5h-15v5Z"/><path class="cls-3" d="m93.77,93.54v-5h20v-5h-20v-5h-5v-15h10v15h15v-15h10v25h-5v5h-25Z"/><path class="cls-3" d="m133.77,88.54v-5h-5v-15h5v-5h20v-10h10v35h-30Zm5-5h15v-15h-15v15Z"/><path class="cls-3" d="m173.77,88.54v-5h-5v-5h5v-5h20v-5h-20v-5h25v5h5v20h-30Zm5-5h15v-5h-15v5Z"/><path class="cls-3" d="m213.77,93.54v-5h20v-5h-20v-5h-5v-15h10v15h15v-15h10v25h-5v5h-25Z"/><path class="cls-3" d="m258.77,78.54v-25h15v15h-5v10h-10Zm0,10v-5h10v5h-10Z"/><path class="cls-3" d="m298.77,78.54v-25h15v15h-5v10h-10Zm0,10v-5h10v5h-10Z"/><path class="cls-3" d="m338.77,78.54v-25h15v15h-5v10h-10Zm0,10v-5h10v5h-10Z"/></g><g class="cls-1"><path class="cls-3" d="m8.77,136.54v-35h10v5h5v5h5v-5h5v-5h10v35h-10v-20h-5v10h-5v-10h-5v20h-10Z"/><path class="cls-3" d="m53.77,136.54v-5h-5v-5h5v-5h20v-5h-20v-5h25v5h5v20h-30Zm5-5h15v-5h-15v5Z"/><path class="cls-3" d="m93.77,141.54v-5h20v-5h-20v-5h-5v-15h10v15h15v-15h10v25h-5v5h-25Z"/><path class="cls-3" d="m133.77,136.54v-5h-5v-15h5v-5h20v-10h10v35h-30Zm5-5h15v-15h-15v15Z"/><path class="cls-3" d="m173.77,136.54v-5h-5v-5h5v-5h20v-5h-20v-5h25v5h5v20h-30Zm5-5h15v-5h-15v5Z"/><path class="cls-3" d="m213.77,141.54v-5h20v-5h-20v-5h-5v-15h10v15h15v-15h10v25h-5v5h-25Z"/><path class="cls-3" d="m258.77,126.54v-25h15v15h-5v10h-10Zm0,10v-5h10v5h-10Z"/><path class="cls-3" d="m298.77,126.54v-25h15v15h-5v10h-10Zm0,10v-5h10v5h-10Z"/><path class="cls-3" d="m338.77,126.54v-25h15v15h-5v10h-10Zm0,10v-5h10v5h-10Z"/></g><g class="cls-1"><path class="cls-3" d="m8.77,184.54v-35h10v5h5v5h5v-5h5v-5h10v35h-10v-20h-5v10h-5v-10h-5v20h-10Z"/><path class="cls-3" d="m53.77,184.54v-5h-5v-5h5v-5h20v-5h-20v-5h25v5h5v20h-30Zm5-5h15v-5h-15v5Z"/><path class="cls-3" d="m93.77,189.54v-5h20v-5h-20v-5h-5v-15h10v15h15v-15h10v25h-5v5h-25Z"/><path class="cls-3" d="m133.77,184.54v-5h-5v-15h5v-5h20v-10h10v35h-30Zm5-5h15v-15h-15v15Z"/><path class="cls-3" d="m173.77,184.54v-5h-5v-5h5v-5h20v-5h-20v-5h25v5h5v20h-30Zm5-5h15v-5h-15v5Z"/><path class="cls-3" d="m213.77,189.54v-5h20v-5h-20v-5h-5v-15h10v15h15v-15h10v25h-5v5h-25Z"/><path class="cls-3" d="m258.77,174.54v-25h15v15h-5v10h-10Zm0,10v-5h10v5h-10Z"/><path class="cls-3" d="m298.77,174.54v-25h15v15h-5v10h-10Zm0,10v-5h10v5h-10Z"/><path class="cls-3" d="m338.77,174.54v-25h15v15h-5v10h-10Zm0,10v-5h10v5h-10Z"/></g><g class="cls-1"><path class="cls-2" d="m8.77,232.54v-35h10v5h5v5h5v-5h5v-5h10v35h-10v-20h-5v10h-5v-10h-5v20h-10Z"/><path class="cls-2" d="m53.77,232.54v-5h-5v-5h5v-5h20v-5h-20v-5h25v5h5v20h-30Zm5-5h15v-5h-15v5Z"/><path class="cls-2" d="m88.77,232.54v-25h30v5h5v20h-10v-20h-5v20h-10v-20h-5v20h-5Z"/><path class="cls-2" d="m128.77,232.54v-25h30v5h5v20h-10v-20h-5v20h-10v-20h-5v20h-5Z"/><path class="cls-2" d="m173.77,232.54v-5h-5v-5h5v-5h20v-5h-20v-5h25v5h5v20h-30Zm5-5h15v-5h-15v5Z"/><path class="cls-2" d="m208.77,232.54v-5h25v-5h-20v-5h-5v-5h5v-5h25v5h-20v5h20v5h5v5h-5v5h-30Z"/><path class="cls-2" d="m258.77,222.54v-25h15v15h-5v10h-10Zm0,10v-5h10v5h-10Z"/><path class="cls-2" d="m298.77,222.54v-25h15v15h-5v10h-10Zm0,10v-5h10v5h-10Z"/><path class="cls-2" d="m338.77,222.54v-25h15v15h-5v10h-10Zm0,10v-5h10v5h-10Z"/></g><g class="cls-1"><path class="cls-3" d="m8.77,280.54v-35h10v5h5v5h5v5h5v-15h10v35h-10v-10h-5v-5h-5v-5h-5v20h-10Z"/><path class="cls-3" d="m53.77,280.54v-5h-5v-15h5v-5h25v5h5v10h-25v5h20v5h-25Zm5-15h15v-5h-15v5Z"/><path class="cls-3" d="m93.77,280.54v-5h-5v-15h5v-5h25v5h5v10h-25v5h20v5h-25Zm5-15h15v-5h-15v5Z"/><path class="cls-3" d="m133.77,280.54v-5h-5v-15h5v-5h20v-10h10v35h-30Zm5-5h15v-15h-15v15Z"/><path class="cls-3" d="m223.77,280.54v-15h-5v-5h-5v-15h10v15h10v-15h10v15h-5v5h-5v15h-10Z"/><path class="cls-3" d="m253.77,280.54v-5h-5v-25h5v-5h25v5h5v25h-5v5h-25Zm5-5h15v-25h-15v25Z"/><path class="cls-3" d="m293.77,280.54v-5h-5v-30h10v30h15v-30h10v30h-5v5h-25Z"/><path class="cls-3" d="m338.77,270.54v-25h15v15h-5v10h-10Zm0,10v-5h10v5h-10Z"/></g></g></svg>