<?xml version="1.0" encoding="UTF-8"?><svg id="Layer_1" xmlns="http://www.w3.org/2000/svg" xmlns:xlink="http://www.w3.org/1999/xlink" viewBox="0 0 349.61 322.23"><defs><style>.cls-1{clip-path:url(#clippath);}.cls-2{fill:none;}.cls-2,.cls-3,.cls-4{stroke-width:0px;}.cls-5{isolation:isolate;}.cls-3{fill:#182a41;}.cls-4{fill:#fde9da;}</style><clipPath id="clippath"><rect class="cls-2" x="55.86" y="16.88" width="263.8" height="274.89" transform="translate(-17.02 285.2) rotate(-72)"/></clipPath></defs><g id="Group_282"><g class="cls-1"><g id="Group_159"><path id="Path_4163" class="cls-3" d="m230.63,30.81c12.36,7.2,22.54,16.73,29.45,29.39,1.35,2.46,2.68,3.52,5.58,3.3,4.5-.38,9.03-.46,13.54-.23,16.3.96,30.09,7.02,39.9,20.57,6.17,8.48,11.29,17.22,13.59,27.93,2.22,10.28,3.44,20.28,2.28,30.65-2.08,18.48-11.81,30.59-29.69,36.06-6.68,1.95-13.58,3.03-20.53,3.23-1.45.08-3.22-.6-4.53,1.14,1.07,1.47,2.07,2.9,3.14,4.31,3.7,4.7,6.97,9.73,9.75,15.02,9.78,18.92,9.59,37.42-2.18,55.54-10.26,15.83-24.19,24.11-43.54,22.35-9.06-.82-16.89-3.85-23.44-10.23-3.79-3.74-7.33-7.73-10.58-11.95-.96-1.23-1.61-2.77-3.75-3.77-1.01,3.11-1.83,5.9-2.82,8.62-2.75,7.56-7.23,13.69-14.84,17.04-17.05,7.5-33.48,7.41-49-4.07-12.27-8.83-21.91-20.81-27.9-34.69-2.91-6.66-5.46-13.48-7.64-20.41-.73-2.32-1.94-3.05-4.14-3.09-4.03-.08-8.07-.26-12.1-.41-15.96-.51-31.93-1.03-47.91-1.55-1.6-.03-3.45.24-4.59-1.03-3.39-3.68-7.01-7.2-9.41-11.64-1.48-2.76-.9-4.31,1.61-6.25.51-.39,1.06-.72,1.59-1.1,6.83-4.88,13.65-9.77,20.46-14.68,1.3-.94,2.63-1.76,1.67-3.9-3.47-7.48-3.37-15.71-4.59-23.65-.92-5.99.1-11.88,1.91-17.65,2.88-9.13,8.72-16.45,14.17-24.07,6.19-8.65,14.79-14.08,24.24-17.85,9.57-3.82,19.54-6.76,30.1-6.73,3.49.03,3.54-.1,3.84-3.83.4-4.83,1.54-9.58,3.36-14.07,1.25-3.14,2.55-6.29,3.6-9.49,2.92-9.01,8.88-16.71,16.87-21.79,9.22-6.01,19.37-9.81,30.39-10.35,4.48-.29,8.93-.97,13.3-2.03,13.6-3.1,26.68-1.76,38.86,5.34M34.01,201.64c0-.56.08-1.12.24-1.66-.5.41-.6,1.13-.24,1.66"/></g></g></g><g id="There_s_plenty_of_men_in_the_office" class="cls-5"><g class="cls-5"><path class="cls-4" d="m135.05,93.36l-.18.33.27.57-.21.78v.84l.18.48v.6l-.24.75.27.93-.09.63v1.11l-.09.36v1.86l-.06.39v1.05l.15.99-.24.84h-.3l-.63.33-.87-.06-.45-.48v-.63l-.06-.39v-.87l.09-.36-.18-.51.12-1.14-.06-.15-.09-.81.06-.72.18-.42v-.51l-.21-.69.12-.99-.09-1.02.15-.21-.09-.84-.06-.21v-.69l.12-.78-.18-.78.39-1.26-.12-.24-.3-.18-.48.06-.39.15h-.87l-.78.15-.96-.21-.9.09-.66-.06-.48-.15-.09-.54.09-.27v-.66l.18-.45.75-.12.96.15.27-.15.72.06.48.12.84-.06.66-.18,1.77.15.93-.09.66.12.24.15.96-.15h.6l1.08-.18.81.15h1.14l.42.18.21.24.24.6-.09.9-.27.18-1.32.09-.84-.15-.57.15-.42-.06-.42.12-.87-.15-.72-.3-.27.09-.21.3.21.45.15.63-.06.75Z"/><path class="cls-4" d="m148.79,97.83l-.09.27.09.78.18.12-.3,1.41.12.51-.03.45.18.42-.21.93.12.45-.15.36.06.6v1.17l-.06.33-.27.51-.78.15-1.02-.18-.18-.57-.03-.45-.12-.45.12-1.65.09-.42-.09-.57.06-.63v-1.29l-.18-.48.24-.87-.21-.57.18-.45-.15-.87.15-.48.06-.84-.21-.72-.09-.66.27-.72v-1.05l-.15-1.35v-3.06l.33-.84.66-.06h.6l.75.54.06.69-.06.39.06.81v1.77l-.09.15.18.96-.21,1.14-.12,1.05.27.12.24-.48,1.02-.78.39-.21.66.09,1.05-.39h1.44l.54.06,1.14.6.6.42.75,1.08.3.87.12,1.74-.03.48.09,1.2-.06.75.09.48-.12.54.15.84-.15.66v1.05l.21.87-.18.6.09.39-.12.72h-1.44l-.51-.09-.27-.42-.18-.75.09-.36.09-1.38-.09-.36v-.9l-.15-.81.15-.96v-1.14l-.12-.15.15-1.2-.24-.69v-.78l-.9-1.05-.87-.24-.66-.3-.93.3-.39.03-.6.36-.75.24-.18.12h-.36l-.33.27.09.48.27.57-.12.78Z"/><path class="cls-4" d="m166.04,101.61l.06.48.27.57.21.06.39.84.63.42.18.18,2.16.48h.81l.99-.33.12-.27.9-.24.9-1.17.18-.06.54-.51h.63l.21.09.48.09.18.54-.12.48-.48,1.11-.66.42-.45.48-.99.66-.57.21h-.27l-.51.24-1.23.27h-.6l-1.32-.24h-.6l-.48-.09-.69-.33-.72-.33-.78-.39-.39-.72-.57-.48-.12-.39-.39-.75-.27-.12-.09-1.02.06-.6-.3-1.56.15-.66v-1.23l.24-.57.03-.33.48-.72.36-.78.27-.39.15-.03.42-.69.72-.39,1.29-.6.6-.15.3-.18.84-.18.78.12.3.15.42-.15.63.18.27.21.78.15.57.27.39.12.42.3,1.23,1.2.42.69.18.69.18.39.21.9-.06.21.18,1.02-.21.42-.63.39h-.54l-.36.12-.69-.09-.45.09-.9-.06-.33.12-.72-.21-1.29.18-.66-.12-.54.24-.84-.12-.27.15-1.2-.15-.39-.18-.54-.12-.18.27.6,1.23.09.27Z"/><path class="cls-4" d="m193.61,105.33l-.21.75-1.41.21h-1.35l-.93-.18-.75.15h-1.14l-1.2-.03h-1.29l-.78-.12-.66.15h-1.14l-.48-.15-.24-.42.03-.42v-.75l.51-.27h.6l.39-.09h.99l.6.15.3.21.54-.24-.39-.27-.15-.93v-.66l-.12-1.08v-1.11l.15-1.2-.18-.93.12-.75-.12-.12.24-.78.06-.78.3-.6-.45-.09-.51.18-1.08.15-.72-.12-.96-.3-.21-.72.27-.54.75-.42h.72l.24-.12,1.53.15h.96l.9.24.15.54-.03.18v1.17l-.15.75.48-.48.18-.57.27-.18.42-.69.51-.42.42-.24.24-.33,1.44-.27.33.06,1.11-.09,1.14.33.36.3v1.56l-.36.36h-1.29l-.63-.06-.96.09h-.6l-.42.21-.51.06-.51.57-.93.78-.45.03-.18.33.39.3.06.54.15.51-.27,1.5.18.93-.15.66.18,1.56-.18.57.27.42.87-.3.66.18.87-.12.66.06.81-.15.78.06.72.3.12.72.12.12Z"/><path class="cls-4" d="m202.04,101.61l.06.48.27.57.21.06.39.84.63.42.18.18,2.16.48h.81l.99-.33.12-.27.9-.24.9-1.17.18-.06.54-.51h.63l.21.09.48.09.18.54-.12.48-.48,1.11-.66.42-.45.48-.99.66-.57.21h-.27l-.51.24-1.23.27h-.6l-1.32-.24h-.6l-.48-.09-.69-.33-.72-.33-.78-.39-.39-.72-.57-.48-.12-.39-.39-.75-.27-.12-.09-1.02.06-.6-.3-1.56.15-.66v-1.23l.24-.57.03-.33.48-.72.36-.78.27-.39.15-.03.42-.69.72-.39,1.29-.6.6-.15.3-.18.84-.18.78.12.3.15.42-.15.63.18.27.21.78.15.57.27.39.12.42.3,1.23,1.2.42.69.18.69.18.39.21.9-.06.21.18,1.02-.21.42-.63.39h-.54l-.36.12-.69-.09-.45.09-.9-.06-.33.12-.72-.21-1.29.18-.66-.12-.54.24-.84-.12-.27.15-1.2-.15-.39-.18-.54-.12-.18.27.6,1.23.09.27Z"/><path class="cls-4" d="m221.84,96.36l-.81-.06-.36-.45.45-1.05v-.63l.24-.48.06-.54.24-.15.15-1.44.33-.93v-.15l.45-1.29.69-.96h1.11l.48-.09,1.14.15.12.45-.21.54-.12.66-.51.72-.27.21-.39.93-.54.96-.51.66-.27.69-.39.6-.3.27-.3.57-.48.81Z"/><path class="cls-4" d="m247.82,102.57l-.12.6-.06.72-.63.84-.69.69-1.56.84h-.54l-1.65.27h-1.62l-.42-.09-.81-.06-.45-.18h-.39l-1.14-.39-.69-.69-.09-.18-.6-.66-.18-.27-.24-.81-.21-.51.03-.45.33-.21.42.03,1.17.09.3.27.27.6.45.69.51.36.72.18.66.27.9-.15h.78l.87.24,1.44-.45.48-.42.12-.42.21-.39-.06-.63-.12-.33-.9-.72-.33-.09-.18-.12-.54-.09-1.2-.39-.45-.06h-.81l-1.02-.3-.3-.03-1.23-.6-1.08-.45-.45-.48-.72-1.2-.06-.9.15-.87.27-.3.36-.84.3-.39.48-.42.6-.21.18-.21.54-.15.84-.09.75-.15.48-.03.51-.18,1.02.21.51-.12,1.17.48.54.06,1.14.69.21.24.48.27.3.66.39.48.12.84-.09.12-.48.36-.9-.09-.93-.39-.27-.6-.87-.72-.96-.3-.39.03-.96-.18-1.02.27-1.23.27-.54.36-.27.45.06.33-.03.39.18.45.27.21.51.39,1.08.33.87.12.51.18.36-.06,1.92.54.54.06.3.24.81.12.57.45.54.27.54.72.48,1.14-.06.57v.03Z"/></g><g class="cls-5"><path class="cls-4" d="m112.76,141.3l.09.84.12,1.05-.21.99-.12.18.3,1.08-.15.63h.09l-.21,1.23-.21.33-1.23.15-.78-.18-.12-.93.12-1.2-.21-.63.12-.99-.03-.27.18-.51-.12-1.32.09-.45-.06-.51v-.78l.09-.78-.15-.75.15-.78-.15-.33v-1.05l.18-.45v-.69l-.21-.75.09-.9-.15-.72.21-.6-.06-.66-.21-.72.24-1.02.06-.57.78-.15,1.02.12.03.18v1.14l.18.21.54-.48.42-.48.39-.12.87-.45,1.05-.33h1.53l.84.18,1.44.63.57.45.09.27.93,1.08.57,1.29-.03.42.48,1.41v1.56l-.12.57-.3,1.65-.18.18-.06.78-.51.9-.69.81-.03.33-.87.36-.24.24-1.11.45-.39-.06-1.02.24-.81-.18-.51.06-.42-.3-1.05-.36-.9-.84-.24.3Z"/><path class="cls-4" d="m139.43,141.75l-.3.39-1.14.12h-1.44l-.15-.09-.87.06h-1.89l-.18-.15-.93.18h-.57l-1.17-.03-1.14-.09-.84.15-.66-.24-.18-1.11.54-.66.63-.15.66.18.48-.06.27.06,1.23-.09.75.42.24-.39-.15-.6v-.45l-.21-.72.12-.93-.12-.21.24-.99-.06-.39v-.69l.06-.27-.06-.36v-1.11l.15-.33-.15-1.05.09-.39-.12-.24-.09-1.05v-.72l.21-.84-.15-.6.09-1.38-.12-.66.18-.54.27-.45-.24-.27-.36-.09-.78.15-.75-.09-1.17.12-1.05-.12-.45-.42-.06-.42.18-.75.66-.36.81.09h.66l.78.06.54-.09h2.25l.42.18.6.69-.09.57.12.69-.27.6.15.87v.99l.06.57v1.08l.12,1.47-.15.57v1.23l-.06.3.18.57-.15,1.77.09,1.14-.18.42.15.72.12.27-.12.78-.15,1.26-.36.42.3.36,1.44-.36.51.12.81-.12.21-.12.87.06.9.42v.6l-.06.54Z"/><path class="cls-4" d="m148.04,137.61l.06.48.27.57.21.06.39.84.63.42.18.18,2.16.48h.81l.99-.33.12-.27.9-.24.9-1.17.18-.06.54-.51h.63l.21.09.48.09.18.54-.12.48-.48,1.11-.66.42-.45.48-.99.66-.57.21h-.27l-.51.24-1.23.27h-.6l-1.32-.24h-.6l-.48-.09-.69-.33-.72-.33-.78-.39-.39-.72-.57-.48-.12-.39-.39-.75-.27-.12-.09-1.02.06-.6-.3-1.56.15-.66v-1.23l.24-.57.03-.33.48-.72.36-.78.27-.39.15-.03.42-.69.72-.39,1.29-.6.6-.15.3-.18.84-.18.78.12.3.15.42-.15.63.18.27.21.78.15.57.27.39.12.42.3,1.23,1.2.42.69.18.69.18.39.21.9-.06.21.18,1.02-.21.42-.63.39h-.54l-.36.12-.69-.09-.45.09-.9-.06-.33.12-.72-.21-1.29.18-.66-.12-.54.24-.84-.12-.27.15-1.2-.15-.39-.18-.54-.12-.18.27.6,1.23.09.27Z"/><path class="cls-4" d="m166.76,133.41l.12.9v4.35l-.18.3.15.93-.12.63.12.78-.12.81-1.05.18-.87-.21-.36-.39.06-.54v-1.59l-.15-1.17v-2.52l.09-1.11-.21-.87.12-1.44.12-.42-.09-1.11.12-.48v-.75l.48-.39.54.06.63-.18.24.24-.18,1.17.15.15.42-.06.15-.48.57-.33.54-.45.42-.24h.78l.66-.24.66-.06h1.17l.54.18.75.33.84.54.24.24.6,1.11.21.66.12,1.5v.72l.06.6v.87l-.06.63.15.69-.12.63.06.66-.09.33v1.14l.15.96-.15.36.09.54-.57.57-.63.15-.42.03-.66-.15-.03-.33-.24-.9.15-.69.09-.78-.09-.51v-.57l-.09-.48.06-.93.12-.39-.12-1.38v-1.56l-.15-.84-.36-.9-.36-.57-.51-.21-1.56-.42-.69.27-.21.03-.93.39-1.2.27-.24.36.24.45.06.54-.03.39Z"/><path class="cls-4" d="m191.96,142.53l-.57-.15-.93.24-1.35-.12-1.2-.21-1.05-.39-.42-.36-.33-.54-.51-.48-.48-1.41v-4.2l.09-.36-.18-.75.15-.3-.21-.6.24-.48-.06-.9.33-.33-.27-.36-.6.27-.78.09-.75-.09-.48.09-.3-.03-1.41-.09-.18-.42-.09-.66.09-.6.36-.18.63.06h1.38l.39-.06h1.17l.54.3.33-.3-.36-.51-.09-.96v-.87l.12-.69-.15-.84.21-.69-.12-.66v-.75l.96-.12h.96l.36.3.06.75-.15.78.09.72v2.64l-.36.72.27.36.48-.15,1.68-.15.57.09.33-.09,1.02.21.63-.21.87.12h.36l.42.42.09.24.06.75-.36.3-1.5.21-.3.15-.72-.24-1.32.27-.75-.09-.48.06-.96-.54-.27.39.33,1.11v.78l-.09.42v1.35l-.09.24.21.84-.18,1.29v.39l.36,1.65.12.21.33.3.42.57.45.03.45.21,1.2-.09.6.09.63-.12.6-.27.69.09.3.9-.21.54-.06.3-.69.3-.57.27Z"/><path class="cls-4" d="m206,140.1l.21-.15v-.57l.42-1.2.09-.45.45-.72.12-.42-.03-.24.36-.78.36-.51.15-.69.12-.12.45-.99.3-1.05.24-.48.42-1.26.39-.75.81-.57h.51l.51.15.57.51-.06.48-1.02,1.95-.27.81-.06.33-.57.96.12.3-.63.9-.09.27-.24.27-.21.81-.36.39-.15.84-.15.33-.24.3-.45,1.17-.51,1.26-.36.66-.39,1.14-.21.24-.33.72-.18.27-.24.63-.63.51-.15.36-.75.33-.51.69-.24.06-.51.33-.99.39-.96.18-.48-.09-.63.18-.42-.06-.33-.84.03-.48.09-.27,1.02-.45.66-.15h.51l.78-.36.63-.66.96-.63.57-.87.36-.15.24-.6h-.42l-.57-.66.06-.18-.69-1.23-.06-.48-.24-.21-.39-.81-.15-.45v-.39l-.27-.63-.57-.96-.12-.06-.21-.93-.39-.63-.03-.24-.3-.66-.33-.27-.21-.99-.3-.72-.03-.39-.51-.72-.27-.87.36-.39.57-.24.24.03.27-.12.63.39.6.84.51,1.11.3.99.3.45.12.51.27.51.03.36.24.42.33.87.39.78.03.33.39.75-.03.42.36.54.06.42.48.93.45.42Z"/><path class="cls-4" d="m242.33,128.94h.81l.84.24.54.21.75.48.6.21v.09l.72.69.36.66.45.48.48.84.09.72v.69l.18.75-.06.81-.24,2.46-.18.39-.51,1.26-.57.69-.93.87-.6.3-.93.42-1.14.12-.48.18h-.9l-1.02.12-1.08-.33-.3-.27-.66-.15-.27-.21-.6-.33-.09-.24-.96-.78-.27-.48-.3-.3-.27-.87-.24-1.23-.3-.54.06-.93.18-1.08-.15-.72.72-1.65.12-.39.36-.78.3-.36.6-.81.6-.24.3-.21.54-.12.63-.39.15-.21h.81l-.06.03,1.05-.15h.36l.51.06Z"/><path class="cls-4" d="m257.72,130.89l-1.95.33-1.38-.21-.27-.24v-.57l.24-.81.69-.21.27.03,1.65-.12.69.33.3-.3-.12-1.17.21-1.08,1.08-1.68.54-.42,1.14-.87,1.26-.51.48-.09,1.11-.24h1.53l.24.15v.96l-.06.57-.45.3h-.51l-1.44.24-.9.33-.63.39-.42.54-.42.36-.27,1.35-.24.63-.24.39.33.24.42-.3h2.4l.54-.06,1.56.15.3.54.12.78-.27.66-1.02-.09-1.05.09-.75-.09-.15-.09-1.77-.12-.3-.24-.36.33.33,1.26-.09,1.35.12.6v.42l-.24.69.27,1.26-.18.66.12.63.15.39-.15.99-.18.39-.12.57.15.3.42-.27,1.41-.09.78.15,1.44-.21.66.15.66.27.09.63-.15.84-.75.21h-2.13l-.18.03h-.81l-.18-.15-.69.12h-.99l-.33.09-.63-.09h-1.29l-.24.06-.93-.12-.42.12-.99-.09-.36-.12-.15-.21-.21-.6v-.33l.12-.27.54-.48h2.28l.42.18h.36l.24-.24-.15-.54-.06-.51v-.78l-.09-.24.09-.9v-1.86l.15-.54-.12-.72v-1.26l.21-.33v-1.08l-.33-.51Z"/></g><g class="cls-5"><path class="cls-4" d="m101.9,169.86l.15.81v2.43l-.06.57.21,1.02-.15.72-.06.9.21.48-.33,1.05-.18.24-.84.3-.42-.12-.66-.57.09-.54-.06-.45v-1.56l.15-.06-.15-1.92.12-.12-.15-1.08.06-.39-.06-.57.15-.45-.12-.48v-2.16l-.12-.3.18-1.05v-.78l-.15-.12.9-.66,1.17.36-.18.81.21.54.36-.6.45-.33.3-.3.42-.12.9-.42.66-.18,1.08.36.84.57.33.33.21.42.12.6.36-.03.27-.78.24-.33.27-.12.36-.48.81-.3.93-.15h.54l.33.21,1.14.45.24.51.54,1.05.3,1.2-.12,1.17v1.68l.12,1.05-.09.96.09.93-.24,1.05.09.96.21.42-.15.99-.21.36-.33.36-.78.18-.45-.18-.45-.69.15-.51-.15-.57-.12-1.11.27-.6v-.57l-.24-1.11.09-1.05-.21-.27.24-.84-.21-1.5.12-.9-.12-.75-.33-.42-.24-.21-.75-.18-.9.36-1.32.48-.33.39.3.48.21.93-.09,1.11.09.36-.12.45.09,1.08-.09.27v.93l.15.9-.24.27.18,1.26-.18.36.06.81-.15.78-.87.24-.75-.12-.3-.87-.09-.9v-.69l-.09-.18v-.84l.18-.63-.03-.33-.12-1.53.15-.48-.09-1.26.15-1.17-.21-.75-.09-.66-.15-.36-.3-.36-.42-.27-.33.06-.24-.06-.9.39-.15.12-.87.27-.33.3.33,1.14-.24.66Z"/><path class="cls-4" d="m121.04,173.61l.06.48.27.57.21.06.39.84.63.42.18.18,2.16.48h.81l.99-.33.12-.27.9-.24.9-1.17.18-.06.54-.51h.63l.21.09.48.09.18.54-.12.48-.48,1.11-.66.42-.45.48-.99.66-.57.21h-.27l-.51.24-1.23.27h-.6l-1.32-.24h-.6l-.48-.09-.69-.33-.72-.33-.78-.39-.39-.72-.57-.48-.12-.39-.39-.75-.27-.12-.09-1.02.06-.6-.3-1.56.15-.66v-1.23l.24-.57.03-.33.48-.72.36-.78.27-.39.15-.03.42-.69.72-.39,1.29-.6.6-.15.3-.18.84-.18.78.12.3.15.42-.15.63.18.27.21.78.15.57.27.39.12.42.3,1.23,1.2.42.69.18.69.18.39.21.9-.06.21.18,1.02-.21.42-.63.39h-.54l-.36.12-.69-.09-.45.09-.9-.06-.33.12-.72-.21-1.29.18-.66-.12-.54.24-.84-.12-.27.15-1.2-.15-.39-.18-.54-.12-.18.27.6,1.23.09.27Z"/><path class="cls-4" d="m139.76,169.41l.12.9v4.35l-.18.3.15.93-.12.63.12.78-.12.81-1.05.18-.87-.21-.36-.39.06-.54v-1.59l-.15-1.17v-2.52l.09-1.11-.21-.87.12-1.44.12-.42-.09-1.11.12-.48v-.75l.48-.39.54.06.63-.18.24.24-.18,1.17.15.15.42-.06.15-.48.57-.33.54-.45.42-.24h.78l.66-.24.66-.06h1.17l.54.18.75.33.84.54.24.24.6,1.11.21.66.12,1.5v.72l.06.6v.87l-.06.63.15.69-.12.63.06.66-.09.33v1.14l.15.96-.15.36.09.54-.57.57-.63.15-.42.03-.66-.15-.03-.33-.24-.9.15-.69.09-.78-.09-.51v-.57l-.09-.48.06-.93.12-.39-.12-1.38v-1.56l-.15-.84-.36-.9-.36-.57-.51-.21-1.56-.42-.69.27-.21.03-.93.39-1.2.27-.24.36.24.45.06.54-.03.39Z"/><path class="cls-4" d="m184.46,177.57l.06.21-.33.39-.69.09-.45-.15-.6.06h-1.44l-.48.15-.48-.09-1.38.12-1.29-.15h-.63l-.6.15-.39-.06-1.14-.09-.57.15-.6-.06-.42-.48.06-.84.3-.42,1.32-.33h.72l.51.06h.66l.93.12.27-.06.24-.21-.24-.54-.06-.36.06-.75-.12-.57.18-.57-.12-.54v-1.35l.12-.9-.12-1.11.09-.57-.06-.72.21-.57v-.45l-.18-.21-.54.09-.6.18-.57.09-.66-.15-.42.09h-1.38l-.45-.12-.06-.9-.12-.54.54-.51.45-.06.9.18.36-.09h1.38l.03.03h.96l.21-.21,1.02.15.18-.09,1.05.21.21,1.5-.12.87-.09,1.29.09.66v1.56l-.09.12.09,1.14-.09.27.21,1.23-.15.87v.81l-.15.45.36.27.42.09.69-.15h.9l1.29-.09.57.09.21.24.12.72-.09.36Zm-3.96-17.13l-.21.66-.18.81-.54.18-.54.09-.96-.21-.36-.24-.18-.45-.06-.63.06-.09v-.57l.36-.6.48-.3h1.23l.9.6v.75Z"/><path class="cls-4" d="m193.76,169.41l.12.9v4.35l-.18.3.15.93-.12.63.12.78-.12.81-1.05.18-.87-.21-.36-.39.06-.54v-1.59l-.15-1.17v-2.52l.09-1.11-.21-.87.12-1.44.12-.42-.09-1.11.12-.48v-.75l.48-.39.54.06.63-.18.24.24-.18,1.17.15.15.42-.06.15-.48.57-.33.54-.45.42-.24h.78l.66-.24.66-.06h1.17l.54.18.75.33.84.54.24.24.6,1.11.21.66.12,1.5v.72l.06.6v.87l-.06.63.15.69-.12.63.06.66-.09.33v1.14l.15.96-.15.36.09.54-.57.57-.63.15-.42.03-.66-.15-.03-.33-.24-.9.15-.69.09-.78-.09-.51v-.57l-.09-.48.06-.93.12-.39-.12-1.38v-1.56l-.15-.84-.36-.9-.36-.57-.51-.21-1.56-.42-.69.27-.21.03-.93.39-1.2.27-.24.36.24.45.06.54-.03.39Z"/><path class="cls-4" d="m236.96,178.53l-.57-.15-.93.24-1.35-.12-1.2-.21-1.05-.39-.42-.36-.33-.54-.51-.48-.48-1.41v-4.2l.09-.36-.18-.75.15-.3-.21-.6.24-.48-.06-.9.33-.33-.27-.36-.6.27-.78.09-.75-.09-.48.09-.3-.03-1.41-.09-.18-.42-.09-.66.09-.6.36-.18.63.06h1.38l.39-.06h1.17l.54.3.33-.3-.36-.51-.09-.96v-.87l.12-.69-.15-.84.21-.69-.12-.66v-.75l.96-.12h.96l.36.3.06.75-.15.78.09.72v2.64l-.36.72.27.36.48-.15,1.68-.15.57.09.33-.09,1.02.21.63-.21.87.12h.36l.42.42.09.24.06.75-.36.3-1.5.21-.3.15-.72-.24-1.32.27-.75-.09-.48.06-.96-.54-.27.39.33,1.11v.78l-.09.42v1.35l-.09.24.21.84-.18,1.29v.39l.36,1.65.12.21.33.3.42.57.45.03.45.21,1.2-.09.6.09.63-.12.6-.27.69.09.3.9-.21.54-.06.3-.69.3-.57.27Z"/><path class="cls-4" d="m247.79,169.83l-.09.27.09.78.18.12-.3,1.41.12.51-.03.45.18.42-.21.93.12.45-.15.36.06.6v1.17l-.06.33-.27.51-.78.15-1.02-.18-.18-.57-.03-.45-.12-.45.12-1.65.09-.42-.09-.57.06-.63v-1.29l-.18-.48.24-.87-.21-.57.18-.45-.15-.87.15-.48.06-.84-.21-.72-.09-.66.27-.72v-1.05l-.15-1.35v-3.06l.33-.84.66-.06h.6l.75.54.06.69-.06.39.06.81v1.77l-.09.15.18.96-.21,1.14-.12,1.05.27.12.24-.48,1.02-.78.39-.21.66.09,1.05-.39h1.44l.54.06,1.14.6.6.42.75,1.08.3.87.12,1.74-.03.48.09,1.2-.06.75.09.48-.12.54.15.84-.15.66v1.05l.21.87-.18.6.09.39-.12.72h-1.44l-.51-.09-.27-.42-.18-.75.09-.36.09-1.38-.09-.36v-.9l-.15-.81.15-.96v-1.14l-.12-.15.15-1.2-.24-.69v-.78l-.9-1.05-.87-.24-.66-.3-.93.3-.39.03-.6.36-.75.24-.18.12h-.36l-.33.27.09.48.27.57-.12.78Z"/><path class="cls-4" d="m265.04,173.61l.06.48.27.57.21.06.39.84.63.42.18.18,2.16.48h.81l.99-.33.12-.27.9-.24.9-1.17.18-.06.54-.51h.63l.21.09.48.09.18.54-.12.48-.48,1.11-.66.42-.45.48-.99.66-.57.21h-.27l-.51.24-1.23.27h-.6l-1.32-.24h-.6l-.48-.09-.69-.33-.72-.33-.78-.39-.39-.72-.57-.48-.12-.39-.39-.75-.27-.12-.09-1.02.06-.6-.3-1.56.15-.66v-1.23l.24-.57.03-.33.48-.72.36-.78.27-.39.15-.03.42-.69.72-.39,1.29-.6.6-.15.3-.18.84-.18.78.12.3.15.42-.15.63.18.27.21.78.15.57.27.39.12.42.3,1.23,1.2.42.69.18.69.18.39.21.9-.06.21.18,1.02-.21.42-.63.39h-.54l-.36.12-.69-.09-.45.09-.9-.06-.33.12-.72-.21-1.29.18-.66-.12-.54.24-.84-.12-.27.15-1.2-.15-.39-.18-.54-.12-.18.27.6,1.23.09.27Z"/></g><g class="cls-5"><path class="cls-4" d="m143.33,200.94h.81l.84.24.54.21.75.48.6.21v.09l.72.69.36.66.45.48.48.84.09.72v.69l.18.75-.06.81-.24,2.46-.18.39-.51,1.26-.57.69-.93.87-.6.3-.93.42-1.14.12-.48.18h-.9l-1.02.12-1.08-.33-.3-.27-.66-.15-.27-.21-.6-.33-.09-.24-.96-.78-.27-.48-.3-.3-.27-.87-.24-1.23-.3-.54.06-.93.18-1.08-.15-.72.72-1.65.12-.39.36-.78.3-.36.6-.81.6-.24.3-.21.54-.12.63-.39.15-.21h.81l-.06.03,1.05-.15h.36l.51.06Z"/><path class="cls-4" d="m158.72,202.89l-1.95.33-1.38-.21-.27-.24v-.57l.24-.81.69-.21.27.03,1.65-.12.69.33.3-.3-.12-1.17.21-1.08,1.08-1.68.54-.42,1.14-.87,1.26-.51.48-.09,1.11-.24h1.53l.24.15v.96l-.06.57-.45.3h-.51l-1.44.24-.9.33-.63.39-.42.54-.42.36-.27,1.35-.24.63-.24.39.33.24.42-.3h2.4l.54-.06,1.56.15.3.54.12.78-.27.66-1.02-.09-1.05.09-.75-.09-.15-.09-1.77-.12-.3-.24-.36.33.33,1.26-.09,1.35.12.6v.42l-.24.69.27,1.26-.18.66.12.63.15.39-.15.99-.18.39-.12.57.15.3.42-.27,1.41-.09.78.15,1.44-.21.66.15.66.27.09.63-.15.84-.75.21h-2.13l-.18.03h-.81l-.18-.15-.69.12h-.99l-.33.09-.63-.09h-1.29l-.24.06-.93-.12-.42.12-.99-.09-.36-.12-.15-.21-.21-.6v-.33l.12-.27.54-.48h2.28l.42.18h.36l.24-.24-.15-.54-.06-.51v-.78l-.09-.24.09-.9v-1.86l.15-.54-.12-.72v-1.26l.21-.33v-1.08l-.33-.51Z"/><path class="cls-4" d="m176.72,202.89l-1.95.33-1.38-.21-.27-.24v-.57l.24-.81.69-.21.27.03,1.65-.12.69.33.3-.3-.12-1.17.21-1.08,1.08-1.68.54-.42,1.14-.87,1.26-.51.48-.09,1.11-.24h1.53l.24.15v.96l-.06.57-.45.3h-.51l-1.44.24-.9.33-.63.39-.42.54-.42.36-.27,1.35-.24.63-.24.39.33.24.42-.3h2.4l.54-.06,1.56.15.3.54.12.78-.27.66-1.02-.09-1.05.09-.75-.09-.15-.09-1.77-.12-.3-.24-.36.33.33,1.26-.09,1.35.12.6v.42l-.24.69.27,1.26-.18.66.12.63.15.39-.15.99-.18.39-.12.57.15.3.42-.27,1.41-.09.78.15,1.44-.21.66.15.66.27.09.63-.15.84-.75.21h-2.13l-.18.03h-.81l-.18-.15-.69.12h-.99l-.33.09-.63-.09h-1.29l-.24.06-.93-.12-.42.12-.99-.09-.36-.12-.15-.21-.21-.6v-.33l.12-.27.54-.48h2.28l.42.18h.36l.24-.24-.15-.54-.06-.51v-.78l-.09-.24.09-.9v-1.86l.15-.54-.12-.72v-1.26l.21-.33v-1.08l-.33-.51Z"/><path class="cls-4" d="m202.46,213.57l.06.21-.33.39-.69.09-.45-.15-.6.06h-1.44l-.48.15-.48-.09-1.38.12-1.29-.15h-.63l-.6.15-.39-.06-1.14-.09-.57.15-.6-.06-.42-.48.06-.84.3-.42,1.32-.33h.72l.51.06h.66l.93.12.27-.06.24-.21-.24-.54-.06-.36.06-.75-.12-.57.18-.57-.12-.54v-1.35l.12-.9-.12-1.11.09-.57-.06-.72.21-.57v-.45l-.18-.21-.54.09-.6.18-.57.09-.66-.15-.42.09h-1.38l-.45-.12-.06-.9-.12-.54.54-.51.45-.06.9.18.36-.09h1.38l.03.03h.96l.21-.21,1.02.15.18-.09,1.05.21.21,1.5-.12.87-.09,1.29.09.66v1.56l-.09.12.09,1.14-.09.27.21,1.23-.15.87v.81l-.15.45.36.27.42.09.69-.15h.9l1.29-.09.57.09.21.24.12.72-.09.36Zm-3.96-17.13l-.21.66-.18.81-.54.18-.54.09-.96-.21-.36-.24-.18-.45-.06-.63.06-.09v-.57l.36-.6.48-.3h1.23l.9.6v.75Z"/><path class="cls-4" d="m210.77,208.14l.18,1.08.27.87.36.66.3.42.75.75.69.18.6.27h.87l.66.15.84-.12.48-.18.81-.72.51-.15.3-1.32.36-.36.93-.09.87.09.09.72-.27,1.11-.18.45-.33.6-.84.66-.9.66-.51.24-.63.18-.45.03-1.17.33-.6-.06-.18.12-.84-.21-.24-.18h-.75l-.54-.18-.48-.24-1.26-.69-.57-.54-.21-.51-.54-.51-.06-.39-.27-.6-.24-.9-.15-1.2v-1.23l-.12-.48.3-1.05-.06-.54.51-.81.09-.51.45-.42.3-.63.72-.6.18-.36,1.2-.48,1.17-.36,1.08-.24h2.01l.99.33.12.15.6.18.42.3.51.12.72.66.81,1.29.27.81v.51l-.21.39-.63.21-.72-.09-.42.03-.3-.24-.66-1.47-.57-.51-.93-.45-.81-.06-.36-.21-.96.21-.21.12-.93.12-.33.33-.39.24-.6.66-.3.21-.21.72-.33.66.15.87-.15.78-.06.42Z"/><path class="cls-4" d="m229.04,209.61l.06.48.27.57.21.06.39.84.63.42.18.18,2.16.48h.81l.99-.33.12-.27.9-.24.9-1.17.18-.06.54-.51h.63l.21.09.48.09.18.54-.12.48-.48,1.11-.66.42-.45.48-.99.66-.57.21h-.27l-.51.24-1.23.27h-.6l-1.32-.24h-.6l-.48-.09-.69-.33-.72-.33-.78-.39-.39-.72-.57-.48-.12-.39-.39-.75-.27-.12-.09-1.02.06-.6-.3-1.56.15-.66v-1.23l.24-.57.03-.33.48-.72.36-.78.27-.39.15-.03.42-.69.72-.39,1.29-.6.6-.15.3-.18.84-.18.78.12.3.15.42-.15.63.18.27.21.78.15.57.27.39.12.42.3,1.23,1.2.42.69.18.69.18.39.21.9-.06.21.18,1.02-.21.42-.63.39h-.54l-.36.12-.69-.09-.45.09-.9-.06-.33.12-.72-.21-1.29.18-.66-.12-.54.24-.84-.12-.27.15-1.2-.15-.39-.18-.54-.12-.18.27.6,1.23.09.27Z"/></g></g></svg>