<?xml version="1.0" encoding="UTF-8"?><svg id="Layer_1" xmlns="http://www.w3.org/2000/svg" viewBox="0 0 368.19 367.8"><defs><style>.cls-1{fill:#182a42;}.cls-1,.cls-2{stroke-width:0px;}.cls-2{fill:#ffeadc;}</style></defs><path class="cls-1" d="m368.19,183.56c0,101.34-61,193.5-183.5,183.5C83.68,358.81-11.8,308.06,1.19,183.56,11.71,82.76,83.38-2.5,184.69.06c158.5,4,183.5,82.16,183.5,183.5Z"/><path class="cls-2" d="m289.09,144.9H79.09c-8.28,0-15-6.72-15-15s6.72-15,15-15h210c8.28,0,15,6.72,15,15s-6.72,15-15,15Z"/><path class="cls-2" d="m289.09,198.9H79.09c-8.28,0-15-6.72-15-15s6.72-15,15-15h210c8.28,0,15,6.72,15,15s-6.72,15-15,15Z"/><path class="cls-2" d="m289.09,252.9H79.09c-8.28,0-15-6.72-15-15s6.72-15,15-15h210c8.28,0,15,6.72,15,15s-6.72,15-15,15Z"/></svg>