<?xml version="1.0" encoding="UTF-8"?><svg id="Layer_1" xmlns="http://www.w3.org/2000/svg" viewBox="0 0 169.29 223.91"><defs><style>.cls-1{isolation:isolate;}.cls-2{fill:#182a42;stroke-width:0px;}</style></defs><g id="In_a_room_with_ten_people_it_takes_eight_woman_for_their_voices_to_be_heard_as_much_as_the_mens." class="cls-1"><g class="cls-1"><path class="cls-2" d="m22.53,193.12l-.38-.12c-.13-.05-.22-.1-.27-.16-.05-.06-.08-.14-.08-.25,0-.09.03-.16.09-.22.06-.06.15-.09.27-.09h1.92c.12,0,.21.03.27.09.06.06.09.13.09.22,0,.11-.03.19-.08.25-.05.06-.14.11-.27.16l-.38.12v4.09l.4.13c.13.04.21.08.26.13.05.05.07.12.07.22,0,.1-.04.19-.11.26-.07.07-.18.1-.31.1h-1.82c-.13,0-.23-.03-.31-.1-.07-.07-.11-.16-.11-.26s.02-.17.07-.22.13-.09.26-.13l.4-.13v-4.09Z"/><path class="cls-2" d="m25.53,194.64l-.39-.09c-.11-.03-.2-.07-.24-.12-.05-.05-.07-.12-.07-.22,0-.1.02-.18.07-.24.05-.05.13-.1.24-.13.12-.03.26-.06.41-.09.15-.02.3-.03.45-.03.22,0,.37.04.45.13s.13.23.13.43v.11h.02c.07-.12.16-.24.28-.34.1-.09.24-.17.41-.24.17-.07.38-.11.64-.11.5,0,.88.14,1.15.42.27.28.4.69.4,1.23v1.89l.33.1c.12.04.2.09.25.14.05.05.07.13.07.22,0,.1-.04.19-.11.26-.07.07-.18.1-.31.1h-1.6c-.13,0-.23-.03-.31-.1-.07-.07-.11-.16-.11-.26s.02-.17.07-.22c.05-.05.13-.1.25-.14l.31-.1v-1.61c0-.38-.07-.65-.21-.81-.14-.16-.34-.24-.6-.24-.13,0-.25.02-.35.06s-.18.09-.25.14c-.08.06-.15.13-.21.2v2.26l.31.1c.12.04.2.09.25.14.05.05.07.13.07.22,0,.1-.04.19-.11.26-.07.07-.18.1-.31.1h-1.65c-.13,0-.23-.03-.31-.1-.07-.07-.11-.16-.11-.26s.02-.17.07-.22.13-.09.26-.13l.37-.11v-2.59Z"/><path class="cls-2" d="m35.32,195.45c0-.34-.06-.58-.18-.71s-.33-.2-.63-.2c-.17,0-.31,0-.43.03-.12.02-.23.04-.32.06-.09.02-.17.04-.24.06-.07.02-.12.03-.18.03-.1,0-.18-.03-.24-.09-.06-.06-.09-.15-.09-.25,0-.09.04-.17.11-.25.05-.05.13-.1.23-.16.1-.05.23-.1.37-.14.15-.04.31-.08.49-.11.18-.03.37-.04.58-.04.61,0,1.05.12,1.3.36.26.24.39.61.39,1.12,0,.34,0,.67,0,.98,0,.32,0,.67.03,1.07l.33.05c.11.02.19.05.24.11.05.05.07.13.07.23s-.03.17-.08.23c-.05.05-.13.1-.24.14-.11.04-.24.07-.38.1s-.29.04-.45.04c-.2,0-.35-.05-.44-.14-.09-.09-.14-.23-.14-.42v-.04h-.02c-.07.11-.16.22-.27.31-.1.08-.23.15-.39.22s-.36.1-.59.1c-.21,0-.4-.03-.57-.1-.17-.07-.32-.15-.44-.27-.12-.11-.22-.24-.28-.4s-.1-.32-.1-.49.04-.33.12-.48c.08-.15.19-.28.35-.38.16-.11.36-.19.6-.25.24-.06.53-.09.86-.09.09,0,.17,0,.25,0,.07,0,.14.01.2.02.06,0,.12.01.18.02v-.27Zm0,.94s-.09-.01-.14-.03c-.05,0-.1-.01-.17-.02-.07,0-.14,0-.22,0-.29,0-.5.04-.63.12-.13.08-.19.19-.19.33s.05.25.16.35c.11.1.25.15.44.15.12,0,.23-.02.32-.05.09-.03.17-.07.23-.11.07-.05.14-.1.2-.15v-.58Z"/><path class="cls-2" d="m40.29,194.64l-.39-.09c-.11-.03-.2-.07-.24-.12-.05-.05-.07-.12-.07-.22,0-.1.02-.18.07-.24.05-.05.13-.1.24-.13.12-.03.26-.06.41-.09.15-.02.3-.03.45-.03.22,0,.37.04.45.13s.13.23.13.43v.24h.02c.06-.12.13-.24.21-.35.08-.11.17-.2.27-.27.1-.07.21-.13.32-.17.11-.04.23-.06.36-.06.15,0,.26.04.34.12s.12.19.12.34c0,.13-.01.24-.04.33s-.06.17-.1.24c-.04.06-.09.11-.14.14-.05.03-.1.05-.15.05-.04,0-.08,0-.11-.02-.03-.01-.06-.02-.09-.04-.03-.01-.06-.02-.09-.03-.03-.01-.07-.02-.12-.02-.12,0-.24.03-.35.08s-.22.14-.32.27v2.1l.41.11c.13.03.21.08.26.13.05.05.07.13.07.22,0,.1-.04.19-.11.26-.07.07-.18.1-.31.1h-1.76c-.13,0-.23-.03-.31-.1-.07-.07-.11-.16-.11-.26s.02-.17.07-.22.13-.09.26-.13l.37-.11v-2.59Z"/><path class="cls-2" d="m43.25,196.04c0-.35.06-.68.17-.97.11-.29.27-.54.47-.74.2-.21.45-.37.73-.48.28-.11.6-.17.94-.17.65,0,1.15.18,1.52.55s.55.89.55,1.56c0,.35-.05.68-.16.96-.11.29-.26.54-.46.74-.2.21-.44.36-.73.48-.29.11-.61.17-.96.17-.65,0-1.15-.18-1.52-.55s-.55-.89-.55-1.56Zm1.2-.14c0,.24.03.45.08.63.05.18.13.33.21.45s.19.21.32.26c.12.06.25.09.39.09.27,0,.5-.11.69-.33.19-.22.28-.57.28-1.06,0-.24-.03-.45-.08-.63-.05-.18-.13-.33-.21-.45-.09-.12-.19-.2-.32-.26-.12-.06-.25-.09-.39-.09-.27,0-.5.11-.69.33-.19.22-.28.57-.28,1.06Z"/><path class="cls-2" d="m48.31,196.04c0-.35.06-.68.17-.97.11-.29.27-.54.47-.74.2-.21.45-.37.73-.48.28-.11.6-.17.94-.17.65,0,1.15.18,1.52.55s.55.89.55,1.56c0,.35-.05.68-.16.96-.11.29-.26.54-.46.74-.2.21-.44.36-.73.48-.29.11-.61.17-.96.17-.65,0-1.15-.18-1.52-.55s-.55-.89-.55-1.56Zm1.2-.14c0,.24.03.45.08.63.05.18.13.33.21.45s.19.21.32.26c.12.06.25.09.39.09.27,0,.5-.11.69-.33.19-.22.28-.57.28-1.06,0-.24-.03-.45-.08-.63-.05-.18-.13-.33-.21-.45-.09-.12-.19-.2-.32-.26-.12-.06-.25-.09-.39-.09-.27,0-.5.11-.69.33-.19.22-.28.57-.28,1.06Z"/><path class="cls-2" d="m53.91,194.64l-.39-.09c-.11-.03-.2-.07-.24-.12-.05-.05-.07-.12-.07-.22,0-.1.02-.18.07-.24.05-.05.13-.1.24-.13.12-.03.26-.06.41-.09.15-.02.3-.03.45-.03.22,0,.37.04.45.13s.13.23.13.43v.11h.02c.06-.12.15-.24.27-.34.1-.09.23-.17.4-.24.17-.07.38-.11.63-.11.33,0,.6.06.82.18s.39.3.52.54c.08-.14.18-.26.31-.36.11-.09.25-.18.42-.25s.39-.12.66-.12c.49,0,.86.14,1.13.42s.4.69.4,1.23v1.89l.33.1c.12.04.2.09.25.14.05.05.07.13.07.22,0,.1-.04.19-.11.26-.07.07-.18.1-.31.1h-1.57c-.13,0-.23-.03-.31-.1-.07-.07-.11-.16-.11-.26s.02-.17.07-.22.13-.1.25-.14l.28-.1v-1.61c0-.38-.07-.65-.2-.81-.13-.16-.33-.24-.58-.24-.13,0-.25.02-.34.07-.1.05-.18.09-.25.15-.08.06-.15.13-.21.21,0,.03,0,.06,0,.09,0,.03,0,.06,0,.11s0,.09,0,.14v1.89l.28.1c.12.05.2.09.25.14.05.05.07.12.07.22,0,.1-.04.19-.11.26-.07.07-.18.1-.31.1h-1.53c-.13,0-.23-.03-.31-.1-.07-.07-.11-.16-.11-.26s.02-.17.07-.22.13-.1.25-.14l.28-.1v-1.61c0-.38-.07-.65-.2-.81-.13-.16-.33-.24-.58-.24-.13,0-.24.02-.33.06-.1.04-.18.09-.24.14-.08.06-.15.13-.21.2v2.26l.28.1c.12.05.2.09.25.14.05.05.07.12.07.22,0,.1-.04.19-.11.26-.07.07-.18.1-.31.1h-1.62c-.13,0-.23-.03-.31-.1-.07-.07-.11-.16-.11-.26s.02-.17.07-.22.13-.09.26-.13l.37-.11v-2.59Z"/><path class="cls-2" d="m64.03,194.6l-.15-.06c-.13-.05-.22-.12-.27-.19-.05-.07-.08-.16-.08-.27,0-.09.03-.17.09-.22.06-.06.15-.09.27-.09h1.47c.12,0,.21.03.27.09.06.06.09.13.09.22,0,.1-.03.18-.08.24-.05.06-.15.13-.28.19l-.15.07.46,1.61c.03.11.06.21.09.32.03.1.05.19.07.27.02.1.04.19.05.27h.02c.01-.09.03-.18.04-.28.01-.08.03-.17.04-.27.02-.1.04-.21.07-.31l.4-1.73c.06-.27.16-.46.29-.57.13-.11.31-.16.55-.16s.41.05.54.15c.13.1.22.29.29.56l.41,1.75c.03.11.05.22.07.33.02.1.03.19.04.27.02.09.03.18.04.26h.02c.01-.08.03-.16.05-.26.02-.08.04-.17.06-.27.03-.1.06-.21.09-.33l.46-1.61-.15-.07c-.14-.06-.23-.13-.28-.19-.05-.06-.08-.14-.08-.24,0-.09.03-.17.09-.22.06-.06.15-.09.27-.09h1.23c.12,0,.21.03.27.09.06.06.09.13.09.22,0,.1-.03.19-.08.27-.05.07-.14.14-.27.19l-.15.06-.91,2.79c-.09.27-.2.45-.32.55-.12.1-.3.15-.53.15s-.41-.05-.53-.15c-.13-.1-.22-.28-.28-.56l-.44-1.85c-.03-.1-.05-.2-.07-.3-.02-.1-.03-.19-.04-.27-.02-.09-.03-.17-.03-.25h-.02c0,.07-.02.16-.03.25-.01.08-.03.17-.04.27-.02.1-.04.2-.07.31l-.44,1.84c-.06.28-.16.46-.29.56-.13.1-.3.15-.5.15-.13,0-.23-.01-.32-.03-.09-.02-.17-.06-.24-.12-.07-.05-.13-.13-.18-.21-.05-.09-.1-.2-.14-.34l-.9-2.79Z"/><path class="cls-2" d="m71.8,194.64l-.39-.09c-.11-.03-.2-.07-.24-.12-.05-.05-.07-.12-.07-.22,0-.1.02-.18.07-.24.05-.05.13-.1.24-.13.12-.03.26-.06.41-.09.15-.02.31-.03.48-.03.26,0,.43.05.53.14.09.09.14.27.14.53v2.84l.35.1c.11.03.18.07.23.12s.06.12.06.21c0,.11-.04.21-.12.28s-.18.11-.31.11h-1.66c-.13,0-.23-.03-.31-.1-.07-.07-.11-.16-.11-.26s.02-.17.07-.22.13-.09.26-.13l.37-.11v-2.59Zm-.15-2.02c0-.21.07-.38.21-.51.14-.14.31-.21.51-.21s.38.07.51.2c.13.13.2.3.2.51s-.07.38-.21.52c-.14.14-.31.21-.52.21s-.37-.07-.51-.2c-.13-.13-.2-.3-.2-.51Z"/><path class="cls-2" d="m74.45,194.58h-.29c-.26,0-.39-.11-.39-.34,0-.14.04-.25.12-.33.08-.08.2-.12.36-.12h.23l.15-.61c.05-.19.11-.33.2-.41s.22-.13.38-.13c.13,0,.23.03.3.1.07.07.1.16.1.29v.76h.74c.26,0,.39.12.39.34,0,.14-.04.25-.12.33s-.2.12-.36.12h-.64v1.95c0,.27.04.47.12.58.08.11.19.16.34.16.11,0,.19,0,.26-.03.06-.02.13-.03.19-.03.08,0,.14.02.19.07.05.05.07.12.07.21,0,.06-.01.12-.04.18-.03.05-.06.1-.11.15-.05.05-.16.11-.31.18-.16.07-.38.1-.67.1-.44,0-.75-.12-.94-.36s-.27-.56-.27-.97v-2.2Z"/><path class="cls-2" d="m77.63,192.74l-.34-.08c-.11-.03-.2-.07-.24-.12-.05-.05-.07-.13-.07-.23,0-.1.02-.18.07-.24.05-.05.13-.1.24-.13.1-.03.23-.06.39-.08.16-.03.31-.04.45-.04.26,0,.43.05.53.14.09.09.14.27.14.53v1.07c0,.11,0,.23-.02.36-.01.13-.03.25-.04.36h.02c.07-.1.17-.2.28-.29.1-.07.23-.14.39-.21.16-.06.36-.09.6-.09.5,0,.88.14,1.15.42.27.28.4.69.4,1.23v1.89l.33.1c.12.04.2.09.25.14.05.05.07.13.07.22,0,.1-.04.19-.11.26-.07.07-.18.1-.31.1h-1.6c-.13,0-.23-.03-.31-.1-.07-.07-.11-.16-.11-.26s.02-.17.07-.22c.05-.05.13-.1.25-.14l.31-.1v-1.61c0-.38-.07-.65-.21-.81-.14-.16-.34-.24-.6-.24-.13,0-.25.02-.35.06s-.18.09-.25.14c-.08.06-.15.13-.21.2v2.26l.31.1c.12.04.2.09.25.14.05.05.07.13.07.22,0,.1-.04.19-.11.26-.07.07-.18.1-.31.1h-1.6c-.13,0-.23-.03-.31-.1-.07-.07-.11-.16-.11-.26s.02-.17.06-.22c.04-.05.12-.09.23-.13l.35-.11v-4.49Z"/><path class="cls-2" d="m85.22,194.58h-.29c-.26,0-.39-.11-.39-.34,0-.14.04-.25.12-.33.08-.08.2-.12.36-.12h.23l.15-.61c.05-.19.11-.33.2-.41s.22-.13.38-.13c.13,0,.23.03.3.1.07.07.1.16.1.29v.76h.74c.26,0,.39.12.39.34,0,.14-.04.25-.12.33s-.2.12-.36.12h-.64v1.95c0,.27.04.47.12.58.08.11.19.16.34.16.11,0,.19,0,.26-.03.06-.02.13-.03.19-.03.08,0,.14.02.19.07.05.05.07.12.07.21,0,.06-.01.12-.04.18-.03.05-.06.1-.11.15-.05.05-.16.11-.31.18-.16.07-.38.1-.67.1-.44,0-.75-.12-.94-.36s-.27-.56-.27-.97v-2.2Z"/><path class="cls-2" d="m89.11,196.1c.04.39.17.69.38.89.21.2.52.3.91.3.13,0,.24,0,.34-.03.09-.02.18-.03.25-.05.07-.02.13-.04.19-.05.05-.02.11-.03.16-.03.09,0,.16.03.21.08.05.05.08.13.08.23,0,.06,0,.11-.03.15s-.05.09-.1.14c-.1.1-.26.19-.5.27-.24.09-.54.13-.92.13-.34,0-.64-.05-.91-.14-.27-.09-.49-.23-.67-.41-.18-.18-.32-.4-.41-.67-.09-.26-.14-.56-.14-.9,0-.37.05-.69.16-.98s.25-.53.44-.73c.19-.2.42-.35.68-.46s.55-.16.88-.16c.54,0,.96.15,1.26.46.3.3.45.74.45,1.31,0,.22-.05.38-.15.49s-.25.16-.44.16h-2.1Zm1.55-.66c-.01-.34-.08-.58-.21-.73-.13-.15-.3-.22-.5-.22-.22,0-.41.08-.55.25s-.23.4-.27.7h1.54Z"/><path class="cls-2" d="m93.05,194.64l-.39-.09c-.11-.03-.2-.07-.24-.12-.05-.05-.07-.12-.07-.22,0-.1.02-.18.07-.24.05-.05.13-.1.24-.13.12-.03.26-.06.41-.09.15-.02.3-.03.45-.03.22,0,.37.04.45.13s.13.23.13.43v.11h.02c.07-.12.16-.24.28-.34.1-.09.24-.17.41-.24.17-.07.38-.11.64-.11.5,0,.88.14,1.15.42.27.28.4.69.4,1.23v1.89l.33.1c.12.04.2.09.25.14.05.05.07.13.07.22,0,.1-.04.19-.11.26-.07.07-.18.1-.31.1h-1.6c-.13,0-.23-.03-.31-.1-.07-.07-.11-.16-.11-.26s.02-.17.07-.22c.05-.05.13-.1.25-.14l.31-.1v-1.61c0-.38-.07-.65-.21-.81-.14-.16-.34-.24-.6-.24-.13,0-.25.02-.35.06s-.18.09-.25.14c-.08.06-.15.13-.21.2v2.26l.31.1c.12.04.2.09.25.14.05.05.07.13.07.22,0,.1-.04.19-.11.26-.07.07-.18.1-.31.1h-1.65c-.13,0-.23-.03-.31-.1-.07-.07-.11-.16-.11-.26s.02-.17.07-.22.13-.09.26-.13l.37-.11v-2.59Z"/><path class="cls-2" d="m100.66,194.64l-.34-.08c-.11-.03-.2-.07-.24-.12s-.07-.13-.07-.23c0-.1.02-.18.07-.24.05-.05.13-.1.24-.13.05-.02.11-.03.18-.05.07-.01.14-.03.21-.04.07-.01.14-.02.22-.03s.15,0,.21,0c.21,0,.35.04.44.13s.13.23.13.43v.11h.02c.07-.12.16-.24.28-.34.1-.09.24-.17.41-.24.17-.07.38-.11.64-.11.5,0,.91.17,1.21.5.3.33.46.85.46,1.55,0,.38-.05.71-.16,1.01-.11.3-.27.55-.47.75s-.46.36-.76.47c-.3.11-.64.16-1.03.16-.07,0-.13,0-.19,0-.06,0-.11,0-.15-.02-.05,0-.09-.01-.13-.03l-.02.02c0,.06.01.13.01.19,0,.07,0,.15,0,.25v.64l.37.11c.13.04.21.08.26.13.05.05.07.12.07.22,0,.1-.04.19-.11.26-.07.07-.18.1-.31.1h-1.67c-.13,0-.23-.04-.31-.1-.07-.07-.11-.15-.11-.26,0-.1.02-.17.06-.22s.12-.09.23-.13l.35-.11v-4.56Zm1.17,2.52s.1.06.16.09c.06.02.12.04.2.06.08.01.17.02.28.02.32,0,.57-.11.76-.33.19-.22.28-.59.28-1.11,0-.47-.08-.81-.25-1.01-.17-.2-.38-.3-.63-.3-.13,0-.25.02-.35.06s-.18.09-.25.14c-.08.06-.15.13-.21.2v2.19Z"/><path class="cls-2" d="m106.57,196.1c.04.39.17.69.38.89.21.2.52.3.91.3.13,0,.24,0,.34-.03.09-.02.18-.03.25-.05.07-.02.13-.04.19-.05.05-.02.11-.03.16-.03.09,0,.16.03.21.08.05.05.08.13.08.23,0,.06,0,.11-.03.15s-.05.09-.1.14c-.1.1-.26.19-.5.27-.24.09-.54.13-.92.13-.34,0-.64-.05-.91-.14-.27-.09-.49-.23-.67-.41-.18-.18-.32-.4-.41-.67-.09-.26-.14-.56-.14-.9,0-.37.05-.69.16-.98s.25-.53.44-.73c.19-.2.42-.35.68-.46s.55-.16.88-.16c.54,0,.96.15,1.26.46.3.3.45.74.45,1.31,0,.22-.05.38-.15.49s-.25.16-.44.16h-2.1Zm1.55-.66c-.01-.34-.08-.58-.21-.73-.13-.15-.3-.22-.5-.22-.22,0-.41.08-.55.25s-.23.4-.27.7h1.54Z"/><path class="cls-2" d="m109.97,196.04c0-.35.06-.68.17-.97.11-.29.27-.54.47-.74.2-.21.45-.37.73-.48.28-.11.6-.17.94-.17.65,0,1.15.18,1.52.55s.55.89.55,1.56c0,.35-.05.68-.16.96-.11.29-.26.54-.46.74-.2.21-.44.36-.73.48-.29.11-.61.17-.96.17-.65,0-1.15-.18-1.52-.55s-.55-.89-.55-1.56Zm1.2-.14c0,.24.03.45.08.63.05.18.13.33.21.45s.19.21.32.26c.12.06.25.09.39.09.27,0,.5-.11.69-.33.19-.22.28-.57.28-1.06,0-.24-.03-.45-.08-.63-.05-.18-.13-.33-.21-.45-.09-.12-.19-.2-.32-.26-.12-.06-.25-.09-.39-.09-.27,0-.5.11-.69.33-.19.22-.28.57-.28,1.06Z"/><path class="cls-2" d="m115.44,194.64l-.34-.08c-.11-.03-.2-.07-.24-.12s-.07-.13-.07-.23c0-.1.02-.18.07-.24.05-.05.13-.1.24-.13.05-.02.11-.03.18-.05.07-.01.14-.03.21-.04.07-.01.14-.02.22-.03s.15,0,.21,0c.21,0,.35.04.44.13s.13.23.13.43v.11h.02c.07-.12.16-.24.28-.34.1-.09.24-.17.41-.24.17-.07.38-.11.64-.11.5,0,.91.17,1.21.5.3.33.46.85.46,1.55,0,.38-.05.71-.16,1.01-.11.3-.27.55-.47.75s-.46.36-.76.47c-.3.11-.64.16-1.03.16-.07,0-.13,0-.19,0-.06,0-.11,0-.15-.02-.05,0-.09-.01-.13-.03l-.02.02c0,.06.01.13.01.19,0,.07,0,.15,0,.25v.64l.37.11c.13.04.21.08.26.13.05.05.07.12.07.22,0,.1-.04.19-.11.26-.07.07-.18.1-.31.1h-1.67c-.13,0-.23-.04-.31-.1-.07-.07-.11-.15-.11-.26,0-.1.02-.17.06-.22s.12-.09.23-.13l.35-.11v-4.56Zm1.17,2.52s.1.06.16.09c.06.02.12.04.2.06.08.01.17.02.28.02.32,0,.57-.11.76-.33.19-.22.28-.59.28-1.11,0-.47-.08-.81-.25-1.01-.17-.2-.38-.3-.63-.3-.13,0-.25.02-.35.06s-.18.09-.25.14c-.08.06-.15.13-.21.2v2.19Z"/><path class="cls-2" d="m120.6,192.74l-.34-.08c-.11-.03-.2-.07-.24-.12-.05-.05-.07-.13-.07-.23,0-.1.02-.18.07-.24.05-.05.13-.1.24-.13.1-.03.23-.06.39-.08.16-.03.31-.04.45-.04.26,0,.43.05.53.14.09.09.14.27.14.53v4.74l.33.1c.12.04.2.09.25.14.05.05.07.13.07.22,0,.1-.04.19-.11.26-.07.07-.18.1-.31.1h-1.61c-.13,0-.23-.03-.31-.1-.07-.07-.11-.16-.11-.26s.02-.17.06-.22c.04-.05.12-.09.23-.13l.35-.11v-4.49Z"/><path class="cls-2" d="m124.03,196.1c.04.39.17.69.38.89.21.2.52.3.91.3.13,0,.24,0,.34-.03.09-.02.18-.03.25-.05.07-.02.13-.04.19-.05.05-.02.11-.03.16-.03.09,0,.16.03.21.08.05.05.08.13.08.23,0,.06,0,.11-.03.15s-.05.09-.1.14c-.1.1-.26.19-.5.27-.24.09-.54.13-.92.13-.34,0-.64-.05-.91-.14-.27-.09-.49-.23-.67-.41-.18-.18-.32-.4-.41-.67-.09-.26-.14-.56-.14-.9,0-.37.05-.69.16-.98s.25-.53.44-.73c.19-.2.42-.35.68-.46s.55-.16.88-.16c.54,0,.96.15,1.26.46.3.3.45.74.45,1.31,0,.22-.05.38-.15.49s-.25.16-.44.16h-2.1Zm1.55-.66c-.01-.34-.08-.58-.21-.73-.13-.15-.3-.22-.5-.22-.22,0-.41.08-.55.25s-.23.4-.27.7h1.54Z"/><path class="cls-2" d="m127.48,197.4c0-.22.07-.4.21-.54s.33-.22.55-.22.41.08.54.23.2.37.2.65c0,.2-.03.4-.1.6-.07.2-.15.38-.26.55s-.22.32-.34.45c-.12.13-.24.23-.34.3-.06.04-.13.07-.19.09-.07.02-.14.03-.21.02-.07,0-.13-.03-.18-.07-.05-.04-.08-.11-.08-.19,0-.07.02-.13.07-.19.05-.06.1-.13.17-.21.07-.08.13-.18.21-.3.07-.12.13-.28.18-.46-.06-.02-.11-.06-.16-.1-.05-.04-.1-.09-.14-.15-.04-.06-.07-.12-.09-.19-.02-.07-.03-.15-.03-.25Z"/><path class="cls-2" d="m132.59,194.64l-.39-.09c-.11-.03-.2-.07-.24-.12-.05-.05-.07-.12-.07-.22,0-.1.02-.18.07-.24.05-.05.13-.1.24-.13.12-.03.26-.06.41-.09.15-.02.31-.03.48-.03.26,0,.43.05.53.14.09.09.14.27.14.53v2.84l.35.1c.11.03.18.07.23.12s.06.12.06.21c0,.11-.04.21-.12.28s-.18.11-.31.11h-1.66c-.13,0-.23-.03-.31-.1-.07-.07-.11-.16-.11-.26s.02-.17.07-.22.13-.09.26-.13l.37-.11v-2.59Zm-.15-2.02c0-.21.07-.38.21-.51.14-.14.31-.21.51-.21s.38.07.51.2c.13.13.2.3.2.51s-.07.38-.21.52c-.14.14-.31.21-.52.21s-.37-.07-.51-.2c-.13-.13-.2-.3-.2-.51Z"/><path class="cls-2" d="m135.25,194.58h-.29c-.26,0-.39-.11-.39-.34,0-.14.04-.25.12-.33.08-.08.2-.12.36-.12h.23l.15-.61c.05-.19.11-.33.2-.41s.22-.13.38-.13c.13,0,.23.03.3.1.07.07.1.16.1.29v.76h.74c.26,0,.39.12.39.34,0,.14-.04.25-.12.33s-.2.12-.36.12h-.64v1.95c0,.27.04.47.12.58.08.11.19.16.34.16.11,0,.19,0,.26-.03.06-.02.13-.03.19-.03.08,0,.14.02.19.07.05.05.07.12.07.21,0,.06-.01.12-.04.18-.03.05-.06.1-.11.15-.05.05-.16.11-.31.18-.16.07-.38.1-.67.1-.44,0-.75-.12-.94-.36s-.27-.56-.27-.97v-2.2Z"/><path class="cls-2" d="m140.58,194.58h-.29c-.26,0-.39-.11-.39-.34,0-.14.04-.25.12-.33.08-.08.2-.12.36-.12h.23l.15-.61c.05-.19.11-.33.2-.41s.22-.13.38-.13c.13,0,.23.03.3.1.07.07.1.16.1.29v.76h.74c.26,0,.39.12.39.34,0,.14-.04.25-.12.33s-.2.12-.36.12h-.64v1.95c0,.27.04.47.12.58.08.11.19.16.34.16.11,0,.19,0,.26-.03.06-.02.13-.03.19-.03.08,0,.14.02.19.07.05.05.07.12.07.21,0,.06-.01.12-.04.18-.03.05-.06.1-.11.15-.05.05-.16.11-.31.18-.16.07-.38.1-.67.1-.44,0-.75-.12-.94-.36s-.27-.56-.27-.97v-2.2Z"/><path class="cls-2" d="m145.92,195.45c0-.34-.06-.58-.18-.71s-.33-.2-.63-.2c-.17,0-.31,0-.43.03-.12.02-.23.04-.32.06-.09.02-.17.04-.24.06-.07.02-.12.03-.18.03-.1,0-.18-.03-.24-.09-.06-.06-.09-.15-.09-.25,0-.09.04-.17.11-.25.05-.05.13-.1.23-.16.1-.05.23-.1.37-.14.15-.04.31-.08.49-.11.18-.03.37-.04.58-.04.61,0,1.05.12,1.3.36.26.24.39.61.39,1.12,0,.34,0,.67,0,.98,0,.32,0,.67.03,1.07l.33.05c.11.02.19.05.24.11.05.05.07.13.07.23s-.03.17-.08.23c-.05.05-.13.1-.24.14-.11.04-.24.07-.38.1s-.29.04-.45.04c-.2,0-.35-.05-.44-.14-.09-.09-.14-.23-.14-.42v-.04h-.02c-.07.11-.16.22-.27.31-.1.08-.23.15-.39.22s-.36.1-.59.1c-.21,0-.4-.03-.57-.1-.17-.07-.32-.15-.44-.27-.12-.11-.22-.24-.28-.4s-.1-.32-.1-.49.04-.33.12-.48c.08-.15.19-.28.35-.38.16-.11.36-.19.6-.25.24-.06.53-.09.86-.09.09,0,.17,0,.25,0,.07,0,.14.01.2.02.06,0,.12.01.18.02v-.27Zm0,.94s-.09-.01-.14-.03c-.05,0-.1-.01-.17-.02-.07,0-.14,0-.22,0-.29,0-.5.04-.63.12-.13.08-.19.19-.19.33s.05.25.16.35c.11.1.25.15.44.15.12,0,.23-.02.32-.05.09-.03.17-.07.23-.11.07-.05.14-.1.2-.15v-.58Z"/><path class="cls-2" d="m148.57,192.74l-.34-.08c-.11-.03-.2-.07-.24-.12-.05-.05-.07-.13-.07-.23,0-.1.02-.18.07-.24.05-.05.13-.1.24-.13.1-.03.23-.06.39-.08.16-.03.31-.04.45-.04.26,0,.43.05.53.14.09.09.14.27.14.53v3.17l1.18-1.11-.15-.08c-.09-.05-.15-.11-.19-.17-.03-.06-.05-.13-.05-.21,0-.09.03-.16.09-.22s.15-.08.27-.08h1.48c.12,0,.21.03.27.09.06.06.09.13.09.22,0,.1-.03.19-.09.25-.06.07-.15.13-.28.18l-.22.09-1.19,1.04.47.61c.1.14.2.26.3.37.1.11.2.21.3.3s.2.17.3.24c.1.07.2.14.3.19.08.05.13.09.16.13.03.04.04.09.04.15,0,.12-.06.23-.18.32-.12.09-.3.14-.53.14-.14,0-.27-.02-.4-.05s-.25-.09-.36-.16-.23-.17-.35-.28c-.11-.12-.23-.26-.34-.43l-.93-1.32v1.37l.15.07c.13.06.22.12.25.17.04.05.06.13.06.22,0,.1-.04.19-.12.26-.08.07-.19.1-.32.1h-1.41c-.13,0-.23-.03-.31-.1-.07-.07-.11-.16-.11-.26s.02-.17.06-.22c.04-.05.12-.09.23-.13l.35-.11v-4.49Z"/><path class="cls-2" d="m154.31,196.1c.04.39.17.69.38.89.21.2.52.3.91.3.13,0,.24,0,.34-.03.09-.02.18-.03.25-.05.07-.02.13-.04.19-.05.05-.02.11-.03.16-.03.09,0,.16.03.21.08.05.05.08.13.08.23,0,.06,0,.11-.03.15s-.05.09-.1.14c-.1.1-.26.19-.5.27-.24.09-.54.13-.92.13-.34,0-.64-.05-.91-.14-.27-.09-.49-.23-.67-.41-.18-.18-.32-.4-.41-.67-.09-.26-.14-.56-.14-.9,0-.37.05-.69.16-.98s.25-.53.44-.73c.19-.2.42-.35.68-.46s.55-.16.88-.16c.54,0,.96.15,1.26.46.3.3.45.74.45,1.31,0,.22-.05.38-.15.49s-.25.16-.44.16h-2.1Zm1.55-.66c-.01-.34-.08-.58-.21-.73-.13-.15-.3-.22-.5-.22-.22,0-.41.08-.55.25s-.23.4-.27.7h1.54Z"/><path class="cls-2" d="m158.65,197.27c.05.02.11.04.17.06.06.01.13.02.21.03.08.01.18.02.28.02.26,0,.44-.04.54-.12s.15-.19.15-.32-.05-.23-.16-.3c-.11-.07-.24-.14-.41-.2-.16-.06-.34-.12-.53-.19-.19-.07-.37-.15-.53-.25-.16-.1-.3-.23-.41-.39-.11-.16-.16-.36-.16-.61,0-.18.04-.35.11-.51.07-.16.19-.3.34-.42.15-.12.35-.21.58-.28.23-.07.51-.1.83-.1.34,0,.6.03.78.09.18.06.29.11.35.17.05.05.08.1.1.16.02.06.03.16.03.28v.22c0,.06,0,.12,0,.18-.01.11-.05.19-.11.24-.06.05-.14.08-.24.08s-.17-.03-.23-.08c-.05-.05-.1-.13-.14-.24l-.09-.25c-.05-.01-.11-.03-.17-.04-.05-.01-.11-.02-.18-.03-.07-.01-.15-.02-.24-.02-.24,0-.4.03-.48.1-.08.07-.12.16-.12.28s.05.21.16.28c.11.07.24.14.41.19s.34.12.53.18c.19.07.37.15.53.26.16.11.3.24.41.4.11.16.16.37.16.63,0,.19-.04.37-.12.53-.08.17-.2.31-.36.43-.16.12-.36.22-.61.3-.25.07-.54.11-.87.11-.37,0-.64-.03-.83-.09-.19-.06-.31-.12-.37-.18-.05-.04-.08-.1-.1-.16-.02-.06-.03-.16-.03-.28v-.24c0-.06,0-.12,0-.18.01-.11.05-.19.11-.24.06-.05.14-.08.24-.08s.17.03.23.08c.05.05.1.13.14.24l.09.27Z"/></g><g class="cls-1"><path class="cls-2" d="m21.52,207.07c.04.39.17.69.38.89.21.2.52.3.91.3.13,0,.24,0,.34-.03.09-.02.18-.03.25-.05.07-.02.13-.04.19-.05.05-.02.11-.03.16-.03.09,0,.16.03.21.08.05.05.08.13.08.23,0,.06,0,.11-.03.15s-.05.09-.1.14c-.1.1-.26.19-.5.27-.24.09-.54.13-.92.13-.34,0-.64-.05-.91-.14-.27-.09-.49-.23-.67-.41-.18-.18-.32-.4-.41-.67-.09-.26-.14-.56-.14-.9,0-.37.05-.69.16-.98s.25-.53.44-.73c.19-.2.42-.35.68-.46s.55-.16.88-.16c.54,0,.96.15,1.26.46.3.3.45.74.45,1.31,0,.22-.05.38-.15.49s-.25.16-.44.16h-2.1Zm1.55-.66c-.01-.34-.08-.58-.21-.73-.13-.15-.3-.22-.5-.22-.22,0-.41.08-.55.25s-.23.4-.27.7h1.54Z"/><path class="cls-2" d="m25.46,205.6l-.39-.09c-.11-.03-.2-.07-.24-.12-.05-.05-.07-.12-.07-.22,0-.1.02-.18.07-.24.05-.05.13-.1.24-.13.12-.03.26-.06.41-.09.15-.02.31-.03.48-.03.26,0,.43.05.53.14.09.09.14.27.14.53v2.84l.35.1c.11.03.18.07.23.12s.06.12.06.21c0,.11-.04.21-.12.28s-.18.11-.31.11h-1.66c-.13,0-.23-.03-.31-.1-.07-.07-.11-.16-.11-.26s.02-.17.07-.22.13-.09.26-.13l.37-.11v-2.59Zm-.15-2.02c0-.21.07-.38.21-.51.14-.14.31-.21.51-.21s.38.07.51.2c.13.13.2.3.2.51s-.07.38-.21.52c-.14.14-.31.21-.52.21s-.37-.07-.51-.2c-.13-.13-.2-.3-.2-.51Z"/><path class="cls-2" d="m30.13,208.25c.61,0,1.05.11,1.3.33s.39.51.39.87c0,.21-.05.41-.15.6s-.25.37-.45.52-.44.28-.73.37c-.29.09-.62.14-1,.14-.34,0-.63-.03-.87-.09-.24-.06-.44-.15-.59-.26-.15-.11-.26-.24-.33-.39-.07-.15-.11-.31-.11-.48,0-.12.02-.22.06-.33.04-.1.09-.2.15-.28.06-.09.14-.16.22-.23.08-.07.17-.13.27-.18-.09-.06-.17-.14-.22-.24-.06-.09-.09-.22-.09-.37,0-.08.01-.16.03-.24s.06-.15.1-.22.09-.13.15-.19c.06-.06.12-.11.19-.15-.17-.1-.31-.24-.42-.43-.11-.19-.17-.42-.17-.7,0-.23.04-.45.13-.65.09-.2.21-.37.38-.52.17-.15.37-.26.61-.34s.52-.12.82-.12c.11,0,.2,0,.29.01s.15.02.21.03c.06.02.12.03.16.04.16-.26.31-.46.46-.61s.3-.23.48-.23c.13,0,.24.04.33.12.09.08.13.18.13.3,0,.09-.02.16-.07.22-.05.06-.11.12-.18.17-.07.05-.16.11-.24.16-.09.06-.18.13-.27.21.11.1.21.23.28.39.07.17.11.36.11.58,0,.23-.04.45-.13.65-.09.2-.21.37-.38.52-.17.15-.37.26-.61.34s-.51.12-.82.12c-.06,0-.13,0-.19,0-.06,0-.12,0-.16-.01-.06,0-.11-.01-.16-.03-.02.02-.03.05-.04.07-.01.02-.02.05-.03.09,0,.03-.01.07-.01.11,0,.05.01.1.03.14s.06.07.12.1c.06.03.13.05.23.07.09.02.22.03.37.03h.43Zm-.57.84c-.1,0-.19,0-.27,0s-.15,0-.21-.02c-.06,0-.12-.01-.16-.03-.04.04-.07.1-.1.16-.03.05-.05.11-.07.18-.02.07-.03.15-.03.23,0,.2.07.36.22.48.15.12.4.18.75.18.32,0,.56-.07.73-.21.16-.14.24-.3.24-.48,0-.16-.05-.28-.16-.37-.11-.09-.3-.13-.59-.13h-.35Zm-.52-2.93c0,.21.06.39.19.51s.28.19.47.19.33-.06.46-.18c.12-.12.18-.29.18-.5s-.06-.39-.19-.51c-.13-.13-.28-.19-.47-.19s-.33.06-.45.18c-.12.12-.18.29-.18.5Z"/><path class="cls-2" d="m32.71,203.71l-.34-.08c-.11-.03-.2-.07-.24-.12-.05-.05-.07-.13-.07-.23,0-.1.02-.18.07-.24.05-.05.13-.1.24-.13.1-.03.23-.06.39-.08.16-.03.31-.04.45-.04.26,0,.43.05.53.14.09.09.14.27.14.53v1.07c0,.11,0,.23-.02.36-.01.13-.03.25-.04.36h.02c.07-.1.17-.2.28-.29.1-.07.23-.14.39-.21.16-.06.36-.09.6-.09.5,0,.88.14,1.15.42.27.28.4.69.4,1.23v1.89l.33.1c.12.04.2.09.25.14.05.05.07.13.07.22,0,.1-.04.19-.11.26-.07.07-.18.1-.31.1h-1.6c-.13,0-.23-.03-.31-.1-.07-.07-.11-.16-.11-.26s.02-.17.07-.22c.05-.05.13-.1.25-.14l.31-.1v-1.61c0-.38-.07-.65-.21-.81-.14-.16-.34-.24-.6-.24-.13,0-.25.02-.35.06s-.18.09-.25.14c-.08.06-.15.13-.21.2v2.26l.31.1c.12.04.2.09.25.14.05.05.07.13.07.22,0,.1-.04.19-.11.26-.07.07-.18.1-.31.1h-1.6c-.13,0-.23-.03-.31-.1-.07-.07-.11-.16-.11-.26s.02-.17.06-.22c.04-.05.12-.09.23-.13l.35-.11v-4.49Z"/><path class="cls-2" d="m38.11,205.54h-.29c-.26,0-.39-.11-.39-.34,0-.14.04-.25.12-.33.08-.08.2-.12.36-.12h.23l.15-.61c.05-.19.11-.33.2-.41s.22-.13.38-.13c.13,0,.23.03.3.1.07.07.1.16.1.29v.76h.74c.26,0,.39.12.39.34,0,.14-.04.25-.12.33s-.2.12-.36.12h-.64v1.95c0,.27.04.47.12.58.08.11.19.16.34.16.11,0,.19,0,.26-.03.06-.02.13-.03.19-.03.08,0,.14.02.19.07.05.05.07.12.07.21,0,.06-.01.12-.04.18-.03.05-.06.1-.11.15-.05.05-.16.11-.31.18-.16.07-.38.1-.67.1-.44,0-.75-.12-.94-.36s-.27-.56-.27-.97v-2.2Z"/><path class="cls-2" d="m43.29,205.57l-.15-.06c-.13-.05-.22-.12-.27-.19-.05-.07-.08-.16-.08-.27,0-.09.03-.17.09-.22.06-.06.15-.09.27-.09h1.47c.12,0,.21.03.27.09.06.06.09.13.09.22,0,.1-.03.18-.08.24-.05.06-.15.13-.28.19l-.15.07.46,1.61c.03.11.06.21.09.32.03.1.05.19.07.27.02.1.04.19.05.27h.02c.01-.09.03-.18.04-.28.01-.08.03-.17.04-.27.02-.1.04-.21.07-.31l.4-1.73c.06-.27.16-.46.29-.57.13-.11.31-.16.55-.16s.41.05.54.15c.13.1.22.29.29.56l.41,1.75c.03.11.05.22.07.33.02.1.03.19.04.27.02.09.03.18.04.26h.02c.01-.08.03-.16.05-.26.02-.08.04-.17.06-.27.03-.1.06-.21.09-.33l.46-1.61-.15-.07c-.14-.06-.23-.13-.28-.19-.05-.06-.08-.14-.08-.24,0-.09.03-.17.09-.22.06-.06.15-.09.27-.09h1.23c.12,0,.21.03.27.09.06.06.09.13.09.22,0,.1-.03.19-.08.27-.05.07-.14.14-.27.19l-.15.06-.91,2.79c-.09.27-.2.45-.32.55-.12.1-.3.15-.53.15s-.41-.05-.53-.15c-.13-.1-.22-.28-.28-.56l-.44-1.85c-.03-.1-.05-.2-.07-.3-.02-.1-.03-.19-.04-.27-.02-.09-.03-.17-.03-.25h-.02c0,.07-.02.16-.03.25-.01.08-.03.17-.04.27-.02.1-.04.2-.07.31l-.44,1.84c-.06.28-.16.46-.29.56-.13.1-.3.15-.5.15-.13,0-.23-.01-.32-.03-.09-.02-.17-.06-.24-.12-.07-.05-.13-.13-.18-.21-.05-.09-.1-.2-.14-.34l-.9-2.79Z"/><path class="cls-2" d="m50.37,207c0-.35.06-.68.17-.97.11-.29.27-.54.47-.74.2-.21.45-.37.73-.48.28-.11.6-.17.94-.17.65,0,1.15.18,1.52.55s.55.89.55,1.56c0,.35-.05.68-.16.96-.11.29-.26.54-.46.74-.2.21-.44.36-.73.48-.29.11-.61.17-.96.17-.65,0-1.15-.18-1.52-.55s-.55-.89-.55-1.56Zm1.2-.14c0,.24.03.45.08.63.05.18.13.33.21.45s.19.21.32.26c.12.06.25.09.39.09.27,0,.5-.11.69-.33.19-.22.28-.57.28-1.06,0-.24-.03-.45-.08-.63-.05-.18-.13-.33-.21-.45-.09-.12-.19-.2-.32-.26-.12-.06-.25-.09-.39-.09-.27,0-.5.11-.69.33-.19.22-.28.57-.28,1.06Z"/><path class="cls-2" d="m55.97,205.6l-.39-.09c-.11-.03-.2-.07-.24-.12-.05-.05-.07-.12-.07-.22,0-.1.02-.18.07-.24.05-.05.13-.1.24-.13.12-.03.26-.06.41-.09.15-.02.3-.03.45-.03.22,0,.37.04.45.13s.13.23.13.43v.11h.02c.06-.12.15-.24.27-.34.1-.09.23-.17.4-.24.17-.07.38-.11.63-.11.33,0,.6.06.82.18s.39.3.52.54c.08-.14.18-.26.31-.36.11-.09.25-.18.42-.25s.39-.12.66-.12c.49,0,.86.14,1.13.42s.4.69.4,1.23v1.89l.33.1c.12.04.2.09.25.14.05.05.07.13.07.22,0,.1-.04.19-.11.26-.07.07-.18.1-.31.1h-1.57c-.13,0-.23-.03-.31-.1-.07-.07-.11-.16-.11-.26s.02-.17.07-.22.13-.1.25-.14l.28-.1v-1.61c0-.38-.07-.65-.2-.81-.13-.16-.33-.24-.58-.24-.13,0-.25.02-.34.07-.1.05-.18.09-.25.15-.08.06-.15.13-.21.21,0,.03,0,.06,0,.09,0,.03,0,.06,0,.11s0,.09,0,.14v1.89l.28.1c.12.05.2.09.25.14.05.05.07.12.07.22,0,.1-.04.19-.11.26-.07.07-.18.1-.31.1h-1.53c-.13,0-.23-.03-.31-.1-.07-.07-.11-.16-.11-.26s.02-.17.07-.22.13-.1.25-.14l.28-.1v-1.61c0-.38-.07-.65-.2-.81-.13-.16-.33-.24-.58-.24-.13,0-.24.02-.33.06-.1.04-.18.09-.24.14-.08.06-.15.13-.21.2v2.26l.28.1c.12.05.2.09.25.14.05.05.07.12.07.22,0,.1-.04.19-.11.26-.07.07-.18.1-.31.1h-1.62c-.13,0-.23-.03-.31-.1-.07-.07-.11-.16-.11-.26s.02-.17.07-.22.13-.09.26-.13l.37-.11v-2.59Z"/><path class="cls-2" d="m66.25,206.42c0-.34-.06-.58-.18-.71s-.33-.2-.63-.2c-.17,0-.31,0-.43.03-.12.02-.23.04-.32.06-.09.02-.17.04-.24.06-.07.02-.12.03-.18.03-.1,0-.18-.03-.24-.09-.06-.06-.09-.15-.09-.25,0-.09.04-.17.11-.25.05-.05.13-.1.23-.16.1-.05.23-.1.37-.14.15-.04.31-.08.49-.11.18-.03.37-.04.58-.04.61,0,1.05.12,1.3.36.26.24.39.61.39,1.12,0,.34,0,.67,0,.98,0,.32,0,.67.03,1.07l.33.05c.11.02.19.05.24.11.05.05.07.13.07.23s-.03.17-.08.23c-.05.05-.13.1-.24.14-.11.04-.24.07-.38.1s-.29.04-.45.04c-.2,0-.35-.05-.44-.14-.09-.09-.14-.23-.14-.42v-.04h-.02c-.07.11-.16.22-.27.31-.1.08-.23.15-.39.22s-.36.1-.59.1c-.21,0-.4-.03-.57-.1-.17-.07-.32-.15-.44-.27-.12-.11-.22-.24-.28-.4s-.1-.32-.1-.49.04-.33.12-.48c.08-.15.19-.28.35-.38.16-.11.36-.19.6-.25.24-.06.53-.09.86-.09.09,0,.17,0,.25,0,.07,0,.14.01.2.02.06,0,.12.01.18.02v-.27Zm0,.94s-.09-.01-.14-.03c-.05,0-.1-.01-.17-.02-.07,0-.14,0-.22,0-.29,0-.5.04-.63.12-.13.08-.19.19-.19.33s.05.25.16.35c.11.1.25.15.44.15.12,0,.23-.02.32-.05.09-.03.17-.07.23-.11.07-.05.14-.1.2-.15v-.58Z"/><path class="cls-2" d="m69.03,205.6l-.39-.09c-.11-.03-.2-.07-.24-.12-.05-.05-.07-.12-.07-.22,0-.1.02-.18.07-.24.05-.05.13-.1.24-.13.12-.03.26-.06.41-.09.15-.02.3-.03.45-.03.22,0,.37.04.45.13s.13.23.13.43v.11h.02c.07-.12.16-.24.28-.34.1-.09.24-.17.41-.24.17-.07.38-.11.64-.11.5,0,.88.14,1.15.42.27.28.4.69.4,1.23v1.89l.33.1c.12.04.2.09.25.14.05.05.07.13.07.22,0,.1-.04.19-.11.26-.07.07-.18.1-.31.1h-1.6c-.13,0-.23-.03-.31-.1-.07-.07-.11-.16-.11-.26s.02-.17.07-.22c.05-.05.13-.1.25-.14l.31-.1v-1.61c0-.38-.07-.65-.21-.81-.14-.16-.34-.24-.6-.24-.13,0-.25.02-.35.06s-.18.09-.25.14c-.08.06-.15.13-.21.2v2.26l.31.1c.12.04.2.09.25.14.05.05.07.13.07.22,0,.1-.04.19-.11.26-.07.07-.18.1-.31.1h-1.65c-.13,0-.23-.03-.31-.1-.07-.07-.11-.16-.11-.26s.02-.17.07-.22.13-.09.26-.13l.37-.11v-2.59Z"/><path class="cls-2" d="m78.96,205.54h-.33c-.26,0-.39-.11-.39-.34,0-.14.04-.25.12-.33s.2-.12.36-.12h.23v-.2c0-.57.16-1.01.47-1.33.31-.31.77-.47,1.36-.47.17,0,.31.02.44.05s.21.07.27.12c.02.02.04.05.06.07.01.02.03.05.04.09.01.04.02.09.03.15,0,.06,0,.14,0,.23v.22s0,.12,0,.21c0,.11-.04.19-.09.24-.06.05-.13.08-.23.08s-.17-.03-.23-.08c-.06-.05-.11-.14-.15-.25l-.1-.31s-.03,0-.04,0-.04,0-.06-.01-.05,0-.08,0c-.17,0-.29.05-.38.15-.09.1-.13.27-.13.52v.53h.61c.26,0,.39.12.39.34,0,.14-.04.25-.12.33-.08.08-.2.12-.36.12h-.51v2.65l.41.11c.13.03.21.08.26.13.05.05.07.13.07.22,0,.1-.04.19-.11.26-.07.07-.18.1-.31.1h-1.76c-.13,0-.23-.03-.31-.1-.07-.07-.11-.16-.11-.26s.02-.17.07-.22.13-.09.26-.13l.37-.11v-2.65Z"/><path class="cls-2" d="m81.49,207c0-.35.06-.68.17-.97.11-.29.27-.54.47-.74.2-.21.45-.37.73-.48.28-.11.6-.17.94-.17.65,0,1.15.18,1.52.55s.55.89.55,1.56c0,.35-.05.68-.16.96-.11.29-.26.54-.46.74-.2.21-.44.36-.73.48-.29.11-.61.17-.96.17-.65,0-1.15-.18-1.52-.55s-.55-.89-.55-1.56Zm1.2-.14c0,.24.03.45.08.63.05.18.13.33.21.45s.19.21.32.26c.12.06.25.09.39.09.27,0,.5-.11.69-.33.19-.22.28-.57.28-1.06,0-.24-.03-.45-.08-.63-.05-.18-.13-.33-.21-.45-.09-.12-.19-.2-.32-.26-.12-.06-.25-.09-.39-.09-.27,0-.5.11-.69.33-.19.22-.28.57-.28,1.06Z"/><path class="cls-2" d="m87.09,205.6l-.39-.09c-.11-.03-.2-.07-.24-.12-.05-.05-.07-.12-.07-.22,0-.1.02-.18.07-.24.05-.05.13-.1.24-.13.12-.03.26-.06.41-.09.15-.02.3-.03.45-.03.22,0,.37.04.45.13s.13.23.13.43v.24h.02c.06-.12.13-.24.21-.35.08-.11.17-.2.27-.27.1-.07.21-.13.32-.17.11-.04.23-.06.36-.06.15,0,.26.04.34.12s.12.19.12.34c0,.13-.01.24-.04.33s-.06.17-.1.24c-.04.06-.09.11-.14.14-.05.03-.1.05-.15.05-.04,0-.08,0-.11-.02-.03-.01-.06-.02-.09-.04-.03-.01-.06-.02-.09-.03-.03-.01-.07-.02-.12-.02-.12,0-.24.03-.35.08s-.22.14-.32.27v2.1l.41.11c.13.03.21.08.26.13.05.05.07.13.07.22,0,.1-.04.19-.11.26-.07.07-.18.1-.31.1h-1.76c-.13,0-.23-.03-.31-.1-.07-.07-.11-.16-.11-.26s.02-.17.07-.22.13-.09.26-.13l.37-.11v-2.59Z"/><path class="cls-2" d="m92.78,205.54h-.29c-.26,0-.39-.11-.39-.34,0-.14.04-.25.12-.33.08-.08.2-.12.36-.12h.23l.15-.61c.05-.19.11-.33.2-.41s.22-.13.38-.13c.13,0,.23.03.3.1.07.07.1.16.1.29v.76h.74c.26,0,.39.12.39.34,0,.14-.04.25-.12.33s-.2.12-.36.12h-.64v1.95c0,.27.04.47.12.58.08.11.19.16.34.16.11,0,.19,0,.26-.03.06-.02.13-.03.19-.03.08,0,.14.02.19.07.05.05.07.12.07.21,0,.06-.01.12-.04.18-.03.05-.06.1-.11.15-.05.05-.16.11-.31.18-.16.07-.38.1-.67.1-.44,0-.75-.12-.94-.36s-.27-.56-.27-.97v-2.2Z"/><path class="cls-2" d="m95.96,203.71l-.34-.08c-.11-.03-.2-.07-.24-.12-.05-.05-.07-.13-.07-.23,0-.1.02-.18.07-.24.05-.05.13-.1.24-.13.1-.03.23-.06.39-.08.16-.03.31-.04.45-.04.26,0,.43.05.53.14.09.09.14.27.14.53v1.07c0,.11,0,.23-.02.36-.01.13-.03.25-.04.36h.02c.07-.1.17-.2.28-.29.1-.07.23-.14.39-.21.16-.06.36-.09.6-.09.5,0,.88.14,1.15.42.27.28.4.69.4,1.23v1.89l.33.1c.12.04.2.09.25.14.05.05.07.13.07.22,0,.1-.04.19-.11.26-.07.07-.18.1-.31.1h-1.6c-.13,0-.23-.03-.31-.1-.07-.07-.11-.16-.11-.26s.02-.17.07-.22c.05-.05.13-.1.25-.14l.31-.1v-1.61c0-.38-.07-.65-.21-.81-.14-.16-.34-.24-.6-.24-.13,0-.25.02-.35.06s-.18.09-.25.14c-.08.06-.15.13-.21.2v2.26l.31.1c.12.04.2.09.25.14.05.05.07.13.07.22,0,.1-.04.19-.11.26-.07.07-.18.1-.31.1h-1.6c-.13,0-.23-.03-.31-.1-.07-.07-.11-.16-.11-.26s.02-.17.06-.22c.04-.05.12-.09.23-.13l.35-.11v-4.49Z"/><path class="cls-2" d="m102.15,207.07c.04.39.17.69.38.89.21.2.52.3.91.3.13,0,.24,0,.34-.03.09-.02.18-.03.25-.05.07-.02.13-.04.19-.05.05-.02.11-.03.16-.03.09,0,.16.03.21.08.05.05.08.13.08.23,0,.06,0,.11-.03.15s-.05.09-.1.14c-.1.1-.26.19-.5.27-.24.09-.54.13-.92.13-.34,0-.64-.05-.91-.14-.27-.09-.49-.23-.67-.41-.18-.18-.32-.4-.41-.67-.09-.26-.14-.56-.14-.9,0-.37.05-.69.16-.98s.25-.53.44-.73c.19-.2.42-.35.68-.46s.55-.16.88-.16c.54,0,.96.15,1.26.46.3.3.45.74.45,1.31,0,.22-.05.38-.15.49s-.25.16-.44.16h-2.1Zm1.55-.66c-.01-.34-.08-.58-.21-.73-.13-.15-.3-.22-.5-.22-.22,0-.41.08-.55.25s-.23.4-.27.7h1.54Z"/><path class="cls-2" d="m106.08,205.6l-.39-.09c-.11-.03-.2-.07-.24-.12-.05-.05-.07-.12-.07-.22,0-.1.02-.18.07-.24.05-.05.13-.1.24-.13.12-.03.26-.06.41-.09.15-.02.31-.03.48-.03.26,0,.43.05.53.14.09.09.14.27.14.53v2.84l.35.1c.11.03.18.07.23.12s.06.12.06.21c0,.11-.04.21-.12.28s-.18.11-.31.11h-1.66c-.13,0-.23-.03-.31-.1-.07-.07-.11-.16-.11-.26s.02-.17.07-.22.13-.09.26-.13l.37-.11v-2.59Zm-.15-2.02c0-.21.07-.38.21-.51.14-.14.31-.21.51-.21s.38.07.51.2c.13.13.2.3.2.51s-.07.38-.21.52c-.14.14-.31.21-.52.21s-.37-.07-.51-.2c-.13-.13-.2-.3-.2-.51Z"/><path class="cls-2" d="m108.89,205.6l-.39-.09c-.11-.03-.2-.07-.24-.12-.05-.05-.07-.12-.07-.22,0-.1.02-.18.07-.24.05-.05.13-.1.24-.13.12-.03.26-.06.41-.09.15-.02.3-.03.45-.03.22,0,.37.04.45.13s.13.23.13.43v.24h.02c.06-.12.13-.24.21-.35.08-.11.17-.2.27-.27.1-.07.21-.13.32-.17.11-.04.23-.06.36-.06.15,0,.26.04.34.12s.12.19.12.34c0,.13-.01.24-.04.33s-.06.17-.1.24c-.04.06-.09.11-.14.14-.05.03-.1.05-.15.05-.04,0-.08,0-.11-.02-.03-.01-.06-.02-.09-.04-.03-.01-.06-.02-.09-.03-.03-.01-.07-.02-.12-.02-.12,0-.24.03-.35.08s-.22.14-.32.27v2.1l.41.11c.13.03.21.08.26.13.05.05.07.13.07.22,0,.1-.04.19-.11.26-.07.07-.18.1-.31.1h-1.76c-.13,0-.23-.03-.31-.1-.07-.07-.11-.16-.11-.26s.02-.17.07-.22.13-.09.26-.13l.37-.11v-2.59Z"/><path class="cls-2" d="m114.42,205.57l-.15-.06c-.13-.05-.22-.12-.27-.19-.05-.07-.08-.16-.08-.27,0-.09.03-.17.09-.22.06-.06.15-.09.27-.09h1.48c.12,0,.21.03.27.09.06.06.09.13.09.22,0,.1-.03.18-.08.24-.05.06-.15.13-.28.19l-.15.07.63,1.66c.04.11.07.21.1.3.03.09.06.18.09.25.02.09.05.17.08.24h.02c.02-.07.05-.15.07-.24.02-.07.05-.16.08-.26.03-.1.07-.2.12-.32l.62-1.64-.15-.07c-.14-.06-.23-.13-.28-.19-.05-.06-.08-.14-.08-.24,0-.09.03-.17.09-.22.06-.06.15-.09.27-.09h1.25c.12,0,.21.03.27.09.06.06.09.13.09.22,0,.1-.03.19-.08.27-.05.07-.14.14-.27.19l-.15.06-1.14,2.79c-.06.14-.11.25-.17.34-.05.09-.11.16-.18.21-.06.05-.14.09-.22.12-.08.02-.18.03-.3.03s-.21-.01-.3-.03c-.08-.02-.16-.06-.22-.12-.06-.05-.12-.13-.18-.21-.05-.09-.11-.2-.17-.34l-1.13-2.79Z"/><path class="cls-2" d="m119.1,207c0-.35.06-.68.17-.97.11-.29.27-.54.47-.74.2-.21.45-.37.73-.48.28-.11.6-.17.94-.17.65,0,1.15.18,1.52.55s.55.89.55,1.56c0,.35-.05.68-.16.96-.11.29-.26.54-.46.74-.2.21-.44.36-.73.48-.29.11-.61.17-.96.17-.65,0-1.15-.18-1.52-.55s-.55-.89-.55-1.56Zm1.2-.14c0,.24.03.45.08.63.05.18.13.33.21.45s.19.21.32.26c.12.06.25.09.39.09.27,0,.5-.11.69-.33.19-.22.28-.57.28-1.06,0-.24-.03-.45-.08-.63-.05-.18-.13-.33-.21-.45-.09-.12-.19-.2-.32-.26-.12-.06-.25-.09-.39-.09-.27,0-.5.11-.69.33-.19.22-.28.57-.28,1.06Z"/><path class="cls-2" d="m124.71,205.6l-.39-.09c-.11-.03-.2-.07-.24-.12-.05-.05-.07-.12-.07-.22,0-.1.02-.18.07-.24.05-.05.13-.1.24-.13.12-.03.26-.06.41-.09.15-.02.31-.03.48-.03.26,0,.43.05.53.14.09.09.14.27.14.53v2.84l.35.1c.11.03.18.07.23.12s.06.12.06.21c0,.11-.04.21-.12.28s-.18.11-.31.11h-1.66c-.13,0-.23-.03-.31-.1-.07-.07-.11-.16-.11-.26s.02-.17.07-.22.13-.09.26-.13l.37-.11v-2.59Zm-.15-2.02c0-.21.07-.38.21-.51.14-.14.31-.21.51-.21s.38.07.51.2c.13.13.2.3.2.51s-.07.38-.21.52c-.14.14-.31.21-.52.21s-.37-.07-.51-.2c-.13-.13-.2-.3-.2-.51Z"/><path class="cls-2" d="m129.46,205.52s-.05-.01-.07-.02c-.02,0-.05-.01-.08-.02s-.07,0-.12,0c-.28,0-.52.12-.72.35-.2.23-.29.59-.29,1.09,0,.46.1.8.3,1.02s.48.33.84.33c.1,0,.19,0,.27-.02.07-.01.14-.03.2-.04.06-.01.11-.03.16-.04.05-.01.09-.02.13-.02.09,0,.16.03.21.08.05.05.08.13.08.23,0,.11-.04.21-.13.29-.05.05-.11.09-.18.14s-.17.08-.27.12c-.11.03-.22.06-.36.09-.13.02-.27.03-.43.03-.63,0-1.12-.18-1.48-.54-.36-.36-.54-.87-.54-1.52,0-.36.06-.69.17-.99.11-.3.27-.55.48-.76s.45-.37.73-.48c.28-.12.6-.17.94-.17.26,0,.47.02.61.07.14.05.25.11.33.18.05.05.08.11.1.18.02.07.03.21.03.4v.28c0,.06,0,.15,0,.27,0,.12-.04.21-.1.26-.06.05-.14.08-.24.08s-.17-.03-.23-.08c-.06-.06-.11-.14-.15-.25l-.17-.54Z"/><path class="cls-2" d="m132.18,207.07c.04.39.17.69.38.89.21.2.52.3.91.3.13,0,.24,0,.34-.03.09-.02.18-.03.25-.05.07-.02.13-.04.19-.05.05-.02.11-.03.16-.03.09,0,.16.03.21.08.05.05.08.13.08.23,0,.06,0,.11-.03.15s-.05.09-.1.14c-.1.1-.26.19-.5.27-.24.09-.54.13-.92.13-.34,0-.64-.05-.91-.14-.27-.09-.49-.23-.67-.41-.18-.18-.32-.4-.41-.67-.09-.26-.14-.56-.14-.9,0-.37.05-.69.16-.98s.25-.53.44-.73c.19-.2.42-.35.68-.46s.55-.16.88-.16c.54,0,.96.15,1.26.46.3.3.45.74.45,1.31,0,.22-.05.38-.15.49s-.25.16-.44.16h-2.1Zm1.55-.66c-.01-.34-.08-.58-.21-.73-.13-.15-.3-.22-.5-.22-.22,0-.41.08-.55.25s-.23.4-.27.7h1.54Z"/><path class="cls-2" d="m136.52,208.24c.05.02.11.04.17.06.06.01.13.02.21.03.08.01.18.02.28.02.26,0,.44-.04.54-.12s.15-.19.15-.32-.05-.23-.16-.3c-.11-.07-.24-.14-.41-.2-.16-.06-.34-.12-.53-.19-.19-.07-.37-.15-.53-.25-.16-.1-.3-.23-.41-.39-.11-.16-.16-.36-.16-.61,0-.18.04-.35.11-.51.07-.16.19-.3.34-.42.15-.12.35-.21.58-.28.23-.07.51-.1.83-.1.34,0,.6.03.78.09.18.06.29.11.35.17.05.05.08.1.1.16.02.06.03.16.03.28v.22c0,.06,0,.12,0,.18-.01.11-.05.19-.11.24-.06.05-.14.08-.24.08s-.17-.03-.23-.08c-.05-.05-.1-.13-.14-.24l-.09-.25c-.05-.01-.11-.03-.17-.04-.05-.01-.11-.02-.18-.03-.07-.01-.15-.02-.24-.02-.24,0-.4.03-.48.1-.08.07-.12.16-.12.28s.05.21.16.28c.11.07.24.14.41.19s.34.12.53.18c.19.07.37.15.53.26.16.11.3.24.41.4.11.16.16.37.16.63,0,.19-.04.37-.12.53-.08.17-.2.31-.36.43-.16.12-.36.22-.61.3-.25.07-.54.11-.87.11-.37,0-.64-.03-.83-.09-.19-.06-.31-.12-.37-.18-.05-.04-.08-.1-.1-.16-.02-.06-.03-.16-.03-.28v-.24c0-.06,0-.12,0-.18.01-.11.05-.19.11-.24.06-.05.14-.08.24-.08s.17.03.23.08c.05.05.1.13.14.24l.09.27Z"/><path class="cls-2" d="m142.28,205.54h-.29c-.26,0-.39-.11-.39-.34,0-.14.04-.25.12-.33.08-.08.2-.12.36-.12h.23l.15-.61c.05-.19.11-.33.2-.41s.22-.13.38-.13c.13,0,.23.03.3.1.07.07.1.16.1.29v.76h.74c.26,0,.39.12.39.34,0,.14-.04.25-.12.33s-.2.12-.36.12h-.64v1.95c0,.27.04.47.12.58.08.11.19.16.34.16.11,0,.19,0,.26-.03.06-.02.13-.03.19-.03.08,0,.14.02.19.07.05.05.07.12.07.21,0,.06-.01.12-.04.18-.03.05-.06.1-.11.15-.05.05-.16.11-.31.18-.16.07-.38.1-.67.1-.44,0-.75-.12-.94-.36s-.27-.56-.27-.97v-2.2Z"/><path class="cls-2" d="m145,207c0-.35.06-.68.17-.97.11-.29.27-.54.47-.74.2-.21.45-.37.73-.48.28-.11.6-.17.94-.17.65,0,1.15.18,1.52.55s.55.89.55,1.56c0,.35-.05.68-.16.96-.11.29-.26.54-.46.74-.2.21-.44.36-.73.48-.29.11-.61.17-.96.17-.65,0-1.15-.18-1.52-.55s-.55-.89-.55-1.56Zm1.2-.14c0,.24.03.45.08.63.05.18.13.33.21.45s.19.21.32.26c.12.06.25.09.39.09.27,0,.5-.11.69-.33.19-.22.28-.57.28-1.06,0-.24-.03-.45-.08-.63-.05-.18-.13-.33-.21-.45-.09-.12-.19-.2-.32-.26-.12-.06-.25-.09-.39-.09-.27,0-.5.11-.69.33-.19.22-.28.57-.28,1.06Z"/><path class="cls-2" d="m152.52,203.71l-.34-.08c-.11-.03-.2-.07-.24-.12-.05-.05-.07-.13-.07-.23,0-.1.02-.18.07-.24s.13-.1.24-.13c.1-.03.23-.06.39-.08.16-.03.31-.04.45-.04.26,0,.43.05.53.14.09.09.14.27.14.53v1.07c0,.11,0,.23-.02.36-.01.13-.03.25-.04.36h.02c.07-.1.17-.2.28-.29.1-.07.23-.14.39-.21.16-.06.36-.09.6-.09.5,0,.91.17,1.21.5.3.33.46.85.46,1.55,0,.38-.05.71-.16,1.01-.11.3-.27.55-.47.75s-.46.36-.76.47c-.3.11-.64.16-1.03.16-.29,0-.55-.02-.77-.07-.22-.04-.39-.1-.52-.17-.12-.06-.21-.13-.27-.21-.06-.08-.09-.19-.09-.34v-4.61Zm1.17,4.42s.1.06.16.09c.06.02.12.04.2.06.08.01.17.02.28.02.33,0,.58-.11.77-.33.19-.22.28-.59.28-1.11,0-.47-.08-.81-.25-1.01-.17-.2-.38-.3-.63-.3-.13,0-.25.02-.35.06s-.18.09-.25.14c-.08.06-.15.13-.21.2v2.19Z"/><path class="cls-2" d="m158.44,207.07c.04.39.17.69.38.89.21.2.52.3.91.3.13,0,.24,0,.34-.03.09-.02.18-.03.25-.05.07-.02.13-.04.19-.05.05-.02.11-.03.16-.03.09,0,.16.03.21.08.05.05.08.13.08.23,0,.06,0,.11-.03.15s-.05.09-.1.14c-.1.1-.26.19-.5.27-.24.09-.54.13-.92.13-.34,0-.64-.05-.91-.14-.27-.09-.49-.23-.67-.41-.18-.18-.32-.4-.41-.67-.09-.26-.14-.56-.14-.9,0-.37.05-.69.16-.98s.25-.53.44-.73c.19-.2.42-.35.68-.46s.55-.16.88-.16c.54,0,.96.15,1.26.46.3.3.45.74.45,1.31,0,.22-.05.38-.15.49s-.25.16-.44.16h-2.1Zm1.55-.66c-.01-.34-.08-.58-.21-.73-.13-.15-.3-.22-.5-.22-.22,0-.41.08-.55.25s-.23.4-.27.7h1.54Z"/></g><g class="cls-1"><path class="cls-2" d="m48.83,214.67l-.34-.08c-.11-.03-.2-.07-.24-.12-.05-.05-.07-.13-.07-.23,0-.1.02-.18.07-.24.05-.05.13-.1.24-.13.1-.03.23-.06.39-.08.16-.03.31-.04.45-.04.26,0,.43.05.53.14.09.09.14.27.14.53v1.07c0,.11,0,.23-.02.36-.01.13-.03.25-.04.36h.02c.07-.1.17-.2.28-.29.1-.07.23-.14.39-.21.16-.06.36-.09.6-.09.5,0,.88.14,1.15.42.27.28.4.69.4,1.23v1.89l.33.1c.12.04.2.09.25.14.05.05.07.13.07.22,0,.1-.04.19-.11.26-.07.07-.18.1-.31.1h-1.6c-.13,0-.23-.03-.31-.1-.07-.07-.11-.16-.11-.26s.02-.17.07-.22c.05-.05.13-.1.25-.14l.31-.1v-1.61c0-.38-.07-.65-.21-.81-.14-.16-.34-.24-.6-.24-.13,0-.25.02-.35.06s-.18.09-.25.14c-.08.06-.15.13-.21.2v2.26l.31.1c.12.04.2.09.25.14.05.05.07.13.07.22,0,.1-.04.19-.11.26-.07.07-.18.1-.31.1h-1.6c-.13,0-.23-.03-.31-.1-.07-.07-.11-.16-.11-.26s.02-.17.06-.22c.04-.05.12-.09.23-.13l.35-.11v-4.49Z"/><path class="cls-2" d="m55.01,218.04c.04.39.17.69.38.89.21.2.52.3.91.3.13,0,.24,0,.34-.03.09-.02.18-.03.25-.05.07-.02.13-.04.19-.05.05-.02.11-.03.16-.03.09,0,.16.03.21.08.05.05.08.13.08.23,0,.06,0,.11-.03.15s-.05.09-.1.14c-.1.1-.26.19-.5.27-.24.09-.54.13-.92.13-.34,0-.64-.05-.91-.14-.27-.09-.49-.23-.67-.41-.18-.18-.32-.4-.41-.67-.09-.26-.14-.56-.14-.9,0-.37.05-.69.16-.98s.25-.53.44-.73c.19-.2.42-.35.68-.46s.55-.16.88-.16c.54,0,.96.15,1.26.46.3.3.45.74.45,1.31,0,.22-.05.38-.15.49s-.25.16-.44.16h-2.1Zm1.55-.66c-.01-.34-.08-.58-.21-.73-.13-.15-.3-.22-.5-.22-.22,0-.41.08-.55.25s-.23.4-.27.7h1.54Z"/><path class="cls-2" d="m60.94,217.38c0-.34-.06-.58-.18-.71s-.33-.2-.63-.2c-.17,0-.31,0-.43.03-.12.02-.23.04-.32.06-.09.02-.17.04-.24.06-.07.02-.12.03-.18.03-.1,0-.18-.03-.24-.09-.06-.06-.09-.15-.09-.25,0-.09.04-.17.11-.25.05-.05.13-.1.23-.16.1-.05.23-.1.37-.14.15-.04.31-.08.49-.11.18-.03.37-.04.58-.04.61,0,1.05.12,1.3.36.26.24.39.61.39,1.12,0,.34,0,.67,0,.98,0,.32,0,.67.03,1.07l.33.05c.11.02.19.05.24.11.05.05.07.13.07.23s-.03.17-.08.23c-.05.05-.13.1-.24.14-.11.04-.24.07-.38.1s-.29.04-.45.04c-.2,0-.35-.05-.44-.14-.09-.09-.14-.23-.14-.42v-.04h-.02c-.07.11-.16.22-.27.31-.1.08-.23.15-.39.22s-.36.1-.59.1c-.21,0-.4-.03-.57-.1-.17-.07-.32-.15-.44-.27-.12-.11-.22-.24-.28-.4s-.1-.32-.1-.49.04-.33.12-.48c.08-.15.19-.28.35-.38.16-.11.36-.19.6-.25.24-.06.53-.09.86-.09.09,0,.17,0,.25,0,.07,0,.14.01.2.02.06,0,.12.01.18.02v-.27Zm0,.94s-.09-.01-.14-.03c-.05,0-.1-.01-.17-.02-.07,0-.14,0-.22,0-.29,0-.5.04-.63.12-.13.08-.19.19-.19.33s.05.25.16.35c.11.1.25.15.44.15.12,0,.23-.02.32-.05.09-.03.17-.07.23-.11.07-.05.14-.1.2-.15v-.58Z"/><path class="cls-2" d="m63.72,216.57l-.39-.09c-.11-.03-.2-.07-.24-.12-.05-.05-.07-.12-.07-.22,0-.1.02-.18.07-.24.05-.05.13-.1.24-.13.12-.03.26-.06.41-.09.15-.02.3-.03.45-.03.22,0,.37.04.45.13s.13.23.13.43v.24h.02c.06-.12.13-.24.21-.35.08-.11.17-.2.27-.27.1-.07.21-.13.32-.17.11-.04.23-.06.36-.06.15,0,.26.04.34.12s.12.19.12.34c0,.13-.01.24-.04.33s-.06.17-.1.24c-.04.06-.09.11-.14.14-.05.03-.1.05-.15.05-.04,0-.08,0-.11-.02-.03-.01-.06-.02-.09-.04-.03-.01-.06-.02-.09-.03-.03-.01-.07-.02-.12-.02-.12,0-.24.03-.35.08s-.22.14-.32.27v2.1l.41.11c.13.03.21.08.26.13.05.05.07.13.07.22,0,.1-.04.19-.11.26-.07.07-.18.1-.31.1h-1.76c-.13,0-.23-.03-.31-.1-.07-.07-.11-.16-.11-.26s.02-.17.07-.22.13-.09.26-.13l.37-.11v-2.59Z"/><path class="cls-2" d="m69.58,214.67l-.39-.09c-.11-.03-.2-.07-.24-.12-.05-.05-.07-.13-.07-.22,0-.1.02-.18.07-.24.05-.05.13-.1.24-.13.12-.03.26-.06.41-.09.15-.02.31-.03.48-.03.26,0,.43.05.53.14.09.09.14.27.14.53v4.72l.35.06c.11.02.19.06.24.11.05.05.07.12.07.22s-.03.17-.08.23c-.05.05-.13.1-.24.14-.11.04-.24.07-.38.1-.14.03-.28.04-.44.04-.2,0-.35-.05-.44-.14-.09-.09-.14-.23-.14-.42v-.11h-.02c-.07.12-.16.24-.28.34-.1.09-.24.17-.41.24-.17.07-.38.11-.64.11-.5,0-.91-.17-1.21-.5-.3-.33-.46-.85-.46-1.55,0-.38.05-.71.16-1.01.11-.3.27-.55.47-.75s.46-.36.76-.47.64-.16,1.03-.16c.07,0,.13,0,.18,0,.05,0,.1.01.15.02.05.01.1.02.14.03l.02-.02c0-.06,0-.13-.01-.19,0-.07,0-.15,0-.24v-.54Zm0,1.93s-.1-.05-.16-.08c-.06-.02-.13-.04-.21-.06-.08-.02-.17-.03-.27-.03-.32,0-.58.11-.76.33-.19.22-.28.59-.28,1.11,0,.47.08.81.25,1.01.17.2.38.3.63.3.13,0,.25-.02.35-.06s.18-.09.25-.14c.08-.06.15-.13.21-.21v-2.19Z"/><path class="cls-2" d="m76.6,217.38c0-.34-.06-.58-.18-.71s-.33-.2-.63-.2c-.17,0-.31,0-.43.03-.12.02-.23.04-.32.06-.09.02-.17.04-.24.06-.07.02-.12.03-.18.03-.1,0-.18-.03-.24-.09-.06-.06-.09-.15-.09-.25,0-.09.04-.17.11-.25.05-.05.13-.1.23-.16.1-.05.23-.1.37-.14.15-.04.31-.08.49-.11.18-.03.37-.04.58-.04.61,0,1.05.12,1.3.36.26.24.39.61.39,1.12,0,.34,0,.67,0,.98,0,.32,0,.67.03,1.07l.33.05c.11.02.19.05.24.11.05.05.07.13.07.23s-.03.17-.08.23c-.05.05-.13.1-.24.14-.11.04-.24.07-.38.1s-.29.04-.45.04c-.2,0-.35-.05-.44-.14-.09-.09-.14-.23-.14-.42v-.04h-.02c-.07.11-.16.22-.27.31-.1.08-.23.15-.39.22s-.36.1-.59.1c-.21,0-.4-.03-.57-.1-.17-.07-.32-.15-.44-.27-.12-.11-.22-.24-.28-.4s-.1-.32-.1-.49.04-.33.12-.48c.08-.15.19-.28.35-.38.16-.11.36-.19.6-.25.24-.06.53-.09.86-.09.09,0,.17,0,.25,0,.07,0,.14.01.2.02.06,0,.12.01.18.02v-.27Zm0,.94s-.09-.01-.14-.03c-.05,0-.1-.01-.17-.02-.07,0-.14,0-.22,0-.29,0-.5.04-.63.12-.13.08-.19.19-.19.33s.05.25.16.35c.11.1.25.15.44.15.12,0,.23-.02.32-.05.09-.03.17-.07.23-.11.07-.05.14-.1.2-.15v-.58Z"/><path class="cls-2" d="m79.78,219.2c.05.02.11.04.17.06.06.01.13.02.21.03.08.01.18.02.28.02.26,0,.44-.04.54-.12s.15-.19.15-.32-.05-.23-.16-.3c-.11-.07-.24-.14-.41-.2-.16-.06-.34-.12-.53-.19-.19-.07-.37-.15-.53-.25-.16-.1-.3-.23-.41-.39-.11-.16-.16-.36-.16-.61,0-.18.04-.35.11-.51.07-.16.19-.3.34-.42.15-.12.35-.21.58-.28.23-.07.51-.1.83-.1.34,0,.6.03.78.09.18.06.29.11.35.17.05.05.08.1.1.16.02.06.03.16.03.28v.22c0,.06,0,.12,0,.18-.01.11-.05.19-.11.24-.06.05-.14.08-.24.08s-.17-.03-.23-.08c-.05-.05-.1-.13-.14-.24l-.09-.25c-.05-.01-.11-.03-.17-.04-.05-.01-.11-.02-.18-.03-.07-.01-.15-.02-.24-.02-.24,0-.4.03-.48.1-.08.07-.12.16-.12.28s.05.21.16.28c.11.07.24.14.41.19s.34.12.53.18c.19.07.37.15.53.26.16.11.3.24.41.4.11.16.16.37.16.63,0,.19-.04.37-.12.53-.08.17-.2.31-.36.43-.16.12-.36.22-.61.3-.25.07-.54.11-.87.11-.37,0-.64-.03-.83-.09-.19-.06-.31-.12-.37-.18-.05-.04-.08-.1-.1-.16-.02-.06-.03-.16-.03-.28v-.24c0-.06,0-.12,0-.18.01-.11.05-.19.11-.24.06-.05.14-.08.24-.08s.17.03.23.08c.05.05.1.13.14.24l.09.27Z"/><path class="cls-2" d="m85.69,216.57l-.39-.09c-.11-.03-.2-.07-.24-.12-.05-.05-.07-.12-.07-.22,0-.1.02-.18.07-.24.05-.05.13-.1.24-.13.12-.03.26-.06.41-.09.15-.02.3-.03.45-.03.22,0,.37.04.45.13s.13.23.13.43v.11h.02c.06-.12.15-.24.27-.34.1-.09.23-.17.4-.24.17-.07.38-.11.63-.11.33,0,.6.06.82.18s.39.3.52.54c.08-.14.18-.26.31-.36.11-.09.25-.18.42-.25s.39-.12.66-.12c.49,0,.86.14,1.13.42s.4.69.4,1.23v1.89l.33.1c.12.04.2.09.25.14.05.05.07.13.07.22,0,.1-.04.19-.11.26-.07.07-.18.1-.31.1h-1.57c-.13,0-.23-.03-.31-.1-.07-.07-.11-.16-.11-.26s.02-.17.07-.22.13-.1.25-.14l.28-.1v-1.61c0-.38-.07-.65-.2-.81-.13-.16-.33-.24-.58-.24-.13,0-.25.02-.34.07-.1.05-.18.09-.25.15-.08.06-.15.13-.21.21,0,.03,0,.06,0,.09,0,.03,0,.06,0,.11s0,.09,0,.14v1.89l.28.1c.12.05.2.09.25.14.05.05.07.12.07.22,0,.1-.04.19-.11.26-.07.07-.18.1-.31.1h-1.53c-.13,0-.23-.03-.31-.1-.07-.07-.11-.16-.11-.26s.02-.17.07-.22.13-.1.25-.14l.28-.1v-1.61c0-.38-.07-.65-.2-.81-.13-.16-.33-.24-.58-.24-.13,0-.24.02-.33.06-.1.04-.18.09-.24.14-.08.06-.15.13-.21.2v2.26l.28.1c.12.05.2.09.25.14.05.05.07.12.07.22,0,.1-.04.19-.11.26-.07.07-.18.1-.31.1h-1.62c-.13,0-.23-.03-.31-.1-.07-.07-.11-.16-.11-.26s.02-.17.07-.22.13-.09.26-.13l.37-.11v-2.59Z"/><path class="cls-2" d="m93.78,216.57l-.34-.08c-.11-.03-.2-.07-.24-.12-.05-.05-.07-.13-.07-.23,0-.1.02-.18.07-.24.05-.05.13-.1.24-.13.1-.03.23-.06.39-.08.16-.03.31-.04.45-.04.26,0,.43.05.53.14.09.09.14.27.14.53v1.87c0,.37.07.63.2.78.13.15.33.22.58.22.13,0,.25-.02.35-.06.1-.04.19-.09.26-.14.08-.06.15-.13.21-.21v-2.22l-.4-.09c-.11-.03-.2-.07-.24-.12-.05-.05-.07-.12-.07-.22,0-.1.02-.18.07-.24.05-.05.13-.1.24-.13.12-.03.26-.06.41-.09.15-.02.31-.03.48-.03.26,0,.43.05.53.14s.14.27.14.53v2.82l.35.06c.11.02.19.06.24.11.05.05.07.12.07.22s-.03.17-.08.23c-.05.05-.13.1-.24.14-.11.04-.24.07-.38.1-.14.03-.28.04-.44.04-.2,0-.35-.05-.44-.14-.09-.09-.14-.23-.14-.42v-.11h-.02c-.07.12-.16.24-.28.34-.1.09-.24.17-.41.24-.17.07-.39.11-.64.11-.49,0-.87-.13-1.13-.4-.26-.27-.4-.67-.4-1.2v-1.9Z"/><path class="cls-2" d="m101.3,216.48s-.05-.01-.07-.02c-.02,0-.05-.01-.08-.02s-.07,0-.12,0c-.28,0-.52.12-.72.35-.2.23-.29.59-.29,1.09,0,.46.1.8.3,1.02s.48.33.84.33c.1,0,.19,0,.27-.02.07-.01.14-.03.2-.04.06-.01.11-.03.16-.04.05-.01.09-.02.13-.02.09,0,.16.03.21.08.05.05.08.13.08.23,0,.11-.04.21-.13.29-.05.05-.11.09-.18.14s-.17.08-.27.12c-.11.03-.22.06-.36.09-.13.02-.27.03-.43.03-.63,0-1.12-.18-1.48-.54-.36-.36-.54-.87-.54-1.52,0-.36.06-.69.17-.99.11-.3.27-.55.48-.76s.45-.37.73-.48c.28-.12.6-.17.94-.17.26,0,.47.02.61.07.14.05.25.11.33.18.05.05.08.11.1.18.02.07.03.21.03.4v.28c0,.06,0,.15,0,.27,0,.12-.04.21-.1.26-.06.05-.14.08-.24.08s-.17-.03-.23-.08c-.06-.06-.11-.14-.15-.25l-.17-.54Z"/><path class="cls-2" d="m103.3,214.67l-.34-.08c-.11-.03-.2-.07-.24-.12-.05-.05-.07-.13-.07-.23,0-.1.02-.18.07-.24.05-.05.13-.1.24-.13.1-.03.23-.06.39-.08.16-.03.31-.04.45-.04.26,0,.43.05.53.14.09.09.14.27.14.53v1.07c0,.11,0,.23-.02.36-.01.13-.03.25-.04.36h.02c.07-.1.17-.2.28-.29.1-.07.23-.14.39-.21.16-.06.36-.09.6-.09.5,0,.88.14,1.15.42.27.28.4.69.4,1.23v1.89l.33.1c.12.04.2.09.25.14.05.05.07.13.07.22,0,.1-.04.19-.11.26-.07.07-.18.1-.31.1h-1.6c-.13,0-.23-.03-.31-.1-.07-.07-.11-.16-.11-.26s.02-.17.07-.22c.05-.05.13-.1.25-.14l.31-.1v-1.61c0-.38-.07-.65-.21-.81-.14-.16-.34-.24-.6-.24-.13,0-.25.02-.35.06s-.18.09-.25.14c-.08.06-.15.13-.21.2v2.26l.31.1c.12.04.2.09.25.14.05.05.07.13.07.22,0,.1-.04.19-.11.26-.07.07-.18.1-.31.1h-1.6c-.13,0-.23-.03-.31-.1-.07-.07-.11-.16-.11-.26s.02-.17.06-.22c.04-.05.12-.09.23-.13l.35-.11v-4.49Z"/><path class="cls-2" d="m113.09,217.38c0-.34-.06-.58-.18-.71s-.33-.2-.63-.2c-.17,0-.31,0-.43.03-.12.02-.23.04-.32.06-.09.02-.17.04-.24.06-.07.02-.12.03-.18.03-.1,0-.18-.03-.24-.09-.06-.06-.09-.15-.09-.25,0-.09.04-.17.11-.25.05-.05.13-.1.23-.16.1-.05.23-.1.37-.14.15-.04.31-.08.49-.11.18-.03.37-.04.58-.04.61,0,1.05.12,1.3.36.26.24.39.61.39,1.12,0,.34,0,.67,0,.98,0,.32,0,.67.03,1.07l.33.05c.11.02.19.05.24.11.05.05.07.13.07.23s-.03.17-.08.23c-.05.05-.13.1-.24.14-.11.04-.24.07-.38.1s-.29.04-.45.04c-.2,0-.35-.05-.44-.14-.09-.09-.14-.23-.14-.42v-.04h-.02c-.07.11-.16.22-.27.31-.1.08-.23.15-.39.22s-.36.1-.59.1c-.21,0-.4-.03-.57-.1-.17-.07-.32-.15-.44-.27-.12-.11-.22-.24-.28-.4s-.1-.32-.1-.49.04-.33.12-.48c.08-.15.19-.28.35-.38.16-.11.36-.19.6-.25.24-.06.53-.09.86-.09.09,0,.17,0,.25,0,.07,0,.14.01.2.02.06,0,.12.01.18.02v-.27Zm0,.94s-.09-.01-.14-.03c-.05,0-.1-.01-.17-.02-.07,0-.14,0-.22,0-.29,0-.5.04-.63.12-.13.08-.19.19-.19.33s.05.25.16.35c.11.1.25.15.44.15.12,0,.23-.02.32-.05.09-.03.17-.07.23-.11.07-.05.14-.1.2-.15v-.58Z"/><path class="cls-2" d="m116.27,219.2c.05.02.11.04.17.06.06.01.13.02.21.03.08.01.18.02.28.02.26,0,.44-.04.54-.12s.15-.19.15-.32-.05-.23-.16-.3c-.11-.07-.24-.14-.41-.2-.16-.06-.34-.12-.53-.19-.19-.07-.37-.15-.53-.25-.16-.1-.3-.23-.41-.39-.11-.16-.16-.36-.16-.61,0-.18.04-.35.11-.51.07-.16.19-.3.34-.42.15-.12.35-.21.58-.28.23-.07.51-.1.83-.1.34,0,.6.03.78.09.18.06.29.11.35.17.05.05.08.1.1.16.02.06.03.16.03.28v.22c0,.06,0,.12,0,.18-.01.11-.05.19-.11.24-.06.05-.14.08-.24.08s-.17-.03-.23-.08c-.05-.05-.1-.13-.14-.24l-.09-.25c-.05-.01-.11-.03-.17-.04-.05-.01-.11-.02-.18-.03-.07-.01-.15-.02-.24-.02-.24,0-.4.03-.48.1-.08.07-.12.16-.12.28s.05.21.16.28c.11.07.24.14.41.19s.34.12.53.18c.19.07.37.15.53.26.16.11.3.24.41.4.11.16.16.37.16.63,0,.19-.04.37-.12.53-.08.17-.2.31-.36.43-.16.12-.36.22-.61.3-.25.07-.54.11-.87.11-.37,0-.64-.03-.83-.09-.19-.06-.31-.12-.37-.18-.05-.04-.08-.1-.1-.16-.02-.06-.03-.16-.03-.28v-.24c0-.06,0-.12,0-.18.01-.11.05-.19.11-.24.06-.05.14-.08.24-.08s.17.03.23.08c.05.05.1.13.14.24l.09.27Z"/><path class="cls-2" d="m122.03,216.51h-.29c-.26,0-.39-.11-.39-.34,0-.14.04-.25.12-.33.08-.08.2-.12.36-.12h.23l.15-.61c.05-.19.11-.33.2-.41s.22-.13.38-.13c.13,0,.23.03.3.1.07.07.1.16.1.29v.76h.74c.26,0,.39.12.39.34,0,.14-.04.25-.12.33s-.2.12-.36.12h-.64v1.95c0,.27.04.47.12.58.08.11.19.16.34.16.11,0,.19,0,.26-.03.06-.02.13-.03.19-.03.08,0,.14.02.19.07.05.05.07.12.07.21,0,.06-.01.12-.04.18-.03.05-.06.1-.11.15-.05.05-.16.11-.31.18-.16.07-.38.1-.67.1-.44,0-.75-.12-.94-.36s-.27-.56-.27-.97v-2.2Z"/><path class="cls-2" d="m125.21,214.67l-.34-.08c-.11-.03-.2-.07-.24-.12-.05-.05-.07-.13-.07-.23,0-.1.02-.18.07-.24.05-.05.13-.1.24-.13.1-.03.23-.06.39-.08.16-.03.31-.04.45-.04.26,0,.43.05.53.14.09.09.14.27.14.53v1.07c0,.11,0,.23-.02.36-.01.13-.03.25-.04.36h.02c.07-.1.17-.2.28-.29.1-.07.23-.14.39-.21.16-.06.36-.09.6-.09.5,0,.88.14,1.15.42.27.28.4.69.4,1.23v1.89l.33.1c.12.04.2.09.25.14.05.05.07.13.07.22,0,.1-.04.19-.11.26-.07.07-.18.1-.31.1h-1.6c-.13,0-.23-.03-.31-.1-.07-.07-.11-.16-.11-.26s.02-.17.07-.22c.05-.05.13-.1.25-.14l.31-.1v-1.61c0-.38-.07-.65-.21-.81-.14-.16-.34-.24-.6-.24-.13,0-.25.02-.35.06s-.18.09-.25.14c-.08.06-.15.13-.21.2v2.26l.31.1c.12.04.2.09.25.14.05.05.07.13.07.22,0,.1-.04.19-.11.26-.07.07-.18.1-.31.1h-1.6c-.13,0-.23-.03-.31-.1-.07-.07-.11-.16-.11-.26s.02-.17.06-.22c.04-.05.12-.09.23-.13l.35-.11v-4.49Z"/><path class="cls-2" d="m131.39,218.04c.04.39.17.69.38.89.21.2.52.3.91.3.13,0,.24,0,.34-.03.09-.02.18-.03.25-.05.07-.02.13-.04.19-.05.05-.02.11-.03.16-.03.09,0,.16.03.21.08.05.05.08.13.08.23,0,.06,0,.11-.03.15s-.05.09-.1.14c-.1.1-.26.19-.5.27-.24.09-.54.13-.92.13-.34,0-.64-.05-.91-.14-.27-.09-.49-.23-.67-.41-.18-.18-.32-.4-.41-.67-.09-.26-.14-.56-.14-.9,0-.37.05-.69.16-.98s.25-.53.44-.73c.19-.2.42-.35.68-.46s.55-.16.88-.16c.54,0,.96.15,1.26.46.3.3.45.74.45,1.31,0,.22-.05.38-.15.49s-.25.16-.44.16h-2.1Zm1.55-.66c-.01-.34-.08-.58-.21-.73-.13-.15-.3-.22-.5-.22-.22,0-.41.08-.55.25s-.23.4-.27.7h1.54Z"/><path class="cls-2" d="m137.52,216.57l-.39-.09c-.11-.03-.2-.07-.24-.12-.05-.05-.07-.12-.07-.22,0-.1.02-.18.07-.24.05-.05.13-.1.24-.13.12-.03.26-.06.41-.09.15-.02.3-.03.45-.03.22,0,.37.04.45.13s.13.23.13.43v.11h.02c.06-.12.15-.24.27-.34.1-.09.23-.17.4-.24.17-.07.38-.11.63-.11.33,0,.6.06.82.18s.39.3.52.54c.08-.14.18-.26.31-.36.11-.09.25-.18.42-.25s.39-.12.66-.12c.49,0,.86.14,1.13.42s.4.69.4,1.23v1.89l.33.1c.12.04.2.09.25.14.05.05.07.13.07.22,0,.1-.04.19-.11.26-.07.07-.18.1-.31.1h-1.57c-.13,0-.23-.03-.31-.1-.07-.07-.11-.16-.11-.26s.02-.17.07-.22.13-.1.25-.14l.28-.1v-1.61c0-.38-.07-.65-.2-.81-.13-.16-.33-.24-.58-.24-.13,0-.25.02-.34.07-.1.05-.18.09-.25.15-.08.06-.15.13-.21.21,0,.03,0,.06,0,.09,0,.03,0,.06,0,.11s0,.09,0,.14v1.89l.28.1c.12.05.2.09.25.14.05.05.07.12.07.22,0,.1-.04.19-.11.26-.07.07-.18.1-.31.1h-1.53c-.13,0-.23-.03-.31-.1-.07-.07-.11-.16-.11-.26s.02-.17.07-.22.13-.1.25-.14l.28-.1v-1.61c0-.38-.07-.65-.2-.81-.13-.16-.33-.24-.58-.24-.13,0-.24.02-.33.06-.1.04-.18.09-.24.14-.08.06-.15.13-.21.2v2.26l.28.1c.12.05.2.09.25.14.05.05.07.12.07.22,0,.1-.04.19-.11.26-.07.07-.18.1-.31.1h-1.62c-.13,0-.23-.03-.31-.1-.07-.07-.11-.16-.11-.26s.02-.17.07-.22.13-.09.26-.13l.37-.11v-2.59Z"/><path class="cls-2" d="m146.39,218.04c.04.39.17.69.38.89.21.2.52.3.91.3.13,0,.24,0,.34-.03.09-.02.18-.03.25-.05.07-.02.13-.04.19-.05.05-.02.11-.03.16-.03.09,0,.16.03.21.08.05.05.08.13.08.23,0,.06,0,.11-.03.15s-.05.09-.1.14c-.1.1-.26.19-.5.27-.24.09-.54.13-.92.13-.34,0-.64-.05-.91-.14-.27-.09-.49-.23-.67-.41-.18-.18-.32-.4-.41-.67-.09-.26-.14-.56-.14-.9,0-.37.05-.69.16-.98s.25-.53.44-.73c.19-.2.42-.35.68-.46s.55-.16.88-.16c.54,0,.96.15,1.26.46.3.3.45.74.45,1.31,0,.22-.05.38-.15.49s-.25.16-.44.16h-2.1Zm1.55-.66c-.01-.34-.08-.58-.21-.73-.13-.15-.3-.22-.5-.22-.22,0-.41.08-.55.25s-.23.4-.27.7h1.54Z"/><path class="cls-2" d="m150.33,216.57l-.39-.09c-.11-.03-.2-.07-.24-.12-.05-.05-.07-.12-.07-.22,0-.1.02-.18.07-.24.05-.05.13-.1.24-.13.12-.03.26-.06.41-.09.15-.02.3-.03.45-.03.22,0,.37.04.45.13s.13.23.13.43v.11h.02c.07-.12.16-.24.28-.34.1-.09.24-.17.41-.24.17-.07.38-.11.64-.11.5,0,.88.14,1.15.42.27.28.4.69.4,1.23v1.89l.33.1c.12.04.2.09.25.14.05.05.07.13.07.22,0,.1-.04.19-.11.26-.07.07-.18.1-.31.1h-1.6c-.13,0-.23-.03-.31-.1-.07-.07-.11-.16-.11-.26s.02-.17.07-.22c.05-.05.13-.1.25-.14l.31-.1v-1.61c0-.38-.07-.65-.21-.81-.14-.16-.34-.24-.6-.24-.13,0-.25.02-.35.06s-.18.09-.25.14c-.08.06-.15.13-.21.2v2.26l.31.1c.12.04.2.09.25.14.05.05.07.13.07.22,0,.1-.04.19-.11.26-.07.07-.18.1-.31.1h-1.65c-.13,0-.23-.03-.31-.1-.07-.07-.11-.16-.11-.26s.02-.17.07-.22.13-.09.26-.13l.37-.11v-2.59Z"/><path class="cls-2" d="m156.29,219.2c.05.02.11.04.17.06.06.01.13.02.21.03.08.01.18.02.28.02.26,0,.44-.04.54-.12s.15-.19.15-.32-.05-.23-.16-.3c-.11-.07-.24-.14-.41-.2-.16-.06-.34-.12-.53-.19-.19-.07-.37-.15-.53-.25-.16-.1-.3-.23-.41-.39-.11-.16-.16-.36-.16-.61,0-.18.04-.35.11-.51.07-.16.19-.3.34-.42.15-.12.35-.21.58-.28.23-.07.51-.1.83-.1.34,0,.6.03.78.09.18.06.29.11.35.17.05.05.08.1.1.16.02.06.03.16.03.28v.22c0,.06,0,.12,0,.18-.01.11-.05.19-.11.24-.06.05-.14.08-.24.08s-.17-.03-.23-.08c-.05-.05-.1-.13-.14-.24l-.09-.25c-.05-.01-.11-.03-.17-.04-.05-.01-.11-.02-.18-.03-.07-.01-.15-.02-.24-.02-.24,0-.4.03-.48.1-.08.07-.12.16-.12.28s.05.21.16.28c.11.07.24.14.41.19s.34.12.53.18c.19.07.37.15.53.26.16.11.3.24.41.4.11.16.16.37.16.63,0,.19-.04.37-.12.53-.08.17-.2.31-.36.43-.16.12-.36.22-.61.3-.25.07-.54.11-.87.11-.37,0-.64-.03-.83-.09-.19-.06-.31-.12-.37-.18-.05-.04-.08-.1-.1-.16-.02-.06-.03-.16-.03-.28v-.24c0-.06,0-.12,0-.18.01-.11.05-.19.11-.24.06-.05.14-.08.24-.08s.17.03.23.08c.05.05.1.13.14.24l.09.27Z"/><path class="cls-2" d="m159.45,219.33c0-.22.07-.4.22-.54s.33-.22.54-.22.4.07.54.21c.14.14.21.32.21.54s-.07.4-.22.54c-.15.15-.33.22-.54.22s-.4-.07-.54-.21c-.14-.14-.21-.32-.21-.54Z"/></g></g><g id="Did_you_know_" class="cls-1"><g class="cls-1"><path class="cls-2" d="m2.03,5.49l-1.05-.33c-.37-.13-.62-.27-.76-.44-.14-.17-.21-.4-.21-.7,0-.24.09-.44.26-.61s.43-.25.76-.25h6.02c1.43,0,2.67.17,3.72.5,1.06.33,1.93.82,2.63,1.47s1.22,1.44,1.56,2.38c.34.95.51,2.02.51,3.23,0,1.29-.2,2.46-.61,3.5-.4,1.05-1,1.94-1.77,2.67-.78.73-1.74,1.3-2.88,1.69-1.14.4-2.45.6-3.93.6H1.17c-.37,0-.65-.1-.86-.29-.21-.19-.31-.43-.31-.72,0-.27.06-.47.19-.61.13-.13.37-.26.71-.37l1.12-.36V5.49Zm4.65,11.35c1.68,0,2.99-.48,3.92-1.44.93-.96,1.39-2.39,1.39-4.28s-.45-3.3-1.35-4.22c-.9-.92-2.22-1.38-3.97-1.38h-1.31v11.32h1.31Z"/><path class="cls-2" d="m18.9,9.71l-1.1-.24c-.32-.08-.54-.19-.68-.33-.13-.14-.2-.35-.2-.62,0-.29.07-.5.2-.66.14-.15.36-.27.68-.37.33-.1.72-.17,1.14-.24.43-.06.87-.09,1.34-.09.71,0,1.2.13,1.47.39.26.26.39.75.39,1.47v7.89l.98.29c.3.08.51.19.63.33.12.14.18.33.18.57,0,.32-.11.58-.32.79-.21.21-.5.31-.87.31h-4.6c-.37,0-.65-.1-.86-.29-.21-.19-.31-.43-.31-.72,0-.27.06-.47.19-.61.13-.13.37-.26.71-.37l1.03-.31v-7.2Zm-.43-5.6c0-.57.19-1.05.57-1.43.38-.38.86-.57,1.43-.57s1.04.18,1.41.55c.37.37.55.83.55,1.41s-.19,1.05-.57,1.43-.86.57-1.43.57-1.04-.18-1.41-.55c-.37-.37-.55-.83-.55-1.41Z"/><path class="cls-2" d="m33.23,4.44l-1.1-.24c-.32-.08-.54-.19-.68-.33-.14-.14-.2-.35-.2-.62,0-.29.07-.5.2-.66.13-.15.36-.27.68-.37.33-.1.71-.17,1.14-.24.43-.06.87-.09,1.33-.09.72,0,1.2.13,1.47.39.26.26.39.75.39,1.47v13.11l.98.17c.32.06.54.17.67.31.13.14.19.35.19.62s-.07.48-.21.63c-.14.15-.37.28-.67.39-.32.11-.67.2-1.05.27s-.79.11-1.22.11c-.56,0-.96-.13-1.22-.39-.25-.26-.38-.65-.38-1.16v-.31l-.05-.02c-.19.37-.45.69-.79.98-.29.25-.66.48-1.13.68-.47.2-1.06.3-1.78.3-1.4,0-2.52-.46-3.36-1.39-.84-.93-1.26-2.36-1.26-4.3,0-1.05.15-1.99.45-2.81.3-.83.74-1.53,1.31-2.1s1.28-1.01,2.11-1.31,1.78-.45,2.85-.45c.19,0,.36,0,.51.02.15.02.29.03.42.05.14.03.27.06.38.07l.05-.05c-.02-.17-.03-.35-.04-.54,0-.18-.01-.41-.01-.68v-1.5Zm0,5.36c-.13-.08-.28-.15-.45-.21-.16-.06-.35-.12-.57-.17-.22-.05-.48-.07-.76-.07-.89,0-1.6.31-2.12.92-.52.61-.79,1.64-.79,3.09,0,1.3.23,2.24.7,2.8.47.56,1.05.85,1.75.85.37,0,.69-.06.97-.17s.51-.24.7-.38c.22-.17.41-.37.57-.57v-6.08Z"/><path class="cls-2" d="m46.21,9.62l-.41-.17c-.37-.14-.62-.32-.76-.52-.14-.21-.21-.45-.21-.74,0-.25.09-.46.26-.62s.43-.24.76-.24h4.1c.33,0,.59.08.76.24s.26.37.26.62c0,.27-.07.49-.21.67s-.41.35-.79.52l-.41.19,1.74,4.6c.11.3.21.58.29.85.08.26.16.5.24.7.06.24.13.46.21.67h.05c.06-.21.13-.43.19-.67.06-.21.14-.45.23-.72.09-.27.19-.56.32-.88l1.72-4.55-.41-.19c-.38-.17-.64-.35-.79-.52s-.21-.4-.21-.67c0-.25.09-.46.26-.62s.43-.24.76-.24h3.48c.33,0,.59.08.76.24s.26.37.26.62c0,.29-.07.53-.21.74-.14.21-.4.38-.76.52l-.41.17-3.29,8.06c-.6,1.49-1.2,2.71-1.8,3.64-.6.93-1.18,1.65-1.76,2.17-.58.52-1.15.87-1.72,1.05-.56.18-1.12.27-1.66.27-.7,0-1.24-.15-1.61-.44-.37-.29-.56-.7-.56-1.23,0-.46.12-.82.35-1.08.23-.26.5-.39.82-.39.17,0,.33.01.45.04.13.02.25.06.38.09.13.04.27.07.43.1s.36.04.6.04c.29,0,.54-.04.77-.13.23-.09.44-.21.64-.38s.38-.38.55-.63c.17-.25.33-.56.49-.91l-4.17-10.25Z"/><path class="cls-2" d="m59.22,13.6c0-.99.15-1.88.46-2.68s.75-1.49,1.31-2.06,1.24-1.01,2.03-1.32c.79-.31,1.66-.46,2.61-.46,1.8,0,3.2.51,4.22,1.54,1.02,1.02,1.53,2.47,1.53,4.33,0,.99-.15,1.88-.44,2.68-.29.8-.72,1.49-1.28,2.06-.56.57-1.23,1.01-2.03,1.32-.79.31-1.69.46-2.67.46-1.8,0-3.2-.51-4.22-1.54-1.02-1.03-1.53-2.47-1.53-4.33Zm3.34-.38c0,.67.08,1.25.23,1.75.15.5.35.91.6,1.24.25.33.54.57.88.73s.7.24,1.08.24c.76,0,1.4-.31,1.92-.92.52-.61.77-1.59.77-2.94,0-.67-.08-1.25-.23-1.75-.15-.5-.35-.91-.6-1.24-.25-.33-.54-.57-.88-.73-.34-.16-.7-.24-1.08-.24-.76,0-1.4.31-1.92.92-.52.61-.77,1.59-.77,2.94Z"/><path class="cls-2" d="m74.35,9.71l-.95-.21c-.32-.08-.54-.19-.68-.35-.14-.15-.2-.36-.2-.63,0-.29.07-.5.2-.66.13-.15.36-.27.68-.37.29-.08.65-.16,1.08-.23.44-.07.85-.11,1.25-.11.71,0,1.2.13,1.47.39.26.26.39.75.39,1.47v5.2c0,1.03.18,1.76.55,2.17.37.41.91.62,1.62.62.37,0,.69-.06.98-.17s.52-.24.71-.38c.22-.17.41-.37.57-.57v-6.17l-1.1-.24c-.32-.08-.54-.19-.68-.33-.14-.14-.2-.35-.2-.62,0-.29.07-.5.2-.66.13-.15.36-.27.68-.37.33-.1.72-.17,1.14-.24.43-.06.87-.09,1.33-.09.72,0,1.2.13,1.47.39.26.26.39.75.39,1.47v7.84l.98.17c.32.06.54.17.67.31.13.14.19.35.19.62s-.07.48-.21.63c-.14.15-.37.28-.67.39-.32.11-.67.2-1.05.27s-.79.11-1.22.11c-.56,0-.96-.13-1.22-.39-.25-.26-.38-.65-.38-1.16v-.31l-.05-.02c-.19.37-.45.69-.79.98-.29.25-.67.48-1.14.68-.48.2-1.07.3-1.79.3-1.37,0-2.42-.37-3.15-1.12-.73-.75-1.1-1.86-1.1-3.34v-5.27Z"/><path class="cls-2" d="m95.55,4.44l-.95-.21c-.32-.08-.54-.19-.68-.35-.14-.15-.2-.36-.2-.63,0-.29.07-.5.2-.66.13-.15.36-.27.68-.37.29-.08.65-.16,1.08-.23.44-.07.85-.11,1.25-.11.72,0,1.2.13,1.47.39.26.26.39.75.39,1.46v8.81l3.29-3.09-.43-.24c-.25-.14-.43-.3-.52-.47s-.14-.37-.14-.59c0-.25.09-.46.26-.61s.42-.24.74-.24h4.12c.33,0,.59.08.76.24.17.16.26.36.26.61,0,.28-.08.52-.24.7-.16.18-.42.35-.79.51l-.62.26-3.31,2.9,1.31,1.7c.29.38.57.73.85,1.03.28.3.55.58.82.83.27.25.54.47.82.67.28.2.56.38.85.54.22.13.37.25.44.37.07.12.11.26.11.42,0,.33-.17.63-.5.88-.33.25-.83.38-1.48.38-.38,0-.75-.05-1.1-.14-.35-.1-.69-.24-1.01-.44-.33-.2-.65-.46-.97-.79s-.64-.72-.95-1.18l-2.57-3.68v3.8l.41.19c.37.17.6.33.7.48.1.14.15.35.15.62,0,.29-.11.53-.33.72-.22.19-.52.29-.88.29h-3.91c-.37,0-.65-.1-.86-.29s-.31-.43-.31-.72c0-.27.06-.48.18-.62.12-.14.33-.26.63-.36l.98-.31V4.44Z"/><path class="cls-2" d="m110.02,9.71l-1.1-.24c-.32-.08-.54-.19-.68-.33-.13-.14-.2-.35-.2-.62,0-.29.07-.5.2-.66.14-.15.36-.27.68-.37.33-.1.72-.17,1.14-.24.43-.06.84-.09,1.24-.09.6,0,1.03.12,1.26.36s.36.64.36,1.19v.31l.05.02c.19-.37.45-.69.79-.98.29-.24.66-.46,1.13-.67.47-.21,1.06-.31,1.78-.31,1.38,0,2.45.38,3.19,1.16.75.77,1.12,1.91,1.12,3.42v5.24l.91.29c.33.11.56.24.69.38.13.14.19.35.19.62,0,.29-.1.53-.31.72-.21.19-.49.29-.86.29h-4.43c-.37,0-.65-.1-.86-.29s-.31-.43-.31-.72c0-.27.06-.48.19-.62.13-.14.36-.27.69-.38l.86-.29v-4.48c0-1.06-.19-1.82-.57-2.25s-.94-.66-1.67-.66c-.37,0-.69.06-.97.18-.28.12-.51.25-.7.39-.22.18-.41.36-.57.55v6.27l.86.29c.33.11.56.24.69.38.13.14.19.35.19.62,0,.29-.1.53-.31.72s-.49.29-.86.29h-4.58c-.37,0-.65-.1-.86-.29-.21-.19-.31-.43-.31-.72,0-.27.06-.47.19-.61.13-.13.37-.26.71-.37l1.03-.31v-7.2Z"/><path class="cls-2" d="m123.96,13.6c0-.99.15-1.88.46-2.68s.75-1.49,1.31-2.06,1.24-1.01,2.03-1.32c.79-.31,1.66-.46,2.61-.46,1.8,0,3.2.51,4.22,1.54,1.02,1.02,1.53,2.47,1.53,4.33,0,.99-.15,1.88-.44,2.68-.29.8-.72,1.49-1.28,2.06-.56.57-1.23,1.01-2.03,1.32-.79.31-1.69.46-2.67.46-1.8,0-3.2-.51-4.22-1.54-1.02-1.03-1.53-2.47-1.53-4.33Zm3.34-.38c0,.67.08,1.25.23,1.75.15.5.35.91.6,1.24.25.33.54.57.88.73s.7.24,1.08.24c.76,0,1.4-.31,1.92-.92.52-.61.77-1.59.77-2.94,0-.67-.08-1.25-.23-1.75-.15-.5-.35-.91-.6-1.24-.25-.33-.54-.57-.88-.73-.34-.16-.7-.24-1.08-.24-.76,0-1.4.31-1.92.92-.52.61-.77,1.59-.77,2.94Z"/><path class="cls-2" d="m138.23,9.62l-.41-.17c-.37-.14-.62-.32-.76-.52-.14-.21-.21-.45-.21-.74,0-.25.09-.46.26-.62s.43-.24.76-.24h4.08c.33,0,.59.08.76.24.17.16.26.37.26.62,0,.27-.07.49-.21.67s-.41.35-.79.52l-.41.19,1.29,4.48c.08.3.16.6.24.88.08.29.14.54.19.76.06.27.11.52.14.74h.05c.03-.24.07-.49.12-.76.03-.22.07-.47.12-.75.05-.28.11-.57.19-.87l1.12-4.82c.17-.75.44-1.27.81-1.57.37-.3.87-.45,1.53-.45s1.13.14,1.49.43c.36.29.62.8.8,1.55l1.14,4.86c.08.32.14.62.19.91.05.29.09.54.12.76.05.25.09.49.12.71h.05c.03-.21.08-.44.14-.71.05-.22.11-.48.18-.76.07-.29.16-.59.25-.91l1.29-4.48-.41-.19c-.38-.17-.64-.35-.79-.52s-.21-.4-.21-.67c0-.25.09-.46.26-.62.17-.16.43-.24.76-.24h3.41c.33,0,.59.08.76.24s.26.37.26.62c0,.29-.07.53-.21.74-.14.21-.4.38-.76.52l-.41.17-2.53,7.75c-.25.75-.55,1.26-.89,1.54s-.83.42-1.47.42-1.13-.13-1.48-.41c-.35-.27-.61-.79-.79-1.55l-1.22-5.15c-.08-.29-.14-.56-.19-.83s-.09-.52-.12-.74c-.05-.25-.08-.48-.1-.69h-.05c-.02.21-.05.44-.1.69-.03.22-.07.47-.12.75-.05.28-.11.57-.19.87l-1.22,5.1c-.18.76-.44,1.28-.8,1.55-.36.27-.82.41-1.39.41-.35,0-.65-.03-.89-.1s-.46-.17-.66-.32c-.19-.15-.35-.35-.49-.6-.14-.25-.27-.56-.39-.94l-2.5-7.75Z"/><path class="cls-2" d="m158.84,12.03c0-.48.08-.9.24-1.28s.36-.72.6-1.04c.24-.32.5-.62.79-.89.29-.28.55-.56.79-.83s.44-.57.6-.87.24-.64.24-1.03c0-.57-.18-1.03-.55-1.38-.37-.35-.89-.52-1.56-.52-.26,0-.48.02-.66.06-.18.04-.35.08-.49.12-.14.04-.29.08-.43.12-.14.04-.3.06-.45.06-.29,0-.52-.09-.68-.27-.17-.18-.25-.41-.25-.68s.11-.52.33-.74c.13-.13.3-.25.51-.38.21-.13.47-.24.76-.33.29-.1.62-.17.99-.24.37-.06.76-.1,1.19-.1.78,0,1.46.09,2.04.27.58.18,1.06.43,1.44.75.38.32.67.71.86,1.17s.29.96.29,1.5-.08,1.04-.25,1.47c-.17.42-.38.8-.63,1.13s-.52.64-.81.91c-.29.27-.56.54-.81.8-.25.26-.47.54-.63.82-.17.29-.25.61-.25.98,0,.22,0,.41.02.56.02.15.04.29.06.41s.05.23.07.33c.02.1.04.21.04.32,0,.27-.13.5-.39.7-.26.2-.67.3-1.23.3s-.97-.19-1.3-.56c-.33-.37-.49-.92-.49-1.63Zm-.07,5.44c0-.59.19-1.08.58-1.47.39-.39.88-.58,1.47-.58s1.07.19,1.44.56c.37.37.56.85.56,1.44s-.19,1.08-.58,1.47c-.39.39-.88.58-1.47.58s-1.07-.19-1.44-.56c-.37-.37-.56-.85-.56-1.44Z"/></g></g></svg>