<?xml version="1.0" encoding="UTF-8"?><svg id="Layer_1" xmlns="http://www.w3.org/2000/svg" viewBox="0 0 241.87 46.71"><defs><style>.cls-1{fill:#182a42;stroke-width:0px;}</style></defs><path class="cls-1" d="m.24,44.19v-4.32l-.16-.52.16-1.72.24-.44v-1.32l-.36-1.32.08-1,.2-.72-.32-1.6.36-1.76-.2-.96v-1.68l-.16-.08-.04-.16.48-1.64-.2-1.44.32-.84-.28-2.32v-1.28l-.36-1.6.2-1.48v-1.96l.28-2.44v-2.6l-.24-1.4v.04l-.04-.32.2-1.36-.16-1.24.16-1-.08-1.2.08-1.04L1.24.2l.88.08,1.24-.12,1.12.24.6-.36,2.4.44h2l1.04-.28,2.4.28,1.6-.12h3.76l.84.16,1.08-.12h4.88l.76.56-.2,1.16.28,1.32-.36,1,.2,1.44v1.52l.24,1.04-.24,1.32.12,1.12-.32,1.04.4,1.64-.08.72v2.8l-.16.64.28,1.24-.16,1.64.24.56v1.88l-.28,2.2.08.6v1.8l-.32,2.28.32,1.4-.2.2.2,1.8v1.08l-.4,1.04.4,1.6-.08.72.12,1.84-.2.44.16,1.24v2.68l.08,1.28-1.08.32-1.24.16h-2.68l-.88.12h-1.28l-.6.44-1.92-.44-1.16-.08-1.2.16h-1.44l-1-.08h-3.16l-.88-.2-1.36.32-1.64-.12h-1.36l-.72-.2-1.6.2-.12-.04-.32-.52-.08-1.08Zm9.2-15.04l-.2-.72-.32-.72.4-.36,1.76.36.6-.08.48-.28.56.24-.08.56.68,1.12.16.08.48.6.48.84.4.28,1.08,1.84.92,1,.32.76,1.4,1.2,1,.16,1.12.16,1.24-.28.08-.56-.28-.72-1.28-1.28-.4-.6-.68-.68-.48-.72-.44-.44-.24-.6-1.04-1.32-1.12-1.28-.56-.32v-.44l1-.08,1.2-.44,1.04-.72.36-.28.44-.68.64-.56.44-1.04.6-1.16-.16-.6.4-1.44-.52-.72.04-.56-.2-.44-.12-.64-.24-.6-.88-1-.44-.16-.96-.8-1.44-.76-1.24-.08-1.08-.44h-1.32l-1.52-.32-.36.12-1.04.08-.28-.12h-1.6l-.96.2-.6.2-.52.72-.36,1.16.12.24.16,1.24-.28.76-.08.84.08.84.12.44v1.6l-.28.96.24.76v2.04l.2,1.52h-.16l.24,2-.4.76.08.76.16.44.08,1.28-.28.84.12.2.2,1.08-.16,1.12,1.2.68.6.08,1.36-.28.12-.84-.04-.2.32-1.56-.28-.68v-2.44l.2-1.12Zm-.56-12.56l.36-.36.72.12h1.8l.96-.08,2.96.76.12.28.56.16.6,1.04.32.24.12.76.24.16.08.64-.36,2.04-.64,1.2-1.12.68-1.36.6h-2.6l-1.08.2-1.24.24-.52-.36.28-.36.32-1.28-.2-.28.16-.84-.16-.48.24-1-.2-.56-.08-.84.2-.8-.36-1.44-.12-.44Z"/><path class="cls-1" d="m24.28,38.83l-.28-.24-.04-.16.48-2.16-.44-1.32.16-1.4.24-1.24-.12-1.68.4-.44-.44-2v-2.12l.28-.52-.24-3.08.4-.36-.36-2v-1.12l-.2-.88.16-2v-3.4l.16-.4v-2.48l-.2-1.16v-1.48l.24-.56-.24-1.8.16-.96-.08.04v-1.68l-.12-.8.96-.92.6.04,1.4-.12,1.2.28,1.6-.24,1.24.28h2.52l1.08-.24.6-.04,1.88.16h4.6l1.12.24,1.6-.24h4.72l.52.44v1.88l.08.4-.36.8.28,1.48-.16,1.24.32,2-.28,1,.16,1.16-.36.6.44,1.76-.44.88.44,2.64-.12,1.68.12.56-.2.68.32,2.68v1.12l-.2,1.84v2.32l-.2,2.44.4,1.04-.2,1.12v2.24l-.32.92.36,1.36-.08,1.08.28.8-.36,1.36.08.92v4.6l-.12.16-1.88.16h-.92l-1.24-.2-1.68.36h-2.96l-.84-.2-2.76.24-1.48-.12h-4.32l-.16-.2-1.88.32-1.04-.08h-1.6l-.36-.16-1.52.2-.8-.72v-6.6Zm7.68-9.28l-.8-1.64.24-.36.72.16.52.24,1.6.2.36-.2,1.12.16.72-.32.88.16,1.72-.24.96.28.44-.16,1.2.08.6-.12.92.12.48-.16h.72l.84-.52.28-.56-.24-1.36.08-.28-.28-1.2-.24-.52-.24-.92-.56-.92-1.64-1.6-.56-.4-.52-.16-.76-.36-1.04-.2-.36-.28-.84-.24-.56.2-.4-.2-1.04-.16-1.12.24-.4.24-.8.2-1.72.8-.96.52-.56.92-.2.04-.36.52-.48,1.04-.64.96-.04.44-.32.76v1.64l-.2.88.4,2.08-.08.8.12,1.36.36.16.52,1,.16.52.76.64.52.96,1.04.52.96.44.92.44.64.12h.8l1.76.32h.8l1.64-.36.68-.32h.36l.76-.28,1.32-.88.6-.64.88-.56.64-1.48.16-.64-.24-.72-.64-.12-.28-.12h-.84l-.72.68-.24.08-1.2,1.56-1.2.32-.16.36-1.32.44h-1.08l-2.88-.64-.24-.24-.84-.56-.52-1.12-.28-.08-.36-.76-.08-.64-.12-.36Zm10.68-4.4l.2.48-.28.36-1.72-.56-.72.2-1.04.12-1.36-.16-1.32-.12-1.44.16-1.08.08-1.16-.08-.92.36-.4-.16.12-.64.36-.48.44-.96.12-.48.48-.56.44-.68,2-1,.92-.28.48.12h.68l2,.32,1.32,1,.72.96.64,1.2.52.8Z"/><path class="cls-1" d="m48.36,43.91l-.2-2.48v-4.16l.28-.76.16-1.08-.36-1.64.16-1.24-.2-.36-.16-.56.48-2.32-.2-1.2-.4-1.48.48-2.08.16-2.12-.16-1.88v-1.2l-.32-1.8.24-1.32v-1.24l-.12-.16.16-2.08v-1.2l.16-.64.04.04v-1.84l-.28-1.32v-.84l.16-.84-.2-1.04.16-1.8v-.76l-.2-1.52,1.04-.76.64.04,1.92-.2,1.32.2v-.12l.2-.16,2.4.44.92-.08.96.24,1.52-.4,2.12.24,1.32-.08h10.76l.56.44-.12,1.64.24.92-.4,1.36.32,1.28-.12,1.44.2,1.36-.24.68v2.72l.36,1.04-.2,1.52-.16.24.16,1.8-.16.88.2,1.68-.08.16-.24.2.32,2.24.24.88-.52,2.28.16.64v4.12l.32.68-.44,1.36.2,1.88v1.04l-.36.6.4,1.44-.08,1.12.2,1.28-.36.92.08.88v-.04l.12.92v2.48l.08.88-.08.12-3.72.36-.72-.2-1.4.2h-1.36l-.72.28-1.16-.24-.76-.08-2.6.24-2.16-.16h-3.36l-.52-.2-1.68.28-1.08-.08h-1.52l-1.24-.12-1.12.12-.44-.72v-1.2Zm20.76-12.76l.08-.76-.64-1.52-.72-.96-.72-.36-.76-.6-1.08-.16-.4-.32-.72-.08-2.56-.72-.48.08-.68-.24-1.16-.16-1.44-.44-.68-.52-.36-.28-.24-.6.04-.52-.08-.44.36-.6.72-.48,1.64-.36,1.36-.36,1.28.24.52-.04,1.28.4,1.16.96.36.8,1.24.52,1.2.12.64-.48.12-.16-.16-1.12-.52-.64-.4-.88-.64-.36-.28-.32-1.52-.92-.72-.08-1.56-.64-.68.16-1.36-.28-.68.24-.64.04-1,.2-1.12.12-.72.2-.24.28-.8.28-.64.56-.4.52-.48,1.12-.36.4-.2,1.16.08,1.2.96,1.6.6.64,1.44.6,1.64.8.4.04,1.36.4h1.08l.6.08,1.6.52.72.12.24.16.44.12,1.2.96.16.44.08.84-.28.52-.16.56-.64.56-1.92.6-1.16-.32h-1.04l-1.2.2-.88-.36-.96-.24-.68-.48-.6-.92-.36-.8-.4-.36-1.56-.12-.56-.04-.44.28-.04.6.28.68.32,1.08.24.36.8.88.12.24.92.92,1.52.52h.52l.6.24,1.08.08.56.12h2.16l2.2-.36h.72l2.08-1.12.92-.92.84-1.12.08-.96.16-.8v-.04Z"/><path class="cls-1" d="m72.72,46.19l-.2-.28v-4.44l-.2-.72v-2.56l.16-1.08.28-.36-.52-1.44.28-2.16-.32-1.72.28-1.52-.2-.72v-.36l-.36-1.16.52-2.08v-2.84l-.08-.88v.04l-.16-.88.08-.68-.36-1.72.2-1.28v-1.48l-.08-.2v-2.32l.12-.64v-2.4l-.28-1.8.16-2.24-.08-1.04v-1.84l-.24-1.56,1.12-.8,1.28.16.4-.4,1.8.44,1.32-.2.84.28,1.6-.24.8.2,1.32-.44,2.32.28,1.56-.2h3.84l1.04.16,1.36-.28h4.4l.68.56-.16,1.08.28,1.4-.32.64.32,1.4v1.88l.16.64-.36,1.28.08.88v-.04l.16.84-.08,1.28.36,1-.28,1.76.2,1.24-.2,1.6.28,1.44-.12.88.44,2.12-.4,3.2.16,2.48-.2,2.12.48,1.2-.16,1.68v2.04l-.2.96.28.92-.08,1.08.32,1.32-.32,1.44.16,1.04v3.08l.08.52-.04.12-.88.28-.64-.12-1.92.16-1.2-.08-1.36.24h-4.72l-2.28.28-2.48-.16h-3.4l-.88.24-1.28-.12h-4.16l-.16-.08-.16-.32Zm12.4-27.92h-.48l-1.4.2.08-.04h-1.08l-.2.28-.84.52-.72.16-.4.28-.8.32-.8,1.08-.4.48-.48,1.04-.16.52-.96,2.2.2.96-.24,1.44-.08,1.24.4.72.32,1.64.36,1.16.4.4.36.64,1.28,1.04.12.32.8.44.36.28.88.2.4.36,1.44.44,1.36-.16h1.2l.64-.24,1.52-.16,1.24-.56.8-.4,1.24-1.16.76-.92.68-1.68.24-.52.32-3.28.08-1.08-.24-1v-.92l-.12-.96-.64-1.12-.6-.64-.48-.88-.96-.92v-.12l-.8-.28-1-.64-.72-.28-1.12-.32h-1.08l-.68-.08Zm-.08,2.64l.56.08,1,.32,1.12.2.84.48.92,1.08.16,1,.24.4.6,2.64-.4,2.04-.2.4.2.44-.44,1.12-.44.88-.8,1.04-.4.04-.8.32-.28.24h-.88l-1.56.28v-.08l-1.04-.08-.52-.2-1.2-.76-.8-.68-.12-.36-.68-1.16.04-.24-.16-.76-.08-1.32-.2-.92.24-1.16-.08-1.28.28-.84.92-1.64.68-.72,1-.36.52-.24.92-.2h.84Z"/><path class="cls-1" d="m96.28,44.23l-.16-2.44v-2.8l-.2-1,.44-1.44v-1.12l-.28-1.12.16-2.36-.24-.44.4-1.6-.36-1.84v-1.92l.44-1.08-.2-1.6.24-1.24-.12-.6-.12-1.36v-1.28l-.16-1.56v-3.28l.12-1.24v-1.04l.24-.84-.28-2.76v-1.6l.12-.44-.08-1.12v-3.12l-.16-1.24.96-.52h2.84l.8.16.76-.28,1.72.28.6-.04,1.76.28,1.64-.44.88.28h2.2l1.64-.12h1.96l1.04.12,1.84-.24,3.32.2,1.2-.08.44.48v1.52l.16.64-.36,1.28.28,1.44-.12,1.16.24,1.52-.28.84.2,1.28-.32,1.12.4,1.6-.44,1.08.4,1.68-.16,2.04.24.8-.24,1.24.16,1.12v-.04l.28,1.44-.32,1.4v3.68l-.36,1.8.56,1.84-.32,1.08v3.56l.12.6v1.48l.36.56-.52,1.68.16,1.44v3.08l-.88.92h-2.4l-1.12-.12-.8.2h-1.48l-1.92.2-1.56-.24-1.16.08h-6.2l-.64-.2-1.32.4-2.28-.2h-.72l-1.64-.16h-1.24l-.24-.52.08-.92Zm17.28-10.4l.16.16v1.92l.24.2.84.12h1.04l.36-1.6v-3.08l-.2-.96.2-.52-.2-1.36.28-2-.24-.72.12-1.36v-.92l.16-1.08-.16-1.8-.12-.76v-.8l-.4-.4-1.12-.2-.72.16-.52.52-.4.88.24,1.12-.12.08-.16,1.04v.84l.24.92-.12.68.2.92-.2.72.12,1.44-.16.88v2.08l.4,1.24-.04.6-.52-.04-1.4.32-.32.4-1.2.2-.68.16-1.32-.2h-1.4v-.36l-.28-.2-.56-.64-.16-.72-.28-.6-.24-1.52.4-.88-.12-.88-.2-.76v-1.72l.12-.44-.08-.68.16-.64-.12-.92.08-1.32-.24-2-.64-.6-.8-.08-.6.04-.72.8-.36,1.28.08.16-.16.8.2.56-.12,1.2.12.6.12,1.84-.08.16.04.6-.24,1.32.08.56v2.36l.32.76v1.32l.36.2.6.8.2.72,1.08.64.36.4.24.16,1.44.36.56.08h1.28l.84-.16.32.12,1.28-.32,1.24-.72.6-.56,1-.92Z"/><path class="cls-1" d="m120.24,43.79l-.28-.92v-3.4l.16-1.72.32-.32-.2-1.88-.4-.88.28-1.52.2-.12-.28-2.16.32-1.36-.28-1.72v.04l-.16-.8.6-1.6-.32-1.68.32-1.08-.32-2.4.08-.8-.28-1.8.16-.84v-2.36l.12-.28v-2.4l-.08-1.2.32-.6-.44-2.28.16-2.4v-2.12l-.16-1.72,1.04-1,.92.12.84-.4,2.12.48.84-.12.96.28.88-.08h-.04l.96-.12.52.2,1.36-.32,2.12.2h1.16l1.24-.12,1.72.16h2.6l1.36-.24,2.36.16h1.88l.8.48-.2,1.32.28,1.24-.12,1.32.04.52-.12,1.2.28,1.64-.2,1.28v.52l-.32,1.76.4,1.72-.04.16-.2.24.24,3.2-.12.92.24.92-.24,1.24.16,1.24.28.84-.52,2.92.16,1.32v1.68l-.24,1.8.32,1.28-.08.32v2.92l-.28,1.48.32,1.32v.92l.44.28.08.2-.52,2.36v3.4l-.08,1.12-.08.16-.72.08-.52-.16-3.12.24h-1.72l-1.44.52-2.04-.48-.56-.04-.88.12h-1.56l-1.08-.2h-5.52l-1.28.12h-2.04l-.64-.2-1.88.2-.36-.64v-1.68Zm20.44-9.08l-.16-.96-.96-.4-1.04-.08-1.08.2-.88-.08-1.16.16-.88-.24-1.16.4-.36-.56.24-.76-.24-2.08.2-.88-.24-1.24.36-2-.2-.68-.08-.72-.52-.4.24-.44.6-.04,1.24-1.04.68-.76.68-.08.56-.28h.8l1.28-.12.84.08h1.72l.48-.48v-2.08l-.48-.4-1.52-.44-1.48.12-.44-.08-1.92.36-.32.44-.56.32-.68.56-.56.92-.36.24-.24.76-.64.64.2-1v-1.56l.04-.24-.2-.72-1.2-.32h-1.28l-2.04-.2-.32.16h-.96l-1,.56-.36.72.28.96,1.28.4.96.16,1.44-.2.68-.24.6.12-.4.8-.08,1.04-.32,1.04.16.16-.16,1,.24,1.24-.2,1.6v1.48l.16,1.44v.88l.2,1.24.52.36-.72.32-.4-.28-.8-.2h-1.32l-.52.12h-.8l-.68.36v1l-.04.56.32.56.64.2h1.52l.88-.2,1.04.16h1.72l1.6.04h1.52l1-.2,1.24.24h1.8l1.88-.28.28-1-.16-.16Z"/><path class="cls-1" d="m144.68,44.63l-.16-.2v-3.28l-.12-.88v-2l.28-.72-.12-1.24-.32-.88.28-2.48-.24-.76.28-1.32-.24-1.04v-.92l-.24-1.64.48-1.52-.2-1.28.24-1.56-.32-1.2v-1.72l-.2-1.64v-3.72l.08-.76v-1.72l.08-.8-.28-3.2v-1.72l-.08-.28.2-1.68-.12-1.76-.2-.92,1.08-.76.88.12.8-.32,2.04.4,1.2-.24,1,.2.8-.12,1.24.24,1.56-.48,2.56.24h1.08l1.24-.16h2.76l.92.16,1.68-.28h4.32l.52.6-.08,1.04.32.88-.24,2.52v1.92l.32,1.68-.2,1.16-.08-.04v1.48l.4,1.08-.4,1.28.32,1.92-.24,1.56.36,1.76-.2,1,.16,1.2.32.76-.28,2.96-.12.12.16,1.72-.2,2.4.2.48v-.04l.28.6-.32,1.32v4.52l.2.76-.08.92.28,1.6-.28.88.28,3.04v1.88l-.28.2h.08l-.76.2h-3.96l-1.04.16h-.96l-1.32.36-1.48-.24-1.52.16h-6.16l-1.84-.16-1.28.24-1.24-.08h-2.12l-.76.08-1-.68v-1.36Zm7.12-17.24l.2-1.04-.2-1.16.44-.88.28-.96.4-.28.8-.88.52-.32.44-.44,1.24-.16.28-.16,1.28-.28.48.28,1.08.08,1.24.6.76.68.88,1.96.4.32.56-.04.96.12.84-.28.28-.52v-.68l-.36-1.08-1.08-1.72-.96-.88-.68-.16-.56-.4-.8-.24-.16-.2-1.32-.44h-2.68l-1.44.32-1.56.48-1.6.64-.24.48-.96.8-.4.84-.6.56-.12.68-.68,1.08.08.72-.4,1.4.16.64v1.64l.2,1.6.32,1.2.36.8.08.52.72.68.28.68.76.72,1.68.92.64.32.72.24h1l.32.24,1.12.28.24-.16.8.08,1.56-.44.6-.04.84-.24.68-.32,1.2-.88,1.12-.88.44-.8.24-.6.36-1.48-.12-.96-1.16-.12-1.24.12-.48.48-.4,1.76-.68.2-1.08.96-.64.24-1.12.16-.88-.2h-1.16l-.8-.36-.92-.24-1-1-.4-.56-.48-.88-.36-1.16-.24-1.44.08-.56Z"/><path class="cls-1" d="m168.28,38.83l-.28-.24-.04-.16.48-2.16-.44-1.32.16-1.4.24-1.24-.12-1.68.4-.44-.44-2v-2.12l.28-.52-.24-3.08.4-.36-.36-2v-1.12l-.2-.88.16-2v-3.4l.16-.4v-2.48l-.2-1.16v-1.48l.24-.56-.24-1.8.16-.96-.08.04v-1.68l-.12-.8.96-.92.6.04,1.4-.12,1.2.28,1.6-.24,1.24.28h2.52l1.08-.24.6-.04,1.88.16h4.6l1.12.24,1.6-.24h4.72l.52.44v1.88l.08.4-.36.8.28,1.48-.16,1.24.32,2-.28,1,.16,1.16-.36.6.44,1.76-.44.88.44,2.64-.12,1.68.12.56-.2.68.32,2.68v1.12l-.2,1.84v2.32l-.2,2.44.4,1.04-.2,1.12v2.24l-.32.92.36,1.36-.08,1.08.28.8-.36,1.36.08.92v4.6l-.12.16-1.88.16h-.92l-1.24-.2-1.68.36h-2.96l-.84-.2-2.76.24-1.48-.12h-4.32l-.16-.2-1.88.32-1.04-.08h-1.6l-.36-.16-1.52.2-.8-.72v-6.6Zm7.68-9.28l-.8-1.64.24-.36.72.16.52.24,1.6.2.36-.2,1.12.16.72-.32.88.16,1.72-.24.96.28.44-.16,1.2.08.6-.12.92.12.48-.16h.72l.84-.52.28-.56-.24-1.36.08-.28-.28-1.2-.24-.52-.24-.92-.56-.92-1.64-1.6-.56-.4-.52-.16-.76-.36-1.04-.2-.36-.28-.84-.24-.56.2-.4-.2-1.04-.16-1.12.24-.4.24-.8.2-1.72.8-.96.52-.56.92-.2.04-.36.52-.48,1.04-.64.96-.04.44-.32.76v1.64l-.2.88.4,2.08-.08.8.12,1.36.36.16.52,1,.16.52.76.64.52.96,1.04.52.96.44.92.44.64.12h.8l1.76.32h.8l1.64-.36.68-.32h.36l.76-.28,1.32-.88.6-.64.88-.56.64-1.48.16-.64-.24-.72-.64-.12-.28-.12h-.84l-.72.68-.24.08-1.2,1.56-1.2.32-.16.36-1.32.44h-1.08l-2.88-.64-.24-.24-.84-.56-.52-1.12-.28-.08-.36-.76-.08-.64-.12-.36Zm10.68-4.4l.2.48-.28.36-1.72-.56-.72.2-1.04.12-1.36-.16-1.32-.12-1.44.16-1.08.08-1.16-.08-.92.36-.4-.16.12-.64.36-.48.44-.96.12-.48.48-.56.44-.68,2-1,.92-.28.48.12h.68l2,.32,1.32,1,.72.96.64,1.2.52.8Z"/><path class="cls-1" d="m192.36,43.91l-.2-2.48v-4.16l.28-.76.16-1.08-.36-1.64.16-1.24-.2-.36-.16-.56.48-2.32-.2-1.2-.4-1.48.48-2.08.16-2.12-.16-1.88v-1.2l-.32-1.8.24-1.32v-1.24l-.12-.16.16-2.08v-1.2l.16-.64.04.04v-1.84l-.28-1.32v-.84l.16-.84-.2-1.04.16-1.8v-.76l-.2-1.52,1.04-.76.64.04,1.92-.2,1.32.2v-.12l.2-.16,2.4.44.92-.08.96.24,1.52-.4,2.12.24,1.32-.08h10.76l.56.44-.12,1.64.24.92-.4,1.36.32,1.28-.12,1.44.2,1.36-.24.68v2.72l.36,1.04-.2,1.52-.16.24.16,1.8-.16.88.2,1.68-.08.16-.24.2.32,2.24.24.88-.52,2.28.16.64v4.12l.32.68-.44,1.36.2,1.88v1.04l-.36.6.4,1.44-.08,1.12.2,1.28-.36.92.08.88v-.04l.12.92v2.48l.08.88-.08.12-3.72.36-.72-.2-1.4.2h-1.36l-.72.28-1.16-.24-.76-.08-2.6.24-2.16-.16h-3.36l-.52-.2-1.68.28-1.08-.08h-1.52l-1.24-.12-1.12.12-.44-.72v-1.2Zm20.76-12.76l.08-.76-.64-1.52-.72-.96-.72-.36-.76-.6-1.08-.16-.4-.32-.72-.08-2.56-.72-.48.08-.68-.24-1.16-.16-1.44-.44-.68-.52-.36-.28-.24-.6.04-.52-.08-.44.36-.6.72-.48,1.64-.36,1.36-.36,1.28.24.52-.04,1.28.4,1.16.96.36.8,1.24.52,1.2.12.64-.48.12-.16-.16-1.12-.52-.64-.4-.88-.64-.36-.28-.32-1.52-.92-.72-.08-1.56-.64-.68.16-1.36-.28-.68.24-.64.04-1,.2-1.12.12-.72.2-.24.28-.8.28-.64.56-.4.52-.48,1.12-.36.4-.2,1.16.08,1.2.96,1.6.6.64,1.44.6,1.64.8.4.04,1.36.4h1.08l.6.08,1.6.52.72.12.24.16.44.12,1.2.96.16.44.08.84-.28.52-.16.56-.64.56-1.92.6-1.16-.32h-1.04l-1.2.2-.88-.36-.96-.24-.68-.48-.6-.92-.36-.8-.4-.36-1.56-.12-.56-.04-.44.28-.04.6.28.68.32,1.08.24.36.8.88.12.24.92.92,1.52.52h.52l.6.24,1.08.08.56.12h2.16l2.2-.36h.72l2.08-1.12.92-.92.84-1.12.08-.96.16-.8v-.04Z"/><path class="cls-1" d="m216.08,44.35l-.2-2.6v-2.76l-.08-.88.44-.92-.16-1.76-.36-1.12.12-1.24v-1.36l.4-1.48-.44-1.68v-2.36l.4-1.04-.2-1.24.32-1.16-.32-2.56v-1.48l-.24-.96.28-1.16v-4.96l.16-1.52-.24-1.36-.08-.96.28-1.32-.24-1.72.12-1.92-.2-1.56,1.12-.8,1.12.12.84-.4,2,.44.48-.16,1.32.24,1.08-.08,1.72.12.96-.36,1.52.24.56.2,1.88-.2h3.44l.68.2,1.24-.24h2.28l1.68.16h1.56l.16.32-.16,1.76.28,1.2-.32,1.2.28,1.24-.2.48.2,1.96-.32.32.32,2.04-.32.88.48,1.56-.44,1.08.24,1.4v2.32l.16.56-.28,1.24.48,2.72-.32,1.88v3.6l-.16,1.16.32.96-.28,1.08.12,1.36v2.16l-.24.88.28,1.08-.08,1.32.12,1.4-.2.56.12.96v4.04l-.2.4v-.04l-.64.16h-4.16l-.96.12-.64-.04-1.12.48-1.84-.44-.68-.08-1.28.16h-1.36l-2.12-.16-1.24.08h-1.8l-1.04-.08-.6.24-4.08-.32-1.4.16-.36-.48-.08-.24.12-1.04Zm15.52-23.56l-.56-1.68-.48-.32h-.8l-.88-.12-1.24.24-.68.64-.64,2.16.64.88-.08.24.72.76h1.96l1.4-.28.32-.6v-1l.32-.92Zm.04,12.52l-.36-.76-.56-1-.36-.24-1.88-.16-1.16.32-.56.56-.2.96.2,1.2-.08.4.28.88.56.56.52-.08,1.36.2h.68l.92-.68.4-.6.24-.8v-.76Z"/></svg>