<svg xmlns="http://www.w3.org/2000/svg" xmlns:xlink="http://www.w3.org/1999/xlink" width="133.264" height="115.147" viewBox="0 0 133.264 115.147">
  <defs>
    <clipPath id="clip-path">
      <rect id="Rectangle_177" data-name="Rectangle 177" width="133.264" height="115.147" fill="none"/>
    </clipPath>
  </defs>
  <g id="Group_304" data-name="Group 304" transform="translate(0 -0.001)">
    <g id="Group_194" data-name="Group 194" transform="translate(0 0.001)" clip-path="url(#clip-path)">
      <path id="Path_4237" data-name="Path 4237" d="M42.42,58.311H30.274a11.34,11.34,0,0,1,0-22.679H42.42a11.34,11.34,0,1,1,0,22.679" transform="translate(27.506 51.758)" fill="#ffeadc"/>
      <path id="Path_4238" data-name="Path 4238" d="M61.82,2.325c10.512-.927,22.1,2.727,32.428,10.6a41.425,41.425,0,0,0,5.543,3.708c6.774,3.6,10.855,9.352,13.484,16.329.957,2.538,2.737,4.557,4.233,6.754,1.687,2.48,3.537,4.873,4.967,7.5,4.734,8.682,3.24,16.852-4.393,23.243-6.212,5.2-12.736,10.016-19.388,14.669-2.784,1.947-5.006,4.709-7.419,7.164-1.153,1.172-.395,2.516-.042,3.772,1.474,5.261.8,7.816-2.534,9.575a9.766,9.766,0,0,1-12.378-2.244,25.956,25.956,0,0,1-2.507-4.3,60.2,60.2,0,0,0-4.608-8.484c-3.963-5.437-9.121-5.832-13.558-.736-2.32,2.666-5.271,4.932-5.8,8.989-.341,2.6-2.847,3.882-5.3,3.6a33.832,33.832,0,0,1-7.618-2.21,4.024,4.024,0,0,1-2.585-3.625A83.075,83.075,0,0,1,33.9,87.01a3.592,3.592,0,0,0-1.575-3.3C24.016,76.685,14.98,70.573,6.845,63.333,3.757,60.586,1.952,57.763,2.8,53.2c.527-2.862-.51-5.82.687-9,7.36-19.582,20.146-33.6,40.284-40.333C48.8,2.185,54.1,2.535,61.82,2.325" transform="translate(3.76 3.17)" fill="#db8060"/>
      <path id="Path_4239" data-name="Path 4239" d="M76.54,115.1c-12.035-.432-24.018-1.052-35.766-4.032-6.86-1.739-9.322-3.748-8.807-10.745.454-6.193-1.945-9.379-6.747-12.665C18.2,82.854,12.089,76.769,5.118,71.8A10.734,10.734,0,0,1,.63,64.629,50.281,50.281,0,0,1,.338,50.823c1.479-13.585,9.6-23.9,18.073-32.992C27.741,7.817,40.024,1.214,54.857,1.8,60.618,2.026,66.242-.037,72.072,0c2.161.015,4.265-.061,6.141,1.023,3.733,2.156,7.861,2.96,11.981,3.922,8.42,1.965,16.145,5.1,20.766,13.141a8.53,8.53,0,0,0,2.092,2.107c5.511,4.527,8.685,10.539,10.769,17.173a11.751,11.751,0,0,0,2.887,5.131c5.56,5.479,8.273,11.674,5.393,19.582a17.061,17.061,0,0,0-.513,6.607c.272,4.846-1.817,8.125-5.742,10.863-7.758,5.4-15.248,11.189-22.942,16.687a7.378,7.378,0,0,0-3.355,7.292c.692,10.362-.164,11.2-10.654,11.554-4.115.14-8.238.022-12.356.022M41.535,80.936c.662.027,1.324.083,1.984.074a3.611,3.611,0,0,1,3.546,2.041,3.666,3.666,0,0,1-.623,4.341c-.954,1.069-2.2,1.876-3.21,2.9-1.079,1.079-2.6,1.8-3.061,3.407-1.707,6.028.113,8.824,6.08,10.2,2.352.54,3.294.191,3.961-2.207a18.393,18.393,0,0,1,8.121-11.034c4.684-2.914,8.974-2.637,13.254.866a21.426,21.426,0,0,1,7.6,12.236c.37,1.714.966,2.521,2.786,2.416,2.222-.13,4.451-.076,6.678-.115,1.113-.02,2-.321,1.9-1.7-.2-2.86.763-5.925-2.254-8.165-1.366-1.015-2.247-2.742-3.21-4.233a3.612,3.612,0,0,1,.392-4.886c1.555-1.533,3.372-1.523,5.185-.358a10.559,10.559,0,0,1,3.152,3.414c1.03,1.646,1.859,1.57,3.355.4,7.363-5.761,14.823-11.4,22.27-17.055,3.473-2.639,4.071-4.67,2.443-9.151-1.744,1.66-3.412,3.282-5.116,4.861-2.121,1.962-4.165,4.035-6.45,5.786a3.769,3.769,0,0,1-5.435-.368c-1.5-1.653-1.209-3.507.061-5.18a28.149,28.149,0,0,1,2.882-3.233c2.968-2.855,6.06-5.587,8.974-8.5,1.95-1.945,5.614-3.284,5.651-5.7.037-2.595-3.495-4.324-5.177-6.671-.115-.164-.351-.243-.682-.461-6.718,8.285-13.943,16.145-21.136,24.035a45.8,45.8,0,0,1-4.044,3.973c-1.783,1.521-3.841,2.016-5.742.3s-1.611-3.772-.248-5.715a29.756,29.756,0,0,1,2.5-3.122c8.41-9.043,16.965-17.953,24.781-27.53.407-.5,1.123-.768.522-1.584-1.643-2.232-2.3-5.07-4.424-7.017-1.381-1.27-2.22-1.349-3.139.589-1.808,3.814-3.826,7.529-5.842,11.24a44.8,44.8,0,0,1-3.5,5.656,3.616,3.616,0,0,1-4.748,1.256,3.567,3.567,0,0,1-1.888-4.505,20.587,20.587,0,0,1,1.722-4.309c2.423-4.626,5.02-9.165,7.392-13.818,2.725-5.342,2.617-5.477-2.86-8.084a2.618,2.618,0,0,1-.311-.115c-2.286-1.521-3.336-.9-3.932,1.793q-2.233,10.08-4.922,20.057c-1.023,3.8-3.08,5.334-5.482,4.432-3.1-1.167-3.093-3.733-2.448-6.4C80.1,30.8,81.411,25.635,82.692,20.462c.559-2.261,2-4.8,1.41-6.715-.714-2.3-4.223-1.68-6.239-2.943-2.6-1.631-2.975-.432-3.078,2.048-.67,15.795-2.644,31.474-4.552,47.154-.6,4.893-2.578,7.159-5.376,6.715-2.867-.456-3.971-3.1-3.419-7.951,1.587-13.918,3.924-27.754,4.854-41.743.527-7.919.424-7.865-7.319-6.333-1.6.316-2.016.726-1.611,2.347.858,3.446,1.609,6.926,2.193,10.428.427,2.561.186,5.18-3.024,5.732-2.941.505-4.194-1.695-4.807-4.071C50.7,21.151,49.905,17.117,49,13.107c-.162-.714.1-1.935-.841-1.947a12.787,12.787,0,0,0-6.536,2.2c-1.55.907-.319,2.293-.015,3.289,3.343,10.934,6.821,21.828,10.21,32.75a33.957,33.957,0,0,1,1.469,6.146c.235,2.08-.343,4.081-2.727,4.738a3.873,3.873,0,0,1-4.908-2.408A45.566,45.566,0,0,1,43.6,52.248c-3.434-11.478-6.823-22.971-10.318-34.77A39.854,39.854,0,0,0,24.3,24.085c-1.535,1.621-1.82,3.058-.265,5.2,3.522,4.856,6.676,9.985,9.835,15.091,2.448,3.956,2.475,6.664.4,8.094-2.271,1.565-4.748.417-7.407-3.667-2.791-4.285-5.479-8.64-8.138-13.011C17.732,34.17,17.1,34.16,15.9,35.7c-1.95,2.514-2.5,5.737-4.366,8.214-1.719,2.278-.974,3.458,1.028,5.038C22.012,56.4,31.03,64.359,39.808,72.587c2.561,2.4,4.179,4.976,1.783,8.417-2.83.917-5.182.078-7.3-1.876q-5.5-5.092-11.078-10.1C18.7,64.977,14.139,60.977,9,56.43c.378,3.8-1.131,7.323,1.82,9.423,6.87,4.888,13.055,10.593,19.7,15.736,5.6,4.334,5.631,4.3,10.919-.336.069-.061.061-.208.091-.316m23.04,24.771v.226c1.447,0,2.9.02,4.344-.01.753-.015,1.57.113,1.562-1.138-.01-1.832-3.419-6.936-5.347-7.331-2.928-.6-4.4,1.658-5.756,3.632-2.509,3.632-2.1,4.4,2.19,4.613,1,.052,2,.007,3.007.007" transform="translate(0 -0.002)" fill="#182a42"/>
      <path id="Path_4240" data-name="Path 4240" d="M36.758,40.883a17.688,17.688,0,0,1-7.26-2.938,3.526,3.526,0,0,1-1.29-4.407,3.512,3.512,0,0,1,3.9-2.413,15.305,15.305,0,0,1,7.311,2.847,3.567,3.567,0,0,1,1.354,4.407c-.689,1.778-2.251,2.293-4.02,2.5" transform="translate(40.528 45.165)" fill="#182a42"/>
      <path id="Path_4241" data-name="Path 4241" d="M24.922,39.206c-2.457-.152-3.966-1.386-4.044-3.892-.071-2.256,2.632-4.542,5.273-4.54,2.507,0,3.949,1.283,3.963,3.838.012,2.372-2.558,4.579-5.192,4.594" transform="translate(30.325 44.701)" fill="#182a42"/>
      <path id="Path_4242" data-name="Path 4242" d="M37.778,19.936c2.592.238,3.887,1.629,3.809,3.917a3.731,3.731,0,0,1-4.061,3.885,3.42,3.42,0,0,1-3.618-3.858,3.926,3.926,0,0,1,3.87-3.944" transform="translate(49.245 28.958)" fill="#182a42"/>
      <path id="Path_4243" data-name="Path 4243" d="M46.73,34.349c-.284,2.229-1.479,3.684-3.887,3.613s-3.654-1.548-3.551-3.917a3.374,3.374,0,0,1,3.657-3.512c2.394-.017,3.652,1.344,3.782,3.816" transform="translate(57.066 44.351)" fill="#182a42"/>
      <path id="Path_4244" data-name="Path 4244" d="M37.253,21.8c-.181,2.232-1.3,3.6-3.561,3.561A3.163,3.163,0,0,1,30.3,22.047c-.061-2.207,1.094-3.6,3.35-3.7,2.31-.1,3.343,1.339,3.6,3.453" transform="translate(44.011 26.648)" fill="#182a42"/>
    </g>
  </g>
</svg>
