<?xml version="1.0" encoding="UTF-8"?><svg id="Layer_1" xmlns="http://www.w3.org/2000/svg" xmlns:xlink="http://www.w3.org/1999/xlink" viewBox="0 0 149.36 159.48"><defs><style>.cls-1{clip-path:url(#clippath);}.cls-2{fill:none;}.cls-2,.cls-3,.cls-4,.cls-5{stroke-width:0px;}.cls-6{isolation:isolate;}.cls-3{fill:#dd8b6b;}.cls-4{fill:#dc8b6b;}.cls-5{fill:#854430;}</style><clipPath id="clippath"><rect class="cls-2" x="2.47" y="2.96" width="146.89" height="156.52"/></clipPath></defs><g class="cls-1"><g id="Group_197"><path id="Path_4245" class="cls-5" d="m75.84,26.31c-.23-.94-.8-1.87-1.94-1.62-1.37.28-1.26,1.41-.9,2.36.27.75.77,1.69,1.72,1.44.97-.25,1.37-1.21,1.12-2.18"/><path id="Path_4246" class="cls-5" d="m3.67,75.08c1.47-1.17,3.14-1.91,4.92-2.5,2.97-.99,6.05-1.83,8.46-3.96,5.64-4.99,10.81-10.45,16.23-15.65.47-.41.7-1.03.6-1.64-.33-2.56-.18-5.16.45-7.67,1.15-4.43,3.18-8.36,8.08-9.65,1.37-.37,1.6-.91,1.35-2.17-.37-1.87-.34-3.72,1.11-5.22.99-1,2.06-1.87,3.48-2.19,1.5-.34,2.59.56,3.71,1.44,1.04-2.13,2.04-4.12,3.41-5.85,1.41-1.78,2.79-3.37,3.02-5.93.22-2.19,1.77-4.01,3.89-4.57,2.04-.58,3.07.92,4.04,2.36.03.05.07.08.1.12.31.41.71.34,1.12.23.45-.12.4-.5.42-.87.33-4.8,3.53-8.24,8.27-8.38,2.7-.08,5.43.12,8.16.12,1.83-.01,3.16,1.62,3.26,3.47.05,1.12-.33,2.13-.76,3.12-.28.65-.45,1.25-.14,1.93,1.05,2.23,2.45,4.19,5.13,4.37,2.56.18,3.81,1.69,4.7,3.81.16.36.2.9.74.85,2.82-.25,5.59,1.68,8.52-.22,1.55-1.01,3.54-.6,5.01.75,1.41,1.3,1.79,3.02,1.29,4.82-.25.88-.02,1.29.65,1.78,1.74,1.26,3.77,1.57,5.78,1.93,3.57.62,5.55,2.88,5.5,6.48-.01.87.3,1.3,1.02,1.67,1.6.82,3.11,1.83,4.48,3,3.04,2.57,3.11,5.59-.01,8.02-1.3,1.02-1.36,2.01-.84,3.33.84,2.1,1.76,4.16,2.31,6.37.5,2,.47,3.89-.71,5.64-1.03,1.54-1.08,3.07-.52,4.83,1.02,3.23,2.19,6.43,2.74,9.79.36,2.2.35,4.41-1.37,6.08-2.03,1.94-3.09,4.3-3.41,7.02-.15,1.27-.2,2.56-.24,3.85-.06,2.35-.85,4.46-2.62,5.91-2.55,2.11-1.49,5.76.95,7.13,1.57.88,3.1,1.84,4.56,2.89,2.76,1.98,5.82,2.89,9.16,3.31,4.07.5,7.84,2.05,8.97,6.4,1.5,5.72.68,11.41-2.92,16.17-4.14,5.52-9.73,9.26-16.44,11.15-1.18.34-1.72.96-2.18,2.09-1.13,2.8-1.66,5.72-2.04,8.64H34.58c-1.02-2.59-1.45-5.37-1.27-8.14.65-9.44,2.71-18.52,6.71-27.11.21-.4.36-.82.44-1.26-.03-.21-.05-.43-.03-.65-.1-.37-.31-.69-.6-.94-.51-.49-.64-1.27-.65-2.02-.03-1.76.81-3.18,1.84-4.48,2.28-2.93,4.98-5.51,8.01-7.66,2.04-1.41,3.92-3.01,5.64-4.8,3.03-3.3,6.25-6.42,9.64-9.36.74-.64,1.2-1.3,1.1-2.37-.11-1.33.41-2.52,1.22-3.56,1-1.27,2.27-2.25,3.55-3.2,4.28-3.21,8.84-6.05,12.85-9.62.36-.32.99-.45.92-1.11-.24-2,.83-3.56,1.67-5.21,1.37-2.65,2.36-5.47,3.36-8.28.25-.69.31-1.5-.24-2.04-.47-.45-.91.25-1.38.34-.35.06-.71.26-1.04.22-1.1-.14-1.44.49-1.84,1.37-1.15,2.53-2.31,5.06-4.08,7.25-2.62,3.2-6.94,4.45-10.87,3.15-2.89-.95-5.4-2.48-7.37-4.85-.48-.57-.95-1.35-1.83-1.28-4.03.32-8.13.57-11.07,3.82-1.91,2.1-4.21,3.36-6.81,4.28-7.28,2.55-13.64,6.87-20.3,10.61-2.36,1.33-3.78,2.93-3.37,6.01.32,2.48-1.62,3.57-4.02,2.56-1.37-.57-2.63-1.4-3.97-2.05-4.53-2.22-7.2-5.82-8.22-10.74-.28-1.37.02-2.43,1.1-3.28M69.25,27.77c.93,4.28,4.37,6.53,8.55,5.63,3.6-.77,6.96-3.54,5.29-9.52-.87-4.03-3.77-5.82-7.94-4.93-3.9.83-6.73,5.05-5.9,8.82"/></g></g><g class="cls-6"><path class="cls-4" d="m52.98,110l-.48-.17c-.28-.11-.48-.24-.59-.37-.11-.13-.17-.31-.17-.54,0-.2.07-.36.21-.49.14-.13.34-.19.6-.19h3.58c.26,0,.45.06.59.19.13.13.2.29.2.49,0,.23-.06.41-.17.54-.11.13-.3.26-.57.37l-.5.17v6.89l.56.2c.25.09.42.19.53.3.1.11.15.27.15.47,0,.23-.08.42-.23.57s-.37.22-.65.22h-3.39c-.29,0-.51-.08-.67-.22-.15-.15-.23-.34-.23-.57,0-.21.05-.36.15-.47.1-.11.28-.21.53-.3l.56-.2v-6.89Z"/><path class="cls-4" d="m59.58,117.05c.08.04.18.07.29.09.1.02.22.04.36.06.14.02.3.03.47.03.4,0,.68-.06.83-.18.15-.12.22-.27.22-.46s-.1-.35-.29-.47c-.19-.12-.43-.23-.72-.33-.29-.1-.6-.2-.94-.31-.34-.11-.66-.26-.95-.44-.29-.19-.54-.42-.73-.71-.19-.28-.29-.65-.29-1.09,0-.35.07-.68.21-1,.14-.31.36-.58.66-.8.3-.22.69-.4,1.15-.53s1.02-.19,1.67-.19,1.11.05,1.46.15c.34.1.58.21.7.33.09.09.16.2.2.32.04.12.06.29.06.52v.38c0,.1,0,.2-.02.32-.02.21-.09.36-.22.46-.12.1-.29.16-.5.16s-.37-.05-.5-.14c-.12-.09-.22-.23-.28-.42l-.12-.33c-.08-.02-.18-.05-.29-.08-.09-.02-.2-.04-.32-.05-.12-.02-.26-.02-.41-.02-.36,0-.6.05-.73.16s-.19.24-.19.4c0,.19.1.33.29.44s.44.21.72.3c.29.09.6.19.94.3s.65.26.94.44c.29.19.53.43.72.72.2.29.29.67.29,1.14,0,.36-.07.7-.22,1.01-.15.32-.38.59-.7.83-.31.24-.71.42-1.2.56-.48.13-1.06.2-1.73.2s-1.17-.05-1.53-.16-.6-.22-.73-.35c-.09-.09-.16-.2-.2-.32-.04-.12-.06-.29-.06-.5v-.4c0-.09,0-.19.02-.29.02-.23.09-.39.22-.5.12-.11.29-.16.5-.16s.37.05.5.14c.12.09.22.23.28.42l.14.36Z"/><path class="cls-4" d="m69.73,112.62l-.2-.09c-.25-.11-.42-.25-.52-.4-.1-.15-.15-.33-.15-.55s.07-.37.21-.5c.14-.12.34-.19.6-.19h2.83c.25,0,.44.06.59.19s.22.29.22.5-.05.38-.16.52c-.11.14-.28.27-.52.39l-.19.09.96,2.63c.06.19.12.36.17.53.05.17.1.32.14.46.04.16.08.3.12.43h.03c.04-.13.08-.28.12-.43.04-.13.09-.29.14-.46.05-.17.11-.36.19-.54l.94-2.62-.19-.09c-.24-.12-.41-.26-.52-.39-.11-.14-.16-.31-.16-.52s.07-.37.22-.5c.14-.12.34-.19.59-.19h2.31c.25,0,.44.06.59.19s.22.29.22.5c0,.22-.05.4-.15.55-.1.15-.27.28-.52.4l-.2.09-1.97,4.91c-.39.98-.79,1.78-1.19,2.4-.4.62-.81,1.1-1.23,1.46-.42.35-.84.59-1.26.72-.42.13-.85.19-1.29.19-.54,0-.94-.11-1.22-.33-.27-.22-.41-.53-.41-.92s.09-.65.27-.84c.18-.19.39-.29.63-.29.11,0,.21,0,.3.02.09.02.18.04.26.06.09.03.19.05.3.07.11.02.26.03.45.03.15,0,.29-.02.42-.05s.24-.09.34-.16c.1-.07.2-.15.29-.26.09-.11.17-.24.24-.39l-2.65-6.61Z"/><path class="cls-4" d="m78.59,115.02c0-.64.1-1.23.31-1.76.21-.53.5-.98.88-1.36.38-.37.85-.66,1.39-.87.55-.21,1.16-.31,1.83-.31,1.25,0,2.22.34,2.9,1.01s1.03,1.61,1.03,2.8c0,.64-.1,1.23-.3,1.76-.2.53-.49.98-.88,1.35-.38.37-.85.66-1.39.87-.55.21-1.16.31-1.84.31-1.26,0-2.23-.33-2.91-1.01-.68-.67-1.02-1.61-1.02-2.8Zm2.69-.26c0,.38.04.72.12,1.01.08.29.19.53.33.71.13.19.29.32.48.41.19.09.38.13.57.13.41,0,.76-.17,1.04-.51.28-.34.42-.9.42-1.69,0-.39-.04-.73-.12-1.02-.08-.29-.19-.53-.33-.71-.13-.19-.29-.32-.48-.41-.19-.09-.38-.13-.59-.13-.4,0-.74.17-1.02.51-.28.34-.42.91-.42,1.7Z"/><path class="cls-4" d="m88.69,112.74l-.46-.12c-.23-.07-.39-.17-.49-.28-.1-.11-.15-.28-.15-.5s.05-.4.15-.52c.1-.12.26-.21.47-.29.22-.07.49-.13.81-.19s.64-.08.95-.08c.5,0,.84.1,1.04.3.2.2.29.55.29,1.04v3.21c0,.58.1.98.3,1.22s.49.35.87.35c.2,0,.37-.03.52-.09.15-.06.28-.13.38-.22.11-.09.21-.2.29-.31v-3.53l-.54-.16c-.24-.06-.4-.15-.5-.26-.09-.11-.14-.27-.14-.49s.05-.4.14-.52c.09-.12.25-.21.48-.29.23-.07.5-.13.82-.19.32-.05.66-.08,1.01-.08.49,0,.84.1,1.04.3.2.2.3.55.3,1.04v4.72l.48.11c.24.06.4.14.49.25.09.1.13.26.13.48s-.05.39-.15.51c-.1.12-.26.23-.49.31-.22.08-.48.15-.78.19-.3.05-.59.07-.86.07-.41,0-.71-.08-.89-.26-.19-.17-.28-.45-.28-.83v-.14h-.03c-.11.23-.28.45-.5.64-.18.17-.42.31-.72.44-.3.13-.69.19-1.15.19-.94,0-1.65-.25-2.14-.74-.49-.49-.73-1.23-.73-2.21v-3.13Z"/><path class="cls-4" d="m98.98,112.74l-.54-.16c-.24-.06-.41-.15-.5-.26-.1-.11-.15-.27-.15-.49s.05-.4.15-.52c.1-.12.26-.21.49-.29.22-.07.49-.13.81-.19s.63-.08.94-.08c.42,0,.72.08.9.26.18.17.26.45.26.83v.39l.03.02c.08-.23.19-.44.33-.63s.29-.36.46-.5c.17-.14.36-.25.57-.33.21-.08.44-.12.69-.12.31,0,.53.08.67.25.14.17.21.41.21.74,0,.26-.03.49-.08.7-.06.21-.13.39-.22.54s-.2.26-.32.34c-.12.08-.24.12-.36.12-.07,0-.14-.02-.2-.05s-.12-.06-.17-.09c-.05-.03-.11-.06-.16-.08-.06-.03-.13-.04-.22-.04-.21,0-.39.05-.55.15-.16.1-.29.21-.39.33v3.34l.62.2c.25.08.42.18.5.28.09.11.13.26.13.45,0,.22-.08.41-.23.56s-.37.22-.65.22h-3.25c-.29,0-.51-.07-.67-.22-.15-.15-.23-.33-.23-.56,0-.21.05-.36.14-.46.09-.1.26-.2.5-.29l.53-.18v-4.2Z"/></g><g class="cls-6"><path class="cls-3" d="m56.57,131.96s-.06,0-.09-.01c-.03-.01-.07-.02-.12-.02s-.11,0-.17,0c-.42,0-.78.18-1.08.53-.29.36-.44.93-.44,1.73s.17,1.32.5,1.68c.33.36.8.53,1.41.53.18,0,.32-.01.44-.03s.22-.04.32-.06.18-.04.26-.06c.08-.02.15-.03.22-.03.2,0,.35.06.46.17s.16.27.16.46c0,.26-.1.49-.29.68-.07.07-.18.15-.31.24-.13.09-.3.17-.5.24-.2.07-.42.13-.68.18-.26.05-.55.07-.88.07-1.19,0-2.11-.33-2.76-.98-.66-.66-.98-1.57-.98-2.73,0-.66.1-1.26.31-1.8.21-.54.5-1,.87-1.39s.83-.68,1.36-.88c.53-.21,1.13-.31,1.79-.31.46,0,.84.05,1.13.14s.51.21.65.36c.1.1.17.22.21.36.04.14.05.38.05.72v.52c0,.11,0,.29-.02.53-.01.26-.08.44-.21.56-.13.11-.29.17-.49.17-.22,0-.39-.06-.51-.17-.12-.11-.23-.28-.31-.51l-.29-.87Z"/><path class="cls-3" d="m64.21,133.3c0-.47-.1-.8-.29-1-.2-.19-.54-.29-1.04-.29-.31,0-.58.02-.81.05-.23.04-.43.07-.6.11-.17.04-.32.07-.45.11-.13.04-.25.05-.35.05-.21,0-.37-.07-.5-.2-.13-.13-.19-.3-.19-.51s.08-.39.25-.56c.09-.09.24-.19.44-.3s.45-.21.74-.29c.29-.09.62-.16.99-.22.37-.06.76-.08,1.19-.08,1.16,0,1.99.23,2.5.68s.76,1.11.76,1.99c0,.56,0,1.11-.02,1.65-.01.54,0,1.15.05,1.81l.46.09c.23.05.38.13.47.24s.13.27.13.48-.05.38-.15.51-.26.23-.47.31c-.23.08-.49.15-.79.19s-.6.07-.9.07c-.41,0-.71-.09-.9-.26-.19-.17-.28-.43-.28-.77v-.08h-.03c-.11.21-.27.41-.48.57-.18.16-.41.29-.71.41-.29.12-.66.18-1.08.18-.39,0-.75-.06-1.08-.18-.33-.12-.61-.29-.84-.5-.23-.21-.41-.47-.54-.76-.12-.29-.19-.61-.19-.94,0-.3.07-.59.22-.86.14-.27.36-.51.65-.71.29-.2.66-.36,1.12-.48.46-.12,1-.18,1.63-.18.15,0,.29,0,.42.02.12,0,.24.02.34.03.1.01.21.02.31.03v-.4Zm-.03,1.76c-.05,0-.12-.03-.2-.05-.07-.01-.16-.02-.26-.02s-.2,0-.32,0c-.42,0-.73.06-.91.17-.19.11-.28.28-.28.5s.08.38.23.53.37.22.63.22c.18,0,.33-.02.46-.07.13-.05.25-.1.34-.16.11-.07.21-.16.29-.25v-.85Z"/><path class="cls-3" d="m69.22,132.04h-.34c-.55,0-.82-.24-.82-.73,0-.31.09-.55.26-.73.17-.17.41-.26.72-.26h.28l.29-1.04c.11-.4.28-.69.49-.85s.5-.25.88-.25c.28,0,.49.08.64.22.15.15.22.35.22.61v1.3h1.07c.55,0,.82.24.82.73,0,.31-.08.55-.26.73-.17.18-.42.26-.75.26h-.88v3.02c0,.5.06.83.19,1.01.13.18.32.27.56.27.15,0,.28,0,.38-.03s.2-.03.3-.03c.16,0,.28.05.38.15.1.1.15.25.15.43,0,.16-.03.29-.09.4-.06.11-.14.22-.24.33-.11.1-.32.22-.62.36s-.73.21-1.29.21c-.83,0-1.42-.22-1.8-.65s-.56-1.08-.56-1.94v-3.54Z"/><path class="cls-3" d="m78.99,131.96s-.06,0-.09-.01c-.03-.01-.07-.02-.12-.02s-.11,0-.17,0c-.42,0-.78.18-1.08.53-.29.36-.44.93-.44,1.73s.17,1.32.5,1.68c.33.36.8.53,1.41.53.18,0,.32-.01.44-.03s.22-.04.32-.06.18-.04.26-.06c.08-.02.15-.03.22-.03.2,0,.35.06.46.17s.16.27.16.46c0,.26-.1.49-.29.68-.07.07-.18.15-.31.24-.13.09-.3.17-.5.24-.2.07-.42.13-.68.18-.26.05-.55.07-.88.07-1.19,0-2.11-.33-2.76-.98-.66-.66-.98-1.57-.98-2.73,0-.66.1-1.26.31-1.8.21-.54.5-1,.87-1.39s.83-.68,1.36-.88c.53-.21,1.13-.31,1.79-.31.46,0,.84.05,1.13.14s.51.21.65.36c.1.1.17.22.21.36.04.14.05.38.05.72v.52c0,.11,0,.29-.02.53-.01.26-.08.44-.21.56-.13.11-.29.17-.49.17-.22,0-.39-.06-.51-.17-.12-.11-.23-.28-.31-.51l-.29-.87Z"/><path class="cls-3" d="m82.66,128.79l-.45-.12c-.24-.07-.4-.17-.5-.28-.09-.11-.14-.28-.14-.5,0-.23.05-.4.14-.52.09-.12.25-.21.48-.29.21-.07.47-.13.79-.18.32-.05.64-.07.95-.07.49,0,.84.1,1.04.29.2.2.3.54.3,1.04v1.58c0,.23-.01.46-.03.71-.02.25-.05.49-.09.71l.03.02c.13-.19.3-.36.5-.51.18-.12.4-.24.68-.35.28-.11.63-.16,1.04-.16.94,0,1.66.25,2.15.75.49.5.74,1.24.74,2.24v3.21l.45.17c.24.09.4.19.49.3.09.11.13.26.13.47,0,.22-.08.41-.23.56s-.37.22-.65.22h-2.82c-.29,0-.51-.07-.67-.22s-.23-.33-.23-.56c0-.19.04-.35.12-.45.08-.11.22-.22.43-.33l.37-.15v-2.67c0-.59-.1-1-.31-1.24s-.5-.36-.89-.36c-.2,0-.37.03-.51.09-.15.06-.27.13-.37.22-.12.09-.23.2-.31.31v3.65l.37.15c.21.11.35.22.43.33.08.11.12.26.12.45,0,.22-.08.41-.23.56s-.38.22-.66.22h-2.81c-.28,0-.49-.07-.65-.22s-.23-.33-.23-.56c0-.21.04-.36.12-.47s.24-.21.46-.3l.46-.17v-7.57Z"/><path class="cls-3" d="m96.57,128.79l-.45-.12c-.24-.07-.4-.17-.5-.28-.09-.11-.14-.28-.14-.5,0-.23.05-.4.14-.52.09-.12.25-.21.48-.29.21-.07.47-.13.79-.18.32-.05.64-.07.95-.07.49,0,.84.1,1.04.29.2.2.3.54.3,1.04v8.19l.45.17c.23.09.39.19.48.3s.14.26.14.47c0,.22-.08.41-.23.56-.15.15-.38.22-.66.22h-2.96c-.28,0-.49-.07-.65-.22s-.23-.33-.23-.56c0-.21.04-.36.12-.47s.24-.21.46-.3l.46-.17v-7.57Z"/><path class="cls-3" d="m103.61,134.69c.09.57.31.99.66,1.28s.82.43,1.43.43c.25,0,.46-.01.64-.04.18-.03.34-.05.47-.08s.25-.05.35-.08c.1-.03.19-.04.29-.04.19,0,.33.06.44.17.11.11.16.27.16.46,0,.13-.02.25-.06.35-.04.1-.11.2-.22.3-.19.19-.51.37-.97.54-.46.17-1.07.26-1.83.26-.64,0-1.21-.09-1.7-.26-.5-.18-.91-.43-1.25-.75s-.59-.72-.77-1.19c-.18-.47-.26-1-.26-1.6,0-.66.1-1.26.29-1.79.2-.53.47-.98.83-1.35.36-.37.78-.65,1.29-.85.5-.2,1.06-.3,1.66-.3,1.05,0,1.86.28,2.43.84.57.56.85,1.34.85,2.35,0,.46-.1.79-.31,1.01s-.5.33-.88.33h-3.55Zm2.28-1.36c-.02-.52-.13-.89-.32-1.12-.19-.22-.44-.34-.75-.34-.33,0-.6.13-.81.38-.21.26-.34.61-.4,1.07h2.28Z"/><path class="cls-3" d="m114.13,136.61c1.09,0,1.88.19,2.37.58.49.39.73.92.73,1.59,0,.39-.09.77-.28,1.13-.19.36-.46.68-.84.96-.37.28-.84.5-1.39.67-.56.17-1.2.25-1.94.25-.65,0-1.2-.05-1.66-.16s-.82-.26-1.1-.46-.48-.42-.61-.68c-.13-.26-.19-.53-.19-.82,0-.21.03-.4.1-.58.07-.18.16-.34.27-.49.11-.14.25-.28.4-.39.15-.12.32-.22.51-.3-.2-.12-.35-.28-.46-.46-.11-.19-.17-.42-.17-.7,0-.15.02-.3.07-.44.05-.14.11-.27.19-.4.08-.13.19-.25.31-.36s.25-.2.39-.29c-.29-.17-.55-.43-.77-.77s-.34-.77-.34-1.29c0-.44.08-.85.24-1.22.16-.37.4-.69.71-.96.31-.27.7-.48,1.16-.63.46-.15.99-.22,1.59-.22.19,0,.35,0,.5.02.14.01.27.03.37.05.11.03.21.06.29.08.29-.49.57-.87.84-1.15.27-.28.58-.43.93-.43.28,0,.51.09.7.27.19.18.28.38.28.61,0,.17-.04.3-.12.42-.08.11-.18.22-.32.32-.13.1-.28.2-.44.31s-.32.24-.49.39c.18.17.33.39.46.67.13.28.2.62.2,1.01,0,.43-.08.84-.24,1.22-.16.38-.4.7-.71.97s-.7.48-1.16.63c-.46.15-.99.22-1.59.22h-.32c-.1,0-.19,0-.27-.02-.09-.01-.18-.03-.26-.05-.02.04-.04.08-.05.11,0,.03-.02.07-.03.12,0,.05-.01.1-.01.16,0,.08.02.15.05.22.03.06.09.11.19.15.09.04.22.08.39.1.16.03.38.04.65.04h.88Zm-1.17,1.8c-.17,0-.31,0-.43,0s-.23-.01-.33-.02c-.09,0-.18-.02-.25-.03-.05.06-.09.13-.12.21-.04.07-.07.15-.09.25-.02.09-.03.2-.03.32,0,.29.11.52.32.69.22.17.59.26,1.13.26s.91-.1,1.16-.31c.25-.21.37-.43.37-.67,0-.21-.08-.38-.23-.51-.15-.12-.44-.18-.85-.18h-.65Zm-.77-5.47c0,.35.1.62.29.82.19.2.43.3.72.3s.52-.09.7-.28c.18-.18.26-.44.26-.78s-.09-.62-.28-.82c-.19-.2-.42-.3-.71-.3s-.52.09-.7.28c-.18.18-.27.44-.27.78Z"/><path class="cls-3" d="m122.56,133.3c0-.47-.1-.8-.29-1-.2-.19-.54-.29-1.04-.29-.31,0-.58.02-.81.05-.23.04-.43.07-.6.11-.17.04-.32.07-.45.11-.13.04-.25.05-.35.05-.21,0-.37-.07-.5-.2-.13-.13-.19-.3-.19-.51s.08-.39.25-.56c.09-.09.24-.19.44-.3s.45-.21.74-.29c.29-.09.62-.16.99-.22.37-.06.76-.08,1.19-.08,1.16,0,1.99.23,2.5.68s.76,1.11.76,1.99c0,.56,0,1.11-.02,1.65-.01.54,0,1.15.05,1.81l.46.09c.23.05.38.13.47.24s.13.27.13.48-.05.38-.15.51-.26.23-.47.31c-.23.08-.49.15-.79.19s-.6.07-.9.07c-.41,0-.71-.09-.9-.26-.19-.17-.28-.43-.28-.77v-.08h-.03c-.11.21-.27.41-.48.57-.18.16-.41.29-.71.41-.29.12-.66.18-1.08.18-.39,0-.75-.06-1.08-.18-.33-.12-.61-.29-.84-.5-.23-.21-.41-.47-.54-.76-.12-.29-.19-.61-.19-.94,0-.3.07-.59.22-.86.14-.27.36-.51.65-.71.29-.2.66-.36,1.12-.48.46-.12,1-.18,1.63-.18.15,0,.29,0,.42.02.12,0,.24.02.34.03.1.01.21.02.31.03v-.4Zm-.03,1.76c-.05,0-.12-.03-.2-.05-.07-.01-.16-.02-.26-.02s-.2,0-.32,0c-.42,0-.73.06-.91.17-.19.11-.28.28-.28.5s.08.38.23.53.37.22.63.22c.18,0,.33-.02.46-.07.13-.05.25-.1.34-.16.11-.07.21-.16.29-.25v-.85Z"/><path class="cls-3" d="m127.62,128.79l-.45-.12c-.24-.07-.4-.17-.5-.28-.09-.11-.14-.28-.14-.5,0-.23.05-.4.14-.52.09-.12.25-.21.48-.29.21-.07.47-.13.79-.18.32-.05.64-.07.95-.07.49,0,.84.1,1.04.29.2.2.3.54.3,1.04v8.19l.45.17c.23.09.39.19.48.3s.14.26.14.47c0,.22-.08.41-.23.56-.15.15-.38.22-.66.22h-2.96c-.28,0-.49-.07-.65-.22s-.23-.33-.23-.56c0-.21.04-.36.12-.47s.24-.21.46-.3l.46-.17v-7.57Z"/><path class="cls-3" d="m133.04,133.11c0-.29.05-.55.15-.77.1-.23.22-.43.36-.62.14-.19.3-.36.48-.53.18-.17.34-.33.49-.49.15-.16.27-.32.37-.49s.15-.35.15-.56c0-.31-.1-.55-.29-.73-.19-.18-.49-.26-.89-.26-.16,0-.29.01-.41.03s-.22.04-.32.07c-.09.03-.19.05-.29.08-.1.03-.2.04-.3.04-.21,0-.37-.07-.5-.22-.13-.14-.19-.31-.19-.51,0-.23.08-.42.25-.59.09-.09.22-.19.37-.28s.34-.18.56-.25c.22-.08.47-.14.74-.19.27-.05.56-.07.88-.07.54,0,1,.06,1.39.18.39.12.71.28.97.5.26.21.45.46.57.76.12.29.19.62.19.97,0,.33-.05.62-.15.88-.1.26-.24.49-.4.69-.17.2-.34.38-.52.55s-.35.33-.52.49-.3.33-.4.5c-.1.17-.15.36-.15.58,0,.12,0,.23.02.32s.02.17.04.25c.02.08.03.15.04.21.01.06.02.13.02.2,0,.23-.1.41-.3.56-.2.14-.53.22-.98.22s-.79-.13-1.03-.39c-.24-.26-.36-.63-.36-1.11Zm0,3.67c0-.43.14-.79.43-1.08.29-.29.66-.43,1.1-.43s.81.14,1.09.42c.28.28.43.63.43,1.07s-.15.79-.44,1.08c-.29.28-.66.43-1.11.43s-.81-.14-1.08-.41-.42-.63-.42-1.06Z"/></g></svg>