<?xml version="1.0" encoding="UTF-8"?><svg id="Layer_1" xmlns="http://www.w3.org/2000/svg" viewBox="0 0 562.87 703.82"><defs><style>.cls-1{fill:#182a42;}.cls-1,.cls-2,.cls-3{stroke-width:0px;}.cls-2{fill:#854430;}.cls-3{fill:#ffe7d7;}</style></defs><path class="cls-2" d="m452.85,197.86s-80.66-33.59-148.8,45.9c-15.17,17.7-38.37,49.26-44.85,68.72-15.59,46.79-26.81,143.65-12.93,190.98,11.73,40,64.98,97,103.4,112.27,38.32,15.23,148.11,3.3,148.11,3.3l53.16-14.18-12.84-38.2-60.63-41.38s-30.18-20.12-36.58-33.32c-7.35-15.15-6.29-44.87,0-60.49,11.6-28.83,24.07-66.56,33.88-118.62,4.3-22.8,1.81-79.25,1.81-79.25l-23.73-35.74Z"/><path class="cls-3" d="m294.14,557.6c.79.36,1.33,1.02,1.93,1.61.55.53,1.06,1.13,1.92,1.12.01.3-.19.63.07.9,2.47,2.41,4.67,5.09,7.42,7.21,1.09.64,1.88,1.55,2.59,2.58.56.82,1.13,1.7,2.3,1.75-.11.63.23,1.03.65,1.44,2.79,2.74,5.45,5.6,7.8,8.74.19.26.37.54.77.38,1.38,3.76,4.2,6.34,7.24,8.69,4.78,3.7,10.35,5.91,15.91,8.09,8.16,3.19,16.61,5.49,24.93,8.17,5.22,1.68,10.29,3.82,15.65,5.05.54.12,1.09.22,1.64.32,5.67,2,11.62,2.39,17.52,3.11.27.03.57-.22.86-.34,1.7,1.06,3.63.92,5.51,1.02,1.91.72,3.93.44,5.89.53,5.07.23,10.15.49,15.23.26,2.83.03,5.66.06,8.49.09,6.58-.44,13.11-1.44,19.72-1.56,1.48-.03,3.02.31,4.45-.4,3.48.03,6.97.05,10.45.08,2.95.2,5.89-.08,8.82-.4,1.32-.14,2.74.29,3.96-.57,2.73.33,5.39-.65,8.12-.47.64,0,1.28.06,1.91-.02,3.37-.41,6.8-.5,9.99-1.85,2.29.14,4.25-1.07,6.4-1.51,5.72-1.25,11.37-2.79,16.97-4.49.39-.12.7-.36.79-.8,2.36.2,4.39-1.12,6.64-1.41,1.99-.13,3.81-1.05,5.78-1.29,4.19-.51,8.09-.19,10.48,4.01.52,3.09-.66,5.63-2.63,7.88-2.26,2.57-3.98,5.57-6.42,8.01-.68.68-.78,1.92-1.34,2.77-2.53,3.77-5.17,7.46-8.95,10.13-5.41,3.8-10.33,8.22-15.54,12.27-7.61,5.91-15.14,11.99-24.06,15.92-5.12,2.26-10.15,4.71-15.05,7.38-7.09,3.86-14.48,7.08-21.76,10.5-7.43,3.48-15.2,6.16-23.17,8.21-4.87,1.26-9.54,3.13-14.33,4.62-2.81.88-5.69,1.42-8.63,1.7-2.68.26-5.34.75-8.01,1.11-2.12.28-4.25.66-6.38.73-1.38.04-2.66.44-4.01.55-5.22.43-10.51.55-15.63,1.52-10.14,1.92-20.35,1.46-30.53,1.22-8.4-.2-16.84-1.14-24.86-3.93-5.71-1.99-11.59-3.56-16.98-6.44-1.84-.98-3.55-2.11-5.23-3.33-4.72-3.4-9.86-6.16-14.85-9.13-4.25-2.52-8.66-4.76-13-7.13-3.83-2.1-7.98-3.61-12.01-5.33-4.99-2.13-9.85-4.52-14.42-7.46-4.82-3.11-9.49-6.48-14.45-9.36-6.43-3.74-13.25-6.6-20.57-8.25-4.93-1.12-9.91-1.58-14.92-1.37-6.09.26-11.89,1.84-17.54,4.16-6.41,2.63-12.58,5.83-19.21,7.96-2.81.9-5.56,2.04-8.59,1.75-1.07-.1-2.03.33-3.05.45-.17-.56-.69-.73-1.13-.74-3.61-.15-6.52-2.01-9.41-3.86-3.39-2.16-6.67-4.47-8.35-8.34-3.31-7.64-5.35-15.55-4.72-23.97.17-2.24.22-4.47,0-6.71-.65-6.8-.44-13.54,1.01-20.25,3.25-15.05,10.4-27.55,23.3-36.39,6.16-4.22,10.99-9.71,15.18-15.82,4.07-5.94,8.5-11.59,13.47-16.82,4.05-4.26,7.15-9.2,9.9-14.37,5.53-10.41,8.15-21.63,9.01-33.29.91-12.35,2.44-24.63,4.06-36.9,2.36-17.84,3.68-35.75,3.79-53.74.03-5.44.28-10.87,1.03-16.25,2.35-16.92,4.44-33.89,7.59-50.69,1.38-7.37,2.52-14.8,4.57-22.04,2.91-10.26,7.11-20,11.95-29.48,2.44-4.78,4.54-9.67,6.15-14.8,4.38-14.02,8.8-28.03,13.26-42.03,3.35-10.5,6.58-21.04,11.03-31.14,3.56-8.08,7.84-15.72,13.61-22.47,4-4.68,7.62-9.66,11.42-14.5,4.29-5.47,7.46-11.51,9.55-18.13.46-1.45.94-2.89,1.45-4.32,1.82-5.12,3.65-10.27,6.69-14.81,3.19-4.79,6.1-9.75,8.93-14.76,5.12-9.08,12.58-15.66,21.99-19.95,6.1-2.78,12.2-5.57,18.25-8.46,3.03-1.45,6.13-2.75,9.43-3.42,4.47-.9,9-1.58,13.56-.99,6.65.86,11.73,4.5,15.72,9.65,2.74,3.54,5.78,6.81,8.57,10.3.33,1.1,1.26,1.84,1.75,2.84,1.74,2.21,2.76,4.81,3.88,7.34,1.99,4.53,3.43,9.26,4.97,13.95,2.43,7.43,5.35,14.63,9.18,21.5,3.8,6.82,7.48,13.71,11.99,20.1,1.24,1.76,2.53,3.47,4.07,4.99,3.93,3.87,7.6,8.02,11.77,11.61,4.12,3.54,8.05,7.25,11.89,11.07,4.38,4.37,7.77,9.46,10.82,14.8,1.47,2.56,3.01,5.08,4.29,7.73,1.7,3.5,3.28,7.05,4.05,10.94.88,4.44,2.16,8.8,3.01,13.24.9,4.67,2.08,9.32,1.72,14.16-.05.71,0,1.42.21,2.13.96,3.15-.51,6.82-3.98,7.48-1.24.38-2.21-.67-3.39-.61-.3-1.49-1.44-2.42-2.36-3.51-.76-1.82-1.53-3.63-2.91-5.1-.71-2.42-1.88-4.58-3.65-6.39-.19-1.72-1.44-2.9-2.18-4.34-.31-.6-.57-1.33-1.44-1.39.08-1.67-1.18-2.73-1.88-4.03-.48-.9-1.26-1.65-1.81-2.52-.83-1.32-2.01-2.09-3.35-2.89-3.79-2.27-7.95-3.67-11.9-5.56-6.13-2.93-12.57-5.08-19.29-6.05-4.06-.59-8.18-1.01-12.32-1.18-2.93-.12-5.87-.46-8.81-.35-5.55.21-11.08.6-16.61,1.29-7.01.89-13.67,2.89-20.21,5.43-3.13,1.21-6.02,2.9-8.84,4.73-6.88,4.48-13.32,9.52-19.72,14.65-5.25,4.2-9.91,9-14.62,13.77-2.53,2.56-5.41,4.7-8.18,6.96-4.09,3.35-7.8,6.95-10.85,11.32-5.09,7.31-10.43,14.44-15.65,21.67-.46.64-.89,1.34-1.17,2.07-3.85,10.03-8.57,19.71-11.99,29.93-1.97,5.88-4.35,11.63-6.28,17.54-1.75,5.37-3.19,10.83-4.59,16.3-.4,1.54-.84,3.07-1.28,4.59-.14.49-.2.93.23,1.31-.17.64-.33,1.28-.5,1.92-1.38,1.94-1.69,4.16-1.72,6.46-.82,1.53-1.37,3.11-.85,4.87-.34.23-.58.54-.66.95-.88,4.27-1.51,8.58-1.79,12.93-.19,1.76-.37,3.52-.56,5.28-.03,8.18-.06,16.37-.06,24.55,0,1.35.36,2.65.96,3.87-.44.15-.58.49-.57.92.09,4.1-.14,8.2.17,12.3-.16,3.03-.15,6.07,0,9.1.01,1.91.03,3.82.04,5.72-.3,5.11-.04,10.22-.15,15.33-.08,3.73-.39,7.45-.88,11.15-.27,2.04-.36,4.14-.42,6.17-.12,3.58-.84,7.13-.62,10.72.06.95,0,1.89-.28,2.84-.22.74-.25,1.6-.14,2.37.88,6.36,1.05,12.8,2.3,19.11.17.86.14,1.74.23,2.61.29,2.84,1.89,5.04,3.39,7.27,5.19,7.73,10.28,15.54,15.74,23.08,3.12,4.31,6.41,8.5,9.38,12.93.91,1.35,2.12,2.6,3.64,3.4,1.34,2.06,3.41,3.34,5.19,4.93Zm139.25,94.36c1.04,0,2.08,0,3.12,0,6.84.08,13.5-1.11,20.07-2.93,1.93-.53,3.82-1.21,5.43-2.44,3.06-2.34,2.6-6.1-.93-7.61-1.26-.54-2.59-.82-3.94-.95-6.99-.68-13.96-1.52-20.93-2.38-7.92-.98-15.83-2.05-23.65-3.68-6.41-1.33-12.78-2.82-19.2-4.04-11.68-2.22-23.41-4.18-34.8-7.7-2.3-.71-4.52-1.53-6.62-2.71-17.01-9.47-32.28-21.19-45.72-35.29-3.92-4.11-8.16-7.88-12.24-11.82-1.71-1.65-3.26-1.87-4.73-.87-1.46.99-1.79,2.58-.92,4.72.91,2.24,2.24,4.23,3.66,6.16,2.79,3.8,5.57,7.61,8.43,11.35,7.45,9.75,15.6,18.82,25.53,26.16,1.8,1.33,3.51,2.78,5.2,4.24,6.71,5.82,14.28,10.21,22.51,13.46,15.33,6.04,31.09,10.65,47.37,13.29,10.72,1.74,21.5,2.99,32.38,3.03Zm-35.61-476.04c-7.68-.36-15.61.46-23.47,2.04-8.96,1.79-17.76,4.02-25.76,8.63-6.51,3.75-12.88,7.73-18.97,12.13-2.4,1.73-4.73,3.56-6.89,5.58-6.41,6.03-12.27,12.59-18.27,19.01-.86.93-1.58,2.01-2.25,3.09-.46.74-.82,1.56-1.07,2.39-.92,3.11,1.46,5.61,4.65,4.96,1.11-.23,2.13-.68,3.08-1.27,1.22-.76,2.41-1.57,3.58-2.41,10.66-7.63,21.5-14.99,32.86-21.53,9.15-5.27,18.58-9.92,28.69-13.11,10.25-3.24,20.66-5.58,31.48-5.41,4.22.07,8.44.55,12.65.93,6.56.61,12.95,2.05,18.92,4.87,6.14,2.9,12.1,6.18,17.62,10.16,3.69,2.66,7.62,4.99,10.88,8.23,1.4,1.39,3.07,1.47,4.38.59,1.99-1.33,2.76-4.13,1.73-6.34-.92-1.98-2.37-3.58-3.79-5.21-8.35-9.58-18.89-16-30.57-20.46-12.55-4.78-25.57-7.5-39.47-6.88Zm-160.74,250.7c0,.96,0,1.92,0,2.88.05,6.15-.17,12.3.32,18.45.17,2.15.32,4.31,1.02,6.37.66,1.96,2.01,2.96,3.67,2.85,1.58-.1,2.67-1.11,3.22-3.07.47-1.7.6-3.46.75-5.2.68-7.63,1.12-15.28,1.49-22.93.15-3.03.38-6.06.79-9.06.79-5.77,1.81-11.51,2.61-17.28.96-6.88,1.8-13.77,2.67-20.65,1.05-8.31,2.06-16.63,3.11-24.95.82-6.49,1.56-12.99,2.7-19.44,1.2-6.77,3.32-13.32,4.7-20.04.47-2.28,1.16-4.47,1.96-6.65,1.57-4.28,2.74-8.67,3.31-13.21.13-1.07.1-2.08-.23-3.07-.8-2.4-3.17-3.33-5.39-2.13-1.08.58-1.86,1.5-2.57,2.47-2.02,2.72-3.47,5.75-4.49,8.96-1.31,4.1-2.48,8.25-3.71,12.38-2.21,7.42-4.77,14.73-6.43,22.31-3.26,14.91-5.57,29.97-7.24,45.13-1.42,12.86-2.34,25.76-2.25,38.71.02,2.4,0,4.8,0,7.19Zm-1.63,89.16c-.11,1.84.63,3.27,2.05,4.37.76.58,1.55,1.13,2.35,1.65,7.14,4.62,13.68,9.96,19.48,16.2,1.41,1.52,2.9,2.97,4.37,4.44.51.51,1.03,1.02,1.62,1.42,1.42.98,3.06.86,4.17-.23,1.13-1.11,1.3-2.65.35-4.15-.47-.73-1.07-1.39-1.67-2.03-3.64-3.93-7.31-7.82-10.93-11.76-3.79-4.11-6.49-8.85-8.35-14.12-2.04-5.77-2.83-11.77-3.69-17.77-.41-2.84-.69-5.7-1.08-8.55-.3-2.14-1.63-3.47-3.33-3.46-1.81,0-3.11,1.46-3.34,3.71-.02.16-.03.32-.03.48-.08,4.31-.47,8.61-.35,12.93.08,2.95.02,5.9-.45,8.84-.44,2.68-.78,5.37-1.17,8.05Zm293.15,109.3c-.02-1.67-.74-2.77-1.98-3.39-1.14-.57-2.3-.49-3.5-.21-2.49.58-4.89,1.46-7.24,2.43-7,2.89-14.15,5.35-21.48,7.29-3.46.92-6.89,1.98-10.31,3.03-1.52.47-3.03,1.02-4.38,1.89-1.74,1.13-2.34,2.88-1.61,4.52.93,2.09,2.95,3.21,5.24,2.7,3.42-.76,6.84-1.53,10.22-2.47,9.98-2.79,19.81-6.01,29.2-10.46,1.44-.68,2.86-1.41,4.1-2.43,1.02-.84,1.73-1.87,1.74-2.9ZM324.17,93.1c-.09,2.02.08,3.98,1.03,5.82,2.3,4.44,6.52,4.8,9.46.79,1.11-1.51,1.71-3.24,2.02-5.06.29-1.65.71-3.26,1.15-4.87.85-3.08,1.55-6.18,1.38-9.41-.12-2.3-1.09-4.14-2.87-5.54-2-1.57-4.41-1.47-6.34.2-.99.85-1.66,1.95-2.18,3.11-2.14,4.76-3.47,9.73-3.67,14.97Zm64.74-4.78c-.08-.52-.19-1.55-.38-2.56-.94-5-3.03-9.42-6.77-12.93-3.09-2.9-7.29-1.58-8.28,2.55-.13.54-.23,1.11-.2,1.65.29,5.8,1.97,11.15,5.45,15.83,1.49,2,3.45,3.44,6.18,2.64,2.8-.82,3.63-3.13,4.01-5.7.05-.31,0-.64,0-1.47Zm-95.89,151.23c-.97.07-2.05.26-2.79.99-2.15,2.12-4.17,4.38-5.57,7.09-.7,1.36-.69,2.79.35,4.02,1.05,1.24,2.52,1.57,3.9.97,3.72-1.63,6.45-4.37,7.77-8.24.79-2.33-1.18-4.77-3.67-4.83Zm247.28,381.93c1.57-.17,3.09-.33,4.36-1.29,1.24-.94,1.94-2.18,1.63-3.74-.34-1.68-1.35-2.91-3.05-3.36-2.73-.72-5.25.22-6.95,2.52-1.24,1.68-.96,3.56.69,4.84,1,.78,2.18.92,3.33,1.03Zm-63.42-396.31c-.17-1.73-.25-3.66-1.38-5.31-1.07-1.56-3.23-2.24-4.84-1.58-1.53.63-2.2,2.39-1.75,4.46.38,1.75,1.24,3.27,2.31,4.66.99,1.3,2.26,1.71,3.56,1.3,1.35-.43,2.11-1.65,2.12-3.54Z"/><path class="cls-1" d="m397.83,75.21c-2.79-3.49-5.83-6.76-8.57-10.3-3.99-5.15-9.07-8.79-15.72-9.65-4.57-.59-9.09.09-13.56.99-3.31.67-6.4,1.97-9.43,3.42-6.05,2.89-12.14,5.68-18.25,8.46-9.41,4.29-16.88,10.87-21.99,19.95-2.82,5.01-5.73,9.96-8.93,14.76-3.03,4.55-4.87,9.69-6.69,14.81-.51,1.43-.99,2.87-1.45,4.32-2.09,6.62-5.27,12.65-9.55,18.13-3.79,4.84-7.42,9.82-11.42,14.5-5.77,6.75-10.05,14.38-13.61,22.47-4.45,10.11-7.68,20.65-11.03,31.14-4.46,14-8.88,28.01-13.26,42.03-1.6,5.13-3.71,10.03-6.15,14.8-4.84,9.48-9.03,19.22-11.95,29.48-2.05,7.23-3.19,14.66-4.57,22.04-3.16,16.8-5.24,33.77-7.59,50.69-.75,5.38-1,10.81-1.03,16.25-.1,17.99-1.43,35.9-3.79,53.74-1.62,12.27-3.15,24.55-4.06,36.9-.86,11.66-3.48,22.87-9.01,33.29-2.75,5.17-5.85,10.11-9.9,14.37-4.97,5.23-9.4,10.88-13.47,16.82-4.19,6.12-9.02,11.61-15.18,15.82-12.91,8.84-20.06,21.34-23.3,36.39-1.45,6.72-1.66,13.45-1.01,20.25.21,2.23.16,4.47,0,6.71-.63,8.42,1.41,16.32,4.72,23.97,1.68,3.87,4.96,6.18,8.35,8.34,2.89,1.85,5.8,3.71,9.41,3.86.43.02.96.19,1.13.74-4.84,1.01-9.6,2.37-14.5,3.13-9.95,1.54-19.93,2.92-30.04,2.05-7.95-.68-15.88-1.51-23.79-2.65-7.55-1.09-14.85-2.97-21.92-5.81-2.9-1.16-5.73-2.48-8.26-4.32-3.83-2.79-8-4.95-12.28-6.94-.8-.37-1.56-.83-2.38-1.13-8.55-3.17-14.95-9.03-20.37-16.13-.53-.7-1.05-1.42-1.64-2.06-4.46-4.85-6.1-10.71-6.36-17.13-.15-3.93.16-7.83.59-11.72.74-6.51,1.2-13.04,1.35-19.59.18-8.39.33-16.78.54-25.17.13-5.04,1.05-9.99,1.83-14.96,1.39-8.93,3.38-17.72,5.79-26.42,1.15-4.13,2.73-8.12,6.17-10.88,3.56-2.84,6.56-6.29,10.24-8.99,1.68-1.23,3.07-2.78,4.29-4.49,2.28-3.19,4.8-6.17,7.69-8.85,2.23-2.07,4.2-4.38,5.96-6.87,2.36-3.34,5.02-6.42,7.93-9.29,4.9-4.84,9.38-10.04,13.31-15.71,2.14-3.09,4.42-6.07,6.8-8.98,2.49-3.03,4.76-6.21,6.9-9.5,1.22-1.88,2.35-3.82,3.69-5.6,7.68-10.24,14.22-21.23,21.26-31.9,2.64-4.01,5.09-8.11,7.16-12.45,2.06-4.33,4.23-8.6,6.35-12.89,1.27-2.58,2.54-5.17,3.46-7.89,3.91-11.54,9.58-22.28,15.09-33.09,4.95-9.73,11.44-18.45,17.65-27.36.87-1.25,1.91-2.38,3.12-3.3.83-.64,1.11-1.4,1.32-2.4.69-3.29.32-6.55-.32-9.76-1.35-6.72-1.56-13.46-.96-20.27.36-4.13.29-8.3,1.01-12.41.53-3,1.57-5.85,2.46-8.75,2.15-7.02,4.33-14.03,7.06-20.86,1.81-4.53,3.26-9.21,3.91-14.05,1.12-8.4,5.13-15.37,10.29-21.81,2.96-3.7,6.45-6.88,10.24-9.71,3.3-2.47,6.94-4.27,11.07-4.85,2.49-.35,4.55-1.47,6.21-3.3,1.08-1.18,2.08-2.43,3.05-3.69,8.3-10.85,16.27-21.94,24.04-33.18,3.95-5.71,8.19-11.23,12.31-16.83,1.67-2.27,3.68-4.23,5.96-5.86,1.85-1.33,3.38-2.92,4.64-4.79,3.57-5.3,7.32-10.49,10.59-15.98,4.88-8.18,10.29-15.98,16.3-23.37,2.33-2.86,4.82-5.54,7.65-7.92,2.7-2.27,5.37-4.59,7.37-7.51,5.95-8.74,13.72-15.77,21.36-22.93,1.75-1.64,3.51-3.26,5.28-4.88.71-.65,1.44-1.26,2.16-1.89,4.65-4.09,9.96-4.9,15.65-2.8,3.5,1.29,7.12,2.31,10.36,4.3,3.83,2.35,7.06,5.27,9.13,9.28,3.19,6.18,7.54,11.68,10.41,18.04,1.58,3.5,3.36,6.88,5.41,10.13,1.83,2.91,3.27,6.04,4.72,9.15,2.06,4.41,4.12,8.82,6.16,13.25.36.79.84,1.55.89,2.46-.16.2-.31.39-.47.59Zm-186.74,135.13c-.07-1.75-.05-3.09-.2-4.45-.38-3.27-1.52-6.35-2.33-9.5-.59-2.29-1.39-4.56-3.42-6.15-1.48-1.16-2.09-1.27-3.54-.04-2.36,2-4.07,4.47-5.22,7.33-1.3,3.22-1.73,6.59-1.96,10.04-.36,5.58.59,10.97,2.07,16.29.61,2.2,1.72,4.13,3.78,5.33,1.78,1.03,3.36.8,4.72-.7.43-.47.81-.99,1.13-1.54,3.03-5.26,5.05-10.82,4.97-16.6Z"/><path class="cls-1" d="m553.06,607.59c-2.4-4.2-6.29-4.52-10.48-4.01-1.97.24-3.79,1.16-5.78,1.29-.28-5.56-1.84-10.67-5.2-15.18-.42-.56-.75-1.24-.94-1.92-.41-1.46.08-2.68,1.24-3.62,1.21-.98,2.28-1.05,3.76-.17,2.83,1.7,5.36,3.76,7.59,6.19.48.52.95,1.06,1.59,1.76.31-.79.06-1.32-.14-1.86-2.08-5.53-3.86-11.24-6.9-16.3-3.57-5.96-7.68-11.59-13.75-15.41-3.28-2.06-6.93-2.82-10.72-2.81-2.02,0-3.29-.75-4.27-2.45-.71-1.23-.83-2.42-.3-3.66,1.54-3.61,2.87-7.26,3.31-11.21.18-1.62,1.36-2.5,2.73-2.57,1.48-.07,2.58.76,3.01,2.53.66,2.72.82,5.52.96,8.31.03.56.04,1.12.04,1.68,0,.7.4.96,1.03,1.08.65.12,1.09-.07,1.32-.7.36-.97.71-1.95,1.07-2.92.28-.75.51-1.53.9-2.21.64-1.14,1.65-1.7,3-1.52,1.25.17,1.99.96,2.4,2.08.38,1.07.36,2.2.36,3.32,0,1.28.05,2.54.25,3.82.23,1.4.84,2.37,2.28,2.82,1.27-1.27,1.83-2.94,2.47-4.56.38-.96.65-1.98,1.1-2.91.69-1.44,2-2.15,3.26-1.91,1.33.25,2.32,1.3,2.52,2.85.24,1.92.02,3.83-.25,5.73-.39,2.77-.65,5.55-.85,8.34-.14,1.86,1.08,2.92,1.93,4.22.39.6,1.03.28,1.52.07,1.64-.71,3.07-1.73,4.2-3.11.95-1.18,1.8-2.44,2.7-3.66,1.2-1.64,2.67-2.19,4.09-1.53,1.34.62,1.97,1.94,1.47,3.91-1.24,4.89-2.83,9.68-5.92,13.77-.79,1.05-.83,1.71.03,2.61.6.63,1.07,1.37,1.66,2.15,1.14-.52,1.74-1.45,2.24-2.42,1.1-2.13,2.14-4.29,3.2-6.43,1.07-2.16,2.47-3.03,4.05-2.51,1.63.54,2.32,1.96,1.97,4.36-.38,2.62-1.19,5.12-2.21,7.57-.74,1.77-1.41,3.56-2.11,5.34-1.25,3.16-1.25,6.57-1.94,9.84-.86,4.06-1.53,8.16-3.46,11.91Z"/><path class="cls-1" d="m392.94,241.51c-.02,5.36-.88,10.66-1.11,16-.06,1.36-.2,2.71-.17,4.06.1,3.99-.92,7.93-.57,11.94.01.16-.02.32-.04.48-.18,1.48-.89,2.57-2.36,3-1.41.41-2.51-.22-3.37-1.27-1.99-2.42-3.48-5.15-4.76-8-2.5-5.55-5.77-10.65-9.4-15.53-1.01-1.35-2.25-2.48-3.53-3.56-2.83-2.38-3.57-5.61-3.3-9.08.2-2.57,1.63-4.43,4.08-5.46,3.4-1.43,6.95-2.36,10.59-2.91,1.27-.19,2.18-.63,2.92-1.74,1.25-1.88,2.95-3.25,5.38-2.88,2.54.39,3.75,2.27,4.42,4.53,1,3.4,1.28,6.89,1.23,10.43Z"/><path class="cls-1" d="m401.41,224.8c1.16.01,2.18.49,3.17,1.01,3.48,1.83,6.64,1,9.63-1.12.84-.6,1.57-1.36,2.4-1.99,2.58-1.95,4.98-1.15,5.8,2.02.36,1.38.58,2.83.63,4.25.21,5.85,1.63,11.54,2.26,17.33.7,6.45,2.21,12.73,3.81,18.99.26,1,.51,2.02.6,3.05.12,1.35-.74,2.62-1.88,3.06-1.28.5-2.77.09-3.58-1.16-.6-.93-1.06-1.97-1.46-3-4.21-10.87-10.67-20.32-18.33-29-1.26-1.43-2.66-2.72-4.22-3.88-2.15-1.61-2.97-3.91-2.37-6.59.42-1.86,1.81-2.98,3.55-2.96Z"/><path class="cls-1" d="m460.15,289.26c1.02.12,1.65.2,2.28.26,2.35.23,3.39,1.56,2.94,3.92-.19,1.01-.56,2-.91,2.97-1.21,3.46-1.03,6.91,0,10.36.07.23.2.44.26.67.96,3.26-.76,5.58-4.1,5.19-4.64-.54-9.23.14-13.83.34-4.55.19-9.1.51-13.62-.25-.62-.1-1.26-.24-1.84-.49-2.62-1.1-3.21-3.74-1.26-5.81.65-.69,1.44-1.27,2.25-1.77,2.37-1.47,4.76-2.93,7.19-4.3,4.8-2.7,9.57-5.46,14.21-8.43,1.55-.99,3.13-1.94,4.94-2.37.62-.15,1.24-.25,1.49-.3Z"/><path class="cls-1" d="m293.26,321.9c.18-2.22.85-4.17,2.67-5.66,1.66-1.36,3.12-2.99,4.83-4.29,2.99-2.27,3.42-5.4,3.23-8.77-.05-.96-.23-1.88.16-2.82.76-1.83,2.49-2.65,4.28-1.86,1.41.62,2.58,1.49,3.06,3.13,1.17,3.93,3.02,7.53,5.51,10.81,1.26,1.65,2.17,3.53,3.12,5.38,1.23,2.42,2.56,4.77,4.15,6.99,1.71,2.39,1.84,3.79.66,5.21-1.09,1.31-2.5,1.41-5.04.41-3.21-1.27-6.63-1.7-10-2.29-3.13-.55-6.23-1.11-9.49-.78-2.14.22-4.52.07-6.02-2.11-.7-1.02-1.19-2.07-1.12-3.33Z"/><path class="cls-1" d="m346.37,294.09c-.03,1.5-1.15,2.73-2.66,2.93-.73.09-1.48,0-2.1-.33-3.02-1.62-6.35-2.06-9.65-2.63-1.58-.27-3.14-.65-4.59-1.3-3.4-1.5-6.96-2.28-10.65-2.55-1.57-.12-2.83-.69-3.31-2.27-.49-1.59.28-2.78,1.49-3.74,1-.79,2-1.6,3.03-2.35,5.05-3.69,7.71-8.79,8.83-14.82.09-.47.11-.96.25-1.41.49-1.59,1.51-2.32,3.19-2.35,1.79-.04,2.71.54,3.26,2.21.45,1.36.77,2.77,1.17,4.15,2.23,7.66,5.84,14.66,10.3,21.24,1.16,1.71,1.45,2.42,1.43,3.23Z"/><path class="cls-1" d="m365.78,275.76c0,.96.02,1.93-.3,2.85-.4,1.19-1.12,2.13-2.44,2.41-1.4.29-2.55-.21-3.34-1.36-.54-.78-.97-1.65-1.37-2.52-.9-1.96-1.73-3.95-2.61-5.92-2.31-5.2-6.27-8.33-11.84-9.47-1.4-.29-2.79-.7-4.06-1.41-3.66-2.07-3.81-6.17-.33-8.55,1.44-.99,3.11-1.25,4.78-1.4,1.4-.13,2.66-.53,3.83-1.24,2.38-1.43,4.99-2.46,7.08-4.43,1.42-1.34,3.34-.6,3.96,1.29.17.52.22,1.1.22,1.65-.07,4.95,1.14,9.65,2.77,14.27,1.14,3.24,2.34,6.45,3.16,9.8.33,1.33.48,2.67.49,4.03Z"/><path class="cls-1" d="m429.8,594.64c-.11,1.52-.52,2.77-1.93,3.44-1.31.62-2.64.37-3.53-.63-1.32-1.49-2.93-1.76-4.73-1.79-.71,0-1.44-.1-2.14-.23-1.25-.25-2.38-.17-3.28.88-.2.24-.47.44-.73.61-1.29.88-2.47.91-3.55.11-1.04-.77-1.53-2.04-1.04-3.42,1.14-3.23,1.64-6.62,2.78-9.85,2.2-6.24,4.76-12.36,6.35-18.8.08-.31.22-.6.35-.89.73-1.66,1.81-2.46,3.22-2.41,1.49.06,2.65,1.01,3.03,2.9.79,3.99,1.46,8,2.15,12.01.97,5.66,1.91,11.32,2.86,16.98.07.39.13.79.19,1.09Z"/><path class="cls-1" d="m450.35,561.19c1.15,0,2.07.45,2.69,1.36.39.59.7,1.25.94,1.92,2.78,7.72,5.34,15.51,7.08,23.55.69,3.18-.54,4.49-3.81,4.08-3.04-.38-6.03.24-9.05.47-1.59.12-3.16.4-4.75.47-1.63.07-3.21-.2-4.23-1.7-.97-1.42-.69-2.91-.08-4.34,2.09-4.92,3.68-10.02,5.43-15.05.91-2.63,1.73-5.3,2.64-7.93.52-1.52,1.44-2.66,3.16-2.81Z"/><path class="cls-1" d="m301.85,359.68c-.06,1.96-1.61,3.26-3.57,3.05-.97-.1-1.84-.52-2.69-.94-4.98-2.49-10.32-3.71-15.77-4.59-.79-.13-1.58-.22-2.35-.42-2.86-.73-3.72-3.13-1.97-5.47.62-.83,1.31-1.61,1.98-2.4,3.04-3.6,4.46-7.86,5.07-12.45.05-.4.06-.8.12-1.19.23-1.47.98-2.6,2.5-2.84,1.58-.24,3.25-.41,4.29,1.26.55.88,1.06,1.78,1.49,2.73,3.23,7.11,6.36,14.27,10.23,21.08.39.69.73,1.43.67,2.19Z"/><path class="cls-1" d="m530.15,606.27c-.09.44-.4.68-.79.8-5.6,1.7-11.25,3.23-16.97,4.49.85-1.15.58-2.47.46-3.7-.34-3.42-1.06-6.78-2.15-10.05-1.38-4.17-2.42-8.44-3.4-12.71-.18-.77-.29-1.58-.3-2.37-.05-3.28,2.49-4.92,5.29-3.25,2.88,1.71,5.66,3.61,7.87,6.2,1.25,1.46,2.47,2.93,3.74,4.36,2.51,2.82,3.48,6.24,3.88,9.86.26,2.35.74,4.56,2.37,6.37Z"/><path class="cls-1" d="m436,222.45c1.72-.06,3.32.77,4.56,2.02,2.35,2.36,4.74,3.57,8.29,2.64,2.93-.77,5.53,2.24,3.91,5.59-2.6,5.39-3.39,11.11-3.1,17.03.08,1.6.05,3.2.04,4.8,0,.64.02,1.29-.11,1.91-.52,2.44-3.1,3.3-5,1.69-.81-.69-1.35-1.59-1.73-2.56-.67-1.71-1.38-3.42-1.84-5.19-1.22-4.67-3.15-9.03-5.35-13.3-1.46-2.84-2.88-5.71-4.09-8.66-1.16-2.82,1.19-5.98,4.41-5.97Z"/><path class="cls-1" d="m288.6,387.57c-.01,1.49-1.64,3.14-3.49,2.63-4.85-1.34-9.97-1.37-14.69-3.22-1.48-.58-2.96-1.2-4.3-2.08-2.08-1.39-2.64-3.05-1.66-5.36,1.09-2.57,2.25-5.11,3.67-7.52,1.11-1.88,1.81-3.89,2.06-6.07.25-2.09,1.04-3.11,2.47-3.38,1.53-.29,2.95.42,3.92,2.1,1.71,2.97,3.42,5.95,5.01,8.99,1.89,3.61,3.79,7.2,5.93,10.66.55.89,1.06,1.79,1.06,3.26Z"/><path class="cls-1" d="m477.43,591c-1.95.03-2.96-.64-3.06-2.55-.28-5.61-2.73-10.44-5.22-15.26-1.03-1.98-2.1-3.94-3.1-5.94-.42-.85-.77-1.76-.63-2.76.26-1.96,2.17-3.17,4.05-2.56.93.3,1.72.85,2.43,1.49,5.25,4.68,10.29,9.56,14.41,15.31.7.97,1.4,1.95,1.83,3.08.71,1.85.31,3.59-1.36,4.64-2.36,1.48-4.84,2.76-7.27,4.14-.65.37-1.37.4-2.09.42Z"/><path class="cls-1" d="m444.53,344.75c-2.07-.18-3.99-.38-5.81-.96-2.75-.87-3.3-3.66-1.13-5.61.65-.58,1.41-1.04,2.15-1.51,3.77-2.4,7.56-4.77,11.34-7.17,1.95-1.24,3.85-2.54,5.3-4.43,1.1-1.43,2.51-1.77,3.8-1.23,1.27.53,1.97,1.75,1.83,3.57-.11,1.43-.37,2.85-.64,4.26-.49,2.58-1.16,5.13-1.39,7.77-.24,2.79-1.58,3.89-4.45,3.89-3.14,0-6.16.87-9.25,1.18-.63.06-1.26.18-1.75.25Z"/><path class="cls-1" d="m373.9,598.01c-1.01-.06-1.93.09-2.78.63-.4.25-.88.37-1.31.57-1.14.53-2.2.35-3.13-.43-1.02-.86-1.3-2.02-.89-3.26.66-2.04,1.21-4.14,2.25-6.04,1.73-3.17,2.94-6.53,3.9-9.99.32-1.15.69-2.29,1.3-3.33.71-1.2,1.73-1.89,3.15-1.73,1.42.16,2.33,1.03,2.67,2.39.3,1.15.46,2.34.67,3.52.94,5.13,2.69,9.99,4.87,14.71.27.58.56,1.15.79,1.74.61,1.58.37,2.8-.68,3.7-1.01.87-2.34.97-3.77.05-2.18-1.4-4.41-2.58-7.05-2.53Z"/><path class="cls-1" d="m462.74,616.3c-1.43.7-2.97.37-4.45.4-6.61.12-13.14,1.12-19.72,1.56.93-1.99,2.41-3.59,4.07-4.91,5.29-4.24,8.97-9.65,11.85-15.68.34-.72.74-1.41,1.19-2.07.79-1.15,1.88-1.69,3.29-1.44,1.45.26,2.23,1.28,2.47,2.6.3,1.64.45,3.32.54,4.98.28,4.85.51,9.71.76,14.56Z"/><path class="cls-1" d="m457.19,282.1c-2.26-.1-4.13-.53-5.98-1-4.03-1.03-8.13-1.55-12.3-1.6-2.49-.03-3.8-.82-4.21-2.39-.42-1.65.34-2.95,2.54-4.08,6.1-3.14,12.45-5.71,18.91-7.99,1.24-.44,2.45-.07,3.22.87.81.99,1.02,2.17.18,3.32-1.76,2.39-1.44,4.58.25,6.78.1.13.18.27.27.4.9,1.31,1.5,2.67.56,4.21-.88,1.44-2.29,1.58-3.44,1.49Z"/><path class="cls-1" d="m350.36,595.58c-.64.04-1.27.11-1.91.13-2.97.09-4.41-1.89-3.36-4.69.42-1.11.96-2.19,1.55-3.23,2.4-4.24,4.55-8.58,6.19-13.18.83-2.33,2.13-3.35,3.66-3.21,1.66.15,2.71,1.36,3.07,3.99.64,4.66,1.16,9.33,1.69,14,.17,1.51.57,2.97.87,4.45.28,1.37-.17,2.54-1.38,3.31-1.07.68-2.22.83-3.39.18-2.96-1.64-3.8-1.84-7-1.74Z"/><path class="cls-1" d="m488.45,316.93c.05,1.62-1.07,2.91-2.7,3.11-.65.08-1.32.02-1.88-.25-2.94-1.41-6.04-2.5-8.75-4.39-1.53-1.07-2.4-2.44-2.64-4.33-.6-4.77-.5-9.55-.28-14.34.02-.47.1-.96.24-1.41.6-1.95,2.56-2.56,4.16-1.32.85.66,1.29,1.59,1.61,2.6,1.98,6.36,4.57,12.42,8.99,17.54.68.78,1.23,1.68,1.26,2.78Z"/><path class="cls-1" d="m343.58,577.71c-.63,3.52-.02,7.59-.25,11.66-.18,3.2-3.87,4.76-6.11,3.13-.7-.51-1.51-.89-2.29-1.29-.92-.47-1.82-.22-2.78,0-2.61.62-4.35-1.29-3.61-3.89.44-1.55,1.18-2.97,2.1-4.28,2.33-3.34,4.35-6.88,6.35-10.42,1.27-2.25,2.46-2.95,4.1-2.49,1.63.46,2.39,1.72,2.48,4.18.04.96,0,1.92,0,3.39Z"/><path class="cls-1" d="m468.28,348.85c-.93-1.46-1.24-3.13-1.32-4.79-.26-5.74-.42-11.49.54-17.2.08-.47.14-.95.27-1.41.42-1.54,1.49-2.43,2.87-2.43,1.32,0,2.55.95,2.88,2.44.27,1.24.35,2.53.45,3.8.53,6.72,2.05,13.23,4.05,19.64.09.3.24.6.31.9.29,1.32.22,2.57-.9,3.51-1.17.98-2.52.94-3.83.35-.79-.35-1.49-.91-2.23-1.38-.88-.96-1.76-1.92-2.64-2.88,0-.16-.07-.26-.22-.29.02-.17-.05-.26-.22-.26Z"/><path class="cls-1" d="m452.9,347.87c1.81-.15,4.46,2.16,4.01,4.05-.75,3.11-.95,6.3-1.18,9.48-.23,3.22-3.03,4.32-5.25,2.75-1.48-1.05-3.2-1.41-4.97-1.5-2.58-.14-5.01-.92-7.43-1.7-1.31-.42-2.26-1.23-2.38-2.69-.12-1.45.67-2.43,1.87-3.08,1.4-.76,2.82-1.48,4.25-2.18,2.78-1.38,5.58-2.73,8.37-4.1.93-.46,1.87-.89,2.73-1.02Z"/><path class="cls-1" d="m502.83,574.25c-.49,1.95-.69,4.26-2.56,5.98-2.58,2.38-5.72,2.03-6.96-1.22-2.04-5.33-5.51-9.66-9.04-13.98-.65-.8-1.33-1.57-1.72-2.57-.47-1.18-.22-2.21.59-3.1.8-.88,1.83-1.26,3.03-.9.93.28,1.76.75,2.54,1.3,4.24,2.99,8.21,6.32,12.04,9.82,1.27,1.16,2.2,2.53,2.09,4.65Z"/><path class="cls-1" d="m470.65,352.99c.14,2.79.32,5.57.4,8.36.12,3.86.94,7.58,2.06,11.26.28.91.59,1.83.76,2.76.24,1.31-.43,2.71-1.51,3.26-1.16.59-2.31.49-3.39-.27-.06-.05-.14-.08-.19-.14-2.72-3.23-5.29-6.58-7.23-10.35-.31-.61-.45-1.42-.36-2.09.57-4.43,1.31-8.83,3.07-12.98.77-1.8,1.93-2.9,4.01-2.7,1.29.57,1.79,1.77,2.37,2.91Z"/><path class="cls-1" d="m389.71,594.84c.32-1.67.64-3.64,1.08-5.59.7-3.12,1.35-6.24,1.75-9.41.08-.63.2-1.26.38-1.88.45-1.57,1.45-2.45,2.82-2.52,1.4-.07,2.47.64,3.06,2.2.68,1.79,1.32,3.59,1.86,5.43,1.06,3.6,2.04,7.22,3.04,10.83.15.53.27,1.1.25,1.64-.1,2.19-2.04,3.54-4.01,2.59-2-.97-3.78-.81-5.7.1-2.58,1.22-4.73-.29-4.51-3.4Z"/><path class="cls-1" d="m430.07,618.17c-5.08.22-10.16-.03-15.23-.26-1.96-.09-3.98.19-5.89-.53,1.85-1.09,3.66-2.24,5.55-3.26,6.12-3.29,11.41-7.56,15.73-13.02.2-.25.4-.5.63-.71,1.07-.95,2.41-1.13,3.52-.48,1.18.69,1.63,1.79,1.35,3.06-.28,1.23-.77,2.42-1.21,3.62-1.41,3.9-2.72,7.83-4.46,11.6Z"/><path class="cls-1" d="m454.69,245.09c.24-3.26.07-6.53.58-9.78.64-4.14,3.97-5.66,7.46-3.29.99.67,1.93,1.42,2.83,2.2,2.63,2.28,3.02,4.93,1.21,7.87-.17.27-.34.54-.53.79-2.24,2.93-3.97,6.14-5.26,9.6-.87,2.33-2.16,3.22-3.8,2.89-1.71-.35-2.47-1.58-2.48-4.06-.01-2.07,0-4.15,0-6.22Z"/><path class="cls-1" d="m449.61,367.88c1.6-.05,2.94,1.11,3.23,2.74.19,1.05-.03,2.07-.39,3.05-.77,2.11-1.29,4.27-1.53,6.5-.08.79-.26,1.58-.53,2.33-.87,2.48-3.04,3.33-5.37,2.13-.42-.22-.83-.48-1.2-.78-2.21-1.75-4.57-3.15-7.38-3.78-1.74-.39-2.66-1.64-2.61-2.99.05-1.4,1-2.56,2.79-2.81,3.85-.54,7.17-2.04,9.94-4.8.44-.44,1.03-.75,1.57-1.08.48-.29.98-.55,1.48-.52Z"/><path class="cls-1" d="m480.72,516.1c0,1.84.09,3.68-.02,5.51-.2,3.55-1.62,5.18-5.03,6.02-.54.13-1.07.32-1.62.42-3.34.62-5.3-1.63-4.14-4.81.82-2.25,1.67-4.48,2.3-6.8.76-2.78,1.34-5.59,1.79-8.42.1-.63.2-1.27.41-1.86.55-1.55,1.6-2.29,3.04-2.19,1.37.09,2.51,1.02,2.75,2.57.28,1.73.38,3.49.47,5.24.07,1.43.01,2.88.01,4.31h.04Z"/><path class="cls-1" d="m263.72,389.76c1.39.01,2.09.72,2.7,1.62,1.76,2.59,3.99,4.76,6.24,6.9,1.27,1.21,2.7,2.22,4.35,2.89.51.21,1.02.47,1.45.82,1.11.89,1.43,2.22.89,3.41-.59,1.31-1.9,2.02-3.34,1.65-1.3-.34-2.56-.87-3.83-1.32-2.7-.94-5.42-1.83-8.11-2.82-2.59-.96-4.1-2.94-4.81-5.55-.76-2.79.72-6,3.31-7.25.42-.2.9-.27,1.15-.34Z"/><path class="cls-1" d="m403.45,616.35c-.29.12-.59.37-.86.34-5.89-.72-11.85-1.12-17.52-3.11,1.79-.87,3.59-1.73,5.37-2.6,4.31-2.1,8.54-4.33,12.51-7.03.86-.59,1.74-1.16,2.78-1.35,1.42-.26,2.75,0,3.66,1.2.88,1.15.67,2.38,0,3.59-1.76,3.14-3.81,6.08-5.95,8.97Z"/><path class="cls-1" d="m485.97,615.41c-1.22.86-2.64.43-3.96.57-2.93.31-5.86.6-8.82.4,1.11-4.42,1.61-8.93,1.82-13.48.04-.97.18-1.91.44-2.83.39-1.37,1.36-2.2,2.73-2.33,1.3-.13,2.35.55,2.94,1.69.47.91.79,1.91,1.08,2.9,1.28,4.35,2.52,8.72,3.77,13.08Z"/><path class="cls-1" d="m459.57,373.07c1.51-.02,2.52.78,2.87,2.26.22.93.33,1.88.44,2.83.41,3.41,1.13,6.75,2.34,9.97.17.45.29.91.4,1.37.31,1.32-.18,2.37-1.21,3.14-.99.73-2.15.81-3.13.09-2.05-1.5-4.05-3.08-6-4.71-.83-.69-1.09-1.74-1.07-2.82.06-3.57,1.06-6.91,2.52-10.12.56-1.23,1.66-1.89,2.83-2.02Z"/><path class="cls-1" d="m492.38,525.74c0,2.07.08,4.15-.02,6.22-.18,3.74-2.76,5.23-6.11,3.59-.71-.35-1.42-.75-2.04-1.24-1.73-1.4-2.26-3.34-1.33-5.31,1.47-3.13,2.34-6.44,3.1-9.78.12-.54.25-1.09.44-1.61.46-1.25,1.39-1.94,2.72-1.97,1.26-.03,2.31.83,2.76,2.24.17.52.27,1.09.28,1.64.03,2.07.01,4.15.01,6.22h.18Z"/><path class="cls-1" d="m505.99,613.07c-3.19,1.35-6.62,1.44-9.99,1.85-.63.08-1.27.02-1.91.02.17-4.95-.33-9.84-1.26-14.69-.07-.39-.1-.79-.11-1.19-.05-1.72.74-2.95,2.12-3.31,1.41-.37,2.73.22,3.55,1.74.59,1.12,1.05,2.31,1.53,3.49,1.7,4.2,3.63,8.28,6.09,12.09Z"/><path class="cls-1" d="m440.63,389.01c.87,0,1.75-.03,2.62,0,2.79.13,4.55,2.34,3.93,5.01-.4,1.71-1.1,3.32-2.1,4.78-1.45,2.1-3.3,2.69-5.59,1.64-2.24-1.02-4.42-2.18-6.49-3.52-.33-.22-.65-.46-.95-.73-1.19-1.06-2.03-2.29-1.62-3.97.42-1.71,1.78-2.37,3.34-2.64,2.27-.39,4.53-.93,6.86-.58Z"/><path class="cls-1" d="m505.64,536.13c.07,2.47.2,4.96-.35,7.4-.73,3.28-3.01,4.41-6.11,3.06-.97-.42-1.75-1.09-2.52-1.79-1.15-1.06-1.4-2.27-.76-3.68.3-.65.6-1.31.91-1.95,1.36-2.83,2.21-5.81,2.63-8.92.34-2.47,1.31-3.62,3.02-3.64,1.81-.02,3,1.32,3.14,3.78.11,1.91.02,3.83.02,5.75Z"/><path class="cls-1" d="m454.1,423.27c-3.45-.75-6.83-1.9-9.78-4.03-1.29-.93-1.77-2.24-1.47-3.78.39-1.95.99-3.86,1.84-5.66.95-2,2.89-2.39,4.49-.94.87.79,1.74,1.6,2.36,2.66,1.04,1.81,2.62,3.2,3.96,4.77.57.66,1.18,1.3,1.68,2.02.73,1.05.87,2.21.23,3.38-.62,1.13-1.83,1.72-3.3,1.6Z"/><path class="cls-1" d="m319.7,583.25c-.4.15-.57-.12-.77-.38-2.35-3.14-5.01-5.99-7.8-8.74-.42-.41-.75-.81-.65-1.44,1.52-2.61,3.03-5.22,4.56-7.81.44-.75.87-1.53,1.43-2.2,1.04-1.25,2.6-1.56,3.86-.87,1.15.63,1.76,1.98,1.39,3.49-.81,3.33-1.56,6.65-1.81,10.08-.19,2.62-.2,5.25-.2,7.87Z"/><path class="cls-1" d="m327.71,260.06c.02,2.11-1.72,3.46-3.59,3-.8-.2-1.46-.63-2.04-1.19-2.65-2.56-4.97-5.4-6.79-8.61-.59-1.04-1.04-2.16-1.09-3.38-.06-1.39.41-2.54,1.67-3.2,1.15-.61,2.32-.45,3.4.26.27.17.54.36.74.6,2.82,3.37,5.55,6.79,7.22,10.91.24.58.35,1.22.47,1.62Z"/><path class="cls-1" d="m298.18,273.81c.17.03.58.03.95.17,3.46,1.24,6.8,2.72,9.88,4.75.98.65,1.52,1.57,1.65,2.77.25,2.3-.97,3.89-3.23,3.67-4.31-.42-8.21-1.93-11.25-5.18-.48-.51-.89-1.14-1.18-1.79-1.02-2.28.44-4.42,3.18-4.4Z"/><path class="cls-1" d="m447.68,400.13c.31-1.86.61-3.74.95-5.62.13-.72.52-1.34.98-1.89,1.38-1.61,3.41-1.52,4.67.21.23.32.42.68.57,1.04,1.09,2.57,2.17,5.13,3.23,7.71.18.44.32.91.36,1.38.21,2.11-1.69,3.72-3.7,3.02-1.87-.65-3.71-1.43-5.49-2.32-1.38-.69-1.6-2.08-1.58-3.53Z"/><path class="cls-1" d="m354.67,238.04c.08,1.19-.16,2.26-1.22,2.94-1.16.75-2.28.37-3.36-.28-.91-.54-1.61-1.29-2.24-2.13-1.86-2.47-2.97-5.27-3.65-8.25-.43-1.88.22-3.42,1.58-4.15,1.38-.75,2.9-.44,4.28,1.06,2.81,3.04,4.15,6.74,4.6,10.8Z"/><path class="cls-1" d="m465.77,259.28c.05-.3.08-.86.23-1.39.71-2.44,1.47-4.87,2.17-7.32.42-1.46,1.42-2.32,2.84-2.58,1.47-.27,2.38.62,3.06,1.81.32.55.65,1.1,1,1.63,1.56,2.4,1.39,4.57-.66,6.6-1.29,1.28-2.61,2.46-3.55,4.1-1.05,1.82-3.68,1.42-4.69-.5-.35-.66-.36-1.38-.39-2.35Z"/><path class="cls-1" d="m256.85,420.79c-.3-4.1-.08-8.2-.17-12.3,0-.42.13-.77.57-.92,1.64.79,2.64,2,2.53,3.93-.07,1.1.47,2,1.03,2.86,1.47,2.3,3.31,4.25,5.55,5.83,1.96,1.4,2.49,2.92,1.6,4.37-.97,1.57-2.69,1.83-4.81.51-2.15-1.34-4.2-2.85-6.29-4.29Z"/><path class="cls-1" d="m335.25,251.52c-.8-.08-1.57-.27-2.25-.72-2.21-1.44-4.34-2.97-6.16-4.9-.71-.76-1.32-1.59-1.69-2.58-.5-1.33-.28-2.54.69-3.54.98-1.01,2.21-1.24,3.52-.76.59.22,1.19.51,1.68.9,2.51,2,4.54,4.47,6.51,6.98.73.93.9,2.03.27,3.14-.56,1.01-1.46,1.42-2.56,1.48Z"/><path class="cls-1" d="m386.93,222.03c0,3-1.92,4.16-4.48,2.9-1.2-.59-2.02-1.53-2.61-2.69-1.16-2.29-1.87-4.72-1.99-7.3-.03-.63.05-1.27.17-1.89.25-1.31,1.12-2.09,2.36-2.42,1.21-.32,2.22.19,2.95,1.11.59.74,1.07,1.58,1.46,2.44,1.16,2.55,1.96,5.2,2.13,7.86Z"/><path class="cls-1" d="m479.47,276.88c-.04.76,0,1.66-.15,2.51-.4,2.13-2.3,2.99-4.36,2.32-2.63-.87-4.13-2.9-4.08-5.29.06-3.09,1.55-5.99,3.59-8.36,1.11-1.29,3.08-.55,3.84,1.19.78,1.78.73,3.74,1.04,5.61.11.62.08,1.27.12,2.02Z"/><path class="cls-1" d="m511.36,566.63c-.28,1.65-.97,3.24-2.29,4.48-1.02.96-2.39.91-3.44-.07-.52-.48-.97-1.06-1.35-1.66-1.29-2.01-2.54-4.03-3.77-6.07-.28-.47-.52-1-.61-1.53-.37-2.21,1.7-4.03,3.72-3.11,2.85,1.3,5.13,3.44,7.14,5.82.45.53.62,1.28.6,2.15Z"/><path class="cls-1" d="m291.75,316.43c.04,2.07-1.3,3.29-3.35,2.98-.62-.09-1.23-.34-1.8-.62-1.79-.88-3.56-1.79-5.32-2.74-.7-.38-1.39-.81-1.97-1.34-1.08-.98-1.33-2.31-.78-3.48.54-1.15,1.79-1.95,3.16-1.68,3.07.61,5.96,1.77,8.58,3.5,1.17.77,1.45,2.04,1.48,3.37Z"/><path class="cls-1" d="m438.04,404.34c1.62.18,3.42.25,4.09,2.18.64,1.86.39,3.62-1.24,4.97-.61.51-1.21,1.04-1.87,1.47-3.67,2.38-6.35.52-7.65-2.91-.65-1.73,0-3.29,1.61-4.32,1.52-.97,3.25-1.23,5.06-1.4Z"/><path class="cls-1" d="m443.61,433.92c-.56-.09-1.36-.16-2.12-.37-1.93-.53-2.92-1.97-2.61-3.96.33-2.09,1.24-3.97,2.72-5.48,1.8-1.82,4.63-1.28,5.77,1.04.39.78.69,1.61.96,2.44,1.15,3.57-.76,6.25-4.72,6.32Z"/><path class="cls-1" d="m456.86,213.5c-.09,2.01-.49,3.96-1.22,5.83-.35.9-.82,1.73-1.58,2.37-1.73,1.45-4.01.97-5-1.07-.28-.58-.45-1.19-.45-1.84.03-2.69.67-5.23,2.05-7.53,1.22-2.03,3.59-2.44,5.09-1.05.96.9,1.14,2.06,1.11,3.29Z"/><path class="cls-1" d="m420.7,211.69c.01.89-.17,1.76-.53,2.56-.93,2.03-3.32,2.48-4.98.98-2.12-1.91-3.14-8.29-1.74-10.76.45-.8,1.04-1.41,1.95-1.64,1.21-.31,2.13.14,2.99,1.41,1.53,2.25,2.04,4.81,2.31,7.45Z"/><path class="cls-1" d="m390.55,211.8c.12-1.6.7-2.65,1.97-3.29,1.24-.63,2.44-.39,3.33.48,2.19,2.15,3.74,4.75,4.44,7.77.28,1.23-.12,2.39-1.26,3.13-1.21.79-2.41.65-3.6-.06-.84-.5-1.49-1.21-2.04-1.99-1.35-1.9-2.37-3.95-2.83-6.04Z"/><path class="cls-1" d="m432.19,210.81c.03-1.09.1-2.29.61-3.39,1.09-2.35,3.92-2.75,5.38-.62,1.96,2.86,2.35,6.08.98,9.3-.94,2.21-3.4,2.51-5.09.78-1.64-1.67-1.86-3.79-1.89-6.07Z"/><path class="cls-1" d="m357.37,221.03c.69-.05,1.39.23,1.91.72,2.18,2.03,4.04,4.31,5.07,7.16.13.37.24.77.23,1.16-.05,2.11-2.18,3.41-4.1,2.51-.36-.17-.73-.37-.99-.66-1.81-2.02-3.54-4.15-4.74-6.58-1.04-2.11.38-4.29,2.61-4.31Z"/><path class="cls-1" d="m291.59,289.55c.59-.03,1.22.31,1.81.72,1.71,1.18,3.28,2.52,4.74,3.98,1.36,1.36,1.47,2.85.46,4.04-.96,1.13-2.29,1.29-3.85.32-.68-.42-1.41-.7-2.12-1.03-2.1-.98-3.26-2.77-3.69-4.96-.34-1.71.86-3.06,2.64-3.06Z"/><path class="cls-1" d="m276.84,332.92c-.95.06-1.76-.44-2.46-1.1-1.21-1.14-2.43-2.29-3.56-3.5-1.37-1.48-1.42-3.05-.25-4.23,1.1-1.1,2.57-1.13,4.07.06,1.55,1.24,3.03,2.57,4.29,4.1.74.9,1,1.96.43,3.1-.51,1.02-1.29,1.57-2.52,1.57Z"/><path class="cls-1" d="m305.6,568.36c-2.75-2.12-4.95-4.8-7.42-7.21-.27-.26-.06-.6-.07-.9.86-.93,1.67-1.92,2.6-2.78,1.39-1.3,2.88-1.58,4.14-.9,1.29.69,1.81,1.96,1.43,3.94-.49,2.6-.73,5.21-.68,7.85Z"/><path class="cls-1" d="m259.37,359.98c-.53-1.76.03-3.34.85-4.87,1.43.02,2.54.67,3.56,1.63,1.04.98,2.21,1.82,3.28,2.77.53.47,1.05.99,1.43,1.58.68,1.06.57,2.29-.14,3.1-.74.84-1.89,1.1-3.05.55-.71-.34-1.36-.82-1.97-1.33-1.34-1.12-2.64-2.3-3.96-3.45Z"/><path class="cls-1" d="m461.53,217.74c.86.06,1.13.79,1.44,1.39.74,1.44,1.99,2.63,2.18,4.34-.11,1.1-.12,2.23-.36,3.3-.4,1.81-1.64,2.75-3.16,2.58-1.5-.17-2.51-1.42-2.42-3.27.09-1.9.31-3.79.54-5.67.14-1.16.82-2.04,1.79-2.68Z"/><path class="cls-1" d="m261.94,348.65c.17-.64.33-1.28.5-1.92.87-.82,1.9-1.21,3.06-.91,1.69.43,3.38.88,5.01,1.49,1.64.61,2.39,2.03,1.98,3.34-.41,1.32-1.86,2.13-3.5,1.72-1.76-.44-3.48-1.09-5.21-1.66-1-.33-1.5-1.12-1.85-2.05Z"/><path class="cls-1" d="m474.06,238.46c1.18-.06,2.16.99,3.39.61.82.8.91,1.83.83,2.88-.08,1.03-.19,2.06-.32,3.09-.2,1.53-1.08,2.39-2.45,2.44-1.34.05-2.55-.73-2.7-2.2-.24-2.35-.39-4.78,1.25-6.83Z"/><path class="cls-1" d="m433.58,425.03c-1.7.06-3.36-1.56-3.41-3.32-.05-1.73,1.35-3.09,3.21-3.11,1.7-.03,3.05,1.13,3.1,2.65.06,1.91-1.34,3.73-2.9,3.78Z"/><path class="cls-1" d="m256.36,379.15c.19-1.76.37-3.52.56-5.28,1.17.16,2.37.21,3.51.5,1.72.44,2.63,1.7,2.39,3.03-.25,1.35-1.54,2.36-3.19,2.29-1.09-.05-2.18-.35-3.27-.54Z"/><path class="cls-1" d="m294.26,557.54c-1.78-1.59-3.86-2.87-5.19-4.93,2.92-1.86,5.42.07,5.33,3.06-.02.62.24,1.27-.13,1.87Z"/><path class="cls-1" d="m468.79,229.86c1.38,1.47,2.15,3.28,2.91,5.1-1.79,1.03-2.63,1.07-3.62.17-1.03-.94-1.11-2.29-.2-3.89.27-.48.6-.92.91-1.37Z"/><path class="cls-1" d="m256.9,435.62c-.01-1.91-.03-3.82-.04-5.72.55.15,1.01.44,1.42.83.86.81,1.35,1.77,1.01,2.98-.34,1.19-1.09,1.9-2.38,1.92Z"/><path class="cls-1" d="m397.83,75.21c.16-.2.31-.39.47-.59.76,1.02,1.02,2.22,1.28,3.43-.49-1-1.42-1.74-1.75-2.84Z"/><path class="cls-1" d="m433.51,651.89c-10.88-.04-21.66-1.29-32.38-3.03-16.28-2.65-32.04-7.25-47.37-13.29-8.23-3.24-15.8-7.63-22.51-13.46-1.69-1.47-3.4-2.92-5.2-4.24-9.93-7.34-18.08-16.41-25.53-26.16-2.86-3.74-5.64-7.56-8.43-11.35-1.42-1.93-2.75-3.93-3.66-6.16-.87-2.13-.53-3.73.92-4.72,1.47-.99,3.02-.77,4.73.87,4.09,3.94,8.33,7.71,12.24,11.82,13.43,14.1,28.71,25.82,45.72,35.29,2.11,1.17,4.33,2,6.62,2.71,11.39,3.52,23.12,5.49,34.8,7.7,6.43,1.22,12.8,2.71,19.2,4.04,7.82,1.62,15.72,2.7,23.65,3.68,6.97.86,13.94,1.7,20.93,2.38,1.35.13,2.69.41,3.94.95,3.53,1.52,3.99,5.27.93,7.61-1.61,1.23-3.5,1.91-5.43,2.44-6.57,1.81-13.23,3-20.07,2.93-1.04-.01-2.08,0-3.12,0Z"/><path class="cls-1" d="m397.9,175.85c13.89-.62,26.92,2.1,39.47,6.88,11.69,4.45,22.23,10.88,30.57,20.46,1.42,1.63,2.87,3.23,3.79,5.21,1.03,2.21.26,5.01-1.73,6.34-1.31.88-2.98.8-4.38-.59-3.27-3.24-7.2-5.57-10.88-8.23-5.52-3.99-11.48-7.26-17.62-10.16-5.97-2.82-12.36-4.26-18.92-4.87-4.21-.39-8.43-.87-12.65-.93-10.81-.17-21.22,2.17-31.48,5.41-10.11,3.2-19.54,7.84-28.69,13.11-11.36,6.54-22.2,13.9-32.86,21.53-1.17.84-2.36,1.65-3.58,2.41-.95.59-1.97,1.05-3.08,1.27-3.19.65-5.56-1.86-4.65-4.96.25-.83.61-1.66,1.07-2.39.67-1.08,1.39-2.17,2.25-3.09,6-6.43,11.86-12.99,18.27-19.01,2.16-2.03,4.49-3.85,6.89-5.58,6.09-4.4,12.46-8.38,18.97-12.13,8-4.61,16.8-6.84,25.76-8.63,7.87-1.58,15.79-2.4,23.47-2.04Z"/><path class="cls-1" d="m237.16,426.55c0-2.4.02-4.8,0-7.19-.1-12.95.83-25.85,2.25-38.71,1.67-15.16,3.98-30.22,7.24-45.13,1.66-7.58,4.22-14.89,6.43-22.31,1.23-4.13,2.4-8.28,3.71-12.38,1.03-3.2,2.48-6.23,4.49-8.96.72-.97,1.49-1.89,2.57-2.47,2.22-1.2,4.59-.27,5.39,2.13.33.99.36,2,.23,3.07-.57,4.54-1.74,8.93-3.31,13.21-.8,2.18-1.49,4.37-1.96,6.65-1.38,6.72-3.5,13.27-4.7,20.04-1.14,6.45-1.88,12.95-2.7,19.44-1.05,8.31-2.06,16.63-3.11,24.95-.87,6.89-1.71,13.78-2.67,20.65-.8,5.77-1.82,11.51-2.61,17.28-.41,3-.64,6.03-.79,9.06-.38,7.65-.81,15.3-1.49,22.93-.16,1.75-.28,3.5-.75,5.2-.54,1.96-1.64,2.97-3.22,3.07-1.66.11-3.01-.89-3.67-2.85-.69-2.06-.84-4.21-1.02-6.37-.49-6.14-.27-12.3-.32-18.45,0-.96,0-1.92,0-2.88Z"/><path class="cls-1" d="m235.53,515.7c.39-2.68.73-5.37,1.17-8.05.48-2.93.53-5.89.45-8.84-.12-4.32.27-8.62.35-12.93,0-.16.01-.32.03-.48.22-2.25,1.53-3.7,3.34-3.71,1.7,0,3.03,1.33,3.33,3.46.39,2.84.68,5.7,1.08,8.55.86,6,1.65,12.01,3.69,17.77,1.86,5.27,4.56,10.01,8.35,14.12,3.63,3.94,7.3,7.83,10.93,11.76.6.64,1.2,1.3,1.67,2.03.96,1.5.79,3.04-.35,4.15-1.11,1.09-2.74,1.2-4.17.23-.59-.4-1.11-.91-1.62-1.42-1.47-1.46-2.96-2.92-4.37-4.44-5.8-6.24-12.34-11.58-19.48-16.2-.8-.52-1.59-1.07-2.35-1.65-1.42-1.1-2.16-2.53-2.05-4.37Z"/><path class="cls-1" d="m528.68,625c0,1.03-.72,2.06-1.74,2.9-1.24,1.02-2.66,1.75-4.1,2.43-9.39,4.45-19.22,7.67-29.2,10.46-3.37.94-6.8,1.71-10.22,2.47-2.28.5-4.31-.61-5.24-2.7-.73-1.64-.13-3.39,1.61-4.52,1.35-.87,2.85-1.43,4.38-1.89,3.43-1.05,6.85-2.12,10.31-3.03,7.33-1.94,14.47-4.4,21.48-7.29,2.35-.97,4.75-1.85,7.24-2.43,1.2-.28,2.36-.35,3.5.21,1.24.62,1.96,1.72,1.98,3.39Z"/><path class="cls-1" d="m324.28,93.04c.2-5.24,1.53-10.21,3.67-14.97.52-1.16,1.19-2.26,2.18-3.11,1.92-1.66,4.33-1.77,6.34-.2,1.79,1.4,2.75,3.24,2.87,5.54.16,3.23-.53,6.33-1.38,9.41-.45,1.61-.87,3.22-1.15,4.87-.32,1.81-.91,3.54-2.02,5.06-2.94,4.02-7.16,3.66-9.46-.79-.95-1.84-1.13-3.79-1.03-5.82Z"/><path class="cls-1" d="m389.02,88.26c0,.84.04,1.16,0,1.47-.38,2.57-1.21,4.88-4.01,5.7-2.73.8-4.69-.64-6.18-2.64-3.48-4.68-5.16-10.03-5.45-15.83-.03-.55.07-1.12.2-1.65.99-4.13,5.2-5.44,8.28-2.55,3.74,3.51,5.83,7.93,6.77,12.93.19,1.02.31,2.05.38,2.56Z"/><path class="cls-1" d="m293.13,239.49c2.49.06,4.46,2.51,3.67,4.83-1.32,3.87-4.05,6.61-7.77,8.24-1.38.61-2.85.28-3.9-.97-1.04-1.24-1.05-2.67-.35-4.02,1.4-2.71,3.41-4.97,5.57-7.09.74-.73,1.82-.92,2.79-.99Z"/><path class="cls-1" d="m540.42,621.42c-1.14-.11-2.32-.25-3.33-1.03-1.65-1.28-1.93-3.16-.69-4.84,1.69-2.3,4.22-3.25,6.95-2.52,1.71.45,2.71,1.68,3.05,3.36.31,1.56-.38,2.8-1.63,3.74-1.27.96-2.79,1.12-4.36,1.29Z"/><path class="cls-1" d="m476.99,225.11c0,1.9-.76,3.11-2.12,3.54-1.29.41-2.56,0-3.56-1.3-1.07-1.4-1.93-2.91-2.31-4.66-.45-2.07.23-3.83,1.75-4.46,1.61-.67,3.77.02,4.84,1.58,1.13,1.65,1.21,3.58,1.38,5.31Z"/><path class="cls-1" d="m197.3,207.31c.02-2.31-.1-4.63.32-6.93.39-2.19,1.41-3.3,3.12-3.31,2.07-.02,3.58,1.34,3.79,3.54.18,1.84-.12,3.66-.25,5.49-.18,2.37-.62,4.75.18,7.12.33.99.19,2.05-.21,3.05-.53,1.31-1.52,2.11-2.9,2.16-1.37.05-2.47-.61-3.07-1.9-.66-1.4-.85-2.92-.94-4.42-.09-1.59-.02-3.19-.02-4.79Z"/><path class="cls-1" d="m305.08,374.78c-.24-.11-.51-.25-.8-.41-.27-.12-.57-.24-.91-.37-.34-.13-.73-.22-1.18-.29-1.18-.16-2.02-.03-2.52.39-.5.42-.81,1.03-.92,1.83-.15,1.06.05,1.94.58,2.65.53.71,1.23,1.4,2.09,2.06.87.66,1.8,1.36,2.82,2.1,1.01.74,1.92,1.63,2.74,2.68.81,1.05,1.43,2.33,1.85,3.84.42,1.51.47,3.39.16,5.62-.27,1.92-.76,3.64-1.49,5.18-.73,1.54-1.7,2.82-2.91,3.84-1.21,1.03-2.67,1.76-4.38,2.21-1.7.44-3.66.51-5.88.2-1.93-.27-3.46-.72-4.57-1.35-1.11-.63-1.84-1.27-2.18-1.92-.16-.3-.28-.6-.37-.89-.09-.29-.15-.62-.18-.98-.04-.36-.03-.78,0-1.26.04-.47.1-1.06.2-1.77l.07-.53.18-1.32c.05-.37.14-.89.26-1.55.21-1.13.57-1.92,1.06-2.37.49-.45,1.07-.63,1.75-.54,1.29.18,2.06,1.25,2.3,3.22l.34,2.52c.26.2.53.38.83.54.27.12.59.24.98.38.38.13.82.23,1.33.3,1.26.17,2.18,0,2.75-.5.57-.51.92-1.24,1.06-2.2.11-.82.03-1.55-.25-2.19-.28-.64-.69-1.22-1.21-1.75-.53-.53-1.14-1.05-1.84-1.57-.7-.52-1.41-1.07-2.13-1.67-.72-.6-1.41-1.25-2.09-1.96-.67-.71-1.24-1.54-1.71-2.48-.47-.94-.8-2.03-1-3.28-.2-1.24-.18-2.69.04-4.33.24-1.76.72-3.36,1.41-4.8.7-1.44,1.64-2.64,2.82-3.62,1.18-.97,2.59-1.66,4.25-2.07,1.66-.41,3.56-.46,5.72-.16,1.96.27,3.46.71,4.49,1.31,1.03.6,1.7,1.2,2.02,1.81.16.3.28.6.37.89.09.29.15.62.19.98.04.36.03.78,0,1.26-.04.47-.1,1.06-.2,1.77l-.07.53-.17,1.23c-.04.31-.13.8-.25,1.46-.21,1.13-.57,1.92-1.06,2.37-.49.45-1.07.63-1.75.54s-1.19-.41-1.54-.94c-.36-.53-.61-1.29-.76-2.28l-.32-2.34Z"/><path class="cls-1" d="m319.84,397.77c0,1.99.37,3.49,1.09,4.48.72,1,1.75,1.59,3.1,1.78.7.1,1.32.13,1.85.1.53-.03,1-.08,1.39-.16.4-.07.74-.14,1.04-.21.29-.06.55-.08.78-.05.59.08,1.02.45,1.28,1.11.27.66.33,1.51.18,2.54-.1.75-.27,1.39-.5,1.91-.23.52-.53,1.02-.91,1.49-.66.82-1.72,1.58-3.19,2.29-1.47.71-3.37.9-5.69.58-1.82-.25-3.38-.88-4.67-1.87-1.29-.99-2.31-2.31-3.05-3.95-.75-1.64-1.22-3.54-1.42-5.7-.2-2.16-.12-4.56.25-7.19.42-3.06,1.08-5.78,1.97-8.17.89-2.39,1.96-4.38,3.2-5.95,1.25-1.58,2.66-2.72,4.23-3.44,1.57-.72,3.24-.95,5.01-.71,3.14.43,5.34,2.06,6.59,4.87,1.25,2.81,1.57,6.47.94,10.99-.33,2.4-.89,4.12-1.68,5.16s-1.76,1.48-2.9,1.32l-8.87-1.23Zm5.52-6.42c.22-2.01.2-3.44-.07-4.31-.27-.86-.72-1.34-1.37-1.43s-1.29.31-1.84,1.2c-.55.9-1.02,2.19-1.4,3.89l4.67.65Z"/><path class="cls-1" d="m348.66,391.15c.21-1.49.13-2.62-.24-3.38-.37-.76-1.15-1.23-2.36-1.39-.87-.12-1.64-.14-2.31-.05-.67.08-1.25.18-1.75.29-.5.11-.95.22-1.36.35-.4.12-.77.16-1.11.11-.65-.09-1.11-.53-1.4-1.32-.29-.79-.36-1.71-.22-2.76.16-1.19.58-2.2,1.23-3.03.35-.44.85-.9,1.52-1.39.67-.49,1.46-.9,2.38-1.23.92-.33,1.96-.58,3.12-.73,1.16-.15,2.42-.14,3.76.05,3.31.46,5.55,1.9,6.73,4.31,1.18,2.42,1.51,5.51.99,9.26-.33,2.38-.67,4.73-1.02,7.06s-.67,4.85-.96,7.57l.78.54c.68.48,1.1,1.01,1.28,1.59.18.58.18,1.49,0,2.73s-.44,2.11-.81,2.76c-.38.65-.93,1.14-1.66,1.48-.73.33-1.61.57-2.62.69-1.02.12-1.93.13-2.75.02-1.26-.17-2.11-.73-2.56-1.66-.44-.93-.55-2.23-.32-3.9l.04-.29-.07-.08c-.45,1-1.02,1.87-1.69,2.6-.58.65-1.3,1.2-2.18,1.66-.88.46-1.91.61-3.08.45s-2.15-.59-2.99-1.29c-.85-.7-1.52-1.6-2.02-2.72-.5-1.11-.83-2.39-.99-3.84-.16-1.45-.12-2.99.1-4.6.19-1.38.57-2.68,1.14-3.91.57-1.23,1.33-2.28,2.28-3.14.95-.86,2.11-1.5,3.48-1.92,1.37-.42,2.97-.5,4.79-.25.39.05.74.12,1.05.18.3.07.58.14.83.22.27.09.53.17.78.25l.18-1.3Zm-1.23,8.28c-.11-.06-.24-.13-.4-.2-.13-.07-.3-.13-.51-.18-.21-.05-.44-.1-.69-.13-.81-.11-1.44,0-1.87.36-.43.35-.7.91-.81,1.67s-.03,1.41.22,1.96c.25.54.63.85,1.14.92.39.05.73.02,1.02-.11s.55-.3.78-.51c.26-.21.49-.46.71-.77l.42-3Z"/><path class="cls-1" d="m365.44,389.95l-.95-.7c-.72-.52-1.19-1.09-1.42-1.68s-.27-1.5-.1-2.71.45-2.11.85-2.71c.4-.61.97-1.05,1.71-1.32.73-.28,1.65-.47,2.74-.58,1.09-.11,2.14-.09,3.15.05,1.37.19,2.27.73,2.71,1.61.44.88.53,2.27.26,4.15l-.19,1.38.08.08c.33-.89.73-1.74,1.17-2.55.44-.81.95-1.51,1.52-2.11.57-.6,1.19-1.07,1.87-1.39.68-.33,1.42-.44,2.23-.32,1.04.14,1.69.68,1.96,1.61.27.93.28,2.27.03,4.01-.19,1.34-.45,2.55-.8,3.65-.35,1.1-.74,2.04-1.16,2.83s-.89,1.38-1.38,1.78c-.49.4-.97.57-1.41.51-.27-.04-.49-.15-.66-.34-.17-.19-.32-.38-.44-.59-.12-.2-.26-.4-.4-.58-.14-.18-.35-.29-.61-.33-.59-.08-1.27.29-2.02,1.13l-1.74,12.56,1.21,1.08c.7.61,1.16,1.21,1.36,1.79.21.59.24,1.38.1,2.39-.17,1.23-.57,2.2-1.2,2.91-.63.7-1.42.99-2.37.86l-9.63-1.33c-.95-.13-1.63-.62-2.05-1.47-.41-.85-.53-1.89-.36-3.12.15-1.05.4-1.83.78-2.34.37-.51.94-.96,1.69-1.37l1.23-.67,2.24-16.15Z"/><path class="cls-1" d="m394.26,396.88s-.08-.03-.16-.08c-.06,0-.13-.03-.23-.06-.1-.03-.2-.06-.31-.07-.87-.12-1.69.33-2.46,1.34-.77,1.02-1.33,2.82-1.69,5.41s-.24,4.59.39,5.88c.62,1.29,1.7,2.04,3.25,2.25.45.06.82.08,1.11.06.29-.03.54-.07.75-.13s.41-.11.6-.15c.19-.04.4-.04.62-.01.59.08,1.02.4,1.3.96.28.56.36,1.27.24,2.13-.17,1.21-.64,2.22-1.41,3.04-.23.25-.55.52-.95.83-.4.3-.89.56-1.48.78-.59.22-1.28.37-2.08.46-.8.09-1.7.06-2.71-.08-3.39-.47-5.82-2.06-7.29-4.78-1.47-2.72-1.9-6.26-1.29-10.65.36-2.58.96-4.88,1.81-6.9.85-2.02,1.9-3.67,3.15-4.98,1.25-1.3,2.69-2.24,4.31-2.81,1.62-.57,3.39-.73,5.29-.46,1.26.17,2.3.5,3.12.97.82.47,1.4,1.03,1.74,1.68.29.56.45,1.13.47,1.71.02.58-.05,1.48-.22,2.69l-.07.53-.21,1.5c-.06.45-.18,1.16-.34,2.14-.19,1.13-.52,1.92-.99,2.38-.48.45-1.04.63-1.68.54s-1.18-.39-1.53-.9c-.34-.51-.59-1.29-.73-2.34l-.33-2.86Z"/><path class="cls-1" d="m406.05,386.61l-.71-.46c-.68-.46-1.13-.96-1.33-1.51-.21-.55-.24-1.34-.1-2.36s.4-1.79.77-2.3c.37-.51.9-.88,1.59-1.1.69-.23,1.55-.38,2.59-.45,1.04-.08,2.06-.05,3.07.09,1.43.2,2.4.78,2.91,1.75.51.97.62,2.45.35,4.44l-.63,4.52c-.12.9-.29,1.87-.49,2.89-.2,1.03-.44,2.02-.71,2.98l.08.07c.46-.61.99-1.16,1.6-1.63.54-.4,1.2-.75,1.97-1.04.77-.29,1.69-.36,2.75-.22,2.66.37,4.54,1.59,5.64,3.65,1.1,2.07,1.39,5,.86,8.79l-1.55,11.21.72.7c.6.6,1,1.16,1.21,1.66.2.51.24,1.21.11,2.11-.15,1.06-.51,1.88-1.09,2.48-.58.6-1.32.83-2.22.71l-7.44-1.03c-.93-.13-1.59-.56-2.01-1.29-.41-.74-.55-1.63-.4-2.69.12-.86.31-1.51.57-1.95.26-.44.71-.92,1.36-1.43l.49-.41,1.24-8.98c.25-1.8.21-3.09-.13-3.88-.33-.78-.88-1.23-1.64-1.33-.39-.05-.75,0-1.07.15s-.61.33-.87.54c-.29.24-.54.52-.76.85l-1.67,12.03.36.52c.48.66.79,1.24.92,1.73.13.49.14,1.17.02,2.02-.15,1.05-.52,1.87-1.11,2.46s-1.36.82-2.28.69l-7.44-1.03c-.9-.12-1.55-.55-1.94-1.28-.4-.73-.53-1.62-.38-2.66.12-.89.35-1.55.68-1.98.33-.43.87-.85,1.61-1.26l.88-.47,3.64-26.3Z"/><path class="cls-1" d="m268,417.48l-.68-.39c-1.27-.72-2.13-1.44-2.58-2.16-.45-.72-.62-1.55-.5-2.5s.65-1.6,1.61-2.08c.96-.48,2.21-.62,3.77-.42l15.65,2c1.55.2,2.73.65,3.54,1.35.81.7,1.15,1.51,1.04,2.42s-.52,1.65-1.22,2.22c-.7.57-1.7,1.05-3,1.45l-.42.13,2.78,8.91c.18.7.37,1.38.55,2.06.18.68.35,1.28.5,1.82.14.61.26,1.18.35,1.71l.16.02c.23-.49.48-1.01.77-1.56.28-.48.58-1.02.9-1.64.32-.61.69-1.23,1.09-1.85l4.93-7.92-.38-.23c-1.16-.71-2.01-1.43-2.54-2.16-.53-.73-.74-1.55-.62-2.45s.65-1.6,1.61-2.08c.96-.48,2.21-.62,3.77-.42l12.12,1.55c1.55.2,2.73.65,3.54,1.35s1.15,1.51,1.04,2.42-.49,1.71-1.11,2.29c-.62.58-1.63,1.06-3.04,1.44l-.76.2-11.34,15.94c-2.51,3.49-5.02,6.3-7.52,8.45-2.5,2.14-5.02,3.76-7.55,4.87-2.53,1.1-5.12,1.77-7.76,1.99-2.64.22-5.32.15-8.05-.2-3.21-.41-5.55-1.22-7.03-2.42-1.48-1.2-2.11-2.67-1.89-4.39.22-1.68.92-2.86,2.13-3.55,1.2-.68,2.5-.93,3.89-.76.64.08,1.18.19,1.63.33.44.14.91.29,1.41.45.5.16,1.07.33,1.73.49.66.16,1.52.31,2.59.45.64.08,1.22.14,1.73.16s.98.02,1.39-.03c.41-.05.78-.13,1.09-.25.31-.12.59-.28.84-.49l-10.15-26.53Z"/><path class="cls-1" d="m312.55,430.55c.34-2.67,1.15-5.04,2.42-7.12,1.27-2.07,2.95-3.76,5.03-5.07,2.08-1.3,4.54-2.22,7.38-2.74,2.84-.52,5.97-.56,9.4-.12,6.33.81,10.98,2.82,13.95,6.05,2.97,3.22,4.15,7.25,3.54,12.07-.34,2.67-1.15,5.04-2.42,7.12-1.27,2.08-2.95,3.77-5.03,5.07-2.08,1.31-4.54,2.22-7.38,2.74-2.84.52-5.97.56-9.4.12-6.33-.81-10.98-2.82-13.95-6.05s-4.15-7.25-3.53-12.07Zm15.56.76c-.18,1.4-.18,2.61,0,3.65.18,1.04.49,1.9.91,2.6.42.7.94,1.24,1.55,1.62.61.38,1.27.61,1.99.71,1.44.18,2.73-.23,3.88-1.25,1.15-1.02,1.91-2.92,2.26-5.72.18-1.4.18-2.61,0-3.65-.18-1.03-.49-1.91-.9-2.63s-.93-1.27-1.54-1.65c-.61-.38-1.27-.61-1.99-.71-1.44-.18-2.73.23-3.88,1.25-1.15,1.02-1.91,2.94-2.27,5.78Z"/><path class="cls-1" d="m359.58,425.94l-1.11-.52c-1.07-.52-1.78-1.07-2.14-1.67-.36-.6-.47-1.44-.33-2.52s.47-1.88.99-2.41c.52-.52,1.3-.89,2.33-1.1,1.03-.21,2.33-.33,3.9-.36,1.57-.03,3.13.05,4.67.25,2.18.28,3.7.95,4.54,2,.84,1.05,1.13,2.64.86,4.74l-1.55,12.09c-.24,1.9-.08,3.28.48,4.13.57.85,1.43,1.35,2.58,1.5.6.08,1.14.04,1.61-.11.48-.15.9-.33,1.28-.53.42-.24.79-.53,1.09-.87l1.53-11.97-1.41-.69c-1.07-.52-1.79-1.05-2.18-1.61s-.51-1.38-.37-2.46.47-1.88.99-2.41c.52-.52,1.3-.89,2.33-1.1,1.03-.21,2.34-.32,3.93-.35,1.59-.03,3.27.07,5.02.29,2.18.28,3.7.95,4.54,2,.84,1.05,1.13,2.64.86,4.74l-2.21,17.3,1.24.54c1.07.47,1.77.97,2.09,1.5.32.53.42,1.33.28,2.4s-.45,1.82-.96,2.37c-.51.55-1.3.94-2.37,1.18-1.08.24-2.38.38-3.91.41-1.53.03-2.85-.02-3.96-.16-1.97-.25-3.33-.79-4.07-1.62-.74-.83-1-2.11-.78-3.85l.04-.31-.12-.08c-.6.97-1.38,1.78-2.33,2.41-.81.57-1.88,1.04-3.19,1.42-1.31.38-2.93.45-4.86.2-4.07-.52-7.02-1.9-8.84-4.15-1.83-2.24-2.48-5.37-1.97-9.37l1.44-11.26Z"/><path class="cls-1" d="m404.26,434.62l-1.85-.75c-1.39-.56-2.34-1.14-2.86-1.72s-.7-1.43-.56-2.53.54-1.91,1.2-2.43c.66-.52,1.64-.87,2.96-1.04,1.32-.18,2.97-.25,4.97-.24,2,.02,3.94.15,5.82.39,2.55.33,4.29.92,5.22,1.79.93.87,1.28,2.17,1.06,3.89l-.16,1.26.16.08c.49-.79,1.1-1.54,1.81-2.24.71-.7,1.55-1.3,2.51-1.8.96-.5,2.05-.86,3.26-1.09,1.21-.23,2.57-.25,4.06-.06,1.94.25,3.22.82,3.83,1.71.62.89.82,2.14.62,3.74-.16,1.22-.48,2.32-.97,3.31-.49.99-1.08,1.82-1.76,2.5s-1.45,1.18-2.3,1.5c-.86.32-1.7.42-2.53.32-.5-.06-.92-.19-1.26-.39-.34-.19-.64-.39-.89-.6-.26-.2-.53-.4-.81-.59-.29-.19-.68-.31-1.18-.38-1.11-.14-2.3.13-3.57.83l-1.47,11.5,2.39,1.13c1.38.64,2.3,1.25,2.76,1.82.46.57.63,1.31.52,2.23-.14,1.13-.75,1.99-1.81,2.57-1.06.59-2.48.77-4.25.54l-17.94-2.3c-1.77-.23-3.1-.76-3.98-1.59-.88-.83-1.25-1.82-1.1-2.94.12-.96.49-1.66,1.11-2.09.62-.43,1.59-.79,2.93-1.09l2.17-.49,1.89-14.78Z"/><path class="cls-1" d="m259.61,488.68c0-4.56.47-8.72,1.39-12.48.93-3.76,2.28-6.96,4.05-9.6,1.77-2.64,3.94-4.7,6.5-6.19,2.56-1.48,5.46-2.22,8.68-2.22,5.94,0,10.48,2.39,13.61,7.16,3.13,4.77,4.7,11.28,4.7,19.53,0,4.56-.47,8.72-1.4,12.48-.93,3.76-2.28,6.96-4.05,9.6-1.77,2.64-3.94,4.7-6.5,6.19-2.56,1.48-5.46,2.22-8.68,2.22-5.94,0-10.48-2.39-13.61-7.16s-4.7-11.28-4.7-19.53Zm14.47-2.06c0,2.39.15,4.43.44,6.13.29,1.7.67,3.09,1.15,4.18.47,1.09,1.01,1.88,1.62,2.39.61.51,1.25.76,1.92.76,1.35,0,2.5-.98,3.44-2.93.95-1.95,1.42-5.32,1.42-10.09,0-2.39-.15-4.43-.44-6.13-.29-1.7-.68-3.11-1.15-4.23s-1.01-1.94-1.62-2.44c-.61-.51-1.25-.76-1.92-.76-1.35,0-2.5.98-3.44,2.93-.94,1.95-1.42,5.35-1.42,10.2Z"/><path class="cls-1" d="m302.54,472.71l-.72.19c-2.09.55-3.5-.56-4.22-3.33-.45-1.73-.5-3.18-.13-4.36.37-1.18,1.08-1.91,2.15-2.18l.36-.09-.27-1.04c-1.25-4.79-1.19-8.87.2-12.24,1.39-3.37,4.24-5.62,8.56-6.75,1.2-.31,2.29-.39,3.26-.22.98.17,1.73.47,2.25.92.24.2.44.41.61.63.17.22.33.48.48.78.15.3.3.7.45,1.19.15.49.31,1.08.49,1.77l.14.52.33,1.26c.1.4.23.97.39,1.72.27,1.3.23,2.27-.11,2.92-.34.64-.88,1.06-1.6,1.25s-1.37.12-1.95-.2c-.58-.32-1.08-.88-1.51-1.66l-.95-1.73c-.07.02-.16.02-.28,0-.07.02-.16.03-.27.03-.11,0-.23.02-.37.06-.51.13-.82.49-.93,1.07s.08,1.63.55,3.14l1.16,3.81,1.75-.46c2.09-.55,3.5.56,4.22,3.32.47,1.78.49,3.25.08,4.41-.41,1.16-1.25,1.91-2.52,2.24l-.98.26,4.71,17.99,1.79.55c1.03.31,1.79.71,2.27,1.21.48.5.86,1.29,1.14,2.37.35,1.32.33,2.48-.05,3.47-.38.99-1.12,1.63-2.22,1.92l-11.1,2.91c-1.1.29-2.05.09-2.87-.58-.82-.68-1.4-1.67-1.75-3-.3-1.13-.36-2.03-.19-2.7.17-.67.6-1.39,1.28-2.14l1.05-1.22-4.71-17.99Z"/><path class="cls-1" d="m327.49,478.88h-.74c-2.16,0-3.24-1.45-3.24-4.36,0-1.81.33-3.25.98-4.32.65-1.06,1.53-1.59,2.63-1.59h.37v-1.09c0-5.03,1.1-9.02,3.29-11.98,2.2-2.96,5.53-4.43,9.99-4.43,1.24,0,2.31.21,3.21.62.9.42,1.55.91,1.94,1.48.18.26.32.52.43.78.11.26.19.56.27.89.07.34.11.77.13,1.28.02.52.03,1.14.03,1.87v1.87c0,.42-.02,1.01-.05,1.79-.07,1.35-.35,2.29-.85,2.84-.5.54-1.12.82-1.86.82s-1.36-.23-1.83-.7c-.48-.47-.82-1.14-1.04-2.02l-.48-1.94c-.07,0-.16-.03-.27-.08-.07,0-.16-.01-.27-.04-.11-.03-.23-.04-.37-.04-.53,0-.92.27-1.17.82s-.34,1.62-.27,3.23l.16,4.04h1.81c2.16,0,3.24,1.45,3.24,4.35,0,1.87-.35,3.32-1.04,4.35-.69,1.04-1.69,1.56-3,1.56h-1.01v18.9l1.59,1c.92.57,1.55,1.16,1.89,1.77.34.62.5,1.49.5,2.62,0,1.39-.31,2.52-.93,3.4-.62.87-1.5,1.31-2.63,1.31h-11.48c-1.13,0-2.01-.44-2.63-1.31-.62-.87-.93-2.01-.93-3.4,0-1.18.17-2.08.5-2.7.34-.62.93-1.21,1.78-1.77l1.33-.93v-18.9Z"/><path class="cls-1" d="m351.88,477.06l-1.22-.56c-.92-.42-1.57-.92-1.94-1.48s-.56-1.46-.56-2.68.19-2.16.56-2.82c.37-.66.96-1.17,1.78-1.55.81-.38,1.87-.69,3.16-.95,1.29-.26,2.66-.39,4.12-.39,1.81,0,3.11.53,3.91,1.58.8,1.05,1.2,2.77,1.2,5.16v20.07l1.01.69c.85.6,1.44,1.18,1.78,1.74s.51,1.37.51,2.43c0,1.25-.31,2.27-.93,3.06-.62.79-1.5,1.18-2.63,1.18h-10.79c-1.13,0-2.01-.39-2.63-1.18-.62-.79-.93-1.81-.93-3.06,0-1.07.17-1.88.5-2.43.34-.56.93-1.09,1.78-1.6l1.33-.83v-16.38Zm-.58-19.46c0-2.01.54-3.71,1.62-5.11,1.08-1.4,2.54-2.1,4.38-2.1s3.29.68,4.33,2.03c1.04,1.35,1.57,3.03,1.57,5.04s-.54,3.71-1.62,5.11c-1.08,1.4-2.54,2.1-4.38,2.1s-3.29-.67-4.33-2c-1.05-1.33-1.57-3.02-1.57-5.08Z"/><path class="cls-1" d="m381.11,470.19s-.11-.02-.21-.05c-.07,0-.17,0-.29-.03-.12-.02-.26-.03-.4-.03-1.1,0-2.04.51-2.82,1.54-.78,1.02-1.17,2.74-1.17,5.15s.5,4.22,1.49,5.32c.99,1.1,2.46,1.64,4.41,1.64.57,0,1.03-.03,1.38-.09.35-.06.66-.13.9-.21s.49-.15.72-.21c.23-.06.49-.09.77-.09.74,0,1.34.24,1.78.71.44.47.66,1.11.66,1.91,0,1.13-.41,2.11-1.22,2.95-.25.25-.59.55-1.04.87-.44.33-1.01.63-1.7.9-.69.27-1.52.5-2.5.68-.97.18-2.1.27-3.37.27-4.29,0-7.57-1.15-9.86-3.44-2.29-2.29-3.43-5.48-3.43-9.56,0-2.4.35-4.58,1.06-6.53.71-1.95,1.73-3.59,3.06-4.94,1.33-1.35,2.95-2.38,4.86-3.11,1.91-.73,4.07-1.09,6.48-1.09,1.59,0,2.94.16,4.04.49,1.1.33,1.91.76,2.44,1.31.46.47.75.97.88,1.5.12.53.19,1.36.19,2.48v1.88c0,.42-.02,1.08-.05,1.99-.04,1.06-.31,1.82-.82,2.29-.51.47-1.18.71-1.99.71s-1.53-.21-2.05-.63c-.51-.42-.95-1.1-1.3-2.05l-.9-2.57Z"/><path class="cls-1" d="m407.05,476.52c.51,1.35,1.53,2.33,3.05,2.94,1.53.61,3.51.91,5.95.91,1.27,0,2.38-.04,3.32-.11.94-.07,1.76-.15,2.44-.24.69-.09,1.28-.17,1.79-.24.51-.07.97-.11,1.37-.11,1.07,0,1.92.21,2.56.63.64.42.95.99.95,1.71,0,.52-.14.97-.42,1.34-.28.37-.7.74-1.26,1.1-.97.62-2.67,1.24-5.11,1.86-2.44.62-5.77.93-10,.93-3.31,0-6.23-.28-8.78-.83-2.54-.55-4.68-1.35-6.41-2.39-1.73-1.04-3.04-2.29-3.93-3.74-.89-1.45-1.34-3.08-1.34-4.91,0-2.12.5-4.03,1.49-5.74s2.4-3.16,4.23-4.35c1.83-1.19,4.06-2.1,6.68-2.73,2.62-.63,5.53-.95,8.74-.95,5.7,0,10.01.9,12.93,2.69,2.93,1.79,4.39,4.25,4.39,7.38,0,1.66-.57,2.88-1.72,3.66s-2.76,1.17-4.85,1.17h-16.1Zm8.24-4.88c-.1-1.39-.5-2.36-1.18-2.92-.69-.56-1.62-.84-2.79-.84s-2.21.33-2.98.99c-.76.66-1.27,1.58-1.53,2.77h8.47Z"/><path class="cls-1" d="m385.35,499.43h-.57c-1.67,0-2.5-.6-2.5-1.82,0-.76.25-1.36.76-1.8.51-.44,1.18-.66,2.03-.66h.29v-.45c0-2.1.85-3.76,2.54-4.99,1.7-1.23,4.27-1.85,7.71-1.85.96,0,1.78.09,2.48.26.7.17,1.2.38,1.5.62.14.11.25.22.33.32s.15.23.21.37c.05.14.09.32.1.53.01.22.02.48.02.78v.78c0,.17-.01.42-.04.75-.06.56-.27.96-.66,1.18-.38.23-.86.34-1.44.34s-1.05-.1-1.42-.29c-.37-.19-.64-.48-.8-.84l-.37-.81c-.05,0-.12-.01-.2-.03-.06,0-.12,0-.21-.02-.08-.01-.18-.02-.29-.02-.41,0-.71.11-.9.34-.19.23-.26.68-.2,1.35l.12,1.69h1.4c1.67,0,2.5.61,2.5,1.82,0,.78-.27,1.38-.8,1.82-.53.43-1.31.65-2.32.65h-.78v7.88l1.23.42c.71.24,1.2.48,1.46.74.26.26.39.62.39,1.09,0,.58-.24,1.05-.72,1.42-.48.36-1.16.55-2.03.55h-8.86c-.88,0-1.55-.18-2.03-.55s-.72-.84-.72-1.42c0-.49.13-.87.39-1.13s.72-.5,1.38-.74l1.03-.39v-7.88Z"/><path class="cls-1" d="m400.35,501c0-1.8.21-3.44.63-4.92.42-1.48,1.02-2.75,1.82-3.79.79-1.04,1.77-1.85,2.92-2.44,1.15-.58,2.45-.88,3.9-.88,2.67,0,4.7.94,6.11,2.82,1.4,1.88,2.11,4.45,2.11,7.7,0,1.8-.21,3.44-.63,4.92-.42,1.48-1.02,2.75-1.82,3.79-.79,1.04-1.77,1.86-2.92,2.44-1.15.58-2.45.88-3.89.88-2.67,0-4.7-.94-6.11-2.82-1.4-1.88-2.11-4.45-2.11-7.7Zm6.49-.81c0,.94.07,1.75.2,2.42.13.67.3,1.22.51,1.65.21.43.45.74.73.94.27.2.56.3.86.3.61,0,1.12-.39,1.54-1.16.42-.77.64-2.1.64-3.98,0-.94-.07-1.75-.2-2.42-.13-.67-.3-1.23-.52-1.67-.21-.44-.45-.76-.73-.96-.27-.2-.56-.3-.86-.3-.61,0-1.12.39-1.54,1.16-.42.77-.64,2.11-.64,4.02Z"/><path class="cls-1" d="m423.07,495.19l-.97.12c-.73.09-1.3.04-1.7-.13s-.78-.59-1.12-1.25-.48-1.23-.41-1.71c.07-.48.32-.96.76-1.45.44-.48,1.04-1.01,1.81-1.58s1.55-1.06,2.36-1.48c1.09-.56,1.96-.73,2.63-.52.66.22,1.26.84,1.79,1.87l.39.76h.09c-.09-.59-.13-1.18-.11-1.78.02-.6.13-1.18.32-1.74.19-.56.48-1.08.85-1.56.38-.48.89-.89,1.53-1.22.83-.43,1.52-.48,2.07-.16.55.32,1.08.96,1.57,1.92.38.73.65,1.44.81,2.14.16.7.24,1.34.22,1.92s-.13,1.09-.34,1.51c-.21.43-.5.73-.85.92-.21.11-.42.16-.62.15-.2,0-.38-.03-.55-.07-.17-.04-.34-.07-.52-.09-.18-.02-.37.02-.58.13-.47.24-.83.74-1.06,1.5l3.54,6.88,1.31-.06c.76-.04,1.32.03,1.7.22s.71.55.99,1.1c.35.68.42,1.33.23,1.97-.2.64-.67,1.15-1.43,1.54l-7.66,3.94c-.76.39-1.45.48-2.08.27-.63-.21-1.12-.66-1.47-1.33-.3-.58-.4-1.07-.32-1.5.08-.42.32-.91.73-1.46l.65-.91-4.55-8.85Z"/><path class="cls-1" d="m319.02,508.22c-.47-.87-1.08-1.5-1.86-1.89-.25-.18-.53-.5-.89-.96-.9-1.41-1.89-2.18-2.94-2.31-1.31-.18-2.23-.36-2.76-.57-.54-.22-1.52-.41-2.95-.6-2.19-.29-3.85-.29-4.98-.01-.69.2-1.4.29-2.12.3-.3.01-.91.26-1.84.76-2.57,1.37-4.3,3.42-5.2,6.1l-.84,2.53c-.56,1.26-.89,2.41-.97,3.44-.06.89-.01,1.85.16,2.87.19,1.4.26,3.34.19,5.8,0,.61.12,1.04.38,1.26.26.23.53.37.83.43.3.07.52.2.67.42.35.86.92,1.56,1.69,2.11.76.55,1.55,1.04,2.36,1.48,1.19.54,2.02,1.12,2.48,1.75.37.72.55,1.67.54,2.85,0,1.19.26,1.83.8,1.89.33.04.57-.01.69-.16s.19-.41.21-.79l.1-1.2c.05-.52.17-1.1.39-1.73.07-.38.24-.54.49-.52.66.19,1.27.46,1.85.81.36.25.74.46,1.13.65.39.19.67.64.85,1.32s.25,1.46.18,2.31c-.08,1.03-.39,2-.93,2.87-.54.88-1.36,1.32-2.47,1.32-.29-.04-.69.01-1.19.16-.5.16-.98.2-1.44.14-.33-.04-.6-.19-.79-.45-.53-.74-1.12-1.39-1.76-1.95l-1.06-1.13c-.71-.76-1.4-1.19-2.07-1.27-.92-.12-1.74.37-2.47,1.46-.72,1.1-1.93,2.42-3.63,3.95-.55.51-.88,1.62-1.03,3.37-.07.85-.11,1.96-.14,3.34-.02.56-.07,1.17-.07,1.74,0,.29-.06.45.02.68.13.31.2,1.13,1.02,1.19.45,0,.88-.53,1.11-1.05.05-.1.04-.18.06-.31l.03-.61c.13-1.65.38-2.45.77-2.4.16.02.34.14.54.36,1.24,1.49,1.99,3.02,2.26,4.58.17,1.12.5,1.7,1,1.77.17.02.34-.04.5-.19.16-.14.25-.38.28-.71.1-.9.27-1.45.48-1.69s.44-.34.7-.3c.2.03.43.09.65.2.23.1.47.17.72.19,1.2-.13,2.37-.11,3.51.04l3.47.52c.84.11,1.45.1,1.85-.04.39-.14.92-.31,1.57-.52l1.84-.69.38-.02c.25.04.39.24.44.63.03.38,0,1.03-.06,1.92-.09,1.13-.09,1.95,0,2.46.08.51.36.82.81.92.68.09,1.13-.44,1.34-1.6l2.1-9.72c.08-.47.22-.86.42-1.2.19-.33.42-1.06.68-2.23l.56-2.28.2-1.69.3-2.96c.15-1.88-.18-3.58-.98-5.08-.79-1.51-1.78-2.88-2.95-4.14-.79-.87-2.05-1.86-3.79-2.99-1.73-1.13-3.3-1.78-4.68-1.97-.47-.06-.75-.09-.86-.08s-.25.02-.42.05c-.63-.08-1.27-.49-1.91-1.25-.64-.75-.92-1.71-.82-2.9.06-.84.44-1.82,1.12-2.91-.12,1.55.09,2.36.64,2.44.33.04.56-.12.67-.48l.45-1.72c.48-1.7,1.01-2.51,1.6-2.43.41.15.82.35,1.22.59,1.21.39,2.27,1.13,3.21,2.2.42.63.66,1.31.73,2.03.07.72.04,1.96-.09,3.7-.05.51-.02.94.06,1.25.08.32.31.53.69.62.46.06.72-.23.77-.9l.02-.21c.02-.34.14-.73.34-1.17.2-.44.71-.88,1.5-1.31.13-.02.29-.08.5-.18.2-.09.43-.22.7-.37.27-.16.5-.41.7-.76.09-.18.19-.26.27-.25.13.02.22.14.29.36.07.23.11.49.14.77.01.29.02.53,0,.72-.03.37-.08.71-.14,1.02-.07.29-.11.59-.13.87,0,.48.04.83.11,1.05.06.23.22.35.48.39.51.06.86-.4,1.06-1.4.21-1,.38-2.3.5-3.9l.27-4.32.11-.55.09-1.27c.07-.9-.12-1.78-.59-2.65Z"/><path class="cls-1" d="m346.22,572.79c-.21,0-.42-.2-.61-.6-.2-.4-.29-.88-.29-1.43,0-.9-.04-1.53-.11-1.88-.18-.8-.27-1.44-.27-1.92s-.06-.89-.19-1.24-.44-.73-.93-1.13c-.64-.4-1.4-.6-2.29-.6-.39,0-.68.45-.85,1.36-.11,1.16-.22,1.93-.35,2.34-.13.4-.31.6-.56.6-.28,0-.47-.1-.56-.3-.09-.2-.13-1.31-.13-3.32-.25-1.91-.37-3.79-.37-5.65,0-.7.03-1.39.08-2.07.05-.68.08-1.39.08-2.15,0-1-.03-2.01-.08-3.01-.05-1-.08-2.03-.08-3.09l.05-1.51c0-.9-.21-1.74-.64-2.52-.43-.78-1.01-1.17-1.76-1.17-.89,0-1.42.43-1.6,1.28-.14.6-.22,1.21-.24,1.81-.02.6-.07,1.11-.16,1.51-.09.4-.28.6-.56.6-.25,0-.41-.13-.48-.38-.07-.25-.11-.68-.11-1.28s-.03-1.14-.08-1.62c-.05-.48-.19-.92-.4-1.32-.28.35-.45.73-.51,1.13-.05.4-.08.96-.08,1.66,0,3.11-.05,5.73-.16,7.84-.14,2.31-.44,6.33-.91,12.06-.07,1.56-.13,2.45-.19,2.67-.05.23-.24.36-.56.41-.25,0-.41-.23-.48-.68-.07-.45-.13-1.01-.16-1.66-.07-1.01-.21-1.96-.43-2.86s-.75-1.36-1.6-1.36l-.96.08c-.43,0-.85-.15-1.28-.45-.11-.1-.21-.15-.32-.15-.18,0-.3.2-.37.6l-.27,2.26c-.25,1.1-.37,2.26-.37,3.47,0,.55-.1.99-.29,1.32-.2.33-.4.49-.61.49-.43,0-.64-.5-.64-1.51l.05-1.28c0-1.01-.04-2.01-.11-3.01-.07-1.01-.11-2.01-.11-3.01,0-.85.05-1.71.16-2.56.18-1.66.35-4.12.53-7.39.07-1.71.11-3.64.11-5.8-.07-1-.11-2.26-.11-3.77,0-2.01.03-4.14.08-6.4.05-2.26.08-4.32.08-6.18,0-2.46-.07-4.34-.21-5.65-.07.35-.15.72-.24,1.09-.09.38-.14.73-.16,1.05-.02.33-.09.58-.21.75-.13.18-.28.26-.45.26-.29,0-.45-.28-.51-.83-.05-.55-.08-1.86-.08-3.92-.11-.75-.16-1.81-.16-3.16,0-1.21.16-2.42.48-3.65.32-1.23.99-2.45,2.03-3.65.43-.4.91-.6,1.44-.6.32,0,.64.03.96.08.32.05.62.08.91.08.32,0,.61-.04.88-.11.27-.08.52-.11.77-.11.82,0,1.57.16,2.27.49.69.33,1.04,1.02,1.04,2.07s.05,1.96.16,2.71c.07.55.12,2.24.16,5.05l-.05,5.5c0,1.46.16,2.39.48,2.79.32.4,1.08.6,2.29.6h1.97c1.24-.1,1.87-.8,1.87-2.11,0-.4-.04-.85-.11-1.36-.07-.5-.11-1.05-.11-1.66l-.05-3.01.05-.23c0-.25-.02-.4-.05-.45-.36-.35-.53-.75-.53-1.21,0-.3.03-.68.11-1.13.14-.8.21-2.26.21-4.37,0-.9.12-1.58.37-2.03.25-.45.66-.8,1.23-1.05.96-.45,1.92-.68,2.88-.68l2.29.15c.64,0,1.15.36,1.55,1.09.39.73.59,1.54.59,2.45,0,.6-.02,1.16-.05,1.66-.11.95-.16,2.24-.16,3.84,0,2.66.19,6.2.59,10.62.11.96.16,1.56.16,1.81-.07.8-.18,1.24-.32,1.32-.14.08-.27.14-.37.19-.29,0-.43.2-.43.6.07,11.2.12,16.98.16,17.33.03,3.67.18,6.56.43,8.66.07.35.11.73.11,1.13,0,.55-.07,1.53-.21,2.94,0,2.31-.03,3.76-.08,4.33-.05.58-.15,1.32-.29,2.22-.14.6-.34.9-.59.9Z"/><path class="cls-1" d="m351.39,571.85c-.6-.03-.82-1.36-.68-3.98l.28-2.92c.04-.78,0-1.74-.15-2.86-.1-.45-.23-.81-.39-1.07s-.37-.48-.62-.66c-.25-.18-.46-.44-.65-.79s-.25-.94-.2-1.77c.08-1.45.52-3.39,1.33-5.81.58-1.98,1.07-3.94,1.45-5.88.27-1.38.64-2.74,1.11-4.05l.07-.25c.01-.22-.1-.37-.33-.44-.54-.25-.8-.71-.76-1.38.01-.22.2-.94.56-2.15.36-1.21.77-2.51,1.22-3.88.45-1.37.86-2.5,1.23-3.38.78-2.03,1.36-4.24,1.73-6.62.11-.55.26-1.08.44-1.57.24-.71.4-1.46.48-2.24.23-2.11.59-4.54,1.08-7.29.48-2.75,1-4.8,1.55-6.17.23-.66.54-1.19.92-1.59.38-.4.87-.58,1.46-.55l.42.02c.75.04,1.5,0,2.25-.13.74-.13,1.45-.17,2.13-.14l3.34.18c.48.03,1.02.74,1.62,2.14.6,1.4.98,2.92,1.13,4.55.27,2.42.69,4.29,1.25,5.61.57,1.32.9,2.82,1.01,4.5-.02.45-.15.76-.38.95-.23.18-.35.44-.37.78-.03,1.23.07,2.4.29,3.5.22,1.1.29,2.45.2,4.04s.11,3.13.59,4.61c.6,2.16,1.13,6.53,1.57,13.1.3,4.1.62,7.09.96,8.95.32,1.36.46,2.51.41,3.46-.04.72-.18,1.24-.41,1.53-.24.29-.46.52-.66.68-.21.16-.39.32-.53.48-.15.16-.23.41-.25.74l-.17,3.18c-.08,1.56-.16,2.62-.23,3.18-.19,1.33-.52,1.99-1,1.96-.32-.02-.53-.48-.64-1.38l.18-4.44c-.07-1.01-.13-1.71-.19-2.11-.06-.4-.2-.66-.44-.78-.23-.12-.6-.21-1.09-.27-.5-.06-1.18-.19-2.04-.4h-.24c-.24-.03-.39.09-.47.34-.07.25-.13.68-.16,1.29s-.1,1.45-.19,2.51c-.06.44-.18.79-.35,1.03-.17.24-.36.36-.56.35-.24-.01-.48-.28-.73-.79-.25-.52-.36-1.06-.33-1.61l.02-.42c.04-.78,0-1.55-.12-2.32-.12-.76-.16-1.53-.12-2.32l.1-.75c.02-.39-.01-.69-.1-.89-.09-.2-.17-.39-.24-.56-.22-1.8-.34-3.26-.36-4.39,0-.84-.03-1.48-.11-1.94-.08-.45-.31-.69-.71-.71-.16,0-.3-.04-.41-.11-.62-.37-1.22-.57-1.82-.6-.87-.05-1.74.07-2.59.37-.37.15-.69.26-.97.33-.28.07-.54.66-.78,1.76-.24,1.11-.47,2.37-.68,3.78-.22,1.42-.43,2.71-.65,3.87-.1.44-.17.91-.19,1.42l-.08,1.42c-.04.84-.18,1.53-.41,2.08-.23.55-.48.81-.76.8-.24-.01-.41-.16-.51-.45-.1-.29-.15-.62-.13-1.01l.14-1.59c.05-.89-.27-1.39-.94-1.48-.12,0-.26-.15-.42-.44-.16-.29-.38-.44-.66-.45-.36-.02-.69.19-.99.62-.72,1.58-1.12,3.16-1.21,4.72l-.08,1.59c-.12,2.29-.54,3.41-1.26,3.38Zm15.89-34.75c.08-.05.13-.16.14-.33.03-.5-.12-1.8-.45-3.89l-.49-4.22c-.05-.51-.27-.97-.64-1.38-.18,1.78-.49,3.43-.95,4.95-.46,1.52-.77,3.02-.93,4.53.43.14.84.21,1.24.23l2.09.11Z"/><path class="cls-1" d="m386.49,587.1c-.63.04-.99-.61-1.07-1.93l.02-1.52c.04-.64.03-1.47-.04-2.48-.13-2.07-.39-3.99-.78-5.75-.39-1.76-.65-3.76-.79-5.99l-.09-2.39c0-1.17-.03-2.37-.11-3.59l-.39-7.25c-.14-2.92-.18-4.87-.13-5.83.04-.59.05-1.47.01-2.64-.01-.21-.08-.37-.21-.47-.54-.39-.84-1.07-.9-2.02-.05-.8-.03-1.73.06-2.8.15-1.34.19-2.7.1-4.08-.03-.53-.08-1.03-.15-1.51-.07-.48-.12-.98-.15-1.51-.12-1.86-.15-3.34-.1-4.43.05-1.09.07-2.42.05-3.96-.04-.58-.08-.99-.14-1.23-.05-.24-.09-.57-.12-.99-.06-.96,0-2.93.17-5.93.05-1.17.33-1.94.84-2.29.51-.35,1.11-.55,1.78-.59.51-.08,1-.22,1.46-.41.69-.31,1.4-.49,2.11-.53.47-.03,1-.03,1.57-.02.58.02,1.28,0,2.11-.05l2.66-.25c1.78-.11,3.91.37,6.39,1.44l1.04.42c.76.17,1.5.52,2.21,1.06,3.61,3.19,5.58,7.44,5.91,12.75.12,1.91.08,3.82-.12,5.72-.2,1.91-.44,3.75-.73,5.52-.56,3.77-.79,6.47-.68,8.12l.06.96c.03.53-.15.81-.54.83-.36.02-.57-.23-.64-.76-.27-1.74-.53-2.95-.79-3.63-.26-.68-.59-1-.98-.98-.43.03-.87.25-1.3.68-.43.43-.62.96-.58,1.6.03.48.16,1.07.38,1.78s.49,1.29.79,1.75c1.24,2.16,2.75,6.33,4.53,12.51.16.63.31,1.13.45,1.49.6,1.93.91,3.17.94,3.7.02.26-.01.45-.08.57-.25.44-.4.88-.45,1.31-.05.43-.08.94-.08,1.52.06,1.01-.02,2.61-.23,4.81-.12.65-.36.98-.71,1-.51.03-.8-.51-.87-1.62-.06-.9-.03-1.61.08-2.12.11-.51.14-1.04.11-1.57-.14-2.23-.92-3.3-2.34-3.21-.32.02-.64.07-.97.14-.33.07-.6.12-.79.13l-.42-.05c-.2.01-.3.23-.32.66,0,.69-.04,1.39-.14,2.09-.1.7-.12,1.47-.06,2.32l.13,1.11c0,.53-.21.81-.6.84-.2-.04-.33-.13-.37-.26-.05-.13-.11-.54-.2-1.23-.33-4.08-1.13-7.63-2.39-10.65l-.21-.55c-.21-.89-.62-1.35-1.22-1.36-.24.01-.49-.48-.75-1.47l-.17-.79c-.27-1.8-1.03-4.07-2.27-6.82-.51-1.19-1-2.04-1.47-2.55.1.37.18.92.22,1.67.1,1.59.13,3.68.09,6.27-.04,2.59,0,4.81.12,6.67l.08,1.35c.05.85.02,1.7-.11,2.57-.12.86-.18,1.72-.17,2.57.03.42-.04.79-.2,1.09-.16.3-.36.46-.59.48-.36.02-.67-.37-.94-1.18-.27-.81-.68-1.2-1.23-1.16l-1.23.24c-.4.02-.81-.04-1.23-.2-.43-.16-.76-.23-.99-.22-.63.04-.93.72-.88,2.05-.06,2.3-.03,4.29.08,5.99l.32,4.14c.06.96.05,1.68-.01,2.16-.07.48-.28.74-.64.76Zm6.96-48.58c1.6-.47,2.65-.73,3.16-.76l1.55-.02c.39-.02.73-.12.99-.3.27-.18.53-.75.78-1.73.45-1.68.65-2.95.6-3.8-.04-.69-.21-1.51-.51-2.45,0,.05-.02.12-.08.21-.05.08-.08.18-.07.28l.09.55c.05.74.01,1.49-.1,2.25l-.1,1.21c-.13,1.13-.41,1.71-.84,1.73-.2.01-.39-.11-.59-.36s-.31-.62-.34-1.1l-.05-1.68c-.14-2.28-.36-3.68-.65-4.2-.29-.51-.71-.92-1.26-1.2-.55-.29-1.01-.42-1.36-.4-.58.2-1.09.71-1.51,1.53s-.61,1.59-.57,2.27l.26,6.06c.05.8.11,1.31.19,1.55.07.23.21.35.41.33Z"/><path class="cls-1" d="m444.14,564.46c.1-1.16.1-2.33,0-3.51l-.05-.61c-.11-1.46-.1-2.82.03-4.06.09-.74.11-1.41.07-2-.07-.82-.22-1.49-.47-1.99-.24-.51-.48-.94-.72-1.29-.23-.35-.35-.63-.37-.86-.04-.5-.24-1.23-.59-2.19-.36-.96-.79-1.93-1.3-2.93-.51-.99-1.03-1.78-1.56-2.38-.37-.43-.69-.94-.96-1.51-.19-.4-.4-.77-.65-1.12-.81-1.22-1.71-2.34-2.69-3.37l-1.04-1.15c-.09-.13-.18-.21-.27-.22-.1-.02-.17-.03-.2-.06-.04-.01-.07-.09-.08-.23-.02-.23.23-1.02.75-2.39.51-1.37,1.1-2.92,1.78-4.64.67-1.73,1.27-3.32,1.79-4.78.65-1.8.97-2.83.95-3.1-.05-.64.11-.97.48-1,.26-.02.41.2.45.65.04.59.03,1.83-.05,3.72l-.06.76c.05.68.29,1.01.7.97.48-.03.7-.32.66-.87,0-.92.03-1.81.07-2.69.11-1.11.1-2.37,0-3.78l-.18-1.63c-.06-.73-.05-1.44.03-2.14.08-.69.1-1.27.07-1.72-.08-.96-.44-1.55-1.1-1.77-.65-.23-1.43-.35-2.33-.37-.65-.04-1.31-.13-2-.26-.34-.06-.66-.09-.96-.06-1.04.08-1.79.63-2.23,1.65-.45,1.02-.83,2.23-1.13,3.63-.33,1.58-.83,3.08-1.51,4.51-.81,1.67-1.48,3.44-2.01,5.31-.63,2.07-1.34,3.8-2.13,5.19-.14.19-.28.29-.43.3-.22.02-.37-.2-.44-.65-.07-.86-.09-1.39-.07-1.57-.16-2.15-.31-3.84-.45-5.09-.13-1.25-.25-2.51-.35-3.79-.11-1.5-.17-2.94-.16-4.32-.17-2.09-1.26-3.18-3.29-3.25l-1.41-.03c-.65-.04-1.25-.04-1.81.01-1.34.1-2.36.66-3.07,1.68-.92,1.21-1.34,2.39-1.25,3.53.03.46.15.93.33,1.42.45,1.39.73,2.9.86,4.54.09,1.18.14,2.31.15,3.39,0,1.08.04,1.98.1,2.71.1,1.32.36,2.03.78,2.14.23-.02.48-.2.75-.54l.03,1.09c.03.46.09.89.16,1.3.06.41.11.79.14,1.16l.02,1.03c-.07,1.42-.05,2.86.06,4.32l.06.75c.13,1.69.17,3.27.14,4.74.03.41.09.8.17,1.19.09.38.15.75.17,1.12v.68c-.08,1.34-.06,2.87.08,4.6.12,1.56.29,3.18.51,4.85.09.01.15.44.2.61.04.17.34.51.85.7.51.18.99-.04,1.52.07.36.07.65.33.8.49.14,0,.32.05.53.16.36.25.78.35,1.27.32.15-.02.31-.06.49-.15.18-.08.35-.13.5-.14.63-.05,1.13.35,1.5,1.19.47,1.2.82,3.33,1.05,6.38.05.59.14.97.26,1.12.12.15.26.22.41.21.22-.02.39-.29.5-.8.02-.18.03-1.23.01-3.13-.01-1.9-.07-4.3-.16-7.2-.09-2.91-.25-5.82-.48-8.73-.2-2.6-.48-5.03-.85-7.29,0-.23,0-.37.06-.42.05-.05.13-.1.24-.15.11-.01.21.05.29.18.84.62,1.55,1.48,2.15,2.58.59,1.1.99,3,1.2,5.69.08,1.09.21,2.1.37,3.02.17.93.28,1.85.36,2.76v.89c.05.51.23.74.57.72.33-.07.46-.57.39-1.48l-.14-1.15-.12-1.51c-.13-1.68.12-2.85.74-3.49l.95,1.99c1.25,2.65,2.09,4.55,2.52,5.71.53,1.57,1.4,2.3,2.59,2.21l1.68-.13c.15-.01.41-.08.77-.2.71-.05,1.24.47,1.59,1.56.35,1.1.56,2.22.65,3.36.03.82.04,1.49.05,2.02,0,.53.03,1.15.09,1.88.15,1.96-.72,3.86-.16,3.82.15-.01.79-.59.89-.74.1-.14.38-.74.41-.88.3-.79.55-1.47.48-2.36-.07-.88-.07-1.79.01-2.71Z"/><path class="cls-1" d="m460.66,570.69c-.35.16-.64.12-.88-.11-.23-.23-.46-.57-.66-1.02-1.03-2.22-2.06-4.36-3.1-6.43-.61-1.14-1.08-2.07-1.42-2.8-.69-1.49-.94-2.58-.74-3.26.6-2.09.93-3.76.99-5.01.06-1.25.47-2.05,1.24-2.41.56-.26,1.28-.25,2.17.02l1.33.41c.74.15,1.49.39,2.24.73.27.12.54.12.82-.01.38-.18.73-.45,1.05-.82.32-.37.6-.61.84-.72.85-.54,1.28-1.3,1.29-2.29.01-.98-.19-1.92-.6-2.81-.34-.73-.73-1.33-1.18-1.8-.45-.48-.87-.7-1.26-.67-.39.03-.78.04-1.16.02-.6-.02-1.2.07-1.79.24-.21.1-.26.32-.14.65.12.63.29,1.17.49,1.61l.48,1.03c.15.32.21.57.19.76-.02.18-.17.34-.45.47-.45.21-.95-.17-1.48-1.15-.54-.98-1.11-1.67-1.72-2.07-.64-.29-1.54-.36-2.71-.22-.83.04-1.66.02-2.5-.05-.84-.08-1.59-.38-2.26-.9-.21-.1-.45-.1-.7,0-.25.09-.53.11-.83.05-.3-.06-.59-.34-.87-.85-1.07-2.05-2.01-3.6-2.79-4.66-.6-.75-1.08-1.51-1.43-2.28-.41-.89-.69-1.98-.82-3.29l-.51-2.48c-.54-2.64-.14-5.15,1.21-7.54.49-.86.85-1.37,1.07-1.53.56-.35,1.06-.78,1.5-1.28.74-.78,2.02-1.59,3.83-2.43,1.19-.55,2.03-.87,2.54-.96.51-.09,1.3-.38,2.39-.88.87-.4,1.98-.25,3.32.45.48.22.86.34,1.12.36.77-.06,1.54.15,2.29.63.75.48,1.31,1.11,1.66,1.88l.5,1.09.17.51,1.76,3.67c.63,1.37,1.1,2.52,1.4,3.43.3.92.23,1.47-.18,1.66-.21.1-.39.07-.54-.08-.15-.15-.34-.42-.56-.8-.11-.24-.21-.5-.3-.78-.09-.28-.2-.58-.35-.9-.07-.16-.19-.36-.33-.58-.15-.23-.3-.41-.45-.56-.15-.15-.28-.2-.39-.15-.07.03-.1.15-.1.34,0,.39-.05.71-.19.97-.13.26-.26.47-.37.65-.11.17-.21.31-.29.39-.42.73-.61,1.34-.56,1.8.05.47.14.84.27,1.13l.08.18c.26.57.2.94-.18,1.11-.33.11-.6.05-.81-.18-.21-.22-.41-.55-.62-1-.69-1.49-1.23-2.52-1.61-3.07-.38-.56-.88-.99-1.49-1.29-1.21-.42-2.37-.5-3.47-.23-.42,0-.83.04-1.21.12-.49.23-.53,1.15-.12,2.77l.44,1.63c.08.36-.02.6-.3.73-.45.21-.99-.35-1.6-1.68-.02,1.24.13,2.21.47,2.94.47,1.01,1.12,1.66,1.96,1.96.84.3,1.52.33,2.04.08.12-.1.22-.19.3-.25.08-.06.31-.18.69-.36,1.15-.53,2.65-.76,4.51-.69,1.85.07,3.28.27,4.28.59,1.48.44,2.86,1.09,4.16,1.93,1.3.84,2.32,2.07,3.07,3.69l1.12,2.57.62,1.48.61,2.14c.33,1.07.49,1.79.49,2.16,0,.37.08.76.23,1.18l2.82,8.98c.36,1.06.26,1.71-.3,1.97-.4.14-.75.02-1.05-.36-.3-.37-.67-1.05-1.12-2.01-.35-.77-.63-1.3-.83-1.6-.2-.3-.41-.4-.62-.3l-.29.21-1.1,1.46c-.41.48-.74.88-.98,1.19-.24.31-.71.62-1.41.94l-2.91,1.27c-.94.44-1.85,1-2.71,1.69-.21.1-.42.16-.64.19-.22.03-.42.08-.59.16-.21.1-.34.29-.4.59-.05.29.08.83.4,1.62.13.28.17.52.11.72-.06.2-.16.33-.29.39-.42.19-.95-.13-1.59-.96-.91-1.15-2.19-2.03-3.82-2.64-.25-.08-.44-.09-.58-.02-.31.15-.14.92.51,2.34l.78,1.55.84,1.82c.43.93.74,1.76.94,2.5.19.74.08,1.21-.34,1.4Z"/><path class="cls-1" d="m324.39,310.27c.57-2.09,1.15-3.86,1.74-5.32.58-1.46,1.22-2.62,1.92-3.47.69-.85,1.45-1.46,2.27-1.81.82-.35,1.74-.46,2.76-.34s1.88.46,2.59,1c.71.54,1.29,1.31,1.76,2.31.46,1,.8,2.3,1,3.89.2,1.6.33,3.48.38,5.65l.75,45,.65,1.33c.5,1.03.85,1.97,1.05,2.83.2.85.2,2.03.02,3.53-.23,1.84-.66,3.31-1.3,4.4-.64,1.1-1.41,1.59-2.32,1.48l-8.87-1.1c-.91-.11-1.53-.78-1.89-1.99-.35-1.22-.42-2.71-.2-4.48.18-1.43.47-2.53.86-3.31.4-.78,1.04-1.7,1.92-2.77l.71-.85.04-5.22-8.91-1.1-1.3,4.96.48,1c.59,1.26.98,2.32,1.18,3.18.2.86.2,2.01.02,3.45-.22,1.78-.65,3.23-1.29,4.33-.64,1.11-1.41,1.6-2.32,1.49l-6.96-.86c-.91-.11-1.53-.78-1.88-2.01-.35-1.23-.41-2.77-.18-4.62.19-1.51.48-2.66.88-3.44.4-.79.97-1.62,1.71-2.51l.96-1.13,11.76-43.47Zm5.72,29.24v-10.76c0-1.6,0-3.2,0-4.81,0-1.6,0-3.06.03-4.39.02-1.53.03-3.03.04-4.49h-.09c-.35,1.41-.7,2.86-1.06,4.35-.3,1.29-.65,2.72-1.05,4.31-.4,1.59-.79,3.16-1.19,4.71l-2.62,10.33,5.94.74Z"/><path class="cls-1" d="m356.79,305.56l-2.76-.34-1.8,6.91c-.6,2.26-1.15,3.86-1.67,4.8-.52.94-1.1,1.37-1.75,1.29s-1.16-.68-1.43-1.8c-.28-1.12-.28-2.87-.02-5.26.35-3.04.61-5.29.79-6.73s.34-2.78.5-4.01l.21-1.73c.3-2.38.56-4.14.78-5.29.23-1.14.53-2.1.92-2.89s.8-1.38,1.23-1.79c.44-.4,1-.57,1.68-.48l19.81,2.46c.68.08,1.18.38,1.51.88.33.5.58,1.18.76,2.03.18.86.24,1.87.18,3.03-.06,1.16-.23,2.94-.53,5.32l-.21,1.73-.5,4.01c-.18,1.44-.47,3.68-.88,6.72-.32,2.38-.76,4.08-1.3,5.1-.54,1.02-1.15,1.48-1.83,1.4s-1.11-.64-1.39-1.67c-.27-1.03-.42-2.72-.45-5.06l-.06-7.15-2.76-.34-6.19,49.95,1,1.63c.65,1,1.09,2.06,1.31,3.17.22,1.11.21,2.62-.02,4.51-.28,2.22-.75,4-1.42,5.34-.67,1.34-1.46,1.95-2.36,1.84l-10.14-1.26c-.91-.11-1.52-.9-1.84-2.36-.32-1.46-.34-3.3-.07-5.52.23-1.89.59-3.33,1.07-4.31.48-.98,1.16-1.92,2.05-2.81l1.37-1.33,6.19-49.95Z"/><path class="cls-1" d="m386.8,301.3l-2.76-.34-1.9,7.67c-.63,2.51-1.21,4.29-1.74,5.33-.53,1.04-1.12,1.52-1.77,1.44s-1.15-.74-1.41-1.98c-.26-1.23-.25-3.17.05-5.82.39-3.37.68-5.85.88-7.45l.55-4.44.24-1.91c.33-2.64.61-4.59.86-5.86.24-1.26.56-2.33.96-3.21s.82-1.54,1.26-1.99c.44-.45,1.01-.64,1.68-.55l19.81,2.46c.68.08,1.18.4,1.5.95.32.55.56,1.3.74,2.24.17.95.22,2.06.14,3.35-.07,1.29-.27,3.25-.6,5.89l-.24,1.91-.55,4.44c-.2,1.59-.52,4.07-.97,7.44-.36,2.64-.81,4.52-1.37,5.66-.56,1.13-1.17,1.66-1.85,1.57s-1.11-.69-1.37-1.83c-.26-1.14-.39-3-.38-5.59l.03-7.9-2.76-.34-6.86,55.31.98,1.79c.64,1.1,1.06,2.26,1.27,3.49.21,1.23.18,2.89-.08,4.98-.3,2.46-.8,4.43-1.49,5.92-.69,1.49-1.48,2.17-2.39,2.06l-10.14-1.26c-.91-.11-1.51-.97-1.81-2.58-.3-1.61-.3-3.64,0-6.1.26-2.09.64-3.69,1.13-4.78.49-1.09,1.19-2.14,2.09-3.14l1.39-1.49,6.86-55.31Z"/><path class="cls-1" d="m407.7,325.32l-.63-.84c-.74-.98-1.24-1.99-1.5-3.03-.26-1.04-.29-2.37-.09-4,.18-1.43.55-2.59,1.12-3.47.57-.88,1.26-1.27,2.08-1.17l7.09.88c.99.12,1.72.53,2.2,1.22.47.69.85,1.91,1.12,3.65l3.95,24.12c.26,1.61.5,3.22.72,4.83.22,1.61.4,3.09.55,4.43.17,1.6.34,3.14.5,4.62l.1-.08c.13-1.75.25-3.54.36-5.36.11-1.57.23-3.23.38-4.98.15-1.75.3-3.44.48-5.06l1.47-13.29-.59-.83c-.71-.97-1.21-1.98-1.5-3.03-.29-1.05-.33-2.38-.13-4,.18-1.43.55-2.59,1.12-3.47s1.26-1.27,2.08-1.17l7.55.94c.82.1,1.4.65,1.74,1.64.34.99.42,2.2.24,3.63-.2,1.62-.53,2.89-.99,3.82-.46.92-1.17,1.83-2.15,2.72l-.63.59-5.06,40.84c-.39,3.18-1.13,5.6-2.21,7.27-1.08,1.67-2.53,2.39-4.34,2.17-1.33-.16-2.35-.8-3.06-1.9-.71-1.1-1.26-2.88-1.64-5.33l-3.71-22.57c-.29-1.62-.54-3.25-.75-4.88-.21-1.64-.39-3.13-.54-4.48-.18-1.6-.33-3.11-.47-4.52l-.1.08c-.13,1.76-.25,3.54-.36,5.36-.11,1.57-.24,3.24-.39,5.03-.15,1.79-.31,3.46-.47,5.02l-1.5,13.48.81,1.14c.63.9,1.09,1.76,1.36,2.59.27.83.32,1.95.14,3.39-.21,1.68-.63,3.02-1.25,4.02-.63,1-1.39,1.44-2.3,1.33l-7.34-.91c-.91-.11-1.54-.73-1.9-1.85-.36-1.12-.44-2.52-.23-4.2.18-1.43.48-2.52.92-3.25.44-.74,1.09-1.46,1.95-2.18l1.1-.91,4.71-38.03Z"/><path class="cls-1" d="m407.99,290.83c0,9.42-1.78,18.69,5.92,18.69s32.29-14.77,32.68-20.63c.43-6.61-19.61-11.87-27.27-12.63-9.13-.9-11.32,5.14-11.32,14.56Z"/><path class="cls-1" d="m395.26,261.09c0,9.42-5.98,20.98,1.72,20.98s17.34-7.66,17.34-17.08-4.81-20.5-12.11-22.93c-11.5-3.82-6.94,9.6-6.94,19.02Z"/></svg>