<?xml version="1.0" encoding="UTF-8"?><svg id="Layer_1" xmlns="http://www.w3.org/2000/svg" viewBox="0 0 182.18 138.6"><defs><style>.cls-1{fill:#95a1c6;}.cls-1,.cls-2,.cls-3,.cls-4{stroke-width:0px;}.cls-2{fill:#182a42;}.cls-3{fill:#dcc6b7;}.cls-4{fill:#ffeadc;}</style></defs><path class="cls-1" d="m54.82,19.41c1.34.17,2.68.4,3.94-.41.36-.23.65-.3.55-.87-.61-3.73-.29-7.47-.12-11.21.05-1.04.32-1.97,1.34-2.49,1.4.31,2.77.72,4.24.57,1.08-.11,2.19-.13,3.26.04,6.5,1.01,13.07,1.03,19.6,1.61,3.15.28,6.31.54,9.46.88,6.27.68,12.55,1.33,18.86,1.63,1.45.07,2.39-.33,3.16-1.43,2.41-.04,3.34.82,3.18,3.25-.49,7.33-.11,14.67-.2,22-.01.94.12,1.31,1.25,1.52,2.13.39,3.81-.08,5.56-1.29,2.07-1.44,4.33-2.62,6.54-3.86.54-.3,1.18-.55,1.78-.6,2.77-.22,5.51-.07,8.21.66.44.12.84.29,1.17.62-1.85-.33-3.6-.34-5.47.3-2.15.74-4.12,1.57-5.68,3.26-.35.38-.92.56-1.39.83-1.85,1.03-3.76,1.92-5.22,3.59-1.09,1.25-2.26,2.49-3.98,3-.75.22-1.26.88-1.78,1.44-1.03,1.09-2.11,2.11-3.38,2.94-.69.45-1.35,1.03-1.02,2,.31.92,1.12.93,1.91.93,2.27,0,4.54.06,6.77.42,5.99.96,11.91,2.29,17.74,3.97,1,.29,2.03.45,3.18.7-.47.38-.82.6-1.09.89-.81.85-.8,2.14-.02,3.11.81,1.01,2.18,1.35,3.13.78.99-.59,1.28-1.75.71-2.96-.19-.41-.38-.84-.67-1.17-.43-.51-.25-.67.26-.99,4.56-2.94,9.47-5.12,14.55-6.96.68-.25,1.59-.37,1.88-1,.63-1.37,1.95-1.61,3.05-2.22.83-.46,1.69-.87,2.51-1.35.74-.44,1.5-.9,1.49-1.93,2.07,1.4,2.58,3.59,2.59,5.83.02,3.35.45,6.68.39,10.03-.05,2.67.15,5.35-.24,8-.08.57.12,1.08.35,1.57,1.03,2.21,1.71,4.58,3.29,6.52.41.51.6,1.18.58,1.79-.09,2.27.27,4.51.37,6.77-.13-.01-.28.01-.4-.04-2.1-.95-3.4-.62-4.64,1.24-.41.62-.93,1.12-1.51,1.54-4.83,3.5-10.08,6.29-15.49,8.74-3.61,1.64-7.41,3.04-11.5,2.89-2.35-.08-4.69-.47-7.03-.61-2.53-.15-5.01-.81-7.57-.74-1,.02-1.94.47-2.96.28-3.16-.59-6.31-1.25-9.49-1.67-4.52-.6-9.05-1.22-13.64-.73-1.83.2-3.64.81-5.52.51-1.62-.26-3.27-.13-4.88-.33-2.59-.32-5.24-.32-7.77-1.17-2.71-.91-4-.02-4.3,2.83-.27,2.52-.18,5.07-.74,7.56-.33,1.46-2.82,3.33-4.25,2.93-1.59-.45-3.1-.59-4.58.34-.37.23-.86.34-1.3.35-3.49.11-6.98.2-10.48,0-.94-.05-1.83-.33-2.16-1.34-.74-2.22-2.33-3.07-4.58-3.06-1.12,0-1.95-.43-2.14-1.78-.14-.99-.9-1.69-1.9-1.93-.91-.22-1.11-.75-1.05-1.59.14-1.94.08-3.89.28-5.84.32-3.05-.73-4.23-3.8-4.26-4.65-.05-9.01-1.4-13.38-2.73-.55-.17-.98-.42-1.24-.96-.68-1.46-1.95-2.14-3.46-2.32-5.4-.62-10.74-1.67-16.04-2.8-3.2-.68-6.64-.05-9.61-1.85-.1-.06-.27-.03-.4-.05-1.83-.21-2.35,1.17-2.95,2.44-.31-2.76-.05-5.52.06-8.27.07-1.66.75-3.22,2.69-3.65.74-.16.6-.72.57-1.18-.22-3.91.28-7.79.38-11.68.13-5.05,1.19-9.98,1.58-14.99.14-1.83.85-2.88,2.57-3.33.52.64,1.2.94,2.01.97,2.12.1,4.25.18,6.37.31,3.83.23,7.69.21,11.45,1.15,1.06.26,1.95.02,2.76-.7,1.7-1.49,3.48-2.89,5.36-4.16.6-.41,1.39-.76,1.67-1.34.6-1.22,1.67-1.27,2.72-1.72,4.07-1.74,8.51-2.52,12.35-4.85,1.62-.98,1.83-1.26,1.37-3.13Zm13.67-2.52s-.06,0-.09,0c0,1.5-.04,2.99.01,4.49.05,1.5.69,1.89,1.98,1.33,1.55-.68,2.3-.33,2.9,1.29.26.69.39,1.39.39,2.12,0,.45.12.76.64.88,6.08,1.4,12.24,2.43,18.38,3.5,5.93,1.03,12,.89,17.96,1.79.77.12.73-.25.7-.73-.31-4.58-.16-9.16-.2-13.74,0-.95-.4-1.24-1.23-1.4-5.34-.98-10.68-1.99-16.01-2.99-4.78-.9-9.63-1.04-14.47-1.33-3.3-.2-6.61-.23-9.92-.37-.82-.03-1.12.21-1.07,1.07.08,1.36.02,2.72.02,4.08Zm34.37,38.73c1.23,0,2.45-.01,3.68,0,1.31.01,2.5-.36,3.63-.98.79-.44,1.44-.96,1.32-2.01-.11-1-.86-1.28-1.65-1.57-3.79-1.38-7.76-1.68-11.73-1.98-2.84-.21-5.7-.26-8.53-.7-4.96-.78-9.93-1.5-14.89-2.31-4.07-.66-8.19-.91-12.27-1.44-5.11-.66-10.1-2.07-15.21-2.78-2.42-.33-4.81-.88-7.27-.89-1.07,0-2.1.21-2.75,1.19-1.04,1.57-.33,3.22,1.64,3.9,4.21,1.45,8.62,2.02,12.94,2.98,6.27,1.39,12.62,2.35,19,3.07,3.95.44,7.91.9,11.84,1.5,6.72,1.02,13.42,2.1,20.25,2.02Zm50.21,15.18c0-1.95.03-3.9,0-5.85-.03-1.46-.29-2.89-1.08-4.15-.66-1.06-1.64-1.77-2.94-1.56-1.38.23-1.99,1.26-2.2,2.59-.35,2.26-.08,4.51-.06,6.77.06,5.89.41,11.76.7,17.64.09,1.91-.13,3.92.68,5.76.51,1.17,1.41,1.91,2.74,1.84,1.15-.06,2.08-1.13,2.2-2.56.13-1.53.33-3.09.18-4.61-.54-5.29-.2-10.58-.2-15.87Zm-16.55,15.97s0-.08.01-.12c.73,0,1.45-.02,2.18,0,.62.02,1.08-.21,1.27-.8.2-.64-.04-1.17-.58-1.54-.72-.5-1.55-.77-2.4-.91-3.44-.57-6.88-1.07-10.32-1.64-3.94-.66-7.93-.7-11.9-1.07-1.89-.18-3.8-.21-5.7-.29-.75-.03-1.38.19-1.47,1.06-.09.88.53,1.17,1.23,1.35.44.11.88.19,1.33.27,4.99.88,9.97,1.81,15.01,2.38,3.78.43,7.55.87,11.32,1.3Zm-106.56-18.36c.68,0,1.36-.01,2.04,0,.68.02,1.31-.08,1.49-.86.2-.83-.21-1.41-.94-1.76-.36-.17-.77-.27-1.16-.37-3.87-.95-7.87-1.16-11.78-1.89-2.39-.45-4.8-.95-7.26-.89-.65.02-1.18.2-1.37.88-.2.72.15,1.21.76,1.57.68.4,1.43.54,2.18.72,5.28,1.26,10.57,2.5,16.04,2.6Zm130.77,19.32s.4-.1.73-.23c2.91-1.15,5.73-2.48,8.4-4.11,1.7-1.04,3.39-2.1,4.94-3.34.54-.43.82-.99.56-1.67-.25-.65-.84-.73-1.46-.74-1.04-.01-1.93.45-2.81.91-2.4,1.26-4.8,2.54-7.18,3.84-1.51.82-3.03,1.62-4.38,2.71-.52.42-.74.89-.43,1.53.28.57.5,1.21,1.63,1.11Zm-134.19-13.07c1.2-.09,2.29.07,3.37-.2.53-.13.91-.37.97-.97.07-.65-.23-1.05-.81-1.24-.42-.14-.87-.26-1.31-.32-2.15-.28-4.3-.52-6.44-.83-1.3-.19-2.6-.38-3.91-.25-.68.07-1.36.33-1.46,1.17-.09.79.45,1.05,1.07,1.34,2.76,1.28,5.73,1.03,8.52,1.29Zm57.01-8.69c.96-.08,1.63,0,2.31-.17.79-.22,1.66-.26,1.67-1.4,0-1.09-.83-1.34-1.62-1.49-1.94-.38-3.89-.68-5.84-1.03-1.02-.18-2.04-.37-3.09-.29-.76.06-1.28.44-1.46,1.19-.15.68.24,1.04.8,1.4,2.31,1.47,4.97,1.4,7.24,1.79Zm45.57-13.68c-.78.08-1.65-.19-1.87.82-.21.99.53,1.34,1.27,1.64.29.12.6.21.9.3,2.27.64,4.6.93,6.94,1.11.94.07,1.89.2,2.83.16.69-.03,1.15-.48,1.16-1.26,0-.64-.24-1.01-.91-1.12-3.47-.55-6.94-1.11-10.33-1.66ZM55.21,31.12s-.2,0-.43,0c-.89,0-1.53.37-1.59,1.3-.06.88.6,1.11,1.34,1.21.67.09,1.33.23,2,.33,2.32.36,4.64.72,6.97,1.05.65.09,1.33.05,1.6-.68.19-.52.17-1.12-.36-1.48-.37-.25-.8-.49-1.22-.56-2.68-.42-5.34-.96-8.3-1.17Zm-37.47,5.99s0,.02,0,.04c-1.13,0-2.27-.04-3.4.02-.53.03-1.1.2-1.2.89-.09.62.34.86.8,1.11,2.32,1.27,4.83.96,7.3.82.66-.04,1.58-.49,1.42-1.51-.13-.88-.88-1.27-1.66-1.34-1.08-.1-2.17-.03-3.26-.03Zm73.75,48.16c1.97-.1,4.16-.8,6.36-1.44.58-.17,1.08-.6.93-1.3-.15-.68-.73-.9-1.35-.92-.44,0-.9.09-1.34.19-2.11.46-4.33.46-6.31,1.45-.45.22-.92.52-.81,1.12.12.62.63.85,1.21.9.31.03.63,0,1.3,0Zm50.49,6.89s0-.05,0-.07c.59,0,1.18.01,1.76,0,.55-.01.98-.26,1.1-.82.1-.53-.32-.8-.67-1.09-.39-.31-.86-.26-1.3-.24-2.13.05-4.24-.18-6.35-.39-.73-.07-1.35.12-1.49.82-.15.78.47,1.1,1.17,1.18,1.93.22,3.85.41,5.78.61Zm-75.35-1.5c.41-.05.92-.14,1.14-.67.23-.56-.08-.98-.52-1.26-1.85-1.19-4-1.34-6.08-1.7-.59-.1-.94.48-.92,1.11.03.81.61,1.19,1.27,1.43,1.62.59,3.34.75,5.12,1.1Zm-20.26-9.14c.67-.03.98-.03,1.3-.06.58-.05,1.09-.2,1.13-.91.05-.85-.57-1.1-1.22-1.17-1.61-.19-3.23-.36-4.77-.88-.64-.21-1.19-.29-1.52.35-.37.73.08,1.26.72,1.5,1.52.57,3.08,1.01,4.35,1.17Zm47.02,7.29s0,.01,0,.02c.36,0,.73,0,1.09,0,.7.01,1.37-.15,1.36-.97,0-.72-.65-.91-1.28-.93-.95-.03-1.9-.04-2.85-.04-.57,0-.98.24-.97.88.01.57.34.96.9,1.03.58.07,1.18.02,1.77.02Zm-45.8-11.96c.68.02,1.1-.12,1.22-.66.12-.54,0-1.01-.56-1.23-.71-.28-1.43-.56-2.16-.78-.45-.13-.9-.09-1.17.42-.3.56-.06,1,.36,1.3.74.52,1.6.81,2.31.95Zm21.2-41.66c.61,0,1.12-.24,1.15-.87.04-.77-.62-.93-1.21-.96-.57-.03-1.11.19-1.12.88-.01.77.51.97,1.18.95Zm4.79-.55c-.04-.66-.43-.86-.99-.85-.51,0-.88.22-.9.78-.02.61.31.9.91.9.57,0,.93-.25.98-.83Z"/><path class="cls-4" d="m.75,75.94c.61-1.27,1.12-2.65,2.95-2.44.14.02.3-.02.4.05,2.97,1.81,6.42,1.18,9.61,1.85,5.31,1.12,10.64,2.17,16.04,2.8,1.51.17,2.77.85,3.46,2.32.25.55.69.8,1.24.96,4.38,1.33,8.73,2.68,13.38,2.73,3.07.03,4.12,1.21,3.8,4.26-.2,1.95-.15,3.89-.28,5.84-.06.84.14,1.37,1.05,1.59,1,.24,1.76.94,1.9,1.93.19,1.36,1.02,1.79,2.14,1.78,2.25,0,3.84.84,4.58,3.06.34,1.01,1.22,1.29,2.16,1.34,3.49.19,6.98.1,10.48,0,.44-.01.94-.12,1.3-.35,1.48-.93,2.99-.79,4.58-.34,1.43.4,3.92-1.46,4.25-2.93.57-2.5.47-5.05.74-7.56.3-2.85,1.59-3.74,4.3-2.83,2.52.85,5.17.85,7.77,1.17,1.61.2,3.26.07,4.88.33,1.88.3,3.68-.31,5.52-.51,4.6-.49,9.12.14,13.64.73,3.18.42,6.33,1.09,9.49,1.67,1.02.19,1.96-.26,2.96-.28,2.56-.06,5.04.59,7.57.74,2.35.14,4.68.53,7.03.61,4.09.14,7.88-1.25,11.5-2.89,5.4-2.45,10.66-5.24,15.49-8.74.59-.43,1.1-.93,1.51-1.54,1.24-1.86,2.54-2.19,4.64-1.24.12.05.27.03.4.04.62,2.24-.45,3.7-2.21,4.88-.41.27-.7.71-1.08,1.03-.88.74-1.42,1.26-.36,2.53,1.08,1.29.27,3.07-.02,4.59-.67,3.51-1.13,7.04-1.2,10.6-.08,3.98-.33,7.93-1.09,11.84-.29,1.5-1.05,2.74-2.12,3.85-3.74,3.91-7.93,7.25-12.46,10.21-3.63,2.37-7.01,5.12-11.03,6.88-1.79.78-3.51,1.36-5.49.81-2.72-.76-5.56-.51-8.33-.81-3.85-.41-7.71-.76-11.58-1.04-1.71-.12-3.4-.42-5.1-.62-1.39-.16-2.79-.35-3.83-1.47-1.67-1.8-4.01-2.22-6.2-2.79-7.21-1.86-14.44-3.62-21.69-5.33-3.95-.93-8-1.26-12.01-1.83-5.76-.82-11.48-1.87-17.08-3.46-2.06-.59-4.18-.66-6.28-.89-3.72-.41-7.44-.87-11.17-1.03-4.07-.18-8.21-.42-12.23.09-2.15.27-3.81-.01-5.67-.8-1.99-.84-4.09-1.45-6.19-2.01-2.67-.72-5.11-2.04-7.74-2.89-2.27-.73-3.1-2.55-2.61-5,.57-2.82-.03-5.59-.19-8.37-.22-3.91-1.3-7.72-1.52-11.64-.14-2.43-.38-4.85-.52-7.28-.04-.7-.41-.92-.96-1.11-1.46-.5-2.22-1.61-2.56-3.06Z"/><path class="cls-4" d="m173.92,39.56c0,1.03-.75,1.5-1.49,1.93-.82.48-1.68.89-2.51,1.35-1.1.61-2.42.86-3.05,2.22-.29.63-1.2.75-1.88,1-5.08,1.84-10,4.01-14.55,6.96-.5.32-.68.48-.26.99.28.34.48.77.67,1.17.56,1.21.27,2.37-.71,2.96-.95.57-2.32.23-3.13-.78-.78-.97-.78-2.25.02-3.11.27-.29.62-.51,1.09-.89-1.15-.25-2.18-.41-3.18-.7-5.84-1.68-11.75-3.01-17.74-3.97-2.24-.36-4.51-.43-6.77-.42-.79,0-1.61,0-1.91-.93-.33-.97.33-1.55,1.02-2,1.27-.83,2.35-1.84,3.38-2.94.53-.56,1.04-1.22,1.78-1.44,1.72-.51,2.89-1.76,3.98-3,1.46-1.67,3.37-2.56,5.22-3.59.47-.26,1.04-.45,1.39-.83,1.56-1.7,3.54-2.53,5.68-3.26,1.87-.64,3.62-.63,5.47-.3,2.35.62,4.7,1.71,7.06,1.74,3.1.05,5.84,1.08,8.57,2.13,3.16,1.21,6.6,1.57,9.6,3.22,1.03.57,2.4.84,2.27,2.48Z"/><path class="cls-4" d="m54.65,19.38c.46,1.87.24,2.15-1.37,3.13-3.84,2.33-8.28,3.11-12.35,4.85-1.05.45-2.12.5-2.72,1.72-.29.58-1.08.94-1.67,1.34-1.88,1.27-3.66,2.67-5.36,4.16-.81.71-1.7.96-2.76.7-3.76-.94-7.62-.91-11.45-1.15-2.12-.13-4.25-.21-6.37-.31-.81-.04-1.49-.33-2.01-.97-.18-1.43.54-2.2,1.87-2.53.57-.14,1.17-.21,1.71-.37.92-.29,2.55.35,2.39-1.66-.04-.56.65-.83,1.18-.98.95-.28,1.91-.56,2.87-.78.83-.19,1.69-.21,1.9-1.36.08-.41.69-.53,1.14-.64,1.4-.36,2.79-.73,4.19-1.07.65-.15,1.09-.4,1.03-1.16-.06-.81.49-1.27,1.12-1.55,2.03-.9,4.09-1.68,6.37-1.65,2.81.04,5.63-.14,8.43.06,2.4.17,4.79.28,7.18.19,1.57-.06,3.13-.44,4.69.04Z"/><path class="cls-4" d="m118.94,7.69c-.78,1.1-1.72,1.5-3.16,1.43-6.31-.3-12.58-.95-18.86-1.63-3.15-.34-6.3-.6-9.46-.88-6.53-.58-13.1-.6-19.6-1.61-1.06-.16-2.18-.14-3.26-.04-1.48.15-2.85-.26-4.24-.57-.72-2.19.09-3.27,2.46-3.27,5.24,0,10.42.59,15.6,1.31,3.56.49,7.16.7,10.73,1.17,4.37.57,8.76.86,13.13,1.51,2.39.35,4.85.33,7.26.66,2.37.32,4.73.7,7.13.54,1.09-.07,1.53.89,2.27,1.38Z"/><path class="cls-4" d="m102.69,55.59c-6.82.07-13.53-1-20.25-2.02-3.93-.6-7.89-1.06-11.84-1.5-6.38-.71-12.73-1.68-19-3.07-4.32-.96-8.73-1.53-12.94-2.98-1.97-.68-2.68-2.33-1.64-3.9.65-.98,1.68-1.19,2.75-1.19,2.46,0,4.85.56,7.27.89,5.11.7,10.1,2.12,15.21,2.78,4.08.53,8.2.77,12.27,1.44,4.96.81,9.93,1.52,14.89,2.31,2.83.45,5.68.49,8.53.7,3.97.3,7.94.6,11.73,1.98.79.29,1.54.57,1.65,1.57.12,1.05-.52,1.57-1.32,2.01-1.13.62-2.32,1-3.63.98-1.23-.01-2.45,0-3.68,0Z"/><path class="cls-4" d="m152.9,70.77c0,5.29-.33,10.58.2,15.87.15,1.51-.04,3.08-.18,4.61-.12,1.43-1.05,2.5-2.2,2.56-1.32.07-2.22-.67-2.74-1.84-.81-1.84-.58-3.84-.68-5.76-.29-5.88-.64-11.75-.7-17.64-.02-2.26-.29-4.51.06-6.77.21-1.34.82-2.36,2.2-2.59,1.3-.22,2.28.49,2.94,1.56.79,1.26,1.05,2.69,1.08,4.15.04,1.95,0,3.9,0,5.85Z"/><path class="cls-4" d="m136.35,86.74c-3.77-.43-7.55-.87-11.32-1.3-5.04-.57-10.02-1.5-15.01-2.38-.45-.08-.89-.16-1.33-.27-.7-.18-1.32-.47-1.23-1.35.09-.87.72-1.09,1.47-1.06,1.9.08,3.81.11,5.7.29,3.96.38,7.96.42,11.9,1.07,3.43.57,6.88,1.08,10.32,1.64.85.14,1.68.42,2.4.91.54.37.78.9.58,1.54-.19.59-.65.82-1.27.8-.73-.02-1.45,0-2.18,0,0,.04,0,.08-.01.12Z"/><path class="cls-4" d="m29.8,68.38c-5.47-.1-10.76-1.34-16.04-2.6-.75-.18-1.5-.32-2.18-.72-.61-.36-.96-.85-.76-1.57.19-.67.72-.86,1.37-.88,2.47-.06,4.87.44,7.26.89,3.91.74,7.9.95,11.78,1.89.39.1.8.19,1.16.37.73.35,1.14.92.94,1.76-.18.78-.81.88-1.49.86-.68-.02-1.36,0-2.04,0Z"/><path class="cls-4" d="m160.56,87.7c-1.14.1-1.35-.54-1.63-1.11-.31-.64-.09-1.12.43-1.53,1.35-1.09,2.87-1.89,4.38-2.71,2.38-1.3,4.78-2.57,7.18-3.84.88-.46,1.76-.93,2.81-.91.62,0,1.21.09,1.46.74.27.68-.02,1.24-.56,1.67-1.56,1.25-3.24,2.31-4.94,3.34-2.67,1.63-5.49,2.97-8.4,4.11-.33.13-.68.22-.73.23Z"/><path class="cls-4" d="m26.37,74.63c-2.78-.26-5.75-.01-8.52-1.29-.62-.29-1.17-.55-1.07-1.34.1-.84.77-1.1,1.46-1.17,1.31-.13,2.61.06,3.91.25,2.14.31,4.3.54,6.44.83.44.06.88.17,1.31.32.58.19.88.59.81,1.24-.06.6-.44.83-.97.97-1.07.27-2.16.11-3.37.2Z"/><path class="cls-4" d="m83.38,65.94c-2.27-.4-4.93-.32-7.24-1.79-.55-.35-.95-.72-.8-1.4.17-.75.69-1.13,1.46-1.19,1.05-.08,2.06.1,3.09.29,1.95.35,3.9.64,5.84,1.03.8.16,1.62.41,1.62,1.49,0,1.13-.88,1.18-1.67,1.4-.67.18-1.35.1-2.31.17Z"/><path class="cls-4" d="m128.96,52.25c3.38.55,6.85,1.11,10.33,1.66.67.11.92.48.91,1.12-.01.78-.47,1.23-1.16,1.26-.94.04-1.89-.09-2.83-.16-2.34-.18-4.67-.47-6.94-1.11-.3-.09-.61-.18-.9-.3-.73-.3-1.48-.65-1.27-1.64.22-1.01,1.09-.73,1.87-.82Z"/><path class="cls-4" d="m55.04,31.09c2.96.22,5.62.75,8.3,1.17.43.07.86.31,1.22.56.53.36.55.96.36,1.48-.27.73-.95.77-1.6.68-2.32-.33-4.65-.69-6.97-1.05-.67-.1-1.33-.25-2-.33-.74-.1-1.39-.33-1.34-1.21.06-.93.7-1.31,1.59-1.3.23,0,.45,0,.43,0Z"/><path class="cls-4" d="m17.58,37.08c1.09,0,2.18-.08,3.26.03.77.07,1.52.46,1.66,1.34.16,1.02-.76,1.48-1.42,1.51-2.46.13-4.98.44-7.3-.82-.46-.25-.89-.49-.8-1.11.1-.69.66-.86,1.2-.89,1.13-.06,2.27-.02,3.4-.02,0-.01,0-.02,0-.04Z"/><path class="cls-4" d="m91.33,85.24c-.67,0-.99.02-1.3,0-.58-.05-1.09-.28-1.21-.9-.11-.6.36-.9.81-1.12,1.99-.99,4.2-.99,6.31-1.45.44-.1.89-.2,1.34-.19.62.01,1.21.24,1.35.92.15.71-.35,1.13-.93,1.3-2.2.64-4.4,1.35-6.36,1.44Z"/><path class="cls-4" d="m141.82,92.13c-1.93-.2-3.85-.4-5.78-.61-.69-.08-1.32-.4-1.17-1.18.14-.7.76-.9,1.49-.82,2.11.21,4.22.44,6.35.39.45-.01.92-.07,1.3.24.35.28.78.56.67,1.09-.11.56-.54.81-1.1.82-.59.01-1.18,0-1.76,0,0,.02,0,.05,0,.07Z"/><path class="cls-3" d="m66.48,90.63c-1.78-.35-3.5-.51-5.12-1.1-.66-.24-1.24-.62-1.27-1.43-.02-.63.34-1.21.92-1.11,2.08.37,4.23.51,6.08,1.7.44.29.75.7.52,1.26-.22.53-.73.62-1.14.67Z"/><path class="cls-4" d="m46.21,81.49c-1.28-.16-2.83-.6-4.35-1.17-.64-.24-1.09-.77-.72-1.5.33-.65.88-.57,1.52-.35,1.54.52,3.16.69,4.77.88.64.08,1.27.32,1.22,1.17-.04.71-.56.86-1.13.91-.32.03-.63.03-1.3.06Z"/><path class="cls-4" d="m93.23,88.78c-.59,0-1.18.05-1.77-.02-.55-.07-.88-.45-.9-1.03-.01-.64.4-.88.97-.88.95,0,1.9.02,2.85.04.64.02,1.27.21,1.28.93,0,.81-.66.98-1.36.97-.36,0-.73,0-1.09,0,0,0,0-.01,0-.02Z"/><path class="cls-4" d="m47.43,76.82c-.71-.14-1.57-.43-2.31-.95-.42-.3-.66-.74-.36-1.3.27-.5.72-.55,1.17-.42.73.22,1.45.49,2.16.78.56.22.69.69.56,1.23-.12.54-.54.68-1.22.66Z"/><path class="cls-4" d="m68.63,35.16c-.66.02-1.19-.18-1.18-.95.01-.7.54-.91,1.12-.88.59.03,1.25.19,1.21.96-.03.64-.53.88-1.15.87Z"/><path class="cls-4" d="m73.42,34.61c-.05.58-.41.83-.98.83-.59,0-.93-.29-.91-.9.02-.55.39-.77.9-.78.56-.01.96.19.99.85Z"/><path class="cls-2" d="m122.75,20.25c0,4.75.02,8.11-.01,11.47,0,.75.21,1,.99,1.25,2.14.68,3.83.26,5.59-1.14,4.27-3.41,9.14-4.03,14.5-3.29,8.44,1.17,16.64,3.12,24.65,6.01,1.71.62,3.33,1.41,4.99,2.14,3.34,1.48,4.44,4.34,4.55,7.58.15,4.16-.06,8.34-.16,12.52-.07,3,.23,5.98.29,8.97.02.79.29,1.45.89,1.9,2.11,1.6,2.91,3.72,2.83,6.33-.08,2.63.36,5.24.32,7.88-.02,1.33-.37,2.44-1.42,3.22-2.05,1.5-2.63,3.41-2.52,5.96.23,5.44-.53,10.86-.86,16.29-.12,2.04-.05,4.07-.29,6.11-.18,1.55-.69,3-.97,4.51-.05.29-.25.71-.47.78-2.1.72-3.27,2.54-4.73,3.99-4.42,4.4-8.94,8.62-14.55,11.53-1.52.79-2.87,1.9-4.26,2.91-1.44,1.04-2.91,1.56-4.79,1.41-3.52-.28-7.08-.07-10.61-.35-5.82-.46-11.68-.71-17.39-2.11-.22-.05-.45-.1-.67-.09-1.84.07-3.32-.51-4.21-2.25-.31-.62-.92-.85-1.58-.93-6.53-.8-12.92-2.34-19.3-3.89-7.84-1.91-15.89-2.78-23.74-4.62-6.53-1.52-13.1-2.86-19.72-3.89-3.41-.53-6.86-.64-10.3-.74-2.04-.06-4.07-.37-6.1-.4-1.68-.02-3.42-.04-4.93.95-.5.33-1.02.27-1.57.17-2.78-.5-5.4-1.53-8.01-2.57-4.16-1.66-8.49-2.87-12.49-4.92-.83-.43-1.26-.94-1.35-1.84-.43-4.19-.93-8.38-1.3-12.58-.52-5.96-.94-11.93-1.39-17.89-.04-.52-.22-.94-.56-1.34C.72,77.68-.02,75.83,0,73.7c.03-2.81,0-5.62.46-8.41.1-.62.31-1.11.97-1.33.92-.3,1.31-.91,1.36-1.93.21-4.94.5-9.87.75-14.81.17-3.3.35-6.61.47-9.92.07-1.9.66-3.42,2.11-4.79,3.71-3.48,7.82-6.15,12.82-7.35,1.72-.41,3.24-1.09,4.58-2.41,3.22-3.18,7.42-4.13,11.74-4.24,6.58-.16,13.16-.03,19.74-.05,2.63,0,2.63-.04,2.66-2.73.03-3.54.08-7.08.09-10.62,0-1.06.48-1.75,1.15-2.59C61.32-.49,64.4-.12,67.69.23c11.81,1.23,23.67,2.06,35.42,3.79,5.88.86,11.77,1.56,17.68,2.14,1.09.11,1.62.74,1.72,1.89.4,4.53.26,9.06.24,12.21Zm49.61,72.08c-1.79,1.37-3.34,2.69-5.03,3.79-1,.64-1.32,1.45-1.53,2.5-.84,4.25-.67,8.58-1,12.87-.2,2.58-.67,5.12-.96,7.68-.06.54-.29,1.08-.98,1.14-.66.05-.76-.44-.96-.93-.29-.72-.54-1.42-.48-2.22.18-2.35.34-4.7.48-7.06.2-3.3.7-6.58.63-9.91-.02-.9-.2-1.13-1.08-.72-1.35.62-2.74,1.18-4.21,1.5-5.92,1.29-11.92,1.77-17.97,1.68-.71-.01-1.6.12-1.72-.88-.13-1.11.94-1.02,1.59-1.3.19-.09.45-.07.67-.05,2.23.22,4.44-.04,6.65-.22,7.85-.66,14.89-3.29,21-8.36,3.25-2.69,6.58-5.27,10.11-7.6,1.59-1.05,1.88-2.03,1.34-4.06-.2.12-.4.22-.57.35-4.11,3.3-8.54,6.14-12.9,9.07-5.53,3.71-11.6,5.97-18.4,5.6-3.57-.2-7.18-.32-10.7-.9-7.03-1.14-14.08-2.08-21.16-2.74-3.36-.31-6.73-.87-10.14.04-1.59.42-3.31.39-5,.24-4.38-.39-8.71-1.19-13.11-1.44-1.17-.07-1.92.03-1.8,1.49.08.99-.05,1.99-.14,2.99-.07.89.29,1.22,1.18,1.18.63-.03,1.56-.2,1.49.85-.06,1-.97.72-1.61.77-.23.02-.45.02-.68,0-.63-.04-.97.29-.96.88.03,2.32-.91,3.91-3.27,4.49-.21.05-.4.21-.59.34-.69.51-1.42.61-2.14.11-.53-.36-1.02-.41-1.45.08-.6.7-1.44.82-2.22.86-3.26.15-6.53.34-9.79.25-1.99-.05-4.14-.43-5.08-2.53-.47-1.04-1.09-1.29-2.02-1.37-.41-.03-.81-.06-1.22-.12-2.24-.31-2.45-.48-2.82-2.73-.12-.73-.4-.97-1.12-.98-1.2-.01-1.8-.65-1.82-1.89-.04-2.49-.15-4.99-.18-7.48-.03-2.22,0-2.22-2.12-2.43-.32-.03-.63-.08-.94-.14-3.6-.68-7.15-1.64-10.8-2.11-1.73-.23-3.28-1.11-4.44-2.46-.64-.75-1.38-1.1-2.29-1.31-4.56-1.02-9.16-1.73-13.82-2.18-4.56-.45-9.02-1.53-13.49-2.49-.38-.08-.93-.53-.92.37.02,1.72,1.33,3.34,2.99,3.87,7.96,2.55,16.1,4.29,24.37,5.46.49.07.97.23,1.42.42.4.17.66.52.54.98-.13.51-.51.74-1.03.67-.54-.07-1.07-.2-1.6-.28-5.24-.82-10.47-1.69-15.6-3.05-3.7-.99-3.7-1.13-3.74,2.76-.04,4.22-.03,8.44,0,12.66.01,1.3-.9,1.64-1.8,1.78-.97.15-.9-.8-1.03-1.44-.07-.35-.09-.72-.12-1.08-.31-4.94-.27-9.89-.27-14.83,0-.5.02-1-.04-1.5-.08-.75-.74-.74-1.24-.77-.71-.04-.41.58-.4.9.02.72.17,1.44.24,2.16.75,8.71,1.48,17.43,2.43,26.12.13,1.21.63,1.88,1.68,2.36,3.17,1.46,6.54,2.38,9.78,3.67,2.65,1.05,5.33,2.03,8.11,2.7.5.12,1.04.4,1.45-.25.97-1.55,2.53-2.09,4.21-2.45,4.68-1.03,9.43-1.32,14.19-1.38,7.54-.1,15.01.95,22.48,1.88,12.23,1.51,24.2,4.05,35.67,8.73,4.48,1.83,8.7,3.88,11.43,8.09.56.86,1.14,1.42,2.29,1.13.49-.12,1.07.12,1.6.23,3.43.64,6.87,1.18,10.35,1.54,5.83.59,11.67.83,17.51,1.01.86.03,1.6-.17,2.3-.66,1.87-1.28,3.67-2.69,5.65-3.78,4.05-2.22,7.68-4.96,11.03-8.12,1.59-1.5,2.72-3.23,3.53-5.24.81-2.01.9-4.15,1.26-6.24.09-.54.22-1.01.86-1,.75.01.83.57.83,1.15,0,1.32,0,2.63.02,3.95,0,.27-.17.66.33.8,1.24-.94,1.43-2.41,1.53-3.76.53-7.19,1.19-14.37,1.43-21.57.04-1.16,0-2.32,0-3.48-.5,1.14-.75,2.29-.89,3.44-.55,4.45-1.07,8.91-1.59,13.36-.11.93-.42,1.56-1.52,1.45-1.03-.1-1.22-.74-1.2-1.62.03-2,.51-3.95.68-5.94.2-2.37.47-4.73.37-7.33Zm-30.12-4.77c2.36.16,4.84-.06,7.33-.25,3.45-.25,6.78-1.14,9.61-3.08,5.76-3.95,12.14-6.9,17.62-11.29,2.34-1.88,2.43-1.72.39-3.92-.44-.48-.69-.52-1.22-.16-.89.61-1.85,1.13-2.8,1.66-.49.27-1.1.46-1.46-.12-.42-.7.17-1.07.68-1.38.96-.59,1.92-1.2,2.92-1.73.86-.46,1.05-1.19.98-2.06-.45-5.53-.14-11.06-.08-16.59,0-.69.55-1.65-.07-2.01-.56-.33-1.27.47-1.89.81-8.14,4.46-15.81,9.77-24.39,13.44-1.63.7-2.41,2.02-2.39,3.9.04,2.72-.03,5.45-.48,8.14-.11.63-.34,1.42-1.25,1.36-1-.07-.86-.88-.86-1.55-.03-2.63.12-5.26-.31-7.88-.3-1.86-1.36-3.05-3.19-3.43-8.2-1.69-16.27-4-24.67-4.7-1.68-.14-2.81.09-3.83,1.48-1.15,1.57-2.49,3.01-4.35,3.81-4.57,1.97-9.34,2.45-14.23,1.74-6.72-.97-13.45-1.92-20.14-3.08-9.91-1.72-19.83-3.32-29.76-4.94-6.65-1.08-11.47-4.68-14.66-10.51-.79-1.44-1.93-1.93-3.43-1.94-2.45,0-4.88-.3-7.32-.5-2.43-.21-4.88-.65-7.32-.12-1.96.42-2.87,1.11-2.8,3.29.07,2.26-.14,4.53-.23,6.79-.03.69-.32,1.11-1.07,1.12-.77.01-.86-.57-.93-1.11-.05-.44.02-.9.05-1.35.17-2.44.34-4.89-.24-7.31-.09-.37-.11-.92-.67-.87-.52.05-.34.56-.35.89-.29,6.16-.55,12.32-.87,18.47-.05.97.23,1.43,1.15,1.8,3.77,1.49,7.74,2.24,11.67,3.13,4.42,1,8.96,1.34,13.43,2.06,4.05.65,8.15.95,12.28-.04,2.9-.69,6.02-.9,8.9-.03,3.32,1,6.73,1.36,10.08,2.09,6.86,1.51,13.86,2.28,20.78,3.46.98.17,1.75.94,2.83.76,3.91-.68,7.67.15,11.38,1.26,1.47.44,3.14.83,4.07,2.03.87,1.13,1.04,2.68,2.83,3.17.49.13,1.15.85,1.87,1.03,5.33,1.31,10.72,2.23,16.18,2.87,6.67.78,13.32,1.59,20.2,1.41Zm-41.06-26.6c1,0,1.64.04,2.27,0,2.63-.2,5.25-.37,7.12-2.69,1.65-2.04,3.38-4.01,5.11-5.99.31-.36.34-.7.31-1.12-.1-1.34-1.22-1.03-1.96-1.12-3.87-.47-7.75-.8-11.62-1.28-6.7-.82-13.39-1.72-20.09-2.58-5.39-.7-10.82-1.03-16.21-1.85-4.17-.63-8.28-1.56-12.48-1.98-4.78-.48-9.55-1.02-14.32-1.59-2.25-.27-4.48-.7-6.72-1.03-.49-.07-1.4-.28-1.23.5.34,1.55-.05,3.24.75,4.65,2.04,3.57,4.79,6.38,8.88,7.54,1.43.41,2.92.65,4.39.9,6.7,1.13,13.5,1.55,20.21,2.68,7.01,1.18,14.09,2,21.12,3.06,4.93.74,9.83,1.71,14.46,1.89Zm-32.01-44.66s-.04,0-.05,0c0,.59,0,1.18,0,1.77-.02,2.12-.01,2.18,2.07,1.91,1.36-.17,2.21.21,2.8,1.51.51,1.13.97,2.25,1.08,3.48.08.92.47,1.36,1.41,1.48,3.51.44,7,.92,10.5,1.4,7.4,1.02,14.81,2.03,22.21,3.07.92.13,1.18-.18,1.14-1.07-.15-3.17-.22-6.34-.37-9.51-.1-2.24-.5-2.65-2.66-3-5.32-.87-10.64-1.75-15.96-2.6-6.84-1.1-13.72-1.89-20.64-2.33-1.14-.07-1.7.18-1.54,1.45.1.8.02,1.63.02,2.45Zm47.32,7.21c0-3.99-.02-7.98.02-11.98,0-.94-.29-1.24-1.25-1.25-6.76-.1-13.47-1.01-20.19-1.54-7.82-.62-15.64-1.12-23.46-1.74-3.39-.27-6.77-.6-10.15-1-1.87-.22-1.9-.18-1.93,1.67-.09,6.82-.1,13.65-.42,20.47-.02.35.04.7.47.65,1.01-.11,1.83.48,2.74.69,1,.23,1.42.14,1.48-1.07.2-4.03.44-8.06.36-12.1-.04-2.12.53-3.71,2.36-4.97,1.05-.72,2.03-.56,3.09-.57,5.59-.05,11.12.73,16.66,1.35,5.45.61,10.84,1.65,16.24,2.62,2.36.42,4.78.51,7.08,1.27.79.26,1.57.61,1.73,1.54.16.89.28,1.79.31,2.69.15,4.97.82,9.94.35,14.93-.05.57.19.69.68.75,1.08.13,2.16.28,3.22.49.84.16,1.01-.17.96-.93-.27-3.99-.06-7.98-.36-11.97Zm22.13,6.56c-1.39-.03-2.33.1-3.26.48-1.89.78-3.8,1.62-5.35,2.93-1.93,1.63-3.89,2.09-6.21,1.19-.7-.27-1.04-.19-1.08.71-.04.95-.53,2.11-1.35,2.28-2.29.47-4.16,1.72-6.15,2.75-4.45,2.3-8.95,4.01-14.16,3.11-6.11-1.06-12.33-1.45-18.41-2.77-2.74-.59-5.33-1.73-8.18-1.94-4.2-.3-8.4-.65-12.57-1.31-3.62-.58-7.21-1.34-10.91-1.42-1.51-.03-3.02-.57-4.43-1.22-1.56-.72-1.89-1.69-.95-3.16.93-1.46,2.13-2.71,3.52-3.75.82-.61,1.71-.84,2.69-.52,1.51.5,3.1.65,4.63,1.03.85.21,1.04-.04,1.01-.83-.06-1.81-.11-3.63-.08-5.44.02-1.06-.33-1.16-1.17-.71-7.15,3.91-14.5,7.48-21.34,11.95-.88.58-1.66,1.26-2.3,2.1-.76.99-.66,1.32.54,1.45,3.24.37,6.48.83,9.74,1.01,5.4.3,10.75.93,16.06,1.92,8.34,1.55,16.71,2.88,25.12,3.91,6.03.74,12.07,1.38,18.09,2.17,4.31.57,8.59,1.38,12.97,1.37.54,0,1.02.01,1.48-.46.85-.88,1.79-1.67,2.72-2.46,5.5-4.65,10.85-9.51,17.16-13.1.61-.35,1.21-.71,2.16-1.26Zm40.61,43.22c-.88.61-1.48,1-2.05,1.43-2.45,1.87-4.9,3.74-7.6,5.25-2.81,1.57-5.54,3.26-8.19,5.1-2.25,1.56-4.73,2.66-7.38,3.35-3.5.91-7.1,1.01-10.66,1.03-6.89.03-13.75-.47-20.6-1.35-6.21-.8-12.37-1.73-18.43-3.29-1.3-.33-1.47-.23-1.44,1.1.01.52.1.87.72.9.72.04,1.64.01,1.56,1.04-.08,1.06-.99.67-1.61.61-.87-.08-.61.56-.69.99-.13.62.24.68.71.63.32-.03.65-.01.95-.1,3.2-.96,6.45-.65,9.7-.41,9.58.71,19.03,2.54,28.59,3.47,6.23.61,12.16.19,17.69-2.77,6.49-3.47,12.41-7.82,18.27-12.24.32-.24.48-.51.48-.91-.01-1.17,0-2.34,0-3.83ZM1.82,67.96c0,1.15.05,2.13-.01,3.12-.06.94.37,1.47,1.23,1.65,5,1.09,10.01,2.18,15.12,2.59,4.53.36,8.98,1.17,13.39,2.26.77.19,1.4.61,1.9,1.24.99,1.28,2.34,2.04,3.91,2.27,3.37.48,6.67,1.32,10,1.95,3.42.64,3,.6,3.36-2.57.12-1-.16-1.48-1.14-1.53-4.26-.22-6.98-2.69-8.99-6.17-.34-.6-.75-.81-1.4-.82-2.04-.05-4.11.06-6.11-.24-7.38-1.1-14.82-1.89-22.06-3.86-2.58-.7-5.04-1.75-7.61-2.47-.49-.14-.98-.18-1.18.31-.28.66.43.68.78.86,1.54.78,3.17,1.32,4.83,1.79.51.15.95.46.81,1.07-.14.63-.68.66-1.2.57-.36-.06-.7-.19-1.05-.27-1.53-.37-2.94-1.11-4.57-1.76Zm125.99-28.13c2.29.26,4.27.37,6.21.71,6.43,1.15,12.78,2.59,18.54,5.88,1.43.82,2.75,1.76,3.69,3.14.32.47.58.67,1.19.34,2.36-1.26,4.76-2.42,7.12-3.67,2.99-1.58,3.01-2.09.08-3.94-2.7-1.7-5.72-2.69-8.7-3.76-6.41-2.29-13.16-2.83-19.82-3.8-1.15-.17-2.14.09-3.03.81-1.69,1.37-3.38,2.73-5.29,4.26Zm-14.53-2.03c-1.29-.19-2.63-.38-3.96-.6-6.67-1.09-13.43-1.38-20.13-2.16-9.59-1.11-19.18-2.14-28.66-4-2.77-.54-5.55-.75-8.37-.59-1.07.06-2.04.29-2.83,1.1-.48.48-.84.99-.71,1.67.14.68.84.59,1.32.75,2.14.72,4.41.33,6.6.72,3.88.7,7.77,1.41,11.7,1.74,9.31.79,18.56,1.87,27.68,4.01,6.08,1.43,12.06,1.62,17.37-2.65Zm-1.57,93.13c-7.35-8.55-67.12-18.87-77.65-13.43,1.45.11,2.79.26,4.13.31,4.58.17,9.16.26,13.68,1.03,6.97,1.18,13.84,2.86,20.78,4.17,10.64,2.01,21.27,4.03,31.79,6.61,2.35.58,4.73,1.03,7.27,1.31Zm7.15-83.64c1.39.23,2.5.39,3.6.6,5.43,1.02,10.97,1.33,16.4,2.43,3.19.65,6.24,1.88,9.49,2.34,2.03.29,3.93.14,5.79-.86.98-.52.87-.94.27-1.61-.73-.83-1.58-1.51-2.55-2.02-7.77-4.12-16.12-6.12-24.86-6.55-.74-.04-1.53.02-2.08.48-1.99,1.63-3.91,3.33-6.06,5.18Zm-39.17,48.69s.02,0,.03,0c0-1.18.02-2.36,0-3.54-.05-2.92.45-2.16-2.34-2.91-.94-.25-1.43-.17-1.49,1.04-.05,1.14-.04,2.47-.96,3.32-.95.88-1.95-.19-2.95-.25-3.95-.23-7.69-1.66-11.63-2.03-1.83-.17-2.41-1.07-2.43-2.95,0-.5,0-1-.01-1.5-.01-1.65-1.2-.85-1.96-.94-1-.12-.88.49-.88,1.19.02,3.24.78,6.45.45,9.71-.11,1.08.3,1.72,1.51,1.72.72,0,1.44.15,2.16.24.75.09,1.54.32,1.76,1.08.69,2.44,2.64,2.61,4.63,2.66,2.4.06,4.81.05,7.21,0,1.02-.03,2.11.04,2.97-.69.93-.78,1.99-.9,3.05-.42.73.33.87.1.87-.56,0-1.72,0-3.45,0-5.17Zm64.49-38.33c2.27-.05,4.08-.21,5.87-.47,1.95-.28,3.47-1.5,5.15-2.37.5-.26.67-.85.41-1.3-.31-.54-.76-.01-1.04.15-2.57,1.49-5.25,1.07-7.95.57-3.16-.58-6.16-1.83-9.34-2.33-5.5-.87-11.01-1.67-16.51-2.57-3.11-.51-3.06-.58-2.88,2.5.05.9.4,1.29,1.21,1.48,1.23.3,2.45.67,3.67.99,7.17,1.87,14.48,2.88,21.41,3.35Zm-6.71-24.77c.03.11.06.22.08.33,1.88.25,3.76.54,5.64.74,7.23.77,14.16,2.6,20.71,5.78,1.73.84,3.35,1.84,4.44,3.49.35.54.65.44,1.1.17,1.06-.63,2.07-1.33,2.92-2.22.6-.63,2.03-.81,1.83-1.68-.18-.8-1.46-1.11-2.33-1.48-9.2-4.03-18.81-6.52-28.78-7.61-.35-.04-.76-.04-1.06.11-1.53.76-3.04,1.57-4.55,2.37Zm-100.3-3.18c-8-1.61-15.66-1.66-23.28.36-1.51.4-3.12.64-4.31,1.83-.3.3-.9.49-.76.99.13.43.71.33,1.09.38,5.92.83,11.88,1.22,17.85,1.54,1.96.1,3.4-.15,4.68-1.8,1.11-1.41,2.97-2.01,4.72-3.31ZM60.11,4.06c3.4.34,6.64.74,9.88.99,7.05.53,14.11.93,21.16,1.47,8.54.66,17.04,1.75,25.6,2.21.92.05,1.49-.27,2.12-1.05-.44-.04-.7-.06-.96-.09-3.96-.43-7.94-.8-11.89-1.32-7.01-.92-14.02-1.88-21.06-2.55-6.63-.63-13.28-1.11-19.9-1.85-2.11-.23-3.57.41-4.96,2.2Zm9.39,26.43c.54.46,1.01.44,1.46.49,4,.49,8.01.94,12.01,1.48,8.85,1.21,17.78,1.61,26.6,3.02.31.05.69.19.7-.32.03-.77.18-1.6-.05-2.29-.21-.63-1.05-.17-1.58-.33-.13-.04-.27-.05-.4-.07-3.86-.51-7.71-1.09-11.58-1.51-6.76-.74-13.51-1.55-20.2-2.73-2.97-.52-4.69,1.13-6.95,2.25Zm-44.34,9.97c1.09,0,2.18.01,3.26,0,.38,0,.8.05.98-.49,1.08-3.15.81-3.49-2.54-3.58-6.38-.18-12.76-.43-19.05-1.64-.34-.07-.75-.29-.99.11-.52.89-.29,1.83-.15,2.77.12.81.65.98,1.33,1.08,5.69.84,11.37,1.76,17.14,1.77Zm73.04,39.13c-2.98-1.7-6.11-1.68-9.23-1.68-.4,0-.57.41-.79.69-1.33,1.66-2.12,3.54-2.42,5.66-.11.82.08,1.14.95,1.17,2.18.06,4.34-.19,6.5-.38,2.21-.2,4.41-.55,6.4-1.61.37-.2,1.35-.11.95-.93-.3-.6-.27-1.79-1.7-1.27-1.34.48-2.8.74-4.27.7-.63-.02-1.57.24-1.61-.75-.04-.95.83-.84,1.52-.89,1.2-.09,2.4-.24,3.7-.7ZM47.55,23.98c-5.83-1.64-24.64.5-27.57,3.1,6.4-.57,12.75-.45,19.02,1.14.32.08.63.14.93-.02,2.52-1.39,5.04-2.79,7.62-4.22Zm53.62,60.75c-1.1.42-2.16.92-3.28,1.23-3.74,1.04-7.59,1.18-11.44,1.21-.93,0-1.49.53-1.12,1.1.32.49.89.4,1.37.4,3.37-.04,6.67.55,9.98,1.03,1.16.17,2.34.29,3.51.38.87.07.93-.62.89-1.2-.05-.75-.58-.31-.92-.27-.63.08-1.25.2-1.88.28-.57.08-1.15.05-1.31-.63-.17-.72.41-.94.95-1.07.53-.12,1.08-.15,1.61-.24q1.8-.33,1.64-2.22ZM54.79,20.31c-1.25,0-2.09,0-2.94,0-5.84.03-11.68,0-17.52.11-2.15.04-4.21.68-6.14,1.69,1.28,0,2.54-.08,3.8-.19,6.1-.49,12.2-.64,18.28.35.42.07.79.04,1.17-.17.98-.55,1.99-1.06,3.36-1.79Zm-11.6,53.13c1.46,2.16,3.26,3.35,5.66,3.61.61.07.98-.08.98-.75,0-1.43.72-2.47,1.69-3.43.32-.32,1-.49.8-1.11-.22-.68-.92-.65-1.48-.76-2.3-.45-4.6-.09-6.9.04-.21.01-.45.06-.47.4.66.4,1.39.6,2.16.64.49.03.92.17.93.76,0,.63-.42.83-.97.91-.74.11-1.41-.25-2.4-.31Zm24.28-60.39c-1.28.54-1.57,1.39-1.59,2.56-.09,4.56.18,9.13-.43,13.68-.17,1.24,1.09.76,1.7.99.56.21.52-.25.48-.64-.44-4.1-.03-8.21-.16-12.32-.04-1.38,0-2.77,0-4.27Zm53.37,6.66c-.9.73-2.33.67-2.39,1.92-.11,2.53,0,5.07.03,7.6,0,.24-.07.56.35.58.57.02,1.99-1.14,2-1.7.01-2.71,0-5.43,0-8.4Zm.28-6.01c.1-1.29-.18-2.71-.27-4.15-.01-.24.1-.58-.33-.61-.42-.04-2.34,1.58-2.34,2.05,0,1.9.02,3.79.08,5.69,0,.31-.02.76.59.66,1.42-.22,2.27-1.18,2.27-2.65,0-.27,0-.54,0-.98Zm-51.99,69.23c-.12,2.96.01,3.13,2.26,3.43.6.08.82-.02.85-.62.06-1.17.02-2.38.29-3.5.32-1.32-.3-1.54-1.35-1.64-1.96-.19-1.95-.21-2.02,1.79,0,.18-.02.36-.03.54Zm.04-57.3q0,2.96,2.41,1.71c.24-.12.48-.26.71-.38,1.09-.58,1.28-1.67.59-3.3-.49-1.16-1.33-.72-2.16-.55-1.63.32-1.71,1.47-1.56,2.53Zm-6.26,56.36q.07-2.44-2.32-2.52s-.09,0-.13-.01c-.51-.07-.75.16-.8.66-.11,1.17-.24,2.33-.36,3.49-.03.32-.08.57.37.72,2.43.81,3.16.33,3.25-2.21,0-.05,0-.09,0-.14Zm20.35-2.61c-.97,1.08-1.93,1.79-2.04,2.86-.17,1.65-.19,3.33.08,4.99.04.27,0,.79.49.55.65-.31,1.49-.46,1.48-1.51-.03-2.16,0-4.32,0-6.9Zm-15.79,3.48s.02,0,.04,0c0-.45-.06-.91.01-1.35.16-.9-.09-1.26-1.07-1.34-1.77-.14-1.77-.22-1.88,1.56-.04.72.04,1.45-.06,2.17-.09.74.16,1.01.87,1.18,2.09.49,2.09.52,2.09-1.54,0-.23,0-.45,0-.68Zm99.97-35.86c-3.11,1.71-6.39,2.97-9.41,4.73-.12.07-.24.14-.33.23-.43.41-.39.99-.15,1.36.24.36.64-.06.93-.22,2.42-1.31,4.84-2.62,7.24-3.95.86-.47,1.24-1.34,1.72-2.16Zm-109.37,32.93c.28-.86-.6-.86-1.37-.95-.87-.1-1.51.05-1.46,1.17.04.9-.01,1.8-.07,2.7-.1,1.63-.04,1.67,1.53,1.49.59-.07.76-.37.83-.86.16-1.07.33-2.13.54-3.56Zm15.93,4.48c0,.78-.03,1.42,0,2.05.06.94.93.71,1.46.88.66.21.54-.44.58-.78.17-1.43.25-2.88.46-4.31.16-1.07-.55-1.03-1.22-1.15-.75-.14-1.05.12-1.06.91-.01.85-.16,1.7-.24,2.41Zm-20.63-5.07c-1.09,4.96-.88,9.94-.79,14.92,0,.18.02.37.07.54.08.24.27.34.52.34.32,0,.53-.14.53-.47,0-.45,0-.91-.02-1.36-.18-4.34-.59-8.68-.28-13.03.02-.31-.03-.62-.04-.93Zm13.43-.93c1.4.36,1.64-1.02,2.38-1.62.52-.43,1.39-1.05,1.16-1.65-.23-.61-1.3-.28-1.97-.53-.43-.16-.75.02-1.01.43-.41.64-.91,1.23-1.33,1.87-.25.39-.92.7-.61,1.21.26.44.92.19,1.38.29Zm-6.83-1.36c.12.17.24.33.35.5.95.1,2.03.76,2.83.09.91-.76,1.53-1.88,2.27-2.85.18-.23.3-.59-.05-.65-.7-.11-1.41-.63-2.15.07-1.05.99-2.17,1.9-3.26,2.84Zm9.99,1.64c1.07.17,2.13.66,2.86.04.97-.81,1.67-1.96,2.5-2.98-3.06-.78-2.31-.86-5.36,2.94Zm105.9-36.23c-.21-.43-.2-1.25-1.04-.7-1.8,1.2-3.34,2.76-5.26,3.8-.44.24-.32.78-.16,1.11.24.5.61.09.88-.06,1.73-.98,3.43-2.01,4.93-3.32.26-.23.6-.41.65-.82Zm-93.06,47.01c-1.14.2-1.55.87-1.4,2.14.15,1.29.01,2.61.05,3.92.01.42-.27,1.12.57,1.08.59-.03.8-.45.79-1.04-.02-2.02,0-4.04,0-6.11Zm-3.26-4.13h.05c-.08-.99-.16-1.98-.23-2.97-.03-.41-.21-.69-.66-.7-.55-.01-.51.42-.54.76-.13,1.53-.18,3.07-.39,4.59-.15,1.08.56,1.1,1.21,1.16.89.07.5-.66.54-1.07.06-.58.01-1.17.01-1.76Zm-27.73-8.32c.63-1.21,1.45-2.15,2.72-2.08,1.52.08,2.09-.94,2.83-1.9-2.66-1.1-5.8,1.07-5.55,3.98Zm69.05-43.27c-.07-2.58-.14-2.63-1.79-1.77-.44.23-.58.48-.54.94.07.76.15,1.53.14,2.29,0,.89.26.88,1.05.62,1.27-.42,1.34-1.24,1.13-2.07Zm-41.52,42.6c-1.16-.61-2.06-.49-2.76.65-.28.46-.76.79-1.05,1.23-.21.32-.98.66-.44,1.03.53.36,1.57.65,1.97.07.71-1.03,1.63-1.91,2.29-2.99Zm-17.77-2.7c-1.87-.33-4.01,1.29-5.06,3.68,2.6-.12,3.22-2.54,5.06-3.68Zm21.47,3.12c-2.62-.36-2.93,1.96-4.56,3.23.98-.09,1.53.61,2.1-.12.77-.99,1.55-1.96,2.46-3.11Zm-.37,22.12c-1.18-.02-1.3.62-1.22,1.41.02.23.06.53.34.45.94-.26.65-1.11.88-1.86Z"/><path class="cls-2" d="m121.79,101.33c-2.79-.6-5.65-1.24-8.52-1.84-.97-.2-1.96-.3-2.95-.43-.59-.08-1.13-.27-1.08-.96.05-.8.71-.84,1.32-.78,2.88.29,5.7.95,8.5,1.67.96.25,1.93.44,2.91.63.67.13,1.68-.16,1.63.91-.05,1.11-1.09.6-1.81.8Z"/><path class="cls-2" d="m96.23,98.76c-.82-.08-1.81-.16-2.8-.27-.63-.07-1.21-.33-1.1-1.08.11-.72.71-.67,1.28-.61,1.12.13,2.24.23,3.36.32.59.05,1.28,0,1.26.85-.02.84-.71.79-1.3.79-.18,0-.36,0-.71,0Z"/><path class="cls-2" d="m34.07,85.12c.85.12,1.74.24,2.64.37.5.07.86.32.85.88-.01.61-.45.76-.94.73-1.22-.08-2.43-.21-3.65-.33-.44-.04-.62-.34-.63-.75,0-.41.18-.72.59-.8.35-.07.72-.07,1.14-.1Z"/><path class="cls-2" d="m133.09,102.3c-.5,0-.59.02-.68,0-.74-.18-1.93,0-1.81-1.11.12-1.1,1.16-.65,1.88-.54.09.01.18.01.27.02.59.05,1.44-.21,1.44.76,0,.97-.83.88-1.11.88Z"/><path class="cls-2" d="m47.13,88.98c.71.29,1.93-.06,2.13,1.26.09.56-.37.93-.85.75-.83-.31-2.06-.02-2.36-1.22-.17-.66.42-.8,1.08-.8Z"/><path class="cls-2" d="m172.52,111.51c-.83-.09-1.11-.67-1.17-1.32-.08-.82.41-1.26,1.22-1.29.69-.02,1.12.35,1.15,1.05.03.84-.46,1.32-1.19,1.56Z"/><path class="cls-2" d="m39.74,86.3c.57.01,1.16.09,1.22.78.06.73-.5.87-1.09.85-.58-.02-1.14-.14-1.15-.85-.01-.64.46-.81,1.02-.78Z"/><path class="cls-2" d="m163.63,123.08c-.16.54-.19,1.22-.94,1.31-.63.07-.92-.36-.86-.93.06-.58.17-1.22.96-1.26.56-.02.79.35.84.88Z"/><path class="cls-2" d="m9,103.27c-.02.59-.1,1.1-.81,1.02-.69-.08-.81-.64-.82-1.2-.01-.57.23-1.01.85-.97.74.05.72.67.77,1.16Z"/><path class="cls-2" d="m127.18,100.15c.58.02,1.11.16,1.12.88,0,.56-.37.78-.9.76-.59-.02-1.11-.18-1.12-.88,0-.56.37-.78.9-.76Z"/><path class="cls-2" d="m8.98,105.72c-.03.43-.1.95-.79.92-.56-.03-.77-.47-.76-.94,0-.53.23-1.01.86-1.01.59,0,.71.44.7,1.04Z"/><path class="cls-2" d="m106.31,96.81c.49.06.93.18.93.77,0,.59-.45.76-.91.76-.46,0-.91-.17-.91-.76,0-.6.45-.7.89-.77Z"/><path class="cls-2" d="m163.15,125.86c-.03.42-.26.69-.75.67-.43-.02-.64-.28-.65-.69-.01-.5.28-.74.75-.73.41.01.64.26.65.75Z"/><path class="cls-2" d="m174.38,56.97c0,1.54.02,3.08,0,4.63,0,.6-.11,1.25-.91,1.27-.82.02-.93-.65-.95-1.24-.11-3.31.12-6.62-.2-9.93-.04-.45.06-.94.63-1.06.54-.11.82.21,1.05.66.25.51.32,1.03.32,1.58,0,1.36,0,2.72,0,4.08.02,0,.05,0,.07,0Z"/><path class="cls-2" d="m169.63,71.31c.58.02.85.3.82.78-.06.84-.69,1.14-1.39,1.24-.45.07-.8-.24-.75-.75.09-.8.72-1.07,1.32-1.27Z"/><path class="cls-2" d="m146.52,78.98c-.04.61-.15,1.24-.93,1.21-.61-.03-.76-.53-.72-1.08.05-.59.07-1.25.87-1.27.77-.02.76.59.78,1.14Z"/><path class="cls-2" d="m173.93,66.37c-.58.01-.96-.19-.99-.74-.03-.62.33-1.04.93-1.1.54-.05.81.37.84.85.03.55-.24.94-.79.99Z"/><path class="cls-2" d="m7.36,60.15c-.61,0-.86-.31-.88-.84-.01-.56.18-1.01.81-1.04.54-.02.82.32.84.85.03.58-.2.96-.78,1.03Z"/><path class="cls-2" d="m8.49,56.19c-.02.46-.21.81-.7.85-.49.04-.76-.26-.76-.74,0-.48.26-.77.75-.78.44-.01.64.28.71.68Z"/><path class="cls-2" d="m145.63,83.13c.37.02.61.23.64.58.05.42-.17.7-.61.72-.37.01-.62-.21-.66-.55-.05-.43.23-.66.63-.74Z"/><path class="cls-2" d="m38.6,75.82c-.7,1.12.26,1.45,1.09,1.86.5.25,1.04.56.68,1.23-.36.68-.96.57-1.53.28-.66-.34-1.29-.89-1.92.09-.16.25-.59.22-.87,0-.28-.21-.45-.55-.3-.84.68-1.32-.42-1.51-1.18-1.9-.31-.16-.7-.17-1.05-.26-.47-.12-.9-.33-.78-.92.11-.52.54-.76,1.02-.71.53.05,1.07.2,1.57.37.72.25,1.45,1.08,2.01-.25.12-.29.55-.24.85-.04.35.23.44.55.39,1.06Z"/><path class="cls-2" d="m11.64,70.08c-.09.52-.44.74-.94.73-.48,0-.76-.28-.73-.75.03-.55.4-.76.91-.73.46.02.74.26.76.75Z"/><path class="cls-2" d="m14.14,70.34c-.05.53-.34.72-.81.69-.43-.02-.65-.3-.66-.69-.01-.46.25-.74.74-.73.49.01.71.28.73.73Z"/><path class="cls-2" d="m59.87,95.65c3.31.38,6.36.75,9.41,1.09,1.35.15,2.7.25,4.05.38.75.07,1.22.47,1.05,1.25-.17.8-.76.61-1.39.53-3.4-.45-6.81-.82-10.22-1.21-.94-.11-1.89-.19-2.82-.35-.51-.09-.96-.37-.84-1.02.1-.56.56-.64.77-.66Z"/><path class="cls-2" d="m63.34,93.7c2.02.17,4.05.34,6.07.53.45.04.91.13,1.31.32.43.19.71.58.55,1.11-.15.47-.55.56-.98.51-2.38-.27-4.75-.53-7.13-.8-.6-.07-1.27-.15-1.18-.97.09-.78.75-.77,1.36-.69Z"/><path class="cls-2" d="m69.56,101c-2.07-.23-4.05-.42-6.03-.68-.56-.07-1.28-.25-1.14-1.06.14-.8.78-.68,1.4-.6,1.93.25,3.86.47,5.8.67.65.07,1.54-.2,1.47.87-.07.99-.96.73-1.51.8Z"/><path class="cls-2" d="m91.73,81.55c-.03.69-.37.89-.9.89-.57,0-1-.17-.98-.83.01-.56.38-.78.89-.8.59-.02.94.24.98.74Z"/><path class="cls-2" d="m47.8,72.5c.52.12.91.37.91.98,0,.49-.27.77-.75.76-.59-.01-.9-.37-.91-.95,0-.48.27-.74.75-.79Z"/></svg>