<?xml version="1.0" encoding="UTF-8"?><svg id="Layer_1" xmlns="http://www.w3.org/2000/svg" viewBox="0 0 166.54 69.14"><defs><style>.cls-1{stroke:#182a42;stroke-miterlimit:10;stroke-width:1.5px;}.cls-1,.cls-2{fill:#182a42;}.cls-2,.cls-3,.cls-4,.cls-5,.cls-6,.cls-7,.cls-8{stroke-width:0px;}.cls-3{fill:#dd8b6b;}.cls-4{fill:#854430;}.cls-5{fill:#93a2c9;}.cls-6{fill:#fff;}.cls-7{fill:#ffeadc;}.cls-8{fill:#ffe9da;}</style></defs><path class="cls-7" d="m99.92,58.71c-2.39,2.75-5.84,3.07-9.06,3.8-5.78,1.31-11.33.35-16.79-1.83-4.57-1.83-8.94-4.18-13.72-5.52-1.96-.55-3.61-1.94-5.57-2.63-.76-.27-1.47-.6-2.27-.51-1.35.17-2.49-.28-3.58-1.01-.55-1.53-.52-3.11-.47-4.7.11-3.59.05-7.18-.57-10.72-.95-5.37-1.11-10.76-.79-16.18.68-.24,1.1-.81,1.59-1.29.61-.6,1.31-.74,2.1-.56.74.7,1.68.73,2.63.84,1.71.21,3.23-.73,4.89-.7,2.75.05,5.02-1,6.93-2.94.17-.17.35-.32.53-.48,5.27-5.11,11.55-8.57,18.35-11.13,1.32-.5,2.68-.98,4.14-.92.34.3.75.2,1.13.14,2.92-.48,5.86-.59,8.73.15,4.14,1.06,8.19,2.42,12.2,3.87.7.25,1.32.55,1.99.02,1.3.2,2.5-.72,3.77-.45,2.21.46,4.46.23,6.65.57,1.67.26,3.34.2,4.99.38,4.69.53,9.41.17,14.08.55,4.2.34,8.42.3,12.6.88,1.26.17,2.51.4,3.76.61,0,.65.51.66.95.83.95.36,1.96.61,2.81,1.2,2.34,1.62,2.61,3.88.72,6.02-.41.47-.84.93-1.25,1.39-3.02,1.56-6.35,1.94-9.64,2.39-3.34.47-6.71.76-10.4,1.16,1.74,1.1,2.57,2.65,3.67,3.98,2.38,2.86,1.95,7.08-.77,10.29-1.77,2.08-4.11,3.2-6.7,3.87-3.32,1.79-5.55,1.6-8.53,1.55-.77-.01-1.48-.57-1.64.1-.04.4.04.77.22,1.15,1.33,2.78.82,4.76-1.8,6.21-2.36,1.31-4.72,2.74-7.61,2.42-.95-.11-1.52.36-1.79,1.22-.24.76-.43,1.53-.63,2.3-.88,3.32-3.15,5.08-6.57,5.13-1.52.02-3.03.03-4.47-.53-.05-.91-4.96.4-5.69.53-1.12.21,1.98-2.92.93-1.68-.05.06-.05.15-.07.23Z"/><path class="cls-4" d="m27.92,63.6c-.47.17-.38.64-.55.98-.85,1.69-2.03,2.42-3.67,1.67-2.65-1.21-5.25-.91-7.96-.51-2.36.35-4.75.71-7.15.55-.84-.05-1.54.3-2.31.49-1.95.47-3.66-1.03-3.25-2.96.76-3.58.17-7.12-.09-10.66-.18-2.47-.49-4.92-.71-7.38-.12-1.28-.08-2.57.5-3.75.3-.6.31-1.23.31-1.87.09-6.73.88-13.37,2.31-19.94.1-.46.26-1.03.08-1.4-.81-1.71-.16-3.29.34-4.87.6-1.9,1.23-3.79,1.87-5.68.69-2.06,2.15-3.11,4.29-3.22,1.03-.05,2.08-.07,3.1.03,1.66.16,3.25.43,4.97.08,1.87-.38,2.89.97,2.91,3.33-.36,1.04-.96,2-1.14,3.12-.46,2.9-1.11,5.78-1.34,8.7-.49,6.11.53,12.18.69,18.28-.4,2.23-.37,4.46.12,6.67,1,4.46.74,9.26,3.56,13.23.22.3.22.75.33,1.14.44,1.67,1.71,2.76,2.84,3.93l-.06.05Z"/><path class="cls-3" d="m21.13,38.58c-.16-6.1-1.18-12.17-.69-18.28.23-2.92.89-5.8,1.34-8.7.18-1.12.78-2.07,1.14-3.12,3.06-1.84,6.41-2.21,9.89-2.03,1.67.09,3.34.05,5.01.08,3.66.05,4.8,1.51,4.01,5.07-.05.2.08.44.12.66,0,0,.02-.06.02-.06-.49-.15-.54.12-.49.5,0,0,.03-.03.03-.03-.21.09-.51.12-.6.27-1.38,2.45-2.22,5.03-1.81,7.9v-.03c-.76.2-.56.88-.61,1.38-.69,6.36-.57,12.75-.53,19.13,0,1.2.26,2.49,1.15,3.48v-.03c-.33,1.59.03,3.04.96,4.35l-.02-.04c-.24.58,0,1.16-.02,1.74h.18s.05.17.05.17c.21.6.16,1.31.75,1.74,1.01,1.39.71,3.29,1.79,4.66.06.48.1.95.17,1.43.27,2.06-.15,2.85-1.96,3.88-2.53,1.45-5.27,2.22-8.11,2.67-1.18.19-2.17-.33-3.16-.9-.58-.33-.94-1.16-1.81-.87,0,0,.06-.05.06-.05.28-.52,0-.92-.28-1.31-1.25-1.79-2.04-3.78-2.65-5.86-.88-2.98-1.81-5.95-2.61-8.95-.37-1.38-.94-2.78-.76-4.22.2-1.62-.08-3.12-.54-4.64Z"/><path class="cls-4" d="m42.79,57.39c-1.08-1.37-.78-3.27-1.79-4.66.26-1.21.06-1.68-.75-1.74l-.05-.18h-.18c.84-.35.85-.86.02-1.73,0,0,.02.04.02.04.28-1.58.03-3.05-.97-4.35,0,0,.01.03.01.03.37-.3.32-.69.24-1.08-.46-2.35-.48-4.72-.28-7.1.1-1.18.26-2.38.19-3.55-.25-3.81-.32-7.6.14-11.4.04-.34-.03-.62-.29-.85,0,0,0,.03,0,.03,1.43-2.44,1.95-5.2,2.73-7.86.02-.06-.21-.2-.32-.31,0,0-.03.03-.03.03.58.24.59-.08.49-.5,0,0-.02.06-.02.06.48.02.6-.44.89-.67,1.25-1.03,2.36-1.19,3.45-.51,1.13.71,1.68,2.08,1.07,3.52-.68,1.62-.86,3.16-.26,4.8-.32,5.42-.16,10.81.79,16.18.62,3.54.69,7.13.57,10.72-.05,1.59-.08,3.17.47,4.7.17,1.01.37,2.01.51,3.02.54,3.78-1.68,5.56-5.23,4.19-.51-.2-.95-.54-1.43-.81Z"/><path class="cls-5" d="m65.77,14.29c-.18.16-.36.31-.53.48-1.91,1.93-4.18,2.99-6.93,2.94-1.66-.03-3.18.9-4.89.7-.95-.11-1.89-.14-2.63-.84.47-.05.97-.23,1.41-.13,3.63.75,6.81-.55,10-2.01,1.12-.51,2.22-1.27,3.56-1.13Z"/><path class="cls-5" d="m161.4,18.4c.42-.46.84-.93,1.25-1.39,1.89-2.14,1.62-4.4-.72-6.02-.86-.59-1.86-.84-2.81-1.2-.43-.16-.96-.18-.95-.83,1.44.47,2.97.65,4.28,1.47,1.63,1.02,2.57,2.43,2.19,4.41-.35,1.8-1.18,3.27-3.25,3.56Z"/><path class="cls-8" d="m21.13,38.58c.46,1.51.75,3.01.54,4.64-.18,1.43.39,2.84.76,4.22.8,3,1.74,5.97,2.61,8.95.61,2.08,1.41,4.07,2.65,5.86.27.39.56.79.28,1.31-1.13-1.18-2.39-2.26-2.84-3.93-.1-.38-.11-.83-.33-1.14-2.82-3.98-2.57-8.77-3.56-13.23-.49-2.2-.51-4.44-.12-6.67Z"/><path class="cls-6" d="m39.1,20.82c.26.23.33.51.29.85-.46,3.79-.4,7.59-.14,11.4.08,1.18-.09,2.37-.19,3.55-.2,2.38-.19,4.75.28,7.1.08.39.13.79-.24,1.08-.88-.99-1.14-2.28-1.15-3.48-.04-6.38-.17-12.77.53-19.13.05-.5-.14-1.18.62-1.38Z"/><path class="cls-6" d="m41.5,12.67c.11.1.34.24.32.31-.79,2.66-1.3,5.43-2.73,7.86-.41-2.86.43-5.45,1.81-7.9.09-.15.4-.18.6-.27Z"/><path class="cls-6" d="m39.08,44.77c1,1.3,1.25,2.77.97,4.35-.92-1.32-1.29-2.76-.97-4.35Z"/><path class="cls-6" d="m40.25,51c.81.06,1.01.53.75,1.74-.59-.43-.54-1.14-.75-1.74Z"/><path class="cls-6" d="m40.03,49.09c.83.87.82,1.39-.02,1.74.02-.58-.22-1.17.02-1.74Z"/><path class="cls-6" d="m41.97,12.2c.09.42.09.74-.49.5-.05-.38,0-.65.49-.5Z"/><path class="cls-1" d="m144.2,23.41c.19,1,.76,1.38,1.14,1.87,2.63,3.47,2.91,6.74.61,10.46-2.73,4.41-6.71,6.97-11.95,7.42-.8.07-1.6.06-2.4.11-.71.05-1.54-.11-2.09.36-.63.55-.02,1.34-.01,2.02,0,1.46-.63,2.6-1.56,3.65-2.19,2.46-5.1,3.12-8.21,3.29-.86.05-1.76-.19-2.71.31.16,1.12.46,2.26.12,3.45-1.02,3.53-3.75,5.76-7.52,6.01-2.68.18-5.25-.34-7.75-1.26-.95-.35-1.79-.49-2.7.19-4.6,3.46-9.9,3.73-15.33,3.21-3.62-.35-7-1.53-10.26-3.12-3.16-1.54-6.34-3.04-9.52-4.52-3.35-1.55-6.88-2.58-10.53-3.13-2.72-.42-2.92-.2-2.87,2.44.07,3.73-.11,4-3.96,4.1-1.33.04-2.02.33-2.35,1.72-.29,1.22-1.38,1.95-2.47,2.48-3.91,1.88-7.87,3.44-12.4,2.89-1.71-.21-3.5.14-5.25.3-5.58.51-11.19.15-16.77.48-1.04.06-2.09.03-3.11.2-1.24.22-1.83-.33-2.05-1.43-.33-1.72-.73-3.45-.89-5.19-1.23-13.2-.78-26.35,1.39-39.42.78-4.73,2.12-9.34,3.44-13.95.67-2.35,2.07-3.39,4.47-3.52,4.88-.28,9.74.14,14.61.32.64.02,1.29.14,1.91.02,3.94-.74,7.8-.14,11.65.66,1.91.4,3.75.95,4.53,3.06.28.76.97.67,1.59.8,2.78.57,3.89,2.01,3.82,4.9-.01.4-.06.8-.11,1.19-.07.68.23,1.05.91,1.14.32.04.63.13.95.13,4.82-.07,9.59-.37,13.89-2.95,3.23-1.94,6.41-3.95,9.25-6.41,6.29-5.42,13.52-7.53,21.76-6.81,5.16.45,10.11,1.44,14.71,3.88.73.39,1.48.49,2.3.51,13.83.33,27.6,1.59,41.36,2.97,2.46.25,4.91.69,7.22,1.63,1.51.62,2.83,1.48,3.79,2.83,1.39,1.98,1.26,3.91-.43,5.64-1.31,1.35-2.97,2.15-4.73,2.72-3.59,1.17-7.3,1.72-11.06,1.95-1.42.09-2.84.24-4.42.38Zm-15.17,11.52c-.14-.68-.51-.88-.81-1.13-2.78-2.36-3.14-5.29-1.77-8.45.51-1.17.33-1.82-.45-2.7-3.92-4.44-8.21-8.51-12.5-12.58-2.41-2.29-5.35-3.74-8.46-4.86-2.73-.98-5.56-1.45-8.42-1.77-7.99-.9-15.24.74-21.39,6.24-1.97,1.76-4.27,3.1-6.39,4.66-5.1,3.77-10.9,5.13-17.12,5.26-1.09.02-2.48-.63-3.19.21-.77.9-.17,2.31-.09,3.48.56,8.53,2.01,16.98,1.95,25.56,0,.32.07.64.06.96-.02,1.08.43,1.51,1.57,1.57,4.52.21,8.82,1.44,12.93,3.26,3.36,1.48,6.7,3.02,9.98,4.66,5.25,2.63,10.78,3.39,16.55,2.64,2.16-.28,4.15-1.05,5.73-2.55-.13-.74-.7-.97-1.11-1.32-1.9-1.62-3.49-3.51-4.86-5.6-2.52-3.86-1.94-6.17,2.14-8.33.98-.52,2.05-.87,3.11-1.24.9-.31,1.91-.17,2.86-.64-.7-4.77,2.72-6.22,6.25-7.49-.81-3.13-.3-4.6,2.2-6.51.25-.19.53-.36.8-.53,1.23-.83,1.23-1.27.17-2.26-.76-.71-1.48-.34-2.23-.11-3.02.95-6.11,1.18-9.24.85-2.38-.25-4.7-.86-6.93-1.55-.38.37-.32.79-.42,1.17-.67,2.56-1.37,5.15-3.13,7.18-6.01,6.9-13.76,10.16-22.78,10.67-.92.05-2.19.2-2.18-1.18,0-1.26,1.21-.96,2.04-1.03,6.86-.59,13.07-2.72,18.34-7.36,3.43-3.02,5.54-6.52,5.23-11.24-.11-1.64.88-2.17,2.29-1.36,4.77,2.71,9.81,3.03,15.05,1.76.85-.21,1.69-.48,2.55-.67,1.19-.27,2.21.04,3.03.97.47.54.94,1.09,1.41,1.64,3.38,3.98,7.61,6.79,12.32,8.93,1.51.69,3.11,1.28,4.94.82ZM22.2,7.17c-3.66,0-6.75-.08-9.83.02-3.47.11-3.47.19-4.39,3.46-2.11,7.48-3.39,15.09-4.11,22.83-.92,9.98-.91,19.94.27,29.89.29,2.42.45,2.55,2.81,2.48,5.51-.17,11.02-.36,16.52-.58,1.01-.04,2.07.02,3.18-.63-1.33-2.14-2.67-4.22-3.36-6.61-1.91-6.62-3.31-13.35-3.44-20.25-.14-7.51,0-15.02.04-22.53.01-2.66.32-5.26,2.32-8.08Zm.11,20.01h0c0,2.08.07,4.15-.01,6.23-.3,7.74,1.06,15.26,3,22.7.72,2.75,2.04,5.18,3.71,7.45.65.88,1.41,1.57,2.57,1.48,3.47-.28,6.73-1.29,9.69-3.13,1.1-.68,1.22-1.61.5-2.66-2.84-4.15-4.03-8.91-4.3-13.77-.38-6.93-.35-13.89-.17-20.83.12-4.64,1.12-9.17,3.53-13.28.84-1.43.46-2.44-1.19-2.9-3.4-.94-6.87-1.55-10.4-1.07-5.51.75-6.82,2.25-6.91,7.8-.07,3.99-.01,7.98-.01,11.98ZM115.29,7.71c.08.37.06.56.15.65,4.06,4.17,8.43,8.05,12.24,12.47.59.69,1.31.84,2.14.78,1.83-.15,3.65-.34,5.48-.43,4.14-.2,8.29-.31,12.44-.55,3.51-.21,6.99-.66,10.38-1.65,1.46-.43,2.88-.98,4.07-1.95,1.36-1.12,1.4-2.17.15-3.44-.8-.82-1.82-1.26-2.88-1.65-2.2-.79-4.5-1.11-6.79-1.34-11.51-1.16-23.04-2.06-34.57-2.88-.91-.07-1.84,0-2.8,0Zm15.27,16.22c.18,1.19.9,1.89,1.35,2.72.57,1.05,1.18,2.07,1.48,3.26,1.17,4.76-1.78,8.14-6.59,7.56-1.86-.22-3.55-.92-5.18-1.75-3.07-1.56-5.94-3.43-8.55-5.68-1.27-1.09-2.07-1.14-3.42-.25-.53.34-.98.81-1.43,1.26-.88.89-.84,1.8-.05,2.76.99,1.2,2.27,1.98,3.6,2.73,6.71,3.77,13.96,4.78,21.51,4.25,3.85-.27,7.05-1.86,9.53-4.85,2.88-3.48,2.82-6.74-.22-10.04-.86-.94-1.68-2.09-3-2.27-3-.41-6,0-9.02.31Zm-82.17,29.04s-.03,0-.05,0c-.26-4.22-.45-8.45-.8-12.66-.44-5.41-1.03-10.8-1.5-16.2-.27-3.1-.4-6.2.28-9.3.31-1.4-.22-2.24-1.23-2.5-1.16-.3-2.04.14-2.62,1.15-.32.55-.57,1.14-.79,1.74-2.11,5.91-2.34,12.02-1.96,18.2.05.87.37,1.31,1.27,1.36,1.19.07,2.38.22,3.58.31.75.05,1.6.15,1.61,1.05,0,1.07-.95,1.15-1.76,1.13-1.03-.03-2.07-.14-3.1-.25-1.12-.12-1.55.33-1.59,1.47-.23,5.65.39,11.15,2.48,16.45.98,2.49,2.1,3.17,4.74,2.89.96-.1,1.47-.48,1.46-1.48-.01-1.12,0-2.23,0-3.35Zm51.8-8.14c-2.96-.03-5.11.73-6.98,2.2-1.23.96-1.38,1.56-.64,2.88,3.51,6.28,8.87,9.64,16.06,10.06,1.05.06,2.06-.26,3.02-.64,1.7-.67,2.66-2,3.06-3.73.48-2.1-.23-3.33-2.26-3.9-3.55-.99-6.54-2.93-9.22-5.37-1.06-.96-2.1-1.69-3.04-1.51Zm18.04,5.22c3,.04,5.55-.12,7.54-2.1.79-.79,1.62-1.63,1.06-2.92-.5-1.16-1.19-1.84-2.65-1.97-5.33-.47-10.22-2.35-14.79-5.09-2.02-1.21-4.25-1.08-6.19.4-1.91,1.45-2.1,2.41-.48,4.11,4.32,4.56,9.38,7.66,15.52,7.57Zm10.46-23.55c-1.07,2.43-.81,3.89.89,5.34.29.25.6.61,1.02.44.54-.22.45-.78.4-1.22-.19-1.79-1.14-3.19-2.31-4.56Z"/><path class="cls-2" d="m33.22,54.09c1.88-.01,3.3,1.02,3.8,2.61.42,1.35-.1,2.75-1.32,3.51-1.4.87-3.07.66-4.34-.62-.39-.39-.73-.85-.99-1.33-1.25-2.27-.64-3.52,1.9-3.98.39-.07.78-.15.96-.18Zm.61,4.22c.5-.05.85-.28.83-.71-.03-.74-.51-1.08-1.24-1.04-.42.02-.84.24-.8.66.06.71.6,1.02,1.21,1.09Z"/></svg>