<?xml version="1.0" encoding="UTF-8"?><svg id="Layer_1" xmlns="http://www.w3.org/2000/svg" viewBox="0 0 466.84 55.46"><defs><style>.cls-1{stroke-width:1.5px;}.cls-1,.cls-2,.cls-3{fill:#182a42;}.cls-1,.cls-3{stroke:#182a42;stroke-miterlimit:10;}.cls-4{fill:#81412c;}.cls-4,.cls-5,.cls-6,.cls-7,.cls-8,.cls-2,.cls-9,.cls-10,.cls-11,.cls-12,.cls-13,.cls-14{stroke-width:0px;}.cls-5{fill:#95a1c6;}.cls-6{fill:#8998c0;}.cls-7{fill:#84422d;}.cls-8{fill:#8392ba;}.cls-9{fill:#e18060;}.cls-10{fill:#854430;}.cls-11{fill:#86412d;}.cls-12{fill:#80402b;}.cls-13{fill:#f5dfd0;}.cls-14{fill:#f5f5f5;}.cls-3{stroke-width:.75px;}</style></defs><path class="cls-5" d="m289.43,39.43c-.14-.72.33-.79.88-.86,4.68-.56,9.04-2.24,13.37-3.97,2.94-1.17,5.77-2.61,8.86-3.43,2.22-.6,2.66-2.58.91-4.11-5.28-4.63-10.96-8.52-18.23-9.29-.22-.02-.45-.13-.67-.1-2.7.36-4.72-.77-6.33-2.82-1.8,1.93-3.99,2.99-5.54.92-.13-.17.61-1.37.42-1.49-.35,1.07-1.21,1.21-2.15,1.15-.53-.03-1.06-.13-1.59-.2.15,1.96.05,1.99-1.76,2.8-.87.39-1.78.24-2.63.58-2.43.99-4.86,1.98-7.3,2.94-3.78,1.49-7.5,3.17-11.48,4.09-1.13.26-2.32-.27-2.57-1.2-.31-1.15.28-1.9,1.3-2.37.29-.13.58-.27.89-.34,5.69-1.16,10.18-4.51,14.66-7.9-4.55.53-7.87,3.52-11.68,6-1.52.99-3.76,1.57-5.25,2.6-.3.2-.79-.41-.86-.12-.47,1.75-1.61,1.17-2.62.75-2.95-1.2-6.09-1.74-9.13-2.61-.85-.24-1.55-.05-2.09.59-.59.7-.6,1.54-.07,2.26.45.61,1,1.2,1.61,1.65,1.12.82,1.95,1.7,2.29,3.16.22.96.2,1.6-.44,2.33-1.65,1.87-3.17,3.85-4.46,6-.6,1-2.61,3.52-1.63,4.48.91.89,3.44-.96,4.4-1.57,4.72-3.02,8.39-4.77,13.62-6.76.75-.29,1.24.41,1.92.91,5.31,3.91,12.93,4.28,19.36,5.04,2.62.31,5.23.6,7.87.49,1.31-.06,1.73.97,2.35,1.77,1.2-.62,2.18-1.84,3.77-1.39Zm-11.91-2.74c-.49-.07-1-.08-1.47-.21-4-1.13-7.99-2.27-11.98-3.43-.39-.11-.76-.32-1.1-.54-.87-.56-1.32-1.33-1.11-2.4.22-1.15,1.09-1.49,2.09-1.58.54-.05,1.09-.02,1.63.06,2.96.41,5.86,1.08,8.74,1.86,2.04.55,4.15.99,5.97,2.17.74.48,1.16,1.17,1,2.07-.16.88-.75,1.45-1.61,1.66-.7.17-1.4.39-2.15.35Zm-16.88-6.88c-.07,1.13-.75,1.64-1.7,1.61-.99-.03-1.59-.7-1.55-1.71.04-.95.65-1.48,1.61-1.47,1.04.01,1.54.63,1.63,1.56Zm23.6,6.58c-1.15.02-1.69-.6-1.71-1.49-.02-.81.46-1.45,1.41-1.51,1.01-.07,1.59.53,1.64,1.42.05.89-.48,1.52-1.34,1.58Zm2.53-1.91c.06-.77.69-1.29,1.58-1.25.87.04,1.5.59,1.45,1.6-.05,1-.7,1.5-1.58,1.46-.87-.04-1.49-.59-1.45-1.81Z"/><path class="cls-12" d="m270.46,13.84c-4.48,3.39-8.98,6.74-14.66,7.9-.31.06-.6.2-.89.34-1.02.47-1.61,1.22-1.3,2.37.25.94,1.45,1.46,2.57,1.2,3.99-.92,7.7-2.61,11.48-4.09,2.44-.96,4.87-1.95,7.3-2.94.84-.34,1.76-.19,2.63-.58,1.82-.81,1.92-.85,1.76-2.8-1.05-1.11-2.27-2.04-3.35-3.14-1.13-1.15-2.46-.97-3.31.37-.56.88-1.48.95-2.25,1.38Z"/><path class="cls-4" d="m282.82,15.05c.19.12.43.2.55.37,1.55,2.06,2.77,2.12,4.57.2.26-1.27-.32-2.89-1.23-3.43-.76-.45-2.98-.2-3.72.43-.86.75-.66,1.58-.17,2.43Z"/><path class="cls-4" d="m289.43,39.43c-1.59-.45-2.57.76-3.77,1.39-.37,1.51.04,2.34,1.48,2.99,1.1.5,2.13.41,2.94-.56.8-.95.71-2.31-.17-3.35-.14-.17-.32-.32-.48-.47Z"/><path class="cls-2" d="m277.52,36.69c.75.04,1.45-.18,2.15-.35.86-.21,1.45-.78,1.61-1.66.16-.9-.26-1.59-1-2.07-1.82-1.18-3.92-1.62-5.97-2.17-2.88-.77-5.78-1.45-8.74-1.86-.54-.07-1.09-.11-1.63-.06-1,.1-1.87.44-2.09,1.58-.21,1.06.25,1.84,1.11,2.4.34.22.71.43,1.1.54,3.99,1.16,7.98,2.3,11.98,3.43.47.13.98.15,1.47.21Z"/><path class="cls-2" d="m260.63,29.81c-.1-.94-.6-1.55-1.63-1.56-.96,0-1.57.52-1.61,1.47-.05,1.01.55,1.68,1.55,1.71.95.02,1.63-.48,1.7-1.61Z"/><path class="cls-2" d="m284.24,36.39c.86-.06,1.39-.69,1.34-1.58-.05-.89-.62-1.48-1.64-1.42-.95.06-1.43.7-1.41,1.51.02.89.56,1.51,1.71,1.49Z"/><path class="cls-2" d="m286.77,34.48c-.04,1.22.58,1.77,1.45,1.81.87.04,1.53-.46,1.58-1.46.05-1.01-.58-1.55-1.45-1.6-.88-.04-1.51.48-1.58,1.25Z"/><path class="cls-2" d="m235.3,44.97c1.23-.18,2.39-.56,3.47-1.15,3.5-1.92,6.97-3.89,10.18-6.28,1.2-.89,2.52-1.61,3.74-2.47.86-.6,1.61-.56,2.49.01,4.44,2.91,9.29,4.89,14.43,6.18,3.84.97,7.75.78,11.65.68.96-.02,1.61.22,2.19.99.88,1.15,1.83,2.26,2.83,3.31,1.27,1.33,2.46,1.3,3.76,0,1.22-1.21,1.99-2.71,2.64-4.25.34-.81.81-1.19,1.67-1.32,5.27-.82,10.27-2.58,15.22-4.5,2.09-.81,3.86-2.19,5.73-3.38,1.65-1.06,1.34-2.69.42-4.89-.88-2.1-2.48-3.8-4.32-5.18-5.35-4-11.16-6.95-17.94-7.55-.75-.07-1.25-.35-1.7-.92-1.27-1.6-2.52-3.21-3.89-4.73-1.58-1.75-3.05-1.69-4.56.12-.94,1.12-1.55,2.45-2.08,3.8-.31.81-.61.99-1.29.28-1.1-1.15-2.24-2.26-3.41-3.32-1.54-1.39-2.51-1.22-4.25-.18-6.72,4.02-13.05,8.7-20.14,12.13-1.55.75-2.83.74-4.28-.23-3.14-2.1-6.68-3.44-10.11-4.99-.41-.19-.86-.29-1.28-.44-1.16-.4-2.29-.4-3.08.66-.81,1.09-.4,2.19.31,3.14,1.8,2.39,3.61,4.78,5.49,7.11,1.98,2.45,2.06,2.46-.06,4.74-2.41,2.58-4,5.71-5.97,8.59-.61.89-.8,1.94-.2,2.95.52.88,1.38,1.11,2.34,1.11Zm4.4-22.62c2.05.5,3.84,1.35,5.53,2.4,2.39,1.49,4.89,2.72,7.63,3.47,2.25.62,4.41.48,6.51-.45,6.3-2.81,12.81-5.03,19.35-7.21,8.68-2.89,17.14-2.72,25.32,1.57,3.22,1.69,6.38,3.49,8.44,6.68.49.76.5,1.16-.34,1.7-1.96,1.25-3.98,2.3-6.16,3.14-7.5,2.88-15.29,4.23-23.27,4.56-3.94.16-7.91.45-11.82-.42-5.04-1.14-9.76-3.1-14.07-5.97-1.93-1.28-3.78-1.3-5.72-.07-1.65,1.05-3.33,2.03-4.88,3.23-2.4,1.84-5.05,3.27-7.96,4.96,1.31-2.81,3.17-4.73,4.96-6.69,2-2.19,2.12-3.16.52-5.64-.54-.84-1.19-1.6-1.8-2.39-.75-.96-1.51-1.92-2.26-2.88Zm38.14-5.48c-.24.3-.6.34-.94.44-6.42,2.06-12.75,4.33-18.92,7.06-.71.31-1.44.62-2.29.32,5.28-2.66,9.99-6.19,15.03-9.21,1.22-.73,2.54-2.19,3.84-1.77,1.27.41,2.17,1.95,3.23,3,.03.03.03.08.05.15Zm6.44-1.53c.47-1.17.62-2.58,1.51-2.8.68-.17,1.24,1.22,1.81,1.95.04.05,0,.16,0,.35-1.03.15-2.07.31-3.33.5Zm3.89,27.76c-.33-.48-1.14-.81-.87-1.32.26-.5,1.1-.35,1.73-.26-.03.64-.39,1.07-.86,1.59Z"/><path class="cls-2" d="m286.48,32.92c3.15.03,5.58-3.45,4.49-6.33-.3-.78-.78-1.44-1.56-1.81-.73-.34-1.44-.24-1.99.36-.56.61-.63,1.35-.11,1.98.49.6.72,1.12.23,1.81-.56.78-1.28.58-1.95.29-1.49-.64-2.99-1.3-4.44-2.04-2.6-1.34-5.32-2.28-8.22-2.66-.41-.05-.8-.08-1.21.01-.9.22-1.47.75-1.53,1.67-.06.95.48,1.67,1.37,1.75,4.49.42,8.32,2.66,12.36,4.35.84.35,1.72.55,2.56.62Z"/><path class="cls-2" d="m293.53,28.87c0,1.05.09,2.09.37,3.09.25.92.84,1.52,1.89,1.35.98-.16,1.36-.87,1.32-1.77-.07-1.58-.24-3.14-.19-4.73.03-.93-.48-1.67-1.55-1.71-1.08-.04-1.53.67-1.67,1.6-.11.71-.11,1.44-.16,2.16Z"/><path class="cls-2" d="m301.75,29.9c-.01-.77-.06-1.54-.3-2.28-.26-.82-.83-1.33-1.7-1.27-.91.05-1.43.69-1.44,1.53,0,1.17.1,2.35.31,3.5.15.83.78,1.37,1.67,1.28.87-.08,1.36-.67,1.45-1.54.04-.4,0-.81,0-1.22Z"/><path class="cls-2" d="m305.29,27.29c1.02-.11,1.57-.66,1.53-1.6-.03-.94-.64-1.49-1.59-1.46-.95.03-1.52.6-1.48,1.55.04.94.67,1.41,1.53,1.5Z"/><path class="cls-8" d="m52.3,31.52c-2.48-.54-4.76.65-7.07,1.46-3.64,1.27-7.33,1.88-11.19,1.84-3.53-.04-7.07.17-10.6.23-2.86.05-5.68-.37-8.52-.71-2.87-.35-5.77-.51-8.66-.64-2.4-.1-4.14-2.34-3.38-4.66.74-2.24,2.35-3.95,3.84-5.71.85-1,1.89-1.84,2.75-2.83,3.41-3.93,7.94-5.57,12.88-6.37,2.41-.39,4.83-.74,7.26-.97,1.39-.13,2.83-.08,4.09.68.54.33,1.13.31,1.7.43,5.01,1.08,9.41,3.48,13.64,6.24,2.19,1.43,4.6,2.58,6.17,4.82.69.99,1.22,2.06,1.07,3.28-.22,1.8-1.76,2.91-3.97,2.92Zm-25.92-12.04c-.02-1.36-1.16-2.33-2.56-2.06-5.46,1.07-10.36,3.25-14.25,7.37-.8.85-1.27,1.85-.39,2.91.83,1,1.87.81,2.82.21,3.99-2.52,8.03-4.93,12.57-6.38.34-.11.66-.3.95-.51.54-.4.82-.96.85-1.54Z"/><path class="cls-4" d="m26.38,19.48c-.03.58-.31,1.14-.85,1.54-.29.21-.61.41-.95.51-4.54,1.44-8.58,3.86-12.57,6.38-.95.6-1.99.79-2.82-.21-.88-1.06-.42-2.05.39-2.91,3.88-4.12,8.79-6.3,14.25-7.37,1.4-.28,2.54.7,2.56,2.06Z"/><path class="cls-2" d="m24.95,43.45c-4.45-.13-8.56-.62-12.64-1.72-2.8-.75-5.62-1.38-8.25-2.67-1.15-.57-2.27-1.14-3.09-2.16-1.03-1.28-1.35-2.67-.48-4.16.41-.7.48-1.46.55-2.22.25-2.6,1.16-4.94,2.71-7.02,5.02-6.75,11.76-10.5,20.12-11.32,10.72-1.05,19.91,2.87,28.44,8.86.22.16.43.34.65.49,3.19,2.1,4.9,5.02,4.94,8.87,0,.36,0,.75.14,1.06,1.42,3.17.44,5.69-2.79,7.08-1.8.78-3.7,1.2-5.64,1.47-7.1.97-14.13,2.47-21.27,3.22-1.22.13-2.45.14-3.41.2Zm-1.62-8.71c4.42.13,7.76-.16,11.1-.65,5.98-.87,11.76-2.63,17.67-3.84,2.1-.43,2.49-1.35,1.34-3.21-.35-.57-.84-1.08-1.35-1.51-1.01-.85-2.03-1.69-3.13-2.41-7.69-5.01-15.86-8.37-25.33-7.22-7.08.86-12.81,4.05-17.15,9.7-.9,1.17-1.46,2.49-1.88,3.89-.27.92,0,1.34.9,1.71,6.06,2.46,12.44,3.18,17.85,3.53Z"/><path class="cls-2" d="m47.04,28.99c-1.15.03-2.27-1.06-2.29-2.23-.02-1.22,1.18-2.33,2.52-2.33,1.21,0,2.26.91,2.31,2.01.05,1.11-1.35,2.53-2.54,2.55Z"/><path class="cls-2" d="m42.02,21.62c1.04,0,1.83.78,1.81,1.79-.01,1.06-1.06,2.05-2.15,2.04-1.01-.01-1.84-.83-1.83-1.82.01-1.08,1.02-2.02,2.17-2.01Z"/><path class="cls-2" d="m36.63,18.81c1.02.14,1.7.66,1.74,1.74.04.99-.94,1.93-1.93,1.9-.94-.03-1.68-.83-1.65-1.8.03-.99.88-1.84,1.84-1.84Z"/><path class="cls-2" d="m32.53,18.73c-.07.93-.52,1.54-1.5,1.54-.95,0-1.54-.54-1.55-1.5-.01-.9.53-1.42,1.43-1.48.97-.06,1.5.47,1.63,1.44Z"/><rect class="cls-10" x="185.27" y="39.89" width="14.2" height="9.25" rx="4.62" ry="4.62"/><path class="cls-5" d="m193.08,6.5c4.29-.38,9.01,1.11,13.22,4.32.72.55,1.46,1.09,2.26,1.51,2.76,1.47,4.43,3.81,5.5,6.66.39,1.04,1.12,1.86,1.73,2.75.69,1.01,1.44,1.99,2.02,3.06,1.93,3.54,1.32,6.87-1.79,9.48-2.53,2.12-5.19,4.08-7.91,5.98-1.14.79-2.04,1.92-3.02,2.92-.47.48-.16,1.03-.02,1.54.6,2.14.33,3.19-1.03,3.9-1.77.93-3.88.58-5.05-.92-.41-.53-.71-1.15-1.02-1.76-.6-1.17-1.1-2.39-1.88-3.46-1.62-2.22-3.72-2.38-5.53-.3-.95,1.09-2.15,2.01-2.37,3.66-.14,1.06-1.16,1.58-2.16,1.47-1.06-.12-2.09-.53-3.11-.9-.63-.23-1-.8-1.05-1.48-.1-1.31-.23-2.62-.18-3.92.02-.65-.2-.97-.64-1.35-3.39-2.86-7.07-5.36-10.39-8.31-1.26-1.12-1.99-2.27-1.65-4.13.22-1.17-.21-2.37.28-3.67,3-7.98,8.21-13.7,16.42-16.44,2.05-.69,4.22-.54,7.36-.63Z"/><path class="cls-2" d="m197.54,51.19c-4.91-.18-9.79-.43-14.58-1.64-2.8-.71-3.8-1.53-3.59-4.38.19-2.53-.79-3.82-2.75-5.16-2.86-1.96-5.35-4.44-8.2-6.47-.98-.7-1.63-1.69-1.83-2.93-.31-1.87-.33-3.71-.12-5.63.6-5.54,3.91-9.74,7.37-13.45,3.8-4.08,8.81-6.77,14.86-6.54,2.35.09,4.64-.75,7.02-.73.88,0,1.74-.03,2.5.42,1.52.88,3.2,1.21,4.88,1.6,3.43.8,6.58,2.08,8.47,5.36.19.34.54.6.85.86,2.25,1.85,3.54,4.3,4.39,7,.25.8.58,1.5,1.18,2.09,2.27,2.23,3.37,4.76,2.2,7.98-.3.82-.26,1.8-.21,2.69.11,1.98-.74,3.31-2.34,4.43-3.16,2.2-6.22,4.56-9.35,6.8-1.07.76-1.46,1.63-1.37,2.97.28,4.23-.07,4.57-4.34,4.71-1.68.06-3.36,0-5.04,0Zm-14.27-13.93c.27.01.54.03.81.03.65,0,1.15.25,1.45.83.33.64.2,1.26-.25,1.77-.39.44-.89.76-1.31,1.18-.44.44-1.06.73-1.25,1.39-.7,2.46.05,3.6,2.48,4.16.96.22,1.34.08,1.61-.9.53-1.89,1.62-3.44,3.31-4.5,1.91-1.19,3.66-1.08,5.4.35,1.59,1.31,2.66,2.98,3.1,4.99.15.7.39,1.03,1.14.98.91-.05,1.82-.03,2.72-.05.45,0,.81-.13.77-.7-.08-1.17.31-2.42-.92-3.33-.56-.41-.92-1.12-1.31-1.73-.44-.68-.44-1.4.16-1.99.63-.62,1.38-.62,2.11-.15.55.35.95.86,1.28,1.39.42.67.76.64,1.37.16,3-2.35,6.04-4.65,9.08-6.95,1.42-1.08,1.66-1.9,1-3.73-.71.68-1.39,1.34-2.09,1.98-.86.8-1.7,1.65-2.63,2.36-.71.54-1.56.57-2.22-.15-.61-.67-.49-1.43.02-2.11.36-.47.75-.91,1.18-1.32,1.21-1.16,2.47-2.28,3.66-3.46.79-.79,2.29-1.34,2.3-2.33.02-1.06-1.42-1.76-2.11-2.72-.05-.07-.14-.1-.28-.19-2.74,3.38-5.69,6.58-8.62,9.8-.52.57-1.06,1.12-1.65,1.62-.73.62-1.57.82-2.34.12-.77-.7-.66-1.54-.1-2.33.31-.44.65-.88,1.02-1.27,3.43-3.69,6.92-7.32,10.1-11.23.17-.2.46-.31.21-.65-.67-.91-.94-2.07-1.8-2.86-.56-.52-.91-.55-1.28.24-.74,1.55-1.56,3.07-2.38,4.58-.43.79-.88,1.59-1.43,2.31-.47.62-1.16.89-1.94.51-.78-.38-.97-1.07-.77-1.84.16-.61.41-1.2.7-1.76.99-1.89,2.05-3.74,3.01-5.63,1.11-2.18,1.07-2.23-1.17-3.3-.04-.02-.09-.02-.13-.05-.93-.62-1.36-.37-1.6.73-.61,2.74-1.28,5.47-2.01,8.18-.42,1.55-1.26,2.18-2.24,1.81-1.26-.48-1.26-1.52-1-2.61.51-2.11,1.05-4.22,1.57-6.33.23-.92.82-1.96.57-2.74-.29-.94-1.72-.68-2.54-1.2-1.06-.67-1.21-.18-1.26.83-.27,6.44-1.08,12.83-1.86,19.23-.24,2-1.05,2.92-2.19,2.74-1.17-.19-1.62-1.27-1.39-3.24.65-5.68,1.6-11.32,1.98-17.02.21-3.23.17-3.21-2.98-2.58-.65.13-.82.3-.66.96.35,1.4.66,2.82.89,4.25.17,1.04.08,2.11-1.23,2.34-1.2.21-1.71-.69-1.96-1.66-.42-1.62-.74-3.27-1.11-4.9-.07-.29.04-.79-.34-.79-.97-.01-1.85.42-2.67.9-.63.37-.13.94,0,1.34,1.36,4.46,2.78,8.9,4.16,13.35.25.82.5,1.66.6,2.51.1.85-.14,1.66-1.11,1.93-.93.26-1.62-.14-2-.98-.33-.74-.6-1.51-.84-2.29-1.4-4.68-2.78-9.37-4.21-14.18-1.37.81-2.63,1.6-3.66,2.69-.63.66-.74,1.25-.11,2.12,1.44,1.98,2.72,4.07,4.01,6.15,1,1.61,1.01,2.72.16,3.3-.93.64-1.94.17-3.02-1.49-1.14-1.75-2.23-3.52-3.32-5.31-.4-.66-.66-.67-1.15-.04-.79,1.03-1.02,2.34-1.78,3.35-.7.93-.4,1.41.42,2.05,3.85,3.04,7.53,6.28,11.11,9.64,1.04.98,1.7,2.03.73,3.43-1.15.37-2.11.03-2.98-.76-1.5-1.38-3-2.76-4.52-4.12-1.84-1.65-3.7-3.28-5.8-5.14.15,1.55-.46,2.99.74,3.84,2.8,1.99,5.32,4.32,8.03,6.42,2.28,1.77,2.3,1.75,4.45-.14.03-.02.03-.09.04-.13Zm9.39,10.1s0,.06,0,.09c.59,0,1.18,0,1.77,0,.31,0,.64.05.64-.46,0-.75-1.39-2.83-2.18-2.99-1.19-.25-1.79.68-2.35,1.48-1.02,1.48-.86,1.79.89,1.88.41.02.82,0,1.23,0Z"/><path class="cls-2" d="m197.85,39.34c-1.05-.21-2.08-.54-2.96-1.2-.59-.44-.82-1.07-.53-1.8.29-.72.84-1.07,1.59-.98,1.09.12,2.1.52,2.98,1.16.59.43.83,1.07.55,1.8-.28.72-.92.93-1.64,1.02Z"/><path class="cls-2" d="m188.86,38.47c-1-.06-1.62-.57-1.65-1.59-.03-.92,1.07-1.85,2.15-1.85,1.02,0,1.61.52,1.62,1.57,0,.97-1.04,1.87-2.12,1.87Z"/><path class="cls-2" d="m201.82,24.19c1.06.1,1.59.66,1.55,1.6-.03.99-.67,1.6-1.66,1.58-.93-.02-1.52-.61-1.47-1.57.05-.99.68-1.51,1.58-1.61Z"/><path class="cls-2" d="m208.66,36.35c-.12.91-.6,1.5-1.59,1.47-.98-.03-1.49-.63-1.45-1.6.04-.91.59-1.43,1.49-1.43.98,0,1.49.55,1.54,1.56Z"/><path class="cls-2" d="m199.47,24.01c-.07.91-.53,1.47-1.45,1.45-.83-.02-1.36-.5-1.38-1.35-.03-.9.45-1.47,1.37-1.51.94-.04,1.36.55,1.47,1.41Z"/><path class="cls-6" d="m434.08,25.06c1.48,1.06,1.84,2.62,1.52,4.22-1.05,5.19-2.95,10.09-5.57,14.69-1.28,2.23-2.94,2.74-5.48,2.58-3.68-.24-7.23-1.25-10.9-1.49-.05,0-.09,0-.14-.01-2.85-.95-5.95-.83-8.74-1.79-2.33-.81-4.67-1.17-7.04-1.64-3.18-.63-5.41-2.63-4.75-6.95.67-4.38,1.01-8.8,2.17-13.1,1.28-4.73,2.78-9.38,4.5-13.97,1.07-2.86,3.33-3.92,6.33-2.96,3.07.98,6.41.05,9.74,1.43,2.3-.27,4.27-.23,6.58.23.38.08.69-.16,1.02-.31,1.99-.93,3.37-.36,4.19,1.73.1,1.46-.6,2.71-1.03,4.03-.69.19-.77.81-.94,1.36-.1.33.03.74-.33.98-1.55,1.01-1.41,2.77-1.88,4.26-.56,1.42-.07,2.31,1.85,3.34.49.64.96,1.31,1.9,1.32.23.85,1.14.81,1.88.88.68.06,1.19.24,1.88.13,1.26-.21,1.99,1.26,3.25,1.05Z"/><path class="cls-9" d="m423.31,18.34c.47-1.49.33-3.24,1.88-4.26.36-.23.23-.65.33-.98.17-.54.25-1.17.94-1.36.47,0,.92-.05.88-.68-.05-.81.36-1.41.82-2.01.17-.07.35-.13.52-.2.29.02.58.05.87.07.86.37,1.3,1.1,1.59,1.93,1.21,3.55,2.61,7.03,3.37,10.73.26,1.29,1.11,2.47-.44,3.45-1.26.21-1.99-1.26-3.25-1.05-1.06-1.05-2.14-2.07-3.77-1.01-.93-.01-1.41-.68-1.9-1.32-.46-1.2-1.2-2.24-1.85-3.34Z"/><path class="cls-13" d="m428.17,9.07c-.46.59-.87,1.2-.82,2.01.04.63-.42.67-.88.68.43-1.32,1.13-2.57,1.03-4.03.64.24.27.98.67,1.34Z"/><path class="cls-13" d="m429.56,8.94c-.29-.02-.58-.05-.87-.07.33-.45.62-.44.87.07Z"/><path class="cls-13" d="m423.31,18.34c.65,1.09,1.39,2.14,1.85,3.34-1.92-1.02-2.42-1.91-1.85-3.34Z"/><path class="cls-2" d="m391.79,35.79c.73-8.63,2.01-18,5.31-26.97.73-1.97,1.75-3.77,3.16-5.36,1.06-1.2,2.31-1.69,3.87-1.51,3.47.4,6.93.83,10.4,1.19,4.46.47,8.93.89,13.4,1.31,2.22.21,3.78,1.23,4.61,3.38,1.51,3.9,2.43,7.97,3.65,11.95.16.52.24,1.08.49,1.55,1.6,3.09,1.2,6.23.28,9.38-.95,3.26-2.01,6.48-3.45,9.57-.61,1.3-.81,2.78-1.58,4.04-.26.43.06.68.33.91,1.79,1.53,3.59,3.06,5.4,4.58.95.79,2.07.86,3.22.65.46-.08.84-.22.93-.81.16-1.08.86-1.3,1.8-.97,1.06.37,1.12-.09.78-.91-.27-.66-.22-1.31.4-1.7,1.75-1.1,2.18-2.77,2.16-4.66,0-.72.25-1.33.97-1.43,1.8-.25,3.02-1.81,4.82-2.02.41-.05.34-.48.47-.75.55-1.09,1.62-1.21,2.39-.28.9,1.09,2.28,1.1,3.17.04.62-.73,1.29-.82,1.96-.09.3.32.57.39.95.2.44-.23.35-.5.2-.89-.29-.73-.09-1.37.66-1.69.38-.16.55-.39.67-.77.23-.76.81-1.07,1.58-1,.83.08,1.3.58,1.43,1.4.12.75.13,1.5.48,2.23.27.56.12,1.3-.52,1.51-1.3.42-2.04,1.66-3.31,2.08-.47.16-.48.57-.62.96-.37,1.06-1.42,1.28-2.27.52-1.12-.99-2.75-.91-3.83.17-.67.67-1.46.67-1.99-.08-.61-.85-1.18-.31-1.78-.16-.69.17-.89.56-.72,1.3.16.72-.31,1.17-1,1.39-1.17.36-2.09,1.88-1.77,3.08.24.92.07,1.48-.8,2.01-.91.56-1.52,1.53-1.81,2.57-.28.98-.82,1.43-1.77,1.16-.59-.16-1.07-.01-1.57.15-2.96.98-5.62.58-7.95-1.6-1.42-1.33-2.91-2.6-4.37-3.89-.32-.28-.58-.7-1.16-.46-1.64.67-3.35.5-5.08.42-9.33-.41-18.44-2.29-27.51-4.3-4.21-.93-5.12-2.32-5.08-7.42Zm35.2-28.5c-.36-.08-.53-.13-.71-.15-7.36-.64-14.75-.98-22.06-2.13-.8-.13-1.37.18-1.89.79-1.26,1.48-2.01,3.22-2.65,5.02-2.36,6.71-3.54,13.67-4.35,20.7-.21,1.85-.43,3.7-.47,5.55-.05,2.12.31,2.48,2.33,3.05,2.45.69,4.95,1.11,7.45,1.55,7,1.24,13.96,2.79,21.14,2.63,2.05-.05,3.04-.52,3.8-2.43.49-1.21.7-2.56,1.3-3.7,1.79-3.41,2.8-7.05,3.64-10.77.2-.87-.02-1.27-.94-1.54-2.91-.86-5.78-1.87-8.39-3.47-2.05-1.25-2.61-2.69-2.22-5.06.6-3.58,2.02-6.83,4.01-10.04Zm7.03,15.74c-1.54-4.86-2.41-9.55-4.19-14.31-2.11,3.14-3.4,6.24-3.96,9.64-.11.68.25,1.12.79,1.46,2.19,1.39,4.6,2.28,7.36,3.22Z"/><path class="cls-2" d="m422.39,42.06c-4.26-.62-8.93-1.28-13.58-2-.87-.13-1.55-.7-1.39-1.7.17-1.07,1-1.35,1.95-1.21,3.18.48,6.35.99,9.53,1.49,1.43.23,2.87.43,4.29.7.84.16,1.4.65,1.31,1.6-.07.81-.6,1.14-2.11,1.11Z"/><path class="cls-2" d="m428.63,31.9c.31-1.72,1.07-3.31,1.77-4.92.23-.53.82-.67,1.41-.52.55.14.82.51.91,1.05.1.6-.01,1.17-.2,1.73-.36,1.07-.76,2.12-1.13,3.18-.27.77-.74,1.27-1.6,1.13-.88-.15-1.06-.87-1.17-1.65Z"/><path class="cls-2" d="m412.55,14.01c1.1.01,3.02,2.11,2.91,3.18-.1.95-1.02,1.46-1.91.97-.97-.53-1.68-1.39-2.24-2.31-.52-.85.22-1.86,1.24-1.85Z"/><path class="cls-2" d="m411.17,19.22c.04.86-.34,1.42-1.22,1.48-.88.06-2.05-1.51-2.07-2.71-.01-.81.4-1.29,1.2-1.38.98-.11,2.05,1.26,2.09,2.61Z"/><path class="cls-2" d="m401.94,36.93c-.03.98-.53,1.39-1.29,1.39-.88,0-1.48-.46-1.43-1.4.04-.8.58-1.18,1.36-1.17.86.01,1.31.47,1.37,1.18Z"/><path class="cls-2" d="m404.33,36.89c.94.04,1.46.52,1.49,1.35.03.76-.38,1.33-1.22,1.34-.86.01-1.36-.47-1.4-1.33-.04-.82.41-1.25,1.13-1.35Z"/><path class="cls-2" d="m428.47,33.61c.83.05,1.24.51,1.24,1.3,0,.82-.5,1.27-1.27,1.27-.77,0-1.27-.45-1.24-1.28.02-.8.49-1.21,1.27-1.28Z"/><path class="cls-5" d="m339.9,18.88c-2.3.92-4.69,1.55-7.1,2.06-1.57.33-2.62,1.18-2.94,2.76-.32,1.57.49,2.68,1.75,3.45,2.3,1.41,4.72,2.59,7.3,3.42-.06-.77-.4-1.57.28-2.26.74-.75,1.57-1.12,2.62-.76.87.29,1.27.96,1.34,1.81.11,1.22-.42,2.09-1.6,2.51.52.5.18,1.05.13,1.6-.32,3.33-.63,6.67-.93,10,.34.05.68.11,1.03.16,1.21.19,1.99.86,2.21,2.09.14.77-.15,1.35-.81,1.76-1.07.66-2.07.55-2.97-.33-.03.63-.08,1.26-.1,1.89-.04,1.6.34,3.04,2.02,3.61,1.6.55,2.79-.27,3.67-1.53,1.23-1.74,2.56-3.38,4.06-4.89-1.42-1.78-1.37-3.37.14-4.53,1.14-.88,2.19-.5,3.28,1.17,1.1-.8,1.51-2.72,2.89-2.69,1.22.03,1.96,1.64,3.03,2.4,3.24,2.29,6.46,4.61,9.77,6.79,1.41.93,3.04,1.13,4.49-.1,1.45-1.23,1.51-2.85.82-4.42-1.53-3.47-3.06-6.95-5.12-10.15-.53-.82-.59-1.47-.21-2.37.76-1.85,1.68-3.55,3.4-4.66,2.12-1.38,3.97-3.04,5.54-5.05.72-.92,1-1.81.59-2.86-.41-1.05-1.24-1.66-2.39-1.67-1.79,0-3.55.29-5.25.83.09,1.71-.9,2.52-2.42,2.76-1.52.24-2.51-.64-3.07-2.53-3.15.21-2.28-.16-3.95-2.92-1.41-2.33-1.68-3.99-2.66-6.52-.73-1.88-1.95-3.51-2.79-5.34-.67-1.46-1.72-2.52-3.48-2.24-1.65.27-2.43,1.51-2.59,3.03-.28,2.59-1.53,4.93-1.84,7.5-.15,1.21-.78,2.07-1.82,2.76-1.14.76-2.18,1.69-2.91,2.89.22.26.43.53.65.79.67.79.73,1.69.26,2.55-.41.74-.96,1.43-2,1.32-1.07-.11-1.84-.7-2.23-1.63-.32-.77-.45-1.65-.05-2.48Zm19.56,18.07c-.58-1.5-.09-2.91,1.21-3.46,1.17-.49,2.67.13,3.16,1.33.58,1.38-.25,3-1.8,3.57-1.44.54-2.15-.19-2.58-1.44Zm-5.6-9.88c-.13-1.1.14-2.15,1.27-2.68,1.18-.56,2.24-.12,2.7,1.06.47,1.2-.19,2.19-1.29,2.68-1.09.48-2.02.09-2.68-1.06Zm-2.14-13.68c1.22-.42,2.4.13,2.77,1.11.35.93-.44,2.47-1.51,2.78-1.08.32-1.92.01-2.3-1.17-.42-1.31.02-2.23,1.03-2.73Z"/><path class="cls-7" d="m339.9,18.88c-.4.83-.27,1.71.05,2.48.39.94,1.16,1.52,2.23,1.63,1.05.11,1.59-.58,2-1.32.48-.85.42-1.76-.26-2.55-.22-.26-.43-.53-.65-.79-1.18-.17-2.48-1.04-3.38.55Z"/><path class="cls-7" d="m365.32,19.17c.56,1.89,1.55,2.77,3.07,2.53,1.51-.24,2.51-1.05,2.42-2.76-1.89-2.14-4.3-2.04-5.49.23Z"/><path class="cls-7" d="m353.26,42.88c-1.09-1.67-2.14-2.05-3.28-1.17-1.51,1.16-1.55,2.75-.14,4.53,2.61-.26,3.15-.79,3.41-3.36Z"/><path class="cls-7" d="m341.54,31.87c1.18-.42,1.71-1.3,1.6-2.51-.07-.85-.48-1.52-1.34-1.81-1.05-.35-1.88.02-2.62.76-.68.69-.33,1.49-.28,2.26.76.66,1.48,1.43,2.63,1.3Z"/><path class="cls-7" d="m340.19,47.15c.9.88,1.9,1,2.97.33.65-.4.95-.99.81-1.76-.23-1.23-1-1.9-2.21-2.09-.34-.05-.68-.11-1.03-.16-1.68,1.01-1.56,2.28-.54,3.68Z"/><path class="cls-7" d="m359.46,36.95c.43,1.25,1.14,1.98,2.58,1.44,1.55-.58,2.37-2.19,1.8-3.57-.5-1.19-1.99-1.82-3.16-1.33-1.3.55-1.8,1.96-1.21,3.46Z"/><path class="cls-7" d="m353.87,27.07c.66,1.15,1.59,1.54,2.68,1.06,1.1-.49,1.75-1.48,1.29-2.68-.46-1.18-1.52-1.62-2.7-1.06-1.12.53-1.39,1.58-1.27,2.68Z"/><path class="cls-7" d="m351.73,13.39c-1.01.5-1.45,1.41-1.03,2.73.37,1.18,1.21,1.49,2.3,1.17,1.06-.31,1.85-1.86,1.51-2.78-.37-.98-1.55-1.53-2.77-1.11Z"/><path class="cls-1" d="m374.78,41.92c-.83-1.91-2.16-4.14-3.45-6.39-1.65-2.88-1.54-3.87.82-6.2,1.76-1.73,3.58-3.41,5.41-5.07.78-.71,1.5-1.43,1.9-2.42,1.2-2.98-.31-5.09-3.49-4.87-3.78.27-7.59.18-11.33.89-1.46.28-2.44-.16-3.2-1.6-1.87-3.54-2.73-7.47-4.5-11.03-.41-.82-.8-1.66-1.26-2.46-1.52-2.59-4.65-2.74-6.4-.3-1.06,1.47-1.63,3.18-2.12,4.89-.64,2.21-1.28,4.43-1.78,6.68-.35,1.59-1.21,2.49-2.72,3.01-2.74.94-5.6,1.31-8.41,1.9-2.63.55-5.27,1.24-5.77,4.35-.47,2.98,1.62,4.62,3.96,5.85,2.49,1.32,4.84,2.93,7.57,3.75.6.18,1.05.47.7,1.25-1.93,4.34-1.79,8.96-1.84,13.57-.02,1.51.02,2.97.56,4.41,1,2.63,2.68,3.23,5.14,1.81,2.93-1.69,5.37-3.93,7.48-6.56,1.04-1.3,2.06-2.63,3.13-3.91,1.28-1.53,2.02-1.59,3.31-.01,2.73,3.34,6.26,5.55,9.99,7.53,1.34.71,2.74,1.23,4.3,1.01,2.1-.3,3.14-1.42,3.32-3.55.13-1.54-.32-3.98-1.31-6.55Zm-17.07-29.15c.52,1.34,1.22,2.65,1.51,4.04.54,2.56,2.1,3.54,4.55,3.5.46,0,.83.04,1.14.54,1.62,2.59,4.6,2.83,6.14.26.86-1.44,1.81-1.62,3.16-1.58.57.02,1.14-.17,1.71-.16.48,0,1.12-.32,1.4.29.22.48.09,1.06-.22,1.48-.4.55-.85,1.1-1.37,1.53-1.83,1.5-3.51,3.15-5.16,4.84-3.4,3.48-3.58,5.29-1.14,9.46,1.56,2.68,3.29,5.3,3.94,8.41.27,1.31,1.01,2.92-.21,3.9-1.38,1.11-2.86-.01-4.16-.7-3.38-1.78-6.48-3.91-8.96-6.91-1.61-1.96-3.61-2.3-5.33-1.03-.82.61-1.36.62-2.28.25-2.63-1.08-4.59.37-4.59,3.23,0,.84.21,1.63.62,2.31.45.76.25,1.23-.33,1.78-1.38,1.31-2.82,2.54-4.47,3.51-.67.39-1.48,1.06-2-.1-.38-.84-.51-1.62.63-2.3,3.15-1.86,3.15-4.16.03-5.91-.79-.44-.98-.88-.97-1.72.05-3.63,1.9-6.87,2.06-10.52.09-2.15.21-3.47-1.26-4.19-1.38-.67-2.72-.17-3.95,1.51-.26.35-.34.94-.99.58-1.9-1.07-3.99-1.86-5.62-3.36-1.36-1.25-1.09-2.79.56-3.61,1.79-.89,3.79-.92,5.68-1.41.56-.15.64.23.78.65.79,2.34,2.02,3.24,3.79,2.81,2.21-.54,3.09-2.04,2.67-4.6-.07-.4-.25-.76.23-1.04,1.79-1.05,2.08-2.93,2.56-4.71.81-3,1.46-6.05,2.72-8.92.36-.83.79-1.77,1.92-1.72,1.04.05,1.33.98,1.74,1.72,1.37,2.54,2.36,5.25,3.47,7.91Zm-16.81,8.59c-.21-.62-.2-1.19.55-1.37.53-.13,1.23-.79,1.59.17.26.72-.03,1.39-.72,1.74-.61.31-1.1.04-1.41-.54Zm9.54,23.8c-.29-.85-.81-1.71.19-2.32.4-.25,1.12-.16,1.23.23.28,1.06-.78,1.45-1.41,2.09Z"/><path class="cls-2" d="m358.28,37.56c.68,1.78,2.3,2.56,4.02,1.92,2.1-.78,3.31-3.22,2.58-5.18-.49-1.3-2.79-2.18-4.28-1.64-2.05.75-3.07,2.91-2.31,4.9Zm3.41-.19c-.71.2-1.19-.08-1.35-.7-.21-.81.1-1.45.92-1.75.67-.24,1.34-.07,1.54.6.27.92-.49,1.4-1.11,1.85Z"/><path class="cls-2" d="m356.74,28.66c1.51-.61,2.19-2.04,1.62-3.44-.57-1.41-1.77-1.81-3.41-1.13-1.55.65-2.23,2.06-1.65,3.43.58,1.36,1.85,1.79,3.44,1.14Z"/><path class="cls-2" d="m354.05,13.9c-.48-.87-.86-2.11-2.46-1.42-1.69.73-2.49,2.25-1.93,3.7.53,1.38,1.92,2.1,3.16,1.63,1.4-.52,1.95-2.13,1.23-3.91Z"/><path class="cls-2" d="m369.99,42.74c-.32-.76-.8-1.44-1.78-1.13-1.07.34-1.31,1.28-1.06,2.23.25.97,1.05,1.39,2.01,1.06,1-.35,1.15-1.17.83-2.16Z"/><path class="cls-2" d="m347.25,32.02c.44.91,1.12,1.3,2.1.94.93-.34,1.21-1.03.87-1.92-.37-.98-1.16-1.25-2.09-.94-.92.31-1.18,1.01-.88,1.92Z"/><path class="cls-2" d="m343.98,40.67c.38.71.88,1.02,1.58.78.9-.31,1.23-.96.93-1.87-.22-.67-.7-1.14-1.41-.78-.73.37-1.12,1.08-1.1,1.87Z"/><path class="cls-2" d="m357.34,17.24c.7-.36.88-.95.57-1.69-.26-.6-.75-.88-1.38-.63-.82.33-.79,1.08-.6,1.74.18.65.73.82,1.41.58Z"/><path class="cls-2" d="m334.81,23.62c-.79.41-.88.96-.56,1.63.3.63.82.82,1.41.55.7-.32.77-.91.47-1.58-.29-.65-.78-.75-1.31-.6Z"/><path class="cls-2" d="m351.85,9.18c.28.57.72.92,1.37.69.65-.24.79-.8.59-1.41-.19-.58-.68-.82-1.23-.65-.62.2-.88.69-.73,1.37Z"/><path class="cls-2" d="m348.86,26.39c.53-.25.76-.66.56-1.24-.2-.57-.61-.82-1.2-.62-.6.2-.79.67-.6,1.22.19.55.64.77,1.24.64Z"/><path class="cls-2" d="m358.43,22.43c.25.55.67.79,1.25.59.58-.2.83-.63.61-1.22-.21-.57-.71-.77-1.26-.61-.58.18-.76.65-.6,1.24Z"/><path class="cls-2" d="m353.99,33.79c-.58.24-.8.68-.6,1.25.2.56.66.81,1.24.62.6-.19.78-.66.59-1.23-.2-.58-.63-.78-1.22-.64Z"/><path class="cls-2" d="m349.23,22.52c.27.56.73.74,1.27.5.52-.23.76-.7.53-1.27-.23-.58-.7-.71-1.25-.48-.56.24-.72.68-.55,1.25Z"/><path class="cls-2" d="m367.71,26.51c.24.49.64.66,1.13.47.56-.21.79-.64.55-1.22-.21-.49-.61-.65-1.12-.47-.59.21-.76.64-.56,1.22Z"/><path class="cls-2" d="m370.82,46.3c-.45.24-.68.59-.51,1.1.17.52.58.7,1.06.53.48-.17.7-.55.52-1.07-.18-.51-.57-.64-1.07-.56Z"/><path class="cls-5" d="m136.87,37.09c.36-.86.13-1.61-.19-2.46-.86-2.29-1.8-4.53-3.14-6.59-3.06-4.69-7.36-8.03-12.06-10.89-3.82-2.32-7.98-3.78-12.38-4.57-2.44-.43-4.92-.57-7.39-.7-.54,0-1.09,0-1.63,0-1.39-.01-2.75.47-3.71,1.26-2.32,1.89-5.14,2.52-7.78,3.59-.1.04-.26-.07-.39-.1-.1.2-.15.51-.31.58-2.21,1.04-3.96,2.8-6.27,3.73-2.8,1.13-5.45,2.66-7.93,4.42-1.08.77-1.22,1.88-.44,3.11,1.17,1.85,2.84,3.27,4.15,5,.57.75,1.22,1.46,1.75,2.24.6.88.51.52,1.45.22.82-.26.52-.91,1.32-1.43-.07-2.72,1.97-4.4,3.61-6.28,1.19-1.37,2.55-2.58,3.83-3.87.43-.43.85-.72,1.38-.15,1.59,1.71,3.65,1.39,5.61,1.18,1.24-.13,2.47-.53,3.66-.95.82-.29,1.36-.12,1.87.53.71.91,1.47,1.79,2.41,2.94-1.76.06-3.21-.15-4.64-.13-1.11.01-1.95.34-2.08,1.25-.36,2.41-1.37,4.82-.27,7.3,1.48,3.35,3.83,5.78,7.29,7.04,1.53.56,2.96-.05,4.1-1.62.69-.95,1.39-1.88,2.23-2.73.53-.54,1.07-.44,1.4.01,1.43,1.98,3.61,2.84,5.67,3.83,2.13,1.02,4.14,2.21,6.13,3.46,1.45.92,2.48.54,2.97-1.04-.17-.72-.7-1.22-1.09-1.8-.8-.15-1.27-.8-1.89-1.23-.31-.21-.73-.53-.48-.99.22-.39.63-.22.97-.11.51.16.98-.09,1.44-.21,1.13-.27,2.23-.65,3.34-.99,2.51-.93,5.15-1.53,7.51-2.87Z"/><path class="cls-9" d="m88.2,16.63c.13.04.29.14.39.1,2.65-1.07,5.46-1.7,7.78-3.59.97-.79,2.33-1.28,3.71-1.26.54,0,1.09,0,1.63,0,.14-1.1-.47-1.64-1.46-1.7-3.97-.26-7.94-.9-11.94-.25-.53.09-1.08.03-1.63.04-1.29.04-2.01,1-1.39,2.09.89,1.57,1.67,3.22,2.91,4.56Z"/><path class="cls-11" d="m125.98,43.48c.39.58.92,1.08,1.09,1.8,2.75,1.68,5.74,2.24,8.95,2.1,1.81-.08,3.22-.84,4.46-1.98,1.01-.92.63-4.21-.53-4.98-.86-.56-1.99-.77-2.4.32-.53,2.93.23,3.83-2.95,3.81-2.21-.02-4.12-.88-5.97-1.97-1.14-.45-2.11-.41-2.66.9Z"/><path class="cls-11" d="m136.87,37.09c-2.36,1.34-5,1.94-7.51,2.87-.25.56.02,1.07.17,1.59.88.43,1.73.31,2.63.02,1.46-.48,2.95-.86,4.43-1.28.65-.04,1.18-.43,1.75-.68.8-.35,1.42-.89,1.09-1.87-.31-.92-1.09-.95-1.9-.8-.22.04-.44.1-.66.14Z"/><path class="cls-9" d="m136.59,40.29c-1.48.42-2.97.81-4.43,1.28-.9.3-1.76.42-2.63-.02-.49.18-.72.59-.9,1.03,1.85,1.09,3.76,1.96,5.97,1.97,3.18.02,2.6-.4,3.09-3.26-.75.28-.91-.32-1.1-1.01Z"/><path class="cls-14" d="m128.63,42.59c.18-.45.42-.85.9-1.03-.15-.52-.43-1.03-.17-1.59-1.11.34-2.21.72-3.34.99-.46.11-.93.37-1.44.21-.34-.11-.75-.28-.97.11-.26.46.17.78.48.99.62.42,1.09,1.08,1.89,1.23.55-1.3,1.52-1.35,2.66-.9Z"/><path class="cls-3" d="m130.26,22.79c-2.3-1.96-4.4-3.83-6.8-5.29-.19-.12-.33-.27-.37-.53-.37-2.27-1.55-4.23-2.5-6.28-.15-.33-.35-.64-.54-.94-.27-.41-.64-.71-1.14-.51-.6.24-.55.81-.41,1.29.15.52.41,1,.64,1.49.56,1.18,1.13,2.36,1.77,3.7-.9-.1-1.2-.42-1.43-1.13-.44-1.37-1.06-2.69-1.66-4.01-.25-.55-.66-1.08-1.37-.71-.62.32-.51.91-.3,1.44.36.89.75,1.78.85,2.8-.51-.76-1.01-1.55-1.55-2.29-.42-.57-.87-1.39-1.72-.92-.95.53-.18,1.25.11,2-1.21-.03-2.22-.53-3.29-.73-1.07-.19-2.13-.43-3.2-.63-1.43-.27-2.76-.48-4.1-1.37-2.16-1.43-4.86-1.68-7.41-2.04-3.15-.44-6.32-.6-9.49-.07-2.69.44-3.3,1.39-2.3,3.9.52,1.3,1.12,2.58,1.75,3.83.34.67.2.99-.4,1.42-1.82,1.32-3.82,2.26-5.96,2.9-2.92.87-5.54,2.2-7.68,4.44-1.11,1.16-1.53,2.24-.62,3.49,2.31,3.19,4.65,6.38,7.45,9.18,1,1,1.91.68,2.72-.64,1.85-3.06,3.34-6.35,5.71-9.08.27-.31.53-.63.81-.92,1.74-1.77,1.75-1.79,3.64-.18.8.68,1.7.64,2.57.38,1.43-.42,2.93-.64,4.29-1.29,1.27-.61,2.26-.32,2.98.86,0,.23-.17.26-.28.24-3.5-.74-5.09,1.71-5.44,5.21-.64,6.3,2.4,10.63,8.45,12.56,1.8.57,2.79.24,3.85-1.32,2.38-3.48,2.4-3.48,6.02-1.32,3.04,1.82,6.16,3.46,9.44,4.82,1.31.54,2.6.78,3.95.21.32-.13.6-.17.91-.02,2.61,1.26,5.38,1.05,8.15.86,4.5-.3,6.21-3.49,3.75-7.24-.72-1.1-.23-1.64.49-1.98,2.67-1.29,4.91-3.08,6.74-5.39.3-.38.58-.48,1.03-.21.36.22.8.22,1.12-.14.33-.37.19-.74,0-1.13-.51-1.1-.22-1.57,1-1.65,1.11-.07,1.4-.57.75-1.45-.6-.8-.23-1.16.5-1.3,1.06-.21,1.31-.63.72-1.58-.54-.87-.11-1.53.62-2.04.84-.58,1.32-1.37,1.36-2.38.02-.74-.27-1.35-1.04-1.56-.73-.2-1.32.04-1.76.69-.54.79-.44,1.74-.72,2.6-.19.61-.17,1.32-1.15,1.41-.73.07-.89.69-.49,1.35.61,1,.12,1.49-.81,1.79-.21.07-.6.21-.6.22.53,1.63-1.53,2.02-1.59,3.35,0,.13-.03.29-.11.38-1.72,2.16-3.67,4.04-6.29,5.06-.98.38-1.06-.76-1.53-1.22-.47-.46-.19-.79.24-1.08,2.95-2.01,4.75-4.91,6.42-7.97.55-1.01,1.49-1.79,1.37-3.1-.02-.25.14-.63.51-.74.83-.26.78-.77.57-1.5-.3-1-.03-1.96.78-2.67.34-.3.65-.61.47-1.03-.63-1.42-.22-2.8,0-4.21.11-.74.12-1.48-.66-1.91-.48-.26-.99-.22-1.39.17-.61.59-.83,1.35-.47,2.11.55,1.15.96,2.15-.64,2.82-.42.17-.4.65-.16,1.07.75,1.32.59,1.91-.71,2.81-.38.26-.61.64-.37,1.04.56.92.56,1.58-.62,1.94-.4.12-.58.56-.42.89.42.85-.08,1.46-.44,2.12-1.25,2.33-2.67,4.52-4.88,6.12-.75.54-1.11.68-1.56-.31-1.02-2.28-2.31-4.42-3.87-6.38-.34-.42-.5-.82-.42-1.36.24-1.68-.37-3.42.4-5.07.16-.35-.27-.62-.46-.92-.54-.87-1.14-1.75-.17-2.76.35-.36.36-1-.12-1.18-1.65-.6-1.5-2.14-1.9-3.38-.11-.36-.15-.83-.51-.87-.91-.11-1.38-.8-2.02-1.28-.53-.4-1.12-.77-1.69-.16-.59.63-.14,1.16.36,1.62.65.6,1.46,1.08,1.11,2.23-.12.38.32.65.79.75,1,.21,1.25.71.5,1.56-.56.64-.37,1.09.42,1.44.99.44,1.07,1.11.27,1.9-.48.47-.58.94-.07,1.39,1.32,1.15,1.45,1.44,1.27,3.52Zm-17.32,16.17c.04-.11.07-.23.11-.34.35-.04.7-.08,1.05-.12.66-.07,1.35-.16,1.33-1.02-.02-.93-.78-1.01-1.48-1.02-.82,0-1.64.16-2.36.57-1.99,1.13-3.83,2.44-5.11,4.4-.2.3-.39.62-.64.88-.44.46-.98.27-1.38,0-.57-.37.02-.69.2-.99.31-.5.69-.96.99-1.46.29-.48.27-.97-.24-1.31-.54-.36-.95-.07-1.28.35-.53.68-.96,1.46-1.59,2.03-.85.78-1.34-.24-1.87-.64-.65-.48,0-.74.33-.98.74-.53,1.5-1.02,2.23-1.55.45-.33.65-.79.29-1.3-.31-.44-.79-.45-1.22-.2-.63.36-1.24.76-1.84,1.17-1.74,1.18-1.84,1.15-2.52-.83-.03-.09-.04-.18-.08-.26-.27-.56-.16-.81.52-.82.58,0,1.16-.15,1.75-.23.72-.09,1.27-.4,1.12-1.21-.15-.83-.82-.67-1.41-.58-.54.08-1.08.15-1.62.19-1.33.09-.8-.9-.82-1.51-.03-.67.17-1.17,1.05-.93.7.19,1.41.34,2.12.45.52.08,1.04.03,1.19-.61.16-.69-.3-.99-.86-1.17-.39-.12-.8-.16-1.19-.28-.42-.13-1.2.03-1.11-.63.09-.64.82-.6,1.36-.58,1.91.07,3.79.34,5.67.69.63.12,1.26.24,1.47-.5.23-.81-.36-1.17-1.05-1.26-1.11-.13-1.93-.62-2.52-1.59-.27-.45-.77-.76-1.13-1.17-1.28-1.47-2.81-1.65-4.56-1.01-1.19.43-2.45.69-3.61,1.18-1.36.58-2.06-.04-2.7-1.13,1.6-.96,3.23-1.08,4.94-.74.66.13,1.34.09,1.49-.75.16-.85-.5-1.14-1.14-1.23-1.95-.27-3.88-.28-5.73.61-3.1,1.48-5.24,3.98-7.23,6.66-1.41,1.9-2.31,4.11-3.66,6.04-.21.3-.19,1.3-1.06.71-.86-.58-.24-1.03.15-1.52.68-.84,1.43-1.65,1.89-2.65.23-.51.2-1-.32-1.31-.55-.33-.94,0-1.26.43-.51.7-1,1.4-1.54,2.07-.21.26-.36.79-.73.66-.33-.12-.6-.54-.79-.89-.3-.54.28-.67.55-.92.43-.41.89-.77,1.32-1.18.48-.45,1-.96.38-1.6-.62-.64-1.15-.11-1.65.3-.42.35-.81.73-1.25,1.06-.33.24-.65.74-1.13.18-.47-.54-.02-.82.32-1.09.5-.39,1.03-.75,1.54-1.11.44-.31.78-.7.47-1.25-.31-.55-.88-.52-1.32-.29-.68.35-1.28.84-1.92,1.27-.27.18-.53.64-.88.15-.23-.32-.51-.69-.05-1.07,1.32-1.09,2.41-2.56,4.13-3.04,4.87-1.35,9.04-4.12,13.43-6.46,4.72-2.51,9.67-4.23,15.13-3.4,13.7,2.09,24.33,8.53,30.3,21.52.28.61.25.84-.36,1.12-1.65.76-3.3,1.52-4.89,2.39-2.67,1.48-5.47,2.09-8.51,1.7-.89-.11-2.1-.32-2.37.95-.26,1.27.89,1.62,1.79,2.04.12.06.25.1.39.13,1.22.23,2.12,1,3,1.81-4.27-1.5-8.22-3.63-12.04-6Zm-12.66-27.84c-3.1.41-5.91,1.67-8.77,2.77-1.23.47-2.47,2.11-3.58,1.33-1.03-.72-1.36-2.48-1.92-3.81-.16-.38-.79-1.07.2-1.26.74-.14,1.67-.85,2.11.53.23.72.62,1.4,1,2.07.25.44.7.59,1.17.36.44-.21.51-.64.4-1.05-.13-.47-.4-.91-.56-1.38-.11-.32-.6-.74.02-.98.43-.17.9-.07,1.13.46.18.42.38.82.58,1.22.28.55.63,1.07,1.36.77.66-.28.54-.86.38-1.4-.08-.29-.36-.54-.1-.95,2.2.2,4.42.48,6.59,1.31Zm37.53,29.63c.62.5.81,1.07,1.01,1.6.69,1.87.15,2.84-1.83,3.19-1.02.18-2.06.31-3.1.32-2.21.02-4.4-.16-6.16-1.79,2.02.43,4.05.82,6.11,1.01,3.14.28,4.5-1.16,3.97-4.33Zm-7.74,1.77c1.68-.47,3.04-.85,4.41-1.22.76-.2,1.53-.17,1.63.8.1.99-.73,1.13-1.47,1.14-1.44.01-2.85-.29-4.58-.71Zm3.08-2.84l-.09-.26c1.2-.58,2.41-1.16,3.62-1.72.45-.21,1.05-.45,1.27.19.21.61-.44.86-.88.97-1.29.33-2.61.55-3.92.82Z"/><path class="cls-3" d="m109.8,15.52c-.54.03-1.1.11-1.17.83-.09.89.62,1.07,1.24,1.14,2.9.31,5.5,1.48,8.08,2.7,1.35.64,2.62,1.44,3.94,2.14.46.25,1.01.37,1.35-.14.37-.55.11-1.07-.41-1.39-3.94-2.47-8.04-4.57-12.73-5.23-.09-.01-.18-.03-.3-.05Z"/><path class="cls-3" d="m117.8,30.68c.02.48.03,1.01.71,1.09.61.07.92-.28,1.06-.83.16-.61.26-1.25.49-1.83.3-.77.65-1.52,1.71-1.44.52.04.89-.24.92-.79.03-.54-.37-.8-.82-.95-.94-.32-1.69.07-2.35.68-1.18,1.08-1.53,2.53-1.71,4.07Z"/><path class="cls-3" d="m134.04,34.15c-.38-1.07-.9-2.06-1.63-2.93-.29-.35-.69-.44-1.1-.22-.45.23-.49.72-.32,1.06.49,1.01,1.04,1.99,1.62,2.95.2.34.62.37.98.21.45-.21.42-.64.46-1.06Z"/><path class="cls-3" d="m125.96,35.03c.97-.11,1.49-.59,1.48-1.5,0-.95-.53-1.52-1.51-1.52-.98,0-1.52.54-1.48,1.52.04.96.65,1.41,1.5,1.5Z"/><path class="cls-3" d="m124.66,39.09c.51.03.87-.02,1.04-.41.15-.36.14-.75-.18-.99-.81-.6-1.69-1.03-2.73-1.05-.33,0-.65.11-.76.46-.12.37-.07.75.27.97.76.5,1.61.8,2.35,1.02Z"/><path class="cls-3" d="m115.68,28.99c.03.54-.07,1.19.66,1.31.78.12.97-.48,1.07-1.11,0-.04.02-.09.03-.13.13-.6.52-1.23-.07-1.78-.25-.23-.61-.22-.9-.06-.69.39-.76,1.07-.78,1.77Z"/><path class="cls-3" d="m129.48,28.8c.74.02,1.03-.3,1.01-.82-.03-.79-.44-1.39-1.25-1.52-.51-.08-.89.3-.85.82.06.75.44,1.34,1.08,1.52Z"/><path class="cls-3" d="m118.98,35.97c.52-.02.85-.27.85-.82,0-.67-.45-.99-1.03-1.06-.49-.06-.9.16-.94.74-.04.76.48,1,1.11,1.14Z"/><path class="cls-3" d="m126.34,25.14c.03.59.36.94.93.98.51.04.91-.23.91-.78,0-.63-.4-1.03-1.02-1.06-.53-.03-.82.31-.82.86Z"/><path class="cls-3" d="m103.17,15.46c.02.58.33.95.9.93.54-.01.76-.41.74-.92-.02-.51-.28-.84-.82-.85-.55-.01-.79.32-.82.84Z"/><path class="cls-3" d="m106.41,15.85c.02.48.28.75.75.73.41-.02.65-.27.66-.69,0-.48-.26-.75-.74-.73-.42.02-.63.27-.66.69Z"/></svg>