<?xml version="1.0" encoding="UTF-8"?><svg id="Layer_1" xmlns="http://www.w3.org/2000/svg" viewBox="0 0 146.08 282.79"><defs><style>.cls-1{fill:#f47a58;}.cls-1,.cls-2,.cls-3,.cls-4,.cls-5,.cls-6,.cls-7,.cls-8{stroke-width:0px;}.cls-2{fill:#f8f8f8;}.cls-3{fill:#953a25;}.cls-4{fill:#122b44;}.cls-5{fill:#fde0d0;}.cls-6{fill:#fddfcf;}.cls-7{fill:#ffe2d2;}.cls-8{fill:#f07a55;}</style></defs><path class="cls-7" d="m46.13,228.36c-.48-5.27.52-10.67,2.15-15.98.57-1.86,1.3-3.66,1.97-5.49.53-1.46.7-2.97.74-4.52.09-3.17-.24-6.34.24-9.5.22-1.45.59-2.83,1.16-4.16.5-1.17.9-2.28.53-3.64-.76-2.83-.14-5.67.33-8.46.28-1.65,0-3.06-.66-4.46-.81-1.72-1.62-3.44-2.24-5.24-.59-1.73-3.12-2.23-4.44-1-2.29,2.15-4.77,4.1-7.87,4.87-4.48,1.12-9.13-.77-11.36-5.61-3.12-6.75-4.91-13.87-6.47-21.08-.57-2.61-1.71-4.95-3.08-7.2-.41-.67-1.02-1.14-1.74-1.48-6.17-2.83-10.52-7.58-13.9-13.3C.06,119.69-.12,116.95.05,114.2c.2-3.23.89-6.3,2.35-9.24,1.74-3.51,4.63-5.48,8.19-6.65,2.59-.85,5.1-1.87,7.57-3,.97-.44,1.44-1.16,1.5-2.22.19-3.31-.45-6.49-1.68-9.54-.78-1.93-1.83-3.75-2.63-5.67-1.58-3.84-1.59-7.78-.2-11.67,1.23-3.42,2.08-6.81.99-10.46-.52-1.74-.5-3.62-.24-5.4.26-1.77.21-3.53.18-5.29-.02-1.16-.21-2.33-.26-3.51-.11-2.47.39-4.77,1.71-6.86,2.66-4.21,5.23-8.53,9.59-11.27,1.99-1.25,3.53-2.89,5.15-4.55,2.85-2.92,6.48-4.49,10.48-5.35,2.08-.45,4.29.29,6.27-.8,1.11-.61,2.26-1.15,3.33-1.83.6-.38,1.04-.9,1.1-1.76.31-4.68,3.24-8.41,8.67-8.95,4.12-.41,8.25-.32,11.83,1.83,2.46,1.48,4.99,2.25,7.68,2.99,3.64,1,6.32,3.39,8.09,6.78.88,1.69,1.88,3.31,2.75,5,.48.93,1.2,1.38,2.16,1.68,5.29,1.61,8.8,5.01,10.27,10.39.38,1.4.66,2.83,1.83,3.84,3.5,3.04,5.56,6.83,6.14,11.45.27,2.15,1.14,4.08,2.66,5.67,3.3,3.48,6.65,6.91,10.6,9.68.83.58,1.79.85,2.73,1.17,2.69.92,5.06,2.36,7.16,4.3,2.85,2.65,3.68,7.44,2.24,11.06-.92,2.3-2.37,4.1-4.29,5.64-2.56,2.07-4.75,4.59-7.87,5.93-2.47,1.06-4.85,1.38-7.28-.04-1.65-.96-2.61-2.56-2.91-4.25-.61-3.41-2.92-4.95-5.69-6.35-4.85-2.46-9.93-4.45-14.54-7.37-2.9-1.84-5.87-3.58-8.74-5.48-1.25-.83-2.24-.81-3.45.06-1.62,1.16-3.35,2.15-5.03,3.21-1.44.9-1.77,1.93-1.01,3.47.6,1.22,1.42,2.29,2.3,3.34,1.69,2,3.3,4.07,4.88,6.16,1.43,1.89,3.17,3.5,4.89,5.1,4.33,4.04,8.78,7.95,13.3,11.77,2.97,2.51,5.02,5.58,4.83,9.73-.06,1.34-.44,2.6-.97,3.79-.35.79-.27,1.43-.05,2.2.71,2.46,2.19,4.57,3.09,6.95.99,2.62,1.16,5.37,1.44,8.1.25,2.38.37,4.77.58,7.15.16,1.84,1.66,2.87,2.7,4.12,3.6,4.34,4.78,9.2,3.12,14.58-1.81,5.86-4.54,11.23-8.98,15.61-1.75,1.73-1.62,4.14-2.02,6.33-.44,2.43-.51,4.92-1.33,7.3-1.32,3.83-4.99,6.77-9.18,6.52-2.19-.13-2.16-.01-2.7,2.06-.38,1.44-.75,2.91-1.34,4.27-.68,1.57-1.43,3.26-3.05,4.04-2.09,1.01-2.62,2.73-2.86,4.8-.29,2.46-.82,4.89-1.53,7.27-.86,2.9-2.6,5.16-5.08,6.82-.81.54-1.02,1.15-1,2.03.02,1.4,0,2.79-.22,4.19-.39,2.51-1.44,4.65-3.46,6.09-1.38.99-1.36,2.08-1.04,3.41.54,2.23,1.59,4.49,1.12,6.76-.52,2.48.61,4.15,1.85,5.93.83,1.19,1.63,2.4,2.26,3.71.77,1.61,1.85,2.91,3.36,3.96,1.62,1.13,3.05,2.55,4.5,3.9.6.56,1.27.8,2.02,1.03,1.6.48,3.19.99,4.76,1.57,5.93,2.21,11.66,1.98,17.21-1.25,1.99-1.16,4.13-2.05,5.92-3.56,2.8-2.37,4.63-5.4,6.13-8.66.54-1.17,1.3-2.28,1.13-3.71-.1-.84-.27-1.17-1.15-.88-1.84.62-3.74,1.1-5.55,1.79-3.48,1.32-6.82.86-10.15-.53-8.11-3.4-12.07-9.98-13.6-18.2-.88-4.7.72-8.95,3.67-12.67,1.66-2.09,3.16-4.3,5.07-6.18,3.11-3.07,6.82-4.76,11.18-5.25,3.59-.4,7.12-.32,10.61.56,2.04.52,3.84,1.57,5.64,2.62,2.65,1.55,5.32,3.05,7.63,5.15,3.09,2.81,4.99,6.29,6.24,10.19,1.5,4.66,2.68,9.36,2.46,14.35-.26,6.07-1.47,11.9-3.92,17.47-1.7,3.87-3.68,7.6-6.4,10.84-3.73,4.45-7.73,8.61-13.02,11.31-3.3,1.68-6.43,3.74-10.13,4.49-5.34,1.08-10.67,2.28-16.05,3.1-6.64,1.01-13-.12-19.12-3-4.69-2.21-9.28-4.53-13.31-7.82-2.94-2.4-6.02-4.68-8.34-7.7-1.44-1.88-2.8-3.76-4.54-5.43-2.26-2.16-2.46-5.35-2.95-8.29-.69-4.13-1.33-8.27-1.87-12.42-.39-3.01-.44-6.05-.28-9.41Z"/><path class="cls-1" d="m128.15,81.02c-3.02,1.63-6.05.29-7.1-3.15-.14-.47-.21-.97-.32-1.46-.03-.56.14-1.03.49-1.49.44-.57.81-1.2,1.12-1.86.5-1.07.31-2.05-.69-2.75-.88-.62-2.19-.39-2.91.55-.88,1.15-1.73,2.34-1.72,3.9-1.96-.82-3.4-2.47-5.36-3.3-.87-.37-1.67-.9-2.51-1.35,1.86-1.77,3.02-4,4.05-6.3.46-1.03.08-1.96-.88-2.57-1.02-.65-2.09-.36-2.66.48-1.43,2.11-3,4.18-3.53,6.77-2.69-1.38-5.39-2.75-8.08-4.13,1.32-1.22,2.71-2.38,3.96-3.68,1.14-1.18,1.14-2.42.2-3.37-.89-.9-2.18-.79-3.36.34-.98.93-1.93,1.91-2.89,2.86-.56.56-.99,1.17-.99,2-2.27-1.96-4.47-2.36-6.45-3.98-1.52-1.24-3.38-1.01-5.17-.8-.5.06-.63.6-.87.98-1,1.58-2.16,3.04-3.73,4.09-2.87,1.91-6.66,1.57-9.28-.83-1.29-1.17-2.22-2.62-3.09-4.11,1.04,0,1.69.79,2.47,1.29.84.54,1.67,1.09,2.67,1.27,1.24.23,2.23-.25,2.95-1.22.66-.9.59-1.9.04-2.81-.59-.97-1.45-1.49-2.64-1.11-.38.12-.68.05-1.02-.15-.85-.52-1.73-.98-2.57-1.51-2.07-1.3-2.81-1.19-4.33.68-.12-.69-.38-1.09-1.22-1.12-1.69-.07-3.33-.42-4.64-1.84-.46,1.45-.45,2.89-1.14,4.12-.14.25-.05.51.09.77,2.13,4,3.89,8.18,5.69,12.33.25.57.67.95,1.11,1.35,3.94,3.61,7.75,7.38,12.06,10.56.18.13.4.27.49.46,1.19,2.45,3.11,4.48,3.97,7.11.13.4.24.74.63.98,2.44,1.49,4.24,3.68,6.07,5.8,2.36,2.73,5.04,5.09,8.04,7.09,2.26,1.51,4.1,3.43,5.65,5.64,1.23,1.76,1.69,3.62.47,5.58-.35.56-.11,1.03.02,1.55,1.32,5.18,3.46,10.11,4.48,15.38.46,2.36.68,4.75.91,7.13.16,1.69-.82,3.13-1.09,4.66-.26,1.49.23,3.12-.74,4.54-.22.5-.61.83-1.07,1.09-1.31.17-1.86.99-1.91,2.23-.02.53-.02,1.06-.03,1.6,0,0,.01-.03.01-.03-.33.2-.19.56-.28.84.1.48-.16.88-.28,1.31-.78,2.79-1.42,5.61-1.55,8.51-.7.98-.39,2.28-1.09,3.28-.82,1.18-2.04,1.87-3.06,2.81-1.05.96-3.1,1.47-2.19,3.65.04.63.02,1.27.12,1.89.3,1.86-.13,3.65-.4,5.47l.03.33c-1.18,1.8-2.42,3.56-3.29,5.56-.18.42-.35.8-.38,1.27-.14,1.81-.57,3.58-1.05,5.32-.38,1.39-1.14,2.58-2.56,3.17-.53.23-.88.6-1.14,1.1-.86,1.65-1.74,3.28-2.61,4.93-.8,1.52-1.45,2.95-1.07,4.85.41,2.03-.57,3.98-1.38,5.86-.14.32-.38.73-.67.83-1.86.68-2.36,2.63-3.67,3.82-.24.22-.42.47-.43.81-.08,2.17-.68,4.28-.57,6.48.14,2.92-3.15,2.72-3.5,5.01-.08.56-.58.45-.61.87-.18,2.84-.8,5.65-.37,8.52.12.78-.24,1.51-.64,2.18-1.27,2.12-.92,3.48,1.34,4.68,1.71.91,2.73,2.2,2.69,4.2-.03,1.32-.62,2.36-1.65,3.13-.59.44-.59.77-.13,1.3,1.42,1.6,2.56,3.4,3.72,5.19.82,1.26,1.92,2.06,3.41,2.5,2,.59,3.85,1.57,5.51,2.86.88.69,1.6,1.57,1.82,2.64.2.98.61,1.32,1.58,1.59,2.31.64,4.63,1.25,6.97,1.79,0,.1,0,.2,0,.3-1.28.62-1.03,1.83-1.12,2.91-2.04.31-4.04-.36-6.17.36-1.17-.25-2.3-.53-3.17-1.4-.39-.39-.8-.33-1.25-.28-.07-.43.24-.5.54-.64.66-.3.24-.69.17-1.48-.06-.75.41-1.35-.28-1.62-.59-.24-1.19-.44-1.78-.66-3.49-1.26-7.02-2.44-9.9-4.93-1.41-1.22-2.8-2.51-3.14-4.44-.16-.9-.38-1.75-.73-2.59-.76-1.79-1.57-3.56-2.23-5.39-.41-1.16-.77-2.24-2.17-2.49-.32-.06-.45-.33-.5-.59-.47-2.29-1.32-4.6-1.39-6.85-.13-3.67.15-7.4.85-11.05.02-.14.03-.29.05-.43,0-.09.04-.16.12-.21.68-2.31.96-4.68,1.04-7.08.28-.7.58-1.4.84-2.11.92-2.47,1.82-4.93,2.73-7.4,1.53-.81,2.34-2.12,2.77-3.77.21-.83-.21-1.61,0-2.42.91-3.51,2.21-6.89,3.55-10.23.84-2.09,1.21-4.3,2.01-6.39.22-.58.16-1.39-.04-2-.86-2.58-.75-5.26-.96-7.9,1.16-.95,1.09-2.29,1.16-3.59,1.04-.68,1.33-1.61,1.32-2.86-.02-4.02-.04-8.04-.63-12.03-.14-1.66-.28-3.32-.2-4.99.1-2.16.21-4.32.31-6.48.05-1.1-.24-2.05-1.17-2.72l.03.02c-.07-.07-.14-.15-.2-.22-.6-.92-1.82-1.29-2.07-2.53-.21-1.07-.77-2.01-1.28-2.97-.69-2.83-.5-5.71-.54-8.58-.02-1.2.19-2.43-.21-3.61-.39-1.69-.78-3.39-1.16-5.08-.09-.25.04-.58-.28-.74v.03c-.02-.22.07-.5-.28-.56v.02c-.36-2.11-.63-4.16-2.89-5.37-2.06-1.11-3.79-2.73-4.75-4.99-.44-1.4-1.15-2.74-1.26-4.22-.09-1.19-.69-1.96-1.58-2.61-.69-2.58-2.23-4.65-3.95-6.61-.07-1.2-1.11-1.96-1.36-3.06-.22-.95-.7-1.46-1.68-1.62-1.34-.22-2.42-.94-3.26-2.01l-.89-2.21c-.2-1.16-.4-2.31-.59-3.47-.57-3.4-2.66-6.07-4.18-9.04-1.01-1.98-2.06-3.12-4.28-3.01-.38.04-.66-.18-.96-.35-2.19-.67-4.12-.03-5.94,1.17l.03-.03c-.15.06-.3.12-.45.18-1.87.41-3.65.99-4.95,2.53-.14-.3-.43-.27-.69-.33-3.6-.78-5.01-3.73-3.26-7.01,1.16-2.16,2.27-4.33,2.85-6.73.31-1.28.38-2.4-.54-3.55-1.37-1.71-.77-3.75-.44-5.64.37-2.06,1.11-4.03,2.47-5.68.43-.53.25-.73-.21-1.04-.99-.67-1.83-1.47-2.25-2.65-.75-2.12.22-4.34,2.47-5.38,1.81-.84,3.07-2,3.68-4.04.91-3.06,2.91-4.41,6.04-4.52,2.01-.08,3.36-1.44,3.42-3.45.06-1.89.92-3.31,2.62-4.14,1.63-.8,3.2-.56,4.56.6.54.46.93.48,1.56.19,2.5-1.18,5.03-2.29,7.55-3.43.71-.32,1.36-.72,1.91-1.28.51-.53,1.13-.91,1.81-1.19,2.44-.99,3.25-2.66,2.48-5.12-.9-2.88,1.58-5.82,4.6-5.42,1.25.17,2.45.46,3.75.35,2.77-.24,4.8,1.08,5.94,3.62.49,1.08.7,2.24.93,3.4.55.2.71-.31,1-.53,2.59-2,6.24-.9,6.85,2.29.4,2.11,1.6,3.6,2.81,5.15,1.16,1.5,2.56,2.83,3.43,4.55.28.56.61.58,1.2.44,3.57-.82,6.17,1.79,5.4,5.41-.15.69.09.96.6,1.29,4.5,2.91,7.1,7.13,8.41,12.24.07.26.18.56.12.8-.62,2.63.9,4.35,2.51,6.04-.98.19-2.1.18-2.58,1.29-.59,1.36-1.15,2.74-1.63,4.15-.37,1.07.01,2.03.97,2.55,1.03.56,2.12.29,2.75-.7,1.03-1.64,1.94-3.37,1.82-5.42,1.52,1.39,2.63,3.14,3.99,4.66.35.4.73.77,1.1,1.16-.42,1.44-.82,2.89-1.26,4.33-.44,1.47-.06,2.62,1.07,3.09,1.16.49,2.39-.09,2.99-1.54.45-1.07.74-2.21,1.09-3.33,1.55.97,2.71,2.37,3.97,3.66.49.5.96.95,1.73.83-.63,1.24-1.31,2.46-1.87,3.73-.46,1.04-.11,1.98.81,2.59.9.6,1.88.49,2.57-.31,1.33-1.55,2.45-3.23,2.06-5.46,3.65,1.28,4.9,3.98,3.51,7.56-.45-.37-.88-.78-1.35-1.11-1.83-1.26-3.06-.98-4.13.98-.25.46-.6.44-1,.49-.86.1-1.59.51-1.86,1.36-.28.87-.06,1.69.58,2.38.85.91,1.89,1.38,3.13,1.38Zm-32.59,28.34c.03-.99-.43-1.75-1.16-2.36-.74-.62-1.56-1.31-1.78-2.19-.66-2.58-2.38-4.46-3.97-6.42-1.94-2.39-3.66-4.98-6.02-7-1.88-1.61-3.62-1.45-5.74.3-1.16.95-1.34,2.76-.21,4.61,2.3,3.75,5.2,7.04,8.86,9.46,1.96,1.3,3.56,2.68,4.59,4.79.59,1.22,2.25,1.81,3.51,1.44,1.2-.35,1.94-1.37,1.93-2.65Zm-.56-71.92c-1.36.1-2.72.71-4.03,1.44-3.21,1.78-5.76,6.78-5.29,10.38.13,1.01.6,1.84,1.68,2.06.97.2,1.82-.09,2.32-.99.31-.56.29-1.21.38-1.84.37-2.55,1.19-4.84,3.84-5.95,1.1-.46,1.85-.24,2.54.77,1.02,1.5,1.4,3.22,2.01,4.87.49,1.31,1.65,1.95,2.74,1.64,1.35-.38,2.12-1.64,1.82-3.04-.48-2.29-1.39-4.41-2.78-6.29-1.25-1.69-2.81-2.95-5.22-3.05Zm-41.54,50.44c.26-.75-.24-1.66.72-1.89.9-.22,1.22.58,1.66,1.14.59.75,1.14,1.53,1.8,2.2.76.78,1.7,1.18,2.83.76,1.37-.51,2.12-1.95,1.74-3.4-.49-1.86-2.31-3.25-3.89-2.81-.89.24-1.3,0-1.77-.7-1.63-2.41-3.64-4.49-5.88-6.35-.8-.67-1.66-.63-2.52-.15-.96.54-.43,1.2-.14,1.85.13.29.24.59.3.9.52,2.59,2.06,4.68,3.41,6.85.39.62.93,1.2,1.76,1.59Zm43.94,67.74c-.05-.43-.08-.92-.15-1.41-.38-2.54-.71-2.83-3.34-2.91-.17,0-.35-.07-.51-.14-2.4-.93-4.15-.01-4.77,2.52-.69,2.83.21,4.94,2.68,6.1.36.17.42.44.52.72.43,1.21,1.14,2.13,2.54,2,1.4-.13,2.11-1.12,2.46-2.38.4-1.44.45-2.94.59-4.5Zm2.99-26.6c0-2.96-.16-5.45-.67-7.89-.42-2-1.65-3.19-2.94-3.04-1.39.16-2.12,1.4-2.11,3.59,0,.45.02.91.04,1.36.13,2.98.58,5.94.51,8.93-.04,1.67.88,2.8,2.23,2.92,1.21.1,2.33-.9,2.67-2.43.29-1.29.32-2.6.28-3.45ZM50.59,62.31c.11,1.74-.07,3.31.75,4.72.5.86,1.16,1.42,2.17,1.32,1.08-.11,1.76-.82,1.85-1.87.22-2.39.23-4.8-.38-7.15-.37-1.42-1.57-1.98-2.96-1.43-.65.26-.96.27-1.39-.4-1.04-1.62-3.24-1.38-4,.39-.28.65-.39,1.39-.52,2.1-.29,1.56.16,2.77,1.22,3.31,1.28.66,2.24.05,3.26-1Zm18.78-18.87c-.25-2.77-1.31-5.16-2.7-7.4-.53-.85-1.48-1.01-2.43-.67-.93.33-1.31,1.12-1.31,2.03,0,.52.27,1.04.48,1.54.82,1.96,1.82,3.88,1.05,6.11-.08.24-.06.58.05.8.36.72.06,1.09-.49,1.58-.91.82-.94,1.91-.36,2.98.66,1.22,1.98,1.97,2.98,1.68,1.21-.36,2.26-1.33,1.85-2.46-.69-1.89.15-3.33.66-4.93.13-.42.16-.88.22-1.25Zm-30.55-6.5c.18.1.33.19.48.27,1.29.73,2.65.5,3.35-.58.69-1.06.36-2.57-.74-3.37-1.12-.82-2.28-.63-3.23.74-.59.85-.86.18-1.25-.08-1.26-.81-2.95-.46-4.12.87-1.01,1.14-1.12,2.98,0,3.95.85.74.78,1.22.22,2.04-.65.94-.37,1.93.3,2.77.64.82,1.57.9,2.48.65,1.62-.43,2.3-2.57,1.36-4.17-.19-.32-.67-.59-.11-1,.69-.51.88-1.33,1.27-2.11Zm32.4,171.24c-.02,1.74.62,2.67,1.83,2.96,1.07.26,2.19-.45,2.69-1.77.21-.54.3-1.13.45-1.7.31-1.16.43-2.39,1.88-2.87.65-.21,1.02-.94,1.03-1.65.01-.63.22-1.11.53-1.63.8-1.38.36-2.96-.89-3.49-1.17-.5-2.44.25-2.96,1.8-.17.5-.3.85-.95.91-1.3.12-2.16.93-2.51,2.17-.51,1.83-.97,3.67-1.11,5.27ZM51.36,38.96c-.16-.9-.45-1.68-1.32-1.98-.99-.34-1.97-.13-2.57.73-1.44,2.06-2.9,3.97-5.49,4.78-1.14.36-1.43,1.81-.97,2.9.46,1.08,1.35,1.5,2.43,1.23,3.82-.97,6.11-3.66,7.74-7.06.1-.2.13-.43.18-.6Zm32.43,136.8c0,.52,0,.8,0,1.07.06,1.79.87,2.94,2.21,3.12,1.37.18,2.32-.58,2.95-2.25.86-2.29.58-4.62.24-6.94-.09-.61-.59-1-1.14-1.26-1.15-.54-2.46.06-3.17,1.53-.76,1.57-1.05,3.26-1.09,4.74ZM28.67,73.14c1.27.04,2.41-.91,2.89-2.43.19-.6.26-1.04,1.17-1.04,1.14,0,1.89-.84,2.05-2,.16-1.12-.35-1.96-1.41-2.35-1.12-.41-2.11-.04-2.7.95-.38.65-.63.83-1.42.65-1.52-.34-3.05,1.16-3.21,2.94-.16,1.82.96,3.22,2.63,3.27ZM72.4,13.94c-.03-1.93-1.66-3.51-3.6-3.48-1.89.03-3.8,2.12-3.74,4.12.05,1.77,1.71,3.46,3.39,3.45,2.01-.02,3.98-2.06,3.95-4.08Zm-3.59,201.4c-.75.09-1.55.51-1.86,1.46-.63,1.91-.83,3.89-.34,5.86.34,1.39,1.35,2.1,2.53,1.93,1.19-.17,1.88-1.12,1.85-2.58-.03-1.35-.11-2.69.18-4.04.27-1.28-.89-2.58-2.36-2.63ZM31.01,52.1c-1.29,0-2.24.57-2.65,1.46-.45.97-.32,1.91.39,2.64.72.74,1.66,1.18,2.7.6.61-.34,1.09-.12,1.66.06,1.21.38,2.64-.69,2.95-2.13.24-1.14-.58-2.4-1.8-2.38-1.18.02-2.35.27-3.25-.25Zm-4.72-9.54c-.01,1.65,1.33,3.03,2.98,3.05,1.55.02,2.82-1.19,2.81-2.69,0-1.43-1.71-3.2-3.13-3.25-1.35-.04-2.65,1.38-2.66,2.88Zm49.11-22.81c0-1.48-1.12-2.71-2.47-2.73-1.38-.02-2.73,1.53-2.76,3.19-.03,1.34,1.16,2.54,2.5,2.52,1.52-.02,2.74-1.35,2.73-2.97Zm-15.73,1.3c-1.4-.01-2.69,1.32-2.76,2.84-.06,1.35,1.22,2.68,2.54,2.64,1.38-.04,2.57-1.35,2.56-2.82,0-1.43-1.08-2.64-2.35-2.65Zm-9.89,7.27c-.03-1.59-1.06-2.83-2.36-2.83-1.35,0-2.62,1.47-2.58,2.99.04,1.38,1.2,2.59,2.48,2.57,1.36-.02,2.49-1.28,2.46-2.73Zm5.6-.75c.04-1.25-1.51-2.68-2.93-2.7-1.22-.02-2.35,1.07-2.39,2.3-.03,1.37,1.25,2.62,2.73,2.66,1.35.04,2.55-1.01,2.58-2.26Zm9.46-5.21c1.28.04,2.56-1.17,2.6-2.46.04-1.36-1.16-2.49-2.65-2.51-1.24-.01-2.39,1.03-2.47,2.25-.09,1.29,1.2,2.68,2.52,2.72Zm4.22,213.94c-.01-1.69-1.22-3.25-2.48-3.22-1.13.03-2.1,1.13-2.1,2.39,0,1.76,1.1,3.09,2.56,3.06,1.16-.02,2.04-.99,2.03-2.24Zm10.09-218.23c-1.36.03-2.66,1.45-2.6,2.83.06,1.18,1.18,2.31,2.28,2.29,1.27-.02,2.67-1.57,2.69-2.99.02-1.13-1.14-2.16-2.38-2.13Zm22.84,122.45c.07-1.26-1.02-2.51-2.26-2.6-1.42-.1-2.47.79-2.6,2.18-.11,1.26,1.02,2.6,2.32,2.73,1.22.12,2.47-1.01,2.55-2.31ZM31.76,60.77c.01-1.33-1-2.49-2.18-2.5-1.2-.01-2.38,1.25-2.35,2.51.02,1.2,1.07,2.28,2.23,2.3,1.31.02,2.3-.96,2.31-2.31Zm48.65,130.1c.03-1.22-1.08-2.43-2.25-2.47-1.06-.03-2.08.94-2.14,2.04-.07,1.2,1.02,2.49,2.17,2.54,1.1.06,2.2-.99,2.22-2.12Zm-7.07-147.72c1.25.03,2.3-.97,2.3-2.19,0-1.13-.93-2.1-2.04-2.14-1.17-.04-2.29,1.03-2.31,2.2-.02,1.09.96,2.1,2.06,2.13Zm7.44-.98c-.03-1.11-1.06-2.06-2.16-1.99-1.11.07-2.06,1.07-2.04,2.16.02,1.12.98,1.97,2.17,1.94,1.14-.03,2.07-.99,2.04-2.1Zm-1.73-7.44c-1.11.01-2.08,1.02-2.03,2.12.04,1.12,1,1.99,2.16,1.98,1.13-.02,2.02-.85,2.05-1.92.03-1.11-1.04-2.19-2.17-2.18Zm-7.82,212.29c-.03-1.06-.96-1.95-2.02-1.94-1.1,0-1.99.89-1.98,1.96.01,1.15.97,2.1,2.08,2.05,1.06-.05,1.96-1.01,1.93-2.06Z"/><path class="cls-3" d="m37.44,73.6c.3.17.58.39.96.35.98,1.17,2.26,2.07,2.92,3.53.94,2.05,1.99,4.06,2.96,6.1.94,1.96,1.85,3.93,2.77,5.89.24.87.57,1.69,1.07,2.45.13.62.26,1.35.76,1.68,2.11,1.38,3.51,3.6,5.76,4.79,1.72,1.96,3.26,4.04,3.95,6.61.85,2.41,1.7,4.81,2.55,7.22.2.87.15,1.93.94,2.44,2.97,1.94,5.25,4.47,7,7.52,0,0-.01-.02-.01-.02,0,.24,0,.48.29.56,0,0-.01-.03-.01-.03.02.28.01.56.28.74.39,1.69.78,3.39,1.16,5.08-.91,1.47-.88,3.15-1.11,4.77-.1.71-.23,1.43-.47,2.1-.6,1.7.64,4.61,2.33,5.31.51.95,1.07,1.9,1.28,2.97.25,1.24,1.48,1.61,2.07,2.53.07.07.14.15.2.22,0,0-.03-.02-.03-.02.21,4.73.41,9.45.62,14.18-.09,4.97-.17,9.93-.26,14.9-.08,1.3,0,2.65-1.16,3.59-1.09-.1-1.57.33-1.39,1.46.09.53,0,1.1.11,1.62.14.69-.13,1.6.52,2.01.85.54.83,1.23.68,2-.27,1.34-.4,2.67-.14,4.02.09.48.17,1.2-.33,1.35-1.15.35-1.04,1.33-1.27,2.14-.37,1.26-.64,2.54-1.02,3.79-1.48,4.78-2.98,9.55-4.47,14.33-.91,2.47-1.81,4.94-2.73,7.4-.26.71-.56,1.41-.84,2.11-.45.16-.47.56-.61.95-.73,2.01-.3,4.09-.42,6.13-.08.05-.12.12-.12.21-.01.14-.03.29-.05.43-.7,3.65-.98,7.38-.85,11.05.08,2.25.93,4.56,1.39,6.85.05.26.18.53.5.59,1.4.25,1.75,1.33,2.17,2.49.66,1.83,1.47,3.6,2.23,5.39.35.83.57,1.68.73,2.59.34,1.93,1.73,3.22,3.14,4.44,2.88,2.49,6.41,3.67,9.9,4.93.6.21,1.19.42,1.78.66.69.28-.18.88-.12,1.62.07.79.88,1.18.23,1.48-.3.14-.61.21-.54.64-.01.04-.02.09-.04.13-.26.97,0,1.17-1.46,1.16-1.5,0-1.88-.29-2.02-1.3-.16-1.12-.69-1.46-1.6-1.65-1.34-.28-2.56-.93-4.07-.6-1.1.24-1.9-.7-2.4-1.69-.31-.62-.49-1.14-1.45-.92-.79.18-1.4-.49-1.91-1.11-1.37-1.67-2.24-3.62-3.04-5.6-.73-1.81-1.56-3.56-2.45-5.3-.42-.82-.9-1.04-1.71-.7-.59.25-1.21.39-1.85.41-1.84.07-3.24-1.03-3.28-2.87-.06-2.67.03-5.34.13-8.01.03-.85.23-1.71.97-2.32.4-.33.44-.76.21-1.28-.8.35-1.64.76-2.38,0-.87-.88-1.25-2.13-.73-3.14,1.69-3.29.98-6.6.56-9.98-.28-2.29.19-4.66.86-6.81,2.11-6.8,3.68-13.73,5.28-20.66.09-.4.18-.8.33-1.18.35-.94.65-1.7-.49-2.49-.99-.69-.91-1.95-.37-2.99,1.34-2.59,2.3-5.31,3.22-8.07.18-.54.42-.88-.39-1.19-1.17-.45-1.42-1.62-1.4-2.73.01-1.49.19-2.99.31-4.48.05-.63.17-1.26.22-1.89.37-4.36.39-4.39-2.98-7.02-.86-.67-1.2-1.45-1.1-2.46.17-1.67.58-3.29.99-4.92,1.04-4.13,1.07-8.22-1.01-12.1-.12-1.68-.46-3.27-1.94-4.35-.01-.16-.03-.31-.23-.33h.07c-.46-1.33-1.02-2.61-1.71-3.84l-1.18-3.67c.11-1.34-.27-2.4-1.66-2.9-.24-.09-.54-.26-.63-.47-.66-1.62-2-2.71-3.01-4.06-.31-.71-.62-1.42-.94-2.13-.09-.47-.18-.93-.27-1.4.09-.55,1.13-.95.25-1.64-1.21-2.52-1.82-5.29-3.2-7.73.16-1.32,0-2.5-1.38-3.15l-2.41-5.29c0-.39.55-1.03-.46-.96-.76.06-.96-.54-1.16-1.1-.2-.59-.37-1.19-.55-1.79.58-1.84-.77-2.64-1.91-3.55-.9-.19-1.73-.86-2.73-.43-.27-.47-.54-.93-.81-1.4-.7-1.66-1.4-3.32-2.11-4.97-.08-.19-.23-.44-.4-.5-1.46-.49-1.81-1.78-2.23-3.02-.94-2.79-1.47-5.67-1.77-8.59-.12-1.19.06-2.34.82-3.33,1.29-1.54,3.08-2.12,4.95-2.53.18.01.36.02.45-.18,0,0-.03.03-.03.03.61.07,1.16-.19,1.71-.39,1.37-.49,2.74-.95,4.23-.78Zm-4.65,10.25c1.91-1.65,2.31-2.84,1.54-4.53-.51-1.1-1.91-1.96-2.95-1.81-1.32.19-2.25,1.19-2.52,2.69-.28,1.56.47,2.86,2.15,3.75-1.72,1.4-2.11,2.4-1.52,3.89.61,1.54,1.82,2.33,3.36,2.21,1.21-.1,2.26-1.02,2.47-2.17.29-1.59-.56-2.95-2.53-4.02Zm24.78,46.56c-1.5.82-1.86,1.54-1.53,3.02.24,1.08.92,1.82,2.01,1.94,1.08.12,1.98-.4,2.38-1.43.65-1.69-.43-2.69-1.75-3.6,1.18-.85,2.28-1.69,1.65-3.25-.43-1.06-1.34-1.65-2.46-1.57-1,.07-1.8.65-2.1,1.67-.39,1.32.08,2.15,1.8,3.22Zm.29,102.3c-.4.28-.72.46-.98.69-.92.83-.97,2.27-.12,3.16.74.78,2.15.77,2.95-.02.88-.86.84-2.29-.08-3.16-.16-.15-.38-.24-.57-.37-.41-.28-.4-.5.05-.79,1.42-.92,1.75-2.51.93-4.06-.4-.76-1.01-1.19-1.86-1.11-.84.09-1.54.47-1.87,1.35-.6,1.59-.12,3.02,1.56,4.29Zm13.85-60.69c.03-1.56-1.67-2.59-3.07-1.84-1.05.57-1.98,1.3-3.28,1.44-1.18.13-1.75,1.5-1.36,2.66.35,1.04,1.69,1.76,2.65,1.17,1.21-.74,2.61-.92,3.81-1.63.74-.44,1.14-.99,1.25-1.8Zm-31.49-67.93c.02,1.9,1.34,3.39,3,3.37,1.43-.02,2.71-1.47,2.68-3.05-.04-2.07-1.06-3.45-2.53-3.4-2.07.07-3.18,1.15-3.15,3.08Zm21.81,113.03c.07-1.96-.46-2.82-1.69-3.01-1.21-.19-2.27.69-2.58,2.24-.2.97-.36,1.96-.37,2.94,0,.97.51,1.77,1.49,2.02,1.01.26,1.86-.06,2.4-1.04.59-1.06.64-2.24.74-3.15Zm-23.74-133.39c-1.56.01-2.62,1.03-2.6,2.51.02,1.64,1.49,3.19,2.97,3.13,1.33-.05,2.65-1.46,2.64-2.81-.01-1.58-1.37-2.85-3.01-2.84Zm28.38,75.38c0-1.8-1.09-3.16-2.53-3.13-1.44.02-2.89,1.3-2.9,2.55,0,1.34,1.67,2.71,3.38,2.77,1.19.04,2.05-.88,2.05-2.19Zm-30.65-61.52c1.21-.01,2.3-1.14,2.31-2.39,0-1.63-1.2-3.22-2.45-3.25-1.31-.03-2.67,1.4-2.63,2.76.04,1.38,1.5,2.89,2.78,2.88Zm26.57,49.67c-1.09-.01-2.22,1.19-2.21,2.34.01,1.43,1.31,2.83,2.6,2.8,1.19-.02,2.49-1.27,2.53-2.42.03-1.19-1.6-2.72-2.92-2.73Zm-12.82-48.2c.02-1.29-1.1-2.45-2.4-2.47-1.2-.02-2.4,1.19-2.44,2.46-.03,1.13,1.29,2.39,2.51,2.4,1.18,0,2.31-1.16,2.33-2.39Zm9.99,25.6c1.28.02,2.39-1.08,2.43-2.42.04-1.13-1.06-2.21-2.3-2.25-1.35-.05-2.53,1.05-2.5,2.32.02,1.17,1.19,2.33,2.37,2.35Zm-10.3,2.03c-.06,1.13,1.27,2.78,2.29,2.84,1.18.06,2.32-1.05,2.38-2.31.06-1.29-1.07-2.51-2.33-2.54-1.21-.02-2.28.9-2.34,2.02Zm-.1-21.18c-1.4,0-2.38.97-2.36,2.38.01,1.3.92,2.26,2.17,2.3,1.32.04,2.53-1.17,2.49-2.5-.04-1.27-.98-2.17-2.29-2.18Zm-1.69,9.54c-1.24-.02-2.2.86-2.22,2.06-.02,1.2,1.17,2.34,2.39,2.32,1.03-.02,2.08-1.09,2.1-2.13.02-1.13-1.09-2.22-2.27-2.24Zm18.15,78.4c0-1.05-1.04-2.04-2.15-2.05-1.01,0-2.1,1.08-2.11,2.12-.01,1.06,1.02,2.1,2.09,2.11,1.13,0,2.17-1.04,2.16-2.18Zm-.3,9.04c-.01-1.03-1.05-2.08-2.09-2.1-1.01-.03-2.16,1.07-2.16,2.05,0,1.17.99,2.06,2.26,2.03,1.06-.02,2.01-.96,2-1.98Zm-8.42,47.05c0,1.16.86,2.05,2.01,2.08,1.32.03,2.13-.76,2.12-2.07-.01-1.11-.96-2.05-2.06-2.06-1.11,0-2.06.94-2.07,2.05Zm5.29-44.03c-1.22-.01-1.99.71-2.01,1.88-.02,1.18.75,1.97,1.93,1.96,1.18,0,1.91-.76,1.92-1.97,0-1.17-.67-1.86-1.83-1.87Z"/><path class="cls-5" d="m52.68,135.84c.39,1.22.79,2.44,1.18,3.67,0,.59.03,1.18-.02,1.77-.13,1.3.52,1.91,1.73,2.07,0,0-.07,0-.07,0,.08.11.16.22.23.33,1.48,1.08,1.81,2.67,1.94,4.35-1.51,1.15-3.15,1.29-4.96.85-.91-.22-1.7.22-2.05,1.17-.65,1.73-1.73,2.99-3.21,4.21-1.4,1.14-2.26,3.01-3.31,4.58-1.3,1.95-3.05,3.27-5.05,4.34-1.94,1.03-3.22.51-4.67-1.16-2.59-2.99-2.58-6.77-3.37-10.27-.59-2.62-.52-5.36-1.92-7.81-1.14-2-.71-4.41-1.4-6.56-.11-.34-.09-.68-.39-.96-2.42-2.2-4.98-4.18-7.94-5.63-4.77-2.34-8.21-6.01-10.56-10.73-2.09-4.19-1.12-9.99,2.36-13.07,1.99-1.76,4.62-2.19,7.18-2.51.91-.11,1.65-.33,2.28-1,2.24-2.38,4.97-4.05,7.94-5.34.79-.35,1.6-.26,2.4-.17.31.03.6.26.84-.12.27.47.54.93.81,1.4-.62.07-1.09.41-1.54.8-.93.79-1.79,1.71-2.82,2.34-3.5,2.14-6.67,4.85-10.76,5.96-1.25.34-1.8,1.56-1.47,2.68.31,1.03,1.32,1.57,2.61,1.39,1.36-.18,2.7-.54,3.86-1.22,3.78-2.22,7.67-4.25,11.12-7.03,1.59-1.28,2.59-2.43,1.74-4.49,1.14.91,2.49,1.71,1.91,3.55-.89.1-1.43.72-1.96,1.34-1.39,1.64-3.04,2.95-4.92,4.02-2.06,1.17-4.24,2.04-6.4,2.95-.75.32-1.52.61-2.08,1.25-.71.81-.87,1.72-.26,2.61.59.86,1.42,1.25,2.48.81.75-.31,1.5-.62,2.26-.91,4.91-1.85,9.61-4.03,13.04-8.23.8,1.76,1.61,3.52,2.41,5.29-2.56.08-4.35,1.64-6.01,3.29-.89.88-.63,2.22.26,3.05.81.76,2.2.87,2.94.02,1.01-1.17,2.44-1.7,3.61-2.6.1.91.21,1.81.31,2.72-2.51-.15-3.7,1.82-5.14,3.31-.81.84-.71,1.95.15,2.81.87.87,1.89.82,2.81.08,1.23-.98,2.52-1.92,3.44-3.25.7.54,1.38,1.1,2.21,1.45.88.7-.16,1.1-.25,1.64-.84-.24-1.51-1.15-2.5-.74-1.89.78-3.68,1.76-5.17,3.16-.87.81-.88,1.89-.12,2.82.73.9,1.7.97,2.69.43.99-.54,1.94-1.17,2.94-1.7,1.12-.59,2-1.36,2.43-2.58.31.71.62,1.42.94,2.13-3.58,3.79-7.16,7.58-10.75,11.37-.44.46-.86.93-1.06,1.56-.43,1.37.39,2.58,1.82,2.67,1.64.1,1.72.23.98,1.83-.51,1.09-.36,2.06.6,2.79.94.71,1.94.54,2.71-.26,3.86-4.01,8.17-7.62,11-12.53Zm-20.04-6.1c.36.02.72.08,1.08.06,1.26-.06,2.16-1.06,2.05-2.23-.12-1.19-1.38-2.42-2.43-2.36-1.13.06-2.26,1.32-1.96,2.47.29,1.1.01,1.29-1.02,1.29-1.16,0-1.64.88-1.7,1.91-.06,1.03.84,1.87,1.89,1.9,1.54.04,2.11-.8,2-2.95.04-.03.07-.07.1-.1Zm5.56,29.71c1.68,0,2.49-.62,2.79-2.15.5-2.51-.86-4.66-3.36-5.2-.79-.17-1.23-.27-1.02-1.34.22-1.17-1.16-2.46-2.56-2.73-1.09-.21-2.16.39-2.5,1.39-.39,1.18.26,2.75,1.41,3.39.2.11.42.17.63.23.51.16.67.37.51.99-.83,3.15.91,5.42,4.1,5.42Zm-15.38-40.62c.02-1.47-1.07-2.67-2.45-2.7-1.57-.03-2.74.96-2.77,2.36-.03,1.39,1.36,2.85,2.73,2.87,1.33.02,2.46-1.13,2.48-2.53Zm-6.89-4.32c.03-1.39-1.25-2.8-2.58-2.86-1.26-.05-2.46,1.29-2.46,2.75,0,1.27,1.26,2.51,2.56,2.54,1.19.02,2.45-1.21,2.48-2.43Zm15.73,3.04c-1.2-.02-2.29,1.09-2.33,2.37-.04,1.29,1.14,2.62,2.4,2.67,1.28.06,2.62-1.13,2.69-2.39.07-1.26-1.35-2.63-2.76-2.65Z"/><path class="cls-6" d="m93.34,171.72c-.91-2.18,1.14-2.69,2.19-3.65,1.02-.93,2.24-1.63,3.06-2.81.7-1,.39-2.3,1.09-3.28,2.1-3.74,2.15-7.98,2.93-12.04l-.02.03c.34-.07.29-.33.29-.57l-.02.03c.32-.08.34-.31.29-.58l-.02.03c.4.03.46-.3.57-.56l-.02.03c.91-.92,2.01-1.53,3.25-1.87.52-.73,1.1.15,1.64-.06.04.12.04.3.12.35,2.54,1.67,2.85,2.58,1.87,5.47-.68,2.01-1.68,3.87-2.77,5.68-.27.45-.15.5.26.52-.47,1.29-1.5,2.34-2.34,3.19-1.59,1.59-1.94,3.51-2.54,5.41-1.65,2.28-1.19,4.26-2.48,6.12-.45.65-.6,1.39-.55,2.19.15,2.24-.15,4.41-1.17,6.44-.13.27-.17.61-.18.91-.05,1.02-.52,1.8-1.5,2.01-.97.21-1.79-.31-2.24-1.16-.71-1.35-1.3-2.76-1.95-4.15-.01-.11-.02-.22-.03-.32.15-.09.38-.15.43-.28.81-2.42.16-4.92.31-7.38,0-.14-.19.37-.46.31Zm12.47-23.11c-1.59.02-2.58,1.45-2.17,3,.19.73.29,1.22-.48,1.78-.95.67-1.11,1.72-.47,2.77.53.88,1.33,1.18,2.31.91,1.15-.32,1.58-1.17,1.44-2.28-.09-.75.03-1.2.76-1.62.89-.51,1.21-1.46.85-2.47-.4-1.11-1.08-1.98-2.23-2.09Z"/><path class="cls-1" d="m138.27,227.31c.63,1.09.74,2.31.8,3.51.11,1.99.07,3.98-.11,5.96-.13,1.41-.47,2.72-1.32,3.87-1.31-.84-2.1-.67-2.88.65-.62,1.06-.98,2.22-1.13,3.44-.22,1.86.68,3.53,2.96,2.95-.5,1.59-.72,3.22-2.22,4.43-.87.69-1.19,2.07-1.77,3.13-.28.51-.58,1-.88,1.5-.8-1.16-1.88-1.74-3.3-1.65,1.38-2.52,2.34-5.25,4.17-7.56.97-1.22.77-3.04,1.01-4.59.39-2.59.71-5.2.89-7.82.08-1.25.97-1.96,1.42-2.95,1.74.06,2.34-.47,2.38-2.15.02-.9,0-1.81-.01-2.72Z"/><path class="cls-1" d="m108.18,212.18c1.02-1.01,2.31-1.54,3.63-1.98,1.97-.65,2.69-.43,4.05,1.22.9-1.92,2.45-1.8,4.11-1.34-1.31,1.11-1.82,2.43-1.02,4.07-3.11.48-6.01,1.57-8.77,3.05-2.52,1.35-4.06,3.5-4.95,6.16-1.35-.13-2.48.67-3.76.86-.4-.51-.49-1.14-.21-1.66,1.23-2.3,1.89-4.88,3.41-7.04.31-.43.57-.92,1.1-1.15.08.44.11.9.25,1.32.65,2.1,2.22,2.47,3.74.88.34-.36.62-.77.93-1.16,1.04-1.34.52-2.8-1.15-3.15-.44-.09-.9-.06-1.35-.08Z"/><path class="cls-1" d="m133.15,225.1c-.85.14-1.43-.31-1.75-1-1.37-2.96-3.77-4.66-6.76-5.71-.88-.31-1.78-.68-2.47-1.38,2.3-.03,3.25-.99,3.29-3.34.81.18,1.46.68,2.18,1.03.94.46,1.69,1.37,2.91,1.23.22-.03.52.19.69.38,1.77,2.02,3.57,4.01,4.84,6.41-2.96-.06-3.08.04-2.93,2.38Z"/><path class="cls-1" d="m112.41,238.46c-1.05.59-2.18.41-3.15-.03-3.32-1.51-6.9-2.8-7.72-7.07,1.68.68,3.23.62,4.54-.8,1.09.32,2.13.78,3.1,1.37,1.68,1.01,3.41,1.87,5.44,1.85-3.21.79-3.92,2.29-2.21,4.7Z"/><path class="cls-1" d="m116.13,266.73c2.75-2.38,5.67-4.53,8.72-6.51.4,1.63,1.35,2.58,3.11,2.54-.71,1.06-1.86,1.84-1.89,3.32-.01.5-.51.84-.94,1.11-1.77,1.11-3.62,2.05-5.62,2.68.19-1.39-.36-2.3-1.69-2.81-.56-.21-1.13-.23-1.7-.34Z"/><path class="cls-6" d="m63.93,54.3c1.52-1.87,2.26-1.98,4.33-.68.84.53,1.73.99,2.57,1.51.33.21.63.27,1.02.15,1.18-.38,2.05.14,2.64,1.11.55.91.62,1.91-.04,2.81-.72.98-1.71,1.45-2.95,1.22-1-.18-1.83-.73-2.67-1.27-.78-.5-1.43-1.28-2.47-1.29,0,0,.01.02.01.02-.08-.09-.15-.18-.23-.27-1.33-.71-2.35-1.62-2.22-3.31Z"/><path class="cls-1" d="m101.47,270.68c1.83-.86,3.86-.69,5.78-1.1,1.97-.43,3.97-.71,5.95-1.05-.29.42-.68.63-1.18.79-1.19.37-1.44,1.66-.5,2.53.36.33.8.56,1.2.84-2.81,1.45-5.91,1.82-8.96,2.33-1.11.19-2.22.34-3.34.52.11-.46.44-.76.75-1.09,1.36-1.47,1.42-2.13.3-3.76Z"/><path class="cls-3" d="m101.65,269.45c1.12,1.63,1.06,2.28-.3,3.76-.3.33-.64.63-.75,1.09-.16.5-.51.85-.98,1.05-1.93.83-6-1.41-6.31-3.52.09-1.08.02-2.28,1.3-2.9.72,0,1.48.05,2.04.46.98.72,1.77.57,2.57-.2.84-.19,1.65-.11,2.42.25Z"/><path class="cls-6" d="m128.15,81.02c-1.24,0-2.28-.48-3.13-1.38-.65-.69-.87-1.51-.58-2.38.28-.85,1-1.26,1.86-1.36.41-.05.75-.03,1-.49,1.07-1.96,2.31-2.25,4.13-.98.48.33.9.74,1.35,1.11.17,1.57-.22,2.76-1.99,3.08-.58.11-.45.83-.87,1.11-.61.41-.89,1.27-1.78,1.3Z"/><path class="cls-3" d="m128.25,262.15c-1.76.03-2.71-.92-3.11-2.54.02-2.52,1.38-4.11,3.57-5.12,1.42-.08,2.5.49,3.3,1.65.25,2.72-1.24,5.11-3.75,6.01Z"/><path class="cls-6" d="m106.69,68.08c.53-2.59,2.1-4.66,3.53-6.77.57-.84,1.64-1.13,2.66-.48.95.61,1.34,1.54.88,2.57-1.03,2.3-2.19,4.53-4.05,6.3-1.38.16-2.49-.19-3.02-1.62Z"/><path class="cls-3" d="m106.08,230.85c-1.31,1.43-2.85,1.49-4.54.8-.88-1.06-.99-2.26-1-3.63,0-1.19,0-2.13,1-2.86,1.27-.19,2.41-.99,3.76-.86.17.14.51.32.49.41-.55,2.08,1.41,4.04.29,6.13Z"/><path class="cls-3" d="m112.73,271.72c-.4-.28-.85-.51-1.2-.84-.93-.86-.69-2.15.5-2.53.5-.16.89-.37,1.18-.79,1-.55,1.65-1.68,2.92-1.79.56.11,1.13.13,1.7.34,1.33.5,1.88,1.42,1.69,2.81-1.8,2.06-3.74,3.79-6.79,2.8Z"/><path class="cls-5" d="m94.97,62.51c0-.83.43-1.45.99-2,.96-.95,1.91-1.93,2.89-2.86,1.18-1.13,2.47-1.24,3.36-.34.94.95.94,2.2-.2,3.37-1.25,1.29-2.63,2.46-3.96,3.68-2.19.12-2.47-.05-3.09-1.85Z"/><path class="cls-3" d="m133.59,224.02c-.15-2.35-.03-2.45,2.93-2.38,0,0,0,0,0,0,.08.1.17.21.25.31.88.99,1.5,2.12,1.74,3.44-.06.32-.11.64.21.88,0,0,0-.02,0-.02,0,.91.03,1.81.01,2.72-.04,1.68-.64,2.21-2.38,2.15-.61-.56-.96-1.19-.66-2.05.09-.25.2-.6-.05-.77-1.52-1.03-1.58-2.74-2.05-4.27Z"/><path class="cls-6" d="m111.03,54.56c.12,2.05-.79,3.78-1.82,5.42-.62.99-1.71,1.26-2.75.7-.96-.52-1.34-1.49-.97-2.55.49-1.4,1.04-2.78,1.63-4.15.48-1.11,1.6-1.1,2.58-1.29.66.47,1.21,1.01,1.32,1.87Z"/><path class="cls-3" d="m125.46,213.67c-.04,2.34-.99,3.31-3.29,3.34-1.05-.64-2.1-1.27-3.15-1.91-.79-1.64-.29-2.96,1.02-4.07,2.22-.54,3.78.22,5.42,2.65Z"/><path class="cls-6" d="m120.02,62.92c-.36,1.11-.65,2.25-1.09,3.33-.61,1.46-1.83,2.03-2.99,1.54-1.13-.47-1.51-1.62-1.07-3.09.43-1.44.84-2.88,1.26-4.33,2.91-.18,3.39.13,3.9,2.54Z"/><path class="cls-6" d="m129.29,67.96c.4,2.23-.73,3.91-2.06,5.46-.69.8-1.67.91-2.57.31-.92-.62-1.27-1.55-.81-2.59.56-1.27,1.24-2.49,1.87-3.73,1.78-.87,2.47-.76,3.57.55Z"/><path class="cls-3" d="m136.59,247.7c-2.27.58-3.18-1.09-2.96-2.95.14-1.22.5-2.38,1.13-3.44.78-1.32,1.57-1.49,2.88-.65,1.43,2.61.32,4.85-1.05,7.04Z"/><path class="cls-6" d="m117.23,74.53c0-1.55.84-2.75,1.72-3.9.72-.94,2.03-1.16,2.91-.55,1,.7,1.19,1.68.69,2.75-.3.65-.68,1.29-1.12,1.86-.36.46-.52.93-.49,1.49-1.41.14-2.58-.29-3.45-1.43-.09-.08-.18-.16-.27-.24h.01Z"/><path class="cls-3" d="m112.41,238.75c-1.71-2.4-1-3.91,2.21-4.7.34.03.68.06,1.02.09.37.51.75.98,1.45,1.08.74.1,1.05.6,1.06,1.32.01.72-.31,1.19-.99,1.42-.5.17-1,.34-1.5.51-1.04.63-2.12.83-3.26.29Z"/><path class="cls-3" d="m108.29,212.37c.83.04,1.69-.1,2.36.7s.58,1.9-.02,2.7c-.25.33-.49.66-.77.96-.74.79-2.11.89-2.98.27s-.88-1.57-1.03-2.44c0,0,0,.01,0,.01.18-.04.25-.17.23-.34.5-.88,1.26-1.45,2.17-1.85.01,0,.03,0,.04,0Z"/><path class="cls-1" d="m115.67,238.47c.5-.17,1-.33,1.5-.51.67-.23,1-.7.99-1.42-.01-.72-.33-1.22-1.06-1.32-.7-.09-1.08-.56-1.45-1.08,1.51-.2,2.8-1.14,4.34-1.27,1.01-.09,1.85.1,2.21,1.09.37,1.02-.14,1.78-1.09,2.16-.98.4-1.74,1.11-2.62,1.66-.87.55-1.76.91-2.81.68Z"/><path class="cls-3" d="m108.04,158.43c-.41-.02-.53-.07-.26-.52,1.09-1.81,2.09-3.67,2.77-5.68.98-2.89.67-3.8-1.87-5.47-.08-.05-.08-.23-.12-.35,1.11-.26,1.96.03,2.41,1.14.07.16.12.38.25.46,2.12,1.38,1.6,3.23.81,5.03-.91,2.09-2.36,3.82-4,5.39Z"/><path class="cls-3" d="m106.93,146.47c-1.24.34-2.34.95-3.25,1.87.01-.28.03-.55.04-.83.46-.27.85-.6,1.07-1.09.71.02,1.43.04,2.14.06Z"/><path class="cls-1" d="m138.28,227.33c-.32-.23-.27-.55-.21-.88.27.24.28.55.21.88Z"/><path class="cls-1" d="m66.15,57.61c.08.09.15.18.23.27-.08-.09-.15-.18-.23-.27Z"/><path class="cls-1" d="m106.06,214.98c.02.18-.05.3-.23.34.08-.11.15-.23.23-.34Z"/><path class="cls-1" d="m136.33,223.02c-.08-.1-.17-.21-.25-.31.19.02.26.13.25.31Z"/><path class="cls-1" d="m117.01,74.75c.09.08.18.16.27.24-.09-.08-.18-.16-.27-.24Z"/><path class="cls-5" d="m95.56,109.36c.01,1.28-.72,2.3-1.93,2.65-1.27.37-2.92-.22-3.51-1.44-1.02-2.11-2.63-3.5-4.59-4.79-3.66-2.42-6.56-5.71-8.86-9.46-1.13-1.85-.95-3.66.21-4.61,2.12-1.75,3.86-1.91,5.74-.3,2.36,2.01,4.08,4.61,6.02,7,1.59,1.96,3.31,3.84,3.97,6.42.23.88,1.04,1.57,1.78,2.19.72.61,1.19,1.36,1.16,2.36Z"/><path class="cls-6" d="m95.01,37.44c2.41.09,3.97,1.35,5.22,3.05,1.39,1.88,2.3,4,2.78,6.29.3,1.41-.47,2.66-1.82,3.04-1.09.31-2.25-.34-2.74-1.64-.62-1.65-.99-3.37-2.01-4.87-.69-1.01-1.44-1.23-2.54-.77-2.65,1.11-3.47,3.4-3.84,5.95-.09.63-.07,1.28-.38,1.84-.51.9-1.36,1.2-2.32.99-1.07-.23-1.54-1.05-1.68-2.06-.46-3.59,2.09-8.59,5.29-10.38,1.31-.73,2.67-1.34,4.03-1.44Z"/><path class="cls-6" d="m53.46,87.88c-.84-.39-1.38-.97-1.76-1.59-1.35-2.17-2.89-4.26-3.41-6.85-.06-.31-.17-.61-.3-.9-.29-.65-.82-1.31.14-1.85.86-.49,1.72-.52,2.52.15,2.24,1.86,4.25,3.93,5.88,6.35.47.69.89.94,1.77.7,1.58-.44,3.4.96,3.89,2.81.38,1.44-.36,2.89-1.74,3.4-1.13.42-2.06.02-2.83-.76-.66-.68-1.21-1.46-1.8-2.2-.44-.56-.76-1.35-1.66-1.14-.95.23-.46,1.14-.72,1.89Z"/><path class="cls-6" d="m97.4,155.61c-.14,1.56-.19,3.05-.59,4.5-.35,1.26-1.06,2.25-2.46,2.38-1.41.13-2.11-.79-2.54-2-.1-.28-.15-.55-.52-.72-2.46-1.16-3.37-3.28-2.68-6.1.62-2.53,2.37-3.45,4.77-2.52.16.06.34.13.51.14,2.63.09,2.96.37,3.34,2.91.07.49.11.98.15,1.41Z"/><path class="cls-6" d="m100.38,129.02c.04.85,0,2.16-.28,3.45-.34,1.53-1.46,2.53-2.67,2.43-1.34-.12-2.27-1.24-2.23-2.92.07-2.99-.38-5.95-.51-8.93-.02-.45-.04-.91-.04-1.36-.01-2.19.72-3.43,2.11-3.59,1.29-.15,2.52,1.03,2.94,3.04.51,2.44.66,4.93.67,7.89Z"/><path class="cls-6" d="m50.59,62.31c-1.02,1.05-1.98,1.66-3.26,1-1.06-.55-1.51-1.75-1.22-3.31.13-.71.24-1.44.52-2.1.76-1.78,2.96-2.01,4-.39.43.67.74.66,1.39.4,1.39-.55,2.59,0,2.96,1.43.61,2.34.6,4.75.38,7.15-.1,1.05-.77,1.76-1.85,1.87-1.01.1-1.67-.46-2.17-1.32-.82-1.42-.64-2.98-.75-4.72Z"/><path class="cls-6" d="m69.37,43.43c-.06.37-.09.83-.22,1.25-.5,1.6-1.35,3.05-.66,4.93.41,1.12-.64,2.1-1.85,2.46-1,.3-2.32-.46-2.98-1.68-.57-1.06-.55-2.15.36-2.98.55-.49.85-.87.49-1.58-.11-.22-.13-.56-.05-.8.78-2.24-.23-4.16-1.05-6.11-.21-.5-.47-1.02-.48-1.54,0-.9.37-1.69,1.31-2.03.95-.34,1.9-.18,2.43.67,1.39,2.24,2.45,4.64,2.7,7.4Z"/><path class="cls-6" d="m38.82,36.93c-.39.77-.58,1.6-1.27,2.11-.56.41-.08.67.11,1,.94,1.6.26,3.74-1.36,4.17-.91.24-1.84.17-2.48-.65-.66-.84-.94-1.84-.3-2.77.57-.82.63-1.3-.22-2.04-1.11-.97-1-2.81,0-3.95,1.17-1.32,2.86-1.68,4.12-.87.39.25.66.93,1.25.08.95-1.37,2.1-1.56,3.23-.74,1.1.8,1.43,2.31.74,3.37-.7,1.07-2.06,1.31-3.35.58-.15-.08-.3-.17-.48-.27Z"/><path class="cls-6" d="m71.23,208.17c.14-1.6.6-3.44,1.11-5.27.35-1.24,1.21-2.05,2.51-2.17.65-.06.79-.41.95-.91.52-1.55,1.78-2.3,2.96-1.8,1.25.53,1.68,2.11.89,3.49-.3.52-.52,1-.53,1.63-.01.71-.38,1.44-1.03,1.65-1.46.48-1.57,1.71-1.88,2.87-.15.57-.24,1.16-.45,1.7-.51,1.32-1.62,2.03-2.69,1.77-1.21-.29-1.85-1.21-1.83-2.96Z"/><path class="cls-6" d="m51.36,38.96c-.05.17-.08.4-.18.6-1.62,3.4-3.91,6.1-7.74,7.06-1.08.27-1.96-.15-2.43-1.23-.47-1.09-.18-2.54.97-2.9,2.59-.81,4.05-2.72,5.49-4.78.6-.86,1.58-1.07,2.57-.73.87.3,1.16,1.08,1.32,1.98Z"/><path class="cls-6" d="m83.79,175.77c.04-1.48.33-3.17,1.09-4.74.72-1.47,2.03-2.07,3.17-1.53.55.26,1.05.65,1.14,1.26.34,2.32.62,4.65-.24,6.94-.63,1.67-1.58,2.43-2.95,2.25-1.34-.18-2.16-1.32-2.21-3.12,0-.27,0-.54,0-1.07Z"/><path class="cls-6" d="m28.67,73.14c-1.67-.05-2.8-1.45-2.63-3.27.16-1.78,1.69-3.28,3.21-2.94.8.18,1.04,0,1.42-.65.58-.99,1.58-1.36,2.7-.95,1.06.39,1.57,1.23,1.41,2.35-.17,1.15-.92,2-2.05,2-.91,0-.98.43-1.17,1.04-.47,1.52-1.61,2.47-2.89,2.43Z"/><path class="cls-6" d="m72.4,13.94c.03,2.02-1.94,4.06-3.95,4.08-1.68.02-3.35-1.68-3.39-3.45-.05-1.99,1.85-4.09,3.74-4.12,1.93-.03,3.57,1.55,3.6,3.48Z"/><path class="cls-2" d="m66.94,211.79c1.49-4.78,3-9.55,4.47-14.33.39-1.25.66-2.53,1.02-3.79.23-.81.12-1.78,1.27-2.14.5-.15.42-.87.33-1.35-.25-1.36-.12-2.69.14-4.02.15-.76.17-1.45-.68-2-.65-.41-.38-1.32-.52-2.01-.11-.53-.02-1.09-.11-1.62-.19-1.13.3-1.57,1.39-1.46.21,2.65.11,5.32.96,7.9.2.61.27,1.42.04,2-.8,2.09-1.17,4.3-2.01,6.39-1.34,3.35-2.65,6.73-3.55,10.23-.21.81.21,1.58,0,2.42-.42,1.65-1.24,2.96-2.77,3.77Z"/><path class="cls-6" d="m68.82,215.34c1.47.05,2.63,1.36,2.36,2.63-.29,1.35-.21,2.69-.18,4.04.03,1.46-.66,2.41-1.85,2.58-1.18.17-2.19-.54-2.53-1.93-.48-1.98-.28-3.95.34-5.86.31-.95,1.11-1.37,1.86-1.46Z"/><path class="cls-6" d="m31.01,52.1c.9.53,2.06.27,3.25.25,1.22-.03,2.04,1.24,1.8,2.38-.3,1.44-1.74,2.51-2.95,2.13-.57-.18-1.04-.4-1.66-.06-1.03.58-1.97.14-2.7-.6-.72-.73-.84-1.67-.39-2.64.42-.89,1.36-1.47,2.65-1.46Z"/><path class="cls-2" d="m47.05,89.47c-.92-1.96-1.83-3.93-2.77-5.89-.98-2.04-2.03-4.04-2.96-6.1-.66-1.46-1.95-2.35-2.92-3.53,2.22-.11,3.27,1.03,4.28,3.01,1.51,2.97,3.61,5.63,4.18,9.04.19,1.16.39,2.31.59,3.47-.13,0-.26,0-.4,0Z"/><path class="cls-6" d="m26.29,42.56c.01-1.51,1.32-2.92,2.66-2.88,1.41.04,3.12,1.81,3.13,3.25,0,1.5-1.26,2.71-2.81,2.69-1.65-.02-2.99-1.4-2.98-3.05Z"/><path class="cls-6" d="m75.41,19.75c0,1.62-1.22,2.96-2.73,2.97-1.34.02-2.53-1.18-2.5-2.52.03-1.65,1.38-3.21,2.76-3.19,1.36.02,2.46,1.25,2.47,2.73Z"/><path class="cls-6" d="m59.68,21.05c1.27.01,2.34,1.22,2.35,2.65,0,1.47-1.18,2.79-2.56,2.82-1.33.04-2.6-1.29-2.54-2.64.06-1.51,1.36-2.85,2.76-2.84Z"/><path class="cls-6" d="m49.79,28.33c.03,1.45-1.11,2.71-2.46,2.73-1.28.02-2.44-1.19-2.48-2.57-.04-1.52,1.24-2.99,2.58-2.99,1.3,0,2.33,1.24,2.36,2.83Z"/><path class="cls-6" d="m55.4,27.57c-.04,1.25-1.23,2.3-2.58,2.26-1.48-.04-2.76-1.29-2.73-2.66.03-1.23,1.16-2.33,2.39-2.3,1.42.03,2.96,1.45,2.93,2.7Z"/><path class="cls-6" d="m64.85,22.37c-1.32-.04-2.61-1.44-2.52-2.72.08-1.22,1.23-2.26,2.47-2.25,1.49.02,2.69,1.15,2.65,2.51-.04,1.29-1.32,2.5-2.6,2.46Z"/><path class="cls-6" d="m69.07,236.3c0,1.25-.87,2.22-2.03,2.24-1.46.03-2.57-1.3-2.56-3.06,0-1.27.97-2.36,2.1-2.39,1.26-.03,2.47,1.53,2.48,3.22Z"/><path class="cls-6" d="m79.16,18.07c1.24-.03,2.39,1.01,2.38,2.13-.02,1.41-1.42,2.97-2.69,2.99-1.11.02-2.23-1.11-2.28-2.29-.06-1.37,1.24-2.79,2.6-2.83Z"/><path class="cls-6" d="m102,140.52c-.08,1.3-1.33,2.43-2.55,2.31-1.29-.13-2.43-1.47-2.32-2.73.13-1.39,1.18-2.28,2.6-2.18,1.25.09,2.34,1.34,2.26,2.6Z"/><path class="cls-6" d="m31.76,60.77c-.01,1.35-1,2.34-2.31,2.31-1.16-.02-2.2-1.1-2.23-2.3-.03-1.26,1.15-2.53,2.35-2.51,1.18.01,2.19,1.17,2.18,2.5Z"/><path class="cls-2" d="m71.54,140.71c-1.69-.7-2.93-3.61-2.33-5.31.24-.67.37-1.39.47-2.1.23-1.63.2-3.31,1.11-4.77.39,1.18.19,2.41.21,3.61.04,2.87-.15,5.75.54,8.58Z"/><path class="cls-6" d="m80.41,190.86c-.02,1.13-1.12,2.18-2.22,2.12-1.15-.06-2.24-1.34-2.17-2.54.06-1.11,1.08-2.08,2.14-2.04,1.17.04,2.28,1.25,2.25,2.47Z"/><path class="cls-2" d="m75.43,175.48c.09-4.97.17-9.93.26-14.9.15,0,.29,0,.44,0,.59,3.99.61,8.01.63,12.03,0,1.25-.28,2.18-1.32,2.86Z"/><path class="cls-6" d="m73.34,43.14c-1.1-.03-2.08-1.04-2.06-2.13.02-1.17,1.14-2.24,2.31-2.2,1.11.03,2.04,1.01,2.04,2.14,0,1.23-1.04,2.22-2.3,2.19Z"/><path class="cls-6" d="m80.78,42.17c.03,1.11-.9,2.07-2.04,2.1-1.2.03-2.15-.82-2.17-1.94-.02-1.08.93-2.09,2.04-2.16,1.1-.07,2.13.88,2.16,1.99Z"/><path class="cls-6" d="m79.05,34.72c1.13-.01,2.2,1.06,2.17,2.18-.03,1.07-.92,1.91-2.05,1.92-1.16.02-2.11-.86-2.16-1.98-.04-1.1.92-2.11,2.03-2.12Z"/><path class="cls-6" d="m71.23,247.01c.03,1.05-.87,2.02-1.93,2.06-1.11.05-2.07-.9-2.08-2.05,0-1.07.89-1.95,1.98-1.96,1.06,0,1.99.88,2.02,1.94Z"/><path class="cls-2" d="m54.65,98.38c-2.25-1.19-3.65-3.41-5.76-4.79-.5-.33-.63-1.06-.76-1.68.07-.08.14-.15.22-.23.84,1.07,1.92,1.79,3.26,2.01.98.16,1.46.68,1.68,1.62.25,1.1,1.3,1.86,1.36,3.06Z"/><path class="cls-5" d="m69.09,122.18c-1.75-3.05-4.03-5.59-7-7.52-.79-.52-.75-1.58-.94-2.45.1-.13.2-.26.29-.39.96,2.26,2.68,3.88,4.75,4.99,2.26,1.21,2.53,3.26,2.9,5.37Z"/><path class="cls-3" d="m102.6,149.94c-.77,4.06-.83,8.3-2.93,12.04.13-2.91.77-5.73,1.55-8.52.12-.43.37-.83.28-1.31.32-.21.25-.54.28-.84,0,0-.01.03-.01.03.28-.47.55-.93.83-1.4Z"/><path class="cls-5" d="m76.13,160.59c-.15,0-.29,0-.44,0-.21-4.73-.41-9.45-.62-14.18.93.67,1.22,1.63,1.17,2.72-.1,2.16-.21,4.32-.31,6.48-.08,1.67.06,3.33.2,4.99Z"/><path class="cls-6" d="m61.44,111.82c-.1.13-.2.26-.29.39-.85-2.41-1.7-4.81-2.55-7.22.89.65,1.49,1.41,1.58,2.61.11,1.48.82,2.82,1.26,4.22Z"/><path class="cls-6" d="m62.34,228.39c.12-2.04-.31-4.12.42-6.13.14-.39.16-.79.61-.95-.08,2.4-.35,4.77-1.04,7.08Z"/><path class="cls-8" d="m93.34,171.72c.27.07.46-.45.46-.31-.15,2.46.5,4.96-.31,7.38-.04.13-.28.19-.43.28.27-1.81.71-3.61.4-5.47-.1-.62-.08-1.26-.12-1.89Z"/><path class="cls-5" d="m102.6,149.94c-.28.47-.55.93-.83,1.4.01-.53.01-1.06.03-1.6.05-1.24.6-2.06,1.91-2.23-.01.28-.03.55-.04.83,0,0,.02-.03.02-.03-.42-.04-.46.3-.57.56,0,0,.02-.03.02-.03-.23.12-.28.34-.29.58,0,0,.02-.03.02-.03-.28.1-.27.34-.29.57l.02-.03Z"/><path class="cls-6" d="m37.44,73.6c-1.49-.17-2.86.3-4.23.78-.55.19-1.1.45-1.71.39,1.82-1.2,3.75-1.84,5.94-1.17Z"/><path class="cls-6" d="m48.34,91.68c-.07.08-.14.15-.22.23-.5-.75-.83-1.58-1.07-2.45.13,0,.26,0,.4,0,.3.74.6,1.47.89,2.21Z"/><path class="cls-5" d="m101.79,151.31c-.03.3.04.64-.28.84.09-.28-.05-.64.28-.84Z"/><path class="cls-6" d="m62.17,229.03c.02-.14.03-.29.05-.43-.02.15-.03.29-.05.43Z"/><path class="cls-5" d="m69.63,123.44c-.27-.18-.26-.46-.28-.74.32.16.19.49.28.74Z"/><path class="cls-5" d="m69.37,122.72c-.29-.09-.29-.32-.29-.56.34.06.26.34.29.56Z"/><path class="cls-6" d="m31.53,74.75c-.1.2-.27.19-.45.18.15-.06.3-.12.45-.18Z"/><path class="cls-5" d="m75.1,146.42c-.07-.07-.14-.15-.2-.22.07.07.14.15.2.22Z"/><path class="cls-1" d="m52.68,135.84c-2.83,4.91-7.15,8.52-11,12.53-.77.8-1.77.97-2.71.26-.96-.73-1.1-1.7-.6-2.79.74-1.6.66-1.73-.98-1.83-1.43-.08-2.25-1.29-1.82-2.67.2-.63.62-1.09,1.06-1.56,3.59-3.79,7.17-7.58,10.75-11.37,1.01,1.35,2.36,2.44,3.01,4.06.09.21.39.38.63.47,1.39.5,1.76,1.56,1.66,2.9Z"/><path class="cls-1" d="m35.37,99.69c.86,2.06-.14,3.2-1.74,4.49-3.45,2.78-7.34,4.81-11.12,7.03-1.16.68-2.5,1.04-3.86,1.22-1.29.17-2.3-.36-2.61-1.39-.33-1.12.22-2.34,1.47-2.68,4.08-1.11,7.26-3.82,10.76-5.96,1.03-.63,1.88-1.55,2.82-2.34.45-.38.93-.73,1.54-.8,1-.43,1.83.24,2.73.43Z"/><path class="cls-1" d="m39.44,107.08c-3.43,4.2-8.13,6.37-13.04,8.23-.76.29-1.51.6-2.26.91-1.06.43-1.89.04-2.48-.81-.61-.89-.45-1.8.26-2.61.56-.64,1.32-.93,2.08-1.25,2.17-.91,4.35-1.79,6.4-2.95,1.88-1.06,3.53-2.37,4.92-4.02.53-.63,1.07-1.24,1.96-1.34.18.6.35,1.2.55,1.79.19.56.39,1.16,1.16,1.1,1.01-.07.47.56.46.96Z"/><path class="cls-8" d="m32.79,83.85c1.97,1.07,2.83,2.43,2.53,4.02-.21,1.15-1.26,2.08-2.47,2.17-1.54.12-2.75-.67-3.36-2.21-.6-1.49-.2-2.49,1.52-3.89-1.68-.89-2.43-2.19-2.15-3.75.26-1.5,1.2-2.49,2.52-2.69,1.04-.15,2.44.7,2.95,1.81.78,1.68.37,2.88-1.54,4.53Z"/><path class="cls-8" d="m57.57,130.42c-1.72-1.07-2.19-1.9-1.8-3.22.3-1.02,1.1-1.6,2.1-1.67,1.12-.08,2.04.51,2.46,1.57.63,1.56-.47,2.41-1.65,3.25,1.31.91,2.39,1.91,1.75,3.6-.4,1.03-1.3,1.54-2.38,1.43-1.09-.12-1.77-.86-2.01-1.94-.34-1.48.02-2.2,1.53-3.02Z"/><path class="cls-1" d="m46.45,126.29c-.43,1.22-1.31,1.99-2.43,2.58-1,.52-1.94,1.16-2.94,1.7-.99.54-1.96.47-2.69-.43-.76-.93-.75-2.01.12-2.82,1.49-1.4,3.28-2.38,5.17-3.16.99-.41,1.66.5,2.5.74.09.47.18.93.27,1.4Z"/><path class="cls-1" d="m42.65,116.13c-1.17.9-2.6,1.43-3.61,2.6-.74.85-2.13.75-2.94-.02-.89-.83-1.15-2.17-.26-3.05,1.66-1.65,3.46-3.21,6.01-3.29,1.38.64,1.54,1.83,1.38,3.15-.19.2-.39.41-.58.61Z"/><path class="cls-8" d="m57.87,232.72c-1.68-1.27-2.16-2.7-1.56-4.29.33-.88,1.03-1.26,1.87-1.35.85-.09,1.45.35,1.86,1.11.83,1.55.49,3.14-.93,4.06-.45.29-.45.5-.05.79.19.13.41.22.57.37.93.87.96,2.3.08,3.16-.8.79-2.21.79-2.95.02-.84-.89-.8-2.33.12-3.16.26-.24.58-.41.98-.69Z"/><path class="cls-8" d="m71.71,172.02c-.11.82-.52,1.36-1.25,1.8-1.2.72-2.6.89-3.81,1.63-.97.59-2.31-.13-2.65-1.17-.38-1.16.18-2.53,1.36-2.66,1.3-.15,2.23-.87,3.28-1.44,1.4-.76,3.1.28,3.07,1.83Z"/><path class="cls-8" d="m40.22,104.09c-.02-1.93,1.08-3,3.15-3.08,1.46-.05,2.49,1.33,2.53,3.4.03,1.58-1.25,3.03-2.68,3.05-1.65.02-2.97-1.46-3-3.37Z"/><path class="cls-8" d="m62.03,217.12c-.1.92-.15,2.09-.74,3.15-.54.97-1.39,1.3-2.4,1.04-.99-.25-1.5-1.05-1.49-2.02,0-.98.17-1.97.37-2.94.31-1.55,1.38-2.42,2.58-2.24,1.24.19,1.76,1.05,1.69,3.01Z"/><path class="cls-8" d="m38.29,83.72c1.65-.01,3,1.26,3.01,2.84.01,1.35-1.31,2.76-2.64,2.81-1.48.06-2.95-1.49-2.97-3.13-.02-1.48,1.04-2.5,2.6-2.51Z"/><path class="cls-8" d="m66.67,159.1c0,1.31-.86,2.23-2.05,2.19-1.71-.06-3.39-1.43-3.38-2.77,0-1.25,1.46-2.53,2.9-2.55,1.43-.02,2.52,1.33,2.53,3.13Z"/><path class="cls-8" d="m36.02,97.58c-1.28.01-2.73-1.5-2.78-2.88-.04-1.36,1.32-2.79,2.63-2.76,1.26.03,2.46,1.62,2.45,3.25,0,1.24-1.1,2.37-2.31,2.39Z"/><path class="cls-8" d="m62.6,147.25c1.32.01,2.96,1.54,2.92,2.73-.03,1.15-1.34,2.4-2.53,2.42-1.29.02-2.59-1.37-2.6-2.8-.01-1.15,1.12-2.35,2.21-2.34Z"/><path class="cls-8" d="m49.77,99.05c-.02,1.23-1.15,2.39-2.33,2.39-1.22,0-2.54-1.27-2.51-2.4.04-1.27,1.24-2.48,2.44-2.46,1.3.02,2.42,1.18,2.4,2.47Z"/><path class="cls-8" d="m59.76,124.65c-1.18-.02-2.35-1.18-2.37-2.35-.02-1.28,1.16-2.37,2.5-2.32,1.24.04,2.33,1.12,2.3,2.25-.04,1.34-1.15,2.44-2.43,2.42Z"/><path class="cls-8" d="m49.46,126.68c.06-1.11,1.14-2.04,2.34-2.02,1.26.02,2.38,1.25,2.33,2.54-.06,1.26-1.2,2.38-2.38,2.31-1.02-.05-2.36-1.71-2.29-2.84Z"/><path class="cls-8" d="m49.36,105.51c1.3,0,2.25.9,2.29,2.18.04,1.33-1.16,2.55-2.49,2.5-1.25-.04-2.16-1-2.17-2.3-.01-1.41.96-2.39,2.36-2.38Z"/><path class="cls-8" d="m47.67,115.04c1.18.02,2.29,1.12,2.27,2.24-.02,1.04-1.07,2.11-2.1,2.13-1.22.02-2.41-1.12-2.39-2.32.02-1.19.98-2.08,2.22-2.06Z"/><path class="cls-8" d="m65.82,193.44c0,1.14-1.04,2.19-2.16,2.18-1.07,0-2.11-1.05-2.09-2.11.01-1.03,1.09-2.12,2.11-2.12,1.11,0,2.14.99,2.15,2.05Z"/><path class="cls-8" d="m65.52,202.48c.01,1.01-.94,1.96-2,1.98-1.26.03-2.26-.87-2.26-2.03,0-.98,1.16-2.08,2.16-2.05,1.04.03,2.08,1.07,2.09,2.1Z"/><path class="cls-8" d="m57.1,249.53c0-1.11.96-2.05,2.07-2.05,1.11,0,2.05.95,2.06,2.06.01,1.31-.79,2.1-2.12,2.07-1.16-.03-2.02-.92-2.01-2.08Z"/><path class="cls-8" d="m62.39,205.51c1.16.01,1.84.7,1.83,1.87,0,1.21-.74,1.97-1.92,1.97-1.18,0-1.95-.78-1.93-1.96.02-1.17.79-1.89,2.01-1.88Z"/><path class="cls-2" d="m42.65,116.13c.19-.2.39-.41.58-.61,1.38,2.45,1.99,5.21,3.2,7.73-.82-.35-1.51-.91-2.2-1.45.34-1.31-.09-2.29-1.27-2.95-.1-.91-.21-1.81-.31-2.72Z"/><path class="cls-2" d="m55.57,143.35c-1.21-.16-1.86-.78-1.73-2.07.06-.58.02-1.18.02-1.77.68,1.23,1.25,2.51,1.71,3.84Z"/><path class="cls-2" d="m55.74,143.69c-.08-.11-.16-.22-.23-.33.2.03.22.18.23.33Z"/><path class="cls-1" d="m38.2,159.46c-3.19,0-4.93-2.27-4.1-5.42.16-.61,0-.83-.51-.99-.22-.07-.44-.12-.63-.23-1.15-.63-1.8-2.21-1.41-3.39.33-1,1.41-1.6,2.5-1.39,1.4.27,2.78,1.57,2.56,2.73-.21,1.07.23,1.16,1.02,1.34,2.5.54,3.86,2.69,3.36,5.2-.3,1.53-1.11,2.15-2.79,2.15Z"/><path class="cls-1" d="m42.96,118.85c1.18.66,1.61,1.64,1.27,2.95-.91,1.33-2.2,2.26-3.44,3.25-.93.74-1.94.79-2.81-.08-.86-.86-.97-1.97-.15-2.81,1.43-1.49,2.63-3.46,5.14-3.31Z"/><path class="cls-1" d="m32.54,129.85c.11,2.15-.45,2.98-2,2.95-1.05-.03-1.95-.87-1.89-1.9.06-1.04.54-1.91,1.7-1.91,1.04,0,1.31-.19,1.02-1.29-.3-1.15.83-2.41,1.96-2.47,1.05-.06,2.32,1.17,2.43,2.36.12,1.17-.79,2.17-2.05,2.23-.36.02-.72-.04-1.08-.06-.07-.03-.13-.06-.2-.09.03.07.06.13.1.2Z"/><path class="cls-1" d="m22.83,118.83c-.02,1.4-1.16,2.55-2.48,2.53-1.38-.03-2.77-1.49-2.73-2.87.03-1.4,1.2-2.39,2.77-2.36,1.38.03,2.47,1.23,2.45,2.7Z"/><path class="cls-1" d="m15.94,114.51c-.03,1.22-1.29,2.46-2.48,2.43-1.3-.03-2.56-1.27-2.56-2.54,0-1.46,1.19-2.8,2.46-2.75,1.33.05,2.61,1.47,2.58,2.86Z"/><path class="cls-1" d="m31.67,117.55c1.4.02,2.83,1.39,2.76,2.65-.07,1.26-1.41,2.44-2.69,2.39-1.25-.05-2.44-1.38-2.4-2.67.04-1.28,1.13-2.39,2.33-2.37Z"/><path class="cls-1" d="m105.82,148.61c1.15.11,1.83.97,2.23,2.09.36,1.01.04,1.96-.85,2.47-.74.42-.86.87-.76,1.62.14,1.11-.29,1.96-1.44,2.28-.98.27-1.78-.03-2.31-.91-.64-1.05-.47-2.1.47-2.77.78-.55.68-1.05.48-1.78-.41-1.55.58-2.98,2.17-3Z"/><path class="cls-3" d="m103.12,148.87c.11-.27.16-.61.57-.56-.12.26-.17.59-.57.56Z"/><path class="cls-3" d="m102.85,149.42c.01-.23.06-.45.29-.58.05.26.03.5-.29.58Z"/><path class="cls-3" d="m102.58,149.97c.02-.23.02-.47.29-.57,0,.24.05.51-.29.57Z"/><path class="cls-5" d="m32.54,129.85c-.03-.07-.06-.13-.1-.2.07.03.13.06.2.09-.03.04-.07.07-.1.1Z"/><path class="cls-4" d="m106.91,143.85c.16.07.24.14.32.14,5.44-.05,7.77,5.81,4.92,10.21-1.13,1.75-2.55,3.3-3.8,4.97-1.08,1.46-2.11,2.95-3.15,4.44-2.7,3.85-3.91,8.13-3.86,12.81.01,1.49-.07,3-.28,4.48-.53,3.88-4.09,5.28-7.1,2.8-.73-.6-1.01-.4-1.73.06-2.01,1.29-2.23,3.16-2.13,5.22.02.45.06.91.09,1.36.17,3.26-.83,4.58-4.03,5.16-.6.11-.75.45-1.02.9-2.24,3.67-2.56,7.77-2.81,11.92-.23,3.83-2.55,6.11-6.04,7.21-.94.3-1.12.7-1.05,1.51.13,1.72.25,3.44.36,5.16.19,2.94-.81,4.42-3.63,5.22-.77.22-1.12.6-1.23,1.38-.15,1.06.05,2.08.22,3.11.09.58.25,1.15.41,1.72.86,2.96,1.24,5.76-2.64,7.09,1.33,1.22,2.47,2.24,3.58,3.3,1.06,1.02,1.86,2.22,2.34,3.63.6,1.76.19,2.8-1.56,3.44-.88.32-1.05.65-.56,1.43.58.92,1.05,1.91,1.64,2.82,1.46,2.23,3.45,3.75,6.14,4.09,2.04.26,3.62,1.24,4.74,2.87,2.13,3.08,5.38,4.36,8.68,5.51,1.71.59,3.51.2,5.26-.07,2.83-.44,5.77.16,8.54-.58,5.11-1.35,10.01-3.23,14.02-6.88.4-.37.83-.73,1.14-1.17,3.25-4.7,6.87-9.17,9.22-14.42,2.25-5.02,2.23-10.31,1.49-15.64-.12-.89-.42-1.81-1-2.51-3.43-4.16-7.08-8.04-12.51-9.64-6.71-1.97-12.9,2.93-12.54,9.99.04.79.28,1.51.68,2.18,2.18,3.61,8.92,3.56,10.98-.1.45-.8.99-1.43,1.99-1.38,1.03.04,1.65.69,2.04,1.56.26.58.38,1.2.38,1.85,0,4.16-3.61,8.21-7.72,8.62-.64.06-1.24.15-1.82.47-2.52,1.38-4.89,1-6.88-1.08-.34-.36-.69-.74-.94-1.16-.72-1.23-1.53-2.09-3.17-2.14-1.5-.04-2.39-1.26-2.8-2.64-.64-2.13-1.24-4.27-1.72-6.44-.7-3.2.23-6.04,2.32-8.47,1.33-1.55,2.67-3.09,3.88-4.74,2.76-3.76,6.65-4.8,11.05-4.53.87.05,1.69.06,2.53-.29,2.82-1.17,5.2-.67,7.24,1.65,1.06,1.2,2.23,2.07,3.77,2.53,1.3.39,2.29,1.26,3.03,2.41.4.62.83,1.24,1.55,1.47,3.64,1.18,4.64,4.16,5.18,7.48.68,4.17,1.16,8.35,1.26,12.58.04,1.92.02,3.81-.46,5.68-.48,1.85-.79,3.73-.96,5.63-.18,2.06-1.08,3.74-2.55,5.12-1.28,1.2-2.18,2.53-2.25,4.34-.02.39-.12.86-.35,1.16-1.72,2.15-2.88,4.74-5.12,6.48-.54.41-1.15.82-1.49,1.38-1.23,1.96-3.08,3.02-5.17,3.77-.38.14-.78.29-1.1.52-3.56,2.61-7.7,3.49-11.95,4.13-2.96.45-5.81,1.42-8.72,2.11-2.78.66-5.24.2-7.24-1.92-1.37-1.46-2.95-1.97-4.92-1.49-1.36.33-2.77.47-4.16.7-1.63.27-3.1-.08-4.26-1.27-1.16-1.19-2.54-1.7-4.16-1.65-2.16.07-3.97-.75-5.58-2.13-2.65-2.28-5.31-4.49-6.64-7.95-.64-1.66-1.83-3.1-2.74-4.67-.23-.41-.51-.4-.9-.38-3.76.22-6.36-2.16-6.32-5.93.03-2.76.37-5.52.19-8.29-.04-.64-.1-1.05-.58-1.51-1.61-1.51-1.9-3.26-.54-4.98,1.26-1.6,1.32-3.13.7-4.94-.76-2.23-.98-4.52-.07-6.79.13-.33.12-.59-.08-.88-.85-1.18-.86-2.49-.38-3.77,1.13-2.96,1.64-6.14,3.19-8.96.09-.16.21-.35.19-.5-.34-2.6.86-4.87,1.56-7.25.52-1.75.52-3.59.82-5.37.05-.3-.02-.52-.21-.75-1.69-2-1.19-4.04-.08-6.07.55-1,1.39-1.79,2.15-2.63,1.11-1.23,1.19-2.56.06-3.77-1.7-1.83-1.89-3.8-.92-6.02.89-2.04.99-4.22.94-6.41-.01-.56-.1-1.06-.78-1.27-3.64-1.13-4.5-4.77-3.86-8.14.18-.97.49-1.96.96-2.82,1.62-2.95.84-5.92.19-8.88-.21-.95-1.21-1.21-2.38-.66-1.84.87-3.29,2.26-4.57,3.8-2.44,2.93-4.82,5.91-7.26,8.84-3.85,4.62-8.26,4.14-11.18-1.15-1.98-3.58-2.5-7.54-3.15-11.48-.77-4.64-.82-9.41-2.62-13.86-.4-.99-.88-1.54-1.92-1.84-5.91-1.67-10.84-4.96-14.5-9.83-3.16-4.21-3.88-9.22-2.57-14.26,1-3.83,4.33-5.2,7.92-5.64,2.95-.36,5.65-1.17,8.08-2.92,1.29-.93,2.64-1.78,4.02-2.55,2.15-1.21,3.09-4.42.84-6.29-1.55-1.28-2.25-3.14-2.3-5.2-.03-1.13-.08-2.27-.22-3.4-.29-2.4-1.22-4.47-3-6.19-1.53-1.47-1.53-3.42-1.21-5.35.49-2.96,1.52-5.79,2.42-8.64.49-1.55.45-2.9-.47-4.26-1.03-1.53-1.07-3.21-.62-4.97.49-1.95,1.3-3.77,2.03-5.62.46-1.17.42-2.04-.74-2.94-2.75-2.14-2.69-4.81,0-7.07,1.22-1.03,2.53-1.92,3.96-2.64.63-.32.91-.7.9-1.47-.04-3.16,1.69-5.16,4.84-5.71,1.79-.31,3.58-.59,5.11-1.7.59-.43.79-.79.57-1.57-.44-1.58-.11-3.1,1.14-4.24,1.3-1.19,3.05-1.55,4.42-.66,2.57,1.67,5.02-.02,7.5.19.48.04.52-.43.65-.75.78-1.86,1.89-3.2,4.14-3.36,2.36-.16,3.59-1.88,4.52-3.85.28-.6.13-1.13-.11-1.7-.38-.87-.71-1.76-.67-2.75.07-1.64,1.25-3.07,2.87-3.07,2.4,0,4.8-.18,7.19-.1,4.18.13,7,3.16,7.29,7.39.02.33-.02.66.38.77.36.1.72.16.99-.2.03-.04.06-.07.09-.11.85-1.28,1.76-2.59,3.56-2.09,1.99.56,3.28,2.23,3.43,4.04.19,2.25,1.41,3.65,2.66,5.22,1.21,1.53,2.1,3.28,3.01,5.16.99-.78,1.95-1.57,3.28-1.27,1.25.28,2.2,1.05,3.06,1.93,1.29,1.32,1.31,2.95.98,4.59-.22,1.11-.02,1.59,1.19,1.91,4.31,1.15,6.1,4.61,7.11,8.51.57,2.18.69,4.49.41,6.76-.08.61.1,1.03.53,1.45,4.78,4.59,9.34,9.41,14.31,13.8,2.13,1.88,4.84,2.63,7.46,3.5,1.57.52,3.04,1.17,4.34,2.2.96.76,1.22,1.69.97,2.89-.9,4.34-3.26,7.51-7.25,9.47-1.18.58-2.29,1.31-3.5,1.82-2.11.88-3.83-.07-3.54-2.27.35-2.72-.89-4.13-2.97-5.29-5.87-3.3-11.49-7.1-17.9-9.36-2.3-.81-4.32-1.92-6-3.77-2.59-2.87-6.22-3.09-9.76-3.36-.78-.06-1.19.62-1.61,1.13-1.74,2.09-3.95,3.43-6.51,4.28-3.44,1.14-7.29.03-9.58-2.79-1.56-1.92-2.58-4.16-3.59-6.39-.35-.77-.66-1.33-1.62-1.21-.3.04-.61-.14-.93-.2-.42-.07-.81-.7-1.21-.3-.49.48-.43,1.2-.22,1.8.88,2.47,1.75,4.96,2.96,7.3.74,1.44,1.68,2.83,1.47,4.58-.07.58.49.7.81.99,3.54,3.15,7.56,5.64,11.33,8.47,1.13.84,2.25,1.7,3.13,2.82.72.92,1.18,1.97,1.08,3.15-.08.94.32,1.52.98,2.09,3,2.58,5.81,5.34,8.5,8.25,1.49,1.61,3.19,2.96,4.97,4.23,2.68,1.91,5.04,4.17,7.06,6.75.9,1.15,1.64,2.4,1.61,3.95-.01.66-.12,1.34-.57,1.78-.87.84-.61,1.57-.17,2.51,3.53,7.57,5.35,15.59,5.92,23.9.18,2.62-.29,5.14-1.26,7.56Zm-36.9,101.79l.03.03c-1.17-1.43-2.9-2.31-3.88-3.96-.4-.66-1.35-.47-2.02-.38-.67.08-.38.81-.37,1.25.02,1.67.61,3.19,1.34,4.66.27.55.7.98,1.32,1.08,1.57.27,3.16.35,4.75.31.67-.01.77-.31.5-.87-.4-.83-1-1.51-1.67-2.13ZM109.35,54.84c-.34,1.26-.8,2.44-1.41,3.55-.42.77-.99,1.43-1.94.97-.93-.46-.8-1.33-.48-2.14.25-.63.55-1.24.82-1.87.8-1.9.95-3.65-1.1-4.93-.58-.36-.89-.99-.68-1.65.64-2.03.27-4.05.07-6.08-.42-4.26-3.22-7.09-7.3-7.4-1.52-.12-2.23-1.25-1.62-2.66.44-1.02.76-2.06.69-3.16-.1-1.69-1.58-2.44-2.94-1.54-.3.2-.63.36-.94.54-2.01,1.16-2.18,1.04-3.14-1.07-1.33-2.93-2.72-5.85-5.59-7.69-.71-.45-.78-1.18-.53-1.94.36-1.1.03-2.04-.63-2.93-.5-.67-.78-.52-1.16.12-1.23,2.1-1.25,2.09-3.66,1.69-.36-.06-.72-.13-1.08-.15-2.22-.14-2.59-.58-2.27-2.78.46-3.16-2.08-5.74-5.28-5.29-1.49.21-2.98.25-4.48.14-1.68-.12-1.85.06-1.13,1.58.83,1.78.57,3.33-.31,5.04-1.38,2.68-3.46,4.25-6.39,4.74-.68.11-1.04.41-1.43,1.02-.63,1-1.04,2.48-2.36,2.64-2.15.27-4.26.74-6.4,1.03-.73.1-1.41-.3-2.08-.57-.5-.2-1.01-.41-1.51-.6-.51-.19-1-.11-1.38.28-.39.4-.38.91-.21,1.41.6,1.79,1.45,3.4,3.16,4.42,1.97,1.18,3.33,2.91,4.29,4.97.37.79.78,1.6,1.59,1.99,2.29,1.1,4.5,2.35,6.89,3.24.76.28.86,0,.77-.68-.13-1-.71-1.74-1.29-2.5-1.83-2.41-1.19-4.77,1.63-5.86,5.16-1.98,9.88-1.06,14.17,2.33.65.51,1.21,1.12,1.57,1.86.3.6.29,1.25-.34,1.71-.56.41-1.13.28-1.62-.12-.28-.23-.5-.53-.75-.79-2.82-3.03-8.26-4.06-11.97-2.3-.67.32-.97.7-.39,1.33,2.36,2.54,2.27,5.47,1.44,8.55-.54,1.98-.8,4.01-.36,6.06.34,1.59,1.05,2.08,2.44,1.74,4.57-1.12,8.93.52,11.58,4.38.48.7.65,1.46-.04,2.1-.68.63-1.42.47-2.07-.12-.77-.7-1.57-1.38-2.28-2.14-1-1.07-2.24-1.47-3.66-1.53-.68-.03-.97.07-.6.8.9,1.78,1.73,3.6,2.95,5.2,1.68,2.19,4.32,2.9,6.91,1.99,2.12-.74,3.86-1.96,5.3-3.67.61-.73,1.25-1.5,2.31-1.54,3.82-.15,7.52.41,10.97,2.08.9.44,1.6.5,2.39-.03,1.21-.8,2.41-1.61,3.62-2.41.78-.51,1.7-1.09,2.42-.16.76.99.02,1.78-.81,2.36-1.11.78-2.24,1.55-3.4,2.25-.71.43-.64.68,0,1.11,2.15,1.47,4.49,2.51,6.92,3.4.62.23.96-.09,1.28-.47,1-1.18,1.95-2.39,2.95-3.56.53-.62,1.21-1.1,2.01-.53.88.62.61,1.46.11,2.16-.8,1.1-1.64,2.18-2.55,3.18-.55.61-.5.9.21,1.28,2.23,1.21,4.47,2.41,6.62,3.76,1.19.75,1.93.84,2.59-.58.41-.89,1.23-1.52,2.21-.91.97.6.65,1.6.07,2.26-1.11,1.27-.62,1.96.61,2.67,1.95,1.12,2.92,2.79,2.57,5.11-.03.17.04.34.06.53,1.23-.36,1.22-.36.94-1.47-.2-.78-.3-1.6.59-2.01.89-.41,1.46.1,1.83.89.06.12.12.24.2.36.27.39.54.17.81-.01.26-.18.36-.39.12-.67-.23-.28-.47-.55-.66-.86-.34-.58-.28-1.15.22-1.6.45-.41.98-.41,1.52-.13,1.47.76,1.48.77,2.1-.79.2-.5.34-1.03.52-1.55.23-.64.09-1.08-.53-1.47-1.26-.79-2.71-1-4.07-1.5-.62-.23-.66.32-.82.64-.49.97-.99,1.94-1.67,2.8-.49.61-1.12,1.01-1.89.51-.76-.5-.66-1.24-.3-1.93.42-.8.89-1.58,1.35-2.36.33-.58.31-.96-.42-1.24-1.15-.44-2.17-1.13-3.09-1.95-.75-.66-1.51-1.86-2.23-1.84-.79.03-.94,1.55-1.52,2.34-.03.04-.05.08-.07.12-.45.73-1.08,1.21-1.92.79-.88-.44-.77-1.26-.44-2.01.42-.95.91-1.88,1.36-2.82.2-.42.32-.83-.1-1.24-2.12-2.04-4.22-4.09-6.41-6.21Zm-59.9,78.38c-1.23.72-2.2,1.72-3.13,2.78-2.01,2.28-4.02,4.57-6.03,6.85-.64.73-1.4,1.37-2.32.59-.98-.83-.45-1.71.21-2.49.26-.31.54-.61.82-.91,2.21-2.41,4.42-4.82,6.62-7.23q1.86-2.04.52-4.44c-.18-.32-.37-.63-.49-.97-.25-.74-.62-.7-1.22-.35-.98.56-2,1.07-3.04,1.53-.82.36-1.75.6-2.25-.43-.46-.97.31-1.51,1.02-1.94.58-.35,1.21-.63,1.81-.94.6-.31,1.22-.6,1.81-.94.83-.48.33-1.12.13-1.66-.3-.78-.76-.18-1.07-.01-.8.43-1.53.97-2.32,1.43-.67.38-1.42.58-1.96-.16-.56-.78-.22-1.51.48-2,1.04-.73,2.13-1.38,3.21-2.05.22-.13.62-.12.56-.48-.17-1.08-.42-2.22-1.06-3.04-.47-.6-1.17.3-1.79.47-.48.13-.92.39-1.38.57-.77.31-1.47.22-1.86-.57-.4-.83.08-1.41.76-1.79.79-.44,1.62-.83,2.45-1.17.65-.27.8-.61.49-1.25-.57-1.18-1.14-2.37-1.61-3.6-.41-1.08-.83-.96-1.62-.34-2.8,2.18-5.83,4-8.97,5.65-1.04.55-2.13,1.02-3.34,1.09-.84.05-1.59-.13-1.74-1.11-.15-.94.37-1.43,1.24-1.64.26-.06.53-.12.79-.21,4.11-1.55,7.77-3.9,11.2-6.61,1.08-.85-.11-1.61-.55-2.27-.53-.81-.91-.03-1.24.3-3.54,3.58-7.69,6.19-12.44,7.84-.94.33-1.89.66-2.89.72-1.02.06-2-.03-2.12-1.32-.12-1.24.81-1.38,1.77-1.58,5.59-1.17,10.26-3.99,14.24-8.03.21-.21.58-.45.35-.8-.58-.9-1.45-1.52-2.39-1.97-.74-.36-1.21.38-1.71.81-4.45,3.91-9.11,7.26-15.34,7.79-2.1.18-4.27,1.16-4.81,3.61-.92,4.22-.33,8.35,2.36,11.75,3.36,4.25,7.76,7.18,13.08,8.57,1.38.36,2.57,1.02,3.08,2.43.73,2.04,1.61,4.06,1.94,6.22.5,3.27.88,6.56,1.38,9.83.52,3.45,1.01,6.92,2.75,10.04,1.88,3.36,3.81,3.6,6.26.69,2.37-2.81,4.61-5.73,7.01-8.52,2.2-2.55,4.49-5.04,8.24-5.6-1.24-2.29-2.44-4.52-3.11-6.98-.28-1.02-.59-1.13-1.39-.39-2.91,2.68-5.63,5.54-8.11,8.62-.43.53-.81,1.12-1.42,1.44-.76.39-1.53.38-2.06-.37-.5-.69-.31-1.35.3-1.94.55-.54,1.06-1.11,1.57-1.69,2.54-2.91,5.19-5.71,8.14-8.22,1.81-1.54,1.82-1.53.39-3.45-.05-.07-.13-.11-.2-.17Zm55.79,3.48c-.49-7.23-1.81-14.54-4.75-21.45-1.43-3.35-1.52-3.58-4.3-.83-1.14,1.12-2.2,2.32-3.8,2.78-2.54.72-5.11,1.16-7.79.71-2.15-.36-4.25-.9-6.32-1.59-3.06-1.03-6.06-.8-9.06.3-.82.3-.85.55-.36,1.2,1.59,2.1,2.54,4.48,2.93,7.09.45,3.06-.02,6.05-.55,9.05-.93,5.22,1.99,8.73,7.23,8.7,4.18-.02,8.34.2,12.44,1.12,2.52.57,5.05,1.22,7.66.84,5.71-.85,6.42-1.7,6.66-7.92Zm-18.18-21.54c2.17-.29,4.68-.17,6.45-2.22,1.42-1.65,3.12-2.86,5.13-3.72,1.58-.68,1.73-1.29.77-2.73-1.37-2.06-3.07-3.88-5.06-5.3-3.95-2.81-7.35-6.19-10.71-9.64-1.01-1.04-2.07-2.04-3.14-3.02-1.65-1.51-1.66-1.48-3.48-.29-1.48.98-3.09,1.71-4.75,2.33-1.06.39-2.16.73-3.16,1.25-2.9,1.53-5.93,1.82-9.12,1.29-1.95-.33-3.88-.38-5.64.81-.51.34-.68.59-.11.97,3.52,2.33,4.73,6.07,5.98,9.78.75,2.23,1.37,4.51,2.15,6.73.81,2.32,2.93,3.65,5.51,2.57,4.13-1.72,8.28-1.67,12.47-.15,2.09.76,4.26,1.23,6.7,1.32Zm-48.11-60.97c0-.77.15-1.58-.03-2.31-.62-2.49-2.13-4.03-4.27-3.69-2.21.35-4.42.47-6.64.5-.47,0-.88.02-1.07.6-.63,1.94-1.56,3.77-2.11,5.74-.34,1.22-.22,2.29.48,3.36,1.17,1.79,1.29,3.72.65,5.74-.66,2.07-1.28,4.16-1.89,6.25-.37,1.26-.71,2.54-.63,3.88.1,1.54.48,1.73,1.8,1,4.35-2.43,9.06-3.82,13.97-3.04,3.14.5,5.77.11,8.44-1.42,2.33-1.33,4.79-2.4,7.5-2.72,1.31-.15,2.63-.17,3.93-.35,1.54-.22,1.83-.73,1.08-2.11-1.36-2.48-2.35-5.11-3.4-7.71-.36-.89-.29-2.19-.86-2.63-.59-.47-1.85-.05-2.81-.11-1.57-.11-2.97-.81-4.38-1.43-2.08-.91-4.16-1.15-6.36-.52-.48.14-.71.25-.68.77.29,4.26-1.72,8.15-1.97,12.32-.05.81-.52,1.48-1.51,1.4-.99-.08-1.28-.83-1.28-1.64,0-.81.19-1.62.3-2.43.44-3.18,1.94-6.17,1.73-9.46Zm3.71,21.48c3.42,4.16,5.34,8.7,5.96,13.84.27,2.25,1.96,3.16,3.91,2,2.63-1.56,5.35-1.74,8.26-1.25,1.65.27,3.37.4,4.98-.24,2.69-1.06,5.36-2.19,8.03-3.33.62-.26,1.21-.62,1.76-1.01,1.69-1.2,1.9-3.21.46-4.68-.73-.74-1.56-1.38-2.37-2.03-3.18-2.55-6.76-4.59-9.72-7.43-1.08-1.04-2.19-1.94-3.81-.95-.28.17-.71.14-1.07.15-3.9.03-7.48,1.14-10.85,3.1-1.65.96-3.42,1.67-5.54,1.85Zm26.56,52.03c-.09-3.81-1.03-7.32-4.03-9.88-1.35-1.15-2.85-2-4.88-.93-3.04,1.61-6.25,2.88-9.36,4.36-.97.46-1.84,1.14-2.76,1.72-.69.43-.78.97-.48,1.74.66,1.66,1.49,3.22,2.62,4.59,2.2,2.66,3.8,5.62,4.68,8.97.54,2.07,1.5,3.98,2.5,5.87.4.76.69.88,1.51.45,3.02-1.61,6.16-2.92,9.69-2.74,1.22.06,1.12-.38.68-1.23-1.14-2.15-1.46-4.43-1.06-6.86.33-2.01.95-3.98.9-6.05Zm11.64,17.95c-.95,0-1.91.04-2.86-.01-.96-.05-1.31.19-1.01,1.24.57,1.99.48,4.03.21,6.07-.37,2.73-1.23,5.39-.94,8.21.14,1.36.61,2.11,2.03,2.17,2.14.08,4.2.63,6.29,1.06,3.06.62,6.12,1.33,9.29.9,2.69-.36,4.21-1.72,4.57-4.38.58-4.27,1.05-8.55,2.46-12.65.26-.75.05-.95-.76-.83-2.21.32-4.43.3-6.63-.1-4.18-.77-8.33-1.86-12.64-1.67ZM34.73,45.21c3.12.03,4.99,1.4,6.23,3.77.37.71.71,1.54,1.81,1.24,2.46-.66,4.75-.04,7.01.9,1,.42,2,.88,3.04,1.18,2.52.72,4.57-1,4.38-3.6-.11-1.55-.11-3.09.22-4.61.19-.86-.1-1.24-.88-1.51-2.5-.85-4.76-2.23-7.11-3.4-.8-.4-1.11-.29-1.62.37-1.41,1.81-3.29,3.11-5.09,4.49-.73.56-1.58.62-2.16-.21-.53-.78-.13-1.47.53-2,.28-.23.58-.43.86-.67,1.43-1.24,3.13-2.21,4.17-3.87.29-.46.59-.87.28-1.49-.64-1.27-1.31-2.48-2.47-3.37-1.08-.82-2.22-1.58-3.1-2.64-.33-.4-.65-.42-1.04-.1-1.88,1.52-4.18,1.89-6.46,2.3-1.68.3-2.49,1.2-2.31,2.93.19,1.81-.56,2.94-2.1,3.72-1.46.74-2.83,1.62-4.07,2.71-.42.37-.86.81-.54,1.4.63,1.18,1.94,1.73,2.74,2.8.36.48,1.21.22,1.83.19,2.08-.08,4.16-.29,5.84-.54Zm13.59,49.14c-.21.05-.49.07-.72.19-3.22,1.7-6.27,3.65-8.77,6.36-.57.62-.53,1.09-.13,1.79,2.28,3.93,4.34,7.96,5.82,12.26.56,1.63,1.13,3.25,1.64,4.9.24.77.57.82,1.13.35.74-.61,1.49-1.17,2.38-1.56,3.07-1.35,6.11-2.77,9.21-4.03,1.18-.48,1.37-.95.78-2.03-.41-.74-.61-1.6-.85-2.43-.87-3.05-1.74-6.1-2.96-9.04-1.17-2.82-3.67-4.3-5.83-6.13-.42-.35-1.09-.41-1.71-.63Zm-11.59-19.55c-3.41.43-6.81.94-9.9,2.64-.75.41-1.02.86-.64,1.61,1.18,2.32,1.52,4.82,1.55,7.38.02,1.83.65,3.35,2.04,4.56,1.08.94,1.65,2.17,1.8,3.56.09.85.43,1.46,1.13,1.9,1.16.73,2.22,1.56,3.12,2.61.28.32.53.61.96.11,2.46-2.86,5.56-4.9,8.78-6.79.29-.17.55-.33.47-.73-.61-2.87-.91-5.8-2.13-8.54-1.28-2.88-3.33-5.15-5.33-7.49-.54-.63-1.04-.95-1.85-.82Zm37.68,75.49c.23-1.41-.32-2.89-.62-4.39-.2-1.01-.97-1.61-2.12-1.37-1.07.23-2.15.28-3.24.26-2.96-.06-5.56,1.1-8.1,2.42-1.11.58-1.6,1.32-1.11,2.74,1.27,3.71,1.49,7.45-.43,11.07-.38.73-.51,1.55-.59,2.36-.3,3.24,1.66,4.81,4.74,3.79.3-.1.61-.2.89-.33,2.3-1.08,4.69-1.9,7.14-2.58.65-.18,1.26-.49,1.88-.77.49-.23.7-.56.62-1.19-.32-2.35-.21-4.69.33-7.02.37-1.58.7-3.19.62-5Zm10.22,33.61s.01-.08.02-.13c.32,0,.64.02.95,0,2.97-.26,5.33-1.85,5.68-4.3.49-3.44.65-6.93.97-10.4.06-.69-.35-.73-.84-.74-1.73-.03-3.42-.31-5.12-.59-2.55-.41-5.01-1.23-7.6-1.44-.79-.06-1.05.15-.98.95.31,3.51-.54,6.83-1.77,10.07-.35.93-.76,1.85-.78,2.87-.03,1.15.36,2.12,1.59,2.35,2.62.5,5.25.9,7.88,1.34Zm-9.73-15.44c-.06-.48-.14-1.11-.2-1.74-.05-.41-.13-.73-.66-.47-2.54,1.23-5.3,1.84-7.95,2.76-2.41.84-3.46,1.97-3.13,4.6.26,2.04-.46,4.02-1.26,5.93-.58,1.38.07,2.52,1.22,2.24,2.75-.66,5.55-.89,8.36-.97.62-.02.91-.24.92-.87.02-1.3.5-2.48.97-3.66.97-2.47,1.57-5.01,1.74-7.82Zm19.5,7.37s.04,0,.07,0c-.04.77.01,1.56-.14,2.31-.3,1.46.37,2.41,1.43,3.25,1.19.95,1.98.72,2.35-.75.36-1.47.26-2.98.27-4.47.05-4.97,1.26-9.57,4.06-13.74,1.97-2.94,4.07-5.79,6.35-8.5.83-.98,1.53-2.03,1.69-3.35.31-2.47-1.47-4.08-3.9-3.7-1.89.29-2.89,1.23-3.4,3.09-.98,3.56-1.49,7.19-1.8,10.85-.3,3.55-2.08,5.94-5.44,7.04-.85.28-1.01.76-1.06,1.47-.15,2.17-.31,4.34-.47,6.51Zm-24.21,7.72c-1.69.11-3.76.3-5.8.79-.52.13-.98.25-.87.95.31,1.95-.59,3.41-1.89,4.73-.8.81-1.51,1.69-1.82,2.83-.26.96-.01,1.58,1,1.86,1.03.29,2.07.39,3.1.16,2.35-.52,4.69-1.07,7.09-1.23.46-.03.76-.16.79-.7.12-2.23.78-4.37,1.19-6.55.42-2.19-.22-2.89-2.79-2.85Zm-.5,25.72c-.17,1.29.35,2.1,1.6,2.47.56.17,1.12.38,1.64.65,1.51.77,2.87.44,4.22-.41,1.58-1.01,2.31-2.47,2.44-4.3.24-3.43.39-6.88,1.95-10.06.31-.63,1.15-1.46.72-1.89-.55-.56-1.61-.23-2.45,0-.18.05-.35.08-.53.13-1.67.52-3.24,1.44-5.08,1.33-.32-.02-.48.2-.61.45-1.8,3.72-3.27,7.55-3.91,11.64Zm-8.7.21c1.55,0,3.04-.53,4.57-.6.92-.04,1.23-.4,1.39-1.24.64-3.35,1.82-6.53,3.19-9.65.16-.36.59-.75.36-1.1-.3-.46-.83-.09-1.25-.05-2.34.21-4.57,1.28-6.96,1-1.09-.13-1.38.31-1.4,1.21-.08,2.58-.89,4.97-1.78,7.35-.22.59-.37,1.21-.46,1.84-.12.82.26,1.31,1.14,1.31.41,0,.81-.04,1.22-.06Zm26.45-20.14c0-.54-.05-1.1.01-1.63.12-1-.21-1.28-1.21-1.06-1.11.25-2.25.17-3.38-.02-1.97-.33-3.94-.64-5.91-.95-.38-.06-.8-.24-.92.42-.41,2.23-.91,4.44-1.27,6.68-.22,1.34.11,1.58,1.38,1.07,2.49-1,4.99-1.41,7.71-1.1,3.32.38,3.66-.07,3.6-3.39Zm-29.03,64.2c1.11,0,3.26-1.83,4.33-3.42.64-.96-.29-1.4-.56-2.02-.84-1.98-1.29-4.04-1.56-6.15-.11-.87-.43-1.22-1.35-.72-.75.41-1.59.66-2.47.66-.75,0-.86.36-.77,1.04.25,1.98.19,3.97-.06,5.95-.12.9-.13,1.81.19,2.68.4,1.11,1.19,1.78,2.25,1.98Zm2.4-22.08s-.04,0-.05,0c.08-1.54.15-3.07.24-4.61.1-1.71-.16-1.97-1.91-1.88-.9.05-1.82.41-2.69.14-1.06-.33-1.24.19-1.34,1.04-.21,1.78.47,3.39.9,5.04.49,1.9.35,3.66-.89,5.28-.39.51-1.04,1.05-.46,1.78.52.66,1.27.83,2.08.69,1.18-.2,2.22-.75,3.29-1.25.65-.3.9-.72.86-1.49-.08-1.58-.02-3.17-.02-4.75Zm3.97-19.51c-.6-.2-1.08.01-1.57.06-1.35.12-2.74.43-4.05.25-1.18-.16-1.52.31-1.82,1.2-.66,2.02-1.35,4.04-2.03,6.05-.63,1.85.25,3.04,2.2,2.88,1.18-.1,2.35-.23,3.53-.16.52.03.82-.08.96-.66.8-3.24,1.54-6.5,2.78-9.63Zm2.84.97c-1.35,3.5-2.31,6.95-2.84,10.53-.1.67.25,1.12.97,1.22,1.66.23,3.33.39,5,.13,1.84-.28,2.17-.73,2.13-2.62-.04-2.03-.47-4.06-.14-6.09.11-.66-.36-.74-.76-.91-1.45-.62-3.02-.98-4.35-2.25Zm.46,17.33q-.02-2.41-2.13-2.59c-.31-.03-.64-.06-.93-.16-.91-.32-1.21.02-1.21.94.01,2.58-.04,5.17-.04,7.75,0,2.06.79,2.68,2.8,2.22.48-.11.96-.27,1.43-.43.95-.34,1.3-.93,1.07-2-.42-1.98-1.12-3.93-.99-5.73Zm1,34.35c.92-1.89.99-2.99-.08-4.8-1.41-2.36-2.98-4.63-4.48-6.94-1.9,1.64-1.93,1.78-.87,3.91.8,1.62,1.76,3.15,2.72,4.68.75,1.19,1.54,2.32,2.72,3.15Zm12.29,6.22c-.22-1.7-.56-2.82-1.89-3.36-2.18-.89-4.34-1.83-6.39-3.01-.33-.19-.58-.34-.86.16-.96,1.71-.6,2.85,1.23,3.55.5.19,1.06.33,1.59.31,2.29-.05,4.41.37,6.33,2.35Zm14.21.17c-.39,0-.88,0-1.38,0-.78,0-.85.38-.47.94,1.49,2.19,4.5,3.04,6.86,1.97.39-.18.58-.39.47-.82-.12-.48-.26-.96-.32-1.45-.1-.79-.46-1.03-1.27-.94-1.25.15-2.5.44-3.89.3Zm35.55-14.43c.21-.98-.62-.97-1.13-1.25-.49-.27-.9-.28-1.25.29-.84,1.34-1.82,2.6-2.56,3.99-.59,1.1.77,1.17,1.22,1.71.46.57.74.04,1-.33.71-.99,1.42-1.98,2.17-2.94.35-.45.52-.94.55-1.46Zm-56.7,5.44c.28.19.49.35.72.48,2.16,1.25,4.62,1.83,6.76,3.13.5.31.73-.08,1.03-.33.36-.3.3-.58.04-.93-.75-1.01-1.58-1.86-2.91-2.04-.95-.13-1.9-.3-2.73-.76-1.05-.58-1.95-.57-2.91.45Zm15.34,8.44c.36.04.93.35,1.07-.15.14-.49-.47-.55-.8-.71-1.41-.7-2.86-1.33-4.18-2.22-.63-.43-1.97.16-1.99.93-.02.56.27,1.13.39,1.7.19.92.65,1.25,1.63,1.02,1.18-.27,2.39-.51,3.6-.58m44.04-50.58c-1.45-.61-2.79-1.35-3.59-2.76-.55-.98-1.44-1.45-2.47-1.77-.53-.17-.92-.27-1.24.34-.33.63.06.88.46,1.21,1.36,1.13,2.7,2.27,4.02,3.45,1.47,1.31,1.46,1.32,2.8-.46Zm-14.74,48.52c.06-.76-1.24-1.73-1.85-1.48-1.21.5-2.39,1.05-3.61,1.52-.66.25-.87.63-.49,1.21.36.55.23,1.67,1.48,1.25,1.51-.51,2.8-1.42,4.16-2.22.14-.08.25-.22.31-.28Zm-15.71-37.13c1.08-.09,1.92-1.32,1.63-2.4-.12-.48-.23-.97-.29-1.46-.26-2.31-.25-2.29-2.46-1.63-.52.15-.68.37-.55.85.37,1.39.74,2.79,1.14,4.18.06.23.1.57.53.46Zm.33,40c.43.42-.29,1.88,1.24,1.58,1.68-.32,3.35-.68,5.01-1.07.33-.08,1.09.04.78-.73-.21-.52-.15-1.37-1.15-1.13-1.76.43-3.54.63-5.36.58-.45-.01-.69.17-.53.77Zm18.33-4.15c.31-.13.6-.26.9-.37,1.11-.41,1.46-1.58,2.28-2.27.82-.69.73-1.15-.1-1.75-.57-.42-.93-.53-1.49,0-.72.69-1.55,1.25-2.3,1.9-.3.26-1.04.33-.73.93.32.62.75,1.23,1.44,1.56Zm-54.66-15.58c.07.24.09.37.15.48,1.45,2.61,3.55,4.8,4.8,7.54.32.7.76.08,1.11-.08.61-.29.29-.63.01-.94-1.49-1.68-2.56-3.64-3.38-5.69-.54-1.36-1.33-1.66-2.69-1.31Zm52.34-38.68c-.15.58.08.92.75,1.09.87.21,1.72.54,2.57.84.4.14.8.32,1.03-.22.2-.46.72-.88.21-1.46-.6-.68-1.15-1.39-2-1.8-1.61-.77-2.47-.28-2.57,1.55Zm-17.96,10.25c1.89-.54,4.03-.34,4.57-2.83.08-.39.82-.81.22-1.12-.61-.31-1.36-1.02-2.09-.32-1.21,1.14-2.33,2.38-2.7,4.27Zm33.13,25.37c-.86-.23-1.35.2-1.75.99-.45.88-1.05,1.68-1.55,2.53-.15.26-.63.57-.07.86.36.19.8.67,1.19.18.92-1.17,2.18-2.04,2.91-3.36.42-.76.65-1.41-.72-1.2Zm-29.18-15.33c2.2.82,2.67,3.11,4.46,4.44.17-1.19.69-2.32.34-3-.54-1.02-2.11-1.02-2.96-1.92-.68-.72-1.1-.03-1.84.47Zm2.76-16.04c.52-.49.98-1.09,1.58-1.43,1.36-.78.71-1.81.15-2.44-.71-.81-1.15.32-1.66.66-.43.3-.78.75-1.11,1.17-.27.34-.85.79-.62,1.07.37.45,1.04.64,1.66.97Zm4.61,19.38c-.2.81.2.73.8.54.56-.17,1.16-.21,1.73-.32.36-.07,1,.15.96-.43-.04-.59-.1-1.36-.73-1.66-1.22-.58-2.71.45-2.76,1.88Zm1.9-24.63c-.36,0-.73-.06-1.07.01-.4.08-1.17-.21-.98.66.13.58.3,1.24,1.23,1.03.74-.17,1.51-.21,2.27-.26.47-.03.6-.27.64-.68.05-.47-.19-.65-.62-.68-.49-.03-.99-.05-1.48-.08Zm21.92,16.48c-.28-1.67-.56-3.34-.86-5-.06-.33-.05-.87-.47-.82-.33.04-.61.48-.92.73-.41.33-.2.62.03.92.97,1.26,1.55,2.71,2.22,4.17Zm-1.05,17.38c.48.05.6-.26.68-.65.25-1.28.53-2.55.78-3.82.05-.27.25-.67-.25-.74-.32-.05-.46.21-.53.5-.32,1.4-.67,2.79-1.21,4.13-.23.57.14.59.53.59Zm1.58-12.34c-.07,0-.15-.02-.22-.03v4.07h.22v-4.04Z"/><path class="cls-4" d="m100.99,47.27c-.03,1.07-.28,1.85-1.26,2.03-1.01.18-1.51-.48-1.74-1.34-.2-.74-.38-1.49-.59-2.23-.65-2.26-4.01-2.25-5.09-.59-.68,1.05-1.19,2.13-1.44,3.35-.13.64-.32,1.24-.86,1.65-.94.72-2.11.26-2.25-.88-.38-2.96,1.83-7.37,4.43-8.85,3.42-1.95,6.72-.73,8,3.06.43,1.28.56,2.66.79,3.81Z"/><path class="cls-4" d="m95.42,52.39c.97-.42,1.85-.94,2.6-.02.65.8.33,1.64-.11,2.41-.63,1.1-1.53,1.81-2.87,1.62-.8-.11-1.4-.59-1.88-1.23-1.41-1.89-1.58-5.76-.3-7.76.67-1.06,1.59-1.6,2.87-1.25.78.21,1.2.76,1.3,1.56.09.74.14,1.63-.63,1.92-1.41.54-1,1.57-.97,2.75Z"/><path class="cls-4" d="m66.99,41.04c-.03,1.39-.31,2.72-.69,4.03-.21.73-.7,1.18-1.5,1.08-.85-.11-1.07-.73-1.08-1.47,0-.36,0-.74.11-1.08.68-2.03.46-4.02-.17-6-.28-.9-.11-1.69.87-1.96.92-.26,1.42.36,1.69,1.17.47,1.38.69,2.81.77,4.24Z"/><path class="cls-4" d="m71.43,13.69c0,1.34-1.03,2.42-2.36,2.45-1.31.03-2.42-1.04-2.45-2.37-.03-1.35,1.05-2.55,2.27-2.53,1.41.02,2.53,1.1,2.54,2.45Z"/><path class="cls-4" d="m64.47,20.26c-.81-.05-1.26-.47-1.29-1.27-.03-.81.43-1.3,1.21-1.34.85-.04,1.37.44,1.35,1.32-.01.8-.48,1.23-1.28,1.3Z"/><path class="cls-4" d="m48.32,27.5c-.06.97-.6,1.39-1.34,1.37-.84-.03-1.33-.56-1.24-1.45.09-.81.58-1.21,1.39-1.16.85.05,1.16.59,1.19,1.24Z"/><path class="cls-4" d="m53.16,24.89c.84.06,1.29.47,1.28,1.21-.01.84-.52,1.33-1.38,1.33-.75,0-1.21-.44-1.19-1.18.02-.85.54-1.28,1.29-1.35Z"/><path class="cls-4" d="m59.55,21.42c.71.1,1.19.47,1.19,1.22,0,.82-.5,1.24-1.31,1.21-.77-.03-1.15-.49-1.11-1.24.03-.76.51-1.1,1.23-1.19Z"/><path class="cls-4" d="m66.45,48.59c-.11.72-.49,1.16-1.25,1.15-.76-.01-1.17-.44-1.16-1.2.01-.81.47-1.27,1.28-1.23.75.04,1.09.55,1.13,1.27Z"/><path class="cls-4" d="m79.81,19.46c-.09.83-.55,1.24-1.26,1.23-.79-.02-1.25-.48-1.19-1.31.05-.78.55-1.11,1.28-1.07.74.04,1.1.51,1.18,1.15Z"/><path class="cls-4" d="m79.5,41.01c-.04.73-.4,1.15-1.07,1.2-.68.04-1.14-.33-1.19-1.01-.05-.74.36-1.21,1.11-1.23.69-.02,1.04.44,1.15,1.05Z"/><path class="cls-4" d="m74.95,39.73c0,.69-.34,1.14-1.02,1.19-.74.05-1.18-.37-1.19-1.13-.01-.7.4-1.1,1.07-1.11.67-.02,1.08.36,1.14,1.05Z"/><path class="cls-4" d="m79.54,35.73c-.05.65-.38,1.09-1.07,1.14-.76.05-1.21-.38-1.21-1.12,0-.68.41-1.09,1.11-1.09.68,0,1.07.37,1.18,1.07Z"/><path class="cls-4" d="m105.55,53.78c-.04.67-.36,1.11-1.08,1.12-.69,0-1.13-.37-1.15-1.07-.02-.69.38-1.1,1.08-1.13.71-.03,1.08.37,1.15,1.08Z"/><path class="cls-4" d="m73.67,18.96c-.08.69-.45,1.09-1.16,1.05-.7-.04-1.09-.45-1.07-1.14.03-.7.47-1.07,1.16-1.05.72.02,1.04.46,1.07,1.14Z"/><path class="cls-4" d="m37.36,158.37c-1.28,0-2.34-1.21-2.32-2.66.02-1.34.96-2.4,2.09-2.36,1.05.04,2.38,1.54,2.4,2.73.02,1.23-.99,2.3-2.18,2.3Z"/><path class="cls-4" d="m21.52,117.85c-.11.9-.69,1.56-1.73,1.56-1.01,0-1.55-.65-1.56-1.68-.01-1.01.82-1.91,1.73-1.91.87,0,1.58.85,1.57,2.03Z"/><path class="cls-4" d="m13.24,114.89c-.93-.03-1.53-.42-1.54-1.38,0-1,.73-1.3,1.55-1.33.87-.03,1.52.36,1.49,1.34-.03.96-.69,1.29-1.5,1.37Z"/><path class="cls-4" d="m33.27,119.25c-.16.86-.65,1.46-1.6,1.43-.7-.02-1.17-.47-1.12-1.24.05-.93.57-1.53,1.51-1.55.8-.02,1.19.51,1.21,1.35Z"/><path class="cls-4" d="m31.61,130.4c-.15.77-.52,1.36-1.42,1.31-.85-.04-1.18-.67-1.14-1.41.04-.81.46-1.39,1.38-1.32.84.06,1.14.62,1.18,1.42Z"/><path class="cls-4" d="m35.98,150.24c-.02.84-.36,1.33-1.12,1.37-.82.04-1.28-.43-1.29-1.23-.01-.75.42-1.18,1.17-1.19.77-.02,1.12.46,1.24,1.06Z"/><path class="cls-4" d="m35.17,127.46c-.07.72-.46,1.1-1.15,1.09-.7-.01-1.09-.42-1.06-1.13.03-.7.43-1.11,1.13-1.08.69.02,1.04.46,1.09,1.13Z"/><path class="cls-4" d="m97.79,129.01c.17-2.77-.28-5.62-.94-8.45-.06-.26-.1-.54-.12-.8-.05-.71.19-1.26.92-1.47.66-.19,1.12.14,1.49.66.65.92.83,1.99.98,3.07.41,3,1.22,5.94,1.27,8.99,0,.54.02,1.11-.13,1.61-.28.93-.87,1.67-1.96,1.47-1-.18-1.54-.85-1.51-1.94.03-1,0-1.99,0-3.14Z"/><path class="cls-4" d="m101.1,138.51c-.05.84-.49,1.25-1.22,1.23-.73-.02-1.19-.44-1.19-1.2,0-.82.49-1.28,1.29-1.24.73.04,1.11.53,1.13,1.21Z"/><path class="cls-4" d="m92.11,103.93c.03,1.29-1,2.09-2.26,1.75-.95-.26-1.68-.88-2.34-1.57-3.29-3.43-6.72-6.73-9.6-10.53-.52-.69-.78-1.37-.16-2.07.6-.68,1.43-.75,2.07-.18,3.25,2.88,7.06,5.09,9.89,8.45.73.87,1.43,1.75,1.97,2.76.24.44.45.89.43,1.41Z"/><path class="cls-4" d="m93.04,107.78c.7.1,1.07.5,1.06,1.18-.01.69-.42,1.09-1.11,1.08-.74-.02-1.18-.45-1.12-1.21.06-.68.51-1,1.16-1.04Z"/><path class="cls-4" d="m55,63.93c-.04.41-.11,1.04-.17,1.67-.1.89-.56,1.49-1.48,1.42-.95-.08-1.29-.86-1.19-1.68.19-1.5.07-2.97-.12-4.45-.07-.54-.18-1.07-.23-1.61-.08-.84.12-1.59,1.08-1.74.98-.16,1.39.52,1.54,1.33.31,1.6.51,3.21.57,5.06Z"/><path class="cls-4" d="m27.71,71.69c-1.1,0-2.07-.98-2.06-2.1.01-1.27,1.21-2.48,2.42-2.45,1.12.02,1.91.84,1.94,2.01.04,1.33-1.06,2.54-2.3,2.55Z"/><path class="cls-4" d="m50.69,59.41c-.08.38-.17,1.1-.37,1.79-.21.7-.68,1.2-1.5,1.05-.89-.16-1.12-.84-1.07-1.61.04-.62.16-1.25.3-1.86.18-.79.51-1.51,1.5-1.39.96.12,1.18.85,1.14,2.02Z"/><path class="cls-4" d="m31.04,53.4c-.03.98-.97,1.82-1.99,1.78-1-.04-1.77-.88-1.73-1.86.04-1.02.84-1.73,1.89-1.68,1.06.05,1.86.82,1.83,1.77Z"/><path class="cls-4" d="m28.97,61.93c-.78-.04-1.25-.44-1.3-1.16-.05-.83.39-1.41,1.25-1.46.74-.05,1.21.4,1.26,1.13.06.85-.44,1.32-1.21,1.49Z"/><path class="cls-4" d="m34.88,53.59c-.07.73-.49,1.19-1.21,1.2-.79,0-1.26-.47-1.21-1.3.04-.76.52-1.14,1.25-1.12.74.02,1.14.45,1.16,1.22Z"/><path class="cls-4" d="m32.04,67.75c-.75-.03-1.19-.35-1.22-1.07-.02-.69.36-1.12,1.05-1.15.7-.03,1.11.36,1.14,1.05.04.71-.36,1.07-.98,1.16Z"/><path class="cls-4" d="m54.3,88.3c-1.96-.04-3.25-.92-3.89-2.8-.75-2.19-1.82-4.24-2.98-6.24-.5-.87-.99-1.75.14-2.47.91-.58,2.14-.08,2.7,1.04.84,1.65,1.57,3.36,2.47,4.99.64,1.17,1.31,2.36,2.9,2.6.81.13.97.89.79,1.62-.27,1.12-1.21,1.2-2.12,1.26Z"/><path class="cls-4" d="m60.9,86.99c-.09.87-.57,1.27-1.36,1.2-.84-.07-1.32-.58-1.29-1.42.02-.83.56-1.19,1.35-1.14.86.06,1.25.6,1.31,1.36Z"/><path class="cls-4" d="m57.61,125.45c1.01-.03,1.79.67,1.74,1.65-.06,1.04-.64,1.71-1.7,1.73-1.03.02-1.72-.52-1.8-1.61-.08-1.02.65-1.74,1.77-1.77Z"/><path class="cls-4" d="m60.25,121.44c-.09.8-.49,1.26-1.23,1.25-.81,0-1.26-.49-1.2-1.31.06-.74.53-1.12,1.27-1.1.77.02,1.1.5,1.15,1.16Z"/><path class="cls-4" d="m58.84,132.19c-.08.75-.45,1.19-1.21,1.19-.75,0-1.18-.42-1.21-1.17-.03-.74.35-1.22,1.1-1.25.82-.03,1.21.46,1.31,1.23Z"/><path class="cls-4" d="m52.76,126.04c-.08.74-.46,1.23-1.2,1.22-.81,0-1.22-.51-1.19-1.31.03-.76.49-1.15,1.22-1.12.75.03,1.1.52,1.16,1.21Z"/><path class="cls-4" d="m97.55,153.7c-.07,2.35-.42,4.67-1.03,6.95-.23.87-.64,1.75-1.74,1.45-1.05-.28-1.06-1.22-.89-2.12.5-2.57,1.09-5.12.99-7.77-.03-.84.33-1.58,1.3-1.57.94.01,1.29.73,1.35,1.57.04.49,0,.99,0,1.49Z"/><path class="cls-4" d="m93.69,152.66c-.15,1.39-.31,3.06-.54,4.71-.11.8-.46,1.58-1.42,1.51-1.03-.08-1.3-.92-1.23-1.79.14-1.8.32-3.6.56-5.39.11-.81.55-1.48,1.54-1.36.79.1,1.16.83,1.09,2.31Z"/><path class="cls-4" d="m35.14,37.21c-1.16.03-2.13-.81-2.05-1.87.07-1.01.6-1.7,1.7-1.75,1.14-.05,2.25.89,2.26,1.9,0,.94-.83,1.69-1.9,1.72Z"/><path class="cls-4" d="m30.84,42.24c0,.83-.47,1.46-1.49,1.57-.92.1-1.71-.7-1.68-1.71.03-.95.42-1.67,1.48-1.75.93-.07,1.65.68,1.68,1.89Z"/><path class="cls-4" d="m40.49,35.24c-.72-.07-1.2-.42-1.21-1.19-.02-.75.39-1.2,1.14-1.23.82-.04,1.29.38,1.28,1.21-.01.76-.49,1.12-1.21,1.21Z"/><path class="cls-4" d="m36.83,40.69c-.04.67-.38,1.1-1.09,1.11-.7.01-1.11-.37-1.13-1.08-.02-.7.37-1.11,1.08-1.12.7-.02,1.08.37,1.14,1.09Z"/><path class="cls-4" d="m44.47,103.18c-.01,1.18-.94,2.19-2,2.08-1.03-.11-1.64-.69-1.61-1.79.03-1.23.91-2.22,1.93-2.2.99.03,1.69.82,1.68,1.9Z"/><path class="cls-4" d="m50.43,106.8c-.06.82-.46,1.24-1.2,1.26-.73.02-1.22-.34-1.24-1.11-.02-.82.47-1.27,1.25-1.28.73,0,1.13.46,1.2,1.13Z"/><path class="cls-4" d="m48.21,98.42c-.07.78-.48,1.22-1.2,1.26-.71.03-1.22-.3-1.26-1.09-.04-.83.43-1.28,1.22-1.29.73-.01,1.15.43,1.24,1.12Z"/><path class="cls-4" d="m48.68,117.08c-.07.7-.37,1.23-1.13,1.26-.82.04-1.26-.45-1.26-1.24,0-.74.39-1.18,1.16-1.18.77,0,1.12.46,1.23,1.17Z"/><path class="cls-4" d="m32.12,89.24c-1.5,0-2.42-.93-2.42-2.46,0-1.54.76-2.47,2.05-2.5,1.38-.03,2.39.96,2.43,2.36.04,1.65-.71,2.6-2.06,2.6Z"/><path class="cls-4" d="m31.19,78.83c.85.05,1.42.53,1.43,1.42,0,.81-.46,1.36-1.35,1.36-.94,0-1.44-.58-1.47-1.43-.03-.82.45-1.34,1.39-1.35Z"/><path class="cls-4" d="m36.48,94.65c-.04.74-.43,1.21-1.16,1.25-.72.03-1.2-.36-1.25-1.12-.05-.82.38-1.31,1.19-1.31.72,0,1.14.46,1.22,1.19Z"/><path class="cls-4" d="m38.66,84.81c.65.07,1.06.45,1.05,1.13-.02.67-.42,1.09-1.11,1.09-.76,0-1.18-.45-1.14-1.19.04-.68.49-1.02,1.2-1.03Z"/><path class="cls-4" d="m63.93,149.12c-.05.68-.39,1.18-1.13,1.24-.73.06-1.23-.28-1.29-1.04-.07-.8.35-1.31,1.15-1.35.73-.04,1.16.38,1.27,1.15Z"/><path class="cls-4" d="m64.65,157.39c-.04.76-.38,1.26-1.14,1.27-.82.01-1.25-.51-1.24-1.28,0-.72.43-1.16,1.2-1.15.77.01,1.11.47,1.17,1.16Z"/><path class="cls-4" d="m90.14,172.43c-.12,1.8-.27,3.61-.8,5.34-.17.56-.39,1.11-.69,1.61-.37.62-1,.79-1.66.53-.69-.27-.93-.92-.72-1.56.74-2.2,1.15-4.44,1.26-6.76.04-.8.5-1.48,1.49-1.4.88.07,1.2.75,1.12,2.25Z"/><path class="cls-4" d="m65.43,173.44c-.77-.07-1.16-.49-1.14-1.24.02-.75.45-1.17,1.2-1.18.75,0,1.2.43,1.21,1.16.01.81-.48,1.22-1.27,1.26Z"/><path class="cls-4" d="m70.62,170.54c-.02.7-.37,1.14-1.05,1.16-.74.03-1.18-.4-1.16-1.16.01-.69.44-1.09,1.11-1.09.68,0,1.05.41,1.1,1.09Z"/><path class="cls-4" d="m106.74,150.76c-.14.86-.34,1.73-1.47,1.75-.89.01-1.3-.62-1.3-1.41,0-.88.37-1.6,1.39-1.66.91-.06,1.28.48,1.38,1.33Z"/><path class="cls-4" d="m105.27,154.65c-.07.71-.43,1.11-1.15,1.08-.7-.03-1.11-.43-1.09-1.12.02-.69.45-1.08,1.14-1.07.72,0,1.04.44,1.09,1.11Z"/><path class="cls-4" d="m64,192.24c-.1.81-.5,1.27-1.24,1.24-.72-.02-1.16-.45-1.15-1.21.01-.76.45-1.15,1.19-1.15.77,0,1.09.5,1.19,1.11Z"/><path class="cls-4" d="m71.13,208.52c.38-2.17.74-4.45,1.51-6.64.28-.8.8-1.38,1.73-1.14.89.23,1.03.99.87,1.74-.47,2.21-.98,4.41-1.53,6.6-.2.77-.76,1.26-1.63,1.09-.83-.16-1.03-.79-.96-1.65Z"/><path class="cls-4" d="m75.73,202.83c.02-.84.37-1.36,1.21-1.36.88,0,1.31.56,1.35,1.37.03.78-.37,1.33-1.2,1.32-.85-.01-1.27-.57-1.36-1.34Z"/><path class="cls-4" d="m77.95,201.11c-.75-.09-1.16-.49-1.15-1.24,0-.75.42-1.2,1.15-1.22.81-.01,1.26.49,1.22,1.29-.03.73-.52,1.11-1.22,1.17Z"/><path class="cls-4" d="m62.47,200.11c.75.02,1.24.34,1.28,1.11.04.86-.38,1.38-1.26,1.4-.75.02-1.18-.4-1.19-1.16-.02-.8.4-1.25,1.17-1.35Z"/><path class="cls-4" d="m61.62,207.6c-.65-.08-1.09-.41-1.08-1.11,0-.75.45-1.17,1.19-1.13.69.03,1.03.5,1.02,1.17-.02.7-.44,1.03-1.13,1.07Z"/><path class="cls-4" d="m79.58,190.04c-.08.76-.5,1.16-1.25,1.12-.75-.03-1.17-.48-1.16-1.22,0-.74.44-1.2,1.18-1.2.81,0,1.21.51,1.24,1.3Z"/><path class="cls-4" d="m60.16,249.67c-.14.76-.51,1.32-1.32,1.31-.81,0-1.26-.55-1.22-1.32.04-.75.46-1.28,1.29-1.28.85,0,1.17.55,1.25,1.29Z"/><path class="cls-4" d="m56.61,228.99c.03-.4.03-.81.08-1.21.09-.62.48-.96,1.1-1,.66-.04,1.19.26,1.3.93.11.71.1,1.44.08,2.16-.02.77-.37,1.32-1.21,1.34-.92.01-1.25-.58-1.3-1.4-.02-.27,0-.54,0-.81-.01,0-.03,0-.04,0Z"/><path class="cls-4" d="m59.43,234.71c-.06.74-.46,1.16-1.22,1.15-.75-.01-1.19-.44-1.19-1.18,0-.81.47-1.28,1.28-1.24.74.04,1.11.52,1.13,1.27Z"/><path class="cls-4" d="m57.34,218.29c.25-1.12.46-2.28.97-3.34.32-.66.9-.87,1.59-.64.66.22.94.78.81,1.39-.23,1.1-.53,2.18-.9,3.24-.23.65-.79.98-1.52.83-.79-.17-.87-.81-.95-1.47Z"/><path class="cls-4" d="m71.22,218.5c-.12.97-.21,2.06-.41,3.12-.14.76-.57,1.41-1.46,1.32-.89-.09-1.21-.82-1.16-1.59.11-1.63.3-3.25.51-4.86.1-.71.58-1.12,1.33-1.1.71.02,1.09.45,1.16,1.1.07.62.01,1.26.01,2.01Z"/><path class="cls-4" d="m68.11,235.96c-.09.71-.49,1.19-1.22,1.17-.8-.02-1.23-.52-1.18-1.33.05-.77.53-1.13,1.26-1.1.76.04,1.12.5,1.14,1.26Z"/><path class="cls-4" d="m70.01,245.64c.08.26.19.52.22.78.1.9-.25,1.57-1.19,1.64-.91.07-1.31-.57-1.25-1.41.08-.94.66-1.35,1.6-1.18.22.04.43.13.65.2,0,0-.03-.03-.03-.03Z"/></svg>