<?xml version="1.0" encoding="UTF-8"?><svg id="Layer_1" xmlns="http://www.w3.org/2000/svg" viewBox="0 0 239.68 147.72"><defs><style>.cls-1{stroke:#95a1c6;stroke-miterlimit:10;stroke-width:6.02px;}.cls-1,.cls-2{fill:#182a42;}.cls-3{fill:#95a1c6;}.cls-3,.cls-2,.cls-4{stroke-width:0px;}.cls-4{fill:#ffeadc;}</style></defs><path class="cls-4" d="m49.66,95.4c.48-6.1-.45-12.58-.61-19.09-.1-4.04-.15-8.16.77-12.17.25-1.08.19-2.16.22-3.25.16-6.43.56-12.85.55-19.29,0-4.17,2.06-7.66,4.68-10.76,3.31-3.92,7.46-6.71,12.26-8.5,4.92-1.84,9.95-3.34,14.78-5.44,3.15-1.37,6.54-1.2,9.91-.98,2.3.15,4.66.37,6.92.06,2.99-.41,4.6-2.71,5.62-5.35.55-1.43.82-2.96,1.33-4.41C107.46,2.25,110.52.08,114.73,0c4.45-.08,8.82.91,13.26.95,1.94.02,3.88.32,5.83.36,4.67.1,9.3.55,13.94,1.05,4.36.48,8.74.82,13.11,1.13,3.76.26,7.49.59,11.08,1.83,5.21,1.79,8.21,5.4,9.02,10.85.21,1.43.56,2.83,1.09,4.19,1.49,3.81,4.82,5.98,8.94,6.12,5.51.18,11.06-.03,16.52,1,5.79,1.09,11.29,3.08,16.37,6.02,3.81,2.2,5.35,6.21,7.16,9.99,2.98,6.21,3.65,12.83,3.79,19.56.03,1.69.35,3.22,1.25,4.65,3.54,5.63,4.31,11.74,2.99,18.14-1.19,5.77-1.73,11.62-2.29,17.46-.37,3.87-.59,7.77-1.15,11.61-.57,3.98-2.66,7.26-5.35,10.2-3.9,4.26-8.21,8.05-12.79,11.57-1.18.91-2.31,1.9-3.42,2.9-3.36,3.01-7.44,4.1-11.77,4.75-6.53.99-12.99.4-19.48-.41-3.41-.42-6.85-.64-10.24-1.21-4.9-.83-9.73-2.02-14.58-3.09-7.24-1.59-14.31-3.9-21.65-5-7.15-1.07-14.29-2.17-21.5-2.86-6.12-.59-12.22-1.38-18.33-2.07-3.87-.44-7.73-.89-11.6-1.27-5.4-.52-10.52-2.21-15.67-3.77-2.55-.78-5.11-1.53-7.6-2.52-5.3-2.11-8.28-6.19-9.64-11.51-.8-3.15-1.72-6.28-2.16-9.52-.24-1.76-.16-3.53-.2-5.72ZM135.34,20.69c-2.73.06-4.97-.14-7.07.83-1.35.62-2.27,2.04-2.06,3.21.2,1.11,1.26,1.82,2.92,1.97.59.05,1.17.16,1.75.24,6.31.86,12.63,1.71,18.94,2.59,1.38.19,2.52-.16,3.32-1.29.82-1.14.6-2.32-.13-3.42-1.17-1.79-3.13-2.28-5-2.7-4.34-.98-8.76-1.35-12.68-1.42Z"/><path class="cls-3" d="m106.83,24.14c1.34.17,2.68.4,3.94-.41.36-.23.65-.3.55-.87-.61-3.73-.29-7.47-.12-11.21.05-1.04.32-1.97,1.34-2.49,1.4.31,2.77.72,4.24.57,1.08-.11,2.19-.13,3.26.04,6.5,1.01,13.07,1.03,19.6,1.61,3.15.28,6.31.54,9.46.88,6.27.68,12.55,1.33,18.86,1.63,1.45.07,2.39-.33,3.16-1.43,2.41-.04,3.34.82,3.18,3.25-.49,7.33-.11,14.67-.2,22-.01.94.12,1.31,1.25,1.52,2.13.39,3.81-.08,5.56-1.29,2.07-1.44,4.33-2.62,6.54-3.86.54-.3,1.18-.55,1.78-.6,2.77-.22,5.51-.07,8.21.66.44.12.84.29,1.17.62-1.85-.33-3.6-.34-5.47.3-2.15.74-4.12,1.57-5.68,3.26-.35.38-.92.56-1.39.83-1.85,1.03-3.76,1.92-5.22,3.59-1.09,1.25-2.26,2.49-3.98,3-.75.22-1.26.88-1.78,1.44-1.03,1.09-2.11,2.11-3.38,2.94-.69.45-1.35,1.03-1.02,2,.31.92,1.12.93,1.91.93,2.27,0,4.54.06,6.77.42,5.99.96,11.91,2.29,17.74,3.97,1,.29,2.03.45,3.18.7-.47.38-.82.6-1.09.89-.81.85-.8,2.14-.02,3.11.81,1.01,2.18,1.35,3.13.78.99-.59,1.28-1.75.71-2.96-.19-.41-.38-.84-.67-1.17-.43-.51-.25-.67.26-.99,4.56-2.94,9.47-5.12,14.55-6.96.68-.25,1.59-.37,1.88-1,.63-1.37,1.95-1.61,3.05-2.22.83-.46,1.69-.87,2.51-1.35.74-.44,1.5-.9,1.49-1.93,2.07,1.4,2.58,3.59,2.59,5.83.02,3.35.45,6.68.39,10.03-.05,2.67.15,5.35-.24,8-.08.57.12,1.08.35,1.57,1.03,2.21,1.71,4.58,3.29,6.52.41.51.6,1.18.58,1.79-.09,2.27.27,4.51.37,6.77-.13-.01-.28.01-.4-.04-2.1-.95-3.4-.62-4.64,1.24-.41.62-.93,1.12-1.51,1.54-4.83,3.5-10.08,6.29-15.49,8.74-3.61,1.64-7.41,3.04-11.5,2.89-2.35-.08-4.69-.47-7.03-.61-2.53-.15-5.01-.81-7.57-.74-1,.02-1.94.47-2.96.28-3.16-.59-6.31-1.25-9.49-1.67-4.52-.6-9.05-1.22-13.64-.73-1.83.2-3.64.81-5.52.51-1.62-.26-3.27-.13-4.88-.33-2.59-.32-5.24-.32-7.77-1.17-2.71-.91-4-.02-4.3,2.83-.27,2.52-.18,5.07-.74,7.56-.33,1.46-2.82,3.33-4.25,2.93-1.59-.45-3.1-.59-4.58.34-.37.23-.86.34-1.3.35-3.49.11-6.98.2-10.48,0-.94-.05-1.83-.33-2.16-1.34-.74-2.22-2.33-3.07-4.58-3.06-1.12,0-1.95-.43-2.14-1.78-.14-.99-.9-1.69-1.9-1.93-.91-.22-1.11-.75-1.05-1.59.14-1.94.08-3.89.28-5.84.32-3.05-.73-4.23-3.8-4.26-4.65-.05-9.01-1.4-13.38-2.73-.55-.17-.98-.42-1.24-.96-.68-1.46-1.95-2.14-3.46-2.32-5.4-.62-10.74-1.67-16.04-2.8-3.2-.68-6.64-.05-9.61-1.85-.1-.06-.27-.03-.4-.05-1.83-.21-2.35,1.17-2.95,2.44-.31-2.76-.05-5.52.06-8.27.07-1.66.75-3.22,2.69-3.65.74-.16.6-.72.57-1.18-.22-3.91.28-7.79.38-11.68.13-5.05,1.19-9.98,1.58-14.99.14-1.83.85-2.88,2.57-3.33.52.64,1.2.94,2.01.97,2.12.1,4.25.18,6.37.31,3.83.23,7.69.21,11.45,1.15,1.06.26,1.95.02,2.76-.7,1.7-1.49,3.48-2.89,5.36-4.16.6-.41,1.39-.76,1.67-1.34.6-1.22,1.67-1.27,2.72-1.72,4.07-1.74,8.51-2.52,12.35-4.85,1.62-.98,1.83-1.26,1.37-3.13Zm13.67-2.52s-.06,0-.09,0c0,1.5-.04,2.99.01,4.49.05,1.5.69,1.89,1.98,1.33,1.55-.68,2.3-.33,2.9,1.29.26.69.39,1.39.39,2.12,0,.45.12.76.64.88,6.08,1.4,12.24,2.43,18.38,3.5,5.93,1.03,12,.89,17.96,1.79.77.12.73-.25.7-.73-.31-4.58-.16-9.16-.2-13.74,0-.95-.4-1.24-1.23-1.4-5.34-.98-10.68-1.99-16.01-2.99-4.78-.9-9.63-1.04-14.47-1.33-3.3-.2-6.61-.23-9.92-.37-.82-.03-1.12.21-1.07,1.07.08,1.36.02,2.72.02,4.08Zm34.37,38.73c1.23,0,2.45-.01,3.68,0,1.31.01,2.5-.36,3.63-.98.79-.44,1.44-.96,1.32-2.01-.11-1-.86-1.28-1.65-1.57-3.79-1.38-7.76-1.68-11.73-1.98-2.84-.21-5.7-.26-8.53-.7-4.96-.78-9.93-1.5-14.89-2.31-4.07-.66-8.19-.91-12.27-1.44-5.11-.66-10.1-2.07-15.21-2.78-2.42-.33-4.81-.88-7.27-.89-1.07,0-2.1.21-2.75,1.19-1.04,1.57-.33,3.22,1.64,3.9,4.21,1.45,8.62,2.02,12.94,2.98,6.27,1.39,12.62,2.35,19,3.07,3.95.44,7.91.9,11.84,1.5,6.72,1.02,13.42,2.1,20.25,2.02Zm50.21,15.18c0-1.95.03-3.9,0-5.85-.03-1.46-.29-2.89-1.08-4.15-.66-1.06-1.64-1.77-2.94-1.56-1.38.23-1.99,1.26-2.2,2.59-.35,2.26-.08,4.51-.06,6.77.06,5.89.41,11.76.7,17.64.09,1.91-.13,3.92.68,5.76.51,1.17,1.41,1.91,2.74,1.84,1.15-.06,2.08-1.13,2.2-2.56.13-1.53.33-3.09.18-4.61-.54-5.29-.2-10.58-.2-15.87Zm-16.55,15.97s0-.08.01-.12c.73,0,1.45-.02,2.18,0,.62.02,1.08-.21,1.27-.8.2-.64-.04-1.17-.58-1.54-.72-.5-1.55-.77-2.4-.91-3.44-.57-6.88-1.07-10.32-1.64-3.94-.66-7.93-.7-11.9-1.07-1.89-.18-3.8-.21-5.7-.29-.75-.03-1.38.19-1.47,1.06-.09.88.53,1.17,1.23,1.35.44.11.88.19,1.33.27,4.99.88,9.97,1.81,15.01,2.38,3.78.43,7.55.87,11.32,1.3Zm-106.56-18.36c.68,0,1.36-.01,2.04,0,.68.02,1.31-.08,1.49-.86.2-.83-.21-1.41-.94-1.76-.36-.17-.77-.27-1.16-.37-3.87-.95-7.87-1.16-11.78-1.89-2.39-.45-4.8-.95-7.26-.89-.65.02-1.18.2-1.37.88-.2.72.15,1.21.76,1.57.68.4,1.43.54,2.18.72,5.28,1.26,10.57,2.5,16.04,2.6Zm130.77,19.32s.4-.1.73-.23c2.91-1.15,5.73-2.48,8.4-4.11,1.7-1.04,3.39-2.1,4.94-3.34.54-.43.82-.99.56-1.67-.25-.65-.84-.73-1.46-.74-1.04-.01-1.93.45-2.81.91-2.4,1.26-4.8,2.54-7.18,3.84-1.51.82-3.03,1.62-4.38,2.71-.52.42-.74.89-.43,1.53.28.57.5,1.21,1.63,1.11Zm-134.19-13.07c1.2-.09,2.29.07,3.37-.2.53-.13.91-.37.97-.97.07-.65-.23-1.05-.81-1.24-.42-.14-.87-.26-1.31-.32-2.15-.28-4.3-.52-6.44-.83-1.3-.19-2.6-.38-3.91-.25-.68.07-1.36.33-1.46,1.17-.09.79.45,1.05,1.07,1.34,2.76,1.28,5.73,1.03,8.52,1.29Zm57.01-8.69c.96-.08,1.63,0,2.31-.17.79-.22,1.66-.26,1.67-1.4,0-1.09-.83-1.34-1.62-1.49-1.94-.38-3.89-.68-5.84-1.03-1.02-.18-2.04-.37-3.09-.29-.76.06-1.28.44-1.46,1.19-.15.68.24,1.04.8,1.4,2.31,1.47,4.97,1.4,7.24,1.79Zm45.57-13.68c-.78.08-1.65-.19-1.87.82-.21.99.53,1.34,1.27,1.64.29.12.6.21.9.3,2.27.64,4.6.93,6.94,1.11.94.07,1.89.2,2.83.16.69-.03,1.15-.48,1.16-1.26,0-.64-.24-1.01-.91-1.12-3.47-.55-6.94-1.11-10.33-1.66Zm-73.91-21.17s-.2,0-.43,0c-.89,0-1.53.37-1.59,1.3-.06.88.6,1.11,1.34,1.21.67.09,1.33.23,2,.33,2.32.36,4.64.72,6.97,1.05.65.09,1.33.05,1.6-.68.19-.52.17-1.12-.36-1.48-.37-.25-.8-.49-1.22-.56-2.68-.42-5.34-.96-8.3-1.17Zm-37.47,5.99s0,.02,0,.04c-1.13,0-2.27-.04-3.4.02-.53.03-1.1.2-1.2.89-.09.62.34.86.8,1.11,2.32,1.27,4.83.96,7.3.82.66-.04,1.58-.49,1.42-1.51-.13-.88-.88-1.27-1.66-1.34-1.08-.1-2.17-.03-3.26-.03Zm73.75,48.16c1.97-.1,4.16-.8,6.36-1.44.58-.17,1.08-.6.93-1.3-.15-.68-.73-.9-1.35-.92-.44,0-.9.09-1.34.19-2.11.46-4.33.46-6.31,1.45-.45.22-.92.52-.81,1.12.12.62.63.85,1.21.9.31.03.63,0,1.3,0Zm50.49,6.89s0-.05,0-.07c.59,0,1.18.01,1.76,0,.55-.01.98-.26,1.1-.82.1-.53-.32-.8-.67-1.09-.39-.31-.86-.26-1.3-.24-2.13.05-4.24-.18-6.35-.39-.73-.07-1.35.12-1.49.82-.15.78.47,1.1,1.17,1.18,1.93.22,3.85.41,5.78.61Zm-75.35-1.5c.41-.05.92-.14,1.14-.67.23-.56-.08-.98-.52-1.26-1.85-1.19-4-1.34-6.08-1.7-.59-.1-.94.48-.92,1.11.03.81.61,1.19,1.27,1.43,1.62.59,3.34.75,5.12,1.1Zm-20.26-9.14c.67-.03.98-.03,1.3-.06.58-.05,1.09-.2,1.13-.91.05-.85-.57-1.1-1.22-1.17-1.61-.19-3.23-.36-4.77-.88-.64-.21-1.19-.29-1.52.35-.37.73.08,1.26.72,1.5,1.52.57,3.08,1.01,4.35,1.17Zm47.02,7.29s0,.01,0,.02c.36,0,.73,0,1.09,0,.7.01,1.37-.15,1.36-.97,0-.72-.65-.91-1.28-.93-.95-.03-1.9-.04-2.85-.04-.57,0-.98.24-.97.88.01.57.34.96.9,1.03.58.07,1.18.02,1.77.02Zm-45.8-11.96c.68.02,1.1-.12,1.22-.66.12-.54,0-1.01-.56-1.23-.71-.28-1.43-.56-2.16-.78-.45-.13-.9-.09-1.17.42-.3.56-.06,1,.36,1.3.74.52,1.6.81,2.31.95Zm21.2-41.66c.61,0,1.12-.24,1.15-.87.04-.77-.62-.93-1.21-.96-.57-.03-1.11.19-1.12.88-.01.77.51.97,1.18.95Zm4.79-.55c-.04-.66-.43-.86-.99-.85-.51,0-.88.22-.9.78-.02.61.31.9.91.9.57,0,.93-.25.98-.83Z"/><path class="cls-4" d="m52.77,80.67c.61-1.27,1.12-2.65,2.95-2.44.14.02.3-.02.4.05,2.97,1.81,6.42,1.18,9.61,1.85,5.31,1.12,10.64,2.17,16.04,2.8,1.51.17,2.77.85,3.46,2.32.25.55.69.8,1.24.96,4.38,1.33,8.73,2.68,13.38,2.73,3.07.03,4.12,1.21,3.8,4.26-.2,1.95-.15,3.89-.28,5.84-.06.84.14,1.37,1.05,1.59,1,.24,1.76.94,1.9,1.93.19,1.36,1.02,1.79,2.14,1.78,2.25,0,3.84.84,4.58,3.06.34,1.01,1.22,1.29,2.16,1.34,3.49.19,6.98.1,10.48,0,.44-.01.94-.12,1.3-.35,1.48-.93,2.99-.79,4.58-.34,1.43.4,3.92-1.46,4.25-2.93.57-2.5.47-5.05.74-7.56.3-2.85,1.59-3.74,4.3-2.83,2.52.85,5.17.85,7.77,1.17,1.61.2,3.26.07,4.88.33,1.88.3,3.68-.31,5.52-.51,4.6-.49,9.12.14,13.64.73,3.18.42,6.33,1.09,9.49,1.67,1.02.19,1.96-.26,2.96-.28,2.56-.06,5.04.59,7.57.74,2.35.14,4.68.53,7.03.61,4.09.14,7.88-1.25,11.5-2.89,5.4-2.45,10.66-5.24,15.49-8.74.59-.43,1.1-.93,1.51-1.54,1.24-1.86,2.54-2.19,4.64-1.24.12.05.27.03.4.04.62,2.24-.45,3.7-2.21,4.88-.41.27-.7.71-1.08,1.03-.88.74-1.42,1.26-.36,2.53,1.08,1.29.27,3.07-.02,4.59-.67,3.51-1.13,7.04-1.2,10.6-.08,3.98-.33,7.93-1.09,11.84-.29,1.5-1.05,2.74-2.12,3.85-3.74,3.91-7.93,7.25-12.46,10.21-3.63,2.37-7.01,5.12-11.03,6.88-1.79.78-3.51,1.36-5.49.81-2.72-.76-5.56-.51-8.33-.81-3.85-.41-7.71-.76-11.58-1.04-1.71-.12-3.4-.42-5.1-.62-1.39-.16-2.79-.35-3.83-1.47-1.67-1.8-4.01-2.22-6.2-2.79-7.21-1.86-14.44-3.62-21.69-5.33-3.95-.93-8-1.26-12.01-1.83-5.76-.82-11.48-1.87-17.08-3.46-2.06-.59-4.18-.66-6.28-.89-3.72-.41-7.44-.87-11.17-1.03-4.07-.18-8.21-.42-12.23.09-2.15.27-3.81-.01-5.67-.8-1.99-.84-4.09-1.45-6.19-2.01-2.67-.72-5.11-2.04-7.74-2.89-2.27-.73-3.1-2.55-2.61-5,.57-2.82-.03-5.59-.19-8.37-.22-3.91-1.3-7.72-1.52-11.64-.14-2.43-.38-4.85-.52-7.28-.04-.7-.41-.92-.96-1.11-1.46-.5-2.22-1.61-2.56-3.06Z"/><path class="cls-4" d="m225.93,44.3c0,1.03-.75,1.5-1.49,1.93-.82.48-1.68.89-2.51,1.35-1.1.61-2.42.86-3.05,2.22-.29.63-1.2.75-1.88,1-5.08,1.84-10,4.01-14.55,6.96-.5.32-.68.48-.26.99.28.34.48.77.67,1.17.56,1.21.27,2.37-.71,2.96-.95.57-2.32.23-3.13-.78-.78-.97-.78-2.25.02-3.11.27-.29.62-.51,1.09-.89-1.15-.25-2.18-.41-3.18-.7-5.84-1.68-11.75-3.01-17.74-3.97-2.24-.36-4.51-.43-6.77-.42-.79,0-1.61,0-1.91-.93-.33-.97.33-1.55,1.02-2,1.27-.83,2.35-1.84,3.38-2.94.53-.56,1.04-1.22,1.78-1.44,1.72-.51,2.89-1.76,3.98-3,1.46-1.67,3.37-2.56,5.22-3.59.47-.26,1.04-.45,1.39-.83,1.56-1.7,3.54-2.53,5.68-3.26,1.87-.64,3.62-.63,5.47-.3,2.35.62,4.7,1.71,7.06,1.74,3.1.05,5.84,1.08,8.57,2.13,3.16,1.21,6.6,1.57,9.6,3.22,1.03.57,2.4.84,2.27,2.48Z"/><path class="cls-4" d="m106.66,24.11c.46,1.87.24,2.15-1.37,3.13-3.84,2.33-8.28,3.11-12.35,4.85-1.05.45-2.12.5-2.72,1.72-.29.58-1.08.94-1.67,1.34-1.88,1.27-3.66,2.67-5.36,4.16-.81.71-1.7.96-2.76.7-3.76-.94-7.62-.91-11.45-1.15-2.12-.13-4.25-.21-6.37-.31-.81-.04-1.49-.33-2.01-.97-.18-1.43.54-2.2,1.87-2.53.57-.14,1.17-.21,1.71-.37.92-.29,2.55.35,2.39-1.66-.04-.56.65-.83,1.18-.98.95-.28,1.91-.56,2.87-.78.83-.19,1.69-.21,1.9-1.36.08-.41.69-.53,1.14-.64,1.4-.36,2.79-.73,4.19-1.07.65-.15,1.09-.4,1.03-1.16-.06-.81.49-1.27,1.12-1.55,2.03-.9,4.09-1.68,6.37-1.65,2.81.04,5.63-.14,8.43.06,2.4.17,4.79.28,7.18.19,1.57-.06,3.13-.44,4.69.04Z"/><path class="cls-4" d="m170.95,12.42c-.78,1.1-1.72,1.5-3.16,1.43-6.31-.3-12.58-.95-18.86-1.63-3.15-.34-6.3-.6-9.46-.88-6.53-.58-13.1-.6-19.6-1.61-1.06-.16-2.18-.14-3.26-.04-1.48.15-2.85-.26-4.24-.57-.72-2.19.09-3.27,2.46-3.27,5.24,0,10.42.59,15.6,1.31,3.56.49,7.16.7,10.73,1.17,4.37.57,8.76.86,13.13,1.51,2.39.35,4.85.33,7.26.66,2.37.32,4.73.7,7.13.54,1.09-.07,1.53.89,2.27,1.38Z"/><path class="cls-4" d="m154.7,60.32c-6.82.07-13.53-1-20.25-2.02-3.93-.6-7.89-1.06-11.84-1.5-6.38-.71-12.73-1.68-19-3.07-4.32-.96-8.73-1.53-12.94-2.98-1.97-.68-2.68-2.33-1.64-3.9.65-.98,1.68-1.19,2.75-1.19,2.46,0,4.85.56,7.27.89,5.11.7,10.1,2.12,15.21,2.78,4.08.53,8.2.77,12.27,1.44,4.96.81,9.93,1.52,14.89,2.31,2.83.45,5.68.49,8.53.7,3.97.3,7.94.6,11.73,1.98.79.29,1.54.57,1.65,1.57.12,1.05-.52,1.57-1.32,2.01-1.13.62-2.32,1-3.63.98-1.23-.01-2.45,0-3.68,0Z"/><path class="cls-4" d="m204.91,75.5c0,5.29-.33,10.58.2,15.87.15,1.51-.04,3.08-.18,4.61-.12,1.43-1.05,2.5-2.2,2.56-1.32.07-2.22-.67-2.74-1.84-.81-1.84-.58-3.84-.68-5.76-.29-5.88-.64-11.75-.7-17.64-.02-2.26-.29-4.51.06-6.77.21-1.34.82-2.36,2.2-2.59,1.3-.22,2.28.49,2.94,1.56.79,1.26,1.05,2.69,1.08,4.15.04,1.95,0,3.9,0,5.85Z"/><path class="cls-4" d="m188.36,91.47c-3.77-.43-7.55-.87-11.32-1.3-5.04-.57-10.02-1.5-15.01-2.38-.45-.08-.89-.16-1.33-.27-.7-.18-1.32-.47-1.23-1.35.09-.87.72-1.09,1.47-1.06,1.9.08,3.81.11,5.7.29,3.96.38,7.96.42,11.9,1.07,3.43.57,6.88,1.08,10.32,1.64.85.14,1.68.42,2.4.91.54.37.78.9.58,1.54-.19.59-.65.82-1.27.8-.73-.02-1.45,0-2.18,0,0,.04,0,.08-.01.12Z"/><path class="cls-4" d="m81.81,73.11c-5.47-.1-10.76-1.34-16.04-2.6-.75-.18-1.5-.32-2.18-.72-.61-.36-.96-.85-.76-1.57.19-.67.72-.86,1.37-.88,2.47-.06,4.87.44,7.26.89,3.91.74,7.9.95,11.78,1.89.39.1.8.19,1.16.37.73.35,1.14.92.94,1.76-.18.78-.81.88-1.49.86-.68-.02-1.36,0-2.04,0Z"/><path class="cls-4" d="m212.57,92.43c-1.14.1-1.35-.54-1.63-1.11-.31-.64-.09-1.12.43-1.53,1.35-1.09,2.87-1.89,4.38-2.71,2.38-1.3,4.78-2.57,7.18-3.84.88-.46,1.76-.93,2.81-.91.62,0,1.21.09,1.46.74.27.68-.02,1.24-.56,1.67-1.56,1.25-3.24,2.31-4.94,3.34-2.67,1.63-5.49,2.97-8.4,4.11-.33.13-.68.22-.73.23Z"/><path class="cls-4" d="m78.38,79.36c-2.78-.26-5.75-.01-8.52-1.29-.62-.29-1.17-.55-1.07-1.34.1-.84.77-1.1,1.46-1.17,1.31-.13,2.61.06,3.91.25,2.14.31,4.3.54,6.44.83.44.06.88.17,1.31.32.58.19.88.59.81,1.24-.06.6-.44.83-.97.97-1.07.27-2.16.11-3.37.2Z"/><path class="cls-4" d="m135.4,70.67c-2.27-.4-4.93-.32-7.24-1.79-.55-.35-.95-.72-.8-1.4.17-.75.69-1.13,1.46-1.19,1.05-.08,2.06.1,3.09.29,1.95.35,3.9.64,5.84,1.03.8.16,1.62.41,1.62,1.49,0,1.13-.88,1.18-1.67,1.4-.67.18-1.35.1-2.31.17Z"/><path class="cls-4" d="m180.97,56.99c3.38.55,6.85,1.11,10.33,1.66.67.11.92.48.91,1.12-.01.78-.47,1.23-1.16,1.26-.94.04-1.89-.09-2.83-.16-2.34-.18-4.67-.47-6.94-1.11-.3-.09-.61-.18-.9-.3-.73-.3-1.48-.65-1.27-1.64.22-1.01,1.09-.73,1.87-.82Z"/><path class="cls-4" d="m107.06,35.82c2.96.22,5.62.75,8.3,1.17.43.07.86.31,1.22.56.53.36.55.96.36,1.48-.27.73-.95.77-1.6.68-2.32-.33-4.65-.69-6.97-1.05-.67-.1-1.33-.25-2-.33-.74-.1-1.39-.33-1.34-1.21.06-.93.7-1.31,1.59-1.3.23,0,.45,0,.43,0Z"/><path class="cls-4" d="m69.59,41.81c1.09,0,2.18-.08,3.26.03.77.07,1.52.46,1.66,1.34.16,1.02-.76,1.48-1.42,1.51-2.46.13-4.98.44-7.3-.82-.46-.25-.89-.49-.8-1.11.1-.69.66-.86,1.2-.89,1.13-.06,2.27-.02,3.4-.02,0-.01,0-.02,0-.04Z"/><path class="cls-4" d="m143.34,89.97c-.67,0-.99.02-1.3,0-.58-.05-1.09-.28-1.21-.9-.11-.6.36-.9.81-1.12,1.99-.99,4.2-.99,6.31-1.45.44-.1.89-.2,1.34-.19.62.01,1.21.24,1.35.92.15.71-.35,1.13-.93,1.3-2.2.64-4.4,1.35-6.36,1.44Z"/><path class="cls-4" d="m193.83,96.86c-1.93-.2-3.85-.4-5.78-.61-.69-.08-1.32-.4-1.17-1.18.14-.7.76-.9,1.49-.82,2.11.21,4.22.44,6.35.39.45-.01.92-.07,1.3.24.35.28.78.56.67,1.09-.11.56-.54.81-1.1.82-.59.01-1.18,0-1.76,0,0,.02,0,.05,0,.07Z"/><path class="cls-4" d="m118.49,95.37c-1.78-.35-3.5-.51-5.12-1.1-.66-.24-1.24-.62-1.27-1.43-.02-.63.34-1.21.92-1.11,2.08.37,4.23.51,6.08,1.7.44.29.75.7.52,1.26-.22.53-.73.62-1.14.67Z"/><path class="cls-4" d="m98.22,86.22c-1.28-.16-2.83-.6-4.35-1.17-.64-.24-1.09-.77-.72-1.5.33-.65.88-.57,1.52-.35,1.54.52,3.16.69,4.77.88.64.08,1.27.32,1.22,1.17-.04.71-.56.86-1.13.91-.32.03-.63.03-1.3.06Z"/><path class="cls-4" d="m145.24,93.52c-.59,0-1.18.05-1.77-.02-.55-.07-.88-.45-.9-1.03-.01-.64.4-.88.97-.88.95,0,1.9.02,2.85.04.64.02,1.27.21,1.28.93,0,.81-.66.98-1.36.97-.36,0-.73,0-1.09,0,0,0,0-.01,0-.02Z"/><path class="cls-4" d="m99.44,81.56c-.71-.14-1.57-.43-2.31-.95-.42-.3-.66-.74-.36-1.3.27-.5.72-.55,1.17-.42.73.22,1.45.49,2.16.78.56.22.69.69.56,1.23-.12.54-.54.68-1.22.66Z"/><path class="cls-4" d="m120.64,39.89c-.66.02-1.19-.18-1.18-.95.01-.7.54-.91,1.12-.88.59.03,1.25.19,1.21.96-.03.64-.53.88-1.15.87Z"/><path class="cls-4" d="m125.43,39.35c-.05.58-.41.83-.98.83-.59,0-.93-.29-.91-.9.02-.55.39-.77.9-.78.56-.01.96.19.99.85Z"/><path class="cls-2" d="m174.76,24.98c0,4.75.02,8.11-.01,11.47,0,.75.21,1,.99,1.25,2.14.68,3.83.26,5.59-1.14,4.27-3.41,9.14-4.03,14.5-3.29,8.44,1.17,16.64,3.12,24.65,6.01,1.71.62,3.33,1.41,4.99,2.14,3.34,1.48,4.44,4.34,4.55,7.58.15,4.16-.06,8.34-.16,12.52-.07,3,.23,5.98.29,8.97.02.79.29,1.45.89,1.9,2.11,1.6,2.91,3.72,2.83,6.33-.08,2.63.36,5.24.32,7.88-.02,1.33-.37,2.44-1.42,3.22-2.05,1.5-2.63,3.41-2.52,5.96.23,5.44-.53,10.86-.86,16.29-.12,2.04-.05,4.07-.29,6.11-.18,1.55-.69,3-.97,4.51-.05.29-.25.71-.47.78-2.1.72-3.27,2.54-4.73,3.99-4.42,4.4-8.94,8.62-14.55,11.53-1.52.79-2.87,1.9-4.26,2.91-1.44,1.04-2.91,1.56-4.79,1.41-3.52-.28-7.08-.07-10.61-.35-5.82-.46-11.68-.71-17.39-2.11-.22-.05-.45-.1-.67-.09-1.84.07-3.32-.51-4.21-2.25-.31-.62-.92-.85-1.58-.93-6.53-.8-12.92-2.34-19.3-3.89-7.84-1.91-15.89-2.78-23.74-4.62-6.53-1.52-13.1-2.86-19.72-3.89-3.41-.53-6.86-.64-10.3-.74-2.04-.06-4.07-.37-6.1-.4-1.68-.02-3.42-.04-4.93.95-.5.33-1.02.27-1.57.17-2.78-.5-5.4-1.53-8.01-2.57-4.16-1.66-8.49-2.87-12.49-4.92-.83-.43-1.26-.94-1.35-1.84-.43-4.19-.93-8.38-1.3-12.58-.52-5.96-.94-11.93-1.39-17.89-.04-.52-.22-.94-.56-1.34-1.35-1.62-2.09-3.47-2.07-5.6.03-2.81,0-5.62.46-8.41.1-.62.31-1.11.97-1.33.92-.3,1.31-.91,1.36-1.93.21-4.94.5-9.87.75-14.81.17-3.3.35-6.61.47-9.92.07-1.9.66-3.42,2.11-4.79,3.71-3.48,7.82-6.15,12.82-7.35,1.72-.41,3.24-1.09,4.58-2.41,3.22-3.18,7.42-4.13,11.74-4.24,6.58-.16,13.16-.03,19.74-.05,2.63,0,2.63-.04,2.66-2.73.03-3.54.08-7.08.09-10.62,0-1.06.48-1.75,1.15-2.59,2.42-3.02,5.51-2.66,8.8-2.31,11.81,1.23,23.67,2.06,35.42,3.79,5.88.86,11.77,1.56,17.68,2.14,1.09.11,1.62.74,1.72,1.89.4,4.53.26,9.06.24,12.21Zm49.61,72.08c-1.79,1.37-3.34,2.69-5.03,3.79-1,.64-1.32,1.45-1.53,2.5-.84,4.25-.67,8.58-1,12.87-.2,2.58-.67,5.12-.96,7.68-.06.54-.29,1.08-.98,1.14-.66.05-.76-.44-.96-.93-.29-.72-.54-1.42-.48-2.22.18-2.35.34-4.7.48-7.06.2-3.3.7-6.58.63-9.91-.02-.9-.2-1.13-1.08-.72-1.35.62-2.74,1.18-4.21,1.5-5.92,1.29-11.92,1.77-17.97,1.68-.71-.01-1.6.12-1.72-.88-.13-1.11.94-1.02,1.59-1.3.19-.09.45-.07.67-.05,2.23.22,4.44-.04,6.65-.22,7.85-.66,14.89-3.29,21-8.36,3.25-2.69,6.58-5.27,10.11-7.6,1.59-1.05,1.88-2.03,1.34-4.06-.2.12-.4.22-.57.35-4.11,3.3-8.54,6.14-12.9,9.07-5.53,3.71-11.6,5.97-18.4,5.6-3.57-.2-7.18-.32-10.7-.9-7.03-1.14-14.08-2.08-21.16-2.74-3.36-.31-6.73-.87-10.14.04-1.59.42-3.31.39-5,.24-4.38-.39-8.71-1.19-13.11-1.44-1.17-.07-1.92.03-1.8,1.49.08.99-.05,1.99-.14,2.99-.07.89.29,1.22,1.18,1.18.63-.03,1.56-.2,1.49.85-.06,1-.97.72-1.61.77-.23.02-.45.02-.68,0-.63-.04-.97.29-.96.88.03,2.32-.91,3.91-3.27,4.49-.21.05-.4.21-.59.34-.69.51-1.42.61-2.14.11-.53-.36-1.02-.41-1.45.08-.6.7-1.44.82-2.22.86-3.26.15-6.53.34-9.79.25-1.99-.05-4.14-.43-5.08-2.53-.47-1.04-1.09-1.29-2.02-1.37-.41-.03-.81-.06-1.22-.12-2.24-.31-2.45-.48-2.82-2.73-.12-.73-.4-.97-1.12-.98-1.2-.01-1.8-.65-1.82-1.89-.04-2.49-.15-4.99-.18-7.48-.03-2.22,0-2.22-2.12-2.43-.32-.03-.63-.08-.94-.14-3.6-.68-7.15-1.64-10.8-2.11-1.73-.23-3.28-1.11-4.44-2.46-.64-.75-1.38-1.1-2.29-1.31-4.56-1.02-9.16-1.73-13.82-2.18-4.56-.45-9.02-1.53-13.49-2.49-.38-.08-.93-.53-.92.37.02,1.72,1.33,3.34,2.99,3.87,7.96,2.55,16.1,4.29,24.37,5.46.49.07.97.23,1.42.42.4.17.66.52.54.98-.13.51-.51.74-1.03.67-.54-.07-1.07-.2-1.6-.28-5.24-.82-10.47-1.69-15.6-3.05-3.7-.99-3.7-1.13-3.74,2.76-.04,4.22-.03,8.44,0,12.66.01,1.3-.9,1.64-1.8,1.78-.97.15-.9-.8-1.03-1.44-.07-.35-.09-.72-.12-1.08-.31-4.94-.27-9.89-.27-14.83,0-.5.02-1-.04-1.5-.08-.75-.74-.74-1.24-.77-.71-.04-.41.58-.4.9.02.72.17,1.44.24,2.16.75,8.71,1.48,17.43,2.43,26.12.13,1.21.63,1.88,1.68,2.36,3.17,1.46,6.54,2.38,9.78,3.67,2.65,1.05,5.33,2.03,8.11,2.7.5.12,1.04.4,1.45-.25.97-1.55,2.53-2.09,4.21-2.45,4.68-1.03,9.43-1.32,14.19-1.38,7.54-.1,15.01.95,22.48,1.88,12.23,1.51,24.2,4.05,35.67,8.73,4.48,1.83,8.7,3.88,11.43,8.09.56.86,1.14,1.42,2.29,1.13.49-.12,1.07.12,1.6.23,3.43.64,6.87,1.18,10.35,1.54,5.83.59,11.67.83,17.51,1.01.86.03,1.6-.17,2.3-.66,1.87-1.28,3.67-2.69,5.65-3.78,4.05-2.22,7.68-4.96,11.03-8.12,1.59-1.5,2.72-3.23,3.53-5.24.81-2.01.9-4.15,1.26-6.24.09-.54.22-1.01.86-1,.75.01.83.57.83,1.15,0,1.32,0,2.63.02,3.95,0,.27-.17.66.33.8,1.24-.94,1.43-2.41,1.53-3.76.53-7.19,1.19-14.37,1.43-21.57.04-1.16,0-2.32,0-3.48-.5,1.14-.75,2.29-.89,3.44-.55,4.45-1.07,8.91-1.59,13.36-.11.93-.42,1.56-1.52,1.45-1.03-.1-1.22-.74-1.2-1.62.03-2,.51-3.95.68-5.94.2-2.37.47-4.73.37-7.33Zm-30.12-4.77c2.36.16,4.84-.06,7.33-.25,3.45-.25,6.78-1.14,9.61-3.08,5.76-3.95,12.14-6.9,17.62-11.29,2.34-1.88,2.43-1.72.39-3.92-.44-.48-.69-.52-1.22-.16-.89.61-1.85,1.13-2.8,1.66-.49.27-1.1.46-1.46-.12-.42-.7.17-1.07.68-1.38.96-.59,1.92-1.2,2.92-1.73.86-.46,1.05-1.19.98-2.06-.45-5.53-.14-11.06-.08-16.59,0-.69.55-1.65-.07-2.01-.56-.33-1.27.47-1.89.81-8.14,4.46-15.81,9.77-24.39,13.44-1.63.7-2.41,2.02-2.39,3.9.04,2.72-.03,5.45-.48,8.14-.11.63-.34,1.42-1.25,1.36-1-.07-.86-.88-.86-1.55-.03-2.63.12-5.26-.31-7.88-.3-1.86-1.36-3.05-3.19-3.43-8.2-1.69-16.27-4-24.67-4.7-1.68-.14-2.81.09-3.83,1.48-1.15,1.57-2.49,3.01-4.35,3.81-4.57,1.97-9.34,2.45-14.23,1.74-6.72-.97-13.45-1.92-20.14-3.08-9.91-1.72-19.83-3.32-29.76-4.94-6.65-1.08-11.47-4.68-14.66-10.51-.79-1.44-1.93-1.93-3.43-1.94-2.45,0-4.88-.3-7.32-.5-2.43-.21-4.88-.65-7.32-.12-1.96.42-2.87,1.11-2.8,3.29.07,2.26-.14,4.53-.23,6.79-.03.69-.32,1.11-1.07,1.12-.77.01-.86-.57-.93-1.11-.05-.44.02-.9.05-1.35.17-2.44.34-4.89-.24-7.31-.09-.37-.11-.92-.67-.87-.52.05-.34.56-.35.89-.29,6.16-.55,12.32-.87,18.47-.05.97.23,1.43,1.15,1.8,3.77,1.49,7.74,2.24,11.67,3.13,4.42,1,8.96,1.34,13.43,2.06,4.05.65,8.15.95,12.28-.04,2.9-.69,6.02-.9,8.9-.03,3.32,1,6.73,1.36,10.08,2.09,6.86,1.51,13.86,2.28,20.78,3.46.98.17,1.75.94,2.83.76,3.91-.68,7.67.15,11.38,1.26,1.47.44,3.14.83,4.07,2.03.87,1.13,1.04,2.68,2.83,3.17.49.13,1.15.85,1.87,1.03,5.33,1.31,10.72,2.23,16.18,2.87,6.67.78,13.32,1.59,20.2,1.41Zm-41.06-26.6c1,0,1.64.04,2.27,0,2.63-.2,5.25-.37,7.12-2.69,1.65-2.04,3.38-4.01,5.11-5.99.31-.36.34-.7.31-1.12-.1-1.34-1.22-1.03-1.96-1.12-3.87-.47-7.75-.8-11.62-1.28-6.7-.82-13.39-1.72-20.09-2.58-5.39-.7-10.82-1.03-16.21-1.85-4.17-.63-8.28-1.56-12.48-1.98-4.78-.48-9.55-1.02-14.32-1.59-2.25-.27-4.48-.7-6.72-1.03-.49-.07-1.4-.28-1.23.5.34,1.55-.05,3.24.75,4.65,2.04,3.57,4.79,6.38,8.88,7.54,1.43.41,2.92.65,4.39.9,6.7,1.13,13.5,1.55,20.21,2.68,7.01,1.18,14.09,2,21.12,3.06,4.93.74,9.83,1.71,14.46,1.89Zm-32.01-44.66s-.04,0-.05,0c0,.59,0,1.18,0,1.77-.02,2.12-.01,2.18,2.07,1.91,1.36-.17,2.21.21,2.8,1.51.51,1.13.97,2.25,1.08,3.48.08.92.47,1.36,1.41,1.48,3.51.44,7,.92,10.5,1.4,7.4,1.02,14.81,2.03,22.21,3.07.92.13,1.18-.18,1.14-1.07-.15-3.17-.22-6.34-.37-9.51-.1-2.24-.5-2.65-2.66-3-5.32-.87-10.64-1.75-15.96-2.6-6.84-1.1-13.72-1.89-20.64-2.33-1.14-.07-1.7.18-1.54,1.45.1.8.02,1.63.02,2.45Zm47.32,7.21c0-3.99-.02-7.98.02-11.98,0-.94-.29-1.24-1.25-1.25-6.76-.1-13.47-1.01-20.19-1.54-7.82-.62-15.64-1.12-23.46-1.74-3.39-.27-6.77-.6-10.15-1-1.87-.22-1.9-.18-1.93,1.67-.09,6.82-.1,13.65-.42,20.47-.02.35.04.7.47.65,1.01-.11,1.83.48,2.74.69,1,.23,1.42.14,1.48-1.07.2-4.03.44-8.06.36-12.1-.04-2.12.53-3.71,2.36-4.97,1.05-.72,2.03-.56,3.09-.57,5.59-.05,11.12.73,16.66,1.35,5.45.61,10.84,1.65,16.24,2.62,2.36.42,4.78.51,7.08,1.27.79.26,1.57.61,1.73,1.54.16.89.28,1.79.31,2.69.15,4.97.82,9.94.35,14.93-.05.57.19.69.68.75,1.08.13,2.16.28,3.22.49.84.16,1.01-.17.96-.93-.27-3.99-.06-7.98-.36-11.97Zm22.13,6.56c-1.39-.03-2.33.1-3.26.48-1.89.78-3.8,1.62-5.35,2.93-1.93,1.63-3.89,2.09-6.21,1.19-.7-.27-1.04-.19-1.08.71-.04.95-.53,2.11-1.35,2.28-2.29.47-4.16,1.72-6.15,2.75-4.45,2.3-8.95,4.01-14.16,3.11-6.11-1.06-12.33-1.45-18.41-2.77-2.74-.59-5.33-1.73-8.18-1.94-4.2-.3-8.4-.65-12.57-1.31-3.62-.58-7.21-1.34-10.91-1.42-1.51-.03-3.02-.57-4.43-1.22-1.56-.72-1.89-1.69-.95-3.16.93-1.46,2.13-2.71,3.52-3.75.82-.61,1.71-.84,2.69-.52,1.51.5,3.1.65,4.63,1.03.85.21,1.04-.04,1.01-.83-.06-1.81-.11-3.63-.08-5.44.02-1.06-.33-1.16-1.17-.71-7.15,3.91-14.5,7.48-21.34,11.95-.88.58-1.66,1.26-2.3,2.1-.76.99-.66,1.32.54,1.45,3.24.37,6.48.83,9.74,1.01,5.4.3,10.75.93,16.06,1.92,8.34,1.55,16.71,2.88,25.12,3.91,6.03.74,12.07,1.38,18.09,2.17,4.31.57,8.59,1.38,12.97,1.37.54,0,1.02.01,1.48-.46.85-.88,1.79-1.67,2.72-2.46,5.5-4.65,10.85-9.51,17.16-13.1.61-.35,1.21-.71,2.16-1.26Zm40.61,43.22c-.88.61-1.48,1-2.05,1.43-2.45,1.87-4.9,3.74-7.6,5.25-2.81,1.57-5.54,3.26-8.19,5.1-2.25,1.56-4.73,2.66-7.38,3.35-3.5.91-7.1,1.01-10.66,1.03-6.89.03-13.75-.47-20.6-1.35-6.21-.8-12.37-1.73-18.43-3.29-1.3-.33-1.47-.23-1.44,1.1.01.52.1.87.72.9.72.04,1.64.01,1.56,1.04-.08,1.06-.99.67-1.61.61-.87-.08-.61.56-.69.99-.13.62.24.68.71.63.32-.03.65-.01.95-.1,3.2-.96,6.45-.65,9.7-.41,9.58.71,19.03,2.54,28.59,3.47,6.23.61,12.16.19,17.69-2.77,6.49-3.47,12.41-7.82,18.27-12.24.32-.24.48-.51.48-.91-.01-1.17,0-2.34,0-3.83Zm-177.43-5.33c0,1.15.05,2.13-.01,3.12-.06.94.37,1.47,1.23,1.65,5,1.09,10.01,2.18,15.12,2.59,4.53.36,8.98,1.17,13.39,2.26.77.19,1.4.61,1.9,1.24.99,1.28,2.34,2.04,3.91,2.27,3.37.48,6.67,1.32,10,1.95,3.42.64,3,.6,3.36-2.57.12-1-.16-1.48-1.14-1.53-4.26-.22-6.98-2.69-8.99-6.17-.34-.6-.75-.81-1.4-.82-2.04-.05-4.11.06-6.11-.24-7.38-1.1-14.82-1.89-22.06-3.86-2.58-.7-5.04-1.75-7.61-2.47-.49-.14-.98-.18-1.18.31-.28.66.43.68.78.86,1.54.78,3.17,1.32,4.83,1.79.51.15.95.46.81,1.07-.14.63-.68.66-1.2.57-.36-.06-.7-.19-1.05-.27-1.53-.37-2.94-1.11-4.57-1.76Zm125.99-28.13c2.29.26,4.27.37,6.21.71,6.43,1.15,12.78,2.59,18.54,5.88,1.43.82,2.75,1.76,3.69,3.14.32.47.58.67,1.19.34,2.36-1.26,4.76-2.42,7.12-3.67,2.99-1.58,3.01-2.09.08-3.94-2.7-1.7-5.72-2.69-8.7-3.76-6.41-2.29-13.16-2.83-19.82-3.8-1.15-.17-2.14.09-3.03.81-1.69,1.37-3.38,2.73-5.29,4.26Zm-14.53-2.03c-1.29-.19-2.63-.38-3.96-.6-6.67-1.09-13.43-1.38-20.13-2.16-9.59-1.11-19.18-2.14-28.66-4-2.77-.54-5.55-.75-8.37-.59-1.07.06-2.04.29-2.83,1.1-.48.48-.84.99-.71,1.67.14.68.84.59,1.32.75,2.14.72,4.41.33,6.6.72,3.88.7,7.77,1.41,11.7,1.74,9.31.79,18.56,1.87,27.68,4.01,6.08,1.43,12.06,1.62,17.37-2.65Zm-1.57,93.13c-7.35-8.55-67.12-18.87-77.65-13.43,1.45.11,2.79.26,4.13.31,4.58.17,9.16.26,13.68,1.03,6.97,1.18,13.84,2.86,20.78,4.17,10.64,2.01,21.27,4.03,31.79,6.61,2.35.58,4.73,1.03,7.27,1.31Zm7.15-83.64c1.39.23,2.5.39,3.6.6,5.43,1.02,10.97,1.33,16.4,2.43,3.19.65,6.24,1.88,9.49,2.34,2.03.29,3.93.14,5.79-.86.98-.52.87-.94.27-1.61-.73-.83-1.58-1.51-2.55-2.02-7.77-4.12-16.12-6.12-24.86-6.55-.74-.04-1.53.02-2.08.48-1.99,1.63-3.91,3.33-6.06,5.18Zm-39.17,48.69s.02,0,.03,0c0-1.18.02-2.36,0-3.54-.05-2.92.45-2.16-2.34-2.91-.94-.25-1.43-.17-1.49,1.04-.05,1.14-.04,2.47-.96,3.32-.95.88-1.95-.19-2.95-.25-3.95-.23-7.69-1.66-11.63-2.03-1.83-.17-2.41-1.07-2.43-2.95,0-.5,0-1-.01-1.5-.01-1.65-1.2-.85-1.96-.94-1-.12-.88.49-.88,1.19.02,3.24.78,6.45.45,9.71-.11,1.08.3,1.72,1.51,1.72.72,0,1.44.15,2.16.24.75.09,1.54.32,1.76,1.08.69,2.44,2.64,2.61,4.63,2.66,2.4.06,4.81.05,7.21,0,1.02-.03,2.11.04,2.97-.69.93-.78,1.99-.9,3.05-.42.73.33.87.1.87-.56,0-1.72,0-3.45,0-5.17Zm64.49-38.33c2.27-.05,4.08-.21,5.87-.47,1.95-.28,3.47-1.5,5.15-2.37.5-.26.67-.85.41-1.3-.31-.54-.76-.01-1.04.15-2.57,1.49-5.25,1.07-7.95.57-3.16-.58-6.16-1.83-9.34-2.33-5.5-.87-11.01-1.67-16.51-2.57-3.11-.51-3.06-.58-2.88,2.5.05.9.4,1.29,1.21,1.48,1.23.3,2.45.67,3.67.99,7.17,1.87,14.48,2.88,21.41,3.35Zm-6.71-24.77c.03.11.06.22.08.33,1.88.25,3.76.54,5.64.74,7.23.77,14.16,2.6,20.71,5.78,1.73.84,3.35,1.84,4.44,3.49.35.54.65.44,1.1.17,1.06-.63,2.07-1.33,2.92-2.22.6-.63,2.03-.81,1.83-1.68-.18-.8-1.46-1.11-2.33-1.48-9.2-4.03-18.81-6.52-28.78-7.61-.35-.04-.76-.04-1.06.11-1.53.76-3.04,1.57-4.55,2.37Zm-100.3-3.18c-8-1.61-15.66-1.66-23.28.36-1.51.4-3.12.64-4.31,1.83-.3.3-.9.49-.76.99.13.43.71.33,1.09.38,5.92.83,11.88,1.22,17.85,1.54,1.96.1,3.4-.15,4.68-1.8,1.11-1.41,2.97-2.01,4.72-3.31Zm22.95-25.65c3.4.34,6.64.74,9.88.99,7.05.53,14.11.93,21.16,1.47,8.54.66,17.04,1.75,25.6,2.21.92.05,1.49-.27,2.12-1.05-.44-.04-.7-.06-.96-.09-3.96-.43-7.94-.8-11.89-1.32-7.01-.92-14.02-1.88-21.06-2.55-6.63-.63-13.28-1.11-19.9-1.85-2.11-.23-3.57.41-4.96,2.2Zm9.39,26.43c.54.46,1.01.44,1.46.49,4,.49,8.01.94,12.01,1.48,8.85,1.21,17.78,1.61,26.6,3.02.31.05.69.19.7-.32.03-.77.18-1.6-.05-2.29-.21-.63-1.05-.17-1.58-.33-.13-.04-.27-.05-.4-.07-3.86-.51-7.71-1.09-11.58-1.51-6.76-.74-13.51-1.55-20.2-2.73-2.97-.52-4.69,1.13-6.95,2.25Zm-44.34,9.97c1.09,0,2.18.01,3.26,0,.38,0,.8.05.98-.49,1.08-3.15.81-3.49-2.54-3.58-6.38-.18-12.76-.43-19.05-1.64-.34-.07-.75-.29-.99.11-.52.89-.29,1.83-.15,2.77.12.81.65.98,1.33,1.08,5.69.84,11.37,1.76,17.14,1.77Zm73.04,39.13c-2.98-1.7-6.11-1.68-9.23-1.68-.4,0-.57.41-.79.69-1.33,1.66-2.12,3.54-2.42,5.66-.11.82.08,1.14.95,1.17,2.18.06,4.34-.19,6.5-.38,2.21-.2,4.41-.55,6.4-1.61.37-.2,1.35-.11.95-.93-.3-.6-.27-1.79-1.7-1.27-1.34.48-2.8.74-4.27.7-.63-.02-1.57.24-1.61-.75-.04-.95.83-.84,1.52-.89,1.2-.09,2.4-.24,3.7-.7Zm-50.65-55.61c-5.83-1.64-24.64.5-27.57,3.1,6.4-.57,12.75-.45,19.02,1.14.32.08.63.14.93-.02,2.52-1.39,5.04-2.79,7.62-4.22Zm53.62,60.75c-1.1.42-2.16.92-3.28,1.23-3.74,1.04-7.59,1.18-11.44,1.21-.93,0-1.49.53-1.12,1.1.32.49.89.4,1.37.4,3.37-.04,6.67.55,9.98,1.03,1.16.17,2.34.29,3.51.38.87.07.93-.62.89-1.2-.05-.75-.58-.31-.92-.27-.63.08-1.25.2-1.88.28-.57.08-1.15.05-1.31-.63-.17-.72.41-.94.95-1.07.53-.12,1.08-.15,1.61-.24q1.8-.33,1.64-2.22ZM106.8,25.04c-1.25,0-2.09,0-2.94,0-5.84.03-11.68,0-17.52.11-2.15.04-4.21.68-6.14,1.69,1.28,0,2.54-.08,3.8-.19,6.1-.49,12.2-.64,18.28.35.42.07.79.04,1.17-.17.98-.55,1.99-1.06,3.36-1.79Zm-11.6,53.13c1.46,2.16,3.26,3.35,5.66,3.61.61.07.98-.08.98-.75,0-1.43.72-2.47,1.69-3.43.32-.32,1-.49.8-1.11-.22-.68-.92-.65-1.48-.76-2.3-.45-4.6-.09-6.9.04-.21.01-.45.06-.47.4.66.4,1.39.6,2.16.64.49.03.92.17.93.76,0,.63-.42.83-.97.91-.74.11-1.41-.25-2.4-.31Zm24.28-60.39c-1.28.54-1.57,1.39-1.59,2.56-.09,4.56.18,9.13-.43,13.68-.17,1.24,1.09.76,1.7.99.56.21.52-.25.48-.64-.44-4.1-.03-8.21-.16-12.32-.04-1.38,0-2.77,0-4.27Zm53.37,6.66c-.9.73-2.33.67-2.39,1.92-.11,2.53,0,5.07.03,7.6,0,.24-.07.56.35.58.57.02,1.99-1.14,2-1.7.01-2.71,0-5.43,0-8.4Zm.28-6.01c.1-1.29-.18-2.71-.27-4.15-.01-.24.1-.58-.33-.61-.42-.04-2.34,1.58-2.34,2.05,0,1.9.02,3.79.08,5.69,0,.31-.02.76.59.66,1.42-.22,2.27-1.18,2.27-2.65,0-.27,0-.54,0-.98Zm-51.99,69.23c-.12,2.96.01,3.13,2.26,3.43.6.08.82-.02.85-.62.06-1.17.02-2.38.29-3.5.32-1.32-.3-1.54-1.35-1.64-1.96-.19-1.95-.21-2.02,1.79,0,.18-.02.36-.03.54Zm.04-57.3q0,2.96,2.41,1.71c.24-.12.48-.26.71-.38,1.09-.58,1.28-1.67.59-3.3-.49-1.16-1.33-.72-2.16-.55-1.63.32-1.71,1.47-1.56,2.53Zm-6.26,56.36q.07-2.44-2.32-2.52s-.09,0-.13-.01c-.51-.07-.75.16-.8.66-.11,1.17-.24,2.33-.36,3.49-.03.32-.08.57.37.72,2.43.81,3.16.33,3.25-2.21,0-.05,0-.09,0-.14Zm20.35-2.61c-.97,1.08-1.93,1.79-2.04,2.86-.17,1.65-.19,3.33.08,4.99.04.27,0,.79.49.55.65-.31,1.49-.46,1.48-1.51-.03-2.16,0-4.32,0-6.9Zm-15.79,3.48s.02,0,.04,0c0-.45-.06-.91.01-1.35.16-.9-.09-1.26-1.07-1.34-1.77-.14-1.77-.22-1.88,1.56-.04.72.04,1.45-.06,2.17-.09.74.16,1.01.87,1.18,2.09.49,2.09.52,2.09-1.54,0-.23,0-.45,0-.68Zm99.97-35.86c-3.11,1.71-6.39,2.97-9.41,4.73-.12.07-.24.14-.33.23-.43.41-.39.99-.15,1.36.24.36.64-.06.93-.22,2.42-1.31,4.84-2.62,7.24-3.95.86-.47,1.24-1.34,1.72-2.16Zm-109.37,32.93c.28-.86-.6-.86-1.37-.95-.87-.1-1.51.05-1.46,1.17.04.9-.01,1.8-.07,2.7-.1,1.63-.04,1.67,1.53,1.49.59-.07.76-.37.83-.86.16-1.07.33-2.13.54-3.56Zm15.93,4.48c0,.78-.03,1.42,0,2.05.06.94.93.71,1.46.88.66.21.54-.44.58-.78.17-1.43.25-2.88.46-4.31.16-1.07-.55-1.03-1.22-1.15-.75-.14-1.05.12-1.06.91-.01.85-.16,1.7-.24,2.41Zm-20.63-5.07c-1.09,4.96-.88,9.94-.79,14.92,0,.18.02.37.07.54.08.24.27.34.52.34.32,0,.53-.14.53-.47,0-.45,0-.91-.02-1.36-.18-4.34-.59-8.68-.28-13.03.02-.31-.03-.62-.04-.93Zm13.43-.93c1.4.36,1.64-1.02,2.38-1.62.52-.43,1.39-1.05,1.16-1.65-.23-.61-1.3-.28-1.97-.53-.43-.16-.75.02-1.01.43-.41.64-.91,1.23-1.33,1.87-.25.39-.92.7-.61,1.21.26.44.92.19,1.38.29Zm-6.83-1.36c.12.17.24.33.35.5.95.1,2.03.76,2.83.09.91-.76,1.53-1.88,2.27-2.85.18-.23.3-.59-.05-.65-.7-.11-1.41-.63-2.15.07-1.05.99-2.17,1.9-3.26,2.84Zm9.99,1.64c1.07.17,2.13.66,2.86.04.97-.81,1.67-1.96,2.5-2.98-3.06-.78-2.31-.86-5.36,2.94Zm105.9-36.23c-.21-.43-.2-1.25-1.04-.7-1.8,1.2-3.34,2.76-5.26,3.8-.44.24-.32.78-.16,1.11.24.5.61.09.88-.06,1.73-.98,3.43-2.01,4.93-3.32.26-.23.6-.41.65-.82Zm-93.06,47.01c-1.14.2-1.55.87-1.4,2.14.15,1.29.01,2.61.05,3.92.01.42-.27,1.12.57,1.08.59-.03.8-.45.79-1.04-.02-2.02,0-4.04,0-6.11Zm-3.26-4.13h.05c-.08-.99-.16-1.98-.23-2.97-.03-.41-.21-.69-.66-.7-.55-.01-.51.42-.54.76-.13,1.53-.18,3.07-.39,4.59-.15,1.08.56,1.1,1.21,1.16.89.07.5-.66.54-1.07.06-.58.01-1.17.01-1.76Zm-27.73-8.32c.63-1.21,1.45-2.15,2.72-2.08,1.52.08,2.09-.94,2.83-1.9-2.66-1.1-5.8,1.07-5.55,3.98Zm69.05-43.27c-.07-2.58-.14-2.63-1.79-1.77-.44.23-.58.48-.54.94.07.76.15,1.53.14,2.29,0,.89.26.88,1.05.62,1.27-.42,1.34-1.24,1.13-2.07Zm-41.52,42.6c-1.16-.61-2.06-.49-2.76.65-.28.46-.76.79-1.05,1.23-.21.32-.98.66-.44,1.03.53.36,1.57.65,1.97.07.71-1.03,1.63-1.91,2.29-2.99Zm-17.77-2.7c-1.87-.33-4.01,1.29-5.06,3.68,2.6-.12,3.22-2.54,5.06-3.68Zm21.47,3.12c-2.62-.36-2.93,1.96-4.56,3.23.98-.09,1.53.61,2.1-.12.77-.99,1.55-1.96,2.46-3.11Zm-.37,22.12c-1.18-.02-1.3.62-1.22,1.41.02.23.06.53.34.45.94-.26.65-1.11.88-1.86Z"/><path class="cls-2" d="m173.8,106.06c-2.79-.6-5.65-1.24-8.52-1.84-.97-.2-1.96-.3-2.95-.43-.59-.08-1.13-.27-1.08-.96.05-.8.71-.84,1.32-.78,2.88.29,5.7.95,8.5,1.67.96.25,1.93.44,2.91.63.67.13,1.68-.16,1.63.91-.05,1.11-1.09.6-1.81.8Z"/><path class="cls-2" d="m148.24,103.5c-.82-.08-1.81-.16-2.8-.27-.63-.07-1.21-.33-1.1-1.08.11-.72.71-.67,1.28-.61,1.12.13,2.24.23,3.36.32.59.05,1.28,0,1.26.85-.02.84-.71.79-1.3.79-.18,0-.36,0-.71,0Z"/><path class="cls-2" d="m86.08,89.85c.85.12,1.74.24,2.64.37.5.07.86.32.85.88-.01.61-.45.76-.94.73-1.22-.08-2.43-.21-3.65-.33-.44-.04-.62-.34-.63-.75,0-.41.18-.72.59-.8.35-.07.72-.07,1.14-.1Z"/><path class="cls-2" d="m185.1,107.03c-.5,0-.59.02-.68,0-.74-.18-1.93,0-1.81-1.11.12-1.1,1.16-.65,1.88-.54.09.01.18.01.27.02.59.05,1.44-.21,1.44.76,0,.97-.83.88-1.11.88Z"/><path class="cls-2" d="m99.14,93.71c.71.29,1.93-.06,2.13,1.26.09.56-.37.93-.85.75-.83-.31-2.06-.02-2.36-1.22-.17-.66.42-.8,1.08-.8Z"/><path class="cls-2" d="m224.53,116.24c-.83-.09-1.11-.67-1.17-1.32-.08-.82.41-1.26,1.22-1.29.69-.02,1.12.35,1.15,1.05.03.84-.46,1.32-1.19,1.56Z"/><path class="cls-2" d="m91.75,91.03c.57.01,1.16.09,1.22.78.06.73-.5.87-1.09.85-.58-.02-1.14-.14-1.15-.85-.01-.64.46-.81,1.02-.78Z"/><path class="cls-2" d="m215.64,127.81c-.16.54-.19,1.22-.94,1.31-.63.07-.92-.36-.86-.93.06-.58.17-1.22.96-1.26.56-.02.79.35.84.88Z"/><path class="cls-2" d="m61.01,108c-.02.59-.1,1.1-.81,1.02-.69-.08-.81-.64-.82-1.2-.01-.57.23-1.01.85-.97.74.05.72.67.77,1.16Z"/><path class="cls-2" d="m179.19,104.88c.58.02,1.11.16,1.12.88,0,.56-.37.78-.9.76-.59-.02-1.11-.18-1.12-.88,0-.56.37-.78.9-.76Z"/><path class="cls-2" d="m60.99,110.46c-.03.43-.1.95-.79.92-.56-.03-.77-.47-.76-.94,0-.53.23-1.01.86-1.01.59,0,.71.44.7,1.04Z"/><path class="cls-2" d="m158.32,101.54c.49.06.93.18.93.77,0,.59-.45.76-.91.76-.46,0-.91-.17-.91-.76,0-.6.45-.7.89-.77Z"/><path class="cls-2" d="m215.16,130.6c-.03.42-.26.69-.75.67-.43-.02-.64-.28-.65-.69-.01-.5.28-.74.75-.73.41.01.64.26.65.75Z"/><path class="cls-2" d="m226.39,61.7c0,1.54.02,3.08,0,4.63,0,.6-.11,1.25-.91,1.27-.82.02-.93-.65-.95-1.24-.11-3.31.12-6.62-.2-9.93-.04-.45.06-.94.63-1.06.54-.11.82.21,1.05.66.25.51.32,1.03.32,1.58,0,1.36,0,2.72,0,4.08.02,0,.05,0,.07,0Z"/><path class="cls-2" d="m221.64,76.04c.58.02.85.3.82.78-.06.84-.69,1.14-1.39,1.24-.45.07-.8-.24-.75-.75.09-.8.72-1.07,1.32-1.27Z"/><path class="cls-2" d="m198.53,83.72c-.04.61-.15,1.24-.93,1.21-.61-.03-.76-.53-.72-1.08.05-.59.07-1.25.87-1.27.77-.02.76.59.78,1.14Z"/><path class="cls-2" d="m225.94,71.1c-.58.01-.96-.19-.99-.74-.03-.62.33-1.04.93-1.1.54-.05.81.37.84.85.03.55-.24.94-.79.99Z"/><path class="cls-2" d="m59.37,64.88c-.61,0-.86-.31-.88-.84-.01-.56.18-1.01.81-1.04.54-.02.82.32.84.85.03.58-.2.96-.78,1.03Z"/><path class="cls-2" d="m60.5,60.93c-.02.46-.21.81-.7.85-.49.04-.76-.26-.76-.74,0-.48.26-.77.75-.78.44-.01.64.28.71.68Z"/><path class="cls-2" d="m197.64,87.87c.37.02.61.23.64.58.05.42-.17.7-.61.72-.37.01-.62-.21-.66-.55-.05-.43.23-.66.63-.74Z"/><path class="cls-2" d="m90.61,80.56c-.7,1.12.26,1.45,1.09,1.86.5.25,1.04.56.68,1.23-.36.68-.96.57-1.53.28-.66-.34-1.29-.89-1.92.09-.16.25-.59.22-.87,0-.28-.21-.45-.55-.3-.84.68-1.32-.42-1.51-1.18-1.9-.31-.16-.7-.17-1.05-.26-.47-.12-.9-.33-.78-.92.11-.52.54-.76,1.02-.71.53.05,1.07.2,1.57.37.72.25,1.45,1.08,2.01-.25.12-.29.55-.24.85-.04.35.23.44.55.39,1.06Z"/><path class="cls-2" d="m63.65,74.81c-.09.52-.44.74-.94.73-.48,0-.76-.28-.73-.75.03-.55.4-.76.91-.73.46.02.74.26.76.75Z"/><path class="cls-2" d="m66.15,75.08c-.05.53-.34.72-.81.69-.43-.02-.65-.3-.66-.69-.01-.46.25-.74.74-.73.49.01.71.28.73.73Z"/><path class="cls-2" d="m111.88,100.38c3.31.38,6.36.75,9.41,1.09,1.35.15,2.7.25,4.05.38.75.07,1.22.47,1.05,1.25-.17.8-.76.61-1.39.53-3.4-.45-6.81-.82-10.22-1.21-.94-.11-1.89-.19-2.82-.35-.51-.09-.96-.37-.84-1.02.1-.56.56-.64.77-.66Z"/><path class="cls-2" d="m115.35,98.44c2.02.17,4.05.34,6.07.53.45.04.91.13,1.31.32.43.19.71.58.55,1.11-.15.47-.55.56-.98.51-2.38-.27-4.75-.53-7.13-.8-.6-.07-1.27-.15-1.18-.97.09-.78.75-.77,1.36-.69Z"/><path class="cls-2" d="m121.57,105.74c-2.07-.23-4.05-.42-6.03-.68-.56-.07-1.28-.25-1.14-1.06.14-.8.78-.68,1.4-.6,1.93.25,3.86.47,5.8.67.65.07,1.54-.2,1.47.87-.07.99-.96.73-1.51.8Z"/><path class="cls-2" d="m143.75,86.29c-.03.69-.37.89-.9.89-.57,0-1-.17-.98-.83.01-.56.38-.78.89-.8.59-.02.94.24.98.74Z"/><path class="cls-2" d="m99.81,77.24c.52.12.91.37.91.98,0,.49-.27.77-.75.76-.59-.01-.9-.37-.91-.95,0-.48.27-.74.75-.79Z"/><path class="cls-1" d="m129.07,123.85c0-1.3-.43-2.38-1.28-3.24-.85-.86-1.93-1.28-3.23-1.28s-2.38.43-3.25,1.29c-.87.86-1.3,1.94-1.3,3.25v.89c0,.34-.17.52-.51.52-.36,0-.55-.17-.55-.52v-.89c0-1.4-.41-2.51-1.23-3.32-.82-.81-1.93-1.22-3.32-1.22-1.3,0-2.38.43-3.23,1.28-.86.86-1.28,1.94-1.28,3.24v.89c0,.08.01.16.02.24-.49-.9-1.11-1.73-1.88-2.5-2.11-2.1-4.72-3.15-7.82-3.15s-5.7,1.05-7.8,3.15c-.76.76-1.37,1.58-1.86,2.47-.01-.49-.05-.98-.13-1.47.09-.55.14-1.12.14-1.71,0-1.11-.17-2.14-.49-3.11.94-.14,1.74-.53,2.41-1.2.83-.84,1.24-1.9,1.24-3.16,0-.58-.1-1.13-.3-1.66.2-.53.3-1.09.3-1.66,0-1.11-.33-2.06-1-2.86.44-.46.75-.79.93-.96,1.13-.91,1.69-2.06,1.69-3.46,0-.58-.11-1.13-.33-1.66.22-.51.33-1.06.33-1.66,0-1.86-1.07-3.41-3.22-4.65-1.86-1.09-3.77-1.63-5.74-1.63-3.01,0-5.53,1.02-7.57,3.06-.8.8-1.44,1.68-1.93,2.64v-8.02c0-1.35-.4-2.42-1.2-3.2-.55-.54-1.24-.88-2.05-1.05-.39-.15-.82-.23-1.3-.23-.71,0-1.31.18-1.83.53-.43.2-.83.46-1.18.82-.83.83-1.24,1.88-1.24,3.14v4.7c-.2-.41-.46-.79-.8-1.13-.84-.83-1.89-1.25-3.15-1.25-2.24,0-3.63,1-4.18,2.99v-5.31c0-1.26-.42-2.31-1.26-3.15-.7-.7-1.56-1.09-2.55-1.21-.31-.09-.64-.16-1.01-.16-.92,0-1.67.3-2.26.91-.06.06-.11.13-.16.2-.1.09-.22.16-.31.26-.83.84-1.24,1.89-1.24,3.15v3.74c-.05-.05-.08-.11-.13-.16-.84-.84-1.89-1.26-3.16-1.26-3.01,0-5.53,1.02-7.57,3.07-1.2,1.2-2.03,2.58-2.53,4.11-.5-1.53-1.34-2.9-2.54-4.1-2.05-2.05-4.58-3.08-7.59-3.08-2,0-3.77.46-5.34,1.35.01-.14.04-.28.04-.43,0-.58-.1-1.13-.3-1.66.2-.51.3-1.07.3-1.66,0-1.26-.42-2.31-1.26-3.15-.84-.83-1.89-1.25-3.15-1.25H7.43c-1.26,0-2.31.42-3.15,1.25-.29.29-.51.61-.7.95-.37.52-.56,1.13-.56,1.85,0,.06.01.12.02.18,0,.06-.01.11-.01.17,0,.58.1,1.13.3,1.66-.2.53-.3,1.09-.3,1.66,0,1.27.42,2.32,1.26,3.16s1.89,1.26,3.15,1.26h.76v14.84c0,1.26.42,2.31,1.26,3.14.84.83,1.89,1.25,3.15,1.25s2.31-.42,3.14-1.25c.83-.83,1.24-1.88,1.24-3.14v-14.84h.93c.15,0,.28-.03.43-.04-.88,1.56-1.33,3.32-1.33,5.3,0,.55.04,1.11.13,1.66-.09.55-.13,1.11-.13,1.66,0,3.01,1.02,5.53,3.05,7.58,2.04,2.04,4.56,3.07,7.57,3.07,1.26,0,2.31-.4,3.16-1.2.82.8,1.85,1.2,3.09,1.2s2.29-.42,3.14-1.25c.85-.83,1.28-1.88,1.28-3.14v-1.47c.5,1.01,1.16,1.94,2.01,2.79,2.05,2.04,4.57,3.07,7.55,3.07,1.24,0,2.29-.42,3.14-1.25.29-.28.51-.6.71-.94.19.33.4.65.69.94.83.83,1.88,1.25,3.14,1.25s2.31-.42,3.15-1.25c.84-.83,1.26-1.88,1.26-3.14v-2.06c.35,0,.53.17.53.5v3.92c0,2.66.91,4.88,2.74,6.66,1.83,1.78,4.07,2.67,6.72,2.67.62,0,1.18-.1,1.7-.3v14.46c0,1.3.43,2.38,1.3,3.24.87.86,1.95,1.28,3.25,1.28.91,0,1.73-.23,2.46-.68.73.46,1.54.68,2.43.68,2.65,0,4.89-.91,6.72-2.74,1.11-1.1,1.87-2.35,2.31-3.75.52,1.24,1.28,2.37,2.29,3.39,2.1,2.11,4.7,3.17,7.8,3.17s5.68-1.06,7.8-3.19c.78-.78,1.41-1.62,1.9-2.52,0,.08-.02.15-.02.23v.89c0,1.3.43,2.38,1.28,3.24.85.86,1.93,1.28,3.23,1.28s2.38-.43,3.25-1.28,1.3-1.93,1.3-3.23v-.89c0-.37.18-.55.55-.55.34,0,.51.18.51.55v.89c0,1.28.44,2.35,1.32,3.22.88.87,1.96,1.3,3.23,1.3s2.38-.43,3.23-1.28c.86-.86,1.28-1.94,1.28-3.24v-.89c0-.5-.03-1-.1-1.51.07-.32.1-.66.1-1.03v-.89c0-1.37-.25-2.65-.75-3.84.5-1.16.75-2.43.75-3.8v-.89c0-.37-.03-.71-.1-1.03.07-.5.1-1,.1-1.51v-.89Zm-52.09-10.65s-.07.03-.11.05v-.27c.04.07.07.15.11.22Zm-25.98-5.4c-.84-.84-1.89-1.26-3.16-1.26-.29,0-.55-.05-.8-.17.24-.13.51-.2.8-.2,1.26,0,2.31-.41,3.16-1.24.05-.05.09-.11.13-.16v3.19c-.05-.05-.08-.11-.13-.16Zm-23.14-1.16c-.46-.04-.81-.12-1.03-.23.24-.11.51-.17.8-.17.53,0,.99.19,1.36.56-.2-.07-.58-.12-1.13-.17Z"/><path class="cls-3" d="m50.36,109.89c-.6-.6-1.35-.9-2.26-.9-1.01,0-1.86-.34-2.56-1.04-.7-.69-1.04-1.54-1.04-2.54s.34-1.86,1.04-2.56c.7-.7,1.55-1.06,2.56-1.06.91,0,1.66-.29,2.26-.88.37-.36.62-.78.76-1.26.09-.31.14-.64.14-.99s-.05-.68-.14-.99c-.14-.49-.39-.91-.76-1.28-.6-.6-1.35-.9-2.26-.9-2.81,0-5.16.96-7.06,2.86-1.61,1.61-2.53,3.56-2.77,5.82-.05.4-.07.82-.07,1.24,0,.63.05,1.24.15,1.82.33,2,1.23,3.73,2.71,5.21,1.91,1.9,4.25,2.85,7.04,2.85.91,0,1.66-.29,2.26-.88.37-.36.62-.78.76-1.26.09-.31.14-.64.14-.99s-.05-.68-.14-.99c-.14-.49-.39-.91-.76-1.28Z"/><path class="cls-3" d="m73.75,119.18c-.13-.52-.39-.98-.78-1.37-.6-.6-1.35-.9-2.26-.9h-.15c-.28,0-.55-.04-.79-.14-.29-.1-.55-.26-.78-.49-.42-.42-.63-.94-.63-1.57v-4.25c0-.97-.14-1.89-.41-2.73-.44-1.37-1.25-2.57-2.43-3.58,1.37-1.57,2.05-3.4,2.05-5.52,0-.91-.3-1.66-.9-2.25-.6-.59-1.35-.89-2.27-.89s-1.72.3-2.28.89c-.57.59-.85,1.37-.85,2.34,0,1.47-1.01,2.17-3.02,2.1v-9.47c0-.91-.3-1.66-.9-2.27-.37-.36-.8-.62-1.29-.75t-.02-.01c-.18-.02-.37-.03-.56-.03-1.09,0-2.03.32-2.8.96-.49.57-.73,1.27-.73,2.1v20.81c0,.32.04.63.11.91.13.51.39.96.77,1.34.59.59,1.34.88,2.25.88s1.67-.29,2.27-.88c.6-.59.9-1.34.9-2.25v-3.85h1.62c.62,0,1.14.2,1.56.61.42.41.63.93.63,1.55v4.25c0,2.4.82,4.41,2.45,6.05,1.63,1.63,3.65,2.44,6.05,2.44h.15c.91,0,1.66-.29,2.26-.88.6-.59.9-1.34.9-2.25,0-.32-.04-.62-.12-.9Z"/><path class="cls-3" d="m74.47,89.08c-.31-.3-.67-.52-1.08-.66-.34-.07-.7-.1-1.08-.1-.69,0-1.31.12-1.87.38-.01,0-.03,0-.04.02-.16.11-.32.24-.47.38-.59.59-.88,1.34-.88,2.25v20.81c0,.29.03.57.09.83.13.55.39,1.02.79,1.42.08.08.17.16.26.24.54.42,1.2.64,1.98.64h.01c.91,0,1.67-.29,2.27-.88.6-.59.9-1.34.9-2.25v-20.81c0-.93-.3-1.69-.88-2.27Z"/><path class="cls-3" d="m93.1,98.53c-1.95-2.03-4.34-3.04-7.17-3.04s-5.16.95-7.05,2.85c-.98.98-1.71,2.08-2.18,3.3-.44,1.15-.67,2.4-.67,3.77s.23,2.62.67,3.77c.47,1.23,1.2,2.34,2.18,3.32,1.89,1.91,4.25,2.87,7.05,2.87h3.21c.91,0,1.66-.31,2.25-.91.58-.59.88-1.35.88-2.26s-.3-1.66-.88-2.25c-.59-.59-1.34-.89-2.25-.89h-3.21c-1.01,0-1.86-.35-2.55-1.06-.7-.71-1.05-1.57-1.05-2.58,0-.84.26-1.59.77-2.25.52-.66,1.18-1.09,1.99-1.28l-1.54,1.56c-.52.64-.79,1.3-.79,1.98,0,.89.32,1.65.94,2.28.62.64,1.38.96,2.27.96.79,0,1.52-.32,2.2-.97l4.57-4.48c.86-.67,1.29-1.52,1.29-2.53,0-.79-.31-1.51-.93-2.16Z"/><path class="cls-3" d="m20.1,90c-.6-.59-1.36-.89-2.27-.89H6.45c-.91,0-1.67.3-2.27.89-.17.17-.32.35-.44.55-.31.48-.46,1.05-.46,1.7,0,.07,0,.14.01.2.04.82.34,1.51.89,2.06.6.6,1.36.9,2.27.9h2.45v17.75c0,.91.3,1.66.9,2.25.6.59,1.36.88,2.27.88s1.66-.29,2.25-.88c.59-.59.88-1.34.88-2.25v-17.75h2.63c.91,0,1.67-.3,2.27-.9.6-.6.9-1.35.9-2.26s-.3-1.67-.9-2.25Z"/><path class="cls-3" d="m37.41,103.9c-.28-2.15-1.2-4.01-2.76-5.56-1.91-1.9-4.27-2.85-7.07-2.85-1.95,0-3.67.46-5.18,1.36-.67.41-1.3.9-1.88,1.48-.58.58-1.08,1.21-1.48,1.88-.91,1.5-1.36,3.22-1.36,5.17,0,2.8.94,5.15,2.84,7.06,1.9,1.9,4.25,2.85,7.06,2.85.91,0,1.66-.3,2.26-.9.6-.6.9-1.35.9-2.26s-.3-1.67-.9-2.25c-.6-.59-1.35-.89-2.26-.89-1.01,0-1.86-.35-2.56-1.05-.7-.71-1.04-1.56-1.04-2.56s.34-1.86,1.04-2.55c.7-.69,1.55-1.04,2.56-1.04s1.86.35,2.57,1.05,1.06,1.55,1.06,2.56v6.75c0,.92.3,1.67.88,2.26.59.59,1.34.88,2.25.88s1.67-.29,2.27-.88c.6-.59.9-1.34.9-2.25v-6.75c0-.52-.03-1.02-.1-1.51Z"/><path class="cls-2" d="m22.49,92.59c0-1.26-.42-2.3-1.25-3.13-.84-.82-1.88-1.24-3.14-1.24H7.67c-1.25,0-2.3.42-3.13,1.24-.33.33-.6.69-.8,1.09-.29.56-.44,1.2-.45,1.9-.01.04-.01.09-.01.14,0,.57.1,1.12.3,1.65-.2.53-.3,1.08-.3,1.66,0,1.26.42,2.3,1.26,3.14.83.84,1.88,1.26,3.13,1.26h.76v14.75c0,1.25.42,2.29,1.26,3.12.83.82,1.88,1.24,3.13,1.24s2.29-.42,3.12-1.24c.82-.83,1.24-1.87,1.24-3.12v-14.75h.92c.14,0,.27,0,.4-.02.19-.01.37-.03.54-.07.85-.16,1.58-.55,2.2-1.17.61-.62,1-1.34,1.16-2.19.04-.17.06-.35.07-.54.01-.13.02-.27.02-.41,0-.58-.1-1.13-.3-1.66.2-.5.3-1.05.3-1.65Zm-7.46,19.16c0,.66-.2,1.19-.61,1.6-.41.41-.94.61-1.6.61s-1.2-.2-1.62-.61c-.41-.41-.62-.94-.62-1.6v-16.9h-2.91c-.66,0-1.2-.21-1.61-.63-.42-.42-.63-.96-.63-1.63s.21-1.2.63-1.61c.41-.41.95-.61,1.61-.61h10.43c.66,0,1.2.2,1.62.61.42.41.62.95.62,1.61s-.2,1.21-.62,1.63-.96.63-1.62.63h-3.07v16.9Z"/><path class="cls-2" d="m38.27,104.17c-.08-.72-.23-1.41-.44-2.07-.5-1.51-1.34-2.87-2.53-4.06-2.03-2.04-4.55-3.05-7.54-3.05-1.97,0-3.74.44-5.29,1.32-.8.45-1.54,1.02-2.23,1.71-.7.7-1.28,1.45-1.74,2.26-.87,1.54-1.3,3.29-1.3,5.25,0,.55.04,1.1.13,1.65-.09.55-.13,1.1-.13,1.65,0,2.99,1.01,5.5,3.04,7.53,2.02,2.03,4.53,3.05,7.52,3.05,1.25,0,2.3-.4,3.14-1.19.81.79,1.83,1.19,3.06,1.19s2.28-.42,3.12-1.24c.85-.83,1.27-1.87,1.27-3.13v-9.48c0-.47-.03-.94-.08-1.39Zm-2.06,7.58c0,.66-.21,1.19-.63,1.6-.42.41-.96.61-1.62.61s-1.19-.2-1.6-.61c-.4-.41-.61-.94-.61-1.6v-6.17c0-1.1-.39-2.04-1.17-2.81s-1.72-1.15-2.82-1.15-2.04.38-2.81,1.15c-.77.76-1.15,1.69-1.15,2.79s.38,2.03,1.15,2.8c.77.78,1.71,1.17,2.81,1.17.66,0,1.2.2,1.62.61.41.4.62.93.62,1.59s-.21,1.19-.62,1.61c-.42.41-.96.62-1.62.62-2.4,0-4.4-.81-6.01-2.42-1.6-1.61-2.41-3.62-2.41-6.01s.81-4.39,2.41-5.99c1.61-1.61,3.61-2.41,6.01-2.41s4.41.81,6.02,2.41c1.62,1.61,2.43,3.62,2.43,6.02v6.19Zm-7.1-4.13c-.2-.06-.57-.12-1.12-.16-.46-.04-.8-.12-1.02-.23.24-.11.5-.17.79-.17.53,0,.98.19,1.35.56Z"/><path class="cls-2" d="m50.99,105.76s.09-.09.13-.14c.37-.38.64-.81.83-1.28.2-.51.3-1.08.3-1.69,0-.57-.1-1.11-.3-1.64.2-.53.3-1.08.3-1.65,0-.61-.1-1.18-.3-1.69-.19-.47-.46-.9-.83-1.29-.04-.05-.08-.09-.13-.14-.83-.84-1.88-1.25-3.13-1.25-3,0-5.5,1.01-7.53,3.04-1.18,1.19-2.02,2.55-2.5,4.07-.2.58-.33,1.18-.42,1.8-.07.54-.11,1.09-.11,1.66s.04,1.1.13,1.65c-.09.55-.13,1.1-.13,1.65,0,.77.07,1.52.21,2.23.17.89.45,1.73.84,2.51.49,1,1.16,1.92,2,2.76,2.03,2.03,4.54,3.05,7.51,3.05,1.23,0,2.27-.42,3.12-1.24.28-.28.51-.58.7-.9.38-.65.57-1.39.57-2.22,0-.57-.1-1.12-.3-1.65.04-.11.08-.22.11-.33.13-.41.19-.85.19-1.32,0-.61-.1-1.18-.3-1.69-.19-.48-.46-.91-.83-1.3-.04-.05-.08-.09-.13-.14-.83-.84-1.88-1.26-3.13-1.26-.29,0-.55-.05-.8-.16.25-.14.51-.2.8-.2,1.25,0,2.3-.41,3.13-1.24Zm-.89,5.99c0,.66-.21,1.19-.63,1.6-.41.41-.95.61-1.61.61-2.38,0-4.38-.81-5.99-2.42-1.62-1.61-2.43-3.61-2.43-5.98s.8-4.39,2.41-6.01c1.61-1.61,3.61-2.42,6.01-2.42.66,0,1.2.21,1.61.62.42.42.63.95.63,1.61s-.21,1.18-.63,1.59c-.41.4-.95.6-1.61.6-1.1,0-2.04.39-2.81,1.17-.77.79-1.15,1.73-1.15,2.83s.38,2.03,1.15,2.8c.77.77,1.71,1.16,2.81,1.16.66,0,1.2.21,1.61.62.42.42.63.96.63,1.62Z"/><path class="cls-2" d="m74.19,119.01c0-1.28-.43-2.33-1.29-3.15-.22-.22-.46-.41-.72-.57h-.01c-.58-.37-1.24-.58-1.98-.64-.17-.02-.34-.03-.52-.03-.35,0-.53-.18-.53-.53v-3.9c0-.46-.03-.92-.09-1.36-.16-1.16-.52-2.24-1.1-3.23.31-.93.47-1.91.47-2.95,0-.46-.07-.91-.2-1.35.13-.62.2-1.27.2-1.95,0-.77-.16-1.46-.47-2.06-.2-.39-.46-.74-.79-1.06-.83-.83-1.88-1.24-3.13-1.24-2.23,0-3.61.99-4.16,2.97v-5.28c0-1.26-.42-2.3-1.25-3.14-.71-.7-1.56-1.11-2.56-1.21t-.02-.01c-.18-.02-.37-.03-.56-.03-1.09,0-2.03.32-2.8.96-.11.09-.22.19-.32.29-.82.84-1.24,1.88-1.24,3.14v22.37c0,.83.19,1.57.56,2.22.18.32.41.62.68.9.83.82,1.87,1.24,3.12,1.24s2.3-.42,3.14-1.24c.83-.83,1.25-1.87,1.25-3.12v-2.05c.35,0,.53.17.53.5v3.89c0,2.64.9,4.85,2.72,6.62,1.81,1.77,4.04,2.66,6.68,2.66,1.26,0,2.3-.42,3.14-1.24.83-.83,1.25-1.87,1.25-3.12,0-.59-.1-1.14-.3-1.65.2-.53.3-1.08.3-1.65Zm-20.92-26.33c0-.66.2-1.2.61-1.62.41-.42.94-.63,1.6-.63s1.2.21,1.62.63c.41.42.62.96.62,1.62v9.34l1.42.03c.73.02,1.36-.23,1.88-.75.53-.52.8-1.15.8-1.88,0-1.53.73-2.29,2.21-2.29.66,0,1.2.21,1.61.61.42.41.63.94.63,1.61,0,2-.73,3.71-2.18,5.12,1.94,1.43,2.91,3.34,2.91,5.72v3.9c0,.75.25,1.38.77,1.9.11.11.22.21.34.28.45.34.97.5,1.56.5h.13c.3,0,.58.04.83.14.3.1.56.26.79.48.42.42.63.96.63,1.62,0,.14-.01.27-.03.39-.07.48-.27.89-.6,1.21-.42.41-.96.61-1.62.61h-.13c-2.02,0-3.72-.68-5.08-2.04-1.37-1.37-2.05-3.06-2.05-5.09v-3.89c0-.75-.26-1.38-.77-1.88-.52-.51-1.15-.76-1.9-.76h-2.15v4.19c0,.66-.21,1.19-.62,1.6-.42.41-.96.61-1.62.61s-1.19-.2-1.6-.61c-.41-.41-.61-.94-.61-1.6v-19.07Z"/><path class="cls-2" d="m75.51,89.49c-.56-.56-1.27-.92-2.12-1.07-.34-.07-.7-.1-1.08-.1-.69,0-1.31.12-1.87.38-.01,0-.03,0-.04.02-.44.19-.85.48-1.21.84-.82.82-1.24,1.86-1.24,3.12v22.37c0,.43.05.84.16,1.22.18.72.54,1.36,1.08,1.9.76.76,1.71,1.17,2.83,1.23.09.01.19.01.29.01.51,0,.99-.07,1.44-.23.15-.04.3-.09.44-.17.45-.19.86-.48,1.24-.84.85-.83,1.27-1.87,1.27-3.12v-22.37c0-1.35-.4-2.41-1.19-3.19Zm-4.8,1.59c.41-.41.94-.62,1.6-.62,1.5,0,2.24.74,2.24,2.22v19.07c0,.66-.21,1.19-.62,1.6-.42.41-.96.61-1.62.61s-1.19-.2-1.6-.61c-.41-.41-.61-.94-.61-1.6v-19.07c0-.66.2-1.2.61-1.6Z"/><path class="cls-2" d="m95.05,101.23c0-1.85-1.07-3.39-3.2-4.63-1.85-1.07-3.76-1.61-5.71-1.61-3,0-5.5,1.01-7.53,3.04-.79.79-1.43,1.66-1.91,2.6-.75,1.46-1.12,3.11-1.12,4.93,0,.55.04,1.1.13,1.65-.09.55-.13,1.1-.13,1.65,0,1.82.37,3.46,1.12,4.92.48.96,1.13,1.84,1.93,2.64,2.03,2.03,4.54,3.05,7.51,3.05h2.93c1.26,0,2.3-.42,3.12-1.25.83-.84,1.24-1.89,1.24-3.14,0-.58-.1-1.13-.3-1.66.2-.52.3-1.07.3-1.65,0-1.1-.33-2.05-.99-2.84.44-.46.75-.78.92-.96,1.13-.9,1.69-2.05,1.69-3.43,0-.58-.11-1.13-.33-1.66.22-.5.33-1.05.33-1.65Zm-3.1,1.83l-4.23,4.13c-.48.47-1,.7-1.55.7-.62,0-1.15-.23-1.6-.69-.45-.47-.68-1-.68-1.62,0-.55.24-1.07.73-1.55l2.37-2.34c-.28-.05-.57-.07-.85-.07-1.1,0-2.04.38-2.81,1.15s-1.15,1.71-1.15,2.81.38,2.04,1.15,2.82c.77.78,1.71,1.17,2.81,1.17h2.93c.66,0,1.2.21,1.6.61.41.41.61.94.61,1.6s-.2,1.2-.61,1.62c-.4.42-.94.63-1.6.63h-2.93c-2.4,0-4.4-.81-6.01-2.43-1.6-1.62-2.41-3.63-2.41-6.04s.81-4.41,2.41-6.02c1.61-1.6,3.61-2.41,6.01-2.41s4.43.86,6.1,2.58c.44.47.66.97.66,1.53,0,.72-.32,1.33-.95,1.82Z"/><path class="cls-3" d="m81.56,141.02c-1.1,0-1.96-.42-2.56-1.26-.58.84-1.44,1.26-2.59,1.26-.91,0-1.67-.29-2.27-.88-.6-.59-.9-1.34-.9-2.25v-15.72c0-2.36.8-4.33,2.39-5.93,1.6-1.6,3.57-2.4,5.92-2.4s4.33.8,5.94,2.4c1.61,1.6,2.41,3.57,2.41,5.93,0,2.02-.62,3.78-1.87,5.3,1.25,1.49,1.87,3.23,1.87,5.23,0,2.36-.8,4.33-2.41,5.93-1.61,1.6-3.59,2.4-5.94,2.4Zm-2.02-16.78h1.98c.58,0,1.07-.2,1.48-.6.41-.4.61-.89.61-1.47s-.2-1.07-.59-1.45c-.4-.39-.88-.58-1.46-.58s-1.03.2-1.42.6c-.4.4-.59.88-.59,1.43v2.07Zm0,10.48h2.09c.55,0,1.02-.2,1.4-.59s.58-.87.58-1.42c0-.62-.23-1.13-.7-1.51-.47-.38-1.02-.61-1.66-.68-.64-.07-1.21-.28-1.71-.61v4.82Z"/><path class="cls-3" d="m100.5,141.09c-2.81,0-5.16-.96-7.06-2.87-1.9-1.91-2.84-4.27-2.84-7.09s.95-5.17,2.84-7.07c1.9-1.9,4.25-2.85,7.06-2.85s5.17.95,7.07,2.85,2.86,4.26,2.86,7.07-.95,5.18-2.86,7.09c-1.91,1.91-4.27,2.87-7.07,2.87Zm0-13.57c-1.01,0-1.86.35-2.56,1.05-.7.7-1.04,1.56-1.04,2.57s.35,1.88,1.04,2.59c.7.71,1.55,1.07,2.56,1.07s1.87-.36,2.57-1.07c.71-.71,1.06-1.57,1.06-2.59s-.35-1.87-1.06-2.57c-.71-.7-1.57-1.05-2.57-1.05Z"/><path class="cls-3" d="m127.23,140.13c-.59.59-1.34.88-2.25.88s-1.64-.3-2.25-.9-.92-1.34-.92-2.23v-.94c0-.6-.21-1.12-.63-1.55-.42-.43-.93-.65-1.53-.65s-1.15.21-1.57.63c-.42.42-.63.94-.63,1.57v.94c0,.91-.3,1.66-.9,2.25-.6.59-1.36.88-2.27.88s-1.66-.29-2.25-.88c-.59-.59-.88-1.34-.88-2.25v-.94c0-2.28.77-4.23,2.3-5.84-1.54-1.59-2.3-3.52-2.3-5.81v-.94c0-.91.29-1.66.88-2.25.59-.59,1.34-.88,2.25-.88s1.7.29,2.29.87c.59.58.88,1.34.88,2.28v.94c0,.63.21,1.15.63,1.56.42.41.94.62,1.57.62s1.11-.21,1.53-.63.63-.94.63-1.54v-.94c0-.92.3-1.67.9-2.26.6-.59,1.36-.89,2.27-.89s1.66.29,2.25.88.88,1.34.88,2.25v.94c0,2.28-.77,4.22-2.3,5.81,1.54,1.61,2.3,3.56,2.3,5.84v.94c0,.91-.29,1.67-.88,2.25Z"/><path class="cls-2" d="m90.77,135.75c0,2.63-.91,4.86-2.74,6.67-1.83,1.81-4.05,2.72-6.68,2.72-.88,0-1.69-.23-2.41-.68-.73.45-1.54.68-2.45.68-1.29,0-2.37-.43-3.23-1.28-.86-.85-1.29-1.92-1.29-3.22v-18.24c0-2.63.91-4.86,2.72-6.67s4.03-2.72,6.66-2.72,4.86.91,6.68,2.72c1.82,1.82,2.74,4.04,2.74,6.67,0,.59-.05,1.16-.14,1.7.09.57.14,1.13.14,1.7,0,1.16-.19,2.25-.58,3.27.39,1.02.58,2.11.58,3.27,0,.59-.05,1.16-.14,1.7.09.57.14,1.13.14,1.7Zm-2.21-3.4c0-1.93-.67-3.57-2.01-4.94,1.34-1.38,2.01-3.05,2.01-5s-.69-3.75-2.07-5.12c-1.38-1.37-3.09-2.06-5.13-2.06s-3.75.69-5.12,2.06c-1.37,1.37-2.06,3.08-2.06,5.12v14.84c0,.68.21,1.23.65,1.65.43.42.99.63,1.67.63s1.23-.21,1.65-.63c.42-.42.63-.97.63-1.65v-14.82c0-.7.25-1.31.77-1.82.51-.51,1.12-.76,1.82-.76s1.34.25,1.85.75c.51.5.76,1.11.76,1.84s-.25,1.34-.76,1.84c-.51.5-1.13.76-1.85.78-.73.02-1.33.23-1.8.63s-.71.95-.71,1.65c0,.61.22,1.13.66,1.55.44.42.98.66,1.62.73.77.09,1.44.39,2.01.88.57.5.85,1.12.85,1.87,0,.7-.25,1.31-.76,1.82-.51.51-1.11.76-1.8.76s-1.25.22-1.68.65c-.43.43-.65.99-.65,1.67s.21,1.2.65,1.63c.43.43.97.65,1.63.65,2.04,0,3.75-.69,5.13-2.06,1.38-1.37,2.07-3.08,2.07-5.12Z"/><path class="cls-2" d="m111.27,134.29c0,3.06-1.05,5.65-3.16,7.76-2.11,2.11-4.69,3.17-7.75,3.17s-5.67-1.05-7.75-3.15c-2.09-2.1-3.13-4.69-3.13-7.78,0-.57.04-1.13.14-1.7-.09-.57-.14-1.13-.14-1.7,0-3.09,1.04-5.67,3.13-7.76,2.08-2.09,4.67-3.13,7.75-3.13s5.67,1.04,7.77,3.13c2.1,2.09,3.14,4.68,3.14,7.76,0,.59-.05,1.17-.14,1.74.09.54.14,1.1.14,1.67Zm-2.21-3.4c0-2.48-.83-4.54-2.5-6.2-1.67-1.66-3.73-2.49-6.21-2.49s-4.53.83-6.19,2.49c-1.66,1.66-2.48,3.72-2.48,6.2s.83,4.55,2.48,6.22c1.65,1.67,3.72,2.5,6.19,2.5s4.54-.83,6.21-2.5c1.67-1.67,2.5-3.74,2.5-6.22Zm-4.59.02c0,1.13-.4,2.1-1.21,2.91s-1.77,1.21-2.91,1.21-2.1-.4-2.89-1.21c-.79-.8-1.19-1.77-1.19-2.91s.4-2.1,1.19-2.89,1.76-1.19,2.89-1.19,2.1.4,2.91,1.19c.8.79,1.21,1.76,1.21,2.89Z"/><path class="cls-2" d="m129.05,140.66c0,1.29-.42,2.37-1.28,3.22-.85.85-1.92,1.28-3.21,1.28s-2.34-.43-3.21-1.29c-.87-.86-1.31-1.93-1.31-3.2v-.88c0-.36-.17-.54-.51-.54-.36,0-.54.18-.54.54v.88c0,1.29-.43,2.36-1.29,3.21s-1.94,1.27-3.23,1.27-2.36-.43-3.21-1.28c-.85-.85-1.28-1.92-1.28-3.22v-.89c0-.5.03-1,.1-1.5-.07-.32-.1-.66-.1-1.02v-.89c0-1.36.25-2.63.75-3.81-.5-1.16-.75-2.42-.75-3.78v-.88c0-.36.03-.7.1-1.02-.07-.5-.1-1-.1-1.5v-.89c0-1.29.42-2.37,1.28-3.22.85-.85,1.92-1.28,3.21-1.28,1.38,0,2.48.4,3.3,1.21.82.81,1.22,1.91,1.22,3.3v.89c0,.34.18.51.54.51.34,0,.51-.17.51-.51v-.89c0-1.3.43-2.38,1.29-3.23.86-.85,1.94-1.28,3.23-1.28s2.36.43,3.21,1.28c.85.85,1.28,1.92,1.28,3.22v.89c0,.5-.03,1-.1,1.5.07.32.1.66.1,1.02v.88c0,1.36-.25,2.62-.75,3.78.5,1.18.75,2.45.75,3.81v.89c0,.36-.03.7-.1,1.02.07.5.1,1,.1,1.5v.89Zm-2.21-3.4v-.89c0-2.2-.83-4.04-2.48-5.52,1.65-1.45,2.48-3.28,2.48-5.48v-.89c0-.68-.21-1.23-.63-1.65-.42-.42-.97-.63-1.65-.63s-1.24.21-1.67.63-.65.98-.65,1.66v.89c0,.75-.27,1.4-.8,1.93-.53.54-1.17.8-1.92.8s-1.42-.26-1.96-.79-.8-1.17-.8-1.95v-.89c0-1.53-.77-2.29-2.31-2.29-.68,0-1.23.21-1.65.63-.42.42-.63.97-.63,1.65v.89c0,2.2.83,4.03,2.48,5.48-1.66,1.48-2.48,3.32-2.48,5.52v.89c0,.68.21,1.23.63,1.65.42.42.97.63,1.65.63s1.24-.21,1.67-.63c.43-.42.65-.97.65-1.65v-.88c0-.77.27-1.42.8-1.96.53-.53,1.18-.8,1.96-.8s1.39.27,1.92.82.8,1.19.8,1.94v.88c0,.66.22,1.2.66,1.63.44.43.99.65,1.65.65s1.23-.21,1.65-.63c.42-.42.63-.97.63-1.65Z"/></svg>