<?xml version="1.0" encoding="UTF-8"?><svg id="Layer_1" xmlns="http://www.w3.org/2000/svg" xmlns:xlink="http://www.w3.org/1999/xlink" viewBox="0 0 465.01 169.71"><defs><style>.cls-1{clip-path:url(#clippath);}.cls-2{fill:none;}.cls-2,.cls-3,.cls-4{stroke-width:0px;}.cls-5{isolation:isolate;}.cls-3{fill:#95a1c6;}.cls-4{fill:#182a42;}</style><clipPath id="clippath"><rect class="cls-2" x="-1.22" y="-2.25" width="466.23" height="171.96"/></clipPath></defs><g id="Group_290"><g id="Group_148"><g class="cls-1"><g id="Group_147"><g id="Path_4032"><path class="cls-4" d="m65.36,5.57c.03-.66-.42-1.25-1.07-1.38-1.59-2.26-3.48-4.3-5.61-6.06-.71-.58-1.39-.49-2.05.31h-.09c-3.34,0-6.86.04-10.51.18-3.69.13-7.84.31-12.38.49-4.55.22-8.02.31-10.43.4-1.7.04-4.1.04-7.17-.04s-5.93-.13-8.6-.13c-2.49.03-4.98.25-7.44.67-.38.05-.72.26-.94.58-.23.34-.33.75-.27,1.16.13.5.5.92.98,1.11v.18c.05,2.62.41,5.22,1.07,7.75v.49c-.33.69-.03,1.52.67,1.85.02,0,.03.02.05.02l.89.67c.22.18.49.4.66.58.18.22.45.53.76.94.19.33.41.65.67.94.18.18.45.58.85,1.07l.66,1.12c-.26.31-.37.72-.31,1.11.07.41.3.77.62,1.02.29.26.69.36,1.07.26,1.51-.18,3.03-.26,4.58-.31,1.56-.05,3.61-.04,6.06.04,2.4.04,4.01.09,4.72.09.09,4.37.23,12.43.41,24.1.18,11.72.31,20.72.31,27.04-.39.23-.63.66-.62,1.11,0,.27.07.54.23.76,0,.21.03.42.09.62.27.49.58,1.07.94,1.74.31.57.65,1.12,1.02,1.65l1.15,1.6c.49.71.81,1.25.98,1.56v.4c.07.39.3.75.62.98.29.26.69.36,1.06.26,1.3-.18,3.79-.31,7.44-.4,2.63.02,5.25-.2,7.84-.67.38-.12.7-.35.94-.67.22-.31.3-.7.22-1.07-.02-.19-.08-.37-.18-.53.45-.24.72-.73.67-1.25,0-6.33-.14-15.73-.35-28.11-.27-12.43-.4-21.68-.4-27.76,5.11-.78,10.28-1.13,15.46-1.07.47.02.92-.2,1.21-.58.17-.06.33-.14.49-.22l.4-.18c.11.04.23.07.35.09.4.05.8-.06,1.11-.31.3-.25.51-.6.58-.98.31-3.12.53-6.95.58-11.45.44-.51.44-1.27,0-1.78m-9.49,4.05c-.27-.22-3.87-.26-10.74-.18-6.91.09-10.48.18-10.65.18-.38,0-.75.14-1.02.4-.28.27-.44.64-.44,1.03-.01.33.1.65.32.89.22,2.45.4,4.99.44,7.66,0,2.67,0,5.75-.13,9.27-.09,3.48-.13,6.1-.13,7.8,0,10.11.35,21.61,1.06,34.48-3.7.31-6.41.45-8.1.4,0-6.46-.14-16.35-.35-29.67-.23-13.28-.35-23.29-.36-30.03,0-.39-.15-.76-.45-1.02-.26-.3-.63-.46-1.02-.45-.23-.31-.59-.49-.98-.49-1.61-.04-5.17-.04-10.57.09-3.05.17-6.1.08-9.13-.26-.55-2.19-.85-4.43-.9-6.69,0-.14-.04-.27-.09-.4,1.38-.31,4.77-.4,10.16-.27,5.39.13,8.87.13,10.43.09,2.49-.09,5.93-.22,10.33-.4s8.47-.35,12.12-.49,7.08-.18,10.29-.18c-.14,1.74-.18,4.5-.09,8.24"/></g><g id="Path_4033"><path class="cls-4" d="m118.63,63.49c0-3.7.09-9.31.31-16.75.18-7.44.26-13.01.26-16.75.01-.37-.14-.72-.4-.98-.05-.32-.17-.62-.35-.89-.8-.76-1.96-1.96-3.43-3.61l-3.56-3.92c-.49-.56-1.34-.62-1.91-.13-.02.02-.03.03-.05.05-.18.04-.35.13-.49.26-.45,0-1.43.04-2.9.09-1.47.09-2.59.13-3.34.13-.48-.04-.93.18-1.2.58-.73.07-1.26.71-1.2,1.43,0,.07.02.14.04.21.13.98.26,2.58.49,4.72-1.8-1.77-3.94-3.16-6.28-4.1-1.38-.53-2.58-.98-3.7-1.34-1.18-.39-2.39-.7-3.61-.94-1.33-.27-2.69-.36-4.05-.26-1.41.13-2.8.42-4.14.85-3.77,1.25-7.16,3.44-9.85,6.37-2.93,3.12-5.27,6.74-6.91,10.69-2.94,7.26-3.56,14.18-1.87,20.76-.09.29-.09.6,0,.89,3.3,9.76,9.01,15.74,17.15,17.96,6.95,1.83,15.11.77,24.5-3.16l.8,1.07c-.05.13-.08.26-.09.4-.01.38.13.75.4,1.02.23.31.59.51.98.53,2.27.22,6.55.31,12.83.31.71.1,1.37-.39,1.47-1.1.02-.12.02-.25,0-.37,0-.2-.04-.39-.09-.58.31-.35.44-.83.35-1.29-.2-1.21-.3-2.43-.31-3.65-.04-1.29-.04-2.81.04-4.54.04-1.78.09-3.07.09-3.96m-16.97,5.52v-4.05c.09-.72-.43-1.38-1.15-1.47-.11-.01-.21-.01-.32,0h-.09c-.59-.32-1.33-.1-1.65.5-.04.07-.07.14-.09.22-1.56,2.7-4.02,4.77-6.95,5.83-3.35,1.28-6.94,1.81-10.51,1.56-3.64-.16-7.2-1.17-10.38-2.94-2.81-1.45-5.03-3.82-6.28-6.73-1.33-3.32-1.89-6.9-1.65-10.47.19-3.85,1.05-7.63,2.54-11.18,1.46-3.6,3.57-6.89,6.24-9.71,2.37-2.61,5.38-4.56,8.73-5.66,1.4-.54,2.91-.76,4.41-.62,1.52.12,3.02.36,4.5.71,1.52.42,3.01.94,4.46,1.56,3.42,1.26,6.22,3.78,7.84,7.04.1.25.27.47.49.62.3.43.82.66,1.34.58.38-.08.73-.28.98-.58.25-.31.36-.72.31-1.11-.18-1.2-.4-2.94-.58-5.17l-.4-4.01c.67,0,1.6-.04,2.81-.09,1.2-.09,2-.13,2.41-.13.31,7.98.48,23.21.49,45.71-2.5.08-5.01-.05-7.48-.4"/></g><g id="Path_4034"><path class="cls-4" d="m100.01,46.2c-.26-3.85-1.55-7.56-3.74-10.74-.21-.44-.67-.7-1.16-.67l-.4-.4c-1.02-.89-2.76-1.51-5.17-1.74-6.55-.76-11.54.76-14.93,4.5-2.94,3.3-4.59,8.29-4.99,14.88,0,.26,0,.62-.04,1.11-.02.32-.06.63-.13.94-.09.75-.09,1.52,0,2.27-.07,1.7.39,3.39,1.34,4.81,1.83,2.54,4.81,4.28,8.96,5.17,4.41.98,8.24.58,11.45-1.2,3.22-1.84,5.74-4.69,7.17-8.11,1.45-3.41,2.02-7.14,1.65-10.83m-4.41,9.67c-1.1,2.83-3.15,5.19-5.79,6.68-2.58,1.43-5.79,1.69-9.49.85-.91-.18-1.8-.43-2.67-.76-1-2.78-1.28-5.77-.8-8.69.36-3.12,1.41-6.12,3.07-8.78,1.78-2.76,3.83-4.54,6.19-5.39,2.58-.89,5.39-.53,8.33,1.07.32.21.72.24,1.07.09.12.08.26.13.4.13,1.82,4.79,1.71,10.09-.31,14.79"/></g><g id="Path_4035"><path class="cls-4" d="m177.27,45.49c-.22-.71-.62-2.54-1.2-5.39-.37-2-1-3.95-1.87-5.79-2.43-5.05-6.52-9.11-11.59-11.49-5.27-2.42-11.05-3.5-16.84-3.12-.43-.01-.84.21-1.07.58-1.54.27-3.05.7-4.5,1.29-3.92,1.66-7.29,4.39-9.71,7.89-2.74,3.84-4.61,8.24-5.48,12.87-.98,4.84-.81,9.85.49,14.62,1.19,4.52,3.56,8.64,6.86,11.94.05.25.19.47.4.62.62.58,1.74,1.74,3.34,3.43,1.14,1.3,2.41,2.48,3.79,3.52,3.09,2.19,6.67,3.59,10.43,4.09,3.72.53,7.51.09,11.01-1.29,3.56-1.43,6.63-3.84,8.86-6.95,1.16-1.63,2.11-3.4,2.85-5.26.64-1.66,1.4-3.26,2.27-4.81.46-.57.37-1.41-.2-1.87-.09-.07-.19-.13-.29-.18-.08-.09-.19-.14-.31-.13-1.38-2.45-2.41-4.23-3.12-5.26v-.13c.06-.75-.5-1.41-1.25-1.47-.02,0-.03,0-.05,0-.33-.17-.7-.23-1.07-.18-.31-.06-.63,0-.89.18-3.61,0-6.33.09-8.15.22-.65-.01-1.21.44-1.34,1.07v.09c-.51,2.1-1.13,4.17-1.87,6.19-1.51,2.72-4.01,4.1-7.57,4.01-.69-.07-1.37-.17-2.05-.31.02-.17-.05-.33-.18-.45-1.86-2.46-3.04-5.36-3.43-8.42-.59-3.36-.45-6.81.4-10.11.76-3.48,2.18-6.06,4.19-7.75,2.18-1.92,4.9-2.54,8.15-1.96.34.06.69-.02.98-.22.48,1.4.78,2.85.89,4.32-.19.29-.27.64-.22.98.07.5.36.95.8,1.2.13.2.3.36.49.49,2.72,2.23,4.46,3.56,5.17,4.1-.04.27,0,.56.13.8.11.37.39.67.76.8.33.16.71.19,1.07.09,1.39-.46,2.85-.7,4.32-.71,1.39-.08,2.77-.24,4.14-.49.18.08.38.11.58.09.28.13.61.13.89,0,.36-.12.67-.38.85-.71.21-.3.27-.68.13-1.02m-16.3-6.51c-.31-3.97-1.74-6.91-4.28-8.82-2.5-1.78-5.66-2.38-8.64-1.65-3.22.71-6.15,2.37-8.42,4.77-2.45,2.4-4,5.56-4.41,8.96-.4,3.54-.31,7.13.26,10.65.5,3.32,1.67,6.5,3.43,9.36,1.11,1.69,2.65,3.05,4.46,3.96,1.78.93,3.74,1.44,5.75,1.51,2.04.1,4.08-.36,5.88-1.33,1.84-.94,3.34-2.42,4.32-4.23.84-1.89,1.49-3.86,1.96-5.88,1.43-.09,3.25-.13,5.48-.13-.04.26-.31,1.2-.76,2.76-.49,1.56-.76,2.54-.89,2.94l-.89,2.36c-.28.89-.67,1.74-1.16,2.54l-1.47,1.96c-.53.77-1.18,1.46-1.92,2.05-.76.56-1.56,1.05-2.41,1.47-1.78.85-4.59,1.16-8.42.89-4.72-.2-9.25-1.92-12.92-4.9-3.5-2.87-6.08-6.72-7.4-11.05-1.38-4.61-1.58-9.5-.58-14.21.7-4.22,2.38-8.22,4.9-11.67,2.14-3.07,5.09-5.49,8.51-7,2.13-.82,4.4-1.26,6.68-1.29,2.53.03,5.01.64,7.26,1.78,2.7,1.39,5.15,3.21,7.26,5.39,3.12,3.3,4.72,6.24,4.77,8.82h-6.37Z"/></g><g id="Path_4036"><path class="cls-4" d="m237.15,78.33c-.11-.18-.25-.35-.4-.49v-.13c-.05-.09-.11-.18-.18-.26,0-.2-.04-.4-.13-.58-.5-1.14-1.16-2.21-1.96-3.16-.76-.98-1.2-1.51-1.34-1.65-.01-.28-.09-.56-.22-.8-.89-1.83-2-3.88-3.34-6.15-1.29-2.32-2.32-4.05-3.12-5.21l-3.92-6.28-3.34-5.26c-.29-.38-.54-.78-.76-1.2,2.67-3.58,5.69-6.89,9-9.89,4.19-4.01,6.82-6.59,7.93-7.84.44-.45.53-1.14.22-1.69.39-.57.25-1.34-.31-1.74-.79-.75-1.51-1.57-2.14-2.45-.76-.94-1.34-1.6-1.78-2.05v-.22c0-.39-.14-.77-.4-1.07-.23-.31-.6-.49-.98-.49-4.23-.26-7.98-.4-11.27-.4-.68-.03-1.27.45-1.38,1.12-.14.06-.26.15-.35.26-2.84,3-5.83,5.86-8.96,8.55l-.35-.4c-.21-.21-.5-.32-.8-.31-.04-2-.18-5.39-.4-10.16-.18-4.72-.26-8.38-.26-10.92,0-.17-.04-.34-.13-.49.03-.47-.2-.91-.59-1.16l-3.52-2.76c-.84-.67-1.72-1.3-2.63-1.87-.17-.59-.68-1.01-1.29-1.07-.28,0-.55.07-.8.18-3.83,0-6.5.09-8.02.22-.3.04-.59.18-.8.4-.39.07-.73.27-.98.58-.24.3-.34.69-.26,1.07.32,2.41.5,4.83.53,7.26.04,2.54,0,5.57-.09,9.13-.09,3.52-.18,6.01-.18,7.53v44.42c.01.13.06.25.13.35-.19.29-.27.64-.22.98.01.11.04.21.09.31,0,.27.08.53.22.76.91,1.71,1.92,3.36,3.02,4.95v.26c-.1.71.39,1.37,1.1,1.47.12.02.25.02.37,0h.49c.34.13.73.13,1.07,0,.4,0,.98,0,1.78-.04.76-.04,1.38-.04,1.74-.04,1.63-.09,3.27-.06,4.9.09.56.1,1.11-.17,1.38-.67.23.05.47.08.71.09.38-.01.74-.19.98-.49.23-.31.35-.68.35-1.07-.1-2.99-.03-5.98.22-8.96.25-2.61.31-5.23.18-7.84l.22-.18c.69-1.3,1.61-2.47,2.73-3.43l1.56,3.25c2.81,5.35,5.08,9.4,6.77,12.16.01.2.04.39.09.58.22.35.45.8.71,1.25.26.49.49.85.67,1.16.22.26.49.67.85,1.11.26.34.55.67.85.98l.98.98c.35.45.62.76.76.89.1.21.28.39.49.49l.22.26c.43.6,1.25.74,1.85.31.04-.03.07-.06.11-.09,1.69.18,3.52.35,5.48.58,1.65.13,2.99.18,4.01.18.46.09.93.09,1.38,0,.2.03.4,0,.58-.09.17,0,.33-.03.49-.09.32-.12.57-.38.67-.71.4-.75.29-1.67-.26-2.32m-7.09-53.91l.71.89c.63.87,1.35,1.68,2.14,2.41-.85.94-3.3,3.39-7.4,7.31-3.19,2.99-6.18,6.19-8.96,9.58l-.58-.8c-.73-1.08-1.36-2.23-1.87-3.43.12-.11.21-.25.26-.4,1.13-1.81,2.42-3.51,3.87-5.08,2-2.05,4.11-3.98,6.33-5.79,2.67-2.23,4.46-3.7,5.3-4.5l.18-.18Zm-5.26,46.56c-1.68.03-3.36-.04-5.03-.22h-.35c-1.6-2.54-3.7-6.37-6.28-11.45-3.16-6.15-5.52-10.51-7.17-13.14-.29-.52-.89-.8-1.47-.67-.42-.09-.86.04-1.16.35-2,1.97-3.84,4.1-5.48,6.37-.67.14-1.16.7-1.2,1.38-.13,2.49-.13,5.61-.09,9.4.18,4.81.31,7.35.31,7.66-2.15-.37-4.33-.5-6.5-.4V26.46c0-1.43.09-3.79.18-7.08.09-3.25.13-6.15.09-8.73s-.18-5.03-.45-7.31c1.29-.09,3.39-.13,6.19-.13-.27,4.28-.31,10.16-.13,17.64.27,11.45.4,17.87.4,19.25,0,.12.03.24.09.35-.39.61-.25,1.42.31,1.87.54.55,1.42.56,1.97.02.06-.06.12-.13.17-.2,3.01-3.46,6.25-6.71,9.72-9.71,4.99-4.5,8.38-7.75,10.2-9.8.12-.12.22-.26.31-.4,2.54,0,5.35.13,8.42.31-.58.53-2.27,1.96-5.03,4.28-2.34,1.89-4.58,3.91-6.68,6.06-1.61,1.67-3.02,3.52-4.19,5.52-.71.14-1.16.83-1.02,1.54.01.05.02.11.04.16.59,1.93,1.49,3.75,2.67,5.39l1.47,2.05c.62.98,1.16,1.74,1.56,2.36l3.25,5.08,3.61,5.7,2.94,4.9,3.25,5.66c-1.63-.2-3.26-.29-4.9-.26"/></g><g id="Path_4037"><path class="cls-4" d="m232.91,27.71c-.85.94-3.3,3.39-7.4,7.31-3.19,2.99-6.18,6.19-8.95,9.57l-.58-.8c-.73-1.08-1.36-2.23-1.87-3.43.12-.11.21-.25.26-.4,1.13-1.81,2.42-3.51,3.87-5.08,2-2.05,4.11-3.98,6.33-5.78,2.67-2.23,4.46-3.7,5.3-4.5l.18-.18.71.89c.63.87,1.35,1.68,2.14,2.41"/></g><g id="Path_4038"><path class="cls-4" d="m261.82,51.64c0-10.96-.04-19.2-.04-24.68,0-1.11-.04-4.19-.18-9.22-.13-4.1-.13-7.08,0-8.91v-.31c.06-.43-.09-.86-.4-1.16-.26-.31-1.25-1.34-2.94-3.03-1.12-1.2-2.01-2.18-2.63-2.94-.36-.64-1.16-.88-1.81-.52-.1.06-.2.13-.28.21l-.18.22c-2.83-.3-5.67-.34-8.51-.13-.37,0-.73.17-.98.45-.28.32-.42.74-.4,1.16-.01.43.21.84.58,1.07-.04,1.25-.09,2.58-.09,4.01,0,.71.04,2.32.09,4.81.13,4.95.18,7.98.18,9.09,0,5.52.04,13.72.09,24.73,0,10.96.04,19.2.04,24.68l-.22.22c-.55.46-.61,1.28-.15,1.83.07.08.15.16.24.22.86.69,1.65,1.47,2.36,2.32,1.07,1.25,1.7,2,1.96,2.27v.4c.08.38.28.73.58.98.31.25.72.36,1.11.31,1.02-.13,3.7-.22,8.02-.22.37.01.72-.14.98-.4.47.21,1.03.11,1.39-.26.31-.32.49-.75.49-1.2.49-.21.8-.71.76-1.25,0-5.48,0-13.72-.04-24.73m-14.53,19.02c0-5.44-.04-13.54-.04-24.42-.05-10.83-.09-18.98-.09-24.5,0-1.11-.05-4.19-.18-9.22-.04-2.54-.09-4.1-.09-4.68,0-1.38.04-2.67.09-3.83,1.96-.14,3.93-.08,5.88.18-.13,2.09-.13,4.81,0,8.06.13,4.95.18,8.02.18,9.09,0,5.52.04,13.72.09,24.68,0,10.92.04,19.11.04,24.55h-.31c-1.84.27-3.72.3-5.57.09"/></g><g id="Path_4039"><path class="cls-4" d="m325.71,55.07c.02-5.47-1.06-10.9-3.16-15.95-2.1-5.06-5.35-9.56-9.49-13.14-4.19-3.7-9.3-6.21-14.79-7.26-.3-.06-.61-.03-.89.09-.75-.14-1.51-.23-2.27-.26-3.04-.26-6.1.08-9,1.02-2.94.92-5.65,2.44-7.98,4.46-2.56,2.22-4.57,4.99-5.88,8.11-1.6,3.63-2.52,7.53-2.72,11.49-.67,11.45,1.65,20.05,6.86,25.89,1.49,1.86,3.19,3.53,5.08,4.99,4.27,3.36,9.5,5.28,14.93,5.48,5.23.25,10.42-1.04,14.93-3.7,4.64-2.71,8.5-6.56,11.23-11.18.27-.45.27-1.02,0-1.47.35-.52.32-1.21-.09-1.69-.18-.26-.67-.89-1.38-1.96-.56-.84-1.18-1.63-1.87-2.36h.63c1.02-.09,2.58-.18,4.68-.18.71.1,1.37-.39,1.47-1.1.02-.12.02-.25,0-.37,0-.32-.09-.63-.26-.89m-20.59,2.27c-.19.45-.36.91-.49,1.38l-.4,1.07c-.34,1.09-.92,2.1-1.69,2.94-3.96,3.79-8.2,4.1-12.7.98-2.48-1.83-4.44-4.27-5.7-7.09h20.76c0,.18.03.36.09.53.09.04.13.09.13.18m5.52,9.27c-2.28,2.65-5.19,4.69-8.47,5.93-3.38,1.38-7.07,1.87-10.69,1.43-3.7-.36-7.23-1.73-10.2-3.96-.97-.71-1.85-1.53-2.63-2.45-.72-.94-1.32-1.98-1.78-3.07-.16-.49-.57-.86-1.07-.98-2.67-4.86-3.79-11.45-3.34-19.69.18-4.6,1.52-9.08,3.92-13.01,1.94-3.3,4.8-5.95,8.24-7.63,3.22-1.48,6.77-2.06,10.29-1.69,5.62.53,10.8,3.25,14.44,7.57,4.1,4.54,6.33,10.78,6.73,18.67-3.96,0-9.98.13-17.91.35-7.98.22-13.99.35-17.96.35-.71-.1-1.37.39-1.47,1.1-.02.12-.02.25,0,.37-.07.63.36,1.21.98,1.34.05,1.07.22,2.13.49,3.16-.14.25-.21.52-.22.8-.02.59.34,1.13.89,1.34,1.39,3.85,3.92,7.17,7.26,9.53,1.54,1.1,3.26,1.93,5.08,2.45,1.9.36,3.86.25,5.7-.31,2.11-.62,4.03-1.77,5.57-3.34,1.1-1.14,1.93-2.51,2.45-4.01.13-.31.31-.71.53-1.16l.35-1.2c.11-.34.24-.66.4-.98,2.11-.24,4.25-.3,6.37-.18-.35,3.42-1.73,6.65-3.96,9.27"/></g><g id="Path_4040"><path class="cls-4" d="m308.25,39.61c-.04-.13-.31-.71-.76-1.69l-.71-1.83c-.02-.31-.17-.6-.4-.8l-.58-1.29c-.45-.85-.8-1.47-1.07-1.96l-1.29-1.65c-.42-.63-.93-1.2-1.51-1.69-.49-.35-1.07-.8-1.69-1.25-.66-.44-1.34-.85-2.05-1.2-2.31-.82-4.82-.9-7.17-.22-2.21.76-4.22,2.01-5.88,3.65-1.68,1.69-3.06,3.67-4.05,5.84-.97,1.97-1.5,4.13-1.56,6.33-.02.48.22.94.62,1.2-.01.14.02.28.09.4.11.36.37.65.71.8.36.17.78.19,1.16.04,1.74-.62,5.52-1.02,11.36-1.16h4.59c1.96,0,3.65,0,4.99-.04,1.38-.04,2.54-.09,3.43-.13.41,0,.79-.2,1.02-.53.23-.31.35-.68.35-1.07v-.09c.52-.38.68-1.07.4-1.65m-9,.53c-2.81.04-4.77.04-5.79.04-1.78.04-3.3.13-4.63.18.29-2.58,1.57-4.94,3.56-6.59,1.98-1.71,4.52-2.64,7.13-2.58.21,0,.42-.08.58-.22.83.84,1.55,1.78,2.14,2.81.67,1.11,1.16,2.05,1.51,2.76l1.47,3.56c-1.2,0-3.16,0-5.97.04"/></g><g id="Path_4041"><path class="cls-3" d="m173.68,89.14c.03-.69-.44-1.3-1.12-1.44-1.66-2.37-3.63-4.5-5.87-6.34-.74-.61-1.45-.51-2.14.32h-.09c-3.49,0-7.17.05-11,.19-3.87.14-8.2.32-12.94.51-4.75.23-8.39.32-10.9.42-1.77.05-4.29.05-7.5-.04s-6.19-.14-8.99-.14c-2.61.03-5.21.27-7.78.7-.4.05-.75.27-.97.61-.24.35-.34.79-.28,1.21.13.53.52.96,1.02,1.16v.19c.05,2.74.42,5.45,1.12,8.1v.51c-.34.72-.03,1.59.69,1.93.02,0,.04.02.05.02l.93.7c.25.19.48.39.7.61.19.23.47.56.79.98.2.35.43.68.7.98.19.18.47.61.89,1.12l.69,1.16c-.27.32-.39.75-.32,1.16.08.42.31.81.65,1.07.31.27.73.38,1.12.28,1.58-.18,3.16-.28,4.8-.32s3.77-.04,6.33.05c2.52.04,4.19.09,4.94.09.09,4.56.23,12.99.42,25.2.18,12.25.32,21.66.32,28.27-.65.41-.85,1.28-.43,1.93,0,0,0,.01.01.02,0,.22.04.44.09.66.28.51.6,1.11.98,1.81.32.6.68,1.17,1.08,1.72l1.21,1.67c.51.75.84,1.31,1.02,1.63v.42c.08.41.31.78.66,1.02.3.27.73.38,1.12.28,1.35-.19,3.95-.32,7.77-.42,2.75.02,5.49-.21,8.2-.7.39-.12.74-.37.98-.7.23-.32.32-.73.24-1.11-.03-.2-.09-.39-.19-.56.47-.26.74-.77.69-1.31,0-6.61-.14-16.44-.37-29.39-.28-12.99-.41-22.68-.41-29.01,5.35-.81,10.75-1.19,16.16-1.12.49.01.96-.21,1.26-.61.19-.09.37-.14.51-.23l.42-.19c.12.05.25.08.37.09.42.05.84-.07,1.16-.33.31-.26.53-.62.6-1.02.33-3.26.56-7.26.61-11.97.46-.53.46-1.33,0-1.86m-9.93,4.25c-.28-.23-4.05-.28-11.23-.19-7.22.09-10.95.19-11.13.19-.4,0-.78.15-1.06.42-.3.28-.46.67-.47,1.07-.01.34.1.67.32.93.24,2.56.43,5.21.47,8.01,0,2.79,0,6.01-.14,9.69-.09,3.63-.15,6.38-.15,8.15,0,10.57.37,22.59,1.12,36.05-2.82.28-5.64.42-8.47.42,0-6.75-.12-17.09-.37-31.02-.23-13.88-.37-24.36-.37-31.39,0-.41-.16-.8-.46-1.07-.27-.31-.66-.48-1.07-.46-.25-.32-.63-.51-1.03-.51-1.67-.05-5.4-.05-11.03.09-3.19.18-6.38.08-9.55-.28-.57-2.29-.88-4.63-.93-6.99,0-.14-.04-.29-.09-.42,1.45-.33,4.99-.42,10.62-.28,5.64.14,9.28.14,10.9.09,2.61-.09,6.2-.23,10.81-.42s8.85-.37,12.66-.51,7.41-.19,10.76-.19c-.14,1.82-.19,4.7-.09,8.62"/></g><g id="Path_4042"><path class="cls-3" d="m243.35,149.68c0-3.87.09-9.74.32-17.51.19-7.78.28-13.6.28-17.51,0-.39-.14-.76-.42-1.02-.06-.33-.18-.65-.37-.93-.84-.79-2.05-2.05-3.59-3.77l-3.72-4.1c-.51-.59-1.41-.65-2-.14-.02.02-.03.03-.05.05-.19.05-.37.14-.51.28-.47,0-1.5.04-3.03.09-1.53.09-2.7.14-3.49.14-.5-.04-.98.19-1.26.61-.76.07-1.32.74-1.25,1.5,0,.08.02.15.04.23.14,1.02.28,2.7.51,4.94-1.88-1.85-4.11-3.31-6.56-4.29-1.45-.56-2.7-1.02-3.87-1.4-1.24-.4-2.5-.73-3.77-.98-1.39-.28-2.82-.38-4.24-.28-1.47.14-2.92.44-4.33.89-3.94,1.31-7.49,3.6-10.3,6.66-3.07,3.26-5.51,7.05-7.22,11.18-3.07,7.59-3.73,14.82-1.96,21.7-.09.3-.09.63,0,.93,3.44,10.19,9.42,16.45,17.93,18.76,7.26,1.91,15.8.8,25.61-3.31l.84,1.11c-.05.14-.08.28-.09.42,0,.4.14.78.42,1.07.25.32.62.53,1.02.56,2.38.24,6.85.33,13.42.33.74.11,1.43-.41,1.54-1.15.02-.13.02-.26,0-.38,0-.2-.04-.41-.09-.61.32-.37.46-.87.37-1.35-.21-1.26-.32-2.54-.33-3.82-.04-1.35-.04-2.93.05-4.75.04-1.86.09-3.21.09-4.14m-17.75,5.77v-4.24c.09-.75-.44-1.44-1.2-1.54-.11-.01-.23-.01-.34,0h-.09c-.62-.33-1.39-.1-1.72.52-.04.07-.07.15-.09.23-1.62,2.83-4.2,4.99-7.26,6.1-3.5,1.34-7.25,1.9-10.99,1.63-3.81-.17-7.52-1.22-10.85-3.07-2.94-1.51-5.26-3.99-6.57-7.03-1.39-3.47-1.98-7.21-1.72-10.95.2-4.02,1.1-7.98,2.66-11.69,1.53-3.76,3.74-7.2,6.52-10.15,2.47-2.73,5.62-4.77,9.12-5.92,1.47-.57,3.05-.79,4.62-.65,1.58.12,3.16.37,4.7.74,1.59.43,3.14.98,4.66,1.63,3.57,1.32,6.51,3.95,8.2,7.36.1.26.28.49.51.66.31.45.86.68,1.4.61.4-.08.76-.29,1.02-.61.26-.33.38-.75.32-1.17-.19-1.26-.42-3.07-.61-5.4-.23-2.33-.37-3.73-.42-4.19.7,0,1.67-.04,2.94-.09,1.26-.09,2.09-.14,2.51-.14.33,8.34.5,24.26.51,47.78-2.62.08-5.23-.06-7.82-.42"/></g><g id="Path_4043"><path class="cls-3" d="m223.88,131.62c-.27-4.03-1.62-7.91-3.91-11.23-.23-.45-.7-.73-1.21-.69l-.42-.42c-1.07-.94-2.89-1.58-5.4-1.82-6.84-.79-12.06.79-15.6,4.71-3.07,3.44-4.8,8.66-5.22,15.55,0,.29,0,.65-.04,1.16-.02.33-.06.66-.14.98-.09.79-.09,1.59,0,2.38-.08,1.78.41,3.54,1.4,5.03,1.91,2.66,5.03,4.48,9.36,5.41,4.61,1.02,8.62.6,11.98-1.27,3.37-1.92,6-4.9,7.5-8.47,1.52-3.57,2.11-7.46,1.72-11.31m-4.61,10.11c-1.15,2.95-3.29,5.42-6.05,6.98-2.7,1.5-6.05,1.77-9.92.89-.95-.19-1.88-.46-2.79-.8-1.05-2.91-1.34-6.03-.84-9.08.37-3.26,1.47-6.39,3.21-9.17,1.86-2.89,4.01-4.75,6.47-5.64,2.7-.93,5.64-.56,8.71,1.12.33.22.75.25,1.12.09.12.09.27.14.42.14,1.9,5,1.78,10.55-.32,15.46"/></g><g id="Path_4044"><path class="cls-3" d="m304.65,130.87c-.23-.74-.65-2.66-1.26-5.64-.39-2.09-1.04-4.13-1.96-6.05-2.54-5.28-6.81-9.52-12.11-12.02-5.51-2.54-11.56-3.66-17.61-3.26-.45-.01-.88.21-1.12.6-1.61.28-3.18.74-4.7,1.36-4.1,1.73-7.62,4.59-10.15,8.24-2.86,4.02-4.82,8.61-5.73,13.46-1.02,5.06-.85,10.29.51,15.28,1.25,4.72,3.72,9.03,7.17,12.48.05.26.2.5.42.66.65.61,1.82,1.81,3.49,3.59,1.19,1.36,2.51,2.59,3.96,3.68,3.23,2.29,6.97,3.76,10.9,4.29,3.89.56,7.85.09,11.5-1.35,3.72-1.49,6.93-4.01,9.27-7.27,1.21-1.71,2.21-3.55,2.98-5.5.67-1.73,1.46-3.41,2.38-5.03.48-.6.39-1.47-.2-1.95-.09-.08-.2-.14-.31-.19-.08-.09-.2-.14-.32-.14-1.44-2.56-2.52-4.43-3.26-5.5v-.13c.07-.78-.52-1.47-1.3-1.53-.02,0-.04,0-.05,0-.34-.18-.74-.25-1.12-.19-.32-.06-.66,0-.93.19-3.77,0-6.61.09-8.52.23-.67,0-1.26.46-1.4,1.12v.09c-.53,2.19-1.18,4.35-1.96,6.47-1.58,2.84-4.19,4.29-7.92,4.19-.72-.07-1.44-.18-2.14-.33.02-.17-.05-.35-.18-.46-1.94-2.57-3.18-5.61-3.59-8.81-.61-3.51-.47-7.12.41-10.57.79-3.63,2.28-6.33,4.38-8.1,2.29-2,5.12-2.66,8.52-2.05.36.06.73-.02,1.02-.23.5,1.46.82,2.98.93,4.52-.2.3-.28.66-.23,1.02.07.53.38.99.84,1.26.13.2.31.38.51.51,2.84,2.33,4.66,3.73,5.4,4.29-.05.29,0,.58.14.84.12.39.41.7.79.84.35.17.75.2,1.12.09,1.46-.48,2.98-.74,4.52-.74,1.45-.08,2.9-.25,4.33-.51.19.08.4.11.61.09.29.14.64.14.93,0,.38-.12.7-.39.89-.74.22-.31.27-.72.14-1.07m-17.04-6.8c-.33-4.14-1.82-7.22-4.47-9.22-2.62-1.86-5.92-2.49-9.04-1.72-3.37.74-6.43,2.48-8.8,4.99-2.56,2.5-4.18,5.81-4.61,9.36-.42,3.71-.32,7.45.28,11.13.52,3.47,1.74,6.8,3.58,9.78,1.16,1.77,2.77,3.2,4.66,4.15,1.86.97,3.91,1.51,6.01,1.58,2.14.1,4.27-.38,6.15-1.4,1.92-.98,3.5-2.52,4.52-4.42.88-1.98,1.56-4.04,2.05-6.15,1.49-.09,3.4-.14,5.73-.14-.04.28-.32,1.26-.79,2.89-.51,1.63-.79,2.66-.93,3.07l-.93,2.47c-.3.93-.7,1.82-1.21,2.66l-1.54,2.05c-.56.81-1.23,1.53-2,2.14-.79.59-1.63,1.1-2.52,1.54-1.86.89-4.79,1.21-8.8.93-4.94-.21-9.68-2-13.51-5.12-3.66-3-6.35-7.02-7.73-11.55-1.44-4.82-1.65-9.93-.61-14.86.73-4.41,2.48-8.59,5.12-12.2,2.24-3.21,5.31-5.74,8.89-7.32,2.23-.86,4.6-1.31,6.99-1.35,2.64.03,5.24.66,7.59,1.86,2.82,1.45,5.39,3.35,7.59,5.64,3.26,3.45,4.94,6.52,4.99,9.22h-6.66Z"/></g><g id="Path_4045"><path class="cls-3" d="m367.24,165.19c-.11-.19-.26-.36-.42-.51v-.14c-.05-.1-.11-.19-.18-.28,0-.21-.05-.42-.14-.61-.52-1.2-1.21-2.31-2.05-3.31-.79-1.02-1.26-1.58-1.39-1.72-.01-.29-.09-.58-.24-.84-.93-1.91-2.1-4.05-3.49-6.43-1.35-2.42-2.42-4.24-3.26-5.45l-4.1-6.57-3.49-5.49c-.3-.4-.57-.82-.79-1.26,2.8-3.74,5.95-7.2,9.41-10.34,4.38-4.19,7.12-6.89,8.29-8.2.47-.47.56-1.19.24-1.77.41-.59.26-1.4-.33-1.82-.82-.78-1.57-1.64-2.23-2.56-.79-.98-1.4-1.67-1.86-2.14v-.23c0-.41-.15-.81-.42-1.12-.24-.32-.62-.51-1.02-.51-4.43-.28-8.34-.42-11.78-.42-.71-.03-1.33.47-1.44,1.16-.15.06-.27.16-.37.28-2.97,3.14-6.09,6.12-9.36,8.94l-.37-.42c-.22-.22-.53-.34-.84-.32-.04-2.1-.18-5.64-.42-10.62-.19-4.94-.28-8.75-.28-11.41,0-.18-.04-.36-.14-.51.04-.48-.2-.95-.61-1.21l-3.68-2.89c-.88-.7-1.79-1.36-2.74-1.96-.18-.62-.72-1.06-1.35-1.12-.29,0-.57.07-.84.19-4.01,0-6.8.09-8.38.23-.32.04-.62.19-.84.42-.4.07-.77.28-1.02.6-.25.31-.35.72-.28,1.12.34,2.52.52,5.05.56,7.59.05,2.66,0,5.82-.09,9.55-.09,3.68-.19,6.29-.19,7.87v46.43c.01.14.06.26.14.37-.21.3-.29.67-.24,1.02.02.11.05.22.09.32,0,.28.09.55.24.79.95,1.78,2.01,3.51,3.16,5.17v.28c-.11.74.41,1.43,1.15,1.54.13.02.26.02.38,0h.51c.36.14.76.14,1.11,0,.42,0,1.02,0,1.86-.05.79-.04,1.45-.04,1.82-.04,1.71-.09,3.42-.06,5.12.09.58.1,1.16-.18,1.44-.7.24.06.49.09.74.09.4-.01.77-.2,1.02-.51.24-.32.37-.71.37-1.12-.11-3.12-.03-6.25.23-9.36.26-2.72.32-5.46.19-8.2l.23-.19c.72-1.36,1.68-2.58,2.85-3.58l1.63,3.4c2.93,5.59,5.31,9.83,7.08,12.72.01.2.04.41.09.61.23.37.46.84.74,1.31.28.51.51.88.7,1.21.23.28.51.7.88,1.17s.66.79.89,1.02l1.02,1.02c.37.46.65.79.79.93.11.22.29.41.51.51l.23.28c.45.62,1.32.77,1.94.32.04-.03.07-.06.11-.09,1.77.19,3.68.37,5.73.61,1.72.14,3.12.18,4.19.18.48.09.97.09,1.45,0,.2.03.41,0,.6-.09.17,0,.35-.04.51-.09.34-.12.6-.4.7-.75.42-.79.3-1.75-.28-2.42m-7.4-56.35l.75.93c.66.91,1.41,1.75,2.23,2.52-.88.98-3.44,3.54-7.73,7.64-3.34,3.13-6.46,6.47-9.36,10.02l-.61-.84c-.76-1.13-1.41-2.34-1.95-3.59.12-.12.22-.26.28-.42,1.18-1.89,2.53-3.67,4.05-5.31,2.09-2.14,4.3-4.17,6.62-6.05,2.79-2.33,4.66-3.87,5.54-4.7l.18-.18Zm-5.49,48.67c-1.76.03-3.51-.05-5.26-.23h-.37c-1.67-2.66-3.87-6.66-6.57-11.98-3.31-6.43-5.77-10.99-7.5-13.74-.3-.55-.93-.83-1.54-.69-.44-.1-.9.04-1.21.37-2.09,2.05-4.01,4.28-5.72,6.66-.7.14-1.21.73-1.26,1.44-.14,2.61-.14,5.87-.09,9.83.19,5.03.33,7.69.33,8.01-2.25-.39-4.53-.53-6.8-.42v-45.79c0-1.5.09-3.96.19-7.4.09-3.4.14-6.43.09-9.13s-.19-5.26-.46-7.64c1.35-.09,3.54-.14,6.47-.14-.28,4.47-.32,10.62-.14,18.45.28,11.97.42,18.67.42,20.12,0,.13.04.25.09.37-.41.64-.27,1.48.32,1.96.56.58,1.48.59,2.06.03.07-.06.13-.14.18-.21,3.14-3.62,6.54-7.01,10.16-10.15,5.22-4.7,8.76-8.1,10.67-10.25.12-.13.23-.27.32-.42,2.66,0,5.59.14,8.81.32-.61.56-2.38,2.05-5.26,4.47-2.45,1.97-4.78,4.08-6.99,6.33-1.69,1.74-3.16,3.68-4.38,5.77-.74.15-1.22.87-1.07,1.61.01.06.03.11.04.17.61,2.02,1.56,3.93,2.79,5.64l1.54,2.14c.65,1.02,1.21,1.82,1.63,2.47l3.4,5.31,3.77,5.96,3.07,5.12,3.4,5.92c-1.7-.21-3.41-.31-5.12-.28"/></g><g id="Path_4046"><path class="cls-3" d="m362.81,112.28c-.89.98-3.45,3.54-7.73,7.64-3.34,3.13-6.47,6.48-9.36,10.02l-.61-.84c-.76-1.13-1.41-2.34-1.95-3.59.12-.12.22-.26.28-.42,1.18-1.9,2.53-3.67,4.05-5.31,2.09-2.14,4.29-4.16,6.61-6.05,2.8-2.33,4.66-3.87,5.54-4.7l.19-.19.74.94c.66.91,1.41,1.75,2.24,2.51"/></g><g id="Path_4047"><path class="cls-3" d="m397.7,137.29c0-11.46-.05-20.07-.05-25.8,0-1.16-.04-4.38-.18-9.64-.14-4.29-.14-7.4,0-9.32v-.33c.05-.45-.1-.89-.42-1.21-.28-.33-1.3-1.4-3.07-3.17-1.17-1.26-2.1-2.29-2.75-3.07-.38-.67-1.23-.92-1.9-.54-.11.06-.2.13-.29.21l-.18.23c-2.95-.31-5.93-.36-8.89-.14-.39,0-.76.18-1.02.47-.29.34-.44.77-.42,1.21-.01.45.22.88.61,1.12-.05,1.3-.09,2.7-.09,4.19,0,.75.04,2.42.09,5.03.14,5.17.19,8.34.19,9.5,0,5.77.04,14.35.09,25.85,0,11.46.05,20.07.05,25.8l-.23.23c-.57.48-.65,1.33-.17,1.9.08.09.16.17.26.24.9.72,1.73,1.53,2.47,2.42,1.11,1.3,1.77,2.09,2.04,2.38v.42c.08.4.3.76.61,1.02.33.26.75.38,1.16.32,1.07-.14,3.86-.23,8.38-.23.38,0,.75-.14,1.02-.42.49.22,1.07.11,1.44-.28.33-.33.51-.79.51-1.26.51-.22.83-.75.79-1.31,0-5.73,0-14.35-.04-25.85m-15.18,19.89c0-5.68-.05-14.16-.05-25.53-.04-11.32-.09-19.84-.09-25.61,0-1.16-.04-4.38-.18-9.64-.05-2.66-.09-4.29-.09-4.89,0-1.44.04-2.79.09-4,2.05-.15,4.11-.09,6.15.18-.14,2.81-.14,5.62,0,8.43.14,5.17.18,8.39.18,9.5,0,5.77.05,14.35.09,25.8,0,11.41.05,19.98.05,25.66h-.32c-1.93.29-3.89.32-5.82.09"/></g><g id="Path_4048"><path class="cls-3" d="m464.49,140.88c.02-5.72-1.1-11.39-3.31-16.68-2.2-5.29-5.59-9.99-9.92-13.74-4.38-3.87-9.72-6.49-15.47-7.59-.31-.06-.64-.03-.93.09-.79-.14-1.58-.24-2.38-.28-3.18-.28-6.38.09-9.41,1.07-3.07.97-5.91,2.55-8.34,4.66-2.67,2.32-4.77,5.22-6.15,8.48-1.67,3.8-2.64,7.87-2.84,12.01-.69,11.98,1.72,20.96,7.17,27.06,1.56,1.94,3.34,3.7,5.31,5.22,4.47,3.51,9.93,5.52,15.6,5.73,5.47.26,10.89-1.09,15.6-3.87,4.85-2.83,8.89-6.85,11.74-11.69.28-.47.28-1.06,0-1.54.37-.54.33-1.27-.09-1.77-.19-.28-.7-.93-1.44-2.05-.58-.87-1.24-1.7-1.96-2.47h.65c1.07-.09,2.7-.18,4.89-.18.74.11,1.43-.41,1.54-1.15.02-.13.02-.26,0-.38,0-.33-.1-.66-.28-.93m-21.52,2.38c-.2.47-.37.95-.51,1.44l-.42,1.12c-.35,1.14-.96,2.19-1.77,3.07-4.15,3.96-8.57,4.28-13.28,1.02-2.59-1.92-4.64-4.47-5.96-7.4h21.71c0,.19.03.38.09.56.09.04.14.09.14.19m5.77,9.69c-2.38,2.77-5.43,4.9-8.85,6.19-3.54,1.44-7.39,1.96-11.18,1.5-3.87-.38-7.56-1.82-10.67-4.15-1.01-.74-1.94-1.6-2.75-2.56-.75-.99-1.38-2.07-1.86-3.21-.16-.52-.59-.91-1.11-1.04-2.79-5.07-3.96-11.97-3.49-20.58.18-4.81,1.6-9.49,4.1-13.6,2.03-3.44,5.02-6.21,8.62-7.96,3.36-1.55,7.08-2.16,10.75-1.77,5.77.51,10.85,3.16,15.09,7.92,4.29,4.75,6.61,11.27,7.03,19.51-4.15,0-10.43.14-18.73.37-8.34.24-14.62.37-18.77.37-.74-.11-1.43.41-1.54,1.15-.02.13-.02.26,0,.38-.07.66.37,1.26,1.02,1.4.06,1.12.23,2.22.51,3.31-.14.26-.22.54-.23.84-.02.62.36,1.17.93,1.39,1.45,4.02,4.1,7.5,7.59,9.97,1.61,1.15,3.41,2.01,5.31,2.56,1.98.37,4.03.26,5.96-.33,2.21-.65,4.21-1.85,5.82-3.49,1.14-1.2,2.02-2.63,2.56-4.19.14-.32.32-.74.56-1.21l.37-1.26c.11-.35.25-.69.42-1.02,2.21-.25,4.44-.31,6.66-.18-.36,3.58-1.81,6.95-4.14,9.69"/></g><g id="Path_4049"><path class="cls-3" d="m446.23,124.72c-.05-.14-.33-.75-.79-1.77l-.74-1.91c-.02-.33-.17-.63-.42-.84l-.6-1.35c-.47-.88-.84-1.54-1.12-2.05l-1.35-1.72c-.45-.66-.98-1.26-1.58-1.77-.51-.37-1.12-.84-1.77-1.3-.69-.46-1.4-.89-2.14-1.26-2.41-.86-5.04-.94-7.5-.23-2.31.79-4.41,2.1-6.15,3.82-1.76,1.77-3.2,3.84-4.24,6.1-1.02,2.06-1.57,4.32-1.63,6.61-.02.5.23.98.65,1.26-.01.15.02.3.09.42.12.37.39.68.74.84.38.17.82.19,1.21.04,1.82-.65,5.77-1.07,11.88-1.21h4.8c2.05,0,3.82,0,5.21-.04,1.45-.05,2.66-.09,3.59-.14.43,0,.83-.21,1.07-.56.24-.32.37-.72.37-1.12v-.09c.54-.4.72-1.12.42-1.72m-9.41.56c-2.94.04-4.99.04-6.05.04-1.86.05-3.45.14-4.84.19.3-2.69,1.64-5.16,3.72-6.89,2.06-1.79,4.72-2.75,7.45-2.7.22,0,.44-.09.61-.23.87.88,1.62,1.86,2.23,2.93.7,1.16,1.21,2.14,1.58,2.89l1.54,3.73c-1.26,0-3.31,0-6.24.04"/></g><g id="Path_4050"><path class="cls-4" d="m173.05,89.03c.04-.7-.44-1.31-1.12-1.45-1.66-2.36-3.62-4.5-5.84-6.35-.53-.53-1.39-.52-1.92.01-.09.09-.17.2-.23.31h-.14c-3.46,0-7.15.05-11.02.19s-8.18.33-12.94.51-8.41.32-10.97.42c-1.78.04-4.25.04-7.48-.04-3.22-.14-6.25-.19-9.06-.19-2.61.07-5.22.32-7.8.74-.4.05-.76.28-.98.62-.49.73-.29,1.72.45,2.2.11.07.22.13.35.17v.19c.05,2.74.43,5.47,1.12,8.13v.51c-.36.7-.08,1.56.62,1.92.03.01.05.03.08.04l.93.7c.25.18.49.38.7.61.28.31.55.64.79.98.21.34.45.67.7.98.32.35.61.73.89,1.11l.7,1.13c-.28.34-.38.78-.28,1.21.06.42.27.81.61,1.08.31.27.73.37,1.12.27,1.61-.2,3.23-.31,4.86-.32,1.64-.04,3.74-.04,6.3.05,2.57.04,4.21.09,5,.09.04,4.58.19,13.03.37,25.27.23,12.28.34,21.73.32,28.35-.4.25-.63.7-.61,1.17-.02.28.04.56.19.8,0,.21.04.41.09.61.28.56.61,1.17.98,1.86.32.6.68,1.18,1.07,1.73l1.26,1.68c.47.74.79,1.26,1.03,1.63v.42c.07.41.28.77.61,1.03.31.26.72.36,1.12.29,1.35-.19,3.97-.33,7.8-.42,2.76.02,5.51-.21,8.22-.7.4-.12.74-.36.98-.69.23-.34.33-.76.28-1.17-.09-.18-.14-.37-.23-.51.5-.24.79-.76.74-1.31,0-6.63-.14-16.48-.42-29.51-.28-12.99-.42-22.7-.42-29.06,5.38-.81,10.81-1.18,16.25-1.11.49,0,.95-.24,1.22-.66.18-.05.35-.11.51-.18l.42-.19c.14.05.28.08.42.09.4.06.81-.06,1.12-.32.33-.25.55-.62.61-1.03.33-3.27.56-7.28.61-12.01.51-.52.51-1.35,0-1.86m-44.55,12.74c-.79,0-2.29-.04-4.49-.09-2.24-.09-4.16-.09-5.74-.04-1.64,0-3.18.09-4.58.14.06-.4-.06-.81-.33-1.12l-2.89-4.01c2.5.21,5.01.24,7.52.09,5.47-.14,8.97-.14,10.51-.09v5.13Zm14.15,64.41c-3.22.09-5.42.18-6.68.32l-1.73-2.48c-.64-.89-1.23-1.81-1.77-2.75,1.4,0,4.86-.19,10.51-.52.18,0,.35-.04.52-.09,1.14,1.89,2.48,3.65,4.02,5.23-1.17.13-2.81.23-4.86.28m2.48-9.01c-.2-.5-.68-.83-1.22-.84-.79-12.89-1.17-24.43-1.17-34.71,0-1.73.05-4.34.19-7.84.09-3.46.14-6.13.14-7.94s-.09-4.49-.32-7.99l1.87,2.2c.61.74,1.35,1.68,2.15,2.75l1.77,2.38v.19c.06.22.15.42.28.6,0,6.45.14,16.11.42,28.96.28,12.84.42,22.42.42,28.82-1.78-2-3.3-4.21-4.53-6.58m5.83-53.86c-.32-.42-.84-1.12-1.58-2.15-.7-1.02-1.4-1.96-2.01-2.75-.61-.75-1.22-1.45-1.82-2.1,8.64-.19,14.43-.19,17.47,0,1.68,2.48,2.99,4.39,3.79,5.79-5.3-.01-10.6.4-15.84,1.22m18.64-2.66c-.84-1.4-1.96-3.08-3.41-5.14,0-5.6.04-8.96.09-9.99,1.34,1.42,2.57,2.93,3.69,4.52,0,4.21-.14,7.71-.37,10.6"/></g><g id="Path_4051"><path class="cls-4" d="m223.4,131.62c-.28-4.03-1.61-7.91-3.87-11.25-.26-.45-.74-.72-1.26-.7l-.42-.42c-1.07-.98-2.9-1.58-5.42-1.87-6.87-.75-12.05.84-15.6,4.76-3.13,3.46-4.86,8.69-5.28,15.6,0,.28,0,.66-.04,1.17-.02.33-.07.66-.14.98-.09.79-.09,1.59,0,2.38-.09,1.79.42,3.57,1.45,5.04,1.92,2.66,5,4.49,9.34,5.42,4.67,1.02,8.64.61,12-1.27,3.39-1.91,6.03-4.9,7.52-8.5,1.54-3.57,2.14-7.48,1.73-11.35m-27.23,14.85c-.32-.32-.62-.66-.89-1.03-.62-.97-.91-2.12-.84-3.27-.09-.68-.09-1.37,0-2.05.06-.25.09-.5.09-.75,0-.25,0-.5.05-.74.04-.23.05-.47.04-.7.37-6.21,1.82-10.78,4.44-13.64,2.85-3.22,7.19-4.48,12.94-3.83,1.92.23,3.18.61,3.79,1.17.22.11.4.29.51.51-2.71-1.12-5.75-1.17-8.5-.14-3.17,1.12-5.84,3.41-8.03,6.91-1.62,2.61-2.76,5.49-3.36,8.5-.68,2.97-.76,6.06-.24,9.06m22.6-4.72c-1.15,2.96-3.3,5.42-6.08,6.96-2.71,1.54-6.02,1.82-9.95.94-.94-.19-1.86-.46-2.75-.8-1.06-2.91-1.37-6.04-.89-9.11.4-3.26,1.5-6.4,3.23-9.2,1.87-2.9,4.01-4.76,6.49-5.65,2.76-.98,5.65-.56,8.73,1.12.33.22.76.26,1.12.09.12.09.27.14.42.14,1.93,5.01,1.81,10.58-.32,15.5m4.62-10.14c-.28-4.03-1.61-7.91-3.87-11.25-.26-.45-.74-.72-1.26-.7l-.42-.42c-1.07-.98-2.9-1.58-5.42-1.87-6.87-.75-12.05.84-15.6,4.76-3.13,3.46-4.86,8.69-5.28,15.6,0,.28,0,.66-.04,1.17-.02.33-.07.66-.14.98-.09.79-.09,1.59,0,2.38-.09,1.79.42,3.57,1.45,5.04,1.92,2.66,5,4.49,9.34,5.42,4.67,1.02,8.64.61,12-1.27,3.39-1.91,6.03-4.9,7.52-8.5,1.54-3.57,2.14-7.48,1.73-11.35m-27.23,14.85c-.32-.32-.62-.66-.89-1.03-.62-.97-.91-2.12-.84-3.27-.09-.68-.09-1.37,0-2.05.06-.25.09-.5.09-.75,0-.25,0-.5.05-.74.04-.23.05-.47.04-.7.37-6.21,1.82-10.78,4.44-13.64,2.85-3.22,7.19-4.48,12.94-3.83,1.92.23,3.18.61,3.79,1.17.22.11.4.29.51.51-2.71-1.12-5.75-1.17-8.5-.14-3.17,1.12-5.84,3.41-8.03,6.91-1.62,2.61-2.76,5.49-3.36,8.5-.68,2.97-.76,6.06-.24,9.06m22.6-4.72c-1.15,2.96-3.3,5.42-6.08,6.96-2.71,1.54-6.02,1.82-9.95.94-.94-.19-1.86-.46-2.75-.8-1.06-2.91-1.37-6.04-.89-9.11.4-3.26,1.5-6.4,3.23-9.2,1.87-2.9,4.01-4.76,6.49-5.65,2.76-.98,5.65-.56,8.73,1.12.33.22.76.26,1.12.09.12.09.27.14.42.14,1.93,5.01,1.81,10.58-.32,15.5m4.62-10.14c-.28-4.03-1.61-7.91-3.87-11.25-.26-.45-.74-.72-1.26-.7l-.42-.42c-1.07-.98-2.9-1.58-5.42-1.87-6.87-.75-12.05.84-15.6,4.76-3.13,3.46-4.86,8.69-5.28,15.6,0,.28,0,.66-.04,1.17-.02.33-.07.66-.14.98-.09.79-.09,1.59,0,2.38-.09,1.79.42,3.57,1.45,5.04,1.92,2.66,5,4.49,9.34,5.42,4.67,1.02,8.64.61,12-1.27,3.39-1.91,6.03-4.9,7.52-8.5,1.54-3.57,2.14-7.48,1.73-11.35m-27.23,14.85c-.32-.32-.62-.66-.89-1.03-.62-.97-.91-2.12-.84-3.27-.09-.68-.09-1.37,0-2.05.06-.25.09-.5.09-.75,0-.25,0-.5.05-.74.04-.23.05-.47.04-.7.37-6.21,1.82-10.78,4.44-13.64,2.85-3.22,7.19-4.48,12.94-3.83,1.92.23,3.18.61,3.79,1.17.22.11.4.29.51.51-2.71-1.12-5.75-1.17-8.5-.14-3.17,1.12-5.84,3.41-8.03,6.91-1.62,2.61-2.76,5.49-3.36,8.5-.68,2.97-.76,6.06-.24,9.06m22.6-4.72c-1.15,2.96-3.3,5.42-6.08,6.96-2.71,1.54-6.02,1.82-9.95.94-.94-.19-1.86-.46-2.75-.8-1.06-2.91-1.37-6.04-.89-9.11.4-3.26,1.5-6.4,3.23-9.2,1.87-2.9,4.01-4.76,6.49-5.65,2.76-.98,5.65-.56,8.73,1.12.33.22.76.26,1.12.09.12.09.27.14.42.14,1.93,5.01,1.81,10.58-.32,15.5"/></g><g id="Path_4052"><path class="cls-4" d="m242.93,149.74c0-3.87.09-9.76.32-17.56.19-7.8.28-13.64.28-17.56.03-.38-.11-.75-.37-1.02-.09-.33-.23-.65-.42-.94-.84-.79-2.01-2.1-3.6-3.79l-3.69-4.11c-.52-.59-1.42-.65-2.01-.13-.01.01-.03.02-.04.04-.2.04-.38.14-.51.28-.52,0-1.5.05-3.04.09-1.54.09-2.75.14-3.55.14-.5-.04-.98.19-1.26.61-.76.07-1.32.74-1.25,1.5,0,.08.02.15.04.23.14,1.03.32,2.66.51,4.95-1.9-1.86-4.13-3.33-6.59-4.34-1.45-.51-2.71-.98-3.83-1.35-1.26-.4-2.54-.73-3.83-.98-1.4-.28-2.83-.38-4.25-.28-1.46.14-2.9.43-4.3.89-3.96,1.3-7.51,3.6-10.32,6.68-3.09,3.25-5.54,7.06-7.24,11.21-3.13,7.62-3.74,14.85-1.96,21.77-.14.3-.14.64,0,.94,3.41,10.23,9.4,16.5,17.98,18.82,7.24,1.92,15.8.81,25.69-3.31l.8,1.12c-.05.13-.09.28-.09.42-.01.4.14.79.42,1.08.25.32.63.52,1.03.56,2.38.24,6.87.33,13.45.33.75.11,1.44-.41,1.54-1.16.02-.13.02-.25,0-.38,0-.2-.04-.41-.09-.61.31-.38.46-.87.42-1.35-.22-1.27-.34-2.55-.37-3.83-.04-1.35,0-2.95.05-4.81.09-1.82.09-3.22.09-4.11m-21.25-6.77c-1.49,3.59-4.14,6.59-7.52,8.5-3.36,1.87-7.33,2.29-12,1.26-4.34-.94-7.43-2.76-9.34-5.42-1.02-1.48-1.53-3.25-1.45-5.05-.09-.79-.09-1.59,0-2.38.08-.32.12-.65.14-.98.04-.52.04-.89.04-1.17.42-6.91,2.15-12.15,5.28-15.6,3.55-3.92,8.73-5.51,15.6-4.76,2.52.28,4.34.89,5.42,1.87l.42.42c.52-.02,1.01.25,1.27.7,2.26,3.34,3.6,7.23,3.87,11.25.41,3.87-.19,7.78-1.73,11.35m-20.88,19.85c-2.8-.71-5.41-2.06-7.61-3.92,3.16,1.39,6.55,2.2,9.99,2.38,3.57.29,7.17-.09,10.6-1.12,3.18-.89,6.06-2.63,8.31-5.04v1.45c-.52.54-.51,1.4.03,1.92.05.05.1.09.16.13.5.42.95.89,1.35,1.4-8.88,3.6-16.44,4.48-22.84,2.8m28.77-.09c-.14-.14-.51-.7-1.21-1.68l-1.64-2.25c2.11.18,4.23.24,6.35.19h.09c.29.69,1.08,1.02,1.77.75l3.36,3.18c-3.69,0-6.58-.05-8.74-.19m10.6-30.46c-.23,7.75-.32,13.59-.32,17.47,0,.42-.05,2.1-.14,5.04-.13,1.74-.11,3.49.05,5.23l-3.69-3.36c0-23.59-.14-39.28-.42-47.17l1.12,1.45c1.58,1.78,2.8,3.08,3.69,3.87,0,3.93-.09,9.76-.28,17.47"/></g><g id="Path_4053"><path class="cls-4" d="m304.39,130.87c-.19-.79-.61-2.66-1.26-5.65-.38-2.1-1.02-4.14-1.92-6.07-2.56-5.3-6.87-9.55-12.19-12.05-5.51-2.54-11.56-3.66-17.61-3.27-.47-.03-.92.21-1.17.61-1.61.29-3.19.74-4.71,1.35-4.09,1.74-7.61,4.61-10.14,8.27-2.9,4.02-4.88,8.63-5.79,13.5-1.03,5.08-.85,10.32.51,15.32,1.27,4.73,3.75,9.04,7.2,12.52.07.26.22.48.42.66,1.23,1.13,2.4,2.33,3.5,3.59,1.21,1.37,2.55,2.61,4.02,3.69,3.24,2.27,6.97,3.75,10.88,4.3,3.9.57,7.88.08,11.54-1.4,3.75-1.46,6.99-3.97,9.34-7.24,1.18-1.73,2.17-3.57,2.95-5.51.67-1.74,1.46-3.43,2.38-5.05.49-.58.42-1.44-.15-1.93-.11-.09-.23-.17-.36-.22-.08-.09-.2-.14-.32-.14-1.4-2.57-2.52-4.44-3.27-5.51v-.13c.06-.79-.52-1.48-1.31-1.54-.01,0-.03,0-.04,0-.34-.18-.74-.25-1.12-.19-.32-.06-.65.01-.93.19-3.74,0-6.59.09-8.5.24-.69-.01-1.29.45-1.45,1.12v.09c-.53,2.2-1.19,4.37-1.96,6.49-1.59,2.85-4.21,4.25-7.89,4.2-.72-.07-1.44-.18-2.15-.32,0-.2-.09-.38-.23-.52-1.95-2.56-3.19-5.59-3.6-8.78-.61-3.52-.47-7.14.42-10.6.79-3.64,2.29-6.35,4.44-8.13,2.25-2.01,5.09-2.66,8.5-2.06.36.06.73-.02,1.03-.23.5,1.46.82,2.99.93,4.53-.19.31-.25.68-.18,1.03.03.53.33,1,.79,1.26.15.19.32.37.51.51,2.9,2.29,4.72,3.74,5.47,4.3-.09.28-.05.59.09.84.13.38.42.69.79.84.37.18.79.19,1.17.04,1.45-.47,2.96-.7,4.48-.7,1.46-.08,2.91-.25,4.34-.51.2.05.4.08.61.09.3.14.64.14.94,0,.39-.13.73-.39.94-.75.19-.33.22-.72.09-1.07m-9.95,18.49c.32-1.12.51-1.77.61-1.96l.61-2.29c.15-.62.35-1.23.61-1.82.46.66,1.4,2.24,2.75,4.72-.37.75-1.02,2.15-1.92,4.21-.67,1.74-1.53,3.4-2.57,4.95-2.8,3.93-7.05,6.57-11.82,7.33-4.75.87-9.65-.02-13.78-2.52,1.79.49,3.62.8,5.47.93,4.58.33,8.08-.09,10.46-1.35.75-.34,1.47-.75,2.15-1.21l1.87-1.45c.56-.52,1.07-1.1,1.5-1.73.51-.75.94-1.35,1.26-1.78.48-.61.85-1.28,1.12-2,.42-.89.7-1.54.89-1.87.18-.37.42-1.07.79-2.15m-22.65-29.01c-2.77,2.62-4.66,6.03-5.42,9.76-.72,2.95-.94,5.99-.65,9.01.18,2.97.81,5.9,1.87,8.69-.25-.33-.49-.67-.7-1.02-1.74-2.68-2.87-5.71-3.32-8.88-.53-3.32-.59-6.7-.18-10.04.31-2.89,1.61-5.58,3.69-7.61,1.98-2.07,4.53-3.51,7.33-4.11,2.66-.56,4.86-.19,6.54,1.12l.14.09c-3.37-.26-6.71.81-9.3,2.99m25.6,9.67c-1.16.03-2.31.14-3.46.32-1.17-.79-2.61-1.82-4.34-3.22h5.23c.43.01.84-.18,1.12-.51.84,1.12,1.78,2.2,2.8,3.31-.14,0-.61.05-1.35.09m.94-5.32c-.26-.42-.72-.66-1.22-.66-.09-3.55-2.05-7.33-5.88-11.3-.75-.79-1.54-1.54-2.34-2.24,4.17,2.3,7.55,5.82,9.67,10.09.75,1.66,1.27,3.42,1.54,5.23l.28,1.45c-.75-.89-1.45-1.78-2.05-2.57"/></g><g id="Path_4054"><path class="cls-4" d="m367.16,165.29c-.11-.2-.25-.37-.42-.51v-.14c-.04-.11-.1-.2-.19-.28,0-.21-.04-.41-.09-.61-.56-1.18-1.25-2.29-2.05-3.31-.84-1.03-1.31-1.59-1.45-1.73-.02-.29-.08-.57-.19-.84-.98-1.92-2.15-4.06-3.5-6.44-1.4-2.43-2.47-4.25-3.32-5.47l-4.11-6.58-3.45-5.56c-.31-.38-.59-.79-.84-1.22,2.8-3.75,5.96-7.22,9.43-10.37,4.39-4.21,7.2-6.91,8.37-8.22.45-.48.53-1.21.19-1.78.42-.57.29-1.37-.27-1.78-.02-.01-.04-.03-.06-.04-.81-.79-1.56-1.65-2.24-2.57-.56-.77-1.18-1.49-1.87-2.15v-.24c0-.41-.15-.81-.42-1.12-.22-.32-.59-.51-.98-.52-4.48-.28-8.41-.42-11.86-.42-.69-.05-1.3.44-1.4,1.12-.15.09-.29.2-.42.32-1.92,2.1-5.04,5.09-9.34,8.92l-.42-.37c-.22-.23-.53-.35-.84-.32-.04-2.1-.18-5.65-.42-10.65-.19-4.95-.28-8.78-.28-11.44,0-.18-.04-.35-.09-.52.03-.48-.2-.95-.61-1.21l-3.74-2.89c-.86-.73-1.78-1.39-2.75-1.96-.16-.63-.71-1.08-1.35-1.12-.28-.02-.56.04-.8.19-4.06,0-6.87.09-8.45.23-.31.03-.59.19-.79.42-.42.04-.79.26-1.03.61-.27.31-.39.72-.32,1.12.34,2.52.52,5.07.56,7.61.05,2.66,0,5.84-.09,9.53-.09,3.73-.14,6.35-.14,7.94v46.52c-.01.15.02.29.09.42-.2.3-.29.67-.24,1.03.01.12.06.23.14.32-.01.28.05.55.19.8.96,1.77,2.02,3.49,3.18,5.14v.32c-.11.74.41,1.43,1.15,1.54.13.02.26.02.39,0h.51c.36.14.76.14,1.12,0,.42,0,1.08,0,1.87-.04.84-.05,1.45-.05,1.87-.05,1.71-.09,3.43-.06,5.14.09.57.07,1.12-.21,1.4-.7.25.06.5.09.75.09.4,0,.78-.19,1.02-.52.26-.32.41-.71.42-1.12-.13-3.13-.07-6.27.19-9.39.26-2.73.32-5.48.18-8.22l.24-.19c.73-1.36,1.69-2.58,2.85-3.6l1.68,3.41c2.94,5.6,5.28,9.86,7.05,12.7,0,.23.05.45.14.66.19.37.42.84.7,1.31s.52.89.7,1.17c.23.32.51.74.89,1.21s.7.79.89,1.03l1.03,1.02c.42.47.7.8.79.94.12.21.3.39.51.51l.23.28c.45.63,1.32.77,1.95.32.04-.03.07-.06.11-.09,1.77.19,3.69.37,5.74.61,1.73.14,3.13.19,4.21.19.48.1.97.1,1.45,0,.21,0,.41-.03.61-.09.18,0,.35-.03.51-.09.35-.12.63-.4.75-.75.4-.8.27-1.76-.32-2.43m-7.38-56.52l.7.89c.68.93,1.44,1.79,2.29,2.57-.93.98-3.5,3.55-7.8,7.66-3.32,3.16-6.46,6.51-9.39,10.04l-.61-.84c-.76-1.13-1.42-2.34-1.96-3.6.12-.13.23-.27.32-.42,1.15-1.92,2.51-3.71,4.06-5.32,2.07-2.17,4.29-4.2,6.63-6.08,2.8-2.33,4.62-3.87,5.51-4.72l.24-.18Zm-32.36-20.78l1.02.74c2.05,1.68,3.08,2.57,3.18,2.57,0,2.66.09,6.63.37,11.96.23,5.32.32,9.29.32,11.95,0,.34.12.67.33.94,0,.24.04.47.09.7l.09.42c-1.96,1.77-3.64,3.45-5.05,4.95,0-1.73,0-3.55-.09-5.47-.04-1.92-.14-4.01-.18-6.35-.09-2.33-.09-4.15-.09-5.46-.14-6.77-.14-12.42,0-16.95m-2.15,75.85c-.37,0-.98,0-1.82.05s-1.5.04-1.91.04c-1.08-1.24-2.03-2.59-2.85-4.01,2.2,0,4.4.14,6.58.42l2.25,2.05,1.44,1.45h-3.69Zm5.93-8.64c-.14,2.94-.24,5.04-.28,6.26l-1.26-1.22-1.64-1.54c0-.98-.09-4.11-.33-9.48-.04-2.71-.04-5,0-6.77l3.6,3.69c.22,3.02.19,6.05-.09,9.06m1.96-11.49l-4.34-4.53c1.21-1.6,2.52-3.11,3.93-4.53,1.02,1.73,2.15,3.69,3.27,5.98-1.08.9-2.03,1.94-2.85,3.08m30.64,21.86c-.94,0-2.1-.04-3.64-.19-2.71-.28-4.9-.51-6.54-.75-1.26-1.29-2.43-2.66-3.5-4.11,1.37.12,2.74.16,4.11.14,1.72-.03,3.44.09,5.14.37.43.11.88,0,1.21-.28.09.05.52.61,1.36,1.64.67.77,1.22,1.64,1.64,2.57.06.12.14.23.23.32v.28Z"/></g><g id="Path_4055"><path class="cls-4" d="m397.75,137.32c-.04-11.49-.09-20.13-.09-25.88,0-1.17-.04-4.39-.19-9.67-.14-4.3-.14-7.42,0-9.34v-.33c.1-.45-.06-.92-.42-1.21-.28-.37-1.31-1.4-3.08-3.18-1.17-1.26-2.05-2.29-2.75-3.08-.35-.66-1.17-.91-1.83-.56-.12.06-.23.14-.32.24l-.23.19c-2.97-.27-5.95-.3-8.92-.09-.4-.02-.78.16-1.03.47-.28.32-.43.74-.42,1.17,0,.47.22.9.61,1.17-.05,1.26-.09,2.71-.09,4.2,0,.75.04,2.43.09,5.04.14,5.19.23,8.37.23,9.53,0,5.74,0,14.39.05,25.92,0,11.49.04,20.13.04,25.88l-.23.19c-.57.52-.61,1.42-.09,1.99.07.08.15.14.23.2.89.75,1.71,1.56,2.48,2.43,1.07,1.31,1.77,2.1,2.05,2.38v.42c.04.42.27.79.61,1.03.3.27.72.38,1.12.28,1.07-.14,3.93-.19,8.41-.19.39.01.76-.14,1.03-.42.49.22,1.07.11,1.45-.28.32-.34.5-.79.51-1.26.53-.22.86-.74.84-1.31,0-5.79-.05-14.39-.05-25.92m-4.99,26.11c-2.9,0-4.91.05-6.08.09-.04-.11-.11-.2-.19-.28-.42-.37-1.26-1.21-2.48-2.57l-.09-.24c1.61.08,3.22.01,4.81-.19h.19c1.48.74,2.79,1.79,3.83,3.08v.1Zm-1.22-5.32c.11-.23.18-.49.19-.75,0-5.74,0-14.39-.05-25.87-.04-11.54-.04-20.13-.04-25.92,0-1.08-.09-4.3-.23-9.62-.05-2.71-.09-4.91-.09-6.58l.51.51,2.57,2.66c-.14,2.01-.14,5.09,0,9.34.14,5.23.24,8.41.24,9.57,0,5.75,0,14.11.04,25.13,0,10.98.05,19.11.05,24.29-.95-1.04-2.01-1.97-3.18-2.76"/></g><g id="Path_4056"><path class="cls-4" d="m446.38,124.71c-.05-.14-.33-.75-.8-1.77l-.74-1.96c-.04-.3-.17-.58-.37-.8l-.66-1.35c-.47-.89-.84-1.58-1.12-2.05l-1.3-1.73c-.46-.66-1.01-1.26-1.64-1.77-.51-.37-1.07-.84-1.77-1.31-.69-.46-1.41-.89-2.15-1.26-2.41-.89-5.05-.97-7.52-.23-2.32.79-4.43,2.1-6.16,3.83-1.75,1.78-3.19,3.85-4.25,6.12-1.01,2.07-1.55,4.33-1.59,6.63-.04.5.19.98.61,1.26,0,.13.04.26.09.37.13.39.42.72.79.89.37.18.79.2,1.17.05,1.87-.66,5.84-1.07,11.91-1.22h4.86c2.06,0,3.79-.04,5.23-.04,1.45-.05,2.62-.09,3.6-.19.41.02.79-.18,1.02-.51.27-.31.42-.71.42-1.12v-.09c.51-.42.66-1.13.37-1.73m-27,1.63c.42-3.74,2.16-7.2,4.91-9.76,3.36-3.46,6.82-4.44,10.27-2.99.17.07.34.13.52.19-2.93.47-5.62,1.86-7.71,3.97-2.09,2.11-3.36,4.89-3.6,7.85-1.78.24-3.23.47-4.39.75m17.56-1.07c-2.95,0-4.95.04-6.08.04-1.82.05-3.46.14-4.81.19.29-2.69,1.62-5.17,3.69-6.91,2.08-1.82,4.76-2.8,7.52-2.76.22,0,.43-.07.61-.19.85.88,1.59,1.87,2.19,2.95.59.93,1.12,1.9,1.59,2.9l1.54,3.74c-1.22,0-3.32,0-6.26.04m9.44-.56c-.05-.14-.33-.75-.8-1.77l-.74-1.96c-.04-.3-.17-.58-.37-.8l-.66-1.35c-.47-.89-.84-1.58-1.12-2.05l-1.3-1.72c-.46-.66-1.01-1.26-1.64-1.77-.51-.37-1.07-.84-1.77-1.31-.69-.46-1.41-.89-2.15-1.26-2.41-.89-5.05-.97-7.52-.23-2.32.79-4.43,2.1-6.16,3.83-1.75,1.78-3.19,3.85-4.25,6.12-1.01,2.07-1.55,4.33-1.59,6.63-.04.5.19.98.61,1.26,0,.13.04.26.09.37.13.39.42.72.79.89.37.18.79.2,1.17.05,1.87-.66,5.84-1.07,11.91-1.22h4.86c2.06,0,3.79-.04,5.23-.04,1.45-.05,2.62-.09,3.6-.19.41.02.79-.18,1.02-.51.27-.31.42-.71.42-1.12v-.09c.51-.42.66-1.13.37-1.73m-27,1.63c.42-3.74,2.16-7.2,4.91-9.76,3.36-3.46,6.82-4.44,10.27-2.99.17.07.34.13.52.19-2.93.47-5.62,1.86-7.71,3.97-2.09,2.11-3.36,4.89-3.6,7.85-1.78.24-3.23.47-4.39.75m17.56-1.07c-2.95,0-4.95.04-6.08.04-1.82.05-3.46.14-4.81.19.29-2.69,1.62-5.17,3.69-6.91,2.08-1.82,4.76-2.8,7.52-2.76.22,0,.43-.07.61-.19.85.88,1.59,1.87,2.19,2.95.59.93,1.12,1.9,1.59,2.9l1.54,3.74c-1.22,0-3.32,0-6.26.04m9.44-.56c-.05-.14-.33-.75-.8-1.77l-.74-1.96c-.04-.3-.17-.58-.37-.8l-.66-1.35c-.47-.89-.84-1.58-1.12-2.05l-1.3-1.72c-.46-.66-1.01-1.26-1.64-1.77-.51-.37-1.07-.84-1.77-1.31-.69-.46-1.41-.89-2.15-1.26-2.41-.89-5.05-.97-7.52-.23-2.32.79-4.43,2.1-6.16,3.83-1.75,1.78-3.19,3.85-4.25,6.12-1.01,2.07-1.55,4.33-1.59,6.63-.04.5.19.98.61,1.26,0,.13.04.26.09.37.13.39.42.72.79.89.37.18.79.2,1.17.05,1.87-.66,5.84-1.07,11.91-1.22h4.86c2.06,0,3.79-.04,5.23-.04,1.45-.05,2.62-.09,3.6-.19.41.02.79-.18,1.02-.51.27-.31.42-.71.42-1.12v-.09c.51-.42.66-1.13.37-1.73m-27,1.63c.42-3.74,2.16-7.2,4.91-9.76,3.36-3.46,6.82-4.44,10.27-2.99.17.07.34.13.52.19-2.93.47-5.62,1.86-7.71,3.97-2.09,2.11-3.36,4.89-3.6,7.85-1.78.24-3.23.47-4.39.75m17.56-1.07c-2.95,0-4.95.04-6.08.04-1.82.05-3.46.14-4.81.19.29-2.69,1.62-5.17,3.69-6.91,2.08-1.82,4.76-2.8,7.52-2.76.22,0,.43-.07.61-.19.85.88,1.59,1.87,2.19,2.95.59.93,1.12,1.9,1.59,2.9l1.54,3.74c-1.22,0-3.32,0-6.26.04"/></g><g id="Path_4057"><path class="cls-4" d="m464.68,140.91c.01-5.73-1.1-11.41-3.27-16.72-2.22-5.31-5.64-10.02-9.99-13.78-4.39-3.89-9.74-6.52-15.5-7.61-.31-.07-.64-.03-.94.09-.77-.14-1.55-.24-2.33-.28-10.25-.99-19.97,4.77-24.01,14.24-1.68,3.81-2.65,7.89-2.85,12.05-.66,11.96,1.74,21,7.19,27.14,1.57,1.96,3.37,3.72,5.37,5.23,4.47,3.5,9.92,5.51,15.6,5.74,5.5.24,10.95-1.13,15.7-3.92,4.85-2.83,8.9-6.85,11.77-11.68.24-.49.24-1.06,0-1.54.33-.56.28-1.27-.14-1.77-.19-.28-.66-.94-1.4-2.06-.79-1.07-1.45-1.92-1.96-2.47h.61c1.65-.16,3.3-.22,4.95-.19.75.11,1.44-.41,1.54-1.16.02-.13.02-.25,0-.38-.02-.34-.13-.66-.33-.94m-36.38-30.45c2.47-.74,5.11-.65,7.52.24.74.37,1.46.79,2.15,1.26.7.46,1.26.93,1.77,1.31.63.51,1.18,1.11,1.64,1.78l1.31,1.72c.28.47.65,1.17,1.12,2.06l.66,1.35c.21.22.34.5.37.79l.75,1.96c.47,1.03.74,1.64.79,1.77.29.59.13,1.31-.37,1.73v.09c0,.41-.15.81-.42,1.12-.23.34-.62.53-1.03.51-.98.09-2.15.14-3.6.19-1.45,0-3.18.05-5.23.05h-4.86c-6.08.14-10.04.56-11.91,1.21-.38.15-.8.13-1.17-.04-.37-.17-.66-.49-.79-.89-.05-.12-.08-.25-.09-.37-.41-.28-.64-.76-.61-1.26.03-2.3.58-4.57,1.58-6.63,1.06-2.26,2.5-4.33,4.25-6.12,1.74-1.73,3.84-3.04,6.16-3.83m14.29,34.28l-.42,1.12c-.36,1.14-.94,2.18-1.72,3.08-4.21,3.97-8.64,4.3-13.36,1.03-2.6-1.92-4.66-4.48-5.98-7.43h21.81c-.02.18,0,.36.09.51.04.09.09.14.09.24-.2.47-.37.95-.51,1.45m-22.61-5.28c-.19-.8-.32-1.61-.42-2.43,3.55,0,9.25-.14,17.05-.37,7.85-.23,13.78-.37,17.89-.37l.32.33c.87.81,1.7,1.67,2.48,2.57l.19.28h-37.51Zm38.72,10.42c-2.73,4.6-6.65,8.38-11.35,10.93-4.4,2.52-9.48,3.58-14.52,3.04,2.85-.14,5.66-.74,8.31-1.77,3.62-1.37,6.87-3.54,9.53-6.35,2.58-2.76,4.38-6.16,5.19-9.86.32.42.79,1.07,1.45,1.96l1.4,2.05Zm.94-12.66c-.75-.89-1.4-1.58-1.96-2.15.13-6.17-1.23-12.27-3.97-17.79,4.92,6.33,7.69,14.07,7.89,22.09-.28-.28-.93-.98-1.96-2.15"/></g></g></g></g><g id="the" class="cls-5"><g class="cls-5"><path class="cls-4" d="m340.92,58.35c0,.06.06.11.11.11.11,0,.34-.06.57-.11,2.4-.57,5.15-1.55,6.81-2.63.34-.23.57-.29,1.03-.29,1.32,0,3.72.92,3.72,2,0,.92-.8,1.77-2,2.29-1.54.63-1.54.8-2.58,1.2-2.63,1.03-5.95,1.6-8.64,2.58-.97.34-1.32,1.15-1.83,3.15-.23.97-.57,1.32-.69,2-.29,1.83-2.23,6.53-2.58,9.33-.11.97-.69,2.8-2.69,2.8-.97,0-2.12-.4-2.8-.86s-.86-1.26-.86-1.95c0-.57.11-1.09.23-1.43,1.37-4.06,2.4-8.64,3.89-12.48.23-.57.34-.86.34-1.03s-.06-.23-.46-.46c-1.6-.92-1.83-2.18-3.26-3.32-.34-.29-.52-.51-.52-.86,0-.8,1.2-1.37,2.63-1.37.34,0,.69,0,1.09.11.97.29,1.77.74,2.23.74.34,0,.46-.17.57-.57.29-.97.57-1.77.92-2.63,1.37-3.43,2.86-7.78,4.69-11.85.29-.63.52-.86,1.15-.97.63-.11.97-.29,1.43-.29.92,0,2,.23,2.8.51.74.29,1.03.63,1.03.92,0,.17-.12.86-.23,1.37-.92,4.12-3.78,8.47-5.09,11.33-.34.74-.57,1.26-.86,2-.11.29-.17.51-.17.63Z"/></g><g class="cls-5"><path class="cls-4" d="m348.82,78.1c-.69.8-2.06,1.49-3.26,1.49-.34,0-.63-.06-.97-.17-1.83-.63-3.21-1.6-3.21-2.63,0-.52.46-.97.57-1.49,1.66-7.56,5.61-14.54,9.33-22.55,1.32-2.86,1.72-3.66,2.17-4.46,2.63-4.64,4.64-8.07,7.38-13.56.34-.69.92-.97,1.89-.97.34,0,.57,0,1.2.12,1.32.23,1.77.34,2.52,1.14.4.46.63,1.03.63,1.54,0,1.32-1.37,2.92-1.72,3.32-.92,1.03-1.2,1.43-2.12,2.69-3.66,5.04-7.27,12.82-11.79,22.49-.4.86-.52,1.2-.52,1.37,0,.06,0,.12.06.12.11,0,.4-.17.69-.57,2.69-3.78,6.52-8.64,9.27-11.39.86-.86,1.43-1.37,1.66-1.43.57-.17,1.26-.34,1.66-.34.63,0,2.06.29,2.63.52.92.34,1.26,1.09,1.26,1.83,0,1.15-.74,2.63-1.66,4.24-.74,1.26-.86,1.83-1.49,3.38-1.49,3.66-2.86,8.19-2.86,12.02,0,1.77.17,3.26,1.49,3.43.4.06,1.66.29,1.66.97,0,.29-.06.46-.29.92-.29.57-2.12,1.49-3.38,1.49-.34,0-1.43-.11-2.29-.46-2.69-1.09-3.21-3.61-3.21-5.78,0-2.92.46-5.44,1.77-8.93.17-.46.23-.63.23-.8,0-.11-.06-.17-.11-.17-.12,0-.29.11-.92.97-2.92,4.01-5.78,8.76-8.3,11.68Z"/><path class="cls-4" d="m379.67,79.76c-.8.46-1.54.63-2.52.63-1.72,0-3.61-.74-6.24-2.12-1.43-.74-2.46-2.35-3.09-4.18-.46-1.32-.74-2.69-.74-4.01,0-.8.11-1.54.34-2.35,1.66-5.78,5.44-10.7,9.67-15.22,1.26-1.32,3.49-2.69,6.52-2.69,1.15,0,2.58.23,3.83.69,1.77.63,2.29,2.35,2.29,3.83,0,2.29-1.72,5.44-3.03,7.04-3.55,4.35-7.67,8.7-12.71,11.73-.57.34-.63.4-.63.69,0,.34.52,1.43,1.03,1.66.34.17.69.29,1.09.29,1.72,0,3.83-1.49,4.52-1.89,3.55-2.06,6.01-5.09,8.93-6.81.57-.34,1.03-.46,1.49-.46,1.14,0,2.12.8,2.12,1.66,0,1.09,0,1.26-.4,1.66-1.32,1.14-2.29,2.4-4.01,4.01-1.72,1.6-4.12,3.38-8.47,5.84Zm3.61-25.13c-.29,0-1.09.46-2.4,1.77-2.4,2.4-4.58,4.87-6.35,8.58-.57,1.2-.63,1.43-.63,1.6,0,.12.11.17.17.17.11,0,.23,0,.97-.69,2.69-2.46,4.75-4.69,6.41-6.93.86-1.14.57-1.14,1.26-2.23.69-1.09.86-1.43.86-1.95,0-.29-.12-.34-.29-.34Z"/></g></g></g></svg>