<?xml version="1.0" encoding="UTF-8"?><svg id="Layer_1" xmlns="http://www.w3.org/2000/svg" viewBox="0 0 217.99 46.51"><defs><style>.cls-1{fill:#182a42;stroke-width:0px;}</style></defs><rect class="cls-1" x="96.84" y=".98" width="24.04" height="44.83"/><path class="cls-1" d="m.48,44.23l-.12-1.12v-2.92l-.28-1.92.48-1.6v.04l.12-1.36-.4-1.68.2-1.8-.32-.76.44-2.08-.28-1.08.08-1.12-.2.08-.2-.2.36-1.88.32-.12v-2.56l-.2-1.2v-2.32l-.08-1.04v-6.24l.12-.2.24-1.56-.4-2.16.12-1.56-.16-.84.16-1.8-.12-1.92L1.4.28l1.24.16.72-.24,1.16.28.64-.36,2.4.44,1.32-.12h1l.36-.24,3.04.28h11.92l.8.56-.32.96.32,2.04-.2.56.16,1-.16,1.68.2,1.36-.16.2h-.28l.44,2.24-.08.96.24.68-.52,1.28.32,1.6.12.32-.16,2.48.2.44-.2,1.72.12.76.28.96-.56,2.52.24,1.52v1.88l-.28,1.4.4,1.56-.28.64.16,1.6v1.64l-.32.88.32,1.16v1.44l.24.08.08.2-.48,1.64.12,1.52v2.88l-.88.84h-.88l-1.56.16-.8-.08-1.16.12h-1.48l-1.08.2-2.24-.28-2.52.2-1.12-.08h-5.36l-.28.16-1.88-.16h-1l-1.36-.2-1.52.16-.12-.04-.32-.56.08-1.04Zm14.48-26.52l-.2-.84-.28-.6.28-.4.36-.12.96.4,1.16.2.56-.16.56.08.76-.2,1.12.2,1.76-.12.36-.24.12-1.2-.32-.8-.28-.32-.56-.24h-1.52l-1.08-.2-1.44.24h-.8l-1.28.2-.32-.2-.88-.16-1.24.12-2.36-.2-.88.24-1.12.08-.64-.16-.96-.08-.36.2-1.28-.2-1,.16-.24.6v.88l-.12.36.12.72.64.2.88.08,1.2-.12,1.28.28,1.04-.2h1.16l.52-.2.64-.08.4.24.16.32-.52,1.68.24,1.04-.16,1.04v.92l.08.28.12,1.12-.2.28.12,1.36-.16,1.32.28.92v.68l-.24.56-.08.96.12,1.08.08.2-.16,1.52.24.68-.12.48v1.16l.08.52v.84l.6.64,1.16.08.84-.44h.4l.32-1.12-.2-1.32v-1.4l.08-.52v-2.48l.12-.48v-1.48l.12-.84-.36-1.24.32-1v-.8l-.24-.64v-1.12l.28-1.04-.36-.76.24-.44.08-1Z"/><path class="cls-1" d="m24.84,45.99l-.2-.28v-4.44l-.2-.72v-2.56l.16-1.08.28-.36-.52-1.44.28-2.16-.32-1.72.28-1.52-.2-.72v-.36l-.36-1.16.52-2.08v-2.84l-.08-.88v.04l-.16-.88.08-.68-.36-1.72.2-1.28v-1.48l-.08-.2v-2.32l.12-.64v-2.4l-.28-1.8.16-2.24-.08-1.04v-1.84l-.24-1.56,1.12-.8,1.28.16.4-.4,1.8.44,1.32-.2.84.28,1.6-.24.8.2,1.32-.44,2.32.28,1.56-.2h3.84l1.04.16,1.36-.28h4.4l.68.56-.16,1.08.28,1.4-.32.64.32,1.4v1.88l.16.64-.36,1.28.08.88v-.04l.16.84-.08,1.28.36,1-.28,1.76.2,1.24-.2,1.6.28,1.44-.12.88.44,2.12-.4,3.2.16,2.48-.2,2.12.48,1.2-.16,1.68v2.04l-.2.96.28.92-.08,1.08.32,1.32-.32,1.44.16,1.04v3.08l.08.52-.04.12-.88.28-.64-.12-1.92.16-1.2-.08-1.36.24h-4.72l-2.28.28-2.48-.16h-3.4l-.88.24-1.28-.12h-4.16l-.16-.08-.16-.32Zm12.4-27.92h-.48l-1.4.2.08-.04h-1.08l-.2.28-.84.52-.72.16-.4.28-.8.32-.8,1.08-.4.48-.48,1.04-.16.52-.96,2.2.2.96-.24,1.44-.08,1.24.4.72.32,1.64.36,1.16.4.4.36.64,1.28,1.04.12.32.8.44.36.28.88.2.4.36,1.44.44,1.36-.16h1.2l.64-.24,1.52-.16,1.24-.56.8-.4,1.24-1.16.76-.92.68-1.68.24-.52.32-3.28.08-1.08-.24-1v-.92l-.12-.96-.64-1.12-.6-.64-.48-.88-.96-.92v-.12l-.8-.28-1-.64-.72-.28-1.12-.32h-1.08l-.68-.08Zm-.08,2.64l.56.08,1,.32,1.12.2.84.48.92,1.08.16,1,.24.4.6,2.64-.4,2.04-.2.4.2.44-.44,1.12-.44.88-.8,1.04-.4.04-.8.32-.28.24h-.88l-1.56.28v-.08l-1.04-.08-.52-.2-1.2-.76-.8-.68-.12-.36-.68-1.16.04-.24-.16-.76-.08-1.32-.2-.92.24-1.16-.08-1.28.28-.84.92-1.64.68-.72,1-.36.52-.24.92-.2h.84Z"/><path class="cls-1" d="m48.84,45.99l-.2-.28v-4.44l-.2-.72v-2.56l.16-1.08.28-.36-.52-1.44.28-2.16-.32-1.72.28-1.52-.2-.72v-.36l-.36-1.16.52-2.08v-2.84l-.08-.88v.04l-.16-.88.08-.68-.36-1.72.2-1.28v-1.48l-.08-.2v-2.32l.12-.64v-2.4l-.28-1.8.16-2.24-.08-1.04v-1.84l-.24-1.56,1.12-.8,1.28.16.4-.4,1.8.44,1.32-.2.84.28,1.6-.24.8.2,1.32-.44,2.32.28,1.56-.2h3.84l1.04.16,1.36-.28h4.4l.68.56-.16,1.08.28,1.4-.32.64.32,1.4v1.88l.16.64-.36,1.28.08.88v-.04l.16.84-.08,1.28.36,1-.28,1.76.2,1.24-.2,1.6.28,1.44-.12.88.44,2.12-.4,3.2.16,2.48-.2,2.12.48,1.2-.16,1.68v2.04l-.2.96.28.92-.08,1.08.32,1.32-.32,1.44.16,1.04v3.08l.08.52-.04.12-.88.28-.64-.12-1.92.16-1.2-.08-1.36.24h-4.72l-2.28.28-2.48-.16h-3.4l-.88.24-1.28-.12h-4.16l-.16-.08-.16-.32Zm12.4-27.92h-.48l-1.4.2.08-.04h-1.08l-.2.28-.84.52-.72.16-.4.28-.8.32-.8,1.08-.4.48-.48,1.04-.16.52-.96,2.2.2.96-.24,1.44-.08,1.24.4.72.32,1.64.36,1.16.4.4.36.64,1.28,1.04.12.32.8.44.36.28.88.2.4.36,1.44.44,1.36-.16h1.2l.64-.24,1.52-.16,1.24-.56.8-.4,1.24-1.16.76-.92.68-1.68.24-.52.32-3.28.08-1.08-.24-1v-.92l-.12-.96-.64-1.12-.6-.64-.48-.88-.96-.92v-.12l-.8-.28-1-.64-.72-.28-1.12-.32h-1.08l-.68-.08Zm-.08,2.64l.56.08,1,.32,1.12.2.84.48.92,1.08.16,1,.24.4.6,2.64-.4,2.04-.2.4.2.44-.44,1.12-.44.88-.8,1.04-.4.04-.8.32-.28.24h-.88l-1.56.28v-.08l-1.04-.08-.52-.2-1.2-.76-.8-.68-.12-.36-.68-1.16.04-.24-.16-.76-.08-1.32-.2-.92.24-1.16-.08-1.28.28-.84.92-1.64.68-.72,1-.36.52-.24.92-.2h.84Z"/><path class="cls-1" d="m72.36,39.19l-.16-.76.48-1.24-.16-1.84-.24-.84.2-1.92-.36-.88.48-2.4-.24-1.36v-2.32l.24-.4-.08-.76.24-2.12-.32-1.52v.04l-.04-.4.16-.88-.16-1v.04l-.16-1.08.16-.96-.08-.84v-1.12l.16-.88v-3.48l.2-.92-.32-1.88.28-.92-.24-2.12V1.4l.88-1,1.84-.32,1.92.36.36-.28,2.12.36h2.56l.76-.16.24-.16,3.44.36,1.48-.12h2.48l.88.12.64-.2h2.08l2.72.24,1.2.44-.32.92.32,1.92-.24.28.2,1.32-.16,1.32.24,1.76-.2.52.08,1.04-.28,1.72.44,1.6-.04.16-.52.44.48,2.36-.12,1.04.28,1.04-.36,1.44.32,1.6v1.6l-.24,1.76v4.6l.32.96-.44,1.12.24,2.12v1.12l-.32,1.04.4,1.2-.12,1.6.28.72-.32,1.32.16.76v3.76l-1.04.48-1.08.16-.96-.08h-1.44l-1.32.2-1.32-.08-1.2.4-1.88-.48-1.44.12h-6.6l-1.36.12-1.52-.16h-3.12l-.68.08-.76-.68v-6.08Zm20.44-4.68v-.8l-1.2-.56-1.16-.08-.28.16-1.08.16-.68-.16-1.92.48-.4-.48.48-.56.2-1.68.16-1.04-.16-.36-.2-.96.24-.56-.12-1.52.2-2.36-.24-.76.08-.4v-1.64l.2-.76-.16-1.96v-1.44l-.08-.76v-1.32l-.2-1.16.36-.8-.16-.92.12-.76-.8-.92-.56-.24h-3l-.72.12-1.04-.08h-.88l-1.08-.12-.88.48-.24,1,.08.56.6.56,1.4.16,1.56-.16,1,.12,1.04-.2.48.12.32.36-.36.6-.24.72.16.88-.12,1.84.2.8-.28,1.12v.96l.12,1.4.16.32-.12.52.2,1.4-.2.44v1.48l.08.48-.08.36v.92l.08.52-.32,1.32.16.28-.16,1.24.28.96v.6l.2.8-.32.52-1-.56-1.64.12-.36-.08-.64.08-.88-.24-.84.2-.72.88.24,1.48.88.32,1.12-.2,1.52.12,1.56.04h.76l1.24-.24.24.2h2.52l1.16-.08.2.12h1.92l1.52-.16.4-.52.08-.72Z"/><path class="cls-1" d="m120.48,44.23l-.12-1.12v-2.92l-.28-1.92.48-1.6v.04l.12-1.36-.4-1.68.2-1.8-.32-.76.44-2.08-.28-1.08.08-1.12-.2.08-.2-.2.36-1.88.32-.12v-2.56l-.2-1.2v-2.32l-.08-1.04v-6.24l.12-.2.24-1.56-.4-2.16.12-1.56-.16-.84.16-1.8-.12-1.92,1.04-1.04,1.24.16.72-.24,1.16.28.64-.36,2.4.44,1.32-.12h1l.36-.24,3.04.28h11.92l.8.56-.32.96.32,2.04-.2.56.16,1-.16,1.68.2,1.36-.16.2h-.28l.44,2.24-.08.96.24.68-.52,1.28.32,1.6.12.32-.16,2.48.2.44-.2,1.72.12.76.28.96-.56,2.52.24,1.52v1.88l-.28,1.4.4,1.56-.28.64.16,1.6v1.64l-.32.88.32,1.16v1.44l.24.08.08.2-.48,1.64.12,1.52v2.88l-.88.84h-.88l-1.56.16-.8-.08-1.16.12h-1.48l-1.08.2-2.24-.28-2.52.2-1.12-.08h-5.36l-.28.16-1.88-.16h-1l-1.36-.2-1.52.16-.12-.04-.32-.56.08-1.04Zm14.48-26.52l-.2-.84-.28-.6.28-.4.36-.12.96.4,1.16.2.56-.16.56.08.76-.2,1.12.2,1.76-.12.36-.24.12-1.2-.32-.8-.28-.32-.56-.24h-1.52l-1.08-.2-1.44.24h-.8l-1.28.2-.32-.2-.88-.16-1.24.12-2.36-.2-.88.24-1.12.08-.64-.16-.96-.08-.36.2-1.28-.2-1,.16-.24.6v.88l-.12.36.12.72.64.2.88.08,1.2-.12,1.28.28,1.04-.2h1.16l.52-.2.64-.08.4.24.16.32-.52,1.68.24,1.04-.16,1.04v.92l.08.28.12,1.12-.2.28.12,1.36-.16,1.32.28.92v.68l-.24.56-.08.96.12,1.08.08.2-.16,1.52.24.68-.12.48v1.16l.08.52v.84l.6.64,1.16.08.84-.44h.4l.32-1.12-.2-1.32v-1.4l.08-.52v-2.48l.12-.48v-1.48l.12-.84-.36-1.24.32-1v-.8l-.24-.64v-1.12l.28-1.04-.36-.76.24-.44.08-1Z"/><path class="cls-1" d="m144.84,43.95l-.32-4.52v-1.52l.36-.76-.2-1.64-.24-.8.24-1.92-.2-1.4.28-1.12-.32-1.48v-1.12l-.24-1.24.36-1.52-.12-.72.32-1.28-.32-1.36v-2.04l-.24-1.76v-6.04l.36-1.92-.48-1.64V1.8l.96-1.28,1.32.16,1.08-.32,1.6.32.8-.24,1.6.2h1.84l.6-.24.84.12h8l.64-.2h4.8l1.4.44-.12,1.64.2,1.2-.28.36.28,1.24-.12,1.32.4,2.2-.28,1.24.12.88-.32.52.6,1.6-.32,2.08.16,1.56v1.36l.2.2.04.16-.28,1.84.16.96.36,1.2-.32,1.84v3.48l-.24,1.68.56,1.72-.28,1.28.08.96v2.56l.16.32-.16,1.72.16,1.72-.04.48v5.36l-.12.16h-1.56l-1.64.16-.92-.16-1.24.28-.84.08h-2.44l-.72-.16-1.88.24h-7.6l-.36.12h.04l-.32.12-1.96-.2h-2.12l-1,.2-.76-.76v-1.56Zm7.32-12.2l-.08-.56v-1.6l-.2.08v-1.16l-.28-.6-.36-1.68.04-.44-.2-.84v-1.12l-.28-1.24-.28-.88v-1.12l-.16-.76-.04-.48-1.24-.92-.44.04-.72.08-.48.72-.08.36v1.24l.4.24.12,1.08v.68l.4,1.72.24,1.16v.32l.36.8v1.12l.12.96.36,1.16.16.8-.04.48.36,1.28-.08.4.16.96.48,1.24.24.52,1.28.12,1.32-.08.28-.16.72-.84.56-.8v-.84l.44-1.44.56-.84-.16-.4.96-3.2.28-.6.2-1-.12-.44.24-.16.48,1.2-.2.12.6,1.24-.12.6.44,1.68.2.36.4,1.52.28.44.28,1.8.68,1.32.76.48.68.12,1.72-.28.56-.52.48-1,.28-1,.12-1.68v-.52l.24-.76v-.88l.4-1.56v-.6l.44-1.08-.12-.44.6-1.12-.2-1.04.12-1.44.44-.92-.04-.44.28-.84-.16-.56-.56-.76-.68-.08-.68.2-.72.4-.08,1.12-.24.24-.16.8.08,1.2-.28.28v1.08l-.4.96.12,1.52-.36.68-.32,1.12.12.72v1.08l-.32.32-.16,1.64-.12.48-.28.44-.24-.96v-.6l-.48-1v-.84l-.44-.88-.24-1.16-.52-1.36-.16-1.04-.68-1.08-.4-1.2-1.2-.44-1.24-.16-.48.4-.32.4-.24.48-.28,1-.4,1.92-.28.6-.12.64-.64,1v1.88l-.32.2-.52,1.32-.44-.12Z"/><path class="cls-1" d="m168.84,45.99l-.2-.28v-4.44l-.2-.72v-2.56l.16-1.08.28-.36-.52-1.44.28-2.16-.32-1.72.28-1.52-.2-.72v-.36l-.36-1.16.52-2.08v-2.84l-.08-.88v.04l-.16-.88.08-.68-.36-1.72.2-1.28v-1.48l-.08-.2v-2.32l.12-.64v-2.4l-.28-1.8.16-2.24-.08-1.04v-1.84l-.24-1.56,1.12-.8,1.28.16.4-.4,1.8.44,1.32-.2.84.28,1.6-.24.8.2,1.32-.44,2.32.28,1.56-.2h3.84l1.04.16,1.36-.28h4.4l.68.56-.16,1.08.28,1.4-.32.64.32,1.4v1.88l.16.64-.36,1.28.08.88v-.04l.16.84-.08,1.28.36,1-.28,1.76.2,1.24-.2,1.6.28,1.44-.12.88.44,2.12-.4,3.2.16,2.48-.2,2.12.48,1.2-.16,1.68v2.04l-.2.96.28.92-.08,1.08.32,1.32-.32,1.44.16,1.04v3.08l.08.52-.04.12-.88.28-.64-.12-1.92.16-1.2-.08-1.36.24h-4.72l-2.28.28-2.48-.16h-3.4l-.88.24-1.28-.12h-4.16l-.16-.08-.16-.32Zm12.4-27.92h-.48l-1.4.2.08-.04h-1.08l-.2.28-.84.52-.72.16-.4.28-.8.32-.8,1.08-.4.48-.48,1.04-.16.52-.96,2.2.2.96-.24,1.44-.08,1.24.4.72.32,1.64.36,1.16.4.4.36.64,1.28,1.04.12.32.8.44.36.28.88.2.4.36,1.44.44,1.36-.16h1.2l.64-.24,1.52-.16,1.24-.56.8-.4,1.24-1.16.76-.92.68-1.68.24-.52.32-3.28.08-1.08-.24-1v-.92l-.12-.96-.64-1.12-.6-.64-.48-.88-.96-.92v-.12l-.8-.28-1-.64-.72-.28-1.12-.32h-1.08l-.68-.08Zm-.08,2.64l.56.08,1,.32,1.12.2.84.48.92,1.08.16,1,.24.4.6,2.64-.4,2.04-.2.4.2.44-.44,1.12-.44.88-.8,1.04-.4.04-.8.32-.28.24h-.88l-1.56.28v-.08l-1.04-.08-.52-.2-1.2-.76-.8-.68-.12-.36-.68-1.16.04-.24-.16-.76-.08-1.32-.2-.92.24-1.16-.08-1.28.28-.84.92-1.64.68-.72,1-.36.52-.24.92-.2h.84Z"/><path class="cls-1" d="m192.2,44.15l-.2-2.6v-2.76l-.08-.88.44-.92-.16-1.76-.36-1.12.12-1.24v-1.36l.4-1.48-.44-1.68v-2.36l.4-1.04-.2-1.24.32-1.16-.32-2.56v-1.48l-.24-.96.28-1.16v-4.96l.16-1.52-.24-1.36-.08-.96.28-1.32-.24-1.72.12-1.92-.2-1.56,1.12-.8,1.12.12.84-.4,2,.44.48-.16,1.32.24,1.08-.08,1.72.12.96-.36,1.52.24.56.2,1.88-.2h3.44l.68.2,1.24-.24h2.28l1.68.16h1.56l.16.32-.16,1.76.28,1.2-.32,1.2.28,1.24-.2.48.2,1.96-.32.32.32,2.04-.32.88.48,1.56-.44,1.08.24,1.4v2.32l.16.56-.28,1.24.48,2.72-.32,1.88v3.6l-.16,1.16.32.96-.28,1.08.12,1.36v2.16l-.24.88.28,1.08-.08,1.32.12,1.4-.2.56.12.96v4.04l-.2.4v-.04l-.64.16h-4.16l-.96.12-.64-.04-1.12.48-1.84-.44-.68-.08-1.28.16h-1.36l-2.12-.16-1.24.08h-1.8l-1.04-.08-.6.24-4.08-.32-1.4.16-.36-.48-.08-.24.12-1.04Zm15.52-23.56l-.56-1.68-.48-.32h-.8l-.88-.12-1.24.24-.68.64-.64,2.16.64.88-.08.24.72.76h1.96l1.4-.28.32-.6v-1l.32-.92Zm.04,12.52l-.36-.76-.56-1-.36-.24-1.88-.16-1.16.32-.56.56-.2.96.2,1.2-.08.4.28.88.56.56.52-.08,1.36.2h.68l.92-.68.4-.6.24-.8v-.76Z"/></svg>